# frame 000033 
# time 0.017000 
# name Cloth3D 
v -0.000000 0.000000 -0.000000
v 1.000000 0.000000 -0.000000
v -0.000000 1.000000 0.000000
v 1.000000 1.000000 0.000000
v 0.499995 0.499986 0.003284
v -0.000000 0.500000 0.000000
v 0.500000 1.000000 0.000000
v 1.000000 0.500000 0.000000
v 0.500000 -0.000000 0.000000
v 0.250034 0.750001 -0.002131
v 0.749942 0.749969 -0.001731
v 0.250031 0.249997 -0.002133
v 0.750000 0.250053 -0.002039
v 0.750000 0.000000 0.000000
v 0.250000 0.000000 0.000000
v 1.000000 0.750000 0.000000
v 1.000000 0.250000 0.000000
v 0.250000 1.000000 0.000000
v 0.750000 1.000000 0.000000
v 0.000000 0.250000 0.000000
v 0.000000 0.750000 -0.000000
v 0.499992 0.250132 -0.003674
v 0.250084 0.500002 -0.002846
v 0.500038 0.749781 -0.003248
v 0.749704 0.500002 -0.002902
v 0.874985 0.375016 -0.001233
v 0.624998 0.125009 -0.001265
v 0.625051 0.374954 0.003284
v 0.875003 0.124995 -0.001553
v 0.375008 0.124999 -0.001359
v 0.124991 0.124990 -0.001485
v 0.374950 0.374936 0.003284
v 0.874984 0.624984 -0.001248
v 0.625040 0.625068 0.003284
v 0.875007 0.875006 -0.001451
v 0.375015 0.874983 -0.001162
v 0.374928 0.625048 0.003284
v 0.124998 0.875005 -0.001577
v 0.125022 0.624998 -0.001483
v 0.624991 0.874977 -0.001112
v 0.125020 0.375007 -0.001424
v 0.250008 0.124996 -0.001398
v 0.874997 0.749988 -0.001271
v 0.874999 0.250011 -0.001239
v 0.250011 0.875002 -0.001320
v 0.749995 0.874998 -0.001267
v 0.124998 0.250007 -0.001428
v 0.125006 0.749995 -0.001320
v 0.374958 0.250180 -0.003360
v 0.250131 0.625027 -0.003023
v 0.749794 0.625005 -0.002616
v 0.874968 0.500005 -0.001181
v 0.625061 0.749725 -0.002627
v 0.374999 0.749841 -0.002785
v 0.000000 0.375000 0.000000
v 0.500003 0.874981 -0.001403
v 0.499987 0.625068 0.003285
v 0.250084 0.374983 -0.002785
v 0.125023 0.500004 -0.001607
v 0.374929 0.499988 0.003285
v 0.624975 0.250117 -0.002979
v 0.499999 0.125003 -0.001464
v 0.499995 0.374913 0.003285
v 0.000000 0.625000 0.000000
v 0.000000 0.875000 0.000000
v 0.000000 0.125000 0.000000
v 0.625000 1.000000 0.000000
v 0.875000 1.000000 0.000000
v 0.125000 1.000000 0.000000
v 0.375000 1.000000 0.000000
v 1.000000 0.375000 0.000000
v 1.000000 0.125000 0.000000
v 1.000000 0.875000 0.000000
v 1.000000 0.625000 0.000000
v 0.375000 0.000000 0.000000
v 0.125000 0.000000 0.000000
v 0.875000 0.000000 0.000000
v 0.625000 0.000000 0.000000
v 0.749990 0.125008 -0.001395
v 0.625100 0.499997 0.003285
v 0.314516 0.566917 0.003429
v 0.062491 0.312510 -0.002136
v 0.187552 0.437504 -0.001064
v 0.187535 0.312505 -0.000989
v 0.062496 0.437500 -0.002158
v 0.687494 0.937508 -0.002177
v 0.687487 0.812465 -0.002511
v 0.562497 0.937505 -0.002145
v 0.062493 0.687495 -0.002188
v 0.187542 0.687497 -0.001938
v 0.062498 0.562504 -0.002077
v 0.187505 0.937515 -0.002165
v 0.187511 0.812498 -0.001328
v 0.062485 0.937515 -0.002484
v 0.437460 0.562524 0.003285
v 0.538776 0.712235 0.003429
v 0.437514 0.812438 -0.001637
v 0.312530 0.812477 -0.002195
v 0.437501 0.937508 -0.002127
v 0.937515 0.812499 -0.002096
v 0.812487 0.812488 -0.001444
v 0.937520 0.937520 -0.002426
v 0.713711 0.591258 0.003429
v 0.562529 0.562527 0.003285
v 0.419723 0.702091 0.003429
v 0.812421 0.562493 -0.001587
v 0.812464 0.687467 -0.002372
v 0.937507 0.562494 -0.002157
v 0.657860 0.722381 0.003429
v 0.561687 0.312917 0.003429
v 0.437466 0.437449 0.003285
v 0.187500 0.062484 -0.002108
v 0.062479 0.062479 -0.002419
v 0.187503 0.187500 -0.001299
v 0.312504 0.062486 -0.002063
v 0.312524 0.187512 -0.001744
v 0.437508 0.062483 -0.002127
v 0.812496 0.062487 -0.002063
v 0.937519 0.062484 -0.002449
v 0.326489 0.426387 0.003429
v 0.562530 0.437459 0.003285
v 0.320218 0.499992 0.003429
v 0.562487 0.187529 -0.001666
v 0.687487 0.187551 -0.001058
v 0.562499 0.062487 -0.002206
v 0.937511 0.312506 -0.002265
v 0.812474 0.312527 -0.002829
v 0.937506 0.437508 -0.002280
v 0.312509 0.937511 -0.002266
v 0.430742 0.301760 0.003429
v 0.812494 0.187515 -0.001366
v 0.730025 0.399797 0.003429
v 0.687493 0.062490 -0.002220
v 0.687630 0.437508 0.003284
v 0.937513 0.187501 -0.002190
v 0.437491 0.187545 -0.001470
v 0.062484 0.187501 -0.002093
v 0.721480 0.500077 0.003429
v 0.937509 0.687492 -0.002151
v 0.682199 0.323185 0.003429
v 0.062487 0.812497 -0.002165
v 0.812500 0.937515 -0.002093
v 0.187567 0.562509 -0.000930
v 0.562520 0.812429 -0.001731
v 0.812430 0.437523 -0.002031
v 0.337754 0.293805 0.003442
v 0.303805 0.692244 0.003442
v 0.736196 0.327756 0.003442
v 0.702244 0.726195 0.003442
v 0.707710 0.661694 0.003429
v 0.496216 0.307339 0.003429
v 0.332042 0.361064 0.003436
vt 0.000000 0.000000
vt 1.000000 0.000000
vt 0.000000 1.000000
vt 1.000000 1.000000
vt 0.500000 0.500000
vt 0.000000 0.500000
vt 0.500000 1.000000
vt 1.000000 0.500000
vt 0.500000 0.000000
vt 0.250000 0.750000
vt 0.750000 0.750000
vt 0.250000 0.250000
vt 0.750000 0.250000
vt 0.750000 0.000000
vt 0.250000 0.000000
vt 1.000000 0.750000
vt 1.000000 0.250000
vt 0.250000 1.000000
vt 0.750000 1.000000
vt 0.000000 0.250000
vt 0.000000 0.750000
vt 0.500000 0.250000
vt 0.250000 0.500000
vt 0.500000 0.750000
vt 0.750000 0.500000
vt 0.875000 0.375000
vt 0.625000 0.125000
vt 0.625000 0.375000
vt 0.875000 0.125000
vt 0.375000 0.125000
vt 0.125000 0.125000
vt 0.375000 0.375000
vt 0.875000 0.625000
vt 0.625000 0.625000
vt 0.875000 0.875000
vt 0.375000 0.875000
vt 0.375000 0.625000
vt 0.125000 0.875000
vt 0.125000 0.625000
vt 0.625000 0.875000
vt 0.125000 0.375000
vt 0.250000 0.125000
vt 0.875000 0.750000
vt 0.875000 0.250000
vt 0.250000 0.875000
vt 0.750000 0.875000
vt 0.125000 0.250000
vt 0.125000 0.750000
vt 0.375000 0.250000
vt 0.250000 0.625000
vt 0.750000 0.625000
vt 0.875000 0.500000
vt 0.625000 0.750000
vt 0.375000 0.750000
vt 0.000000 0.375000
vt 0.500000 0.875000
vt 0.500000 0.625000
vt 0.250000 0.375000
vt 0.125000 0.500000
vt 0.375000 0.500000
vt 0.625000 0.250000
vt 0.500000 0.125000
vt 0.500000 0.375000
vt 0.000000 0.625000
vt 0.000000 0.875000
vt 0.000000 0.125000
vt 0.625000 1.000000
vt 0.875000 1.000000
vt 0.125000 1.000000
vt 0.375000 1.000000
vt 1.000000 0.375000
vt 1.000000 0.125000
vt 1.000000 0.875000
vt 1.000000 0.625000
vt 0.375000 0.000000
vt 0.125000 0.000000
vt 0.875000 0.000000
vt 0.625000 0.000000
vt 0.750000 0.125000
vt 0.625000 0.500000
vt 0.314644 0.566904
vt 0.062500 0.312500
vt 0.187500 0.437500
vt 0.187500 0.312500
vt 0.062500 0.437500
vt 0.687500 0.937500
vt 0.687500 0.812500
vt 0.562500 0.937500
vt 0.062500 0.687500
vt 0.187500 0.687500
vt 0.062500 0.562500
vt 0.187500 0.937500
vt 0.187500 0.812500
vt 0.062500 0.937500
vt 0.437500 0.562500
vt 0.538815 0.712074
vt 0.437500 0.812500
vt 0.312500 0.812500
vt 0.437500 0.937500
vt 0.937500 0.812500
vt 0.812500 0.812500
vt 0.937500 0.937500
vt 0.713599 0.591181
vt 0.562500 0.562500
vt 0.419773 0.701979
vt 0.812500 0.562500
vt 0.812500 0.687500
vt 0.937500 0.562500
vt 0.657849 0.722211
vt 0.561681 0.313007
vt 0.437500 0.437500
vt 0.187500 0.062500
vt 0.062500 0.062500
vt 0.187500 0.187500
vt 0.312500 0.062500
vt 0.312500 0.187500
vt 0.437500 0.062500
vt 0.812500 0.062500
vt 0.937500 0.062500
vt 0.326581 0.426426
vt 0.562500 0.437500
vt 0.320336 0.500005
vt 0.562500 0.187500
vt 0.687500 0.187500
vt 0.562500 0.062500
vt 0.937500 0.312500
vt 0.812500 0.312500
vt 0.937500 0.437500
vt 0.312500 0.937500
vt 0.430761 0.301873
vt 0.812500 0.187500
vt 0.729931 0.399814
vt 0.687500 0.062500
vt 0.687500 0.437500
vt 0.937500 0.187500
vt 0.437500 0.187500
vt 0.062500 0.187500
vt 0.721178 0.500031
vt 0.937500 0.687500
vt 0.682130 0.323254
vt 0.062500 0.812500
vt 0.812500 0.937500
vt 0.187500 0.562500
vt 0.562500 0.812500
vt 0.812500 0.437500
vt 0.337763 0.293929
vt 0.303930 0.692176
vt 0.736059 0.327805
vt 0.702151 0.726076
vt 0.707634 0.661652
vt 0.496216 0.307507
vt 0.332109 0.361140
vn 0.018302 0.018302 0.999665
vn -0.018514 0.018514 0.999657
vn 0.018763 -0.018763 0.999648
vn -0.018357 -0.018357 0.999663
vn 0.000000 0.000000 1.000000
vn 0.032002 -0.000305 0.999488
vn 0.000062 -0.032295 0.999478
vn -0.033524 -0.000449 0.999438
vn 0.000285 0.032728 0.999464
vn -0.021663 0.008389 0.999730
vn 0.040267 0.026978 0.998825
vn -0.013089 -0.004711 0.999903
vn 0.012038 -0.021134 0.999704
vn -0.000582 0.032375 0.999476
vn -0.000166 0.031537 0.999503
vn -0.032107 -0.000200 0.999484
vn -0.033629 0.000284 0.999434
vn 0.000378 -0.033446 0.999440
vn -0.000312 -0.032282 0.999479
vn 0.031965 0.000152 0.999489
vn 0.032860 -0.000086 0.999460
vn 0.004559 -0.057876 0.998313
vn -0.033737 -0.002268 0.999428
vn -0.023102 0.068759 0.997366
vn 0.143057 0.010155 0.989662
vn -0.001056 -0.001591 0.999998
vn -0.000048 -0.003614 0.999993
vn -0.000525 0.001292 0.999999
vn 0.004562 -0.005082 0.999977
vn -0.000796 -0.003795 0.999992
vn -0.004190 -0.004294 0.999982
vn 0.002071 0.000340 0.999998
vn 0.001482 -0.000823 0.999999
vn -0.000737 -0.000582 1.000000
vn 0.003747 0.003722 0.999986
vn 0.001100 0.001985 0.999997
vn 0.000940 -0.000383 0.999999
vn -0.005501 0.005501 0.999970
vn -0.005304 0.001546 0.999985
vn 0.001263 0.001328 0.999998
vn -0.008451 0.000899 0.999964
vn 0.001467 -0.004323 0.999990
vn 0.003234 0.000105 0.999995
vn 0.002767 0.002274 0.999994
vn 0.001021 0.003612 0.999993
vn 0.000054 0.003067 0.999995
vn -0.004956 -0.001539 0.999987
vn -0.003788 -0.001004 0.999992
vn 0.013045 -0.066209 0.997720
vn -0.038661 -0.001520 0.999251
vn 0.089065 0.011338 0.995961
vn 0.002281 0.001430 0.999996
vn -0.029934 0.093043 0.995212
vn -0.014090 0.053573 0.998465
vn 0.032440 0.000086 0.999474
vn -0.002135 0.003566 0.999991
vn 0.000027 -0.000793 1.000000
vn -0.024050 -0.000311 0.999711
vn -0.008456 -0.000670 0.999964
vn 0.001634 0.000109 0.999999
vn 0.013055 -0.034409 0.999323
vn -0.001109 -0.004613 0.999989
vn -0.000066 0.001238 0.999999
vn 0.032212 0.000410 0.999481
vn 0.035101 0.001207 0.999383
vn 0.034127 -0.001234 0.999417
vn 0.000122 -0.032662 0.999466
vn 0.001262 -0.034179 0.999415
vn -0.001207 -0.035102 0.999383
vn -0.000508 -0.033186 0.999449
vn -0.034309 0.000056 0.999411
vn -0.035039 -0.000990 0.999385
vn -0.034204 0.001249 0.999414
vn -0.032566 -0.000030 0.999470
vn 0.000239 0.031681 0.999498
vn -0.001181 0.034231 0.999413
vn 0.001451 0.034113 0.999417
vn 0.000060 0.033418 0.999441
vn 0.000570 -0.005148 0.999987
vn -0.000562 -0.000262 1.000000
vn -0.043884 -0.001861 0.999035
vn 0.010754 0.000107 0.999942
vn 0.009297 0.000353 0.999957
vn 0.007699 -0.001622 0.999969
vn 0.011806 0.000241 0.999930
vn 0.000199 -0.008989 0.999960
vn -0.002243 0.016785 0.999857
vn -0.000467 -0.009513 0.999955
vn 0.010571 -0.000142 0.999944
vn 0.008784 -0.000872 0.999961
vn 0.011652 -0.000185 0.999932
vn -0.000895 -0.010925 0.999940
vn 0.002070 -0.002072 0.999996
vn 0.011748 -0.011748 0.999862
vn 0.000299 0.000000 1.000000
vn -0.020336 0.061530 0.997898
vn 0.000306 0.005904 0.999983
vn 0.001909 0.003152 0.999993
vn 0.000240 -0.011941 0.999929
vn -0.011830 0.000866 0.999930
vn 0.000506 0.000483 1.000000
vn -0.011290 -0.011297 0.999872
vn 0.068963 0.018242 0.997452
vn 0.000000 0.000000 1.000000
vn -0.008789 0.045741 0.998915
vn 0.008474 -0.000754 0.999964
vn 0.007199 -0.003522 0.999968
vn -0.011638 -0.000101 0.999932
vn -0.024850 0.059615 0.997912
vn 0.001234 -0.036695 0.999326
vn 0.000353 -0.000000 1.000000
vn -0.000838 0.011888 0.999929
vn 0.011367 0.011341 0.999871
vn 0.000462 0.001521 0.999999
vn -0.000031 0.012389 0.999923
vn 0.002757 -0.008390 0.999961
vn 0.000450 0.012114 0.999927
vn 0.000729 0.012045 0.999927
vn -0.011461 0.011690 0.999866
vn -0.032632 -0.001840 0.999466
vn 0.000000 -0.000000 1.000000
vn -0.034858 -0.002882 0.999388
vn 0.000416 -0.000979 0.999999
vn -0.003027 0.007617 0.999966
vn -0.000201 0.010303 0.999947
vn -0.009341 0.000165 0.999956
vn 0.019406 -0.008084 0.999779
vn -0.009115 -0.000302 0.999958
vn -0.000360 -0.009373 0.999956
vn 0.001394 -0.045976 0.998942
vn -0.002393 0.000292 0.999997
vn 0.027678 0.007521 0.999589
vn -0.000016 0.011218 0.999937
vn -0.002064 0.000081 0.999998
vn -0.010534 -0.000943 0.999944
vn 0.000637 -0.004018 0.999992
vn 0.011915 -0.000652 0.999929
vn 0.142129 0.011581 0.989780
vn -0.009533 -0.000081 0.999955
vn 0.000260 -0.032837 0.999461
vn 0.010925 0.001040 0.999940
vn 0.000822 -0.011818 0.999930
vn 0.010351 0.001729 0.999945
vn -0.001087 0.006031 0.999981
vn 0.009975 0.009947 0.999901
vn -0.001021 -0.043835 0.999038
vn -0.041393 0.020515 0.998932
vn 0.029723 -0.027533 0.999179
vn 0.035434 0.030858 0.998895
vn 0.053015 -0.005894 0.998576
vn 0.005045 -0.061009 0.998124
vn -0.023136 -0.001809 0.999731
f 1/1/1 113/113/113 66/66/66
f 31/31/31 137/137/137 113/113/113
f 47/47/47 114/114/114 12/12/12
f 112/112/112 31/31/31 113/113/113
f 90/90/90 50/50/50 10/10/10
f 112/112/112 114/114/114 31/31/31
f 124/124/124 13/13/13 61/61/61
f 84/84/84 41/41/41 47/47/47
f 137/137/137 66/66/66 113/113/113
f 75/75/75 115/115/115 15/15/15
f 116/116/116 115/115/115 30/30/30
f 12/12/12 114/114/114 116/116/116
f 114/114/114 137/137/137 31/31/31
f 76/76/76 113/113/113 1/1/1
f 76/76/76 112/112/112 113/113/113
f 15/15/15 112/112/112 76/76/76
f 115/115/115 112/112/112 15/15/15
f 30/30/30 115/115/115 117/117/117
f 42/42/42 114/114/114 112/112/112
f 75/75/75 117/117/117 115/115/115
f 136/136/136 30/30/30 117/117/117
f 42/42/42 116/116/116 114/114/114
f 51/51/51 150/150/150 103/103/103
f 116/116/116 30/30/30 136/136/136
f 122/122/122 23/23/23 120/120/120
f 49/49/49 146/146/146 116/116/116
f 42/42/42 112/112/112 115/115/115
f 42/42/42 115/115/115 116/116/116
f 146/146/146 12/12/12 116/116/116
f 60/60/60 120/120/120 111/111/111
f 13/13/13 44/44/44 127/127/127
f 84/84/84 47/47/47 12/12/12
f 131/131/131 79/79/79 118/118/118
f 104/104/104 80/80/80 34/34/34
f 130/130/130 49/49/49 136/136/136
f 83/83/83 58/58/58 23/23/23
f 49/49/49 116/116/116 136/136/136
f 24/24/24 97/97/97 105/105/105
f 127/127/127 145/145/145 132/132/132
f 62/62/62 123/123/123 136/136/136
f 77/77/77 2/2/2 119/119/119
f 77/77/77 119/119/119 118/118/118
f 71/71/71 128/128/128 126/126/126
f 47/47/47 137/137/137 114/114/114
f 63/63/63 28/28/28 121/121/121
f 119/119/119 29/29/29 118/118/118
f 148/148/148 140/140/140 13/13/13
f 125/125/125 27/27/27 62/62/62
f 135/135/135 72/72/72 17/17/17
f 105/105/105 97/97/97 54/54/54
f 58/58/58 120/120/120 23/23/23
f 60/60/60 122/122/122 120/120/120
f 127/127/127 44/44/44 26/26/26
f 120/120/120 152/152/152 32/32/32
f 28/28/28 132/132/132 134/134/134
f 146/146/146 58/58/58 12/12/12
f 120/120/120 32/32/32 111/111/111
f 22/22/22 130/130/130 136/136/136
f 130/130/130 63/63/63 32/32/32
f 132/132/132 25/25/25 138/138/138
f 82/82/82 47/47/47 41/41/41
f 45/45/45 98/98/98 36/36/36
f 82/82/82 137/137/137 47/47/47
f 84/84/84 12/12/12 58/58/58
f 26/26/26 126/126/126 128/128/128
f 85/85/85 41/41/41 83/83/83
f 20/20/20 137/137/137 82/82/82
f 38/38/38 92/92/92 94/94/94
f 20/20/20 66/66/66 137/137/137
f 55/55/55 20/20/20 82/82/82
f 69/69/69 94/94/94 92/92/92
f 143/143/143 90/90/90 39/39/39
f 8/8/8 108/108/108 128/128/128
f 141/141/141 48/48/48 38/38/38
f 24/24/24 144/144/144 97/97/97
f 65/65/65 141/141/141 94/94/94
f 36/36/36 97/97/97 99/99/99
f 38/38/38 94/94/94 141/141/141
f 92/92/92 18/18/18 69/69/69
f 45/45/45 10/10/10 98/98/98
f 151/151/151 110/110/110 63/63/63
f 98/98/98 54/54/54 36/36/36
f 29/29/29 119/119/119 135/135/135
f 143/143/143 59/59/59 83/83/83
f 104/104/104 34/34/34 57/57/57
f 54/54/54 97/97/97 36/36/36
f 129/129/129 45/45/45 36/36/36
f 147/147/147 98/98/98 10/10/10
f 90/90/90 10/10/10 48/48/48
f 78/78/78 125/125/125 9/9/9
f 70/70/70 129/129/129 99/99/99
f 93/93/93 48/48/48 10/10/10
f 129/129/129 70/70/70 18/18/18
f 36/36/36 99/99/99 129/129/129
f 93/93/93 38/38/38 48/48/48
f 38/38/38 45/45/45 92/92/92
f 52/52/52 128/128/128 108/108/108
f 65/65/65 94/94/94 3/3/3
f 72/72/72 135/135/135 119/119/119
f 94/94/94 69/69/69 3/3/3
f 39/39/39 90/90/90 48/48/48
f 21/21/21 141/141/141 65/65/65
f 18/18/18 92/92/92 129/129/129
f 6/6/6 91/91/91 64/64/64
f 93/93/93 10/10/10 45/45/45
f 93/93/93 45/45/45 38/38/38
f 89/89/89 39/39/39 48/48/48
f 50/50/50 90/90/90 143/143/143
f 45/45/45 129/129/129 92/92/92
f 59/59/59 85/85/85 83/83/83
f 64/64/64 89/89/89 21/21/21
f 55/55/55 82/82/82 85/85/85
f 6/6/6 85/85/85 91/91/91
f 59/59/59 91/91/91 85/85/85
f 41/41/41 85/85/85 82/82/82
f 6/6/6 55/55/55 85/85/85
f 23/23/23 143/143/143 83/83/83
f 59/59/59 39/39/39 91/91/91
f 151/151/151 130/130/130 22/22/22
f 143/143/143 39/39/39 59/59/59
f 145/145/145 52/52/52 25/25/25
f 29/29/29 44/44/44 131/131/131
f 32/32/32 146/146/146 130/130/130
f 58/58/58 83/83/83 84/84/84
f 119/119/119 2/2/2 72/72/72
f 44/44/44 126/126/126 26/26/26
f 130/130/130 151/151/151 63/63/63
f 138/138/138 103/103/103 80/80/80
f 133/133/133 124/124/124 27/27/27
f 21/21/21 89/89/89 141/141/141
f 131/131/131 44/44/44 13/13/13
f 148/148/148 13/13/13 127/127/127
f 79/79/79 133/133/133 118/118/118
f 118/118/118 133/133/133 14/14/14
f 81/81/81 147/147/147 50/50/50
f 29/29/29 131/131/131 118/118/118
f 109/109/109 96/96/96 34/34/34
f 48/48/48 141/141/141 89/89/89
f 78/78/78 133/133/133 125/125/125
f 62/62/62 27/27/27 123/123/123
f 37/37/37 147/147/147 81/81/81
f 131/131/131 13/13/13 79/79/79
f 25/25/25 103/103/103 138/138/138
f 106/106/106 103/103/103 25/25/25
f 5/5/5 95/95/95 111/111/111
f 110/110/110 151/151/151 22/22/22
f 57/57/57 37/37/37 95/95/95
f 37/37/37 57/57/57 105/105/105
f 27/27/27 125/125/125 133/133/133
f 121/121/121 5/5/5 111/111/111
f 140/140/140 132/132/132 28/28/28
f 123/123/123 22/22/22 136/136/136
f 17/17/17 126/126/126 135/135/135
f 41/41/41 84/84/84 83/83/83
f 130/130/130 146/146/146 49/49/49
f 60/60/60 111/111/111 95/95/95
f 28/28/28 134/134/134 80/80/80
f 104/104/104 95/95/95 5/5/5
f 148/148/148 127/127/127 132/132/132
f 24/24/24 105/105/105 96/96/96
f 57/57/57 95/95/95 104/104/104
f 24/24/24 96/96/96 144/144/144
f 132/132/132 140/140/140 148/148/148
f 134/134/134 132/132/132 138/138/138
f 79/79/79 124/124/124 133/133/133
f 110/110/110 28/28/28 63/63/63
f 147/147/147 10/10/10 50/50/50
f 9/9/9 117/117/117 75/75/75
f 26/26/26 128/128/128 52/52/52
f 123/123/123 110/110/110 22/22/22
f 111/111/111 32/32/32 63/63/63
f 53/53/53 87/87/87 40/40/40
f 142/142/142 101/101/101 35/35/35
f 80/80/80 104/104/104 5/5/5
f 135/135/135 44/44/44 29/29/29
f 126/126/126 17/17/17 71/71/71
f 150/150/150 109/109/109 34/34/34
f 87/87/87 109/109/109 149/149/149
f 27/27/27 124/124/124 61/61/61
f 103/103/103 150/150/150 34/34/34
f 123/123/123 61/61/61 110/110/110
f 60/60/60 81/81/81 122/122/122
f 53/53/53 96/96/96 109/109/109
f 122/122/122 81/81/81 23/23/23
f 95/95/95 37/37/37 81/81/81
f 60/60/60 95/95/95 81/81/81
f 87/87/87 149/149/149 11/11/11
f 150/150/150 149/149/149 109/109/109
f 14/14/14 133/133/133 78/78/78
f 140/140/140 110/110/110 61/61/61
f 107/107/107 106/106/106 33/33/33
f 44/44/44 135/135/135 126/126/126
f 51/51/51 103/103/103 106/106/106
f 143/143/143 23/23/23 50/50/50
f 81/81/81 50/50/50 23/23/23
f 121/121/121 80/80/80 5/5/5
f 63/63/63 121/121/121 111/111/111
f 121/121/121 28/28/28 80/80/80
f 77/77/77 118/118/118 14/14/14
f 145/145/145 25/25/25 132/132/132
f 103/103/103 34/34/34 80/80/80
f 52/52/52 106/106/106 25/25/25
f 51/51/51 107/107/107 150/150/150
f 152/152/152 146/146/146 32/32/32
f 108/108/108 106/106/106 52/52/52
f 139/139/139 33/33/33 108/108/108
f 107/107/107 33/33/33 43/43/43
f 33/33/33 106/106/106 108/108/108
f 107/107/107 11/11/11 150/150/150
f 139/139/139 43/43/43 33/33/33
f 11/11/11 107/107/107 43/43/43
f 96/96/96 105/105/105 57/57/57
f 140/140/140 28/28/28 110/110/110
f 51/51/51 106/106/106 107/107/107
f 101/101/101 11/11/11 43/43/43
f 46/46/46 101/101/101 142/142/142
f 86/86/86 46/46/46 142/142/142
f 56/56/56 99/99/99 97/97/97
f 40/40/40 46/46/46 86/86/86
f 74/74/74 139/139/139 108/108/108
f 100/100/100 43/43/43 139/139/139
f 100/100/100 101/101/101 43/43/43
f 35/35/35 101/101/101 100/100/100
f 88/88/88 40/40/40 86/86/86
f 16/16/16 100/100/100 139/139/139
f 102/102/102 35/35/35 100/100/100
f 68/68/68 142/142/142 102/102/102
f 88/88/88 99/99/99 56/56/56
f 142/142/142 35/35/35 102/102/102
f 144/144/144 96/96/96 53/53/53
f 46/46/46 11/11/11 101/101/101
f 19/19/19 86/86/86 142/142/142
f 88/88/88 56/56/56 40/40/40
f 144/144/144 40/40/40 56/56/56
f 53/53/53 109/109/109 87/87/87
f 87/87/87 11/11/11 46/46/46
f 87/87/87 46/46/46 40/40/40
f 144/144/144 53/53/53 40/40/40
f 57/57/57 34/34/34 96/96/96
f 144/144/144 56/56/56 97/97/97
f 61/61/61 13/13/13 140/140/140
f 64/64/64 91/91/91 89/89/89
f 145/145/145 127/127/127 26/26/26
f 67/67/67 88/88/88 86/86/86
f 7/7/7 99/99/99 88/88/88
f 7/7/7 70/70/70 99/99/99
f 67/67/67 7/7/7 88/88/88
f 19/19/19 67/67/67 86/86/86
f 68/68/68 19/19/19 142/142/142
f 73/73/73 102/102/102 100/100/100
f 4/4/4 68/68/68 102/102/102
f 73/73/73 4/4/4 102/102/102
f 16/16/16 73/73/73 100/100/100
f 74/74/74 16/16/16 139/139/139
f 8/8/8 74/74/74 108/108/108
f 39/39/39 89/89/89 91/91/91
f 79/79/79 13/13/13 124/124/124
f 62/62/62 136/136/136 117/117/117
f 134/134/134 138/138/138 80/80/80
f 147/147/147 54/54/54 98/98/98
f 145/145/145 26/26/26 52/52/52
f 123/123/123 27/27/27 61/61/61
f 128/128/128 71/71/71 8/8/8
f 149/149/149 150/150/150 11/11/11
f 37/37/37 105/105/105 147/147/147
f 147/147/147 105/105/105 54/54/54
f 146/146/146 152/152/152 58/58/58
f 152/152/152 120/120/120 58/58/58
f 9/9/9 125/125/125 117/117/117
f 62/62/62 117/117/117 125/125/125
