# frame 000099 
# time 0.050000 
# name Cloth3D 
v -0.000000 0.000000 -0.000000
v 1.000000 0.000000 -0.000000
v -0.000000 1.000000 0.000000
v 1.000000 1.000000 0.000000
v 0.499892 0.500021 0.019784
v -0.000000 0.500000 0.000000
v 0.500000 1.000000 0.000000
v 1.000000 0.500000 0.000000
v 0.500000 -0.000000 0.000000
v 0.249705 0.749937 -0.009136
v 0.750397 0.751089 -0.001005
v 0.250328 0.249771 -0.011544
v 0.750765 0.250855 -0.009692
v 0.750000 0.000000 0.000000
v 0.250000 0.000000 0.000000
v 1.000000 0.750000 0.000000
v 1.000000 0.250000 0.000000
v 0.250000 1.000000 0.000000
v 0.750000 1.000000 0.000000
v 0.000000 0.250000 0.000000
v 0.000000 0.750000 -0.000000
v 0.499662 0.250194 0.002412
v 0.250989 0.500430 -0.002797
v 0.500188 0.750164 0.005148
v 0.351323 0.362826 0.019936
v 0.874746 0.374766 -0.017248
v 0.624949 0.125487 -0.014935
v 0.626551 0.373794 0.019784
v 0.875593 0.124475 -0.014527
v 0.374865 0.124972 -0.015972
v 0.124437 0.124420 -0.014336
v 0.373730 0.373355 0.019784
v 0.874577 0.625001 -0.016588
v 0.626091 0.626607 0.019784
v 0.875539 0.875603 -0.013362
v 0.375107 0.874694 -0.015966
v 0.373093 0.626293 0.019784
v 0.124393 0.875612 -0.014691
v 0.125072 0.625137 -0.015079
v 0.625373 0.874699 -0.018838
v 0.125317 0.375102 -0.013456
v 0.249765 0.124399 -0.013209
v 0.875229 0.750230 -0.014894
v 0.875767 0.249709 -0.014860
v 0.249864 0.875346 -0.014552
v 0.750333 0.875635 -0.015444
v 0.124651 0.249854 -0.012939
v 0.124428 0.750265 -0.014198
v 0.303119 0.714210 0.004528
v 0.248308 0.626149 0.007628
v 0.750154 0.625736 0.004337
v 0.874325 0.499813 -0.015804
v 0.358296 0.674982 0.019936
v 0.374385 0.749503 -0.001644
v 0.000000 0.375000 0.000000
v 0.500251 0.874391 -0.016724
v 0.499709 0.626419 0.019785
v 0.251313 0.374708 -0.007763
v 0.125660 0.500178 -0.013877
v 0.373500 0.499897 0.019785
v 0.625313 0.251176 -0.004781
v 0.499833 0.125530 -0.016758
v 0.500054 0.373577 0.019785
v 0.000000 0.625000 0.000000
v 0.000000 0.875000 0.000000
v 0.000000 0.125000 0.000000
v 0.625000 1.000000 0.000000
v 0.875000 1.000000 0.000000
v 0.125000 1.000000 0.000000
v 0.375000 1.000000 0.000000
v 1.000000 0.375000 0.000000
v 1.000000 0.125000 0.000000
v 1.000000 0.875000 0.000000
v 1.000000 0.625000 0.000000
v 0.375000 0.000000 0.000000
v 0.125000 0.000000 0.000000
v 0.875000 0.000000 0.000000
v 0.625000 0.000000 0.000000
v 0.750165 0.124882 -0.012490
v 0.626293 0.500109 0.019785
v 0.299652 0.565262 0.019929
v 0.061995 0.312574 -0.011367
v 0.188844 0.437636 -0.015785
v 0.187932 0.312412 -0.012459
v 0.062475 0.437608 -0.009537
v 0.687543 0.937883 -0.010819
v 0.688073 0.813702 -0.002414
v 0.562657 0.937216 -0.008807
v 0.061872 0.687517 -0.011658
v 0.187484 0.687764 -0.012466
v 0.062423 0.562520 -0.009665
v 0.187322 0.938423 -0.013197
v 0.187062 0.812879 -0.012619
v 0.061897 0.938115 -0.010581
v 0.436555 0.563169 0.019785
v 0.537804 0.720784 0.019929
v 0.437685 0.811161 -0.013637
v 0.312375 0.811969 -0.015138
v 0.437648 0.937335 -0.008763
v 0.938342 0.812696 -0.012837
v 0.812698 0.812978 -0.015039
v 0.938109 0.938103 -0.010531
v 0.705645 0.590661 0.019929
v 0.563005 0.563280 0.019785
v 0.420666 0.690878 0.019929
v 0.811336 0.562408 -0.009985
v 0.811900 0.687843 -0.011677
v 0.937330 0.562438 -0.009173
v 0.310448 0.259911 0.003217
v 0.561976 0.314477 0.019929
v 0.436818 0.436728 0.019785
v 0.187268 0.061491 -0.013364
v 0.061904 0.061910 -0.010485
v 0.187228 0.187095 -0.012604
v 0.312494 0.061894 -0.011050
v 0.312297 0.187311 -0.011235
v 0.437495 0.062531 -0.008953
v 0.812662 0.061705 -0.012701
v 0.938070 0.061912 -0.010404
v 0.334937 0.427058 0.019929
v 0.563192 0.436874 0.019785
v 0.316467 0.499399 0.019929
v 0.562303 0.188978 -0.015387
v 0.687744 0.188334 -0.014415
v 0.562414 0.062648 -0.008973
v 0.938130 0.312497 -0.011951
v 0.814228 0.311999 -0.000590
v 0.937473 0.437446 -0.010090
v 0.312589 0.937876 -0.010626
v 0.433073 0.281567 0.019929
v 0.812971 0.187390 -0.013566
v 0.753712 0.402396 0.019929
v 0.687433 0.062221 -0.010326
v 0.689750 0.436983 0.019784
v 0.938593 0.187239 -0.013646
v 0.437047 0.188333 -0.009954
v 0.061569 0.187310 -0.013316
v 0.728507 0.501119 0.019929
v 0.937737 0.687470 -0.010259
v 0.680605 0.344764 0.019929
v 0.061450 0.812748 -0.013826
v 0.812747 0.938512 -0.013152
v 0.188771 0.563034 -0.014142
v 0.563207 0.811771 -0.008071
v 0.812367 0.436868 -0.003057
v 0.375740 0.266807 0.019942
v 0.276810 0.654249 0.019942
v 0.763191 0.365751 0.019942
v 0.664249 0.753190 0.019942
v 0.687925 0.660070 0.019929
v 0.497611 0.298044 0.019929
v 0.297888 0.331338 -0.000020
v 0.601248 0.737043 0.019936
vt 0.000000 0.000000
vt 1.000000 0.000000
vt 0.000000 1.000000
vt 1.000000 1.000000
vt 0.500000 0.500000
vt 0.000000 0.500000
vt 0.500000 1.000000
vt 1.000000 0.500000
vt 0.500000 0.000000
vt 0.250000 0.750000
vt 0.750000 0.750000
vt 0.250000 0.250000
vt 0.750000 0.250000
vt 0.750000 0.000000
vt 0.250000 0.000000
vt 1.000000 0.750000
vt 1.000000 0.250000
vt 0.250000 1.000000
vt 0.750000 1.000000
vt 0.000000 0.250000
vt 0.000000 0.750000
vt 0.500000 0.250000
vt 0.250000 0.500000
vt 0.500000 0.750000
vt 0.352813 0.364536
vt 0.875000 0.375000
vt 0.625000 0.125000
vt 0.625000 0.375000
vt 0.875000 0.125000
vt 0.375000 0.125000
vt 0.125000 0.125000
vt 0.375000 0.375000
vt 0.875000 0.625000
vt 0.625000 0.625000
vt 0.875000 0.875000
vt 0.375000 0.875000
vt 0.375000 0.625000
vt 0.125000 0.875000
vt 0.125000 0.625000
vt 0.625000 0.875000
vt 0.125000 0.375000
vt 0.250000 0.125000
vt 0.875000 0.750000
vt 0.875000 0.250000
vt 0.250000 0.875000
vt 0.750000 0.875000
vt 0.125000 0.250000
vt 0.125000 0.750000
vt 0.304602 0.713891
vt 0.250000 0.625000
vt 0.750000 0.625000
vt 0.875000 0.500000
vt 0.360288 0.673184
vt 0.375000 0.750000
vt 0.000000 0.375000
vt 0.500000 0.875000
vt 0.500000 0.625000
vt 0.250000 0.375000
vt 0.125000 0.500000
vt 0.375000 0.500000
vt 0.625000 0.250000
vt 0.500000 0.125000
vt 0.500000 0.375000
vt 0.000000 0.625000
vt 0.000000 0.875000
vt 0.000000 0.125000
vt 0.625000 1.000000
vt 0.875000 1.000000
vt 0.125000 1.000000
vt 0.375000 1.000000
vt 1.000000 0.375000
vt 1.000000 0.125000
vt 1.000000 0.875000
vt 1.000000 0.625000
vt 0.375000 0.000000
vt 0.125000 0.000000
vt 0.875000 0.000000
vt 0.625000 0.000000
vt 0.750000 0.125000
vt 0.625000 0.500000
vt 0.302292 0.564774
vt 0.062500 0.312500
vt 0.187500 0.437500
vt 0.187500 0.312500
vt 0.062500 0.437500
vt 0.687500 0.937500
vt 0.687500 0.812500
vt 0.562500 0.937500
vt 0.062500 0.687500
vt 0.187500 0.687500
vt 0.062500 0.562500
vt 0.187500 0.937500
vt 0.187500 0.812500
vt 0.062500 0.937500
vt 0.437500 0.562500
vt 0.537741 0.718177
vt 0.437500 0.812500
vt 0.312500 0.812500
vt 0.437500 0.937500
vt 0.937500 0.812500
vt 0.812500 0.812500
vt 0.937500 0.937500
vt 0.703713 0.589582
vt 0.562500 0.562500
vt 0.421890 0.688883
vt 0.812500 0.562500
vt 0.812500 0.687500
vt 0.937500 0.562500
vt 0.311128 0.261404
vt 0.561192 0.316390
vt 0.437500 0.437500
vt 0.187500 0.062500
vt 0.062500 0.062500
vt 0.187500 0.187500
vt 0.312500 0.062500
vt 0.312500 0.187500
vt 0.437500 0.062500
vt 0.812500 0.062500
vt 0.937500 0.062500
vt 0.336612 0.428015
vt 0.562500 0.437500
vt 0.318601 0.499638
vt 0.562500 0.187500
vt 0.687500 0.187500
vt 0.562500 0.062500
vt 0.937500 0.312500
vt 0.812500 0.312500
vt 0.937500 0.437500
vt 0.312500 0.937500
vt 0.433715 0.284401
vt 0.812500 0.187500
vt 0.750410 0.403233
vt 0.687500 0.062500
vt 0.687500 0.437500
vt 0.937500 0.187500
vt 0.437500 0.187500
vt 0.062500 0.187500
vt 0.726098 0.500880
vt 0.937500 0.687500
vt 0.678349 0.346212
vt 0.062500 0.812500
vt 0.812500 0.937500
vt 0.187500 0.562500
vt 0.562500 0.812500
vt 0.812500 0.437500
vt 0.377154 0.270343
vt 0.280487 0.652447
vt 0.759428 0.367098
vt 0.662630 0.749461
vt 0.686259 0.658097
vt 0.497470 0.300377
vt 0.296906 0.332149
vt 0.600437 0.733891
vn 0.084313 0.084313 0.992866
vn -0.083714 0.083714 0.992967
vn 0.085147 -0.085147 0.992724
vn -0.084739 -0.084739 0.992793
vn 0.000000 0.000000 1.000000
vn 0.151920 0.000499 0.988393
vn -0.000107 -0.137616 0.990486
vn -0.151013 -0.003556 0.988525
vn 0.000106 0.141349 0.989960
vn -0.088903 0.146922 0.985145
vn 0.191665 0.096792 0.976676
vn -0.115738 -0.061293 0.991387
vn 0.016739 -0.145894 0.989159
vn 0.009334 0.181571 0.983333
vn -0.009180 0.192426 0.981269
vn -0.181774 0.010277 0.983287
vn -0.201092 -0.006956 0.979548
vn -0.010190 -0.187689 0.982176
vn 0.009596 -0.188192 0.982085
vn 0.194323 -0.007648 0.980908
vn 0.200695 0.008530 0.979617
vn 0.077813 -0.302850 0.949856
vn -0.268041 -0.058767 0.961613
vn -0.083105 0.308571 0.947564
vn -0.075320 -0.022773 0.996899
vn 0.069957 0.004059 0.997542
vn -0.007941 0.040233 0.999159
vn -0.000755 0.001741 0.999998
vn -0.008595 0.018713 0.999788
vn 0.000672 0.006404 0.999979
vn 0.010010 0.009238 0.999907
vn 0.004563 0.001091 0.999989
vn -0.010058 0.003464 0.999943
vn -0.001076 -0.000720 0.999999
vn -0.018473 -0.015542 0.999709
vn -0.002296 -0.037084 0.999309
vn 0.000795 -0.001638 0.999998
vn 0.010632 -0.013610 0.999851
vn 0.021310 0.001459 0.999772
vn -0.010145 0.032725 0.999413
vn 0.027121 0.004697 0.999621
vn -0.003410 -0.002386 0.999991
vn -0.014150 0.004564 0.999889
vn 0.044301 -0.022265 0.998770
vn 0.002792 -0.014719 0.999888
vn 0.017260 0.024379 0.999554
vn -0.000056 -0.005674 0.999984
vn -0.001699 0.003135 0.999994
vn -0.064608 0.256771 0.964310
vn -0.328886 -0.061746 0.942349
vn 0.263938 0.049119 0.963288
vn 0.022521 0.010133 0.999695
vn -0.031552 0.135084 0.990332
vn -0.040863 0.250989 0.967127
vn 0.165167 -0.007232 0.986239
vn -0.004581 -0.018030 0.999827
vn 0.000087 -0.000816 1.000000
vn -0.178055 -0.014092 0.983920
vn 0.041072 0.000502 0.999156
vn 0.001555 0.000534 0.999999
vn 0.037006 -0.222126 0.974315
vn 0.008368 0.030124 0.999511
vn -0.000162 0.001081 0.999999
vn 0.168462 0.007928 0.985676
vn 0.193451 -0.012315 0.981033
vn 0.188551 0.010651 0.982006
vn 0.008148 -0.153376 0.988134
vn -0.009863 -0.187814 0.982155
vn 0.009814 -0.188536 0.982017
vn -0.007589 -0.152787 0.988230
vn -0.172743 -0.007529 0.984938
vn -0.190698 0.012346 0.981571
vn -0.185253 -0.008561 0.982654
vn -0.152826 0.004471 0.988243
vn -0.008463 0.157786 0.987437
vn 0.010943 0.189115 0.981894
vn -0.008539 0.183219 0.983035
vn 0.005515 0.152415 0.988301
vn 0.002121 0.017640 0.999842
vn -0.000554 -0.000266 1.000000
vn -0.179472 -0.046094 0.982683
vn 0.102701 -0.006557 0.994691
vn -0.061983 -0.004470 0.998067
vn -0.043075 -0.000425 0.999072
vn 0.105596 -0.002627 0.994406
vn 0.002181 -0.133476 0.991050
vn 0.062579 0.233786 0.970272
vn 0.008451 -0.137864 0.990415
vn 0.113454 0.006676 0.993521
vn -0.140320 0.031094 0.989618
vn 0.111644 0.006541 0.993727
vn -0.000502 -0.114066 0.993473
vn -0.011316 0.018429 0.999766
vn 0.076143 -0.077414 0.994087
vn -0.000000 0.000000 1.000000
vn -0.064354 0.217307 0.973980
vn -0.024961 0.139004 0.989977
vn -0.011463 0.093788 0.995526
vn -0.002358 -0.126289 0.991991
vn -0.110035 -0.002134 0.993925
vn 0.042472 0.027768 0.998712
vn -0.073309 -0.072669 0.994658
vn 0.166831 0.039562 0.985192
vn 0.000000 0.000000 1.000000
vn -0.035817 0.161302 0.986255
vn 0.188190 0.033309 0.981568
vn 0.134946 0.016258 0.990720
vn -0.125446 0.001767 0.992099
vn -0.228272 -0.095871 0.968866
vn 0.033209 -0.148734 0.988319
vn 0.000412 0.000000 1.000000
vn -0.001336 0.107479 0.994206
vn 0.075567 0.075427 0.994284
vn -0.010667 -0.010177 0.999891
vn -0.003626 0.113178 0.993568
vn -0.068500 -0.126246 0.989631
vn -0.002630 0.126288 0.991990
vn 0.004337 0.105391 0.994421
vn -0.074453 0.076375 0.994295
vn -0.119576 -0.025974 0.992485
vn 0.000000 -0.000000 1.000000
vn -0.149351 -0.037734 0.988064
vn 0.018486 -0.111150 0.993632
vn 0.000286 -0.047618 0.998866
vn -0.000726 0.122326 0.992490
vn -0.125296 -0.002432 0.992116
vn 0.180908 -0.084033 0.979903
vn -0.128610 -0.008515 0.991659
vn -0.006272 -0.118277 0.992961
vn 0.051475 -0.181258 0.982088
vn 0.016043 -0.028580 0.999463
vn 0.160050 0.041324 0.986244
vn 0.002789 0.106345 0.994325
vn -0.001510 0.000055 0.999999
vn -0.114799 0.003385 0.993383
vn 0.036040 -0.191890 0.980754
vn 0.106578 -0.001109 0.994304
vn 0.130731 0.029272 0.990986
vn -0.121873 0.004189 0.992537
vn 0.019779 -0.095960 0.995189
vn 0.112706 -0.000880 0.993628
vn -0.004247 -0.112409 0.993653
vn -0.128143 -0.025500 0.991428
vn -0.045745 0.231166 0.971838
vn 0.268882 0.041448 0.962281
vn -0.082855 -0.150022 0.985205
vn -0.206406 0.059268 0.976670
vn 0.172893 -0.028068 0.984541
vn 0.080979 0.188517 0.978726
vn 0.127297 0.027761 0.991476
vn 0.052116 -0.206277 0.977105
vn -0.234052 -0.055273 0.970652
vn -0.043454 0.170447 0.984408
f 1/1/1 113/113/113 66/66/66
f 31/31/31 137/137/137 113/113/113
f 11/11/11 101/101/101 87/87/87
f 112/112/112 31/31/31 113/113/113
f 138/138/138 145/145/145 106/106/106
f 106/106/106 52/52/52 33/33/33
f 124/124/124 13/13/13 61/61/61
f 84/84/84 41/41/41 47/47/47
f 137/137/137 66/66/66 113/113/113
f 75/75/75 115/115/115 15/15/15
f 12/12/12 152/152/152 84/84/84
f 12/12/12 114/114/114 116/116/116
f 101/101/101 35/35/35 46/46/46
f 76/76/76 113/113/113 1/1/1
f 76/76/76 112/112/112 113/113/113
f 15/15/15 112/112/112 76/76/76
f 115/115/115 112/112/112 15/15/15
f 30/30/30 115/115/115 117/117/117
f 108/108/108 33/33/33 52/52/52
f 75/75/75 117/117/117 115/115/115
f 115/115/115 30/30/30 42/42/42
f 42/42/42 116/116/116 114/114/114
f 51/51/51 150/150/150 103/103/103
f 116/116/116 30/30/30 136/136/136
f 122/122/122 23/23/23 120/120/120
f 54/54/54 98/98/98 49/49/49
f 42/42/42 112/112/112 115/115/115
f 58/58/58 84/84/84 152/152/152
f 48/48/48 90/90/90 93/93/93
f 60/60/60 120/120/120 111/111/111
f 53/53/53 147/147/147 37/37/37
f 46/46/46 87/87/87 101/101/101
f 101/101/101 43/43/43 35/35/35
f 104/104/104 80/80/80 34/34/34
f 10/10/10 49/49/49 98/98/98
f 83/83/83 58/58/58 23/23/23
f 49/49/49 53/53/53 54/54/54
f 117/117/117 62/62/62 30/30/30
f 132/132/132 134/134/134 140/140/140
f 62/62/62 123/123/123 136/136/136
f 77/77/77 2/2/2 119/119/119
f 77/77/77 119/119/119 118/118/118
f 71/71/71 128/128/128 126/126/126
f 142/142/142 46/46/46 35/35/35
f 63/63/63 28/28/28 121/121/121
f 119/119/119 29/29/29 118/118/118
f 148/148/148 140/140/140 13/13/13
f 125/125/125 27/27/27 62/62/62
f 135/135/135 72/72/72 17/17/17
f 136/136/136 30/30/30 62/62/62
f 58/58/58 120/120/120 23/23/23
f 60/60/60 122/122/122 120/120/120
f 127/127/127 44/44/44 26/26/26
f 120/120/120 25/25/25 32/32/32
f 146/146/146 116/116/116 136/136/136
f 58/58/58 152/152/152 25/25/25
f 120/120/120 32/32/32 111/111/111
f 22/22/22 130/130/130 136/136/136
f 130/130/130 63/63/63 32/32/32
f 127/127/127 145/145/145 148/148/148
f 82/82/82 47/47/47 41/41/41
f 45/45/45 98/98/98 36/36/36
f 82/82/82 137/137/137 47/47/47
f 10/10/10 93/93/93 90/90/90
f 26/26/26 126/126/126 128/128/128
f 62/62/62 117/117/117 125/125/125
f 20/20/20 137/137/137 82/82/82
f 38/38/38 92/92/92 94/94/94
f 20/20/20 66/66/66 137/137/137
f 55/55/55 20/20/20 82/82/82
f 69/69/69 94/94/94 92/92/92
f 143/143/143 90/90/90 39/39/39
f 8/8/8 108/108/108 128/128/128
f 141/141/141 48/48/48 38/38/38
f 24/24/24 144/144/144 97/97/97
f 65/65/65 141/141/141 94/94/94
f 114/114/114 31/31/31 42/42/42
f 38/38/38 94/94/94 141/141/141
f 92/92/92 18/18/18 69/69/69
f 97/97/97 54/54/54 24/24/24
f 151/151/151 110/110/110 63/63/63
f 11/11/11 107/107/107 101/101/101
f 29/29/29 119/119/119 135/135/135
f 143/143/143 59/59/59 83/83/83
f 104/104/104 34/34/34 57/57/57
f 43/43/43 101/101/101 107/107/107
f 129/129/129 45/45/45 36/36/36
f 27/27/27 124/124/124 123/123/123
f 85/85/85 41/41/41 59/59/59
f 78/78/78 125/125/125 9/9/9
f 70/70/70 129/129/129 99/99/99
f 83/83/83 59/59/59 41/41/41
f 129/129/129 70/70/70 18/18/18
f 36/36/36 99/99/99 129/129/129
f 93/93/93 38/38/38 48/48/48
f 38/38/38 45/45/45 92/92/92
f 52/52/52 128/128/128 108/108/108
f 65/65/65 94/94/94 3/3/3
f 72/72/72 135/135/135 119/119/119
f 94/94/94 69/69/69 3/3/3
f 39/39/39 90/90/90 48/48/48
f 21/21/21 141/141/141 65/65/65
f 18/18/18 92/92/92 129/129/129
f 6/6/6 91/91/91 64/64/64
f 105/105/105 24/24/24 54/54/54
f 93/93/93 45/45/45 38/38/38
f 89/89/89 39/39/39 48/48/48
f 50/50/50 90/90/90 143/143/143
f 45/45/45 129/129/129 92/92/92
f 9/9/9 125/125/125 117/117/117
f 64/64/64 89/89/89 21/21/21
f 55/55/55 82/82/82 85/85/85
f 6/6/6 85/85/85 91/91/91
f 59/59/59 91/91/91 85/85/85
f 41/41/41 85/85/85 82/82/82
f 6/6/6 55/55/55 85/85/85
f 23/23/23 143/143/143 83/83/83
f 59/59/59 39/39/39 91/91/91
f 151/151/151 130/130/130 22/22/22
f 143/143/143 39/39/39 59/59/59
f 118/118/118 29/29/29 79/79/79
f 29/29/29 44/44/44 131/131/131
f 32/32/32 146/146/146 130/130/130
f 58/58/58 83/83/83 84/84/84
f 119/119/119 2/2/2 72/72/72
f 44/44/44 126/126/126 26/26/26
f 130/130/130 151/151/151 63/63/63
f 138/138/138 103/103/103 80/80/80
f 10/10/10 98/98/98 93/93/93
f 21/21/21 89/89/89 141/141/141
f 105/105/105 53/53/53 37/37/37
f 148/148/148 13/13/13 127/127/127
f 79/79/79 133/133/133 118/118/118
f 118/118/118 133/133/133 14/14/14
f 81/81/81 147/147/147 50/50/50
f 100/100/100 35/35/35 43/43/43
f 109/109/109 146/146/146 152/152/152
f 48/48/48 141/141/141 89/89/89
f 78/78/78 133/133/133 125/125/125
f 62/62/62 27/27/27 123/123/123
f 37/37/37 147/147/147 81/81/81
f 40/40/40 144/144/144 87/87/87
f 49/49/49 10/10/10 147/147/147
f 25/25/25 120/120/120 58/58/58
f 5/5/5 95/95/95 111/111/111
f 110/110/110 151/151/151 22/22/22
f 57/57/57 37/37/37 95/95/95
f 37/37/37 57/57/57 105/105/105
f 27/27/27 125/125/125 133/133/133
f 121/121/121 5/5/5 111/111/111
f 130/130/130 146/146/146 136/136/136
f 123/123/123 22/22/22 136/136/136
f 17/17/17 126/126/126 135/135/135
f 41/41/41 84/84/84 83/83/83
f 53/53/53 49/49/49 147/147/147
f 60/60/60 111/111/111 95/95/95
f 28/28/28 134/134/134 80/80/80
f 104/104/104 95/95/95 5/5/5
f 28/28/28 140/140/140 134/134/134
f 24/24/24 105/105/105 96/96/96
f 57/57/57 95/95/95 104/104/104
f 24/24/24 96/96/96 144/144/144
f 132/132/132 140/140/140 148/148/148
f 134/134/134 132/132/132 138/138/138
f 45/45/45 93/93/93 98/98/98
f 110/110/110 28/28/28 63/63/63
f 106/106/106 103/103/103 138/138/138
f 9/9/9 117/117/117 75/75/75
f 26/26/26 128/128/128 52/52/52
f 54/54/54 97/97/97 98/98/98
f 111/111/111 32/32/32 63/63/63
f 123/123/123 61/61/61 22/22/22
f 99/99/99 36/36/36 56/56/56
f 80/80/80 104/104/104 5/5/5
f 135/135/135 44/44/44 29/29/29
f 126/126/126 17/17/17 71/71/71
f 109/109/109 12/12/12 116/116/116
f 146/146/146 109/109/109 116/116/116
f 13/13/13 124/124/124 131/131/131
f 103/103/103 150/150/150 34/34/34
f 36/36/36 98/98/98 97/97/97
f 60/60/60 81/81/81 122/122/122
f 12/12/12 84/84/84 114/114/114
f 122/122/122 81/81/81 23/23/23
f 107/107/107 11/11/11 51/51/51
f 150/150/150 51/51/51 11/11/11
f 87/87/87 149/149/149 11/11/11
f 12/12/12 109/109/109 152/152/152
f 14/14/14 133/133/133 78/78/78
f 140/140/140 110/110/110 61/61/61
f 107/107/107 106/106/106 33/33/33
f 44/44/44 135/135/135 126/126/126
f 51/51/51 103/103/103 106/106/106
f 143/143/143 23/23/23 50/50/50
f 81/81/81 50/50/50 23/23/23
f 121/121/121 80/80/80 5/5/5
f 63/63/63 121/121/121 111/111/111
f 121/121/121 28/28/28 80/80/80
f 77/77/77 118/118/118 14/14/14
f 52/52/52 106/106/106 145/145/145
f 103/103/103 34/34/34 80/80/80
f 131/131/131 79/79/79 29/29/29
f 13/13/13 131/131/131 127/127/127
f 25/25/25 146/146/146 32/32/32
f 124/124/124 27/27/27 79/79/79
f 139/139/139 33/33/33 108/108/108
f 107/107/107 33/33/33 43/43/43
f 133/133/133 79/79/79 27/27/27
f 44/44/44 127/127/127 131/131/131
f 139/139/139 43/43/43 33/33/33
f 10/10/10 90/90/90 147/147/147
f 96/96/96 105/105/105 57/57/57
f 140/140/140 28/28/28 110/110/110
f 51/51/51 106/106/106 107/107/107
f 50/50/50 147/147/147 90/90/90
f 97/97/97 56/56/56 36/36/36
f 86/86/86 46/46/46 142/142/142
f 112/112/112 42/42/42 31/31/31
f 40/40/40 46/46/46 86/86/86
f 74/74/74 139/139/139 108/108/108
f 100/100/100 43/43/43 139/139/139
f 137/137/137 31/31/31 47/47/47
f 114/114/114 47/47/47 31/31/31
f 88/88/88 40/40/40 86/86/86
f 16/16/16 100/100/100 139/139/139
f 102/102/102 35/35/35 100/100/100
f 68/68/68 142/142/142 102/102/102
f 88/88/88 99/99/99 56/56/56
f 142/142/142 35/35/35 102/102/102
f 53/53/53 105/105/105 54/54/54
f 95/95/95 37/37/37 60/60/60
f 19/19/19 86/86/86 142/142/142
f 88/88/88 56/56/56 40/40/40
f 144/144/144 40/40/40 56/56/56
f 47/47/47 114/114/114 84/84/84
f 81/81/81 60/60/60 37/37/37
f 87/87/87 46/46/46 40/40/40
f 110/110/110 22/22/22 61/61/61
f 57/57/57 34/34/34 96/96/96
f 144/144/144 56/56/56 97/97/97
f 61/61/61 13/13/13 140/140/140
f 64/64/64 91/91/91 89/89/89
f 145/145/145 127/127/127 26/26/26
f 67/67/67 88/88/88 86/86/86
f 7/7/7 99/99/99 88/88/88
f 7/7/7 70/70/70 99/99/99
f 67/67/67 7/7/7 88/88/88
f 19/19/19 67/67/67 86/86/86
f 68/68/68 19/19/19 142/142/142
f 73/73/73 102/102/102 100/100/100
f 4/4/4 68/68/68 102/102/102
f 73/73/73 4/4/4 102/102/102
f 16/16/16 73/73/73 100/100/100
f 74/74/74 16/16/16 139/139/139
f 8/8/8 74/74/74 108/108/108
f 39/39/39 89/89/89 91/91/91
f 152/152/152 146/146/146 25/25/25
f 116/116/116 42/42/42 30/30/30
f 134/134/134 138/138/138 80/80/80
f 61/61/61 123/123/123 124/124/124
f 145/145/145 26/26/26 52/52/52
f 79/79/79 131/131/131 124/124/124
f 128/128/128 71/71/71 8/8/8
f 149/149/149 150/150/150 11/11/11
f 132/132/132 148/148/148 145/145/145
f 145/145/145 138/138/138 132/132/132
f 153/153/153 149/149/149 144/144/144
f 144/144/144 149/149/149 87/87/87
f 96/96/96 153/153/153 144/144/144
f 153/153/153 96/96/96 34/34/34
f 149/149/149 153/153/153 150/150/150
f 34/34/34 150/150/150 153/153/153
