# frame 000047 
# time 0.024000 
# name Cloth3D 
v -0.000000 0.000000 -0.000000
v 1.000000 0.000000 -0.000000
v -0.000000 1.000000 0.000000
v 1.000000 1.000000 0.000000
v 0.500021 0.500024 0.006784
v -0.000000 0.500000 0.000000
v 0.500000 1.000000 0.000000
v 1.000000 0.500000 0.000000
v 0.500000 -0.000000 0.000000
v 0.250039 0.749899 -0.004060
v 0.749807 0.749981 -0.003108
v 0.250133 0.249937 -0.004099
v 0.749995 0.250126 -0.004044
v 0.750000 0.000000 0.000000
v 0.250000 0.000000 0.000000
v 1.000000 0.750000 0.000000
v 1.000000 0.250000 0.000000
v 0.250000 1.000000 0.000000
v 0.750000 1.000000 0.000000
v 0.000000 0.250000 0.000000
v 0.000000 0.750000 -0.000000
v 0.499736 0.250622 -0.005819
v 0.250446 0.500000 -0.005508
v 0.500107 0.749309 -0.003982
v 0.336573 0.361321 0.006936
v 0.874938 0.375006 -0.002469
v 0.624933 0.125123 -0.002528
v 0.625242 0.374796 0.006784
v 0.875056 0.124965 -0.003036
v 0.375024 0.125051 -0.002399
v 0.124960 0.124938 -0.002887
v 0.374788 0.374756 0.006784
v 0.874916 0.625023 -0.002301
v 0.625155 0.625359 0.006784
v 0.875033 0.875034 -0.002810
v 0.375076 0.874912 -0.002348
v 0.374662 0.625174 0.006784
v 0.124961 0.875064 -0.003104
v 0.125127 0.624992 -0.002896
v 0.625010 0.874840 -0.002396
v 0.125120 0.374997 -0.002806
v 0.250036 0.124956 -0.002659
v 0.874940 0.749963 -0.002528
v 0.875013 0.250024 -0.002519
v 0.250054 0.875031 -0.002608
v 0.749981 0.874985 -0.002474
v 0.125021 0.249985 -0.002811
v 0.125001 0.750011 -0.002620
v 0.374802 0.250580 -0.003889
v 0.250557 0.625352 -0.005400
v 0.749491 0.625163 -0.002821
v 0.874927 0.500026 -0.002485
v 0.625256 0.749261 -0.002424
v 0.374978 0.749458 -0.004587
v 0.000000 0.375000 0.000000
v 0.500064 0.874791 -0.002455
v 0.499911 0.625258 0.006785
v 0.250374 0.374784 -0.005385
v 0.125215 0.500015 -0.003093
v 0.374692 0.499970 0.006785
v 0.625010 0.250478 -0.005515
v 0.499952 0.125152 -0.002687
v 0.500022 0.374754 0.006785
v 0.000000 0.625000 0.000000
v 0.000000 0.875000 0.000000
v 0.000000 0.125000 0.000000
v 0.625000 1.000000 0.000000
v 0.875000 1.000000 0.000000
v 0.125000 1.000000 0.000000
v 0.375000 1.000000 0.000000
v 1.000000 0.375000 0.000000
v 1.000000 0.125000 0.000000
v 1.000000 0.875000 0.000000
v 1.000000 0.625000 0.000000
v 0.375000 0.000000 0.000000
v 0.125000 0.000000 0.000000
v 0.875000 0.000000 0.000000
v 0.625000 0.000000 0.000000
v 0.749967 0.125041 -0.002718
v 0.625238 0.500080 0.006785
v 0.311818 0.566736 0.006929
v 0.062476 0.312504 -0.004079
v 0.187835 0.437466 -0.002191
v 0.187647 0.312461 -0.002066
v 0.062525 0.437510 -0.004105
v 0.687485 0.937511 -0.004089
v 0.687483 0.812328 -0.005399
v 0.562514 0.937458 -0.004079
v 0.062484 0.687492 -0.004187
v 0.187573 0.687506 -0.003954
v 0.062534 0.562498 -0.003971
v 0.187501 0.937584 -0.004163
v 0.187528 0.812520 -0.002643
v 0.062411 0.937590 -0.004719
v 0.437326 0.562604 0.006785
v 0.538578 0.713581 0.006929
v 0.437565 0.812155 -0.003848
v 0.312585 0.812371 -0.004583
v 0.437546 0.937474 -0.004019
v 0.937543 0.812490 -0.003972
v 0.812443 0.812478 -0.002887
v 0.937580 0.937578 -0.004580
v 0.711542 0.591273 0.006929
v 0.562611 0.562674 0.006785
v 0.419851 0.699266 0.006929
v 0.812326 0.562619 -0.003801
v 0.812329 0.687475 -0.005060
v 0.937493 0.562502 -0.004023
v 0.657472 0.727917 0.006929
v 0.561633 0.313679 0.006929
v 0.437388 0.437384 0.006785
v 0.187499 0.062422 -0.004029
v 0.062417 0.062415 -0.004564
v 0.187533 0.187453 -0.002531
v 0.312519 0.062448 -0.003916
v 0.312580 0.187514 -0.003868
v 0.437499 0.062494 -0.004011
v 0.812504 0.062450 -0.003924
v 0.937587 0.062416 -0.004635
v 0.328727 0.426500 0.006929
v 0.562657 0.437432 0.006785
v 0.319872 0.499939 0.006929
v 0.562398 0.187882 -0.003737
v 0.687420 0.187712 -0.002237
v 0.562472 0.062504 -0.004256
v 0.937539 0.312523 -0.004308
v 0.812409 0.312513 -0.005345
v 0.937506 0.437515 -0.004309
v 0.312546 0.937547 -0.004322
v 0.431061 0.297935 0.006929
v 0.812500 0.187530 -0.002686
v 0.734594 0.400086 0.006929
v 0.687476 0.062482 -0.004204
v 0.687817 0.437416 0.006784
v 0.937576 0.187502 -0.004196
v 0.437412 0.187776 -0.003637
v 0.062440 0.187486 -0.003981
v 0.722521 0.500218 0.006929
v 0.937508 0.687481 -0.004114
v 0.681937 0.328185 0.006929
v 0.062436 0.812512 -0.004152
v 0.812501 0.937559 -0.003986
v 0.187912 0.562582 -0.002061
v 0.562598 0.812110 -0.004419
v 0.812326 0.437497 -0.004305
v 0.345431 0.287560 0.006942
v 0.297561 0.684565 0.006942
v 0.742440 0.335435 0.006942
v 0.694565 0.732439 0.006942
v 0.703072 0.661520 0.006929
v 0.496321 0.305804 0.006929
v 0.297125 0.331900 0.000655
vt 0.000000 0.000000
vt 1.000000 0.000000
vt 0.000000 1.000000
vt 1.000000 1.000000
vt 0.500000 0.500000
vt 0.000000 0.500000
vt 0.500000 1.000000
vt 1.000000 0.500000
vt 0.500000 0.000000
vt 0.250000 0.750000
vt 0.750000 0.750000
vt 0.250000 0.250000
vt 0.750000 0.250000
vt 0.750000 0.000000
vt 0.250000 0.000000
vt 1.000000 0.750000
vt 1.000000 0.250000
vt 0.250000 1.000000
vt 0.750000 1.000000
vt 0.000000 0.250000
vt 0.000000 0.750000
vt 0.500000 0.250000
vt 0.250000 0.500000
vt 0.500000 0.750000
vt 0.336822 0.361612
vt 0.875000 0.375000
vt 0.625000 0.125000
vt 0.625000 0.375000
vt 0.875000 0.125000
vt 0.375000 0.125000
vt 0.125000 0.125000
vt 0.375000 0.375000
vt 0.875000 0.625000
vt 0.625000 0.625000
vt 0.875000 0.875000
vt 0.375000 0.875000
vt 0.375000 0.625000
vt 0.125000 0.875000
vt 0.125000 0.625000
vt 0.625000 0.875000
vt 0.125000 0.375000
vt 0.250000 0.125000
vt 0.875000 0.750000
vt 0.875000 0.250000
vt 0.250000 0.875000
vt 0.750000 0.875000
vt 0.125000 0.250000
vt 0.125000 0.750000
vt 0.375000 0.250000
vt 0.250000 0.625000
vt 0.750000 0.625000
vt 0.875000 0.500000
vt 0.625000 0.750000
vt 0.375000 0.750000
vt 0.000000 0.375000
vt 0.500000 0.875000
vt 0.500000 0.625000
vt 0.250000 0.375000
vt 0.125000 0.500000
vt 0.375000 0.500000
vt 0.625000 0.250000
vt 0.500000 0.125000
vt 0.500000 0.375000
vt 0.000000 0.625000
vt 0.000000 0.875000
vt 0.000000 0.125000
vt 0.625000 1.000000
vt 0.875000 1.000000
vt 0.125000 1.000000
vt 0.375000 1.000000
vt 1.000000 0.375000
vt 1.000000 0.125000
vt 1.000000 0.875000
vt 1.000000 0.625000
vt 0.375000 0.000000
vt 0.125000 0.000000
vt 0.875000 0.000000
vt 0.625000 0.000000
vt 0.750000 0.125000
vt 0.625000 0.500000
vt 0.312382 0.566674
vt 0.062500 0.312500
vt 0.187500 0.437500
vt 0.187500 0.312500
vt 0.062500 0.437500
vt 0.687500 0.937500
vt 0.687500 0.812500
vt 0.562500 0.937500
vt 0.062500 0.687500
vt 0.187500 0.687500
vt 0.062500 0.562500
vt 0.187500 0.937500
vt 0.187500 0.812500
vt 0.062500 0.937500
vt 0.437500 0.562500
vt 0.538711 0.713087
vt 0.437500 0.812500
vt 0.312500 0.812500
vt 0.437500 0.937500
vt 0.937500 0.812500
vt 0.812500 0.812500
vt 0.937500 0.937500
vt 0.711211 0.590943
vt 0.562500 0.562500
vt 0.420089 0.698851
vt 0.812500 0.562500
vt 0.812500 0.687500
vt 0.937500 0.562500
vt 0.657334 0.727215
vt 0.561567 0.314128
vt 0.437500 0.437500
vt 0.187500 0.062500
vt 0.062500 0.062500
vt 0.187500 0.187500
vt 0.312500 0.062500
vt 0.312500 0.187500
vt 0.437500 0.062500
vt 0.812500 0.062500
vt 0.937500 0.062500
vt 0.329084 0.426678
vt 0.562500 0.437500
vt 0.320333 0.500004
vt 0.562500 0.187500
vt 0.687500 0.187500
vt 0.562500 0.062500
vt 0.937500 0.312500
vt 0.812500 0.312500
vt 0.937500 0.437500
vt 0.312500 0.937500
vt 0.431128 0.298289
vt 0.812500 0.187500
vt 0.734138 0.400245
vt 0.687500 0.062500
vt 0.687500 0.437500
vt 0.937500 0.187500
vt 0.437500 0.187500
vt 0.062500 0.187500
vt 0.722246 0.500144
vt 0.937500 0.687500
vt 0.681602 0.328482
vt 0.062500 0.812500
vt 0.812500 0.937500
vt 0.187500 0.562500
vt 0.562500 0.812500
vt 0.812500 0.437500
vt 0.345493 0.288085
vt 0.297952 0.684239
vt 0.741827 0.335727
vt 0.694235 0.731806
vt 0.702826 0.661166
vt 0.496337 0.306316
vt 0.296906 0.332149
vn 0.035153 0.035153 0.998764
vn -0.035700 0.035700 0.998725
vn 0.036344 -0.036344 0.998678
vn -0.035275 -0.035275 0.998755
vn 0.000000 0.000000 1.000000
vn 0.062021 -0.000522 0.998075
vn 0.000223 -0.062209 0.998063
vn -0.064075 -0.001107 0.997944
vn 0.000921 0.063521 0.997980
vn -0.016116 0.044968 0.998858
vn 0.076855 0.051138 0.995730
vn -0.027734 -0.020904 0.999397
vn 0.021799 -0.035735 0.999124
vn -0.001088 0.062474 0.998046
vn -0.000432 0.061057 0.998134
vn -0.062138 -0.000540 0.998067
vn -0.065392 0.000444 0.997860
vn 0.000623 -0.065222 0.997871
vn -0.000409 -0.062094 0.998070
vn 0.061946 0.000368 0.998079
vn 0.064077 -0.000131 0.997945
vn 0.034075 -0.120899 0.992080
vn -0.071480 -0.007271 0.997415
vn -0.055773 0.138324 0.988815
vn -0.061391 -0.007175 0.998088
vn -0.003988 -0.002142 0.999990
vn -0.002911 -0.009834 0.999947
vn -0.000530 0.001373 0.999999
vn 0.010239 -0.009070 0.999906
vn -0.000250 -0.002158 0.999998
vn -0.009628 -0.009615 0.999907
vn 0.002420 0.000377 0.999997
vn -0.002410 0.002722 0.999993
vn -0.000800 -0.000552 1.000000
vn 0.009584 0.009556 0.999908
vn -0.002326 0.000015 0.999997
vn 0.000897 -0.000456 1.000000
vn -0.010112 0.010142 0.999897
vn -0.008474 0.003150 0.999959
vn 0.002037 -0.005746 0.999981
vn -0.015264 0.000869 0.999883
vn 0.001375 -0.006157 0.999980
vn 0.000719 -0.003432 0.999994
vn 0.004666 0.004288 0.999980
vn 0.002552 0.004987 0.999984
vn -0.004148 0.004487 0.999981
vn -0.008925 -0.000889 0.999960
vn -0.006599 -0.002175 0.999976
vn 0.036657 -0.151850 0.987724
vn -0.092459 -0.035585 0.995080
vn 0.150670 0.021988 0.988339
vn 0.001196 -0.001891 0.999997
vn -0.058454 0.196883 0.978683
vn -0.007591 0.102058 0.994749
vn 0.062871 0.000095 0.998022
vn 0.001207 0.000022 0.999999
vn 0.000039 -0.000801 1.000000
vn -0.053812 0.022081 0.998307
vn -0.014914 -0.000357 0.999889
vn 0.001634 0.000166 0.999999
vn -0.002328 -0.062474 0.998044
vn 0.000926 -0.003945 0.999992
vn -0.000090 0.001208 0.999999
vn 0.062659 0.000842 0.998035
vn 0.068202 0.002199 0.997669
vn 0.065712 -0.002257 0.997836
vn 0.000064 -0.062783 0.998027
vn 0.002301 -0.065868 0.997826
vn -0.002158 -0.068285 0.997664
vn -0.001179 -0.064115 0.997942
vn -0.066280 0.000001 0.997801
vn -0.067907 -0.001705 0.997690
vn -0.065761 0.002356 0.997833
vn -0.062541 0.000338 0.998042
vn 0.000374 0.060940 0.998141
vn -0.002080 0.066068 0.997813
vn 0.002757 0.065802 0.997829
vn -0.000178 0.065000 0.997885
vn 0.001332 -0.012449 0.999922
vn -0.000564 -0.000264 1.000000
vn -0.094983 -0.006613 0.995457
vn 0.021537 0.000239 0.999768
vn 0.019320 0.000729 0.999813
vn -0.002459 -0.002378 0.999994
vn 0.022640 0.000357 0.999744
vn -0.000021 -0.018594 0.999827
vn -0.003782 0.043965 0.999026
vn -0.000040 -0.018598 0.999827
vn 0.021154 -0.000200 0.999776
vn -0.013847 -0.002122 0.999902
vn 0.022990 -0.000227 0.999736
vn -0.001723 -0.021922 0.999758
vn 0.004708 -0.003805 0.999982
vn 0.023048 -0.023029 0.999469
vn 0.000288 0.000000 1.000000
vn -0.036008 0.117896 0.992373
vn -0.001114 -0.015713 0.999876
vn 0.002855 -0.014679 0.999888
vn -0.000207 -0.018449 0.999830
vn -0.020470 0.001453 0.999789
vn -0.001085 -0.005813 0.999983
vn -0.021882 -0.021855 0.999522
vn 0.107994 0.035485 0.993518
vn 0.000000 0.000000 1.000000
vn -0.007474 0.118411 0.992936
vn 0.032588 0.016194 0.999338
vn 0.015349 -0.001075 0.999882
vn -0.018295 -0.000705 0.999832
vn -0.045923 0.122416 0.991416
vn 0.005987 -0.093507 0.995601
vn 0.000366 -0.000000 1.000000
vn -0.001679 0.021316 0.999771
vn 0.022073 0.021987 0.999515
vn 0.003362 0.005277 0.999980
vn -0.000487 0.019523 0.999809
vn 0.001676 -0.017117 0.999852
vn 0.001197 0.019639 0.999806
vn 0.001440 0.022091 0.999755
vn -0.022301 0.022824 0.999491
vn -0.064602 -0.005270 0.997897
vn 0.000000 -0.000000 1.000000
vn -0.073129 -0.008632 0.997285
vn -0.003706 0.024167 0.999701
vn -0.004448 0.016767 0.999850
vn 0.000022 0.020028 0.999799
vn -0.019027 0.000134 0.999819
vn 0.044015 -0.018988 0.998850
vn -0.018869 -0.000517 0.999822
vn -0.000771 -0.018971 0.999820
vn 0.008062 -0.093335 0.995602
vn -0.001114 0.003076 0.999995
vn 0.056927 0.003900 0.998371
vn -0.000265 0.020099 0.999798
vn -0.001927 0.000010 0.999998
vn -0.021290 -0.001641 0.999772
vn 0.004015 -0.011387 0.999927
vn 0.021857 -0.001089 0.999761
vn 0.047996 0.002843 0.998843
vn -0.018499 0.000306 0.999829
vn 0.002505 -0.061078 0.998130
vn 0.021957 0.001962 0.999757
vn 0.001596 -0.020266 0.999793
vn 0.019237 0.002937 0.999811
vn -0.000482 0.020866 0.999782
vn 0.046973 -0.000676 0.998896
vn -0.009892 -0.093253 0.995593
vn -0.062786 0.044274 0.997045
vn 0.069391 -0.046136 0.996522
vn 0.052315 0.073518 0.995921
vn 0.088896 -0.001880 0.996039
vn 0.014120 -0.119619 0.992719
vn -0.114921 -0.001742 0.993373
f 1/1/1 113/113/113 66/66/66
f 31/31/31 137/137/137 113/113/113
f 47/47/47 114/114/114 12/12/12
f 112/112/112 31/31/31 113/113/113
f 138/138/138 145/145/145 106/106/106
f 106/106/106 52/52/52 33/33/33
f 124/124/124 13/13/13 61/61/61
f 84/84/84 41/41/41 47/47/47
f 137/137/137 66/66/66 113/113/113
f 75/75/75 115/115/115 15/15/15
f 12/12/12 152/152/152 84/84/84
f 12/12/12 114/114/114 116/116/116
f 101/101/101 35/35/35 46/46/46
f 76/76/76 113/113/113 1/1/1
f 76/76/76 112/112/112 113/113/113
f 15/15/15 112/112/112 76/76/76
f 115/115/115 112/112/112 15/15/15
f 30/30/30 115/115/115 117/117/117
f 108/108/108 33/33/33 52/52/52
f 75/75/75 117/117/117 115/115/115
f 115/115/115 30/30/30 42/42/42
f 42/42/42 116/116/116 114/114/114
f 51/51/51 150/150/150 103/103/103
f 116/116/116 30/30/30 136/136/136
f 122/122/122 23/23/23 120/120/120
f 49/49/49 146/146/146 116/116/116
f 42/42/42 112/112/112 115/115/115
f 58/58/58 84/84/84 152/152/152
f 146/146/146 12/12/12 116/116/116
f 60/60/60 120/120/120 111/111/111
f 13/13/13 44/44/44 127/127/127
f 84/84/84 47/47/47 12/12/12
f 101/101/101 43/43/43 35/35/35
f 104/104/104 80/80/80 34/34/34
f 130/130/130 49/49/49 136/136/136
f 83/83/83 58/58/58 23/23/23
f 49/49/49 116/116/116 136/136/136
f 117/117/117 62/62/62 30/30/30
f 127/127/127 145/145/145 132/132/132
f 62/62/62 123/123/123 136/136/136
f 77/77/77 2/2/2 119/119/119
f 77/77/77 119/119/119 118/118/118
f 71/71/71 128/128/128 126/126/126
f 142/142/142 46/46/46 35/35/35
f 63/63/63 28/28/28 121/121/121
f 119/119/119 29/29/29 118/118/118
f 148/148/148 140/140/140 13/13/13
f 125/125/125 27/27/27 62/62/62
f 135/135/135 72/72/72 17/17/17
f 136/136/136 30/30/30 62/62/62
f 58/58/58 120/120/120 23/23/23
f 60/60/60 122/122/122 120/120/120
f 127/127/127 44/44/44 26/26/26
f 120/120/120 25/25/25 32/32/32
f 28/28/28 132/132/132 134/134/134
f 147/147/147 54/54/54 10/10/10
f 120/120/120 32/32/32 111/111/111
f 22/22/22 130/130/130 136/136/136
f 130/130/130 63/63/63 32/32/32
f 147/147/147 105/105/105 54/54/54
f 82/82/82 47/47/47 41/41/41
f 45/45/45 98/98/98 36/36/36
f 82/82/82 137/137/137 47/47/47
f 146/146/146 152/152/152 12/12/12
f 26/26/26 126/126/126 128/128/128
f 62/62/62 117/117/117 125/125/125
f 20/20/20 137/137/137 82/82/82
f 38/38/38 92/92/92 94/94/94
f 20/20/20 66/66/66 137/137/137
f 55/55/55 20/20/20 82/82/82
f 69/69/69 94/94/94 92/92/92
f 143/143/143 90/90/90 39/39/39
f 8/8/8 108/108/108 128/128/128
f 141/141/141 48/48/48 38/38/38
f 24/24/24 144/144/144 97/97/97
f 65/65/65 141/141/141 94/94/94
f 114/114/114 31/31/31 42/42/42
f 38/38/38 94/94/94 141/141/141
f 92/92/92 18/18/18 69/69/69
f 97/97/97 54/54/54 24/24/24
f 151/151/151 110/110/110 63/63/63
f 11/11/11 107/107/107 101/101/101
f 29/29/29 119/119/119 135/135/135
f 143/143/143 59/59/59 83/83/83
f 104/104/104 34/34/34 57/57/57
f 43/43/43 101/101/101 107/107/107
f 129/129/129 45/45/45 36/36/36
f 27/27/27 124/124/124 123/123/123
f 85/85/85 41/41/41 59/59/59
f 78/78/78 125/125/125 9/9/9
f 70/70/70 129/129/129 99/99/99
f 83/83/83 59/59/59 41/41/41
f 129/129/129 70/70/70 18/18/18
f 36/36/36 99/99/99 129/129/129
f 93/93/93 38/38/38 48/48/48
f 38/38/38 45/45/45 92/92/92
f 52/52/52 128/128/128 108/108/108
f 65/65/65 94/94/94 3/3/3
f 72/72/72 135/135/135 119/119/119
f 94/94/94 69/69/69 3/3/3
f 39/39/39 90/90/90 48/48/48
f 21/21/21 141/141/141 65/65/65
f 18/18/18 92/92/92 129/129/129
f 6/6/6 91/91/91 64/64/64
f 105/105/105 24/24/24 54/54/54
f 93/93/93 45/45/45 38/38/38
f 89/89/89 39/39/39 48/48/48
f 50/50/50 90/90/90 143/143/143
f 45/45/45 129/129/129 92/92/92
f 9/9/9 125/125/125 117/117/117
f 64/64/64 89/89/89 21/21/21
f 55/55/55 82/82/82 85/85/85
f 6/6/6 85/85/85 91/91/91
f 59/59/59 91/91/91 85/85/85
f 41/41/41 85/85/85 82/82/82
f 6/6/6 55/55/55 85/85/85
f 23/23/23 143/143/143 83/83/83
f 59/59/59 39/39/39 91/91/91
f 151/151/151 130/130/130 22/22/22
f 143/143/143 39/39/39 59/59/59
f 118/118/118 29/29/29 79/79/79
f 29/29/29 44/44/44 131/131/131
f 32/32/32 146/146/146 130/130/130
f 58/58/58 83/83/83 84/84/84
f 119/119/119 2/2/2 72/72/72
f 44/44/44 126/126/126 26/26/26
f 130/130/130 151/151/151 63/63/63
f 138/138/138 103/103/103 80/80/80
f 10/10/10 98/98/98 93/93/93
f 21/21/21 89/89/89 141/141/141
f 131/131/131 44/44/44 13/13/13
f 148/148/148 13/13/13 127/127/127
f 79/79/79 133/133/133 118/118/118
f 118/118/118 133/133/133 14/14/14
f 81/81/81 147/147/147 50/50/50
f 100/100/100 35/35/35 43/43/43
f 109/109/109 96/96/96 34/34/34
f 48/48/48 141/141/141 89/89/89
f 78/78/78 133/133/133 125/125/125
f 62/62/62 27/27/27 123/123/123
f 37/37/37 147/147/147 81/81/81
f 40/40/40 144/144/144 87/87/87
f 98/98/98 10/10/10 54/54/54
f 25/25/25 120/120/120 58/58/58
f 5/5/5 95/95/95 111/111/111
f 110/110/110 151/151/151 22/22/22
f 57/57/57 37/37/37 95/95/95
f 37/37/37 57/57/57 105/105/105
f 27/27/27 125/125/125 133/133/133
f 121/121/121 5/5/5 111/111/111
f 140/140/140 132/132/132 28/28/28
f 123/123/123 22/22/22 136/136/136
f 17/17/17 126/126/126 135/135/135
f 41/41/41 84/84/84 83/83/83
f 130/130/130 146/146/146 49/49/49
f 60/60/60 111/111/111 95/95/95
f 28/28/28 134/134/134 80/80/80
f 104/104/104 95/95/95 5/5/5
f 148/148/148 127/127/127 132/132/132
f 24/24/24 105/105/105 96/96/96
f 57/57/57 95/95/95 104/104/104
f 24/24/24 96/96/96 144/144/144
f 132/132/132 140/140/140 148/148/148
f 134/134/134 132/132/132 138/138/138
f 45/45/45 93/93/93 98/98/98
f 110/110/110 28/28/28 63/63/63
f 106/106/106 103/103/103 138/138/138
f 9/9/9 117/117/117 75/75/75
f 26/26/26 128/128/128 52/52/52
f 54/54/54 97/97/97 98/98/98
f 111/111/111 32/32/32 63/63/63
f 123/123/123 61/61/61 22/22/22
f 99/99/99 36/36/36 56/56/56
f 80/80/80 104/104/104 5/5/5
f 135/135/135 44/44/44 29/29/29
f 126/126/126 17/17/17 71/71/71
f 150/150/150 109/109/109 34/34/34
f 87/87/87 109/109/109 149/149/149
f 13/13/13 124/124/124 131/131/131
f 103/103/103 150/150/150 34/34/34
f 36/36/36 98/98/98 97/97/97
f 60/60/60 81/81/81 122/122/122
f 53/53/53 96/96/96 109/109/109
f 122/122/122 81/81/81 23/23/23
f 95/95/95 37/37/37 81/81/81
f 60/60/60 95/95/95 81/81/81
f 87/87/87 149/149/149 11/11/11
f 150/150/150 149/149/149 109/109/109
f 14/14/14 133/133/133 78/78/78
f 140/140/140 110/110/110 61/61/61
f 107/107/107 106/106/106 33/33/33
f 44/44/44 135/135/135 126/126/126
f 51/51/51 103/103/103 106/106/106
f 143/143/143 23/23/23 50/50/50
f 81/81/81 50/50/50 23/23/23
f 121/121/121 80/80/80 5/5/5
f 63/63/63 121/121/121 111/111/111
f 121/121/121 28/28/28 80/80/80
f 77/77/77 118/118/118 14/14/14
f 52/52/52 106/106/106 145/145/145
f 103/103/103 34/34/34 80/80/80
f 131/131/131 79/79/79 29/29/29
f 51/51/51 107/107/107 150/150/150
f 25/25/25 146/146/146 32/32/32
f 124/124/124 27/27/27 79/79/79
f 139/139/139 33/33/33 108/108/108
f 107/107/107 33/33/33 43/43/43
f 133/133/133 79/79/79 27/27/27
f 107/107/107 11/11/11 150/150/150
f 139/139/139 43/43/43 33/33/33
f 10/10/10 90/90/90 147/147/147
f 96/96/96 105/105/105 57/57/57
f 140/140/140 28/28/28 110/110/110
f 51/51/51 106/106/106 107/107/107
f 50/50/50 147/147/147 90/90/90
f 97/97/97 56/56/56 36/36/36
f 86/86/86 46/46/46 142/142/142
f 112/112/112 42/42/42 31/31/31
f 40/40/40 46/46/46 86/86/86
f 74/74/74 139/139/139 108/108/108
f 100/100/100 43/43/43 139/139/139
f 137/137/137 31/31/31 47/47/47
f 114/114/114 47/47/47 31/31/31
f 88/88/88 40/40/40 86/86/86
f 16/16/16 100/100/100 139/139/139
f 102/102/102 35/35/35 100/100/100
f 68/68/68 142/142/142 102/102/102
f 88/88/88 99/99/99 56/56/56
f 142/142/142 35/35/35 102/102/102
f 144/144/144 96/96/96 53/53/53
f 46/46/46 11/11/11 101/101/101
f 19/19/19 86/86/86 142/142/142
f 88/88/88 56/56/56 40/40/40
f 144/144/144 40/40/40 56/56/56
f 53/53/53 109/109/109 87/87/87
f 87/87/87 11/11/11 46/46/46
f 87/87/87 46/46/46 40/40/40
f 110/110/110 22/22/22 61/61/61
f 57/57/57 34/34/34 96/96/96
f 144/144/144 56/56/56 97/97/97
f 61/61/61 13/13/13 140/140/140
f 64/64/64 91/91/91 89/89/89
f 145/145/145 127/127/127 26/26/26
f 67/67/67 88/88/88 86/86/86
f 7/7/7 99/99/99 88/88/88
f 7/7/7 70/70/70 99/99/99
f 67/67/67 7/7/7 88/88/88
f 19/19/19 67/67/67 86/86/86
f 68/68/68 19/19/19 142/142/142
f 73/73/73 102/102/102 100/100/100
f 4/4/4 68/68/68 102/102/102
f 73/73/73 4/4/4 102/102/102
f 16/16/16 73/73/73 100/100/100
f 74/74/74 16/16/16 139/139/139
f 8/8/8 74/74/74 108/108/108
f 39/39/39 89/89/89 91/91/91
f 53/53/53 87/87/87 144/144/144
f 116/116/116 42/42/42 30/30/30
f 134/134/134 138/138/138 80/80/80
f 61/61/61 123/123/123 124/124/124
f 145/145/145 26/26/26 52/52/52
f 79/79/79 131/131/131 124/124/124
f 128/128/128 71/71/71 8/8/8
f 149/149/149 150/150/150 11/11/11
f 37/37/37 105/105/105 147/147/147
f 145/145/145 138/138/138 132/132/132
f 58/58/58 152/152/152 25/25/25
f 152/152/152 146/146/146 25/25/25
f 90/90/90 10/10/10 48/48/48
f 93/93/93 48/48/48 10/10/10
