# frame 000065 
# time 0.033000 
# name Cloth3D 
v -0.000000 0.000000 -0.000000
v 1.000000 0.000000 -0.000000
v -0.000000 1.000000 0.000000
v 1.000000 1.000000 0.000000
v 0.499807 0.500029 0.011284
v -0.000000 0.500000 0.000000
v 0.500000 1.000000 0.000000
v 1.000000 0.500000 0.000000
v 0.500000 -0.000000 0.000000
v 0.249826 0.749808 -0.006544
v 0.749858 0.750106 -0.004210
v 0.250108 0.249957 -0.006731
v 0.750143 0.250331 -0.007028
v 0.750000 0.000000 0.000000
v 0.250000 0.000000 0.000000
v 1.000000 0.750000 0.000000
v 1.000000 0.250000 0.000000
v 0.250000 1.000000 0.000000
v 0.750000 1.000000 0.000000
v 0.000000 0.250000 0.000000
v 0.000000 0.750000 -0.000000
v 0.499581 0.251139 -0.005381
v 0.251328 0.500251 -0.008698
v 0.500215 0.749379 -0.001154
v 0.342028 0.361876 0.011436
v 0.874846 0.375074 -0.005665
v 0.624912 0.125334 -0.005181
v 0.625585 0.374360 0.011284
v 0.875202 0.124849 -0.005744
v 0.374981 0.125128 -0.004281
v 0.124817 0.124798 -0.005537
v 0.374408 0.374464 0.011284
v 0.874735 0.625026 -0.004720
v 0.625411 0.625701 0.011284
v 0.875174 0.875218 -0.005330
v 0.375042 0.874680 -0.005097
v 0.374150 0.625647 0.011284
v 0.124775 0.875178 -0.005871
v 0.125179 0.624993 -0.005269
v 0.625055 0.874697 -0.005405
v 0.125263 0.375073 -0.005265
v 0.249952 0.124843 -0.004928
v 0.875004 0.750044 -0.005120
v 0.875156 0.250042 -0.005325
v 0.249979 0.874980 -0.005197
v 0.750029 0.875104 -0.005230
v 0.124927 0.249970 -0.005393
v 0.124774 0.750035 -0.005103
v 0.374549 0.249769 0.002836
v 0.251015 0.625914 -0.004601
v 0.749876 0.625346 0.001134
v 0.874616 0.500008 -0.005380
v 0.625568 0.750736 0.005440
v 0.374842 0.748968 -0.005682
v 0.000000 0.375000 0.000000
v 0.500079 0.874533 -0.004782
v 0.499800 0.625643 0.011285
v 0.250875 0.374689 -0.007761
v 0.125513 0.500075 -0.005555
v 0.374172 0.500047 0.011285
v 0.625096 0.251169 -0.008172
v 0.499939 0.125394 -0.005078
v 0.499964 0.374374 0.011285
v 0.000000 0.625000 0.000000
v 0.000000 0.875000 0.000000
v 0.000000 0.125000 0.000000
v 0.625000 1.000000 0.000000
v 0.875000 1.000000 0.000000
v 0.125000 1.000000 0.000000
v 0.375000 1.000000 0.000000
v 1.000000 0.375000 0.000000
v 1.000000 0.125000 0.000000
v 1.000000 0.875000 0.000000
v 1.000000 0.625000 0.000000
v 0.375000 0.000000 0.000000
v 0.125000 0.000000 0.000000
v 0.875000 0.000000 0.000000
v 0.625000 0.000000 0.000000
v 0.749987 0.125064 -0.005135
v 0.625407 0.499988 0.011285
v 0.307966 0.566524 0.011429
v 0.062373 0.312536 -0.007074
v 0.188373 0.437563 -0.005092
v 0.187741 0.312497 -0.004634
v 0.062532 0.437552 -0.006942
v 0.687473 0.937632 -0.006833
v 0.687656 0.812185 -0.009256
v 0.562504 0.937466 -0.006686
v 0.062296 0.687464 -0.007266
v 0.187510 0.687549 -0.008051
v 0.062509 0.562479 -0.006826
v 0.187457 0.937731 -0.007396
v 0.187344 0.812515 -0.005101
v 0.062214 0.937782 -0.008001
v 0.436950 0.562852 0.011285
v 0.538561 0.715713 0.011429
v 0.437532 0.811774 -0.007919
v 0.312478 0.812111 -0.008465
v 0.437545 0.937451 -0.006611
v 0.937720 0.812560 -0.007009
v 0.812530 0.812621 -0.005467
v 0.937767 0.937777 -0.007795
v 0.709134 0.591010 0.011429
v 0.562596 0.562826 0.011285
v 0.420136 0.695995 0.011429
v 0.811869 0.562563 -0.007687
v 0.812217 0.687579 -0.009483
v 0.937488 0.562503 -0.006730
v 0.657183 0.735463 0.011429
v 0.561678 0.314317 0.011429
v 0.437075 0.437247 0.011285
v 0.187442 0.062221 -0.007243
v 0.062233 0.062233 -0.007769
v 0.187440 0.187390 -0.004790
v 0.312511 0.062327 -0.006905
v 0.312446 0.187511 -0.008168
v 0.437499 0.062473 -0.006758
v 0.812526 0.062301 -0.007016
v 0.937770 0.062226 -0.007878
v 0.331229 0.426811 0.011429
v 0.562676 0.437186 0.011285
v 0.319048 0.499969 0.011429
v 0.562388 0.188319 -0.007730
v 0.687460 0.188014 -0.004945
v 0.562455 0.062507 -0.007053
v 0.937697 0.312565 -0.007240
v 0.812396 0.312577 -0.007391
v 0.937545 0.437554 -0.007085
v 0.312542 0.937594 -0.007220
v 0.431563 0.292652 0.011429
v 0.812636 0.187538 -0.005012
v 0.740842 0.400573 0.011429
v 0.687448 0.062426 -0.007084
v 0.688354 0.437204 0.011284
v 0.937794 0.187465 -0.007414
v 0.437301 0.188045 -0.008803
v 0.062255 0.187447 -0.007085
v 0.724227 0.500366 0.011429
v 0.937604 0.687491 -0.006995
v 0.681632 0.334289 0.011429
v 0.062181 0.812556 -0.007393
v 0.812540 0.937768 -0.007062
v 0.188398 0.562756 -0.005508
v 0.562704 0.811809 -0.009970
v 0.811778 0.437395 -0.006985
v 0.355614 0.279932 0.011442
v 0.289933 0.674379 0.011442
v 0.750068 0.345620 0.011442
v 0.684379 0.740067 0.011442
v 0.697450 0.661188 0.011429
v 0.496601 0.303482 0.011429
v 0.297422 0.331741 -0.000008
v 0.357097 0.685526 0.011436
vt 0.000000 0.000000
vt 1.000000 0.000000
vt 0.000000 1.000000
vt 1.000000 1.000000
vt 0.500000 0.500000
vt 0.000000 0.500000
vt 0.500000 1.000000
vt 1.000000 0.500000
vt 0.500000 0.000000
vt 0.250000 0.750000
vt 0.750000 0.750000
vt 0.250000 0.250000
vt 0.750000 0.250000
vt 0.750000 0.000000
vt 0.250000 0.000000
vt 1.000000 0.750000
vt 1.000000 0.250000
vt 0.250000 1.000000
vt 0.750000 1.000000
vt 0.000000 0.250000
vt 0.000000 0.750000
vt 0.500000 0.250000
vt 0.250000 0.500000
vt 0.500000 0.750000
vt 0.342716 0.362439
vt 0.875000 0.375000
vt 0.625000 0.125000
vt 0.625000 0.375000
vt 0.875000 0.125000
vt 0.375000 0.125000
vt 0.125000 0.125000
vt 0.375000 0.375000
vt 0.875000 0.625000
vt 0.625000 0.625000
vt 0.875000 0.875000
vt 0.375000 0.875000
vt 0.375000 0.625000
vt 0.125000 0.875000
vt 0.125000 0.625000
vt 0.625000 0.875000
vt 0.125000 0.375000
vt 0.250000 0.125000
vt 0.875000 0.750000
vt 0.875000 0.250000
vt 0.250000 0.875000
vt 0.750000 0.875000
vt 0.125000 0.250000
vt 0.125000 0.750000
vt 0.375000 0.250000
vt 0.250000 0.625000
vt 0.750000 0.625000
vt 0.875000 0.500000
vt 0.625000 0.750000
vt 0.375000 0.750000
vt 0.000000 0.375000
vt 0.500000 0.875000
vt 0.500000 0.625000
vt 0.250000 0.375000
vt 0.125000 0.500000
vt 0.375000 0.500000
vt 0.625000 0.250000
vt 0.500000 0.125000
vt 0.500000 0.375000
vt 0.000000 0.625000
vt 0.000000 0.875000
vt 0.000000 0.125000
vt 0.625000 1.000000
vt 0.875000 1.000000
vt 0.125000 1.000000
vt 0.375000 1.000000
vt 1.000000 0.375000
vt 1.000000 0.125000
vt 1.000000 0.875000
vt 1.000000 0.625000
vt 0.375000 0.000000
vt 0.125000 0.000000
vt 0.875000 0.000000
vt 0.625000 0.000000
vt 0.750000 0.125000
vt 0.625000 0.500000
vt 0.309245 0.566226
vt 0.062500 0.312500
vt 0.187500 0.437500
vt 0.187500 0.312500
vt 0.062500 0.437500
vt 0.687500 0.937500
vt 0.687500 0.812500
vt 0.562500 0.937500
vt 0.062500 0.687500
vt 0.187500 0.687500
vt 0.062500 0.562500
vt 0.187500 0.937500
vt 0.187500 0.812500
vt 0.062500 0.937500
vt 0.437500 0.562500
vt 0.538502 0.714578
vt 0.437500 0.812500
vt 0.312500 0.812500
vt 0.437500 0.937500
vt 0.937500 0.812500
vt 0.812500 0.812500
vt 0.937500 0.937500
vt 0.708375 0.590538
vt 0.562500 0.562500
vt 0.420635 0.694992
vt 0.812500 0.562500
vt 0.812500 0.687500
vt 0.937500 0.562500
vt 0.656394 0.733868
vt 0.561401 0.315315
vt 0.437500 0.437500
vt 0.187500 0.062500
vt 0.062500 0.062500
vt 0.187500 0.187500
vt 0.312500 0.062500
vt 0.312500 0.187500
vt 0.437500 0.062500
vt 0.812500 0.062500
vt 0.937500 0.062500
vt 0.332118 0.427102
vt 0.562500 0.437500
vt 0.320196 0.499985
vt 0.562500 0.187500
vt 0.687500 0.187500
vt 0.562500 0.062500
vt 0.937500 0.312500
vt 0.812500 0.312500
vt 0.937500 0.437500
vt 0.312500 0.937500
vt 0.431797 0.293606
vt 0.812500 0.187500
vt 0.739560 0.401001
vt 0.687500 0.062500
vt 0.687500 0.437500
vt 0.937500 0.187500
vt 0.437500 0.187500
vt 0.062500 0.187500
vt 0.723372 0.500303
vt 0.937500 0.687500
vt 0.680668 0.335083
vt 0.062500 0.812500
vt 0.812500 0.937500
vt 0.187500 0.562500
vt 0.562500 0.812500
vt 0.812500 0.437500
vt 0.356232 0.281108
vt 0.291197 0.673471
vt 0.748432 0.346424
vt 0.683345 0.738289
vt 0.696683 0.660282
vt 0.496593 0.304543
vt 0.296906 0.332149
vt 0.357919 0.684551
vn 0.060793 0.060793 0.996297
vn -0.061657 0.061657 0.996191
vn 0.062633 -0.062633 0.996069
vn -0.060995 -0.060995 0.996273
vn 0.000000 0.000000 1.000000
vn 0.107076 -0.000470 0.994251
vn 0.000317 -0.103790 0.994599
vn -0.107720 -0.001425 0.994180
vn 0.001176 0.107675 0.994186
vn -0.031156 0.068482 0.997166
vn 0.114302 0.068384 0.991090
vn -0.040571 -0.035664 0.998540
vn 0.029817 -0.057111 0.997923
vn -0.000348 0.109642 0.993971
vn -0.001284 0.109966 0.993934
vn -0.108980 -0.000017 0.994044
vn -0.114098 -0.000598 0.993469
vn -0.000589 -0.113750 0.993509
vn 0.000798 -0.108223 0.994126
vn 0.110056 -0.000012 0.993925
vn 0.113993 0.000464 0.993482
vn 0.049663 -0.203806 0.977751
vn -0.133612 -0.020801 0.990815
vn -0.053290 0.218247 0.974437
vn -0.080958 -0.014951 0.996605
vn -0.000874 -0.001179 0.999999
vn -0.005239 -0.006457 0.999965
vn -0.000555 0.001502 0.999999
vn 0.015204 -0.012571 0.999805
vn 0.001086 0.012284 0.999924
vn -0.014312 -0.014312 0.999795
vn 0.002985 0.000503 0.999995
vn -0.013146 0.003613 0.999907
vn -0.000890 -0.000521 0.999999
vn 0.013037 0.013514 0.999824
vn -0.003159 -0.009426 0.999951
vn 0.000776 -0.000944 0.999999
vn -0.014350 0.014586 0.999791
vn -0.002877 0.005014 0.999983
vn 0.000093 -0.022222 0.999753
vn -0.017415 0.000989 0.999848
vn 0.003477 -0.004887 0.999982
vn -0.003498 -0.006612 0.999972
vn 0.008335 0.004419 0.999955
vn 0.004706 0.004403 0.999979
vn -0.007243 0.007002 0.999949
vn -0.013389 -0.000832 0.999910
vn -0.009004 -0.004324 0.999950
vn 0.038121 -0.224721 0.973677
vn -0.189011 -0.062841 0.979962
vn 0.192625 0.040190 0.980449
vn -0.003283 -0.001293 0.999994
vn -0.038658 0.262224 0.964233
vn -0.026837 0.176623 0.983913
vn 0.109020 -0.000510 0.994039
vn 0.004686 -0.017197 0.999841
vn 0.000055 -0.000810 1.000000
vn -0.087112 0.023528 0.995921
vn -0.013315 0.000526 0.999911
vn 0.001630 0.000239 0.999999
vn 0.005819 -0.107616 0.994175
vn 0.000264 0.009729 0.999953
vn -0.000119 0.001169 0.999999
vn 0.109608 0.001747 0.993973
vn 0.119838 0.002483 0.992790
vn 0.115598 -0.002783 0.993292
vn 0.000560 -0.105528 0.994416
vn 0.002954 -0.115669 0.993283
vn -0.002481 -0.119837 0.992791
vn -0.002375 -0.107875 0.994162
vn -0.111727 -0.000597 0.993739
vn -0.119056 -0.001901 0.992886
vn -0.115224 0.003166 0.993335
vn -0.106953 0.001039 0.994263
vn -0.000523 0.106379 0.994325
vn -0.002170 0.116821 0.993151
vn 0.003499 0.115891 0.993256
vn 0.000083 0.110168 0.993913
vn 0.001132 -0.016547 0.999862
vn -0.000561 -0.000265 1.000000
vn -0.155221 -0.021296 0.987650
vn 0.041252 -0.000452 0.999149
vn 0.022897 0.003869 0.999730
vn -0.006553 -0.002749 0.999975
vn 0.041813 0.000125 0.999125
vn 0.000362 -0.040648 0.999173
vn 0.008988 0.101936 0.994750
vn 0.001549 -0.038791 0.999246
vn 0.040170 0.000691 0.999193
vn -0.037802 -0.000214 0.999285
vn 0.041850 0.000026 0.999124
vn -0.002850 -0.042833 0.999078
vn 0.006707 -0.002589 0.999974
vn 0.041449 -0.041430 0.998281
vn 0.000276 0.000000 1.000000
vn -0.044152 0.169036 0.984620
vn -0.006346 0.009830 0.999932
vn 0.003740 -0.008653 0.999956
vn -0.001626 -0.037733 0.999287
vn -0.040425 0.002017 0.999180
vn 0.003578 -0.006572 0.999972
vn -0.039335 -0.039249 0.998455
vn 0.125931 0.026508 0.991685
vn 0.000000 0.000000 1.000000
vn -0.022151 0.150406 0.988376
vn 0.066369 0.014159 0.997695
vn 0.024620 0.006519 0.999676
vn -0.038593 -0.001484 0.999254
vn -0.030328 0.167898 0.985338
vn 0.016877 -0.132439 0.991047
vn 0.000384 -0.000000 1.000000
vn -0.002896 0.040589 0.999172
vn 0.040016 0.039715 0.998409
vn 0.005499 0.006681 0.999963
vn -0.002151 0.035588 0.999364
vn -0.012705 -0.041017 0.999078
vn 0.001904 0.035949 0.999352
vn 0.002723 0.042188 0.999106
vn -0.040202 0.041005 0.998350
vn -0.098518 -0.010570 0.995079
vn 0.000000 -0.000000 1.000000
vn -0.122303 -0.020050 0.992290
vn -0.002183 0.014710 0.999889
vn -0.007604 0.019820 0.999775
vn 0.000830 0.039364 0.999225
vn -0.042145 0.000033 0.999111
vn 0.086135 -0.044313 0.995297
vn -0.042154 -0.001497 0.999110
vn -0.001690 -0.039527 0.999217
vn 0.029165 -0.134353 0.990504
vn -0.000116 0.006225 0.999981
vn 0.095258 0.016224 0.995320
vn -0.000210 0.039783 0.999208
vn -0.001765 -0.000038 0.999998
vn -0.042835 -0.002125 0.999080
vn 0.018504 -0.046804 0.998733
vn 0.042368 -0.001655 0.999101
vn 0.086159 0.009672 0.996234
vn -0.037762 0.001287 0.999286
vn 0.007414 -0.086948 0.996185
vn 0.042568 0.002979 0.999089
vn 0.002147 -0.040810 0.999165
vn 0.011449 -0.002146 0.999932
vn -0.010868 0.071473 0.997383
vn 0.101329 0.011070 0.994791
vn -0.018155 -0.148639 0.988725
vn -0.118168 0.044505 0.991996
vn 0.115518 -0.061912 0.991374
vn 0.043707 0.143101 0.988743
vn 0.113467 0.019118 0.993358
vn 0.028041 -0.171048 0.984864
vn -0.171217 -0.014435 0.985128
vn -0.020089 0.123508 0.992140
f 1/1/1 113/113/113 66/66/66
f 31/31/31 137/137/137 113/113/113
f 47/47/47 114/114/114 12/12/12
f 112/112/112 31/31/31 113/113/113
f 138/138/138 145/145/145 106/106/106
f 106/106/106 52/52/52 33/33/33
f 124/124/124 13/13/13 61/61/61
f 84/84/84 41/41/41 47/47/47
f 137/137/137 66/66/66 113/113/113
f 75/75/75 115/115/115 15/15/15
f 12/12/12 152/152/152 84/84/84
f 12/12/12 114/114/114 116/116/116
f 101/101/101 35/35/35 46/46/46
f 76/76/76 113/113/113 1/1/1
f 76/76/76 112/112/112 113/113/113
f 15/15/15 112/112/112 76/76/76
f 115/115/115 112/112/112 15/15/15
f 30/30/30 115/115/115 117/117/117
f 108/108/108 33/33/33 52/52/52
f 75/75/75 117/117/117 115/115/115
f 115/115/115 30/30/30 42/42/42
f 42/42/42 116/116/116 114/114/114
f 51/51/51 150/150/150 103/103/103
f 116/116/116 30/30/30 136/136/136
f 122/122/122 23/23/23 120/120/120
f 49/49/49 146/146/146 116/116/116
f 42/42/42 112/112/112 115/115/115
f 58/58/58 84/84/84 152/152/152
f 146/146/146 12/12/12 116/116/116
f 60/60/60 120/120/120 111/111/111
f 153/153/153 147/147/147 37/37/37
f 84/84/84 47/47/47 12/12/12
f 101/101/101 43/43/43 35/35/35
f 104/104/104 80/80/80 34/34/34
f 130/130/130 49/49/49 136/136/136
f 83/83/83 58/58/58 23/23/23
f 49/49/49 116/116/116 136/136/136
f 117/117/117 62/62/62 30/30/30
f 132/132/132 134/134/134 140/140/140
f 62/62/62 123/123/123 136/136/136
f 77/77/77 2/2/2 119/119/119
f 77/77/77 119/119/119 118/118/118
f 71/71/71 128/128/128 126/126/126
f 142/142/142 46/46/46 35/35/35
f 63/63/63 28/28/28 121/121/121
f 119/119/119 29/29/29 118/118/118
f 148/148/148 140/140/140 13/13/13
f 125/125/125 27/27/27 62/62/62
f 135/135/135 72/72/72 17/17/17
f 136/136/136 30/30/30 62/62/62
f 58/58/58 120/120/120 23/23/23
f 60/60/60 122/122/122 120/120/120
f 127/127/127 44/44/44 26/26/26
f 120/120/120 25/25/25 32/32/32
f 93/93/93 48/48/48 10/10/10
f 147/147/147 54/54/54 10/10/10
f 120/120/120 32/32/32 111/111/111
f 22/22/22 130/130/130 136/136/136
f 130/130/130 63/63/63 32/32/32
f 127/127/127 145/145/145 148/148/148
f 82/82/82 47/47/47 41/41/41
f 45/45/45 98/98/98 36/36/36
f 82/82/82 137/137/137 47/47/47
f 146/146/146 152/152/152 12/12/12
f 26/26/26 126/126/126 128/128/128
f 62/62/62 117/117/117 125/125/125
f 20/20/20 137/137/137 82/82/82
f 38/38/38 92/92/92 94/94/94
f 20/20/20 66/66/66 137/137/137
f 55/55/55 20/20/20 82/82/82
f 69/69/69 94/94/94 92/92/92
f 143/143/143 90/90/90 39/39/39
f 8/8/8 108/108/108 128/128/128
f 141/141/141 48/48/48 38/38/38
f 24/24/24 144/144/144 97/97/97
f 65/65/65 141/141/141 94/94/94
f 114/114/114 31/31/31 42/42/42
f 38/38/38 94/94/94 141/141/141
f 92/92/92 18/18/18 69/69/69
f 97/97/97 54/54/54 24/24/24
f 151/151/151 110/110/110 63/63/63
f 11/11/11 107/107/107 101/101/101
f 29/29/29 119/119/119 135/135/135
f 143/143/143 59/59/59 83/83/83
f 104/104/104 34/34/34 57/57/57
f 43/43/43 101/101/101 107/107/107
f 129/129/129 45/45/45 36/36/36
f 27/27/27 124/124/124 123/123/123
f 85/85/85 41/41/41 59/59/59
f 78/78/78 125/125/125 9/9/9
f 70/70/70 129/129/129 99/99/99
f 83/83/83 59/59/59 41/41/41
f 129/129/129 70/70/70 18/18/18
f 36/36/36 99/99/99 129/129/129
f 93/93/93 38/38/38 48/48/48
f 38/38/38 45/45/45 92/92/92
f 52/52/52 128/128/128 108/108/108
f 65/65/65 94/94/94 3/3/3
f 72/72/72 135/135/135 119/119/119
f 94/94/94 69/69/69 3/3/3
f 39/39/39 90/90/90 48/48/48
f 21/21/21 141/141/141 65/65/65
f 18/18/18 92/92/92 129/129/129
f 6/6/6 91/91/91 64/64/64
f 105/105/105 24/24/24 54/54/54
f 93/93/93 45/45/45 38/38/38
f 89/89/89 39/39/39 48/48/48
f 50/50/50 90/90/90 143/143/143
f 45/45/45 129/129/129 92/92/92
f 9/9/9 125/125/125 117/117/117
f 64/64/64 89/89/89 21/21/21
f 55/55/55 82/82/82 85/85/85
f 6/6/6 85/85/85 91/91/91
f 59/59/59 91/91/91 85/85/85
f 41/41/41 85/85/85 82/82/82
f 6/6/6 55/55/55 85/85/85
f 23/23/23 143/143/143 83/83/83
f 59/59/59 39/39/39 91/91/91
f 151/151/151 130/130/130 22/22/22
f 143/143/143 39/39/39 59/59/59
f 118/118/118 29/29/29 79/79/79
f 29/29/29 44/44/44 131/131/131
f 32/32/32 146/146/146 130/130/130
f 58/58/58 83/83/83 84/84/84
f 119/119/119 2/2/2 72/72/72
f 44/44/44 126/126/126 26/26/26
f 130/130/130 151/151/151 63/63/63
f 138/138/138 103/103/103 80/80/80
f 10/10/10 98/98/98 93/93/93
f 21/21/21 89/89/89 141/141/141
f 105/105/105 153/153/153 37/37/37
f 148/148/148 13/13/13 127/127/127
f 79/79/79 133/133/133 118/118/118
f 118/118/118 133/133/133 14/14/14
f 81/81/81 147/147/147 50/50/50
f 100/100/100 35/35/35 43/43/43
f 109/109/109 96/96/96 34/34/34
f 48/48/48 141/141/141 89/89/89
f 78/78/78 133/133/133 125/125/125
f 62/62/62 27/27/27 123/123/123
f 37/37/37 147/147/147 81/81/81
f 40/40/40 144/144/144 87/87/87
f 98/98/98 10/10/10 54/54/54
f 25/25/25 120/120/120 58/58/58
f 5/5/5 95/95/95 111/111/111
f 110/110/110 151/151/151 22/22/22
f 57/57/57 37/37/37 95/95/95
f 37/37/37 57/57/57 105/105/105
f 27/27/27 125/125/125 133/133/133
f 121/121/121 5/5/5 111/111/111
f 90/90/90 10/10/10 48/48/48
f 123/123/123 22/22/22 136/136/136
f 17/17/17 126/126/126 135/135/135
f 41/41/41 84/84/84 83/83/83
f 130/130/130 146/146/146 49/49/49
f 60/60/60 111/111/111 95/95/95
f 28/28/28 134/134/134 80/80/80
f 104/104/104 95/95/95 5/5/5
f 28/28/28 140/140/140 134/134/134
f 24/24/24 105/105/105 96/96/96
f 57/57/57 95/95/95 104/104/104
f 24/24/24 96/96/96 144/144/144
f 132/132/132 140/140/140 148/148/148
f 134/134/134 132/132/132 138/138/138
f 45/45/45 93/93/93 98/98/98
f 110/110/110 28/28/28 63/63/63
f 106/106/106 103/103/103 138/138/138
f 9/9/9 117/117/117 75/75/75
f 26/26/26 128/128/128 52/52/52
f 54/54/54 97/97/97 98/98/98
f 111/111/111 32/32/32 63/63/63
f 123/123/123 61/61/61 22/22/22
f 99/99/99 36/36/36 56/56/56
f 80/80/80 104/104/104 5/5/5
f 135/135/135 44/44/44 29/29/29
f 126/126/126 17/17/17 71/71/71
f 150/150/150 109/109/109 34/34/34
f 87/87/87 109/109/109 149/149/149
f 13/13/13 124/124/124 131/131/131
f 103/103/103 150/150/150 34/34/34
f 36/36/36 98/98/98 97/97/97
f 60/60/60 81/81/81 122/122/122
f 53/53/53 96/96/96 109/109/109
f 122/122/122 81/81/81 23/23/23
f 95/95/95 37/37/37 81/81/81
f 60/60/60 95/95/95 81/81/81
f 87/87/87 149/149/149 11/11/11
f 150/150/150 149/149/149 109/109/109
f 14/14/14 133/133/133 78/78/78
f 140/140/140 110/110/110 61/61/61
f 107/107/107 106/106/106 33/33/33
f 44/44/44 135/135/135 126/126/126
f 51/51/51 103/103/103 106/106/106
f 143/143/143 23/23/23 50/50/50
f 81/81/81 50/50/50 23/23/23
f 121/121/121 80/80/80 5/5/5
f 63/63/63 121/121/121 111/111/111
f 121/121/121 28/28/28 80/80/80
f 77/77/77 118/118/118 14/14/14
f 52/52/52 106/106/106 145/145/145
f 103/103/103 34/34/34 80/80/80
f 131/131/131 79/79/79 29/29/29
f 13/13/13 131/131/131 127/127/127
f 25/25/25 146/146/146 32/32/32
f 124/124/124 27/27/27 79/79/79
f 139/139/139 33/33/33 108/108/108
f 107/107/107 33/33/33 43/43/43
f 133/133/133 79/79/79 27/27/27
f 44/44/44 127/127/127 131/131/131
f 139/139/139 43/43/43 33/33/33
f 10/10/10 90/90/90 147/147/147
f 96/96/96 105/105/105 57/57/57
f 140/140/140 28/28/28 110/110/110
f 51/51/51 106/106/106 107/107/107
f 50/50/50 147/147/147 90/90/90
f 97/97/97 56/56/56 36/36/36
f 86/86/86 46/46/46 142/142/142
f 112/112/112 42/42/42 31/31/31
f 40/40/40 46/46/46 86/86/86
f 74/74/74 139/139/139 108/108/108
f 100/100/100 43/43/43 139/139/139
f 137/137/137 31/31/31 47/47/47
f 114/114/114 47/47/47 31/31/31
f 88/88/88 40/40/40 86/86/86
f 16/16/16 100/100/100 139/139/139
f 102/102/102 35/35/35 100/100/100
f 68/68/68 142/142/142 102/102/102
f 88/88/88 99/99/99 56/56/56
f 142/142/142 35/35/35 102/102/102
f 144/144/144 96/96/96 53/53/53
f 46/46/46 11/11/11 101/101/101
f 19/19/19 86/86/86 142/142/142
f 88/88/88 56/56/56 40/40/40
f 144/144/144 40/40/40 56/56/56
f 53/53/53 109/109/109 87/87/87
f 87/87/87 11/11/11 46/46/46
f 87/87/87 46/46/46 40/40/40
f 110/110/110 22/22/22 61/61/61
f 57/57/57 34/34/34 96/96/96
f 144/144/144 56/56/56 97/97/97
f 61/61/61 13/13/13 140/140/140
f 64/64/64 91/91/91 89/89/89
f 145/145/145 127/127/127 26/26/26
f 67/67/67 88/88/88 86/86/86
f 7/7/7 99/99/99 88/88/88
f 7/7/7 70/70/70 99/99/99
f 67/67/67 7/7/7 88/88/88
f 19/19/19 67/67/67 86/86/86
f 68/68/68 19/19/19 142/142/142
f 73/73/73 102/102/102 100/100/100
f 4/4/4 68/68/68 102/102/102
f 73/73/73 4/4/4 102/102/102
f 16/16/16 73/73/73 100/100/100
f 74/74/74 16/16/16 139/139/139
f 8/8/8 74/74/74 108/108/108
f 39/39/39 89/89/89 91/91/91
f 53/53/53 87/87/87 144/144/144
f 116/116/116 42/42/42 30/30/30
f 134/134/134 138/138/138 80/80/80
f 61/61/61 123/123/123 124/124/124
f 145/145/145 26/26/26 52/52/52
f 79/79/79 131/131/131 124/124/124
f 128/128/128 71/71/71 8/8/8
f 149/149/149 150/150/150 11/11/11
f 132/132/132 148/148/148 145/145/145
f 145/145/145 138/138/138 132/132/132
f 58/58/58 152/152/152 25/25/25
f 152/152/152 146/146/146 25/25/25
f 147/147/147 153/153/153 54/54/54
f 153/153/153 105/105/105 54/54/54
f 150/150/150 51/51/51 11/11/11
f 107/107/107 11/11/11 51/51/51
