# frame 000094 
# time 0.047500 
# name Cloth3D 
v -0.000000 0.000000 -0.000000
v 1.000000 0.000000 -0.000000
v -0.000000 1.000000 0.000000
v 1.000000 1.000000 0.000000
v 0.499916 0.500055 0.018534
v -0.000000 0.500000 0.000000
v 0.500000 1.000000 0.000000
v 1.000000 0.500000 0.000000
v 0.500000 -0.000000 0.000000
v 0.249742 0.749975 -0.009128
v 0.750281 0.750812 -0.001960
v 0.250253 0.249810 -0.011166
v 0.750564 0.250740 -0.009875
v 0.750000 0.000000 0.000000
v 0.250000 0.000000 0.000000
v 1.000000 0.750000 0.000000
v 1.000000 0.250000 0.000000
v 0.250000 1.000000 0.000000
v 0.750000 1.000000 0.000000
v 0.000000 0.250000 0.000000
v 0.000000 0.750000 -0.000000
v 0.499610 0.250417 0.000969
v 0.251360 0.500508 -0.004732
v 0.500187 0.750068 0.004140
v 0.350065 0.362571 0.018686
v 0.874861 0.374805 -0.015755
v 0.624915 0.125436 -0.013124
v 0.626439 0.373844 0.018534
v 0.875540 0.124507 -0.012894
v 0.374877 0.125011 -0.013713
v 0.124477 0.124476 -0.012673
v 0.373805 0.373443 0.018534
v 0.874626 0.624982 -0.014540
v 0.626064 0.626556 0.018534
v 0.875510 0.875555 -0.011775
v 0.375102 0.874726 -0.013996
v 0.373265 0.626286 0.018534
v 0.124418 0.875576 -0.013070
v 0.125061 0.625170 -0.013008
v 0.625282 0.874749 -0.017145
v 0.125236 0.375111 -0.011871
v 0.249771 0.124471 -0.011598
v 0.875224 0.750186 -0.013083
v 0.875689 0.249724 -0.013163
v 0.249858 0.875342 -0.012808
v 0.750285 0.875526 -0.013638
v 0.124632 0.249879 -0.011607
v 0.124460 0.750274 -0.012441
v 0.303190 0.714264 0.004355
v 0.248755 0.626171 0.005737
v 0.750401 0.625738 0.004604
v 0.874380 0.499820 -0.014407
v 0.358080 0.676442 0.018686
v 0.374396 0.749386 -0.002648
v 0.000000 0.375000 0.000000
v 0.500227 0.874398 -0.014851
v 0.499763 0.626390 0.018535
v 0.251281 0.374648 -0.008003
v 0.125581 0.500189 -0.012175
v 0.373604 0.499930 0.018535
v 0.625225 0.251306 -0.005896
v 0.499824 0.125540 -0.014745
v 0.500048 0.373640 0.018535
v 0.000000 0.625000 0.000000
v 0.000000 0.875000 0.000000
v 0.000000 0.125000 0.000000
v 0.625000 1.000000 0.000000
v 0.875000 1.000000 0.000000
v 0.125000 1.000000 0.000000
v 0.375000 1.000000 0.000000
v 1.000000 0.375000 0.000000
v 1.000000 0.125000 0.000000
v 1.000000 0.875000 0.000000
v 1.000000 0.625000 0.000000
v 0.375000 0.000000 0.000000
v 0.125000 0.000000 0.000000
v 0.875000 0.000000 0.000000
v 0.625000 0.000000 0.000000
v 0.750127 0.124852 -0.011105
v 0.626218 0.500144 0.018535
v 0.300950 0.565546 0.018679
v 0.061996 0.312567 -0.010992
v 0.188695 0.437636 -0.014260
v 0.187808 0.312452 -0.011112
v 0.062391 0.437611 -0.009490
v 0.687527 0.937872 -0.010165
v 0.687964 0.813065 -0.004578
v 0.562607 0.937311 -0.008401
v 0.061875 0.687533 -0.011256
v 0.187512 0.687825 -0.012705
v 0.062339 0.562534 -0.009578
v 0.187323 0.938349 -0.012539
v 0.187081 0.812894 -0.011112
v 0.061885 0.938127 -0.010694
v 0.436638 0.563183 0.018535
v 0.537999 0.719962 0.018679
v 0.437635 0.811268 -0.013320
v 0.312362 0.812064 -0.014519
v 0.437631 0.937422 -0.008561
v 0.938270 0.812671 -0.012176
v 0.812749 0.812946 -0.013277
v 0.938101 0.938096 -0.010638
v 0.706061 0.590747 0.018679
v 0.562996 0.563292 0.018535
v 0.420596 0.691545 0.018679
v 0.811321 0.562416 -0.010315
v 0.811914 0.687789 -0.012074
v 0.937421 0.562427 -0.008930
v 0.655591 0.748423 0.018679
v 0.561909 0.314538 0.018679
v 0.436871 0.436767 0.018535
v 0.187291 0.061594 -0.012688
v 0.061909 0.061914 -0.010570
v 0.187198 0.187155 -0.011070
v 0.312490 0.061926 -0.010620
v 0.312283 0.187396 -0.011535
v 0.437491 0.062446 -0.008783
v 0.812645 0.061763 -0.012087
v 0.938074 0.061905 -0.010528
v 0.334491 0.426972 0.018679
v 0.563158 0.436918 0.018535
v 0.316930 0.499526 0.018679
v 0.562320 0.188849 -0.014782
v 0.687664 0.188197 -0.012856
v 0.562402 0.062548 -0.008901
v 0.938110 0.312481 -0.011271
v 0.813666 0.312134 -0.002502
v 0.937550 0.437459 -0.009691
v 0.312578 0.937898 -0.010312
v 0.432723 0.283270 0.018679
v 0.812914 0.187355 -0.011858
v 0.751746 0.402000 0.018679
v 0.687423 0.062188 -0.010128
v 0.689579 0.437008 0.018535
v 0.938485 0.187253 -0.012895
v 0.437032 0.188509 -0.010921
v 0.061655 0.187326 -0.012586
v 0.727788 0.500983 0.018679
v 0.937788 0.687461 -0.009942
v 0.680800 0.343314 0.018679
v 0.061535 0.812740 -0.013085
v 0.812714 0.938400 -0.012427
v 0.188635 0.563027 -0.013614
v 0.563154 0.811481 -0.009371
v 0.812000 0.436891 -0.004524
v 0.372711 0.268629 0.018692
v 0.278632 0.657278 0.018692
v 0.761369 0.362721 0.018692
v 0.667278 0.751368 0.018692
v 0.689228 0.660299 0.018679
v 0.497385 0.298921 0.018679
v 0.297925 0.331301 -0.000574
v 0.310317 0.259893 0.003497
vt 0.000000 0.000000
vt 1.000000 0.000000
vt 0.000000 1.000000
vt 1.000000 1.000000
vt 0.500000 0.500000
vt 0.000000 0.500000
vt 0.500000 1.000000
vt 1.000000 0.500000
vt 0.500000 0.000000
vt 0.250000 0.750000
vt 0.750000 0.750000
vt 0.250000 0.250000
vt 0.750000 0.250000
vt 0.750000 0.000000
vt 0.250000 0.000000
vt 1.000000 0.750000
vt 1.000000 0.250000
vt 0.250000 1.000000
vt 0.750000 1.000000
vt 0.000000 0.250000
vt 0.000000 0.750000
vt 0.500000 0.250000
vt 0.250000 0.500000
vt 0.500000 0.750000
vt 0.351471 0.364202
vt 0.875000 0.375000
vt 0.625000 0.125000
vt 0.625000 0.375000
vt 0.875000 0.125000
vt 0.375000 0.125000
vt 0.125000 0.125000
vt 0.375000 0.375000
vt 0.875000 0.625000
vt 0.625000 0.625000
vt 0.875000 0.875000
vt 0.375000 0.875000
vt 0.375000 0.625000
vt 0.125000 0.875000
vt 0.125000 0.625000
vt 0.625000 0.875000
vt 0.125000 0.375000
vt 0.250000 0.125000
vt 0.875000 0.750000
vt 0.875000 0.250000
vt 0.250000 0.875000
vt 0.750000 0.875000
vt 0.125000 0.250000
vt 0.125000 0.750000
vt 0.304602 0.713891
vt 0.250000 0.625000
vt 0.750000 0.625000
vt 0.875000 0.500000
vt 0.359912 0.674693
vt 0.375000 0.750000
vt 0.000000 0.375000
vt 0.500000 0.875000
vt 0.500000 0.625000
vt 0.250000 0.375000
vt 0.125000 0.500000
vt 0.375000 0.500000
vt 0.625000 0.250000
vt 0.500000 0.125000
vt 0.500000 0.375000
vt 0.000000 0.625000
vt 0.000000 0.875000
vt 0.000000 0.125000
vt 0.625000 1.000000
vt 0.875000 1.000000
vt 0.125000 1.000000
vt 0.375000 1.000000
vt 1.000000 0.375000
vt 1.000000 0.125000
vt 1.000000 0.875000
vt 1.000000 0.625000
vt 0.375000 0.000000
vt 0.125000 0.000000
vt 0.875000 0.000000
vt 0.625000 0.000000
vt 0.750000 0.125000
vt 0.625000 0.500000
vt 0.303373 0.565036
vt 0.062500 0.312500
vt 0.187500 0.437500
vt 0.187500 0.312500
vt 0.062500 0.437500
vt 0.687500 0.937500
vt 0.687500 0.812500
vt 0.562500 0.937500
vt 0.062500 0.687500
vt 0.187500 0.687500
vt 0.062500 0.562500
vt 0.187500 0.937500
vt 0.187500 0.812500
vt 0.062500 0.937500
vt 0.437500 0.562500
vt 0.537897 0.717539
vt 0.437500 0.812500
vt 0.312500 0.812500
vt 0.437500 0.937500
vt 0.937500 0.812500
vt 0.812500 0.812500
vt 0.937500 0.937500
vt 0.704238 0.589711
vt 0.562500 0.562500
vt 0.421716 0.689593
vt 0.812500 0.562500
vt 0.812500 0.687500
vt 0.937500 0.562500
vt 0.654135 0.745124
vt 0.561199 0.316361
vt 0.437500 0.437500
vt 0.187500 0.062500
vt 0.062500 0.062500
vt 0.187500 0.187500
vt 0.312500 0.062500
vt 0.312500 0.187500
vt 0.437500 0.062500
vt 0.812500 0.062500
vt 0.937500 0.062500
vt 0.336058 0.427879
vt 0.562500 0.437500
vt 0.318927 0.499718
vt 0.562500 0.187500
vt 0.687500 0.187500
vt 0.562500 0.062500
vt 0.937500 0.312500
vt 0.812500 0.312500
vt 0.937500 0.437500
vt 0.312500 0.937500
vt 0.433357 0.285880
vt 0.812500 0.187500
vt 0.748748 0.402831
vt 0.687500 0.062500
vt 0.687500 0.437500
vt 0.937500 0.187500
vt 0.437500 0.187500
vt 0.062500 0.187500
vt 0.725580 0.500754
vt 0.937500 0.687500
vt 0.678717 0.344729
vt 0.062500 0.812500
vt 0.812500 0.937500
vt 0.187500 0.562500
vt 0.562500 0.812500
vt 0.812500 0.437500
vt 0.374049 0.271899
vt 0.282003 0.655528
vt 0.757922 0.364089
vt 0.665666 0.747886
vt 0.687618 0.658435
vt 0.497293 0.301106
vt 0.296906 0.332149
vt 0.311128 0.261404
vn 0.084724 0.084724 0.992796
vn -0.084456 0.084456 0.992842
vn 0.085798 -0.085798 0.992611
vn -0.085293 -0.085293 0.992698
vn 0.000000 0.000000 1.000000
vn 0.150736 0.000350 0.988574
vn -0.000772 -0.133510 0.991047
vn -0.146468 -0.002958 0.989211
vn 0.000468 0.139812 0.990178
vn -0.086249 0.136667 0.986855
vn 0.178894 0.096541 0.979120
vn -0.105847 -0.059536 0.992599
vn 0.018406 -0.126868 0.991749
vn 0.007616 0.174924 0.984552
vn -0.008094 0.183504 0.982986
vn -0.174015 0.008742 0.984704
vn -0.189839 -0.006498 0.981794
vn -0.008723 -0.179893 0.983647
vn 0.009064 -0.177433 0.984091
vn 0.185350 -0.006188 0.982653
vn 0.191492 0.007104 0.981468
vn 0.072864 -0.294817 0.952772
vn -0.252265 -0.053395 0.966184
vn -0.075340 0.301342 0.950535
vn -0.078862 -0.023276 0.996614
vn 0.052350 0.003945 0.998621
vn -0.008667 0.032498 0.999434
vn -0.000724 0.001706 0.999998
vn -0.000753 0.009411 0.999955
vn 0.001576 0.013346 0.999910
vn 0.001971 0.001411 0.999997
vn 0.004283 0.000970 0.999990
vn -0.014813 0.002795 0.999886
vn -0.001059 -0.000502 0.999999
vn -0.009244 -0.006683 0.999935
vn -0.001867 -0.035048 0.999384
vn 0.000782 -0.001564 0.999998
vn 0.002454 -0.004871 0.999985
vn 0.021592 0.002347 0.999764
vn -0.008508 0.015176 0.999849
vn 0.017483 0.004208 0.999838
vn -0.000634 -0.002880 0.999996
vn -0.012571 0.000646 0.999921
vn 0.037768 -0.014868 0.999176
vn 0.004402 -0.010224 0.999938
vn 0.009781 0.017538 0.999798
vn -0.006740 -0.004443 0.999967
vn -0.002157 0.000044 0.999998
vn -0.059276 0.251738 0.965978
vn -0.316687 -0.063567 0.946398
vn 0.253763 0.042938 0.966313
vn 0.013252 0.007094 0.999887
vn -0.029085 0.138216 0.989975
vn -0.034591 0.243592 0.969261
vn 0.161646 -0.005889 0.986831
vn -0.001290 -0.023737 0.999717
vn 0.000082 -0.000817 1.000000
vn -0.161990 -0.008313 0.986757
vn 0.033089 0.001322 0.999452
vn 0.001568 0.000519 0.999999
vn 0.031797 -0.204779 0.978292
vn 0.006298 0.031927 0.999470
vn -0.000157 0.001096 0.999999
vn 0.164498 0.006654 0.986355
vn 0.188030 -0.008932 0.982123
vn 0.182982 0.007433 0.983088
vn 0.007024 -0.145795 0.989290
vn -0.006584 -0.182404 0.983202
vn 0.006776 -0.183797 0.982941
vn -0.007036 -0.148912 0.988825
vn -0.164691 -0.006318 0.986325
vn -0.185288 0.008879 0.982644
vn -0.180362 -0.005548 0.983585
vn -0.148746 0.004108 0.988867
vn -0.007293 0.153251 0.988160
vn 0.007924 0.183940 0.982906
vn -0.005623 0.178895 0.983852
vn 0.004882 0.150355 0.988620
vn 0.001379 0.008135 0.999966
vn -0.000557 -0.000267 1.000000
vn -0.181826 -0.044855 0.982307
vn 0.091388 -0.005600 0.995800
vn -0.040675 0.000050 0.999172
vn -0.033275 0.000320 0.999446
vn 0.092988 -0.002226 0.995665
vn 0.001325 -0.119333 0.992853
vn 0.051936 0.216623 0.974873
vn 0.007748 -0.123339 0.992334
vn 0.098615 0.005876 0.995108
vn -0.120164 0.025964 0.992414
vn 0.097156 0.005053 0.995256
vn -0.001530 -0.100905 0.994895
vn -0.005825 0.011331 0.999919
vn 0.071745 -0.072842 0.994760
vn -0.000000 0.000000 1.000000
vn -0.062121 0.219271 0.973684
vn -0.021100 0.115867 0.993041
vn -0.007520 0.078057 0.996921
vn -0.002304 -0.111129 0.993803
vn -0.096800 -0.000913 0.995303
vn 0.030047 0.019000 0.999368
vn -0.068837 -0.068331 0.995285
vn 0.157561 0.032528 0.986973
vn 0.000000 0.000000 1.000000
vn -0.034693 0.162164 0.986154
vn 0.168477 0.026859 0.985339
vn 0.117004 0.015322 0.993013
vn -0.111688 0.000648 0.993743
vn -0.046121 0.193510 0.980014
vn 0.031632 -0.149361 0.988277
vn 0.000409 0.000000 1.000000
vn -0.002209 0.094643 0.995509
vn 0.070980 0.070735 0.994967
vn -0.005413 -0.006471 0.999964
vn -0.003792 0.097968 0.995182
vn -0.061089 -0.112286 0.991796
vn -0.001372 0.109433 0.993993
vn 0.004430 0.093650 0.995595
vn -0.070141 0.071784 0.994951
vn -0.119486 -0.023220 0.992564
vn 0.000000 -0.000000 1.000000
vn -0.152129 -0.036419 0.987689
vn 0.013345 -0.085967 0.996209
vn -0.002682 -0.030227 0.999539
vn -0.000381 0.107337 0.994223
vn -0.112491 -0.001352 0.993652
vn 0.166299 -0.077406 0.983033
vn -0.116804 -0.007333 0.993128
vn -0.005683 -0.103796 0.994582
vn 0.048623 -0.175945 0.983199
vn 0.011931 -0.019437 0.999740
vn 0.154464 0.037803 0.987275
vn 0.002435 0.093965 0.995573
vn -0.001544 0.000038 0.999999
vn -0.101723 0.001712 0.994811
vn 0.033841 -0.162852 0.986070
vn 0.094849 -0.001357 0.995491
vn 0.127546 0.026207 0.991486
vn -0.106726 0.003742 0.994281
vn 0.018344 -0.097538 0.995063
vn 0.099513 0.000380 0.995036
vn -0.002375 -0.099118 0.995073
vn -0.098145 -0.022525 0.994917
vn -0.035674 0.198811 0.979388
vn 0.245058 0.036716 0.968813
vn -0.087692 -0.139164 0.986379
vn -0.191960 0.066715 0.979133
vn 0.169666 -0.036485 0.984826
vn -0.013866 0.205642 0.978529
vn 0.123282 0.028177 0.991972
vn 0.048756 -0.203665 0.977826
vn -0.228143 -0.050654 0.972309
vn -0.220304 -0.093399 0.970950
f 1/1/1 113/113/113 66/66/66
f 31/31/31 137/137/137 113/113/113
f 11/11/11 101/101/101 87/87/87
f 112/112/112 31/31/31 113/113/113
f 138/138/138 145/145/145 106/106/106
f 106/106/106 52/52/52 33/33/33
f 124/124/124 13/13/13 61/61/61
f 84/84/84 41/41/41 47/47/47
f 137/137/137 66/66/66 113/113/113
f 75/75/75 115/115/115 15/15/15
f 12/12/12 152/152/152 84/84/84
f 12/12/12 114/114/114 116/116/116
f 101/101/101 35/35/35 46/46/46
f 76/76/76 113/113/113 1/1/1
f 76/76/76 112/112/112 113/113/113
f 15/15/15 112/112/112 76/76/76
f 115/115/115 112/112/112 15/15/15
f 30/30/30 115/115/115 117/117/117
f 108/108/108 33/33/33 52/52/52
f 75/75/75 117/117/117 115/115/115
f 115/115/115 30/30/30 42/42/42
f 42/42/42 116/116/116 114/114/114
f 51/51/51 150/150/150 103/103/103
f 116/116/116 30/30/30 136/136/136
f 122/122/122 23/23/23 120/120/120
f 54/54/54 98/98/98 49/49/49
f 42/42/42 112/112/112 115/115/115
f 58/58/58 84/84/84 152/152/152
f 48/48/48 90/90/90 93/93/93
f 60/60/60 120/120/120 111/111/111
f 53/53/53 147/147/147 37/37/37
f 46/46/46 87/87/87 101/101/101
f 101/101/101 43/43/43 35/35/35
f 104/104/104 80/80/80 34/34/34
f 10/10/10 49/49/49 98/98/98
f 83/83/83 58/58/58 23/23/23
f 49/49/49 53/53/53 54/54/54
f 117/117/117 62/62/62 30/30/30
f 132/132/132 134/134/134 140/140/140
f 62/62/62 123/123/123 136/136/136
f 77/77/77 2/2/2 119/119/119
f 77/77/77 119/119/119 118/118/118
f 71/71/71 128/128/128 126/126/126
f 142/142/142 46/46/46 35/35/35
f 63/63/63 28/28/28 121/121/121
f 119/119/119 29/29/29 118/118/118
f 148/148/148 140/140/140 13/13/13
f 125/125/125 27/27/27 62/62/62
f 135/135/135 72/72/72 17/17/17
f 136/136/136 30/30/30 62/62/62
f 58/58/58 120/120/120 23/23/23
f 60/60/60 122/122/122 120/120/120
f 127/127/127 44/44/44 26/26/26
f 120/120/120 25/25/25 32/32/32
f 146/146/146 116/116/116 136/136/136
f 144/144/144 96/96/96 109/109/109
f 120/120/120 32/32/32 111/111/111
f 22/22/22 130/130/130 136/136/136
f 130/130/130 63/63/63 32/32/32
f 127/127/127 145/145/145 148/148/148
f 82/82/82 47/47/47 41/41/41
f 45/45/45 98/98/98 36/36/36
f 82/82/82 137/137/137 47/47/47
f 10/10/10 93/93/93 90/90/90
f 26/26/26 126/126/126 128/128/128
f 62/62/62 117/117/117 125/125/125
f 20/20/20 137/137/137 82/82/82
f 38/38/38 92/92/92 94/94/94
f 20/20/20 66/66/66 137/137/137
f 55/55/55 20/20/20 82/82/82
f 69/69/69 94/94/94 92/92/92
f 143/143/143 90/90/90 39/39/39
f 8/8/8 108/108/108 128/128/128
f 141/141/141 48/48/48 38/38/38
f 24/24/24 144/144/144 97/97/97
f 65/65/65 141/141/141 94/94/94
f 114/114/114 31/31/31 42/42/42
f 38/38/38 94/94/94 141/141/141
f 92/92/92 18/18/18 69/69/69
f 97/97/97 54/54/54 24/24/24
f 151/151/151 110/110/110 63/63/63
f 11/11/11 107/107/107 101/101/101
f 29/29/29 119/119/119 135/135/135
f 143/143/143 59/59/59 83/83/83
f 104/104/104 34/34/34 57/57/57
f 43/43/43 101/101/101 107/107/107
f 129/129/129 45/45/45 36/36/36
f 27/27/27 124/124/124 123/123/123
f 85/85/85 41/41/41 59/59/59
f 78/78/78 125/125/125 9/9/9
f 70/70/70 129/129/129 99/99/99
f 83/83/83 59/59/59 41/41/41
f 129/129/129 70/70/70 18/18/18
f 36/36/36 99/99/99 129/129/129
f 93/93/93 38/38/38 48/48/48
f 38/38/38 45/45/45 92/92/92
f 52/52/52 128/128/128 108/108/108
f 65/65/65 94/94/94 3/3/3
f 72/72/72 135/135/135 119/119/119
f 94/94/94 69/69/69 3/3/3
f 39/39/39 90/90/90 48/48/48
f 21/21/21 141/141/141 65/65/65
f 18/18/18 92/92/92 129/129/129
f 6/6/6 91/91/91 64/64/64
f 105/105/105 24/24/24 54/54/54
f 93/93/93 45/45/45 38/38/38
f 89/89/89 39/39/39 48/48/48
f 50/50/50 90/90/90 143/143/143
f 45/45/45 129/129/129 92/92/92
f 9/9/9 125/125/125 117/117/117
f 64/64/64 89/89/89 21/21/21
f 55/55/55 82/82/82 85/85/85
f 6/6/6 85/85/85 91/91/91
f 59/59/59 91/91/91 85/85/85
f 41/41/41 85/85/85 82/82/82
f 6/6/6 55/55/55 85/85/85
f 23/23/23 143/143/143 83/83/83
f 59/59/59 39/39/39 91/91/91
f 151/151/151 130/130/130 22/22/22
f 143/143/143 39/39/39 59/59/59
f 118/118/118 29/29/29 79/79/79
f 29/29/29 44/44/44 131/131/131
f 32/32/32 146/146/146 130/130/130
f 58/58/58 83/83/83 84/84/84
f 119/119/119 2/2/2 72/72/72
f 44/44/44 126/126/126 26/26/26
f 130/130/130 151/151/151 63/63/63
f 138/138/138 103/103/103 80/80/80
f 10/10/10 98/98/98 93/93/93
f 21/21/21 89/89/89 141/141/141
f 105/105/105 53/53/53 37/37/37
f 148/148/148 13/13/13 127/127/127
f 79/79/79 133/133/133 118/118/118
f 118/118/118 133/133/133 14/14/14
f 81/81/81 147/147/147 50/50/50
f 100/100/100 35/35/35 43/43/43
f 109/109/109 96/96/96 34/34/34
f 48/48/48 141/141/141 89/89/89
f 78/78/78 133/133/133 125/125/125
f 62/62/62 27/27/27 123/123/123
f 37/37/37 147/147/147 81/81/81
f 40/40/40 144/144/144 87/87/87
f 49/49/49 10/10/10 147/147/147
f 25/25/25 120/120/120 58/58/58
f 5/5/5 95/95/95 111/111/111
f 110/110/110 151/151/151 22/22/22
f 57/57/57 37/37/37 95/95/95
f 37/37/37 57/57/57 105/105/105
f 27/27/27 125/125/125 133/133/133
f 121/121/121 5/5/5 111/111/111
f 130/130/130 146/146/146 136/136/136
f 123/123/123 22/22/22 136/136/136
f 17/17/17 126/126/126 135/135/135
f 41/41/41 84/84/84 83/83/83
f 53/53/53 49/49/49 147/147/147
f 60/60/60 111/111/111 95/95/95
f 28/28/28 134/134/134 80/80/80
f 104/104/104 95/95/95 5/5/5
f 28/28/28 140/140/140 134/134/134
f 24/24/24 105/105/105 96/96/96
f 57/57/57 95/95/95 104/104/104
f 24/24/24 96/96/96 144/144/144
f 132/132/132 140/140/140 148/148/148
f 134/134/134 132/132/132 138/138/138
f 45/45/45 93/93/93 98/98/98
f 110/110/110 28/28/28 63/63/63
f 106/106/106 103/103/103 138/138/138
f 9/9/9 117/117/117 75/75/75
f 26/26/26 128/128/128 52/52/52
f 54/54/54 97/97/97 98/98/98
f 111/111/111 32/32/32 63/63/63
f 123/123/123 61/61/61 22/22/22
f 99/99/99 36/36/36 56/56/56
f 80/80/80 104/104/104 5/5/5
f 135/135/135 44/44/44 29/29/29
f 126/126/126 17/17/17 71/71/71
f 150/150/150 109/109/109 34/34/34
f 87/87/87 109/109/109 149/149/149
f 13/13/13 124/124/124 131/131/131
f 103/103/103 150/150/150 34/34/34
f 36/36/36 98/98/98 97/97/97
f 60/60/60 81/81/81 122/122/122
f 12/12/12 84/84/84 114/114/114
f 122/122/122 81/81/81 23/23/23
f 107/107/107 11/11/11 51/51/51
f 150/150/150 51/51/51 11/11/11
f 87/87/87 149/149/149 11/11/11
f 150/150/150 149/149/149 109/109/109
f 14/14/14 133/133/133 78/78/78
f 140/140/140 110/110/110 61/61/61
f 107/107/107 106/106/106 33/33/33
f 44/44/44 135/135/135 126/126/126
f 51/51/51 103/103/103 106/106/106
f 143/143/143 23/23/23 50/50/50
f 81/81/81 50/50/50 23/23/23
f 121/121/121 80/80/80 5/5/5
f 63/63/63 121/121/121 111/111/111
f 121/121/121 28/28/28 80/80/80
f 77/77/77 118/118/118 14/14/14
f 52/52/52 106/106/106 145/145/145
f 103/103/103 34/34/34 80/80/80
f 131/131/131 79/79/79 29/29/29
f 13/13/13 131/131/131 127/127/127
f 25/25/25 146/146/146 32/32/32
f 124/124/124 27/27/27 79/79/79
f 139/139/139 33/33/33 108/108/108
f 107/107/107 33/33/33 43/43/43
f 133/133/133 79/79/79 27/27/27
f 44/44/44 127/127/127 131/131/131
f 139/139/139 43/43/43 33/33/33
f 10/10/10 90/90/90 147/147/147
f 96/96/96 105/105/105 57/57/57
f 140/140/140 28/28/28 110/110/110
f 51/51/51 106/106/106 107/107/107
f 50/50/50 147/147/147 90/90/90
f 97/97/97 56/56/56 36/36/36
f 86/86/86 46/46/46 142/142/142
f 112/112/112 42/42/42 31/31/31
f 40/40/40 46/46/46 86/86/86
f 74/74/74 139/139/139 108/108/108
f 100/100/100 43/43/43 139/139/139
f 137/137/137 31/31/31 47/47/47
f 114/114/114 47/47/47 31/31/31
f 88/88/88 40/40/40 86/86/86
f 16/16/16 100/100/100 139/139/139
f 102/102/102 35/35/35 100/100/100
f 68/68/68 142/142/142 102/102/102
f 88/88/88 99/99/99 56/56/56
f 142/142/142 35/35/35 102/102/102
f 53/53/53 105/105/105 54/54/54
f 95/95/95 37/37/37 60/60/60
f 19/19/19 86/86/86 142/142/142
f 88/88/88 56/56/56 40/40/40
f 144/144/144 40/40/40 56/56/56
f 47/47/47 114/114/114 84/84/84
f 81/81/81 60/60/60 37/37/37
f 87/87/87 46/46/46 40/40/40
f 110/110/110 22/22/22 61/61/61
f 57/57/57 34/34/34 96/96/96
f 144/144/144 56/56/56 97/97/97
f 61/61/61 13/13/13 140/140/140
f 64/64/64 91/91/91 89/89/89
f 145/145/145 127/127/127 26/26/26
f 67/67/67 88/88/88 86/86/86
f 7/7/7 99/99/99 88/88/88
f 7/7/7 70/70/70 99/99/99
f 67/67/67 7/7/7 88/88/88
f 19/19/19 67/67/67 86/86/86
f 68/68/68 19/19/19 142/142/142
f 73/73/73 102/102/102 100/100/100
f 4/4/4 68/68/68 102/102/102
f 73/73/73 4/4/4 102/102/102
f 16/16/16 73/73/73 100/100/100
f 74/74/74 16/16/16 139/139/139
f 8/8/8 74/74/74 108/108/108
f 39/39/39 89/89/89 91/91/91
f 144/144/144 109/109/109 87/87/87
f 116/116/116 42/42/42 30/30/30
f 134/134/134 138/138/138 80/80/80
f 61/61/61 123/123/123 124/124/124
f 145/145/145 26/26/26 52/52/52
f 79/79/79 131/131/131 124/124/124
f 128/128/128 71/71/71 8/8/8
f 149/149/149 150/150/150 11/11/11
f 132/132/132 148/148/148 145/145/145
f 145/145/145 138/138/138 132/132/132
f 58/58/58 152/152/152 25/25/25
f 152/152/152 146/146/146 25/25/25
f 12/12/12 153/153/153 152/152/152
f 153/153/153 146/146/146 152/152/152
f 146/146/146 153/153/153 116/116/116
f 153/153/153 12/12/12 116/116/116
