# frame 000028 
# time 0.014500 
# name Cloth3D 
v -0.000000 0.000000 -0.000000
v 1.000000 0.000000 -0.000000
v -0.000000 1.000000 0.000000
v 1.000000 1.000000 0.000000
v 0.500004 0.499995 0.002034
v -0.000000 0.500000 0.000000
v 0.500000 1.000000 0.000000
v 1.000000 0.500000 0.000000
v 0.500000 -0.000000 0.000000
v 0.250016 0.749998 -0.001515
v 0.749976 0.749980 -0.001258
v 0.250013 0.250006 -0.001513
v 0.749997 0.250032 -0.001447
v 0.750000 0.000000 0.000000
v 0.250000 0.000000 0.000000
v 1.000000 0.750000 0.000000
v 1.000000 0.250000 0.000000
v 0.250000 1.000000 0.000000
v 0.750000 1.000000 0.000000
v 0.000000 0.250000 0.000000
v 0.000000 0.750000 -0.000000
v 0.500006 0.250036 -0.002568
v 0.250033 0.500003 -0.001981
v 0.500018 0.749910 -0.002332
v 0.749875 0.500003 -0.002105
v 0.874989 0.375006 -0.000920
v 0.624999 0.125010 -0.000936
v 0.625001 0.374987 0.002034
v 0.875001 0.124996 -0.001134
v 0.375004 0.125005 -0.001016
v 0.124995 0.124995 -0.001099
v 0.374989 0.374979 0.002034
v 0.874990 0.624993 -0.000940
v 0.625005 0.625005 0.002034
v 0.875004 0.875004 -0.001076
v 0.375007 0.874990 -0.000867
v 0.374982 0.625010 0.002034
v 0.124998 0.875002 -0.001146
v 0.125014 0.625000 -0.001080
v 0.624994 0.874990 -0.000832
v 0.125009 0.375003 -0.001037
v 0.250006 0.125002 -0.001034
v 0.874997 0.749994 -0.000944
v 0.874995 0.250005 -0.000917
v 0.250005 0.874998 -0.000974
v 0.749996 0.874997 -0.000944
v 0.125001 0.250004 -0.001051
v 0.125006 0.749998 -0.000972
v 0.374986 0.250067 -0.002398
v 0.250048 0.624999 -0.002109
v 0.749913 0.624989 -0.001930
v 0.874982 0.500001 -0.000873
v 0.625016 0.749891 -0.001920
v 0.375005 0.749935 -0.001971
v 0.000000 0.375000 0.000000
v 0.500001 0.874986 -0.001047
v 0.500001 0.625010 0.002035
v 0.250033 0.375005 -0.001938
v 0.125012 0.500002 -0.001173
v 0.374985 0.499999 0.002035
v 0.624988 0.250043 -0.002078
v 0.500001 0.125008 -0.001073
v 0.500007 0.374961 0.002035
v 0.000000 0.625000 0.000000
v 0.000000 0.875000 0.000000
v 0.000000 0.125000 0.000000
v 0.625000 1.000000 0.000000
v 0.875000 1.000000 0.000000
v 0.125000 1.000000 0.000000
v 0.375000 1.000000 0.000000
v 1.000000 0.375000 0.000000
v 1.000000 0.125000 0.000000
v 1.000000 0.875000 0.000000
v 1.000000 0.625000 0.000000
v 0.375000 0.000000 0.000000
v 0.125000 0.000000 0.000000
v 0.875000 0.000000 0.000000
v 0.625000 0.000000 0.000000
v 0.749994 0.125004 -0.001029
v 0.625012 0.500001 0.002035
v 0.315419 0.566964 0.002179
v 0.062492 0.312503 -0.001576
v 0.187525 0.437506 -0.000806
v 0.187517 0.312508 -0.000753
v 0.062493 0.437497 -0.001594
v 0.687499 0.937503 -0.001609
v 0.687491 0.812486 -0.001741
v 0.562499 0.937501 -0.001585
v 0.062496 0.687501 -0.001606
v 0.187519 0.687494 -0.001385
v 0.062495 0.562504 -0.001536
v 0.187501 0.937508 -0.001589
v 0.187507 0.812498 -0.000979
v 0.062493 0.937507 -0.001828
v 0.437504 0.562493 0.002035
v 0.538819 0.711810 0.002179
v 0.437510 0.812475 -0.001162
v 0.312515 0.812492 -0.001540
v 0.437497 0.937501 -0.001576
v 0.937508 0.812501 -0.001555
v 0.812493 0.812493 -0.001055
v 0.937512 0.937512 -0.001801
v 0.714541 0.591265 0.002179
v 0.562497 0.562491 0.002035
v 0.419681 0.703157 0.002179
v 0.812472 0.562493 -0.001120
v 0.812485 0.687484 -0.001648
v 0.937499 0.562496 -0.001599
v 0.657986 0.720465 0.002179
v 0.561707 0.312586 0.002179
v 0.437507 0.437494 0.002035
v 0.187499 0.062491 -0.001561
v 0.062488 0.062488 -0.001796
v 0.187505 0.187504 -0.000961
v 0.312501 0.062495 -0.001533
v 0.312512 0.187512 -0.001240
v 0.437504 0.062497 -0.001574
v 0.812501 0.062490 -0.001534
v 0.937511 0.062492 -0.001811
v 0.325631 0.426359 0.002179
v 0.562494 0.437494 0.002035
v 0.320283 0.500004 0.002179
v 0.562499 0.187502 -0.001187
v 0.687492 0.187525 -0.000800
v 0.562500 0.062499 -0.001617
v 0.937502 0.312503 -0.001659
v 0.812493 0.312516 -0.001975
v 0.937498 0.437500 -0.001670
v 0.312503 0.937504 -0.001658
v 0.430667 0.303069 0.002179
v 0.812494 0.187509 -0.001006
v 0.728454 0.399709 0.002179
v 0.687496 0.062495 -0.001635
v 0.687543 0.437516 0.002034
v 0.937506 0.187501 -0.001606
v 0.437500 0.187510 -0.001051
v 0.062490 0.187498 -0.001553
v 0.721167 0.500040 0.002179
v 0.937504 0.687499 -0.001588
v 0.682302 0.321344 0.002179
v 0.062493 0.812499 -0.001590
v 0.812501 0.937507 -0.001552
v 0.187530 0.562500 -0.000710
v 0.562499 0.812473 -0.001208
v 0.812478 0.437516 -0.001422
v 0.335066 0.296100 0.002192
v 0.306100 0.694932 0.002192
v 0.733901 0.325067 0.002192
v 0.704932 0.723900 0.002192
v 0.709419 0.661789 0.002179
v 0.496195 0.307828 0.002179
vt 0.000000 0.000000
vt 1.000000 0.000000
vt 0.000000 1.000000
vt 1.000000 1.000000
vt 0.500000 0.500000
vt 0.000000 0.500000
vt 0.500000 1.000000
vt 1.000000 0.500000
vt 0.500000 0.000000
vt 0.250000 0.750000
vt 0.750000 0.750000
vt 0.250000 0.250000
vt 0.750000 0.250000
vt 0.750000 0.000000
vt 0.250000 0.000000
vt 1.000000 0.750000
vt 1.000000 0.250000
vt 0.250000 1.000000
vt 0.750000 1.000000
vt 0.000000 0.250000
vt 0.000000 0.750000
vt 0.500000 0.250000
vt 0.250000 0.500000
vt 0.500000 0.750000
vt 0.750000 0.500000
vt 0.875000 0.375000
vt 0.625000 0.125000
vt 0.625000 0.375000
vt 0.875000 0.125000
vt 0.375000 0.125000
vt 0.125000 0.125000
vt 0.375000 0.375000
vt 0.875000 0.625000
vt 0.625000 0.625000
vt 0.875000 0.875000
vt 0.375000 0.875000
vt 0.375000 0.625000
vt 0.125000 0.875000
vt 0.125000 0.625000
vt 0.625000 0.875000
vt 0.125000 0.375000
vt 0.250000 0.125000
vt 0.875000 0.750000
vt 0.875000 0.250000
vt 0.250000 0.875000
vt 0.750000 0.875000
vt 0.125000 0.250000
vt 0.125000 0.750000
vt 0.375000 0.250000
vt 0.250000 0.625000
vt 0.750000 0.625000
vt 0.875000 0.500000
vt 0.625000 0.750000
vt 0.375000 0.750000
vt 0.000000 0.375000
vt 0.500000 0.875000
vt 0.500000 0.625000
vt 0.250000 0.375000
vt 0.125000 0.500000
vt 0.375000 0.500000
vt 0.625000 0.250000
vt 0.500000 0.125000
vt 0.500000 0.375000
vt 0.000000 0.625000
vt 0.000000 0.875000
vt 0.000000 0.125000
vt 0.625000 1.000000
vt 0.875000 1.000000
vt 0.125000 1.000000
vt 0.375000 1.000000
vt 1.000000 0.375000
vt 1.000000 0.125000
vt 1.000000 0.875000
vt 1.000000 0.625000
vt 0.375000 0.000000
vt 0.125000 0.000000
vt 0.875000 0.000000
vt 0.625000 0.000000
vt 0.750000 0.125000
vt 0.625000 0.500000
vt 0.315469 0.566968
vt 0.062500 0.312500
vt 0.187500 0.437500
vt 0.187500 0.312500
vt 0.062500 0.437500
vt 0.687500 0.937500
vt 0.687500 0.812500
vt 0.562500 0.937500
vt 0.062500 0.687500
vt 0.187500 0.687500
vt 0.062500 0.562500
vt 0.187500 0.937500
vt 0.187500 0.812500
vt 0.062500 0.937500
vt 0.437500 0.562500
vt 0.538840 0.711744
vt 0.437500 0.812500
vt 0.312500 0.812500
vt 0.437500 0.937500
vt 0.937500 0.812500
vt 0.812500 0.812500
vt 0.937500 0.937500
vt 0.714490 0.591249
vt 0.562500 0.562500
vt 0.419686 0.703106
vt 0.812500 0.562500
vt 0.812500 0.687500
vt 0.937500 0.562500
vt 0.657991 0.720398
vt 0.561709 0.312639
vt 0.437500 0.437500
vt 0.187500 0.062500
vt 0.062500 0.062500
vt 0.187500 0.187500
vt 0.312500 0.062500
vt 0.312500 0.187500
vt 0.437500 0.062500
vt 0.812500 0.062500
vt 0.937500 0.062500
vt 0.325670 0.426356
vt 0.562500 0.437500
vt 0.320327 0.500004
vt 0.562500 0.187500
vt 0.687500 0.187500
vt 0.562500 0.062500
vt 0.937500 0.312500
vt 0.812500 0.312500
vt 0.937500 0.437500
vt 0.312500 0.937500
vt 0.430663 0.303132
vt 0.812500 0.187500
vt 0.728414 0.399696
vt 0.687500 0.062500
vt 0.687500 0.437500
vt 0.937500 0.187500
vt 0.437500 0.187500
vt 0.062500 0.187500
vt 0.721035 0.500020
vt 0.937500 0.687500
vt 0.682277 0.321352
vt 0.062500 0.812500
vt 0.812500 0.937500
vt 0.187500 0.562500
vt 0.562500 0.812500
vt 0.812500 0.437500
vt 0.335072 0.296146
vt 0.306151 0.694908
vt 0.733839 0.325064
vt 0.704903 0.723853
vt 0.709380 0.661787
vt 0.496184 0.307914
vn 0.013453 0.013453 0.999819
vn -0.013555 0.013555 0.999816
vn 0.013664 -0.013664 0.999813
vn -0.013487 -0.013487 0.999818
vn 0.000000 0.000000 1.000000
vn 0.023419 -0.000209 0.999726
vn 0.000036 -0.023645 0.999720
vn -0.015488 -0.000249 0.999880
vn 0.000147 0.015926 0.999873
vn -0.014000 0.005379 0.999888
vn 0.025714 0.026259 0.999324
vn -0.008786 -0.003157 0.999956
vn 0.008041 -0.014183 0.999867
vn -0.000358 0.023703 0.999719
vn -0.000099 0.023171 0.999732
vn -0.023521 -0.000116 0.999723
vn -0.015626 0.000192 0.999878
vn 0.000250 -0.015768 0.999876
vn -0.000203 -0.023651 0.999720
vn 0.023409 0.000080 0.999726
vn 0.015576 -0.000060 0.999879
vn 0.002355 -0.036700 0.999324
vn -0.021626 -0.001210 0.999765
vn -0.014600 0.044253 0.998914
vn 0.092256 0.005394 0.995721
vn -0.004558 -0.001058 0.999989
vn 0.000151 0.001453 0.999999
vn -0.000526 0.001265 0.999999
vn -0.001009 -0.003807 0.999992
vn -0.000537 -0.003115 0.999995
vn -0.003094 -0.003154 0.999990
vn 0.001291 0.000343 0.999999
vn 0.001699 -0.000602 0.999998
vn -0.000716 -0.000594 1.000000
vn 0.002817 0.002795 0.999992
vn 0.000826 -0.002575 0.999996
vn 0.000957 -0.000359 0.999999
vn 0.000240 -0.000239 1.000000
vn -0.000059 0.000974 1.000000
vn 0.000814 0.001403 0.999999
vn -0.001965 0.000732 0.999998
vn 0.000897 -0.003386 0.999994
vn 0.002657 0.000222 0.999996
vn -0.002085 0.001447 0.999997
vn 0.000626 -0.001408 0.999999
vn 0.000203 0.002554 0.999997
vn -0.003720 -0.001141 0.999992
vn 0.001228 -0.000641 0.999999
vn 0.006697 -0.039809 0.999185
vn -0.023357 -0.000659 0.999727
vn 0.059943 0.006881 0.998178
vn -0.002471 0.001035 0.999996
vn -0.017985 0.057601 0.998178
vn -0.008543 0.035980 0.999316
vn 0.015725 0.000067 0.999876
vn -0.001479 0.003032 0.999994
vn 0.000023 -0.000790 1.000000
vn -0.012557 0.000312 0.999921
vn -0.005966 -0.000582 0.999982
vn 0.001634 0.000089 0.999999
vn 0.008281 -0.022671 0.999709
vn -0.000826 0.000361 1.000000
vn -0.000056 0.001248 0.999999
vn 0.015774 0.000246 0.999876
vn 0.017038 0.000895 0.999854
vn 0.025076 -0.000913 0.999685
vn 0.000085 -0.023886 0.999715
vn 0.000931 -0.025108 0.999684
vn -0.000896 -0.017037 0.999854
vn -0.000291 -0.015341 0.999882
vn -0.015869 0.000041 0.999874
vn -0.017004 -0.000782 0.999855
vn -0.025129 0.000921 0.999684
vn -0.023832 -0.000040 0.999716
vn 0.000143 0.023259 0.999729
vn -0.000884 0.025135 0.999684
vn 0.001029 0.025046 0.999686
vn 0.000071 0.015653 0.999878
vn 0.000380 -0.003862 0.999992
vn -0.000561 -0.000261 1.000000
vn -0.027204 -0.000939 0.999629
vn 0.007803 -0.003946 0.999962
vn 0.005747 0.000251 0.999983
vn 0.004889 -0.001078 0.999987
vn 0.008626 0.004170 0.999954
vn 0.000142 -0.006682 0.999978
vn -0.001700 0.010096 0.999948
vn -0.000329 -0.007059 0.999975
vn 0.007667 -0.000385 0.999971
vn 0.005653 -0.000554 0.999984
vn 0.008398 -0.004016 0.999957
vn -0.000623 -0.007917 0.999968
vn 0.001329 -0.001320 0.999998
vn 0.004270 -0.004270 0.999982
vn 0.000302 0.000000 1.000000
vn -0.012809 0.039278 0.999146
vn 0.000202 0.003934 0.999992
vn 0.001291 0.002375 0.999996
vn 0.004612 -0.008695 0.999952
vn -0.008667 0.000646 0.999962
vn 0.000452 0.000446 1.000000
vn -0.008294 -0.008299 0.999931
vn 0.045809 0.012112 0.998877
vn 0.000000 0.000000 1.000000
vn -0.005593 0.030007 0.999534
vn 0.005461 -0.000614 0.999985
vn 0.006742 -0.002624 0.999974
vn -0.008478 0.004447 0.999954
vn -0.015289 0.037045 0.999197
vn 0.000511 -0.023348 0.999727
vn 0.000348 -0.000000 1.000000
vn -0.000613 0.008715 0.999962
vn 0.008341 0.008327 0.999931
vn 0.000098 0.000802 1.000000
vn -0.000009 0.009009 0.999959
vn 0.001841 -0.005248 0.999985
vn -0.003715 0.008808 0.999954
vn 0.000528 0.008797 0.999961
vn -0.008380 0.004233 0.999956
vn -0.020535 -0.000883 0.999789
vn 0.000000 -0.000000 1.000000
vn -0.021801 -0.001529 0.999761
vn 0.000272 -0.000671 1.000000
vn -0.001934 0.004715 0.999987
vn -0.000492 0.007516 0.999972
vn -0.006897 0.000010 0.999976
vn 0.011975 -0.004969 0.999916
vn -0.006733 -0.000173 0.999977
vn -0.000385 -0.006907 0.999976
vn 0.000541 -0.028581 0.999591
vn -0.001517 -0.000007 0.999999
vn 0.016735 0.004829 0.999848
vn 0.004339 0.008246 0.999957
vn -0.002114 0.000110 0.999998
vn -0.007677 -0.000788 0.999970
vn 0.000320 -0.002488 0.999997
vn 0.008730 -0.000508 0.999962
vn 0.091789 0.006260 0.995759
vn -0.007079 -0.000075 0.999975
vn -0.000131 -0.021739 0.999764
vn 0.007912 0.000628 0.999969
vn 0.000608 -0.008662 0.999962
vn 0.006593 0.001101 0.999978
vn -0.000526 0.003694 0.999993
vn 0.005903 0.006510 0.999961
vn -0.000155 -0.028635 0.999590
vn -0.023928 0.014627 0.999607
vn 0.017944 -0.018907 0.999660
vn 0.017189 0.023247 0.999582
vn 0.032788 -0.006735 0.999440
vn 0.002696 -0.038450 0.999257
f 1/1/1 113/113/113 66/66/66
f 31/31/31 137/137/137 113/113/113
f 47/47/47 114/114/114 12/12/12
f 112/112/112 31/31/31 113/113/113
f 90/90/90 50/50/50 10/10/10
f 112/112/112 114/114/114 31/31/31
f 124/124/124 13/13/13 61/61/61
f 84/84/84 41/41/41 47/47/47
f 137/137/137 66/66/66 113/113/113
f 75/75/75 115/115/115 15/15/15
f 116/116/116 115/115/115 30/30/30
f 12/12/12 114/114/114 116/116/116
f 114/114/114 137/137/137 31/31/31
f 76/76/76 113/113/113 1/1/1
f 76/76/76 112/112/112 113/113/113
f 15/15/15 112/112/112 76/76/76
f 115/115/115 112/112/112 15/15/15
f 30/30/30 115/115/115 117/117/117
f 42/42/42 114/114/114 112/112/112
f 75/75/75 117/117/117 115/115/115
f 136/136/136 30/30/30 117/117/117
f 42/42/42 116/116/116 114/114/114
f 51/51/51 150/150/150 103/103/103
f 116/116/116 30/30/30 136/136/136
f 122/122/122 23/23/23 120/120/120
f 49/49/49 146/146/146 116/116/116
f 42/42/42 112/112/112 115/115/115
f 42/42/42 115/115/115 116/116/116
f 146/146/146 12/12/12 116/116/116
f 60/60/60 120/120/120 111/111/111
f 13/13/13 44/44/44 127/127/127
f 84/84/84 47/47/47 12/12/12
f 131/131/131 79/79/79 118/118/118
f 104/104/104 80/80/80 34/34/34
f 130/130/130 49/49/49 136/136/136
f 83/83/83 58/58/58 23/23/23
f 49/49/49 116/116/116 136/136/136
f 24/24/24 97/97/97 105/105/105
f 127/127/127 145/145/145 132/132/132
f 62/62/62 123/123/123 136/136/136
f 77/77/77 2/2/2 119/119/119
f 77/77/77 119/119/119 118/118/118
f 58/58/58 146/146/146 120/120/120
f 47/47/47 137/137/137 114/114/114
f 63/63/63 28/28/28 121/121/121
f 119/119/119 29/29/29 118/118/118
f 148/148/148 140/140/140 13/13/13
f 125/125/125 27/27/27 62/62/62
f 135/135/135 72/72/72 17/17/17
f 105/105/105 97/97/97 54/54/54
f 58/58/58 120/120/120 23/23/23
f 60/60/60 122/122/122 120/120/120
f 127/127/127 44/44/44 26/26/26
f 135/135/135 17/17/17 44/44/44
f 28/28/28 132/132/132 134/134/134
f 146/146/146 58/58/58 12/12/12
f 120/120/120 32/32/32 111/111/111
f 22/22/22 130/130/130 136/136/136
f 130/130/130 63/63/63 32/32/32
f 132/132/132 25/25/25 138/138/138
f 82/82/82 47/47/47 41/41/41
f 45/45/45 98/98/98 36/36/36
f 82/82/82 137/137/137 47/47/47
f 84/84/84 12/12/12 58/58/58
f 120/120/120 146/146/146 32/32/32
f 85/85/85 41/41/41 83/83/83
f 20/20/20 137/137/137 82/82/82
f 55/55/55 82/82/82 41/41/41
f 20/20/20 66/66/66 137/137/137
f 55/55/55 20/20/20 82/82/82
f 85/85/85 55/55/55 41/41/41
f 143/143/143 90/90/90 39/39/39
f 141/141/141 38/38/38 65/65/65
f 141/141/141 48/48/48 38/38/38
f 24/24/24 144/144/144 97/97/97
f 129/129/129 36/36/36 70/70/70
f 36/36/36 97/97/97 99/99/99
f 36/36/36 99/99/99 70/70/70
f 92/92/92 18/18/18 69/69/69
f 45/45/45 10/10/10 98/98/98
f 151/151/151 110/110/110 63/63/63
f 98/98/98 54/54/54 36/36/36
f 38/38/38 92/92/92 69/69/69
f 143/143/143 59/59/59 83/83/83
f 104/104/104 34/34/34 57/57/57
f 54/54/54 97/97/97 36/36/36
f 129/129/129 45/45/45 36/36/36
f 147/147/147 98/98/98 10/10/10
f 90/90/90 10/10/10 48/48/48
f 78/78/78 125/125/125 9/9/9
f 92/92/92 45/45/45 18/18/18
f 93/93/93 48/48/48 10/10/10
f 129/129/129 70/70/70 18/18/18
f 129/129/129 18/18/18 45/45/45
f 93/93/93 38/38/38 48/48/48
f 38/38/38 45/45/45 92/92/92
f 65/65/65 38/38/38 94/94/94
f 65/65/65 94/94/94 3/3/3
f 94/94/94 38/38/38 69/69/69
f 94/94/94 69/69/69 3/3/3
f 39/39/39 90/90/90 48/48/48
f 21/21/21 141/141/141 65/65/65
f 21/21/21 48/48/48 141/141/141
f 6/6/6 91/91/91 64/64/64
f 93/93/93 10/10/10 45/45/45
f 93/93/93 45/45/45 38/38/38
f 89/89/89 39/39/39 48/48/48
f 50/50/50 90/90/90 143/143/143
f 89/89/89 48/48/48 21/21/21
f 59/59/59 85/85/85 83/83/83
f 64/64/64 89/89/89 21/21/21
f 64/64/64 39/39/39 89/89/89
f 6/6/6 85/85/85 91/91/91
f 59/59/59 91/91/91 85/85/85
f 91/91/91 39/39/39 64/64/64
f 6/6/6 55/55/55 85/85/85
f 23/23/23 143/143/143 83/83/83
f 59/59/59 39/39/39 91/91/91
f 151/151/151 130/130/130 22/22/22
f 143/143/143 39/39/39 59/59/59
f 145/145/145 52/52/52 25/25/25
f 29/29/29 44/44/44 131/131/131
f 32/32/32 146/146/146 130/130/130
f 58/58/58 83/83/83 84/84/84
f 119/119/119 2/2/2 72/72/72
f 44/44/44 126/126/126 26/26/26
f 130/130/130 151/151/151 63/63/63
f 138/138/138 103/103/103 80/80/80
f 133/133/133 124/124/124 27/27/27
f 78/78/78 27/27/27 125/125/125
f 131/131/131 44/44/44 13/13/13
f 148/148/148 13/13/13 127/127/127
f 79/79/79 133/133/133 118/118/118
f 118/118/118 133/133/133 14/14/14
f 81/81/81 147/147/147 50/50/50
f 29/29/29 131/131/131 118/118/118
f 109/109/109 96/96/96 34/34/34
f 133/133/133 27/27/27 78/78/78
f 119/119/119 72/72/72 29/29/29
f 62/62/62 27/27/27 123/123/123
f 37/37/37 147/147/147 81/81/81
f 131/131/131 13/13/13 79/79/79
f 25/25/25 103/103/103 138/138/138
f 106/106/106 103/103/103 25/25/25
f 5/5/5 95/95/95 111/111/111
f 110/110/110 151/151/151 22/22/22
f 57/57/57 37/37/37 95/95/95
f 37/37/37 57/57/57 105/105/105
f 135/135/135 29/29/29 72/72/72
f 121/121/121 5/5/5 111/111/111
f 140/140/140 132/132/132 28/28/28
f 123/123/123 22/22/22 136/136/136
f 11/11/11 149/149/149 107/107/107
f 41/41/41 84/84/84 83/83/83
f 130/130/130 146/146/146 49/49/49
f 60/60/60 111/111/111 95/95/95
f 28/28/28 134/134/134 80/80/80
f 104/104/104 95/95/95 5/5/5
f 148/148/148 127/127/127 132/132/132
f 24/24/24 105/105/105 96/96/96
f 57/57/57 95/95/95 104/104/104
f 24/24/24 96/96/96 144/144/144
f 132/132/132 140/140/140 148/148/148
f 134/134/134 132/132/132 138/138/138
f 79/79/79 124/124/124 133/133/133
f 110/110/110 28/28/28 63/63/63
f 147/147/147 10/10/10 50/50/50
f 9/9/9 117/117/117 75/75/75
f 26/26/26 128/128/128 52/52/52
f 123/123/123 110/110/110 22/22/22
f 111/111/111 32/32/32 63/63/63
f 53/53/53 87/87/87 40/40/40
f 142/142/142 101/101/101 35/35/35
f 80/80/80 104/104/104 5/5/5
f 135/135/135 44/44/44 29/29/29
f 126/126/126 17/17/17 71/71/71
f 150/150/150 109/109/109 34/34/34
f 87/87/87 109/109/109 149/149/149
f 27/27/27 124/124/124 61/61/61
f 103/103/103 150/150/150 34/34/34
f 123/123/123 61/61/61 110/110/110
f 60/60/60 81/81/81 122/122/122
f 53/53/53 96/96/96 109/109/109
f 122/122/122 81/81/81 23/23/23
f 95/95/95 37/37/37 81/81/81
f 60/60/60 95/95/95 81/81/81
f 87/87/87 149/149/149 11/11/11
f 150/150/150 149/149/149 109/109/109
f 14/14/14 133/133/133 78/78/78
f 140/140/140 110/110/110 61/61/61
f 107/107/107 106/106/106 33/33/33
f 107/107/107 149/149/149 150/150/150
f 51/51/51 103/103/103 106/106/106
f 143/143/143 23/23/23 50/50/50
f 81/81/81 50/50/50 23/23/23
f 121/121/121 80/80/80 5/5/5
f 63/63/63 121/121/121 111/111/111
f 121/121/121 28/28/28 80/80/80
f 77/77/77 118/118/118 14/14/14
f 145/145/145 25/25/25 132/132/132
f 103/103/103 34/34/34 80/80/80
f 52/52/52 106/106/106 25/25/25
f 51/51/51 107/107/107 150/150/150
f 44/44/44 17/17/17 126/126/126
f 108/108/108 106/106/106 52/52/52
f 139/139/139 33/33/33 108/108/108
f 107/107/107 33/33/33 43/43/43
f 33/33/33 106/106/106 108/108/108
f 8/8/8 108/108/108 52/52/52
f 139/139/139 43/43/43 33/33/33
f 11/11/11 107/107/107 43/43/43
f 96/96/96 105/105/105 57/57/57
f 140/140/140 28/28/28 110/110/110
f 51/51/51 106/106/106 107/107/107
f 101/101/101 11/11/11 43/43/43
f 46/46/46 101/101/101 142/142/142
f 86/86/86 46/46/46 142/142/142
f 56/56/56 99/99/99 97/97/97
f 40/40/40 46/46/46 86/86/86
f 74/74/74 139/139/139 108/108/108
f 100/100/100 43/43/43 139/139/139
f 100/100/100 101/101/101 43/43/43
f 35/35/35 101/101/101 100/100/100
f 88/88/88 40/40/40 86/86/86
f 16/16/16 100/100/100 139/139/139
f 102/102/102 35/35/35 100/100/100
f 68/68/68 142/142/142 102/102/102
f 88/88/88 99/99/99 56/56/56
f 142/142/142 35/35/35 102/102/102
f 144/144/144 96/96/96 53/53/53
f 46/46/46 11/11/11 101/101/101
f 19/19/19 86/86/86 142/142/142
f 88/88/88 56/56/56 40/40/40
f 144/144/144 40/40/40 56/56/56
f 53/53/53 109/109/109 87/87/87
f 87/87/87 11/11/11 46/46/46
f 87/87/87 46/46/46 40/40/40
f 144/144/144 53/53/53 40/40/40
f 57/57/57 34/34/34 96/96/96
f 144/144/144 56/56/56 97/97/97
f 61/61/61 13/13/13 140/140/140
f 125/125/125 62/62/62 9/9/9
f 145/145/145 127/127/127 26/26/26
f 67/67/67 88/88/88 86/86/86
f 7/7/7 99/99/99 88/88/88
f 7/7/7 70/70/70 99/99/99
f 67/67/67 7/7/7 88/88/88
f 19/19/19 67/67/67 86/86/86
f 68/68/68 19/19/19 142/142/142
f 73/73/73 102/102/102 100/100/100
f 4/4/4 68/68/68 102/102/102
f 73/73/73 4/4/4 102/102/102
f 16/16/16 73/73/73 100/100/100
f 74/74/74 16/16/16 139/139/139
f 8/8/8 74/74/74 108/108/108
f 62/62/62 117/117/117 9/9/9
f 79/79/79 13/13/13 124/124/124
f 62/62/62 136/136/136 117/117/117
f 134/134/134 138/138/138 80/80/80
f 26/26/26 71/71/71 128/128/128
f 145/145/145 26/26/26 52/52/52
f 123/123/123 27/27/27 61/61/61
f 128/128/128 71/71/71 8/8/8
f 128/128/128 8/8/8 52/52/52
f 126/126/126 71/71/71 26/26/26
f 147/147/147 105/105/105 54/54/54
f 37/37/37 105/105/105 147/147/147
f 147/147/147 54/54/54 98/98/98
