# frame 000079 
# time 0.040000 
# name Cloth3D 
v -0.000000 0.000000 -0.000000
v 1.000000 0.000000 -0.000000
v -0.000000 1.000000 0.000000
v 1.000000 1.000000 0.000000
v 0.499895 0.500054 0.014784
v -0.000000 0.500000 0.000000
v 0.500000 1.000000 0.000000
v 1.000000 0.500000 0.000000
v 0.500000 -0.000000 0.000000
v 0.249693 0.749935 -0.008155
v 0.749992 0.750304 -0.003970
v 0.250041 0.249926 -0.008874
v 0.750236 0.250479 -0.009056
v 0.750000 0.000000 0.000000
v 0.250000 0.000000 0.000000
v 1.000000 0.750000 0.000000
v 1.000000 0.250000 0.000000
v 0.250000 1.000000 0.000000
v 0.750000 1.000000 0.000000
v 0.000000 0.250000 0.000000
v 0.000000 0.750000 -0.000000
v 0.499553 0.250925 -0.002823
v 0.251691 0.500479 -0.008758
v 0.500154 0.749861 0.001491
v 0.346043 0.362118 0.014936
v 0.874941 0.374962 -0.010032
v 0.624943 0.125358 -0.008405
v 0.626019 0.374030 0.014784
v 0.875357 0.124722 -0.008688
v 0.374948 0.125157 -0.007635
v 0.124626 0.124663 -0.008449
v 0.374049 0.373919 0.014784
v 0.874690 0.624959 -0.008536
v 0.625827 0.626274 0.014784
v 0.875386 0.875377 -0.007965
v 0.374994 0.874766 -0.008709
v 0.373713 0.626018 0.014784
v 0.124603 0.875379 -0.008860
v 0.125069 0.625104 -0.008097
v 0.625095 0.874689 -0.010316
v 0.125154 0.375180 -0.007943
v 0.249857 0.124708 -0.007566
v 0.875140 0.750079 -0.008347
v 0.875372 0.249948 -0.008635
v 0.249883 0.875192 -0.008300
v 0.750128 0.875196 -0.008766
v 0.124741 0.249996 -0.008068
v 0.124599 0.750158 -0.007988
v 0.374269 0.248200 0.008470
v 0.250317 0.626166 -0.000238
v 0.750525 0.625594 0.003967
v 0.874532 0.499857 -0.009300
v 0.625791 0.752066 0.010760
v 0.374696 0.749031 -0.005061
v 0.000000 0.375000 0.000000
v 0.500116 0.874429 -0.008792
v 0.499843 0.626105 0.014785
v 0.251060 0.374671 -0.008265
v 0.125415 0.500183 -0.008153
v 0.373813 0.499975 0.014785
v 0.625102 0.251452 -0.008247
v 0.499909 0.125520 -0.008772
v 0.499979 0.373976 0.014785
v 0.000000 0.625000 0.000000
v 0.000000 0.875000 0.000000
v 0.000000 0.125000 0.000000
v 0.625000 1.000000 0.000000
v 0.875000 1.000000 0.000000
v 0.125000 1.000000 0.000000
v 0.375000 1.000000 0.000000
v 1.000000 0.375000 0.000000
v 1.000000 0.125000 0.000000
v 1.000000 0.875000 0.000000
v 1.000000 0.625000 0.000000
v 0.375000 0.000000 0.000000
v 0.125000 0.000000 0.000000
v 0.875000 0.000000 0.000000
v 0.625000 0.000000 0.000000
v 0.750056 0.124965 -0.007645
v 0.625883 0.500070 0.014785
v 0.304707 0.566121 0.014929
v 0.062146 0.312598 -0.009259
v 0.188420 0.437693 -0.009054
v 0.187677 0.312554 -0.007485
v 0.062353 0.437623 -0.008625
v 0.687496 0.937756 -0.008573
v 0.687753 0.812165 -0.008906
v 0.562525 0.937498 -0.007806
v 0.062062 0.687508 -0.009525
v 0.187479 0.687692 -0.011391
v 0.062327 0.562532 -0.008616
v 0.187379 0.938030 -0.010037
v 0.187197 0.812706 -0.007620
v 0.062017 0.937988 -0.009993
v 0.436811 0.563040 0.014785
v 0.538404 0.717648 0.014929
v 0.437472 0.811647 -0.011016
v 0.312364 0.812183 -0.011640
v 0.437562 0.937530 -0.007904
v 0.937990 0.812602 -0.009611
v 0.812718 0.812770 -0.008508
v 0.937978 0.937970 -0.009839
v 0.707519 0.590902 0.014929
v 0.562879 0.563128 0.014785
v 0.420353 0.693720 0.014929
v 0.811569 0.562429 -0.009916
v 0.812085 0.687653 -0.011869
v 0.937552 0.562440 -0.008173
v 0.656662 0.741617 0.014929
v 0.561755 0.314546 0.014929
v 0.436932 0.436992 0.014785
v 0.187365 0.061961 -0.010047
v 0.062032 0.062047 -0.009783
v 0.187267 0.187312 -0.007352
v 0.312507 0.062151 -0.009039
v 0.312341 0.187508 -0.010878
v 0.437510 0.062407 -0.008215
v 0.812590 0.062073 -0.009645
v 0.937953 0.062049 -0.009862
v 0.332930 0.426881 0.014929
v 0.562942 0.437026 0.014785
v 0.318149 0.499803 0.014929
v 0.562408 0.188501 -0.011443
v 0.687520 0.188079 -0.008289
v 0.562456 0.062449 -0.008437
v 0.937928 0.312531 -0.009296
v 0.812641 0.312430 -0.006506
v 0.937664 0.437504 -0.008616
v 0.312518 0.937814 -0.009008
v 0.431972 0.288240 0.014929
v 0.812745 0.187469 -0.007672
v 0.746003 0.401035 0.014929
v 0.687466 0.062275 -0.008940
v 0.689009 0.437028 0.014784
v 0.938080 0.187406 -0.010167
v 0.437149 0.188377 -0.011762
v 0.061977 0.187421 -0.009824
v 0.725834 0.500545 0.014929
v 0.937757 0.687459 -0.008763
v 0.681294 0.338775 0.014929
v 0.061899 0.812644 -0.010259
v 0.812624 0.938008 -0.009752
v 0.188359 0.562896 -0.009715
v 0.562858 0.811383 -0.011759
v 0.811581 0.437065 -0.007249
v 0.363766 0.274321 0.014942
v 0.284323 0.666226 0.014942
v 0.755678 0.353774 0.014942
v 0.676226 0.745677 0.014942
v 0.693329 0.660916 0.014929
v 0.496891 0.301398 0.014929
v 0.297723 0.331478 -0.000915
v 0.357491 0.681006 0.014936
vt 0.000000 0.000000
vt 1.000000 0.000000
vt 0.000000 1.000000
vt 1.000000 1.000000
vt 0.500000 0.500000
vt 0.000000 0.500000
vt 0.500000 1.000000
vt 1.000000 0.500000
vt 0.500000 0.000000
vt 0.250000 0.750000
vt 0.750000 0.750000
vt 0.250000 0.250000
vt 0.750000 0.250000
vt 0.750000 0.000000
vt 0.250000 0.000000
vt 1.000000 0.750000
vt 1.000000 0.250000
vt 0.250000 1.000000
vt 0.750000 1.000000
vt 0.000000 0.250000
vt 0.000000 0.750000
vt 0.500000 0.250000
vt 0.250000 0.500000
vt 0.500000 0.750000
vt 0.347160 0.363248
vt 0.875000 0.375000
vt 0.625000 0.125000
vt 0.625000 0.375000
vt 0.875000 0.125000
vt 0.375000 0.125000
vt 0.125000 0.125000
vt 0.375000 0.375000
vt 0.875000 0.625000
vt 0.625000 0.625000
vt 0.875000 0.875000
vt 0.375000 0.875000
vt 0.375000 0.625000
vt 0.125000 0.875000
vt 0.125000 0.625000
vt 0.625000 0.875000
vt 0.125000 0.375000
vt 0.250000 0.125000
vt 0.875000 0.750000
vt 0.875000 0.250000
vt 0.250000 0.875000
vt 0.750000 0.875000
vt 0.125000 0.250000
vt 0.125000 0.750000
vt 0.375000 0.250000
vt 0.250000 0.625000
vt 0.750000 0.625000
vt 0.875000 0.500000
vt 0.625000 0.750000
vt 0.375000 0.750000
vt 0.000000 0.375000
vt 0.500000 0.875000
vt 0.500000 0.625000
vt 0.250000 0.375000
vt 0.125000 0.500000
vt 0.375000 0.500000
vt 0.625000 0.250000
vt 0.500000 0.125000
vt 0.500000 0.375000
vt 0.000000 0.625000
vt 0.000000 0.875000
vt 0.000000 0.125000
vt 0.625000 1.000000
vt 0.875000 1.000000
vt 0.125000 1.000000
vt 0.375000 1.000000
vt 1.000000 0.375000
vt 1.000000 0.125000
vt 1.000000 0.875000
vt 1.000000 0.625000
vt 0.375000 0.000000
vt 0.125000 0.000000
vt 0.875000 0.000000
vt 0.625000 0.000000
vt 0.750000 0.125000
vt 0.625000 0.500000
vt 0.306567 0.565734
vt 0.062500 0.312500
vt 0.187500 0.437500
vt 0.187500 0.312500
vt 0.062500 0.437500
vt 0.687500 0.937500
vt 0.687500 0.812500
vt 0.562500 0.937500
vt 0.062500 0.687500
vt 0.187500 0.687500
vt 0.062500 0.562500
vt 0.187500 0.937500
vt 0.187500 0.812500
vt 0.062500 0.937500
vt 0.437500 0.562500
vt 0.538295 0.715720
vt 0.437500 0.812500
vt 0.312500 0.812500
vt 0.437500 0.937500
vt 0.937500 0.812500
vt 0.812500 0.812500
vt 0.937500 0.937500
vt 0.706143 0.590129
vt 0.562500 0.562500
vt 0.421151 0.692167
vt 0.812500 0.562500
vt 0.812500 0.687500
vt 0.937500 0.562500
vt 0.655470 0.738991
vt 0.561274 0.316012
vt 0.437500 0.437500
vt 0.187500 0.062500
vt 0.062500 0.062500
vt 0.187500 0.187500
vt 0.312500 0.062500
vt 0.312500 0.187500
vt 0.437500 0.062500
vt 0.812500 0.062500
vt 0.937500 0.062500
vt 0.334257 0.427486
vt 0.562500 0.437500
vt 0.319856 0.499921
vt 0.562500 0.187500
vt 0.687500 0.187500
vt 0.562500 0.062500
vt 0.937500 0.312500
vt 0.812500 0.312500
vt 0.937500 0.437500
vt 0.312500 0.937500
vt 0.432440 0.290084
vt 0.812500 0.187500
vt 0.743853 0.401771
vt 0.687500 0.062500
vt 0.687500 0.437500
vt 0.937500 0.187500
vt 0.437500 0.187500
vt 0.062500 0.187500
vt 0.724251 0.500462
vt 0.937500 0.687500
vt 0.679768 0.339984
vt 0.062500 0.812500
vt 0.812500 0.937500
vt 0.187500 0.562500
vt 0.562500 0.812500
vt 0.812500 0.437500
vt 0.364827 0.276579
vt 0.286514 0.664748
vt 0.753124 0.355008
vt 0.674788 0.742863
vt 0.692059 0.659423
vt 0.496867 0.303046
vt 0.296906 0.332149
vt 0.358845 0.679502
vn 0.077479 0.077479 0.993979
vn -0.078137 0.078137 0.993876
vn 0.079204 -0.079204 0.993707
vn -0.077913 -0.077913 0.993911
vn 0.000000 0.000000 1.000000
vn 0.135417 -0.000053 0.990789
vn -0.000329 -0.123846 0.992301
vn -0.132090 -0.001760 0.991236
vn 0.000867 0.131152 0.991362
vn -0.046548 0.085660 0.995237
vn 0.143564 0.090946 0.985453
vn -0.048947 -0.042816 0.997883
vn 0.025515 -0.082383 0.996274
vn 0.002609 0.145493 0.989356
vn -0.003820 0.149384 0.988772
vn -0.143998 0.003141 0.989573
vn -0.152426 -0.003289 0.988309
vn -0.003888 -0.149289 0.988786
vn 0.004456 -0.143531 0.989636
vn 0.149271 -0.002101 0.988794
vn 0.154835 0.002748 0.987937
vn 0.058904 -0.257093 0.964590
vn -0.191775 -0.036199 0.980771
vn -0.055323 0.267431 0.961987
vn -0.084610 -0.021306 0.996186
vn 0.014793 0.001378 0.999890
vn -0.007352 0.007894 0.999942
vn -0.000632 0.001601 0.999999
vn 0.013271 -0.008403 0.999877
vn 0.002387 0.021364 0.999769
vn -0.012083 -0.012384 0.999850
vn 0.003551 0.000684 0.999993
vn -0.019133 0.003281 0.999812
vn -0.000971 -0.000508 0.999999
vn 0.008527 0.010129 0.999912
vn -0.002627 -0.021847 0.999758
vn 0.000763 -0.001347 0.999999
vn -0.011860 0.011270 0.999866
vn 0.010763 0.005013 0.999929
vn -0.003895 -0.018360 0.999824
vn -0.006613 0.001913 0.999976
vn 0.003512 -0.003484 0.999988
vn -0.007639 -0.006340 0.999951
vn 0.020047 -0.000725 0.999799
vn 0.005616 -0.000344 0.999984
vn -0.003710 0.002882 0.999989
vn -0.017305 -0.001712 0.999849
vn -0.008914 -0.004634 0.999950
vn 0.015348 -0.246144 0.969112
vn -0.262614 -0.069086 0.962424
vn 0.220826 0.034925 0.974688
vn -0.001985 0.001136 0.999997
vn -0.032386 0.294648 0.955057
vn -0.038623 0.210436 0.976844
vn 0.140328 -0.002430 0.990102
vn 0.004722 -0.027779 0.999603
vn 0.000069 -0.000816 1.000000
vn -0.118364 0.009722 0.992923
vn 0.004272 0.001557 0.999990
vn 0.001605 0.000473 0.999999
vn 0.017414 -0.151008 0.988379
vn 0.001105 0.025110 0.999684
vn -0.000139 0.001136 0.999999
vn 0.142361 0.003573 0.989808
vn 0.158847 -0.000720 0.987303
vn 0.153736 -0.000160 0.988112
vn 0.002917 -0.128960 0.991645
vn 0.000640 -0.153607 0.988132
vn -0.000115 -0.157199 0.987567
vn -0.004330 -0.133060 0.991099
vn -0.140749 -0.002626 0.990042
vn -0.157134 0.000907 0.987577
vn -0.152545 0.001185 0.988296
vn -0.133207 0.002322 0.991085
vn -0.003139 0.135641 0.990753
vn 0.000738 0.155483 0.987838
vn 0.001182 0.152976 0.988229
vn 0.001895 0.136605 0.990624
vn 0.000731 -0.011281 0.999936
vn -0.000561 -0.000266 1.000000
vn -0.179418 -0.035632 0.983128
vn 0.062260 -0.002486 0.998057
vn 0.005873 0.005926 0.999965
vn -0.014690 0.001896 0.999890
vn 0.062358 -0.000796 0.998053
vn 0.000872 -0.073196 0.997317
vn 0.032938 0.158988 0.986731
vn 0.004199 -0.072776 0.997339
vn 0.062322 0.002904 0.998052
vn -0.070049 0.006905 0.997520
vn 0.062850 0.001547 0.998022
vn -0.003140 -0.066710 0.997768
vn 0.004439 0.003423 0.999984
vn 0.056739 -0.057156 0.996752
vn -0.000000 0.000000 1.000000
vn -0.049729 0.199683 0.978598
vn -0.012201 0.051679 0.998589
vn 0.001866 0.012791 0.999916
vn -0.002280 -0.066983 0.997751
vn -0.063411 0.001497 0.997986
vn 0.003592 0.000641 0.999993
vn -0.054122 -0.053837 0.997082
vn 0.135869 0.021720 0.990489
vn 0.000000 0.000000 1.000000
vn -0.030418 0.161328 0.986432
vn 0.108764 0.015205 0.993951
vn 0.064263 0.012230 0.997858
vn -0.068288 -0.001276 0.997665
vn -0.028791 0.196908 0.979999
vn 0.025481 -0.146273 0.988916
vn 0.000397 0.000000 1.000000
vn -0.003273 0.062310 0.998051
vn 0.055508 0.055037 0.996940
vn 0.003604 -0.000273 0.999993
vn -0.003496 0.058568 0.998277
vn -0.026027 -0.067576 0.997375
vn 0.001141 0.062677 0.998033
vn 0.003872 0.063581 0.997969
vn -0.055351 0.056376 0.996874
vn -0.113928 -0.015640 0.993366
vn 0.000000 -0.000000 1.000000
vn -0.147741 -0.029562 0.988584
vn 0.002613 -0.020590 0.999785
vn -0.007592 0.006723 0.999949
vn 0.000787 0.065902 0.997826
vn -0.072040 -0.000331 0.997402
vn 0.122969 -0.059999 0.990595
vn -0.074170 -0.003578 0.997239
vn -0.003355 -0.065666 0.997836
vn 0.043354 -0.157133 0.986625
vn 0.003582 -0.000762 0.999993
vn 0.129008 0.026501 0.991289
vn 0.000833 0.062138 0.998067
vn -0.001654 -0.000005 0.999999
vn -0.067358 -0.001362 0.997728
vn 0.029753 -0.097492 0.994791
vn 0.064384 -0.001824 0.997924
vn 0.111086 0.017110 0.993663
vn -0.064914 0.002459 0.997888
vn 0.012735 -0.097046 0.995198
vn 0.065562 0.002768 0.997845
vn 0.001091 -0.064999 0.997885
vn -0.024843 -0.011781 0.999622
vn -0.022495 0.131366 0.991079
vn 0.165040 0.022706 0.986025
vn -0.033691 -0.166193 0.985517
vn -0.170970 0.036182 0.984612
vn 0.149192 -0.055668 0.987240
vn 0.019889 0.185744 0.982397
vn 0.113200 0.025845 0.993236
vn 0.038265 -0.191239 0.980797
vn -0.203378 -0.037641 0.978377
vn -0.024612 0.123826 0.991999
f 1/1/1 113/113/113 66/66/66
f 31/31/31 137/137/137 113/113/113
f 11/11/11 101/101/101 87/87/87
f 112/112/112 31/31/31 113/113/113
f 138/138/138 145/145/145 106/106/106
f 106/106/106 52/52/52 33/33/33
f 124/124/124 13/13/13 61/61/61
f 84/84/84 41/41/41 47/47/47
f 137/137/137 66/66/66 113/113/113
f 75/75/75 115/115/115 15/15/15
f 12/12/12 152/152/152 84/84/84
f 12/12/12 114/114/114 116/116/116
f 101/101/101 35/35/35 46/46/46
f 76/76/76 113/113/113 1/1/1
f 76/76/76 112/112/112 113/113/113
f 15/15/15 112/112/112 76/76/76
f 115/115/115 112/112/112 15/15/15
f 30/30/30 115/115/115 117/117/117
f 108/108/108 33/33/33 52/52/52
f 75/75/75 117/117/117 115/115/115
f 115/115/115 30/30/30 42/42/42
f 42/42/42 116/116/116 114/114/114
f 51/51/51 150/150/150 103/103/103
f 116/116/116 30/30/30 136/136/136
f 122/122/122 23/23/23 120/120/120
f 49/49/49 146/146/146 116/116/116
f 42/42/42 112/112/112 115/115/115
f 58/58/58 84/84/84 152/152/152
f 146/146/146 12/12/12 116/116/116
f 60/60/60 120/120/120 111/111/111
f 153/153/153 147/147/147 37/37/37
f 46/46/46 87/87/87 101/101/101
f 101/101/101 43/43/43 35/35/35
f 104/104/104 80/80/80 34/34/34
f 130/130/130 49/49/49 136/136/136
f 83/83/83 58/58/58 23/23/23
f 49/49/49 116/116/116 136/136/136
f 117/117/117 62/62/62 30/30/30
f 132/132/132 134/134/134 140/140/140
f 62/62/62 123/123/123 136/136/136
f 77/77/77 2/2/2 119/119/119
f 77/77/77 119/119/119 118/118/118
f 71/71/71 128/128/128 126/126/126
f 142/142/142 46/46/46 35/35/35
f 63/63/63 28/28/28 121/121/121
f 119/119/119 29/29/29 118/118/118
f 148/148/148 140/140/140 13/13/13
f 125/125/125 27/27/27 62/62/62
f 135/135/135 72/72/72 17/17/17
f 136/136/136 30/30/30 62/62/62
f 58/58/58 120/120/120 23/23/23
f 60/60/60 122/122/122 120/120/120
f 127/127/127 44/44/44 26/26/26
f 120/120/120 25/25/25 32/32/32
f 93/93/93 48/48/48 10/10/10
f 147/147/147 54/54/54 10/10/10
f 120/120/120 32/32/32 111/111/111
f 22/22/22 130/130/130 136/136/136
f 130/130/130 63/63/63 32/32/32
f 127/127/127 145/145/145 148/148/148
f 82/82/82 47/47/47 41/41/41
f 45/45/45 98/98/98 36/36/36
f 82/82/82 137/137/137 47/47/47
f 146/146/146 152/152/152 12/12/12
f 26/26/26 126/126/126 128/128/128
f 62/62/62 117/117/117 125/125/125
f 20/20/20 137/137/137 82/82/82
f 38/38/38 92/92/92 94/94/94
f 20/20/20 66/66/66 137/137/137
f 55/55/55 20/20/20 82/82/82
f 69/69/69 94/94/94 92/92/92
f 143/143/143 90/90/90 39/39/39
f 8/8/8 108/108/108 128/128/128
f 141/141/141 48/48/48 38/38/38
f 24/24/24 144/144/144 97/97/97
f 65/65/65 141/141/141 94/94/94
f 114/114/114 31/31/31 42/42/42
f 38/38/38 94/94/94 141/141/141
f 92/92/92 18/18/18 69/69/69
f 97/97/97 54/54/54 24/24/24
f 151/151/151 110/110/110 63/63/63
f 11/11/11 107/107/107 101/101/101
f 29/29/29 119/119/119 135/135/135
f 143/143/143 59/59/59 83/83/83
f 104/104/104 34/34/34 57/57/57
f 43/43/43 101/101/101 107/107/107
f 129/129/129 45/45/45 36/36/36
f 27/27/27 124/124/124 123/123/123
f 85/85/85 41/41/41 59/59/59
f 78/78/78 125/125/125 9/9/9
f 70/70/70 129/129/129 99/99/99
f 83/83/83 59/59/59 41/41/41
f 129/129/129 70/70/70 18/18/18
f 36/36/36 99/99/99 129/129/129
f 93/93/93 38/38/38 48/48/48
f 38/38/38 45/45/45 92/92/92
f 52/52/52 128/128/128 108/108/108
f 65/65/65 94/94/94 3/3/3
f 72/72/72 135/135/135 119/119/119
f 94/94/94 69/69/69 3/3/3
f 39/39/39 90/90/90 48/48/48
f 21/21/21 141/141/141 65/65/65
f 18/18/18 92/92/92 129/129/129
f 6/6/6 91/91/91 64/64/64
f 105/105/105 24/24/24 54/54/54
f 93/93/93 45/45/45 38/38/38
f 89/89/89 39/39/39 48/48/48
f 50/50/50 90/90/90 143/143/143
f 45/45/45 129/129/129 92/92/92
f 9/9/9 125/125/125 117/117/117
f 64/64/64 89/89/89 21/21/21
f 55/55/55 82/82/82 85/85/85
f 6/6/6 85/85/85 91/91/91
f 59/59/59 91/91/91 85/85/85
f 41/41/41 85/85/85 82/82/82
f 6/6/6 55/55/55 85/85/85
f 23/23/23 143/143/143 83/83/83
f 59/59/59 39/39/39 91/91/91
f 151/151/151 130/130/130 22/22/22
f 143/143/143 39/39/39 59/59/59
f 118/118/118 29/29/29 79/79/79
f 29/29/29 44/44/44 131/131/131
f 32/32/32 146/146/146 130/130/130
f 58/58/58 83/83/83 84/84/84
f 119/119/119 2/2/2 72/72/72
f 44/44/44 126/126/126 26/26/26
f 130/130/130 151/151/151 63/63/63
f 138/138/138 103/103/103 80/80/80
f 10/10/10 98/98/98 93/93/93
f 21/21/21 89/89/89 141/141/141
f 105/105/105 153/153/153 37/37/37
f 148/148/148 13/13/13 127/127/127
f 79/79/79 133/133/133 118/118/118
f 118/118/118 133/133/133 14/14/14
f 81/81/81 147/147/147 50/50/50
f 100/100/100 35/35/35 43/43/43
f 109/109/109 96/96/96 34/34/34
f 48/48/48 141/141/141 89/89/89
f 78/78/78 133/133/133 125/125/125
f 62/62/62 27/27/27 123/123/123
f 37/37/37 147/147/147 81/81/81
f 40/40/40 144/144/144 87/87/87
f 98/98/98 10/10/10 54/54/54
f 25/25/25 120/120/120 58/58/58
f 5/5/5 95/95/95 111/111/111
f 110/110/110 151/151/151 22/22/22
f 57/57/57 37/37/37 95/95/95
f 37/37/37 57/57/57 105/105/105
f 27/27/27 125/125/125 133/133/133
f 121/121/121 5/5/5 111/111/111
f 90/90/90 10/10/10 48/48/48
f 123/123/123 22/22/22 136/136/136
f 17/17/17 126/126/126 135/135/135
f 41/41/41 84/84/84 83/83/83
f 130/130/130 146/146/146 49/49/49
f 60/60/60 111/111/111 95/95/95
f 28/28/28 134/134/134 80/80/80
f 104/104/104 95/95/95 5/5/5
f 28/28/28 140/140/140 134/134/134
f 24/24/24 105/105/105 96/96/96
f 57/57/57 95/95/95 104/104/104
f 24/24/24 96/96/96 144/144/144
f 132/132/132 140/140/140 148/148/148
f 134/134/134 132/132/132 138/138/138
f 45/45/45 93/93/93 98/98/98
f 110/110/110 28/28/28 63/63/63
f 106/106/106 103/103/103 138/138/138
f 9/9/9 117/117/117 75/75/75
f 26/26/26 128/128/128 52/52/52
f 54/54/54 97/97/97 98/98/98
f 111/111/111 32/32/32 63/63/63
f 123/123/123 61/61/61 22/22/22
f 99/99/99 36/36/36 56/56/56
f 80/80/80 104/104/104 5/5/5
f 135/135/135 44/44/44 29/29/29
f 126/126/126 17/17/17 71/71/71
f 150/150/150 109/109/109 34/34/34
f 87/87/87 109/109/109 149/149/149
f 13/13/13 124/124/124 131/131/131
f 103/103/103 150/150/150 34/34/34
f 36/36/36 98/98/98 97/97/97
f 60/60/60 81/81/81 122/122/122
f 53/53/53 96/96/96 109/109/109
f 122/122/122 81/81/81 23/23/23
f 107/107/107 11/11/11 51/51/51
f 150/150/150 51/51/51 11/11/11
f 87/87/87 149/149/149 11/11/11
f 150/150/150 149/149/149 109/109/109
f 14/14/14 133/133/133 78/78/78
f 140/140/140 110/110/110 61/61/61
f 107/107/107 106/106/106 33/33/33
f 44/44/44 135/135/135 126/126/126
f 51/51/51 103/103/103 106/106/106
f 143/143/143 23/23/23 50/50/50
f 81/81/81 50/50/50 23/23/23
f 121/121/121 80/80/80 5/5/5
f 63/63/63 121/121/121 111/111/111
f 121/121/121 28/28/28 80/80/80
f 77/77/77 118/118/118 14/14/14
f 52/52/52 106/106/106 145/145/145
f 103/103/103 34/34/34 80/80/80
f 131/131/131 79/79/79 29/29/29
f 13/13/13 131/131/131 127/127/127
f 25/25/25 146/146/146 32/32/32
f 124/124/124 27/27/27 79/79/79
f 139/139/139 33/33/33 108/108/108
f 107/107/107 33/33/33 43/43/43
f 133/133/133 79/79/79 27/27/27
f 44/44/44 127/127/127 131/131/131
f 139/139/139 43/43/43 33/33/33
f 10/10/10 90/90/90 147/147/147
f 96/96/96 105/105/105 57/57/57
f 140/140/140 28/28/28 110/110/110
f 51/51/51 106/106/106 107/107/107
f 50/50/50 147/147/147 90/90/90
f 97/97/97 56/56/56 36/36/36
f 86/86/86 46/46/46 142/142/142
f 112/112/112 42/42/42 31/31/31
f 40/40/40 46/46/46 86/86/86
f 74/74/74 139/139/139 108/108/108
f 100/100/100 43/43/43 139/139/139
f 137/137/137 31/31/31 47/47/47
f 114/114/114 47/47/47 31/31/31
f 88/88/88 40/40/40 86/86/86
f 16/16/16 100/100/100 139/139/139
f 102/102/102 35/35/35 100/100/100
f 68/68/68 142/142/142 102/102/102
f 88/88/88 99/99/99 56/56/56
f 142/142/142 35/35/35 102/102/102
f 144/144/144 96/96/96 53/53/53
f 95/95/95 37/37/37 60/60/60
f 19/19/19 86/86/86 142/142/142
f 88/88/88 56/56/56 40/40/40
f 144/144/144 40/40/40 56/56/56
f 53/53/53 109/109/109 87/87/87
f 81/81/81 60/60/60 37/37/37
f 87/87/87 46/46/46 40/40/40
f 110/110/110 22/22/22 61/61/61
f 57/57/57 34/34/34 96/96/96
f 144/144/144 56/56/56 97/97/97
f 61/61/61 13/13/13 140/140/140
f 64/64/64 91/91/91 89/89/89
f 145/145/145 127/127/127 26/26/26
f 67/67/67 88/88/88 86/86/86
f 7/7/7 99/99/99 88/88/88
f 7/7/7 70/70/70 99/99/99
f 67/67/67 7/7/7 88/88/88
f 19/19/19 67/67/67 86/86/86
f 68/68/68 19/19/19 142/142/142
f 73/73/73 102/102/102 100/100/100
f 4/4/4 68/68/68 102/102/102
f 73/73/73 4/4/4 102/102/102
f 16/16/16 73/73/73 100/100/100
f 74/74/74 16/16/16 139/139/139
f 8/8/8 74/74/74 108/108/108
f 39/39/39 89/89/89 91/91/91
f 53/53/53 87/87/87 144/144/144
f 116/116/116 42/42/42 30/30/30
f 134/134/134 138/138/138 80/80/80
f 61/61/61 123/123/123 124/124/124
f 145/145/145 26/26/26 52/52/52
f 79/79/79 131/131/131 124/124/124
f 128/128/128 71/71/71 8/8/8
f 149/149/149 150/150/150 11/11/11
f 132/132/132 148/148/148 145/145/145
f 145/145/145 138/138/138 132/132/132
f 58/58/58 152/152/152 25/25/25
f 152/152/152 146/146/146 25/25/25
f 147/147/147 153/153/153 54/54/54
f 153/153/153 105/105/105 54/54/54
f 12/12/12 84/84/84 114/114/114
f 47/47/47 114/114/114 84/84/84
