# frame 000040 
# time 0.020500 
# name Cloth3D 
v -0.000000 0.000000 -0.000000
v 1.000000 0.000000 -0.000000
v -0.000000 1.000000 0.000000
v 1.000000 1.000000 0.000000
v 0.500003 0.499997 0.005034
v -0.000000 0.500000 0.000000
v 0.500000 1.000000 0.000000
v 1.000000 0.500000 0.000000
v 0.500000 -0.000000 0.000000
v 0.250080 0.750025 -0.003072
v 0.749884 0.749967 -0.002438
v 0.250084 0.249967 -0.003086
v 0.750003 0.250081 -0.002981
v 0.750000 0.000000 0.000000
v 0.250000 0.000000 0.000000
v 1.000000 0.750000 0.000000
v 1.000000 0.250000 0.000000
v 0.250000 1.000000 0.000000
v 0.750000 1.000000 0.000000
v 0.000000 0.250000 0.000000
v 0.000000 0.750000 -0.000000
v 0.499965 0.250339 -0.005022
v 0.250225 0.499996 -0.004144
v 0.500065 0.749541 -0.004102
v 0.334338 0.361172 0.005186
v 0.874942 0.375029 -0.001768
v 0.624983 0.125042 -0.001829
v 0.625136 0.374896 0.005034
v 0.875024 0.124985 -0.002235
v 0.375016 0.125018 -0.001879
v 0.124977 0.124973 -0.002122
v 0.374868 0.374847 0.005034
v 0.874928 0.624975 -0.001735
v 0.625080 0.625191 0.005034
v 0.875015 0.875015 -0.002070
v 0.375045 0.874952 -0.001686
v 0.374806 0.625116 0.005034
v 0.124978 0.875028 -0.002279
v 0.125064 0.624999 -0.002142
v 0.624993 0.874911 -0.001660
v 0.125046 0.375005 -0.002061
v 0.250021 0.124982 -0.001987
v 0.874982 0.749970 -0.001834
v 0.875011 0.250024 -0.001803
v 0.250028 0.875014 -0.001902
v 0.749987 0.874995 -0.001810
v 0.125005 0.250004 -0.002056
v 0.125011 0.749993 -0.001911
v 0.374885 0.250400 -0.004248
v 0.250323 0.625082 -0.004320
v 0.749590 0.625051 -0.003143
v 0.874887 0.500012 -0.001761
v 0.625155 0.749416 -0.003170
v 0.374985 0.749660 -0.003850
v 0.000000 0.375000 0.000000
v 0.500024 0.874912 -0.001925
v 0.499963 0.625159 0.005035
v 0.250201 0.374926 -0.004066
v 0.125086 0.500011 -0.002303
v 0.374821 0.499979 0.005035
v 0.624921 0.250271 -0.004274
v 0.499976 0.125046 -0.002062
v 0.499994 0.374837 0.005035
v 0.000000 0.625000 0.000000
v 0.000000 0.875000 0.000000
v 0.000000 0.125000 0.000000
v 0.625000 1.000000 0.000000
v 0.875000 1.000000 0.000000
v 0.125000 1.000000 0.000000
v 0.375000 1.000000 0.000000
v 1.000000 0.375000 0.000000
v 1.000000 0.125000 0.000000
v 1.000000 0.875000 0.000000
v 1.000000 0.625000 0.000000
v 0.375000 0.000000 0.000000
v 0.125000 0.000000 0.000000
v 0.875000 0.000000 0.000000
v 0.625000 0.000000 0.000000
v 0.749981 0.125020 -0.002002
v 0.625252 0.500027 0.005035
v 0.313199 0.566823 0.005179
v 0.062476 0.312506 -0.003043
v 0.187660 0.437489 -0.001543
v 0.187595 0.312486 -0.001441
v 0.062492 0.437508 -0.003069
v 0.687490 0.937509 -0.003080
v 0.687485 0.812419 -0.003799
v 0.562503 0.937493 -0.003052
v 0.062479 0.687493 -0.003125
v 0.187615 0.687504 -0.002838
v 0.062497 0.562499 -0.002960
v 0.187501 0.937542 -0.003095
v 0.187520 0.812507 -0.001926
v 0.062452 0.937549 -0.003535
v 0.437404 0.562560 0.005035
v 0.538684 0.712879 0.005179
v 0.437536 0.812329 -0.002541
v 0.312579 0.812458 -0.003277
v 0.437515 0.937503 -0.003010
v 0.937529 0.812495 -0.002969
v 0.812468 0.812480 -0.002098
v 0.937543 0.937542 -0.003436
v 0.712598 0.591263 0.005179
v 0.562574 0.562579 0.005035
v 0.419784 0.700649 0.005179
v 0.812310 0.562508 -0.002521
v 0.812397 0.687449 -0.003581
v 0.937493 0.562496 -0.003033
v 0.657669 0.725117 0.005179
v 0.561643 0.313327 0.005179
v 0.437424 0.437418 0.005035
v 0.187498 0.062459 -0.002997
v 0.062455 0.062456 -0.003424
v 0.187515 0.187486 -0.001865
v 0.312506 0.062464 -0.002924
v 0.312557 0.187519 -0.002645
v 0.437501 0.062479 -0.003014
v 0.812500 0.062471 -0.002925
v 0.937544 0.062454 -0.003474
v 0.327638 0.426442 0.005179
v 0.562591 0.437444 0.005035
v 0.320075 0.499969 0.005179
v 0.562446 0.187613 -0.002546
v 0.687455 0.187623 -0.001551
v 0.562495 0.062482 -0.003164
v 0.937524 0.312517 -0.003232
v 0.812440 0.312528 -0.004087
v 0.937496 0.437513 -0.003245
v 0.312518 0.937525 -0.003236
v 0.430881 0.299877 0.005179
v 0.812501 0.187527 -0.001969
v 0.732278 0.399929 0.005179
v 0.687496 0.062478 -0.003153
v 0.687815 0.437506 0.005034
v 0.937541 0.187503 -0.003127
v 0.437464 0.187661 -0.002318
v 0.062464 0.187498 -0.002971
v 0.721969 0.500156 0.005179
v 0.937513 0.687485 -0.003070
v 0.682054 0.325712 0.005179
v 0.062464 0.812502 -0.003092
v 0.812501 0.937533 -0.002971
v 0.187706 0.562532 -0.001380
v 0.562564 0.812296 -0.002790
v 0.812343 0.437528 -0.003090
v 0.341565 0.290649 0.005192
v 0.300649 0.688432 0.005192
v 0.739352 0.331568 0.005192
v 0.698431 0.729351 0.005192
v 0.705365 0.661587 0.005179
v 0.496269 0.306603 0.005179
vt 0.000000 0.000000
vt 1.000000 0.000000
vt 0.000000 1.000000
vt 1.000000 1.000000
vt 0.500000 0.500000
vt 0.000000 0.500000
vt 0.500000 1.000000
vt 1.000000 0.500000
vt 0.500000 0.000000
vt 0.250000 0.750000
vt 0.750000 0.750000
vt 0.250000 0.250000
vt 0.750000 0.250000
vt 0.750000 0.000000
vt 0.250000 0.000000
vt 1.000000 0.750000
vt 1.000000 0.250000
vt 0.250000 1.000000
vt 0.750000 1.000000
vt 0.000000 0.250000
vt 0.000000 0.750000
vt 0.500000 0.250000
vt 0.250000 0.500000
vt 0.500000 0.750000
vt 0.334496 0.361359
vt 0.875000 0.375000
vt 0.625000 0.125000
vt 0.625000 0.375000
vt 0.875000 0.125000
vt 0.375000 0.125000
vt 0.125000 0.125000
vt 0.375000 0.375000
vt 0.875000 0.625000
vt 0.625000 0.625000
vt 0.875000 0.875000
vt 0.375000 0.875000
vt 0.375000 0.625000
vt 0.125000 0.875000
vt 0.125000 0.625000
vt 0.625000 0.875000
vt 0.125000 0.375000
vt 0.250000 0.125000
vt 0.875000 0.750000
vt 0.875000 0.250000
vt 0.250000 0.875000
vt 0.750000 0.875000
vt 0.125000 0.250000
vt 0.125000 0.750000
vt 0.375000 0.250000
vt 0.250000 0.625000
vt 0.750000 0.625000
vt 0.875000 0.500000
vt 0.625000 0.750000
vt 0.375000 0.750000
vt 0.000000 0.375000
vt 0.500000 0.875000
vt 0.500000 0.625000
vt 0.250000 0.375000
vt 0.125000 0.500000
vt 0.375000 0.500000
vt 0.625000 0.250000
vt 0.500000 0.125000
vt 0.500000 0.375000
vt 0.000000 0.625000
vt 0.000000 0.875000
vt 0.000000 0.125000
vt 0.625000 1.000000
vt 0.875000 1.000000
vt 0.125000 1.000000
vt 0.375000 1.000000
vt 1.000000 0.375000
vt 1.000000 0.125000
vt 1.000000 0.875000
vt 1.000000 0.625000
vt 0.375000 0.000000
vt 0.125000 0.000000
vt 0.875000 0.000000
vt 0.625000 0.000000
vt 0.750000 0.125000
vt 0.625000 0.500000
vt 0.313499 0.566798
vt 0.062500 0.312500
vt 0.187500 0.437500
vt 0.187500 0.312500
vt 0.062500 0.437500
vt 0.687500 0.937500
vt 0.687500 0.812500
vt 0.562500 0.937500
vt 0.062500 0.687500
vt 0.187500 0.687500
vt 0.062500 0.562500
vt 0.187500 0.937500
vt 0.187500 0.812500
vt 0.062500 0.937500
vt 0.437500 0.562500
vt 0.538771 0.712542
vt 0.437500 0.812500
vt 0.312500 0.812500
vt 0.437500 0.937500
vt 0.937500 0.812500
vt 0.812500 0.812500
vt 0.937500 0.937500
vt 0.712367 0.591069
vt 0.562500 0.562500
vt 0.419917 0.700416
vt 0.812500 0.562500
vt 0.812500 0.687500
vt 0.937500 0.562500
vt 0.657614 0.724713
vt 0.561635 0.313504
vt 0.437500 0.437500
vt 0.187500 0.062500
vt 0.062500 0.062500
vt 0.187500 0.187500
vt 0.312500 0.062500
vt 0.312500 0.187500
vt 0.437500 0.062500
vt 0.812500 0.062500
vt 0.937500 0.062500
vt 0.327857 0.426544
vt 0.562500 0.437500
vt 0.320345 0.500006
vt 0.562500 0.187500
vt 0.687500 0.187500
vt 0.562500 0.062500
vt 0.937500 0.312500
vt 0.812500 0.312500
vt 0.937500 0.437500
vt 0.312500 0.937500
vt 0.430926 0.300113
vt 0.812500 0.187500
vt 0.732036 0.400012
vt 0.687500 0.062500
vt 0.687500 0.437500
vt 0.937500 0.187500
vt 0.437500 0.187500
vt 0.062500 0.187500
vt 0.721424 0.500054
vt 0.937500 0.687500
vt 0.681886 0.325897
vt 0.062500 0.812500
vt 0.812500 0.937500
vt 0.187500 0.562500
vt 0.562500 0.812500
vt 0.812500 0.437500
vt 0.341589 0.290953
vt 0.300977 0.688268
vt 0.739027 0.331732
vt 0.698234 0.729026
vt 0.705213 0.661429
vt 0.496269 0.306935
vn 0.026173 0.026173 0.999315
vn -0.026550 0.026550 0.999295
vn 0.027003 -0.027003 0.999271
vn -0.026260 -0.026260 0.999310
vn 0.000000 0.000000 1.000000
vn 0.046001 -0.000421 0.998941
vn 0.000153 -0.046279 0.998929
vn -0.047954 -0.000799 0.998849
vn 0.000549 0.047151 0.998888
vn -0.031861 0.012890 0.999409
vn 0.057983 0.039383 0.997540
vn -0.018545 -0.007082 0.999803
vn 0.017211 -0.030342 0.999391
vn -0.000874 0.046407 0.998922
vn -0.000275 0.045208 0.998978
vn -0.046097 -0.000372 0.998937
vn -0.048532 0.000402 0.998822
vn 0.000542 -0.048315 0.998832
vn -0.000424 -0.046220 0.998931
vn 0.045905 0.000270 0.998946
vn 0.047437 -0.000124 0.998874
vn 0.008596 -0.089051 0.995990
vn -0.051792 -0.004326 0.998649
vn -0.033612 0.103276 0.994085
vn -0.033097 -0.003215 0.999447
vn -0.002562 -0.002033 0.999995
vn -0.002008 -0.004731 0.999987
vn -0.000526 0.001331 0.999999
vn 0.007795 -0.007034 0.999945
vn -0.000959 -0.004005 0.999992
vn -0.007312 -0.007334 0.999946
vn 0.002238 0.000353 0.999997
vn 0.000305 0.002277 0.999997
vn -0.000767 -0.000566 1.000000
vn 0.007405 0.007372 0.999945
vn -0.001790 0.002253 0.999996
vn 0.000918 -0.000419 0.999999
vn -0.007763 0.007763 0.999940
vn -0.007210 0.002346 0.999971
vn 0.001784 0.001608 0.999997
vn -0.012001 0.000728 0.999928
vn 0.004042 -0.005508 0.999977
vn 0.004125 -0.002349 0.999989
vn 0.003621 0.003365 0.999988
vn 0.001684 0.004802 0.999987
vn -0.002597 0.003820 0.999989
vn -0.006868 -0.000804 0.999976
vn -0.005605 -0.001536 0.999983
vn 0.024789 -0.108453 0.993792
vn -0.064376 -0.003480 0.997920
vn 0.124169 0.017361 0.992109
vn 0.002853 -0.001566 0.999995
vn -0.047126 0.145157 0.988286
vn -0.022049 0.076541 0.996823
vn 0.046642 0.000100 0.998912
vn 0.000447 0.003178 0.999995
vn 0.000033 -0.000798 1.000000
vn -0.033967 -0.000843 0.999423
vn -0.011929 -0.000374 0.999929
vn 0.001635 0.000138 0.999999
vn 0.019789 -0.050712 0.998517
vn -0.001936 -0.005296 0.999984
vn -0.000078 0.001224 0.999999
vn 0.046422 0.000632 0.998922
vn 0.050578 0.001696 0.998719
vn 0.048837 -0.001738 0.998805
vn 0.000121 -0.046826 0.998903
vn 0.001780 -0.048927 0.998801
vn -0.001686 -0.050599 0.998718
vn -0.000858 -0.047685 0.998862
vn -0.049442 0.000054 0.998777
vn -0.050394 -0.001335 0.998729
vn -0.048918 0.001785 0.998801
vn -0.046599 0.000121 0.998914
vn 0.000349 0.045356 0.998971
vn -0.001640 0.049033 0.998796
vn 0.002103 0.048861 0.998803
vn -0.000024 0.048201 0.998838
vn 0.001153 -0.007035 0.999975
vn -0.000564 -0.000263 1.000000
vn -0.068899 -0.003749 0.997617
vn 0.015688 0.000197 0.999877
vn 0.014657 0.000491 0.999892
vn 0.011588 -0.002280 0.999930
vn 0.016638 0.000308 0.999862
vn 0.000159 -0.013170 0.999913
vn -0.001351 0.028522 0.999592
vn -0.000429 -0.013669 0.999906
vn 0.015441 -0.000194 0.999881
vn 0.012825 -0.001784 0.999916
vn 0.016950 -0.000206 0.999856
vn -0.001291 -0.015939 0.999872
vn 0.003018 -0.002632 0.999992
vn 0.017002 -0.016997 0.999711
vn 0.000293 0.000000 1.000000
vn -0.029899 0.091784 0.995330
vn 0.000541 0.006385 0.999979
vn 0.002266 0.004082 0.999989
vn 0.000148 -0.013807 0.999905
vn -0.014884 0.001163 0.999889
vn -0.001368 -0.001527 0.999998
vn -0.016190 -0.016187 0.999738
vn 0.089954 0.032078 0.995429
vn 0.000000 0.000000 1.000000
vn -0.013486 0.066308 0.997708
vn 0.023677 0.014602 0.999613
vn 0.010730 -0.004776 0.999931
vn -0.013311 -0.000354 0.999911
vn -0.037964 0.092447 0.994994
vn 0.002964 -0.055009 0.998481
vn 0.000359 -0.000000 1.000000
vn -0.001210 0.015687 0.999876
vn 0.016312 0.016263 0.999735
vn 0.002307 0.003931 0.999990
vn -0.000146 0.017986 0.999838
vn 0.003258 -0.014104 0.999895
vn 0.000792 0.017665 0.999844
vn 0.001057 0.016158 0.999869
vn -0.016484 0.016870 0.999722
vn -0.048863 -0.003373 0.998800
vn 0.000000 -0.000000 1.000000
vn -0.053742 -0.005392 0.998540
vn 0.000539 -0.001823 0.999998
vn -0.004317 0.013094 0.999905
vn -0.000205 0.014864 0.999889
vn -0.013590 0.000174 0.999908
vn 0.031045 -0.013098 0.999432
vn -0.013401 -0.000403 0.999910
vn -0.000574 -0.013656 0.999907
vn 0.003689 -0.070758 0.997487
vn -0.003607 0.002050 0.999991
vn 0.039455 0.002161 0.999219
vn -0.000115 0.014596 0.999893
vn -0.001997 0.000043 0.999998
vn -0.015382 -0.001299 0.999881
vn 0.001611 -0.007987 0.999967
vn 0.015931 -0.000862 0.999873
vn 0.033987 0.001305 0.999421
vn -0.013627 0.000038 0.999907
vn 0.001148 -0.047521 0.998870
vn 0.015966 0.001491 0.999871
vn 0.001174 -0.014804 0.999890
vn 0.015381 0.002523 0.999879
vn -0.003092 0.011215 0.999932
vn 0.033129 -0.001832 0.999449
vn 0.005309 -0.075759 0.997112
vn -0.071436 0.026527 0.997092
vn 0.048490 -0.037898 0.998104
vn 0.046416 0.050335 0.997653
vn 0.073981 -0.005375 0.997245
vn 0.009244 -0.092135 0.995704
f 1/1/1 113/113/113 66/66/66
f 31/31/31 137/137/137 113/113/113
f 47/47/47 114/114/114 12/12/12
f 112/112/112 31/31/31 113/113/113
f 90/90/90 50/50/50 10/10/10
f 106/106/106 52/52/52 33/33/33
f 124/124/124 13/13/13 61/61/61
f 84/84/84 41/41/41 47/47/47
f 137/137/137 66/66/66 113/113/113
f 75/75/75 115/115/115 15/15/15
f 116/116/116 115/115/115 30/30/30
f 12/12/12 114/114/114 116/116/116
f 101/101/101 35/35/35 46/46/46
f 76/76/76 113/113/113 1/1/1
f 76/76/76 112/112/112 113/113/113
f 15/15/15 112/112/112 76/76/76
f 115/115/115 112/112/112 15/15/15
f 30/30/30 115/115/115 117/117/117
f 108/108/108 33/33/33 52/52/52
f 75/75/75 117/117/117 115/115/115
f 136/136/136 30/30/30 117/117/117
f 42/42/42 116/116/116 114/114/114
f 51/51/51 150/150/150 103/103/103
f 116/116/116 30/30/30 136/136/136
f 122/122/122 23/23/23 120/120/120
f 49/49/49 146/146/146 116/116/116
f 42/42/42 112/112/112 115/115/115
f 42/42/42 115/115/115 116/116/116
f 146/146/146 12/12/12 116/116/116
f 60/60/60 120/120/120 111/111/111
f 13/13/13 44/44/44 127/127/127
f 84/84/84 47/47/47 12/12/12
f 101/101/101 43/43/43 35/35/35
f 104/104/104 80/80/80 34/34/34
f 130/130/130 49/49/49 136/136/136
f 83/83/83 58/58/58 23/23/23
f 49/49/49 116/116/116 136/136/136
f 24/24/24 97/97/97 105/105/105
f 127/127/127 145/145/145 132/132/132
f 62/62/62 123/123/123 136/136/136
f 77/77/77 2/2/2 119/119/119
f 77/77/77 119/119/119 118/118/118
f 71/71/71 128/128/128 126/126/126
f 142/142/142 46/46/46 35/35/35
f 63/63/63 28/28/28 121/121/121
f 119/119/119 29/29/29 118/118/118
f 148/148/148 140/140/140 13/13/13
f 125/125/125 27/27/27 62/62/62
f 135/135/135 72/72/72 17/17/17
f 105/105/105 97/97/97 54/54/54
f 58/58/58 120/120/120 23/23/23
f 60/60/60 122/122/122 120/120/120
f 127/127/127 44/44/44 26/26/26
f 120/120/120 25/25/25 32/32/32
f 28/28/28 132/132/132 134/134/134
f 146/146/146 58/58/58 12/12/12
f 120/120/120 32/32/32 111/111/111
f 22/22/22 130/130/130 136/136/136
f 130/130/130 63/63/63 32/32/32
f 147/147/147 105/105/105 54/54/54
f 82/82/82 47/47/47 41/41/41
f 45/45/45 98/98/98 36/36/36
f 82/82/82 137/137/137 47/47/47
f 84/84/84 12/12/12 58/58/58
f 26/26/26 126/126/126 128/128/128
f 62/62/62 117/117/117 125/125/125
f 20/20/20 137/137/137 82/82/82
f 38/38/38 92/92/92 94/94/94
f 20/20/20 66/66/66 137/137/137
f 55/55/55 20/20/20 82/82/82
f 69/69/69 94/94/94 92/92/92
f 143/143/143 90/90/90 39/39/39
f 8/8/8 108/108/108 128/128/128
f 141/141/141 48/48/48 38/38/38
f 24/24/24 144/144/144 97/97/97
f 65/65/65 141/141/141 94/94/94
f 114/114/114 31/31/31 42/42/42
f 38/38/38 94/94/94 141/141/141
f 92/92/92 18/18/18 69/69/69
f 45/45/45 10/10/10 98/98/98
f 151/151/151 110/110/110 63/63/63
f 98/98/98 54/54/54 36/36/36
f 29/29/29 119/119/119 135/135/135
f 143/143/143 59/59/59 83/83/83
f 104/104/104 34/34/34 57/57/57
f 54/54/54 97/97/97 36/36/36
f 129/129/129 45/45/45 36/36/36
f 147/147/147 98/98/98 10/10/10
f 85/85/85 41/41/41 59/59/59
f 78/78/78 125/125/125 9/9/9
f 70/70/70 129/129/129 99/99/99
f 83/83/83 59/59/59 41/41/41
f 129/129/129 70/70/70 18/18/18
f 36/36/36 99/99/99 129/129/129
f 93/93/93 38/38/38 48/48/48
f 38/38/38 45/45/45 92/92/92
f 52/52/52 128/128/128 108/108/108
f 65/65/65 94/94/94 3/3/3
f 72/72/72 135/135/135 119/119/119
f 94/94/94 69/69/69 3/3/3
f 39/39/39 90/90/90 48/48/48
f 21/21/21 141/141/141 65/65/65
f 18/18/18 92/92/92 129/129/129
f 6/6/6 91/91/91 64/64/64
f 93/93/93 10/10/10 45/45/45
f 93/93/93 45/45/45 38/38/38
f 89/89/89 39/39/39 48/48/48
f 50/50/50 90/90/90 143/143/143
f 45/45/45 129/129/129 92/92/92
f 9/9/9 125/125/125 117/117/117
f 64/64/64 89/89/89 21/21/21
f 55/55/55 82/82/82 85/85/85
f 6/6/6 85/85/85 91/91/91
f 59/59/59 91/91/91 85/85/85
f 41/41/41 85/85/85 82/82/82
f 6/6/6 55/55/55 85/85/85
f 23/23/23 143/143/143 83/83/83
f 59/59/59 39/39/39 91/91/91
f 151/151/151 130/130/130 22/22/22
f 143/143/143 39/39/39 59/59/59
f 118/118/118 29/29/29 79/79/79
f 29/29/29 44/44/44 131/131/131
f 32/32/32 146/146/146 130/130/130
f 58/58/58 83/83/83 84/84/84
f 119/119/119 2/2/2 72/72/72
f 44/44/44 126/126/126 26/26/26
f 130/130/130 151/151/151 63/63/63
f 138/138/138 103/103/103 80/80/80
f 48/48/48 90/90/90 93/93/93
f 21/21/21 89/89/89 141/141/141
f 131/131/131 44/44/44 13/13/13
f 148/148/148 13/13/13 127/127/127
f 79/79/79 133/133/133 118/118/118
f 118/118/118 133/133/133 14/14/14
f 81/81/81 147/147/147 50/50/50
f 100/100/100 35/35/35 43/43/43
f 109/109/109 96/96/96 34/34/34
f 48/48/48 141/141/141 89/89/89
f 78/78/78 133/133/133 125/125/125
f 62/62/62 27/27/27 123/123/123
f 37/37/37 147/147/147 81/81/81
f 131/131/131 13/13/13 79/79/79
f 146/146/146 25/25/25 58/58/58
f 25/25/25 120/120/120 58/58/58
f 5/5/5 95/95/95 111/111/111
f 110/110/110 151/151/151 22/22/22
f 57/57/57 37/37/37 95/95/95
f 37/37/37 57/57/57 105/105/105
f 27/27/27 125/125/125 133/133/133
f 121/121/121 5/5/5 111/111/111
f 140/140/140 132/132/132 28/28/28
f 123/123/123 22/22/22 136/136/136
f 17/17/17 126/126/126 135/135/135
f 41/41/41 84/84/84 83/83/83
f 130/130/130 146/146/146 49/49/49
f 60/60/60 111/111/111 95/95/95
f 28/28/28 134/134/134 80/80/80
f 104/104/104 95/95/95 5/5/5
f 148/148/148 127/127/127 132/132/132
f 24/24/24 105/105/105 96/96/96
f 57/57/57 95/95/95 104/104/104
f 24/24/24 96/96/96 144/144/144
f 132/132/132 140/140/140 148/148/148
f 134/134/134 132/132/132 138/138/138
f 10/10/10 93/93/93 90/90/90
f 110/110/110 28/28/28 63/63/63
f 147/147/147 10/10/10 50/50/50
f 9/9/9 117/117/117 75/75/75
f 26/26/26 128/128/128 52/52/52
f 123/123/123 110/110/110 22/22/22
f 111/111/111 32/32/32 63/63/63
f 53/53/53 87/87/87 40/40/40
f 99/99/99 36/36/36 56/56/56
f 80/80/80 104/104/104 5/5/5
f 135/135/135 44/44/44 29/29/29
f 126/126/126 17/17/17 71/71/71
f 150/150/150 109/109/109 34/34/34
f 87/87/87 109/109/109 149/149/149
f 27/27/27 124/124/124 61/61/61
f 103/103/103 150/150/150 34/34/34
f 123/123/123 61/61/61 110/110/110
f 60/60/60 81/81/81 122/122/122
f 53/53/53 96/96/96 109/109/109
f 122/122/122 81/81/81 23/23/23
f 95/95/95 37/37/37 81/81/81
f 60/60/60 95/95/95 81/81/81
f 87/87/87 149/149/149 11/11/11
f 150/150/150 149/149/149 109/109/109
f 14/14/14 133/133/133 78/78/78
f 140/140/140 110/110/110 61/61/61
f 107/107/107 106/106/106 33/33/33
f 44/44/44 135/135/135 126/126/126
f 51/51/51 103/103/103 106/106/106
f 143/143/143 23/23/23 50/50/50
f 81/81/81 50/50/50 23/23/23
f 121/121/121 80/80/80 5/5/5
f 63/63/63 121/121/121 111/111/111
f 121/121/121 28/28/28 80/80/80
f 77/77/77 118/118/118 14/14/14
f 52/52/52 106/106/106 145/145/145
f 103/103/103 34/34/34 80/80/80
f 131/131/131 79/79/79 29/29/29
f 51/51/51 107/107/107 150/150/150
f 25/25/25 146/146/146 32/32/32
f 124/124/124 27/27/27 79/79/79
f 139/139/139 33/33/33 108/108/108
f 107/107/107 33/33/33 43/43/43
f 133/133/133 79/79/79 27/27/27
f 107/107/107 11/11/11 150/150/150
f 139/139/139 43/43/43 33/33/33
f 11/11/11 107/107/107 43/43/43
f 96/96/96 105/105/105 57/57/57
f 140/140/140 28/28/28 110/110/110
f 51/51/51 106/106/106 107/107/107
f 101/101/101 11/11/11 43/43/43
f 97/97/97 56/56/56 36/36/36
f 86/86/86 46/46/46 142/142/142
f 112/112/112 42/42/42 31/31/31
f 40/40/40 46/46/46 86/86/86
f 74/74/74 139/139/139 108/108/108
f 100/100/100 43/43/43 139/139/139
f 137/137/137 31/31/31 47/47/47
f 114/114/114 47/47/47 31/31/31
f 88/88/88 40/40/40 86/86/86
f 16/16/16 100/100/100 139/139/139
f 102/102/102 35/35/35 100/100/100
f 68/68/68 142/142/142 102/102/102
f 88/88/88 99/99/99 56/56/56
f 142/142/142 35/35/35 102/102/102
f 144/144/144 96/96/96 53/53/53
f 46/46/46 11/11/11 101/101/101
f 19/19/19 86/86/86 142/142/142
f 88/88/88 56/56/56 40/40/40
f 144/144/144 40/40/40 56/56/56
f 53/53/53 109/109/109 87/87/87
f 87/87/87 11/11/11 46/46/46
f 87/87/87 46/46/46 40/40/40
f 144/144/144 53/53/53 40/40/40
f 57/57/57 34/34/34 96/96/96
f 144/144/144 56/56/56 97/97/97
f 61/61/61 13/13/13 140/140/140
f 64/64/64 91/91/91 89/89/89
f 145/145/145 127/127/127 26/26/26
f 67/67/67 88/88/88 86/86/86
f 7/7/7 99/99/99 88/88/88
f 7/7/7 70/70/70 99/99/99
f 67/67/67 7/7/7 88/88/88
f 19/19/19 67/67/67 86/86/86
f 68/68/68 19/19/19 142/142/142
f 73/73/73 102/102/102 100/100/100
f 4/4/4 68/68/68 102/102/102
f 73/73/73 4/4/4 102/102/102
f 16/16/16 73/73/73 100/100/100
f 74/74/74 16/16/16 139/139/139
f 8/8/8 74/74/74 108/108/108
f 39/39/39 89/89/89 91/91/91
f 79/79/79 13/13/13 124/124/124
f 62/62/62 136/136/136 117/117/117
f 134/134/134 138/138/138 80/80/80
f 147/147/147 54/54/54 98/98/98
f 145/145/145 26/26/26 52/52/52
f 123/123/123 27/27/27 61/61/61
f 128/128/128 71/71/71 8/8/8
f 149/149/149 150/150/150 11/11/11
f 37/37/37 105/105/105 147/147/147
f 145/145/145 138/138/138 132/132/132
f 106/106/106 103/103/103 138/138/138
f 138/138/138 145/145/145 106/106/106
