# frame 000168 
# time 0.084500 
# name Cloth3D 
v -0.000000 0.000000 -0.000000
v 1.000000 0.000000 -0.000000
v -0.000000 1.000000 0.000000
v 1.000000 1.000000 0.000000
v 0.498789 0.499523 0.037034
v -0.000000 0.500000 0.000000
v 0.500000 1.000000 0.000000
v 1.000000 0.500000 0.000000
v 0.500000 -0.000000 0.000000
v 0.249888 0.749019 -0.008493
v 0.747981 0.749573 -0.001956
v 0.250406 0.249932 -0.012851
v 0.749231 0.251270 -0.007445
v 0.750000 0.000000 0.000000
v 0.250000 0.000000 0.000000
v 1.000000 0.750000 0.000000
v 1.000000 0.250000 0.000000
v 0.250000 1.000000 0.000000
v 0.750000 1.000000 0.000000
v 0.000000 0.250000 0.000000
v 0.000000 0.750000 -0.000000
v 0.497773 0.247483 0.025401
v 0.248436 0.501423 0.017444
v 0.500369 0.751505 0.026430
v 0.365014 0.367572 0.037186
v 0.876933 0.373743 0.009221
v 0.624011 0.125003 -0.010747
v 0.625655 0.372216 0.037034
v 0.875235 0.124829 -0.019909
v 0.373820 0.123147 -0.002670
v 0.124469 0.124430 -0.021977
v 0.748740 0.687222 0.008112
v 0.873825 0.623917 -0.006800
v 0.626007 0.626357 0.037034
v 0.874991 0.875178 -0.017691
v 0.375611 0.874681 -0.009725
v 0.371974 0.627120 0.037034
v 0.124456 0.875539 -0.021959
v 0.123047 0.625837 -0.003450
v 0.625534 0.876792 0.008096
v 0.124810 0.375820 -0.014860
v 0.250247 0.124008 -0.023399
v 0.874321 0.749240 -0.016510
v 0.875019 0.250945 -0.017729
v 0.250602 0.875139 -0.022832
v 0.749461 0.875222 -0.011464
v 0.124538 0.250533 -0.025516
v 0.124128 0.749765 -0.021148
v 0.302861 0.714747 0.012990
v 0.811988 0.875309 -0.017251
v 0.749717 0.624726 0.017589
v 0.874577 0.498821 0.004181
v 0.363224 0.658553 0.037186
v 0.374591 0.750011 0.010775
v 0.000000 0.375000 0.000000
v 0.500638 0.874857 0.000231
v 0.499199 0.626576 0.037035
v 0.249828 0.375370 0.002766
v 0.124079 0.500787 -0.005461
v 0.371753 0.499988 0.037035
v 0.623939 0.249803 0.009836
v 0.498934 0.124159 -0.001399
v 0.498448 0.372381 0.037035
v 0.000000 0.625000 0.000000
v 0.000000 0.875000 0.000000
v 0.000000 0.125000 0.000000
v 0.625000 1.000000 0.000000
v 0.875000 1.000000 0.000000
v 0.125000 1.000000 0.000000
v 0.375000 1.000000 0.000000
v 1.000000 0.375000 0.000000
v 1.000000 0.125000 0.000000
v 1.000000 0.875000 0.000000
v 1.000000 0.625000 0.000000
v 0.375000 0.000000 0.000000
v 0.125000 0.000000 0.000000
v 0.875000 0.000000 0.000000
v 0.625000 0.000000 0.000000
v 0.749289 0.124928 -0.020992
v 0.625817 0.499149 0.037035
v 0.278633 0.559770 0.037179
v 0.061510 0.312794 -0.015675
v 0.187324 0.438613 -0.002176
v 0.188154 0.313479 -0.018291
v 0.061481 0.437889 -0.014471
v 0.687264 0.938037 -0.010281
v 0.687551 0.813755 0.009169
v 0.562673 0.937521 -0.006749
v 0.060673 0.687548 -0.017576
v 0.185159 0.689174 0.002760
v 0.061370 0.562746 -0.014062
v 0.187525 0.938498 -0.016449
v 0.187614 0.811998 -0.024396
v 0.062129 0.937911 -0.010031
v 0.435446 0.563320 0.037035
v 0.532917 0.734805 0.037179
v 0.438013 0.812316 0.005599
v 0.313155 0.811561 -0.011789
v 0.437942 0.937572 -0.009287
v 0.938261 0.812304 -0.015973
v 0.811186 0.811958 -0.017964
v 0.937946 0.937946 -0.011135
v 0.703230 0.589564 0.037179
v 0.562474 0.562891 0.037035
v 0.422171 0.685021 0.037179
v 0.812079 0.561339 0.011089
v 0.810793 0.686546 -0.005164
v 0.937037 0.561966 -0.004611
v 0.309298 0.259685 0.008078
v 0.561921 0.309851 0.037179
v 0.435096 0.436095 0.037035
v 0.187276 0.061135 -0.017242
v 0.062144 0.062185 -0.009521
v 0.187790 0.187449 -0.028568
v 0.312475 0.060647 -0.017837
v 0.311134 0.185823 -0.002156
v 0.437186 0.061717 -0.011320
v 0.812452 0.061441 -0.016852
v 0.937908 0.062112 -0.010681
v 0.337685 0.428402 0.037179
v 0.562153 0.435787 0.037035
v 0.306840 0.497017 0.037179
v 0.561069 0.187002 0.004880
v 0.686468 0.188106 -0.009237
v 0.561957 0.061951 -0.011448
v 0.938195 0.312710 -0.011435
v 0.812766 0.313244 -0.000012
v 0.937338 0.437210 -0.004969
v 0.312916 0.938284 -0.015012
v 0.404034 0.317184 0.037108
v 0.811919 0.188394 -0.022451
v 0.250757 0.187163 -0.020890
v 0.687004 0.061470 -0.016335
v 0.689392 0.435478 0.037035
v 0.938319 0.187650 -0.015234
v 0.435421 0.184252 0.017227
v 0.061726 0.187525 -0.015321
v 0.741397 0.504659 0.037179
v 0.937432 0.686927 -0.010963
v 0.673996 0.360231 0.037179
v 0.061191 0.812718 -0.016837
v 0.812326 0.938758 -0.017291
v 0.185398 0.563871 0.010467
v 0.563277 0.814760 0.021614
v 0.815205 0.435593 0.026838
v 0.419624 0.245655 0.037192
v 0.255663 0.610356 0.037192
v 0.784338 0.409643 0.037192
v 0.620356 0.774337 0.037192
v 0.673794 0.655048 0.037179
v 0.500897 0.282419 0.037179
v 0.295647 0.331234 0.011494
v 0.187177 0.749086 -0.017083
v 0.713674 0.300510 0.012011
v 0.748823 0.812459 -0.006655
v 0.581763 0.674584 0.037107
v 0.188013 0.250608 -0.024487
v 0.688413 0.758873 0.015587
v 0.391031 0.309498 0.037189
v 0.648052 0.712507 0.037186
v 0.747532 0.352795 0.023842
v 0.362586 0.217040 0.017214
vt 0.000000 0.000000
vt 1.000000 0.000000
vt 0.000000 1.000000
vt 1.000000 1.000000
vt 0.500000 0.500000
vt 0.000000 0.500000
vt 0.500000 1.000000
vt 1.000000 0.500000
vt 0.500000 0.000000
vt 0.250000 0.750000
vt 0.750000 0.750000
vt 0.250000 0.250000
vt 0.750000 0.250000
vt 0.750000 0.000000
vt 0.250000 0.000000
vt 1.000000 0.750000
vt 1.000000 0.250000
vt 0.250000 1.000000
vt 0.750000 1.000000
vt 0.000000 0.250000
vt 0.000000 0.750000
vt 0.500000 0.250000
vt 0.250000 0.500000
vt 0.500000 0.750000
vt 0.368662 0.370007
vt 0.875000 0.375000
vt 0.625000 0.125000
vt 0.625000 0.375000
vt 0.875000 0.125000
vt 0.375000 0.125000
vt 0.125000 0.125000
vt 0.750000 0.687500
vt 0.875000 0.625000
vt 0.625000 0.625000
vt 0.875000 0.875000
vt 0.375000 0.875000
vt 0.375000 0.625000
vt 0.125000 0.875000
vt 0.125000 0.625000
vt 0.625000 0.875000
vt 0.125000 0.375000
vt 0.250000 0.125000
vt 0.875000 0.750000
vt 0.875000 0.250000
vt 0.250000 0.875000
vt 0.750000 0.875000
vt 0.125000 0.250000
vt 0.125000 0.750000
vt 0.304602 0.713891
vt 0.812500 0.875000
vt 0.750000 0.625000
vt 0.875000 0.500000
vt 0.366199 0.655906
vt 0.375000 0.750000
vt 0.000000 0.375000
vt 0.500000 0.875000
vt 0.500000 0.625000
vt 0.250000 0.375000
vt 0.125000 0.500000
vt 0.375000 0.500000
vt 0.625000 0.250000
vt 0.500000 0.125000
vt 0.500000 0.375000
vt 0.000000 0.625000
vt 0.000000 0.875000
vt 0.000000 0.125000
vt 0.625000 1.000000
vt 0.875000 1.000000
vt 0.125000 1.000000
vt 0.375000 1.000000
vt 1.000000 0.375000
vt 1.000000 0.125000
vt 1.000000 0.875000
vt 1.000000 0.625000
vt 0.375000 0.000000
vt 0.125000 0.000000
vt 0.875000 0.000000
vt 0.625000 0.000000
vt 0.750000 0.125000
vt 0.625000 0.500000
vt 0.283526 0.558220
vt 0.062500 0.312500
vt 0.187500 0.437500
vt 0.187500 0.312500
vt 0.062500 0.437500
vt 0.687500 0.937500
vt 0.687500 0.812500
vt 0.562500 0.937500
vt 0.062500 0.687500
vt 0.187500 0.687500
vt 0.062500 0.562500
vt 0.187500 0.937500
vt 0.187500 0.812500
vt 0.062500 0.937500
vt 0.437500 0.562500
vt 0.532834 0.731758
vt 0.437500 0.812500
vt 0.312500 0.812500
vt 0.437500 0.937500
vt 0.937500 0.812500
vt 0.812500 0.812500
vt 0.937500 0.937500
vt 0.701290 0.589016
vt 0.562500 0.562500
vt 0.423982 0.682326
vt 0.812500 0.562500
vt 0.812500 0.687500
vt 0.937500 0.562500
vt 0.311128 0.261404
vt 0.562409 0.313417
vt 0.437500 0.437500
vt 0.187500 0.062500
vt 0.062500 0.062500
vt 0.187500 0.187500
vt 0.312500 0.062500
vt 0.312500 0.187500
vt 0.437500 0.062500
vt 0.812500 0.062500
vt 0.937500 0.062500
vt 0.341502 0.429602
vt 0.562500 0.437500
vt 0.311052 0.496906
vt 0.562500 0.187500
vt 0.687500 0.187500
vt 0.562500 0.062500
vt 0.937500 0.312500
vt 0.812500 0.312500
vt 0.937500 0.437500
vt 0.312500 0.937500
vt 0.407242 0.320791
vt 0.812500 0.187500
vt 0.250000 0.187500
vt 0.687500 0.062500
vt 0.687500 0.437500
vt 0.937500 0.187500
vt 0.437500 0.187500
vt 0.062500 0.187500
vt 0.738934 0.505585
vt 0.937500 0.687500
vt 0.672533 0.363292
vt 0.062500 0.812500
vt 0.812500 0.937500
vt 0.187500 0.562500
vt 0.562500 0.812500
vt 0.812500 0.437500
vt 0.422969 0.250992
vt 0.261561 0.607675
vt 0.780484 0.412322
vt 0.618575 0.770072
vt 0.671986 0.653346
vt 0.502426 0.286500
vt 0.296906 0.332149
vt 0.187500 0.750000
vt 0.713437 0.300753
vt 0.750000 0.812500
vt 0.581168 0.672349
vt 0.187500 0.250000
vt 0.688844 0.757642
vt 0.394485 0.313166
vt 0.646240 0.709763
vt 0.745784 0.354241
vt 0.365347 0.220303
vn 0.075718 0.075718 0.994250
vn -0.084750 0.084750 0.992791
vn 0.079368 -0.079368 0.993681
vn -0.088058 -0.088058 0.992216
vn 0.000000 0.000000 1.000000
vn 0.229976 -0.001130 0.973196
vn -0.009915 -0.134733 0.990832
vn -0.083703 -0.001523 0.996490
vn 0.000294 0.186728 0.982412
vn -0.152152 0.249048 0.956465
vn 0.249791 0.111597 0.961848
vn -0.248576 -0.123151 0.960752
vn 0.137836 -0.211740 0.967557
vn 0.001821 0.260823 0.965385
vn 0.003312 0.278105 0.960545
vn -0.216520 0.019563 0.976082
vn -0.215644 -0.014476 0.976365
vn -0.004981 -0.248944 0.968505
vn 0.027241 -0.224084 0.974189
vn 0.242912 0.001439 0.970047
vn 0.272928 -0.003841 0.962027
vn 0.137692 -0.298061 0.944564
vn -0.282168 -0.138994 0.949243
vn -0.153381 0.268428 0.951010
vn -0.145607 -0.065008 0.987204
vn 0.208117 -0.110422 0.971851
vn 0.075724 -0.090536 0.993010
vn -0.001305 0.002258 0.999997
vn -0.057624 0.042518 0.997433
vn -0.096346 -0.193280 0.976402
vn 0.084568 0.076436 0.993482
vn 0.253040 0.152193 0.955410
vn 0.083950 0.084841 0.992852
vn -0.001033 -0.000937 0.999999
vn -0.025445 -0.020298 0.999470
vn -0.090247 0.070971 0.993387
vn 0.001472 -0.003043 0.999994
vn 0.065546 -0.064984 0.995731
vn -0.176869 0.051089 0.982907
vn 0.054630 0.230481 0.971542
vn -0.035650 -0.073197 0.996680
vn -0.114565 -0.003436 0.993410
vn 0.014407 0.056906 0.998276
vn 0.016127 -0.110579 0.993736
vn -0.052303 -0.020869 0.998413
vn 0.138707 0.054967 0.988807
vn 0.051712 -0.043515 0.997714
vn -0.031564 0.115864 0.992763
vn -0.139789 0.284461 0.948441
vn 0.049656 -0.006109 0.998748
vn 0.268250 0.144297 0.952481
vn 0.186530 0.063652 0.980385
vn -0.036840 0.087316 0.995499
vn -0.116046 0.260295 0.958530
vn 0.238970 -0.003507 0.971021
vn -0.072679 0.170630 0.982651
vn -0.000022 -0.000805 1.000000
vn -0.253765 -0.106071 0.961432
vn -0.143168 -0.048354 0.988516
vn 0.001315 0.000678 0.999999
vn 0.115687 -0.239116 0.964075
vn 0.041662 -0.176145 0.983482
vn -0.000054 0.000908 1.000000
vn 0.254050 0.013650 0.967095
vn 0.212251 -0.027693 0.976823
vn 0.195765 0.022887 0.980384
vn 0.014125 -0.142908 0.989635
vn -0.026107 -0.226027 0.973771
vn 0.025813 -0.208640 0.977652
vn -0.021845 -0.197206 0.980119
vn -0.137109 -0.025539 0.990227
vn -0.206211 0.019255 0.978318
vn -0.214772 -0.020356 0.976452
vn -0.130049 0.024727 0.991199
vn -0.025427 0.235467 0.971550
vn 0.031140 0.211872 0.976801
vn -0.024665 0.216750 0.975916
vn 0.018056 0.222769 0.974704
vn 0.045191 -0.003123 0.998973
vn -0.000485 -0.000240 1.000000
vn -0.183816 -0.091126 0.978728
vn 0.162131 -0.022073 0.986522
vn -0.160254 -0.103477 0.981637
vn -0.126574 -0.104287 0.986460
vn 0.084805 -0.021018 0.996176
vn 0.060200 -0.016220 0.998055
vn 0.251525 0.142151 0.957355
vn -0.014757 0.030207 0.999435
vn 0.102659 0.040408 0.993896
vn -0.169366 0.231869 0.957889
vn 0.040024 0.001855 0.999197
vn 0.012326 -0.178929 0.983785
vn -0.049585 0.064915 0.996658
vn 0.096810 -0.097768 0.990489
vn -0.000000 0.000000 1.000000
vn -0.107174 0.183851 0.977094
vn -0.115478 0.184395 0.976045
vn -0.123656 0.159324 0.979451
vn -0.035529 -0.041132 0.998522
vn -0.137762 0.001729 0.990464
vn 0.094465 0.039075 0.994761
vn -0.092856 -0.089984 0.991605
vn 0.167931 0.081579 0.982418
vn -0.000000 -0.000174 1.000000
vn -0.066645 0.154127 0.985801
vn 0.223768 0.118200 0.967449
vn 0.166927 0.122468 0.978334
vn -0.013510 0.033083 0.999361
vn -0.294886 -0.121554 0.947769
vn 0.060656 -0.142325 0.987960
vn 0.000656 0.000401 1.000000
vn 0.020652 0.181130 0.983242
vn 0.097510 0.093278 0.990854
vn -0.051206 -0.021073 0.998466
vn -0.052622 0.107704 0.992789
vn -0.257642 -0.147649 0.954893
vn -0.014639 0.019677 0.999699
vn -0.014265 0.164249 0.986316
vn -0.094810 0.091997 0.991235
vn -0.127029 -0.053091 0.990477
vn 0.000000 -0.000000 1.000000
vn -0.166072 -0.074153 0.983322
vn 0.101625 -0.186216 0.977239
vn 0.107882 -0.149827 0.982809
vn 0.028138 0.052233 0.998238
vn -0.036915 -0.074297 0.996553
vn 0.119999 -0.257241 0.958868
vn 0.050791 -0.001856 0.998708
vn -0.039677 -0.131612 0.990507
vn 0.004161 0.001982 0.999989
vn 0.029338 -0.068532 0.997217
vn -0.219587 -0.075452 0.972671
vn 0.030695 0.129662 0.991083
vn -0.001205 0.000427 0.999999
vn -0.150984 -0.001822 0.988535
vn -0.001729 -0.274475 0.961593
vn 0.188658 0.019455 0.981850
vn 0.126558 0.058826 0.990213
vn -0.094544 0.042076 0.994631
vn 0.057368 -0.126595 0.990294
vn 0.173132 -0.014655 0.984790
vn 0.020162 -0.104065 0.994366
vn -0.248859 -0.054939 0.966980
vn -0.099527 0.248059 0.963619
vn 0.274699 0.074427 0.958645
vn -0.065953 -0.200594 0.977452
vn -0.192908 0.023642 0.980932
vn 0.192280 -0.058950 0.979568
vn 0.122979 0.158158 0.979725
vn 0.129457 0.058996 0.989828
vn 0.097665 -0.217887 0.971075
vn -0.282504 -0.110220 0.952913
vn -0.098958 0.219862 0.970499
vn 0.148539 -0.279831 0.948489
vn 0.222979 0.078527 0.971655
vn -0.000075 -0.001118 0.999999
vn -0.094217 -0.088999 0.991566
vn 0.303790 0.127746 0.944136
vn -0.039301 -0.016840 0.999085
vn 0.168635 0.078215 0.982570
vn 0.145689 -0.309442 0.939692
vn -0.217354 -0.198493 0.955698
f 1/1/1 113/113/113 66/66/66
f 31/31/31 137/137/137 113/113/113
f 145/145/145 148/148/148 26/26/26
f 112/112/112 31/31/31 113/113/113
f 138/138/138 145/145/145 106/106/106
f 106/106/106 52/52/52 33/33/33
f 147/147/147 143/143/143 81/81/81
f 84/84/84 41/41/41 47/47/47
f 137/137/137 66/66/66 113/113/113
f 75/75/75 115/115/115 15/15/15
f 12/12/12 152/152/152 84/84/84
f 50/50/50 35/35/35 142/142/142
f 25/25/25 120/120/120 152/152/152
f 76/76/76 113/113/113 1/1/1
f 76/76/76 112/112/112 113/113/113
f 15/15/15 112/112/112 76/76/76
f 115/115/115 112/112/112 15/15/15
f 30/30/30 115/115/115 117/117/117
f 108/108/108 33/33/33 52/52/52
f 75/75/75 117/117/117 115/115/115
f 115/115/115 30/30/30 42/42/42
f 46/46/46 50/50/50 142/142/142
f 51/51/51 150/150/150 103/103/103
f 136/136/136 162/162/162 30/30/30
f 122/122/122 23/23/23 120/120/120
f 54/54/54 98/98/98 49/49/49
f 42/42/42 112/112/112 115/115/115
f 58/58/58 84/84/84 152/152/152
f 13/13/13 154/154/154 124/124/124
f 60/60/60 120/120/120 111/111/111
f 53/53/53 147/147/147 37/37/37
f 127/127/127 26/26/26 148/148/148
f 101/101/101 43/43/43 35/35/35
f 104/104/104 80/80/80 34/34/34
f 10/10/10 49/49/49 98/98/98
f 83/83/83 58/58/58 23/23/23
f 49/49/49 53/53/53 54/54/54
f 117/117/117 62/62/62 30/30/30
f 150/150/150 32/32/32 160/160/160
f 62/62/62 123/123/123 136/136/136
f 77/77/77 2/2/2 119/119/119
f 77/77/77 119/119/119 118/118/118
f 71/71/71 128/128/128 126/126/126
f 58/58/58 152/152/152 120/120/120
f 63/63/63 28/28/28 121/121/121
f 119/119/119 29/29/29 118/118/118
f 159/159/159 146/146/146 130/130/130
f 125/125/125 27/27/27 62/62/62
f 135/135/135 72/72/72 17/17/17
f 136/136/136 30/30/30 62/62/62
f 58/58/58 120/120/120 23/23/23
f 60/60/60 122/122/122 120/120/120
f 127/127/127 44/44/44 26/26/26
f 11/11/11 32/32/32 107/107/107
f 161/161/161 154/154/154 127/127/127
f 150/150/150 160/160/160 34/34/34
f 22/22/22 146/146/146 136/136/136
f 63/63/63 130/130/130 151/151/151
f 145/145/145 138/138/138 148/148/148
f 154/154/154 140/140/140 61/61/61
f 82/82/82 47/47/47 41/41/41
f 45/45/45 98/98/98 36/36/36
f 82/82/82 137/137/137 47/47/47
f 61/61/61 124/124/124 154/154/154
f 26/26/26 126/126/126 128/128/128
f 62/62/62 117/117/117 125/125/125
f 20/20/20 137/137/137 82/82/82
f 38/38/38 92/92/92 94/94/94
f 20/20/20 66/66/66 137/137/137
f 55/55/55 20/20/20 82/82/82
f 69/69/69 94/94/94 92/92/92
f 143/143/143 90/90/90 39/39/39
f 8/8/8 108/108/108 128/128/128
f 141/141/141 48/48/48 38/38/38
f 24/24/24 144/144/144 97/97/97
f 65/65/65 141/141/141 94/94/94
f 114/114/114 31/31/31 42/42/42
f 38/38/38 94/94/94 141/141/141
f 92/92/92 18/18/18 69/69/69
f 97/97/97 54/54/54 24/24/24
f 151/151/151 110/110/110 63/63/63
f 11/11/11 107/107/107 101/101/101
f 29/29/29 119/119/119 135/135/135
f 143/143/143 59/59/59 83/83/83
f 153/153/153 90/90/90 10/10/10
f 43/43/43 101/101/101 107/107/107
f 129/129/129 45/45/45 36/36/36
f 27/27/27 124/124/124 123/123/123
f 85/85/85 41/41/41 59/59/59
f 78/78/78 125/125/125 9/9/9
f 70/70/70 129/129/129 99/99/99
f 83/83/83 59/59/59 41/41/41
f 129/129/129 70/70/70 18/18/18
f 36/36/36 99/99/99 129/129/129
f 93/93/93 38/38/38 48/48/48
f 38/38/38 45/45/45 92/92/92
f 52/52/52 128/128/128 108/108/108
f 65/65/65 94/94/94 3/3/3
f 72/72/72 135/135/135 119/119/119
f 94/94/94 69/69/69 3/3/3
f 39/39/39 90/90/90 48/48/48
f 21/21/21 141/141/141 65/65/65
f 18/18/18 92/92/92 129/129/129
f 6/6/6 91/91/91 64/64/64
f 105/105/105 24/24/24 54/54/54
f 93/93/93 45/45/45 38/38/38
f 89/89/89 39/39/39 48/48/48
f 13/13/13 124/124/124 131/131/131
f 45/45/45 129/129/129 92/92/92
f 9/9/9 125/125/125 117/117/117
f 64/64/64 89/89/89 21/21/21
f 55/55/55 82/82/82 85/85/85
f 6/6/6 85/85/85 91/91/91
f 59/59/59 91/91/91 85/85/85
f 41/41/41 85/85/85 82/82/82
f 6/6/6 55/55/55 85/85/85
f 23/23/23 143/143/143 83/83/83
f 59/59/59 39/39/39 91/91/91
f 148/148/148 134/134/134 140/140/140
f 143/143/143 39/39/39 59/59/59
f 118/118/118 29/29/29 79/79/79
f 29/29/29 44/44/44 131/131/131
f 134/134/134 148/148/148 138/138/138
f 58/58/58 83/83/83 84/84/84
f 119/119/119 2/2/2 72/72/72
f 44/44/44 126/126/126 26/26/26
f 11/11/11 158/158/158 32/32/32
f 138/138/138 103/103/103 80/80/80
f 10/10/10 98/98/98 93/93/93
f 21/21/21 89/89/89 141/141/141
f 105/105/105 53/53/53 37/37/37
f 51/51/51 32/32/32 150/150/150
f 79/79/79 133/133/133 118/118/118
f 118/118/118 133/133/133 14/14/14
f 79/79/79 131/131/131 124/124/124
f 100/100/100 35/35/35 43/43/43
f 90/90/90 153/153/153 48/48/48
f 48/48/48 141/141/141 89/89/89
f 78/78/78 133/133/133 125/125/125
f 62/62/62 27/27/27 123/123/123
f 37/37/37 147/147/147 81/81/81
f 10/10/10 90/90/90 49/49/49
f 12/12/12 157/157/157 132/132/132
f 156/156/156 34/34/34 160/160/160
f 5/5/5 95/95/95 111/111/111
f 110/110/110 151/151/151 22/22/22
f 57/57/57 37/37/37 95/95/95
f 37/37/37 57/57/57 105/105/105
f 27/27/27 125/125/125 133/133/133
f 121/121/121 5/5/5 111/111/111
f 151/151/151 146/146/146 22/22/22
f 123/123/123 22/22/22 136/136/136
f 17/17/17 126/126/126 135/135/135
f 41/41/41 84/84/84 83/83/83
f 53/53/53 49/49/49 147/147/147
f 60/60/60 111/111/111 95/95/95
f 28/28/28 134/134/134 80/80/80
f 104/104/104 95/95/95 5/5/5
f 28/28/28 140/140/140 134/134/134
f 24/24/24 105/105/105 96/96/96
f 57/57/57 95/95/95 104/104/104
f 24/24/24 96/96/96 144/144/144
f 132/132/132 42/42/42 116/116/116
f 12/12/12 132/132/132 116/116/116
f 45/45/45 93/93/93 98/98/98
f 110/110/110 28/28/28 63/63/63
f 106/106/106 103/103/103 138/138/138
f 9/9/9 117/117/117 75/75/75
f 26/26/26 128/128/128 52/52/52
f 54/54/54 97/97/97 98/98/98
f 146/146/146 151/151/151 130/130/130
f 123/123/123 61/61/61 22/22/22
f 99/99/99 36/36/36 56/56/56
f 80/80/80 104/104/104 5/5/5
f 135/135/135 44/44/44 29/29/29
f 126/126/126 17/17/17 71/71/71
f 109/109/109 12/12/12 116/116/116
f 148/148/148 161/161/161 127/127/127
f 144/144/144 149/149/149 40/40/40
f 103/103/103 150/150/150 34/34/34
f 36/36/36 98/98/98 97/97/97
f 60/60/60 81/81/81 122/122/122
f 96/96/96 156/156/156 149/149/149
f 122/122/122 81/81/81 23/23/23
f 158/158/158 160/160/160 32/32/32
f 84/84/84 157/157/157 12/12/12
f 120/120/120 25/25/25 111/111/111
f 12/12/12 109/109/109 152/152/152
f 14/14/14 133/133/133 78/78/78
f 140/140/140 110/110/110 61/61/61
f 107/107/107 106/106/106 33/33/33
f 44/44/44 135/135/135 126/126/126
f 51/51/51 103/103/103 106/106/106
f 34/34/34 156/156/156 104/104/104
f 57/57/57 104/104/104 156/156/156
f 121/121/121 80/80/80 5/5/5
f 63/63/63 121/121/121 111/111/111
f 121/121/121 28/28/28 80/80/80
f 77/77/77 118/118/118 14/14/14
f 52/52/52 106/106/106 145/145/145
f 103/103/103 34/34/34 80/80/80
f 131/131/131 79/79/79 29/29/29
f 13/13/13 131/131/131 127/127/127
f 157/157/157 84/84/84 47/47/47
f 124/124/124 27/27/27 79/79/79
f 139/139/139 33/33/33 108/108/108
f 107/107/107 33/33/33 43/43/43
f 133/133/133 79/79/79 27/27/27
f 44/44/44 127/127/127 131/131/131
f 139/139/139 43/43/43 33/33/33
f 11/11/11 155/155/155 158/158/158
f 96/96/96 105/105/105 57/57/57
f 140/140/140 28/28/28 110/110/110
f 51/51/51 106/106/106 107/107/107
f 50/50/50 46/46/46 101/101/101
f 97/97/97 56/56/56 36/36/36
f 86/86/86 46/46/46 142/142/142
f 112/112/112 42/42/42 31/31/31
f 40/40/40 46/46/46 86/86/86
f 74/74/74 139/139/139 108/108/108
f 100/100/100 43/43/43 139/139/139
f 137/137/137 31/31/31 47/47/47
f 114/114/114 47/47/47 31/31/31
f 88/88/88 40/40/40 86/86/86
f 16/16/16 100/100/100 139/139/139
f 102/102/102 35/35/35 100/100/100
f 68/68/68 142/142/142 102/102/102
f 88/88/88 99/99/99 56/56/56
f 142/142/142 35/35/35 102/102/102
f 53/53/53 105/105/105 54/54/54
f 95/95/95 37/37/37 60/60/60
f 19/19/19 86/86/86 142/142/142
f 88/88/88 56/56/56 40/40/40
f 144/144/144 40/40/40 56/56/56
f 96/96/96 149/149/149 144/144/144
f 81/81/81 60/60/60 37/37/37
f 87/87/87 46/46/46 40/40/40
f 110/110/110 22/22/22 61/61/61
f 87/87/87 155/155/155 46/46/46
f 144/144/144 56/56/56 97/97/97
f 23/23/23 81/81/81 143/143/143
f 64/64/64 91/91/91 89/89/89
f 156/156/156 96/96/96 57/57/57
f 67/67/67 88/88/88 86/86/86
f 7/7/7 99/99/99 88/88/88
f 7/7/7 70/70/70 99/99/99
f 67/67/67 7/7/7 88/88/88
f 19/19/19 67/67/67 86/86/86
f 68/68/68 19/19/19 142/142/142
f 73/73/73 102/102/102 100/100/100
f 4/4/4 68/68/68 102/102/102
f 73/73/73 4/4/4 102/102/102
f 16/16/16 73/73/73 100/100/100
f 74/74/74 16/16/16 139/139/139
f 8/8/8 74/74/74 108/108/108
f 39/39/39 89/89/89 91/91/91
f 153/153/153 93/93/93 48/48/48
f 116/116/116 42/42/42 30/30/30
f 134/134/134 138/138/138 80/80/80
f 61/61/61 123/123/123 124/124/124
f 145/145/145 26/26/26 52/52/52
f 87/87/87 40/40/40 149/149/149
f 128/128/128 71/71/71 8/8/8
f 111/111/111 25/25/25 130/130/130
f 32/32/32 51/51/51 107/107/107
f 42/42/42 132/132/132 114/114/114
f 114/114/114 132/132/132 157/157/157
f 147/147/147 49/49/49 90/90/90
f 25/25/25 152/152/152 159/159/159
f 155/155/155 101/101/101 46/46/46
f 35/35/35 50/50/50 101/101/101
f 147/147/147 90/90/90 143/143/143
f 101/101/101 155/155/155 11/11/11
f 25/25/25 159/159/159 130/130/130
f 93/93/93 153/153/153 10/10/10
f 154/154/154 13/13/13 127/127/127
f 114/114/114 157/157/157 47/47/47
f 111/111/111 130/130/130 63/63/63
f 149/149/149 158/158/158 87/87/87
f 109/109/109 159/159/159 152/152/152
f 116/116/116 30/30/30 162/162/162
f 87/87/87 158/158/158 155/155/155
f 149/149/149 160/160/160 158/158/158
f 160/160/160 149/149/149 156/156/156
f 154/154/154 161/161/161 140/140/140
f 161/161/161 148/148/148 140/140/140
f 146/146/146 162/162/162 136/136/136
f 116/116/116 162/162/162 109/109/109
f 109/109/109 162/162/162 159/159/159
f 146/146/146 159/159/159 162/162/162
