# frame 000160 
# time 0.080500 
# name Cloth3D 
v -0.000000 0.000000 -0.000000
v 1.000000 0.000000 -0.000000
v -0.000000 1.000000 0.000000
v 1.000000 1.000000 0.000000
v 0.499062 0.499743 0.035034
v -0.000000 0.500000 0.000000
v 0.500000 1.000000 0.000000
v 1.000000 0.500000 0.000000
v 0.500000 -0.000000 0.000000
v 0.249283 0.749764 -0.008259
v 0.748905 0.750340 -0.001980
v 0.250303 0.249512 -0.013241
v 0.750022 0.250561 -0.006668
v 0.750000 0.000000 0.000000
v 0.250000 0.000000 0.000000
v 1.000000 0.750000 0.000000
v 1.000000 0.250000 0.000000
v 0.250000 1.000000 0.000000
v 0.750000 1.000000 0.000000
v 0.000000 0.250000 0.000000
v 0.000000 0.750000 -0.000000
v 0.498233 0.247662 0.022442
v 0.248766 0.501245 0.014550
v 0.500551 0.751749 0.023304
v 0.363869 0.366744 0.035186
v 0.877534 0.373717 0.006717
v 0.624130 0.124972 -0.013644
v 0.626188 0.372419 0.035034
v 0.875507 0.124696 -0.021532
v 0.374142 0.123257 -0.006068
v 0.124446 0.124318 -0.022793
v 0.749732 0.687828 0.007514
v 0.874363 0.624208 -0.008166
v 0.626556 0.626648 0.035034
v 0.875188 0.875530 -0.019961
v 0.375536 0.875049 -0.012041
v 0.371912 0.627354 0.035034
v 0.124253 0.875681 -0.023535
v 0.123427 0.625668 -0.007659
v 0.625718 0.877396 0.005191
v 0.125001 0.375727 -0.017265
v 0.250259 0.123760 -0.025589
v 0.874680 0.749525 -0.019220
v 0.875518 0.250748 -0.019451
v 0.250397 0.875435 -0.024756
v 0.749743 0.875849 -0.013433
v 0.124455 0.250383 -0.026993
v 0.123946 0.749784 -0.023894
v 0.302383 0.715395 0.012922
v 0.812156 0.875825 -0.020387
v 0.750736 0.625197 0.016647
v 0.874917 0.498841 0.000405
v 0.362548 0.660103 0.035186
v 0.374460 0.750192 0.008117
v 0.000000 0.375000 0.000000
v 0.500765 0.875215 -0.003536
v 0.499397 0.626929 0.035035
v 0.249918 0.375025 0.001292
v 0.124419 0.500756 -0.009360
v 0.371930 0.500027 0.035035
v 0.624352 0.249941 0.007069
v 0.499150 0.124135 -0.004852
v 0.498807 0.372462 0.035035
v 0.000000 0.625000 0.000000
v 0.000000 0.875000 0.000000
v 0.000000 0.125000 0.000000
v 0.625000 1.000000 0.000000
v 0.875000 1.000000 0.000000
v 0.125000 1.000000 0.000000
v 0.375000 1.000000 0.000000
v 1.000000 0.375000 0.000000
v 1.000000 0.125000 0.000000
v 1.000000 0.875000 0.000000
v 1.000000 0.625000 0.000000
v 0.375000 0.000000 0.000000
v 0.125000 0.000000 0.000000
v 0.875000 0.000000 0.000000
v 0.625000 0.000000 0.000000
v 0.749428 0.124829 -0.024305
v 0.626299 0.499411 0.035035
v 0.281270 0.560819 0.035179
v 0.061787 0.312712 -0.014814
v 0.187686 0.438468 -0.005372
v 0.188300 0.313177 -0.020177
v 0.061446 0.437802 -0.015469
v 0.687355 0.938624 -0.013541
v 0.688173 0.814582 0.008269
v 0.562744 0.937988 -0.010329
v 0.060570 0.687575 -0.018044
v 0.184718 0.689416 0.001687
v 0.061165 0.562704 -0.015826
v 0.187416 0.938465 -0.016285
v 0.187396 0.812186 -0.027846
v 0.062205 0.937809 -0.009179
v 0.435556 0.563551 0.035035
v 0.534110 0.733106 0.035179
v 0.438123 0.812464 0.001714
v 0.312845 0.811941 -0.013308
v 0.437933 0.938047 -0.012456
v 0.938513 0.812503 -0.017158
v 0.811483 0.812461 -0.020120
v 0.937863 0.937896 -0.010075
v 0.703253 0.589508 0.035179
v 0.562826 0.563181 0.035035
v 0.422120 0.685433 0.035179
v 0.812065 0.561299 0.006016
v 0.811312 0.686932 -0.007443
v 0.937430 0.561988 -0.008298
v 0.308885 0.259047 0.009112
v 0.562028 0.310793 0.035179
v 0.435402 0.436147 0.035035
v 0.187315 0.061163 -0.017098
v 0.062210 0.062219 -0.009101
v 0.187684 0.187224 -0.031062
v 0.312464 0.060452 -0.018409
v 0.310826 0.185503 -0.002955
v 0.437289 0.061362 -0.014077
v 0.812483 0.061615 -0.016360
v 0.937854 0.062155 -0.009943
v 0.337727 0.428191 0.035179
v 0.562569 0.436015 0.035035
v 0.308234 0.497473 0.035179
v 0.561306 0.187242 0.000900
v 0.686816 0.187954 -0.011422
v 0.562109 0.061617 -0.013911
v 0.938720 0.312617 -0.013828
v 0.813466 0.312840 -0.000591
v 0.937735 0.437179 -0.008551
v 0.312763 0.938571 -0.016024
v 0.404266 0.316875 0.035108
v 0.812304 0.188244 -0.024931
v 0.250290 0.186767 -0.020888
v 0.687168 0.061549 -0.015974
v 0.689990 0.435712 0.035035
v 0.938732 0.187513 -0.016809
v 0.435842 0.184919 0.012339
v 0.061882 0.187491 -0.014876
v 0.739703 0.503882 0.035179
v 0.937899 0.687075 -0.013431
v 0.675204 0.358972 0.035179
v 0.061243 0.812715 -0.016734
v 0.812508 0.939247 -0.018813
v 0.186003 0.563844 0.005897
v 0.563657 0.814804 0.016898
v 0.815000 0.435474 0.021329
v 0.414357 0.247715 0.035192
v 0.257723 0.615624 0.035192
v 0.782278 0.404376 0.035192
v 0.625624 0.772277 0.035192
v 0.675089 0.655669 0.035179
v 0.500386 0.284553 0.035179
v 0.295863 0.330920 0.009895
v 0.186793 0.749520 -0.017938
v 0.714420 0.299919 0.012352
v 0.749365 0.813159 -0.007807
v 0.582217 0.675038 0.035107
v 0.187891 0.250203 -0.024804
v 0.689475 0.759814 0.015940
v 0.388769 0.308043 0.035189
vt 0.000000 0.000000
vt 1.000000 0.000000
vt 0.000000 1.000000
vt 1.000000 1.000000
vt 0.500000 0.500000
vt 0.000000 0.500000
vt 0.500000 1.000000
vt 1.000000 0.500000
vt 0.500000 0.000000
vt 0.250000 0.750000
vt 0.750000 0.750000
vt 0.250000 0.250000
vt 0.750000 0.250000
vt 0.750000 0.000000
vt 0.250000 0.000000
vt 1.000000 0.750000
vt 1.000000 0.250000
vt 0.250000 1.000000
vt 0.750000 1.000000
vt 0.000000 0.250000
vt 0.000000 0.750000
vt 0.500000 0.250000
vt 0.250000 0.500000
vt 0.500000 0.750000
vt 0.367265 0.369390
vt 0.875000 0.375000
vt 0.625000 0.125000
vt 0.625000 0.375000
vt 0.875000 0.125000
vt 0.375000 0.125000
vt 0.125000 0.125000
vt 0.750000 0.687500
vt 0.875000 0.625000
vt 0.625000 0.625000
vt 0.875000 0.875000
vt 0.375000 0.875000
vt 0.375000 0.625000
vt 0.125000 0.875000
vt 0.125000 0.625000
vt 0.625000 0.875000
vt 0.125000 0.375000
vt 0.250000 0.125000
vt 0.875000 0.750000
vt 0.875000 0.250000
vt 0.250000 0.875000
vt 0.750000 0.875000
vt 0.125000 0.250000
vt 0.125000 0.750000
vt 0.304602 0.713891
vt 0.812500 0.875000
vt 0.750000 0.625000
vt 0.875000 0.500000
vt 0.365635 0.657176
vt 0.375000 0.750000
vt 0.000000 0.375000
vt 0.500000 0.875000
vt 0.500000 0.625000
vt 0.250000 0.375000
vt 0.125000 0.500000
vt 0.375000 0.500000
vt 0.625000 0.250000
vt 0.500000 0.125000
vt 0.500000 0.375000
vt 0.000000 0.625000
vt 0.000000 0.875000
vt 0.000000 0.125000
vt 0.625000 1.000000
vt 0.875000 1.000000
vt 0.125000 1.000000
vt 0.375000 1.000000
vt 1.000000 0.375000
vt 1.000000 0.125000
vt 1.000000 0.875000
vt 1.000000 0.625000
vt 0.375000 0.000000
vt 0.125000 0.000000
vt 0.875000 0.000000
vt 0.625000 0.000000
vt 0.750000 0.125000
vt 0.625000 0.500000
vt 0.286089 0.559327
vt 0.062500 0.312500
vt 0.187500 0.437500
vt 0.187500 0.312500
vt 0.062500 0.437500
vt 0.687500 0.937500
vt 0.687500 0.812500
vt 0.562500 0.937500
vt 0.062500 0.687500
vt 0.187500 0.687500
vt 0.062500 0.562500
vt 0.187500 0.937500
vt 0.187500 0.812500
vt 0.062500 0.937500
vt 0.437500 0.562500
vt 0.533783 0.729584
vt 0.437500 0.812500
vt 0.312500 0.812500
vt 0.437500 0.937500
vt 0.937500 0.812500
vt 0.812500 0.812500
vt 0.937500 0.937500
vt 0.700646 0.588732
vt 0.562500 0.562500
vt 0.423966 0.682362
vt 0.812500 0.562500
vt 0.812500 0.687500
vt 0.937500 0.562500
vt 0.311128 0.261404
vt 0.562038 0.314267
vt 0.437500 0.437500
vt 0.187500 0.062500
vt 0.062500 0.062500
vt 0.187500 0.187500
vt 0.312500 0.062500
vt 0.312500 0.187500
vt 0.437500 0.062500
vt 0.812500 0.062500
vt 0.937500 0.062500
vt 0.341291 0.429509
vt 0.562500 0.437500
vt 0.312278 0.497441
vt 0.562500 0.187500
vt 0.687500 0.187500
vt 0.562500 0.062500
vt 0.937500 0.312500
vt 0.812500 0.312500
vt 0.937500 0.437500
vt 0.312500 0.937500
vt 0.407242 0.320791
vt 0.812500 0.187500
vt 0.250000 0.187500
vt 0.687500 0.062500
vt 0.687500 0.437500
vt 0.937500 0.187500
vt 0.437500 0.187500
vt 0.062500 0.187500
vt 0.736606 0.504571
vt 0.937500 0.687500
vt 0.673155 0.361880
vt 0.062500 0.812500
vt 0.812500 0.937500
vt 0.187500 0.562500
vt 0.562500 0.812500
vt 0.812500 0.437500
vt 0.417506 0.253385
vt 0.263728 0.612875
vt 0.777791 0.407063
vt 0.623363 0.767462
vt 0.672670 0.653648
vt 0.501515 0.288604
vt 0.296906 0.332149
vt 0.187500 0.750000
vt 0.713437 0.300753
vt 0.750000 0.812500
vt 0.581168 0.672349
vt 0.187500 0.250000
vt 0.688844 0.757642
vt 0.392049 0.312088
vn 0.072330 0.072330 0.994755
vn -0.078646 0.078646 0.993796
vn 0.072586 -0.072586 0.994717
vn -0.079459 -0.079459 0.993666
vn 0.000000 0.000000 1.000000
vn 0.248413 0.002064 0.968652
vn -0.008101 -0.186581 0.982406
vn -0.140243 -0.001063 0.990116
vn -0.001143 0.226055 0.974114
vn -0.156628 0.259786 0.952879
vn 0.262793 0.115441 0.957921
vn -0.250580 -0.110705 0.961745
vn 0.136761 -0.224519 0.964825
vn 0.001452 0.252037 0.967716
vn 0.005975 0.279689 0.960072
vn -0.242435 0.014035 0.970066
vn -0.245544 -0.011038 0.969323
vn -0.000475 -0.254157 0.967163
vn 0.019657 -0.259250 0.965610
vn 0.231867 -0.000457 0.972748
vn 0.274009 -0.005818 0.961709
vn 0.130264 -0.305084 0.943374
vn -0.291245 -0.129751 0.947809
vn -0.148132 0.285060 0.946994
vn -0.148291 -0.062656 0.986957
vn 0.215528 -0.092968 0.972062
vn 0.066110 -0.073521 0.995100
vn -0.001237 0.002209 0.999997
vn -0.067882 0.062238 0.995750
vn -0.077234 -0.164921 0.983278
vn 0.097956 0.086772 0.991401
vn 0.263360 0.142473 0.954119
vn 0.079029 0.074511 0.994084
vn -0.001054 -0.001365 0.999999
vn -0.043934 -0.033523 0.998472
vn -0.077247 0.065524 0.994857
vn 0.001354 -0.002886 0.999995
vn 0.082448 -0.083903 0.993057
vn -0.162343 0.039041 0.985962
vn 0.041145 0.235345 0.971041
vn -0.015740 -0.061801 0.997964
vn -0.113818 -0.007370 0.993474
vn 0.011059 0.055686 0.998387
vn 0.019913 -0.110634 0.993662
vn -0.052154 -0.037127 0.997949
vn 0.144673 0.061375 0.987574
vn 0.060132 -0.043043 0.997262
vn -0.029938 0.117770 0.992590
vn -0.123530 0.284947 0.950550
vn 0.052808 -0.011669 0.998537
vn 0.276516 0.122751 0.953137
vn 0.172452 0.060328 0.983169
vn -0.034145 0.092254 0.995150
vn -0.098477 0.269048 0.958079
vn 0.237694 0.003492 0.971334
vn -0.068808 0.161847 0.984414
vn -0.000020 -0.000816 1.000000
vn -0.258308 -0.102208 0.960641
vn -0.122268 -0.040539 0.991669
vn 0.001349 0.000668 0.999999
vn 0.101860 -0.248458 0.963272
vn 0.037965 -0.160427 0.986317
vn -0.000062 0.000934 1.000000
vn 0.268750 0.008545 0.963172
vn 0.204290 -0.030376 0.978439
vn 0.188717 0.022696 0.981769
vn 0.012956 -0.195913 0.980536
vn -0.035738 -0.228210 0.972956
vn 0.028344 -0.200324 0.979320
vn -0.013150 -0.227984 0.973576
vn -0.183278 -0.020917 0.982839
vn -0.212067 0.028316 0.976845
vn -0.214245 -0.028622 0.976361
vn -0.177111 0.019668 0.983994
vn -0.016353 0.259747 0.965538
vn 0.031901 0.206776 0.977868
vn -0.025248 0.206051 0.978216
vn 0.006574 0.236648 0.971573
vn 0.042918 0.019200 0.998894
vn -0.000499 -0.000246 1.000000
vn -0.187494 -0.086100 0.978485
vn 0.176453 -0.017357 0.984156
vn -0.168563 -0.092307 0.981359
vn -0.132517 -0.088960 0.987181
vn 0.109557 -0.012744 0.993899
vn 0.053880 -0.036239 0.997890
vn 0.246335 0.163154 0.955353
vn -0.016129 0.003122 0.999865
vn 0.129964 0.033534 0.990951
vn -0.193387 0.216562 0.956923
vn 0.072634 0.001629 0.997357
vn 0.016438 -0.191994 0.981258
vn -0.058040 0.078519 0.995222
vn 0.097786 -0.098804 0.990291
vn -0.000000 0.000000 1.000000
vn -0.102030 0.192098 0.976058
vn -0.105273 0.185912 0.976911
vn -0.114233 0.168657 0.979033
vn -0.027521 -0.065598 0.997467
vn -0.157517 -0.005913 0.987499
vn 0.105187 0.050255 0.993182
vn -0.098035 -0.094513 0.990685
vn 0.166243 0.068503 0.983703
vn -0.000000 -0.000174 1.000000
vn -0.065102 0.159545 0.985042
vn 0.220877 0.101871 0.969967
vn 0.182356 0.116003 0.976365
vn -0.033714 0.026084 0.999091
vn -0.305656 -0.112659 0.945454
vn 0.059119 -0.145097 0.987650
vn 0.000645 0.000396 1.000000
vn 0.025014 0.192912 0.980897
vn 0.097857 0.093189 0.990828
vn -0.071003 -0.042559 0.996568
vn -0.044071 0.130010 0.990533
vn -0.237808 -0.159064 0.958199
vn -0.010819 0.047435 0.998816
vn -0.017699 0.182952 0.982962
vn -0.095318 0.096845 0.990725
vn -0.128621 -0.050878 0.990388
vn 0.000000 -0.000000 1.000000
vn -0.165851 -0.070110 0.983655
vn 0.094734 -0.189056 0.977386
vn 0.097375 -0.165608 0.981373
vn 0.020487 0.077511 0.996781
vn -0.054279 -0.068469 0.996176
vn 0.134746 -0.247439 0.959488
vn 0.025357 0.003081 0.999674
vn -0.031914 -0.148208 0.988441
vn 0.003462 0.001619 0.999993
vn 0.028693 -0.080745 0.996322
vn -0.223147 -0.097421 0.969904
vn 0.025256 0.153186 0.987875
vn -0.001212 0.000365 0.999999
vn -0.164207 0.004485 0.986416
vn 0.020776 -0.277990 0.960359
vn 0.197106 0.019386 0.980191
vn 0.140141 0.059002 0.988372
vn -0.110763 0.039377 0.993066
vn 0.041225 -0.105394 0.993576
vn 0.189607 -0.019305 0.981670
vn 0.014437 -0.127113 0.991783
vn -0.255235 -0.057793 0.965150
vn -0.107816 0.252050 0.961689
vn 0.288298 0.102816 0.952005
vn -0.036352 -0.183918 0.982269
vn -0.194143 0.029521 0.980529
vn 0.210237 -0.019201 0.977462
vn 0.109908 0.174432 0.978516
vn 0.128613 0.057491 0.990027
vn 0.090558 -0.213442 0.972750
vn -0.285710 -0.096793 0.953415
vn -0.123547 0.236173 0.963825
vn 0.131772 -0.269266 0.954008
vn 0.232385 0.095797 0.967895
vn -0.000240 -0.001170 0.999999
vn -0.109923 -0.084596 0.990333
vn 0.295835 0.131085 0.946202
vn -0.043827 -0.016314 0.998906
f 1/1/1 113/113/113 66/66/66
f 31/31/31 137/137/137 113/113/113
f 145/145/145 148/148/148 26/26/26
f 112/112/112 31/31/31 113/113/113
f 138/138/138 145/145/145 106/106/106
f 106/106/106 52/52/52 33/33/33
f 147/147/147 143/143/143 81/81/81
f 84/84/84 41/41/41 47/47/47
f 137/137/137 66/66/66 113/113/113
f 75/75/75 115/115/115 15/15/15
f 12/12/12 152/152/152 84/84/84
f 50/50/50 35/35/35 142/142/142
f 25/25/25 120/120/120 152/152/152
f 76/76/76 113/113/113 1/1/1
f 76/76/76 112/112/112 113/113/113
f 15/15/15 112/112/112 76/76/76
f 115/115/115 112/112/112 15/15/15
f 30/30/30 115/115/115 117/117/117
f 108/108/108 33/33/33 52/52/52
f 75/75/75 117/117/117 115/115/115
f 115/115/115 30/30/30 42/42/42
f 46/46/46 50/50/50 142/142/142
f 51/51/51 150/150/150 103/103/103
f 116/116/116 30/30/30 136/136/136
f 122/122/122 23/23/23 120/120/120
f 54/54/54 98/98/98 49/49/49
f 42/42/42 112/112/112 115/115/115
f 58/58/58 84/84/84 152/152/152
f 13/13/13 154/154/154 124/124/124
f 60/60/60 120/120/120 111/111/111
f 53/53/53 147/147/147 37/37/37
f 127/127/127 26/26/26 148/148/148
f 101/101/101 43/43/43 35/35/35
f 104/104/104 80/80/80 34/34/34
f 10/10/10 49/49/49 98/98/98
f 83/83/83 58/58/58 23/23/23
f 49/49/49 53/53/53 54/54/54
f 117/117/117 62/62/62 30/30/30
f 132/132/132 12/12/12 114/114/114
f 62/62/62 123/123/123 136/136/136
f 77/77/77 2/2/2 119/119/119
f 77/77/77 119/119/119 118/118/118
f 71/71/71 128/128/128 126/126/126
f 58/58/58 152/152/152 120/120/120
f 63/63/63 28/28/28 121/121/121
f 119/119/119 29/29/29 118/118/118
f 159/159/159 146/146/146 130/130/130
f 125/125/125 27/27/27 62/62/62
f 135/135/135 72/72/72 17/17/17
f 136/136/136 30/30/30 62/62/62
f 58/58/58 120/120/120 23/23/23
f 60/60/60 122/122/122 120/120/120
f 127/127/127 44/44/44 26/26/26
f 11/11/11 32/32/32 107/107/107
f 146/146/146 116/116/116 136/136/136
f 154/154/154 148/148/148 140/140/140
f 22/22/22 146/146/146 136/136/136
f 63/63/63 130/130/130 151/151/151
f 145/145/145 138/138/138 148/148/148
f 154/154/154 140/140/140 61/61/61
f 82/82/82 47/47/47 41/41/41
f 45/45/45 98/98/98 36/36/36
f 82/82/82 137/137/137 47/47/47
f 61/61/61 124/124/124 154/154/154
f 26/26/26 126/126/126 128/128/128
f 62/62/62 117/117/117 125/125/125
f 20/20/20 137/137/137 82/82/82
f 38/38/38 92/92/92 94/94/94
f 20/20/20 66/66/66 137/137/137
f 55/55/55 20/20/20 82/82/82
f 69/69/69 94/94/94 92/92/92
f 143/143/143 90/90/90 39/39/39
f 8/8/8 108/108/108 128/128/128
f 141/141/141 48/48/48 38/38/38
f 24/24/24 144/144/144 97/97/97
f 65/65/65 141/141/141 94/94/94
f 114/114/114 31/31/31 42/42/42
f 38/38/38 94/94/94 141/141/141
f 92/92/92 18/18/18 69/69/69
f 97/97/97 54/54/54 24/24/24
f 151/151/151 110/110/110 63/63/63
f 11/11/11 107/107/107 101/101/101
f 29/29/29 119/119/119 135/135/135
f 143/143/143 59/59/59 83/83/83
f 153/153/153 90/90/90 10/10/10
f 43/43/43 101/101/101 107/107/107
f 129/129/129 45/45/45 36/36/36
f 27/27/27 124/124/124 123/123/123
f 85/85/85 41/41/41 59/59/59
f 78/78/78 125/125/125 9/9/9
f 70/70/70 129/129/129 99/99/99
f 83/83/83 59/59/59 41/41/41
f 129/129/129 70/70/70 18/18/18
f 36/36/36 99/99/99 129/129/129
f 93/93/93 38/38/38 48/48/48
f 38/38/38 45/45/45 92/92/92
f 52/52/52 128/128/128 108/108/108
f 65/65/65 94/94/94 3/3/3
f 72/72/72 135/135/135 119/119/119
f 94/94/94 69/69/69 3/3/3
f 39/39/39 90/90/90 48/48/48
f 21/21/21 141/141/141 65/65/65
f 18/18/18 92/92/92 129/129/129
f 6/6/6 91/91/91 64/64/64
f 105/105/105 24/24/24 54/54/54
f 93/93/93 45/45/45 38/38/38
f 89/89/89 39/39/39 48/48/48
f 13/13/13 124/124/124 131/131/131
f 45/45/45 129/129/129 92/92/92
f 9/9/9 125/125/125 117/117/117
f 64/64/64 89/89/89 21/21/21
f 55/55/55 82/82/82 85/85/85
f 6/6/6 85/85/85 91/91/91
f 59/59/59 91/91/91 85/85/85
f 41/41/41 85/85/85 82/82/82
f 6/6/6 55/55/55 85/85/85
f 23/23/23 143/143/143 83/83/83
f 59/59/59 39/39/39 91/91/91
f 148/148/148 134/134/134 140/140/140
f 143/143/143 39/39/39 59/59/59
f 118/118/118 29/29/29 79/79/79
f 29/29/29 44/44/44 131/131/131
f 134/134/134 148/148/148 138/138/138
f 58/58/58 83/83/83 84/84/84
f 119/119/119 2/2/2 72/72/72
f 44/44/44 126/126/126 26/26/26
f 11/11/11 158/158/158 32/32/32
f 138/138/138 103/103/103 80/80/80
f 10/10/10 98/98/98 93/93/93
f 21/21/21 89/89/89 141/141/141
f 105/105/105 53/53/53 37/37/37
f 51/51/51 32/32/32 150/150/150
f 79/79/79 133/133/133 118/118/118
f 118/118/118 133/133/133 14/14/14
f 79/79/79 131/131/131 124/124/124
f 100/100/100 35/35/35 43/43/43
f 90/90/90 153/153/153 48/48/48
f 48/48/48 141/141/141 89/89/89
f 78/78/78 133/133/133 125/125/125
f 62/62/62 27/27/27 123/123/123
f 37/37/37 147/147/147 81/81/81
f 10/10/10 90/90/90 49/49/49
f 150/150/150 32/32/32 158/158/158
f 148/148/148 154/154/154 127/127/127
f 5/5/5 95/95/95 111/111/111
f 110/110/110 151/151/151 22/22/22
f 57/57/57 37/37/37 95/95/95
f 37/37/37 57/57/57 105/105/105
f 27/27/27 125/125/125 133/133/133
f 121/121/121 5/5/5 111/111/111
f 151/151/151 146/146/146 22/22/22
f 123/123/123 22/22/22 136/136/136
f 17/17/17 126/126/126 135/135/135
f 41/41/41 84/84/84 83/83/83
f 53/53/53 49/49/49 147/147/147
f 60/60/60 111/111/111 95/95/95
f 28/28/28 134/134/134 80/80/80
f 104/104/104 95/95/95 5/5/5
f 28/28/28 140/140/140 134/134/134
f 24/24/24 105/105/105 96/96/96
f 57/57/57 95/95/95 104/104/104
f 24/24/24 96/96/96 144/144/144
f 132/132/132 42/42/42 116/116/116
f 12/12/12 132/132/132 116/116/116
f 45/45/45 93/93/93 98/98/98
f 110/110/110 28/28/28 63/63/63
f 106/106/106 103/103/103 138/138/138
f 9/9/9 117/117/117 75/75/75
f 26/26/26 128/128/128 52/52/52
f 54/54/54 97/97/97 98/98/98
f 146/146/146 151/151/151 130/130/130
f 123/123/123 61/61/61 22/22/22
f 99/99/99 36/36/36 56/56/56
f 80/80/80 104/104/104 5/5/5
f 135/135/135 44/44/44 29/29/29
f 126/126/126 17/17/17 71/71/71
f 109/109/109 12/12/12 116/116/116
f 146/146/146 109/109/109 116/116/116
f 144/144/144 149/149/149 40/40/40
f 103/103/103 150/150/150 34/34/34
f 36/36/36 98/98/98 97/97/97
f 60/60/60 81/81/81 122/122/122
f 96/96/96 156/156/156 149/149/149
f 122/122/122 81/81/81 23/23/23
f 157/157/157 114/114/114 12/12/12
f 84/84/84 157/157/157 12/12/12
f 120/120/120 25/25/25 111/111/111
f 12/12/12 109/109/109 152/152/152
f 14/14/14 133/133/133 78/78/78
f 140/140/140 110/110/110 61/61/61
f 107/107/107 106/106/106 33/33/33
f 44/44/44 135/135/135 126/126/126
f 51/51/51 103/103/103 106/106/106
f 34/34/34 156/156/156 104/104/104
f 57/57/57 104/104/104 156/156/156
f 121/121/121 80/80/80 5/5/5
f 63/63/63 121/121/121 111/111/111
f 121/121/121 28/28/28 80/80/80
f 77/77/77 118/118/118 14/14/14
f 52/52/52 106/106/106 145/145/145
f 103/103/103 34/34/34 80/80/80
f 131/131/131 79/79/79 29/29/29
f 13/13/13 131/131/131 127/127/127
f 157/157/157 84/84/84 47/47/47
f 124/124/124 27/27/27 79/79/79
f 139/139/139 33/33/33 108/108/108
f 107/107/107 33/33/33 43/43/43
f 133/133/133 79/79/79 27/27/27
f 44/44/44 127/127/127 131/131/131
f 139/139/139 43/43/43 33/33/33
f 11/11/11 155/155/155 158/158/158
f 96/96/96 105/105/105 57/57/57
f 140/140/140 28/28/28 110/110/110
f 51/51/51 106/106/106 107/107/107
f 50/50/50 46/46/46 101/101/101
f 97/97/97 56/56/56 36/36/36
f 86/86/86 46/46/46 142/142/142
f 112/112/112 42/42/42 31/31/31
f 40/40/40 46/46/46 86/86/86
f 74/74/74 139/139/139 108/108/108
f 100/100/100 43/43/43 139/139/139
f 137/137/137 31/31/31 47/47/47
f 114/114/114 47/47/47 31/31/31
f 88/88/88 40/40/40 86/86/86
f 16/16/16 100/100/100 139/139/139
f 102/102/102 35/35/35 100/100/100
f 68/68/68 142/142/142 102/102/102
f 88/88/88 99/99/99 56/56/56
f 142/142/142 35/35/35 102/102/102
f 53/53/53 105/105/105 54/54/54
f 95/95/95 37/37/37 60/60/60
f 19/19/19 86/86/86 142/142/142
f 88/88/88 56/56/56 40/40/40
f 144/144/144 40/40/40 56/56/56
f 96/96/96 149/149/149 144/144/144
f 81/81/81 60/60/60 37/37/37
f 87/87/87 46/46/46 40/40/40
f 110/110/110 22/22/22 61/61/61
f 87/87/87 155/155/155 46/46/46
f 144/144/144 56/56/56 97/97/97
f 23/23/23 81/81/81 143/143/143
f 64/64/64 91/91/91 89/89/89
f 156/156/156 96/96/96 57/57/57
f 67/67/67 88/88/88 86/86/86
f 7/7/7 99/99/99 88/88/88
f 7/7/7 70/70/70 99/99/99
f 67/67/67 7/7/7 88/88/88
f 19/19/19 67/67/67 86/86/86
f 68/68/68 19/19/19 142/142/142
f 73/73/73 102/102/102 100/100/100
f 4/4/4 68/68/68 102/102/102
f 73/73/73 4/4/4 102/102/102
f 16/16/16 73/73/73 100/100/100
f 74/74/74 16/16/16 139/139/139
f 8/8/8 74/74/74 108/108/108
f 39/39/39 89/89/89 91/91/91
f 153/153/153 93/93/93 48/48/48
f 116/116/116 42/42/42 30/30/30
f 134/134/134 138/138/138 80/80/80
f 61/61/61 123/123/123 124/124/124
f 145/145/145 26/26/26 52/52/52
f 87/87/87 40/40/40 149/149/149
f 128/128/128 71/71/71 8/8/8
f 111/111/111 25/25/25 130/130/130
f 32/32/32 51/51/51 107/107/107
f 42/42/42 132/132/132 114/114/114
f 150/150/150 156/156/156 34/34/34
f 147/147/147 49/49/49 90/90/90
f 156/156/156 150/150/150 149/149/149
f 155/155/155 101/101/101 46/46/46
f 35/35/35 50/50/50 101/101/101
f 147/147/147 90/90/90 143/143/143
f 101/101/101 155/155/155 11/11/11
f 25/25/25 159/159/159 130/130/130
f 93/93/93 153/153/153 10/10/10
f 154/154/154 13/13/13 127/127/127
f 114/114/114 157/157/157 47/47/47
f 111/111/111 130/130/130 63/63/63
f 149/149/149 158/158/158 87/87/87
f 158/158/158 149/149/149 150/150/150
f 146/146/146 159/159/159 109/109/109
f 87/87/87 158/158/158 155/155/155
f 25/25/25 152/152/152 159/159/159
f 109/109/109 159/159/159 152/152/152
