# frame 000181 
# time 0.091000 
# name Cloth3D 
v -0.000000 0.000000 -0.000000
v 1.000000 0.000000 -0.000000
v -0.000000 1.000000 0.000000
v 1.000000 1.000000 0.000000
v 0.498223 0.499215 0.040284
v -0.000000 0.500000 0.000000
v 0.500000 1.000000 0.000000
v 1.000000 0.500000 0.000000
v 0.500000 -0.000000 0.000000
v 0.250045 0.748359 -0.006037
v 0.747497 0.748762 0.000938
v 0.250723 0.250459 -0.011151
v 0.748231 0.251642 -0.005608
v 0.750000 0.000000 0.000000
v 0.250000 0.000000 0.000000
v 1.000000 0.750000 0.000000
v 1.000000 0.250000 0.000000
v 0.250000 1.000000 0.000000
v 0.750000 1.000000 0.000000
v 0.000000 0.250000 0.000000
v 0.000000 0.750000 -0.000000
v 0.497667 0.247103 0.031897
v 0.247690 0.501159 0.023434
v 0.499699 0.751368 0.033173
v 0.366760 0.368709 0.040436
v 0.875529 0.374034 0.012091
v 0.623808 0.125223 -0.005949
v 0.625001 0.372202 0.040284
v 0.874840 0.124934 -0.017877
v 0.373710 0.123462 0.002976
v 0.124501 0.124453 -0.020664
v 0.747755 0.686166 0.009137
v 0.873211 0.623566 -0.003283
v 0.625489 0.625667 0.040284
v 0.874615 0.874729 -0.015304
v 0.375590 0.874001 -0.006333
v 0.371649 0.626529 0.040284
v 0.124599 0.875346 -0.019068
v 0.123038 0.625736 0.002447
v 0.625223 0.875664 0.012116
v 0.124841 0.375735 -0.011260
v 0.250349 0.124476 -0.019854
v 0.873694 0.748907 -0.011595
v 0.874188 0.250998 -0.013498
v 0.250561 0.874612 -0.018159
v 0.748998 0.874362 -0.007819
v 0.124707 0.250499 -0.021870
v 0.124387 0.749634 -0.016358
v 0.303487 0.712902 0.011528
v 0.811601 0.874576 -0.013256
v 0.748818 0.623873 0.019802
v 0.874355 0.499013 0.011777
v 0.363833 0.655982 0.040436
v 0.374300 0.749574 0.015190
v 0.000000 0.375000 0.000000
v 0.500315 0.874487 0.007153
v 0.498696 0.625873 0.040285
v 0.249836 0.375633 0.005556
v 0.124030 0.500617 0.000557
v 0.371434 0.499759 0.040285
v 0.623514 0.249551 0.014749
v 0.498813 0.124365 0.004714
v 0.498023 0.372454 0.040285
v 0.000000 0.625000 0.000000
v 0.000000 0.875000 0.000000
v 0.000000 0.125000 0.000000
v 0.625000 1.000000 0.000000
v 0.875000 1.000000 0.000000
v 0.125000 1.000000 0.000000
v 0.375000 1.000000 0.000000
v 1.000000 0.375000 0.000000
v 1.000000 0.125000 0.000000
v 1.000000 0.875000 0.000000
v 1.000000 0.625000 0.000000
v 0.375000 0.000000 0.000000
v 0.125000 0.000000 0.000000
v 0.875000 0.000000 0.000000
v 0.625000 0.000000 0.000000
v 0.749022 0.125122 -0.014891
v 0.624982 0.498849 0.040285
v 0.274387 0.557569 0.040429
v 0.061499 0.312838 -0.015454
v 0.187042 0.438483 0.002859
v 0.188028 0.313482 -0.013954
v 0.061943 0.437905 -0.010544
v 0.687177 0.937318 -0.004018
v 0.687030 0.812637 0.011646
v 0.562532 0.937092 0.000083
v 0.061302 0.687426 -0.014092
v 0.185806 0.688157 0.004072
v 0.061952 0.562704 -0.009364
v 0.187599 0.938307 -0.015359
v 0.187608 0.811849 -0.017800
v 0.061998 0.938043 -0.011131
v 0.434966 0.562837 0.040285
v 0.530829 0.737645 0.040429
v 0.437565 0.812039 0.011638
v 0.313107 0.810942 -0.008128
v 0.437767 0.937018 -0.002839
v 0.937465 0.812060 -0.011140
v 0.810866 0.811464 -0.012054
v 0.937880 0.937876 -0.011751
v 0.703439 0.589529 0.040429
v 0.561822 0.562377 0.040285
v 0.421762 0.684291 0.040429
v 0.812187 0.561608 0.018990
v 0.810258 0.686024 -0.001241
v 0.936736 0.562026 0.001816
v 0.310865 0.260866 0.005466
v 0.562251 0.308328 0.040429
v 0.434705 0.436031 0.040285
v 0.187374 0.061366 -0.015944
v 0.062062 0.062066 -0.010115
v 0.187809 0.187679 -0.021660
v 0.312564 0.061380 -0.014226
v 0.311920 0.186711 -0.001505
v 0.437157 0.062306 -0.006533
v 0.812251 0.061624 -0.015379
v 0.937879 0.062105 -0.011065
v 0.337537 0.428476 0.040429
v 0.561535 0.435649 0.040285
v 0.304552 0.495903 0.040429
v 0.560918 0.186803 0.011134
v 0.685879 0.188346 -0.005943
v 0.561870 0.062463 -0.006136
v 0.937329 0.312734 -0.006237
v 0.811597 0.313598 0.001980
v 0.936988 0.437258 0.002005
v 0.312923 0.937564 -0.011154
v 0.403766 0.317561 0.040358
v 0.811358 0.188402 -0.016756
v 0.250824 0.187587 -0.017346
v 0.686785 0.061928 -0.013566
v 0.688440 0.435384 0.040284
v 0.937557 0.187730 -0.011319
v 0.435316 0.184058 0.024243
v 0.061577 0.187453 -0.015490
v 0.744178 0.506252 0.040429
v 0.936720 0.686826 -0.005673
v 0.672341 0.362184 0.040429
v 0.061351 0.812624 -0.015617
v 0.812089 0.937693 -0.011345
v 0.184461 0.563474 0.018903
v 0.562952 0.814171 0.027709
v 0.814725 0.435727 0.033470
v 0.428266 0.242533 0.040442
v 0.252543 0.601712 0.040442
v 0.787459 0.418287 0.040442
v 0.611712 0.777457 0.040442
v 0.672029 0.653736 0.040429
v 0.502274 0.278989 0.040429
v 0.295793 0.331668 0.013469
v 0.187214 0.749054 -0.011809
v 0.712190 0.301575 0.011197
v 0.747991 0.811508 -0.005049
v 0.581383 0.673741 0.040357
v 0.188151 0.250865 -0.021752
v 0.687186 0.757531 0.015411
v 0.394573 0.311668 0.040439
v 0.644526 0.710137 0.040436
v 0.745986 0.353778 0.023399
v 0.363292 0.218038 0.017793
v 0.728212 0.389414 0.040436
v 0.308729 0.629111 0.040439
v 0.278229 0.657648 0.025905
vt 0.000000 0.000000
vt 1.000000 0.000000
vt 0.000000 1.000000
vt 1.000000 1.000000
vt 0.500000 0.500000
vt 0.000000 0.500000
vt 0.500000 1.000000
vt 1.000000 0.500000
vt 0.500000 0.000000
vt 0.250000 0.750000
vt 0.750000 0.750000
vt 0.250000 0.250000
vt 0.750000 0.250000
vt 0.750000 0.000000
vt 0.250000 0.000000
vt 1.000000 0.750000
vt 1.000000 0.250000
vt 0.250000 1.000000
vt 0.750000 1.000000
vt 0.000000 0.250000
vt 0.000000 0.750000
vt 0.500000 0.250000
vt 0.250000 0.500000
vt 0.500000 0.750000
vt 0.370638 0.370940
vt 0.875000 0.375000
vt 0.625000 0.125000
vt 0.625000 0.375000
vt 0.875000 0.125000
vt 0.375000 0.125000
vt 0.125000 0.125000
vt 0.750000 0.687500
vt 0.875000 0.625000
vt 0.625000 0.625000
vt 0.875000 0.875000
vt 0.375000 0.875000
vt 0.375000 0.625000
vt 0.125000 0.875000
vt 0.125000 0.625000
vt 0.625000 0.875000
vt 0.125000 0.375000
vt 0.250000 0.125000
vt 0.875000 0.750000
vt 0.875000 0.250000
vt 0.250000 0.875000
vt 0.750000 0.875000
vt 0.125000 0.250000
vt 0.125000 0.750000
vt 0.304602 0.713891
vt 0.812500 0.875000
vt 0.750000 0.625000
vt 0.875000 0.500000
vt 0.367098 0.654025
vt 0.375000 0.750000
vt 0.000000 0.375000
vt 0.500000 0.875000
vt 0.500000 0.625000
vt 0.250000 0.375000
vt 0.125000 0.500000
vt 0.375000 0.500000
vt 0.625000 0.250000
vt 0.500000 0.125000
vt 0.500000 0.375000
vt 0.000000 0.625000
vt 0.000000 0.875000
vt 0.000000 0.125000
vt 0.625000 1.000000
vt 0.875000 1.000000
vt 0.125000 1.000000
vt 0.375000 1.000000
vt 1.000000 0.375000
vt 1.000000 0.125000
vt 1.000000 0.875000
vt 1.000000 0.625000
vt 0.375000 0.000000
vt 0.125000 0.000000
vt 0.875000 0.000000
vt 0.625000 0.000000
vt 0.750000 0.125000
vt 0.625000 0.500000
vt 0.279392 0.556294
vt 0.062500 0.312500
vt 0.187500 0.437500
vt 0.187500 0.312500
vt 0.062500 0.437500
vt 0.687500 0.937500
vt 0.687500 0.812500
vt 0.562500 0.937500
vt 0.062500 0.687500
vt 0.187500 0.687500
vt 0.062500 0.562500
vt 0.187500 0.937500
vt 0.187500 0.812500
vt 0.062500 0.937500
vt 0.437500 0.562500
vt 0.531058 0.735538
vt 0.437500 0.812500
vt 0.312500 0.812500
vt 0.437500 0.937500
vt 0.937500 0.812500
vt 0.812500 0.812500
vt 0.937500 0.937500
vt 0.702208 0.589448
vt 0.562500 0.562500
vt 0.423953 0.682384
vt 0.812500 0.562500
vt 0.812500 0.687500
vt 0.937500 0.562500
vt 0.311128 0.261404
vt 0.563193 0.311754
vt 0.437500 0.437500
vt 0.187500 0.062500
vt 0.062500 0.062500
vt 0.187500 0.187500
vt 0.312500 0.062500
vt 0.312500 0.187500
vt 0.437500 0.062500
vt 0.812500 0.062500
vt 0.937500 0.062500
vt 0.341613 0.429654
vt 0.562500 0.437500
vt 0.308951 0.495919
vt 0.562500 0.187500
vt 0.687500 0.187500
vt 0.562500 0.062500
vt 0.937500 0.312500
vt 0.812500 0.312500
vt 0.937500 0.437500
vt 0.312500 0.937500
vt 0.407242 0.320791
vt 0.812500 0.187500
vt 0.250000 0.187500
vt 0.687500 0.062500
vt 0.687500 0.437500
vt 0.937500 0.187500
vt 0.437500 0.187500
vt 0.062500 0.187500
vt 0.742627 0.507307
vt 0.937500 0.687500
vt 0.671619 0.365236
vt 0.062500 0.812500
vt 0.812500 0.937500
vt 0.187500 0.562500
vt 0.562500 0.812500
vt 0.812500 0.437500
vt 0.431572 0.247297
vt 0.258363 0.599525
vt 0.784756 0.420729
vt 0.610327 0.774266
vt 0.670690 0.652730
vt 0.504162 0.282789
vt 0.296906 0.332149
vt 0.187500 0.750000
vt 0.713437 0.300753
vt 0.750000 0.812500
vt 0.581168 0.672349
vt 0.187500 0.250000
vt 0.688844 0.757642
vt 0.398205 0.314925
vt 0.643103 0.708272
vt 0.745784 0.354241
vt 0.365347 0.220303
vt 0.726636 0.392279
vt 0.313138 0.627002
vt 0.281585 0.657008
vn 0.080648 0.080648 0.993475
vn -0.088528 0.088528 0.992132
vn 0.088662 -0.088662 0.992108
vn -0.094055 -0.094055 0.991114
vn 0.000000 0.000000 1.000000
vn 0.164723 -0.004518 0.986330
vn -0.011535 -0.030493 0.999468
vn 0.021869 0.000443 0.999761
vn -0.001376 0.107385 0.994217
vn -0.118147 0.207471 0.971080
vn 0.201603 0.106573 0.973652
vn -0.213517 -0.120057 0.969534
vn 0.122179 -0.177679 0.976475
vn 0.006673 0.232695 0.972527
vn -0.005766 0.242808 0.970057
vn -0.139731 0.021949 0.989946
vn -0.145225 -0.019671 0.989203
vn -0.016014 -0.213090 0.976901
vn 0.029273 -0.130542 0.991011
vn 0.244856 0.000304 0.969559
vn 0.239461 0.005000 0.970893
vn 0.132904 -0.264182 0.955272
vn -0.258412 -0.147895 0.954647
vn -0.130784 0.228981 0.964605
vn -0.145759 -0.070881 0.986778
vn 0.183018 -0.130991 0.974344
vn 0.087100 -0.097807 0.991387
vn -0.001409 0.002320 0.999996
vn -0.041210 0.014625 0.999043
vn -0.119751 -0.184390 0.975531
vn 0.055841 0.056259 0.996853
vn 0.225171 0.153347 0.962176
vn 0.084932 0.100814 0.991273
vn -0.001063 -0.000990 0.999999
vn -0.001661 -0.007949 0.999967
vn -0.105386 0.069354 0.992010
vn 0.001853 -0.003473 0.999992
vn 0.035719 -0.033764 0.998791
vn -0.184613 0.070805 0.980257
vn 0.071583 0.211192 0.974820
vn -0.057360 -0.087064 0.994550
vn -0.105447 -0.010017 0.994374
vn 0.013706 0.056217 0.998325
vn 0.001944 -0.107421 0.994212
vn -0.052799 0.000923 0.998605
vn 0.128518 0.033259 0.991149
vn 0.029803 -0.039465 0.998776
vn -0.047005 0.107402 0.993104
vn -0.153444 0.272240 0.949916
vn 0.058320 -0.005895 0.998281
vn 0.251817 0.178240 0.951220
vn 0.193332 0.061363 0.979213
vn -0.041941 0.079846 0.995924
vn -0.153487 0.238991 0.958814
vn 0.209894 -0.018460 0.977550
vn -0.074888 0.167867 0.982961
vn -0.000023 -0.000786 1.000000
vn -0.238476 -0.115381 0.964270
vn -0.164166 -0.061396 0.984520
vn 0.001260 0.000692 0.999999
vn 0.143475 -0.226716 0.963335
vn 0.044190 -0.190369 0.980717
vn -0.000041 0.000864 1.000000
vn 0.192868 0.018932 0.981042
vn 0.212859 -0.018771 0.976902
vn 0.202668 0.021492 0.979012
vn 0.016268 -0.039892 0.999072
vn -0.000318 -0.187075 0.982346
vn 0.017404 -0.210287 0.977485
vn -0.032530 -0.118185 0.992459
vn -0.041773 -0.032504 0.998598
vn -0.179665 0.002030 0.983726
vn -0.184472 0.001023 0.982837
vn -0.038166 0.029523 0.998835
vn -0.031000 0.171081 0.984769
vn 0.023998 0.207575 0.977925
vn -0.017874 0.210811 0.977363
vn 0.029268 0.163125 0.986171
vn 0.048488 -0.023538 0.998546
vn -0.000462 -0.000229 1.000000
vn -0.150949 -0.083498 0.985009
vn 0.134188 -0.030404 0.990489
vn -0.156114 -0.123029 0.980047
vn -0.116359 -0.119594 0.985981
vn 0.046230 -0.035059 0.998315
vn 0.062937 0.014413 0.997913
vn 0.261370 0.101875 0.959847
vn -0.008512 0.073589 0.997252
vn 0.059577 0.050018 0.996970
vn -0.135676 0.223103 0.965307
vn -0.008775 0.002840 0.999957
vn -0.000765 -0.149964 0.988691
vn -0.047970 0.063430 0.996833
vn 0.091501 -0.092199 0.991527
vn -0.000000 0.000000 1.000000
vn -0.088191 0.156997 0.983654
vn -0.131924 0.187760 0.973315
vn -0.126270 0.141031 0.981920
vn -0.048511 -0.000228 0.998823
vn -0.108620 0.018479 0.993912
vn 0.077836 0.046331 0.995889
vn -0.078000 -0.077330 0.993950
vn 0.167427 0.100226 0.980777
vn -0.000001 -0.000175 1.000000
vn -0.070220 0.140955 0.987523
vn 0.217153 0.137956 0.966340
vn 0.142172 0.122064 0.982287
vn 0.028970 0.044640 0.998583
vn -0.274770 -0.125804 0.953244
vn 0.062479 -0.128757 0.989706
vn 0.000668 0.000409 1.000000
vn 0.007917 0.162425 0.986689
vn 0.093811 0.092554 0.991279
vn -0.033964 0.000115 0.999423
vn -0.064148 0.070784 0.995427
vn -0.252848 -0.107901 0.961470
vn -0.018995 -0.027621 0.999438
vn -0.000403 0.132587 0.991171
vn -0.089134 0.081121 0.992711
vn -0.122808 -0.058360 0.990713
vn 0.000000 -0.000000 1.000000
vn -0.154440 -0.075071 0.985146
vn 0.114575 -0.188158 0.975433
vn 0.114156 -0.124647 0.985612
vn 0.035279 0.008809 0.999339
vn -0.008182 -0.077835 0.996933
vn 0.093367 -0.251318 0.963391
vn 0.091892 -0.013906 0.995672
vn -0.048409 -0.099811 0.993828
vn 0.005881 0.002943 0.999978
vn 0.037677 -0.053466 0.997859
vn -0.177126 -0.055630 0.982615
vn 0.036212 0.086656 0.995580
vn -0.001201 0.000873 0.999999
vn -0.126251 -0.017157 0.991850
vn -0.039295 -0.254944 0.966157
vn 0.170038 0.013724 0.985342
vn 0.108023 0.055473 0.992599
vn -0.062003 0.042634 0.997165
vn 0.071692 -0.132491 0.988588
vn 0.143370 -0.001880 0.989667
vn 0.034881 -0.086084 0.995677
vn -0.243912 -0.043436 0.968824
vn -0.081259 0.242116 0.966839
vn 0.251331 0.029070 0.967465
vn -0.064932 -0.191338 0.979374
vn -0.145880 0.075512 0.986416
vn 0.170638 -0.072306 0.982677
vn 0.102418 0.160444 0.981717
vn 0.131634 0.064825 0.989176
vn 0.093548 -0.191605 0.977004
vn -0.267722 -0.137217 0.953675
vn -0.079237 0.178122 0.980813
vn 0.162256 -0.273948 0.947959
vn 0.189454 0.064024 0.979800
vn -0.000114 -0.001116 0.999999
vn -0.073135 -0.074907 0.994505
vn 0.300306 0.116193 0.946740
vn -0.028181 -0.013409 0.999513
vn 0.169497 0.086838 0.981698
vn 0.154091 -0.333412 0.930104
vn -0.259975 -0.159795 0.952302
vn 0.102615 -0.212121 0.971841
vn -0.092870 0.192369 0.976918
vn -0.141784 0.307143 0.941042
f 1/1/1 113/113/113 66/66/66
f 31/31/31 137/137/137 113/113/113
f 145/145/145 148/148/148 26/26/26
f 112/112/112 31/31/31 113/113/113
f 138/138/138 145/145/145 106/106/106
f 106/106/106 52/52/52 33/33/33
f 147/147/147 143/143/143 81/81/81
f 84/84/84 41/41/41 47/47/47
f 137/137/137 66/66/66 113/113/113
f 75/75/75 115/115/115 15/15/15
f 12/12/12 152/152/152 84/84/84
f 50/50/50 35/35/35 142/142/142
f 25/25/25 120/120/120 152/152/152
f 76/76/76 113/113/113 1/1/1
f 76/76/76 112/112/112 113/113/113
f 15/15/15 112/112/112 76/76/76
f 115/115/115 112/112/112 15/15/15
f 30/30/30 115/115/115 117/117/117
f 108/108/108 33/33/33 52/52/52
f 75/75/75 117/117/117 115/115/115
f 115/115/115 30/30/30 42/42/42
f 46/46/46 50/50/50 142/142/142
f 51/51/51 150/150/150 103/103/103
f 136/136/136 162/162/162 30/30/30
f 122/122/122 23/23/23 120/120/120
f 54/54/54 98/98/98 49/49/49
f 42/42/42 112/112/112 115/115/115
f 58/58/58 84/84/84 152/152/152
f 13/13/13 154/154/154 124/124/124
f 60/60/60 120/120/120 111/111/111
f 127/127/127 13/13/13 44/44/44
f 127/127/127 26/26/26 148/148/148
f 101/101/101 43/43/43 35/35/35
f 104/104/104 80/80/80 34/34/34
f 10/10/10 49/49/49 98/98/98
f 83/83/83 58/58/58 23/23/23
f 49/49/49 53/53/53 54/54/54
f 117/117/117 62/62/62 30/30/30
f 150/150/150 32/32/32 160/160/160
f 62/62/62 123/123/123 136/136/136
f 77/77/77 2/2/2 119/119/119
f 77/77/77 119/119/119 118/118/118
f 71/71/71 128/128/128 126/126/126
f 58/58/58 152/152/152 120/120/120
f 63/63/63 28/28/28 121/121/121
f 119/119/119 29/29/29 118/118/118
f 159/159/159 146/146/146 130/130/130
f 125/125/125 27/27/27 62/62/62
f 135/135/135 72/72/72 17/17/17
f 136/136/136 30/30/30 62/62/62
f 58/58/58 120/120/120 23/23/23
f 60/60/60 122/122/122 120/120/120
f 127/127/127 44/44/44 26/26/26
f 11/11/11 32/32/32 107/107/107
f 161/161/161 154/154/154 127/127/127
f 150/150/150 160/160/160 34/34/34
f 22/22/22 146/146/146 136/136/136
f 63/63/63 130/130/130 151/151/151
f 145/145/145 138/138/138 148/148/148
f 154/154/154 140/140/140 61/61/61
f 82/82/82 47/47/47 41/41/41
f 45/45/45 98/98/98 36/36/36
f 82/82/82 137/137/137 47/47/47
f 61/61/61 124/124/124 154/154/154
f 26/26/26 126/126/126 128/128/128
f 62/62/62 117/117/117 125/125/125
f 20/20/20 137/137/137 82/82/82
f 38/38/38 92/92/92 94/94/94
f 20/20/20 66/66/66 137/137/137
f 55/55/55 20/20/20 82/82/82
f 69/69/69 94/94/94 92/92/92
f 143/143/143 90/90/90 39/39/39
f 8/8/8 108/108/108 128/128/128
f 141/141/141 48/48/48 38/38/38
f 24/24/24 144/144/144 97/97/97
f 65/65/65 141/141/141 94/94/94
f 114/114/114 31/31/31 42/42/42
f 38/38/38 94/94/94 141/141/141
f 92/92/92 18/18/18 69/69/69
f 97/97/97 54/54/54 24/24/24
f 151/151/151 110/110/110 63/63/63
f 11/11/11 107/107/107 101/101/101
f 29/29/29 119/119/119 135/135/135
f 143/143/143 59/59/59 83/83/83
f 153/153/153 90/90/90 10/10/10
f 43/43/43 101/101/101 107/107/107
f 129/129/129 45/45/45 36/36/36
f 27/27/27 124/124/124 123/123/123
f 85/85/85 41/41/41 59/59/59
f 78/78/78 125/125/125 9/9/9
f 70/70/70 129/129/129 99/99/99
f 83/83/83 59/59/59 41/41/41
f 129/129/129 70/70/70 18/18/18
f 36/36/36 99/99/99 129/129/129
f 93/93/93 38/38/38 48/48/48
f 38/38/38 45/45/45 92/92/92
f 52/52/52 128/128/128 108/108/108
f 65/65/65 94/94/94 3/3/3
f 72/72/72 135/135/135 119/119/119
f 94/94/94 69/69/69 3/3/3
f 39/39/39 90/90/90 48/48/48
f 21/21/21 141/141/141 65/65/65
f 18/18/18 92/92/92 129/129/129
f 6/6/6 91/91/91 64/64/64
f 105/105/105 24/24/24 54/54/54
f 93/93/93 45/45/45 38/38/38
f 89/89/89 39/39/39 48/48/48
f 13/13/13 124/124/124 131/131/131
f 45/45/45 129/129/129 92/92/92
f 9/9/9 125/125/125 117/117/117
f 64/64/64 89/89/89 21/21/21
f 55/55/55 82/82/82 85/85/85
f 6/6/6 85/85/85 91/91/91
f 59/59/59 91/91/91 85/85/85
f 41/41/41 85/85/85 82/82/82
f 6/6/6 55/55/55 85/85/85
f 23/23/23 143/143/143 83/83/83
f 59/59/59 39/39/39 91/91/91
f 109/109/109 162/162/162 159/159/159
f 143/143/143 39/39/39 59/59/59
f 118/118/118 29/29/29 79/79/79
f 29/29/29 44/44/44 131/131/131
f 134/134/134 148/148/148 138/138/138
f 58/58/58 83/83/83 84/84/84
f 119/119/119 2/2/2 72/72/72
f 44/44/44 126/126/126 26/26/26
f 11/11/11 158/158/158 32/32/32
f 138/138/138 103/103/103 80/80/80
f 10/10/10 98/98/98 93/93/93
f 21/21/21 89/89/89 141/141/141
f 105/105/105 53/53/53 37/37/37
f 51/51/51 32/32/32 150/150/150
f 79/79/79 133/133/133 118/118/118
f 118/118/118 133/133/133 14/14/14
f 79/79/79 131/131/131 124/124/124
f 100/100/100 35/35/35 43/43/43
f 90/90/90 153/153/153 48/48/48
f 48/48/48 141/141/141 89/89/89
f 78/78/78 133/133/133 125/125/125
f 62/62/62 27/27/27 123/123/123
f 53/53/53 164/164/164 37/37/37
f 49/49/49 165/165/165 164/164/164
f 12/12/12 157/157/157 132/132/132
f 156/156/156 34/34/34 160/160/160
f 5/5/5 95/95/95 111/111/111
f 110/110/110 151/151/151 22/22/22
f 57/57/57 37/37/37 95/95/95
f 37/37/37 57/57/57 105/105/105
f 27/27/27 125/125/125 133/133/133
f 121/121/121 5/5/5 111/111/111
f 151/151/151 146/146/146 22/22/22
f 123/123/123 22/22/22 136/136/136
f 17/17/17 126/126/126 135/135/135
f 41/41/41 84/84/84 83/83/83
f 131/131/131 44/44/44 13/13/13
f 60/60/60 111/111/111 95/95/95
f 28/28/28 134/134/134 80/80/80
f 104/104/104 95/95/95 5/5/5
f 28/28/28 140/140/140 134/134/134
f 24/24/24 105/105/105 96/96/96
f 57/57/57 95/95/95 104/104/104
f 24/24/24 96/96/96 144/144/144
f 132/132/132 42/42/42 116/116/116
f 12/12/12 132/132/132 116/116/116
f 45/45/45 93/93/93 98/98/98
f 110/110/110 28/28/28 63/63/63
f 106/106/106 103/103/103 138/138/138
f 9/9/9 117/117/117 75/75/75
f 26/26/26 128/128/128 52/52/52
f 54/54/54 97/97/97 98/98/98
f 146/146/146 151/151/151 130/130/130
f 123/123/123 61/61/61 22/22/22
f 99/99/99 36/36/36 56/56/56
f 80/80/80 104/104/104 5/5/5
f 135/135/135 44/44/44 29/29/29
f 126/126/126 17/17/17 71/71/71
f 109/109/109 12/12/12 116/116/116
f 148/148/148 161/161/161 127/127/127
f 144/144/144 149/149/149 40/40/40
f 103/103/103 150/150/150 34/34/34
f 36/36/36 98/98/98 97/97/97
f 60/60/60 81/81/81 122/122/122
f 96/96/96 156/156/156 149/149/149
f 122/122/122 81/81/81 23/23/23
f 158/158/158 160/160/160 32/32/32
f 84/84/84 157/157/157 12/12/12
f 120/120/120 25/25/25 111/111/111
f 12/12/12 109/109/109 152/152/152
f 14/14/14 133/133/133 78/78/78
f 140/140/140 110/110/110 61/61/61
f 107/107/107 106/106/106 33/33/33
f 44/44/44 135/135/135 126/126/126
f 51/51/51 103/103/103 106/106/106
f 34/34/34 156/156/156 104/104/104
f 57/57/57 104/104/104 156/156/156
f 121/121/121 80/80/80 5/5/5
f 63/63/63 121/121/121 111/111/111
f 121/121/121 28/28/28 80/80/80
f 77/77/77 118/118/118 14/14/14
f 52/52/52 106/106/106 145/145/145
f 103/103/103 34/34/34 80/80/80
f 131/131/131 79/79/79 29/29/29
f 140/140/140 163/163/163 134/134/134
f 157/157/157 84/84/84 47/47/47
f 124/124/124 27/27/27 79/79/79
f 139/139/139 33/33/33 108/108/108
f 107/107/107 33/33/33 43/43/43
f 133/133/133 79/79/79 27/27/27
f 163/163/163 148/148/148 134/134/134
f 139/139/139 43/43/43 33/33/33
f 11/11/11 155/155/155 158/158/158
f 96/96/96 105/105/105 57/57/57
f 140/140/140 28/28/28 110/110/110
f 51/51/51 106/106/106 107/107/107
f 50/50/50 46/46/46 101/101/101
f 97/97/97 56/56/56 36/36/36
f 86/86/86 46/46/46 142/142/142
f 112/112/112 42/42/42 31/31/31
f 40/40/40 46/46/46 86/86/86
f 74/74/74 139/139/139 108/108/108
f 100/100/100 43/43/43 139/139/139
f 137/137/137 31/31/31 47/47/47
f 114/114/114 47/47/47 31/31/31
f 88/88/88 40/40/40 86/86/86
f 16/16/16 100/100/100 139/139/139
f 102/102/102 35/35/35 100/100/100
f 68/68/68 142/142/142 102/102/102
f 88/88/88 99/99/99 56/56/56
f 142/142/142 35/35/35 102/102/102
f 53/53/53 105/105/105 54/54/54
f 95/95/95 37/37/37 60/60/60
f 19/19/19 86/86/86 142/142/142
f 88/88/88 56/56/56 40/40/40
f 144/144/144 40/40/40 56/56/56
f 96/96/96 149/149/149 144/144/144
f 81/81/81 60/60/60 37/37/37
f 87/87/87 46/46/46 40/40/40
f 110/110/110 22/22/22 61/61/61
f 87/87/87 155/155/155 46/46/46
f 144/144/144 56/56/56 97/97/97
f 23/23/23 81/81/81 143/143/143
f 64/64/64 91/91/91 89/89/89
f 156/156/156 96/96/96 57/57/57
f 67/67/67 88/88/88 86/86/86
f 7/7/7 99/99/99 88/88/88
f 7/7/7 70/70/70 99/99/99
f 67/67/67 7/7/7 88/88/88
f 19/19/19 67/67/67 86/86/86
f 68/68/68 19/19/19 142/142/142
f 73/73/73 102/102/102 100/100/100
f 4/4/4 68/68/68 102/102/102
f 73/73/73 4/4/4 102/102/102
f 16/16/16 73/73/73 100/100/100
f 74/74/74 16/16/16 139/139/139
f 8/8/8 74/74/74 108/108/108
f 39/39/39 89/89/89 91/91/91
f 153/153/153 93/93/93 48/48/48
f 116/116/116 42/42/42 30/30/30
f 134/134/134 138/138/138 80/80/80
f 61/61/61 123/123/123 124/124/124
f 145/145/145 26/26/26 52/52/52
f 87/87/87 40/40/40 149/149/149
f 128/128/128 71/71/71 8/8/8
f 111/111/111 25/25/25 130/130/130
f 32/32/32 51/51/51 107/107/107
f 42/42/42 132/132/132 114/114/114
f 114/114/114 132/132/132 157/157/157
f 37/37/37 164/164/164 81/81/81
f 25/25/25 152/152/152 159/159/159
f 155/155/155 101/101/101 46/46/46
f 35/35/35 50/50/50 101/101/101
f 147/147/147 90/90/90 143/143/143
f 101/101/101 155/155/155 11/11/11
f 25/25/25 159/159/159 130/130/130
f 93/93/93 153/153/153 10/10/10
f 154/154/154 13/13/13 127/127/127
f 114/114/114 157/157/157 47/47/47
f 111/111/111 130/130/130 63/63/63
f 149/149/149 158/158/158 87/87/87
f 109/109/109 159/159/159 152/152/152
f 116/116/116 30/30/30 162/162/162
f 87/87/87 158/158/158 155/155/155
f 149/149/149 160/160/160 158/158/158
f 160/160/160 149/149/149 156/156/156
f 154/154/154 161/161/161 140/140/140
f 146/146/146 159/159/159 162/162/162
f 146/146/146 162/162/162 136/136/136
f 116/116/116 162/162/162 109/109/109
f 148/148/148 163/163/163 161/161/161
f 163/163/163 140/140/140 161/161/161
f 147/147/147 81/81/81 164/164/164
f 164/164/164 53/53/53 49/49/49
f 147/147/147 165/165/165 90/90/90
f 165/165/165 147/147/147 164/164/164
f 49/49/49 10/10/10 165/165/165
f 90/90/90 165/165/165 10/10/10
