# frame 000163 
# time 0.082000 
# name Cloth3D 
v -0.000000 0.000000 -0.000000
v 1.000000 0.000000 -0.000000
v -0.000000 1.000000 0.000000
v 1.000000 1.000000 0.000000
v 0.498957 0.499664 0.035784
v -0.000000 0.500000 0.000000
v 0.500000 1.000000 0.000000
v 1.000000 0.500000 0.000000
v 0.500000 -0.000000 0.000000
v 0.249557 0.749459 -0.008473
v 0.748545 0.750029 -0.002135
v 0.250339 0.249711 -0.013216
v 0.749710 0.250867 -0.007073
v 0.750000 0.000000 0.000000
v 0.250000 0.000000 0.000000
v 1.000000 0.750000 0.000000
v 1.000000 0.250000 0.000000
v 0.250000 1.000000 0.000000
v 0.750000 1.000000 0.000000
v 0.000000 0.250000 0.000000
v 0.000000 0.750000 -0.000000
v 0.498019 0.247618 0.023475
v 0.248668 0.501335 0.015554
v 0.500531 0.751638 0.024372
v 0.364311 0.367052 0.035936
v 0.877356 0.373706 0.007743
v 0.624077 0.124970 -0.012573
v 0.625987 0.372344 0.035784
v 0.875407 0.124766 -0.020890
v 0.374009 0.123208 -0.004795
v 0.124473 0.124384 -0.022462
v 0.749335 0.687602 0.007739
v 0.874166 0.624094 -0.007667
v 0.626377 0.626554 0.035784
v 0.875083 0.875393 -0.019039
v 0.375576 0.874935 -0.011141
v 0.371946 0.627290 0.035784
v 0.124335 0.875625 -0.022980
v 0.123257 0.625733 -0.006047
v 0.625665 0.877171 0.006344
v 0.124924 0.375781 -0.016348
v 0.250230 0.123859 -0.024780
v 0.874530 0.749409 -0.018226
v 0.875353 0.250832 -0.018876
v 0.250490 0.875340 -0.024125
v 0.749632 0.875616 -0.012706
v 0.124491 0.250464 -0.026545
v 0.124021 0.749765 -0.022907
v 0.302570 0.715214 0.013063
v 0.812079 0.875636 -0.019153
v 0.750404 0.624986 0.017015
v 0.874792 0.498822 0.001766
v 0.362825 0.659522 0.035936
v 0.374534 0.750141 0.009081
v 0.000000 0.375000 0.000000
v 0.500720 0.875078 -0.002163
v 0.499364 0.626812 0.035785
v 0.249883 0.375167 0.001848
v 0.124267 0.500777 -0.007873
v 0.371867 0.500028 0.035785
v 0.624166 0.249898 0.008055
v 0.499052 0.124142 -0.003560
v 0.498653 0.372426 0.035785
v 0.000000 0.625000 0.000000
v 0.000000 0.875000 0.000000
v 0.000000 0.125000 0.000000
v 0.625000 1.000000 0.000000
v 0.875000 1.000000 0.000000
v 0.125000 1.000000 0.000000
v 0.375000 1.000000 0.000000
v 1.000000 0.375000 0.000000
v 1.000000 0.125000 0.000000
v 1.000000 0.875000 0.000000
v 1.000000 0.625000 0.000000
v 0.375000 0.000000 0.000000
v 0.125000 0.000000 0.000000
v 0.875000 0.000000 0.000000
v 0.625000 0.000000 0.000000
v 0.749371 0.124873 -0.023164
v 0.626128 0.499297 0.035785
v 0.280282 0.560447 0.035929
v 0.061671 0.312754 -0.015193
v 0.187542 0.438540 -0.004171
v 0.188253 0.313319 -0.019563
v 0.061432 0.437843 -0.015259
v 0.687307 0.938402 -0.012392
v 0.687958 0.814252 0.008533
v 0.562717 0.937801 -0.009066
v 0.060575 0.687565 -0.018016
v 0.184883 0.689348 0.002150
v 0.061218 0.562724 -0.015313
v 0.187455 0.938493 -0.016400
v 0.187497 0.812103 -0.026668
v 0.062177 0.937846 -0.009492
v 0.435521 0.563480 0.035785
v 0.533722 0.733761 0.035929
v 0.438094 0.812425 0.003176
v 0.312994 0.811818 -0.012806
v 0.437953 0.937869 -0.011373
v 0.938431 0.812432 -0.016911
v 0.811355 0.812259 -0.019465
v 0.937887 0.937918 -0.010492
v 0.703259 0.589471 0.035929
v 0.562730 0.563074 0.035785
v 0.422166 0.685281 0.035929
v 0.812081 0.561283 0.007892
v 0.811141 0.686760 -0.006629
v 0.937278 0.561975 -0.006971
v 0.308964 0.259249 0.008877
v 0.561963 0.310442 0.035929
v 0.435273 0.436120 0.035785
v 0.187293 0.061136 -0.017232
v 0.062190 0.062217 -0.009261
v 0.187728 0.187319 -0.030430
v 0.312466 0.060496 -0.018349
v 0.310956 0.185614 -0.002616
v 0.437246 0.061491 -0.013101
v 0.812479 0.061530 -0.016645
v 0.937881 0.062142 -0.010246
v 0.337722 0.428271 0.035929
v 0.562407 0.435925 0.035785
v 0.307716 0.497316 0.035929
v 0.561189 0.187158 0.002401
v 0.686678 0.187999 -0.010573
v 0.562041 0.061733 -0.013102
v 0.938539 0.312653 -0.013009
v 0.813225 0.313014 -0.000446
v 0.937581 0.437189 -0.007288
v 0.312831 0.938492 -0.015772
v 0.404157 0.316968 0.035858
v 0.812160 0.188327 -0.024127
v 0.250445 0.186948 -0.021028
v 0.687103 0.061481 -0.016257
v 0.689770 0.435611 0.035785
v 0.938602 0.187570 -0.016314
v 0.435715 0.184608 0.014167
v 0.061829 0.187522 -0.015060
v 0.740345 0.504134 0.035929
v 0.937726 0.687015 -0.012614
v 0.674755 0.359459 0.035929
v 0.061212 0.812716 -0.016834
v 0.812424 0.939101 -0.018472
v 0.185785 0.563865 0.007532
v 0.563539 0.814796 0.018736
v 0.815108 0.435511 0.023437
v 0.416327 0.246930 0.035942
v 0.256938 0.613653 0.035942
v 0.783063 0.406346 0.035942
v 0.623653 0.773062 0.035942
v 0.674547 0.655543 0.035929
v 0.500527 0.283743 0.035929
v 0.295775 0.331038 0.010516
v 0.186982 0.749295 -0.017852
v 0.714167 0.300150 0.012265
v 0.749200 0.812880 -0.007354
v 0.582034 0.674897 0.035857
v 0.187927 0.250366 -0.024677
v 0.689050 0.759481 0.015833
v 0.389636 0.308575 0.035939
v 0.649417 0.713567 0.035936
v 0.748142 0.352522 0.023912
v 0.362720 0.216642 0.016607
vt 0.000000 0.000000
vt 1.000000 0.000000
vt 0.000000 1.000000
vt 1.000000 1.000000
vt 0.500000 0.500000
vt 0.000000 0.500000
vt 0.500000 1.000000
vt 1.000000 0.500000
vt 0.500000 0.000000
vt 0.250000 0.750000
vt 0.750000 0.750000
vt 0.250000 0.250000
vt 0.750000 0.250000
vt 0.750000 0.000000
vt 0.250000 0.000000
vt 1.000000 0.750000
vt 1.000000 0.250000
vt 0.250000 1.000000
vt 0.750000 1.000000
vt 0.000000 0.250000
vt 0.000000 0.750000
vt 0.500000 0.250000
vt 0.250000 0.500000
vt 0.500000 0.750000
vt 0.367843 0.369641
vt 0.875000 0.375000
vt 0.625000 0.125000
vt 0.625000 0.375000
vt 0.875000 0.125000
vt 0.375000 0.125000
vt 0.125000 0.125000
vt 0.750000 0.687500
vt 0.875000 0.625000
vt 0.625000 0.625000
vt 0.875000 0.875000
vt 0.375000 0.875000
vt 0.375000 0.625000
vt 0.125000 0.875000
vt 0.125000 0.625000
vt 0.625000 0.875000
vt 0.125000 0.375000
vt 0.250000 0.125000
vt 0.875000 0.750000
vt 0.875000 0.250000
vt 0.250000 0.875000
vt 0.750000 0.875000
vt 0.125000 0.250000
vt 0.125000 0.750000
vt 0.304602 0.713891
vt 0.812500 0.875000
vt 0.750000 0.625000
vt 0.875000 0.500000
vt 0.365853 0.656676
vt 0.375000 0.750000
vt 0.000000 0.375000
vt 0.500000 0.875000
vt 0.500000 0.625000
vt 0.250000 0.375000
vt 0.125000 0.500000
vt 0.375000 0.500000
vt 0.625000 0.250000
vt 0.500000 0.125000
vt 0.500000 0.375000
vt 0.000000 0.625000
vt 0.000000 0.875000
vt 0.000000 0.125000
vt 0.625000 1.000000
vt 0.875000 1.000000
vt 0.125000 1.000000
vt 0.375000 1.000000
vt 1.000000 0.375000
vt 1.000000 0.125000
vt 1.000000 0.875000
vt 1.000000 0.625000
vt 0.375000 0.000000
vt 0.125000 0.000000
vt 0.875000 0.000000
vt 0.625000 0.000000
vt 0.750000 0.125000
vt 0.625000 0.500000
vt 0.285126 0.558919
vt 0.062500 0.312500
vt 0.187500 0.437500
vt 0.187500 0.312500
vt 0.062500 0.437500
vt 0.687500 0.937500
vt 0.687500 0.812500
vt 0.562500 0.937500
vt 0.062500 0.687500
vt 0.187500 0.687500
vt 0.062500 0.562500
vt 0.187500 0.937500
vt 0.187500 0.812500
vt 0.062500 0.937500
vt 0.437500 0.562500
vt 0.533432 0.730404
vt 0.437500 0.812500
vt 0.312500 0.812500
vt 0.437500 0.937500
vt 0.937500 0.812500
vt 0.812500 0.812500
vt 0.937500 0.937500
vt 0.700858 0.588823
vt 0.562500 0.562500
vt 0.423979 0.682331
vt 0.812500 0.562500
vt 0.812500 0.687500
vt 0.937500 0.562500
vt 0.311128 0.261404
vt 0.562173 0.313951
vt 0.437500 0.437500
vt 0.187500 0.062500
vt 0.062500 0.062500
vt 0.187500 0.187500
vt 0.312500 0.062500
vt 0.312500 0.187500
vt 0.437500 0.062500
vt 0.812500 0.062500
vt 0.937500 0.062500
vt 0.341385 0.429550
vt 0.562500 0.437500
vt 0.311821 0.497246
vt 0.562500 0.187500
vt 0.687500 0.187500
vt 0.562500 0.062500
vt 0.937500 0.312500
vt 0.812500 0.312500
vt 0.937500 0.437500
vt 0.312500 0.937500
vt 0.407242 0.320791
vt 0.812500 0.187500
vt 0.250000 0.187500
vt 0.687500 0.062500
vt 0.687500 0.437500
vt 0.937500 0.187500
vt 0.437500 0.187500
vt 0.062500 0.187500
vt 0.737477 0.504944
vt 0.937500 0.687500
vt 0.672919 0.362425
vt 0.062500 0.812500
vt 0.812500 0.937500
vt 0.187500 0.562500
vt 0.562500 0.812500
vt 0.812500 0.437500
vt 0.419512 0.252484
vt 0.262894 0.610918
vt 0.778784 0.409032
vt 0.621620 0.768386
vt 0.672439 0.653548
vt 0.501850 0.287816
vt 0.296906 0.332149
vt 0.187500 0.750000
vt 0.713437 0.300753
vt 0.750000 0.812500
vt 0.581168 0.672349
vt 0.187500 0.250000
vt 0.688844 0.757642
vt 0.392972 0.312490
vt 0.647570 0.710360
vt 0.745784 0.354241
vt 0.365347 0.220303
vn 0.073603 0.073603 0.994568
vn -0.081116 0.081116 0.993398
vn 0.075049 -0.075049 0.994352
vn -0.082786 -0.082786 0.993123
vn 0.000000 0.000000 1.000000
vn 0.244014 0.000824 0.969771
vn -0.008901 -0.168681 0.985630
vn -0.120209 -0.001329 0.992748
vn -0.000396 0.212855 0.977084
vn -0.156659 0.257725 0.953434
vn 0.259741 0.113818 0.958947
vn -0.252334 -0.117042 0.960536
vn 0.138653 -0.220369 0.965512
vn 0.001399 0.257130 0.966376
vn 0.005277 0.280849 0.959737
vn -0.235062 0.016426 0.971842
vn -0.235761 -0.012404 0.971732
vn -0.001858 -0.253574 0.967314
vn 0.023094 -0.248436 0.968373
vn 0.236485 0.000409 0.971635
vn 0.275154 -0.005427 0.961385
vn 0.133590 -0.303244 0.943502
vn -0.288382 -0.133447 0.948171
vn -0.151640 0.279490 0.948099
vn -0.147173 -0.063498 0.987071
vn 0.213463 -0.099794 0.971841
vn 0.069918 -0.081051 0.994255
vn -0.001262 0.002227 0.999997
vn -0.064164 0.054889 0.996429
vn -0.085990 -0.190819 0.977852
vn 0.093624 0.083374 0.992110
vn 0.260625 0.147109 0.954166
vn 0.081259 0.078457 0.993600
vn -0.001025 -0.000916 0.999999
vn -0.036833 -0.028151 0.998925
vn -0.082379 0.068250 0.994261
vn 0.001398 -0.002947 0.999995
vn 0.076525 -0.077190 0.994075
vn -0.168852 0.043404 0.984685
vn 0.046378 0.234313 0.971054
vn -0.023695 -0.066313 0.997517
vn -0.114993 -0.005456 0.993351
vn 0.012796 0.056387 0.998327
vn 0.018346 -0.110879 0.993665
vn -0.052318 -0.031120 0.998145
vn 0.142667 0.059741 0.987966
vn 0.056928 -0.043834 0.997416
vn -0.029768 0.117634 0.992611
vn -0.129624 0.285880 0.949458
vn 0.051042 -0.008977 0.998656
vn 0.273515 0.130737 0.952941
vn 0.178268 0.061857 0.982036
vn -0.034928 0.090249 0.995307
vn -0.104321 0.266187 0.958260
vn 0.239842 0.001337 0.970811
vn -0.070472 0.166123 0.983584
vn -0.000021 -0.000812 1.000000
vn -0.257021 -0.103821 0.960813
vn -0.131027 -0.043378 0.990429
vn 0.001336 0.000672 0.999999
vn 0.106639 -0.244714 0.963713
vn 0.039482 -0.167054 0.985157
vn -0.000059 0.000924 1.000000
vn 0.265561 0.010413 0.964038
vn 0.207650 -0.029639 0.977754
vn 0.191444 0.022810 0.981238
vn 0.013384 -0.177324 0.984061
vn -0.032966 -0.229237 0.972812
vn 0.027638 -0.203765 0.978630
vn -0.016481 -0.218310 0.975740
vn -0.167289 -0.022641 0.985648
vn -0.210831 0.025223 0.977197
vn -0.216020 -0.026235 0.976036
vn -0.160849 0.021768 0.986739
vn -0.020082 0.252381 0.967419
vn 0.031928 0.209288 0.977333
vn -0.025313 0.210966 0.977166
vn 0.010954 0.233477 0.972301
vn 0.043902 0.010290 0.998983
vn -0.000493 -0.000243 1.000000
vn -0.186803 -0.088372 0.978415
vn 0.171475 -0.019047 0.985004
vn -0.164996 -0.096382 0.981574
vn -0.130270 -0.094568 0.986958
vn 0.100170 -0.015668 0.994847
vn 0.056698 -0.028492 0.997985
vn 0.248098 0.155936 0.956102
vn -0.015892 0.013404 0.999784
vn 0.119861 0.036076 0.992135
vn -0.184547 0.224458 0.956850
vn 0.060244 0.001650 0.998182
vn 0.015280 -0.187606 0.982126
vn -0.054396 0.072520 0.995882
vn 0.097576 -0.098585 0.990333
vn -0.000000 0.000000 1.000000
vn -0.105262 0.189761 0.976172
vn -0.109056 0.184795 0.976708
vn -0.118450 0.165370 0.979093
vn -0.030477 -0.056427 0.997941
vn -0.149923 -0.003436 0.988692
vn 0.101308 0.044677 0.993851
vn -0.096411 -0.093098 0.990978
vn 0.166660 0.073072 0.983303
vn -0.000000 -0.000174 1.000000
vn -0.065669 0.157888 0.985271
vn 0.222252 0.108022 0.968987
vn 0.176535 0.119241 0.977045
vn -0.026340 0.028675 0.999242
vn -0.296739 -0.120086 0.947378
vn 0.059801 -0.144569 0.987686
vn 0.000649 0.000398 1.000000
vn 0.023785 0.188445 0.981796
vn 0.097830 0.093186 0.990831
vn -0.062849 -0.033905 0.997447
vn -0.047333 0.121761 0.991430
vn -0.250657 -0.161555 0.954500
vn -0.012306 0.037076 0.999237
vn -0.016945 0.176253 0.984199
vn -0.095308 0.095198 0.990885
vn -0.128135 -0.051647 0.990411
vn 0.000000 -0.000000 1.000000
vn -0.166614 -0.071911 0.983397
vn 0.097255 -0.187541 0.977430
vn 0.101865 -0.160044 0.981840
vn 0.023542 0.068152 0.997397
vn -0.047719 -0.071008 0.996334
vn 0.131068 -0.256218 0.957692
vn 0.035077 0.001493 0.999384
vn -0.034945 -0.142266 0.989211
vn 0.003711 0.001745 0.999992
vn 0.028471 -0.075770 0.996719
vn -0.225202 -0.087337 0.970390
vn 0.027433 0.144915 0.989064
vn -0.001209 0.000389 0.999999
vn -0.159434 0.002431 0.987206
vn 0.009591 -0.280782 0.959724
vn 0.194247 0.019784 0.980753
vn 0.135259 0.059127 0.989044
vn -0.104786 0.040708 0.993661
vn 0.052276 -0.125449 0.990722
vn 0.183772 -0.017901 0.982806
vn 0.016249 -0.117433 0.992948
vn -0.252485 -0.057132 0.965913
vn -0.105278 0.250527 0.962368
vn 0.283900 0.093375 0.954296
vn -0.070350 -0.203112 0.976625
vn -0.194255 0.026714 0.980587
vn 0.199416 -0.057554 0.978223
vn 0.126507 0.157499 0.979382
vn 0.127384 0.056747 0.990229
vn 0.093741 -0.216389 0.971797
vn -0.285284 -0.101317 0.953073
vn -0.113718 0.231625 0.966136
vn 0.139033 -0.277280 0.950676
vn 0.230018 0.088659 0.969139
vn -0.000060 -0.001120 0.999999
vn -0.103138 -0.088931 0.990683
vn 0.300220 0.130773 0.944863
vn -0.043555 -0.017986 0.998889
vn 0.166586 0.073768 0.983264
vn 0.143686 -0.301994 0.942419
vn -0.199770 -0.213302 0.956344
f 1/1/1 113/113/113 66/66/66
f 31/31/31 137/137/137 113/113/113
f 145/145/145 148/148/148 26/26/26
f 112/112/112 31/31/31 113/113/113
f 138/138/138 145/145/145 106/106/106
f 106/106/106 52/52/52 33/33/33
f 147/147/147 143/143/143 81/81/81
f 84/84/84 41/41/41 47/47/47
f 137/137/137 66/66/66 113/113/113
f 75/75/75 115/115/115 15/15/15
f 12/12/12 152/152/152 84/84/84
f 50/50/50 35/35/35 142/142/142
f 25/25/25 120/120/120 152/152/152
f 76/76/76 113/113/113 1/1/1
f 76/76/76 112/112/112 113/113/113
f 15/15/15 112/112/112 76/76/76
f 115/115/115 112/112/112 15/15/15
f 30/30/30 115/115/115 117/117/117
f 108/108/108 33/33/33 52/52/52
f 75/75/75 117/117/117 115/115/115
f 115/115/115 30/30/30 42/42/42
f 46/46/46 50/50/50 142/142/142
f 51/51/51 150/150/150 103/103/103
f 136/136/136 162/162/162 30/30/30
f 122/122/122 23/23/23 120/120/120
f 54/54/54 98/98/98 49/49/49
f 42/42/42 112/112/112 115/115/115
f 58/58/58 84/84/84 152/152/152
f 13/13/13 154/154/154 124/124/124
f 60/60/60 120/120/120 111/111/111
f 53/53/53 147/147/147 37/37/37
f 127/127/127 26/26/26 148/148/148
f 101/101/101 43/43/43 35/35/35
f 104/104/104 80/80/80 34/34/34
f 10/10/10 49/49/49 98/98/98
f 83/83/83 58/58/58 23/23/23
f 49/49/49 53/53/53 54/54/54
f 117/117/117 62/62/62 30/30/30
f 150/150/150 32/32/32 160/160/160
f 62/62/62 123/123/123 136/136/136
f 77/77/77 2/2/2 119/119/119
f 77/77/77 119/119/119 118/118/118
f 71/71/71 128/128/128 126/126/126
f 58/58/58 152/152/152 120/120/120
f 63/63/63 28/28/28 121/121/121
f 119/119/119 29/29/29 118/118/118
f 159/159/159 146/146/146 130/130/130
f 125/125/125 27/27/27 62/62/62
f 135/135/135 72/72/72 17/17/17
f 136/136/136 30/30/30 62/62/62
f 58/58/58 120/120/120 23/23/23
f 60/60/60 122/122/122 120/120/120
f 127/127/127 44/44/44 26/26/26
f 11/11/11 32/32/32 107/107/107
f 161/161/161 154/154/154 127/127/127
f 150/150/150 160/160/160 34/34/34
f 22/22/22 146/146/146 136/136/136
f 63/63/63 130/130/130 151/151/151
f 145/145/145 138/138/138 148/148/148
f 154/154/154 140/140/140 61/61/61
f 82/82/82 47/47/47 41/41/41
f 45/45/45 98/98/98 36/36/36
f 82/82/82 137/137/137 47/47/47
f 61/61/61 124/124/124 154/154/154
f 26/26/26 126/126/126 128/128/128
f 62/62/62 117/117/117 125/125/125
f 20/20/20 137/137/137 82/82/82
f 38/38/38 92/92/92 94/94/94
f 20/20/20 66/66/66 137/137/137
f 55/55/55 20/20/20 82/82/82
f 69/69/69 94/94/94 92/92/92
f 143/143/143 90/90/90 39/39/39
f 8/8/8 108/108/108 128/128/128
f 141/141/141 48/48/48 38/38/38
f 24/24/24 144/144/144 97/97/97
f 65/65/65 141/141/141 94/94/94
f 114/114/114 31/31/31 42/42/42
f 38/38/38 94/94/94 141/141/141
f 92/92/92 18/18/18 69/69/69
f 97/97/97 54/54/54 24/24/24
f 151/151/151 110/110/110 63/63/63
f 11/11/11 107/107/107 101/101/101
f 29/29/29 119/119/119 135/135/135
f 143/143/143 59/59/59 83/83/83
f 153/153/153 90/90/90 10/10/10
f 43/43/43 101/101/101 107/107/107
f 129/129/129 45/45/45 36/36/36
f 27/27/27 124/124/124 123/123/123
f 85/85/85 41/41/41 59/59/59
f 78/78/78 125/125/125 9/9/9
f 70/70/70 129/129/129 99/99/99
f 83/83/83 59/59/59 41/41/41
f 129/129/129 70/70/70 18/18/18
f 36/36/36 99/99/99 129/129/129
f 93/93/93 38/38/38 48/48/48
f 38/38/38 45/45/45 92/92/92
f 52/52/52 128/128/128 108/108/108
f 65/65/65 94/94/94 3/3/3
f 72/72/72 135/135/135 119/119/119
f 94/94/94 69/69/69 3/3/3
f 39/39/39 90/90/90 48/48/48
f 21/21/21 141/141/141 65/65/65
f 18/18/18 92/92/92 129/129/129
f 6/6/6 91/91/91 64/64/64
f 105/105/105 24/24/24 54/54/54
f 93/93/93 45/45/45 38/38/38
f 89/89/89 39/39/39 48/48/48
f 13/13/13 124/124/124 131/131/131
f 45/45/45 129/129/129 92/92/92
f 9/9/9 125/125/125 117/117/117
f 64/64/64 89/89/89 21/21/21
f 55/55/55 82/82/82 85/85/85
f 6/6/6 85/85/85 91/91/91
f 59/59/59 91/91/91 85/85/85
f 41/41/41 85/85/85 82/82/82
f 6/6/6 55/55/55 85/85/85
f 23/23/23 143/143/143 83/83/83
f 59/59/59 39/39/39 91/91/91
f 148/148/148 134/134/134 140/140/140
f 143/143/143 39/39/39 59/59/59
f 118/118/118 29/29/29 79/79/79
f 29/29/29 44/44/44 131/131/131
f 134/134/134 148/148/148 138/138/138
f 58/58/58 83/83/83 84/84/84
f 119/119/119 2/2/2 72/72/72
f 44/44/44 126/126/126 26/26/26
f 11/11/11 158/158/158 32/32/32
f 138/138/138 103/103/103 80/80/80
f 10/10/10 98/98/98 93/93/93
f 21/21/21 89/89/89 141/141/141
f 105/105/105 53/53/53 37/37/37
f 51/51/51 32/32/32 150/150/150
f 79/79/79 133/133/133 118/118/118
f 118/118/118 133/133/133 14/14/14
f 79/79/79 131/131/131 124/124/124
f 100/100/100 35/35/35 43/43/43
f 90/90/90 153/153/153 48/48/48
f 48/48/48 141/141/141 89/89/89
f 78/78/78 133/133/133 125/125/125
f 62/62/62 27/27/27 123/123/123
f 37/37/37 147/147/147 81/81/81
f 10/10/10 90/90/90 49/49/49
f 12/12/12 157/157/157 132/132/132
f 156/156/156 34/34/34 160/160/160
f 5/5/5 95/95/95 111/111/111
f 110/110/110 151/151/151 22/22/22
f 57/57/57 37/37/37 95/95/95
f 37/37/37 57/57/57 105/105/105
f 27/27/27 125/125/125 133/133/133
f 121/121/121 5/5/5 111/111/111
f 151/151/151 146/146/146 22/22/22
f 123/123/123 22/22/22 136/136/136
f 17/17/17 126/126/126 135/135/135
f 41/41/41 84/84/84 83/83/83
f 53/53/53 49/49/49 147/147/147
f 60/60/60 111/111/111 95/95/95
f 28/28/28 134/134/134 80/80/80
f 104/104/104 95/95/95 5/5/5
f 28/28/28 140/140/140 134/134/134
f 24/24/24 105/105/105 96/96/96
f 57/57/57 95/95/95 104/104/104
f 24/24/24 96/96/96 144/144/144
f 132/132/132 42/42/42 116/116/116
f 12/12/12 132/132/132 116/116/116
f 45/45/45 93/93/93 98/98/98
f 110/110/110 28/28/28 63/63/63
f 106/106/106 103/103/103 138/138/138
f 9/9/9 117/117/117 75/75/75
f 26/26/26 128/128/128 52/52/52
f 54/54/54 97/97/97 98/98/98
f 146/146/146 151/151/151 130/130/130
f 123/123/123 61/61/61 22/22/22
f 99/99/99 36/36/36 56/56/56
f 80/80/80 104/104/104 5/5/5
f 135/135/135 44/44/44 29/29/29
f 126/126/126 17/17/17 71/71/71
f 109/109/109 12/12/12 116/116/116
f 148/148/148 161/161/161 127/127/127
f 144/144/144 149/149/149 40/40/40
f 103/103/103 150/150/150 34/34/34
f 36/36/36 98/98/98 97/97/97
f 60/60/60 81/81/81 122/122/122
f 96/96/96 156/156/156 149/149/149
f 122/122/122 81/81/81 23/23/23
f 158/158/158 160/160/160 32/32/32
f 84/84/84 157/157/157 12/12/12
f 120/120/120 25/25/25 111/111/111
f 12/12/12 109/109/109 152/152/152
f 14/14/14 133/133/133 78/78/78
f 140/140/140 110/110/110 61/61/61
f 107/107/107 106/106/106 33/33/33
f 44/44/44 135/135/135 126/126/126
f 51/51/51 103/103/103 106/106/106
f 34/34/34 156/156/156 104/104/104
f 57/57/57 104/104/104 156/156/156
f 121/121/121 80/80/80 5/5/5
f 63/63/63 121/121/121 111/111/111
f 121/121/121 28/28/28 80/80/80
f 77/77/77 118/118/118 14/14/14
f 52/52/52 106/106/106 145/145/145
f 103/103/103 34/34/34 80/80/80
f 131/131/131 79/79/79 29/29/29
f 13/13/13 131/131/131 127/127/127
f 157/157/157 84/84/84 47/47/47
f 124/124/124 27/27/27 79/79/79
f 139/139/139 33/33/33 108/108/108
f 107/107/107 33/33/33 43/43/43
f 133/133/133 79/79/79 27/27/27
f 44/44/44 127/127/127 131/131/131
f 139/139/139 43/43/43 33/33/33
f 11/11/11 155/155/155 158/158/158
f 96/96/96 105/105/105 57/57/57
f 140/140/140 28/28/28 110/110/110
f 51/51/51 106/106/106 107/107/107
f 50/50/50 46/46/46 101/101/101
f 97/97/97 56/56/56 36/36/36
f 86/86/86 46/46/46 142/142/142
f 112/112/112 42/42/42 31/31/31
f 40/40/40 46/46/46 86/86/86
f 74/74/74 139/139/139 108/108/108
f 100/100/100 43/43/43 139/139/139
f 137/137/137 31/31/31 47/47/47
f 114/114/114 47/47/47 31/31/31
f 88/88/88 40/40/40 86/86/86
f 16/16/16 100/100/100 139/139/139
f 102/102/102 35/35/35 100/100/100
f 68/68/68 142/142/142 102/102/102
f 88/88/88 99/99/99 56/56/56
f 142/142/142 35/35/35 102/102/102
f 53/53/53 105/105/105 54/54/54
f 95/95/95 37/37/37 60/60/60
f 19/19/19 86/86/86 142/142/142
f 88/88/88 56/56/56 40/40/40
f 144/144/144 40/40/40 56/56/56
f 96/96/96 149/149/149 144/144/144
f 81/81/81 60/60/60 37/37/37
f 87/87/87 46/46/46 40/40/40
f 110/110/110 22/22/22 61/61/61
f 87/87/87 155/155/155 46/46/46
f 144/144/144 56/56/56 97/97/97
f 23/23/23 81/81/81 143/143/143
f 64/64/64 91/91/91 89/89/89
f 156/156/156 96/96/96 57/57/57
f 67/67/67 88/88/88 86/86/86
f 7/7/7 99/99/99 88/88/88
f 7/7/7 70/70/70 99/99/99
f 67/67/67 7/7/7 88/88/88
f 19/19/19 67/67/67 86/86/86
f 68/68/68 19/19/19 142/142/142
f 73/73/73 102/102/102 100/100/100
f 4/4/4 68/68/68 102/102/102
f 73/73/73 4/4/4 102/102/102
f 16/16/16 73/73/73 100/100/100
f 74/74/74 16/16/16 139/139/139
f 8/8/8 74/74/74 108/108/108
f 39/39/39 89/89/89 91/91/91
f 153/153/153 93/93/93 48/48/48
f 116/116/116 42/42/42 30/30/30
f 134/134/134 138/138/138 80/80/80
f 61/61/61 123/123/123 124/124/124
f 145/145/145 26/26/26 52/52/52
f 87/87/87 40/40/40 149/149/149
f 128/128/128 71/71/71 8/8/8
f 111/111/111 25/25/25 130/130/130
f 32/32/32 51/51/51 107/107/107
f 42/42/42 132/132/132 114/114/114
f 114/114/114 132/132/132 157/157/157
f 147/147/147 49/49/49 90/90/90
f 25/25/25 152/152/152 159/159/159
f 155/155/155 101/101/101 46/46/46
f 35/35/35 50/50/50 101/101/101
f 147/147/147 90/90/90 143/143/143
f 101/101/101 155/155/155 11/11/11
f 25/25/25 159/159/159 130/130/130
f 93/93/93 153/153/153 10/10/10
f 154/154/154 13/13/13 127/127/127
f 114/114/114 157/157/157 47/47/47
f 111/111/111 130/130/130 63/63/63
f 149/149/149 158/158/158 87/87/87
f 109/109/109 159/159/159 152/152/152
f 116/116/116 30/30/30 162/162/162
f 87/87/87 158/158/158 155/155/155
f 149/149/149 160/160/160 158/158/158
f 160/160/160 149/149/149 156/156/156
f 154/154/154 161/161/161 140/140/140
f 161/161/161 148/148/148 140/140/140
f 146/146/146 162/162/162 136/136/136
f 116/116/116 162/162/162 109/109/109
f 109/109/109 162/162/162 159/159/159
f 146/146/146 159/159/159 162/162/162
