# frame 000157 
# time 0.079000 
# name Cloth3D 
v -0.000000 0.000000 -0.000000
v 1.000000 0.000000 -0.000000
v -0.000000 1.000000 0.000000
v 1.000000 1.000000 0.000000
v 0.499175 0.499814 0.034284
v -0.000000 0.500000 0.000000
v 0.500000 1.000000 0.000000
v 1.000000 0.500000 0.000000
v 0.500000 -0.000000 0.000000
v 0.248980 0.750090 -0.007931
v 0.749267 0.750658 -0.001678
v 0.250233 0.249303 -0.013133
v 0.750338 0.250237 -0.006188
v 0.750000 0.000000 0.000000
v 0.250000 0.000000 0.000000
v 1.000000 0.750000 0.000000
v 1.000000 0.250000 0.000000
v 0.250000 1.000000 0.000000
v 0.750000 1.000000 0.000000
v 0.000000 0.250000 0.000000
v 0.000000 0.750000 -0.000000
v 0.498474 0.247677 0.021468
v 0.248832 0.501141 0.013642
v 0.500543 0.751873 0.022358
v 0.363398 0.366473 0.034436
v 0.877644 0.373752 0.005579
v 0.624199 0.124984 -0.014691
v 0.626389 0.372479 0.034284
v 0.875608 0.124598 -0.022197
v 0.374283 0.123339 -0.007361
v 0.124394 0.124224 -0.023145
v 0.750008 0.688099 0.007325
v 0.874540 0.624328 -0.008691
v 0.626672 0.626792 0.034284
v 0.875337 0.875672 -0.020943
v 0.375483 0.875116 -0.012977
v 0.371869 0.627382 0.034284
v 0.124166 0.875748 -0.024034
v 0.123612 0.625606 -0.009292
v 0.625785 0.877574 0.003966
v 0.125066 0.375651 -0.018185
v 0.250284 0.123671 -0.026345
v 0.874851 0.749645 -0.020171
v 0.875654 0.250663 -0.019949
v 0.250297 0.875512 -0.025278
v 0.749864 0.876055 -0.014156
v 0.124418 0.250269 -0.027288
v 0.123860 0.749823 -0.024793
v 0.302201 0.715503 0.012636
v 0.812260 0.876004 -0.021622
v 0.751031 0.625410 0.016203
v 0.875013 0.498874 -0.000911
v 0.362244 0.660686 0.034436
v 0.374354 0.750216 0.007213
v 0.000000 0.375000 0.000000
v 0.500793 0.875335 -0.004869
v 0.499419 0.627042 0.034285
v 0.249969 0.374875 0.000722
v 0.124585 0.500721 -0.010871
v 0.371994 0.500009 0.034285
v 0.624560 0.249971 0.006169
v 0.499253 0.124167 -0.006145
v 0.498990 0.372493 0.034285
v 0.000000 0.625000 0.000000
v 0.000000 0.875000 0.000000
v 0.000000 0.125000 0.000000
v 0.625000 1.000000 0.000000
v 0.875000 1.000000 0.000000
v 0.125000 1.000000 0.000000
v 0.375000 1.000000 0.000000
v 1.000000 0.375000 0.000000
v 1.000000 0.125000 0.000000
v 1.000000 0.875000 0.000000
v 1.000000 0.625000 0.000000
v 0.375000 0.000000 0.000000
v 0.125000 0.000000 0.000000
v 0.875000 0.000000 0.000000
v 0.625000 0.000000 0.000000
v 0.749503 0.124759 -0.025272
v 0.626464 0.499534 0.034285
v 0.282249 0.561178 0.034429
v 0.061909 0.312656 -0.014396
v 0.187825 0.438379 -0.006571
v 0.188339 0.313016 -0.020674
v 0.061491 0.437754 -0.015476
v 0.687418 0.938857 -0.014582
v 0.688389 0.814907 0.008070
v 0.562755 0.938198 -0.011486
v 0.060597 0.687584 -0.017921
v 0.184569 0.689470 0.001143
v 0.061142 0.562678 -0.016135
v 0.187380 0.938426 -0.016122
v 0.187283 0.812286 -0.028829
v 0.062227 0.937778 -0.008888
v 0.435596 0.563603 0.034285
v 0.534479 0.732455 0.034429
v 0.438124 0.812473 0.000257
v 0.312674 0.812034 -0.013733
v 0.437889 0.938210 -0.013389
v 0.938579 0.812564 -0.017182
v 0.811660 0.812671 -0.020610
v 0.937855 0.937873 -0.009660
v 0.703241 0.589587 0.034429
v 0.562923 0.563296 0.034285
v 0.422046 0.685586 0.034429
v 0.812030 0.561345 0.004209
v 0.811510 0.687135 -0.008196
v 0.937578 0.562011 -0.009536
v 0.308922 0.258847 0.009094
v 0.562098 0.311132 0.034429
v 0.435531 0.436173 0.034285
v 0.187335 0.061202 -0.016887
v 0.062218 0.062210 -0.008943
v 0.187631 0.187112 -0.031331
v 0.312462 0.060449 -0.018306
v 0.310834 0.185352 -0.003280
v 0.437326 0.061253 -0.014937
v 0.812492 0.061708 -0.015989
v 0.937823 0.062172 -0.009626
v 0.337723 0.428100 0.034429
v 0.562738 0.436093 0.034285
v 0.308746 0.497613 0.034429
v 0.561442 0.187353 -0.000596
v 0.686955 0.187918 -0.012307
v 0.562179 0.061528 -0.014555
v 0.938870 0.312581 -0.014551
v 0.813682 0.312653 -0.000643
v 0.937889 0.437181 -0.009702
v 0.312696 0.938605 -0.016135
v 0.404418 0.316802 0.034358
v 0.812457 0.188134 -0.025569
v 0.250145 0.186579 -0.020666
v 0.687239 0.061644 -0.015557
v 0.690191 0.435818 0.034284
v 0.938815 0.187458 -0.017183
v 0.435992 0.185155 0.010549
v 0.061924 0.187440 -0.014689
v 0.739060 0.503663 0.034429
v 0.938064 0.687139 -0.014098
v 0.675647 0.358466 0.034429
v 0.061279 0.812717 -0.016579
v 0.812612 0.939340 -0.018903
v 0.186199 0.563815 0.004353
v 0.563794 0.814753 0.015027
v 0.814864 0.435452 0.019233
v 0.412393 0.248515 0.034442
v 0.258522 0.617588 0.034442
v 0.781479 0.402411 0.034442
v 0.627588 0.771478 0.034442
v 0.675562 0.655987 0.034429
v 0.500264 0.285356 0.034429
v 0.295964 0.330793 0.009279
v 0.186565 0.749806 -0.017812
v 0.714690 0.299742 0.012381
v 0.749524 0.813420 -0.008273
v 0.582282 0.675167 0.034357
v 0.187856 0.250042 -0.024957
v 0.689784 0.760216 0.016033
vt 0.000000 0.000000
vt 1.000000 0.000000
vt 0.000000 1.000000
vt 1.000000 1.000000
vt 0.500000 0.500000
vt 0.000000 0.500000
vt 0.500000 1.000000
vt 1.000000 0.500000
vt 0.500000 0.000000
vt 0.250000 0.750000
vt 0.750000 0.750000
vt 0.250000 0.250000
vt 0.750000 0.250000
vt 0.750000 0.000000
vt 0.250000 0.000000
vt 1.000000 0.750000
vt 1.000000 0.250000
vt 0.250000 1.000000
vt 0.750000 1.000000
vt 0.000000 0.250000
vt 0.000000 0.750000
vt 0.500000 0.250000
vt 0.250000 0.500000
vt 0.500000 0.750000
vt 0.366647 0.369126
vt 0.875000 0.375000
vt 0.625000 0.125000
vt 0.625000 0.375000
vt 0.875000 0.125000
vt 0.375000 0.125000
vt 0.125000 0.125000
vt 0.750000 0.687500
vt 0.875000 0.625000
vt 0.625000 0.625000
vt 0.875000 0.875000
vt 0.375000 0.875000
vt 0.375000 0.625000
vt 0.125000 0.875000
vt 0.125000 0.625000
vt 0.625000 0.875000
vt 0.125000 0.375000
vt 0.250000 0.125000
vt 0.875000 0.750000
vt 0.875000 0.250000
vt 0.250000 0.875000
vt 0.750000 0.875000
vt 0.125000 0.250000
vt 0.125000 0.750000
vt 0.304602 0.713891
vt 0.812500 0.875000
vt 0.750000 0.625000
vt 0.875000 0.500000
vt 0.365405 0.657715
vt 0.375000 0.750000
vt 0.000000 0.375000
vt 0.500000 0.875000
vt 0.500000 0.625000
vt 0.250000 0.375000
vt 0.125000 0.500000
vt 0.375000 0.500000
vt 0.625000 0.250000
vt 0.500000 0.125000
vt 0.500000 0.375000
vt 0.000000 0.625000
vt 0.000000 0.875000
vt 0.000000 0.125000
vt 0.625000 1.000000
vt 0.875000 1.000000
vt 0.125000 1.000000
vt 0.375000 1.000000
vt 1.000000 0.375000
vt 1.000000 0.125000
vt 1.000000 0.875000
vt 1.000000 0.625000
vt 0.375000 0.000000
vt 0.125000 0.000000
vt 0.875000 0.000000
vt 0.625000 0.000000
vt 0.750000 0.125000
vt 0.625000 0.500000
vt 0.287050 0.559725
vt 0.062500 0.312500
vt 0.187500 0.437500
vt 0.187500 0.312500
vt 0.062500 0.437500
vt 0.687500 0.937500
vt 0.687500 0.812500
vt 0.562500 0.937500
vt 0.062500 0.687500
vt 0.187500 0.687500
vt 0.062500 0.562500
vt 0.187500 0.937500
vt 0.187500 0.812500
vt 0.062500 0.937500
vt 0.437500 0.562500
vt 0.534117 0.728790
vt 0.437500 0.812500
vt 0.312500 0.812500
vt 0.437500 0.937500
vt 0.937500 0.812500
vt 0.812500 0.812500
vt 0.937500 0.937500
vt 0.700455 0.588651
vt 0.562500 0.562500
vt 0.423942 0.682417
vt 0.812500 0.562500
vt 0.812500 0.687500
vt 0.937500 0.562500
vt 0.311128 0.261404
vt 0.561902 0.314591
vt 0.437500 0.437500
vt 0.187500 0.062500
vt 0.062500 0.062500
vt 0.187500 0.187500
vt 0.312500 0.062500
vt 0.312500 0.187500
vt 0.437500 0.062500
vt 0.812500 0.062500
vt 0.937500 0.062500
vt 0.341199 0.429471
vt 0.562500 0.437500
vt 0.312730 0.497630
vt 0.562500 0.187500
vt 0.687500 0.187500
vt 0.562500 0.062500
vt 0.937500 0.312500
vt 0.812500 0.312500
vt 0.937500 0.437500
vt 0.312500 0.937500
vt 0.407242 0.320791
vt 0.812500 0.187500
vt 0.250000 0.187500
vt 0.687500 0.062500
vt 0.687500 0.437500
vt 0.937500 0.187500
vt 0.437500 0.187500
vt 0.062500 0.187500
vt 0.735766 0.504220
vt 0.937500 0.687500
vt 0.673392 0.361321
vt 0.062500 0.812500
vt 0.812500 0.937500
vt 0.187500 0.562500
vt 0.562500 0.812500
vt 0.812500 0.437500
vt 0.415423 0.254183
vt 0.264582 0.614827
vt 0.776781 0.405060
vt 0.625251 0.766485
vt 0.673003 0.653790
vt 0.501187 0.289392
vt 0.296906 0.332149
vt 0.187500 0.750000
vt 0.713437 0.300753
vt 0.750000 0.812500
vt 0.581168 0.672349
vt 0.187500 0.250000
vt 0.688844 0.757642
vn 0.071097 0.071097 0.994932
vn -0.076096 0.076096 0.994193
vn 0.070329 -0.070329 0.995042
vn -0.076189 -0.076189 0.994178
vn 0.000000 0.000000 1.000000
vn 0.249666 0.003282 0.968327
vn -0.007079 -0.202385 0.979281
vn -0.158547 -0.000728 0.987351
vn -0.002051 0.236848 0.971545
vn -0.154878 0.259385 0.953274
vn 0.258474 0.123059 0.958148
vn -0.250320 -0.107763 0.962147
vn 0.133115 -0.227936 0.964534
vn 0.001689 0.245448 0.969408
vn 0.006315 0.276805 0.960905
vn -0.247051 0.011416 0.968935
vn -0.253526 -0.009567 0.967281
vn 0.000516 -0.253309 0.967385
vn 0.015682 -0.267364 0.963468
vn 0.227043 -0.001464 0.973884
vn 0.271397 -0.005826 0.962450
vn 0.126675 -0.306327 0.943460
vn -0.293520 -0.125863 0.947631
vn -0.143125 0.289915 0.946290
vn -0.137000 -0.049772 0.989320
vn 0.216727 -0.085944 0.972442
vn 0.062086 -0.064716 0.995970
vn -0.001213 0.002191 0.999997
vn -0.071325 0.069268 0.995045
vn -0.071278 -0.159311 0.984652
vn 0.101342 0.089490 0.990819
vn 0.266361 0.136102 0.954216
vn 0.076406 0.070448 0.994585
vn -0.001045 -0.001353 0.999999
vn -0.050782 -0.039196 0.997940
vn -0.071904 0.061980 0.995484
vn 0.001311 -0.002822 0.999995
vn 0.087640 -0.089876 0.992089
vn -0.154534 0.034912 0.987370
vn 0.035860 0.235300 0.971261
vn -0.007327 -0.057038 0.998345
vn -0.111664 -0.009294 0.993703
vn 0.008777 0.054726 0.998463
vn 0.021682 -0.109998 0.993695
vn -0.051732 -0.042715 0.997747
vn 0.146022 0.062234 0.987322
vn 0.063346 -0.041608 0.997124
vn -0.030639 0.117010 0.992658
vn -0.117722 0.282879 0.951904
vn 0.054953 -0.015012 0.998376
vn 0.279345 0.114913 0.953290
vn 0.166217 0.058565 0.984348
vn -0.033674 0.094445 0.994960
vn -0.093608 0.271407 0.957902
vn 0.233766 0.004963 0.972280
vn -0.066889 0.156417 0.985424
vn -0.000020 -0.000820 1.000000
vn -0.259223 -0.100117 0.960614
vn -0.112308 -0.037832 0.992953
vn 0.001362 0.000665 0.999999
vn 0.097607 -0.252482 0.962666
vn 0.036392 -0.152994 0.987557
vn -0.000065 0.000945 1.000000
vn 0.269249 0.006929 0.963046
vn 0.200754 -0.030819 0.979157
vn 0.186077 0.022581 0.982276
vn 0.012503 -0.212804 0.977015
vn -0.037526 -0.225372 0.973550
vn 0.028770 -0.196738 0.980034
vn -0.009884 -0.235323 0.971867
vn -0.197530 -0.019243 0.980108
vn -0.212224 0.030939 0.976731
vn -0.210912 -0.030147 0.977040
vn -0.191382 0.017361 0.981362
vn -0.012525 0.264870 0.964203
vn 0.031580 0.203779 0.978508
vn -0.024934 0.200472 0.979382
vn 0.002405 0.237573 0.971367
vn 0.041695 0.028405 0.998727
vn -0.000504 -0.000248 1.000000
vn -0.187430 -0.083432 0.978728
vn 0.180806 -0.015780 0.983392
vn -0.172471 -0.088364 0.981043
vn -0.134568 -0.083549 0.987376
vn 0.118966 -0.010135 0.992847
vn 0.050607 -0.044385 0.997732
vn 0.251471 0.163724 0.953917
vn -0.016028 -0.007471 0.999844
vn 0.139697 0.031086 0.989706
vn -0.201603 0.206697 0.957409
vn 0.085103 0.001728 0.996371
vn 0.017153 -0.195743 0.980505
vn -0.061978 0.084886 0.994461
vn 0.097844 -0.098862 0.990279
vn -0.000000 0.000000 1.000000
vn -0.097547 0.193524 0.976234
vn -0.101530 0.187753 0.976955
vn -0.109269 0.171643 0.979081
vn -0.024642 -0.074738 0.996899
vn -0.165145 -0.007863 0.986238
vn 0.108772 0.056886 0.992438
vn -0.099315 -0.095624 0.990451
vn 0.166252 0.064592 0.983966
vn -0.000000 -0.000174 1.000000
vn -0.064498 0.160725 0.984890
vn 0.219472 0.095938 0.970890
vn 0.187940 0.111773 0.975800
vn -0.041092 0.023556 0.998878
vn -0.308520 -0.116583 0.944047
vn 0.058259 -0.145102 0.987700
vn 0.000641 0.000394 1.000000
vn 0.025731 0.197185 0.980029
vn 0.097797 0.093246 0.990828
vn -0.074020 -0.046056 0.996193
vn -0.040735 0.138031 0.989590
vn -0.230484 -0.165923 0.958826
vn -0.009414 0.057885 0.998279
vn -0.017826 0.189038 0.981808
vn -0.095204 0.098258 0.990597
vn -0.128981 -0.050145 0.990378
vn 0.000000 -0.000000 1.000000
vn -0.164350 -0.068028 0.984053
vn 0.092290 -0.191117 0.977219
vn 0.092303 -0.170423 0.981038
vn 0.017379 0.086736 0.996080
vn -0.060941 -0.065524 0.995988
vn 0.142225 -0.244127 0.959257
vn 0.015301 0.004345 0.999874
vn -0.028836 -0.153787 0.987683
vn 0.001369 0.001073 0.999999
vn 0.029434 -0.085810 0.995877
vn -0.221708 -0.104418 0.969506
vn 0.022952 0.160640 0.986746
vn -0.001216 0.000342 0.999999
vn -0.168699 0.006170 0.985648
vn 0.023101 -0.280618 0.959542
vn 0.199432 0.018566 0.979736
vn 0.144543 0.058651 0.987759
vn -0.116693 0.037646 0.992454
vn 0.039381 -0.105760 0.993612
vn 0.194843 -0.020280 0.980625
vn 0.012964 -0.137421 0.990428
vn -0.258323 -0.057991 0.964316
vn -0.109563 0.253663 0.961068
vn 0.291839 0.110358 0.950079
vn -0.019063 -0.200655 0.979477
vn -0.193456 0.033087 0.980551
vn 0.213547 -0.017977 0.976767
vn 0.111241 0.175107 0.978245
vn 0.127708 0.055674 0.990248
vn 0.087112 -0.209704 0.973877
vn -0.295679 -0.089313 0.951103
vn -0.133467 0.238441 0.961942
vn 0.124430 -0.266890 0.955660
vn 0.227818 0.098286 0.968730
vn -0.000232 -0.001173 0.999999
vn -0.113028 -0.082155 0.990189
vn 0.300884 0.139686 0.943375
f 1/1/1 113/113/113 66/66/66
f 31/31/31 137/137/137 113/113/113
f 145/145/145 148/148/148 26/26/26
f 112/112/112 31/31/31 113/113/113
f 138/138/138 145/145/145 106/106/106
f 106/106/106 52/52/52 33/33/33
f 147/147/147 143/143/143 81/81/81
f 84/84/84 41/41/41 47/47/47
f 137/137/137 66/66/66 113/113/113
f 75/75/75 115/115/115 15/15/15
f 12/12/12 152/152/152 84/84/84
f 50/50/50 35/35/35 142/142/142
f 25/25/25 120/120/120 152/152/152
f 76/76/76 113/113/113 1/1/1
f 76/76/76 112/112/112 113/113/113
f 15/15/15 112/112/112 76/76/76
f 115/115/115 112/112/112 15/15/15
f 30/30/30 115/115/115 117/117/117
f 108/108/108 33/33/33 52/52/52
f 75/75/75 117/117/117 115/115/115
f 115/115/115 30/30/30 42/42/42
f 46/46/46 50/50/50 142/142/142
f 51/51/51 150/150/150 103/103/103
f 116/116/116 30/30/30 136/136/136
f 122/122/122 23/23/23 120/120/120
f 54/54/54 98/98/98 49/49/49
f 42/42/42 112/112/112 115/115/115
f 58/58/58 84/84/84 152/152/152
f 13/13/13 154/154/154 124/124/124
f 60/60/60 120/120/120 111/111/111
f 53/53/53 147/147/147 37/37/37
f 127/127/127 26/26/26 148/148/148
f 101/101/101 43/43/43 35/35/35
f 104/104/104 80/80/80 34/34/34
f 10/10/10 49/49/49 98/98/98
f 83/83/83 58/58/58 23/23/23
f 49/49/49 53/53/53 54/54/54
f 117/117/117 62/62/62 30/30/30
f 132/132/132 12/12/12 114/114/114
f 62/62/62 123/123/123 136/136/136
f 77/77/77 2/2/2 119/119/119
f 77/77/77 119/119/119 118/118/118
f 71/71/71 128/128/128 126/126/126
f 58/58/58 152/152/152 120/120/120
f 63/63/63 28/28/28 121/121/121
f 119/119/119 29/29/29 118/118/118
f 158/158/158 11/11/11 87/87/87
f 125/125/125 27/27/27 62/62/62
f 135/135/135 72/72/72 17/17/17
f 136/136/136 30/30/30 62/62/62
f 58/58/58 120/120/120 23/23/23
f 60/60/60 122/122/122 120/120/120
f 127/127/127 44/44/44 26/26/26
f 11/11/11 32/32/32 107/107/107
f 146/146/146 116/116/116 136/136/136
f 154/154/154 148/148/148 140/140/140
f 22/22/22 146/146/146 136/136/136
f 63/63/63 130/130/130 151/151/151
f 145/145/145 138/138/138 148/148/148
f 154/154/154 140/140/140 61/61/61
f 82/82/82 47/47/47 41/41/41
f 45/45/45 98/98/98 36/36/36
f 82/82/82 137/137/137 47/47/47
f 61/61/61 124/124/124 154/154/154
f 26/26/26 126/126/126 128/128/128
f 62/62/62 117/117/117 125/125/125
f 20/20/20 137/137/137 82/82/82
f 38/38/38 92/92/92 94/94/94
f 20/20/20 66/66/66 137/137/137
f 55/55/55 20/20/20 82/82/82
f 69/69/69 94/94/94 92/92/92
f 143/143/143 90/90/90 39/39/39
f 8/8/8 108/108/108 128/128/128
f 141/141/141 48/48/48 38/38/38
f 24/24/24 144/144/144 97/97/97
f 65/65/65 141/141/141 94/94/94
f 114/114/114 31/31/31 42/42/42
f 38/38/38 94/94/94 141/141/141
f 92/92/92 18/18/18 69/69/69
f 97/97/97 54/54/54 24/24/24
f 151/151/151 110/110/110 63/63/63
f 11/11/11 107/107/107 101/101/101
f 29/29/29 119/119/119 135/135/135
f 143/143/143 59/59/59 83/83/83
f 153/153/153 90/90/90 10/10/10
f 43/43/43 101/101/101 107/107/107
f 129/129/129 45/45/45 36/36/36
f 27/27/27 124/124/124 123/123/123
f 85/85/85 41/41/41 59/59/59
f 78/78/78 125/125/125 9/9/9
f 70/70/70 129/129/129 99/99/99
f 83/83/83 59/59/59 41/41/41
f 129/129/129 70/70/70 18/18/18
f 36/36/36 99/99/99 129/129/129
f 93/93/93 38/38/38 48/48/48
f 38/38/38 45/45/45 92/92/92
f 52/52/52 128/128/128 108/108/108
f 65/65/65 94/94/94 3/3/3
f 72/72/72 135/135/135 119/119/119
f 94/94/94 69/69/69 3/3/3
f 39/39/39 90/90/90 48/48/48
f 21/21/21 141/141/141 65/65/65
f 18/18/18 92/92/92 129/129/129
f 6/6/6 91/91/91 64/64/64
f 105/105/105 24/24/24 54/54/54
f 93/93/93 45/45/45 38/38/38
f 89/89/89 39/39/39 48/48/48
f 13/13/13 124/124/124 131/131/131
f 45/45/45 129/129/129 92/92/92
f 9/9/9 125/125/125 117/117/117
f 64/64/64 89/89/89 21/21/21
f 55/55/55 82/82/82 85/85/85
f 6/6/6 85/85/85 91/91/91
f 59/59/59 91/91/91 85/85/85
f 41/41/41 85/85/85 82/82/82
f 6/6/6 55/55/55 85/85/85
f 23/23/23 143/143/143 83/83/83
f 59/59/59 39/39/39 91/91/91
f 148/148/148 134/134/134 140/140/140
f 143/143/143 39/39/39 59/59/59
f 118/118/118 29/29/29 79/79/79
f 29/29/29 44/44/44 131/131/131
f 134/134/134 148/148/148 138/138/138
f 58/58/58 83/83/83 84/84/84
f 119/119/119 2/2/2 72/72/72
f 44/44/44 126/126/126 26/26/26
f 146/146/146 130/130/130 25/25/25
f 138/138/138 103/103/103 80/80/80
f 10/10/10 98/98/98 93/93/93
f 21/21/21 89/89/89 141/141/141
f 105/105/105 53/53/53 37/37/37
f 51/51/51 32/32/32 150/150/150
f 79/79/79 133/133/133 118/118/118
f 118/118/118 133/133/133 14/14/14
f 79/79/79 131/131/131 124/124/124
f 100/100/100 35/35/35 43/43/43
f 90/90/90 153/153/153 48/48/48
f 48/48/48 141/141/141 89/89/89
f 78/78/78 133/133/133 125/125/125
f 62/62/62 27/27/27 123/123/123
f 37/37/37 147/147/147 81/81/81
f 10/10/10 90/90/90 49/49/49
f 146/146/146 25/25/25 109/109/109
f 148/148/148 154/154/154 127/127/127
f 5/5/5 95/95/95 111/111/111
f 110/110/110 151/151/151 22/22/22
f 57/57/57 37/37/37 95/95/95
f 37/37/37 57/57/57 105/105/105
f 27/27/27 125/125/125 133/133/133
f 121/121/121 5/5/5 111/111/111
f 151/151/151 146/146/146 22/22/22
f 123/123/123 22/22/22 136/136/136
f 17/17/17 126/126/126 135/135/135
f 41/41/41 84/84/84 83/83/83
f 53/53/53 49/49/49 147/147/147
f 60/60/60 111/111/111 95/95/95
f 28/28/28 134/134/134 80/80/80
f 104/104/104 95/95/95 5/5/5
f 28/28/28 140/140/140 134/134/134
f 24/24/24 105/105/105 96/96/96
f 57/57/57 95/95/95 104/104/104
f 24/24/24 96/96/96 144/144/144
f 132/132/132 42/42/42 116/116/116
f 12/12/12 132/132/132 116/116/116
f 45/45/45 93/93/93 98/98/98
f 110/110/110 28/28/28 63/63/63
f 106/106/106 103/103/103 138/138/138
f 9/9/9 117/117/117 75/75/75
f 26/26/26 128/128/128 52/52/52
f 54/54/54 97/97/97 98/98/98
f 146/146/146 151/151/151 130/130/130
f 123/123/123 61/61/61 22/22/22
f 99/99/99 36/36/36 56/56/56
f 80/80/80 104/104/104 5/5/5
f 135/135/135 44/44/44 29/29/29
f 126/126/126 17/17/17 71/71/71
f 109/109/109 12/12/12 116/116/116
f 146/146/146 109/109/109 116/116/116
f 144/144/144 149/149/149 40/40/40
f 103/103/103 150/150/150 34/34/34
f 36/36/36 98/98/98 97/97/97
f 60/60/60 81/81/81 122/122/122
f 96/96/96 156/156/156 149/149/149
f 122/122/122 81/81/81 23/23/23
f 157/157/157 114/114/114 12/12/12
f 84/84/84 157/157/157 12/12/12
f 120/120/120 25/25/25 111/111/111
f 12/12/12 109/109/109 152/152/152
f 14/14/14 133/133/133 78/78/78
f 140/140/140 110/110/110 61/61/61
f 107/107/107 106/106/106 33/33/33
f 44/44/44 135/135/135 126/126/126
f 51/51/51 103/103/103 106/106/106
f 34/34/34 156/156/156 104/104/104
f 57/57/57 104/104/104 156/156/156
f 121/121/121 80/80/80 5/5/5
f 63/63/63 121/121/121 111/111/111
f 121/121/121 28/28/28 80/80/80
f 77/77/77 118/118/118 14/14/14
f 52/52/52 106/106/106 145/145/145
f 103/103/103 34/34/34 80/80/80
f 131/131/131 79/79/79 29/29/29
f 13/13/13 131/131/131 127/127/127
f 157/157/157 84/84/84 47/47/47
f 124/124/124 27/27/27 79/79/79
f 139/139/139 33/33/33 108/108/108
f 107/107/107 33/33/33 43/43/43
f 133/133/133 79/79/79 27/27/27
f 44/44/44 127/127/127 131/131/131
f 139/139/139 43/43/43 33/33/33
f 152/152/152 109/109/109 25/25/25
f 96/96/96 105/105/105 57/57/57
f 140/140/140 28/28/28 110/110/110
f 51/51/51 106/106/106 107/107/107
f 50/50/50 46/46/46 101/101/101
f 97/97/97 56/56/56 36/36/36
f 86/86/86 46/46/46 142/142/142
f 112/112/112 42/42/42 31/31/31
f 40/40/40 46/46/46 86/86/86
f 74/74/74 139/139/139 108/108/108
f 100/100/100 43/43/43 139/139/139
f 137/137/137 31/31/31 47/47/47
f 114/114/114 47/47/47 31/31/31
f 88/88/88 40/40/40 86/86/86
f 16/16/16 100/100/100 139/139/139
f 102/102/102 35/35/35 100/100/100
f 68/68/68 142/142/142 102/102/102
f 88/88/88 99/99/99 56/56/56
f 142/142/142 35/35/35 102/102/102
f 53/53/53 105/105/105 54/54/54
f 95/95/95 37/37/37 60/60/60
f 19/19/19 86/86/86 142/142/142
f 88/88/88 56/56/56 40/40/40
f 144/144/144 40/40/40 56/56/56
f 96/96/96 149/149/149 144/144/144
f 81/81/81 60/60/60 37/37/37
f 87/87/87 46/46/46 40/40/40
f 110/110/110 22/22/22 61/61/61
f 87/87/87 155/155/155 46/46/46
f 144/144/144 56/56/56 97/97/97
f 23/23/23 81/81/81 143/143/143
f 64/64/64 91/91/91 89/89/89
f 156/156/156 96/96/96 57/57/57
f 67/67/67 88/88/88 86/86/86
f 7/7/7 99/99/99 88/88/88
f 7/7/7 70/70/70 99/99/99
f 67/67/67 7/7/7 88/88/88
f 19/19/19 67/67/67 86/86/86
f 68/68/68 19/19/19 142/142/142
f 73/73/73 102/102/102 100/100/100
f 4/4/4 68/68/68 102/102/102
f 73/73/73 4/4/4 102/102/102
f 16/16/16 73/73/73 100/100/100
f 74/74/74 16/16/16 139/139/139
f 8/8/8 74/74/74 108/108/108
f 39/39/39 89/89/89 91/91/91
f 153/153/153 93/93/93 48/48/48
f 116/116/116 42/42/42 30/30/30
f 134/134/134 138/138/138 80/80/80
f 61/61/61 123/123/123 124/124/124
f 145/145/145 26/26/26 52/52/52
f 87/87/87 40/40/40 149/149/149
f 128/128/128 71/71/71 8/8/8
f 111/111/111 25/25/25 130/130/130
f 32/32/32 51/51/51 107/107/107
f 42/42/42 132/132/132 114/114/114
f 150/150/150 156/156/156 34/34/34
f 147/147/147 49/49/49 90/90/90
f 156/156/156 150/150/150 149/149/149
f 155/155/155 101/101/101 46/46/46
f 35/35/35 50/50/50 101/101/101
f 147/147/147 90/90/90 143/143/143
f 101/101/101 155/155/155 11/11/11
f 155/155/155 87/87/87 11/11/11
f 93/93/93 153/153/153 10/10/10
f 154/154/154 13/13/13 127/127/127
f 114/114/114 157/157/157 47/47/47
f 111/111/111 130/130/130 63/63/63
f 149/149/149 158/158/158 87/87/87
f 158/158/158 149/149/149 150/150/150
f 11/11/11 158/158/158 32/32/32
f 150/150/150 32/32/32 158/158/158
