# frame 000128 
# time 0.064500 
# name Cloth3D 
v -0.000000 0.000000 -0.000000
v 1.000000 0.000000 -0.000000
v -0.000000 1.000000 0.000000
v 1.000000 1.000000 0.000000
v 0.499976 0.500047 0.027034
v -0.000000 0.500000 0.000000
v 0.500000 1.000000 0.000000
v 1.000000 0.500000 0.000000
v 0.500000 -0.000000 0.000000
v 0.248373 0.750784 -0.006327
v 0.751379 0.752550 0.001719
v 0.250119 0.248712 -0.010173
v 0.751888 0.249564 -0.005347
v 0.750000 0.000000 0.000000
v 0.250000 0.000000 0.000000
v 1.000000 0.750000 0.000000
v 1.000000 0.250000 0.000000
v 0.250000 1.000000 0.000000
v 0.750000 1.000000 0.000000
v 0.000000 0.250000 0.000000
v 0.000000 0.750000 -0.000000
v 0.499966 0.248111 0.012002
v 0.248689 0.500212 0.007272
v 0.500056 0.751978 0.014165
v 0.358122 0.363983 0.027186
v 0.875878 0.374695 -0.009896
v 0.625165 0.125363 -0.021619
v 0.627443 0.373154 0.027034
v 0.876353 0.124002 -0.024225
v 0.375055 0.124650 -0.020016
v 0.123989 0.123853 -0.023501
v 0.373131 0.372366 0.027034
v 0.874616 0.625004 -0.017412
v 0.626810 0.627656 0.027034
v 0.876082 0.876278 -0.024937
v 0.375242 0.874804 -0.021398
v 0.372190 0.626942 0.027034
v 0.123826 0.876134 -0.023855
v 0.124797 0.625306 -0.022115
v 0.625576 0.875882 -0.010995
v 0.125251 0.375059 -0.022252
v 0.249817 0.123664 -0.024253
v 0.875431 0.750335 -0.023570
v 0.876375 0.250060 -0.021689
v 0.249751 0.875692 -0.024381
v 0.750133 0.876116 -0.021211
v 0.124673 0.249673 -0.022024
v 0.123738 0.750398 -0.024691
v 0.302215 0.714495 0.006677
v 0.812934 0.876266 -0.022999
v 0.750278 0.626402 0.006870
v 0.874533 0.499649 -0.013647
v 0.359839 0.667166 0.027186
v 0.373958 0.750210 0.002445
v 0.000000 0.375000 0.000000
v 0.500635 0.874604 -0.016827
v 0.499695 0.627227 0.027035
v 0.250852 0.374408 -0.004980
v 0.125369 0.500292 -0.021072
v 0.372746 0.499779 0.027035
v 0.626099 0.250037 0.000941
v 0.500017 0.125273 -0.018182
v 0.500225 0.372689 0.027035
v 0.000000 0.625000 0.000000
v 0.000000 0.875000 0.000000
v 0.000000 0.125000 0.000000
v 0.625000 1.000000 0.000000
v 0.875000 1.000000 0.000000
v 0.125000 1.000000 0.000000
v 0.375000 1.000000 0.000000
v 1.000000 0.375000 0.000000
v 1.000000 0.125000 0.000000
v 1.000000 0.875000 0.000000
v 1.000000 0.625000 0.000000
v 0.375000 0.000000 0.000000
v 0.125000 0.000000 0.000000
v 0.875000 0.000000 0.000000
v 0.625000 0.000000 0.000000
v 0.750508 0.124736 -0.022887
v 0.627129 0.500353 0.027035
v 0.291431 0.563630 0.027179
v 0.062389 0.312498 -0.011808
v 0.188795 0.437800 -0.016527
v 0.188431 0.312177 -0.020111
v 0.062786 0.437580 -0.010365
v 0.687605 0.939132 -0.016634
v 0.689488 0.816431 0.006485
v 0.562610 0.938501 -0.014929
v 0.061722 0.687602 -0.013997
v 0.185187 0.688506 -0.006064
v 0.062422 0.562603 -0.011712
v 0.187210 0.938342 -0.014531
v 0.186738 0.812932 -0.024690
v 0.062145 0.937868 -0.008402
v 0.436160 0.563511 0.027035
v 0.536723 0.726237 0.027179
v 0.437800 0.811626 -0.010715
v 0.312074 0.812199 -0.015629
v 0.437660 0.937817 -0.013088
v 0.938158 0.812836 -0.014167
v 0.812690 0.813443 -0.021354
v 0.937765 0.937784 -0.007975
v 0.703671 0.590750 0.027179
v 0.563423 0.563843 0.027035
v 0.421299 0.687672 0.027179
v 0.811624 0.562506 -0.006317
v 0.812427 0.688432 -0.010104
v 0.937879 0.562453 -0.013034
v 0.311431 0.259189 0.001054
v 0.562542 0.313562 0.027179
v 0.436554 0.436208 0.027035
v 0.187179 0.061400 -0.014852
v 0.062132 0.062128 -0.008594
v 0.187337 0.186632 -0.023818
v 0.312517 0.061532 -0.014265
v 0.311855 0.185294 -0.006569
v 0.437602 0.061846 -0.013759
v 0.812901 0.061979 -0.013371
v 0.937875 0.062181 -0.008278
v 0.336979 0.427308 0.027179
v 0.563704 0.436559 0.027035
v 0.313154 0.498611 0.027179
v 0.562515 0.188565 -0.012446
v 0.688121 0.188601 -0.019099
v 0.562635 0.062305 -0.012441
v 0.939132 0.312554 -0.016212
v 0.815664 0.311152 0.002660
v 0.938319 0.437536 -0.013613
v 0.312534 0.937862 -0.013034
v 0.435328 0.271059 0.027179
v 0.813590 0.187440 -0.023160
v 0.765759 0.404921 0.027179
v 0.687663 0.062588 -0.011022
v 0.690957 0.436809 0.027034
v 0.938950 0.187199 -0.016197
v 0.437071 0.186283 -0.001620
v 0.061698 0.187200 -0.014405
v 0.733174 0.502449 0.027179
v 0.938020 0.687575 -0.013652
v 0.679190 0.352537 0.027179
v 0.061364 0.812885 -0.015234
v 0.812796 0.938753 -0.015614
v 0.187345 0.563341 -0.007739
v 0.563584 0.813074 0.000069
v 0.813796 0.436531 0.005137
v 0.393735 0.256996 0.027192
v 0.267001 0.636250 0.027192
v 0.773000 0.383749 0.027192
v 0.646250 0.762999 0.027192
v 0.680844 0.659072 0.027179
v 0.499086 0.292361 0.027179
v 0.296973 0.330547 0.005258
v 0.599342 0.747221 0.027186
v 0.716146 0.299701 0.010184
v 0.750924 0.814646 -0.008444
v 0.582224 0.675771 0.027107
vt 0.000000 0.000000
vt 1.000000 0.000000
vt 0.000000 1.000000
vt 1.000000 1.000000
vt 0.500000 0.500000
vt 0.000000 0.500000
vt 0.500000 1.000000
vt 1.000000 0.500000
vt 0.500000 0.000000
vt 0.250000 0.750000
vt 0.750000 0.750000
vt 0.250000 0.250000
vt 0.750000 0.250000
vt 0.750000 0.000000
vt 0.250000 0.000000
vt 1.000000 0.750000
vt 1.000000 0.250000
vt 0.250000 1.000000
vt 0.750000 1.000000
vt 0.000000 0.250000
vt 0.000000 0.750000
vt 0.500000 0.250000
vt 0.250000 0.500000
vt 0.500000 0.750000
vt 0.360229 0.366713
vt 0.875000 0.375000
vt 0.625000 0.125000
vt 0.625000 0.375000
vt 0.875000 0.125000
vt 0.375000 0.125000
vt 0.125000 0.125000
vt 0.375000 0.375000
vt 0.875000 0.625000
vt 0.625000 0.625000
vt 0.875000 0.875000
vt 0.375000 0.875000
vt 0.375000 0.625000
vt 0.125000 0.875000
vt 0.125000 0.625000
vt 0.625000 0.875000
vt 0.125000 0.375000
vt 0.250000 0.125000
vt 0.875000 0.750000
vt 0.875000 0.250000
vt 0.250000 0.875000
vt 0.750000 0.875000
vt 0.125000 0.250000
vt 0.125000 0.750000
vt 0.304602 0.713891
vt 0.812500 0.875000
vt 0.750000 0.625000
vt 0.875000 0.500000
vt 0.362817 0.664603
vt 0.375000 0.750000
vt 0.000000 0.375000
vt 0.500000 0.875000
vt 0.500000 0.625000
vt 0.250000 0.375000
vt 0.125000 0.500000
vt 0.375000 0.500000
vt 0.625000 0.250000
vt 0.500000 0.125000
vt 0.500000 0.375000
vt 0.000000 0.625000
vt 0.000000 0.875000
vt 0.000000 0.125000
vt 0.625000 1.000000
vt 0.875000 1.000000
vt 0.125000 1.000000
vt 0.375000 1.000000
vt 1.000000 0.375000
vt 1.000000 0.125000
vt 1.000000 0.875000
vt 1.000000 0.625000
vt 0.375000 0.000000
vt 0.125000 0.000000
vt 0.875000 0.000000
vt 0.625000 0.000000
vt 0.750000 0.125000
vt 0.625000 0.500000
vt 0.295567 0.562845
vt 0.062500 0.312500
vt 0.187500 0.437500
vt 0.187500 0.312500
vt 0.062500 0.437500
vt 0.687500 0.937500
vt 0.687500 0.812500
vt 0.562500 0.937500
vt 0.062500 0.687500
vt 0.187500 0.687500
vt 0.062500 0.562500
vt 0.187500 0.937500
vt 0.187500 0.812500
vt 0.062500 0.937500
vt 0.437500 0.562500
vt 0.536543 0.722300
vt 0.437500 0.812500
vt 0.312500 0.812500
vt 0.437500 0.937500
vt 0.937500 0.812500
vt 0.812500 0.812500
vt 0.937500 0.937500
vt 0.700658 0.588700
vt 0.562500 0.562500
vt 0.423095 0.684729
vt 0.812500 0.562500
vt 0.812500 0.687500
vt 0.937500 0.562500
vt 0.311128 0.261404
vt 0.561139 0.316585
vt 0.437500 0.437500
vt 0.187500 0.062500
vt 0.062500 0.062500
vt 0.187500 0.187500
vt 0.312500 0.062500
vt 0.312500 0.187500
vt 0.437500 0.062500
vt 0.812500 0.062500
vt 0.937500 0.062500
vt 0.339508 0.428848
vt 0.562500 0.437500
vt 0.316441 0.499010
vt 0.562500 0.187500
vt 0.687500 0.187500
vt 0.562500 0.062500
vt 0.937500 0.312500
vt 0.812500 0.312500
vt 0.937500 0.437500
vt 0.312500 0.937500
vt 0.436187 0.275768
vt 0.812500 0.187500
vt 0.760691 0.406195
vt 0.687500 0.062500
vt 0.687500 0.437500
vt 0.937500 0.187500
vt 0.437500 0.187500
vt 0.062500 0.187500
vt 0.729464 0.501858
vt 0.937500 0.687500
vt 0.675876 0.354649
vt 0.062500 0.812500
vt 0.812500 0.937500
vt 0.187500 0.562500
vt 0.562500 0.812500
vt 0.812500 0.437500
vt 0.395447 0.262523
vt 0.272598 0.634016
vt 0.767552 0.385539
vt 0.643979 0.757251
vt 0.678267 0.655748
vt 0.498702 0.296104
vt 0.296906 0.332149
vt 0.598010 0.742339
vt 0.713437 0.300753
vt 0.750000 0.812500
vt 0.581168 0.672349
vn 0.069230 0.069230 0.995196
vn -0.066720 0.066720 0.995538
vn 0.067808 -0.067808 0.995391
vn -0.064394 -0.064394 0.995845
vn 0.000000 0.000000 1.000000
vn 0.170905 0.005239 0.985274
vn 0.007893 -0.217662 0.975992
vn -0.208619 -0.002892 0.977993
vn -0.005317 0.202797 0.979206
vn -0.105114 0.215640 0.970799
vn 0.242516 0.115696 0.963224
vn -0.169162 -0.078430 0.982463
vn 0.062248 -0.237969 0.969276
vn 0.009932 0.191612 0.981420
vn -0.002932 0.229154 0.973386
vn -0.217709 0.002595 0.976010
vn -0.255512 0.000126 0.966806
vn -0.006703 -0.216179 0.976331
vn -0.003906 -0.253196 0.967407
vn 0.206833 -0.010774 0.978317
vn 0.229982 0.005624 0.973179
vn 0.100954 -0.314120 0.944001
vn -0.300521 -0.088088 0.949699
vn -0.099676 0.317773 0.942913
vn -0.049639 -0.016331 0.998634
vn 0.183558 -0.021829 0.982766
vn 0.018359 0.034448 0.999238
vn -0.000974 0.001973 0.999998
vn -0.067650 0.082549 0.994288
vn -0.020769 -0.076287 0.996870
vn 0.078565 0.071601 0.994334
vn 0.006926 0.002222 0.999974
vn 0.039036 0.026881 0.998876
vn -0.000915 -0.001219 0.999999
vn -0.055834 -0.067317 0.996168
vn -0.023282 -0.003395 0.999723
vn 0.000967 -0.002175 0.999997
vn 0.078074 -0.083062 0.993481
vn -0.044221 0.006918 0.998998
vn -0.003551 0.148758 0.988867
vn 0.058086 -0.010741 0.998254
vn -0.040844 0.013272 0.999077
vn -0.014742 0.037346 0.999194
vn 0.048266 -0.077921 0.995790
vn -0.024704 -0.049705 0.998458
vn 0.094035 0.069844 0.993116
vn 0.067826 -0.014915 0.997586
vn 0.006247 0.041413 0.999123
vn -0.074772 0.267672 0.960604
vn 0.026364 -0.045729 0.998606
vn 0.293546 0.076984 0.952840
vn 0.098015 0.036313 0.994522
vn -0.037943 0.117014 0.992405
vn -0.073657 0.273298 0.959105
vn 0.173288 -0.006445 0.984850
vn -0.037611 0.064682 0.997197
vn -0.000025 -0.000843 1.000000
vn -0.252977 -0.052120 0.966067
vn 0.012660 -0.014539 0.999814
vn 0.001473 0.000611 0.999999
vn 0.067146 -0.279609 0.957763
vn 0.022188 -0.043945 0.998788
vn -0.000186 0.000999 0.999999
vn 0.200115 0.009754 0.979724
vn 0.188577 -0.027055 0.981686
vn 0.183309 0.022971 0.982787
vn 0.007191 -0.246825 0.969033
vn -0.029968 -0.187582 0.981792
vn 0.024033 -0.182633 0.982887
vn -0.000198 -0.202785 0.979223
vn -0.235035 -0.010729 0.971928
vn -0.194793 0.031265 0.980346
vn -0.176011 -0.024116 0.984093
vn -0.207847 0.002490 0.978158
vn -0.002667 0.218296 0.975879
vn 0.024766 0.186851 0.982076
vn -0.019950 0.172376 0.984829
vn -0.005162 0.182399 0.983211
vn 0.017275 0.070133 0.997388
vn -0.000541 -0.000264 1.000000
vn -0.170613 -0.053395 0.983890
vn 0.172562 -0.008087 0.984966
vn -0.177924 -0.049898 0.982778
vn -0.121391 -0.021995 0.992361
vn 0.169885 -0.002603 0.985460
vn 0.021117 -0.131478 0.991094
vn 0.144032 0.246839 0.958293
vn -0.003666 -0.114482 0.993419
vn 0.184539 0.012248 0.982749
vn -0.242095 0.088146 0.966240
vn 0.170827 0.010091 0.985249
vn 0.009570 -0.189130 0.981905
vn -0.050477 0.068157 0.996397
vn 0.093249 -0.094785 0.991121
vn -0.000000 0.000000 1.000000
vn -0.060226 0.183015 0.981264
vn -0.061415 0.216317 0.974390
vn -0.048696 0.171090 0.984051
vn -0.004779 -0.152575 0.988280
vn -0.189995 -0.008316 0.981750
vn 0.118220 0.085563 0.989294
vn -0.096506 -0.093546 0.990927
vn 0.189589 0.064664 0.979732
vn 0.000001 -0.000174 1.000000
vn -0.050381 0.157941 0.986162
vn 0.230486 0.063424 0.971006
vn 0.195782 0.048222 0.979461
vn -0.125597 0.007221 0.992055
vn -0.222404 -0.101806 0.969625
vn 0.044125 -0.141259 0.988989
vn 0.000431 0.000001 1.000000
vn 0.012179 0.187332 0.982221
vn 0.093654 0.092756 0.991274
vn -0.043444 -0.037784 0.998341
vn -0.010124 0.175164 0.984487
vn -0.129895 -0.178474 0.975333
vn -0.007738 0.153219 0.988162
vn -0.001900 0.183875 0.982948
vn -0.091372 0.097070 0.991075
vn -0.119205 -0.039129 0.992098
vn 0.000000 -0.000000 1.000000
vn -0.138057 -0.045744 0.989367
vn 0.062491 -0.207255 0.976289
vn 0.033314 -0.156297 0.987148
vn 0.000928 0.157970 0.987444
vn -0.128590 -0.027632 0.991313
vn 0.205581 -0.172012 0.963404
vn -0.097606 0.000476 0.995225
vn -0.008877 -0.180013 0.983624
vn 0.066692 -0.197856 0.977960
vn 0.041455 -0.091190 0.994970
vn 0.203422 0.069272 0.976638
vn 0.004338 0.173866 0.984760
vn -0.001346 0.000175 0.999999
vn -0.181569 0.011123 0.983315
vn 0.038550 -0.293276 0.955250
vn 0.178117 0.002791 0.984005
vn 0.147773 0.045627 0.987968
vn -0.162535 0.014004 0.986603
vn 0.031050 -0.113654 0.993035
vn 0.190554 -0.012315 0.981599
vn -0.003145 -0.169127 0.985589
vn -0.264336 -0.043270 0.963460
vn -0.079788 0.280659 0.956485
vn 0.316244 0.094157 0.943994
vn -0.037597 -0.192631 0.980551
vn -0.169595 0.079028 0.982340
vn 0.201451 0.017513 0.979342
vn 0.030892 0.200561 0.979194
vn 0.127796 0.032259 0.991276
vn 0.068329 -0.206222 0.976117
vn -0.256523 -0.078612 0.963336
vn -0.056057 0.167618 0.984257
vn 0.072454 -0.256599 0.963798
vn 0.219838 0.181313 0.958539
vn -0.000192 -0.001245 0.999999
f 1/1/1 113/113/113 66/66/66
f 31/31/31 137/137/137 113/113/113
f 145/145/145 148/148/148 26/26/26
f 112/112/112 31/31/31 113/113/113
f 138/138/138 145/145/145 106/106/106
f 106/106/106 52/52/52 33/33/33
f 124/124/124 13/13/13 61/61/61
f 84/84/84 41/41/41 47/47/47
f 137/137/137 66/66/66 113/113/113
f 75/75/75 115/115/115 15/15/15
f 12/12/12 152/152/152 84/84/84
f 50/50/50 35/35/35 142/142/142
f 25/25/25 120/120/120 152/152/152
f 76/76/76 113/113/113 1/1/1
f 76/76/76 112/112/112 113/113/113
f 15/15/15 112/112/112 76/76/76
f 115/115/115 112/112/112 15/15/15
f 30/30/30 115/115/115 117/117/117
f 108/108/108 33/33/33 52/52/52
f 75/75/75 117/117/117 115/115/115
f 115/115/115 30/30/30 42/42/42
f 46/46/46 50/50/50 142/142/142
f 51/51/51 150/150/150 103/103/103
f 116/116/116 30/30/30 136/136/136
f 122/122/122 23/23/23 120/120/120
f 54/54/54 98/98/98 49/49/49
f 42/42/42 112/112/112 115/115/115
f 58/58/58 84/84/84 152/152/152
f 48/48/48 90/90/90 93/93/93
f 60/60/60 120/120/120 111/111/111
f 53/53/53 147/147/147 37/37/37
f 127/127/127 26/26/26 148/148/148
f 101/101/101 43/43/43 35/35/35
f 104/104/104 80/80/80 34/34/34
f 10/10/10 49/49/49 98/98/98
f 83/83/83 58/58/58 23/23/23
f 49/49/49 53/53/53 54/54/54
f 117/117/117 62/62/62 30/30/30
f 132/132/132 134/134/134 140/140/140
f 62/62/62 123/123/123 136/136/136
f 77/77/77 2/2/2 119/119/119
f 77/77/77 119/119/119 118/118/118
f 71/71/71 128/128/128 126/126/126
f 58/58/58 152/152/152 120/120/120
f 63/63/63 28/28/28 121/121/121
f 119/119/119 29/29/29 118/118/118
f 153/153/153 156/156/156 150/150/150
f 125/125/125 27/27/27 62/62/62
f 135/135/135 72/72/72 17/17/17
f 136/136/136 30/30/30 62/62/62
f 58/58/58 120/120/120 23/23/23
f 60/60/60 122/122/122 120/120/120
f 127/127/127 44/44/44 26/26/26
f 120/120/120 25/25/25 32/32/32
f 146/146/146 116/116/116 136/136/136
f 154/154/154 148/148/148 140/140/140
f 120/120/120 32/32/32 111/111/111
f 22/22/22 130/130/130 136/136/136
f 130/130/130 63/63/63 32/32/32
f 154/154/154 140/140/140 61/61/61
f 82/82/82 47/47/47 41/41/41
f 45/45/45 98/98/98 36/36/36
f 82/82/82 137/137/137 47/47/47
f 10/10/10 93/93/93 90/90/90
f 26/26/26 126/126/126 128/128/128
f 62/62/62 117/117/117 125/125/125
f 20/20/20 137/137/137 82/82/82
f 38/38/38 92/92/92 94/94/94
f 20/20/20 66/66/66 137/137/137
f 55/55/55 20/20/20 82/82/82
f 69/69/69 94/94/94 92/92/92
f 143/143/143 90/90/90 39/39/39
f 8/8/8 108/108/108 128/128/128
f 141/141/141 48/48/48 38/38/38
f 24/24/24 144/144/144 97/97/97
f 65/65/65 141/141/141 94/94/94
f 114/114/114 31/31/31 42/42/42
f 38/38/38 94/94/94 141/141/141
f 92/92/92 18/18/18 69/69/69
f 97/97/97 54/54/54 24/24/24
f 151/151/151 110/110/110 63/63/63
f 11/11/11 107/107/107 101/101/101
f 29/29/29 119/119/119 135/135/135
f 143/143/143 59/59/59 83/83/83
f 34/34/34 150/150/150 156/156/156
f 43/43/43 101/101/101 107/107/107
f 129/129/129 45/45/45 36/36/36
f 27/27/27 124/124/124 123/123/123
f 85/85/85 41/41/41 59/59/59
f 78/78/78 125/125/125 9/9/9
f 70/70/70 129/129/129 99/99/99
f 83/83/83 59/59/59 41/41/41
f 129/129/129 70/70/70 18/18/18
f 36/36/36 99/99/99 129/129/129
f 93/93/93 38/38/38 48/48/48
f 38/38/38 45/45/45 92/92/92
f 52/52/52 128/128/128 108/108/108
f 65/65/65 94/94/94 3/3/3
f 72/72/72 135/135/135 119/119/119
f 94/94/94 69/69/69 3/3/3
f 39/39/39 90/90/90 48/48/48
f 21/21/21 141/141/141 65/65/65
f 18/18/18 92/92/92 129/129/129
f 6/6/6 91/91/91 64/64/64
f 105/105/105 24/24/24 54/54/54
f 93/93/93 45/45/45 38/38/38
f 89/89/89 39/39/39 48/48/48
f 114/114/114 42/42/42 12/12/12
f 45/45/45 129/129/129 92/92/92
f 9/9/9 125/125/125 117/117/117
f 64/64/64 89/89/89 21/21/21
f 55/55/55 82/82/82 85/85/85
f 6/6/6 85/85/85 91/91/91
f 59/59/59 91/91/91 85/85/85
f 41/41/41 85/85/85 82/82/82
f 6/6/6 55/55/55 85/85/85
f 23/23/23 143/143/143 83/83/83
f 59/59/59 39/39/39 91/91/91
f 151/151/151 130/130/130 22/22/22
f 143/143/143 39/39/39 59/59/59
f 118/118/118 29/29/29 79/79/79
f 29/29/29 44/44/44 131/131/131
f 32/32/32 146/146/146 130/130/130
f 58/58/58 83/83/83 84/84/84
f 119/119/119 2/2/2 72/72/72
f 44/44/44 126/126/126 26/26/26
f 130/130/130 151/151/151 63/63/63
f 138/138/138 103/103/103 80/80/80
f 10/10/10 98/98/98 93/93/93
f 21/21/21 89/89/89 141/141/141
f 105/105/105 53/53/53 37/37/37
f 149/149/149 153/153/153 150/150/150
f 79/79/79 133/133/133 118/118/118
f 118/118/118 133/133/133 14/14/14
f 116/116/116 12/12/12 42/42/42
f 100/100/100 35/35/35 43/43/43
f 109/109/109 146/146/146 152/152/152
f 48/48/48 141/141/141 89/89/89
f 78/78/78 133/133/133 125/125/125
f 62/62/62 27/27/27 123/123/123
f 37/37/37 147/147/147 81/81/81
f 40/40/40 144/144/144 87/87/87
f 49/49/49 10/10/10 147/147/147
f 148/148/148 154/154/154 127/127/127
f 5/5/5 95/95/95 111/111/111
f 110/110/110 151/151/151 22/22/22
f 57/57/57 37/37/37 95/95/95
f 37/37/37 57/57/57 105/105/105
f 27/27/27 125/125/125 133/133/133
f 121/121/121 5/5/5 111/111/111
f 130/130/130 146/146/146 136/136/136
f 123/123/123 22/22/22 136/136/136
f 17/17/17 126/126/126 135/135/135
f 41/41/41 84/84/84 83/83/83
f 53/53/53 49/49/49 147/147/147
f 60/60/60 111/111/111 95/95/95
f 28/28/28 134/134/134 80/80/80
f 104/104/104 95/95/95 5/5/5
f 28/28/28 140/140/140 134/134/134
f 24/24/24 105/105/105 96/96/96
f 57/57/57 95/95/95 104/104/104
f 24/24/24 96/96/96 144/144/144
f 132/132/132 140/140/140 148/148/148
f 134/134/134 132/132/132 138/138/138
f 45/45/45 93/93/93 98/98/98
f 110/110/110 28/28/28 63/63/63
f 106/106/106 103/103/103 138/138/138
f 9/9/9 117/117/117 75/75/75
f 26/26/26 128/128/128 52/52/52
f 54/54/54 97/97/97 98/98/98
f 111/111/111 32/32/32 63/63/63
f 123/123/123 61/61/61 22/22/22
f 99/99/99 36/36/36 56/56/56
f 80/80/80 104/104/104 5/5/5
f 135/135/135 44/44/44 29/29/29
f 126/126/126 17/17/17 71/71/71
f 109/109/109 12/12/12 116/116/116
f 146/146/146 109/109/109 116/116/116
f 13/13/13 124/124/124 131/131/131
f 103/103/103 150/150/150 34/34/34
f 36/36/36 98/98/98 97/97/97
f 60/60/60 81/81/81 122/122/122
f 12/12/12 84/84/84 114/114/114
f 122/122/122 81/81/81 23/23/23
f 107/107/107 11/11/11 51/51/51
f 150/150/150 51/51/51 11/11/11
f 87/87/87 149/149/149 11/11/11
f 12/12/12 109/109/109 152/152/152
f 14/14/14 133/133/133 78/78/78
f 140/140/140 110/110/110 61/61/61
f 107/107/107 106/106/106 33/33/33
f 44/44/44 135/135/135 126/126/126
f 51/51/51 103/103/103 106/106/106
f 34/34/34 156/156/156 104/104/104
f 57/57/57 104/104/104 156/156/156
f 121/121/121 80/80/80 5/5/5
f 63/63/63 121/121/121 111/111/111
f 121/121/121 28/28/28 80/80/80
f 77/77/77 118/118/118 14/14/14
f 52/52/52 106/106/106 145/145/145
f 103/103/103 34/34/34 80/80/80
f 131/131/131 79/79/79 29/29/29
f 13/13/13 131/131/131 127/127/127
f 25/25/25 146/146/146 32/32/32
f 124/124/124 27/27/27 79/79/79
f 139/139/139 33/33/33 108/108/108
f 107/107/107 33/33/33 43/43/43
f 133/133/133 79/79/79 27/27/27
f 44/44/44 127/127/127 131/131/131
f 139/139/139 43/43/43 33/33/33
f 10/10/10 90/90/90 147/147/147
f 96/96/96 105/105/105 57/57/57
f 140/140/140 28/28/28 110/110/110
f 51/51/51 106/106/106 107/107/107
f 50/50/50 46/46/46 101/101/101
f 97/97/97 56/56/56 36/36/36
f 86/86/86 46/46/46 142/142/142
f 112/112/112 42/42/42 31/31/31
f 40/40/40 46/46/46 86/86/86
f 74/74/74 139/139/139 108/108/108
f 100/100/100 43/43/43 139/139/139
f 137/137/137 31/31/31 47/47/47
f 114/114/114 47/47/47 31/31/31
f 88/88/88 40/40/40 86/86/86
f 16/16/16 100/100/100 139/139/139
f 102/102/102 35/35/35 100/100/100
f 68/68/68 142/142/142 102/102/102
f 88/88/88 99/99/99 56/56/56
f 142/142/142 35/35/35 102/102/102
f 53/53/53 105/105/105 54/54/54
f 95/95/95 37/37/37 60/60/60
f 19/19/19 86/86/86 142/142/142
f 88/88/88 56/56/56 40/40/40
f 144/144/144 40/40/40 56/56/56
f 47/47/47 114/114/114 84/84/84
f 81/81/81 60/60/60 37/37/37
f 87/87/87 46/46/46 40/40/40
f 110/110/110 22/22/22 61/61/61
f 87/87/87 155/155/155 46/46/46
f 144/144/144 56/56/56 97/97/97
f 23/23/23 81/81/81 143/143/143
f 64/64/64 91/91/91 89/89/89
f 156/156/156 96/96/96 57/57/57
f 67/67/67 88/88/88 86/86/86
f 7/7/7 99/99/99 88/88/88
f 7/7/7 70/70/70 99/99/99
f 67/67/67 7/7/7 88/88/88
f 19/19/19 67/67/67 86/86/86
f 68/68/68 19/19/19 142/142/142
f 73/73/73 102/102/102 100/100/100
f 4/4/4 68/68/68 102/102/102
f 73/73/73 4/4/4 102/102/102
f 16/16/16 73/73/73 100/100/100
f 74/74/74 16/16/16 139/139/139
f 8/8/8 74/74/74 108/108/108
f 39/39/39 89/89/89 91/91/91
f 152/152/152 146/146/146 25/25/25
f 116/116/116 42/42/42 30/30/30
f 134/134/134 138/138/138 80/80/80
f 61/61/61 123/123/123 124/124/124
f 145/145/145 26/26/26 52/52/52
f 79/79/79 131/131/131 124/124/124
f 128/128/128 71/71/71 8/8/8
f 149/149/149 150/150/150 11/11/11
f 132/132/132 148/148/148 145/145/145
f 145/145/145 138/138/138 132/132/132
f 153/153/153 149/149/149 144/144/144
f 144/144/144 149/149/149 87/87/87
f 96/96/96 153/153/153 144/144/144
f 155/155/155 101/101/101 46/46/46
f 35/35/35 50/50/50 101/101/101
f 13/13/13 154/154/154 61/61/61
f 101/101/101 155/155/155 11/11/11
f 155/155/155 87/87/87 11/11/11
f 96/96/96 156/156/156 153/153/153
f 154/154/154 13/13/13 127/127/127
f 147/147/147 90/90/90 143/143/143
f 147/147/147 143/143/143 81/81/81
