# frame 000192 
# time 0.096500 
# name Cloth3D 
v -0.000000 0.000000 -0.000000
v 1.000000 0.000000 -0.000000
v -0.000000 1.000000 0.000000
v 1.000000 1.000000 0.000000
v 0.497978 0.499086 0.043034
v -0.000000 0.500000 0.000000
v 0.500000 1.000000 0.000000
v 1.000000 0.500000 0.000000
v 0.500000 -0.000000 0.000000
v 0.250119 0.748112 -0.001704
v 0.747351 0.748299 0.005037
v 0.251360 0.250825 -0.008841
v 0.747762 0.251887 -0.001893
v 0.750000 0.000000 0.000000
v 0.250000 0.000000 0.000000
v 1.000000 0.750000 0.000000
v 1.000000 0.250000 0.000000
v 0.250000 1.000000 0.000000
v 0.750000 1.000000 0.000000
v 0.000000 0.250000 0.000000
v 0.000000 0.750000 -0.000000
v 0.497942 0.246801 0.038290
v 0.247162 0.500570 0.029144
v 0.499120 0.751458 0.039044
v 0.368193 0.369370 0.043186
v 0.874903 0.374370 0.014028
v 0.623603 0.125664 -0.001869
v 0.624656 0.372403 0.043034
v 0.874585 0.125301 -0.016068
v 0.373909 0.123838 0.007502
v 0.124644 0.124688 -0.019051
v 0.747330 0.685479 0.011199
v 0.873460 0.623392 0.002201
v 0.625189 0.625327 0.043034
v 0.874253 0.874377 -0.013616
v 0.375648 0.873617 -0.003093
v 0.371727 0.626116 0.043034
v 0.124705 0.875078 -0.016743
v 0.123390 0.625150 0.006662
v 0.624929 0.875107 0.015413
v 0.125176 0.375673 -0.008446
v 0.250630 0.125029 -0.016235
v 0.873416 0.748646 -0.006664
v 0.873797 0.251105 -0.008856
v 0.250456 0.874204 -0.013103
v 0.748645 0.873893 -0.004199
v 0.124948 0.250555 -0.018089
v 0.124724 0.749287 -0.011843
v 0.304264 0.711634 0.010816
v 0.811284 0.874101 -0.009596
v 0.748795 0.623525 0.023463
v 0.875204 0.499149 0.019722
v 0.364639 0.654112 0.043186
v 0.374211 0.749209 0.018539
v 0.000000 0.375000 0.000000
v 0.500017 0.874593 0.013613
v 0.498453 0.625513 0.043035
v 0.249927 0.375562 0.008880
v 0.124069 0.500140 0.005605
v 0.371363 0.499496 0.043035
v 0.623190 0.249791 0.018474
v 0.498895 0.124327 0.010550
v 0.497834 0.372646 0.043035
v 0.000000 0.625000 0.000000
v 0.000000 0.875000 0.000000
v 0.000000 0.125000 0.000000
v 0.625000 1.000000 0.000000
v 0.875000 1.000000 0.000000
v 0.125000 1.000000 0.000000
v 0.375000 1.000000 0.000000
v 1.000000 0.375000 0.000000
v 1.000000 0.125000 0.000000
v 1.000000 0.875000 0.000000
v 1.000000 0.625000 0.000000
v 0.375000 0.000000 0.000000
v 0.125000 0.000000 0.000000
v 0.875000 0.000000 0.000000
v 0.625000 0.000000 0.000000
v 0.748802 0.125659 -0.010204
v 0.624695 0.498760 0.043035
v 0.270806 0.555343 0.043179
v 0.061884 0.312911 -0.013196
v 0.187028 0.438164 0.007002
v 0.188228 0.313391 -0.009609
v 0.062329 0.437744 -0.006276
v 0.687170 0.937115 0.001857
v 0.686592 0.811957 0.014136
v 0.562431 0.937256 0.006316
v 0.061920 0.687185 -0.009536
v 0.186471 0.686822 0.004898
v 0.062327 0.562445 -0.004953
v 0.187623 0.937906 -0.012882
v 0.187583 0.811644 -0.012198
v 0.061995 0.937994 -0.011169
v 0.434811 0.562527 0.043035
v 0.528971 0.740150 0.043179
v 0.437259 0.811918 0.016477
v 0.313028 0.810604 -0.004066
v 0.437585 0.936944 0.002897
v 0.936885 0.811994 -0.005916
v 0.810666 0.811135 -0.006488
v 0.937621 0.937631 -0.010302
v 0.703782 0.589551 0.043179
v 0.561549 0.562151 0.043035
v 0.421586 0.683908 0.043179
v 0.812451 0.561502 0.024231
v 0.810057 0.685522 0.002012
v 0.937185 0.562025 0.006853
v 0.312144 0.261627 0.004713
v 0.562868 0.307009 0.043179
v 0.434530 0.435967 0.043035
v 0.187550 0.061850 -0.013713
v 0.062066 0.062075 -0.010341
v 0.187896 0.187855 -0.016149
v 0.312624 0.062066 -0.009562
v 0.313038 0.187404 -0.001173
v 0.437201 0.062621 -0.002486
v 0.812069 0.062229 -0.012054
v 0.937736 0.062250 -0.010325
v 0.337416 0.428161 0.043179
v 0.561249 0.435717 0.043035
v 0.302610 0.494617 0.043179
v 0.560906 0.186866 0.016323
v 0.685451 0.188836 -0.002712
v 0.561913 0.062701 -0.001244
v 0.937007 0.312696 -0.000956
v 0.811007 0.313774 0.004762
v 0.937449 0.437203 0.008387
v 0.312847 0.937014 -0.006606
v 0.185210 0.624935 0.016803
v 0.811068 0.188596 -0.011098
v 0.250828 0.187854 -0.011586
v 0.686736 0.062638 -0.008381
v 0.688104 0.435396 0.043035
v 0.937103 0.187795 -0.007599
v 0.435468 0.184383 0.028475
v 0.061632 0.187542 -0.014802
v 0.746737 0.507538 0.043179
v 0.936620 0.686804 -0.001115
v 0.671251 0.363775 0.043179
v 0.061709 0.812392 -0.013317
v 0.812014 0.936968 -0.005202
v 0.183747 0.562822 0.025402
v 0.562719 0.813592 0.031198
v 0.814103 0.435640 0.035852
v 0.435655 0.240111 0.043192
v 0.250123 0.594322 0.043192
v 0.789878 0.425678 0.043192
v 0.604322 0.779877 0.043192
v 0.670658 0.652794 0.043179
v 0.503859 0.276103 0.043179
v 0.296599 0.332016 0.014217
v 0.187276 0.748921 -0.005746
v 0.711258 0.302372 0.011882
v 0.747578 0.810934 -0.002352
v 0.581059 0.673319 0.043107
v 0.279305 0.656609 0.026013
v 0.686585 0.756798 0.017078
v 0.397490 0.313257 0.043189
v 0.641652 0.708346 0.043186
v 0.745141 0.354542 0.023775
v 0.364424 0.218904 0.017448
v 0.726308 0.392509 0.043186
v 0.310572 0.625879 0.043189
v 0.432496 0.370721 0.043110
v 0.276882 0.435203 0.025915
v 0.340775 0.562909 0.043112
vt 0.000000 0.000000
vt 1.000000 0.000000
vt 0.000000 1.000000
vt 1.000000 1.000000
vt 0.500000 0.500000
vt 0.000000 0.500000
vt 0.500000 1.000000
vt 1.000000 0.500000
vt 0.500000 0.000000
vt 0.250000 0.750000
vt 0.750000 0.750000
vt 0.250000 0.250000
vt 0.750000 0.250000
vt 0.750000 0.000000
vt 0.250000 0.000000
vt 1.000000 0.750000
vt 1.000000 0.250000
vt 0.250000 1.000000
vt 0.750000 1.000000
vt 0.000000 0.250000
vt 0.000000 0.750000
vt 0.500000 0.250000
vt 0.250000 0.500000
vt 0.500000 0.750000
vt 0.371984 0.371622
vt 0.875000 0.375000
vt 0.625000 0.125000
vt 0.625000 0.375000
vt 0.875000 0.125000
vt 0.375000 0.125000
vt 0.125000 0.125000
vt 0.750000 0.687500
vt 0.875000 0.625000
vt 0.625000 0.625000
vt 0.875000 0.875000
vt 0.375000 0.875000
vt 0.375000 0.625000
vt 0.125000 0.875000
vt 0.125000 0.625000
vt 0.625000 0.875000
vt 0.125000 0.375000
vt 0.250000 0.125000
vt 0.875000 0.750000
vt 0.875000 0.250000
vt 0.250000 0.875000
vt 0.750000 0.875000
vt 0.125000 0.250000
vt 0.125000 0.750000
vt 0.304602 0.713891
vt 0.812500 0.875000
vt 0.750000 0.625000
vt 0.875000 0.500000
vt 0.367834 0.652593
vt 0.375000 0.750000
vt 0.000000 0.375000
vt 0.500000 0.875000
vt 0.500000 0.625000
vt 0.250000 0.375000
vt 0.125000 0.500000
vt 0.375000 0.500000
vt 0.625000 0.250000
vt 0.500000 0.125000
vt 0.500000 0.375000
vt 0.000000 0.625000
vt 0.000000 0.875000
vt 0.000000 0.125000
vt 0.625000 1.000000
vt 0.875000 1.000000
vt 0.125000 1.000000
vt 0.375000 1.000000
vt 1.000000 0.375000
vt 1.000000 0.125000
vt 1.000000 0.875000
vt 1.000000 0.625000
vt 0.375000 0.000000
vt 0.125000 0.000000
vt 0.875000 0.000000
vt 0.625000 0.000000
vt 0.750000 0.125000
vt 0.625000 0.500000
vt 0.275682 0.554420
vt 0.062500 0.312500
vt 0.187500 0.437500
vt 0.187500 0.312500
vt 0.062500 0.437500
vt 0.687500 0.937500
vt 0.687500 0.812500
vt 0.562500 0.937500
vt 0.062500 0.687500
vt 0.187500 0.687500
vt 0.062500 0.562500
vt 0.187500 0.937500
vt 0.187500 0.812500
vt 0.062500 0.937500
vt 0.437500 0.562500
vt 0.529551 0.738501
vt 0.437500 0.812500
vt 0.312500 0.812500
vt 0.437500 0.937500
vt 0.937500 0.812500
vt 0.812500 0.812500
vt 0.937500 0.937500
vt 0.702842 0.589772
vt 0.562500 0.562500
vt 0.423911 0.682465
vt 0.812500 0.562500
vt 0.812500 0.687500
vt 0.937500 0.562500
vt 0.311128 0.261404
vt 0.564046 0.310074
vt 0.437500 0.437500
vt 0.187500 0.062500
vt 0.062500 0.062500
vt 0.187500 0.187500
vt 0.312500 0.062500
vt 0.312500 0.187500
vt 0.437500 0.062500
vt 0.812500 0.062500
vt 0.937500 0.062500
vt 0.341446 0.429567
vt 0.562500 0.437500
vt 0.306938 0.494897
vt 0.562500 0.187500
vt 0.687500 0.187500
vt 0.562500 0.062500
vt 0.937500 0.312500
vt 0.812500 0.312500
vt 0.937500 0.437500
vt 0.312500 0.937500
vt 0.187500 0.625000
vt 0.812500 0.187500
vt 0.250000 0.187500
vt 0.687500 0.062500
vt 0.687500 0.437500
vt 0.937500 0.187500
vt 0.437500 0.187500
vt 0.062500 0.187500
vt 0.745450 0.508733
vt 0.937500 0.687500
vt 0.670915 0.366621
vt 0.062500 0.812500
vt 0.812500 0.937500
vt 0.187500 0.562500
vt 0.562500 0.812500
vt 0.812500 0.437500
vt 0.438652 0.244403
vt 0.255572 0.592650
vt 0.787585 0.427988
vt 0.603425 0.777304
vt 0.669651 0.652198
vt 0.505806 0.279536
vt 0.296906 0.332149
vt 0.187500 0.750000
vt 0.713437 0.300753
vt 0.750000 0.812500
vt 0.581168 0.672349
vt 0.281585 0.657008
vt 0.688844 0.757642
vt 0.400957 0.316319
vt 0.640633 0.707009
vt 0.745784 0.354241
vt 0.365347 0.220303
vt 0.725135 0.395244
vt 0.314586 0.624200
vt 0.435524 0.373072
vt 0.278861 0.435152
vt 0.344661 0.562348
vn 0.082714 0.082714 0.993135
vn -0.083195 0.083195 0.993054
vn 0.089685 -0.089685 0.991924
vn -0.083646 -0.083646 0.992979
vn 0.000000 0.000000 1.000000
vn 0.096023 -0.005280 0.995365
vn -0.013423 0.064500 0.997827
vn 0.112604 0.005605 0.993624
vn -0.004668 0.036246 0.999332
vn -0.084719 0.171989 0.981449
vn 0.166989 0.100615 0.980812
vn -0.150670 -0.093863 0.984118
vn 0.097157 -0.149283 0.984010
vn 0.013910 0.168814 0.985550
vn -0.015533 0.189934 0.981674
vn -0.062677 0.019395 0.997845
vn -0.074364 -0.025740 0.996899
vn -0.024516 -0.159629 0.986873
vn 0.028112 -0.035504 0.998974
vn 0.223997 -0.005700 0.974573
vn 0.187161 0.014166 0.982227
vn 0.107233 -0.208079 0.972216
vn -0.233709 -0.148053 0.960968
vn -0.093513 0.191612 0.977006
vn -0.127746 -0.066237 0.989593
vn 0.153951 -0.138733 0.978290
vn 0.093326 -0.091741 0.991400
vn -0.001488 0.002358 0.999996
vn -0.028329 -0.013085 0.999513
vn -0.133491 -0.163461 0.977477
vn 0.031751 0.041147 0.998648
vn 0.205870 0.153194 0.966514
vn 0.080326 0.112367 0.990415
vn -0.001094 -0.001040 0.999999
vn 0.013720 -0.005291 0.999892
vn -0.112710 0.064033 0.991563
vn 0.002162 -0.003295 0.999992
vn 0.013722 -0.013549 0.999814
vn -0.178884 0.099334 0.978843
vn 0.080837 0.187116 0.979006
vn -0.065881 -0.093902 0.993399
vn -0.097336 -0.022796 0.994990
vn 0.009986 0.057548 0.998293
vn -0.000882 -0.093089 0.995657
vn -0.055394 0.011912 0.998394
vn 0.119430 0.015495 0.992722
vn -0.006646 -0.036926 0.999296
vn -0.060394 0.098740 0.993279
vn -0.139271 0.255538 0.956715
vn 0.073529 -0.010437 0.997238
vn 0.237088 0.195234 0.951669
vn 0.179214 0.051187 0.982478
vn -0.046248 0.077189 0.995943
vn -0.180298 0.218082 0.959131
vn 0.160262 -0.027068 0.986703
vn -0.073454 0.154050 0.985329
vn -0.000025 -0.000772 1.000000
vn -0.220582 -0.141392 0.965066
vn -0.177647 -0.069985 0.981603
vn 0.001444 0.000437 0.999999
vn 0.163718 -0.215744 0.962627
vn 0.041855 -0.193126 0.980281
vn 0.000430 0.001044 0.999999
vn 0.122523 0.018606 0.992291
vn 0.196456 -0.009382 0.980468
vn 0.199941 0.018061 0.979641
vn 0.017696 0.055938 0.998277
vn 0.018977 -0.128699 0.991502
vn 0.007529 -0.192790 0.981211
vn -0.037532 -0.037035 0.998609
vn 0.050561 -0.037005 0.998035
vn -0.145150 -0.010162 0.989357
vn -0.133573 0.016497 0.990902
vn 0.038342 0.031604 0.998765
vn -0.028735 0.102571 0.994311
vn 0.014246 0.192417 0.981210
vn -0.007768 0.180560 0.983533
vn 0.028766 0.084925 0.995972
vn 0.051855 -0.026007 0.998316
vn -0.000446 -0.000222 1.000000
vn -0.114305 -0.067297 0.991164
vn 0.108227 -0.036058 0.993472
vn -0.169341 -0.143240 0.975093
vn -0.116566 -0.101594 0.987973
vn 0.014385 -0.044207 0.998919
vn 0.062399 0.041476 0.997189
vn 0.257514 0.083307 0.962677
vn -0.002177 0.111695 0.993740
vn 0.024589 0.053851 0.998246
vn -0.122778 0.183982 0.975231
vn -0.046421 0.003994 0.998914
vn -0.015262 -0.121113 0.992521
vn -0.055933 0.074147 0.995678
vn 0.082442 -0.083319 0.993107
vn -0.000000 0.000000 1.000000
vn -0.056005 0.130939 0.989807
vn -0.142838 0.186801 0.971958
vn -0.119857 0.125098 0.984878
vn -0.058489 0.037828 0.997571
vn -0.082907 0.031355 0.996064
vn 0.071429 0.059500 0.995669
vn -0.059780 -0.061055 0.996343
vn 0.159115 0.104157 0.981750
vn -0.000001 -0.000175 1.000000
vn -0.074433 0.130807 0.988610
vn 0.194918 0.141680 0.970533
vn 0.123765 0.121134 0.984890
vn 0.080728 0.053458 0.995302
vn -0.254147 -0.129086 0.958512
vn 0.065293 -0.113839 0.991351
vn 0.000761 0.000692 0.999999
vn -0.005860 0.142190 0.989822
vn 0.086806 0.088727 0.992266
vn -0.054245 -0.039272 0.997755
vn -0.069882 0.038135 0.996826
vn -0.227094 -0.079836 0.970595
vn -0.022071 -0.069136 0.997363
vn 0.014325 0.106914 0.994165
vn -0.077917 0.068874 0.994578
vn -0.150822 -0.079295 0.985376
vn 0.000000 -0.000000 1.000000
vn -0.150051 -0.083845 0.985117
vn 0.125907 -0.189394 0.973795
vn 0.112605 -0.111111 0.987408
vn 0.036804 -0.030503 0.998857
vn 0.017847 -0.078010 0.996793
vn 0.077857 -0.230217 0.970020
vn 0.130328 -0.025874 0.991133
vn -0.051531 -0.067426 0.996393
vn -0.196381 0.178530 0.964138
vn 0.034638 -0.059962 0.997599
vn -0.122328 -0.058261 0.990778
vn 0.038196 0.051413 0.997947
vn -0.001239 0.001017 0.999999
vn -0.089517 -0.031991 0.995471
vn -0.076630 -0.236137 0.968693
vn 0.149535 0.004749 0.988745
vn 0.105312 0.052169 0.993070
vn -0.022291 0.043101 0.998822
vn 0.080165 -0.134124 0.987717
vn 0.116676 0.011693 0.993101
vn 0.048285 -0.074446 0.996055
vn -0.244671 0.007515 0.969577
vn -0.072555 0.238913 0.968327
vn 0.263558 0.034200 0.964037
vn -0.073727 -0.186659 0.979654
vn -0.158260 0.090650 0.983227
vn 0.199969 -0.033788 0.979220
vn 0.070367 0.168600 0.983170
vn 0.125768 0.068073 0.989721
vn 0.070013 -0.133632 0.988555
vn -0.250714 -0.158311 0.955029
vn -0.078428 0.139786 0.987071
vn 0.162314 -0.260079 0.951847
vn 0.160130 0.063582 0.985046
vn -0.000148 -0.001122 0.999999
vn -0.160488 0.315272 0.935333
vn 0.283267 0.110724 0.952628
vn -0.136502 -0.070168 0.988152
vn 0.160477 0.087038 0.983195
vn 0.158421 -0.337922 0.927745
vn -0.281421 -0.135883 0.949915
vn 0.109510 -0.211347 0.971257
vn -0.090683 0.175570 0.980281
vn 0.001051 0.001071 0.999999
vn -0.257676 -0.153739 0.953922
vn 0.001800 -0.000121 0.999998
f 1/1/1 113/113/113 66/66/66
f 31/31/31 137/137/137 113/113/113
f 145/145/145 148/148/148 26/26/26
f 112/112/112 31/31/31 113/113/113
f 138/138/138 145/145/145 106/106/106
f 106/106/106 52/52/52 33/33/33
f 147/147/147 143/143/143 81/81/81
f 84/84/84 41/41/41 47/47/47
f 137/137/137 66/66/66 113/113/113
f 75/75/75 115/115/115 15/15/15
f 12/12/12 152/152/152 84/84/84
f 50/50/50 35/35/35 142/142/142
f 25/25/25 120/120/120 152/152/152
f 76/76/76 113/113/113 1/1/1
f 76/76/76 112/112/112 113/113/113
f 15/15/15 112/112/112 76/76/76
f 115/115/115 112/112/112 15/15/15
f 30/30/30 115/115/115 117/117/117
f 108/108/108 33/33/33 52/52/52
f 75/75/75 117/117/117 115/115/115
f 115/115/115 30/30/30 42/42/42
f 46/46/46 50/50/50 142/142/142
f 51/51/51 150/150/150 103/103/103
f 136/136/136 162/162/162 30/30/30
f 63/63/63 165/165/165 151/151/151
f 54/54/54 98/98/98 49/49/49
f 42/42/42 112/112/112 115/115/115
f 58/58/58 84/84/84 152/152/152
f 13/13/13 154/154/154 124/124/124
f 60/60/60 120/120/120 111/111/111
f 127/127/127 13/13/13 44/44/44
f 127/127/127 26/26/26 148/148/148
f 101/101/101 43/43/43 35/35/35
f 104/104/104 80/80/80 34/34/34
f 10/10/10 49/49/49 98/98/98
f 166/166/166 122/122/122 23/23/23
f 49/49/49 53/53/53 54/54/54
f 117/117/117 62/62/62 30/30/30
f 150/150/150 32/32/32 160/160/160
f 62/62/62 123/123/123 136/136/136
f 77/77/77 2/2/2 119/119/119
f 77/77/77 119/119/119 118/118/118
f 71/71/71 128/128/128 126/126/126
f 58/58/58 152/152/152 120/120/120
f 63/63/63 28/28/28 121/121/121
f 119/119/119 29/29/29 118/118/118
f 147/147/147 81/81/81 164/164/164
f 125/125/125 27/27/27 62/62/62
f 135/135/135 72/72/72 17/17/17
f 136/136/136 30/30/30 62/62/62
f 159/159/159 151/151/151 165/165/165
f 60/60/60 122/122/122 120/120/120
f 127/127/127 44/44/44 26/26/26
f 11/11/11 32/32/32 107/107/107
f 161/161/161 154/154/154 127/127/127
f 150/150/150 160/160/160 34/34/34
f 22/22/22 146/146/146 136/136/136
f 147/147/147 157/157/157 130/130/130
f 145/145/145 138/138/138 148/148/148
f 154/154/154 140/140/140 61/61/61
f 82/82/82 47/47/47 41/41/41
f 45/45/45 98/98/98 36/36/36
f 82/82/82 137/137/137 47/47/47
f 61/61/61 124/124/124 154/154/154
f 26/26/26 126/126/126 128/128/128
f 62/62/62 117/117/117 125/125/125
f 20/20/20 137/137/137 82/82/82
f 38/38/38 92/92/92 94/94/94
f 20/20/20 66/66/66 137/137/137
f 55/55/55 20/20/20 82/82/82
f 69/69/69 94/94/94 92/92/92
f 12/12/12 114/114/114 132/132/132
f 8/8/8 108/108/108 128/128/128
f 141/141/141 48/48/48 38/38/38
f 24/24/24 144/144/144 97/97/97
f 65/65/65 141/141/141 94/94/94
f 114/114/114 31/31/31 42/42/42
f 38/38/38 94/94/94 141/141/141
f 92/92/92 18/18/18 69/69/69
f 97/97/97 54/54/54 24/24/24
f 151/151/151 110/110/110 63/63/63
f 11/11/11 107/107/107 101/101/101
f 29/29/29 119/119/119 135/135/135
f 83/83/83 23/23/23 59/59/59
f 153/153/153 90/90/90 10/10/10
f 43/43/43 101/101/101 107/107/107
f 129/129/129 45/45/45 36/36/36
f 27/27/27 124/124/124 123/123/123
f 85/85/85 41/41/41 59/59/59
f 78/78/78 125/125/125 9/9/9
f 70/70/70 129/129/129 99/99/99
f 83/83/83 59/59/59 41/41/41
f 129/129/129 70/70/70 18/18/18
f 36/36/36 99/99/99 129/129/129
f 93/93/93 38/38/38 48/48/48
f 38/38/38 45/45/45 92/92/92
f 52/52/52 128/128/128 108/108/108
f 65/65/65 94/94/94 3/3/3
f 72/72/72 135/135/135 119/119/119
f 94/94/94 69/69/69 3/3/3
f 39/39/39 90/90/90 48/48/48
f 21/21/21 141/141/141 65/65/65
f 18/18/18 92/92/92 129/129/129
f 6/6/6 91/91/91 64/64/64
f 105/105/105 24/24/24 54/54/54
f 93/93/93 45/45/45 38/38/38
f 89/89/89 39/39/39 48/48/48
f 13/13/13 124/124/124 131/131/131
f 45/45/45 129/129/129 92/92/92
f 9/9/9 125/125/125 117/117/117
f 64/64/64 89/89/89 21/21/21
f 55/55/55 82/82/82 85/85/85
f 6/6/6 85/85/85 91/91/91
f 59/59/59 91/91/91 85/85/85
f 41/41/41 85/85/85 82/82/82
f 6/6/6 55/55/55 85/85/85
f 146/146/146 151/151/151 159/159/159
f 59/59/59 39/39/39 91/91/91
f 109/109/109 162/162/162 159/159/159
f 143/143/143 39/39/39 59/59/59
f 118/118/118 29/29/29 79/79/79
f 58/58/58 166/166/166 83/83/83
f 134/134/134 148/148/148 138/138/138
f 58/58/58 83/83/83 84/84/84
f 119/119/119 2/2/2 72/72/72
f 44/44/44 126/126/126 26/26/26
f 11/11/11 158/158/158 32/32/32
f 138/138/138 103/103/103 80/80/80
f 10/10/10 98/98/98 93/93/93
f 21/21/21 89/89/89 141/141/141
f 105/105/105 53/53/53 37/37/37
f 51/51/51 32/32/32 150/150/150
f 79/79/79 133/133/133 118/118/118
f 118/118/118 133/133/133 14/14/14
f 79/79/79 131/131/131 124/124/124
f 100/100/100 35/35/35 43/43/43
f 90/90/90 153/153/153 48/48/48
f 48/48/48 141/141/141 89/89/89
f 78/78/78 133/133/133 125/125/125
f 62/62/62 27/27/27 123/123/123
f 53/53/53 164/164/164 37/37/37
f 49/49/49 157/157/157 164/164/164
f 164/164/164 53/53/53 49/49/49
f 156/156/156 34/34/34 160/160/160
f 5/5/5 95/95/95 111/111/111
f 110/110/110 151/151/151 22/22/22
f 57/57/57 37/37/37 95/95/95
f 37/37/37 57/57/57 105/105/105
f 27/27/27 125/125/125 133/133/133
f 121/121/121 5/5/5 111/111/111
f 151/151/151 146/146/146 22/22/22
f 123/123/123 22/22/22 136/136/136
f 17/17/17 126/126/126 135/135/135
f 41/41/41 84/84/84 83/83/83
f 131/131/131 44/44/44 13/13/13
f 60/60/60 111/111/111 95/95/95
f 28/28/28 134/134/134 80/80/80
f 104/104/104 95/95/95 5/5/5
f 28/28/28 140/140/140 134/134/134
f 24/24/24 105/105/105 96/96/96
f 57/57/57 95/95/95 104/104/104
f 24/24/24 96/96/96 144/144/144
f 132/132/132 42/42/42 116/116/116
f 12/12/12 132/132/132 116/116/116
f 45/45/45 93/93/93 98/98/98
f 110/110/110 28/28/28 63/63/63
f 106/106/106 103/103/103 138/138/138
f 9/9/9 117/117/117 75/75/75
f 26/26/26 128/128/128 52/52/52
f 54/54/54 97/97/97 98/98/98
f 130/130/130 90/90/90 39/39/39
f 123/123/123 61/61/61 22/22/22
f 99/99/99 36/36/36 56/56/56
f 80/80/80 104/104/104 5/5/5
f 23/23/23 83/83/83 166/166/166
f 126/126/126 17/17/17 71/71/71
f 109/109/109 12/12/12 116/116/116
f 148/148/148 161/161/161 127/127/127
f 144/144/144 149/149/149 40/40/40
f 103/103/103 150/150/150 34/34/34
f 36/36/36 98/98/98 97/97/97
f 164/164/164 167/167/167 37/37/37
f 96/96/96 156/156/156 149/149/149
f 122/122/122 81/81/81 23/23/23
f 158/158/158 160/160/160 32/32/32
f 157/157/157 147/147/147 164/164/164
f 120/120/120 25/25/25 111/111/111
f 12/12/12 109/109/109 152/152/152
f 14/14/14 133/133/133 78/78/78
f 140/140/140 110/110/110 61/61/61
f 107/107/107 106/106/106 33/33/33
f 44/44/44 135/135/135 126/126/126
f 51/51/51 103/103/103 106/106/106
f 34/34/34 156/156/156 104/104/104
f 57/57/57 104/104/104 156/156/156
f 121/121/121 80/80/80 5/5/5
f 63/63/63 121/121/121 111/111/111
f 121/121/121 28/28/28 80/80/80
f 77/77/77 118/118/118 14/14/14
f 52/52/52 106/106/106 145/145/145
f 103/103/103 34/34/34 80/80/80
f 131/131/131 79/79/79 29/29/29
f 140/140/140 163/163/163 134/134/134
f 49/49/49 10/10/10 157/157/157
f 124/124/124 27/27/27 79/79/79
f 139/139/139 33/33/33 108/108/108
f 107/107/107 33/33/33 43/43/43
f 133/133/133 79/79/79 27/27/27
f 163/163/163 148/148/148 134/134/134
f 139/139/139 43/43/43 33/33/33
f 11/11/11 155/155/155 158/158/158
f 96/96/96 105/105/105 57/57/57
f 140/140/140 28/28/28 110/110/110
f 51/51/51 106/106/106 107/107/107
f 50/50/50 46/46/46 101/101/101
f 97/97/97 56/56/56 36/36/36
f 86/86/86 46/46/46 142/142/142
f 112/112/112 42/42/42 31/31/31
f 40/40/40 46/46/46 86/86/86
f 74/74/74 139/139/139 108/108/108
f 100/100/100 43/43/43 139/139/139
f 137/137/137 31/31/31 47/47/47
f 114/114/114 47/47/47 31/31/31
f 88/88/88 40/40/40 86/86/86
f 16/16/16 100/100/100 139/139/139
f 102/102/102 35/35/35 100/100/100
f 68/68/68 142/142/142 102/102/102
f 88/88/88 99/99/99 56/56/56
f 142/142/142 35/35/35 102/102/102
f 53/53/53 105/105/105 54/54/54
f 95/95/95 37/37/37 60/60/60
f 19/19/19 86/86/86 142/142/142
f 88/88/88 56/56/56 40/40/40
f 144/144/144 40/40/40 56/56/56
f 96/96/96 149/149/149 144/144/144
f 44/44/44 131/131/131 135/135/135
f 87/87/87 46/46/46 40/40/40
f 110/110/110 22/22/22 61/61/61
f 87/87/87 155/155/155 46/46/46
f 144/144/144 56/56/56 97/97/97
f 23/23/23 81/81/81 143/143/143
f 64/64/64 91/91/91 89/89/89
f 156/156/156 96/96/96 57/57/57
f 67/67/67 88/88/88 86/86/86
f 7/7/7 99/99/99 88/88/88
f 7/7/7 70/70/70 99/99/99
f 67/67/67 7/7/7 88/88/88
f 19/19/19 67/67/67 86/86/86
f 68/68/68 19/19/19 142/142/142
f 73/73/73 102/102/102 100/100/100
f 4/4/4 68/68/68 102/102/102
f 73/73/73 4/4/4 102/102/102
f 16/16/16 73/73/73 100/100/100
f 74/74/74 16/16/16 139/139/139
f 8/8/8 74/74/74 108/108/108
f 39/39/39 89/89/89 91/91/91
f 153/153/153 93/93/93 48/48/48
f 116/116/116 42/42/42 30/30/30
f 134/134/134 138/138/138 80/80/80
f 61/61/61 123/123/123 124/124/124
f 145/145/145 26/26/26 52/52/52
f 87/87/87 40/40/40 149/149/149
f 128/128/128 71/71/71 8/8/8
f 90/90/90 130/130/130 157/157/157
f 32/32/32 51/51/51 107/107/107
f 42/42/42 132/132/132 114/114/114
f 130/130/130 143/143/143 147/147/147
f 29/29/29 135/135/135 131/131/131
f 25/25/25 152/152/152 159/159/159
f 155/155/155 101/101/101 46/46/46
f 35/35/35 50/50/50 101/101/101
f 84/84/84 114/114/114 12/12/12
f 101/101/101 155/155/155 11/11/11
f 114/114/114 84/84/84 47/47/47
f 93/93/93 153/153/153 10/10/10
f 154/154/154 13/13/13 127/127/127
f 90/90/90 157/157/157 10/10/10
f 143/143/143 130/130/130 39/39/39
f 149/149/149 158/158/158 87/87/87
f 109/109/109 159/159/159 152/152/152
f 116/116/116 30/30/30 162/162/162
f 87/87/87 158/158/158 155/155/155
f 149/149/149 160/160/160 158/158/158
f 160/160/160 149/149/149 156/156/156
f 154/154/154 161/161/161 140/140/140
f 146/146/146 159/159/159 162/162/162
f 146/146/146 162/162/162 136/136/136
f 116/116/116 162/162/162 109/109/109
f 148/148/148 163/163/163 161/161/161
f 163/163/163 140/140/140 161/161/161
f 165/165/165 25/25/25 159/159/159
f 143/143/143 59/59/59 23/23/23
f 25/25/25 165/165/165 111/111/111
f 165/165/165 63/63/63 111/111/111
f 122/122/122 166/166/166 120/120/120
f 166/166/166 58/58/58 120/120/120
f 167/167/167 60/60/60 37/37/37
f 167/167/167 164/164/164 81/81/81
f 81/81/81 122/122/122 167/167/167
f 60/60/60 167/167/167 122/122/122
