# frame 000138 
# time 0.069500 
# name Cloth3D 
v -0.000000 0.000000 -0.000000
v 1.000000 0.000000 -0.000000
v -0.000000 1.000000 0.000000
v 1.000000 1.000000 0.000000
v 0.499885 0.500043 0.029534
v -0.000000 0.500000 0.000000
v 0.500000 1.000000 0.000000
v 1.000000 0.500000 0.000000
v 0.500000 -0.000000 0.000000
v 0.247863 0.751303 -0.005660
v 0.751288 0.752273 0.000880
v 0.249821 0.248444 -0.010704
v 0.751712 0.249004 -0.004288
v 0.750000 0.000000 0.000000
v 0.250000 0.000000 0.000000
v 1.000000 0.750000 0.000000
v 1.000000 0.250000 0.000000
v 0.250000 1.000000 0.000000
v 0.750000 1.000000 0.000000
v 0.000000 0.250000 0.000000
v 0.000000 0.750000 -0.000000
v 0.499779 0.247751 0.015489
v 0.248649 0.500387 0.009406
v 0.500097 0.752265 0.017424
v 0.360162 0.364604 0.029686
v 0.876844 0.374454 -0.003964
v 0.624868 0.125206 -0.020297
v 0.627393 0.372841 0.029534
v 0.876373 0.123975 -0.025190
v 0.375007 0.124276 -0.016141
v 0.123918 0.123676 -0.024534
v 0.372888 0.372215 0.029534
v 0.874840 0.624921 -0.013855
v 0.626970 0.627693 0.029534
v 0.876284 0.876478 -0.025939
v 0.375302 0.874883 -0.019184
v 0.371865 0.627210 0.029534
v 0.123681 0.876283 -0.025168
v 0.124545 0.625401 -0.018927
v 0.625780 0.876920 -0.005064
v 0.125203 0.375076 -0.022506
v 0.250016 0.123413 -0.027115
v 0.875526 0.750245 -0.023877
v 0.876290 0.250219 -0.021736
v 0.249776 0.875831 -0.025986
v 0.750313 0.876360 -0.019076
v 0.124497 0.249597 -0.025119
v 0.123503 0.750364 -0.026686
v 0.301932 0.715010 0.008594
v 0.813021 0.876511 -0.024528
v 0.751025 0.626396 0.010617
v 0.874847 0.499486 -0.009321
v 0.360473 0.664735 0.029686
v 0.373871 0.750191 0.003463
v 0.000000 0.375000 0.000000
v 0.500722 0.874947 -0.012914
v 0.499630 0.627348 0.029535
v 0.250497 0.374312 -0.003221
v 0.125294 0.500382 -0.019282
v 0.372488 0.499846 0.029535
v 0.625826 0.249837 0.002340
v 0.499821 0.124910 -0.014530
v 0.500127 0.372547 0.029535
v 0.000000 0.625000 0.000000
v 0.000000 0.875000 0.000000
v 0.000000 0.125000 0.000000
v 0.625000 1.000000 0.000000
v 0.875000 1.000000 0.000000
v 0.125000 1.000000 0.000000
v 0.375000 1.000000 0.000000
v 1.000000 0.375000 0.000000
v 1.000000 0.125000 0.000000
v 1.000000 0.875000 0.000000
v 1.000000 0.625000 0.000000
v 0.375000 0.000000 0.000000
v 0.125000 0.000000 0.000000
v 0.875000 0.000000 0.000000
v 0.625000 0.000000 0.000000
v 0.750288 0.124482 -0.025816
v 0.627171 0.500215 0.029535
v 0.288305 0.563067 0.029679
v 0.062437 0.312413 -0.012163
v 0.188474 0.437796 -0.013651
v 0.188403 0.312154 -0.021393
v 0.062373 0.437548 -0.012286
v 0.687674 0.939479 -0.017773
v 0.689700 0.816094 0.006970
v 0.562681 0.938747 -0.015752
v 0.061281 0.687684 -0.015441
v 0.184418 0.689113 -0.003509
v 0.061787 0.562587 -0.013994
v 0.187182 0.938325 -0.014819
v 0.186670 0.812939 -0.028674
v 0.062177 0.937839 -0.008030
v 0.435964 0.563638 0.029535
v 0.536165 0.728332 0.029679
v 0.437869 0.811834 -0.007830
v 0.311962 0.812295 -0.015263
v 0.437696 0.938271 -0.014928
v 0.938301 0.812883 -0.014958
v 0.812846 0.813548 -0.021660
v 0.937782 0.937798 -0.007810
v 0.703330 0.590489 0.029679
v 0.563436 0.563854 0.029535
v 0.421466 0.686795 0.029679
v 0.811632 0.562209 -0.004189
v 0.812365 0.688265 -0.010338
v 0.938104 0.562374 -0.013751
v 0.310617 0.258716 0.004080
v 0.562568 0.312937 0.029679
v 0.436396 0.436164 0.029535
v 0.187228 0.061418 -0.015221
v 0.062161 0.062124 -0.008350
v 0.187329 0.186481 -0.027487
v 0.312486 0.061095 -0.015817
v 0.311401 0.184919 -0.005273
v 0.437564 0.061257 -0.015914
v 0.812841 0.062067 -0.013639
v 0.937827 0.062228 -0.008140
v 0.337417 0.427450 0.029679
v 0.563671 0.436416 0.029535
v 0.311751 0.498322 0.029679
v 0.562280 0.188131 -0.009155
v 0.687860 0.188217 -0.017727
v 0.562545 0.061758 -0.014422
v 0.939321 0.312552 -0.016717
v 0.814942 0.311444 0.001014
v 0.938453 0.437483 -0.013757
v 0.312512 0.938189 -0.014500
v 0.436233 0.267186 0.029679
v 0.813392 0.187476 -0.025544
v 0.770152 0.405969 0.029679
v 0.687604 0.062369 -0.012167
v 0.690979 0.436508 0.029535
v 0.939019 0.187224 -0.017001
v 0.436854 0.186113 0.001689
v 0.061862 0.187139 -0.014163
v 0.735072 0.502839 0.029679
v 0.938361 0.687548 -0.014894
v 0.678173 0.354803 0.029679
v 0.061392 0.812933 -0.015407
v 0.812964 0.939026 -0.016705
v 0.186871 0.563459 -0.003995
v 0.563770 0.813522 0.004073
v 0.813906 0.436037 0.008482
v 0.400099 0.253919 0.029692
v 0.263925 0.629885 0.029692
v 0.776076 0.390115 0.029692
v 0.639885 0.766075 0.029692
v 0.678773 0.658300 0.029679
v 0.499600 0.290134 0.029679
v 0.296579 0.330345 0.006427
v 0.598454 0.750952 0.029686
v 0.715882 0.299344 0.011304
v 0.750799 0.814358 -0.009348
v 0.582379 0.675880 0.029607
v 0.185609 0.750974 -0.016116
vt 0.000000 0.000000
vt 1.000000 0.000000
vt 0.000000 1.000000
vt 1.000000 1.000000
vt 0.500000 0.500000
vt 0.000000 0.500000
vt 0.500000 1.000000
vt 1.000000 0.500000
vt 0.500000 0.000000
vt 0.250000 0.750000
vt 0.750000 0.750000
vt 0.250000 0.250000
vt 0.750000 0.250000
vt 0.750000 0.000000
vt 0.250000 0.000000
vt 1.000000 0.750000
vt 1.000000 0.250000
vt 0.250000 1.000000
vt 0.750000 1.000000
vt 0.000000 0.250000
vt 0.000000 0.750000
vt 0.500000 0.250000
vt 0.250000 0.500000
vt 0.500000 0.750000
vt 0.362505 0.367506
vt 0.875000 0.375000
vt 0.625000 0.125000
vt 0.625000 0.375000
vt 0.875000 0.125000
vt 0.375000 0.125000
vt 0.125000 0.125000
vt 0.375000 0.375000
vt 0.875000 0.625000
vt 0.625000 0.625000
vt 0.875000 0.875000
vt 0.375000 0.875000
vt 0.375000 0.625000
vt 0.125000 0.875000
vt 0.125000 0.625000
vt 0.625000 0.875000
vt 0.125000 0.375000
vt 0.250000 0.125000
vt 0.875000 0.750000
vt 0.875000 0.250000
vt 0.250000 0.875000
vt 0.750000 0.875000
vt 0.125000 0.250000
vt 0.125000 0.750000
vt 0.304602 0.713891
vt 0.812500 0.875000
vt 0.750000 0.625000
vt 0.875000 0.500000
vt 0.363763 0.661898
vt 0.375000 0.750000
vt 0.000000 0.375000
vt 0.500000 0.875000
vt 0.500000 0.625000
vt 0.250000 0.375000
vt 0.125000 0.500000
vt 0.375000 0.500000
vt 0.625000 0.250000
vt 0.500000 0.125000
vt 0.500000 0.375000
vt 0.000000 0.625000
vt 0.000000 0.875000
vt 0.000000 0.125000
vt 0.625000 1.000000
vt 0.875000 1.000000
vt 0.125000 1.000000
vt 0.375000 1.000000
vt 1.000000 0.375000
vt 1.000000 0.125000
vt 1.000000 0.875000
vt 1.000000 0.625000
vt 0.375000 0.000000
vt 0.125000 0.000000
vt 0.875000 0.000000
vt 0.625000 0.000000
vt 0.750000 0.125000
vt 0.625000 0.500000
vt 0.292903 0.561947
vt 0.062500 0.312500
vt 0.187500 0.437500
vt 0.187500 0.312500
vt 0.062500 0.437500
vt 0.687500 0.937500
vt 0.687500 0.812500
vt 0.562500 0.937500
vt 0.062500 0.687500
vt 0.187500 0.687500
vt 0.062500 0.562500
vt 0.187500 0.937500
vt 0.187500 0.812500
vt 0.062500 0.937500
vt 0.437500 0.562500
vt 0.535875 0.724256
vt 0.437500 0.812500
vt 0.312500 0.812500
vt 0.437500 0.937500
vt 0.937500 0.812500
vt 0.812500 0.812500
vt 0.937500 0.937500
vt 0.700158 0.588528
vt 0.562500 0.562500
vt 0.423473 0.683634
vt 0.812500 0.562500
vt 0.812500 0.687500
vt 0.937500 0.562500
vt 0.311128 0.261404
vt 0.561253 0.316256
vt 0.437500 0.437500
vt 0.187500 0.062500
vt 0.062500 0.062500
vt 0.187500 0.187500
vt 0.312500 0.062500
vt 0.312500 0.187500
vt 0.437500 0.062500
vt 0.812500 0.062500
vt 0.937500 0.062500
vt 0.340201 0.429086
vt 0.562500 0.437500
vt 0.315332 0.498632
vt 0.562500 0.187500
vt 0.687500 0.187500
vt 0.562500 0.062500
vt 0.937500 0.312500
vt 0.812500 0.312500
vt 0.937500 0.437500
vt 0.312500 0.937500
vt 0.437399 0.272182
vt 0.812500 0.187500
vt 0.764999 0.407677
vt 0.687500 0.062500
vt 0.687500 0.437500
vt 0.937500 0.187500
vt 0.437500 0.187500
vt 0.062500 0.187500
vt 0.731233 0.502464
vt 0.937500 0.687500
vt 0.674960 0.357291
vt 0.062500 0.812500
vt 0.812500 0.937500
vt 0.187500 0.562500
vt 0.562500 0.812500
vt 0.812500 0.437500
vt 0.402102 0.259721
vt 0.270107 0.627200
vt 0.770657 0.392260
vt 0.637343 0.760025
vt 0.675955 0.654941
vt 0.499386 0.294092
vt 0.296906 0.332149
vt 0.596845 0.745794
vt 0.713437 0.300753
vt 0.750000 0.812500
vt 0.581168 0.672349
vt 0.187500 0.750000
vn 0.066910 0.066910 0.995513
vn -0.065004 0.065004 0.995766
vn 0.064420 -0.064420 0.995841
vn -0.062285 -0.062285 0.996113
vn 0.000000 0.000000 1.000000
vn 0.203458 0.007069 0.979058
vn 0.004227 -0.241129 0.970484
vn -0.217904 -0.000485 0.975970
vn -0.006259 0.236792 0.971540
vn -0.128028 0.211633 0.968928
vn 0.249077 0.123543 0.960572
vn -0.209240 -0.088866 0.973818
vn 0.086670 -0.239330 0.967062
vn 0.006305 0.201381 0.979493
vn 0.002173 0.243919 0.969793
vn -0.233621 0.000097 0.972328
vn -0.266449 -0.000481 0.963849
vn -0.001776 -0.229496 0.973308
vn -0.004940 -0.271739 0.962358
vn 0.206803 -0.008529 0.978345
vn 0.242400 0.000265 0.970176
vn 0.107462 -0.311960 0.943998
vn -0.299615 -0.100011 0.948804
vn -0.106280 0.311439 0.944304
vn -0.041512 -0.014340 0.999035
vn 0.204000 -0.041619 0.978086
vn 0.033481 0.004790 0.999428
vn -0.001060 0.002060 0.999997
vn -0.079024 0.091829 0.992634
vn -0.035778 -0.109644 0.993327
vn 0.097176 0.086975 0.991460
vn 0.008144 0.002857 0.999963
vn 0.054535 0.041590 0.997645
vn -0.000970 -0.001269 0.999999
vn -0.062272 -0.068630 0.995697
vn -0.038133 0.022494 0.999019
vn 0.001069 -0.002399 0.999997
vn 0.094244 -0.099459 0.990569
vn -0.084026 0.014354 0.996360
vn 0.007473 0.174469 0.984634
vn 0.044213 -0.025264 0.998703
vn -0.058035 0.017695 0.998158
vn -0.009316 0.045980 0.998899
vn 0.037414 -0.094101 0.994859
vn -0.038090 -0.057878 0.997597
vn 0.119738 0.066748 0.990559
vn 0.087938 -0.019915 0.995927
vn -0.028452 0.088271 0.995690
vn -0.098379 0.261330 0.960223
vn 0.052922 -0.040554 0.997775
vn 0.294034 0.078808 0.952540
vn 0.122670 0.044823 0.991435
vn -0.036274 0.109847 0.993286
vn -0.079791 0.276012 0.957837
vn 0.189993 -0.000136 0.981785
vn -0.049665 0.102357 0.993507
vn -0.000021 -0.000838 1.000000
vn -0.260554 -0.071688 0.962794
vn -0.029386 -0.022435 0.999316
vn 0.001437 0.000633 0.999999
vn 0.077777 -0.276656 0.957816
vn 0.027005 -0.086203 0.995912
vn -0.000189 0.000964 1.000000
vn 0.229530 0.006374 0.973281
vn 0.186330 -0.029285 0.982051
vn 0.178851 0.023028 0.983607
vn 0.008306 -0.265207 0.964156
vn -0.035344 -0.194059 0.980353
vn 0.026697 -0.181248 0.983075
vn 0.001795 -0.229532 0.973300
vn -0.242236 -0.012081 0.970142
vn -0.199281 0.035283 0.979307
vn -0.179612 -0.028027 0.983338
vn -0.225210 0.004250 0.974301
vn 0.000192 0.248481 0.968637
vn 0.027166 0.187075 0.981970
vn -0.021496 0.172022 0.984859
vn -0.009151 0.206959 0.978307
vn 0.027420 0.070290 0.997150
vn -0.000532 -0.000261 1.000000
vn -0.176796 -0.062484 0.982262
vn 0.186560 -0.009040 0.982402
vn -0.188944 -0.064683 0.979855
vn -0.138003 -0.044021 0.989453
vn 0.165957 -0.002425 0.986130
vn 0.029226 -0.100927 0.994464
vn 0.170789 0.224948 0.959286
vn -0.009776 -0.076422 0.997028
vn 0.181912 0.017862 0.983153
vn -0.223737 0.133652 0.965442
vn 0.153857 0.006420 0.988072
vn 0.013906 -0.201582 0.979373
vn -0.077211 0.099112 0.992076
vn 0.095830 -0.097149 0.990646
vn -0.000000 0.000000 1.000000
vn -0.064250 0.183868 0.980849
vn -0.076507 0.210372 0.974623
vn -0.068373 0.179271 0.981421
vn -0.009217 -0.130158 0.991450
vn -0.197237 -0.009777 0.980307
vn 0.124705 0.085230 0.988526
vn -0.100917 -0.097225 0.990133
vn 0.180128 0.060212 0.981798
vn 0.000001 -0.000174 1.000000
vn -0.057043 0.159755 0.985507
vn 0.221788 0.069924 0.972585
vn 0.195568 0.069552 0.978221
vn -0.095541 0.010830 0.995367
vn -0.242269 -0.103276 0.964697
vn 0.049413 -0.141138 0.988756
vn 0.000436 0.000001 1.000000
vn 0.019525 0.203787 0.978821
vn 0.096092 0.094022 0.990922
vn -0.046945 -0.037144 0.998207
vn -0.019391 0.173011 0.984729
vn -0.161846 -0.189663 0.968418
vn -0.006278 0.125485 0.992076
vn -0.008198 0.200358 0.979689
vn -0.093617 0.100589 0.990514
vn -0.120454 -0.042314 0.991817
vn 0.000000 -0.000000 1.000000
vn -0.145649 -0.052333 0.987951
vn 0.075180 -0.208116 0.975211
vn 0.052868 -0.174582 0.983222
vn 0.003263 0.140321 0.990101
vn -0.106317 -0.040861 0.993492
vn 0.188382 -0.202763 0.960937
vn -0.057644 0.004881 0.998325
vn -0.012807 -0.179066 0.983754
vn 0.073124 -0.204439 0.976144
vn 0.040456 -0.101629 0.993999
vn 0.222389 0.082749 0.971440
vn 0.008736 0.181530 0.983347
vn -0.001295 0.000229 0.999999
vn -0.186677 0.010750 0.982363
vn 0.036491 -0.294585 0.954928
vn 0.194902 0.007746 0.980792
vn 0.153423 0.051214 0.986833
vn -0.151117 0.021474 0.988283
vn 0.032397 -0.109343 0.993476
vn 0.204693 -0.017518 0.978669
vn 0.004899 -0.174475 0.984649
vn -0.273431 -0.050546 0.960563
vn -0.083009 0.273322 0.958334
vn 0.310959 0.114096 0.943550
vn -0.011876 -0.205686 0.978546
vn -0.182479 0.070352 0.980690
vn 0.218902 0.042615 0.974816
vn 0.021716 0.215704 0.976217
vn 0.117173 0.036968 0.992423
vn 0.074281 -0.206730 0.975574
vn -0.269156 -0.081870 0.959611
vn -0.063116 0.173992 0.982722
vn 0.084125 -0.255953 0.963022
vn 0.226238 0.159452 0.960933
vn -0.000216 -0.001228 0.999999
vn -0.164062 0.194790 0.967027
f 1/1/1 113/113/113 66/66/66
f 31/31/31 137/137/137 113/113/113
f 145/145/145 148/148/148 26/26/26
f 112/112/112 31/31/31 113/113/113
f 138/138/138 145/145/145 106/106/106
f 106/106/106 52/52/52 33/33/33
f 147/147/147 143/143/143 81/81/81
f 84/84/84 41/41/41 47/47/47
f 137/137/137 66/66/66 113/113/113
f 75/75/75 115/115/115 15/15/15
f 12/12/12 152/152/152 84/84/84
f 50/50/50 35/35/35 142/142/142
f 25/25/25 120/120/120 152/152/152
f 76/76/76 113/113/113 1/1/1
f 76/76/76 112/112/112 113/113/113
f 15/15/15 112/112/112 76/76/76
f 115/115/115 112/112/112 15/15/15
f 30/30/30 115/115/115 117/117/117
f 108/108/108 33/33/33 52/52/52
f 75/75/75 117/117/117 115/115/115
f 115/115/115 30/30/30 42/42/42
f 46/46/46 50/50/50 142/142/142
f 51/51/51 150/150/150 103/103/103
f 116/116/116 30/30/30 136/136/136
f 122/122/122 23/23/23 120/120/120
f 54/54/54 98/98/98 49/49/49
f 42/42/42 112/112/112 115/115/115
f 58/58/58 84/84/84 152/152/152
f 13/13/13 154/154/154 124/124/124
f 60/60/60 120/120/120 111/111/111
f 53/53/53 147/147/147 37/37/37
f 127/127/127 26/26/26 148/148/148
f 101/101/101 43/43/43 35/35/35
f 104/104/104 80/80/80 34/34/34
f 10/10/10 49/49/49 98/98/98
f 83/83/83 58/58/58 23/23/23
f 49/49/49 53/53/53 54/54/54
f 117/117/117 62/62/62 30/30/30
f 132/132/132 134/134/134 140/140/140
f 62/62/62 123/123/123 136/136/136
f 77/77/77 2/2/2 119/119/119
f 77/77/77 119/119/119 118/118/118
f 71/71/71 128/128/128 126/126/126
f 58/58/58 152/152/152 120/120/120
f 63/63/63 28/28/28 121/121/121
f 119/119/119 29/29/29 118/118/118
f 153/153/153 156/156/156 150/150/150
f 125/125/125 27/27/27 62/62/62
f 135/135/135 72/72/72 17/17/17
f 136/136/136 30/30/30 62/62/62
f 58/58/58 120/120/120 23/23/23
f 60/60/60 122/122/122 120/120/120
f 127/127/127 44/44/44 26/26/26
f 120/120/120 25/25/25 32/32/32
f 146/146/146 116/116/116 136/136/136
f 154/154/154 148/148/148 140/140/140
f 120/120/120 32/32/32 111/111/111
f 22/22/22 130/130/130 136/136/136
f 130/130/130 63/63/63 32/32/32
f 154/154/154 140/140/140 61/61/61
f 82/82/82 47/47/47 41/41/41
f 45/45/45 98/98/98 36/36/36
f 82/82/82 137/137/137 47/47/47
f 61/61/61 124/124/124 154/154/154
f 26/26/26 126/126/126 128/128/128
f 62/62/62 117/117/117 125/125/125
f 20/20/20 137/137/137 82/82/82
f 38/38/38 92/92/92 94/94/94
f 20/20/20 66/66/66 137/137/137
f 55/55/55 20/20/20 82/82/82
f 69/69/69 94/94/94 92/92/92
f 143/143/143 90/90/90 39/39/39
f 8/8/8 108/108/108 128/128/128
f 141/141/141 48/48/48 38/38/38
f 24/24/24 144/144/144 97/97/97
f 65/65/65 141/141/141 94/94/94
f 114/114/114 31/31/31 42/42/42
f 38/38/38 94/94/94 141/141/141
f 92/92/92 18/18/18 69/69/69
f 97/97/97 54/54/54 24/24/24
f 151/151/151 110/110/110 63/63/63
f 11/11/11 107/107/107 101/101/101
f 29/29/29 119/119/119 135/135/135
f 143/143/143 59/59/59 83/83/83
f 34/34/34 150/150/150 156/156/156
f 43/43/43 101/101/101 107/107/107
f 129/129/129 45/45/45 36/36/36
f 27/27/27 124/124/124 123/123/123
f 85/85/85 41/41/41 59/59/59
f 78/78/78 125/125/125 9/9/9
f 70/70/70 129/129/129 99/99/99
f 83/83/83 59/59/59 41/41/41
f 129/129/129 70/70/70 18/18/18
f 36/36/36 99/99/99 129/129/129
f 93/93/93 38/38/38 48/48/48
f 38/38/38 45/45/45 92/92/92
f 52/52/52 128/128/128 108/108/108
f 65/65/65 94/94/94 3/3/3
f 72/72/72 135/135/135 119/119/119
f 94/94/94 69/69/69 3/3/3
f 39/39/39 90/90/90 48/48/48
f 21/21/21 141/141/141 65/65/65
f 18/18/18 92/92/92 129/129/129
f 6/6/6 91/91/91 64/64/64
f 105/105/105 24/24/24 54/54/54
f 93/93/93 45/45/45 38/38/38
f 89/89/89 39/39/39 48/48/48
f 114/114/114 42/42/42 12/12/12
f 45/45/45 129/129/129 92/92/92
f 9/9/9 125/125/125 117/117/117
f 64/64/64 89/89/89 21/21/21
f 55/55/55 82/82/82 85/85/85
f 6/6/6 85/85/85 91/91/91
f 59/59/59 91/91/91 85/85/85
f 41/41/41 85/85/85 82/82/82
f 6/6/6 55/55/55 85/85/85
f 23/23/23 143/143/143 83/83/83
f 59/59/59 39/39/39 91/91/91
f 151/151/151 130/130/130 22/22/22
f 143/143/143 39/39/39 59/59/59
f 118/118/118 29/29/29 79/79/79
f 29/29/29 44/44/44 131/131/131
f 32/32/32 146/146/146 130/130/130
f 58/58/58 83/83/83 84/84/84
f 119/119/119 2/2/2 72/72/72
f 44/44/44 126/126/126 26/26/26
f 130/130/130 151/151/151 63/63/63
f 138/138/138 103/103/103 80/80/80
f 10/10/10 98/98/98 93/93/93
f 21/21/21 89/89/89 141/141/141
f 105/105/105 53/53/53 37/37/37
f 149/149/149 153/153/153 150/150/150
f 79/79/79 133/133/133 118/118/118
f 118/118/118 133/133/133 14/14/14
f 116/116/116 12/12/12 42/42/42
f 100/100/100 35/35/35 43/43/43
f 90/90/90 157/157/157 48/48/48
f 48/48/48 141/141/141 89/89/89
f 78/78/78 133/133/133 125/125/125
f 62/62/62 27/27/27 123/123/123
f 37/37/37 147/147/147 81/81/81
f 40/40/40 144/144/144 87/87/87
f 146/146/146 25/25/25 109/109/109
f 148/148/148 154/154/154 127/127/127
f 5/5/5 95/95/95 111/111/111
f 110/110/110 151/151/151 22/22/22
f 57/57/57 37/37/37 95/95/95
f 37/37/37 57/57/57 105/105/105
f 27/27/27 125/125/125 133/133/133
f 121/121/121 5/5/5 111/111/111
f 130/130/130 146/146/146 136/136/136
f 123/123/123 22/22/22 136/136/136
f 17/17/17 126/126/126 135/135/135
f 41/41/41 84/84/84 83/83/83
f 53/53/53 49/49/49 147/147/147
f 60/60/60 111/111/111 95/95/95
f 28/28/28 134/134/134 80/80/80
f 104/104/104 95/95/95 5/5/5
f 28/28/28 140/140/140 134/134/134
f 24/24/24 105/105/105 96/96/96
f 57/57/57 95/95/95 104/104/104
f 24/24/24 96/96/96 144/144/144
f 132/132/132 140/140/140 148/148/148
f 134/134/134 132/132/132 138/138/138
f 45/45/45 93/93/93 98/98/98
f 110/110/110 28/28/28 63/63/63
f 106/106/106 103/103/103 138/138/138
f 9/9/9 117/117/117 75/75/75
f 26/26/26 128/128/128 52/52/52
f 54/54/54 97/97/97 98/98/98
f 111/111/111 32/32/32 63/63/63
f 123/123/123 61/61/61 22/22/22
f 99/99/99 36/36/36 56/56/56
f 80/80/80 104/104/104 5/5/5
f 135/135/135 44/44/44 29/29/29
f 126/126/126 17/17/17 71/71/71
f 109/109/109 12/12/12 116/116/116
f 146/146/146 109/109/109 116/116/116
f 13/13/13 124/124/124 131/131/131
f 103/103/103 150/150/150 34/34/34
f 36/36/36 98/98/98 97/97/97
f 60/60/60 81/81/81 122/122/122
f 12/12/12 84/84/84 114/114/114
f 122/122/122 81/81/81 23/23/23
f 107/107/107 11/11/11 51/51/51
f 150/150/150 51/51/51 11/11/11
f 87/87/87 149/149/149 11/11/11
f 12/12/12 109/109/109 152/152/152
f 14/14/14 133/133/133 78/78/78
f 140/140/140 110/110/110 61/61/61
f 107/107/107 106/106/106 33/33/33
f 44/44/44 135/135/135 126/126/126
f 51/51/51 103/103/103 106/106/106
f 34/34/34 156/156/156 104/104/104
f 57/57/57 104/104/104 156/156/156
f 121/121/121 80/80/80 5/5/5
f 63/63/63 121/121/121 111/111/111
f 121/121/121 28/28/28 80/80/80
f 77/77/77 118/118/118 14/14/14
f 52/52/52 106/106/106 145/145/145
f 103/103/103 34/34/34 80/80/80
f 131/131/131 79/79/79 29/29/29
f 13/13/13 131/131/131 127/127/127
f 25/25/25 146/146/146 32/32/32
f 124/124/124 27/27/27 79/79/79
f 139/139/139 33/33/33 108/108/108
f 107/107/107 33/33/33 43/43/43
f 133/133/133 79/79/79 27/27/27
f 44/44/44 127/127/127 131/131/131
f 139/139/139 43/43/43 33/33/33
f 152/152/152 109/109/109 25/25/25
f 96/96/96 105/105/105 57/57/57
f 140/140/140 28/28/28 110/110/110
f 51/51/51 106/106/106 107/107/107
f 50/50/50 46/46/46 101/101/101
f 97/97/97 56/56/56 36/36/36
f 86/86/86 46/46/46 142/142/142
f 112/112/112 42/42/42 31/31/31
f 40/40/40 46/46/46 86/86/86
f 74/74/74 139/139/139 108/108/108
f 100/100/100 43/43/43 139/139/139
f 137/137/137 31/31/31 47/47/47
f 114/114/114 47/47/47 31/31/31
f 88/88/88 40/40/40 86/86/86
f 16/16/16 100/100/100 139/139/139
f 102/102/102 35/35/35 100/100/100
f 68/68/68 142/142/142 102/102/102
f 88/88/88 99/99/99 56/56/56
f 142/142/142 35/35/35 102/102/102
f 53/53/53 105/105/105 54/54/54
f 95/95/95 37/37/37 60/60/60
f 19/19/19 86/86/86 142/142/142
f 88/88/88 56/56/56 40/40/40
f 144/144/144 40/40/40 56/56/56
f 47/47/47 114/114/114 84/84/84
f 81/81/81 60/60/60 37/37/37
f 87/87/87 46/46/46 40/40/40
f 110/110/110 22/22/22 61/61/61
f 87/87/87 155/155/155 46/46/46
f 144/144/144 56/56/56 97/97/97
f 23/23/23 81/81/81 143/143/143
f 64/64/64 91/91/91 89/89/89
f 156/156/156 96/96/96 57/57/57
f 67/67/67 88/88/88 86/86/86
f 7/7/7 99/99/99 88/88/88
f 7/7/7 70/70/70 99/99/99
f 67/67/67 7/7/7 88/88/88
f 19/19/19 67/67/67 86/86/86
f 68/68/68 19/19/19 142/142/142
f 73/73/73 102/102/102 100/100/100
f 4/4/4 68/68/68 102/102/102
f 73/73/73 4/4/4 102/102/102
f 16/16/16 73/73/73 100/100/100
f 74/74/74 16/16/16 139/139/139
f 8/8/8 74/74/74 108/108/108
f 39/39/39 89/89/89 91/91/91
f 157/157/157 93/93/93 48/48/48
f 116/116/116 42/42/42 30/30/30
f 134/134/134 138/138/138 80/80/80
f 61/61/61 123/123/123 124/124/124
f 145/145/145 26/26/26 52/52/52
f 79/79/79 131/131/131 124/124/124
f 128/128/128 71/71/71 8/8/8
f 149/149/149 150/150/150 11/11/11
f 132/132/132 148/148/148 145/145/145
f 145/145/145 138/138/138 132/132/132
f 153/153/153 149/149/149 144/144/144
f 144/144/144 149/149/149 87/87/87
f 96/96/96 153/153/153 144/144/144
f 155/155/155 101/101/101 46/46/46
f 35/35/35 50/50/50 101/101/101
f 147/147/147 90/90/90 143/143/143
f 101/101/101 155/155/155 11/11/11
f 155/155/155 87/87/87 11/11/11
f 96/96/96 156/156/156 153/153/153
f 154/154/154 13/13/13 127/127/127
f 93/93/93 157/157/157 10/10/10
f 157/157/157 90/90/90 10/10/10
f 10/10/10 90/90/90 49/49/49
f 147/147/147 49/49/49 90/90/90
