# frame 000107 
# time 0.054000 
# name Cloth3D 
v -0.000000 0.000000 -0.000000
v 1.000000 0.000000 -0.000000
v -0.000000 1.000000 0.000000
v 1.000000 1.000000 0.000000
v 0.499835 0.499970 0.021784
v -0.000000 0.500000 0.000000
v 0.500000 1.000000 0.000000
v 1.000000 0.500000 0.000000
v 0.500000 -0.000000 0.000000
v 0.249607 0.749919 -0.008748
v 0.750636 0.751633 0.000448
v 0.250478 0.249671 -0.011520
v 0.751275 0.250970 -0.008927
v 0.750000 0.000000 0.000000
v 0.250000 0.000000 0.000000
v 1.000000 0.750000 0.000000
v 1.000000 0.250000 0.000000
v 0.250000 1.000000 0.000000
v 0.750000 1.000000 0.000000
v 0.000000 0.250000 0.000000
v 0.000000 0.750000 -0.000000
v 0.499720 0.249714 0.004864
v 0.250257 0.500300 0.000428
v 0.500168 0.750519 0.007090
v 0.353277 0.363215 0.021936
v 0.874589 0.374704 -0.018097
v 0.625050 0.125581 -0.017831
v 0.626776 0.373660 0.021784
v 0.875706 0.124436 -0.017333
v 0.374892 0.124945 -0.019249
v 0.124378 0.124344 -0.017168
v 0.373581 0.373173 0.021784
v 0.874502 0.625012 -0.019146
v 0.626128 0.626779 0.021784
v 0.875570 0.875661 -0.016292
v 0.375141 0.874660 -0.018937
v 0.372873 0.626389 0.021784
v 0.124309 0.875649 -0.017442
v 0.125036 0.625081 -0.018550
v 0.625451 0.874612 -0.019661
v 0.125372 0.375104 -0.016208
v 0.249774 0.124300 -0.016039
v 0.875234 0.750264 -0.017888
v 0.875899 0.249735 -0.017593
v 0.249862 0.875312 -0.017503
v 0.750344 0.875787 -0.018323
v 0.124683 0.249853 -0.015222
v 0.124333 0.750207 -0.017197
v 0.303060 0.714094 0.004832
v 0.247784 0.626209 0.010202
v 0.749779 0.625811 0.003858
v 0.874269 0.499775 -0.017134
v 0.358740 0.672732 0.021936
v 0.374364 0.749728 -0.000137
v 0.000000 0.375000 0.000000
v 0.500282 0.874367 -0.018900
v 0.499628 0.626552 0.021785
v 0.251278 0.374726 -0.007229
v 0.125677 0.500158 -0.016791
v 0.373269 0.499832 0.021785
v 0.625529 0.250895 -0.002923
v 0.499888 0.125541 -0.019269
v 0.500048 0.373358 0.021785
v 0.000000 0.625000 0.000000
v 0.000000 0.875000 0.000000
v 0.000000 0.125000 0.000000
v 0.625000 1.000000 0.000000
v 0.875000 1.000000 0.000000
v 0.125000 1.000000 0.000000
v 0.375000 1.000000 0.000000
v 1.000000 0.375000 0.000000
v 1.000000 0.125000 0.000000
v 1.000000 0.875000 0.000000
v 1.000000 0.625000 0.000000
v 0.375000 0.000000 0.000000
v 0.125000 0.000000 0.000000
v 0.875000 0.000000 0.000000
v 0.625000 0.000000 0.000000
v 0.750242 0.125009 -0.015019
v 0.626456 0.500093 0.021785
v 0.297501 0.564819 0.021929
v 0.062048 0.312583 -0.011720
v 0.189037 0.437660 -0.017569
v 0.188082 0.312420 -0.014734
v 0.062634 0.437602 -0.009443
v 0.687560 0.937997 -0.012177
v 0.688343 0.814919 0.001212
v 0.562663 0.937228 -0.010028
v 0.061880 0.687471 -0.012167
v 0.187239 0.687719 -0.011369
v 0.062573 0.562507 -0.009692
v 0.187318 0.938446 -0.013973
v 0.187026 0.812809 -0.015447
v 0.061955 0.938057 -0.010120
v 0.436393 0.563191 0.021785
v 0.537461 0.722161 0.021929
v 0.437755 0.811157 -0.013591
v 0.312421 0.811856 -0.015704
v 0.437641 0.937194 -0.009307
v 0.938377 0.812707 -0.013581
v 0.812582 0.813002 -0.017660
v 0.938051 0.938046 -0.010046
v 0.705016 0.590631 0.021929
v 0.563006 0.563325 0.021785
v 0.420864 0.689895 0.021929
v 0.811477 0.562438 -0.009151
v 0.812008 0.687959 -0.010844
v 0.937244 0.562451 -0.009796
v 0.310917 0.259903 0.002157
v 0.562087 0.314317 0.021929
v 0.436703 0.436590 0.021785
v 0.187256 0.061392 -0.014164
v 0.061955 0.061961 -0.010080
v 0.187278 0.187072 -0.015404
v 0.312524 0.061901 -0.011740
v 0.312371 0.186963 -0.010223
v 0.437510 0.062671 -0.009510
v 0.812692 0.061703 -0.013359
v 0.938021 0.061975 -0.009938
v 0.335596 0.427158 0.021929
v 0.563265 0.436762 0.021785
v 0.315660 0.499198 0.021929
v 0.562325 0.189094 -0.015638
v 0.687903 0.188650 -0.016664
v 0.562461 0.062826 -0.009274
v 0.938217 0.312512 -0.013148
v 0.815258 0.311643 0.002366
v 0.937462 0.437420 -0.010965
v 0.312596 0.937755 -0.011088
v 0.433639 0.278773 0.021929
v 0.813107 0.187501 -0.016450
v 0.756924 0.403053 0.021929
v 0.687469 0.062370 -0.010479
v 0.690097 0.436937 0.021784
v 0.938723 0.187238 -0.014594
v 0.437074 0.187824 -0.007914
v 0.061508 0.187302 -0.014152
v 0.729711 0.501393 0.021929
v 0.937637 0.687474 -0.010849
v 0.680307 0.347031 0.021929
v 0.061344 0.812743 -0.014675
v 0.812773 0.938624 -0.014053
v 0.188801 0.563075 -0.013764
v 0.563216 0.812289 -0.005883
v 0.813112 0.436831 -0.000501
v 0.380632 0.263971 0.021942
v 0.273974 0.649355 0.021942
v 0.766027 0.370644 0.021942
v 0.659355 0.756026 0.021942
v 0.685874 0.659809 0.021929
v 0.497951 0.296569 0.021929
v 0.297752 0.331280 0.001306
v 0.600602 0.739695 0.021936
v 0.757913 0.309782 0.006132
vt 0.000000 0.000000
vt 1.000000 0.000000
vt 0.000000 1.000000
vt 1.000000 1.000000
vt 0.500000 0.500000
vt 0.000000 0.500000
vt 0.500000 1.000000
vt 1.000000 0.500000
vt 0.500000 0.000000
vt 0.250000 0.750000
vt 0.750000 0.750000
vt 0.250000 0.250000
vt 0.750000 0.250000
vt 0.750000 0.000000
vt 0.250000 0.000000
vt 1.000000 0.750000
vt 1.000000 0.250000
vt 0.250000 1.000000
vt 0.750000 1.000000
vt 0.000000 0.250000
vt 0.000000 0.750000
vt 0.500000 0.250000
vt 0.250000 0.500000
vt 0.500000 0.750000
vt 0.354910 0.365093
vt 0.875000 0.375000
vt 0.625000 0.125000
vt 0.625000 0.375000
vt 0.875000 0.125000
vt 0.375000 0.125000
vt 0.125000 0.125000
vt 0.375000 0.375000
vt 0.875000 0.625000
vt 0.625000 0.625000
vt 0.875000 0.875000
vt 0.375000 0.875000
vt 0.375000 0.625000
vt 0.125000 0.875000
vt 0.125000 0.625000
vt 0.625000 0.875000
vt 0.125000 0.375000
vt 0.250000 0.125000
vt 0.875000 0.750000
vt 0.875000 0.250000
vt 0.250000 0.875000
vt 0.750000 0.875000
vt 0.125000 0.250000
vt 0.125000 0.750000
vt 0.304602 0.713891
vt 0.250000 0.625000
vt 0.750000 0.625000
vt 0.875000 0.500000
vt 0.360921 0.670811
vt 0.375000 0.750000
vt 0.000000 0.375000
vt 0.500000 0.875000
vt 0.500000 0.625000
vt 0.250000 0.375000
vt 0.125000 0.500000
vt 0.375000 0.500000
vt 0.625000 0.250000
vt 0.500000 0.125000
vt 0.500000 0.375000
vt 0.000000 0.625000
vt 0.000000 0.875000
vt 0.000000 0.125000
vt 0.625000 1.000000
vt 0.875000 1.000000
vt 0.125000 1.000000
vt 0.375000 1.000000
vt 1.000000 0.375000
vt 1.000000 0.125000
vt 1.000000 0.875000
vt 1.000000 0.625000
vt 0.375000 0.000000
vt 0.125000 0.000000
vt 0.875000 0.000000
vt 0.625000 0.000000
vt 0.750000 0.125000
vt 0.625000 0.500000
vt 0.300512 0.564313
vt 0.062500 0.312500
vt 0.187500 0.437500
vt 0.187500 0.312500
vt 0.062500 0.437500
vt 0.687500 0.937500
vt 0.687500 0.812500
vt 0.562500 0.937500
vt 0.062500 0.687500
vt 0.187500 0.687500
vt 0.062500 0.562500
vt 0.187500 0.937500
vt 0.187500 0.812500
vt 0.062500 0.937500
vt 0.437500 0.562500
vt 0.537476 0.719192
vt 0.437500 0.812500
vt 0.312500 0.812500
vt 0.437500 0.937500
vt 0.937500 0.812500
vt 0.812500 0.812500
vt 0.937500 0.937500
vt 0.702856 0.589357
vt 0.562500 0.562500
vt 0.422198 0.687712
vt 0.812500 0.562500
vt 0.812500 0.687500
vt 0.937500 0.562500
vt 0.311128 0.261404
vt 0.561172 0.316466
vt 0.437500 0.437500
vt 0.187500 0.062500
vt 0.062500 0.062500
vt 0.187500 0.187500
vt 0.312500 0.062500
vt 0.312500 0.187500
vt 0.437500 0.062500
vt 0.812500 0.062500
vt 0.937500 0.062500
vt 0.337504 0.428249
vt 0.562500 0.437500
vt 0.318091 0.499506
vt 0.562500 0.187500
vt 0.687500 0.187500
vt 0.562500 0.062500
vt 0.937500 0.312500
vt 0.812500 0.312500
vt 0.937500 0.437500
vt 0.312500 0.937500
vt 0.434329 0.282026
vt 0.812500 0.187500
vt 0.753017 0.403905
vt 0.687500 0.062500
vt 0.687500 0.437500
vt 0.937500 0.187500
vt 0.437500 0.187500
vt 0.062500 0.187500
vt 0.726921 0.501093
vt 0.937500 0.687500
vt 0.677723 0.348572
vt 0.062500 0.812500
vt 0.812500 0.937500
vt 0.187500 0.562500
vt 0.562500 0.812500
vt 0.812500 0.437500
vt 0.382089 0.267952
vt 0.278087 0.647496
vt 0.761615 0.371935
vt 0.657756 0.751760
vt 0.684109 0.657526
vt 0.497767 0.299236
vt 0.296906 0.332149
vt 0.599858 0.736122
vt 0.755420 0.310071
vn 0.081338 0.081338 0.993362
vn -0.080248 0.080248 0.993539
vn 0.081724 -0.081724 0.993299
vn -0.081193 -0.081193 0.993386
vn 0.000000 0.000000 1.000000
vn 0.151211 0.000931 0.988501
vn 0.002424 -0.149955 0.988690
vn -0.161694 -0.004599 0.986830
vn -0.000859 0.146844 0.989159
vn -0.092127 0.164198 0.982116
vn 0.211684 0.096219 0.972590
vn -0.128404 -0.063527 0.989685
vn 0.027465 -0.192308 0.980950
vn 0.011534 0.188175 0.982068
vn -0.009879 0.204268 0.978865
vn -0.192128 0.011262 0.981305
vn -0.217878 -0.006275 0.975956
vn -0.011690 -0.197390 0.980255
vn 0.008198 -0.205676 0.978586
vn 0.204121 -0.009682 0.978898
vn 0.211711 0.010090 0.977280
vn 0.085441 -0.311078 0.946536
vn -0.286492 -0.066806 0.955751
vn -0.093011 0.316103 0.944155
vn -0.068427 -0.021040 0.997434
vn 0.117520 0.002795 0.993067
vn -0.004609 0.049007 0.998788
vn -0.000809 0.001799 0.999998
vn -0.023979 0.036346 0.999052
vn -0.001963 -0.010000 0.999948
vn 0.026304 0.024725 0.999348
vn 0.005073 0.001319 0.999986
vn 0.000899 0.006350 0.999979
vn -0.001119 -0.000724 0.999999
vn -0.035782 -0.032111 0.998844
vn -0.004591 -0.035902 0.999345
vn 0.000825 -0.001767 0.999998
vn 0.027165 -0.030752 0.999158
vn 0.014385 0.000839 0.999896
vn -0.012022 0.065991 0.997748
vn 0.042329 0.004288 0.999094
vn -0.010023 -0.001219 0.999949
vn -0.016088 0.012312 0.999795
vn 0.053529 -0.037028 0.997880
vn -0.001613 -0.023105 0.999732
vn 0.032628 0.036999 0.998783
vn 0.014761 -0.007866 0.999860
vn -0.000283 0.009912 0.999951
vn -0.070914 0.262486 0.962326
vn -0.346773 -0.064246 0.935746
vn 0.277584 0.060631 0.958786
vn 0.041524 0.016465 0.999002
vn -0.035027 0.130078 0.990885
vn -0.051225 0.260110 0.964219
vn 0.167330 -0.009133 0.985859
vn -0.011643 -0.003116 0.999927
vn 0.000093 -0.000815 1.000000
vn -0.203554 -0.022849 0.978797
vn 0.048025 -0.001920 0.998844
vn 0.001536 0.000557 0.999999
vn 0.045701 -0.246697 0.968014
vn 0.011793 0.020819 0.999714
vn -0.000169 0.001058 0.999999
vn 0.172545 0.009952 0.984951
vn 0.197224 -0.017616 0.980200
vn 0.192611 0.015651 0.981150
vn 0.008948 -0.172178 0.985025
vn -0.015390 -0.191807 0.981312
vn 0.014737 -0.191576 0.981367
vn -0.007470 -0.159889 0.987107
vn -0.188183 -0.008965 0.982093
vn -0.195140 0.018021 0.980610
vn -0.187996 -0.013454 0.982078
vn -0.161403 0.004443 0.986879
vn -0.009287 0.166747 0.985956
vn 0.015797 0.192886 0.981094
vn -0.013053 0.185345 0.982587
vn 0.005206 0.155379 0.987841
vn 0.004147 0.034614 0.999392
vn -0.000550 -0.000266 1.000000
vn -0.176666 -0.046835 0.983156
vn 0.122172 -0.007689 0.992479
vn -0.099118 -0.014431 0.994971
vn -0.062814 -0.002240 0.998023
vn 0.127517 -0.003058 0.991832
vn 0.005433 -0.149238 0.988786
vn 0.074593 0.256758 0.963593
vn 0.007808 -0.151253 0.988464
vn 0.138737 0.007593 0.990300
vn -0.174538 0.040103 0.983833
vn 0.136496 0.008987 0.990600
vn 0.001599 -0.136265 0.990671
vn -0.022034 0.032180 0.999239
vn 0.082371 -0.083838 0.993069
vn -0.000000 0.000000 1.000000
vn -0.070956 0.222080 0.972443
vn -0.032662 0.173286 0.984330
vn -0.019060 0.119971 0.992594
vn -0.002420 -0.147000 0.989134
vn -0.133024 -0.004312 0.991103
vn 0.065136 0.043896 0.996910
vn -0.080049 -0.079094 0.993648
vn 0.180885 0.051842 0.982137
vn 0.000000 0.000000 1.000000
vn -0.038224 0.159594 0.986442
vn 0.214293 0.044643 0.975749
vn 0.160880 0.019425 0.986783
vn -0.141645 0.003628 0.989911
vn -0.233068 -0.099244 0.967383
vn 0.035623 -0.146739 0.988534
vn 0.000418 0.000000 1.000000
vn 0.000737 0.129614 0.991564
vn 0.082142 0.082081 0.993235
vn -0.021554 -0.017817 0.999609
vn -0.003357 0.137321 0.990521
vn -0.080644 -0.145988 0.985994
vn -0.005019 0.149646 0.988727
vn 0.003792 0.125987 0.992025
vn -0.080555 0.083046 0.993285
vn -0.118838 -0.030221 0.992454
vn 0.000000 -0.000000 1.000000
vn -0.143390 -0.039294 0.988886
vn 0.028792 -0.149969 0.988271
vn 0.006625 -0.079105 0.996844
vn -0.000849 0.143875 0.989596
vn -0.140371 -0.006104 0.990080
vn 0.173261 -0.144384 0.974235
vn -0.138647 -0.009052 0.990300
vn -0.006885 -0.141423 0.989925
vn 0.055960 -0.187345 0.980699
vn 0.023937 -0.045776 0.998665
vn 0.167492 0.046918 0.984756
vn 0.002970 0.127312 0.991858
vn -0.001459 0.000085 0.999999
vn -0.136621 0.006550 0.990602
vn 0.038514 -0.235158 0.971194
vn 0.126514 -0.000716 0.991965
vn 0.134436 0.034039 0.990337
vn -0.143982 0.005333 0.989566
vn 0.024938 -0.103836 0.994282
vn 0.135220 -0.003257 0.990810
vn -0.007806 -0.135166 0.990792
vn -0.176607 -0.029161 0.983849
vn -0.057695 0.262384 0.963237
vn 0.297472 0.059959 0.952846
vn -0.075014 -0.164740 0.983480
vn -0.231913 0.041047 0.971870
vn 0.157081 -0.049814 0.986329
vn 0.064924 0.184936 0.980604
vn 0.134526 0.027799 0.990520
vn 0.057182 -0.208669 0.976313
vn -0.241155 -0.062360 0.968481
vn -0.048622 0.175909 0.983205
vn 0.074347 -0.257813 0.963330
f 1/1/1 113/113/113 66/66/66
f 31/31/31 137/137/137 113/113/113
f 11/11/11 101/101/101 87/87/87
f 112/112/112 31/31/31 113/113/113
f 138/138/138 145/145/145 106/106/106
f 106/106/106 52/52/52 33/33/33
f 124/124/124 13/13/13 61/61/61
f 84/84/84 41/41/41 47/47/47
f 137/137/137 66/66/66 113/113/113
f 75/75/75 115/115/115 15/15/15
f 12/12/12 152/152/152 84/84/84
f 12/12/12 114/114/114 116/116/116
f 101/101/101 35/35/35 46/46/46
f 76/76/76 113/113/113 1/1/1
f 76/76/76 112/112/112 113/113/113
f 15/15/15 112/112/112 76/76/76
f 115/115/115 112/112/112 15/15/15
f 30/30/30 115/115/115 117/117/117
f 108/108/108 33/33/33 52/52/52
f 75/75/75 117/117/117 115/115/115
f 115/115/115 30/30/30 42/42/42
f 42/42/42 116/116/116 114/114/114
f 51/51/51 150/150/150 103/103/103
f 116/116/116 30/30/30 136/136/136
f 122/122/122 23/23/23 120/120/120
f 54/54/54 98/98/98 49/49/49
f 42/42/42 112/112/112 115/115/115
f 58/58/58 84/84/84 152/152/152
f 48/48/48 90/90/90 93/93/93
f 60/60/60 120/120/120 111/111/111
f 53/53/53 147/147/147 37/37/37
f 46/46/46 87/87/87 101/101/101
f 101/101/101 43/43/43 35/35/35
f 104/104/104 80/80/80 34/34/34
f 10/10/10 49/49/49 98/98/98
f 83/83/83 58/58/58 23/23/23
f 49/49/49 53/53/53 54/54/54
f 117/117/117 62/62/62 30/30/30
f 132/132/132 134/134/134 140/140/140
f 62/62/62 123/123/123 136/136/136
f 77/77/77 2/2/2 119/119/119
f 77/77/77 119/119/119 118/118/118
f 71/71/71 128/128/128 126/126/126
f 142/142/142 46/46/46 35/35/35
f 63/63/63 28/28/28 121/121/121
f 119/119/119 29/29/29 118/118/118
f 34/34/34 150/150/150 153/153/153
f 125/125/125 27/27/27 62/62/62
f 135/135/135 72/72/72 17/17/17
f 136/136/136 30/30/30 62/62/62
f 58/58/58 120/120/120 23/23/23
f 60/60/60 122/122/122 120/120/120
f 127/127/127 44/44/44 26/26/26
f 120/120/120 25/25/25 32/32/32
f 146/146/146 116/116/116 136/136/136
f 58/58/58 152/152/152 25/25/25
f 120/120/120 32/32/32 111/111/111
f 22/22/22 130/130/130 136/136/136
f 130/130/130 63/63/63 32/32/32
f 154/154/154 13/13/13 127/127/127
f 82/82/82 47/47/47 41/41/41
f 45/45/45 98/98/98 36/36/36
f 82/82/82 137/137/137 47/47/47
f 10/10/10 93/93/93 90/90/90
f 26/26/26 126/126/126 128/128/128
f 62/62/62 117/117/117 125/125/125
f 20/20/20 137/137/137 82/82/82
f 38/38/38 92/92/92 94/94/94
f 20/20/20 66/66/66 137/137/137
f 55/55/55 20/20/20 82/82/82
f 69/69/69 94/94/94 92/92/92
f 143/143/143 90/90/90 39/39/39
f 8/8/8 108/108/108 128/128/128
f 141/141/141 48/48/48 38/38/38
f 24/24/24 144/144/144 97/97/97
f 65/65/65 141/141/141 94/94/94
f 114/114/114 31/31/31 42/42/42
f 38/38/38 94/94/94 141/141/141
f 92/92/92 18/18/18 69/69/69
f 97/97/97 54/54/54 24/24/24
f 151/151/151 110/110/110 63/63/63
f 11/11/11 107/107/107 101/101/101
f 29/29/29 119/119/119 135/135/135
f 143/143/143 59/59/59 83/83/83
f 104/104/104 34/34/34 57/57/57
f 43/43/43 101/101/101 107/107/107
f 129/129/129 45/45/45 36/36/36
f 27/27/27 124/124/124 123/123/123
f 85/85/85 41/41/41 59/59/59
f 78/78/78 125/125/125 9/9/9
f 70/70/70 129/129/129 99/99/99
f 83/83/83 59/59/59 41/41/41
f 129/129/129 70/70/70 18/18/18
f 36/36/36 99/99/99 129/129/129
f 93/93/93 38/38/38 48/48/48
f 38/38/38 45/45/45 92/92/92
f 52/52/52 128/128/128 108/108/108
f 65/65/65 94/94/94 3/3/3
f 72/72/72 135/135/135 119/119/119
f 94/94/94 69/69/69 3/3/3
f 39/39/39 90/90/90 48/48/48
f 21/21/21 141/141/141 65/65/65
f 18/18/18 92/92/92 129/129/129
f 6/6/6 91/91/91 64/64/64
f 105/105/105 24/24/24 54/54/54
f 93/93/93 45/45/45 38/38/38
f 89/89/89 39/39/39 48/48/48
f 50/50/50 90/90/90 143/143/143
f 45/45/45 129/129/129 92/92/92
f 9/9/9 125/125/125 117/117/117
f 64/64/64 89/89/89 21/21/21
f 55/55/55 82/82/82 85/85/85
f 6/6/6 85/85/85 91/91/91
f 59/59/59 91/91/91 85/85/85
f 41/41/41 85/85/85 82/82/82
f 6/6/6 55/55/55 85/85/85
f 23/23/23 143/143/143 83/83/83
f 59/59/59 39/39/39 91/91/91
f 151/151/151 130/130/130 22/22/22
f 143/143/143 39/39/39 59/59/59
f 118/118/118 29/29/29 79/79/79
f 29/29/29 44/44/44 131/131/131
f 32/32/32 146/146/146 130/130/130
f 58/58/58 83/83/83 84/84/84
f 119/119/119 2/2/2 72/72/72
f 44/44/44 126/126/126 26/26/26
f 130/130/130 151/151/151 63/63/63
f 138/138/138 103/103/103 80/80/80
f 10/10/10 98/98/98 93/93/93
f 21/21/21 89/89/89 141/141/141
f 105/105/105 53/53/53 37/37/37
f 149/149/149 153/153/153 150/150/150
f 79/79/79 133/133/133 118/118/118
f 118/118/118 133/133/133 14/14/14
f 81/81/81 147/147/147 50/50/50
f 100/100/100 35/35/35 43/43/43
f 109/109/109 146/146/146 152/152/152
f 48/48/48 141/141/141 89/89/89
f 78/78/78 133/133/133 125/125/125
f 62/62/62 27/27/27 123/123/123
f 37/37/37 147/147/147 81/81/81
f 40/40/40 144/144/144 87/87/87
f 49/49/49 10/10/10 147/147/147
f 25/25/25 120/120/120 58/58/58
f 5/5/5 95/95/95 111/111/111
f 110/110/110 151/151/151 22/22/22
f 57/57/57 37/37/37 95/95/95
f 37/37/37 57/57/57 105/105/105
f 27/27/27 125/125/125 133/133/133
f 121/121/121 5/5/5 111/111/111
f 130/130/130 146/146/146 136/136/136
f 123/123/123 22/22/22 136/136/136
f 17/17/17 126/126/126 135/135/135
f 41/41/41 84/84/84 83/83/83
f 53/53/53 49/49/49 147/147/147
f 60/60/60 111/111/111 95/95/95
f 28/28/28 134/134/134 80/80/80
f 104/104/104 95/95/95 5/5/5
f 28/28/28 140/140/140 134/134/134
f 24/24/24 105/105/105 96/96/96
f 57/57/57 95/95/95 104/104/104
f 24/24/24 96/96/96 144/144/144
f 132/132/132 140/140/140 148/148/148
f 134/134/134 132/132/132 138/138/138
f 45/45/45 93/93/93 98/98/98
f 110/110/110 28/28/28 63/63/63
f 106/106/106 103/103/103 138/138/138
f 9/9/9 117/117/117 75/75/75
f 26/26/26 128/128/128 52/52/52
f 54/54/54 97/97/97 98/98/98
f 111/111/111 32/32/32 63/63/63
f 123/123/123 61/61/61 22/22/22
f 99/99/99 36/36/36 56/56/56
f 80/80/80 104/104/104 5/5/5
f 135/135/135 44/44/44 29/29/29
f 126/126/126 17/17/17 71/71/71
f 109/109/109 12/12/12 116/116/116
f 146/146/146 109/109/109 116/116/116
f 13/13/13 124/124/124 131/131/131
f 103/103/103 150/150/150 34/34/34
f 36/36/36 98/98/98 97/97/97
f 60/60/60 81/81/81 122/122/122
f 12/12/12 84/84/84 114/114/114
f 122/122/122 81/81/81 23/23/23
f 107/107/107 11/11/11 51/51/51
f 150/150/150 51/51/51 11/11/11
f 87/87/87 149/149/149 11/11/11
f 12/12/12 109/109/109 152/152/152
f 14/14/14 133/133/133 78/78/78
f 140/140/140 110/110/110 61/61/61
f 107/107/107 106/106/106 33/33/33
f 44/44/44 135/135/135 126/126/126
f 51/51/51 103/103/103 106/106/106
f 143/143/143 23/23/23 50/50/50
f 81/81/81 50/50/50 23/23/23
f 121/121/121 80/80/80 5/5/5
f 63/63/63 121/121/121 111/111/111
f 121/121/121 28/28/28 80/80/80
f 77/77/77 118/118/118 14/14/14
f 52/52/52 106/106/106 145/145/145
f 103/103/103 34/34/34 80/80/80
f 131/131/131 79/79/79 29/29/29
f 13/13/13 131/131/131 127/127/127
f 25/25/25 146/146/146 32/32/32
f 124/124/124 27/27/27 79/79/79
f 139/139/139 33/33/33 108/108/108
f 107/107/107 33/33/33 43/43/43
f 133/133/133 79/79/79 27/27/27
f 44/44/44 127/127/127 131/131/131
f 139/139/139 43/43/43 33/33/33
f 10/10/10 90/90/90 147/147/147
f 96/96/96 105/105/105 57/57/57
f 140/140/140 28/28/28 110/110/110
f 51/51/51 106/106/106 107/107/107
f 50/50/50 147/147/147 90/90/90
f 97/97/97 56/56/56 36/36/36
f 86/86/86 46/46/46 142/142/142
f 112/112/112 42/42/42 31/31/31
f 40/40/40 46/46/46 86/86/86
f 74/74/74 139/139/139 108/108/108
f 100/100/100 43/43/43 139/139/139
f 137/137/137 31/31/31 47/47/47
f 114/114/114 47/47/47 31/31/31
f 88/88/88 40/40/40 86/86/86
f 16/16/16 100/100/100 139/139/139
f 102/102/102 35/35/35 100/100/100
f 68/68/68 142/142/142 102/102/102
f 88/88/88 99/99/99 56/56/56
f 142/142/142 35/35/35 102/102/102
f 53/53/53 105/105/105 54/54/54
f 95/95/95 37/37/37 60/60/60
f 19/19/19 86/86/86 142/142/142
f 88/88/88 56/56/56 40/40/40
f 144/144/144 40/40/40 56/56/56
f 47/47/47 114/114/114 84/84/84
f 81/81/81 60/60/60 37/37/37
f 87/87/87 46/46/46 40/40/40
f 110/110/110 22/22/22 61/61/61
f 57/57/57 34/34/34 96/96/96
f 144/144/144 56/56/56 97/97/97
f 61/61/61 13/13/13 140/140/140
f 64/64/64 91/91/91 89/89/89
f 148/148/148 154/154/154 127/127/127
f 67/67/67 88/88/88 86/86/86
f 7/7/7 99/99/99 88/88/88
f 7/7/7 70/70/70 99/99/99
f 67/67/67 7/7/7 88/88/88
f 19/19/19 67/67/67 86/86/86
f 68/68/68 19/19/19 142/142/142
f 73/73/73 102/102/102 100/100/100
f 4/4/4 68/68/68 102/102/102
f 73/73/73 4/4/4 102/102/102
f 16/16/16 73/73/73 100/100/100
f 74/74/74 16/16/16 139/139/139
f 8/8/8 74/74/74 108/108/108
f 39/39/39 89/89/89 91/91/91
f 152/152/152 146/146/146 25/25/25
f 116/116/116 42/42/42 30/30/30
f 134/134/134 138/138/138 80/80/80
f 61/61/61 123/123/123 124/124/124
f 145/145/145 26/26/26 52/52/52
f 79/79/79 131/131/131 124/124/124
f 128/128/128 71/71/71 8/8/8
f 149/149/149 150/150/150 11/11/11
f 132/132/132 148/148/148 145/145/145
f 145/145/145 138/138/138 132/132/132
f 153/153/153 149/149/149 144/144/144
f 144/144/144 149/149/149 87/87/87
f 96/96/96 153/153/153 144/144/144
f 153/153/153 96/96/96 34/34/34
f 13/13/13 154/154/154 140/140/140
f 154/154/154 148/148/148 140/140/140
f 127/127/127 26/26/26 148/148/148
f 145/145/145 148/148/148 26/26/26
