# frame 000130 
# time 0.065500 
# name Cloth3D 
v -0.000000 0.000000 -0.000000
v 1.000000 0.000000 -0.000000
v -0.000000 1.000000 0.000000
v 1.000000 1.000000 0.000000
v 0.499983 0.500055 0.027534
v -0.000000 0.500000 0.000000
v 0.500000 1.000000 0.000000
v 1.000000 0.500000 0.000000
v 0.500000 -0.000000 0.000000
v 0.248230 0.750924 -0.006104
v 0.751407 0.752540 0.001611
v 0.250038 0.248627 -0.010184
v 0.751878 0.249404 -0.005040
v 0.750000 0.000000 0.000000
v 0.250000 0.000000 0.000000
v 1.000000 0.750000 0.000000
v 1.000000 0.250000 0.000000
v 0.250000 1.000000 0.000000
v 0.750000 1.000000 0.000000
v 0.000000 0.250000 0.000000
v 0.000000 0.750000 -0.000000
v 0.499961 0.248009 0.012711
v 0.248641 0.500231 0.007742
v 0.500060 0.752071 0.014867
v 0.358547 0.364086 0.027686
v 0.876082 0.374675 -0.008717
v 0.625123 0.125319 -0.021504
v 0.627468 0.373094 0.027534
v 0.876386 0.123971 -0.024598
v 0.375060 0.124590 -0.019380
v 0.123957 0.123795 -0.023836
v 0.373085 0.372315 0.027534
v 0.874659 0.624994 -0.016738
v 0.626865 0.627697 0.027534
v 0.876152 0.876358 -0.025429
v 0.375254 0.874814 -0.021093
v 0.372113 0.627003 0.027534
v 0.123776 0.876190 -0.024237
v 0.124760 0.625337 -0.021682
v 0.625616 0.876094 -0.009788
v 0.125236 0.375050 -0.022484
v 0.249844 0.123593 -0.024951
v 0.875464 0.750331 -0.023762
v 0.876380 0.250095 -0.021774
v 0.249745 0.875737 -0.024815
v 0.750151 0.876171 -0.020918
v 0.124649 0.249638 -0.022688
v 0.123667 0.750419 -0.025223
v 0.302105 0.714599 0.006992
v 0.812980 0.876331 -0.023277
v 0.750425 0.626430 0.007564
v 0.874590 0.499633 -0.012852
v 0.359944 0.666663 0.027686
v 0.373917 0.750216 0.002631
v 0.000000 0.375000 0.000000
v 0.500663 0.874661 -0.016119
v 0.499697 0.627273 0.027535
v 0.250795 0.374371 -0.004668
v 0.125355 0.500311 -0.020926
v 0.372700 0.499783 0.027535
v 0.626077 0.249974 0.001225
v 0.499995 0.125212 -0.017558
v 0.500231 0.372649 0.027535
v 0.000000 0.625000 0.000000
v 0.000000 0.875000 0.000000
v 0.000000 0.125000 0.000000
v 0.625000 1.000000 0.000000
v 0.875000 1.000000 0.000000
v 0.125000 1.000000 0.000000
v 0.375000 1.000000 0.000000
v 1.000000 0.375000 0.000000
v 1.000000 0.125000 0.000000
v 1.000000 0.875000 0.000000
v 1.000000 0.625000 0.000000
v 0.375000 0.000000 0.000000
v 0.125000 0.000000 0.000000
v 0.875000 0.000000 0.000000
v 0.625000 0.000000 0.000000
v 0.750489 0.124664 -0.023582
v 0.627164 0.500350 0.027535
v 0.290808 0.563548 0.027679
v 0.062415 0.312475 -0.011837
v 0.188731 0.437794 -0.016031
v 0.188438 0.312153 -0.020462
v 0.062732 0.437573 -0.010679
v 0.687620 0.939233 -0.016972
v 0.689564 0.816380 0.006593
v 0.562622 0.938591 -0.015251
v 0.061645 0.687627 -0.014265
v 0.185000 0.688659 -0.005558
v 0.062307 0.562604 -0.012142
v 0.187199 0.938335 -0.014561
v 0.186707 0.812953 -0.025585
v 0.062152 0.937863 -0.008287
v 0.436135 0.563545 0.027535
v 0.536633 0.726652 0.027679
v 0.437811 0.811659 -0.010224
v 0.312030 0.812232 -0.015570
v 0.437665 0.937922 -0.013527
v 0.938166 0.812852 -0.014260
v 0.812748 0.813489 -0.021485
v 0.937755 0.937774 -0.007860
v 0.703585 0.590719 0.027679
v 0.563452 0.563872 0.027535
v 0.421329 0.687486 0.027679
v 0.811608 0.562467 -0.005974
v 0.812432 0.688436 -0.010163
v 0.937950 0.562446 -0.013296
v 0.311299 0.259081 0.001489
v 0.562570 0.313456 0.027679
v 0.436543 0.436189 0.027535
v 0.187178 0.061405 -0.014895
v 0.062138 0.062128 -0.008508
v 0.187333 0.186578 -0.024596
v 0.312508 0.061449 -0.014567
v 0.311755 0.185183 -0.006284
v 0.437605 0.061708 -0.014256
v 0.812904 0.062004 -0.013368
v 0.937862 0.062196 -0.008193
v 0.337082 0.427321 0.027679
v 0.563728 0.436536 0.027535
v 0.312885 0.498554 0.027679
v 0.562493 0.188477 -0.011876
v 0.688096 0.188518 -0.018951
v 0.562628 0.062185 -0.012864
v 0.939198 0.312560 -0.016388
v 0.815533 0.311187 0.002336
v 0.938378 0.437544 -0.013737
v 0.312527 0.937919 -0.013315
v 0.435514 0.270298 0.027679
v 0.813582 0.187430 -0.023704
v 0.766629 0.405121 0.027679
v 0.687662 0.062551 -0.011189
v 0.690990 0.436767 0.027534
v 0.938964 0.187201 -0.016354
v 0.437049 0.186232 -0.000993
v 0.061732 0.187178 -0.014348
v 0.733538 0.502540 0.027679
v 0.938101 0.687577 -0.013947
v 0.679015 0.353011 0.027679
v 0.061371 0.812907 -0.015244
v 0.812826 0.938801 -0.015799
v 0.187214 0.563348 -0.007028
v 0.563639 0.813141 0.000770
v 0.813802 0.436453 0.005711
v 0.395001 0.256368 0.027692
v 0.266373 0.634983 0.027692
v 0.773628 0.385016 0.027692
v 0.644983 0.763627 0.027692
v 0.680410 0.658947 0.027679
v 0.499201 0.291931 0.027679
v 0.296904 0.330479 0.005533
v 0.599195 0.747966 0.027686
v 0.716119 0.299599 0.010438
v 0.750931 0.814617 -0.008615
v 0.582273 0.675815 0.027607
vt 0.000000 0.000000
vt 1.000000 0.000000
vt 0.000000 1.000000
vt 1.000000 1.000000
vt 0.500000 0.500000
vt 0.000000 0.500000
vt 0.500000 1.000000
vt 1.000000 0.500000
vt 0.500000 0.000000
vt 0.250000 0.750000
vt 0.750000 0.750000
vt 0.250000 0.250000
vt 0.750000 0.250000
vt 0.750000 0.000000
vt 0.250000 0.000000
vt 1.000000 0.750000
vt 1.000000 0.250000
vt 0.250000 1.000000
vt 0.750000 1.000000
vt 0.000000 0.250000
vt 0.000000 0.750000
vt 0.500000 0.250000
vt 0.250000 0.500000
vt 0.500000 0.750000
vt 0.360702 0.366872
vt 0.875000 0.375000
vt 0.625000 0.125000
vt 0.625000 0.375000
vt 0.875000 0.125000
vt 0.375000 0.125000
vt 0.125000 0.125000
vt 0.375000 0.375000
vt 0.875000 0.625000
vt 0.625000 0.625000
vt 0.875000 0.875000
vt 0.375000 0.875000
vt 0.375000 0.625000
vt 0.125000 0.875000
vt 0.125000 0.625000
vt 0.625000 0.875000
vt 0.125000 0.375000
vt 0.250000 0.125000
vt 0.875000 0.750000
vt 0.875000 0.250000
vt 0.250000 0.875000
vt 0.750000 0.875000
vt 0.125000 0.250000
vt 0.125000 0.750000
vt 0.304602 0.713891
vt 0.812500 0.875000
vt 0.750000 0.625000
vt 0.875000 0.500000
vt 0.363009 0.664034
vt 0.375000 0.750000
vt 0.000000 0.375000
vt 0.500000 0.875000
vt 0.500000 0.625000
vt 0.250000 0.375000
vt 0.125000 0.500000
vt 0.375000 0.500000
vt 0.625000 0.250000
vt 0.500000 0.125000
vt 0.500000 0.375000
vt 0.000000 0.625000
vt 0.000000 0.875000
vt 0.000000 0.125000
vt 0.625000 1.000000
vt 0.875000 1.000000
vt 0.125000 1.000000
vt 0.375000 1.000000
vt 1.000000 0.375000
vt 1.000000 0.125000
vt 1.000000 0.875000
vt 1.000000 0.625000
vt 0.375000 0.000000
vt 0.125000 0.000000
vt 0.875000 0.000000
vt 0.625000 0.000000
vt 0.750000 0.125000
vt 0.625000 0.500000
vt 0.295066 0.562682
vt 0.062500 0.312500
vt 0.187500 0.437500
vt 0.187500 0.312500
vt 0.062500 0.437500
vt 0.687500 0.937500
vt 0.687500 0.812500
vt 0.562500 0.937500
vt 0.062500 0.687500
vt 0.187500 0.687500
vt 0.062500 0.562500
vt 0.187500 0.937500
vt 0.187500 0.812500
vt 0.062500 0.937500
vt 0.437500 0.562500
vt 0.536422 0.722668
vt 0.437500 0.812500
vt 0.312500 0.812500
vt 0.437500 0.937500
vt 0.937500 0.812500
vt 0.812500 0.812500
vt 0.937500 0.937500
vt 0.700522 0.588654
vt 0.562500 0.562500
vt 0.423176 0.684484
vt 0.812500 0.562500
vt 0.812500 0.687500
vt 0.937500 0.562500
vt 0.311128 0.261404
vt 0.561151 0.316550
vt 0.437500 0.437500
vt 0.187500 0.062500
vt 0.062500 0.062500
vt 0.187500 0.187500
vt 0.312500 0.062500
vt 0.312500 0.187500
vt 0.437500 0.062500
vt 0.812500 0.062500
vt 0.937500 0.062500
vt 0.339661 0.428899
vt 0.562500 0.437500
vt 0.316239 0.498943
vt 0.562500 0.187500
vt 0.687500 0.187500
vt 0.562500 0.062500
vt 0.937500 0.312500
vt 0.812500 0.312500
vt 0.937500 0.437500
vt 0.312500 0.937500
vt 0.436408 0.275092
vt 0.812500 0.187500
vt 0.761518 0.406468
vt 0.687500 0.062500
vt 0.687500 0.437500
vt 0.937500 0.187500
vt 0.437500 0.187500
vt 0.062500 0.187500
vt 0.729786 0.501964
vt 0.937500 0.687500
vt 0.675691 0.355200
vt 0.062500 0.812500
vt 0.812500 0.937500
vt 0.187500 0.562500
vt 0.562500 0.812500
vt 0.812500 0.437500
vt 0.396750 0.261985
vt 0.272094 0.632696
vt 0.768162 0.386872
vt 0.642636 0.757798
vt 0.677764 0.655578
vt 0.498822 0.295737
vt 0.296906 0.332149
vt 0.597792 0.743009
vt 0.713437 0.300753
vt 0.750000 0.812500
vt 0.581168 0.672349
vn 0.068472 0.068472 0.995300
vn -0.065931 0.065931 0.995644
vn 0.066819 -0.066819 0.995525
vn -0.063320 -0.063320 0.995983
vn 0.000000 0.000000 1.000000
vn 0.176510 0.005767 0.984282
vn 0.007527 -0.224002 0.974560
vn -0.212074 -0.002348 0.977251
vn -0.005657 0.210200 0.977642
vn -0.107483 0.220781 0.969383
vn 0.244413 0.117472 0.962529
vn -0.176157 -0.080278 0.981083
vn 0.067427 -0.238743 0.968739
vn 0.009243 0.192674 0.981219
vn -0.001846 0.231813 0.972759
vn -0.220708 0.001665 0.975339
vn -0.258244 0.000328 0.966080
vn -0.005688 -0.218509 0.975818
vn -0.004650 -0.257457 0.966279
vn 0.206467 -0.010469 0.978398
vn 0.232102 0.004571 0.972681
vn 0.102155 -0.313721 0.944004
vn -0.300479 -0.090291 0.949505
vn -0.100274 0.316821 0.943170
vn -0.047795 -0.015986 0.998729
vn 0.188307 -0.025482 0.981780
vn 0.021277 0.029591 0.999336
vn -0.000992 0.001991 0.999998
vn -0.070756 0.085476 0.993825
vn -0.023513 -0.083160 0.996259
vn 0.082979 0.075349 0.993699
vn 0.007149 0.002336 0.999972
vn 0.042420 0.029637 0.998660
vn -0.000927 -0.001229 0.999999
vn -0.056462 -0.068805 0.996031
vn -0.026001 0.001560 0.999661
vn 0.000986 -0.002219 0.999997
vn 0.082130 -0.087225 0.992797
vn -0.051793 0.008186 0.998624
vn -0.001564 0.154599 0.987976
vn 0.056476 -0.013384 0.998314
vn -0.044336 0.014408 0.998913
vn -0.014044 0.039467 0.999122
vn 0.046175 -0.081451 0.995607
vn -0.027455 -0.051892 0.998275
vn 0.098445 0.069793 0.992692
vn 0.072539 -0.015790 0.997241
vn 0.006820 0.045262 0.998952
vn -0.074873 0.268000 0.960505
vn 0.032750 -0.045520 0.998426
vn 0.293952 0.077193 0.952698
vn 0.103088 0.038107 0.993942
vn -0.037715 0.115642 0.992575
vn -0.075123 0.274040 0.958780
vn 0.175696 -0.005336 0.984430
vn -0.040133 0.072330 0.996573
vn -0.000024 -0.000843 1.000000
vn -0.255409 -0.055839 0.965219
vn 0.005172 -0.016059 0.999858
vn 0.001466 0.000616 0.999999
vn 0.069143 -0.279903 0.957535
vn 0.023197 -0.052247 0.998365
vn -0.000187 0.000993 0.999999
vn 0.205509 0.009128 0.978613
vn 0.187663 -0.027573 0.981846
vn 0.182096 0.023110 0.983009
vn 0.007218 -0.252469 0.967578
vn -0.031243 -0.187977 0.981676
vn 0.024619 -0.181857 0.983017
vn 0.000512 -0.208472 0.978028
vn -0.237800 -0.010922 0.971253
vn -0.195217 0.032270 0.980229
vn -0.175573 -0.024964 0.984150
vn -0.212506 0.002566 0.977156
vn -0.001825 0.224701 0.974426
vn 0.025284 0.186398 0.982149
vn -0.020276 0.171460 0.984982
vn -0.006281 0.186987 0.982342
vn 0.019229 0.071393 0.997263
vn -0.000539 -0.000264 1.000000
vn -0.171662 -0.054926 0.983624
vn 0.176194 -0.008152 0.984322
vn -0.181686 -0.053103 0.981922
vn -0.125673 -0.025744 0.991738
vn 0.170612 -0.002487 0.985335
vn 0.022680 -0.125959 0.991776
vn 0.149347 0.243588 0.958311
vn -0.004976 -0.107247 0.994220
vn 0.185338 0.013229 0.982586
vn -0.245834 0.093590 0.964783
vn 0.169099 0.009483 0.985554
vn 0.010459 -0.192534 0.981235
vn -0.052137 0.070202 0.996169
vn 0.093880 -0.095384 0.991004
vn -0.000000 0.000000 1.000000
vn -0.060530 0.183209 0.981209
vn -0.064487 0.216173 0.974223
vn -0.052344 0.173568 0.983430
vn -0.005438 -0.148997 0.988823
vn -0.193066 -0.008543 0.981149
vn 0.120931 0.085741 0.988951
vn -0.097746 -0.094558 0.990709
vn 0.188080 0.063970 0.980068
vn 0.000001 -0.000174 1.000000
vn -0.051779 0.158188 0.986050
vn 0.228921 0.064568 0.971301
vn 0.196467 0.052332 0.979113
vn -0.120126 0.007780 0.992728
vn -0.223948 -0.101796 0.969270
vn 0.045147 -0.141042 0.988974
vn 0.000432 0.000001 1.000000
vn 0.013679 0.191594 0.981379
vn 0.094275 0.093188 0.991175
vn -0.044742 -0.038479 0.998257
vn -0.011733 0.175775 0.984360
vn -0.135809 -0.180919 0.974076
vn -0.007468 0.148736 0.988849
vn -0.002990 0.188255 0.982116
vn -0.091964 0.098011 0.990927
vn -0.119356 -0.039725 0.992056
vn 0.000000 -0.000000 1.000000
vn -0.139079 -0.046855 0.989172
vn 0.065311 -0.208555 0.975827
vn 0.036894 -0.161201 0.986232
vn 0.001228 0.155488 0.987837
vn -0.124561 -0.030184 0.991753
vn 0.202887 -0.178437 0.962807
vn -0.090067 0.001549 0.995934
vn -0.009427 -0.180816 0.983472
vn 0.067823 -0.199099 0.977630
vn 0.041864 -0.094288 0.994664
vn 0.207698 0.071994 0.975540
vn 0.004965 0.176385 0.984309
vn -0.001336 0.000185 0.999999
vn -0.183605 0.011117 0.982937
vn 0.038249 -0.294429 0.954908
vn 0.182119 0.003589 0.983270
vn 0.149209 0.046771 0.987699
vn -0.160963 0.015296 0.986842
vn 0.031228 -0.112598 0.993150
vn 0.194350 -0.013397 0.980841
vn -0.001401 -0.170701 0.985322
vn -0.267822 -0.044734 0.962429
vn -0.080695 0.279442 0.956766
vn 0.315421 0.098554 0.943820
vn -0.032483 -0.195252 0.980215
vn -0.171478 0.075127 0.982319
vn 0.205286 0.022402 0.978446
vn 0.028774 0.204039 0.978540
vn 0.125734 0.033126 0.991511
vn 0.069382 -0.205947 0.976101
vn -0.258359 -0.079739 0.962753
vn -0.057614 0.169432 0.983856
vn 0.074635 -0.255807 0.963842
vn 0.221847 0.178705 0.958566
vn -0.000196 -0.001241 0.999999
f 1/1/1 113/113/113 66/66/66
f 31/31/31 137/137/137 113/113/113
f 145/145/145 148/148/148 26/26/26
f 112/112/112 31/31/31 113/113/113
f 138/138/138 145/145/145 106/106/106
f 106/106/106 52/52/52 33/33/33
f 124/124/124 13/13/13 61/61/61
f 84/84/84 41/41/41 47/47/47
f 137/137/137 66/66/66 113/113/113
f 75/75/75 115/115/115 15/15/15
f 12/12/12 152/152/152 84/84/84
f 50/50/50 35/35/35 142/142/142
f 25/25/25 120/120/120 152/152/152
f 76/76/76 113/113/113 1/1/1
f 76/76/76 112/112/112 113/113/113
f 15/15/15 112/112/112 76/76/76
f 115/115/115 112/112/112 15/15/15
f 30/30/30 115/115/115 117/117/117
f 108/108/108 33/33/33 52/52/52
f 75/75/75 117/117/117 115/115/115
f 115/115/115 30/30/30 42/42/42
f 46/46/46 50/50/50 142/142/142
f 51/51/51 150/150/150 103/103/103
f 116/116/116 30/30/30 136/136/136
f 122/122/122 23/23/23 120/120/120
f 54/54/54 98/98/98 49/49/49
f 42/42/42 112/112/112 115/115/115
f 58/58/58 84/84/84 152/152/152
f 48/48/48 90/90/90 93/93/93
f 60/60/60 120/120/120 111/111/111
f 53/53/53 147/147/147 37/37/37
f 127/127/127 26/26/26 148/148/148
f 101/101/101 43/43/43 35/35/35
f 104/104/104 80/80/80 34/34/34
f 10/10/10 49/49/49 98/98/98
f 83/83/83 58/58/58 23/23/23
f 49/49/49 53/53/53 54/54/54
f 117/117/117 62/62/62 30/30/30
f 132/132/132 134/134/134 140/140/140
f 62/62/62 123/123/123 136/136/136
f 77/77/77 2/2/2 119/119/119
f 77/77/77 119/119/119 118/118/118
f 71/71/71 128/128/128 126/126/126
f 58/58/58 152/152/152 120/120/120
f 63/63/63 28/28/28 121/121/121
f 119/119/119 29/29/29 118/118/118
f 153/153/153 156/156/156 150/150/150
f 125/125/125 27/27/27 62/62/62
f 135/135/135 72/72/72 17/17/17
f 136/136/136 30/30/30 62/62/62
f 58/58/58 120/120/120 23/23/23
f 60/60/60 122/122/122 120/120/120
f 127/127/127 44/44/44 26/26/26
f 120/120/120 25/25/25 32/32/32
f 146/146/146 116/116/116 136/136/136
f 154/154/154 148/148/148 140/140/140
f 120/120/120 32/32/32 111/111/111
f 22/22/22 130/130/130 136/136/136
f 130/130/130 63/63/63 32/32/32
f 154/154/154 140/140/140 61/61/61
f 82/82/82 47/47/47 41/41/41
f 45/45/45 98/98/98 36/36/36
f 82/82/82 137/137/137 47/47/47
f 10/10/10 93/93/93 90/90/90
f 26/26/26 126/126/126 128/128/128
f 62/62/62 117/117/117 125/125/125
f 20/20/20 137/137/137 82/82/82
f 38/38/38 92/92/92 94/94/94
f 20/20/20 66/66/66 137/137/137
f 55/55/55 20/20/20 82/82/82
f 69/69/69 94/94/94 92/92/92
f 143/143/143 90/90/90 39/39/39
f 8/8/8 108/108/108 128/128/128
f 141/141/141 48/48/48 38/38/38
f 24/24/24 144/144/144 97/97/97
f 65/65/65 141/141/141 94/94/94
f 114/114/114 31/31/31 42/42/42
f 38/38/38 94/94/94 141/141/141
f 92/92/92 18/18/18 69/69/69
f 97/97/97 54/54/54 24/24/24
f 151/151/151 110/110/110 63/63/63
f 11/11/11 107/107/107 101/101/101
f 29/29/29 119/119/119 135/135/135
f 143/143/143 59/59/59 83/83/83
f 34/34/34 150/150/150 156/156/156
f 43/43/43 101/101/101 107/107/107
f 129/129/129 45/45/45 36/36/36
f 27/27/27 124/124/124 123/123/123
f 85/85/85 41/41/41 59/59/59
f 78/78/78 125/125/125 9/9/9
f 70/70/70 129/129/129 99/99/99
f 83/83/83 59/59/59 41/41/41
f 129/129/129 70/70/70 18/18/18
f 36/36/36 99/99/99 129/129/129
f 93/93/93 38/38/38 48/48/48
f 38/38/38 45/45/45 92/92/92
f 52/52/52 128/128/128 108/108/108
f 65/65/65 94/94/94 3/3/3
f 72/72/72 135/135/135 119/119/119
f 94/94/94 69/69/69 3/3/3
f 39/39/39 90/90/90 48/48/48
f 21/21/21 141/141/141 65/65/65
f 18/18/18 92/92/92 129/129/129
f 6/6/6 91/91/91 64/64/64
f 105/105/105 24/24/24 54/54/54
f 93/93/93 45/45/45 38/38/38
f 89/89/89 39/39/39 48/48/48
f 114/114/114 42/42/42 12/12/12
f 45/45/45 129/129/129 92/92/92
f 9/9/9 125/125/125 117/117/117
f 64/64/64 89/89/89 21/21/21
f 55/55/55 82/82/82 85/85/85
f 6/6/6 85/85/85 91/91/91
f 59/59/59 91/91/91 85/85/85
f 41/41/41 85/85/85 82/82/82
f 6/6/6 55/55/55 85/85/85
f 23/23/23 143/143/143 83/83/83
f 59/59/59 39/39/39 91/91/91
f 151/151/151 130/130/130 22/22/22
f 143/143/143 39/39/39 59/59/59
f 118/118/118 29/29/29 79/79/79
f 29/29/29 44/44/44 131/131/131
f 32/32/32 146/146/146 130/130/130
f 58/58/58 83/83/83 84/84/84
f 119/119/119 2/2/2 72/72/72
f 44/44/44 126/126/126 26/26/26
f 130/130/130 151/151/151 63/63/63
f 138/138/138 103/103/103 80/80/80
f 10/10/10 98/98/98 93/93/93
f 21/21/21 89/89/89 141/141/141
f 105/105/105 53/53/53 37/37/37
f 149/149/149 153/153/153 150/150/150
f 79/79/79 133/133/133 118/118/118
f 118/118/118 133/133/133 14/14/14
f 116/116/116 12/12/12 42/42/42
f 100/100/100 35/35/35 43/43/43
f 109/109/109 146/146/146 152/152/152
f 48/48/48 141/141/141 89/89/89
f 78/78/78 133/133/133 125/125/125
f 62/62/62 27/27/27 123/123/123
f 37/37/37 147/147/147 81/81/81
f 40/40/40 144/144/144 87/87/87
f 49/49/49 10/10/10 147/147/147
f 148/148/148 154/154/154 127/127/127
f 5/5/5 95/95/95 111/111/111
f 110/110/110 151/151/151 22/22/22
f 57/57/57 37/37/37 95/95/95
f 37/37/37 57/57/57 105/105/105
f 27/27/27 125/125/125 133/133/133
f 121/121/121 5/5/5 111/111/111
f 130/130/130 146/146/146 136/136/136
f 123/123/123 22/22/22 136/136/136
f 17/17/17 126/126/126 135/135/135
f 41/41/41 84/84/84 83/83/83
f 53/53/53 49/49/49 147/147/147
f 60/60/60 111/111/111 95/95/95
f 28/28/28 134/134/134 80/80/80
f 104/104/104 95/95/95 5/5/5
f 28/28/28 140/140/140 134/134/134
f 24/24/24 105/105/105 96/96/96
f 57/57/57 95/95/95 104/104/104
f 24/24/24 96/96/96 144/144/144
f 132/132/132 140/140/140 148/148/148
f 134/134/134 132/132/132 138/138/138
f 45/45/45 93/93/93 98/98/98
f 110/110/110 28/28/28 63/63/63
f 106/106/106 103/103/103 138/138/138
f 9/9/9 117/117/117 75/75/75
f 26/26/26 128/128/128 52/52/52
f 54/54/54 97/97/97 98/98/98
f 111/111/111 32/32/32 63/63/63
f 123/123/123 61/61/61 22/22/22
f 99/99/99 36/36/36 56/56/56
f 80/80/80 104/104/104 5/5/5
f 135/135/135 44/44/44 29/29/29
f 126/126/126 17/17/17 71/71/71
f 109/109/109 12/12/12 116/116/116
f 146/146/146 109/109/109 116/116/116
f 13/13/13 124/124/124 131/131/131
f 103/103/103 150/150/150 34/34/34
f 36/36/36 98/98/98 97/97/97
f 60/60/60 81/81/81 122/122/122
f 12/12/12 84/84/84 114/114/114
f 122/122/122 81/81/81 23/23/23
f 107/107/107 11/11/11 51/51/51
f 150/150/150 51/51/51 11/11/11
f 87/87/87 149/149/149 11/11/11
f 12/12/12 109/109/109 152/152/152
f 14/14/14 133/133/133 78/78/78
f 140/140/140 110/110/110 61/61/61
f 107/107/107 106/106/106 33/33/33
f 44/44/44 135/135/135 126/126/126
f 51/51/51 103/103/103 106/106/106
f 34/34/34 156/156/156 104/104/104
f 57/57/57 104/104/104 156/156/156
f 121/121/121 80/80/80 5/5/5
f 63/63/63 121/121/121 111/111/111
f 121/121/121 28/28/28 80/80/80
f 77/77/77 118/118/118 14/14/14
f 52/52/52 106/106/106 145/145/145
f 103/103/103 34/34/34 80/80/80
f 131/131/131 79/79/79 29/29/29
f 13/13/13 131/131/131 127/127/127
f 25/25/25 146/146/146 32/32/32
f 124/124/124 27/27/27 79/79/79
f 139/139/139 33/33/33 108/108/108
f 107/107/107 33/33/33 43/43/43
f 133/133/133 79/79/79 27/27/27
f 44/44/44 127/127/127 131/131/131
f 139/139/139 43/43/43 33/33/33
f 10/10/10 90/90/90 147/147/147
f 96/96/96 105/105/105 57/57/57
f 140/140/140 28/28/28 110/110/110
f 51/51/51 106/106/106 107/107/107
f 50/50/50 46/46/46 101/101/101
f 97/97/97 56/56/56 36/36/36
f 86/86/86 46/46/46 142/142/142
f 112/112/112 42/42/42 31/31/31
f 40/40/40 46/46/46 86/86/86
f 74/74/74 139/139/139 108/108/108
f 100/100/100 43/43/43 139/139/139
f 137/137/137 31/31/31 47/47/47
f 114/114/114 47/47/47 31/31/31
f 88/88/88 40/40/40 86/86/86
f 16/16/16 100/100/100 139/139/139
f 102/102/102 35/35/35 100/100/100
f 68/68/68 142/142/142 102/102/102
f 88/88/88 99/99/99 56/56/56
f 142/142/142 35/35/35 102/102/102
f 53/53/53 105/105/105 54/54/54
f 95/95/95 37/37/37 60/60/60
f 19/19/19 86/86/86 142/142/142
f 88/88/88 56/56/56 40/40/40
f 144/144/144 40/40/40 56/56/56
f 47/47/47 114/114/114 84/84/84
f 81/81/81 60/60/60 37/37/37
f 87/87/87 46/46/46 40/40/40
f 110/110/110 22/22/22 61/61/61
f 87/87/87 155/155/155 46/46/46
f 144/144/144 56/56/56 97/97/97
f 23/23/23 81/81/81 143/143/143
f 64/64/64 91/91/91 89/89/89
f 156/156/156 96/96/96 57/57/57
f 67/67/67 88/88/88 86/86/86
f 7/7/7 99/99/99 88/88/88
f 7/7/7 70/70/70 99/99/99
f 67/67/67 7/7/7 88/88/88
f 19/19/19 67/67/67 86/86/86
f 68/68/68 19/19/19 142/142/142
f 73/73/73 102/102/102 100/100/100
f 4/4/4 68/68/68 102/102/102
f 73/73/73 4/4/4 102/102/102
f 16/16/16 73/73/73 100/100/100
f 74/74/74 16/16/16 139/139/139
f 8/8/8 74/74/74 108/108/108
f 39/39/39 89/89/89 91/91/91
f 152/152/152 146/146/146 25/25/25
f 116/116/116 42/42/42 30/30/30
f 134/134/134 138/138/138 80/80/80
f 61/61/61 123/123/123 124/124/124
f 145/145/145 26/26/26 52/52/52
f 79/79/79 131/131/131 124/124/124
f 128/128/128 71/71/71 8/8/8
f 149/149/149 150/150/150 11/11/11
f 132/132/132 148/148/148 145/145/145
f 145/145/145 138/138/138 132/132/132
f 153/153/153 149/149/149 144/144/144
f 144/144/144 149/149/149 87/87/87
f 96/96/96 153/153/153 144/144/144
f 155/155/155 101/101/101 46/46/46
f 35/35/35 50/50/50 101/101/101
f 13/13/13 154/154/154 61/61/61
f 101/101/101 155/155/155 11/11/11
f 155/155/155 87/87/87 11/11/11
f 96/96/96 156/156/156 153/153/153
f 154/154/154 13/13/13 127/127/127
f 147/147/147 90/90/90 143/143/143
f 147/147/147 143/143/143 81/81/81
