# frame 000124 
# time 0.062500 
# name Cloth3D 
v -0.000000 0.000000 -0.000000
v 1.000000 0.000000 -0.000000
v -0.000000 1.000000 0.000000
v 1.000000 1.000000 0.000000
v 0.499932 0.500022 0.026034
v -0.000000 0.500000 0.000000
v 0.500000 1.000000 0.000000
v 1.000000 0.500000 0.000000
v 0.500000 -0.000000 0.000000
v 0.248683 0.750511 -0.006820
v 0.751271 0.752503 0.001826
v 0.250284 0.248900 -0.010287
v 0.751865 0.249914 -0.006042
v 0.750000 0.000000 0.000000
v 0.250000 0.000000 0.000000
v 1.000000 0.750000 0.000000
v 1.000000 0.250000 0.000000
v 0.250000 1.000000 0.000000
v 0.750000 1.000000 0.000000
v 0.000000 0.250000 0.000000
v 0.000000 0.750000 -0.000000
v 0.499940 0.248358 0.010581
v 0.248849 0.500195 0.006242
v 0.500057 0.751745 0.012724
v 0.357247 0.363809 0.026186
v 0.875466 0.374701 -0.012173
v 0.625218 0.125468 -0.021590
v 0.627355 0.373266 0.026034
v 0.876250 0.124088 -0.023245
v 0.375031 0.124754 -0.020977
v 0.124075 0.123986 -0.022646
v 0.373214 0.372498 0.026034
v 0.874545 0.625017 -0.018603
v 0.626672 0.627526 0.026034
v 0.875922 0.876115 -0.023580
v 0.375216 0.874780 -0.021743
v 0.372348 0.626821 0.026034
v 0.123937 0.876001 -0.022924
v 0.124858 0.625239 -0.022577
v 0.625512 0.875470 -0.013345
v 0.125285 0.375083 -0.021537
v 0.249795 0.123822 -0.022742
v 0.875355 0.750331 -0.022981
v 0.876332 0.249984 -0.021380
v 0.249774 0.875588 -0.023356
v 0.750118 0.876026 -0.021491
v 0.124706 0.249747 -0.020677
v 0.123888 0.750338 -0.023478
v 0.302450 0.714313 0.006128
v 0.246673 0.626691 0.015101
v 0.750012 0.626305 0.005649
v 0.874445 0.499672 -0.015055
v 0.359641 0.668190 0.026186
v 0.374058 0.750173 0.002071
v 0.000000 0.375000 0.000000
v 0.500566 0.874509 -0.018052
v 0.499673 0.627110 0.026035
v 0.250955 0.374489 -0.005537
v 0.125408 0.500251 -0.021028
v 0.372829 0.499771 0.026035
v 0.626077 0.250185 0.000345
v 0.500032 0.125375 -0.019216
v 0.500192 0.372789 0.026035
v 0.000000 0.625000 0.000000
v 0.000000 0.875000 0.000000
v 0.000000 0.125000 0.000000
v 0.625000 1.000000 0.000000
v 0.875000 1.000000 0.000000
v 0.125000 1.000000 0.000000
v 0.375000 1.000000 0.000000
v 1.000000 0.375000 0.000000
v 1.000000 0.125000 0.000000
v 1.000000 0.875000 0.000000
v 1.000000 0.625000 0.000000
v 0.375000 0.000000 0.000000
v 0.125000 0.000000 0.000000
v 0.875000 0.000000 0.000000
v 0.625000 0.000000 0.000000
v 0.750514 0.124893 -0.021410
v 0.627024 0.500322 0.026035
v 0.292642 0.563842 0.026179
v 0.062320 0.312539 -0.011790
v 0.188921 0.437806 -0.017359
v 0.188396 0.312246 -0.019289
v 0.062846 0.437589 -0.009872
v 0.687571 0.938899 -0.015862
v 0.689292 0.816461 0.006127
v 0.562601 0.938267 -0.014122
v 0.061839 0.687551 -0.013507
v 0.185610 0.688230 -0.007099
v 0.062600 0.562590 -0.010953
v 0.187236 0.938357 -0.014494
v 0.186814 0.812874 -0.022855
v 0.062124 0.937882 -0.008680
v 0.436194 0.563437 0.026035
v 0.536878 0.725417 0.026179
v 0.437782 0.811549 -0.011570
v 0.312177 0.812117 -0.015729
v 0.437652 0.937605 -0.012182
v 0.938161 0.812800 -0.014061
v 0.812591 0.813319 -0.020985
v 0.937795 0.937826 -0.008307
v 0.703872 0.590775 0.026179
v 0.563333 0.563756 0.026035
v 0.421233 0.688059 0.026179
v 0.811666 0.562555 -0.006927
v 0.812387 0.688378 -0.010019
v 0.937719 0.562458 -0.012402
v 0.311585 0.259394 0.000541
v 0.562462 0.313751 0.026179
v 0.436561 0.436264 0.026035
v 0.187192 0.061388 -0.014790
v 0.062116 0.062123 -0.008817
v 0.187324 0.186757 -0.022218
v 0.312534 0.061680 -0.013684
v 0.312032 0.185570 -0.007194
v 0.437587 0.062127 -0.012742
v 0.812871 0.061922 -0.013428
v 0.937899 0.062147 -0.008519
v 0.336755 0.427287 0.026179
v 0.563626 0.436589 0.026035
v 0.313675 0.498733 0.026179
v 0.562518 0.188731 -0.013449
v 0.688152 0.188750 -0.019170
v 0.562626 0.062537 -0.011612
v 0.938962 0.312533 -0.015772
v 0.815862 0.311132 0.003237
v 0.938159 0.437500 -0.013255
v 0.312550 0.937767 -0.012517
v 0.434976 0.272569 0.026179
v 0.813569 0.187475 -0.022007
v 0.764039 0.404522 0.026179
v 0.687642 0.062636 -0.010775
v 0.690860 0.436870 0.026035
v 0.938920 0.187201 -0.015898
v 0.437102 0.186439 -0.002847
v 0.061631 0.187243 -0.014505
v 0.732467 0.502259 0.026179
v 0.937861 0.687559 -0.013034
v 0.679485 0.351554 0.026179
v 0.061346 0.812834 -0.015226
v 0.812768 0.938671 -0.015284
v 0.187644 0.563294 -0.009111
v 0.563469 0.812962 -0.001220
v 0.813786 0.436654 0.004071
v 0.391211 0.258272 0.026192
v 0.268276 0.638774 0.026192
v 0.771725 0.381225 0.026192
v 0.648774 0.761724 0.026192
v 0.681740 0.659288 0.026179
v 0.498850 0.293202 0.026179
v 0.297121 0.330709 0.004631
v 0.599604 0.745741 0.026186
v 0.716159 0.299917 0.009648
v 0.750868 0.814654 -0.008158
v 0.582104 0.675632 0.026107
v 0.812905 0.876119 -0.022490
vt 0.000000 0.000000
vt 1.000000 0.000000
vt 0.000000 1.000000
vt 1.000000 1.000000
vt 0.500000 0.500000
vt 0.000000 0.500000
vt 0.500000 1.000000
vt 1.000000 0.500000
vt 0.500000 0.000000
vt 0.250000 0.750000
vt 0.750000 0.750000
vt 0.250000 0.250000
vt 0.750000 0.250000
vt 0.750000 0.000000
vt 0.250000 0.000000
vt 1.000000 0.750000
vt 1.000000 0.250000
vt 0.250000 1.000000
vt 0.750000 1.000000
vt 0.000000 0.250000
vt 0.000000 0.750000
vt 0.500000 0.250000
vt 0.250000 0.500000
vt 0.500000 0.750000
vt 0.359263 0.366395
vt 0.875000 0.375000
vt 0.625000 0.125000
vt 0.625000 0.375000
vt 0.875000 0.125000
vt 0.375000 0.125000
vt 0.125000 0.125000
vt 0.375000 0.375000
vt 0.875000 0.625000
vt 0.625000 0.625000
vt 0.875000 0.875000
vt 0.375000 0.875000
vt 0.375000 0.625000
vt 0.125000 0.875000
vt 0.125000 0.625000
vt 0.625000 0.875000
vt 0.125000 0.375000
vt 0.250000 0.125000
vt 0.875000 0.750000
vt 0.875000 0.250000
vt 0.250000 0.875000
vt 0.750000 0.875000
vt 0.125000 0.250000
vt 0.125000 0.750000
vt 0.304602 0.713891
vt 0.250000 0.625000
vt 0.750000 0.625000
vt 0.875000 0.500000
vt 0.362434 0.665765
vt 0.375000 0.750000
vt 0.000000 0.375000
vt 0.500000 0.875000
vt 0.500000 0.625000
vt 0.250000 0.375000
vt 0.125000 0.500000
vt 0.375000 0.500000
vt 0.625000 0.250000
vt 0.500000 0.125000
vt 0.500000 0.375000
vt 0.000000 0.625000
vt 0.000000 0.875000
vt 0.000000 0.125000
vt 0.625000 1.000000
vt 0.875000 1.000000
vt 0.125000 1.000000
vt 0.375000 1.000000
vt 1.000000 0.375000
vt 1.000000 0.125000
vt 1.000000 0.875000
vt 1.000000 0.625000
vt 0.375000 0.000000
vt 0.125000 0.000000
vt 0.875000 0.000000
vt 0.625000 0.000000
vt 0.750000 0.125000
vt 0.625000 0.500000
vt 0.296537 0.563154
vt 0.062500 0.312500
vt 0.187500 0.437500
vt 0.187500 0.312500
vt 0.062500 0.437500
vt 0.687500 0.937500
vt 0.687500 0.812500
vt 0.562500 0.937500
vt 0.062500 0.687500
vt 0.187500 0.687500
vt 0.062500 0.562500
vt 0.187500 0.937500
vt 0.187500 0.812500
vt 0.062500 0.937500
vt 0.437500 0.562500
vt 0.536767 0.721604
vt 0.437500 0.812500
vt 0.312500 0.812500
vt 0.437500 0.937500
vt 0.937500 0.812500
vt 0.812500 0.812500
vt 0.937500 0.937500
vt 0.700985 0.588806
vt 0.562500 0.562500
vt 0.422926 0.685249
vt 0.812500 0.562500
vt 0.812500 0.687500
vt 0.937500 0.562500
vt 0.311128 0.261404
vt 0.561128 0.316620
vt 0.437500 0.437500
vt 0.187500 0.062500
vt 0.062500 0.062500
vt 0.187500 0.187500
vt 0.312500 0.062500
vt 0.312500 0.187500
vt 0.437500 0.062500
vt 0.812500 0.062500
vt 0.937500 0.062500
vt 0.339181 0.428742
vt 0.562500 0.437500
vt 0.316816 0.499130
vt 0.562500 0.187500
vt 0.687500 0.187500
vt 0.562500 0.062500
vt 0.937500 0.312500
vt 0.812500 0.312500
vt 0.937500 0.437500
vt 0.312500 0.937500
vt 0.435778 0.277054
vt 0.812500 0.187500
vt 0.759095 0.405682
vt 0.687500 0.062500
vt 0.687500 0.437500
vt 0.937500 0.187500
vt 0.437500 0.187500
vt 0.062500 0.187500
vt 0.728863 0.501664
vt 0.937500 0.687500
vt 0.676246 0.353521
vt 0.062500 0.812500
vt 0.812500 0.937500
vt 0.187500 0.562500
vt 0.562500 0.812500
vt 0.812500 0.437500
vt 0.392853 0.263559
vt 0.273576 0.636657
vt 0.766366 0.382902
vt 0.646667 0.756164
vt 0.679330 0.656097
vt 0.498483 0.296788
vt 0.296906 0.332149
vt 0.598426 0.741033
vt 0.713437 0.300753
vt 0.750000 0.812500
vt 0.581168 0.672349
vt 0.812500 0.875000
vn 0.071133 0.071133 0.994927
vn -0.068828 0.068828 0.995251
vn 0.070151 -0.070151 0.995067
vn -0.067284 -0.067284 0.995463
vn 0.000000 0.000000 1.000000
vn 0.161740 0.004100 0.986825
vn 0.008051 -0.203686 0.979003
vn -0.200175 -0.003913 0.979752
vn -0.004490 0.188169 0.982126
vn -0.101065 0.205356 0.973455
vn 0.237613 0.112273 0.964850
vn -0.157259 -0.069550 0.985105
vn 0.052285 -0.235177 0.970545
vn 0.011125 0.190487 0.981627
vn -0.005052 0.224183 0.974534
vn -0.212142 0.004814 0.977227
vn -0.249442 -0.000693 0.968389
vn -0.008595 -0.212052 0.977221
vn -0.001882 -0.244318 0.969693
vn 0.207704 -0.011160 0.978128
vn 0.226230 0.007526 0.974045
vn 0.098528 -0.314739 0.944051
vn -0.300266 -0.083891 0.950159
vn -0.099083 0.319156 0.942509
vn -0.053583 -0.017043 0.998418
vn 0.173140 -0.015066 0.984782
vn 0.012757 0.042261 0.999025
vn -0.000941 0.001939 0.999998
vn -0.060465 0.075431 0.995316
vn -0.015735 -0.062447 0.997924
vn 0.068997 0.063332 0.995605
vn 0.006505 0.002009 0.999977
vn 0.031904 0.021715 0.999255
vn -0.000890 -0.001198 0.999999
vn -0.054629 -0.062813 0.996529
vn -0.018283 -0.012584 0.999754
vn 0.000932 -0.002090 0.999997
vn 0.069100 -0.073821 0.994875
vn -0.029751 0.004775 0.999546
vn -0.007022 0.135917 0.990695
vn 0.059493 -0.006007 0.998211
vn -0.033970 0.003726 0.999416
vn -0.015694 0.032668 0.999343
vn 0.052018 -0.070532 0.996152
vn -0.019320 -0.044848 0.998807
vn 0.085842 0.068801 0.993930
vn 0.057716 -0.013319 0.998244
vn 0.004845 0.033984 0.999411
vn -0.074791 0.267120 0.960757
vn -0.388339 -0.093564 0.916754
vn 0.292291 0.076224 0.953287
vn 0.087583 0.032595 0.995624
vn -0.038178 0.119658 0.992081
vn -0.070353 0.271557 0.959848
vn 0.169870 -0.008242 0.985432
vn -0.032455 0.049625 0.998240
vn -0.000027 -0.000844 1.000000
vn -0.246585 -0.045207 0.968066
vn 0.025704 -0.011639 0.999602
vn 0.001487 0.000602 0.999999
vn 0.063177 -0.277555 0.958630
vn 0.020121 -0.028023 0.999405
vn -0.000183 0.001011 0.999999
vn 0.190702 0.010746 0.981589
vn 0.190808 -0.025858 0.981287
vn 0.185959 0.022423 0.982302
vn 0.007397 -0.233636 0.972296
vn -0.027231 -0.187882 0.981814
vn 0.022746 -0.184678 0.982536
vn -0.001865 -0.191713 0.981449
vn -0.227971 -0.010408 0.973612
vn -0.194557 0.029048 0.980461
vn -0.178187 -0.022339 0.983743
vn -0.197689 0.002630 0.980261
vn -0.004489 0.205647 0.978616
vn 0.023598 0.188261 0.981835
vn -0.019192 0.175034 0.984375
vn -0.002706 0.174133 0.984719
vn 0.013678 0.066004 0.997726
vn -0.000543 -0.000265 1.000000
vn -0.184315 -0.050718 0.981558
vn 0.164314 -0.008074 0.986375
vn -0.168040 -0.043172 0.984834
vn -0.111611 -0.015593 0.993630
vn 0.166205 -0.002854 0.986087
vn 0.017965 -0.140889 0.989862
vn 0.133269 0.251242 0.958706
vn -0.001000 -0.127753 0.991806
vn 0.180800 0.010593 0.983463
vn -0.238095 0.069742 0.968735
vn 0.171383 0.010954 0.985144
vn 0.007822 -0.181102 0.983433
vn -0.046290 0.063038 0.996937
vn 0.091794 -0.093366 0.991391
vn -0.000000 0.000000 1.000000
vn -0.060020 0.182566 0.981360
vn -0.055305 0.214593 0.975136
vn -0.041829 0.164790 0.985441
vn -0.003753 -0.157872 0.987452
vn -0.181761 -0.007912 0.983311
vn 0.110966 0.083971 0.990270
vn -0.093631 -0.091191 0.991422
vn 0.191665 0.065316 0.979285
vn 0.000001 -0.000174 1.000000
vn -0.047596 0.157674 0.986344
vn 0.232648 0.061091 0.970640
vn 0.193193 0.040494 0.980325
vn -0.135074 0.006318 0.990815
vn -0.222112 -0.101758 0.969697
vn 0.042180 -0.141951 0.988975
vn 0.000429 0.000001 1.000000
vn 0.009298 0.177714 0.984038
vn 0.092176 0.091585 0.991522
vn -0.047080 -0.035344 0.998266
vn -0.007405 0.172310 0.985015
vn -0.112550 -0.173578 0.978368
vn -0.008059 0.160037 0.987078
vn -0.000053 0.173951 0.984754
vn -0.089946 0.094899 0.991415
vn -0.119096 -0.037996 0.992155
vn 0.000000 -0.000000 1.000000
vn -0.136877 -0.043839 0.989618
vn 0.056423 -0.202626 0.977629
vn 0.026750 -0.144767 0.989104
vn 0.000449 0.161065 0.986944
vn -0.135637 -0.022700 0.990499
vn 0.209528 -0.159028 0.964784
vn -0.111455 -0.001834 0.993768
vn -0.008068 -0.176768 0.984219
vn 0.064591 -0.195595 0.978555
vn 0.039760 -0.083886 0.995682
vn 0.194815 0.064014 0.978749
vn 0.003459 0.167518 0.985863
vn -0.001366 0.000156 0.999999
vn -0.176027 0.010973 0.984324
vn 0.039020 -0.289101 0.956503
vn 0.169360 0.001507 0.985553
vn 0.144754 0.043355 0.988517
vn -0.164224 0.011696 0.986354
vn 0.030754 -0.116002 0.992773
vn 0.181795 -0.010211 0.983283
vn -0.006398 -0.164550 0.986348
vn -0.256518 -0.037215 0.965823
vn -0.077395 0.282258 0.956211
vn 0.317190 0.085316 0.944517
vn -0.047216 -0.187489 0.981131
vn -0.301853 -0.023493 0.953065
vn 0.193701 0.008125 0.981027
vn 0.035701 0.193968 0.980358
vn 0.131419 0.030679 0.990852
vn 0.066311 -0.207044 0.976082
vn -0.253123 -0.075668 0.964471
vn -0.052873 0.163551 0.985117
vn 0.068487 -0.258585 0.963557
vn 0.213734 0.183170 0.959566
vn -0.000183 -0.001252 0.999999
vn 0.013451 -0.044939 0.998899
f 1/1/1 113/113/113 66/66/66
f 31/31/31 137/137/137 113/113/113
f 145/145/145 148/148/148 26/26/26
f 112/112/112 31/31/31 113/113/113
f 138/138/138 145/145/145 106/106/106
f 106/106/106 52/52/52 33/33/33
f 124/124/124 13/13/13 61/61/61
f 84/84/84 41/41/41 47/47/47
f 137/137/137 66/66/66 113/113/113
f 75/75/75 115/115/115 15/15/15
f 12/12/12 152/152/152 84/84/84
f 12/12/12 114/114/114 116/116/116
f 25/25/25 120/120/120 152/152/152
f 76/76/76 113/113/113 1/1/1
f 76/76/76 112/112/112 113/113/113
f 15/15/15 112/112/112 76/76/76
f 115/115/115 112/112/112 15/15/15
f 30/30/30 115/115/115 117/117/117
f 108/108/108 33/33/33 52/52/52
f 75/75/75 117/117/117 115/115/115
f 115/115/115 30/30/30 42/42/42
f 42/42/42 116/116/116 114/114/114
f 51/51/51 150/150/150 103/103/103
f 116/116/116 30/30/30 136/136/136
f 122/122/122 23/23/23 120/120/120
f 54/54/54 98/98/98 49/49/49
f 42/42/42 112/112/112 115/115/115
f 58/58/58 84/84/84 152/152/152
f 48/48/48 90/90/90 93/93/93
f 60/60/60 120/120/120 111/111/111
f 53/53/53 147/147/147 37/37/37
f 127/127/127 26/26/26 148/148/148
f 101/101/101 43/43/43 35/35/35
f 104/104/104 80/80/80 34/34/34
f 10/10/10 49/49/49 98/98/98
f 83/83/83 58/58/58 23/23/23
f 49/49/49 53/53/53 54/54/54
f 117/117/117 62/62/62 30/30/30
f 132/132/132 134/134/134 140/140/140
f 62/62/62 123/123/123 136/136/136
f 77/77/77 2/2/2 119/119/119
f 77/77/77 119/119/119 118/118/118
f 71/71/71 128/128/128 126/126/126
f 58/58/58 152/152/152 120/120/120
f 63/63/63 28/28/28 121/121/121
f 119/119/119 29/29/29 118/118/118
f 153/153/153 156/156/156 150/150/150
f 125/125/125 27/27/27 62/62/62
f 135/135/135 72/72/72 17/17/17
f 136/136/136 30/30/30 62/62/62
f 58/58/58 120/120/120 23/23/23
f 60/60/60 122/122/122 120/120/120
f 127/127/127 44/44/44 26/26/26
f 120/120/120 25/25/25 32/32/32
f 146/146/146 116/116/116 136/136/136
f 154/154/154 148/148/148 140/140/140
f 120/120/120 32/32/32 111/111/111
f 22/22/22 130/130/130 136/136/136
f 130/130/130 63/63/63 32/32/32
f 154/154/154 140/140/140 61/61/61
f 82/82/82 47/47/47 41/41/41
f 45/45/45 98/98/98 36/36/36
f 82/82/82 137/137/137 47/47/47
f 10/10/10 93/93/93 90/90/90
f 26/26/26 126/126/126 128/128/128
f 62/62/62 117/117/117 125/125/125
f 20/20/20 137/137/137 82/82/82
f 38/38/38 92/92/92 94/94/94
f 20/20/20 66/66/66 137/137/137
f 55/55/55 20/20/20 82/82/82
f 69/69/69 94/94/94 92/92/92
f 143/143/143 90/90/90 39/39/39
f 8/8/8 108/108/108 128/128/128
f 141/141/141 48/48/48 38/38/38
f 24/24/24 144/144/144 97/97/97
f 65/65/65 141/141/141 94/94/94
f 114/114/114 31/31/31 42/42/42
f 38/38/38 94/94/94 141/141/141
f 92/92/92 18/18/18 69/69/69
f 97/97/97 54/54/54 24/24/24
f 151/151/151 110/110/110 63/63/63
f 11/11/11 107/107/107 101/101/101
f 29/29/29 119/119/119 135/135/135
f 143/143/143 59/59/59 83/83/83
f 34/34/34 150/150/150 156/156/156
f 43/43/43 101/101/101 107/107/107
f 129/129/129 45/45/45 36/36/36
f 27/27/27 124/124/124 123/123/123
f 85/85/85 41/41/41 59/59/59
f 78/78/78 125/125/125 9/9/9
f 70/70/70 129/129/129 99/99/99
f 83/83/83 59/59/59 41/41/41
f 129/129/129 70/70/70 18/18/18
f 36/36/36 99/99/99 129/129/129
f 93/93/93 38/38/38 48/48/48
f 38/38/38 45/45/45 92/92/92
f 52/52/52 128/128/128 108/108/108
f 65/65/65 94/94/94 3/3/3
f 72/72/72 135/135/135 119/119/119
f 94/94/94 69/69/69 3/3/3
f 39/39/39 90/90/90 48/48/48
f 21/21/21 141/141/141 65/65/65
f 18/18/18 92/92/92 129/129/129
f 6/6/6 91/91/91 64/64/64
f 105/105/105 24/24/24 54/54/54
f 93/93/93 45/45/45 38/38/38
f 89/89/89 39/39/39 48/48/48
f 50/50/50 90/90/90 143/143/143
f 45/45/45 129/129/129 92/92/92
f 9/9/9 125/125/125 117/117/117
f 64/64/64 89/89/89 21/21/21
f 55/55/55 82/82/82 85/85/85
f 6/6/6 85/85/85 91/91/91
f 59/59/59 91/91/91 85/85/85
f 41/41/41 85/85/85 82/82/82
f 6/6/6 55/55/55 85/85/85
f 23/23/23 143/143/143 83/83/83
f 59/59/59 39/39/39 91/91/91
f 151/151/151 130/130/130 22/22/22
f 143/143/143 39/39/39 59/59/59
f 118/118/118 29/29/29 79/79/79
f 29/29/29 44/44/44 131/131/131
f 32/32/32 146/146/146 130/130/130
f 58/58/58 83/83/83 84/84/84
f 119/119/119 2/2/2 72/72/72
f 44/44/44 126/126/126 26/26/26
f 130/130/130 151/151/151 63/63/63
f 138/138/138 103/103/103 80/80/80
f 10/10/10 98/98/98 93/93/93
f 21/21/21 89/89/89 141/141/141
f 105/105/105 53/53/53 37/37/37
f 149/149/149 153/153/153 150/150/150
f 79/79/79 133/133/133 118/118/118
f 118/118/118 133/133/133 14/14/14
f 81/81/81 147/147/147 50/50/50
f 100/100/100 35/35/35 43/43/43
f 109/109/109 146/146/146 152/152/152
f 48/48/48 141/141/141 89/89/89
f 78/78/78 133/133/133 125/125/125
f 62/62/62 27/27/27 123/123/123
f 37/37/37 147/147/147 81/81/81
f 40/40/40 144/144/144 87/87/87
f 49/49/49 10/10/10 147/147/147
f 148/148/148 154/154/154 127/127/127
f 5/5/5 95/95/95 111/111/111
f 110/110/110 151/151/151 22/22/22
f 57/57/57 37/37/37 95/95/95
f 37/37/37 57/57/57 105/105/105
f 27/27/27 125/125/125 133/133/133
f 121/121/121 5/5/5 111/111/111
f 130/130/130 146/146/146 136/136/136
f 123/123/123 22/22/22 136/136/136
f 17/17/17 126/126/126 135/135/135
f 41/41/41 84/84/84 83/83/83
f 53/53/53 49/49/49 147/147/147
f 60/60/60 111/111/111 95/95/95
f 28/28/28 134/134/134 80/80/80
f 104/104/104 95/95/95 5/5/5
f 28/28/28 140/140/140 134/134/134
f 24/24/24 105/105/105 96/96/96
f 57/57/57 95/95/95 104/104/104
f 24/24/24 96/96/96 144/144/144
f 132/132/132 140/140/140 148/148/148
f 134/134/134 132/132/132 138/138/138
f 45/45/45 93/93/93 98/98/98
f 110/110/110 28/28/28 63/63/63
f 106/106/106 103/103/103 138/138/138
f 9/9/9 117/117/117 75/75/75
f 26/26/26 128/128/128 52/52/52
f 54/54/54 97/97/97 98/98/98
f 111/111/111 32/32/32 63/63/63
f 123/123/123 61/61/61 22/22/22
f 99/99/99 36/36/36 56/56/56
f 80/80/80 104/104/104 5/5/5
f 135/135/135 44/44/44 29/29/29
f 126/126/126 17/17/17 71/71/71
f 109/109/109 12/12/12 116/116/116
f 146/146/146 109/109/109 116/116/116
f 13/13/13 124/124/124 131/131/131
f 103/103/103 150/150/150 34/34/34
f 36/36/36 98/98/98 97/97/97
f 60/60/60 81/81/81 122/122/122
f 12/12/12 84/84/84 114/114/114
f 122/122/122 81/81/81 23/23/23
f 107/107/107 11/11/11 51/51/51
f 150/150/150 51/51/51 11/11/11
f 87/87/87 149/149/149 11/11/11
f 12/12/12 109/109/109 152/152/152
f 14/14/14 133/133/133 78/78/78
f 140/140/140 110/110/110 61/61/61
f 107/107/107 106/106/106 33/33/33
f 44/44/44 135/135/135 126/126/126
f 51/51/51 103/103/103 106/106/106
f 34/34/34 156/156/156 104/104/104
f 57/57/57 104/104/104 156/156/156
f 121/121/121 80/80/80 5/5/5
f 63/63/63 121/121/121 111/111/111
f 121/121/121 28/28/28 80/80/80
f 77/77/77 118/118/118 14/14/14
f 52/52/52 106/106/106 145/145/145
f 103/103/103 34/34/34 80/80/80
f 131/131/131 79/79/79 29/29/29
f 13/13/13 131/131/131 127/127/127
f 25/25/25 146/146/146 32/32/32
f 124/124/124 27/27/27 79/79/79
f 139/139/139 33/33/33 108/108/108
f 107/107/107 33/33/33 43/43/43
f 133/133/133 79/79/79 27/27/27
f 44/44/44 127/127/127 131/131/131
f 139/139/139 43/43/43 33/33/33
f 10/10/10 90/90/90 147/147/147
f 96/96/96 105/105/105 57/57/57
f 140/140/140 28/28/28 110/110/110
f 51/51/51 106/106/106 107/107/107
f 50/50/50 147/147/147 90/90/90
f 97/97/97 56/56/56 36/36/36
f 86/86/86 46/46/46 142/142/142
f 112/112/112 42/42/42 31/31/31
f 40/40/40 46/46/46 86/86/86
f 74/74/74 139/139/139 108/108/108
f 100/100/100 43/43/43 139/139/139
f 137/137/137 31/31/31 47/47/47
f 114/114/114 47/47/47 31/31/31
f 88/88/88 40/40/40 86/86/86
f 16/16/16 100/100/100 139/139/139
f 102/102/102 35/35/35 100/100/100
f 68/68/68 142/142/142 102/102/102
f 88/88/88 99/99/99 56/56/56
f 142/142/142 35/35/35 102/102/102
f 53/53/53 105/105/105 54/54/54
f 95/95/95 37/37/37 60/60/60
f 19/19/19 86/86/86 142/142/142
f 88/88/88 56/56/56 40/40/40
f 144/144/144 40/40/40 56/56/56
f 47/47/47 114/114/114 84/84/84
f 81/81/81 60/60/60 37/37/37
f 87/87/87 46/46/46 40/40/40
f 110/110/110 22/22/22 61/61/61
f 87/87/87 155/155/155 46/46/46
f 144/144/144 56/56/56 97/97/97
f 23/23/23 81/81/81 143/143/143
f 64/64/64 91/91/91 89/89/89
f 156/156/156 96/96/96 57/57/57
f 67/67/67 88/88/88 86/86/86
f 7/7/7 99/99/99 88/88/88
f 7/7/7 70/70/70 99/99/99
f 67/67/67 7/7/7 88/88/88
f 19/19/19 67/67/67 86/86/86
f 68/68/68 19/19/19 142/142/142
f 73/73/73 102/102/102 100/100/100
f 4/4/4 68/68/68 102/102/102
f 73/73/73 4/4/4 102/102/102
f 16/16/16 73/73/73 100/100/100
f 74/74/74 16/16/16 139/139/139
f 8/8/8 74/74/74 108/108/108
f 39/39/39 89/89/89 91/91/91
f 152/152/152 146/146/146 25/25/25
f 116/116/116 42/42/42 30/30/30
f 134/134/134 138/138/138 80/80/80
f 61/61/61 123/123/123 124/124/124
f 145/145/145 26/26/26 52/52/52
f 79/79/79 131/131/131 124/124/124
f 128/128/128 71/71/71 8/8/8
f 149/149/149 150/150/150 11/11/11
f 132/132/132 148/148/148 145/145/145
f 145/145/145 138/138/138 132/132/132
f 153/153/153 149/149/149 144/144/144
f 144/144/144 149/149/149 87/87/87
f 96/96/96 153/153/153 144/144/144
f 155/155/155 101/101/101 46/46/46
f 50/50/50 143/143/143 81/81/81
f 13/13/13 154/154/154 61/61/61
f 101/101/101 155/155/155 11/11/11
f 155/155/155 87/87/87 11/11/11
f 96/96/96 156/156/156 153/153/153
f 154/154/154 13/13/13 127/127/127
f 35/35/35 157/157/157 101/101/101
f 157/157/157 46/46/46 101/101/101
f 46/46/46 157/157/157 142/142/142
f 157/157/157 35/35/35 142/142/142
