# frame 000116 
# time 0.058500 
# name Cloth3D 
v -0.000000 0.000000 -0.000000
v 1.000000 0.000000 -0.000000
v -0.000000 1.000000 0.000000
v 1.000000 1.000000 0.000000
v 0.499834 0.499958 0.024034
v -0.000000 0.500000 0.000000
v 0.500000 1.000000 0.000000
v 1.000000 0.500000 0.000000
v 0.500000 -0.000000 0.000000
v 0.249253 0.750093 -0.007833
v 0.750960 0.752189 0.001552
v 0.250485 0.249334 -0.010875
v 0.751759 0.250632 -0.007474
v 0.750000 0.000000 0.000000
v 0.250000 0.000000 0.000000
v 1.000000 0.750000 0.000000
v 1.000000 0.250000 0.000000
v 0.250000 1.000000 0.000000
v 0.750000 1.000000 0.000000
v 0.000000 0.250000 0.000000
v 0.000000 0.750000 -0.000000
v 0.499833 0.248998 0.007809
v 0.249417 0.500212 0.003791
v 0.500104 0.751152 0.009876
v 0.355410 0.363560 0.024186
v 0.874787 0.374655 -0.016023
v 0.625179 0.125615 -0.020469
v 0.627079 0.373462 0.024034
v 0.875961 0.124295 -0.020631
v 0.374964 0.124889 -0.021351
v 0.124258 0.124222 -0.020323
v 0.373393 0.372847 0.024034
v 0.874463 0.625008 -0.019954
v 0.626346 0.627162 0.024034
v 0.875670 0.875831 -0.020130
v 0.375173 0.874717 -0.021248
v 0.372621 0.626589 0.024034
v 0.124143 0.875762 -0.020543
v 0.124942 0.625123 -0.021714
v 0.625459 0.874841 -0.017357
v 0.125343 0.375109 -0.019318
v 0.249786 0.124111 -0.019535
v 0.875254 0.750297 -0.021005
v 0.876141 0.249834 -0.020095
v 0.249834 0.875385 -0.020806
v 0.750201 0.875879 -0.020788
v 0.124705 0.249844 -0.018021
v 0.124148 0.750226 -0.020642
v 0.302857 0.714097 0.005345
v 0.247362 0.626420 0.012538
v 0.749672 0.626046 0.004108
v 0.874353 0.499726 -0.016892
v 0.359247 0.670294 0.024186
v 0.374251 0.750001 0.001202
v 0.000000 0.375000 0.000000
v 0.500410 0.874388 -0.019444
v 0.499606 0.626840 0.024035
v 0.251145 0.374662 -0.006433
v 0.125539 0.500177 -0.019677
v 0.373016 0.499788 0.024035
v 0.625852 0.250511 -0.001040
v 0.499975 0.125508 -0.020220
v 0.500093 0.373042 0.024035
v 0.000000 0.625000 0.000000
v 0.000000 0.875000 0.000000
v 0.000000 0.125000 0.000000
v 0.625000 1.000000 0.000000
v 0.875000 1.000000 0.000000
v 0.125000 1.000000 0.000000
v 0.375000 1.000000 0.000000
v 1.000000 0.375000 0.000000
v 1.000000 0.125000 0.000000
v 1.000000 0.875000 0.000000
v 1.000000 0.625000 0.000000
v 0.375000 0.000000 0.000000
v 0.125000 0.000000 0.000000
v 0.875000 0.000000 0.000000
v 0.625000 0.000000 0.000000
v 0.750400 0.125078 -0.018316
v 0.626743 0.500189 0.024035
v 0.294981 0.564300 0.024179
v 0.062155 0.312587 -0.011813
v 0.189093 0.437757 -0.018190
v 0.188256 0.312365 -0.017284
v 0.062800 0.437597 -0.009413
v 0.687548 0.938377 -0.014112
v 0.688809 0.816087 0.004511
v 0.562624 0.937681 -0.012150
v 0.061918 0.687475 -0.012751
v 0.186518 0.687851 -0.009267
v 0.062713 0.562539 -0.009990
v 0.187284 0.938398 -0.014394
v 0.186950 0.812780 -0.019198
v 0.062047 0.937945 -0.009360
v 0.436259 0.563293 0.024035
v 0.537143 0.723830 0.024179
v 0.437768 0.811355 -0.012827
v 0.312361 0.811923 -0.015844
v 0.437647 0.937273 -0.010530
v 0.938297 0.812724 -0.013946
v 0.812476 0.813132 -0.019847
v 0.937926 0.937929 -0.009163
v 0.704365 0.590721 0.024179
v 0.563116 0.563515 0.024035
v 0.421077 0.688883 0.024179
v 0.811678 0.562527 -0.008007
v 0.812206 0.688181 -0.010126
v 0.937409 0.562462 -0.011015
v 0.311469 0.259726 0.000802
v 0.562263 0.314055 0.024179
v 0.436589 0.436405 0.024035
v 0.187235 0.061375 -0.014636
v 0.062054 0.062067 -0.009402
v 0.187331 0.186980 -0.018942
v 0.312553 0.061869 -0.012655
v 0.312304 0.186266 -0.008614
v 0.437544 0.062565 -0.010885
v 0.812761 0.061802 -0.013558
v 0.937943 0.062072 -0.009180
v 0.336252 0.427235 0.024179
v 0.563416 0.436645 0.024035
v 0.314655 0.498960 0.024179
v 0.562425 0.189005 -0.014900
v 0.688120 0.188895 -0.018493
v 0.562544 0.062839 -0.010205
v 0.938533 0.312517 -0.014620
v 0.815922 0.311240 0.003762
v 0.937762 0.437430 -0.012235
v 0.312581 0.937687 -0.011704
v 0.434325 0.275534 0.024179
v 0.813408 0.187549 -0.019532
v 0.760639 0.403821 0.024179
v 0.687547 0.062582 -0.010550
v 0.690543 0.436924 0.024035
v 0.938837 0.187222 -0.015337
v 0.437112 0.187003 -0.005265
v 0.061525 0.187299 -0.014547
v 0.731133 0.501818 0.024179
v 0.937643 0.687489 -0.011847
v 0.679935 0.349486 0.024179
v 0.061310 0.812752 -0.015133
v 0.812752 0.938632 -0.014750
v 0.188309 0.563172 -0.011699
v 0.563283 0.812720 -0.003483
v 0.813679 0.436795 0.002033
v 0.386203 0.260897 0.024192
v 0.270901 0.643784 0.024192
v 0.769100 0.376216 0.024192
v 0.653784 0.759099 0.024192
v 0.683627 0.659596 0.024179
v 0.498397 0.294826 0.024179
v 0.297430 0.331021 0.003111
v 0.600067 0.742838 0.024186
v 0.758387 0.309753 0.006642
v 0.750708 0.814424 -0.007886
v 0.581863 0.675237 0.024107
vt 0.000000 0.000000
vt 1.000000 0.000000
vt 0.000000 1.000000
vt 1.000000 1.000000
vt 0.500000 0.500000
vt 0.000000 0.500000
vt 0.500000 1.000000
vt 1.000000 0.500000
vt 0.500000 0.000000
vt 0.250000 0.750000
vt 0.750000 0.750000
vt 0.250000 0.250000
vt 0.750000 0.250000
vt 0.750000 0.000000
vt 0.250000 0.000000
vt 1.000000 0.750000
vt 1.000000 0.250000
vt 0.250000 1.000000
vt 0.750000 1.000000
vt 0.000000 0.250000
vt 0.000000 0.750000
vt 0.500000 0.250000
vt 0.250000 0.500000
vt 0.500000 0.750000
vt 0.357235 0.365763
vt 0.875000 0.375000
vt 0.625000 0.125000
vt 0.625000 0.375000
vt 0.875000 0.125000
vt 0.375000 0.125000
vt 0.125000 0.125000
vt 0.375000 0.375000
vt 0.875000 0.625000
vt 0.625000 0.625000
vt 0.875000 0.875000
vt 0.375000 0.875000
vt 0.375000 0.625000
vt 0.125000 0.875000
vt 0.125000 0.625000
vt 0.625000 0.875000
vt 0.125000 0.375000
vt 0.250000 0.125000
vt 0.875000 0.750000
vt 0.875000 0.250000
vt 0.250000 0.875000
vt 0.750000 0.875000
vt 0.125000 0.250000
vt 0.125000 0.750000
vt 0.304602 0.713891
vt 0.250000 0.625000
vt 0.750000 0.625000
vt 0.875000 0.500000
vt 0.361695 0.668135
vt 0.375000 0.750000
vt 0.000000 0.375000
vt 0.500000 0.875000
vt 0.500000 0.625000
vt 0.250000 0.375000
vt 0.125000 0.500000
vt 0.375000 0.500000
vt 0.625000 0.250000
vt 0.500000 0.125000
vt 0.500000 0.375000
vt 0.000000 0.625000
vt 0.000000 0.875000
vt 0.000000 0.125000
vt 0.625000 1.000000
vt 0.875000 1.000000
vt 0.125000 1.000000
vt 0.375000 1.000000
vt 1.000000 0.375000
vt 1.000000 0.125000
vt 1.000000 0.875000
vt 1.000000 0.625000
vt 0.375000 0.000000
vt 0.125000 0.000000
vt 0.875000 0.000000
vt 0.625000 0.000000
vt 0.750000 0.125000
vt 0.625000 0.500000
vt 0.298438 0.563730
vt 0.062500 0.312500
vt 0.187500 0.437500
vt 0.187500 0.312500
vt 0.062500 0.437500
vt 0.687500 0.937500
vt 0.687500 0.812500
vt 0.562500 0.937500
vt 0.062500 0.687500
vt 0.187500 0.687500
vt 0.062500 0.562500
vt 0.187500 0.937500
vt 0.187500 0.812500
vt 0.062500 0.937500
vt 0.437500 0.562500
vt 0.537138 0.720388
vt 0.437500 0.812500
vt 0.312500 0.812500
vt 0.437500 0.937500
vt 0.937500 0.812500
vt 0.812500 0.812500
vt 0.937500 0.937500
vt 0.701826 0.589064
vt 0.562500 0.562500
vt 0.422579 0.686375
vt 0.812500 0.562500
vt 0.812500 0.687500
vt 0.937500 0.562500
vt 0.311128 0.261404
vt 0.561139 0.316581
vt 0.437500 0.437500
vt 0.187500 0.062500
vt 0.062500 0.062500
vt 0.187500 0.187500
vt 0.312500 0.062500
vt 0.312500 0.187500
vt 0.437500 0.062500
vt 0.812500 0.062500
vt 0.937500 0.062500
vt 0.338452 0.428518
vt 0.562500 0.437500
vt 0.317464 0.499329
vt 0.562500 0.187500
vt 0.687500 0.187500
vt 0.562500 0.062500
vt 0.937500 0.312500
vt 0.812500 0.312500
vt 0.937500 0.437500
vt 0.312500 0.937500
vt 0.435054 0.279441
vt 0.812500 0.187500
vt 0.756103 0.404771
vt 0.687500 0.062500
vt 0.687500 0.437500
vt 0.937500 0.187500
vt 0.437500 0.187500
vt 0.062500 0.187500
vt 0.727822 0.501347
vt 0.937500 0.687500
vt 0.676963 0.351214
vt 0.062500 0.812500
vt 0.812500 0.937500
vt 0.187500 0.562500
vt 0.562500 0.812500
vt 0.812500 0.437500
vt 0.387726 0.265562
vt 0.275562 0.641825
vt 0.764116 0.377659
vt 0.651992 0.754057
vt 0.681595 0.656801
vt 0.498118 0.297988
vt 0.296906 0.332149
vt 0.599160 0.738608
vt 0.755420 0.310071
vt 0.750000 0.812500
vt 0.581168 0.672349
vn 0.075957 0.075957 0.994214
vn -0.074268 0.074268 0.994469
vn 0.075715 -0.075715 0.994251
vn -0.074290 -0.074290 0.994466
vn 0.000000 0.000000 1.000000
vn 0.152156 0.002116 0.988354
vn 0.006260 -0.175028 0.984544
vn -0.180659 -0.005074 0.983533
vn -0.002612 0.163213 0.986587
vn -0.095726 0.185264 0.978015
vn 0.222952 0.106890 0.968951
vn -0.141071 -0.065980 0.987798
vn 0.035523 -0.214023 0.976183
vn 0.012350 0.190218 0.981664
vn -0.008426 0.215047 0.976567
vn -0.202381 0.009127 0.979264
vn -0.235449 -0.003431 0.971881
vn -0.011233 -0.205269 0.978641
vn 0.003361 -0.226161 0.974084
vn 0.208334 -0.011055 0.977995
vn 0.219886 0.009935 0.975475
vn 0.093048 -0.314706 0.944618
vn -0.297449 -0.076060 0.951703
vn -0.098132 0.319649 0.942441
vn -0.059755 -0.018463 0.998042
vn 0.148817 -0.004084 0.988856
vn 0.003005 0.050498 0.998720
vn -0.000876 0.001871 0.999998
vn -0.043635 0.057870 0.997370
vn -0.007676 -0.035645 0.999335
vn 0.048436 0.045053 0.997810
vn 0.005762 0.001644 0.999982
vn 0.016913 0.012994 0.999773
vn -0.000840 -0.001159 0.999999
vn -0.056330 -0.051911 0.997062
vn -0.010261 -0.027081 0.999581
vn 0.000874 -0.001930 0.999998
vn 0.049226 -0.053352 0.997362
vn -0.004480 0.001944 0.999988
vn -0.011354 0.105399 0.994365
vn 0.055422 0.000813 0.998463
vn -0.021187 0.000917 0.999775
vn -0.016691 0.022767 0.999601
vn 0.056581 -0.055067 0.996878
vn -0.009664 -0.034284 0.999365
vn 0.081275 0.081847 0.993325
vn 0.036534 -0.010583 0.999276
vn 0.002142 0.020893 0.999779
vn -0.074302 0.265804 0.961159
vn -0.369991 -0.079076 0.925664
vn 0.287647 0.071610 0.955056
vn 0.065784 0.024872 0.997524
vn -0.037554 0.124631 0.991492
vn -0.062231 0.267130 0.961649
vn 0.167424 -0.009894 0.985835
vn -0.022105 0.021877 0.999516
vn -0.000032 -0.000846 1.000000
vn -0.228890 -0.033305 0.972882
vn 0.043181 -0.006409 0.999047
vn 0.001512 0.000582 0.999999
vn 0.055394 -0.267401 0.961992
vn 0.016001 -0.000492 0.999872
vn -0.000177 0.001033 0.999999
vn 0.178447 0.011325 0.983884
vn 0.195362 -0.022629 0.980470
vn 0.190851 0.020104 0.981413
vn 0.008329 -0.203442 0.979052
vn -0.021664 -0.190662 0.981417
vn 0.019536 -0.189248 0.981735
vn -0.005252 -0.173113 0.984888
vn -0.209693 -0.009848 0.977718
vn -0.195422 0.024093 0.980423
vn -0.184332 -0.018456 0.982691
vn -0.177688 0.003546 0.984080
vn -0.007760 0.183484 0.982992
vn 0.020523 0.191653 0.981248
vn -0.016985 0.181373 0.983268
vn 0.002047 0.162105 0.986771
vn 0.008072 0.053225 0.998550
vn -0.000546 -0.000266 1.000000
vn -0.181612 -0.048212 0.982188
vn 0.145167 -0.008147 0.989374
vn -0.139748 -0.029054 0.989761
vn -0.088884 -0.006959 0.996018
vn 0.151276 -0.003174 0.988487
vn 0.011687 -0.151883 0.988329
vn 0.111027 0.251353 0.961507
vn 0.003994 -0.146848 0.989151
vn 0.165114 0.008590 0.986237
vn -0.211681 0.052948 0.975904
vn 0.160960 0.011009 0.986899
vn 0.004607 -0.161349 0.986887
vn -0.035474 0.049438 0.998147
vn 0.088045 -0.089583 0.992080
vn -0.000000 0.000000 1.000000
vn -0.059733 0.181104 0.981648
vn -0.043719 0.201951 0.978419
vn -0.029852 0.146906 0.988700
vn -0.002667 -0.159634 0.987173
vn -0.160114 -0.006629 0.987076
vn 0.111285 0.084793 0.990165
vn -0.087336 -0.085728 0.992483
vn 0.190822 0.062373 0.979641
vn 0.000001 -0.000174 1.000000
vn -0.042495 0.158049 0.986516
vn 0.230557 0.055135 0.971496
vn 0.182458 0.027910 0.982817
vn -0.145753 0.005116 0.989308
vn -0.228036 -0.101209 0.968378
vn 0.038753 -0.144028 0.988815
vn 0.000425 0.000000 1.000000
vn 0.004440 0.155673 0.987799
vn 0.088200 0.087992 0.992209
vn -0.035754 -0.027735 0.998976
vn -0.004171 0.160009 0.987107
vn -0.095778 -0.162698 0.982016
vn -0.007425 0.163355 0.986539
vn 0.002399 0.151446 0.988463
vn -0.086155 0.089721 0.992234
vn -0.117899 -0.034532 0.992425
vn 0.000000 -0.000000 1.000000
vn -0.137915 -0.041150 0.989589
vn 0.043202 -0.184456 0.981891
vn 0.015856 -0.116166 0.993103
vn -0.000305 0.159072 0.987267
vn -0.143935 -0.013727 0.989492
vn 0.175771 -0.157736 0.971712
vn -0.131928 -0.006326 0.991239
vn -0.007293 -0.163886 0.986452
vn 0.060641 -0.191813 0.979556
vn 0.033477 -0.066658 0.997214
vn 0.179350 0.054773 0.982259
vn 0.002873 0.150491 0.988607
vn -0.001409 0.000120 0.999999
vn -0.159878 0.009673 0.987089
vn 0.039399 -0.271461 0.961643
vn 0.149771 -0.000005 0.988721
vn 0.139085 0.038964 0.989514
vn -0.160431 0.007981 0.987015
vn 0.027346 -0.099714 0.994640
vn 0.160968 -0.006520 0.986938
vn -0.011049 -0.160171 0.987027
vn -0.227308 -0.033310 0.973253
vn -0.069906 0.279771 0.957518
vn 0.314161 0.069685 0.946809
vn -0.062995 -0.177471 0.982108
vn -0.269546 0.007550 0.962958
vn 0.171601 -0.027339 0.984787
vn 0.047867 0.185342 0.981508
vn 0.135228 0.028347 0.990409
vn 0.062267 -0.208691 0.975997
vn -0.246882 -0.069502 0.966550
vn -0.046638 0.154813 0.986842
vn 0.065973 -0.251646 0.965568
vn 0.190423 0.173402 0.966266
vn -0.000166 -0.001266 0.999999
f 1/1/1 113/113/113 66/66/66
f 31/31/31 137/137/137 113/113/113
f 145/145/145 148/148/148 26/26/26
f 112/112/112 31/31/31 113/113/113
f 138/138/138 145/145/145 106/106/106
f 106/106/106 52/52/52 33/33/33
f 124/124/124 13/13/13 61/61/61
f 84/84/84 41/41/41 47/47/47
f 137/137/137 66/66/66 113/113/113
f 75/75/75 115/115/115 15/15/15
f 12/12/12 152/152/152 84/84/84
f 12/12/12 114/114/114 116/116/116
f 101/101/101 35/35/35 46/46/46
f 76/76/76 113/113/113 1/1/1
f 76/76/76 112/112/112 113/113/113
f 15/15/15 112/112/112 76/76/76
f 115/115/115 112/112/112 15/15/15
f 30/30/30 115/115/115 117/117/117
f 108/108/108 33/33/33 52/52/52
f 75/75/75 117/117/117 115/115/115
f 115/115/115 30/30/30 42/42/42
f 42/42/42 116/116/116 114/114/114
f 51/51/51 150/150/150 103/103/103
f 116/116/116 30/30/30 136/136/136
f 122/122/122 23/23/23 120/120/120
f 54/54/54 98/98/98 49/49/49
f 42/42/42 112/112/112 115/115/115
f 58/58/58 84/84/84 152/152/152
f 48/48/48 90/90/90 93/93/93
f 60/60/60 120/120/120 111/111/111
f 53/53/53 147/147/147 37/37/37
f 127/127/127 26/26/26 148/148/148
f 101/101/101 43/43/43 35/35/35
f 104/104/104 80/80/80 34/34/34
f 10/10/10 49/49/49 98/98/98
f 83/83/83 58/58/58 23/23/23
f 49/49/49 53/53/53 54/54/54
f 117/117/117 62/62/62 30/30/30
f 132/132/132 134/134/134 140/140/140
f 62/62/62 123/123/123 136/136/136
f 77/77/77 2/2/2 119/119/119
f 77/77/77 119/119/119 118/118/118
f 71/71/71 128/128/128 126/126/126
f 142/142/142 46/46/46 35/35/35
f 63/63/63 28/28/28 121/121/121
f 119/119/119 29/29/29 118/118/118
f 153/153/153 156/156/156 150/150/150
f 125/125/125 27/27/27 62/62/62
f 135/135/135 72/72/72 17/17/17
f 136/136/136 30/30/30 62/62/62
f 58/58/58 120/120/120 23/23/23
f 60/60/60 122/122/122 120/120/120
f 127/127/127 44/44/44 26/26/26
f 120/120/120 25/25/25 32/32/32
f 146/146/146 116/116/116 136/136/136
f 58/58/58 152/152/152 25/25/25
f 120/120/120 32/32/32 111/111/111
f 22/22/22 130/130/130 136/136/136
f 130/130/130 63/63/63 32/32/32
f 154/154/154 13/13/13 127/127/127
f 82/82/82 47/47/47 41/41/41
f 45/45/45 98/98/98 36/36/36
f 82/82/82 137/137/137 47/47/47
f 10/10/10 93/93/93 90/90/90
f 26/26/26 126/126/126 128/128/128
f 62/62/62 117/117/117 125/125/125
f 20/20/20 137/137/137 82/82/82
f 38/38/38 92/92/92 94/94/94
f 20/20/20 66/66/66 137/137/137
f 55/55/55 20/20/20 82/82/82
f 69/69/69 94/94/94 92/92/92
f 143/143/143 90/90/90 39/39/39
f 8/8/8 108/108/108 128/128/128
f 141/141/141 48/48/48 38/38/38
f 24/24/24 144/144/144 97/97/97
f 65/65/65 141/141/141 94/94/94
f 114/114/114 31/31/31 42/42/42
f 38/38/38 94/94/94 141/141/141
f 92/92/92 18/18/18 69/69/69
f 97/97/97 54/54/54 24/24/24
f 151/151/151 110/110/110 63/63/63
f 11/11/11 107/107/107 101/101/101
f 29/29/29 119/119/119 135/135/135
f 143/143/143 59/59/59 83/83/83
f 34/34/34 150/150/150 156/156/156
f 43/43/43 101/101/101 107/107/107
f 129/129/129 45/45/45 36/36/36
f 27/27/27 124/124/124 123/123/123
f 85/85/85 41/41/41 59/59/59
f 78/78/78 125/125/125 9/9/9
f 70/70/70 129/129/129 99/99/99
f 83/83/83 59/59/59 41/41/41
f 129/129/129 70/70/70 18/18/18
f 36/36/36 99/99/99 129/129/129
f 93/93/93 38/38/38 48/48/48
f 38/38/38 45/45/45 92/92/92
f 52/52/52 128/128/128 108/108/108
f 65/65/65 94/94/94 3/3/3
f 72/72/72 135/135/135 119/119/119
f 94/94/94 69/69/69 3/3/3
f 39/39/39 90/90/90 48/48/48
f 21/21/21 141/141/141 65/65/65
f 18/18/18 92/92/92 129/129/129
f 6/6/6 91/91/91 64/64/64
f 105/105/105 24/24/24 54/54/54
f 93/93/93 45/45/45 38/38/38
f 89/89/89 39/39/39 48/48/48
f 50/50/50 90/90/90 143/143/143
f 45/45/45 129/129/129 92/92/92
f 9/9/9 125/125/125 117/117/117
f 64/64/64 89/89/89 21/21/21
f 55/55/55 82/82/82 85/85/85
f 6/6/6 85/85/85 91/91/91
f 59/59/59 91/91/91 85/85/85
f 41/41/41 85/85/85 82/82/82
f 6/6/6 55/55/55 85/85/85
f 23/23/23 143/143/143 83/83/83
f 59/59/59 39/39/39 91/91/91
f 151/151/151 130/130/130 22/22/22
f 143/143/143 39/39/39 59/59/59
f 118/118/118 29/29/29 79/79/79
f 29/29/29 44/44/44 131/131/131
f 32/32/32 146/146/146 130/130/130
f 58/58/58 83/83/83 84/84/84
f 119/119/119 2/2/2 72/72/72
f 44/44/44 126/126/126 26/26/26
f 130/130/130 151/151/151 63/63/63
f 138/138/138 103/103/103 80/80/80
f 10/10/10 98/98/98 93/93/93
f 21/21/21 89/89/89 141/141/141
f 105/105/105 53/53/53 37/37/37
f 149/149/149 153/153/153 150/150/150
f 79/79/79 133/133/133 118/118/118
f 118/118/118 133/133/133 14/14/14
f 81/81/81 147/147/147 50/50/50
f 100/100/100 35/35/35 43/43/43
f 109/109/109 146/146/146 152/152/152
f 48/48/48 141/141/141 89/89/89
f 78/78/78 133/133/133 125/125/125
f 62/62/62 27/27/27 123/123/123
f 37/37/37 147/147/147 81/81/81
f 40/40/40 144/144/144 87/87/87
f 49/49/49 10/10/10 147/147/147
f 25/25/25 120/120/120 58/58/58
f 5/5/5 95/95/95 111/111/111
f 110/110/110 151/151/151 22/22/22
f 57/57/57 37/37/37 95/95/95
f 37/37/37 57/57/57 105/105/105
f 27/27/27 125/125/125 133/133/133
f 121/121/121 5/5/5 111/111/111
f 130/130/130 146/146/146 136/136/136
f 123/123/123 22/22/22 136/136/136
f 17/17/17 126/126/126 135/135/135
f 41/41/41 84/84/84 83/83/83
f 53/53/53 49/49/49 147/147/147
f 60/60/60 111/111/111 95/95/95
f 28/28/28 134/134/134 80/80/80
f 104/104/104 95/95/95 5/5/5
f 28/28/28 140/140/140 134/134/134
f 24/24/24 105/105/105 96/96/96
f 57/57/57 95/95/95 104/104/104
f 24/24/24 96/96/96 144/144/144
f 132/132/132 140/140/140 148/148/148
f 134/134/134 132/132/132 138/138/138
f 45/45/45 93/93/93 98/98/98
f 110/110/110 28/28/28 63/63/63
f 106/106/106 103/103/103 138/138/138
f 9/9/9 117/117/117 75/75/75
f 26/26/26 128/128/128 52/52/52
f 54/54/54 97/97/97 98/98/98
f 111/111/111 32/32/32 63/63/63
f 123/123/123 61/61/61 22/22/22
f 99/99/99 36/36/36 56/56/56
f 80/80/80 104/104/104 5/5/5
f 135/135/135 44/44/44 29/29/29
f 126/126/126 17/17/17 71/71/71
f 109/109/109 12/12/12 116/116/116
f 146/146/146 109/109/109 116/116/116
f 13/13/13 124/124/124 131/131/131
f 103/103/103 150/150/150 34/34/34
f 36/36/36 98/98/98 97/97/97
f 60/60/60 81/81/81 122/122/122
f 12/12/12 84/84/84 114/114/114
f 122/122/122 81/81/81 23/23/23
f 107/107/107 11/11/11 51/51/51
f 150/150/150 51/51/51 11/11/11
f 87/87/87 149/149/149 11/11/11
f 12/12/12 109/109/109 152/152/152
f 14/14/14 133/133/133 78/78/78
f 140/140/140 110/110/110 61/61/61
f 107/107/107 106/106/106 33/33/33
f 44/44/44 135/135/135 126/126/126
f 51/51/51 103/103/103 106/106/106
f 34/34/34 156/156/156 104/104/104
f 57/57/57 104/104/104 156/156/156
f 121/121/121 80/80/80 5/5/5
f 63/63/63 121/121/121 111/111/111
f 121/121/121 28/28/28 80/80/80
f 77/77/77 118/118/118 14/14/14
f 52/52/52 106/106/106 145/145/145
f 103/103/103 34/34/34 80/80/80
f 131/131/131 79/79/79 29/29/29
f 13/13/13 131/131/131 127/127/127
f 25/25/25 146/146/146 32/32/32
f 124/124/124 27/27/27 79/79/79
f 139/139/139 33/33/33 108/108/108
f 107/107/107 33/33/33 43/43/43
f 133/133/133 79/79/79 27/27/27
f 44/44/44 127/127/127 131/131/131
f 139/139/139 43/43/43 33/33/33
f 10/10/10 90/90/90 147/147/147
f 96/96/96 105/105/105 57/57/57
f 140/140/140 28/28/28 110/110/110
f 51/51/51 106/106/106 107/107/107
f 50/50/50 147/147/147 90/90/90
f 97/97/97 56/56/56 36/36/36
f 86/86/86 46/46/46 142/142/142
f 112/112/112 42/42/42 31/31/31
f 40/40/40 46/46/46 86/86/86
f 74/74/74 139/139/139 108/108/108
f 100/100/100 43/43/43 139/139/139
f 137/137/137 31/31/31 47/47/47
f 114/114/114 47/47/47 31/31/31
f 88/88/88 40/40/40 86/86/86
f 16/16/16 100/100/100 139/139/139
f 102/102/102 35/35/35 100/100/100
f 68/68/68 142/142/142 102/102/102
f 88/88/88 99/99/99 56/56/56
f 142/142/142 35/35/35 102/102/102
f 53/53/53 105/105/105 54/54/54
f 95/95/95 37/37/37 60/60/60
f 19/19/19 86/86/86 142/142/142
f 88/88/88 56/56/56 40/40/40
f 144/144/144 40/40/40 56/56/56
f 47/47/47 114/114/114 84/84/84
f 81/81/81 60/60/60 37/37/37
f 87/87/87 46/46/46 40/40/40
f 110/110/110 22/22/22 61/61/61
f 87/87/87 155/155/155 46/46/46
f 144/144/144 56/56/56 97/97/97
f 61/61/61 13/13/13 140/140/140
f 64/64/64 91/91/91 89/89/89
f 148/148/148 154/154/154 127/127/127
f 67/67/67 88/88/88 86/86/86
f 7/7/7 99/99/99 88/88/88
f 7/7/7 70/70/70 99/99/99
f 67/67/67 7/7/7 88/88/88
f 19/19/19 67/67/67 86/86/86
f 68/68/68 19/19/19 142/142/142
f 73/73/73 102/102/102 100/100/100
f 4/4/4 68/68/68 102/102/102
f 73/73/73 4/4/4 102/102/102
f 16/16/16 73/73/73 100/100/100
f 74/74/74 16/16/16 139/139/139
f 8/8/8 74/74/74 108/108/108
f 39/39/39 89/89/89 91/91/91
f 152/152/152 146/146/146 25/25/25
f 116/116/116 42/42/42 30/30/30
f 134/134/134 138/138/138 80/80/80
f 61/61/61 123/123/123 124/124/124
f 145/145/145 26/26/26 52/52/52
f 79/79/79 131/131/131 124/124/124
f 128/128/128 71/71/71 8/8/8
f 149/149/149 150/150/150 11/11/11
f 132/132/132 148/148/148 145/145/145
f 145/145/145 138/138/138 132/132/132
f 153/153/153 149/149/149 144/144/144
f 144/144/144 149/149/149 87/87/87
f 96/96/96 153/153/153 144/144/144
f 155/155/155 101/101/101 46/46/46
f 13/13/13 154/154/154 140/140/140
f 154/154/154 148/148/148 140/140/140
f 101/101/101 155/155/155 11/11/11
f 155/155/155 87/87/87 11/11/11
f 96/96/96 156/156/156 153/153/153
f 156/156/156 96/96/96 57/57/57
f 23/23/23 81/81/81 143/143/143
f 50/50/50 143/143/143 81/81/81
