# frame 000143 
# time 0.072000 
# name Cloth3D 
v -0.000000 0.000000 -0.000000
v 1.000000 0.000000 -0.000000
v -0.000000 1.000000 0.000000
v 1.000000 1.000000 0.000000
v 0.499733 0.500004 0.030784
v -0.000000 0.500000 0.000000
v 0.500000 1.000000 0.000000
v 1.000000 0.500000 0.000000
v 0.500000 -0.000000 0.000000
v 0.247919 0.751252 -0.005974
v 0.750982 0.751985 0.000249
v 0.249803 0.248521 -0.011353
v 0.751504 0.249146 -0.004307
v 0.750000 0.000000 0.000000
v 0.250000 0.000000 0.000000
v 1.000000 0.750000 0.000000
v 1.000000 0.250000 0.000000
v 0.250000 1.000000 0.000000
v 0.750000 1.000000 0.000000
v 0.000000 0.250000 0.000000
v 0.000000 0.750000 -0.000000
v 0.499513 0.247695 0.017140
v 0.248733 0.500582 0.010380
v 0.500148 0.752254 0.018778
v 0.361084 0.365048 0.030936
v 0.877248 0.374231 -0.001125
v 0.624662 0.125166 -0.019085
v 0.627220 0.372701 0.030784
v 0.876227 0.124106 -0.024859
v 0.374895 0.124020 -0.013820
v 0.123992 0.123730 -0.024493
v 0.372650 0.372234 0.030784
v 0.874906 0.624820 -0.012148
v 0.626950 0.627588 0.030784
v 0.876168 0.876356 -0.025182
v 0.375322 0.874966 -0.017628
v 0.371781 0.627302 0.030784
v 0.123742 0.876200 -0.025286
v 0.124350 0.625408 -0.016656
v 0.625865 0.877373 -0.002447
v 0.125177 0.375173 -0.021838
v 0.250138 0.123400 -0.027771
v 0.875480 0.750132 -0.023418
v 0.876167 0.250292 -0.021469
v 0.249864 0.875796 -0.026263
v 0.750377 0.876392 -0.017707
v 0.124410 0.249675 -0.026303
v 0.123493 0.750213 -0.026943
v 0.301857 0.715307 0.009798
v 0.812909 0.876503 -0.024898
v 0.751311 0.626246 0.012502
v 0.874985 0.499320 -0.007031
v 0.360886 0.663601 0.030936
v 0.373963 0.750168 0.004142
v 0.000000 0.375000 0.000000
v 0.500705 0.875150 -0.010792
v 0.499560 0.627319 0.030785
v 0.250335 0.374349 -0.002189
v 0.125214 0.500462 -0.017505
v 0.372344 0.499896 0.030785
v 0.625541 0.249873 0.003112
v 0.499666 0.124687 -0.012357
v 0.499920 0.372516 0.030785
v 0.000000 0.625000 0.000000
v 0.000000 0.875000 0.000000
v 0.000000 0.125000 0.000000
v 0.625000 1.000000 0.000000
v 0.875000 1.000000 0.000000
v 0.125000 1.000000 0.000000
v 0.375000 1.000000 0.000000
v 1.000000 0.375000 0.000000
v 1.000000 0.125000 0.000000
v 1.000000 0.875000 0.000000
v 1.000000 0.625000 0.000000
v 0.375000 0.000000 0.000000
v 0.125000 0.000000 0.000000
v 0.875000 0.000000 0.000000
v 0.625000 0.000000 0.000000
v 0.750092 0.124395 -0.026584
v 0.627059 0.500059 0.030785
v 0.286713 0.562702 0.030929
v 0.062361 0.312424 -0.012571
v 0.188320 0.437889 -0.011934
v 0.188360 0.312266 -0.021571
v 0.062092 0.437565 -0.013415
v 0.687689 0.939450 -0.017626
v 0.689443 0.816068 0.007363
v 0.562713 0.938702 -0.015287
v 0.061046 0.687654 -0.016207
v 0.184255 0.689348 -0.002190
v 0.061496 0.562574 -0.015056
v 0.187207 0.938333 -0.015106
v 0.186766 0.812797 -0.029850
v 0.062199 0.937812 -0.008054
v 0.435839 0.563656 0.030785
v 0.535753 0.729383 0.030929
v 0.437900 0.811991 -0.005991
v 0.312062 0.812266 -0.014982
v 0.437719 0.938398 -0.015297
v 0.938455 0.812838 -0.015617
v 0.812711 0.813448 -0.021559
v 0.937820 0.937817 -0.008092
v 0.703243 0.590276 0.030929
v 0.563335 0.563762 0.030785
v 0.421598 0.686421 0.030929
v 0.811716 0.561959 -0.002588
v 0.812251 0.688025 -0.010241
v 0.938068 0.562286 -0.013387
v 0.310029 0.258599 0.005906
v 0.562478 0.312532 0.030929
v 0.436217 0.436166 0.030785
v 0.187273 0.061395 -0.015576
v 0.062176 0.062132 -0.008395
v 0.187392 0.186555 -0.029029
v 0.312473 0.060871 -0.016601
v 0.311215 0.184919 -0.004708
v 0.437511 0.061104 -0.016458
v 0.812756 0.062036 -0.014075
v 0.937816 0.062230 -0.008347
v 0.337560 0.427591 0.030929
v 0.563506 0.436326 0.030785
v 0.310992 0.498186 0.030929
v 0.562052 0.187947 -0.007128
v 0.687705 0.188071 -0.016538
v 0.562463 0.061575 -0.015097
v 0.939298 0.312530 -0.016565
v 0.814607 0.311702 0.000300
v 0.938382 0.437390 -0.013281
v 0.312521 0.938364 -0.015193
v 0.436678 0.265188 0.030929
v 0.813071 0.187617 -0.026256
v 0.772385 0.406555 0.030929
v 0.687528 0.062196 -0.012992
v 0.690864 0.436306 0.030784
v 0.939035 0.187258 -0.017348
v 0.436670 0.185983 0.003600
v 0.061918 0.187173 -0.014146
v 0.736090 0.502998 0.030929
v 0.938437 0.687483 -0.015185
v 0.677564 0.355845 0.030929
v 0.061394 0.812880 -0.015640
v 0.812980 0.939172 -0.017410
v 0.186734 0.563570 -0.001972
v 0.563868 0.814003 0.006589
v 0.814083 0.435765 0.010732
v 0.403309 0.252440 0.030942
v 0.262446 0.626674 0.030942
v 0.777555 0.393326 0.030942
v 0.636674 0.767554 0.030942
v 0.677827 0.657812 0.030929
v 0.499789 0.288939 0.030929
v 0.296464 0.330372 0.006992
v 0.185631 0.750924 -0.016404
v 0.715644 0.299302 0.011740
v 0.750527 0.814165 -0.009624
v 0.582404 0.675876 0.030857
v 0.187869 0.249405 -0.025251
vt 0.000000 0.000000
vt 1.000000 0.000000
vt 0.000000 1.000000
vt 1.000000 1.000000
vt 0.500000 0.500000
vt 0.000000 0.500000
vt 0.500000 1.000000
vt 1.000000 0.500000
vt 0.500000 0.000000
vt 0.250000 0.750000
vt 0.750000 0.750000
vt 0.250000 0.250000
vt 0.750000 0.250000
vt 0.750000 0.000000
vt 0.250000 0.000000
vt 1.000000 0.750000
vt 1.000000 0.250000
vt 0.250000 1.000000
vt 0.750000 1.000000
vt 0.000000 0.250000
vt 0.000000 0.750000
vt 0.500000 0.250000
vt 0.250000 0.500000
vt 0.500000 0.750000
vt 0.363648 0.367929
vt 0.875000 0.375000
vt 0.625000 0.125000
vt 0.625000 0.375000
vt 0.875000 0.125000
vt 0.375000 0.125000
vt 0.125000 0.125000
vt 0.375000 0.375000
vt 0.875000 0.625000
vt 0.625000 0.625000
vt 0.875000 0.875000
vt 0.375000 0.875000
vt 0.375000 0.625000
vt 0.125000 0.875000
vt 0.125000 0.625000
vt 0.625000 0.875000
vt 0.125000 0.375000
vt 0.250000 0.125000
vt 0.875000 0.750000
vt 0.875000 0.250000
vt 0.250000 0.875000
vt 0.750000 0.875000
vt 0.125000 0.250000
vt 0.125000 0.750000
vt 0.304602 0.713891
vt 0.812500 0.875000
vt 0.750000 0.625000
vt 0.875000 0.500000
vt 0.364222 0.660668
vt 0.375000 0.750000
vt 0.000000 0.375000
vt 0.500000 0.875000
vt 0.500000 0.625000
vt 0.250000 0.375000
vt 0.125000 0.500000
vt 0.375000 0.500000
vt 0.625000 0.250000
vt 0.500000 0.125000
vt 0.500000 0.375000
vt 0.000000 0.625000
vt 0.000000 0.875000
vt 0.000000 0.125000
vt 0.625000 1.000000
vt 0.875000 1.000000
vt 0.125000 1.000000
vt 0.375000 1.000000
vt 1.000000 0.375000
vt 1.000000 0.125000
vt 1.000000 0.875000
vt 1.000000 0.625000
vt 0.375000 0.000000
vt 0.125000 0.000000
vt 0.875000 0.000000
vt 0.625000 0.000000
vt 0.750000 0.125000
vt 0.625000 0.500000
vt 0.291435 0.561422
vt 0.062500 0.312500
vt 0.187500 0.437500
vt 0.187500 0.312500
vt 0.062500 0.437500
vt 0.687500 0.937500
vt 0.687500 0.812500
vt 0.562500 0.937500
vt 0.062500 0.687500
vt 0.187500 0.687500
vt 0.062500 0.562500
vt 0.187500 0.937500
vt 0.187500 0.812500
vt 0.062500 0.937500
vt 0.437500 0.562500
vt 0.535484 0.725331
vt 0.437500 0.812500
vt 0.312500 0.812500
vt 0.437500 0.937500
vt 0.937500 0.812500
vt 0.812500 0.812500
vt 0.937500 0.937500
vt 0.700078 0.588498
vt 0.562500 0.562500
vt 0.423625 0.683220
vt 0.812500 0.562500
vt 0.812500 0.687500
vt 0.937500 0.562500
vt 0.311128 0.261404
vt 0.561375 0.315922
vt 0.437500 0.437500
vt 0.187500 0.062500
vt 0.062500 0.062500
vt 0.187500 0.187500
vt 0.312500 0.062500
vt 0.312500 0.187500
vt 0.437500 0.062500
vt 0.812500 0.062500
vt 0.937500 0.062500
vt 0.340517 0.429202
vt 0.562500 0.437500
vt 0.314695 0.498401
vt 0.562500 0.187500
vt 0.687500 0.187500
vt 0.562500 0.062500
vt 0.937500 0.312500
vt 0.812500 0.312500
vt 0.937500 0.437500
vt 0.312500 0.937500
vt 0.438095 0.270245
vt 0.812500 0.187500
vt 0.767286 0.408519
vt 0.687500 0.062500
vt 0.687500 0.437500
vt 0.937500 0.187500
vt 0.437500 0.187500
vt 0.062500 0.187500
vt 0.732282 0.502847
vt 0.937500 0.687500
vt 0.674517 0.358490
vt 0.062500 0.812500
vt 0.812500 0.937500
vt 0.187500 0.562500
vt 0.562500 0.812500
vt 0.812500 0.437500
vt 0.405515 0.258270
vt 0.268694 0.623891
vt 0.772237 0.395663
vt 0.634056 0.761777
vt 0.675011 0.654590
vt 0.499805 0.292934
vt 0.296906 0.332149
vt 0.187500 0.750000
vt 0.713437 0.300753
vt 0.750000 0.812500
vt 0.581168 0.672349
vt 0.187500 0.250000
vn 0.067092 0.067092 0.995489
vn -0.066351 0.066351 0.995588
vn 0.064352 -0.064352 0.995850
vn -0.064215 -0.064215 0.995868
vn 0.000000 0.000000 1.000000
vn 0.221145 0.006986 0.975216
vn 0.000963 -0.242292 0.970203
vn -0.212914 0.000100 0.977071
vn -0.005863 0.247710 0.968817
vn -0.135502 0.229303 0.963877
vn 0.250326 0.125110 0.960044
vn -0.228997 -0.088140 0.969429
vn 0.100850 -0.218014 0.970721
vn 0.004629 0.210695 0.977541
vn 0.004137 0.252688 0.967539
vn -0.241343 0.001247 0.970439
vn -0.268455 -0.002262 0.963289
vn 0.000078 -0.237112 0.971482
vn -0.002029 -0.276807 0.960923
vn 0.209364 -0.006834 0.977814
vn 0.250121 -0.002101 0.968212
vn 0.111687 -0.311005 0.943823
vn -0.298787 -0.106662 0.948341
vn -0.113905 0.306816 0.944929
vn -0.037187 -0.012532 0.999230
vn 0.210822 -0.052721 0.976102
vn 0.041303 -0.013644 0.999053
vn -0.001103 0.002099 0.999997
vn -0.080436 0.090848 0.992611
vn -0.044359 -0.124865 0.991182
vn 0.102548 0.091073 0.990550
vn 0.008929 0.003270 0.999955
vn 0.061023 0.049492 0.996909
vn -0.000995 -0.001292 0.999999
vn -0.065386 -0.063658 0.995827
vn -0.046544 0.035249 0.998294
vn 0.001127 -0.002512 0.999996
vn 0.097548 -0.102461 0.989942
vn -0.104597 0.018896 0.994335
vn 0.012813 0.220529 0.975296
vn 0.032549 -0.033370 0.998913
vn -0.065986 0.017987 0.997658
vn -0.004957 0.048695 0.998801
vn 0.032188 -0.100471 0.994419
vn -0.043669 -0.058126 0.997354
vn 0.133071 0.064338 0.989016
vn 0.072389 -0.029664 0.996935
vn -0.031123 0.099606 0.994540
vn -0.099805 0.266240 0.958726
vn 0.058967 -0.034481 0.997664
vn 0.292629 0.082113 0.952694
vn 0.134530 0.048715 0.989711
vn -0.035046 0.105826 0.993767
vn -0.081903 0.276315 0.957571
vn 0.201873 0.002959 0.979407
vn -0.055033 0.119528 0.991304
vn -0.000019 -0.000834 1.000000
vn -0.261041 -0.081250 0.961902
vn -0.052846 -0.026434 0.998253
vn 0.001417 0.000642 0.999999
vn 0.082706 -0.271813 0.958790
vn 0.029303 -0.106690 0.993860
vn -0.000190 0.000945 1.000000
vn 0.244405 0.005046 0.969660
vn 0.187841 -0.030133 0.981737
vn 0.178632 0.022746 0.983653
vn 0.009510 -0.262384 0.964917
vn -0.037167 -0.201434 0.978797
vn 0.027776 -0.183211 0.982681
vn 0.000824 -0.238850 0.971056
vn -0.238453 -0.013292 0.971063
vn -0.203345 0.036031 0.978444
vn -0.186559 -0.029612 0.981997
vn -0.226060 0.006665 0.974091
vn -0.000433 0.259815 0.965658
vn 0.028360 0.189779 0.981417
vn -0.022361 0.176363 0.984071
vn -0.008955 0.219089 0.975664
vn 0.032095 0.040605 0.998660
vn -0.000526 -0.000258 1.000000
vn -0.180380 -0.068022 0.981242
vn 0.189211 -0.010175 0.981884
vn -0.187930 -0.071039 0.979610
vn -0.137187 -0.056944 0.988907
vn 0.157406 -0.003115 0.987529
vn 0.034055 -0.084995 0.995799
vn 0.213726 0.209008 0.954273
vn -0.012170 -0.057422 0.998276
vn 0.174978 0.021074 0.984347
vn -0.224084 0.151547 0.962715
vn 0.138944 0.004546 0.990290
vn 0.015721 -0.203543 0.978940
vn -0.076502 0.102288 0.991809
vn 0.096674 -0.097874 0.990492
vn -0.000000 0.000000 1.000000
vn -0.073127 0.193968 0.978279
vn -0.083628 0.204054 0.975381
vn -0.079571 0.179758 0.980487
vn -0.012605 -0.116153 0.993151
vn -0.193434 -0.010505 0.981057
vn 0.122029 0.082508 0.989091
vn -0.101553 -0.097726 0.990018
vn 0.174774 0.058443 0.982873
vn 0.000000 -0.000174 1.000000
vn -0.059825 0.160964 0.985145
vn 0.218506 0.074633 0.972977
vn 0.192294 0.080272 0.978049
vn -0.079741 0.013453 0.996725
vn -0.261360 -0.106362 0.959363
vn 0.052095 -0.141993 0.988496
vn 0.000439 0.000001 1.000000
vn 0.022590 0.206832 0.978116
vn 0.096810 0.093998 0.990854
vn -0.060791 -0.037579 0.997443
vn -0.024806 0.167357 0.985584
vn -0.178851 -0.192520 0.964857
vn -0.006007 0.108214 0.994110
vn -0.011696 0.202768 0.979157
vn -0.094214 0.101129 0.990402
vn -0.121296 -0.043999 0.991641
vn 0.000000 -0.000000 1.000000
vn -0.151038 -0.056411 0.986917
vn 0.080393 -0.204554 0.975548
vn 0.039288 -0.177987 0.983248
vn 0.005619 0.127684 0.991799
vn -0.094106 -0.047754 0.994416
vn 0.177146 -0.216351 0.960110
vn -0.037051 0.005968 0.999296
vn -0.016007 -0.174678 0.984496
vn 0.077145 -0.207421 0.975205
vn 0.062301 -0.101597 0.992873
vn 0.227305 0.088492 0.969795
vn 0.011970 0.180564 0.983490
vn -0.001269 0.000259 0.999999
vn -0.184729 0.010226 0.982736
vn 0.034855 -0.292326 0.955683
vn 0.199778 0.010866 0.979781
vn 0.153969 0.053706 0.986615
vn -0.143040 0.025968 0.989376
vn 0.033554 -0.107941 0.993591
vn 0.206759 -0.019507 0.978197
vn 0.007702 -0.172321 0.985011
vn -0.271852 -0.053705 0.960840
vn -0.108034 0.262061 0.958985
vn 0.307542 0.120331 0.943895
vn 0.001075 -0.211673 0.977340
vn -0.185836 0.058721 0.980825
vn 0.224162 0.054742 0.973013
vn 0.065024 0.185922 0.980411
vn 0.112631 0.039588 0.992848
vn 0.078206 -0.209392 0.974699
vn -0.278984 -0.081525 0.956829
vn -0.164709 0.215418 0.962531
vn 0.092565 -0.257147 0.961929
vn 0.228653 0.143412 0.962887
vn -0.000190 -0.001191 0.999999
vn -0.118184 -0.055696 0.991428
f 1/1/1 113/113/113 66/66/66
f 31/31/31 137/137/137 113/113/113
f 145/145/145 148/148/148 26/26/26
f 112/112/112 31/31/31 113/113/113
f 138/138/138 145/145/145 106/106/106
f 106/106/106 52/52/52 33/33/33
f 147/147/147 143/143/143 81/81/81
f 84/84/84 41/41/41 47/47/47
f 137/137/137 66/66/66 113/113/113
f 75/75/75 115/115/115 15/15/15
f 12/12/12 152/152/152 84/84/84
f 50/50/50 35/35/35 142/142/142
f 25/25/25 120/120/120 152/152/152
f 76/76/76 113/113/113 1/1/1
f 76/76/76 112/112/112 113/113/113
f 15/15/15 112/112/112 76/76/76
f 115/115/115 112/112/112 15/15/15
f 30/30/30 115/115/115 117/117/117
f 108/108/108 33/33/33 52/52/52
f 75/75/75 117/117/117 115/115/115
f 115/115/115 30/30/30 42/42/42
f 46/46/46 50/50/50 142/142/142
f 51/51/51 150/150/150 103/103/103
f 116/116/116 30/30/30 136/136/136
f 122/122/122 23/23/23 120/120/120
f 54/54/54 98/98/98 49/49/49
f 42/42/42 112/112/112 115/115/115
f 58/58/58 84/84/84 152/152/152
f 13/13/13 154/154/154 124/124/124
f 60/60/60 120/120/120 111/111/111
f 53/53/53 147/147/147 37/37/37
f 127/127/127 26/26/26 148/148/148
f 101/101/101 43/43/43 35/35/35
f 104/104/104 80/80/80 34/34/34
f 10/10/10 49/49/49 98/98/98
f 83/83/83 58/58/58 23/23/23
f 49/49/49 53/53/53 54/54/54
f 117/117/117 62/62/62 30/30/30
f 132/132/132 134/134/134 140/140/140
f 62/62/62 123/123/123 136/136/136
f 77/77/77 2/2/2 119/119/119
f 77/77/77 119/119/119 118/118/118
f 71/71/71 128/128/128 126/126/126
f 58/58/58 152/152/152 120/120/120
f 63/63/63 28/28/28 121/121/121
f 119/119/119 29/29/29 118/118/118
f 131/131/131 13/13/13 79/79/79
f 125/125/125 27/27/27 62/62/62
f 135/135/135 72/72/72 17/17/17
f 136/136/136 30/30/30 62/62/62
f 58/58/58 120/120/120 23/23/23
f 60/60/60 122/122/122 120/120/120
f 127/127/127 44/44/44 26/26/26
f 120/120/120 25/25/25 32/32/32
f 146/146/146 116/116/116 136/136/136
f 154/154/154 148/148/148 140/140/140
f 120/120/120 32/32/32 111/111/111
f 22/22/22 130/130/130 136/136/136
f 130/130/130 63/63/63 32/32/32
f 154/154/154 140/140/140 61/61/61
f 82/82/82 47/47/47 41/41/41
f 45/45/45 98/98/98 36/36/36
f 82/82/82 137/137/137 47/47/47
f 61/61/61 124/124/124 154/154/154
f 26/26/26 126/126/126 128/128/128
f 62/62/62 117/117/117 125/125/125
f 20/20/20 137/137/137 82/82/82
f 38/38/38 92/92/92 94/94/94
f 20/20/20 66/66/66 137/137/137
f 55/55/55 20/20/20 82/82/82
f 69/69/69 94/94/94 92/92/92
f 143/143/143 90/90/90 39/39/39
f 8/8/8 108/108/108 128/128/128
f 141/141/141 48/48/48 38/38/38
f 24/24/24 144/144/144 97/97/97
f 65/65/65 141/141/141 94/94/94
f 114/114/114 31/31/31 42/42/42
f 38/38/38 94/94/94 141/141/141
f 92/92/92 18/18/18 69/69/69
f 97/97/97 54/54/54 24/24/24
f 151/151/151 110/110/110 63/63/63
f 11/11/11 107/107/107 101/101/101
f 29/29/29 119/119/119 135/135/135
f 143/143/143 59/59/59 83/83/83
f 153/153/153 90/90/90 10/10/10
f 43/43/43 101/101/101 107/107/107
f 129/129/129 45/45/45 36/36/36
f 27/27/27 124/124/124 123/123/123
f 85/85/85 41/41/41 59/59/59
f 78/78/78 125/125/125 9/9/9
f 70/70/70 129/129/129 99/99/99
f 83/83/83 59/59/59 41/41/41
f 129/129/129 70/70/70 18/18/18
f 36/36/36 99/99/99 129/129/129
f 93/93/93 38/38/38 48/48/48
f 38/38/38 45/45/45 92/92/92
f 52/52/52 128/128/128 108/108/108
f 65/65/65 94/94/94 3/3/3
f 72/72/72 135/135/135 119/119/119
f 94/94/94 69/69/69 3/3/3
f 39/39/39 90/90/90 48/48/48
f 21/21/21 141/141/141 65/65/65
f 18/18/18 92/92/92 129/129/129
f 6/6/6 91/91/91 64/64/64
f 105/105/105 24/24/24 54/54/54
f 93/93/93 45/45/45 38/38/38
f 89/89/89 39/39/39 48/48/48
f 114/114/114 42/42/42 12/12/12
f 45/45/45 129/129/129 92/92/92
f 9/9/9 125/125/125 117/117/117
f 64/64/64 89/89/89 21/21/21
f 55/55/55 82/82/82 85/85/85
f 6/6/6 85/85/85 91/91/91
f 59/59/59 91/91/91 85/85/85
f 41/41/41 85/85/85 82/82/82
f 6/6/6 55/55/55 85/85/85
f 23/23/23 143/143/143 83/83/83
f 59/59/59 39/39/39 91/91/91
f 151/151/151 130/130/130 22/22/22
f 143/143/143 39/39/39 59/59/59
f 118/118/118 29/29/29 79/79/79
f 29/29/29 44/44/44 131/131/131
f 32/32/32 146/146/146 130/130/130
f 58/58/58 83/83/83 84/84/84
f 119/119/119 2/2/2 72/72/72
f 44/44/44 126/126/126 26/26/26
f 130/130/130 151/151/151 63/63/63
f 138/138/138 103/103/103 80/80/80
f 10/10/10 98/98/98 93/93/93
f 21/21/21 89/89/89 141/141/141
f 105/105/105 53/53/53 37/37/37
f 124/124/124 79/79/79 13/13/13
f 79/79/79 133/133/133 118/118/118
f 118/118/118 133/133/133 14/14/14
f 116/116/116 12/12/12 42/42/42
f 100/100/100 35/35/35 43/43/43
f 90/90/90 153/153/153 48/48/48
f 48/48/48 141/141/141 89/89/89
f 78/78/78 133/133/133 125/125/125
f 62/62/62 27/27/27 123/123/123
f 37/37/37 147/147/147 81/81/81
f 10/10/10 90/90/90 49/49/49
f 146/146/146 25/25/25 109/109/109
f 148/148/148 154/154/154 127/127/127
f 5/5/5 95/95/95 111/111/111
f 110/110/110 151/151/151 22/22/22
f 57/57/57 37/37/37 95/95/95
f 37/37/37 57/57/57 105/105/105
f 27/27/27 125/125/125 133/133/133
f 121/121/121 5/5/5 111/111/111
f 130/130/130 146/146/146 136/136/136
f 123/123/123 22/22/22 136/136/136
f 17/17/17 126/126/126 135/135/135
f 41/41/41 84/84/84 83/83/83
f 53/53/53 49/49/49 147/147/147
f 60/60/60 111/111/111 95/95/95
f 28/28/28 134/134/134 80/80/80
f 104/104/104 95/95/95 5/5/5
f 28/28/28 140/140/140 134/134/134
f 24/24/24 105/105/105 96/96/96
f 57/57/57 95/95/95 104/104/104
f 24/24/24 96/96/96 144/144/144
f 132/132/132 140/140/140 148/148/148
f 134/134/134 132/132/132 138/138/138
f 45/45/45 93/93/93 98/98/98
f 110/110/110 28/28/28 63/63/63
f 106/106/106 103/103/103 138/138/138
f 9/9/9 117/117/117 75/75/75
f 26/26/26 128/128/128 52/52/52
f 54/54/54 97/97/97 98/98/98
f 111/111/111 32/32/32 63/63/63
f 123/123/123 61/61/61 22/22/22
f 99/99/99 36/36/36 56/56/56
f 80/80/80 104/104/104 5/5/5
f 135/135/135 44/44/44 29/29/29
f 126/126/126 17/17/17 71/71/71
f 109/109/109 12/12/12 116/116/116
f 146/146/146 109/109/109 116/116/116
f 144/144/144 149/149/149 40/40/40
f 103/103/103 150/150/150 34/34/34
f 36/36/36 98/98/98 97/97/97
f 60/60/60 81/81/81 122/122/122
f 96/96/96 156/156/156 149/149/149
f 122/122/122 81/81/81 23/23/23
f 107/107/107 11/11/11 51/51/51
f 150/150/150 51/51/51 11/11/11
f 87/87/87 149/149/149 11/11/11
f 12/12/12 109/109/109 152/152/152
f 14/14/14 133/133/133 78/78/78
f 140/140/140 110/110/110 61/61/61
f 107/107/107 106/106/106 33/33/33
f 44/44/44 135/135/135 126/126/126
f 51/51/51 103/103/103 106/106/106
f 34/34/34 156/156/156 104/104/104
f 57/57/57 104/104/104 156/156/156
f 121/121/121 80/80/80 5/5/5
f 63/63/63 121/121/121 111/111/111
f 121/121/121 28/28/28 80/80/80
f 77/77/77 118/118/118 14/14/14
f 52/52/52 106/106/106 145/145/145
f 103/103/103 34/34/34 80/80/80
f 131/131/131 79/79/79 29/29/29
f 13/13/13 131/131/131 127/127/127
f 25/25/25 146/146/146 32/32/32
f 124/124/124 27/27/27 79/79/79
f 139/139/139 33/33/33 108/108/108
f 107/107/107 33/33/33 43/43/43
f 133/133/133 79/79/79 27/27/27
f 44/44/44 127/127/127 131/131/131
f 139/139/139 43/43/43 33/33/33
f 152/152/152 109/109/109 25/25/25
f 96/96/96 105/105/105 57/57/57
f 140/140/140 28/28/28 110/110/110
f 51/51/51 106/106/106 107/107/107
f 50/50/50 46/46/46 101/101/101
f 97/97/97 56/56/56 36/36/36
f 86/86/86 46/46/46 142/142/142
f 112/112/112 42/42/42 31/31/31
f 40/40/40 46/46/46 86/86/86
f 74/74/74 139/139/139 108/108/108
f 100/100/100 43/43/43 139/139/139
f 137/137/137 31/31/31 47/47/47
f 114/114/114 47/47/47 31/31/31
f 88/88/88 40/40/40 86/86/86
f 16/16/16 100/100/100 139/139/139
f 102/102/102 35/35/35 100/100/100
f 68/68/68 142/142/142 102/102/102
f 88/88/88 99/99/99 56/56/56
f 142/142/142 35/35/35 102/102/102
f 53/53/53 105/105/105 54/54/54
f 95/95/95 37/37/37 60/60/60
f 19/19/19 86/86/86 142/142/142
f 88/88/88 56/56/56 40/40/40
f 144/144/144 40/40/40 56/56/56
f 96/96/96 149/149/149 144/144/144
f 81/81/81 60/60/60 37/37/37
f 87/87/87 46/46/46 40/40/40
f 110/110/110 22/22/22 61/61/61
f 87/87/87 155/155/155 46/46/46
f 144/144/144 56/56/56 97/97/97
f 23/23/23 81/81/81 143/143/143
f 64/64/64 91/91/91 89/89/89
f 156/156/156 96/96/96 57/57/57
f 67/67/67 88/88/88 86/86/86
f 7/7/7 99/99/99 88/88/88
f 7/7/7 70/70/70 99/99/99
f 67/67/67 7/7/7 88/88/88
f 19/19/19 67/67/67 86/86/86
f 68/68/68 19/19/19 142/142/142
f 73/73/73 102/102/102 100/100/100
f 4/4/4 68/68/68 102/102/102
f 73/73/73 4/4/4 102/102/102
f 16/16/16 73/73/73 100/100/100
f 74/74/74 16/16/16 139/139/139
f 8/8/8 74/74/74 108/108/108
f 39/39/39 89/89/89 91/91/91
f 153/153/153 93/93/93 48/48/48
f 116/116/116 42/42/42 30/30/30
f 134/134/134 138/138/138 80/80/80
f 61/61/61 123/123/123 124/124/124
f 145/145/145 26/26/26 52/52/52
f 87/87/87 40/40/40 149/149/149
f 128/128/128 71/71/71 8/8/8
f 149/149/149 150/150/150 11/11/11
f 132/132/132 148/148/148 145/145/145
f 145/145/145 138/138/138 132/132/132
f 150/150/150 156/156/156 34/34/34
f 147/147/147 49/49/49 90/90/90
f 156/156/156 150/150/150 149/149/149
f 155/155/155 101/101/101 46/46/46
f 35/35/35 50/50/50 101/101/101
f 147/147/147 90/90/90 143/143/143
f 101/101/101 155/155/155 11/11/11
f 155/155/155 87/87/87 11/11/11
f 93/93/93 153/153/153 10/10/10
f 154/154/154 13/13/13 127/127/127
f 114/114/114 157/157/157 47/47/47
f 157/157/157 84/84/84 47/47/47
f 84/84/84 157/157/157 12/12/12
f 157/157/157 114/114/114 12/12/12
