# frame 000184 
# time 0.092500 
# name Cloth3D 
v -0.000000 0.000000 -0.000000
v 1.000000 0.000000 -0.000000
v -0.000000 1.000000 0.000000
v 1.000000 1.000000 0.000000
v 0.498113 0.499160 0.041034
v -0.000000 0.500000 0.000000
v 0.500000 1.000000 0.000000
v 1.000000 0.500000 0.000000
v 0.500000 -0.000000 0.000000
v 0.250022 0.748262 -0.005008
v 0.747439 0.748618 0.001992
v 0.250938 0.250593 -0.010673
v 0.748052 0.251694 -0.004724
v 0.750000 0.000000 0.000000
v 0.250000 0.000000 0.000000
v 1.000000 0.750000 0.000000
v 1.000000 0.250000 0.000000
v 0.250000 1.000000 0.000000
v 0.750000 1.000000 0.000000
v 0.000000 0.250000 0.000000
v 0.000000 0.750000 -0.000000
v 0.497744 0.247015 0.033627
v 0.247539 0.500992 0.024953
v 0.499531 0.751383 0.034851
v 0.367159 0.368907 0.041186
v 0.875271 0.374126 0.012644
v 0.623742 0.125322 -0.004844
v 0.624857 0.372236 0.041034
v 0.874775 0.124985 -0.017444
v 0.373753 0.123574 0.004255
v 0.124530 0.124506 -0.020267
v 0.747585 0.685943 0.009527
v 0.873221 0.623497 -0.002042
v 0.625403 0.625557 0.041034
v 0.874504 0.874641 -0.014879
v 0.375597 0.873865 -0.005527
v 0.371611 0.626410 0.041034
v 0.124611 0.875292 -0.018415
v 0.123113 0.625607 0.003640
v 0.625158 0.875455 0.013000
v 0.124921 0.375715 -0.010471
v 0.250418 0.124636 -0.018958
v 0.873594 0.748835 -0.010330
v 0.874046 0.251013 -0.012323
v 0.250512 0.874516 -0.016860
v 0.748899 0.874202 -0.006880
v 0.124743 0.250508 -0.020926
v 0.124467 0.749550 -0.015192
v 0.303604 0.712478 0.011152
v 0.811499 0.874433 -0.012351
v 0.748755 0.623736 0.020634
v 0.874501 0.499053 0.013828
v 0.363998 0.655429 0.041186
v 0.374215 0.749449 0.016153
v 0.000000 0.375000 0.000000
v 0.500238 0.874461 0.008884
v 0.498602 0.625748 0.041035
v 0.249873 0.375615 0.006353
v 0.124063 0.500514 0.001938
v 0.371368 0.499675 0.041035
v 0.623426 0.249585 0.015839
v 0.498831 0.124377 0.006251
v 0.497941 0.372499 0.041035
v 0.000000 0.625000 0.000000
v 0.000000 0.875000 0.000000
v 0.000000 0.125000 0.000000
v 0.625000 1.000000 0.000000
v 0.875000 1.000000 0.000000
v 0.125000 1.000000 0.000000
v 0.375000 1.000000 0.000000
v 1.000000 0.375000 0.000000
v 1.000000 0.125000 0.000000
v 1.000000 0.875000 0.000000
v 1.000000 0.625000 0.000000
v 0.375000 0.000000 0.000000
v 0.125000 0.000000 0.000000
v 0.875000 0.000000 0.000000
v 0.625000 0.000000 0.000000
v 0.748956 0.125228 -0.013552
v 0.624872 0.498804 0.041035
v 0.273424 0.556964 0.041179
v 0.061577 0.312858 -0.015020
v 0.187055 0.438398 0.003993
v 0.188053 0.313465 -0.012823
v 0.062066 0.437875 -0.009418
v 0.687176 0.937219 -0.002452
v 0.686927 0.812417 0.012323
v 0.562509 0.937074 0.001764
v 0.061479 0.687365 -0.012929
v 0.185911 0.687880 0.004413
v 0.062073 0.562648 -0.008156
v 0.187595 0.938226 -0.014816
v 0.187581 0.811815 -0.016257
v 0.061978 0.938050 -0.011244
v 0.434871 0.562743 0.041035
v 0.530326 0.738317 0.041179
v 0.437474 0.811979 0.012983
v 0.313061 0.810829 -0.007088
v 0.437717 0.936945 -0.001260
v 0.937283 0.812041 -0.009740
v 0.810799 0.811368 -0.010500
v 0.937812 0.937826 -0.011542
v 0.703518 0.589529 0.041179
v 0.561724 0.562290 0.041035
v 0.421677 0.684153 0.041179
v 0.812264 0.561612 0.020590
v 0.810175 0.685885 -0.000360
v 0.936810 0.562033 0.003252
v 0.311236 0.261105 0.005058
v 0.562395 0.307973 0.041179
v 0.434613 0.436004 0.041035
v 0.187419 0.061490 -0.015424
v 0.062052 0.062056 -0.010215
v 0.187791 0.187705 -0.020099
v 0.312586 0.061589 -0.013042
v 0.312199 0.186922 -0.001417
v 0.437171 0.062411 -0.005434
v 0.812200 0.061750 -0.014628
v 0.937854 0.062127 -0.010958
v 0.337510 0.428410 0.041179
v 0.561415 0.435648 0.041035
v 0.304037 0.495552 0.041179
v 0.560916 0.186812 0.012551
v 0.685736 0.188454 -0.005126
v 0.561871 0.062541 -0.004818
v 0.937186 0.312732 -0.004845
v 0.811372 0.313642 0.002652
v 0.937039 0.437260 0.003735
v 0.312896 0.937403 -0.009977
v 0.403764 0.317626 0.041108
v 0.811266 0.188424 -0.015238
v 0.250792 0.187674 -0.015933
v 0.686748 0.062107 -0.012349
v 0.688306 0.435372 0.041035
v 0.937409 0.187745 -0.010295
v 0.435344 0.184118 0.025551
v 0.061572 0.187463 -0.015381
v 0.744862 0.506598 0.041179
v 0.936654 0.686819 -0.004389
v 0.671991 0.362610 0.041179
v 0.061434 0.812567 -0.015085
v 0.812046 0.937471 -0.009673
v 0.184226 0.563289 0.020847
v 0.562893 0.813999 0.028789
v 0.814527 0.435688 0.034342
v 0.430275 0.241852 0.041192
v 0.251862 0.599703 0.041192
v 0.788139 0.420296 0.041192
v 0.609703 0.778138 0.041192
v 0.671645 0.653463 0.041179
v 0.502691 0.278210 0.041179
v 0.295947 0.331731 0.013767
v 0.187199 0.749045 -0.010226
v 0.711855 0.301821 0.011182
v 0.747832 0.811317 -0.004531
v 0.581298 0.673597 0.041107
v 0.278601 0.657386 0.025867
v 0.686968 0.757283 0.015670
v 0.395375 0.312124 0.041189
v 0.643735 0.709626 0.041186
v 0.745694 0.354005 0.023385
v 0.363554 0.218285 0.017771
v 0.727662 0.390262 0.041186
v 0.309233 0.628212 0.041189
v 0.185154 0.625526 0.012650
vt 0.000000 0.000000
vt 1.000000 0.000000
vt 0.000000 1.000000
vt 1.000000 1.000000
vt 0.500000 0.500000
vt 0.000000 0.500000
vt 0.500000 1.000000
vt 1.000000 0.500000
vt 0.500000 0.000000
vt 0.250000 0.750000
vt 0.750000 0.750000
vt 0.250000 0.250000
vt 0.750000 0.250000
vt 0.750000 0.000000
vt 0.250000 0.000000
vt 1.000000 0.750000
vt 1.000000 0.250000
vt 0.250000 1.000000
vt 0.750000 1.000000
vt 0.000000 0.250000
vt 0.000000 0.750000
vt 0.500000 0.250000
vt 0.250000 0.500000
vt 0.500000 0.750000
vt 0.371048 0.371143
vt 0.875000 0.375000
vt 0.625000 0.125000
vt 0.625000 0.375000
vt 0.875000 0.125000
vt 0.375000 0.125000
vt 0.125000 0.125000
vt 0.750000 0.687500
vt 0.875000 0.625000
vt 0.625000 0.625000
vt 0.875000 0.875000
vt 0.375000 0.875000
vt 0.375000 0.625000
vt 0.125000 0.875000
vt 0.125000 0.625000
vt 0.625000 0.875000
vt 0.125000 0.375000
vt 0.250000 0.125000
vt 0.875000 0.750000
vt 0.875000 0.250000
vt 0.250000 0.875000
vt 0.750000 0.875000
vt 0.125000 0.250000
vt 0.125000 0.750000
vt 0.304602 0.713891
vt 0.812500 0.875000
vt 0.750000 0.625000
vt 0.875000 0.500000
vt 0.367310 0.653603
vt 0.375000 0.750000
vt 0.000000 0.375000
vt 0.500000 0.875000
vt 0.500000 0.625000
vt 0.250000 0.375000
vt 0.125000 0.500000
vt 0.375000 0.500000
vt 0.625000 0.250000
vt 0.500000 0.125000
vt 0.500000 0.375000
vt 0.000000 0.625000
vt 0.000000 0.875000
vt 0.000000 0.125000
vt 0.625000 1.000000
vt 0.875000 1.000000
vt 0.125000 1.000000
vt 0.375000 1.000000
vt 1.000000 0.375000
vt 1.000000 0.125000
vt 1.000000 0.875000
vt 1.000000 0.625000
vt 0.375000 0.000000
vt 0.125000 0.000000
vt 0.875000 0.000000
vt 0.625000 0.000000
vt 0.750000 0.125000
vt 0.625000 0.500000
vt 0.278424 0.555819
vt 0.062500 0.312500
vt 0.187500 0.437500
vt 0.187500 0.312500
vt 0.062500 0.437500
vt 0.687500 0.937500
vt 0.687500 0.812500
vt 0.562500 0.937500
vt 0.062500 0.687500
vt 0.187500 0.687500
vt 0.062500 0.562500
vt 0.187500 0.937500
vt 0.187500 0.812500
vt 0.062500 0.937500
vt 0.437500 0.562500
vt 0.530643 0.736376
vt 0.437500 0.812500
vt 0.312500 0.812500
vt 0.437500 0.937500
vt 0.937500 0.812500
vt 0.812500 0.812500
vt 0.937500 0.937500
vt 0.702383 0.589535
vt 0.562500 0.562500
vt 0.423943 0.682404
vt 0.812500 0.562500
vt 0.812500 0.687500
vt 0.937500 0.562500
vt 0.311128 0.261404
vt 0.563415 0.311306
vt 0.437500 0.437500
vt 0.187500 0.062500
vt 0.062500 0.062500
vt 0.187500 0.187500
vt 0.312500 0.062500
vt 0.312500 0.187500
vt 0.437500 0.062500
vt 0.812500 0.062500
vt 0.937500 0.062500
vt 0.341613 0.429654
vt 0.562500 0.437500
vt 0.308446 0.495670
vt 0.562500 0.187500
vt 0.687500 0.187500
vt 0.562500 0.062500
vt 0.937500 0.312500
vt 0.812500 0.312500
vt 0.937500 0.437500
vt 0.312500 0.937500
vt 0.407242 0.320791
vt 0.812500 0.187500
vt 0.250000 0.187500
vt 0.687500 0.062500
vt 0.687500 0.437500
vt 0.937500 0.187500
vt 0.437500 0.187500
vt 0.062500 0.187500
vt 0.743424 0.507700
vt 0.937500 0.687500
vt 0.671423 0.365630
vt 0.062500 0.812500
vt 0.812500 0.937500
vt 0.187500 0.562500
vt 0.562500 0.812500
vt 0.812500 0.437500
vt 0.433508 0.246479
vt 0.257695 0.597626
vt 0.785623 0.422714
vt 0.608437 0.775150
vt 0.670394 0.652582
vt 0.504599 0.281901
vt 0.296906 0.332149
vt 0.187500 0.750000
vt 0.713437 0.300753
vt 0.750000 0.812500
vt 0.581168 0.672349
vt 0.281585 0.657008
vt 0.688844 0.757642
vt 0.398990 0.315315
vt 0.642409 0.707925
vt 0.745784 0.354241
vt 0.365347 0.220303
vt 0.726229 0.393103
vt 0.313533 0.626218
vt 0.187500 0.625000
vn 0.081512 0.081512 0.993334
vn -0.087860 0.087860 0.992251
vn 0.089752 -0.089752 0.991912
vn -0.092725 -0.092725 0.991365
vn 0.000000 0.000000 1.000000
vn 0.146415 -0.004910 0.989211
vn -0.011923 -0.004690 0.999918
vn 0.046949 0.001548 0.998896
vn -0.002206 0.088177 0.996102
vn -0.108164 0.198015 0.974213
vn 0.190051 0.105242 0.976117
vn -0.181706 -0.108677 0.977329
vn 0.114965 -0.169094 0.978872
vn 0.008473 0.218309 0.975843
vn -0.008412 0.229891 0.973180
vn -0.118799 0.021534 0.992685
vn -0.126339 -0.021110 0.991762
vn -0.018597 -0.200208 0.979577
vn 0.028873 -0.105138 0.994038
vn 0.241235 -0.000910 0.970466
vn 0.226739 0.007546 0.973926
vn 0.127716 -0.251087 0.959502
vn -0.251946 -0.148561 0.956270
vn -0.121042 0.218381 0.968328
vn -0.146771 -0.072747 0.986492
vn 0.175481 -0.133838 0.975343
vn 0.089049 -0.096819 0.991310
vn -0.001431 0.002331 0.999996
vn -0.037701 0.009633 0.999243
vn -0.124090 -0.179707 0.975862
vn 0.049130 0.051939 0.997441
vn 0.218867 0.152897 0.963701
vn 0.083983 0.104265 0.990997
vn -0.001071 -0.001004 0.999999
vn 0.002806 -0.006687 0.999974
vn -0.107811 0.067958 0.991846
vn 0.001914 -0.003546 0.999992
vn 0.029303 -0.027567 0.999190
vn -0.176305 0.085251 0.980637
vn 0.074526 0.205188 0.975881
vn -0.060370 -0.089469 0.994158
vn -0.103184 -0.013302 0.994573
vn 0.012782 0.056214 0.998337
vn 0.000707 -0.106672 0.994294
vn -0.053267 0.004483 0.998570
vn 0.126165 0.027681 0.991623
vn 0.012916 -0.034474 0.999322
vn -0.051161 0.105436 0.993109
vn -0.150427 0.268294 0.951520
vn 0.062264 -0.006817 0.998036
vn 0.247679 0.184574 0.951098
vn 0.191008 0.059135 0.979806
vn -0.043360 0.079160 0.995918
vn -0.161993 0.233276 0.958823
vn 0.198233 -0.021367 0.979922
vn -0.074757 0.164843 0.983483
vn -0.000024 -0.000782 1.000000
vn -0.233628 -0.119239 0.964987
vn -0.167521 -0.064127 0.983781
vn 0.001248 0.000695 0.999999
vn 0.149784 -0.223913 0.963031
vn 0.043975 -0.191865 0.980436
vn -0.000038 0.000854 1.000000
vn 0.174469 0.019208 0.984475
vn 0.209968 -0.016210 0.977574
vn 0.202852 0.020727 0.978990
vn 0.016717 -0.014234 0.999759
vn 0.005630 -0.172812 0.984939
vn 0.014856 -0.207393 0.978145
vn -0.034214 -0.096612 0.994734
vn -0.017175 -0.033857 0.999279
vn -0.171010 -0.001695 0.985268
vn -0.172368 0.005841 0.985015
vn -0.016583 0.030181 0.999407
vn -0.030760 0.153230 0.987712
vn 0.021548 0.204457 0.978638
vn -0.015394 0.204651 0.978714
vn 0.029901 0.143723 0.989166
vn 0.049344 -0.025284 0.998462
vn -0.000457 -0.000227 1.000000
vn -0.145810 -0.082446 0.985871
vn 0.127389 -0.032236 0.991329
vn -0.156605 -0.127453 0.979403
vn -0.121666 -0.103084 0.987204
vn 0.037463 -0.037871 0.998580
vn 0.062835 0.021585 0.997790
vn 0.262255 0.094496 0.960361
vn -0.006732 0.083837 0.996457
vn 0.050086 0.051498 0.997416
vn -0.131014 0.190468 0.972912
vn -0.019252 0.003138 0.999810
vn -0.004576 -0.142385 0.989801
vn -0.049642 0.065661 0.996606
vn 0.089469 -0.090146 0.991902
vn -0.000000 0.000000 1.000000
vn -0.079744 0.149402 0.985556
vn -0.135344 0.188358 0.972730
vn -0.125014 0.136571 0.982710
vn -0.051387 0.009753 0.998631
vn -0.101979 0.022327 0.994536
vn 0.075041 0.050288 0.995912
vn -0.073470 -0.073407 0.994592
vn 0.165838 0.102543 0.980807
vn -0.000001 -0.000175 1.000000
vn -0.071298 0.137835 0.987886
vn 0.212631 0.140151 0.967029
vn 0.136789 0.121453 0.983127
vn 0.041545 0.047192 0.998021
vn -0.269729 -0.126875 0.954541
vn 0.063077 -0.124618 0.990198
vn 0.000671 0.000412 1.000000
vn 0.004351 0.157428 0.987521
vn 0.092242 0.091839 0.991492
vn -0.045443 -0.034353 0.998376
vn -0.066145 0.062035 0.995880
vn -0.247651 -0.099328 0.963744
vn -0.019788 -0.038910 0.999047
vn 0.003602 0.125607 0.992074
vn -0.086699 0.078067 0.993171
vn -0.121617 -0.059912 0.990767
vn 0.000000 -0.000000 1.000000
vn -0.150143 -0.074380 0.985862
vn 0.117773 -0.188928 0.974903
vn 0.114118 -0.120134 0.986177
vn 0.035996 -0.001681 0.999351
vn -0.001279 -0.078036 0.996950
vn 0.088320 -0.246226 0.965180
vn 0.101992 -0.017097 0.994638
vn -0.049577 -0.091580 0.994563
vn 0.006425 0.003260 0.999974
vn 0.040293 -0.054279 0.997713
vn -0.152575 -0.065331 0.986130
vn 0.036919 0.076857 0.996358
vn -0.001209 0.000912 0.999999
vn -0.119973 -0.021197 0.992551
vn -0.049136 -0.250026 0.966992
vn 0.164972 0.011664 0.986229
vn 0.105957 0.054382 0.992883
vn -0.052490 0.042602 0.997712
vn 0.074616 -0.133537 0.988231
vn 0.136287 0.001694 0.990668
vn 0.038697 -0.083455 0.995760
vn -0.248704 -0.004318 0.968570
vn -0.077787 0.240985 0.967407
vn 0.250578 0.025471 0.967761
vn -0.066448 -0.189163 0.979695
vn -0.171109 0.102547 0.979901
vn 0.174487 -0.065809 0.982458
vn 0.094918 0.161955 0.982223
vn 0.130857 0.066027 0.989200
vn 0.088740 -0.178306 0.979965
vn -0.263538 -0.143501 0.953916
vn -0.078238 0.168464 0.982598
vn 0.163064 -0.270692 0.948755
vn 0.180659 0.063022 0.981525
vn -0.000123 -0.001117 0.999999
vn -0.162381 0.307830 0.937482
vn 0.296835 0.113970 0.948103
vn -0.025493 -0.012393 0.999598
vn 0.168076 0.087612 0.981873
vn 0.155747 -0.336649 0.928660
vn -0.267622 -0.152139 0.951437
vn 0.105292 -0.213554 0.971241
vn -0.097006 0.197009 0.975591
vn -0.203461 0.147524 0.967905
f 1/1/1 113/113/113 66/66/66
f 31/31/31 137/137/137 113/113/113
f 145/145/145 148/148/148 26/26/26
f 112/112/112 31/31/31 113/113/113
f 138/138/138 145/145/145 106/106/106
f 106/106/106 52/52/52 33/33/33
f 147/147/147 143/143/143 81/81/81
f 84/84/84 41/41/41 47/47/47
f 137/137/137 66/66/66 113/113/113
f 75/75/75 115/115/115 15/15/15
f 12/12/12 152/152/152 84/84/84
f 50/50/50 35/35/35 142/142/142
f 25/25/25 120/120/120 152/152/152
f 76/76/76 113/113/113 1/1/1
f 76/76/76 112/112/112 113/113/113
f 15/15/15 112/112/112 76/76/76
f 115/115/115 112/112/112 15/15/15
f 30/30/30 115/115/115 117/117/117
f 108/108/108 33/33/33 52/52/52
f 75/75/75 117/117/117 115/115/115
f 115/115/115 30/30/30 42/42/42
f 46/46/46 50/50/50 142/142/142
f 51/51/51 150/150/150 103/103/103
f 136/136/136 162/162/162 30/30/30
f 122/122/122 23/23/23 120/120/120
f 54/54/54 98/98/98 49/49/49
f 42/42/42 112/112/112 115/115/115
f 58/58/58 84/84/84 152/152/152
f 13/13/13 154/154/154 124/124/124
f 60/60/60 120/120/120 111/111/111
f 127/127/127 13/13/13 44/44/44
f 127/127/127 26/26/26 148/148/148
f 101/101/101 43/43/43 35/35/35
f 104/104/104 80/80/80 34/34/34
f 10/10/10 49/49/49 98/98/98
f 83/83/83 58/58/58 23/23/23
f 49/49/49 53/53/53 54/54/54
f 117/117/117 62/62/62 30/30/30
f 150/150/150 32/32/32 160/160/160
f 62/62/62 123/123/123 136/136/136
f 77/77/77 2/2/2 119/119/119
f 77/77/77 119/119/119 118/118/118
f 71/71/71 128/128/128 126/126/126
f 58/58/58 152/152/152 120/120/120
f 63/63/63 28/28/28 121/121/121
f 119/119/119 29/29/29 118/118/118
f 159/159/159 146/146/146 130/130/130
f 125/125/125 27/27/27 62/62/62
f 135/135/135 72/72/72 17/17/17
f 136/136/136 30/30/30 62/62/62
f 58/58/58 120/120/120 23/23/23
f 60/60/60 122/122/122 120/120/120
f 127/127/127 44/44/44 26/26/26
f 11/11/11 32/32/32 107/107/107
f 161/161/161 154/154/154 127/127/127
f 150/150/150 160/160/160 34/34/34
f 22/22/22 146/146/146 136/136/136
f 63/63/63 130/130/130 151/151/151
f 145/145/145 138/138/138 148/148/148
f 154/154/154 140/140/140 61/61/61
f 82/82/82 47/47/47 41/41/41
f 45/45/45 98/98/98 36/36/36
f 82/82/82 137/137/137 47/47/47
f 61/61/61 124/124/124 154/154/154
f 26/26/26 126/126/126 128/128/128
f 62/62/62 117/117/117 125/125/125
f 20/20/20 137/137/137 82/82/82
f 38/38/38 92/92/92 94/94/94
f 20/20/20 66/66/66 137/137/137
f 55/55/55 20/20/20 82/82/82
f 69/69/69 94/94/94 92/92/92
f 12/12/12 114/114/114 132/132/132
f 8/8/8 108/108/108 128/128/128
f 141/141/141 48/48/48 38/38/38
f 24/24/24 144/144/144 97/97/97
f 65/65/65 141/141/141 94/94/94
f 114/114/114 31/31/31 42/42/42
f 38/38/38 94/94/94 141/141/141
f 92/92/92 18/18/18 69/69/69
f 97/97/97 54/54/54 24/24/24
f 151/151/151 110/110/110 63/63/63
f 11/11/11 107/107/107 101/101/101
f 29/29/29 119/119/119 135/135/135
f 143/143/143 59/59/59 83/83/83
f 153/153/153 90/90/90 10/10/10
f 43/43/43 101/101/101 107/107/107
f 129/129/129 45/45/45 36/36/36
f 27/27/27 124/124/124 123/123/123
f 85/85/85 41/41/41 59/59/59
f 78/78/78 125/125/125 9/9/9
f 70/70/70 129/129/129 99/99/99
f 83/83/83 59/59/59 41/41/41
f 129/129/129 70/70/70 18/18/18
f 36/36/36 99/99/99 129/129/129
f 93/93/93 38/38/38 48/48/48
f 38/38/38 45/45/45 92/92/92
f 52/52/52 128/128/128 108/108/108
f 65/65/65 94/94/94 3/3/3
f 72/72/72 135/135/135 119/119/119
f 94/94/94 69/69/69 3/3/3
f 39/39/39 90/90/90 48/48/48
f 21/21/21 141/141/141 65/65/65
f 18/18/18 92/92/92 129/129/129
f 6/6/6 91/91/91 64/64/64
f 105/105/105 24/24/24 54/54/54
f 93/93/93 45/45/45 38/38/38
f 89/89/89 39/39/39 48/48/48
f 13/13/13 124/124/124 131/131/131
f 45/45/45 129/129/129 92/92/92
f 9/9/9 125/125/125 117/117/117
f 64/64/64 89/89/89 21/21/21
f 55/55/55 82/82/82 85/85/85
f 6/6/6 85/85/85 91/91/91
f 59/59/59 91/91/91 85/85/85
f 41/41/41 85/85/85 82/82/82
f 6/6/6 55/55/55 85/85/85
f 23/23/23 143/143/143 83/83/83
f 59/59/59 39/39/39 91/91/91
f 109/109/109 162/162/162 159/159/159
f 143/143/143 39/39/39 59/59/59
f 118/118/118 29/29/29 79/79/79
f 29/29/29 44/44/44 131/131/131
f 134/134/134 148/148/148 138/138/138
f 58/58/58 83/83/83 84/84/84
f 119/119/119 2/2/2 72/72/72
f 44/44/44 126/126/126 26/26/26
f 11/11/11 158/158/158 32/32/32
f 138/138/138 103/103/103 80/80/80
f 10/10/10 98/98/98 93/93/93
f 21/21/21 89/89/89 141/141/141
f 105/105/105 53/53/53 37/37/37
f 51/51/51 32/32/32 150/150/150
f 79/79/79 133/133/133 118/118/118
f 118/118/118 133/133/133 14/14/14
f 79/79/79 131/131/131 124/124/124
f 100/100/100 35/35/35 43/43/43
f 90/90/90 153/153/153 48/48/48
f 48/48/48 141/141/141 89/89/89
f 78/78/78 133/133/133 125/125/125
f 62/62/62 27/27/27 123/123/123
f 53/53/53 164/164/164 37/37/37
f 49/49/49 157/157/157 164/164/164
f 164/164/164 53/53/53 49/49/49
f 156/156/156 34/34/34 160/160/160
f 5/5/5 95/95/95 111/111/111
f 110/110/110 151/151/151 22/22/22
f 57/57/57 37/37/37 95/95/95
f 37/37/37 57/57/57 105/105/105
f 27/27/27 125/125/125 133/133/133
f 121/121/121 5/5/5 111/111/111
f 151/151/151 146/146/146 22/22/22
f 123/123/123 22/22/22 136/136/136
f 17/17/17 126/126/126 135/135/135
f 41/41/41 84/84/84 83/83/83
f 131/131/131 44/44/44 13/13/13
f 60/60/60 111/111/111 95/95/95
f 28/28/28 134/134/134 80/80/80
f 104/104/104 95/95/95 5/5/5
f 28/28/28 140/140/140 134/134/134
f 24/24/24 105/105/105 96/96/96
f 57/57/57 95/95/95 104/104/104
f 24/24/24 96/96/96 144/144/144
f 132/132/132 42/42/42 116/116/116
f 12/12/12 132/132/132 116/116/116
f 45/45/45 93/93/93 98/98/98
f 110/110/110 28/28/28 63/63/63
f 106/106/106 103/103/103 138/138/138
f 9/9/9 117/117/117 75/75/75
f 26/26/26 128/128/128 52/52/52
f 54/54/54 97/97/97 98/98/98
f 146/146/146 151/151/151 130/130/130
f 123/123/123 61/61/61 22/22/22
f 99/99/99 36/36/36 56/56/56
f 80/80/80 104/104/104 5/5/5
f 135/135/135 44/44/44 29/29/29
f 126/126/126 17/17/17 71/71/71
f 109/109/109 12/12/12 116/116/116
f 148/148/148 161/161/161 127/127/127
f 144/144/144 149/149/149 40/40/40
f 103/103/103 150/150/150 34/34/34
f 36/36/36 98/98/98 97/97/97
f 60/60/60 81/81/81 122/122/122
f 96/96/96 156/156/156 149/149/149
f 122/122/122 81/81/81 23/23/23
f 158/158/158 160/160/160 32/32/32
f 157/157/157 147/147/147 164/164/164
f 120/120/120 25/25/25 111/111/111
f 12/12/12 109/109/109 152/152/152
f 14/14/14 133/133/133 78/78/78
f 140/140/140 110/110/110 61/61/61
f 107/107/107 106/106/106 33/33/33
f 44/44/44 135/135/135 126/126/126
f 51/51/51 103/103/103 106/106/106
f 34/34/34 156/156/156 104/104/104
f 57/57/57 104/104/104 156/156/156
f 121/121/121 80/80/80 5/5/5
f 63/63/63 121/121/121 111/111/111
f 121/121/121 28/28/28 80/80/80
f 77/77/77 118/118/118 14/14/14
f 52/52/52 106/106/106 145/145/145
f 103/103/103 34/34/34 80/80/80
f 131/131/131 79/79/79 29/29/29
f 140/140/140 163/163/163 134/134/134
f 49/49/49 10/10/10 157/157/157
f 124/124/124 27/27/27 79/79/79
f 139/139/139 33/33/33 108/108/108
f 107/107/107 33/33/33 43/43/43
f 133/133/133 79/79/79 27/27/27
f 163/163/163 148/148/148 134/134/134
f 139/139/139 43/43/43 33/33/33
f 11/11/11 155/155/155 158/158/158
f 96/96/96 105/105/105 57/57/57
f 140/140/140 28/28/28 110/110/110
f 51/51/51 106/106/106 107/107/107
f 50/50/50 46/46/46 101/101/101
f 97/97/97 56/56/56 36/36/36
f 86/86/86 46/46/46 142/142/142
f 112/112/112 42/42/42 31/31/31
f 40/40/40 46/46/46 86/86/86
f 74/74/74 139/139/139 108/108/108
f 100/100/100 43/43/43 139/139/139
f 137/137/137 31/31/31 47/47/47
f 114/114/114 47/47/47 31/31/31
f 88/88/88 40/40/40 86/86/86
f 16/16/16 100/100/100 139/139/139
f 102/102/102 35/35/35 100/100/100
f 68/68/68 142/142/142 102/102/102
f 88/88/88 99/99/99 56/56/56
f 142/142/142 35/35/35 102/102/102
f 53/53/53 105/105/105 54/54/54
f 95/95/95 37/37/37 60/60/60
f 19/19/19 86/86/86 142/142/142
f 88/88/88 56/56/56 40/40/40
f 144/144/144 40/40/40 56/56/56
f 96/96/96 149/149/149 144/144/144
f 81/81/81 60/60/60 37/37/37
f 87/87/87 46/46/46 40/40/40
f 110/110/110 22/22/22 61/61/61
f 87/87/87 155/155/155 46/46/46
f 144/144/144 56/56/56 97/97/97
f 23/23/23 81/81/81 143/143/143
f 64/64/64 91/91/91 89/89/89
f 156/156/156 96/96/96 57/57/57
f 67/67/67 88/88/88 86/86/86
f 7/7/7 99/99/99 88/88/88
f 7/7/7 70/70/70 99/99/99
f 67/67/67 7/7/7 88/88/88
f 19/19/19 67/67/67 86/86/86
f 68/68/68 19/19/19 142/142/142
f 73/73/73 102/102/102 100/100/100
f 4/4/4 68/68/68 102/102/102
f 73/73/73 4/4/4 102/102/102
f 16/16/16 73/73/73 100/100/100
f 74/74/74 16/16/16 139/139/139
f 8/8/8 74/74/74 108/108/108
f 39/39/39 89/89/89 91/91/91
f 153/153/153 93/93/93 48/48/48
f 116/116/116 42/42/42 30/30/30
f 134/134/134 138/138/138 80/80/80
f 61/61/61 123/123/123 124/124/124
f 145/145/145 26/26/26 52/52/52
f 87/87/87 40/40/40 149/149/149
f 128/128/128 71/71/71 8/8/8
f 111/111/111 25/25/25 130/130/130
f 32/32/32 51/51/51 107/107/107
f 42/42/42 132/132/132 114/114/114
f 165/165/165 143/143/143 147/147/147
f 37/37/37 164/164/164 81/81/81
f 25/25/25 152/152/152 159/159/159
f 155/155/155 101/101/101 46/46/46
f 35/35/35 50/50/50 101/101/101
f 84/84/84 114/114/114 12/12/12
f 101/101/101 155/155/155 11/11/11
f 25/25/25 159/159/159 130/130/130
f 93/93/93 153/153/153 10/10/10
f 154/154/154 13/13/13 127/127/127
f 90/90/90 157/157/157 10/10/10
f 111/111/111 130/130/130 63/63/63
f 149/149/149 158/158/158 87/87/87
f 109/109/109 159/159/159 152/152/152
f 116/116/116 30/30/30 162/162/162
f 87/87/87 158/158/158 155/155/155
f 149/149/149 160/160/160 158/158/158
f 160/160/160 149/149/149 156/156/156
f 154/154/154 161/161/161 140/140/140
f 146/146/146 159/159/159 162/162/162
f 146/146/146 162/162/162 136/136/136
f 116/116/116 162/162/162 109/109/109
f 148/148/148 163/163/163 161/161/161
f 163/163/163 140/140/140 161/161/161
f 147/147/147 81/81/81 164/164/164
f 114/114/114 84/84/84 47/47/47
f 143/143/143 165/165/165 39/39/39
f 165/165/165 90/90/90 39/39/39
f 90/90/90 165/165/165 157/157/157
f 147/147/147 157/157/157 165/165/165
