# frame 000177 
# time 0.089000 
# name Cloth3D 
v -0.000000 0.000000 -0.000000
v 1.000000 0.000000 -0.000000
v -0.000000 1.000000 0.000000
v 1.000000 1.000000 0.000000
v 0.498399 0.499299 0.039284
v -0.000000 0.500000 0.000000
v 0.500000 1.000000 0.000000
v 1.000000 0.500000 0.000000
v 0.500000 -0.000000 0.000000
v 0.250076 0.748497 -0.007187
v 0.747586 0.748977 -0.000291
v 0.250562 0.250306 -0.011714
v 0.748511 0.251588 -0.006588
v 0.750000 0.000000 0.000000
v 0.250000 0.000000 0.000000
v 1.000000 0.750000 0.000000
v 1.000000 0.250000 0.000000
v 0.250000 1.000000 0.000000
v 0.750000 1.000000 0.000000
v 0.000000 0.250000 0.000000
v 0.000000 0.750000 -0.000000
v 0.497605 0.247228 0.029694
v 0.247915 0.501322 0.021463
v 0.499915 0.751375 0.030952
v 0.366224 0.368414 0.039436
v 0.875941 0.373910 0.011309
v 0.623899 0.125120 -0.007424
v 0.625191 0.372168 0.039284
v 0.874941 0.124889 -0.018449
v 0.373679 0.123323 0.001242
v 0.124480 0.124424 -0.021128
v 0.748020 0.686485 0.008748
v 0.873293 0.623673 -0.004654
v 0.625621 0.625846 0.039284
v 0.874767 0.874845 -0.015909
v 0.375600 0.874197 -0.007366
v 0.371770 0.626700 0.039284
v 0.124580 0.875407 -0.019959
v 0.122967 0.625852 0.000775
v 0.625301 0.875988 0.010929
v 0.124772 0.375768 -0.012334
v 0.250286 0.124287 -0.020974
v 0.873857 0.748997 -0.013195
v 0.874414 0.250999 -0.014972
v 0.250618 0.874750 -0.019779
v 0.749127 0.874602 -0.009013
v 0.124655 0.250505 -0.023076
v 0.124293 0.749717 -0.017865
v 0.303321 0.713515 0.012089
v 0.811736 0.874777 -0.014419
v 0.748978 0.624101 0.018907
v 0.874298 0.498946 0.009213
v 0.363673 0.656766 0.039436
v 0.374404 0.749722 0.013858
v 0.000000 0.375000 0.000000
v 0.500414 0.874574 0.004910
v 0.498832 0.626074 0.039285
v 0.249800 0.375614 0.004592
v 0.123999 0.500715 -0.001277
v 0.371542 0.499855 0.039285
v 0.623628 0.249556 0.013241
v 0.498800 0.124323 0.002739
v 0.498154 0.372410 0.039285
v 0.000000 0.625000 0.000000
v 0.000000 0.875000 0.000000
v 0.000000 0.125000 0.000000
v 0.625000 1.000000 0.000000
v 0.875000 1.000000 0.000000
v 0.125000 1.000000 0.000000
v 0.375000 1.000000 0.000000
v 1.000000 0.375000 0.000000
v 1.000000 0.125000 0.000000
v 1.000000 0.875000 0.000000
v 1.000000 0.625000 0.000000
v 0.375000 0.000000 0.000000
v 0.125000 0.000000 0.000000
v 0.875000 0.000000 0.000000
v 0.625000 0.000000 0.000000
v 0.749112 0.125040 -0.016743
v 0.625179 0.498930 0.039285
v 0.275682 0.558321 0.039429
v 0.061435 0.312823 -0.015799
v 0.187067 0.438568 0.001335
v 0.188028 0.313508 -0.015396
v 0.061775 0.437923 -0.011957
v 0.687191 0.937500 -0.006043
v 0.687159 0.812953 0.010785
v 0.562567 0.937185 -0.002110
v 0.061076 0.687489 -0.015477
v 0.185619 0.688544 0.003641
v 0.061774 0.562747 -0.010942
v 0.187594 0.938394 -0.015911
v 0.187642 0.811884 -0.019861
v 0.062038 0.938014 -0.010881
v 0.435116 0.562973 0.039285
v 0.531485 0.736758 0.039429
v 0.437695 0.812138 0.009816
v 0.313174 0.811096 -0.009402
v 0.437837 0.937151 -0.004917
v 0.937740 0.812107 -0.012894
v 0.810944 0.811592 -0.014075
v 0.937957 0.937926 -0.011799
v 0.703351 0.589536 0.039429
v 0.561982 0.562515 0.039285
v 0.421889 0.684497 0.039429
v 0.812099 0.561572 0.016696
v 0.810383 0.686200 -0.002432
v 0.936741 0.562002 -0.000151
v 0.310367 0.260519 0.006195
v 0.562083 0.308793 0.039429
v 0.434851 0.436068 0.039285
v 0.187330 0.061242 -0.016522
v 0.062081 0.062098 -0.009953
v 0.187816 0.187605 -0.023829
v 0.312537 0.061098 -0.015637
v 0.311588 0.186430 -0.001642
v 0.437146 0.062129 -0.008002
v 0.812317 0.061507 -0.016155
v 0.937905 0.062086 -0.011087
v 0.337578 0.428519 0.039429
v 0.561719 0.435673 0.039285
v 0.305250 0.496311 0.039429
v 0.560935 0.186822 0.009235
v 0.686081 0.188248 -0.006975
v 0.561885 0.062326 -0.007861
v 0.937564 0.312742 -0.007993
v 0.811921 0.313513 0.001223
v 0.937025 0.437243 -0.000253
v 0.312952 0.937782 -0.012590
v 0.403800 0.317463 0.039358
v 0.811486 0.188396 -0.018671
v 0.250858 0.187470 -0.018935
v 0.686849 0.061729 -0.014883
v 0.688698 0.435423 0.039285
v 0.937775 0.187717 -0.012642
v 0.435291 0.184041 0.022305
v 0.061600 0.187466 -0.015541
v 0.743289 0.505784 0.039429
v 0.936881 0.686837 -0.007384
v 0.672834 0.361605 0.039429
v 0.061270 0.812676 -0.016188
v 0.812167 0.938008 -0.013477
v 0.184724 0.563668 0.016251
v 0.563032 0.814385 0.026084
v 0.814956 0.435725 0.031912
v 0.425596 0.243463 0.039442
v 0.253473 0.604383 0.039442
v 0.786528 0.415617 0.039442
v 0.614383 0.776527 0.039442
v 0.672554 0.654119 0.039429
v 0.501764 0.280030 0.039429
v 0.295655 0.331571 0.012970
v 0.187234 0.749048 -0.013783
v 0.712662 0.301232 0.011378
v 0.748224 0.811783 -0.005590
v 0.581498 0.673976 0.039357
v 0.188131 0.250841 -0.023173
v 0.687526 0.757902 0.015277
v 0.393495 0.311036 0.039439
v 0.645594 0.710841 0.039436
v 0.746460 0.353476 0.023497
v 0.362997 0.217696 0.017728
v 0.729047 0.388310 0.039436
vt 0.000000 0.000000
vt 1.000000 0.000000
vt 0.000000 1.000000
vt 1.000000 1.000000
vt 0.500000 0.500000
vt 0.000000 0.500000
vt 0.500000 1.000000
vt 1.000000 0.500000
vt 0.500000 0.000000
vt 0.250000 0.750000
vt 0.750000 0.750000
vt 0.250000 0.250000
vt 0.750000 0.250000
vt 0.750000 0.000000
vt 0.250000 0.000000
vt 1.000000 0.750000
vt 1.000000 0.250000
vt 0.250000 1.000000
vt 0.750000 1.000000
vt 0.000000 0.250000
vt 0.000000 0.750000
vt 0.500000 0.250000
vt 0.250000 0.500000
vt 0.500000 0.750000
vt 0.370064 0.370661
vt 0.875000 0.375000
vt 0.625000 0.125000
vt 0.625000 0.375000
vt 0.875000 0.125000
vt 0.375000 0.125000
vt 0.125000 0.125000
vt 0.750000 0.687500
vt 0.875000 0.625000
vt 0.625000 0.625000
vt 0.875000 0.875000
vt 0.375000 0.875000
vt 0.375000 0.625000
vt 0.125000 0.875000
vt 0.125000 0.625000
vt 0.625000 0.875000
vt 0.125000 0.375000
vt 0.250000 0.125000
vt 0.875000 0.750000
vt 0.875000 0.250000
vt 0.250000 0.875000
vt 0.750000 0.875000
vt 0.125000 0.250000
vt 0.125000 0.750000
vt 0.304602 0.713891
vt 0.812500 0.875000
vt 0.750000 0.625000
vt 0.875000 0.500000
vt 0.366819 0.654592
vt 0.375000 0.750000
vt 0.000000 0.375000
vt 0.500000 0.875000
vt 0.500000 0.625000
vt 0.250000 0.375000
vt 0.125000 0.500000
vt 0.375000 0.500000
vt 0.625000 0.250000
vt 0.500000 0.125000
vt 0.500000 0.375000
vt 0.000000 0.625000
vt 0.000000 0.875000
vt 0.000000 0.125000
vt 0.625000 1.000000
vt 0.875000 1.000000
vt 0.125000 1.000000
vt 0.375000 1.000000
vt 1.000000 0.375000
vt 1.000000 0.125000
vt 1.000000 0.875000
vt 1.000000 0.625000
vt 0.375000 0.000000
vt 0.125000 0.000000
vt 0.875000 0.000000
vt 0.625000 0.000000
vt 0.750000 0.125000
vt 0.625000 0.500000
vt 0.280664 0.556906
vt 0.062500 0.312500
vt 0.187500 0.437500
vt 0.187500 0.312500
vt 0.062500 0.437500
vt 0.687500 0.937500
vt 0.687500 0.812500
vt 0.562500 0.937500
vt 0.062500 0.687500
vt 0.187500 0.687500
vt 0.062500 0.562500
vt 0.187500 0.937500
vt 0.187500 0.812500
vt 0.062500 0.937500
vt 0.437500 0.562500
vt 0.531617 0.734384
vt 0.437500 0.812500
vt 0.312500 0.812500
vt 0.437500 0.937500
vt 0.937500 0.812500
vt 0.812500 0.812500
vt 0.937500 0.937500
vt 0.701962 0.589328
vt 0.562500 0.562500
vt 0.423968 0.682353
vt 0.812500 0.562500
vt 0.812500 0.687500
vt 0.937500 0.562500
vt 0.311128 0.261404
vt 0.562917 0.312324
vt 0.437500 0.437500
vt 0.187500 0.062500
vt 0.062500 0.062500
vt 0.187500 0.187500
vt 0.312500 0.062500
vt 0.312500 0.187500
vt 0.437500 0.062500
vt 0.812500 0.062500
vt 0.937500 0.062500
vt 0.341594 0.429645
vt 0.562500 0.437500
vt 0.309606 0.496236
vt 0.562500 0.187500
vt 0.687500 0.187500
vt 0.562500 0.062500
vt 0.937500 0.312500
vt 0.812500 0.312500
vt 0.937500 0.437500
vt 0.312500 0.937500
vt 0.407242 0.320791
vt 0.812500 0.187500
vt 0.250000 0.187500
vt 0.687500 0.062500
vt 0.687500 0.437500
vt 0.937500 0.187500
vt 0.437500 0.187500
vt 0.062500 0.187500
vt 0.741541 0.506785
vt 0.937500 0.687500
vt 0.671884 0.364689
vt 0.062500 0.812500
vt 0.812500 0.937500
vt 0.187500 0.562500
vt 0.562500 0.812500
vt 0.812500 0.437500
vt 0.428976 0.248411
vt 0.259287 0.601982
vt 0.783485 0.418115
vt 0.612860 0.773043
vt 0.671088 0.652925
vt 0.503597 0.283960
vt 0.296906 0.332149
vt 0.187500 0.750000
vt 0.713437 0.300753
vt 0.750000 0.812500
vt 0.581168 0.672349
vt 0.187500 0.250000
vt 0.688844 0.757642
vt 0.397120 0.314398
vt 0.644045 0.708733
vt 0.745784 0.354241
vt 0.365347 0.220303
vt 0.727165 0.391184
vn 0.079285 0.079285 0.993694
vn -0.088465 0.088465 0.992143
vn 0.086441 -0.086441 0.992500
vn -0.094029 -0.094029 0.991119
vn 0.000000 0.000000 1.000000
vn 0.187882 -0.003775 0.982184
vn -0.011075 -0.064225 0.997874
vn -0.011513 -0.000639 0.999934
vn -0.000453 0.132719 0.991154
vn -0.130733 0.219946 0.966712
vn 0.217922 0.108152 0.969955
vn -0.229091 -0.125165 0.965324
vn 0.124438 -0.189467 0.973970
vn 0.004616 0.247486 0.968880
vn -0.002459 0.257625 0.966242
vn -0.166499 0.022021 0.985796
vn -0.169148 -0.017963 0.985427
vn -0.012444 -0.227762 0.973637
vn 0.029569 -0.162846 0.986208
vn 0.247145 0.001351 0.968978
vn 0.253840 0.001758 0.967245
vn 0.137335 -0.278463 0.950577
vn -0.266648 -0.146162 0.952646
vn -0.141656 0.242558 0.959739
vn -0.145018 -0.068726 0.987039
vn 0.192280 -0.126054 0.973211
vn 0.084146 -0.097865 0.991636
vn -0.001379 0.002304 0.999996
vn -0.046020 0.022184 0.998694
vn -0.113287 -0.189188 0.975384
vn 0.064909 0.062329 0.995943
vn 0.234138 0.153962 0.959935
vn 0.085602 0.096026 0.991691
vn -0.001053 -0.000973 0.999999
vn -0.008118 -0.010486 0.999912
vn -0.101574 0.070861 0.992301
vn 0.001617 -0.003216 0.999994
vn 0.044673 -0.042765 0.998086
vn -0.183767 0.065096 0.980812
vn 0.067086 0.218353 0.973561
vn -0.052219 -0.083392 0.995148
vn -0.108634 -0.006273 0.994062
vn 0.014590 0.056468 0.998298
vn 0.012215 -0.108553 0.994016
vn -0.052418 -0.004665 0.998614
vn 0.131604 0.040815 0.990462
vn 0.038824 -0.040482 0.998426
vn -0.041403 0.110149 0.993052
vn -0.155009 0.271728 0.949808
vn 0.053939 -0.005102 0.998531
vn 0.257235 0.168524 0.951541
vn 0.194060 0.063331 0.978943
vn -0.041500 0.082963 0.995688
vn -0.141532 0.246315 0.958800
vn 0.222766 -0.014048 0.974771
vn -0.074707 0.170648 0.982496
vn -0.000023 -0.000792 1.000000
vn -0.244158 -0.111412 0.963314
vn -0.158963 -0.057521 0.985607
vn 0.001276 0.000688 0.999999
vn 0.134675 -0.230367 0.963739
vn 0.043973 -0.187357 0.981307
vn -0.000045 0.000878 1.000000
vn 0.215520 0.018012 0.976333
vn 0.214837 -0.021991 0.976402
vn 0.201485 0.022241 0.979239
vn 0.015618 -0.073201 0.997195
vn -0.008662 -0.203390 0.979060
vn 0.020503 -0.212044 0.977045
vn -0.029850 -0.145464 0.988913
vn -0.073301 -0.030509 0.996843
vn -0.189881 0.007274 0.981780
vn -0.197865 -0.005798 0.980212
vn -0.067214 0.028431 0.997333
vn -0.030559 0.193472 0.980630
vn 0.026878 0.210541 0.977215
vn -0.020713 0.216250 0.976118
vn 0.027280 0.186048 0.982162
vn 0.047389 -0.019727 0.998682
vn -0.000468 -0.000232 1.000000
vn -0.172792 -0.092490 0.980606
vn 0.143127 -0.027851 0.989312
vn -0.156191 -0.116970 0.980776
vn -0.119637 -0.117862 0.985797
vn 0.057969 -0.030972 0.997838
vn 0.062805 0.004943 0.998014
vn 0.258875 0.113567 0.959211
vn -0.010781 0.060061 0.998136
vn 0.072415 0.047550 0.996240
vn -0.144783 0.226598 0.963167
vn 0.005595 0.002484 0.999981
vn 0.003964 -0.159655 0.987165
vn -0.046734 0.061524 0.997011
vn 0.093715 -0.094488 0.991105
vn -0.000000 0.000000 1.000000
vn -0.097545 0.166671 0.981176
vn -0.127038 0.186527 0.974202
vn -0.127055 0.146964 0.980948
vn -0.044583 -0.013135 0.998919
vn -0.117422 0.013161 0.992995
vn 0.082449 0.041705 0.995722
vn -0.083447 -0.081956 0.993136
vn 0.168605 0.095746 0.981022
vn -0.000000 -0.000174 1.000000
vn -0.068920 0.145235 0.986994
vn 0.221315 0.133503 0.966021
vn 0.149650 0.122927 0.981068
vn 0.013979 0.041114 0.999057
vn -0.281624 -0.124395 0.951427
vn 0.061832 -0.133875 0.989067
vn 0.000664 0.000406 1.000000
vn 0.012370 0.168495 0.985625
vn 0.095476 0.093113 0.991067
vn -0.034748 -0.001342 0.999395
vn -0.061037 0.082305 0.994736
vn -0.257624 -0.119897 0.958778
vn -0.017874 -0.012657 0.999760
vn -0.005451 0.142103 0.989837
vn -0.091686 0.084870 0.992165
vn -0.124314 -0.056499 0.990633
vn 0.000000 -0.000000 1.000000
vn -0.159409 -0.075525 0.984319
vn 0.110359 -0.187080 0.976126
vn 0.113547 -0.131558 0.984784
vn 0.033832 0.022567 0.999173
vn -0.017251 -0.077353 0.996854
vn 0.101009 -0.250141 0.962926
vn 0.078851 -0.009819 0.996838
vn -0.046379 -0.110219 0.992825
vn 0.005257 0.002586 0.999983
vn 0.034466 -0.061851 0.997490
vn -0.193472 -0.059651 0.979291
vn 0.034987 0.099907 0.994381
vn -0.001192 0.000821 0.999999
vn -0.134328 -0.011921 0.990865
vn -0.026812 -0.261334 0.964876
vn 0.176365 0.016094 0.984193
vn 0.112334 0.056829 0.992044
vn -0.073337 0.042691 0.996393
vn 0.067333 -0.130608 0.989145
vn 0.152676 -0.006359 0.988256
vn 0.029876 -0.089851 0.995507
vn -0.245027 -0.047731 0.968340
vn -0.086692 0.243828 0.965936
vn 0.256340 0.039304 0.965787
vn -0.063881 -0.194406 0.978839
vn -0.185000 0.021916 0.982494
vn 0.169694 -0.076519 0.982522
vn 0.110772 0.159183 0.981015
vn 0.131786 0.063055 0.989271
vn 0.097602 -0.205144 0.973853
vn -0.272990 -0.128657 0.953375
vn -0.082201 0.191397 0.978065
vn 0.160006 -0.277452 0.947322
vn 0.201214 0.066662 0.977276
vn -0.000102 -0.001115 0.999999
vn -0.078214 -0.080915 0.993647
vn 0.303415 0.119700 0.945310
vn -0.031648 -0.014605 0.999392
vn 0.170273 0.084976 0.981726
vn 0.151188 -0.327206 0.932780
vn -0.248012 -0.171091 0.953529
vn 0.098448 -0.208811 0.972988
f 1/1/1 113/113/113 66/66/66
f 31/31/31 137/137/137 113/113/113
f 145/145/145 148/148/148 26/26/26
f 112/112/112 31/31/31 113/113/113
f 138/138/138 145/145/145 106/106/106
f 106/106/106 52/52/52 33/33/33
f 147/147/147 143/143/143 81/81/81
f 84/84/84 41/41/41 47/47/47
f 137/137/137 66/66/66 113/113/113
f 75/75/75 115/115/115 15/15/15
f 12/12/12 152/152/152 84/84/84
f 50/50/50 35/35/35 142/142/142
f 25/25/25 120/120/120 152/152/152
f 76/76/76 113/113/113 1/1/1
f 76/76/76 112/112/112 113/113/113
f 15/15/15 112/112/112 76/76/76
f 115/115/115 112/112/112 15/15/15
f 30/30/30 115/115/115 117/117/117
f 108/108/108 33/33/33 52/52/52
f 75/75/75 117/117/117 115/115/115
f 115/115/115 30/30/30 42/42/42
f 46/46/46 50/50/50 142/142/142
f 51/51/51 150/150/150 103/103/103
f 136/136/136 162/162/162 30/30/30
f 122/122/122 23/23/23 120/120/120
f 54/54/54 98/98/98 49/49/49
f 42/42/42 112/112/112 115/115/115
f 58/58/58 84/84/84 152/152/152
f 13/13/13 154/154/154 124/124/124
f 60/60/60 120/120/120 111/111/111
f 53/53/53 147/147/147 37/37/37
f 127/127/127 26/26/26 148/148/148
f 101/101/101 43/43/43 35/35/35
f 104/104/104 80/80/80 34/34/34
f 10/10/10 49/49/49 98/98/98
f 83/83/83 58/58/58 23/23/23
f 49/49/49 53/53/53 54/54/54
f 117/117/117 62/62/62 30/30/30
f 150/150/150 32/32/32 160/160/160
f 62/62/62 123/123/123 136/136/136
f 77/77/77 2/2/2 119/119/119
f 77/77/77 119/119/119 118/118/118
f 71/71/71 128/128/128 126/126/126
f 58/58/58 152/152/152 120/120/120
f 63/63/63 28/28/28 121/121/121
f 119/119/119 29/29/29 118/118/118
f 159/159/159 146/146/146 130/130/130
f 125/125/125 27/27/27 62/62/62
f 135/135/135 72/72/72 17/17/17
f 136/136/136 30/30/30 62/62/62
f 58/58/58 120/120/120 23/23/23
f 60/60/60 122/122/122 120/120/120
f 127/127/127 44/44/44 26/26/26
f 11/11/11 32/32/32 107/107/107
f 161/161/161 154/154/154 127/127/127
f 150/150/150 160/160/160 34/34/34
f 22/22/22 146/146/146 136/136/136
f 63/63/63 130/130/130 151/151/151
f 145/145/145 138/138/138 148/148/148
f 154/154/154 140/140/140 61/61/61
f 82/82/82 47/47/47 41/41/41
f 45/45/45 98/98/98 36/36/36
f 82/82/82 137/137/137 47/47/47
f 61/61/61 124/124/124 154/154/154
f 26/26/26 126/126/126 128/128/128
f 62/62/62 117/117/117 125/125/125
f 20/20/20 137/137/137 82/82/82
f 38/38/38 92/92/92 94/94/94
f 20/20/20 66/66/66 137/137/137
f 55/55/55 20/20/20 82/82/82
f 69/69/69 94/94/94 92/92/92
f 143/143/143 90/90/90 39/39/39
f 8/8/8 108/108/108 128/128/128
f 141/141/141 48/48/48 38/38/38
f 24/24/24 144/144/144 97/97/97
f 65/65/65 141/141/141 94/94/94
f 114/114/114 31/31/31 42/42/42
f 38/38/38 94/94/94 141/141/141
f 92/92/92 18/18/18 69/69/69
f 97/97/97 54/54/54 24/24/24
f 151/151/151 110/110/110 63/63/63
f 11/11/11 107/107/107 101/101/101
f 29/29/29 119/119/119 135/135/135
f 143/143/143 59/59/59 83/83/83
f 153/153/153 90/90/90 10/10/10
f 43/43/43 101/101/101 107/107/107
f 129/129/129 45/45/45 36/36/36
f 27/27/27 124/124/124 123/123/123
f 85/85/85 41/41/41 59/59/59
f 78/78/78 125/125/125 9/9/9
f 70/70/70 129/129/129 99/99/99
f 83/83/83 59/59/59 41/41/41
f 129/129/129 70/70/70 18/18/18
f 36/36/36 99/99/99 129/129/129
f 93/93/93 38/38/38 48/48/48
f 38/38/38 45/45/45 92/92/92
f 52/52/52 128/128/128 108/108/108
f 65/65/65 94/94/94 3/3/3
f 72/72/72 135/135/135 119/119/119
f 94/94/94 69/69/69 3/3/3
f 39/39/39 90/90/90 48/48/48
f 21/21/21 141/141/141 65/65/65
f 18/18/18 92/92/92 129/129/129
f 6/6/6 91/91/91 64/64/64
f 105/105/105 24/24/24 54/54/54
f 93/93/93 45/45/45 38/38/38
f 89/89/89 39/39/39 48/48/48
f 13/13/13 124/124/124 131/131/131
f 45/45/45 129/129/129 92/92/92
f 9/9/9 125/125/125 117/117/117
f 64/64/64 89/89/89 21/21/21
f 55/55/55 82/82/82 85/85/85
f 6/6/6 85/85/85 91/91/91
f 59/59/59 91/91/91 85/85/85
f 41/41/41 85/85/85 82/82/82
f 6/6/6 55/55/55 85/85/85
f 23/23/23 143/143/143 83/83/83
f 59/59/59 39/39/39 91/91/91
f 109/109/109 162/162/162 159/159/159
f 143/143/143 39/39/39 59/59/59
f 118/118/118 29/29/29 79/79/79
f 29/29/29 44/44/44 131/131/131
f 134/134/134 148/148/148 138/138/138
f 58/58/58 83/83/83 84/84/84
f 119/119/119 2/2/2 72/72/72
f 44/44/44 126/126/126 26/26/26
f 11/11/11 158/158/158 32/32/32
f 138/138/138 103/103/103 80/80/80
f 10/10/10 98/98/98 93/93/93
f 21/21/21 89/89/89 141/141/141
f 105/105/105 53/53/53 37/37/37
f 51/51/51 32/32/32 150/150/150
f 79/79/79 133/133/133 118/118/118
f 118/118/118 133/133/133 14/14/14
f 79/79/79 131/131/131 124/124/124
f 100/100/100 35/35/35 43/43/43
f 90/90/90 153/153/153 48/48/48
f 48/48/48 141/141/141 89/89/89
f 78/78/78 133/133/133 125/125/125
f 62/62/62 27/27/27 123/123/123
f 37/37/37 147/147/147 81/81/81
f 10/10/10 90/90/90 49/49/49
f 12/12/12 157/157/157 132/132/132
f 156/156/156 34/34/34 160/160/160
f 5/5/5 95/95/95 111/111/111
f 110/110/110 151/151/151 22/22/22
f 57/57/57 37/37/37 95/95/95
f 37/37/37 57/57/57 105/105/105
f 27/27/27 125/125/125 133/133/133
f 121/121/121 5/5/5 111/111/111
f 151/151/151 146/146/146 22/22/22
f 123/123/123 22/22/22 136/136/136
f 17/17/17 126/126/126 135/135/135
f 41/41/41 84/84/84 83/83/83
f 53/53/53 49/49/49 147/147/147
f 60/60/60 111/111/111 95/95/95
f 28/28/28 134/134/134 80/80/80
f 104/104/104 95/95/95 5/5/5
f 28/28/28 140/140/140 134/134/134
f 24/24/24 105/105/105 96/96/96
f 57/57/57 95/95/95 104/104/104
f 24/24/24 96/96/96 144/144/144
f 132/132/132 42/42/42 116/116/116
f 12/12/12 132/132/132 116/116/116
f 45/45/45 93/93/93 98/98/98
f 110/110/110 28/28/28 63/63/63
f 106/106/106 103/103/103 138/138/138
f 9/9/9 117/117/117 75/75/75
f 26/26/26 128/128/128 52/52/52
f 54/54/54 97/97/97 98/98/98
f 146/146/146 151/151/151 130/130/130
f 123/123/123 61/61/61 22/22/22
f 99/99/99 36/36/36 56/56/56
f 80/80/80 104/104/104 5/5/5
f 135/135/135 44/44/44 29/29/29
f 126/126/126 17/17/17 71/71/71
f 109/109/109 12/12/12 116/116/116
f 148/148/148 161/161/161 127/127/127
f 144/144/144 149/149/149 40/40/40
f 103/103/103 150/150/150 34/34/34
f 36/36/36 98/98/98 97/97/97
f 60/60/60 81/81/81 122/122/122
f 96/96/96 156/156/156 149/149/149
f 122/122/122 81/81/81 23/23/23
f 158/158/158 160/160/160 32/32/32
f 84/84/84 157/157/157 12/12/12
f 120/120/120 25/25/25 111/111/111
f 12/12/12 109/109/109 152/152/152
f 14/14/14 133/133/133 78/78/78
f 140/140/140 110/110/110 61/61/61
f 107/107/107 106/106/106 33/33/33
f 44/44/44 135/135/135 126/126/126
f 51/51/51 103/103/103 106/106/106
f 34/34/34 156/156/156 104/104/104
f 57/57/57 104/104/104 156/156/156
f 121/121/121 80/80/80 5/5/5
f 63/63/63 121/121/121 111/111/111
f 121/121/121 28/28/28 80/80/80
f 77/77/77 118/118/118 14/14/14
f 52/52/52 106/106/106 145/145/145
f 103/103/103 34/34/34 80/80/80
f 131/131/131 79/79/79 29/29/29
f 13/13/13 131/131/131 127/127/127
f 157/157/157 84/84/84 47/47/47
f 124/124/124 27/27/27 79/79/79
f 139/139/139 33/33/33 108/108/108
f 107/107/107 33/33/33 43/43/43
f 133/133/133 79/79/79 27/27/27
f 44/44/44 127/127/127 131/131/131
f 139/139/139 43/43/43 33/33/33
f 11/11/11 155/155/155 158/158/158
f 96/96/96 105/105/105 57/57/57
f 140/140/140 28/28/28 110/110/110
f 51/51/51 106/106/106 107/107/107
f 50/50/50 46/46/46 101/101/101
f 97/97/97 56/56/56 36/36/36
f 86/86/86 46/46/46 142/142/142
f 112/112/112 42/42/42 31/31/31
f 40/40/40 46/46/46 86/86/86
f 74/74/74 139/139/139 108/108/108
f 100/100/100 43/43/43 139/139/139
f 137/137/137 31/31/31 47/47/47
f 114/114/114 47/47/47 31/31/31
f 88/88/88 40/40/40 86/86/86
f 16/16/16 100/100/100 139/139/139
f 102/102/102 35/35/35 100/100/100
f 68/68/68 142/142/142 102/102/102
f 88/88/88 99/99/99 56/56/56
f 142/142/142 35/35/35 102/102/102
f 53/53/53 105/105/105 54/54/54
f 95/95/95 37/37/37 60/60/60
f 19/19/19 86/86/86 142/142/142
f 88/88/88 56/56/56 40/40/40
f 144/144/144 40/40/40 56/56/56
f 96/96/96 149/149/149 144/144/144
f 81/81/81 60/60/60 37/37/37
f 87/87/87 46/46/46 40/40/40
f 110/110/110 22/22/22 61/61/61
f 87/87/87 155/155/155 46/46/46
f 144/144/144 56/56/56 97/97/97
f 23/23/23 81/81/81 143/143/143
f 64/64/64 91/91/91 89/89/89
f 156/156/156 96/96/96 57/57/57
f 67/67/67 88/88/88 86/86/86
f 7/7/7 99/99/99 88/88/88
f 7/7/7 70/70/70 99/99/99
f 67/67/67 7/7/7 88/88/88
f 19/19/19 67/67/67 86/86/86
f 68/68/68 19/19/19 142/142/142
f 73/73/73 102/102/102 100/100/100
f 4/4/4 68/68/68 102/102/102
f 73/73/73 4/4/4 102/102/102
f 16/16/16 73/73/73 100/100/100
f 74/74/74 16/16/16 139/139/139
f 8/8/8 74/74/74 108/108/108
f 39/39/39 89/89/89 91/91/91
f 153/153/153 93/93/93 48/48/48
f 116/116/116 42/42/42 30/30/30
f 134/134/134 138/138/138 80/80/80
f 61/61/61 123/123/123 124/124/124
f 145/145/145 26/26/26 52/52/52
f 87/87/87 40/40/40 149/149/149
f 128/128/128 71/71/71 8/8/8
f 111/111/111 25/25/25 130/130/130
f 32/32/32 51/51/51 107/107/107
f 42/42/42 132/132/132 114/114/114
f 114/114/114 132/132/132 157/157/157
f 147/147/147 49/49/49 90/90/90
f 25/25/25 152/152/152 159/159/159
f 155/155/155 101/101/101 46/46/46
f 35/35/35 50/50/50 101/101/101
f 147/147/147 90/90/90 143/143/143
f 101/101/101 155/155/155 11/11/11
f 25/25/25 159/159/159 130/130/130
f 93/93/93 153/153/153 10/10/10
f 154/154/154 13/13/13 127/127/127
f 114/114/114 157/157/157 47/47/47
f 111/111/111 130/130/130 63/63/63
f 149/149/149 158/158/158 87/87/87
f 109/109/109 159/159/159 152/152/152
f 116/116/116 30/30/30 162/162/162
f 87/87/87 158/158/158 155/155/155
f 149/149/149 160/160/160 158/158/158
f 160/160/160 149/149/149 156/156/156
f 154/154/154 161/161/161 140/140/140
f 146/146/146 159/159/159 162/162/162
f 146/146/146 162/162/162 136/136/136
f 116/116/116 162/162/162 109/109/109
f 148/148/148 163/163/163 161/161/161
f 163/163/163 140/140/140 161/161/161
f 140/140/140 163/163/163 134/134/134
f 163/163/163 148/148/148 134/134/134
