# frame 000134 
# time 0.067500 
# name Cloth3D 
v -0.000000 0.000000 -0.000000
v 1.000000 0.000000 -0.000000
v -0.000000 1.000000 0.000000
v 1.000000 1.000000 0.000000
v 0.499962 0.500058 0.028534
v -0.000000 0.500000 0.000000
v 0.500000 1.000000 0.000000
v 1.000000 0.500000 0.000000
v 0.500000 -0.000000 0.000000
v 0.247993 0.751180 -0.005744
v 0.751400 0.752451 0.001300
v 0.249894 0.248497 -0.010355
v 0.751831 0.249120 -0.004561
v 0.750000 0.000000 0.000000
v 0.250000 0.000000 0.000000
v 1.000000 0.750000 0.000000
v 1.000000 0.250000 0.000000
v 0.250000 1.000000 0.000000
v 0.750000 1.000000 0.000000
v 0.000000 0.250000 0.000000
v 0.000000 0.750000 -0.000000
v 0.499908 0.247851 0.014116
v 0.248608 0.500299 0.008606
v 0.500076 0.752203 0.016203
v 0.359377 0.364310 0.028686
v 0.876476 0.374592 -0.006330
v 0.625012 0.125251 -0.021036
v 0.627465 0.372967 0.028534
v 0.876411 0.123945 -0.025077
v 0.375050 0.124448 -0.017871
v 0.123917 0.123708 -0.024312
v 0.372996 0.372241 0.028534
v 0.874752 0.624967 -0.015307
v 0.626941 0.627725 0.028534
v 0.876263 0.876467 -0.025977
v 0.375279 0.874839 -0.020257
v 0.371979 0.627118 0.028534
v 0.123704 0.876266 -0.024821
v 0.124667 0.625385 -0.020479
v 0.625697 0.876521 -0.007378
v 0.125215 0.375049 -0.022675
v 0.249924 0.123480 -0.026179
v 0.875513 0.750303 -0.023950
v 0.876355 0.250162 -0.021823
v 0.249747 0.875803 -0.025513
v 0.750226 0.876277 -0.020096
v 0.124579 0.249593 -0.023963
v 0.123554 0.750427 -0.026101
v 0.301946 0.714805 0.007712
v 0.813032 0.876442 -0.023917
v 0.750730 0.626444 0.009060
v 0.874718 0.499579 -0.011135
v 0.360180 0.665679 0.028686
v 0.373858 0.750213 0.003021
v 0.000000 0.375000 0.000000
v 0.500706 0.874793 -0.014569
v 0.499676 0.627331 0.028535
v 0.250668 0.374314 -0.003979
v 0.125325 0.500341 -0.020309
v 0.372592 0.499814 0.028535
v 0.625987 0.249867 0.001774
v 0.499924 0.125071 -0.016136
v 0.500207 0.372588 0.028535
v 0.000000 0.625000 0.000000
v 0.000000 0.875000 0.000000
v 0.000000 0.125000 0.000000
v 0.625000 1.000000 0.000000
v 0.875000 1.000000 0.000000
v 0.125000 1.000000 0.000000
v 0.375000 1.000000 0.000000
v 1.000000 0.375000 0.000000
v 1.000000 0.125000 0.000000
v 1.000000 0.875000 0.000000
v 1.000000 0.625000 0.000000
v 0.375000 0.000000 0.000000
v 0.125000 0.000000 0.000000
v 0.875000 0.000000 0.000000
v 0.625000 0.000000 0.000000
v 0.750415 0.124548 -0.024830
v 0.627196 0.500307 0.028535
v 0.289567 0.563312 0.028679
v 0.062446 0.312434 -0.011953
v 0.188600 0.437781 -0.014911
v 0.188439 0.312132 -0.021024
v 0.062576 0.437558 -0.011425
v 0.687646 0.939396 -0.017504
v 0.689663 0.816241 0.006755
v 0.562652 0.938707 -0.015677
v 0.061466 0.687667 -0.014837
v 0.184681 0.688929 -0.004552
v 0.062050 0.562599 -0.013061
v 0.187183 0.938326 -0.014660
v 0.186662 0.812976 -0.027267
v 0.062164 0.937853 -0.008115
v 0.436061 0.563600 0.028535
v 0.536422 0.727489 0.028679
v 0.437840 0.811734 -0.009113
v 0.311973 0.812280 -0.015434
v 0.437679 0.938116 -0.014321
v 0.938207 0.812880 -0.014545
v 0.812837 0.813547 -0.021638
v 0.937754 0.937778 -0.007752
v 0.703439 0.590625 0.028679
v 0.563470 0.563888 0.028535
v 0.421393 0.687128 0.028679
v 0.811601 0.562361 -0.005181
v 0.812415 0.688387 -0.010278
v 0.938058 0.562421 -0.013662
v 0.311003 0.258867 0.002672
v 0.562591 0.313216 0.028679
v 0.436490 0.436166 0.028535
v 0.187194 0.061415 -0.015023
v 0.062149 0.062126 -0.008391
v 0.187317 0.186500 -0.026093
v 0.312495 0.061274 -0.015187
v 0.311561 0.185014 -0.005760
v 0.437594 0.061457 -0.015173
v 0.812886 0.062046 -0.013439
v 0.937841 0.062218 -0.008107
v 0.337265 0.427372 0.028679
v 0.563734 0.436481 0.028535
v 0.312325 0.498450 0.028679
v 0.562410 0.188298 -0.010602
v 0.687998 0.188366 -0.018455
v 0.562595 0.061956 -0.013688
v 0.939288 0.312562 -0.016633
v 0.815241 0.311293 0.001665
v 0.938448 0.437532 -0.013853
v 0.312516 0.938048 -0.013905
v 0.435886 0.268759 0.028679
v 0.813519 0.187430 -0.024703
v 0.768383 0.405531 0.028679
v 0.687642 0.062469 -0.011617
v 0.691014 0.436652 0.028534
v 0.938993 0.187209 -0.016679
v 0.436979 0.186166 0.000304
v 0.061803 0.187146 -0.014240
v 0.734289 0.502702 0.028679
v 0.938248 0.687569 -0.014478
v 0.678619 0.353928 0.028679
v 0.061382 0.812936 -0.015295
v 0.812903 0.938908 -0.016216
v 0.187009 0.563382 -0.005545
v 0.563729 0.813306 0.002311
v 0.813832 0.436258 0.006986
v 0.397544 0.255131 0.028692
v 0.265136 0.632440 0.028692
v 0.774865 0.387559 0.028692
v 0.642440 0.764864 0.028692
v 0.679571 0.658650 0.028679
v 0.499421 0.291051 0.028679
v 0.296727 0.330391 0.006004
v 0.598857 0.749458 0.028686
v 0.716018 0.299455 0.010904
v 0.750903 0.814510 -0.008988
v 0.582345 0.675873 0.028607
v 0.185724 0.750910 -0.015884
vt 0.000000 0.000000
vt 1.000000 0.000000
vt 0.000000 1.000000
vt 1.000000 1.000000
vt 0.500000 0.500000
vt 0.000000 0.500000
vt 0.500000 1.000000
vt 1.000000 0.500000
vt 0.500000 0.000000
vt 0.250000 0.750000
vt 0.750000 0.750000
vt 0.250000 0.250000
vt 0.750000 0.250000
vt 0.750000 0.000000
vt 0.250000 0.000000
vt 1.000000 0.750000
vt 1.000000 0.250000
vt 0.250000 1.000000
vt 0.750000 1.000000
vt 0.000000 0.250000
vt 0.000000 0.750000
vt 0.500000 0.250000
vt 0.250000 0.500000
vt 0.500000 0.750000
vt 0.361604 0.367184
vt 0.875000 0.375000
vt 0.625000 0.125000
vt 0.625000 0.375000
vt 0.875000 0.125000
vt 0.375000 0.125000
vt 0.125000 0.125000
vt 0.375000 0.375000
vt 0.875000 0.625000
vt 0.625000 0.625000
vt 0.875000 0.875000
vt 0.375000 0.875000
vt 0.375000 0.625000
vt 0.125000 0.875000
vt 0.125000 0.625000
vt 0.625000 0.875000
vt 0.125000 0.375000
vt 0.250000 0.125000
vt 0.875000 0.750000
vt 0.875000 0.250000
vt 0.250000 0.875000
vt 0.750000 0.875000
vt 0.125000 0.250000
vt 0.125000 0.750000
vt 0.304602 0.713891
vt 0.812500 0.875000
vt 0.750000 0.625000
vt 0.875000 0.500000
vt 0.363392 0.662929
vt 0.375000 0.750000
vt 0.000000 0.375000
vt 0.500000 0.875000
vt 0.500000 0.625000
vt 0.250000 0.375000
vt 0.125000 0.500000
vt 0.375000 0.500000
vt 0.625000 0.250000
vt 0.500000 0.125000
vt 0.500000 0.375000
vt 0.000000 0.625000
vt 0.000000 0.875000
vt 0.000000 0.125000
vt 0.625000 1.000000
vt 0.875000 1.000000
vt 0.125000 1.000000
vt 0.375000 1.000000
vt 1.000000 0.375000
vt 1.000000 0.125000
vt 1.000000 0.875000
vt 1.000000 0.625000
vt 0.375000 0.000000
vt 0.125000 0.000000
vt 0.875000 0.000000
vt 0.625000 0.000000
vt 0.750000 0.125000
vt 0.625000 0.500000
vt 0.294015 0.562331
vt 0.062500 0.312500
vt 0.187500 0.437500
vt 0.187500 0.312500
vt 0.062500 0.437500
vt 0.687500 0.937500
vt 0.687500 0.812500
vt 0.562500 0.937500
vt 0.062500 0.687500
vt 0.187500 0.687500
vt 0.062500 0.562500
vt 0.187500 0.937500
vt 0.187500 0.812500
vt 0.062500 0.937500
vt 0.437500 0.562500
vt 0.536160 0.723442
vt 0.437500 0.812500
vt 0.312500 0.812500
vt 0.437500 0.937500
vt 0.937500 0.812500
vt 0.812500 0.812500
vt 0.937500 0.937500
vt 0.700304 0.588579
vt 0.562500 0.562500
vt 0.423332 0.684032
vt 0.812500 0.562500
vt 0.812500 0.687500
vt 0.937500 0.562500
vt 0.311128 0.261404
vt 0.561189 0.316436
vt 0.437500 0.437500
vt 0.187500 0.062500
vt 0.062500 0.062500
vt 0.187500 0.187500
vt 0.312500 0.062500
vt 0.312500 0.187500
vt 0.437500 0.062500
vt 0.812500 0.062500
vt 0.937500 0.062500
vt 0.339944 0.428996
vt 0.562500 0.437500
vt 0.315807 0.498798
vt 0.562500 0.187500
vt 0.687500 0.187500
vt 0.562500 0.062500
vt 0.937500 0.312500
vt 0.812500 0.312500
vt 0.937500 0.437500
vt 0.312500 0.937500
vt 0.436883 0.273672
vt 0.812500 0.187500
vt 0.763228 0.407051
vt 0.687500 0.062500
vt 0.687500 0.437500
vt 0.937500 0.187500
vt 0.437500 0.187500
vt 0.062500 0.187500
vt 0.730475 0.502198
vt 0.937500 0.687500
vt 0.675323 0.356269
vt 0.062500 0.812500
vt 0.812500 0.937500
vt 0.187500 0.562500
vt 0.562500 0.812500
vt 0.812500 0.437500
vt 0.399417 0.260865
vt 0.271099 0.629989
vt 0.769401 0.389558
vt 0.639973 0.758902
vt 0.676818 0.655250
vt 0.499087 0.294950
vt 0.296906 0.332149
vt 0.597332 0.744382
vt 0.713437 0.300753
vt 0.750000 0.812500
vt 0.581168 0.672349
vt 0.187500 0.750000
vn 0.067393 0.067393 0.995448
vn -0.064997 0.064997 0.995766
vn 0.065288 -0.065288 0.995728
vn -0.062128 -0.062128 0.996133
vn 0.000000 0.000000 1.000000
vn 0.189325 0.006615 0.981892
vn 0.006226 -0.234533 0.972088
vn -0.216823 -0.001312 0.976210
vn -0.006128 0.224422 0.974473
vn -0.121841 0.197111 0.972781
vn 0.247231 0.120860 0.961389
vn -0.192038 -0.084391 0.977752
vn 0.076166 -0.239759 0.967840
vn 0.007776 0.196068 0.980559
vn 0.000264 0.237560 0.971373
vn -0.227058 0.000391 0.973881
vn -0.262970 0.000256 0.964804
vn -0.003653 -0.223711 0.974649
vn -0.005435 -0.265301 0.964150
vn 0.206169 -0.009636 0.978469
vn 0.236890 0.002390 0.971534
vn 0.104659 -0.312841 0.944022
vn -0.300138 -0.094991 0.949154
vn -0.102430 0.314443 0.943734
vn -0.044743 -0.015655 0.998876
vn 0.196845 -0.033269 0.979870
vn 0.027292 0.018143 0.999463
vn -0.001026 0.002026 0.999997
vn -0.075780 0.089803 0.993072
vn -0.029409 -0.096642 0.994885
vn 0.090845 0.081887 0.992493
vn 0.007629 0.002585 0.999968
vn 0.048766 0.035453 0.998181
vn -0.000949 -0.001249 0.999999
vn -0.058955 -0.069987 0.995804
vn -0.031835 0.011928 0.999422
vn 0.001026 -0.002309 0.999997
vn 0.089115 -0.094344 0.991543
vn -0.067550 0.011103 0.997654
vn 0.002766 0.165190 0.986258
vn 0.051465 -0.019100 0.998492
vn -0.051279 0.016373 0.998550
vn -0.012072 0.043117 0.998997
vn 0.041811 -0.088100 0.995234
vn -0.032930 -0.055580 0.997911
vn 0.108571 0.068657 0.991715
vn 0.081028 -0.017726 0.996554
vn -0.026349 0.078019 0.996604
vn -0.099023 0.258679 0.960874
vn 0.044234 -0.043859 0.998058
vn 0.294318 0.077676 0.952546
vn 0.112992 0.041551 0.992727
vn -0.037102 0.112796 0.992925
vn -0.077751 0.275219 0.958232
vn 0.181954 -0.002820 0.983303
vn -0.045020 0.087575 0.995140
vn -0.000022 -0.000841 1.000000
vn -0.258830 -0.063663 0.963823
vn -0.011371 -0.019223 0.999751
vn 0.001451 0.000624 0.999999
vn 0.073649 -0.279058 0.957446
vn 0.025147 -0.069213 0.997285
vn -0.000188 0.000979 1.000000
vn 0.217234 0.007744 0.976089
vn 0.186468 -0.028488 0.982048
vn 0.180090 0.023169 0.983377
vn 0.007582 -0.261118 0.965277
vn -0.033492 -0.190079 0.981197
vn 0.025708 -0.181007 0.983146
vn 0.001523 -0.219588 0.975592
vn -0.241469 -0.011408 0.970342
vn -0.196783 0.034007 0.979857
vn -0.176392 -0.026565 0.983961
vn -0.220295 0.003100 0.975428
vn -0.000468 0.237164 0.971469
vn 0.026244 0.186192 0.982163
vn -0.020879 0.170801 0.985084
vn -0.008111 0.196794 0.980411
vn 0.023312 0.072108 0.997124
vn -0.000536 -0.000262 1.000000
vn -0.174064 -0.058449 0.982998
vn 0.182270 -0.008458 0.983212
vn -0.186816 -0.059144 0.980613
vn -0.132841 -0.034290 0.990544
vn 0.169778 -0.002336 0.985480
vn 0.025836 -0.113811 0.993166
vn 0.159964 0.235236 0.958684
vn -0.007486 -0.092016 0.995729
vn 0.184894 0.015434 0.982637
vn -0.219804 0.120131 0.968119
vn 0.163011 0.008021 0.986592
vn 0.012226 -0.197977 0.980130
vn -0.075314 0.093886 0.992730
vn 0.094959 -0.096377 0.990805
vn -0.000000 0.000000 1.000000
vn -0.061799 0.183567 0.981063
vn -0.070571 0.214180 0.974242
vn -0.060029 0.177234 0.982336
vn -0.007086 -0.140335 0.990079
vn -0.196800 -0.009107 0.980401
vn 0.124231 0.085810 0.988536
vn -0.099695 -0.096192 0.990358
vn 0.184372 0.062151 0.980889
vn 0.000001 -0.000174 1.000000
vn -0.054498 0.158861 0.985796
vn 0.225326 0.067011 0.971976
vn 0.196716 0.060851 0.978570
vn -0.108189 0.009135 0.994088
vn -0.230140 -0.101228 0.967878
vn 0.047253 -0.140886 0.988898
vn 0.000434 0.000001 1.000000
vn 0.016679 0.198742 0.979910
vn 0.095306 0.093768 0.991022
vn -0.046393 -0.038653 0.998175
vn -0.015357 0.175402 0.984377
vn -0.148469 -0.185683 0.971328
vn -0.006838 0.138011 0.990407
vn -0.005463 0.195502 0.980688
vn -0.092922 0.099554 0.990684
vn -0.119833 -0.040987 0.991948
vn 0.000000 -0.000000 1.000000
vn -0.141939 -0.049404 0.988642
vn 0.070512 -0.209352 0.975295
vn 0.044631 -0.169241 0.984564
vn 0.002037 0.148853 0.988857
vn -0.115772 -0.035439 0.992643
vn 0.196306 -0.190932 0.961774
vn -0.074153 0.003435 0.997241
vn -0.010863 -0.180865 0.983448
vn 0.070305 -0.201747 0.976911
vn 0.041756 -0.099071 0.994204
vn 0.215747 0.077478 0.973371
vn 0.006609 0.179983 0.983647
vn -0.001315 0.000207 0.999999
vn -0.186153 0.010995 0.982459
vn 0.037490 -0.295247 0.954685
vn 0.189209 0.005491 0.981921
vn 0.151710 0.049035 0.987208
vn -0.156644 0.018188 0.987488
vn 0.031703 -0.110778 0.993339
vn 0.200552 -0.015543 0.979560
vn 0.001978 -0.173284 0.984870
vn -0.272117 -0.047673 0.961083
vn -0.082068 0.276510 0.957500
vn 0.313363 0.106908 0.943596
vn -0.022847 -0.200076 0.979514
vn -0.179771 0.079698 0.980475
vn 0.212601 0.032467 0.976599
vn 0.025003 0.210623 0.977248
vn 0.121404 0.034984 0.991987
vn 0.071661 -0.205885 0.975949
vn -0.261507 -0.082183 0.961697
vn -0.060558 0.172364 0.983170
vn 0.078621 -0.255902 0.963500
vn 0.224429 0.170539 0.959452
vn -0.000206 -0.001235 0.999999
vn -0.157851 0.175177 0.971800
f 1/1/1 113/113/113 66/66/66
f 31/31/31 137/137/137 113/113/113
f 145/145/145 148/148/148 26/26/26
f 112/112/112 31/31/31 113/113/113
f 138/138/138 145/145/145 106/106/106
f 106/106/106 52/52/52 33/33/33
f 147/147/147 143/143/143 81/81/81
f 84/84/84 41/41/41 47/47/47
f 137/137/137 66/66/66 113/113/113
f 75/75/75 115/115/115 15/15/15
f 12/12/12 152/152/152 84/84/84
f 50/50/50 35/35/35 142/142/142
f 25/25/25 120/120/120 152/152/152
f 76/76/76 113/113/113 1/1/1
f 76/76/76 112/112/112 113/113/113
f 15/15/15 112/112/112 76/76/76
f 115/115/115 112/112/112 15/15/15
f 30/30/30 115/115/115 117/117/117
f 108/108/108 33/33/33 52/52/52
f 75/75/75 117/117/117 115/115/115
f 115/115/115 30/30/30 42/42/42
f 46/46/46 50/50/50 142/142/142
f 51/51/51 150/150/150 103/103/103
f 116/116/116 30/30/30 136/136/136
f 122/122/122 23/23/23 120/120/120
f 54/54/54 98/98/98 49/49/49
f 42/42/42 112/112/112 115/115/115
f 58/58/58 84/84/84 152/152/152
f 13/13/13 154/154/154 124/124/124
f 60/60/60 120/120/120 111/111/111
f 53/53/53 147/147/147 37/37/37
f 127/127/127 26/26/26 148/148/148
f 101/101/101 43/43/43 35/35/35
f 104/104/104 80/80/80 34/34/34
f 10/10/10 49/49/49 98/98/98
f 83/83/83 58/58/58 23/23/23
f 49/49/49 53/53/53 54/54/54
f 117/117/117 62/62/62 30/30/30
f 132/132/132 134/134/134 140/140/140
f 62/62/62 123/123/123 136/136/136
f 77/77/77 2/2/2 119/119/119
f 77/77/77 119/119/119 118/118/118
f 71/71/71 128/128/128 126/126/126
f 58/58/58 152/152/152 120/120/120
f 63/63/63 28/28/28 121/121/121
f 119/119/119 29/29/29 118/118/118
f 153/153/153 156/156/156 150/150/150
f 125/125/125 27/27/27 62/62/62
f 135/135/135 72/72/72 17/17/17
f 136/136/136 30/30/30 62/62/62
f 58/58/58 120/120/120 23/23/23
f 60/60/60 122/122/122 120/120/120
f 127/127/127 44/44/44 26/26/26
f 120/120/120 25/25/25 32/32/32
f 146/146/146 116/116/116 136/136/136
f 154/154/154 148/148/148 140/140/140
f 120/120/120 32/32/32 111/111/111
f 22/22/22 130/130/130 136/136/136
f 130/130/130 63/63/63 32/32/32
f 154/154/154 140/140/140 61/61/61
f 82/82/82 47/47/47 41/41/41
f 45/45/45 98/98/98 36/36/36
f 82/82/82 137/137/137 47/47/47
f 61/61/61 124/124/124 154/154/154
f 26/26/26 126/126/126 128/128/128
f 62/62/62 117/117/117 125/125/125
f 20/20/20 137/137/137 82/82/82
f 38/38/38 92/92/92 94/94/94
f 20/20/20 66/66/66 137/137/137
f 55/55/55 20/20/20 82/82/82
f 69/69/69 94/94/94 92/92/92
f 143/143/143 90/90/90 39/39/39
f 8/8/8 108/108/108 128/128/128
f 141/141/141 48/48/48 38/38/38
f 24/24/24 144/144/144 97/97/97
f 65/65/65 141/141/141 94/94/94
f 114/114/114 31/31/31 42/42/42
f 38/38/38 94/94/94 141/141/141
f 92/92/92 18/18/18 69/69/69
f 97/97/97 54/54/54 24/24/24
f 151/151/151 110/110/110 63/63/63
f 11/11/11 107/107/107 101/101/101
f 29/29/29 119/119/119 135/135/135
f 143/143/143 59/59/59 83/83/83
f 34/34/34 150/150/150 156/156/156
f 43/43/43 101/101/101 107/107/107
f 129/129/129 45/45/45 36/36/36
f 27/27/27 124/124/124 123/123/123
f 85/85/85 41/41/41 59/59/59
f 78/78/78 125/125/125 9/9/9
f 70/70/70 129/129/129 99/99/99
f 83/83/83 59/59/59 41/41/41
f 129/129/129 70/70/70 18/18/18
f 36/36/36 99/99/99 129/129/129
f 93/93/93 38/38/38 48/48/48
f 38/38/38 45/45/45 92/92/92
f 52/52/52 128/128/128 108/108/108
f 65/65/65 94/94/94 3/3/3
f 72/72/72 135/135/135 119/119/119
f 94/94/94 69/69/69 3/3/3
f 39/39/39 90/90/90 48/48/48
f 21/21/21 141/141/141 65/65/65
f 18/18/18 92/92/92 129/129/129
f 6/6/6 91/91/91 64/64/64
f 105/105/105 24/24/24 54/54/54
f 93/93/93 45/45/45 38/38/38
f 89/89/89 39/39/39 48/48/48
f 114/114/114 42/42/42 12/12/12
f 45/45/45 129/129/129 92/92/92
f 9/9/9 125/125/125 117/117/117
f 64/64/64 89/89/89 21/21/21
f 55/55/55 82/82/82 85/85/85
f 6/6/6 85/85/85 91/91/91
f 59/59/59 91/91/91 85/85/85
f 41/41/41 85/85/85 82/82/82
f 6/6/6 55/55/55 85/85/85
f 23/23/23 143/143/143 83/83/83
f 59/59/59 39/39/39 91/91/91
f 151/151/151 130/130/130 22/22/22
f 143/143/143 39/39/39 59/59/59
f 118/118/118 29/29/29 79/79/79
f 29/29/29 44/44/44 131/131/131
f 32/32/32 146/146/146 130/130/130
f 58/58/58 83/83/83 84/84/84
f 119/119/119 2/2/2 72/72/72
f 44/44/44 126/126/126 26/26/26
f 130/130/130 151/151/151 63/63/63
f 138/138/138 103/103/103 80/80/80
f 10/10/10 98/98/98 93/93/93
f 21/21/21 89/89/89 141/141/141
f 105/105/105 53/53/53 37/37/37
f 149/149/149 153/153/153 150/150/150
f 79/79/79 133/133/133 118/118/118
f 118/118/118 133/133/133 14/14/14
f 116/116/116 12/12/12 42/42/42
f 100/100/100 35/35/35 43/43/43
f 90/90/90 157/157/157 48/48/48
f 48/48/48 141/141/141 89/89/89
f 78/78/78 133/133/133 125/125/125
f 62/62/62 27/27/27 123/123/123
f 37/37/37 147/147/147 81/81/81
f 40/40/40 144/144/144 87/87/87
f 146/146/146 25/25/25 109/109/109
f 148/148/148 154/154/154 127/127/127
f 5/5/5 95/95/95 111/111/111
f 110/110/110 151/151/151 22/22/22
f 57/57/57 37/37/37 95/95/95
f 37/37/37 57/57/57 105/105/105
f 27/27/27 125/125/125 133/133/133
f 121/121/121 5/5/5 111/111/111
f 130/130/130 146/146/146 136/136/136
f 123/123/123 22/22/22 136/136/136
f 17/17/17 126/126/126 135/135/135
f 41/41/41 84/84/84 83/83/83
f 53/53/53 49/49/49 147/147/147
f 60/60/60 111/111/111 95/95/95
f 28/28/28 134/134/134 80/80/80
f 104/104/104 95/95/95 5/5/5
f 28/28/28 140/140/140 134/134/134
f 24/24/24 105/105/105 96/96/96
f 57/57/57 95/95/95 104/104/104
f 24/24/24 96/96/96 144/144/144
f 132/132/132 140/140/140 148/148/148
f 134/134/134 132/132/132 138/138/138
f 45/45/45 93/93/93 98/98/98
f 110/110/110 28/28/28 63/63/63
f 106/106/106 103/103/103 138/138/138
f 9/9/9 117/117/117 75/75/75
f 26/26/26 128/128/128 52/52/52
f 54/54/54 97/97/97 98/98/98
f 111/111/111 32/32/32 63/63/63
f 123/123/123 61/61/61 22/22/22
f 99/99/99 36/36/36 56/56/56
f 80/80/80 104/104/104 5/5/5
f 135/135/135 44/44/44 29/29/29
f 126/126/126 17/17/17 71/71/71
f 109/109/109 12/12/12 116/116/116
f 146/146/146 109/109/109 116/116/116
f 13/13/13 124/124/124 131/131/131
f 103/103/103 150/150/150 34/34/34
f 36/36/36 98/98/98 97/97/97
f 60/60/60 81/81/81 122/122/122
f 12/12/12 84/84/84 114/114/114
f 122/122/122 81/81/81 23/23/23
f 107/107/107 11/11/11 51/51/51
f 150/150/150 51/51/51 11/11/11
f 87/87/87 149/149/149 11/11/11
f 12/12/12 109/109/109 152/152/152
f 14/14/14 133/133/133 78/78/78
f 140/140/140 110/110/110 61/61/61
f 107/107/107 106/106/106 33/33/33
f 44/44/44 135/135/135 126/126/126
f 51/51/51 103/103/103 106/106/106
f 34/34/34 156/156/156 104/104/104
f 57/57/57 104/104/104 156/156/156
f 121/121/121 80/80/80 5/5/5
f 63/63/63 121/121/121 111/111/111
f 121/121/121 28/28/28 80/80/80
f 77/77/77 118/118/118 14/14/14
f 52/52/52 106/106/106 145/145/145
f 103/103/103 34/34/34 80/80/80
f 131/131/131 79/79/79 29/29/29
f 13/13/13 131/131/131 127/127/127
f 25/25/25 146/146/146 32/32/32
f 124/124/124 27/27/27 79/79/79
f 139/139/139 33/33/33 108/108/108
f 107/107/107 33/33/33 43/43/43
f 133/133/133 79/79/79 27/27/27
f 44/44/44 127/127/127 131/131/131
f 139/139/139 43/43/43 33/33/33
f 152/152/152 109/109/109 25/25/25
f 96/96/96 105/105/105 57/57/57
f 140/140/140 28/28/28 110/110/110
f 51/51/51 106/106/106 107/107/107
f 50/50/50 46/46/46 101/101/101
f 97/97/97 56/56/56 36/36/36
f 86/86/86 46/46/46 142/142/142
f 112/112/112 42/42/42 31/31/31
f 40/40/40 46/46/46 86/86/86
f 74/74/74 139/139/139 108/108/108
f 100/100/100 43/43/43 139/139/139
f 137/137/137 31/31/31 47/47/47
f 114/114/114 47/47/47 31/31/31
f 88/88/88 40/40/40 86/86/86
f 16/16/16 100/100/100 139/139/139
f 102/102/102 35/35/35 100/100/100
f 68/68/68 142/142/142 102/102/102
f 88/88/88 99/99/99 56/56/56
f 142/142/142 35/35/35 102/102/102
f 53/53/53 105/105/105 54/54/54
f 95/95/95 37/37/37 60/60/60
f 19/19/19 86/86/86 142/142/142
f 88/88/88 56/56/56 40/40/40
f 144/144/144 40/40/40 56/56/56
f 47/47/47 114/114/114 84/84/84
f 81/81/81 60/60/60 37/37/37
f 87/87/87 46/46/46 40/40/40
f 110/110/110 22/22/22 61/61/61
f 87/87/87 155/155/155 46/46/46
f 144/144/144 56/56/56 97/97/97
f 23/23/23 81/81/81 143/143/143
f 64/64/64 91/91/91 89/89/89
f 156/156/156 96/96/96 57/57/57
f 67/67/67 88/88/88 86/86/86
f 7/7/7 99/99/99 88/88/88
f 7/7/7 70/70/70 99/99/99
f 67/67/67 7/7/7 88/88/88
f 19/19/19 67/67/67 86/86/86
f 68/68/68 19/19/19 142/142/142
f 73/73/73 102/102/102 100/100/100
f 4/4/4 68/68/68 102/102/102
f 73/73/73 4/4/4 102/102/102
f 16/16/16 73/73/73 100/100/100
f 74/74/74 16/16/16 139/139/139
f 8/8/8 74/74/74 108/108/108
f 39/39/39 89/89/89 91/91/91
f 157/157/157 93/93/93 48/48/48
f 116/116/116 42/42/42 30/30/30
f 134/134/134 138/138/138 80/80/80
f 61/61/61 123/123/123 124/124/124
f 145/145/145 26/26/26 52/52/52
f 79/79/79 131/131/131 124/124/124
f 128/128/128 71/71/71 8/8/8
f 149/149/149 150/150/150 11/11/11
f 132/132/132 148/148/148 145/145/145
f 145/145/145 138/138/138 132/132/132
f 153/153/153 149/149/149 144/144/144
f 144/144/144 149/149/149 87/87/87
f 96/96/96 153/153/153 144/144/144
f 155/155/155 101/101/101 46/46/46
f 35/35/35 50/50/50 101/101/101
f 147/147/147 90/90/90 143/143/143
f 101/101/101 155/155/155 11/11/11
f 155/155/155 87/87/87 11/11/11
f 96/96/96 156/156/156 153/153/153
f 154/154/154 13/13/13 127/127/127
f 93/93/93 157/157/157 10/10/10
f 157/157/157 90/90/90 10/10/10
f 10/10/10 90/90/90 49/49/49
f 147/147/147 49/49/49 90/90/90
