# frame 000146 
# time 0.073500 
# name Cloth3D 
v -0.000000 0.000000 -0.000000
v 1.000000 0.000000 -0.000000
v -0.000000 1.000000 0.000000
v 1.000000 1.000000 0.000000
v 0.499621 0.499969 0.031534
v -0.000000 0.500000 0.000000
v 0.500000 1.000000 0.000000
v 1.000000 0.500000 0.000000
v 0.500000 -0.000000 0.000000
v 0.248045 0.751130 -0.006335
v 0.750701 0.751788 -0.000159
v 0.249845 0.248636 -0.011819
v 0.751324 0.249344 -0.004520
v 0.750000 0.000000 0.000000
v 0.250000 0.000000 0.000000
v 1.000000 0.750000 0.000000
v 1.000000 0.250000 0.000000
v 0.250000 1.000000 0.000000
v 0.750000 1.000000 0.000000
v 0.000000 0.250000 0.000000
v 0.000000 0.750000 -0.000000
v 0.499312 0.247688 0.018093
v 0.248786 0.500711 0.010983
v 0.500229 0.752244 0.019515
v 0.361612 0.365335 0.031686
v 0.877451 0.374094 0.000481
v 0.624555 0.125141 -0.018243
v 0.627077 0.372634 0.031534
v 0.876075 0.124219 -0.024451
v 0.374795 0.123855 -0.012399
v 0.124071 0.123808 -0.024316
v 0.372490 0.372258 0.031534
v 0.874905 0.624731 -0.011231
v 0.626914 0.627489 0.031534
v 0.876032 0.876226 -0.024447
v 0.375333 0.875015 -0.016630
v 0.371772 0.627338 0.031534
v 0.123818 0.876103 -0.025201
v 0.124219 0.625432 -0.015170
v 0.625877 0.877635 -0.001005
v 0.125167 0.375265 -0.021228
v 0.250192 0.123429 -0.027861
v 0.875412 0.750039 -0.022947
v 0.876047 0.250346 -0.021241
v 0.249947 0.875745 -0.026263
v 0.750329 0.876411 -0.016901
v 0.124379 0.249764 -0.026834
v 0.123534 0.750110 -0.026827
v 0.301847 0.715437 0.010531
v 0.812800 0.876446 -0.024743
v 0.751433 0.626111 0.013525
v 0.875043 0.499206 -0.005683
v 0.361150 0.662943 0.031686
v 0.374003 0.750152 0.004643
v 0.000000 0.375000 0.000000
v 0.500713 0.875293 -0.009531
v 0.499528 0.627291 0.031535
v 0.250248 0.374421 -0.001545
v 0.125123 0.500517 -0.016233
v 0.372253 0.499930 0.031535
v 0.625353 0.249907 0.003630
v 0.499569 0.124546 -0.011010
v 0.499744 0.372506 0.031535
v 0.000000 0.625000 0.000000
v 0.000000 0.875000 0.000000
v 0.000000 0.125000 0.000000
v 0.625000 1.000000 0.000000
v 0.875000 1.000000 0.000000
v 0.125000 1.000000 0.000000
v 0.375000 1.000000 0.000000
v 1.000000 0.375000 0.000000
v 1.000000 0.125000 0.000000
v 1.000000 0.875000 0.000000
v 1.000000 0.625000 0.000000
v 0.375000 0.000000 0.000000
v 0.125000 0.000000 0.000000
v 0.875000 0.000000 0.000000
v 0.625000 0.000000 0.000000
v 0.749962 0.124359 -0.026779
v 0.626961 0.499960 0.031535
v 0.285767 0.562409 0.031679
v 0.062288 0.312452 -0.012892
v 0.188235 0.437976 -0.010838
v 0.188357 0.312390 -0.021556
v 0.061921 0.437594 -0.014054
v 0.687679 0.939401 -0.017266
v 0.689167 0.815917 0.007556
v 0.562721 0.938662 -0.014731
v 0.060907 0.687627 -0.016654
v 0.184250 0.689444 -0.001403
v 0.061354 0.562578 -0.015575
v 0.187239 0.938336 -0.015318
v 0.186862 0.812696 -0.030174
v 0.062217 0.937789 -0.008142
v 0.435772 0.563655 0.031535
v 0.535512 0.730032 0.031679
v 0.437932 0.812118 -0.004770
v 0.312158 0.812238 -0.014784
v 0.437735 0.938426 -0.015262
v 0.938537 0.812790 -0.016049
v 0.812543 0.813339 -0.021458
v 0.937833 0.937826 -0.008350
v 0.703212 0.590139 0.031679
v 0.563263 0.563709 0.031535
v 0.421674 0.686211 0.031679
v 0.811783 0.561794 -0.001412
v 0.812140 0.687859 -0.010039
v 0.938005 0.562221 -0.012896
v 0.309686 0.258570 0.006925
v 0.562402 0.312261 0.031679
v 0.436070 0.436169 0.031535
v 0.187297 0.061367 -0.015841
v 0.062188 0.062145 -0.008469
v 0.187453 0.186645 -0.029854
v 0.312465 0.060745 -0.017055
v 0.311117 0.184968 -0.004391
v 0.437472 0.061066 -0.016525
v 0.812704 0.061962 -0.014417
v 0.937806 0.062233 -0.008553
v 0.337618 0.427705 0.031679
v 0.563369 0.436269 0.031535
v 0.310525 0.498087 0.031679
v 0.561914 0.187833 -0.005820
v 0.687618 0.188008 -0.015689
v 0.562404 0.061510 -0.015317
v 0.939251 0.312518 -0.016328
v 0.814421 0.311909 -0.000046
v 0.938309 0.437329 -0.012788
v 0.312537 0.938451 -0.015551
v 0.436928 0.263963 0.031679
v 0.812860 0.187723 -0.026428
v 0.773732 0.406939 0.031679
v 0.687466 0.062050 -0.013532
v 0.690762 0.436183 0.031535
v 0.939022 0.187291 -0.017491
v 0.436538 0.185863 0.004877
v 0.061942 0.187214 -0.014192
v 0.736716 0.503101 0.031679
v 0.938434 0.687419 -0.015211
v 0.677172 0.356441 0.031679
v 0.061378 0.812832 -0.015823
v 0.812955 0.939244 -0.017853
v 0.186655 0.563636 -0.000709
v 0.563996 0.814273 0.008262
v 0.814232 0.435622 0.012301
v 0.405244 0.251572 0.031692
v 0.261579 0.624739 0.031692
v 0.778422 0.395261 0.031692
v 0.634739 0.768421 0.031692
v 0.677319 0.657407 0.031679
v 0.499883 0.288196 0.031679
v 0.296376 0.330421 0.007383
v 0.185746 0.750797 -0.016670
v 0.715477 0.299363 0.011969
v 0.750259 0.814083 -0.009579
v 0.582392 0.675770 0.031607
v 0.187844 0.249505 -0.025408
v 0.750952 0.689015 0.006652
vt 0.000000 0.000000
vt 1.000000 0.000000
vt 0.000000 1.000000
vt 1.000000 1.000000
vt 0.500000 0.500000
vt 0.000000 0.500000
vt 0.500000 1.000000
vt 1.000000 0.500000
vt 0.500000 0.000000
vt 0.250000 0.750000
vt 0.750000 0.750000
vt 0.250000 0.250000
vt 0.750000 0.250000
vt 0.750000 0.000000
vt 0.250000 0.000000
vt 1.000000 0.750000
vt 1.000000 0.250000
vt 0.250000 1.000000
vt 0.750000 1.000000
vt 0.000000 0.250000
vt 0.000000 0.750000
vt 0.500000 0.250000
vt 0.250000 0.500000
vt 0.500000 0.750000
vt 0.364323 0.368188
vt 0.875000 0.375000
vt 0.625000 0.125000
vt 0.625000 0.375000
vt 0.875000 0.125000
vt 0.375000 0.125000
vt 0.125000 0.125000
vt 0.375000 0.375000
vt 0.875000 0.625000
vt 0.625000 0.625000
vt 0.875000 0.875000
vt 0.375000 0.875000
vt 0.375000 0.625000
vt 0.125000 0.875000
vt 0.125000 0.625000
vt 0.625000 0.875000
vt 0.125000 0.375000
vt 0.250000 0.125000
vt 0.875000 0.750000
vt 0.875000 0.250000
vt 0.250000 0.875000
vt 0.750000 0.875000
vt 0.125000 0.250000
vt 0.125000 0.750000
vt 0.304602 0.713891
vt 0.812500 0.875000
vt 0.750000 0.625000
vt 0.875000 0.500000
vt 0.364489 0.659975
vt 0.375000 0.750000
vt 0.000000 0.375000
vt 0.500000 0.875000
vt 0.500000 0.625000
vt 0.250000 0.375000
vt 0.125000 0.500000
vt 0.375000 0.500000
vt 0.625000 0.250000
vt 0.500000 0.125000
vt 0.500000 0.375000
vt 0.000000 0.625000
vt 0.000000 0.875000
vt 0.000000 0.125000
vt 0.625000 1.000000
vt 0.875000 1.000000
vt 0.125000 1.000000
vt 0.375000 1.000000
vt 1.000000 0.375000
vt 1.000000 0.125000
vt 1.000000 0.875000
vt 1.000000 0.625000
vt 0.375000 0.000000
vt 0.125000 0.000000
vt 0.875000 0.000000
vt 0.625000 0.000000
vt 0.750000 0.125000
vt 0.625000 0.500000
vt 0.290515 0.561082
vt 0.062500 0.312500
vt 0.187500 0.437500
vt 0.187500 0.312500
vt 0.062500 0.437500
vt 0.687500 0.937500
vt 0.687500 0.812500
vt 0.562500 0.937500
vt 0.062500 0.687500
vt 0.187500 0.687500
vt 0.062500 0.562500
vt 0.187500 0.937500
vt 0.187500 0.812500
vt 0.062500 0.937500
vt 0.437500 0.562500
vt 0.535231 0.726004
vt 0.437500 0.812500
vt 0.312500 0.812500
vt 0.437500 0.937500
vt 0.937500 0.812500
vt 0.812500 0.812500
vt 0.937500 0.937500
vt 0.700087 0.588502
vt 0.562500 0.562500
vt 0.423710 0.682997
vt 0.812500 0.562500
vt 0.812500 0.687500
vt 0.937500 0.562500
vt 0.311128 0.261404
vt 0.561467 0.315677
vt 0.437500 0.437500
vt 0.187500 0.062500
vt 0.062500 0.062500
vt 0.187500 0.187500
vt 0.312500 0.062500
vt 0.312500 0.187500
vt 0.437500 0.062500
vt 0.812500 0.062500
vt 0.937500 0.062500
vt 0.340692 0.429268
vt 0.562500 0.437500
vt 0.314299 0.498253
vt 0.562500 0.187500
vt 0.687500 0.187500
vt 0.562500 0.062500
vt 0.937500 0.312500
vt 0.812500 0.312500
vt 0.937500 0.437500
vt 0.312500 0.937500
vt 0.438541 0.269042
vt 0.812500 0.187500
vt 0.768692 0.409055
vt 0.687500 0.062500
vt 0.687500 0.437500
vt 0.937500 0.187500
vt 0.437500 0.187500
vt 0.062500 0.187500
vt 0.732966 0.503104
vt 0.937500 0.687500
vt 0.674265 0.359152
vt 0.062500 0.812500
vt 0.812500 0.937500
vt 0.187500 0.562500
vt 0.562500 0.812500
vt 0.812500 0.437500
vt 0.407608 0.257394
vt 0.267810 0.621934
vt 0.773188 0.397705
vt 0.632108 0.762965
vt 0.674508 0.654397
vt 0.500080 0.292199
vt 0.296906 0.332149
vt 0.187500 0.750000
vt 0.713437 0.300753
vt 0.750000 0.812500
vt 0.581168 0.672349
vt 0.187500 0.250000
vt 0.750000 0.687500
vn 0.067581 0.067581 0.995422
vn -0.067828 0.067828 0.995389
vn 0.064881 -0.064881 0.995782
vn -0.066120 -0.066120 0.995619
vn 0.000000 0.000000 1.000000
vn 0.230767 0.006587 0.972987
vn -0.001154 -0.238863 0.971053
vn -0.206193 0.000189 0.978511
vn -0.005320 0.250968 0.967981
vn -0.140187 0.238831 0.960889
vn 0.253014 0.121316 0.959826
vn -0.238106 -0.092216 0.966851
vn 0.109132 -0.218240 0.969774
vn 0.003759 0.217438 0.976067
vn 0.005045 0.258271 0.966059
vn -0.245179 0.002712 0.969474
vn -0.268088 -0.003692 0.963387
vn 0.000825 -0.241594 0.970377
vn 0.000927 -0.277914 0.960605
vn 0.211948 -0.005704 0.977264
vn 0.255051 -0.003307 0.966922
vn 0.114702 -0.310545 0.943613
vn -0.298142 -0.110784 0.948071
vn -0.119684 0.303719 0.945215
vn -0.034444 -0.011447 0.999341
vn 0.213708 -0.059685 0.975073
vn 0.045955 -0.025172 0.998626
vn -0.001127 0.002122 0.999997
vn -0.079878 0.088340 0.992882
vn -0.049827 -0.133318 0.989820
vn 0.104351 0.092351 0.990243
vn 0.009469 0.003555 0.999949
vn 0.064618 0.054222 0.996436
vn -0.001008 -0.001306 0.999999
vn -0.065533 -0.059313 0.996086
vn -0.051844 0.042314 0.997758
vn 0.001164 -0.002580 0.999996
vn 0.097740 -0.102286 0.989942
vn -0.116606 0.021893 0.992937
vn 0.017187 0.226027 0.973969
vn 0.024533 -0.038421 0.998960
vn -0.070442 0.017376 0.997365
vn -0.002038 0.050084 0.998743
vn 0.029497 -0.103541 0.994188
vn -0.046375 -0.056689 0.997314
vn 0.139181 0.063251 0.988245
vn 0.072379 -0.032512 0.996847
vn -0.031998 0.105249 0.993931
vn -0.101985 0.269884 0.957477
vn 0.060116 -0.030236 0.997733
vn 0.287512 0.088922 0.953640
vn 0.141528 0.050966 0.988621
vn -0.034385 0.103352 0.994050
vn -0.083331 0.276030 0.957530
vn 0.209474 0.004418 0.977804
vn -0.057931 0.128791 0.989978
vn -0.000019 -0.000832 1.000000
vn -0.260902 -0.086473 0.961484
vn -0.066805 -0.028800 0.997350
vn 0.001406 0.000648 0.999999
vn 0.085567 -0.268085 0.959588
vn 0.030732 -0.118182 0.992516
vn -0.000190 0.000933 1.000000
vn 0.252439 0.004647 0.967602
vn 0.189654 -0.030543 0.981376
vn 0.179280 0.022597 0.983539
vn 0.010271 -0.256355 0.966528
vn -0.037989 -0.206760 0.977654
vn 0.028302 -0.185252 0.982283
vn -0.000545 -0.242134 0.970243
vn -0.233437 -0.014254 0.972267
vn -0.205972 0.035917 0.977899
vn -0.191790 -0.030373 0.980966
vn -0.223326 0.008610 0.974706
vn -0.001762 0.264575 0.964363
vn 0.029113 0.192199 0.980924
vn -0.022913 0.180335 0.983338
vn -0.007905 0.225450 0.974223
vn 0.034619 0.037212 0.998708
vn -0.000521 -0.000256 1.000000
vn -0.182469 -0.071484 0.980610
vn 0.189330 -0.011093 0.981851
vn -0.185771 -0.074709 0.979749
vn -0.138118 -0.063613 0.988371
vn 0.150594 -0.003922 0.988588
vn 0.037343 -0.075830 0.996421
vn 0.220639 0.200478 0.954530
vn -0.013369 -0.046427 0.998832
vn 0.169252 0.023064 0.985303
vn -0.222000 0.163215 0.961289
vn 0.128581 0.003599 0.991693
vn 0.016562 -0.203414 0.978953
vn -0.074664 0.101602 0.992019
vn 0.097077 -0.098215 0.990419
vn -0.000000 0.000000 1.000000
vn -0.077659 0.194102 0.977902
vn -0.087665 0.199953 0.975876
vn -0.086410 0.179048 0.980038
vn -0.014964 -0.107400 0.994103
vn -0.189150 -0.010686 0.981890
vn 0.119531 0.079176 0.989668
vn -0.101538 -0.097678 0.990025
vn 0.171876 0.058120 0.983403
vn 0.000000 -0.000174 1.000000
vn -0.061200 0.161492 0.984975
vn 0.217483 0.078159 0.972930
vn 0.204198 0.089576 0.974823
vn -0.070658 0.015302 0.997383
vn -0.273818 -0.108498 0.955642
vn 0.053642 -0.142723 0.988308
vn 0.000440 0.000000 1.000000
vn 0.024048 0.206843 0.978079
vn 0.097125 0.093854 0.990837
vn -0.060405 -0.037251 0.997479
vn -0.028177 0.162620 0.986286
vn -0.188801 -0.192663 0.962930
vn -0.006194 0.097407 0.995225
vn -0.013709 0.202377 0.979212
vn -0.094476 0.101050 0.990385
vn -0.121743 -0.044964 0.991543
vn 0.000000 -0.000000 1.000000
vn -0.154358 -0.058974 0.986253
vn 0.083202 -0.201733 0.975900
vn 0.047765 -0.178616 0.982759
vn 0.007528 0.119367 0.992822
vn -0.086805 -0.051875 0.994874
vn 0.169941 -0.223711 0.959726
vn -0.025052 0.006211 0.999667
vn -0.018342 -0.171090 0.985085
vn 0.079758 -0.208682 0.974726
vn 0.058400 -0.100061 0.993266
vn 0.227852 0.091232 0.969412
vn 0.014204 0.178563 0.983826
vn -0.001255 0.000277 0.999999
vn -0.182387 0.009748 0.983179
vn 0.033636 -0.290486 0.956288
vn 0.201417 0.012801 0.979422
vn 0.153258 0.055018 0.986653
vn -0.137743 0.028732 0.990051
vn 0.034440 -0.107294 0.993631
vn 0.206316 -0.020335 0.978274
vn 0.008987 -0.168295 0.985696
vn -0.269691 -0.055251 0.961361
vn -0.109555 0.259936 0.959391
vn 0.305176 0.122098 0.944436
vn 0.008105 -0.214267 0.976742
vn -0.187801 0.052193 0.980819
vn 0.225313 0.061343 0.972353
vn 0.065047 0.185704 0.980450
vn 0.122747 0.045573 0.991391
vn 0.080966 -0.211920 0.973927
vn -0.284438 -0.081814 0.955197
vn -0.161537 0.224983 0.960879
vn 0.098539 -0.258556 0.960957
vn 0.229354 0.133482 0.964147
vn -0.000199 -0.001187 0.999999
vn -0.119172 -0.062326 0.990915
vn 0.270054 0.101952 0.957432
f 1/1/1 113/113/113 66/66/66
f 31/31/31 137/137/137 113/113/113
f 145/145/145 148/148/148 26/26/26
f 112/112/112 31/31/31 113/113/113
f 138/138/138 145/145/145 106/106/106
f 106/106/106 52/52/52 33/33/33
f 147/147/147 143/143/143 81/81/81
f 84/84/84 41/41/41 47/47/47
f 137/137/137 66/66/66 113/113/113
f 75/75/75 115/115/115 15/15/15
f 12/12/12 152/152/152 84/84/84
f 50/50/50 35/35/35 142/142/142
f 25/25/25 120/120/120 152/152/152
f 76/76/76 113/113/113 1/1/1
f 76/76/76 112/112/112 113/113/113
f 15/15/15 112/112/112 76/76/76
f 115/115/115 112/112/112 15/15/15
f 30/30/30 115/115/115 117/117/117
f 108/108/108 33/33/33 52/52/52
f 75/75/75 117/117/117 115/115/115
f 115/115/115 30/30/30 42/42/42
f 46/46/46 50/50/50 142/142/142
f 51/51/51 150/150/150 103/103/103
f 116/116/116 30/30/30 136/136/136
f 122/122/122 23/23/23 120/120/120
f 54/54/54 98/98/98 49/49/49
f 42/42/42 112/112/112 115/115/115
f 58/58/58 84/84/84 152/152/152
f 13/13/13 154/154/154 124/124/124
f 60/60/60 120/120/120 111/111/111
f 53/53/53 147/147/147 37/37/37
f 127/127/127 26/26/26 148/148/148
f 101/101/101 43/43/43 35/35/35
f 104/104/104 80/80/80 34/34/34
f 10/10/10 49/49/49 98/98/98
f 83/83/83 58/58/58 23/23/23
f 49/49/49 53/53/53 54/54/54
f 117/117/117 62/62/62 30/30/30
f 132/132/132 134/134/134 140/140/140
f 62/62/62 123/123/123 136/136/136
f 77/77/77 2/2/2 119/119/119
f 77/77/77 119/119/119 118/118/118
f 71/71/71 128/128/128 126/126/126
f 58/58/58 152/152/152 120/120/120
f 63/63/63 28/28/28 121/121/121
f 119/119/119 29/29/29 118/118/118
f 131/131/131 13/13/13 79/79/79
f 125/125/125 27/27/27 62/62/62
f 135/135/135 72/72/72 17/17/17
f 136/136/136 30/30/30 62/62/62
f 58/58/58 120/120/120 23/23/23
f 60/60/60 122/122/122 120/120/120
f 127/127/127 44/44/44 26/26/26
f 120/120/120 25/25/25 32/32/32
f 146/146/146 116/116/116 136/136/136
f 154/154/154 148/148/148 140/140/140
f 120/120/120 32/32/32 111/111/111
f 22/22/22 130/130/130 136/136/136
f 130/130/130 63/63/63 32/32/32
f 154/154/154 140/140/140 61/61/61
f 82/82/82 47/47/47 41/41/41
f 45/45/45 98/98/98 36/36/36
f 82/82/82 137/137/137 47/47/47
f 61/61/61 124/124/124 154/154/154
f 26/26/26 126/126/126 128/128/128
f 62/62/62 117/117/117 125/125/125
f 20/20/20 137/137/137 82/82/82
f 38/38/38 92/92/92 94/94/94
f 20/20/20 66/66/66 137/137/137
f 55/55/55 20/20/20 82/82/82
f 69/69/69 94/94/94 92/92/92
f 143/143/143 90/90/90 39/39/39
f 8/8/8 108/108/108 128/128/128
f 141/141/141 48/48/48 38/38/38
f 24/24/24 144/144/144 97/97/97
f 65/65/65 141/141/141 94/94/94
f 114/114/114 31/31/31 42/42/42
f 38/38/38 94/94/94 141/141/141
f 92/92/92 18/18/18 69/69/69
f 97/97/97 54/54/54 24/24/24
f 151/151/151 110/110/110 63/63/63
f 11/11/11 107/107/107 101/101/101
f 29/29/29 119/119/119 135/135/135
f 143/143/143 59/59/59 83/83/83
f 153/153/153 90/90/90 10/10/10
f 43/43/43 101/101/101 107/107/107
f 129/129/129 45/45/45 36/36/36
f 27/27/27 124/124/124 123/123/123
f 85/85/85 41/41/41 59/59/59
f 78/78/78 125/125/125 9/9/9
f 70/70/70 129/129/129 99/99/99
f 83/83/83 59/59/59 41/41/41
f 129/129/129 70/70/70 18/18/18
f 36/36/36 99/99/99 129/129/129
f 93/93/93 38/38/38 48/48/48
f 38/38/38 45/45/45 92/92/92
f 52/52/52 128/128/128 108/108/108
f 65/65/65 94/94/94 3/3/3
f 72/72/72 135/135/135 119/119/119
f 94/94/94 69/69/69 3/3/3
f 39/39/39 90/90/90 48/48/48
f 21/21/21 141/141/141 65/65/65
f 18/18/18 92/92/92 129/129/129
f 6/6/6 91/91/91 64/64/64
f 105/105/105 24/24/24 54/54/54
f 93/93/93 45/45/45 38/38/38
f 89/89/89 39/39/39 48/48/48
f 114/114/114 42/42/42 12/12/12
f 45/45/45 129/129/129 92/92/92
f 9/9/9 125/125/125 117/117/117
f 64/64/64 89/89/89 21/21/21
f 55/55/55 82/82/82 85/85/85
f 6/6/6 85/85/85 91/91/91
f 59/59/59 91/91/91 85/85/85
f 41/41/41 85/85/85 82/82/82
f 6/6/6 55/55/55 85/85/85
f 23/23/23 143/143/143 83/83/83
f 59/59/59 39/39/39 91/91/91
f 151/151/151 130/130/130 22/22/22
f 143/143/143 39/39/39 59/59/59
f 118/118/118 29/29/29 79/79/79
f 29/29/29 44/44/44 131/131/131
f 32/32/32 146/146/146 130/130/130
f 58/58/58 83/83/83 84/84/84
f 119/119/119 2/2/2 72/72/72
f 44/44/44 126/126/126 26/26/26
f 130/130/130 151/151/151 63/63/63
f 138/138/138 103/103/103 80/80/80
f 10/10/10 98/98/98 93/93/93
f 21/21/21 89/89/89 141/141/141
f 105/105/105 53/53/53 37/37/37
f 124/124/124 79/79/79 13/13/13
f 79/79/79 133/133/133 118/118/118
f 118/118/118 133/133/133 14/14/14
f 116/116/116 12/12/12 42/42/42
f 100/100/100 35/35/35 43/43/43
f 90/90/90 153/153/153 48/48/48
f 48/48/48 141/141/141 89/89/89
f 78/78/78 133/133/133 125/125/125
f 62/62/62 27/27/27 123/123/123
f 37/37/37 147/147/147 81/81/81
f 10/10/10 90/90/90 49/49/49
f 146/146/146 25/25/25 109/109/109
f 148/148/148 154/154/154 127/127/127
f 5/5/5 95/95/95 111/111/111
f 110/110/110 151/151/151 22/22/22
f 57/57/57 37/37/37 95/95/95
f 37/37/37 57/57/57 105/105/105
f 27/27/27 125/125/125 133/133/133
f 121/121/121 5/5/5 111/111/111
f 130/130/130 146/146/146 136/136/136
f 123/123/123 22/22/22 136/136/136
f 17/17/17 126/126/126 135/135/135
f 41/41/41 84/84/84 83/83/83
f 53/53/53 49/49/49 147/147/147
f 60/60/60 111/111/111 95/95/95
f 28/28/28 134/134/134 80/80/80
f 104/104/104 95/95/95 5/5/5
f 28/28/28 140/140/140 134/134/134
f 24/24/24 105/105/105 96/96/96
f 57/57/57 95/95/95 104/104/104
f 24/24/24 96/96/96 144/144/144
f 132/132/132 140/140/140 148/148/148
f 134/134/134 132/132/132 138/138/138
f 45/45/45 93/93/93 98/98/98
f 110/110/110 28/28/28 63/63/63
f 106/106/106 103/103/103 138/138/138
f 9/9/9 117/117/117 75/75/75
f 26/26/26 128/128/128 52/52/52
f 54/54/54 97/97/97 98/98/98
f 111/111/111 32/32/32 63/63/63
f 123/123/123 61/61/61 22/22/22
f 99/99/99 36/36/36 56/56/56
f 80/80/80 104/104/104 5/5/5
f 135/135/135 44/44/44 29/29/29
f 126/126/126 17/17/17 71/71/71
f 109/109/109 12/12/12 116/116/116
f 146/146/146 109/109/109 116/116/116
f 144/144/144 149/149/149 40/40/40
f 103/103/103 150/150/150 34/34/34
f 36/36/36 98/98/98 97/97/97
f 60/60/60 81/81/81 122/122/122
f 96/96/96 156/156/156 149/149/149
f 122/122/122 81/81/81 23/23/23
f 157/157/157 114/114/114 12/12/12
f 84/84/84 157/157/157 12/12/12
f 87/87/87 149/149/149 11/11/11
f 12/12/12 109/109/109 152/152/152
f 14/14/14 133/133/133 78/78/78
f 140/140/140 110/110/110 61/61/61
f 107/107/107 106/106/106 33/33/33
f 44/44/44 135/135/135 126/126/126
f 51/51/51 103/103/103 106/106/106
f 34/34/34 156/156/156 104/104/104
f 57/57/57 104/104/104 156/156/156
f 121/121/121 80/80/80 5/5/5
f 63/63/63 121/121/121 111/111/111
f 121/121/121 28/28/28 80/80/80
f 77/77/77 118/118/118 14/14/14
f 52/52/52 106/106/106 145/145/145
f 103/103/103 34/34/34 80/80/80
f 131/131/131 79/79/79 29/29/29
f 13/13/13 131/131/131 127/127/127
f 25/25/25 146/146/146 32/32/32
f 124/124/124 27/27/27 79/79/79
f 139/139/139 33/33/33 108/108/108
f 107/107/107 33/33/33 43/43/43
f 133/133/133 79/79/79 27/27/27
f 44/44/44 127/127/127 131/131/131
f 139/139/139 43/43/43 33/33/33
f 152/152/152 109/109/109 25/25/25
f 96/96/96 105/105/105 57/57/57
f 140/140/140 28/28/28 110/110/110
f 51/51/51 106/106/106 107/107/107
f 50/50/50 46/46/46 101/101/101
f 97/97/97 56/56/56 36/36/36
f 86/86/86 46/46/46 142/142/142
f 112/112/112 42/42/42 31/31/31
f 40/40/40 46/46/46 86/86/86
f 74/74/74 139/139/139 108/108/108
f 100/100/100 43/43/43 139/139/139
f 137/137/137 31/31/31 47/47/47
f 114/114/114 47/47/47 31/31/31
f 88/88/88 40/40/40 86/86/86
f 16/16/16 100/100/100 139/139/139
f 102/102/102 35/35/35 100/100/100
f 68/68/68 142/142/142 102/102/102
f 88/88/88 99/99/99 56/56/56
f 142/142/142 35/35/35 102/102/102
f 53/53/53 105/105/105 54/54/54
f 95/95/95 37/37/37 60/60/60
f 19/19/19 86/86/86 142/142/142
f 88/88/88 56/56/56 40/40/40
f 144/144/144 40/40/40 56/56/56
f 96/96/96 149/149/149 144/144/144
f 81/81/81 60/60/60 37/37/37
f 87/87/87 46/46/46 40/40/40
f 110/110/110 22/22/22 61/61/61
f 87/87/87 155/155/155 46/46/46
f 144/144/144 56/56/56 97/97/97
f 23/23/23 81/81/81 143/143/143
f 64/64/64 91/91/91 89/89/89
f 156/156/156 96/96/96 57/57/57
f 67/67/67 88/88/88 86/86/86
f 7/7/7 99/99/99 88/88/88
f 7/7/7 70/70/70 99/99/99
f 67/67/67 7/7/7 88/88/88
f 19/19/19 67/67/67 86/86/86
f 68/68/68 19/19/19 142/142/142
f 73/73/73 102/102/102 100/100/100
f 4/4/4 68/68/68 102/102/102
f 73/73/73 4/4/4 102/102/102
f 16/16/16 73/73/73 100/100/100
f 74/74/74 16/16/16 139/139/139
f 8/8/8 74/74/74 108/108/108
f 39/39/39 89/89/89 91/91/91
f 153/153/153 93/93/93 48/48/48
f 116/116/116 42/42/42 30/30/30
f 134/134/134 138/138/138 80/80/80
f 61/61/61 123/123/123 124/124/124
f 145/145/145 26/26/26 52/52/52
f 87/87/87 40/40/40 149/149/149
f 128/128/128 71/71/71 8/8/8
f 149/149/149 150/150/150 11/11/11
f 132/132/132 148/148/148 145/145/145
f 145/145/145 138/138/138 132/132/132
f 150/150/150 156/156/156 34/34/34
f 147/147/147 49/49/49 90/90/90
f 156/156/156 150/150/150 149/149/149
f 155/155/155 101/101/101 46/46/46
f 35/35/35 50/50/50 101/101/101
f 147/147/147 90/90/90 143/143/143
f 101/101/101 155/155/155 11/11/11
f 155/155/155 87/87/87 11/11/11
f 93/93/93 153/153/153 10/10/10
f 154/154/154 13/13/13 127/127/127
f 114/114/114 157/157/157 47/47/47
f 157/157/157 84/84/84 47/47/47
f 11/11/11 158/158/158 107/107/107
f 158/158/158 51/51/51 107/107/107
f 51/51/51 158/158/158 150/150/150
f 158/158/158 11/11/11 150/150/150
