# frame 000292 
# time 0.146500 
# name Box 
v 0.802447 0.495045 -0.331750
v 0.802447 0.495045 0.068250
v 0.505045 0.227553 0.068250
v 0.802447 0.495045 -0.331750
v 0.505045 0.227553 0.068250
v 0.505045 0.227553 -0.331750
v 0.534955 0.792447 -0.331750
v 0.237553 0.524955 -0.331750
v 0.237553 0.524955 0.068250
v 0.534955 0.792447 -0.331750
v 0.237553 0.524955 0.068250
v 0.534955 0.792447 0.068250
v 0.802447 0.495045 -0.331750
v 0.534955 0.792447 -0.331750
v 0.534955 0.792447 0.068250
v 0.802447 0.495045 -0.331750
v 0.534955 0.792447 0.068250
v 0.802447 0.495045 0.068250
v 0.802447 0.495045 0.068250
v 0.534955 0.792447 0.068250
v 0.237553 0.524955 0.068250
v 0.802447 0.495045 0.068250
v 0.237553 0.524955 0.068250
v 0.505045 0.227553 0.068250
v 0.505045 0.227553 0.068250
v 0.237553 0.524955 0.068250
v 0.237553 0.524955 -0.331750
v 0.505045 0.227553 0.068250
v 0.237553 0.524955 -0.331750
v 0.505045 0.227553 -0.331750
v 0.534955 0.792447 -0.331750
v 0.802447 0.495045 -0.331750
v 0.505045 0.227553 -0.331750
v 0.534955 0.792447 -0.331750
v 0.505045 0.227553 -0.331750
v 0.237553 0.524955 -0.331750
vn 0.133746 -0.148701 0.000000
vn 0.133746 -0.148701 0.000000
vn 0.133746 -0.148701 0.000000
vn 0.133746 -0.148701 0.000000
vn 0.133746 -0.148701 0.000000
vn 0.133746 -0.148701 0.000000
vn -0.133746 0.148701 0.000000
vn -0.133746 0.148701 0.000000
vn -0.133746 0.148701 0.000000
vn -0.133746 0.148701 0.000000
vn -0.133746 0.148701 0.000000
vn -0.133746 0.148701 0.000000
vn 0.148701 0.133746 0.000000
vn 0.148701 0.133746 0.000000
vn 0.148701 0.133746 0.000000
vn 0.148701 0.133746 0.000000
vn 0.148701 0.133746 0.000000
vn 0.148701 0.133746 0.000000
vn 0.000000 0.000000 0.200000
vn 0.000000 0.000000 0.200000
vn 0.000000 0.000000 0.200000
vn 0.000000 0.000000 0.200000
vn 0.000000 0.000000 0.200000
vn 0.000000 0.000000 0.200000
vn -0.148701 -0.133746 -0.000000
vn -0.148701 -0.133746 -0.000000
vn -0.148701 -0.133746 -0.000000
vn -0.148701 -0.133746 -0.000000
vn -0.148701 -0.133746 -0.000000
vn -0.148701 -0.133746 -0.000000
vn 0.000000 0.000000 -0.200000
vn 0.000000 0.000000 -0.200000
vn 0.000000 0.000000 -0.200000
vn 0.000000 0.000000 -0.200000
vn 0.000000 0.000000 -0.200000
vn 0.000000 0.000000 -0.200000
f 1/1/1 2/2/2 3/3/3
f 4/4/4 5/5/5 6/6/6
f 7/7/7 8/8/8 9/9/9
f 10/10/10 11/11/11 12/12/12
f 13/13/13 14/14/14 15/15/15
f 16/16/16 17/17/17 18/18/18
f 19/19/19 20/20/20 21/21/21
f 22/22/22 23/23/23 24/24/24
f 25/25/25 26/26/26 27/27/27
f 28/28/28 29/29/29 30/30/30
f 31/31/31 32/32/32 33/33/33
f 34/34/34 35/35/35 36/36/36
