# frame 000228 
# time 0.114500 
# name Cloth3D 
v -0.000000 0.000000 -0.000000
v 1.000000 0.000000 -0.000000
v -0.000000 1.000000 0.000000
v 1.000000 1.000000 0.000000
v 0.499913 0.499647 0.052034
v -0.000000 0.500000 0.000000
v 0.500000 1.000000 0.000000
v 1.000000 0.500000 0.000000
v 0.500000 -0.000000 0.000000
v 0.251052 0.748687 0.013605
v 0.748986 0.749813 0.019384
v 0.252069 0.251175 0.006792
v 0.749392 0.251509 0.014446
v 0.750000 0.000000 0.000000
v 0.250000 0.000000 0.000000
v 1.000000 0.750000 0.000000
v 1.000000 0.250000 0.000000
v 0.250000 1.000000 0.000000
v 0.750000 1.000000 0.000000
v 0.000000 0.250000 0.000000
v 0.000000 0.750000 -0.000000
v 0.368143 0.220766 0.017341
v 0.248290 0.500314 0.043588
v 0.500896 0.751565 0.046114
v 0.372049 0.370957 0.052186
v 0.876684 0.375595 0.023894
v 0.624416 0.124953 0.015083
v 0.626143 0.373423 0.052034
v 0.874568 0.125670 -0.000653
v 0.375268 0.124641 0.016862
v 0.125676 0.125550 -0.009508
v 0.750118 0.687500 0.029279
v 0.876497 0.625231 0.025900
v 0.626363 0.626061 0.052034
v 0.874468 0.874794 0.002766
v 0.375656 0.875056 0.016133
v 0.373891 0.626111 0.052034
v 0.125660 0.874380 -0.005799
v 0.124198 0.625132 0.020807
v 0.625207 0.877360 0.029176
v 0.126188 0.376147 0.003632
v 0.251113 0.125758 0.000390
v 0.874593 0.749869 0.010927
v 0.875025 0.250689 0.011432
v 0.250834 0.874199 0.004510
v 0.749403 0.875412 0.012905
v 0.126190 0.250929 -0.002820
v 0.125711 0.749146 0.003230
v 0.305176 0.713027 0.026504
v 0.278075 0.435307 0.038939
v 0.750932 0.624803 0.036673
v 0.879101 0.500191 0.039593
v 0.368955 0.650231 0.052186
v 0.376060 0.749504 0.028177
v 0.000000 0.375000 0.000000
v 0.500036 0.877539 0.032820
v 0.500161 0.626064 0.052035
v 0.251485 0.376454 0.019201
v 0.124142 0.500134 0.021701
v 0.373594 0.499763 0.052035
v 0.623914 0.250503 0.027514
v 0.499812 0.123008 0.028804
v 0.499636 0.373286 0.052035
v 0.000000 0.625000 0.000000
v 0.000000 0.875000 0.000000
v 0.000000 0.125000 0.000000
v 0.625000 1.000000 0.000000
v 0.875000 1.000000 0.000000
v 0.125000 1.000000 0.000000
v 0.375000 1.000000 0.000000
v 1.000000 0.375000 0.000000
v 1.000000 0.125000 0.000000
v 1.000000 0.875000 0.000000
v 1.000000 0.625000 0.000000
v 0.375000 0.000000 0.000000
v 0.125000 0.000000 0.000000
v 0.875000 0.000000 0.000000
v 0.625000 0.000000 0.000000
v 0.749210 0.125820 0.003449
v 0.626350 0.499676 0.052035
v 0.342972 0.562880 0.052112
v 0.063175 0.312998 0.000359
v 0.187703 0.438338 0.021590
v 0.189299 0.313837 0.004866
v 0.062623 0.437745 0.006701
v 0.687662 0.939199 0.016637
v 0.686483 0.813141 0.022423
v 0.562535 0.940236 0.021599
v 0.062455 0.687403 0.007037
v 0.187952 0.686416 0.015415
v 0.062479 0.562554 0.008571
v 0.187851 0.937062 0.000082
v 0.188286 0.811626 0.004721
v 0.062624 0.937383 -0.005602
v 0.436886 0.562868 0.052035
v 0.524578 0.750491 0.052179
v 0.438309 0.813248 0.030081
v 0.313879 0.811379 0.011510
v 0.437580 0.938682 0.015371
v 0.937330 0.812467 0.005515
v 0.811397 0.812145 0.005999
v 0.937323 0.937370 -0.000954
v 0.705577 0.590631 0.052179
v 0.563197 0.562840 0.052035
v 0.422951 0.684997 0.052179
v 0.814510 0.561886 0.035160
v 0.812427 0.687053 0.020018
v 0.939971 0.562749 0.020785
v 0.313610 0.262446 0.013540
v 0.567196 0.302874 0.052179
v 0.436594 0.436454 0.052035
v 0.187959 0.062876 -0.004007
v 0.062518 0.062505 -0.007622
v 0.188924 0.188476 -0.002756
v 0.312696 0.062535 0.006334
v 0.314721 0.188316 0.007385
v 0.437547 0.061830 0.012168
v 0.812260 0.062925 0.002469
v 0.937353 0.062684 -0.004085
v 0.336226 0.426568 0.052179
v 0.562998 0.436494 0.052035
v 0.295755 0.489364 0.052179
v 0.562167 0.186370 0.031954
v 0.686331 0.188686 0.011250
v 0.562422 0.061404 0.014633
v 0.938411 0.312609 0.012945
v 0.812675 0.314148 0.017665
v 0.940671 0.437538 0.022775
v 0.312800 0.937365 0.006638
v 0.186567 0.625067 0.029069
v 0.811837 0.188817 0.003504
v 0.251884 0.188558 0.001016
v 0.687423 0.062337 0.010337
v 0.689580 0.436564 0.052035
v 0.937253 0.187924 0.001583
v 0.436590 0.185058 0.038620
v 0.062876 0.187963 -0.006135
v 0.755773 0.512742 0.052179
v 0.937848 0.687535 0.010283
v 0.670131 0.369211 0.052179
v 0.062915 0.812125 -0.001797
v 0.812402 0.937683 0.007241
v 0.185621 0.562886 0.036252
v 0.563222 0.815350 0.044212
v 0.722428 0.402806 0.052186
v 0.460254 0.233623 0.052192
v 0.243639 0.569720 0.052192
v 0.796362 0.450280 0.052192
v 0.579720 0.786361 0.052192
v 0.666808 0.650790 0.052179
v 0.511159 0.266762 0.052179
v 0.299146 0.333559 0.019708
v 0.317598 0.617223 0.052189
v 0.713331 0.301673 0.027370
v 0.749242 0.812707 0.016354
v 0.582131 0.674048 0.052107
v 0.281709 0.655851 0.032156
v 0.688571 0.758525 0.031505
v 0.406176 0.317853 0.052189
v 0.632862 0.703610 0.052186
v 0.801705 0.374191 0.027808
vt 0.000000 0.000000
vt 1.000000 0.000000
vt 0.000000 1.000000
vt 1.000000 1.000000
vt 0.500000 0.500000
vt 0.000000 0.500000
vt 0.500000 1.000000
vt 1.000000 0.500000
vt 0.500000 0.000000
vt 0.250000 0.750000
vt 0.750000 0.750000
vt 0.250000 0.250000
vt 0.750000 0.250000
vt 0.750000 0.000000
vt 0.250000 0.000000
vt 1.000000 0.750000
vt 1.000000 0.250000
vt 0.250000 1.000000
vt 0.750000 1.000000
vt 0.000000 0.250000
vt 0.000000 0.750000
vt 0.365347 0.220303
vt 0.250000 0.500000
vt 0.500000 0.750000
vt 0.373875 0.372696
vt 0.875000 0.375000
vt 0.625000 0.125000
vt 0.625000 0.375000
vt 0.875000 0.125000
vt 0.375000 0.125000
vt 0.125000 0.125000
vt 0.750000 0.687500
vt 0.875000 0.625000
vt 0.625000 0.625000
vt 0.875000 0.875000
vt 0.375000 0.875000
vt 0.375000 0.625000
vt 0.125000 0.875000
vt 0.125000 0.625000
vt 0.625000 0.875000
vt 0.125000 0.375000
vt 0.250000 0.125000
vt 0.875000 0.750000
vt 0.875000 0.250000
vt 0.250000 0.875000
vt 0.750000 0.875000
vt 0.125000 0.250000
vt 0.125000 0.750000
vt 0.304602 0.713891
vt 0.278861 0.435152
vt 0.750000 0.625000
vt 0.875000 0.500000
vt 0.370023 0.648857
vt 0.375000 0.750000
vt 0.000000 0.375000
vt 0.500000 0.875000
vt 0.500000 0.625000
vt 0.250000 0.375000
vt 0.125000 0.500000
vt 0.375000 0.500000
vt 0.625000 0.250000
vt 0.500000 0.125000
vt 0.500000 0.375000
vt 0.000000 0.625000
vt 0.000000 0.875000
vt 0.000000 0.125000
vt 0.625000 1.000000
vt 0.875000 1.000000
vt 0.125000 1.000000
vt 0.375000 1.000000
vt 1.000000 0.375000
vt 1.000000 0.125000
vt 1.000000 0.875000
vt 1.000000 0.625000
vt 0.375000 0.000000
vt 0.125000 0.000000
vt 0.875000 0.000000
vt 0.625000 0.000000
vt 0.750000 0.125000
vt 0.625000 0.500000
vt 0.344661 0.562348
vt 0.062500 0.312500
vt 0.187500 0.437500
vt 0.187500 0.312500
vt 0.062500 0.437500
vt 0.687500 0.937500
vt 0.687500 0.812500
vt 0.562500 0.937500
vt 0.062500 0.687500
vt 0.187500 0.687500
vt 0.062500 0.562500
vt 0.187500 0.937500
vt 0.187500 0.812500
vt 0.062500 0.937500
vt 0.437500 0.562500
vt 0.524116 0.747841
vt 0.437500 0.812500
vt 0.312500 0.812500
vt 0.437500 0.937500
vt 0.937500 0.812500
vt 0.812500 0.812500
vt 0.937500 0.937500
vt 0.703343 0.590032
vt 0.562500 0.562500
vt 0.423441 0.683267
vt 0.812500 0.562500
vt 0.812500 0.687500
vt 0.937500 0.562500
vt 0.311128 0.261404
vt 0.566853 0.305241
vt 0.437500 0.437500
vt 0.187500 0.062500
vt 0.062500 0.062500
vt 0.187500 0.187500
vt 0.312500 0.062500
vt 0.312500 0.187500
vt 0.437500 0.062500
vt 0.812500 0.062500
vt 0.937500 0.062500
vt 0.338139 0.427604
vt 0.562500 0.437500
vt 0.297933 0.489614
vt 0.562500 0.187500
vt 0.687500 0.187500
vt 0.562500 0.062500
vt 0.937500 0.312500
vt 0.812500 0.312500
vt 0.937500 0.437500
vt 0.312500 0.937500
vt 0.187500 0.625000
vt 0.812500 0.187500
vt 0.250000 0.187500
vt 0.687500 0.062500
vt 0.687500 0.437500
vt 0.937500 0.187500
vt 0.437500 0.187500
vt 0.062500 0.187500
vt 0.752773 0.512937
vt 0.937500 0.687500
vt 0.668480 0.370781
vt 0.062500 0.812500
vt 0.812500 0.937500
vt 0.187500 0.562500
vt 0.562500 0.812500
vt 0.719978 0.404069
vt 0.461317 0.237144
vt 0.246796 0.568896
vt 0.792568 0.451093
vt 0.578737 0.782910
vt 0.665070 0.649488
vt 0.511595 0.269552
vt 0.296906 0.332149
vt 0.319399 0.616001
vt 0.713437 0.300753
vt 0.750000 0.812500
vt 0.581168 0.672349
vt 0.281585 0.657008
vt 0.688844 0.757642
vt 0.407793 0.320258
vt 0.631454 0.701602
vt 0.800716 0.372483
vn 0.061809 0.061809 0.996172
vn -0.034232 0.034232 0.998827
vn 0.046193 -0.046193 0.997864
vn -0.009573 -0.009573 0.999908
vn 0.000000 0.000000 1.000000
vn -0.115317 -0.007126 0.993303
vn -0.025591 0.288918 0.957012
vn 0.339533 0.009164 0.940549
vn -0.010137 -0.206118 0.978475
vn -0.102602 0.127588 0.986506
vn 0.175317 0.101664 0.979249
vn -0.091642 -0.085404 0.992123
vn 0.085849 -0.144251 0.985810
vn 0.031556 -0.096099 0.994871
vn -0.040714 -0.012744 0.999090
vn 0.121930 0.018741 0.992362
vn 0.111561 -0.045506 0.992715
vn -0.026439 0.048040 0.998495
vn 0.037894 0.187077 0.981614
vn 0.051798 -0.025803 0.998324
vn -0.035106 0.034833 0.998776
vn -0.229714 -0.104081 0.967677
vn -0.204184 -0.145112 0.968118
vn -0.193714 0.252963 0.947884
vn -0.164040 -0.104877 0.980863
vn 0.085167 -0.151828 0.984731
vn 0.101143 -0.071180 0.992322
vn -0.001781 0.002490 0.999995
vn 0.025781 -0.026431 0.999318
vn -0.140406 -0.087053 0.986260
vn -0.022184 -0.002595 0.999751
vn 0.176615 0.139210 0.974386
vn 0.092291 0.110101 0.989626
vn -0.001293 -0.001267 0.999998
vn 0.037663 0.023613 0.999011
vn -0.112337 0.075047 0.990832
vn 0.002920 -0.003869 0.999988
vn -0.035177 0.021631 0.999147
vn -0.153499 0.100300 0.983045
vn 0.095353 0.134708 0.986287
vn -0.075829 -0.095557 0.992531
vn -0.090367 -0.005052 0.995896
vn 0.046355 0.083257 0.995449
vn 0.033152 -0.101378 0.994295
vn -0.069752 0.036402 0.996900
vn 0.109873 0.030565 0.993476
vn -0.031075 -0.053790 0.998069
vn -0.051828 0.091624 0.994444
vn -0.147245 0.176405 0.973242
vn -0.224512 -0.181402 0.957438
vn 0.191116 0.139568 0.971594
vn 0.163913 0.030901 0.985991
vn -0.041153 0.057701 0.997485
vn -0.139853 0.183975 0.972931
vn -0.050308 -0.025520 0.998408
vn -0.067573 0.145078 0.987110
vn -0.000031 -0.000724 1.000000
vn -0.166713 -0.182544 0.968961
vn -0.183730 -0.068268 0.980603
vn 0.001196 0.000191 0.999999
vn 0.156215 -0.177696 0.971607
vn 0.013167 -0.174798 0.984516
vn 0.000243 0.000853 1.000000
vn -0.117045 0.006262 0.993107
vn 0.063193 0.014604 0.997894
vn 0.112929 -0.005157 0.993590
vn 0.020163 0.299288 0.953950
vn 0.032994 0.046600 0.998369
vn -0.022011 -0.048462 0.998582
vn -0.035502 0.170582 0.984704
vn 0.279865 -0.040584 0.959181
vn -0.023686 -0.022483 0.999467
vn 0.032841 0.026077 0.999120
vn 0.241578 0.042390 0.969455
vn -0.023357 -0.140345 0.989827
vn -0.013887 0.095639 0.995319
vn 0.025545 0.017531 0.999520
vn 0.017214 -0.192204 0.981204
vn 0.062242 -0.006837 0.998038
vn -0.000413 -0.000209 1.000000
vn 0.001410 -0.000217 0.999999
vn 0.000633 -0.038532 0.999257
vn -0.159257 -0.165838 0.973209
vn -0.097304 -0.086514 0.991487
vn -0.096712 -0.052921 0.993905
vn 0.062253 0.163669 0.984549
vn 0.143851 0.122045 0.982045
vn 0.004482 0.242017 0.970262
vn -0.092377 0.055815 0.994159
vn -0.097299 0.174861 0.979774
vn -0.165771 0.001340 0.986163
vn -0.044864 -0.008943 0.998953
vn -0.077960 0.072368 0.994327
vn 0.024566 -0.028275 0.999298
vn 0.000255 -0.000000 1.000000
vn -0.157733 0.200920 0.966825
vn -0.135519 0.100838 0.985630
vn -0.103535 0.091394 0.990418
vn -0.064883 0.189465 0.979741
vn 0.050472 0.039112 0.997959
vn 0.093346 0.057101 0.993995
vn 0.016079 0.012644 0.999791
vn 0.128906 0.090962 0.987476
vn -0.000000 -0.000175 1.000000
vn -0.082158 0.133837 0.987592
vn 0.111187 0.127115 0.985636
vn 0.094202 0.119065 0.988408
vn 0.255692 0.054258 0.965235
vn -0.154773 -0.120962 0.980517
vn 0.083675 -0.130146 0.987958
vn 0.000662 0.000575 1.000000
vn -0.046866 0.039751 0.998110
vn 0.043624 0.048026 0.997893
vn -0.065999 -0.048383 0.996646
vn -0.065773 -0.065835 0.995660
vn -0.127716 -0.044269 0.990822
vn -0.040352 -0.178951 0.983030
vn 0.036948 -0.007326 0.999290
vn -0.006676 0.008198 0.999944
vn -0.142971 -0.102694 0.984385
vn 0.000000 -0.000000 1.000000
vn -0.140954 -0.102385 0.984708
vn 0.133803 -0.138786 0.981242
vn 0.106123 -0.096354 0.989674
vn 0.031449 -0.170088 0.984927
vn 0.127650 -0.068477 0.989453
vn 0.067020 -0.130107 0.989232
vn 0.248852 -0.047754 0.967363
vn -0.054014 0.077342 0.995540
vn -0.149874 0.183307 0.971564
vn 0.032629 -0.091379 0.995282
vn -0.079369 -0.050276 0.995577
vn 0.047429 -0.069209 0.996474
vn -0.001503 0.001507 0.999998
vn 0.028084 -0.058036 0.997919
vn -0.179222 -0.153738 0.971722
vn 0.052160 -0.028753 0.998225
vn 0.101020 0.065114 0.992751
vn 0.142387 0.060656 0.987951
vn 0.053535 -0.086220 0.994837
vn 0.013693 0.042965 0.998983
vn 0.055801 0.057892 0.996762
vn -0.226974 0.021573 0.973662
vn -0.075256 0.210389 0.974717
vn 0.066544 -0.097418 0.993016
vn -0.087573 -0.150688 0.984695
vn -0.179942 0.038743 0.982914
vn 0.113634 -0.088895 0.989538
vn -0.025445 0.173009 0.984592
vn 0.078097 0.049665 0.995708
vn 0.073882 -0.095206 0.992712
vn -0.207461 -0.160119 0.965050
vn -0.089997 0.142008 0.985766
vn 0.135237 -0.202484 0.969903
vn 0.145216 0.065900 0.987203
vn -0.000301 -0.001200 0.999999
vn -0.169423 0.236512 0.956743
vn 0.192238 0.137161 0.971716
vn -0.160379 -0.104419 0.981517
vn 0.089249 0.056580 0.994401
vn 0.107808 -0.226901 0.967932
f 1/1/1 113/113/113 66/66/66
f 31/31/31 137/137/137 113/113/113
f 161/161/161 127/127/127 26/26/26
f 112/112/112 31/31/31 113/113/113
f 136/136/136 123/123/123 146/146/146
f 106/106/106 52/52/52 33/33/33
f 50/50/50 58/58/58 120/120/120
f 84/84/84 41/41/41 47/47/47
f 137/137/137 66/66/66 113/113/113
f 75/75/75 115/115/115 15/15/15
f 12/12/12 152/152/152 84/84/84
f 23/23/23 147/147/147 143/143/143
f 25/25/25 120/120/120 152/152/152
f 76/76/76 113/113/113 1/1/1
f 76/76/76 112/112/112 113/113/113
f 15/15/15 112/112/112 76/76/76
f 115/115/115 112/112/112 15/15/15
f 30/30/30 115/115/115 117/117/117
f 108/108/108 33/33/33 52/52/52
f 75/75/75 117/117/117 115/115/115
f 115/115/115 30/30/30 42/42/42
f 145/145/145 140/140/140 154/154/154
f 51/51/51 150/150/150 103/103/103
f 136/136/136 22/22/22 30/30/30
f 90/90/90 10/10/10 48/48/48
f 54/54/54 98/98/98 49/49/49
f 42/42/42 112/112/112 115/115/115
f 58/58/58 84/84/84 152/152/152
f 13/13/13 154/154/154 124/124/124
f 60/60/60 120/120/120 111/111/111
f 127/127/127 13/13/13 44/44/44
f 26/26/26 127/127/127 126/126/126
f 101/101/101 43/43/43 35/35/35
f 104/104/104 80/80/80 34/34/34
f 10/10/10 49/49/49 98/98/98
f 50/50/50 122/122/122 23/23/23
f 49/49/49 53/53/53 54/54/54
f 117/117/117 62/62/62 30/30/30
f 148/148/148 26/26/26 52/52/52
f 62/62/62 123/123/123 136/136/136
f 77/77/77 2/2/2 119/119/119
f 77/77/77 119/119/119 118/118/118
f 71/71/71 128/128/128 126/126/126
f 58/58/58 152/152/152 120/120/120
f 63/63/63 28/28/28 121/121/121
f 119/119/119 29/29/29 118/118/118
f 122/122/122 50/50/50 120/120/120
f 125/125/125 27/27/27 62/62/62
f 135/135/135 72/72/72 17/17/17
f 136/136/136 30/30/30 62/62/62
f 138/138/138 148/148/148 106/106/106
f 60/60/60 122/122/122 120/120/120
f 153/153/153 53/53/53 157/157/157
f 11/11/11 32/32/32 107/107/107
f 107/107/107 43/43/43 11/11/11
f 150/150/150 160/160/160 34/34/34
f 32/32/32 158/158/158 150/150/150
f 147/147/147 157/157/157 130/130/130
f 151/151/151 146/146/146 123/123/123
f 154/154/154 140/140/140 61/61/61
f 82/82/82 47/47/47 41/41/41
f 45/45/45 98/98/98 36/36/36
f 82/82/82 137/137/137 47/47/47
f 61/61/61 124/124/124 154/154/154
f 26/26/26 126/126/126 128/128/128
f 62/62/62 117/117/117 125/125/125
f 20/20/20 137/137/137 82/82/82
f 38/38/38 92/92/92 94/94/94
f 20/20/20 66/66/66 137/137/137
f 55/55/55 20/20/20 82/82/82
f 69/69/69 94/94/94 92/92/92
f 12/12/12 114/114/114 132/132/132
f 8/8/8 108/108/108 128/128/128
f 141/141/141 48/48/48 38/38/38
f 24/24/24 144/144/144 97/97/97
f 65/65/65 141/141/141 94/94/94
f 114/114/114 31/31/31 42/42/42
f 38/38/38 94/94/94 141/141/141
f 92/92/92 18/18/18 69/69/69
f 97/97/97 54/54/54 24/24/24
f 151/151/151 110/110/110 63/63/63
f 46/46/46 35/35/35 142/142/142
f 29/29/29 119/119/119 135/135/135
f 83/83/83 23/23/23 59/59/59
f 151/151/151 63/63/63 159/159/159
f 35/35/35 46/46/46 101/101/101
f 129/129/129 45/45/45 36/36/36
f 27/27/27 124/124/124 123/123/123
f 85/85/85 41/41/41 59/59/59
f 78/78/78 125/125/125 9/9/9
f 70/70/70 129/129/129 99/99/99
f 83/83/83 59/59/59 41/41/41
f 129/129/129 70/70/70 18/18/18
f 36/36/36 99/99/99 129/129/129
f 93/93/93 38/38/38 48/48/48
f 38/38/38 45/45/45 92/92/92
f 52/52/52 128/128/128 108/108/108
f 65/65/65 94/94/94 3/3/3
f 72/72/72 135/135/135 119/119/119
f 94/94/94 69/69/69 3/3/3
f 39/39/39 90/90/90 48/48/48
f 21/21/21 141/141/141 65/65/65
f 18/18/18 92/92/92 129/129/129
f 6/6/6 91/91/91 64/64/64
f 105/105/105 24/24/24 54/54/54
f 93/93/93 45/45/45 38/38/38
f 89/89/89 39/39/39 48/48/48
f 13/13/13 124/124/124 131/131/131
f 45/45/45 129/129/129 92/92/92
f 9/9/9 125/125/125 117/117/117
f 64/64/64 89/89/89 21/21/21
f 55/55/55 82/82/82 85/85/85
f 6/6/6 85/85/85 91/91/91
f 59/59/59 91/91/91 85/85/85
f 41/41/41 85/85/85 82/82/82
f 6/6/6 55/55/55 85/85/85
f 146/146/146 151/151/151 159/159/159
f 59/59/59 39/39/39 91/91/91
f 109/109/109 22/22/22 159/159/159
f 143/143/143 39/39/39 59/59/59
f 118/118/118 29/29/29 79/79/79
f 58/58/58 50/50/50 83/83/83
f 134/134/134 148/148/148 138/138/138
f 58/58/58 83/83/83 84/84/84
f 119/119/119 2/2/2 72/72/72
f 49/49/49 157/157/157 53/53/53
f 11/11/11 158/158/158 32/32/32
f 138/138/138 103/103/103 80/80/80
f 10/10/10 98/98/98 93/93/93
f 21/21/21 89/89/89 141/141/141
f 105/105/105 53/53/53 37/37/37
f 51/51/51 32/32/32 150/150/150
f 79/79/79 133/133/133 118/118/118
f 118/118/118 133/133/133 14/14/14
f 79/79/79 131/131/131 124/124/124
f 100/100/100 35/35/35 43/43/43
f 143/143/143 59/59/59 23/23/23
f 48/48/48 141/141/141 89/89/89
f 78/78/78 133/133/133 125/125/125
f 62/62/62 27/27/27 123/123/123
f 53/53/53 153/153/153 37/37/37
f 37/37/37 81/81/81 95/95/95
f 60/60/60 95/95/95 81/81/81
f 156/156/156 34/34/34 160/160/160
f 5/5/5 95/95/95 111/111/111
f 148/148/148 145/145/145 161/161/161
f 57/57/57 37/37/37 95/95/95
f 37/37/37 57/57/57 105/105/105
f 27/27/27 125/125/125 133/133/133
f 121/121/121 5/5/5 111/111/111
f 160/160/160 150/150/150 158/158/158
f 61/61/61 151/151/151 123/123/123
f 17/17/17 126/126/126 135/135/135
f 41/41/41 84/84/84 83/83/83
f 131/131/131 44/44/44 13/13/13
f 60/60/60 111/111/111 95/95/95
f 28/28/28 134/134/134 80/80/80
f 104/104/104 95/95/95 5/5/5
f 28/28/28 140/140/140 134/134/134
f 24/24/24 105/105/105 96/96/96
f 57/57/57 95/95/95 104/104/104
f 24/24/24 96/96/96 144/144/144
f 132/132/132 42/42/42 116/116/116
f 12/12/12 132/132/132 116/116/116
f 45/45/45 93/93/93 98/98/98
f 110/110/110 28/28/28 63/63/63
f 106/106/106 103/103/103 138/138/138
f 9/9/9 117/117/117 75/75/75
f 26/26/26 128/128/128 52/52/52
f 54/54/54 97/97/97 98/98/98
f 130/130/130 90/90/90 39/39/39
f 101/101/101 11/11/11 43/43/43
f 99/99/99 36/36/36 56/56/56
f 80/80/80 104/104/104 5/5/5
f 23/23/23 83/83/83 50/50/50
f 126/126/126 17/17/17 71/71/71
f 109/109/109 12/12/12 116/116/116
f 44/44/44 126/126/126 127/127/127
f 144/144/144 149/149/149 40/40/40
f 103/103/103 150/150/150 34/34/34
f 36/36/36 98/98/98 97/97/97
f 153/153/153 81/81/81 37/37/37
f 96/96/96 156/156/156 149/149/149
f 122/122/122 147/147/147 23/23/23
f 26/26/26 148/148/148 161/161/161
f 157/157/157 147/147/147 153/153/153
f 120/120/120 25/25/25 111/111/111
f 12/12/12 109/109/109 152/152/152
f 14/14/14 133/133/133 78/78/78
f 140/140/140 110/110/110 61/61/61
f 107/107/107 106/106/106 33/33/33
f 44/44/44 135/135/135 126/126/126
f 51/51/51 103/103/103 106/106/106
f 34/34/34 156/156/156 104/104/104
f 57/57/57 104/104/104 156/156/156
f 121/121/121 80/80/80 5/5/5
f 63/63/63 121/121/121 111/111/111
f 121/121/121 28/28/28 80/80/80
f 77/77/77 118/118/118 14/14/14
f 10/10/10 93/93/93 48/48/48
f 103/103/103 34/34/34 80/80/80
f 131/131/131 79/79/79 29/29/29
f 140/140/140 145/145/145 134/134/134
f 49/49/49 10/10/10 157/157/157
f 124/124/124 27/27/27 79/79/79
f 139/139/139 33/33/33 108/108/108
f 107/107/107 33/33/33 43/43/43
f 133/133/133 79/79/79 27/27/27
f 145/145/145 148/148/148 134/134/134
f 139/139/139 43/43/43 33/33/33
f 11/11/11 155/155/155 158/158/158
f 96/96/96 105/105/105 57/57/57
f 140/140/140 28/28/28 110/110/110
f 51/51/51 106/106/106 107/107/107
f 127/127/127 161/161/161 154/154/154
f 97/97/97 56/56/56 36/36/36
f 86/86/86 46/46/46 142/142/142
f 112/112/112 42/42/42 31/31/31
f 40/40/40 46/46/46 86/86/86
f 74/74/74 139/139/139 108/108/108
f 100/100/100 43/43/43 139/139/139
f 137/137/137 31/31/31 47/47/47
f 114/114/114 47/47/47 31/31/31
f 88/88/88 40/40/40 86/86/86
f 16/16/16 100/100/100 139/139/139
f 102/102/102 35/35/35 100/100/100
f 68/68/68 142/142/142 102/102/102
f 88/88/88 99/99/99 56/56/56
f 142/142/142 35/35/35 102/102/102
f 53/53/53 105/105/105 54/54/54
f 147/147/147 122/122/122 81/81/81
f 19/19/19 86/86/86 142/142/142
f 88/88/88 56/56/56 40/40/40
f 144/144/144 40/40/40 56/56/56
f 96/96/96 149/149/149 144/144/144
f 44/44/44 131/131/131 135/135/135
f 87/87/87 46/46/46 40/40/40
f 81/81/81 153/153/153 147/147/147
f 87/87/87 155/155/155 46/46/46
f 144/144/144 56/56/56 97/97/97
f 60/60/60 81/81/81 122/122/122
f 64/64/64 91/91/91 89/89/89
f 156/156/156 96/96/96 57/57/57
f 67/67/67 88/88/88 86/86/86
f 7/7/7 99/99/99 88/88/88
f 7/7/7 70/70/70 99/99/99
f 67/67/67 7/7/7 88/88/88
f 19/19/19 67/67/67 86/86/86
f 68/68/68 19/19/19 142/142/142
f 73/73/73 102/102/102 100/100/100
f 4/4/4 68/68/68 102/102/102
f 73/73/73 4/4/4 102/102/102
f 16/16/16 73/73/73 100/100/100
f 74/74/74 16/16/16 139/139/139
f 8/8/8 74/74/74 108/108/108
f 39/39/39 89/89/89 91/91/91
f 116/116/116 22/22/22 109/109/109
f 116/116/116 42/42/42 30/30/30
f 134/134/134 138/138/138 80/80/80
f 61/61/61 123/123/123 124/124/124
f 106/106/106 148/148/148 52/52/52
f 87/87/87 40/40/40 149/149/149
f 128/128/128 71/71/71 8/8/8
f 90/90/90 130/130/130 157/157/157
f 32/32/32 51/51/51 107/107/107
f 42/42/42 132/132/132 114/114/114
f 130/130/130 143/143/143 147/147/147
f 29/29/29 135/135/135 131/131/131
f 25/25/25 152/152/152 159/159/159
f 155/155/155 101/101/101 46/46/46
f 154/154/154 161/161/161 145/145/145
f 84/84/84 114/114/114 12/12/12
f 101/101/101 155/155/155 11/11/11
f 114/114/114 84/84/84 47/47/47
f 146/146/146 22/22/22 136/136/136
f 154/154/154 13/13/13 127/127/127
f 90/90/90 157/157/157 10/10/10
f 143/143/143 130/130/130 39/39/39
f 149/149/149 158/158/158 87/87/87
f 109/109/109 159/159/159 152/152/152
f 116/116/116 30/30/30 22/22/22
f 87/87/87 158/158/158 155/155/155
f 149/149/149 160/160/160 158/158/158
f 160/160/160 149/149/149 156/156/156
f 110/110/110 151/151/151 61/61/61
f 146/146/146 159/159/159 22/22/22
f 25/25/25 159/159/159 111/111/111
f 159/159/159 63/63/63 111/111/111
