# frame 000290 
# time 0.145500 
# name Cloth3D 
v -0.000000 0.000000 -0.000000
v 1.000000 0.000000 -0.000000
v -0.000000 1.000000 0.000000
v 1.000000 1.000000 0.000000
v 0.499652 0.499797 0.067534
v -0.000000 0.500000 0.000000
v 0.500000 1.000000 0.000000
v 1.000000 0.500000 0.000000
v 0.500000 -0.000000 0.000000
v 0.248569 0.751125 0.040468
v 0.752389 0.752714 0.052944
v 0.249711 0.249558 0.030600
v 0.751430 0.248541 0.042767
v 0.750000 0.000000 0.000000
v 0.250000 0.000000 0.000000
v 1.000000 0.750000 0.000000
v 1.000000 0.250000 0.000000
v 0.250000 1.000000 0.000000
v 0.750000 1.000000 0.000000
v 0.000000 0.250000 0.000000
v 0.000000 0.750000 -0.000000
v 0.364450 0.217781 0.047346
v 0.629875 0.774077 0.057125
v 0.495761 0.755711 0.067718
v 0.374705 0.373016 0.067686
v 0.877709 0.374588 0.035699
v 0.625262 0.123045 0.032213
v 0.626518 0.373196 0.067534
v 0.876072 0.123938 0.020380
v 0.374546 0.122606 0.031895
v 0.124759 0.124738 0.012004
v 0.752955 0.689679 0.058361
v 0.878262 0.625790 0.038311
v 0.626516 0.626749 0.067534
v 0.876364 0.876413 0.022636
v 0.374436 0.877595 0.034513
v 0.258672 0.600387 0.060370
v 0.124147 0.875793 0.017757
v 0.121860 0.625442 0.035762
v 0.625380 0.877119 0.033750
v 0.123159 0.374854 0.028557
v 0.249714 0.124161 0.020493
v 0.877565 0.751421 0.033137
v 0.876511 0.249275 0.027419
v 0.249212 0.876754 0.027553
v 0.751129 0.877158 0.031875
v 0.124311 0.249858 0.019043
v 0.123310 0.750628 0.026733
v 0.302800 0.715418 0.052199
v 0.693947 0.507952 0.067607
v 0.753674 0.626686 0.064784
v 0.876951 0.500105 0.035810
v 0.371870 0.645390 0.067686
v 0.373663 0.752716 0.056802
v 0.000000 0.375000 0.000000
v 0.499915 0.877346 0.036359
v 0.499663 0.626764 0.067535
v 0.248095 0.374474 0.047586
v 0.121781 0.500002 0.036631
v 0.372709 0.499717 0.067535
v 0.625811 0.247188 0.056621
v 0.499892 0.121819 0.037611
v 0.499691 0.372923 0.067535
v 0.000000 0.625000 0.000000
v 0.000000 0.875000 0.000000
v 0.000000 0.125000 0.000000
v 0.625000 1.000000 0.000000
v 0.875000 1.000000 0.000000
v 0.125000 1.000000 0.000000
v 0.375000 1.000000 0.000000
v 1.000000 0.375000 0.000000
v 1.000000 0.125000 0.000000
v 1.000000 0.875000 0.000000
v 1.000000 0.625000 0.000000
v 0.375000 0.000000 0.000000
v 0.125000 0.000000 0.000000
v 0.875000 0.000000 0.000000
v 0.625000 0.000000 0.000000
v 0.750760 0.123170 0.028624
v 0.626765 0.499975 0.067535
v 0.341889 0.562842 0.067612
v 0.061488 0.312433 0.014003
v 0.184444 0.437189 0.046451
v 0.186314 0.312174 0.032204
v 0.060763 0.437491 0.018229
v 0.687787 0.938125 0.015007
v 0.688783 0.815705 0.048707
v 0.562521 0.938603 0.017653
v 0.061757 0.687614 0.013992
v 0.185135 0.688189 0.040631
v 0.061273 0.562571 0.017083
v 0.187112 0.938434 0.013245
v 0.186407 0.813491 0.028090
v 0.062308 0.937672 0.005216
v 0.436177 0.563129 0.067535
v 0.838252 0.423190 0.047407
v 0.436719 0.816479 0.053975
v 0.311349 0.814735 0.041931
v 0.437407 0.938933 0.018599
v 0.937922 0.812971 0.011707
v 0.815024 0.815134 0.041505
v 0.938010 0.938011 0.008347
v 0.711405 0.595174 0.067679
v 0.563107 0.563306 0.067535
v 0.420187 0.688371 0.067679
v 0.816850 0.563153 0.056881
v 0.815851 0.689280 0.049665
v 0.937762 0.562720 0.015377
v 0.309994 0.259791 0.044815
v 0.575204 0.291910 0.067679
v 0.436231 0.436344 0.067535
v 0.187323 0.061852 0.011188
v 0.062518 0.062517 0.002541
v 0.187479 0.187411 0.016866
v 0.312470 0.062017 0.011684
v 0.311959 0.185966 0.034721
v 0.437442 0.061130 0.017521
v 0.812829 0.061874 0.012084
v 0.937770 0.062234 0.006344
v 0.330441 0.422752 0.067679
v 0.563135 0.436477 0.067535
v 0.280464 0.478882 0.067679
v 0.562755 0.183372 0.053872
v 0.688612 0.184794 0.045192
v 0.562529 0.060940 0.018641
v 0.938416 0.312332 0.015462
v 0.815299 0.311276 0.046105
v 0.937451 0.437519 0.013853
v 0.312207 0.939158 0.017899
v 0.183749 0.625843 0.049785
v 0.813896 0.186001 0.032762
v 0.804292 0.371562 0.053765
v 0.687628 0.062033 0.013473
v 0.690234 0.436758 0.067534
v 0.938486 0.187118 0.014016
v 0.436883 0.183725 0.051122
v 0.061974 0.187361 0.010402
v 0.773569 0.525353 0.067679
v 0.938889 0.687954 0.017849
v 0.667159 0.373782 0.067679
v 0.061577 0.812811 0.012969
v 0.812965 0.938219 0.013192
v 0.183252 0.562847 0.053369
v 0.776730 0.418925 0.058630
v 0.713825 0.415210 0.067686
v 0.503637 0.227713 0.067692
v 0.237738 0.526333 0.067692
v 0.802263 0.493667 0.067692
v 0.536333 0.792262 0.067692
v 0.663507 0.648973 0.067679
v 0.466742 0.287858 0.067684
v 0.295349 0.330979 0.050490
v 0.325985 0.604637 0.067689
v 0.714994 0.299360 0.051910
v 0.752064 0.815855 0.047835
v 0.581921 0.674995 0.067607
v 0.279327 0.657742 0.054063
v 0.690410 0.760489 0.054889
v 0.416849 0.325560 0.067689
v 0.621580 0.696183 0.067686
v 0.647250 0.309223 0.058102
v 0.362818 0.292133 0.055885
v 0.459203 0.277810 0.067691
v 0.579741 0.743338 0.067689
vt 0.000000 0.000000
vt 1.000000 0.000000
vt 0.000000 1.000000
vt 1.000000 1.000000
vt 0.500000 0.500000
vt 0.000000 0.500000
vt 0.500000 1.000000
vt 1.000000 0.500000
vt 0.500000 0.000000
vt 0.250000 0.750000
vt 0.750000 0.750000
vt 0.250000 0.250000
vt 0.750000 0.250000
vt 0.750000 0.000000
vt 0.250000 0.000000
vt 1.000000 0.750000
vt 1.000000 0.250000
vt 0.250000 1.000000
vt 0.750000 1.000000
vt 0.000000 0.250000
vt 0.000000 0.750000
vt 0.365347 0.220303
vt 0.629073 0.770824
vt 0.496070 0.751378
vt 0.376676 0.374937
vt 0.875000 0.375000
vt 0.625000 0.125000
vt 0.625000 0.375000
vt 0.875000 0.125000
vt 0.375000 0.125000
vt 0.125000 0.125000
vt 0.750000 0.687500
vt 0.875000 0.625000
vt 0.625000 0.625000
vt 0.875000 0.875000
vt 0.375000 0.875000
vt 0.262101 0.599801
vt 0.125000 0.875000
vt 0.125000 0.625000
vt 0.625000 0.875000
vt 0.125000 0.375000
vt 0.250000 0.125000
vt 0.875000 0.750000
vt 0.875000 0.250000
vt 0.250000 0.875000
vt 0.750000 0.875000
vt 0.125000 0.250000
vt 0.125000 0.750000
vt 0.304602 0.713891
vt 0.690882 0.507820
vt 0.750000 0.625000
vt 0.875000 0.500000
vt 0.373865 0.643713
vt 0.375000 0.750000
vt 0.000000 0.375000
vt 0.500000 0.875000
vt 0.500000 0.625000
vt 0.250000 0.375000
vt 0.125000 0.500000
vt 0.375000 0.500000
vt 0.625000 0.250000
vt 0.500000 0.125000
vt 0.500000 0.375000
vt 0.000000 0.625000
vt 0.000000 0.875000
vt 0.000000 0.125000
vt 0.625000 1.000000
vt 0.875000 1.000000
vt 0.125000 1.000000
vt 0.375000 1.000000
vt 1.000000 0.375000
vt 1.000000 0.125000
vt 1.000000 0.875000
vt 1.000000 0.625000
vt 0.375000 0.000000
vt 0.125000 0.000000
vt 0.875000 0.000000
vt 0.625000 0.000000
vt 0.750000 0.125000
vt 0.625000 0.500000
vt 0.344661 0.562348
vt 0.062500 0.312500
vt 0.187500 0.437500
vt 0.187500 0.312500
vt 0.062500 0.437500
vt 0.687500 0.937500
vt 0.687500 0.812500
vt 0.562500 0.937500
vt 0.062500 0.687500
vt 0.187500 0.687500
vt 0.062500 0.562500
vt 0.187500 0.937500
vt 0.187500 0.812500
vt 0.062500 0.937500
vt 0.437500 0.562500
vt 0.834853 0.423541
vt 0.437500 0.812500
vt 0.312500 0.812500
vt 0.437500 0.937500
vt 0.937500 0.812500
vt 0.812500 0.812500
vt 0.937500 0.937500
vt 0.708250 0.593912
vt 0.562500 0.562500
vt 0.421468 0.685814
vt 0.812500 0.562500
vt 0.812500 0.687500
vt 0.937500 0.562500
vt 0.311128 0.261404
vt 0.574590 0.295134
vt 0.437500 0.437500
vt 0.187500 0.062500
vt 0.062500 0.062500
vt 0.187500 0.187500
vt 0.312500 0.062500
vt 0.312500 0.187500
vt 0.437500 0.062500
vt 0.812500 0.062500
vt 0.937500 0.062500
vt 0.333187 0.423960
vt 0.562500 0.437500
vt 0.284270 0.479404
vt 0.562500 0.187500
vt 0.687500 0.187500
vt 0.562500 0.062500
vt 0.937500 0.312500
vt 0.812500 0.312500
vt 0.937500 0.437500
vt 0.312500 0.937500
vt 0.187500 0.625000
vt 0.812500 0.187500
vt 0.800716 0.372483
vt 0.687500 0.062500
vt 0.687500 0.437500
vt 0.937500 0.187500
vt 0.437500 0.187500
vt 0.062500 0.187500
vt 0.768679 0.525111
vt 0.937500 0.687500
vt 0.665041 0.375444
vt 0.062500 0.812500
vt 0.812500 0.937500
vt 0.187500 0.562500
vt 0.773244 0.419416
vt 0.710809 0.416227
vt 0.503936 0.232646
vt 0.242680 0.526355
vt 0.796289 0.493828
vt 0.536094 0.786661
vt 0.661467 0.646957
vt 0.467440 0.291396
vt 0.296906 0.332149
vt 0.328788 0.603620
vt 0.713437 0.300753
vt 0.750000 0.812500
vt 0.581168 0.672349
vt 0.281585 0.657008
vt 0.688844 0.757642
vt 0.418193 0.328300
vt 0.620311 0.693333
vt 0.646352 0.310977
vt 0.364019 0.294291
vt 0.460000 0.281480
vt 0.579104 0.739280
vn -0.019026 -0.019026 0.999638
vn 0.050073 -0.050073 0.997490
vn -0.040741 0.040741 0.998339
vn 0.066900 0.066900 0.995514
vn 0.000000 0.000000 1.000000
vn -0.279668 0.003818 0.960089
vn 0.004676 0.285919 0.958242
vn 0.229794 -0.006574 0.973217
vn -0.004203 -0.287517 0.957766
vn -0.121052 0.102211 0.987370
vn 0.080062 0.078550 0.993690
vn -0.160944 -0.123049 0.979263
vn 0.089009 -0.096984 0.991298
vn 0.005194 -0.201905 0.979391
vn -0.002886 -0.181757 0.983339
vn 0.233019 0.025334 0.972142
vn 0.233080 -0.006203 0.972438
vn -0.018880 0.246039 0.969076
vn 0.007232 0.222506 0.974904
vn -0.192640 -0.014301 0.981165
vn -0.213694 0.005011 0.976888
vn -0.137667 -0.143241 0.980066
vn 0.089414 0.142413 0.985761
vn -0.050910 0.059741 0.996915
vn -0.078628 -0.067819 0.994594
vn 0.276290 -0.023446 0.960788
vn 0.047215 -0.259853 0.964493
vn -0.002213 0.002553 0.999994
vn 0.105034 -0.114026 0.987910
vn -0.083304 -0.215675 0.972905
vn -0.068285 -0.060783 0.995812
vn 0.097740 0.097688 0.990406
vn 0.286852 0.014832 0.957860
vn -0.001445 -0.001676 0.999998
vn 0.137461 0.130334 0.981895
vn -0.043897 0.231317 0.971888
vn -0.116438 0.130583 0.984576
vn -0.099352 0.095596 0.990450
vn -0.249400 0.062362 0.966390
vn 0.029599 0.265503 0.963656
vn -0.179868 -0.073046 0.980975
vn -0.077009 -0.111053 0.990826
vn 0.231279 0.061259 0.970957
vn 0.192652 -0.061113 0.979362
vn -0.071594 0.150755 0.985975
vn 0.044153 0.253633 0.966292
vn -0.095305 -0.070986 0.992914
vn -0.161725 0.064141 0.984749
vn -0.134319 0.101397 0.985737
vn -0.000868 -0.000834 0.999999
vn 0.090694 0.067577 0.993583
vn 0.349171 -0.013519 0.936962
vn -0.061090 0.060789 0.996279
vn -0.105204 0.115473 0.987724
vn -0.253897 -0.017265 0.967077
vn -0.007246 0.298648 0.954336
vn 0.000190 -0.000756 1.000000
vn -0.152742 -0.117298 0.981280
vn -0.250222 -0.026935 0.967814
vn 0.001002 0.000111 0.999999
vn 0.106907 -0.095181 0.989703
vn -0.009267 -0.276083 0.961089
vn 0.000410 0.000939 0.999999
vn -0.248014 0.012732 0.968673
vn -0.143150 0.031024 0.989215
vn -0.101553 -0.031867 0.994320
vn 0.010592 0.256831 0.966398
vn 0.019110 0.171260 0.985040
vn -0.032413 0.145894 0.988769
vn -0.003339 0.288476 0.957481
vn 0.231048 0.007222 0.972916
vn 0.161099 -0.030760 0.986459
vn 0.158597 0.012738 0.987261
vn 0.261786 -0.010150 0.965072
vn -0.023843 -0.233769 0.972000
vn -0.034805 -0.107399 0.993607
vn 0.023264 -0.146223 0.988978
vn 0.021751 -0.254004 0.966959
vn 0.051337 -0.204551 0.977509
vn -0.000488 -0.000312 1.000000
vn 0.001143 -0.000991 0.999999
vn -0.187280 -0.035411 0.981668
vn -0.185086 -0.098139 0.977810
vn -0.126740 -0.113384 0.985434
vn -0.256358 -0.022964 0.966309
vn 0.013776 0.258985 0.965783
vn 0.021520 0.165848 0.985916
vn 0.012091 0.276422 0.960960
vn -0.245508 0.026949 0.969020
vn -0.134570 0.119727 0.983644
vn -0.283649 0.010248 0.958874
vn -0.045356 0.178687 0.982860
vn -0.096251 0.088482 0.991416
vn -0.071807 0.071091 0.994882
vn 0.000473 -0.000529 1.000000
vn 0.253043 -0.047086 0.966309
vn -0.070019 0.210411 0.975102
vn -0.100887 0.136757 0.985454
vn -0.002931 0.277836 0.960624
vn 0.220236 0.039098 0.974663
vn 0.129785 0.130821 0.982874
vn 0.088640 0.085400 0.992396
vn 0.024415 0.021805 0.999464
vn 0.000000 -0.000174 1.000000
vn -0.051104 0.057566 0.997033
vn 0.237279 0.058147 0.969700
vn 0.167740 0.081800 0.982432
vn 0.290936 -0.014133 0.956638
vn -0.172704 -0.123528 0.977197
vn 0.082549 -0.074332 0.993811
vn 0.000649 0.000640 1.000000
vn -0.036023 -0.127544 0.991178
vn -0.050373 -0.048897 0.997533
vn -0.079842 -0.065346 0.994663
vn -0.036269 -0.205952 0.977890
vn -0.143872 -0.134363 0.980432
vn -0.026263 -0.273332 0.961561
vn 0.030423 -0.193034 0.980720
vn 0.077207 -0.081004 0.993719
vn -0.075778 -0.064249 0.995053
vn 0.000000 -0.000000 1.000000
vn -0.074346 -0.066577 0.995008
vn 0.065556 -0.218344 0.973667
vn 0.078584 -0.151817 0.985280
vn 0.020035 -0.275140 0.961195
vn 0.248782 -0.016291 0.968422
vn 0.151784 -0.100579 0.983283
vn 0.276820 0.000603 0.960922
vn -0.025373 0.244103 0.969417
vn -0.169482 0.104652 0.979961
vn 0.104662 -0.100188 0.989448
vn 0.176922 -0.050708 0.982918
vn 0.021207 -0.239172 0.970746
vn -0.002386 0.002202 0.999995
vn 0.188743 -0.032614 0.981485
vn -0.100289 -0.200249 0.974599
vn -0.121374 -0.037188 0.991910
vn 0.084916 0.061352 0.994497
vn 0.280343 0.018805 0.959716
vn 0.041102 -0.058161 0.997461
vn -0.175556 0.035977 0.983812
vn 0.030879 0.215764 0.975957
vn -0.202673 0.040177 0.978422
vn 0.163308 -0.074182 0.983782
vn 0.036689 -0.033691 0.998759
vn -0.023267 -0.138271 0.990121
vn -0.146650 0.010133 0.989137
vn 0.197389 0.002582 0.980322
vn 0.008014 0.128905 0.991625
vn 0.021294 0.025719 0.999442
vn 0.000382 0.000458 1.000000
vn -0.158860 -0.120007 0.979980
vn -0.056870 0.067424 0.996102
vn 0.089109 -0.116291 0.989210
vn 0.062203 0.166580 0.984064
vn -0.000604 -0.001485 0.999999
vn -0.118068 0.125379 0.985058
vn 0.052556 0.101448 0.993452
vn -0.077503 -0.068326 0.994648
vn 0.036098 0.036312 0.998688
vn 0.116230 -0.123290 0.985541
vn -0.141318 -0.117305 0.982990
vn -0.018327 -0.017018 0.999687
vn 0.073468 0.064562 0.995206
f 1/1/1 113/113/113 66/66/66
f 31/31/31 137/137/137 113/113/113
f 132/132/132 127/127/127 26/26/26
f 112/112/112 31/31/31 113/113/113
f 135/135/135 44/44/44 29/29/29
f 106/106/106 52/52/52 33/33/33
f 24/24/24 57/57/57 156/156/156
f 84/84/84 41/41/41 47/47/47
f 137/137/137 66/66/66 113/113/113
f 75/75/75 115/115/115 15/15/15
f 12/12/12 152/152/152 84/84/84
f 61/61/61 110/110/110 123/123/123
f 25/25/25 120/120/120 152/152/152
f 76/76/76 113/113/113 1/1/1
f 76/76/76 112/112/112 113/113/113
f 15/15/15 112/112/112 76/76/76
f 115/115/115 112/112/112 15/15/15
f 30/30/30 115/115/115 117/117/117
f 108/108/108 33/33/33 52/52/52
f 75/75/75 117/117/117 115/115/115
f 115/115/115 30/30/30 42/42/42
f 145/145/145 140/140/140 154/154/154
f 51/51/51 150/150/150 103/103/103
f 136/136/136 22/22/22 30/30/30
f 107/107/107 43/43/43 11/11/11
f 54/54/54 98/98/98 49/49/49
f 42/42/42 112/112/112 115/115/115
f 58/58/58 84/84/84 152/152/152
f 13/13/13 154/154/154 124/124/124
f 60/60/60 120/120/120 111/111/111
f 136/136/136 62/62/62 146/146/146
f 159/159/159 63/63/63 111/111/111
f 147/147/147 83/83/83 122/122/122
f 104/104/104 80/80/80 34/34/34
f 10/10/10 49/49/49 98/98/98
f 160/160/160 164/164/164 156/156/156
f 49/49/49 53/53/53 54/54/54
f 117/117/117 62/62/62 30/30/30
f 95/95/95 57/57/57 105/105/105
f 131/131/131 29/29/29 44/44/44
f 77/77/77 2/2/2 119/119/119
f 77/77/77 119/119/119 118/118/118
f 71/71/71 128/128/128 126/126/126
f 58/58/58 152/152/152 120/120/120
f 63/63/63 28/28/28 121/121/121
f 119/119/119 29/29/29 118/118/118
f 57/57/57 24/24/24 105/105/105
f 125/125/125 27/27/27 62/62/62
f 135/135/135 72/72/72 17/17/17
f 136/136/136 30/30/30 62/62/62
f 138/138/138 148/148/148 106/106/106
f 60/60/60 122/122/122 120/120/120
f 153/153/153 53/53/53 157/157/157
f 11/11/11 32/32/32 107/107/107
f 12/12/12 114/114/114 116/116/116
f 150/150/150 160/160/160 34/34/34
f 32/32/32 158/158/158 150/150/150
f 110/110/110 146/146/146 123/123/123
f 63/63/63 151/151/151 110/110/110
f 44/44/44 127/127/127 131/131/131
f 82/82/82 47/47/47 41/41/41
f 45/45/45 98/98/98 36/36/36
f 82/82/82 137/137/137 47/47/47
f 61/61/61 124/124/124 154/154/154
f 26/26/26 126/126/126 128/128/128
f 62/62/62 117/117/117 125/125/125
f 20/20/20 137/137/137 82/82/82
f 38/38/38 92/92/92 94/94/94
f 20/20/20 66/66/66 137/137/137
f 55/55/55 20/20/20 82/82/82
f 69/69/69 94/94/94 92/92/92
f 159/159/159 151/151/151 63/63/63
f 8/8/8 108/108/108 128/128/128
f 141/141/141 48/48/48 38/38/38
f 50/50/50 80/80/80 134/134/134
f 65/65/65 141/141/141 94/94/94
f 114/114/114 31/31/31 42/42/42
f 38/38/38 94/94/94 141/141/141
f 92/92/92 18/18/18 69/69/69
f 24/24/24 149/149/149 97/97/97
f 159/159/159 25/25/25 162/162/162
f 46/46/46 35/35/35 142/142/142
f 29/29/29 119/119/119 135/135/135
f 40/40/40 149/149/149 23/23/23
f 158/158/158 23/23/23 160/160/160
f 35/35/35 46/46/46 101/101/101
f 129/129/129 45/45/45 36/36/36
f 27/27/27 124/124/124 123/123/123
f 85/85/85 41/41/41 59/59/59
f 78/78/78 125/125/125 9/9/9
f 70/70/70 129/129/129 99/99/99
f 83/83/83 59/59/59 41/41/41
f 129/129/129 70/70/70 18/18/18
f 36/36/36 99/99/99 129/129/129
f 93/93/93 38/38/38 48/48/48
f 38/38/38 45/45/45 92/92/92
f 52/52/52 128/128/128 108/108/108
f 65/65/65 94/94/94 3/3/3
f 72/72/72 135/135/135 119/119/119
f 94/94/94 69/69/69 3/3/3
f 39/39/39 90/90/90 48/48/48
f 21/21/21 141/141/141 65/65/65
f 18/18/18 92/92/92 129/129/129
f 6/6/6 91/91/91 64/64/64
f 153/153/153 81/81/81 53/53/53
f 93/93/93 45/45/45 38/38/38
f 89/89/89 39/39/39 48/48/48
f 13/13/13 124/124/124 131/131/131
f 45/45/45 129/129/129 92/92/92
f 9/9/9 125/125/125 117/117/117
f 64/64/64 89/89/89 21/21/21
f 55/55/55 82/82/82 85/85/85
f 6/6/6 85/85/85 91/91/91
f 59/59/59 91/91/91 85/85/85
f 41/41/41 85/85/85 82/82/82
f 6/6/6 55/55/55 85/85/85
f 59/59/59 83/83/83 143/143/143
f 59/59/59 39/39/39 91/91/91
f 159/159/159 163/163/163 151/151/151
f 143/143/143 39/39/39 59/59/59
f 118/118/118 29/29/29 79/79/79
f 22/22/22 163/163/163 162/162/162
f 134/134/134 148/148/148 138/138/138
f 58/58/58 83/83/83 84/84/84
f 119/119/119 2/2/2 72/72/72
f 49/49/49 157/157/157 53/53/53
f 11/11/11 158/158/158 32/32/32
f 152/152/152 162/162/162 25/25/25
f 10/10/10 98/98/98 93/93/93
f 21/21/21 89/89/89 141/141/141
f 97/97/97 54/54/54 24/24/24
f 51/51/51 32/32/32 150/150/150
f 79/79/79 133/133/133 118/118/118
f 118/118/118 133/133/133 14/14/14
f 79/79/79 131/131/131 124/124/124
f 147/147/147 143/143/143 83/83/83
f 149/149/149 40/40/40 56/56/56
f 48/48/48 141/141/141 89/89/89
f 78/78/78 133/133/133 125/125/125
f 62/62/62 27/27/27 123/123/123
f 147/147/147 37/37/37 143/143/143
f 148/148/148 96/96/96 52/52/52
f 60/60/60 95/95/95 81/81/81
f 156/156/156 34/34/34 160/160/160
f 5/5/5 95/95/95 111/111/111
f 10/10/10 93/93/93 90/90/90
f 130/130/130 143/143/143 37/37/37
f 157/157/157 37/37/37 153/153/153
f 27/27/27 125/125/125 133/133/133
f 121/121/121 5/5/5 111/111/111
f 160/160/160 150/150/150 158/158/158
f 122/122/122 58/58/58 120/120/120
f 17/17/17 126/126/126 135/135/135
f 41/41/41 84/84/84 83/83/83
f 123/123/123 146/146/146 62/62/62
f 60/60/60 111/111/111 95/95/95
f 28/28/28 134/134/134 80/80/80
f 104/104/104 95/95/95 5/5/5
f 28/28/28 140/140/140 134/134/134
f 26/26/26 128/128/128 96/96/96
f 57/57/57 95/95/95 104/104/104
f 138/138/138 50/50/50 134/134/134
f 127/127/127 44/44/44 26/26/26
f 126/126/126 26/26/26 44/44/44
f 45/45/45 93/93/93 98/98/98
f 110/110/110 28/28/28 63/63/63
f 156/156/156 164/164/164 24/24/24
f 9/9/9 117/117/117 75/75/75
f 48/48/48 90/90/90 93/93/93
f 54/54/54 97/97/97 98/98/98
f 130/130/130 90/90/90 39/39/39
f 114/114/114 42/42/42 116/116/116
f 99/99/99 36/36/36 56/56/56
f 80/80/80 104/104/104 5/5/5
f 95/95/95 53/53/53 81/81/81
f 126/126/126 17/17/17 71/71/71
f 109/109/109 12/12/12 116/116/116
f 25/25/25 159/159/159 111/111/111
f 52/52/52 96/96/96 128/128/128
f 103/103/103 150/150/150 34/34/34
f 36/36/36 98/98/98 97/97/97
f 37/37/37 157/157/157 130/130/130
f 105/105/105 53/53/53 95/95/95
f 58/58/58 122/122/122 83/83/83
f 26/26/26 96/96/96 132/132/132
f 50/50/50 138/138/138 103/103/103
f 120/120/120 25/25/25 111/111/111
f 12/12/12 109/109/109 152/152/152
f 14/14/14 133/133/133 78/78/78
f 13/13/13 131/131/131 127/127/127
f 107/107/107 106/106/106 33/33/33
f 44/44/44 135/135/135 126/126/126
f 149/149/149 24/24/24 164/164/164
f 34/34/34 156/156/156 104/104/104
f 57/57/57 104/104/104 156/156/156
f 121/121/121 80/80/80 5/5/5
f 63/63/63 121/121/121 111/111/111
f 121/121/121 28/28/28 80/80/80
f 77/77/77 118/118/118 14/14/14
f 101/101/101 11/11/11 43/43/43
f 103/103/103 34/34/34 80/80/80
f 131/131/131 79/79/79 29/29/29
f 140/140/140 145/145/145 134/134/134
f 49/49/49 10/10/10 157/157/157
f 124/124/124 27/27/27 79/79/79
f 139/139/139 33/33/33 108/108/108
f 107/107/107 33/33/33 43/43/43
f 133/133/133 79/79/79 27/27/27
f 145/145/145 148/148/148 134/134/134
f 139/139/139 43/43/43 33/33/33
f 11/11/11 155/155/155 158/158/158
f 80/80/80 50/50/50 103/103/103
f 140/140/140 28/28/28 110/110/110
f 51/51/51 106/106/106 107/107/107
f 127/127/127 132/132/132 154/154/154
f 97/97/97 56/56/56 36/36/36
f 86/86/86 46/46/46 142/142/142
f 112/112/112 42/42/42 31/31/31
f 40/40/40 46/46/46 86/86/86
f 74/74/74 139/139/139 108/108/108
f 100/100/100 43/43/43 139/139/139
f 137/137/137 31/31/31 47/47/47
f 114/114/114 47/47/47 31/31/31
f 88/88/88 40/40/40 86/86/86
f 16/16/16 100/100/100 139/139/139
f 102/102/102 35/35/35 100/100/100
f 68/68/68 142/142/142 102/102/102
f 88/88/88 99/99/99 56/56/56
f 142/142/142 35/35/35 102/102/102
f 53/53/53 105/105/105 54/54/54
f 147/147/147 122/122/122 81/81/81
f 19/19/19 86/86/86 142/142/142
f 88/88/88 56/56/56 40/40/40
f 145/145/145 144/144/144 148/148/148
f 105/105/105 24/24/24 54/54/54
f 106/106/106 51/51/51 138/138/138
f 87/87/87 46/46/46 40/40/40
f 81/81/81 153/153/153 147/147/147
f 87/87/87 155/155/155 46/46/46
f 110/110/110 151/151/151 146/146/146
f 60/60/60 81/81/81 122/122/122
f 64/64/64 91/91/91 89/89/89
f 87/87/87 40/40/40 23/23/23
f 67/67/67 88/88/88 86/86/86
f 7/7/7 99/99/99 88/88/88
f 7/7/7 70/70/70 99/99/99
f 67/67/67 7/7/7 88/88/88
f 19/19/19 67/67/67 86/86/86
f 68/68/68 19/19/19 142/142/142
f 73/73/73 102/102/102 100/100/100
f 4/4/4 68/68/68 102/102/102
f 73/73/73 4/4/4 102/102/102
f 16/16/16 73/73/73 100/100/100
f 74/74/74 16/16/16 139/139/139
f 8/8/8 74/74/74 108/108/108
f 39/39/39 89/89/89 91/91/91
f 116/116/116 22/22/22 109/109/109
f 116/116/116 42/42/42 30/30/30
f 144/144/144 145/145/145 132/132/132
f 61/61/61 123/123/123 124/124/124
f 106/106/106 148/148/148 52/52/52
f 23/23/23 158/158/158 87/87/87
f 128/128/128 71/71/71 8/8/8
f 90/90/90 130/130/130 157/157/157
f 32/32/32 51/51/51 107/107/107
f 144/144/144 96/96/96 148/148/148
f 37/37/37 147/147/147 153/153/153
f 103/103/103 138/138/138 51/51/51
f 163/163/163 22/22/22 136/136/136
f 155/155/155 101/101/101 46/46/46
f 154/154/154 132/132/132 145/145/145
f 84/84/84 114/114/114 12/12/12
f 101/101/101 155/155/155 11/11/11
f 114/114/114 84/84/84 47/47/47
f 97/97/97 149/149/149 56/56/56
f 154/154/154 13/13/13 127/127/127
f 90/90/90 157/157/157 10/10/10
f 143/143/143 130/130/130 39/39/39
f 140/140/140 161/161/161 154/154/154
f 163/163/163 146/146/146 151/151/151
f 116/116/116 30/30/30 22/22/22
f 87/87/87 158/158/158 155/155/155
f 161/161/161 61/61/61 154/154/154
f 159/159/159 162/162/162 163/163/163
f 61/61/61 161/161/161 110/110/110
f 161/161/161 140/140/140 110/110/110
f 109/109/109 162/162/162 152/152/152
f 162/162/162 109/109/109 22/22/22
f 96/96/96 144/144/144 132/132/132
f 146/146/146 163/163/163 136/136/136
f 149/149/149 164/164/164 23/23/23
f 164/164/164 160/160/160 23/23/23
f 101/101/101 43/43/43 35/35/35
f 100/100/100 35/35/35 43/43/43
