# frame 000244 
# time 0.122500 
# name Cloth3D 
v -0.000000 0.000000 -0.000000
v 1.000000 0.000000 -0.000000
v -0.000000 1.000000 0.000000
v 1.000000 1.000000 0.000000
v 0.501045 0.500339 0.056034
v -0.000000 0.500000 0.000000
v 0.500000 1.000000 0.000000
v 1.000000 0.500000 0.000000
v 0.500000 -0.000000 0.000000
v 0.251003 0.749591 0.020121
v 0.750771 0.750809 0.028653
v 0.252219 0.251184 0.012883
v 0.750392 0.250607 0.022315
v 0.750000 0.000000 0.000000
v 0.250000 0.000000 0.000000
v 1.000000 0.750000 0.000000
v 1.000000 0.250000 0.000000
v 0.250000 1.000000 0.000000
v 0.750000 1.000000 0.000000
v 0.000000 0.250000 0.000000
v 0.000000 0.750000 -0.000000
v 0.367897 0.220434 0.024518
v 0.248809 0.500811 0.047627
v 0.501166 0.753217 0.053227
v 0.373261 0.371543 0.056186
v 0.877692 0.374998 0.029625
v 0.625216 0.123780 0.024819
v 0.627237 0.373755 0.056034
v 0.874887 0.125156 0.006405
v 0.376024 0.124285 0.019230
v 0.125917 0.125673 -0.003506
v 0.751726 0.688347 0.037301
v 0.878200 0.625576 0.032456
v 0.627383 0.626749 0.056034
v 0.875296 0.875324 0.011161
v 0.375409 0.876503 0.025444
v 0.374563 0.626769 0.056034
v 0.125541 0.874665 0.001989
v 0.123899 0.625333 0.025914
v 0.625874 0.878526 0.035260
v 0.125767 0.375870 0.012851
v 0.251232 0.125515 0.007085
v 0.875801 0.750229 0.016845
v 0.875812 0.250034 0.018284
v 0.250678 0.874955 0.011372
v 0.750434 0.876219 0.020565
v 0.126332 0.250933 0.003731
v 0.125372 0.749479 0.009371
v 0.305270 0.714159 0.032945
v 0.278262 0.435413 0.045332
v 0.752258 0.625397 0.042034
v 0.879854 0.500070 0.040666
v 0.370739 0.649160 0.056186
v 0.376454 0.750618 0.033366
v 0.000000 0.375000 0.000000
v 0.500442 0.878825 0.037613
v 0.501060 0.626914 0.056035
v 0.251688 0.376675 0.025013
v 0.123842 0.500278 0.026683
v 0.374441 0.500341 0.056035
v 0.624972 0.249806 0.034468
v 0.500290 0.122003 0.034312
v 0.500781 0.373698 0.056035
v 0.000000 0.625000 0.000000
v 0.000000 0.875000 0.000000
v 0.000000 0.125000 0.000000
v 0.625000 1.000000 0.000000
v 0.875000 1.000000 0.000000
v 0.125000 1.000000 0.000000
v 0.375000 1.000000 0.000000
v 1.000000 0.375000 0.000000
v 1.000000 0.125000 0.000000
v 1.000000 0.875000 0.000000
v 1.000000 0.625000 0.000000
v 0.375000 0.000000 0.000000
v 0.125000 0.000000 0.000000
v 0.875000 0.000000 0.000000
v 0.625000 0.000000 0.000000
v 0.749762 0.125189 0.011046
v 0.627584 0.500263 0.056035
v 0.343625 0.563388 0.056112
v 0.063007 0.312905 0.005311
v 0.187727 0.438527 0.027358
v 0.189448 0.314034 0.010208
v 0.062191 0.437747 0.011482
v 0.687932 0.939615 0.018241
v 0.687979 0.814368 0.031369
v 0.562811 0.940424 0.021987
v 0.061707 0.687658 0.013624
v 0.187511 0.687360 0.023932
v 0.061486 0.562656 0.015443
v 0.187745 0.937447 0.005222
v 0.188304 0.812025 0.009366
v 0.062691 0.937347 -0.002578
v 0.437794 0.563607 0.056035
v 0.522436 0.755710 0.056179
v 0.438925 0.814435 0.034061
v 0.313669 0.812717 0.020883
v 0.437714 0.939354 0.018098
v 0.937833 0.812640 0.007763
v 0.812610 0.812863 0.014651
v 0.937538 0.937534 0.002653
v 0.706877 0.591302 0.056179
v 0.564301 0.563592 0.056035
v 0.423411 0.686134 0.056179
v 0.816132 0.562650 0.043187
v 0.814345 0.688073 0.031229
v 0.941165 0.562766 0.024009
v 0.313813 0.262545 0.019299
v 0.569596 0.300842 0.056179
v 0.437710 0.437048 0.056035
v 0.188042 0.062909 0.000357
v 0.062715 0.062679 -0.005226
v 0.189222 0.188544 0.002172
v 0.312755 0.061964 0.011967
v 0.314732 0.188132 0.014148
v 0.437690 0.060512 0.018512
v 0.812480 0.062427 0.007279
v 0.937366 0.062622 -0.000714
v 0.335173 0.425776 0.056179
v 0.564193 0.437026 0.056035
v 0.292166 0.486986 0.056179
v 0.562523 0.185836 0.036744
v 0.687020 0.187852 0.018381
v 0.562716 0.060383 0.019444
v 0.939103 0.312322 0.016086
v 0.813753 0.313321 0.025283
v 0.940735 0.437443 0.022363
v 0.312775 0.938027 0.010733
v 0.187106 0.624673 0.029245
v 0.812498 0.188194 0.009969
v 0.802846 0.373550 0.033587
v 0.687628 0.061686 0.013146
v 0.690736 0.436955 0.056035
v 0.937511 0.187609 0.005390
v 0.437762 0.185051 0.040810
v 0.063132 0.187940 -0.000256
v 0.760256 0.515328 0.056179
v 0.938808 0.687701 0.014203
v 0.669947 0.371348 0.056179
v 0.062787 0.812311 0.003159
v 0.812737 0.938081 0.009793
v 0.185566 0.563092 0.040882
v 0.563732 0.817015 0.052223
v 0.720869 0.407015 0.056186
v 0.471354 0.231455 0.056192
v 0.241473 0.558619 0.056192
v 0.798528 0.461381 0.056192
v 0.568619 0.788527 0.056192
v 0.665654 0.649975 0.056179
v 0.514977 0.262468 0.056179
v 0.298940 0.333389 0.027750
v 0.320583 0.614014 0.056189
v 0.714431 0.301012 0.034242
v 0.749987 0.813315 0.020447
v 0.583024 0.674827 0.056107
v 0.281384 0.657420 0.040460
v 0.689729 0.759332 0.037160
v 0.409531 0.319780 0.056189
v 0.629555 0.701494 0.056186
v 0.647441 0.310477 0.044356
v 0.630237 0.773719 0.046326
v 0.511848 0.691165 0.056107
vt 0.000000 0.000000
vt 1.000000 0.000000
vt 0.000000 1.000000
vt 1.000000 1.000000
vt 0.500000 0.500000
vt 0.000000 0.500000
vt 0.500000 1.000000
vt 1.000000 0.500000
vt 0.500000 0.000000
vt 0.250000 0.750000
vt 0.750000 0.750000
vt 0.250000 0.250000
vt 0.750000 0.250000
vt 0.750000 0.000000
vt 0.250000 0.000000
vt 1.000000 0.750000
vt 1.000000 0.250000
vt 0.250000 1.000000
vt 0.750000 1.000000
vt 0.000000 0.250000
vt 0.000000 0.750000
vt 0.365347 0.220303
vt 0.250000 0.500000
vt 0.500000 0.750000
vt 0.373994 0.372776
vt 0.875000 0.375000
vt 0.625000 0.125000
vt 0.625000 0.375000
vt 0.875000 0.125000
vt 0.375000 0.125000
vt 0.125000 0.125000
vt 0.750000 0.687500
vt 0.875000 0.625000
vt 0.625000 0.625000
vt 0.875000 0.875000
vt 0.375000 0.875000
vt 0.375000 0.625000
vt 0.125000 0.875000
vt 0.125000 0.625000
vt 0.625000 0.875000
vt 0.125000 0.375000
vt 0.250000 0.125000
vt 0.875000 0.750000
vt 0.875000 0.250000
vt 0.250000 0.875000
vt 0.750000 0.875000
vt 0.125000 0.250000
vt 0.125000 0.750000
vt 0.304602 0.713891
vt 0.278861 0.435152
vt 0.750000 0.625000
vt 0.875000 0.500000
vt 0.371171 0.647145
vt 0.375000 0.750000
vt 0.000000 0.375000
vt 0.500000 0.875000
vt 0.500000 0.625000
vt 0.250000 0.375000
vt 0.125000 0.500000
vt 0.375000 0.500000
vt 0.625000 0.250000
vt 0.500000 0.125000
vt 0.500000 0.375000
vt 0.000000 0.625000
vt 0.000000 0.875000
vt 0.000000 0.125000
vt 0.625000 1.000000
vt 0.875000 1.000000
vt 0.125000 1.000000
vt 0.375000 1.000000
vt 1.000000 0.375000
vt 1.000000 0.125000
vt 1.000000 0.875000
vt 1.000000 0.625000
vt 0.375000 0.000000
vt 0.125000 0.000000
vt 0.875000 0.000000
vt 0.625000 0.000000
vt 0.750000 0.125000
vt 0.625000 0.500000
vt 0.344661 0.562348
vt 0.062500 0.312500
vt 0.187500 0.437500
vt 0.187500 0.312500
vt 0.062500 0.437500
vt 0.687500 0.937500
vt 0.687500 0.812500
vt 0.562500 0.937500
vt 0.062500 0.687500
vt 0.187500 0.687500
vt 0.062500 0.562500
vt 0.187500 0.937500
vt 0.187500 0.812500
vt 0.062500 0.937500
vt 0.437500 0.562500
vt 0.521290 0.752065
vt 0.437500 0.812500
vt 0.312500 0.812500
vt 0.437500 0.937500
vt 0.937500 0.812500
vt 0.812500 0.812500
vt 0.937500 0.937500
vt 0.703551 0.590176
vt 0.562500 0.562500
vt 0.423226 0.683585
vt 0.812500 0.562500
vt 0.812500 0.687500
vt 0.937500 0.562500
vt 0.311128 0.261404
vt 0.568328 0.303048
vt 0.437500 0.437500
vt 0.187500 0.062500
vt 0.062500 0.062500
vt 0.187500 0.187500
vt 0.312500 0.062500
vt 0.312500 0.187500
vt 0.437500 0.062500
vt 0.812500 0.062500
vt 0.937500 0.062500
vt 0.336233 0.426319
vt 0.562500 0.437500
vt 0.293823 0.486855
vt 0.562500 0.187500
vt 0.687500 0.187500
vt 0.562500 0.062500
vt 0.937500 0.312500
vt 0.812500 0.312500
vt 0.937500 0.437500
vt 0.312500 0.937500
vt 0.187500 0.625000
vt 0.812500 0.187500
vt 0.800716 0.372483
vt 0.687500 0.062500
vt 0.687500 0.437500
vt 0.937500 0.187500
vt 0.437500 0.187500
vt 0.062500 0.187500
vt 0.756055 0.515141
vt 0.937500 0.687500
vt 0.667258 0.372599
vt 0.062500 0.812500
vt 0.812500 0.937500
vt 0.187500 0.562500
vt 0.562500 0.812500
vt 0.717382 0.407922
vt 0.471472 0.234864
vt 0.244445 0.557665
vt 0.793574 0.461816
vt 0.567176 0.784228
vt 0.662974 0.648087
vt 0.514486 0.265252
vt 0.296906 0.332149
vt 0.321795 0.612449
vt 0.713437 0.300753
vt 0.750000 0.812500
vt 0.581168 0.672349
vt 0.281585 0.657008
vt 0.688844 0.757642
vt 0.410012 0.321753
vt 0.627346 0.698842
vt 0.646352 0.310977
vt 0.629073 0.770824
vt 0.510736 0.688401
vn 0.042886 0.042886 0.998159
vn -0.007335 0.007335 0.999946
vn 0.022033 -0.022033 0.999514
vn 0.019582 0.019582 0.999617
vn 0.000000 0.000000 1.000000
vn -0.207175 -0.015362 0.978183
vn -0.016940 0.315616 0.948736
vn 0.365740 -0.005805 0.930699
vn -0.004214 -0.295273 0.955404
vn -0.112198 0.132411 0.984824
vn 0.132613 0.132700 0.982245
vn -0.099731 -0.086790 0.991222
vn 0.090296 -0.145438 0.985238
vn 0.024293 -0.159723 0.986863
vn -0.046459 -0.093055 0.994576
vn 0.172653 0.025535 0.984652
vn 0.168233 -0.043574 0.984784
vn -0.022283 0.122673 0.992197
vn 0.034743 0.222336 0.974351
vn -0.034686 -0.022573 0.999143
vn -0.128429 0.041717 0.990841
vn -0.207929 -0.106717 0.972305
vn -0.227278 -0.147698 0.962564
vn -0.165938 0.197558 0.966145
vn -0.139200 -0.097038 0.985498
vn 0.112680 -0.114357 0.987029
vn 0.096908 -0.086689 0.991511
vn -0.001931 0.002561 0.999995
vn 0.049121 -0.052556 0.997409
vn -0.128765 -0.080310 0.988418
vn -0.033204 -0.022279 0.999200
vn 0.129255 0.110504 0.985435
vn 0.139598 0.093513 0.985783
vn -0.001413 -0.001406 0.999998
vn 0.068613 0.049253 0.996427
vn -0.095390 0.100667 0.990337
vn 0.003450 -0.004338 0.999985
vn -0.052253 0.035914 0.997988
vn -0.114384 0.085645 0.989738
vn 0.088417 0.170778 0.981334
vn -0.080635 -0.093149 0.992382
vn -0.092479 -0.013878 0.995618
vn 0.091387 0.088873 0.991842
vn 0.051897 -0.098861 0.993747
vn -0.080206 0.055037 0.995258
vn 0.106153 0.046423 0.993266
vn -0.028540 -0.059464 0.997822
vn -0.056708 0.097778 0.993591
vn -0.124930 0.173574 0.976865
vn -0.212328 -0.177005 0.961034
vn 0.153144 0.107931 0.982292
vn 0.195094 0.012463 0.980705
vn -0.031641 0.046330 0.998425
vn -0.120256 0.166236 0.978726
vn -0.128439 -0.024746 0.991409
vn -0.064903 0.179660 0.981585
vn 0.000049 -0.000808 1.000000
vn -0.175971 -0.175546 0.968616
vn -0.174861 -0.062110 0.982632
vn 0.001125 0.000161 0.999999
vn 0.147206 -0.179683 0.972648
vn -0.003455 -0.185962 0.982551
vn 0.000274 0.000829 1.000000
vn -0.223713 0.006904 0.974631
vn -0.000774 0.022495 0.999747
vn 0.047941 -0.018974 0.998670
vn 0.015521 0.318581 0.947769
vn 0.028905 0.096844 0.994880
vn -0.030701 0.017102 0.999382
vn -0.030105 0.225422 0.973796
vn 0.304572 -0.026826 0.952111
vn 0.033655 -0.024234 0.999140
vn 0.080759 0.020839 0.996516
vn 0.300746 0.040564 0.952841
vn -0.026387 -0.236396 0.971298
vn -0.021749 0.042482 0.998860
vn 0.031722 -0.048592 0.998315
vn 0.024988 -0.255690 0.966436
vn 0.065297 -0.028774 0.997451
vn -0.000401 -0.000204 1.000000
vn 0.001456 -0.000280 0.999999
vn -0.061318 -0.041609 0.997251
vn -0.148571 -0.150993 0.977306
vn -0.086384 -0.091697 0.992033
vn -0.152596 -0.048795 0.987083
vn 0.055141 0.218963 0.974174
vn 0.166682 0.088577 0.982024
vn 0.004230 0.285581 0.958345
vn -0.137232 0.058001 0.988839
vn -0.099740 0.123848 0.987276
vn -0.205727 -0.002765 0.978606
vn -0.045384 0.049421 0.997746
vn -0.077671 0.064188 0.994911
vn -0.007276 0.003171 0.999968
vn 0.000254 0.000000 1.000000
vn -0.109260 0.128000 0.985737
vn -0.127299 0.090423 0.987734
vn -0.103827 0.078481 0.991494
vn -0.048929 0.246348 0.967946
vn 0.108456 0.034904 0.993488
vn 0.074114 0.056442 0.995651
vn 0.045606 0.041560 0.998095
vn 0.124084 0.086888 0.988460
vn 0.000000 -0.000175 1.000000
vn -0.079105 0.113868 0.990342
vn 0.110514 0.103249 0.988497
vn 0.093085 0.114204 0.989087
vn 0.288169 0.034895 0.956944
vn -0.144045 -0.119743 0.982300
vn 0.095037 -0.131664 0.986728
vn 0.000647 0.000582 1.000000
vn -0.055241 -0.010794 0.998415
vn 0.018350 0.019759 0.999636
vn -0.071075 -0.043161 0.996537
vn -0.061370 -0.101810 0.992909
vn -0.121497 -0.053582 0.991145
vn -0.045630 -0.210035 0.976628
vn 0.037218 -0.065905 0.997132
vn 0.024153 -0.020398 0.999500
vn -0.128551 -0.102783 0.986362
vn 0.000000 -0.000000 1.000000
vn -0.154940 -0.099238 0.982927
vn 0.131853 -0.125221 0.983328
vn 0.105120 -0.084514 0.990862
vn 0.030256 -0.230444 0.972615
vn 0.187756 -0.058407 0.980478
vn 0.060392 -0.119048 0.991050
vn 0.277261 -0.039545 0.959980
vn -0.054365 0.142389 0.988317
vn -0.111209 0.147008 0.982864
vn 0.023494 -0.081462 0.996400
vn 0.097100 -0.181568 0.978573
vn 0.052281 -0.138181 0.989026
vn -0.001707 0.001774 0.999997
vn 0.095262 -0.057804 0.993773
vn -0.204794 -0.157864 0.965991
vn 0.002333 -0.035272 0.999375
vn 0.083523 0.067359 0.994227
vn 0.193607 0.064711 0.978943
vn 0.055634 -0.089360 0.994444
vn -0.041437 0.047081 0.998031
vn 0.050910 0.122950 0.991106
vn -0.206231 0.057550 0.976809
vn -0.017097 0.155959 0.987616
vn 0.054552 -0.073192 0.995825
vn -0.059105 -0.130502 0.989685
vn -0.201347 -0.009416 0.979475
vn 0.111843 -0.047071 0.992610
vn 0.015990 0.113013 0.993465
vn 0.061706 0.041251 0.997242
vn 0.077156 -0.096277 0.992360
vn -0.199787 -0.153641 0.967719
vn -0.063335 0.092148 0.993729
vn 0.118689 -0.185514 0.975447
vn 0.132544 0.062188 0.989224
vn -0.000379 -0.001252 0.999999
vn -0.147771 0.193333 0.969941
vn 0.172305 0.123769 0.977237
vn -0.136449 -0.095957 0.985989
vn 0.078367 0.054450 0.995437
vn 0.142398 -0.227383 0.963338
vn 0.184286 0.122044 0.975266
vn 0.000260 -0.001170 0.999999
f 1/1/1 113/113/113 66/66/66
f 31/31/31 137/137/137 113/113/113
f 132/132/132 127/127/127 26/26/26
f 112/112/112 31/31/31 113/113/113
f 135/135/135 44/44/44 29/29/29
f 106/106/106 52/52/52 33/33/33
f 50/50/50 58/58/58 120/120/120
f 84/84/84 41/41/41 47/47/47
f 137/137/137 66/66/66 113/113/113
f 75/75/75 115/115/115 15/15/15
f 12/12/12 152/152/152 84/84/84
f 23/23/23 147/147/147 143/143/143
f 25/25/25 120/120/120 152/152/152
f 76/76/76 113/113/113 1/1/1
f 76/76/76 112/112/112 113/113/113
f 15/15/15 112/112/112 76/76/76
f 115/115/115 112/112/112 15/15/15
f 30/30/30 115/115/115 117/117/117
f 108/108/108 33/33/33 52/52/52
f 75/75/75 117/117/117 115/115/115
f 115/115/115 30/30/30 42/42/42
f 145/145/145 140/140/140 154/154/154
f 51/51/51 150/150/150 103/103/103
f 136/136/136 22/22/22 30/30/30
f 90/90/90 10/10/10 48/48/48
f 54/54/54 98/98/98 49/49/49
f 42/42/42 112/112/112 115/115/115
f 58/58/58 84/84/84 152/152/152
f 13/13/13 154/154/154 124/124/124
f 60/60/60 120/120/120 111/111/111
f 136/136/136 62/62/62 146/146/146
f 159/159/159 63/63/63 111/111/111
f 101/101/101 43/43/43 35/35/35
f 104/104/104 80/80/80 34/34/34
f 10/10/10 49/49/49 98/98/98
f 50/50/50 122/122/122 23/23/23
f 49/49/49 53/53/53 54/54/54
f 117/117/117 62/62/62 30/30/30
f 148/148/148 26/26/26 52/52/52
f 131/131/131 29/29/29 44/44/44
f 77/77/77 2/2/2 119/119/119
f 77/77/77 119/119/119 118/118/118
f 71/71/71 128/128/128 126/126/126
f 58/58/58 152/152/152 120/120/120
f 63/63/63 28/28/28 121/121/121
f 119/119/119 29/29/29 118/118/118
f 122/122/122 50/50/50 120/120/120
f 125/125/125 27/27/27 62/62/62
f 135/135/135 72/72/72 17/17/17
f 136/136/136 30/30/30 62/62/62
f 138/138/138 148/148/148 106/106/106
f 60/60/60 122/122/122 120/120/120
f 153/153/153 53/53/53 157/157/157
f 11/11/11 32/32/32 107/107/107
f 12/12/12 114/114/114 116/116/116
f 150/150/150 160/160/160 34/34/34
f 32/32/32 158/158/158 150/150/150
f 147/147/147 157/157/157 130/130/130
f 151/151/151 146/146/146 123/123/123
f 44/44/44 127/127/127 131/131/131
f 82/82/82 47/47/47 41/41/41
f 45/45/45 98/98/98 36/36/36
f 82/82/82 137/137/137 47/47/47
f 61/61/61 124/124/124 154/154/154
f 26/26/26 126/126/126 128/128/128
f 62/62/62 117/117/117 125/125/125
f 20/20/20 137/137/137 82/82/82
f 38/38/38 92/92/92 94/94/94
f 20/20/20 66/66/66 137/137/137
f 55/55/55 20/20/20 82/82/82
f 69/69/69 94/94/94 92/92/92
f 110/110/110 151/151/151 61/61/61
f 8/8/8 108/108/108 128/128/128
f 141/141/141 48/48/48 38/38/38
f 24/24/24 144/144/144 97/97/97
f 65/65/65 141/141/141 94/94/94
f 114/114/114 31/31/31 42/42/42
f 38/38/38 94/94/94 141/141/141
f 92/92/92 18/18/18 69/69/69
f 97/97/97 54/54/54 24/24/24
f 151/151/151 110/110/110 63/63/63
f 46/46/46 35/35/35 142/142/142
f 29/29/29 119/119/119 135/135/135
f 83/83/83 23/23/23 59/59/59
f 151/151/151 63/63/63 159/159/159
f 35/35/35 46/46/46 101/101/101
f 129/129/129 45/45/45 36/36/36
f 27/27/27 124/124/124 123/123/123
f 85/85/85 41/41/41 59/59/59
f 78/78/78 125/125/125 9/9/9
f 70/70/70 129/129/129 99/99/99
f 83/83/83 59/59/59 41/41/41
f 129/129/129 70/70/70 18/18/18
f 36/36/36 99/99/99 129/129/129
f 93/93/93 38/38/38 48/48/48
f 38/38/38 45/45/45 92/92/92
f 52/52/52 128/128/128 108/108/108
f 65/65/65 94/94/94 3/3/3
f 72/72/72 135/135/135 119/119/119
f 94/94/94 69/69/69 3/3/3
f 39/39/39 90/90/90 48/48/48
f 21/21/21 141/141/141 65/65/65
f 18/18/18 92/92/92 129/129/129
f 6/6/6 91/91/91 64/64/64
f 105/105/105 24/24/24 54/54/54
f 93/93/93 45/45/45 38/38/38
f 89/89/89 39/39/39 48/48/48
f 13/13/13 124/124/124 131/131/131
f 45/45/45 129/129/129 92/92/92
f 9/9/9 125/125/125 117/117/117
f 64/64/64 89/89/89 21/21/21
f 55/55/55 82/82/82 85/85/85
f 6/6/6 85/85/85 91/91/91
f 59/59/59 91/91/91 85/85/85
f 41/41/41 85/85/85 82/82/82
f 6/6/6 55/55/55 85/85/85
f 146/146/146 151/151/151 159/159/159
f 59/59/59 39/39/39 91/91/91
f 109/109/109 22/22/22 159/159/159
f 143/143/143 39/39/39 59/59/59
f 118/118/118 29/29/29 79/79/79
f 58/58/58 50/50/50 83/83/83
f 134/134/134 148/148/148 138/138/138
f 58/58/58 83/83/83 84/84/84
f 119/119/119 2/2/2 72/72/72
f 49/49/49 157/157/157 53/53/53
f 11/11/11 158/158/158 32/32/32
f 138/138/138 103/103/103 80/80/80
f 10/10/10 98/98/98 93/93/93
f 21/21/21 89/89/89 141/141/141
f 105/105/105 53/53/53 37/37/37
f 51/51/51 32/32/32 150/150/150
f 79/79/79 133/133/133 118/118/118
f 118/118/118 133/133/133 14/14/14
f 79/79/79 131/131/131 124/124/124
f 100/100/100 35/35/35 43/43/43
f 143/143/143 59/59/59 23/23/23
f 48/48/48 141/141/141 89/89/89
f 78/78/78 133/133/133 125/125/125
f 62/62/62 27/27/27 123/123/123
f 53/53/53 153/153/153 37/37/37
f 37/37/37 81/81/81 95/95/95
f 60/60/60 95/95/95 81/81/81
f 156/156/156 34/34/34 160/160/160
f 5/5/5 95/95/95 111/111/111
f 148/148/148 145/145/145 132/132/132
f 57/57/57 37/37/37 95/95/95
f 37/37/37 57/57/57 105/105/105
f 27/27/27 125/125/125 133/133/133
f 121/121/121 5/5/5 111/111/111
f 160/160/160 150/150/150 158/158/158
f 61/61/61 151/151/151 123/123/123
f 17/17/17 126/126/126 135/135/135
f 41/41/41 84/84/84 83/83/83
f 123/123/123 146/146/146 62/62/62
f 60/60/60 111/111/111 95/95/95
f 28/28/28 134/134/134 80/80/80
f 104/104/104 95/95/95 5/5/5
f 28/28/28 140/140/140 134/134/134
f 24/24/24 105/105/105 96/96/96
f 57/57/57 95/95/95 104/104/104
f 24/24/24 96/96/96 144/144/144
f 127/127/127 44/44/44 26/26/26
f 126/126/126 26/26/26 44/44/44
f 45/45/45 93/93/93 98/98/98
f 110/110/110 28/28/28 63/63/63
f 11/11/11 107/107/107 101/101/101
f 9/9/9 117/117/117 75/75/75
f 26/26/26 128/128/128 52/52/52
f 54/54/54 97/97/97 98/98/98
f 130/130/130 90/90/90 39/39/39
f 114/114/114 42/42/42 116/116/116
f 99/99/99 36/36/36 56/56/56
f 80/80/80 104/104/104 5/5/5
f 23/23/23 83/83/83 50/50/50
f 126/126/126 17/17/17 71/71/71
f 109/109/109 12/12/12 116/116/116
f 25/25/25 159/159/159 111/111/111
f 144/144/144 149/149/149 40/40/40
f 103/103/103 150/150/150 34/34/34
f 36/36/36 98/98/98 97/97/97
f 153/153/153 81/81/81 37/37/37
f 96/96/96 156/156/156 149/149/149
f 122/122/122 147/147/147 23/23/23
f 26/26/26 148/148/148 132/132/132
f 157/157/157 147/147/147 153/153/153
f 120/120/120 25/25/25 111/111/111
f 12/12/12 109/109/109 152/152/152
f 14/14/14 133/133/133 78/78/78
f 13/13/13 131/131/131 127/127/127
f 107/107/107 106/106/106 33/33/33
f 44/44/44 135/135/135 126/126/126
f 43/43/43 101/101/101 107/107/107
f 34/34/34 156/156/156 104/104/104
f 57/57/57 104/104/104 156/156/156
f 121/121/121 80/80/80 5/5/5
f 63/63/63 121/121/121 111/111/111
f 121/121/121 28/28/28 80/80/80
f 77/77/77 118/118/118 14/14/14
f 10/10/10 93/93/93 48/48/48
f 103/103/103 34/34/34 80/80/80
f 131/131/131 79/79/79 29/29/29
f 140/140/140 145/145/145 134/134/134
f 49/49/49 10/10/10 157/157/157
f 124/124/124 27/27/27 79/79/79
f 139/139/139 33/33/33 108/108/108
f 107/107/107 33/33/33 43/43/43
f 133/133/133 79/79/79 27/27/27
f 145/145/145 148/148/148 134/134/134
f 139/139/139 43/43/43 33/33/33
f 11/11/11 155/155/155 158/158/158
f 149/149/149 162/162/162 40/40/40
f 140/140/140 28/28/28 110/110/110
f 51/51/51 106/106/106 107/107/107
f 127/127/127 132/132/132 154/154/154
f 97/97/97 56/56/56 36/36/36
f 86/86/86 46/46/46 142/142/142
f 112/112/112 42/42/42 31/31/31
f 40/40/40 46/46/46 86/86/86
f 74/74/74 139/139/139 108/108/108
f 100/100/100 43/43/43 139/139/139
f 137/137/137 31/31/31 47/47/47
f 114/114/114 47/47/47 31/31/31
f 88/88/88 40/40/40 86/86/86
f 16/16/16 100/100/100 139/139/139
f 102/102/102 35/35/35 100/100/100
f 68/68/68 142/142/142 102/102/102
f 88/88/88 99/99/99 56/56/56
f 142/142/142 35/35/35 102/102/102
f 53/53/53 105/105/105 54/54/54
f 147/147/147 122/122/122 81/81/81
f 19/19/19 86/86/86 142/142/142
f 88/88/88 56/56/56 40/40/40
f 144/144/144 40/40/40 56/56/56
f 96/96/96 149/149/149 144/144/144
f 106/106/106 51/51/51 138/138/138
f 87/87/87 46/46/46 40/40/40
f 81/81/81 153/153/153 147/147/147
f 87/87/87 155/155/155 46/46/46
f 144/144/144 56/56/56 97/97/97
f 60/60/60 81/81/81 122/122/122
f 64/64/64 91/91/91 89/89/89
f 87/87/87 40/40/40 162/162/162
f 67/67/67 88/88/88 86/86/86
f 7/7/7 99/99/99 88/88/88
f 7/7/7 70/70/70 99/99/99
f 67/67/67 7/7/7 88/88/88
f 19/19/19 67/67/67 86/86/86
f 68/68/68 19/19/19 142/142/142
f 73/73/73 102/102/102 100/100/100
f 4/4/4 68/68/68 102/102/102
f 73/73/73 4/4/4 102/102/102
f 16/16/16 73/73/73 100/100/100
f 74/74/74 16/16/16 139/139/139
f 8/8/8 74/74/74 108/108/108
f 39/39/39 89/89/89 91/91/91
f 116/116/116 22/22/22 109/109/109
f 116/116/116 42/42/42 30/30/30
f 134/134/134 138/138/138 80/80/80
f 61/61/61 123/123/123 124/124/124
f 106/106/106 148/148/148 52/52/52
f 162/162/162 158/158/158 87/87/87
f 128/128/128 71/71/71 8/8/8
f 90/90/90 130/130/130 157/157/157
f 32/32/32 51/51/51 107/107/107
f 146/146/146 159/159/159 22/22/22
f 130/130/130 143/143/143 147/147/147
f 103/103/103 138/138/138 51/51/51
f 25/25/25 152/152/152 159/159/159
f 155/155/155 101/101/101 46/46/46
f 154/154/154 132/132/132 145/145/145
f 84/84/84 114/114/114 12/12/12
f 101/101/101 155/155/155 11/11/11
f 114/114/114 84/84/84 47/47/47
f 146/146/146 22/22/22 136/136/136
f 154/154/154 13/13/13 127/127/127
f 90/90/90 157/157/157 10/10/10
f 143/143/143 130/130/130 39/39/39
f 140/140/140 161/161/161 154/154/154
f 109/109/109 159/159/159 152/152/152
f 116/116/116 30/30/30 22/22/22
f 87/87/87 158/158/158 155/155/155
f 161/161/161 61/61/61 154/154/154
f 160/160/160 149/149/149 156/156/156
f 61/61/61 161/161/161 110/110/110
f 161/161/161 140/140/140 110/110/110
f 158/158/158 162/162/162 160/160/160
f 162/162/162 149/149/149 160/160/160
f 96/96/96 163/163/163 156/156/156
f 163/163/163 57/57/57 156/156/156
f 57/57/57 163/163/163 105/105/105
f 163/163/163 96/96/96 105/105/105
