# frame 000266 
# time 0.133500 
# name Cloth3D 
v -0.000000 0.000000 -0.000000
v 1.000000 0.000000 -0.000000
v -0.000000 1.000000 0.000000
v 1.000000 1.000000 0.000000
v 0.500993 0.500488 0.061534
v -0.000000 0.500000 0.000000
v 0.500000 1.000000 0.000000
v 1.000000 0.500000 0.000000
v 0.500000 -0.000000 0.000000
v 0.250017 0.750524 0.030732
v 0.751786 0.751662 0.040775
v 0.251753 0.250871 0.018722
v 0.751029 0.249888 0.031587
v 0.750000 0.000000 0.000000
v 0.250000 0.000000 0.000000
v 1.000000 0.750000 0.000000
v 1.000000 0.250000 0.000000
v 0.250000 1.000000 0.000000
v 0.750000 1.000000 0.000000
v 0.000000 0.250000 0.000000
v 0.000000 0.750000 -0.000000
v 0.366220 0.219061 0.037817
v 0.247814 0.500551 0.056591
v 0.500930 0.753582 0.059908
v 0.374317 0.372329 0.061686
v 0.878219 0.374681 0.034739
v 0.625721 0.122528 0.032952
v 0.627287 0.373789 0.061534
v 0.875568 0.124580 0.014417
v 0.375935 0.123590 0.025167
v 0.125590 0.125418 0.004470
v 0.752453 0.688825 0.045929
v 0.878813 0.625819 0.037838
v 0.627325 0.626908 0.061534
v 0.876192 0.876138 0.020385
v 0.375029 0.877582 0.032461
v 0.374354 0.626830 0.061534
v 0.124955 0.875160 0.011527
v 0.123046 0.625357 0.030197
v 0.626100 0.879248 0.039936
v 0.124483 0.375294 0.024396
v 0.250803 0.124919 0.014455
v 0.876429 0.750636 0.024164
v 0.876634 0.249656 0.024205
v 0.250027 0.875823 0.020646
v 0.750966 0.876916 0.027299
v 0.125705 0.250583 0.011511
v 0.124446 0.750121 0.019245
v 0.304632 0.714606 0.040374
v 0.278587 0.435944 0.048971
v 0.753300 0.626167 0.053509
v 0.878825 0.500094 0.038864
v 0.371824 0.647417 0.061686
v 0.375510 0.751629 0.043934
v 0.000000 0.375000 0.000000
v 0.500519 0.878842 0.039001
v 0.500931 0.627093 0.061535
v 0.250098 0.375609 0.038190
v 0.123013 0.500357 0.031852
v 0.374322 0.500472 0.061535
v 0.625854 0.248544 0.046074
v 0.500448 0.121079 0.039288
v 0.500872 0.373716 0.061535
v 0.000000 0.625000 0.000000
v 0.000000 0.875000 0.000000
v 0.000000 0.125000 0.000000
v 0.625000 1.000000 0.000000
v 0.875000 1.000000 0.000000
v 0.125000 1.000000 0.000000
v 0.375000 1.000000 0.000000
v 1.000000 0.375000 0.000000
v 1.000000 0.125000 0.000000
v 1.000000 0.875000 0.000000
v 1.000000 0.625000 0.000000
v 0.375000 0.000000 0.000000
v 0.125000 0.000000 0.000000
v 0.875000 0.000000 0.000000
v 0.625000 0.000000 0.000000
v 0.750527 0.124316 0.020822
v 0.627593 0.500386 0.061535
v 0.343428 0.563456 0.061612
v 0.062438 0.312747 0.010204
v 0.186942 0.438389 0.034958
v 0.188486 0.313608 0.019238
v 0.061466 0.437630 0.016103
v 0.687896 0.938960 0.016741
v 0.688842 0.815329 0.042142
v 0.562884 0.939188 0.018967
v 0.060972 0.687732 0.017010
v 0.186639 0.687821 0.031846
v 0.060096 0.562649 0.021140
v 0.187470 0.937967 0.010253
v 0.187832 0.812446 0.015210
v 0.062616 0.937403 0.001421
v 0.437672 0.563761 0.061535
v 0.517581 0.762320 0.061726
v 0.438070 0.815384 0.044146
v 0.312675 0.813843 0.032701
v 0.437659 0.939850 0.020633
v 0.937805 0.812837 0.009548
v 0.813722 0.813797 0.028032
v 0.937811 0.937805 0.006344
v 0.708865 0.592857 0.061679
v 0.564228 0.563752 0.061535
v 0.422422 0.687260 0.061679
v 0.817065 0.563208 0.052971
v 0.815687 0.689019 0.044336
v 0.940118 0.562706 0.021650
v 0.312341 0.261375 0.032112
v 0.572355 0.297091 0.061679
v 0.437705 0.437179 0.061535
v 0.187785 0.062530 0.006485
v 0.062746 0.062725 -0.001533
v 0.188748 0.188163 0.009624
v 0.312753 0.061481 0.014412
v 0.313894 0.187301 0.023725
v 0.437728 0.059702 0.021840
v 0.812765 0.061925 0.011167
v 0.937552 0.062466 0.003279
v 0.333211 0.424507 0.061679
v 0.564199 0.437119 0.061535
v 0.286843 0.483337 0.061679
v 0.562831 0.184970 0.043487
v 0.688066 0.186554 0.031523
v 0.562843 0.060068 0.021119
v 0.939258 0.312351 0.017206
v 0.814686 0.312241 0.035946
v 0.939043 0.437538 0.017904
v 0.312531 0.938754 0.015461
v 0.185808 0.625445 0.039458
v 0.813259 0.187378 0.020732
v 0.804198 0.371829 0.047518
v 0.687700 0.061773 0.013417
v 0.690796 0.437100 0.061535
v 0.938113 0.187340 0.010410
v 0.438745 0.185496 0.040836
v 0.062699 0.187706 0.006883
v 0.766439 0.519806 0.061679
v 0.939379 0.687874 0.017993
v 0.668790 0.373095 0.061679
v 0.062303 0.812549 0.008520
v 0.812957 0.938240 0.012056
v 0.184614 0.563184 0.047758
v 0.563651 0.817186 0.055310
v 0.717710 0.411534 0.061686
v 0.486739 0.229202 0.061692
v 0.239224 0.543232 0.061692
v 0.800778 0.476768 0.061692
v 0.553232 0.790776 0.061692
v 0.664418 0.649253 0.061679
v 0.519843 0.255705 0.061679
v 0.297633 0.332456 0.039086
v 0.323658 0.609552 0.061689
v 0.714786 0.300672 0.041062
v 0.751157 0.814265 0.033468
v 0.582898 0.675038 0.061607
v 0.280533 0.658144 0.049480
v 0.690141 0.759844 0.044778
v 0.413453 0.322541 0.061689
v 0.625480 0.698788 0.061686
v 0.647890 0.309890 0.052322
v 0.630311 0.774112 0.051928
v 0.511681 0.691393 0.061607
v 0.694368 0.508195 0.061607
v 0.839079 0.423199 0.047288
vt 0.000000 0.000000
vt 1.000000 0.000000
vt 0.000000 1.000000
vt 1.000000 1.000000
vt 0.500000 0.500000
vt 0.000000 0.500000
vt 0.500000 1.000000
vt 1.000000 0.500000
vt 0.500000 0.000000
vt 0.250000 0.750000
vt 0.750000 0.750000
vt 0.250000 0.250000
vt 0.750000 0.250000
vt 0.750000 0.000000
vt 0.250000 0.000000
vt 1.000000 0.750000
vt 1.000000 0.250000
vt 0.250000 1.000000
vt 0.750000 1.000000
vt 0.000000 0.250000
vt 0.000000 0.750000
vt 0.365347 0.220303
vt 0.250000 0.500000
vt 0.500000 0.750000
vt 0.374911 0.373469
vt 0.875000 0.375000
vt 0.625000 0.125000
vt 0.625000 0.375000
vt 0.875000 0.125000
vt 0.375000 0.125000
vt 0.125000 0.125000
vt 0.750000 0.687500
vt 0.875000 0.625000
vt 0.625000 0.625000
vt 0.875000 0.875000
vt 0.375000 0.875000
vt 0.375000 0.625000
vt 0.125000 0.875000
vt 0.125000 0.625000
vt 0.625000 0.875000
vt 0.125000 0.375000
vt 0.250000 0.125000
vt 0.875000 0.750000
vt 0.875000 0.250000
vt 0.250000 0.875000
vt 0.750000 0.875000
vt 0.125000 0.250000
vt 0.125000 0.750000
vt 0.304602 0.713891
vt 0.278861 0.435152
vt 0.750000 0.625000
vt 0.875000 0.500000
vt 0.372477 0.645378
vt 0.375000 0.750000
vt 0.000000 0.375000
vt 0.500000 0.875000
vt 0.500000 0.625000
vt 0.250000 0.375000
vt 0.125000 0.500000
vt 0.375000 0.500000
vt 0.625000 0.250000
vt 0.500000 0.125000
vt 0.500000 0.375000
vt 0.000000 0.625000
vt 0.000000 0.875000
vt 0.000000 0.125000
vt 0.625000 1.000000
vt 0.875000 1.000000
vt 0.125000 1.000000
vt 0.375000 1.000000
vt 1.000000 0.375000
vt 1.000000 0.125000
vt 1.000000 0.875000
vt 1.000000 0.625000
vt 0.375000 0.000000
vt 0.125000 0.000000
vt 0.875000 0.000000
vt 0.625000 0.000000
vt 0.750000 0.125000
vt 0.625000 0.500000
vt 0.344661 0.562348
vt 0.062500 0.312500
vt 0.187500 0.437500
vt 0.187500 0.312500
vt 0.062500 0.437500
vt 0.687500 0.937500
vt 0.687500 0.812500
vt 0.562500 0.937500
vt 0.062500 0.687500
vt 0.187500 0.687500
vt 0.062500 0.562500
vt 0.187500 0.937500
vt 0.187500 0.812500
vt 0.062500 0.937500
vt 0.437500 0.562500
vt 0.516747 0.758214
vt 0.437500 0.812500
vt 0.312500 0.812500
vt 0.437500 0.937500
vt 0.937500 0.812500
vt 0.812500 0.812500
vt 0.937500 0.937500
vt 0.705458 0.591596
vt 0.562500 0.562500
vt 0.422458 0.684620
vt 0.812500 0.562500
vt 0.812500 0.687500
vt 0.937500 0.562500
vt 0.311128 0.261404
vt 0.570980 0.299470
vt 0.437500 0.437500
vt 0.187500 0.062500
vt 0.062500 0.062500
vt 0.187500 0.187500
vt 0.312500 0.062500
vt 0.312500 0.187500
vt 0.437500 0.062500
vt 0.812500 0.062500
vt 0.937500 0.062500
vt 0.334357 0.424938
vt 0.562500 0.437500
vt 0.288843 0.483199
vt 0.562500 0.187500
vt 0.687500 0.187500
vt 0.562500 0.062500
vt 0.937500 0.312500
vt 0.812500 0.312500
vt 0.937500 0.437500
vt 0.312500 0.937500
vt 0.187500 0.625000
vt 0.812500 0.187500
vt 0.800716 0.372483
vt 0.687500 0.062500
vt 0.687500 0.437500
vt 0.937500 0.187500
vt 0.437500 0.187500
vt 0.062500 0.187500
vt 0.761834 0.519430
vt 0.937500 0.687500
vt 0.666034 0.374253
vt 0.062500 0.812500
vt 0.812500 0.937500
vt 0.187500 0.562500
vt 0.562500 0.812500
vt 0.714160 0.412244
vt 0.486438 0.233170
vt 0.242617 0.542595
vt 0.795345 0.476904
vt 0.552317 0.785791
vt 0.661766 0.647202
vt 0.519109 0.259026
vt 0.296906 0.332149
vt 0.325085 0.608032
vt 0.713437 0.300753
vt 0.750000 0.812500
vt 0.581168 0.672349
vt 0.281585 0.657008
vt 0.688844 0.757642
vt 0.413611 0.324456
vt 0.623424 0.695937
vt 0.646352 0.310977
vt 0.629073 0.770824
vt 0.510736 0.688401
vt 0.690882 0.507820
vt 0.834853 0.423541
vn 0.013580 0.013580 0.999816
vn 0.024968 -0.024968 0.999376
vn -0.009921 0.009921 0.999902
vn 0.049783 0.049783 0.997519
vn 0.000000 0.000000 1.000000
vn -0.291307 -0.021148 0.956396
vn 0.006352 0.311706 0.950157
vn 0.314911 -0.015556 0.948994
vn 0.003244 -0.338095 0.941106
vn -0.109768 0.126738 0.985844
vn 0.071706 0.106839 0.991687
vn -0.143169 -0.101866 0.984442
vn 0.079375 -0.116351 0.990031
vn 0.009362 -0.194243 0.980909
vn -0.032997 -0.163864 0.985931
vn 0.217755 0.034045 0.975410
vn 0.218277 -0.028382 0.975474
vn -0.020913 0.201263 0.979314
vn 0.019493 0.228762 0.973287
vn -0.131545 -0.013438 0.991219
vn -0.201130 0.035154 0.978934
vn -0.176512 -0.140822 0.974173
vn -0.210622 -0.169592 0.962745
vn -0.171108 0.146253 0.974337
vn -0.103248 -0.080737 0.991374
vn 0.211205 -0.074563 0.974594
vn 0.078346 -0.155312 0.984754
vn -0.002089 0.002587 0.999994
vn 0.078136 -0.080214 0.993710
vn -0.103045 -0.117256 0.987741
vn -0.047559 -0.044043 0.997897
vn 0.061030 0.103988 0.992704
vn 0.223971 0.056384 0.972963
vn -0.001468 -0.001556 0.999998
vn 0.110486 0.088713 0.989911
vn -0.071629 0.157743 0.984879
vn 0.004284 -0.004957 0.999979
vn -0.074310 0.060764 0.995382
vn -0.154257 0.078099 0.984939
vn 0.058088 0.231094 0.971196
vn -0.107061 -0.084881 0.990623
vn -0.085657 -0.046320 0.995247
vn 0.174574 0.085404 0.980933
vn 0.112130 -0.085881 0.989975
vn -0.087555 0.085912 0.992448
vn 0.086048 0.139861 0.986425
vn -0.044667 -0.065353 0.996862
vn -0.088521 0.088656 0.992121
vn -0.095171 0.155687 0.983211
vn -0.222566 -0.157539 0.962105
vn 0.095702 0.098707 0.990504
vn 0.274939 -0.011993 0.961387
vn -0.023625 0.032990 0.999176
vn -0.114947 0.129456 0.984900
vn -0.204657 -0.023930 0.978541
vn -0.035766 0.233196 0.971772
vn 0.000041 -0.000801 1.000000
vn -0.172095 -0.129610 0.976517
vn -0.187713 -0.048727 0.981014
vn 0.001054 0.000129 0.999999
vn 0.130533 -0.147384 0.980428
vn -0.019671 -0.200451 0.979506
vn 0.000326 0.000803 1.000000
vn -0.300407 0.016447 0.953669
vn -0.076038 0.028204 0.996706
vn -0.038875 -0.033179 0.998693
vn 0.008808 0.283050 0.959065
vn 0.023107 0.145380 0.989106
vn -0.035335 0.090230 0.995294
vn -0.021414 0.282967 0.958890
vn 0.279291 -0.003268 0.960201
vn 0.106495 -0.028373 0.993908
vn 0.125236 0.012981 0.992042
vn 0.313956 0.016166 0.949300
vn -0.030327 -0.286651 0.957555
vn -0.031599 -0.035705 0.998863
vn 0.031785 -0.113281 0.993054
vn 0.031324 -0.272980 0.961510
vn 0.063639 -0.105467 0.992384
vn -0.000502 -0.000322 1.000000
vn 0.001561 -0.000370 0.999999
vn -0.139031 -0.044553 0.989285
vn -0.140612 -0.123587 0.982321
vn -0.084667 -0.115365 0.989708
vn -0.218964 -0.038179 0.974986
vn 0.040106 0.265142 0.963375
vn 0.126741 0.077376 0.988913
vn 0.005840 0.310542 0.950542
vn -0.193284 0.048587 0.979939
vn -0.125399 0.116443 0.985249
vn -0.242755 0.000777 0.970087
vn -0.046383 0.125041 0.991067
vn -0.074740 0.070117 0.994735
vn -0.044930 0.041353 0.998134
vn 0.000253 0.000001 1.000000
vn -0.112405 0.110570 0.987491
vn -0.094789 0.124533 0.987677
vn -0.107489 0.086266 0.990457
vn -0.021257 0.281184 0.959419
vn 0.174667 0.030992 0.984140
vn 0.088192 0.086720 0.992321
vn 0.076776 0.071663 0.994470
vn 0.069609 0.054749 0.996071
vn 0.000000 -0.000175 1.000000
vn -0.068149 0.089150 0.993684
vn 0.155792 0.061743 0.985858
vn 0.102465 0.103206 0.989368
vn 0.301620 0.002793 0.953424
vn -0.193856 -0.124768 0.973064
vn 0.084452 -0.099384 0.991459
vn 0.000641 0.000601 1.000000
vn -0.052415 -0.072516 0.995989
vn -0.017176 -0.017979 0.999691
vn -0.068483 -0.041478 0.996790
vn -0.053326 -0.154509 0.986551
vn -0.154891 -0.096738 0.983184
vn -0.042691 -0.252679 0.966608
vn 0.033284 -0.137369 0.989961
vn 0.056612 -0.054879 0.996887
vn -0.130597 -0.086952 0.987615
vn 0.000000 -0.000000 1.000000
vn -0.161683 -0.144337 0.976230
vn 0.106198 -0.144422 0.983801
vn 0.099499 -0.091540 0.990818
vn 0.030468 -0.283432 0.958508
vn 0.232393 -0.037107 0.971914
vn 0.096807 -0.138498 0.985620
vn 0.287127 -0.018997 0.957704
vn -0.045560 0.208186 0.977028
vn -0.149103 0.131161 0.980084
vn 0.052517 -0.083412 0.995130
vn 0.137776 -0.149349 0.979139
vn 0.045451 -0.210814 0.976469
vn -0.001943 0.001829 0.999996
vn 0.151937 -0.048339 0.987207
vn -0.156846 -0.199685 0.967225
vn -0.060664 -0.037518 0.997453
vn 0.054687 0.045807 0.997452
vn 0.243621 0.053253 0.968407
vn 0.054442 -0.072812 0.995859
vn -0.119215 0.047091 0.991751
vn 0.035389 0.187634 0.981601
vn -0.211158 0.046364 0.976352
vn 0.031275 0.197395 0.979825
vn 0.031728 -0.048033 0.998342
vn -0.003943 -0.143840 0.989593
vn -0.199795 -0.060001 0.977999
vn 0.153513 -0.012954 0.988062
vn -0.017088 0.190404 0.981557
vn 0.041877 0.035944 0.998476
vn 0.077939 -0.098175 0.992113
vn -0.180522 -0.153524 0.971515
vn -0.041254 0.054130 0.997681
vn 0.108057 -0.154067 0.982134
vn 0.106493 0.096371 0.989632
vn -0.000447 -0.001394 0.999999
vn -0.113058 0.166609 0.979520
vn 0.122917 0.084261 0.988833
vn -0.097289 -0.071786 0.992664
vn 0.057005 0.044581 0.997378
vn 0.144514 -0.173148 0.974236
vn 0.135250 0.106998 0.985017
vn 0.000222 -0.001427 0.999999
vn -0.000932 -0.000848 0.999999
vn 0.224086 -0.086931 0.970685
f 1/1/1 113/113/113 66/66/66
f 31/31/31 137/137/137 113/113/113
f 132/132/132 127/127/127 26/26/26
f 112/112/112 31/31/31 113/113/113
f 135/135/135 44/44/44 29/29/29
f 106/106/106 52/52/52 33/33/33
f 50/50/50 58/58/58 120/120/120
f 84/84/84 41/41/41 47/47/47
f 137/137/137 66/66/66 113/113/113
f 75/75/75 115/115/115 15/15/15
f 12/12/12 152/152/152 84/84/84
f 23/23/23 147/147/147 143/143/143
f 25/25/25 120/120/120 152/152/152
f 76/76/76 113/113/113 1/1/1
f 76/76/76 112/112/112 113/113/113
f 15/15/15 112/112/112 76/76/76
f 115/115/115 112/112/112 15/15/15
f 30/30/30 115/115/115 117/117/117
f 108/108/108 33/33/33 52/52/52
f 75/75/75 117/117/117 115/115/115
f 115/115/115 30/30/30 42/42/42
f 145/145/145 140/140/140 154/154/154
f 51/51/51 150/150/150 103/103/103
f 136/136/136 22/22/22 30/30/30
f 90/90/90 10/10/10 48/48/48
f 54/54/54 98/98/98 49/49/49
f 42/42/42 112/112/112 115/115/115
f 58/58/58 84/84/84 152/152/152
f 13/13/13 154/154/154 124/124/124
f 60/60/60 120/120/120 111/111/111
f 136/136/136 62/62/62 146/146/146
f 159/159/159 63/63/63 111/111/111
f 101/101/101 43/43/43 35/35/35
f 104/104/104 80/80/80 34/34/34
f 10/10/10 49/49/49 98/98/98
f 50/50/50 122/122/122 23/23/23
f 49/49/49 53/53/53 54/54/54
f 117/117/117 62/62/62 30/30/30
f 144/144/144 97/97/97 96/96/96
f 131/131/131 29/29/29 44/44/44
f 77/77/77 2/2/2 119/119/119
f 77/77/77 119/119/119 118/118/118
f 71/71/71 128/128/128 126/126/126
f 58/58/58 152/152/152 120/120/120
f 63/63/63 28/28/28 121/121/121
f 119/119/119 29/29/29 118/118/118
f 122/122/122 50/50/50 120/120/120
f 125/125/125 27/27/27 62/62/62
f 135/135/135 72/72/72 17/17/17
f 136/136/136 30/30/30 62/62/62
f 138/138/138 148/148/148 106/106/106
f 60/60/60 122/122/122 120/120/120
f 153/153/153 53/53/53 157/157/157
f 11/11/11 32/32/32 107/107/107
f 12/12/12 114/114/114 116/116/116
f 150/150/150 160/160/160 34/34/34
f 32/32/32 158/158/158 150/150/150
f 147/147/147 157/157/157 130/130/130
f 151/151/151 146/146/146 123/123/123
f 44/44/44 127/127/127 131/131/131
f 82/82/82 47/47/47 41/41/41
f 45/45/45 98/98/98 36/36/36
f 82/82/82 137/137/137 47/47/47
f 61/61/61 124/124/124 154/154/154
f 26/26/26 126/126/126 128/128/128
f 62/62/62 117/117/117 125/125/125
f 20/20/20 137/137/137 82/82/82
f 38/38/38 92/92/92 94/94/94
f 20/20/20 66/66/66 137/137/137
f 55/55/55 20/20/20 82/82/82
f 69/69/69 94/94/94 92/92/92
f 110/110/110 151/151/151 61/61/61
f 8/8/8 108/108/108 128/128/128
f 141/141/141 48/48/48 38/38/38
f 164/164/164 80/80/80 134/134/134
f 65/65/65 141/141/141 94/94/94
f 114/114/114 31/31/31 42/42/42
f 38/38/38 94/94/94 141/141/141
f 92/92/92 18/18/18 69/69/69
f 97/97/97 54/54/54 24/24/24
f 151/151/151 110/110/110 63/63/63
f 46/46/46 35/35/35 142/142/142
f 29/29/29 119/119/119 135/135/135
f 83/83/83 23/23/23 59/59/59
f 151/151/151 63/63/63 159/159/159
f 35/35/35 46/46/46 101/101/101
f 129/129/129 45/45/45 36/36/36
f 27/27/27 124/124/124 123/123/123
f 85/85/85 41/41/41 59/59/59
f 78/78/78 125/125/125 9/9/9
f 70/70/70 129/129/129 99/99/99
f 83/83/83 59/59/59 41/41/41
f 129/129/129 70/70/70 18/18/18
f 36/36/36 99/99/99 129/129/129
f 93/93/93 38/38/38 48/48/48
f 38/38/38 45/45/45 92/92/92
f 52/52/52 128/128/128 108/108/108
f 65/65/65 94/94/94 3/3/3
f 72/72/72 135/135/135 119/119/119
f 94/94/94 69/69/69 3/3/3
f 39/39/39 90/90/90 48/48/48
f 21/21/21 141/141/141 65/65/65
f 18/18/18 92/92/92 129/129/129
f 6/6/6 91/91/91 64/64/64
f 105/105/105 24/24/24 54/54/54
f 93/93/93 45/45/45 38/38/38
f 89/89/89 39/39/39 48/48/48
f 13/13/13 124/124/124 131/131/131
f 45/45/45 129/129/129 92/92/92
f 9/9/9 125/125/125 117/117/117
f 64/64/64 89/89/89 21/21/21
f 55/55/55 82/82/82 85/85/85
f 6/6/6 85/85/85 91/91/91
f 59/59/59 91/91/91 85/85/85
f 41/41/41 85/85/85 82/82/82
f 6/6/6 55/55/55 85/85/85
f 146/146/146 151/151/151 159/159/159
f 59/59/59 39/39/39 91/91/91
f 109/109/109 22/22/22 159/159/159
f 143/143/143 39/39/39 59/59/59
f 118/118/118 29/29/29 79/79/79
f 58/58/58 50/50/50 83/83/83
f 134/134/134 148/148/148 138/138/138
f 58/58/58 83/83/83 84/84/84
f 119/119/119 2/2/2 72/72/72
f 49/49/49 157/157/157 53/53/53
f 11/11/11 158/158/158 32/32/32
f 40/40/40 144/144/144 162/162/162
f 10/10/10 98/98/98 93/93/93
f 21/21/21 89/89/89 141/141/141
f 105/105/105 53/53/53 37/37/37
f 51/51/51 32/32/32 150/150/150
f 79/79/79 133/133/133 118/118/118
f 118/118/118 133/133/133 14/14/14
f 79/79/79 131/131/131 124/124/124
f 100/100/100 35/35/35 43/43/43
f 143/143/143 59/59/59 23/23/23
f 48/48/48 141/141/141 89/89/89
f 78/78/78 133/133/133 125/125/125
f 62/62/62 27/27/27 123/123/123
f 53/53/53 153/153/153 37/37/37
f 37/37/37 81/81/81 95/95/95
f 60/60/60 95/95/95 81/81/81
f 156/156/156 34/34/34 160/160/160
f 5/5/5 95/95/95 111/111/111
f 148/148/148 145/145/145 132/132/132
f 57/57/57 37/37/37 95/95/95
f 37/37/37 57/57/57 105/105/105
f 27/27/27 125/125/125 133/133/133
f 121/121/121 5/5/5 111/111/111
f 160/160/160 150/150/150 158/158/158
f 61/61/61 151/151/151 123/123/123
f 17/17/17 126/126/126 135/135/135
f 41/41/41 84/84/84 83/83/83
f 123/123/123 146/146/146 62/62/62
f 60/60/60 111/111/111 95/95/95
f 28/28/28 134/134/134 80/80/80
f 104/104/104 95/95/95 5/5/5
f 28/28/28 140/140/140 134/134/134
f 24/24/24 105/105/105 96/96/96
f 57/57/57 95/95/95 104/104/104
f 138/138/138 164/164/164 134/134/134
f 127/127/127 44/44/44 26/26/26
f 126/126/126 26/26/26 44/44/44
f 45/45/45 93/93/93 98/98/98
f 110/110/110 28/28/28 63/63/63
f 11/11/11 107/107/107 101/101/101
f 9/9/9 117/117/117 75/75/75
f 165/165/165 148/148/148 132/132/132
f 54/54/54 97/97/97 98/98/98
f 130/130/130 90/90/90 39/39/39
f 114/114/114 42/42/42 116/116/116
f 99/99/99 36/36/36 56/56/56
f 80/80/80 104/104/104 5/5/5
f 23/23/23 83/83/83 50/50/50
f 126/126/126 17/17/17 71/71/71
f 109/109/109 12/12/12 116/116/116
f 25/25/25 159/159/159 111/111/111
f 163/163/163 96/96/96 105/105/105
f 103/103/103 150/150/150 34/34/34
f 36/36/36 98/98/98 97/97/97
f 153/153/153 81/81/81 37/37/37
f 96/96/96 156/156/156 149/149/149
f 122/122/122 147/147/147 23/23/23
f 24/24/24 96/96/96 97/97/97
f 157/157/157 147/147/147 153/153/153
f 120/120/120 25/25/25 111/111/111
f 12/12/12 109/109/109 152/152/152
f 14/14/14 133/133/133 78/78/78
f 13/13/13 131/131/131 127/127/127
f 107/107/107 106/106/106 33/33/33
f 44/44/44 135/135/135 126/126/126
f 43/43/43 101/101/101 107/107/107
f 34/34/34 156/156/156 104/104/104
f 57/57/57 104/104/104 156/156/156
f 121/121/121 80/80/80 5/5/5
f 63/63/63 121/121/121 111/111/111
f 121/121/121 28/28/28 80/80/80
f 77/77/77 118/118/118 14/14/14
f 10/10/10 93/93/93 48/48/48
f 103/103/103 34/34/34 80/80/80
f 131/131/131 79/79/79 29/29/29
f 140/140/140 145/145/145 134/134/134
f 49/49/49 10/10/10 157/157/157
f 124/124/124 27/27/27 79/79/79
f 139/139/139 33/33/33 108/108/108
f 107/107/107 33/33/33 43/43/43
f 133/133/133 79/79/79 27/27/27
f 145/145/145 148/148/148 134/134/134
f 139/139/139 43/43/43 33/33/33
f 11/11/11 155/155/155 158/158/158
f 57/57/57 163/163/163 105/105/105
f 140/140/140 28/28/28 110/110/110
f 51/51/51 106/106/106 107/107/107
f 127/127/127 132/132/132 154/154/154
f 97/97/97 56/56/56 36/36/36
f 86/86/86 46/46/46 142/142/142
f 112/112/112 42/42/42 31/31/31
f 40/40/40 46/46/46 86/86/86
f 74/74/74 139/139/139 108/108/108
f 100/100/100 43/43/43 139/139/139
f 137/137/137 31/31/31 47/47/47
f 114/114/114 47/47/47 31/31/31
f 88/88/88 40/40/40 86/86/86
f 16/16/16 100/100/100 139/139/139
f 102/102/102 35/35/35 100/100/100
f 68/68/68 142/142/142 102/102/102
f 88/88/88 99/99/99 56/56/56
f 142/142/142 35/35/35 102/102/102
f 53/53/53 105/105/105 54/54/54
f 147/147/147 122/122/122 81/81/81
f 19/19/19 86/86/86 142/142/142
f 88/88/88 56/56/56 40/40/40
f 144/144/144 40/40/40 56/56/56
f 96/96/96 149/149/149 144/144/144
f 106/106/106 51/51/51 138/138/138
f 87/87/87 46/46/46 40/40/40
f 81/81/81 153/153/153 147/147/147
f 87/87/87 155/155/155 46/46/46
f 144/144/144 56/56/56 97/97/97
f 60/60/60 81/81/81 122/122/122
f 64/64/64 91/91/91 89/89/89
f 87/87/87 40/40/40 162/162/162
f 67/67/67 88/88/88 86/86/86
f 7/7/7 99/99/99 88/88/88
f 7/7/7 70/70/70 99/99/99
f 67/67/67 7/7/7 88/88/88
f 19/19/19 67/67/67 86/86/86
f 68/68/68 19/19/19 142/142/142
f 73/73/73 102/102/102 100/100/100
f 4/4/4 68/68/68 102/102/102
f 73/73/73 4/4/4 102/102/102
f 16/16/16 73/73/73 100/100/100
f 74/74/74 16/16/16 139/139/139
f 8/8/8 74/74/74 108/108/108
f 39/39/39 89/89/89 91/91/91
f 116/116/116 22/22/22 109/109/109
f 116/116/116 42/42/42 30/30/30
f 149/149/149 162/162/162 144/144/144
f 61/61/61 123/123/123 124/124/124
f 106/106/106 148/148/148 52/52/52
f 162/162/162 158/158/158 87/87/87
f 128/128/128 71/71/71 8/8/8
f 90/90/90 130/130/130 157/157/157
f 32/32/32 51/51/51 107/107/107
f 146/146/146 159/159/159 22/22/22
f 130/130/130 143/143/143 147/147/147
f 103/103/103 138/138/138 51/51/51
f 25/25/25 152/152/152 159/159/159
f 155/155/155 101/101/101 46/46/46
f 154/154/154 132/132/132 145/145/145
f 84/84/84 114/114/114 12/12/12
f 101/101/101 155/155/155 11/11/11
f 114/114/114 84/84/84 47/47/47
f 146/146/146 22/22/22 136/136/136
f 154/154/154 13/13/13 127/127/127
f 90/90/90 157/157/157 10/10/10
f 143/143/143 130/130/130 39/39/39
f 140/140/140 161/161/161 154/154/154
f 109/109/109 159/159/159 152/152/152
f 116/116/116 30/30/30 22/22/22
f 87/87/87 158/158/158 155/155/155
f 161/161/161 61/61/61 154/154/154
f 160/160/160 149/149/149 156/156/156
f 61/61/61 161/161/161 110/110/110
f 161/161/161 140/140/140 110/110/110
f 158/158/158 162/162/162 160/160/160
f 162/162/162 149/149/149 160/160/160
f 96/96/96 163/163/163 156/156/156
f 163/163/163 57/57/57 156/156/156
f 80/80/80 164/164/164 103/103/103
f 164/164/164 138/138/138 103/103/103
f 148/148/148 165/165/165 52/52/52
f 26/26/26 165/165/165 132/132/132
f 52/52/52 165/165/165 128/128/128
f 26/26/26 128/128/128 165/165/165
