# frame 000241 
# time 0.121000 
# name Cloth3D 
v -0.000000 0.000000 -0.000000
v 1.000000 0.000000 -0.000000
v -0.000000 1.000000 0.000000
v 1.000000 1.000000 0.000000
v 0.500892 0.500224 0.055284
v -0.000000 0.500000 0.000000
v 0.500000 1.000000 0.000000
v 1.000000 0.500000 0.000000
v 0.500000 -0.000000 0.000000
v 0.251049 0.749457 0.018816
v 0.750491 0.750625 0.026759
v 0.252223 0.251212 0.011888
v 0.750204 0.250762 0.020884
v 0.750000 0.000000 0.000000
v 0.250000 0.000000 0.000000
v 1.000000 0.750000 0.000000
v 1.000000 0.250000 0.000000
v 0.250000 1.000000 0.000000
v 0.750000 1.000000 0.000000
v 0.000000 0.250000 0.000000
v 0.000000 0.750000 -0.000000
v 0.368041 0.220585 0.022758
v 0.248774 0.500724 0.046694
v 0.501270 0.752824 0.051389
v 0.373070 0.371421 0.055436
v 0.877521 0.375085 0.028670
v 0.625081 0.124008 0.023046
v 0.627073 0.373699 0.055284
v 0.874814 0.125287 0.005178
v 0.375897 0.124398 0.018722
v 0.125908 0.125682 -0.004641
v 0.751503 0.688248 0.035970
v 0.877943 0.625563 0.031425
v 0.627244 0.626674 0.055284
v 0.875137 0.875240 0.009677
v 0.375458 0.876229 0.023879
v 0.374483 0.626678 0.055284
v 0.125580 0.874618 0.000511
v 0.123978 0.625316 0.025141
v 0.625761 0.878336 0.034204
v 0.125876 0.375951 0.011003
v 0.251249 0.125588 0.005911
v 0.875618 0.750211 0.015806
v 0.875660 0.250122 0.017170
v 0.250718 0.874830 0.010100
v 0.750260 0.876108 0.019269
v 0.126338 0.250967 0.002544
v 0.125463 0.749429 0.008136
v 0.305267 0.714028 0.031894
v 0.278137 0.435286 0.044598
v 0.752026 0.625306 0.040856
v 0.879810 0.500101 0.040747
v 0.370462 0.649364 0.055436
v 0.376434 0.750423 0.032330
v 0.000000 0.375000 0.000000
v 0.500365 0.878630 0.036955
v 0.500949 0.626797 0.055285
v 0.251746 0.376746 0.023449
v 0.123896 0.500243 0.025896
v 0.374323 0.500239 0.055285
v 0.624762 0.249999 0.032897
v 0.500204 0.122247 0.033409
v 0.500608 0.373610 0.055285
v 0.000000 0.625000 0.000000
v 0.000000 0.875000 0.000000
v 0.000000 0.125000 0.000000
v 0.625000 1.000000 0.000000
v 0.875000 1.000000 0.000000
v 0.125000 1.000000 0.000000
v 0.375000 1.000000 0.000000
v 1.000000 0.375000 0.000000
v 1.000000 0.125000 0.000000
v 1.000000 0.875000 0.000000
v 1.000000 0.625000 0.000000
v 0.375000 0.000000 0.000000
v 0.125000 0.000000 0.000000
v 0.875000 0.000000 0.000000
v 0.625000 0.000000 0.000000
v 0.749637 0.125320 0.009594
v 0.627426 0.500171 0.055285
v 0.343540 0.563307 0.055362
v 0.063054 0.312930 0.004503
v 0.187724 0.438489 0.026348
v 0.189459 0.314035 0.009246
v 0.062278 0.437754 0.010657
v 0.687893 0.939615 0.018165
v 0.687699 0.814179 0.029508
v 0.562758 0.940487 0.022204
v 0.061870 0.687627 0.012566
v 0.187616 0.687246 0.022462
v 0.061722 0.562648 0.014163
v 0.187764 0.937375 0.004345
v 0.188308 0.811982 0.008627
v 0.062682 0.937355 -0.003133
v 0.437680 0.563496 0.055285
v 0.522925 0.754753 0.055429
v 0.438881 0.814197 0.033281
v 0.313743 0.812492 0.019070
v 0.437694 0.939237 0.017644
v 0.937773 0.812630 0.007417
v 0.812396 0.812762 0.012864
v 0.937493 0.937504 0.002029
v 0.706612 0.591162 0.055429
v 0.564160 0.563484 0.055285
v 0.423396 0.685933 0.055429
v 0.815868 0.562537 0.041583
v 0.814031 0.687931 0.029189
v 0.941035 0.562790 0.023704
v 0.313835 0.262594 0.018033
v 0.569148 0.301247 0.055429
v 0.437545 0.436938 0.055285
v 0.188048 0.062926 -0.000474
v 0.062692 0.062658 -0.005706
v 0.189211 0.188577 0.001213
v 0.312754 0.062080 0.011103
v 0.314776 0.188221 0.012890
v 0.437677 0.060789 0.017471
v 0.812449 0.062550 0.006501
v 0.937357 0.062660 -0.001332
v 0.335398 0.425927 0.055429
v 0.564022 0.436934 0.055285
v 0.292865 0.487437 0.055429
v 0.562535 0.185948 0.035950
v 0.686848 0.188029 0.016950
v 0.562664 0.060560 0.018779
v 0.938988 0.312348 0.015644
v 0.813573 0.313465 0.023835
v 0.940815 0.437449 0.022715
v 0.312783 0.937908 0.010015
v 0.187084 0.624689 0.028922
v 0.812361 0.188327 0.008654
v 0.802621 0.373753 0.032003
v 0.687610 0.061754 0.012893
v 0.690579 0.436895 0.055285
v 0.937469 0.187672 0.004667
v 0.437471 0.185007 0.040685
v 0.063122 0.187964 -0.001371
v 0.759406 0.514809 0.055429
v 0.938650 0.687697 0.013520
v 0.670015 0.370993 0.055429
v 0.062831 0.812286 0.002306
v 0.812677 0.938042 0.009365
v 0.185635 0.563033 0.039877
v 0.563651 0.816777 0.050976
v 0.721204 0.406277 0.055436
v 0.469266 0.231828 0.055442
v 0.241845 0.560707 0.055442
v 0.798156 0.459293 0.055442
v 0.570707 0.788155 0.055442
v 0.665830 0.650143 0.055429
v 0.514239 0.263282 0.055429
v 0.299011 0.333464 0.026170
v 0.320064 0.614609 0.055439
v 0.714272 0.301105 0.033122
v 0.749880 0.813239 0.019711
v 0.582903 0.674737 0.055357
v 0.281489 0.657171 0.038825
v 0.689588 0.759220 0.036149
v 0.408960 0.319374 0.055439
v 0.630128 0.701916 0.055436
v 0.647364 0.310404 0.043756
vt 0.000000 0.000000
vt 1.000000 0.000000
vt 0.000000 1.000000
vt 1.000000 1.000000
vt 0.500000 0.500000
vt 0.000000 0.500000
vt 0.500000 1.000000
vt 1.000000 0.500000
vt 0.500000 0.000000
vt 0.250000 0.750000
vt 0.750000 0.750000
vt 0.250000 0.250000
vt 0.750000 0.250000
vt 0.750000 0.000000
vt 0.250000 0.000000
vt 1.000000 0.750000
vt 1.000000 0.250000
vt 0.250000 1.000000
vt 0.750000 1.000000
vt 0.000000 0.250000
vt 0.000000 0.750000
vt 0.365347 0.220303
vt 0.250000 0.500000
vt 0.500000 0.750000
vt 0.373969 0.372758
vt 0.875000 0.375000
vt 0.625000 0.125000
vt 0.625000 0.375000
vt 0.875000 0.125000
vt 0.375000 0.125000
vt 0.125000 0.125000
vt 0.750000 0.687500
vt 0.875000 0.625000
vt 0.625000 0.625000
vt 0.875000 0.875000
vt 0.375000 0.875000
vt 0.375000 0.625000
vt 0.125000 0.875000
vt 0.125000 0.625000
vt 0.625000 0.875000
vt 0.125000 0.375000
vt 0.250000 0.125000
vt 0.875000 0.750000
vt 0.875000 0.250000
vt 0.250000 0.875000
vt 0.750000 0.875000
vt 0.125000 0.250000
vt 0.125000 0.750000
vt 0.304602 0.713891
vt 0.278861 0.435152
vt 0.750000 0.625000
vt 0.875000 0.500000
vt 0.370969 0.647436
vt 0.375000 0.750000
vt 0.000000 0.375000
vt 0.500000 0.875000
vt 0.500000 0.625000
vt 0.250000 0.375000
vt 0.125000 0.500000
vt 0.375000 0.500000
vt 0.625000 0.250000
vt 0.500000 0.125000
vt 0.500000 0.375000
vt 0.000000 0.625000
vt 0.000000 0.875000
vt 0.000000 0.125000
vt 0.625000 1.000000
vt 0.875000 1.000000
vt 0.125000 1.000000
vt 0.375000 1.000000
vt 1.000000 0.375000
vt 1.000000 0.125000
vt 1.000000 0.875000
vt 1.000000 0.625000
vt 0.375000 0.000000
vt 0.125000 0.000000
vt 0.875000 0.000000
vt 0.625000 0.000000
vt 0.750000 0.125000
vt 0.625000 0.500000
vt 0.344661 0.562348
vt 0.062500 0.312500
vt 0.187500 0.437500
vt 0.187500 0.312500
vt 0.062500 0.437500
vt 0.687500 0.937500
vt 0.687500 0.812500
vt 0.562500 0.937500
vt 0.062500 0.687500
vt 0.187500 0.687500
vt 0.062500 0.562500
vt 0.187500 0.937500
vt 0.187500 0.812500
vt 0.062500 0.937500
vt 0.437500 0.562500
vt 0.521843 0.751267
vt 0.437500 0.812500
vt 0.312500 0.812500
vt 0.437500 0.937500
vt 0.937500 0.812500
vt 0.812500 0.812500
vt 0.937500 0.937500
vt 0.703432 0.590094
vt 0.562500 0.562500
vt 0.423288 0.683496
vt 0.812500 0.562500
vt 0.812500 0.687500
vt 0.937500 0.562500
vt 0.311128 0.261404
vt 0.568014 0.303500
vt 0.437500 0.437500
vt 0.187500 0.062500
vt 0.062500 0.062500
vt 0.187500 0.187500
vt 0.312500 0.062500
vt 0.312500 0.187500
vt 0.437500 0.062500
vt 0.812500 0.062500
vt 0.937500 0.062500
vt 0.336591 0.426568
vt 0.562500 0.437500
vt 0.294595 0.487390
vt 0.562500 0.187500
vt 0.687500 0.187500
vt 0.562500 0.062500
vt 0.937500 0.312500
vt 0.812500 0.312500
vt 0.937500 0.437500
vt 0.312500 0.937500
vt 0.187500 0.625000
vt 0.812500 0.187500
vt 0.800716 0.372483
vt 0.687500 0.062500
vt 0.687500 0.437500
vt 0.937500 0.187500
vt 0.437500 0.187500
vt 0.062500 0.187500
vt 0.755372 0.514666
vt 0.937500 0.687500
vt 0.667473 0.372291
vt 0.062500 0.812500
vt 0.812500 0.937500
vt 0.187500 0.562500
vt 0.562500 0.812500
vt 0.717856 0.407244
vt 0.469516 0.235320
vt 0.244835 0.559774
vt 0.793385 0.459785
vt 0.569302 0.784006
vt 0.663289 0.648305
vt 0.513882 0.266120
vt 0.296906 0.332149
vt 0.321347 0.613091
vt 0.713437 0.300753
vt 0.750000 0.812500
vt 0.581168 0.672349
vt 0.281585 0.657008
vt 0.688844 0.757642
vt 0.409604 0.321468
vt 0.628031 0.699319
vt 0.646352 0.310977
vn 0.046681 0.046681 0.997818
vn -0.012297 0.012297 0.999849
vn 0.026467 -0.026467 0.999299
vn 0.014515 0.014515 0.999789
vn 0.000000 0.000000 1.000000
vn -0.190541 -0.013501 0.981586
vn -0.019568 0.313424 0.949412
vn 0.365263 -0.003010 0.930899
vn -0.005742 -0.281362 0.959584
vn -0.111291 0.131535 0.985045
vn 0.144471 0.127799 0.981221
vn -0.096944 -0.085404 0.991619
vn 0.091972 -0.146788 0.984883
vn 0.026336 -0.151058 0.988174
vn -0.046151 -0.079327 0.995780
vn 0.164226 0.024156 0.986127
vn 0.158718 -0.044560 0.986318
vn -0.022930 0.109785 0.993691
vn 0.036060 0.218052 0.975271
vn -0.019277 -0.023735 0.999532
vn -0.112857 0.040773 0.992774
vn -0.210625 -0.104239 0.971994
vn -0.224572 -0.143823 0.963786
vn -0.191783 0.225924 0.955080
vn -0.144222 -0.098942 0.984586
vn 0.103472 -0.120011 0.987366
vn 0.098317 -0.081809 0.991787
vn -0.001903 0.002549 0.999995
vn 0.044906 -0.049432 0.997767
vn -0.131592 -0.079564 0.988106
vn -0.031381 -0.018715 0.999332
vn 0.139569 0.115703 0.983429
vn 0.129168 0.097227 0.986845
vn -0.001394 -0.001381 0.999998
vn 0.062477 0.044176 0.997068
vn -0.099132 0.095054 0.990524
vn 0.003345 -0.004250 0.999985
vn -0.049132 0.033054 0.998245
vn -0.118972 0.087657 0.989021
vn 0.087773 0.163338 0.982658
vn -0.079459 -0.093792 0.992416
vn -0.093017 -0.011973 0.995593
vn 0.080247 0.088438 0.992844
vn 0.045588 -0.099529 0.993990
vn -0.078141 0.051274 0.995623
vn 0.107000 0.042061 0.993369
vn -0.028667 -0.058600 0.997870
vn -0.055039 0.097159 0.993746
vn -0.130904 0.173312 0.976129
vn -0.212189 -0.179906 0.960526
vn 0.161187 0.110740 0.980691
vn 0.186893 0.016131 0.982248
vn -0.033346 0.048252 0.998278
vn -0.122064 0.170133 0.977832
vn -0.115338 -0.024683 0.993020
vn -0.066245 0.172496 0.982780
vn -0.000034 -0.000709 1.000000
vn -0.174504 -0.179578 0.968143
vn -0.176126 -0.063308 0.982330
vn 0.001137 0.000166 0.999999
vn 0.148639 -0.185260 0.971383
vn -0.000364 -0.187335 0.982296
vn 0.000268 0.000833 1.000000
vn -0.205056 0.006105 0.978731
vn 0.010545 0.021262 0.999718
vn 0.060541 -0.016436 0.998030
vn 0.016680 0.319142 0.947560
vn 0.029687 0.088276 0.995654
vn -0.029354 0.005554 0.999554
vn -0.031149 0.216056 0.975884
vn 0.303328 -0.030011 0.952414
vn 0.022882 -0.023824 0.999454
vn 0.072818 0.021936 0.997104
vn 0.292460 0.041880 0.955360
vn -0.025585 -0.220868 0.974968
vn -0.020351 0.052816 0.998397
vn 0.031004 -0.037226 0.998826
vn 0.023273 -0.247827 0.968525
vn 0.064948 -0.022272 0.997640
vn -0.000404 -0.000205 1.000000
vn 0.001445 -0.000268 0.999999
vn -0.049326 -0.040858 0.997947
vn -0.150967 -0.154876 0.976331
vn -0.088270 -0.089310 0.992085
vn -0.142222 -0.049869 0.988578
vn 0.056908 0.209570 0.976136
vn 0.157823 0.092777 0.983099
vn 0.004208 0.278756 0.960353
vn -0.129248 0.057925 0.989919
vn -0.097696 0.131945 0.986431
vn -0.199536 -0.002226 0.979888
vn -0.045450 0.038424 0.998227
vn -0.078191 0.065150 0.994807
vn -0.001434 -0.002616 0.999996
vn 0.000254 0.000000 1.000000
vn -0.146444 0.167325 0.974965
vn -0.128548 0.088336 0.987761
vn -0.103810 0.080416 0.991341
vn -0.052608 0.237288 0.970014
vn 0.098254 0.035666 0.994522
vn 0.078221 0.053665 0.995491
vn 0.040447 0.036571 0.998512
vn 0.127636 0.087951 0.987914
vn 0.000000 -0.000175 1.000000
vn -0.084289 0.126151 0.988424
vn 0.107331 0.108623 0.988272
vn 0.092779 0.116784 0.988814
vn 0.284108 0.039210 0.957990
vn -0.142145 -0.119828 0.982566
vn 0.094435 -0.135897 0.986212
vn 0.000650 0.000580 1.000000
vn -0.054276 -0.001551 0.998525
vn 0.023204 0.025186 0.999413
vn -0.071540 -0.044204 0.996458
vn -0.062220 -0.095171 0.993515
vn -0.119142 -0.049639 0.991636
vn -0.045113 -0.204518 0.977823
vn 0.037457 -0.055130 0.997776
vn 0.018827 -0.015231 0.999707
vn -0.129342 -0.103939 0.986138
vn 0.000000 -0.000000 1.000000
vn -0.151653 -0.096043 0.983757
vn 0.135338 -0.126028 0.982752
vn 0.105250 -0.086377 0.990687
vn 0.030340 -0.219855 0.975061
vn 0.179310 -0.060812 0.981911
vn 0.057969 -0.118986 0.991202
vn 0.273587 -0.041788 0.960939
vn -0.054530 0.130935 0.989890
vn -0.115500 0.152453 0.981539
vn 0.021773 -0.081558 0.996431
vn 0.096201 -0.188343 0.977380
vn 0.051734 -0.125253 0.990775
vn -0.001665 0.001723 0.999997
vn 0.085750 -0.058285 0.994610
vn -0.209357 -0.153106 0.965778
vn 0.011582 -0.034462 0.999339
vn 0.087714 0.068850 0.993764
vn 0.185164 0.064638 0.980580
vn 0.057196 -0.091135 0.994195
vn -0.030678 0.046504 0.998447
vn 0.052279 0.111690 0.992367
vn -0.210216 0.051267 0.976310
vn -0.027952 0.165115 0.985878
vn 0.057605 -0.077534 0.995324
vn -0.067774 -0.128687 0.989367
vn -0.199312 -0.000644 0.979936
vn 0.110840 -0.055153 0.992307
vn -0.005543 0.122507 0.992452
vn 0.064461 0.042361 0.997021
vn 0.076893 -0.095774 0.992429
vn -0.202158 -0.153205 0.967295
vn -0.068366 0.100938 0.992541
vn 0.123150 -0.190427 0.973946
vn 0.135732 0.061591 0.988829
vn -0.000376 -0.001256 0.999999
vn -0.153094 0.199396 0.967886
vn 0.173818 0.128779 0.976321
vn -0.141457 -0.098601 0.985022
vn 0.070700 0.047987 0.996343
vn 0.144625 -0.235520 0.961048
f 1/1/1 113/113/113 66/66/66
f 31/31/31 137/137/137 113/113/113
f 132/132/132 127/127/127 26/26/26
f 112/112/112 31/31/31 113/113/113
f 135/135/135 44/44/44 29/29/29
f 106/106/106 52/52/52 33/33/33
f 50/50/50 58/58/58 120/120/120
f 84/84/84 41/41/41 47/47/47
f 137/137/137 66/66/66 113/113/113
f 75/75/75 115/115/115 15/15/15
f 12/12/12 152/152/152 84/84/84
f 23/23/23 147/147/147 143/143/143
f 25/25/25 120/120/120 152/152/152
f 76/76/76 113/113/113 1/1/1
f 76/76/76 112/112/112 113/113/113
f 15/15/15 112/112/112 76/76/76
f 115/115/115 112/112/112 15/15/15
f 30/30/30 115/115/115 117/117/117
f 108/108/108 33/33/33 52/52/52
f 75/75/75 117/117/117 115/115/115
f 115/115/115 30/30/30 42/42/42
f 145/145/145 140/140/140 154/154/154
f 51/51/51 150/150/150 103/103/103
f 136/136/136 22/22/22 30/30/30
f 90/90/90 10/10/10 48/48/48
f 54/54/54 98/98/98 49/49/49
f 42/42/42 112/112/112 115/115/115
f 58/58/58 84/84/84 152/152/152
f 13/13/13 154/154/154 124/124/124
f 60/60/60 120/120/120 111/111/111
f 136/136/136 62/62/62 146/146/146
f 159/159/159 63/63/63 111/111/111
f 101/101/101 43/43/43 35/35/35
f 104/104/104 80/80/80 34/34/34
f 10/10/10 49/49/49 98/98/98
f 50/50/50 122/122/122 23/23/23
f 49/49/49 53/53/53 54/54/54
f 117/117/117 62/62/62 30/30/30
f 148/148/148 26/26/26 52/52/52
f 131/131/131 29/29/29 44/44/44
f 77/77/77 2/2/2 119/119/119
f 77/77/77 119/119/119 118/118/118
f 71/71/71 128/128/128 126/126/126
f 58/58/58 152/152/152 120/120/120
f 63/63/63 28/28/28 121/121/121
f 119/119/119 29/29/29 118/118/118
f 122/122/122 50/50/50 120/120/120
f 125/125/125 27/27/27 62/62/62
f 135/135/135 72/72/72 17/17/17
f 136/136/136 30/30/30 62/62/62
f 138/138/138 148/148/148 106/106/106
f 60/60/60 122/122/122 120/120/120
f 153/153/153 53/53/53 157/157/157
f 11/11/11 32/32/32 107/107/107
f 12/12/12 114/114/114 116/116/116
f 150/150/150 160/160/160 34/34/34
f 32/32/32 158/158/158 150/150/150
f 147/147/147 157/157/157 130/130/130
f 151/151/151 146/146/146 123/123/123
f 44/44/44 127/127/127 131/131/131
f 82/82/82 47/47/47 41/41/41
f 45/45/45 98/98/98 36/36/36
f 82/82/82 137/137/137 47/47/47
f 61/61/61 124/124/124 154/154/154
f 26/26/26 126/126/126 128/128/128
f 62/62/62 117/117/117 125/125/125
f 20/20/20 137/137/137 82/82/82
f 38/38/38 92/92/92 94/94/94
f 20/20/20 66/66/66 137/137/137
f 55/55/55 20/20/20 82/82/82
f 69/69/69 94/94/94 92/92/92
f 110/110/110 151/151/151 61/61/61
f 8/8/8 108/108/108 128/128/128
f 141/141/141 48/48/48 38/38/38
f 24/24/24 144/144/144 97/97/97
f 65/65/65 141/141/141 94/94/94
f 114/114/114 31/31/31 42/42/42
f 38/38/38 94/94/94 141/141/141
f 92/92/92 18/18/18 69/69/69
f 97/97/97 54/54/54 24/24/24
f 151/151/151 110/110/110 63/63/63
f 46/46/46 35/35/35 142/142/142
f 29/29/29 119/119/119 135/135/135
f 83/83/83 23/23/23 59/59/59
f 151/151/151 63/63/63 159/159/159
f 35/35/35 46/46/46 101/101/101
f 129/129/129 45/45/45 36/36/36
f 27/27/27 124/124/124 123/123/123
f 85/85/85 41/41/41 59/59/59
f 78/78/78 125/125/125 9/9/9
f 70/70/70 129/129/129 99/99/99
f 83/83/83 59/59/59 41/41/41
f 129/129/129 70/70/70 18/18/18
f 36/36/36 99/99/99 129/129/129
f 93/93/93 38/38/38 48/48/48
f 38/38/38 45/45/45 92/92/92
f 52/52/52 128/128/128 108/108/108
f 65/65/65 94/94/94 3/3/3
f 72/72/72 135/135/135 119/119/119
f 94/94/94 69/69/69 3/3/3
f 39/39/39 90/90/90 48/48/48
f 21/21/21 141/141/141 65/65/65
f 18/18/18 92/92/92 129/129/129
f 6/6/6 91/91/91 64/64/64
f 105/105/105 24/24/24 54/54/54
f 93/93/93 45/45/45 38/38/38
f 89/89/89 39/39/39 48/48/48
f 13/13/13 124/124/124 131/131/131
f 45/45/45 129/129/129 92/92/92
f 9/9/9 125/125/125 117/117/117
f 64/64/64 89/89/89 21/21/21
f 55/55/55 82/82/82 85/85/85
f 6/6/6 85/85/85 91/91/91
f 59/59/59 91/91/91 85/85/85
f 41/41/41 85/85/85 82/82/82
f 6/6/6 55/55/55 85/85/85
f 146/146/146 151/151/151 159/159/159
f 59/59/59 39/39/39 91/91/91
f 109/109/109 22/22/22 159/159/159
f 143/143/143 39/39/39 59/59/59
f 118/118/118 29/29/29 79/79/79
f 58/58/58 50/50/50 83/83/83
f 134/134/134 148/148/148 138/138/138
f 58/58/58 83/83/83 84/84/84
f 119/119/119 2/2/2 72/72/72
f 49/49/49 157/157/157 53/53/53
f 11/11/11 158/158/158 32/32/32
f 138/138/138 103/103/103 80/80/80
f 10/10/10 98/98/98 93/93/93
f 21/21/21 89/89/89 141/141/141
f 105/105/105 53/53/53 37/37/37
f 51/51/51 32/32/32 150/150/150
f 79/79/79 133/133/133 118/118/118
f 118/118/118 133/133/133 14/14/14
f 79/79/79 131/131/131 124/124/124
f 100/100/100 35/35/35 43/43/43
f 143/143/143 59/59/59 23/23/23
f 48/48/48 141/141/141 89/89/89
f 78/78/78 133/133/133 125/125/125
f 62/62/62 27/27/27 123/123/123
f 53/53/53 153/153/153 37/37/37
f 37/37/37 81/81/81 95/95/95
f 60/60/60 95/95/95 81/81/81
f 156/156/156 34/34/34 160/160/160
f 5/5/5 95/95/95 111/111/111
f 148/148/148 145/145/145 132/132/132
f 57/57/57 37/37/37 95/95/95
f 37/37/37 57/57/57 105/105/105
f 27/27/27 125/125/125 133/133/133
f 121/121/121 5/5/5 111/111/111
f 160/160/160 150/150/150 158/158/158
f 61/61/61 151/151/151 123/123/123
f 17/17/17 126/126/126 135/135/135
f 41/41/41 84/84/84 83/83/83
f 123/123/123 146/146/146 62/62/62
f 60/60/60 111/111/111 95/95/95
f 28/28/28 134/134/134 80/80/80
f 104/104/104 95/95/95 5/5/5
f 28/28/28 140/140/140 134/134/134
f 24/24/24 105/105/105 96/96/96
f 57/57/57 95/95/95 104/104/104
f 24/24/24 96/96/96 144/144/144
f 127/127/127 44/44/44 26/26/26
f 126/126/126 26/26/26 44/44/44
f 45/45/45 93/93/93 98/98/98
f 110/110/110 28/28/28 63/63/63
f 11/11/11 107/107/107 101/101/101
f 9/9/9 117/117/117 75/75/75
f 26/26/26 128/128/128 52/52/52
f 54/54/54 97/97/97 98/98/98
f 130/130/130 90/90/90 39/39/39
f 114/114/114 42/42/42 116/116/116
f 99/99/99 36/36/36 56/56/56
f 80/80/80 104/104/104 5/5/5
f 23/23/23 83/83/83 50/50/50
f 126/126/126 17/17/17 71/71/71
f 109/109/109 12/12/12 116/116/116
f 25/25/25 159/159/159 111/111/111
f 144/144/144 149/149/149 40/40/40
f 103/103/103 150/150/150 34/34/34
f 36/36/36 98/98/98 97/97/97
f 153/153/153 81/81/81 37/37/37
f 96/96/96 156/156/156 149/149/149
f 122/122/122 147/147/147 23/23/23
f 26/26/26 148/148/148 132/132/132
f 157/157/157 147/147/147 153/153/153
f 120/120/120 25/25/25 111/111/111
f 12/12/12 109/109/109 152/152/152
f 14/14/14 133/133/133 78/78/78
f 13/13/13 131/131/131 127/127/127
f 107/107/107 106/106/106 33/33/33
f 44/44/44 135/135/135 126/126/126
f 43/43/43 101/101/101 107/107/107
f 34/34/34 156/156/156 104/104/104
f 57/57/57 104/104/104 156/156/156
f 121/121/121 80/80/80 5/5/5
f 63/63/63 121/121/121 111/111/111
f 121/121/121 28/28/28 80/80/80
f 77/77/77 118/118/118 14/14/14
f 10/10/10 93/93/93 48/48/48
f 103/103/103 34/34/34 80/80/80
f 131/131/131 79/79/79 29/29/29
f 140/140/140 145/145/145 134/134/134
f 49/49/49 10/10/10 157/157/157
f 124/124/124 27/27/27 79/79/79
f 139/139/139 33/33/33 108/108/108
f 107/107/107 33/33/33 43/43/43
f 133/133/133 79/79/79 27/27/27
f 145/145/145 148/148/148 134/134/134
f 139/139/139 43/43/43 33/33/33
f 11/11/11 155/155/155 158/158/158
f 96/96/96 105/105/105 57/57/57
f 140/140/140 28/28/28 110/110/110
f 51/51/51 106/106/106 107/107/107
f 127/127/127 132/132/132 154/154/154
f 97/97/97 56/56/56 36/36/36
f 86/86/86 46/46/46 142/142/142
f 112/112/112 42/42/42 31/31/31
f 40/40/40 46/46/46 86/86/86
f 74/74/74 139/139/139 108/108/108
f 100/100/100 43/43/43 139/139/139
f 137/137/137 31/31/31 47/47/47
f 114/114/114 47/47/47 31/31/31
f 88/88/88 40/40/40 86/86/86
f 16/16/16 100/100/100 139/139/139
f 102/102/102 35/35/35 100/100/100
f 68/68/68 142/142/142 102/102/102
f 88/88/88 99/99/99 56/56/56
f 142/142/142 35/35/35 102/102/102
f 53/53/53 105/105/105 54/54/54
f 147/147/147 122/122/122 81/81/81
f 19/19/19 86/86/86 142/142/142
f 88/88/88 56/56/56 40/40/40
f 144/144/144 40/40/40 56/56/56
f 96/96/96 149/149/149 144/144/144
f 106/106/106 51/51/51 138/138/138
f 87/87/87 46/46/46 40/40/40
f 81/81/81 153/153/153 147/147/147
f 87/87/87 155/155/155 46/46/46
f 144/144/144 56/56/56 97/97/97
f 60/60/60 81/81/81 122/122/122
f 64/64/64 91/91/91 89/89/89
f 156/156/156 96/96/96 57/57/57
f 67/67/67 88/88/88 86/86/86
f 7/7/7 99/99/99 88/88/88
f 7/7/7 70/70/70 99/99/99
f 67/67/67 7/7/7 88/88/88
f 19/19/19 67/67/67 86/86/86
f 68/68/68 19/19/19 142/142/142
f 73/73/73 102/102/102 100/100/100
f 4/4/4 68/68/68 102/102/102
f 73/73/73 4/4/4 102/102/102
f 16/16/16 73/73/73 100/100/100
f 74/74/74 16/16/16 139/139/139
f 8/8/8 74/74/74 108/108/108
f 39/39/39 89/89/89 91/91/91
f 116/116/116 22/22/22 109/109/109
f 116/116/116 42/42/42 30/30/30
f 134/134/134 138/138/138 80/80/80
f 61/61/61 123/123/123 124/124/124
f 106/106/106 148/148/148 52/52/52
f 87/87/87 40/40/40 149/149/149
f 128/128/128 71/71/71 8/8/8
f 90/90/90 130/130/130 157/157/157
f 32/32/32 51/51/51 107/107/107
f 146/146/146 159/159/159 22/22/22
f 130/130/130 143/143/143 147/147/147
f 103/103/103 138/138/138 51/51/51
f 25/25/25 152/152/152 159/159/159
f 155/155/155 101/101/101 46/46/46
f 154/154/154 132/132/132 145/145/145
f 84/84/84 114/114/114 12/12/12
f 101/101/101 155/155/155 11/11/11
f 114/114/114 84/84/84 47/47/47
f 146/146/146 22/22/22 136/136/136
f 154/154/154 13/13/13 127/127/127
f 90/90/90 157/157/157 10/10/10
f 143/143/143 130/130/130 39/39/39
f 149/149/149 158/158/158 87/87/87
f 109/109/109 159/159/159 152/152/152
f 116/116/116 30/30/30 22/22/22
f 87/87/87 158/158/158 155/155/155
f 149/149/149 160/160/160 158/158/158
f 160/160/160 149/149/149 156/156/156
f 61/61/61 161/161/161 110/110/110
f 161/161/161 140/140/140 110/110/110
f 140/140/140 161/161/161 154/154/154
f 161/161/161 61/61/61 154/154/154
