# frame 000206 
# time 0.103500 
# name Cloth3D 
v -0.000000 0.000000 -0.000000
v 1.000000 0.000000 -0.000000
v -0.000000 1.000000 0.000000
v 1.000000 1.000000 0.000000
v 0.498367 0.499139 0.046534
v -0.000000 0.500000 0.000000
v 0.500000 1.000000 0.000000
v 1.000000 0.500000 0.000000
v 0.500000 -0.000000 0.000000
v 0.250588 0.747875 0.004729
v 0.747542 0.748205 0.010221
v 0.251668 0.250931 -0.003513
v 0.747984 0.252175 0.003978
v 0.750000 0.000000 0.000000
v 0.250000 0.000000 0.000000
v 1.000000 0.750000 0.000000
v 1.000000 0.250000 0.000000
v 0.250000 1.000000 0.000000
v 0.750000 1.000000 0.000000
v 0.000000 0.250000 0.000000
v 0.000000 0.750000 -0.000000
v 0.498376 0.246765 0.044748
v 0.247169 0.499892 0.036541
v 0.499143 0.751537 0.043805
v 0.369821 0.370127 0.046686
v 0.875085 0.375224 0.016626
v 0.623563 0.125975 0.003736
v 0.624900 0.372843 0.046534
v 0.874345 0.125819 -0.011476
v 0.374248 0.124231 0.012288
v 0.125100 0.124999 -0.016211
v 0.747717 0.685475 0.016868
v 0.874212 0.623710 0.011918
v 0.625095 0.625216 0.046534
v 0.874010 0.874141 -0.009326
v 0.375815 0.873823 0.002901
v 0.372272 0.625772 0.046534
v 0.125269 0.874471 -0.013683
v 0.123941 0.624796 0.011838
v 0.624605 0.875444 0.020161
v 0.125760 0.375781 -0.004796
v 0.250895 0.125437 -0.010133
v 0.873487 0.748591 0.000433
v 0.874029 0.251251 -0.001328
v 0.250721 0.873774 -0.006027
v 0.748472 0.874005 0.001453
v 0.125536 0.250572 -0.012304
v 0.125458 0.748864 -0.005434
v 0.304844 0.711259 0.014742
v 0.277941 0.435488 0.028358
v 0.749273 0.623697 0.029405
v 0.876716 0.499586 0.029880
v 0.366010 0.652163 0.046686
v 0.374795 0.748901 0.022119
v 0.000000 0.375000 0.000000
v 0.499769 0.875491 0.021832
v 0.498676 0.625416 0.046535
v 0.250212 0.375541 0.014305
v 0.124219 0.499941 0.012102
v 0.372047 0.499385 0.046535
v 0.623079 0.250399 0.022062
v 0.499136 0.123965 0.018235
v 0.498217 0.372894 0.046535
v 0.000000 0.625000 0.000000
v 0.000000 0.875000 0.000000
v 0.000000 0.125000 0.000000
v 0.625000 1.000000 0.000000
v 0.875000 1.000000 0.000000
v 0.125000 1.000000 0.000000
v 0.375000 1.000000 0.000000
v 1.000000 0.375000 0.000000
v 1.000000 0.125000 0.000000
v 1.000000 0.875000 0.000000
v 1.000000 0.625000 0.000000
v 0.375000 0.000000 0.000000
v 0.125000 0.000000 0.000000
v 0.875000 0.000000 0.000000
v 0.625000 0.000000 0.000000
v 0.748675 0.126298 -0.005048
v 0.624870 0.498886 0.046535
v 0.341393 0.562544 0.046612
v 0.062618 0.312885 -0.008333
v 0.187334 0.438024 0.012599
v 0.188635 0.313370 -0.003856
v 0.062658 0.437616 -0.000924
v 0.687223 0.937603 0.009161
v 0.685948 0.811825 0.016831
v 0.562314 0.938287 0.013949
v 0.062545 0.687067 -0.003220
v 0.187544 0.685536 0.006040
v 0.062625 0.562340 0.000268
v 0.187831 0.937230 -0.008207
v 0.188055 0.811201 -0.005112
v 0.062301 0.937658 -0.009714
v 0.435278 0.562423 0.046535
v 0.526959 0.743746 0.046679
v 0.437328 0.812265 0.022373
v 0.313456 0.810440 0.001479
v 0.437446 0.937536 0.009195
v 0.936674 0.812006 -0.000019
v 0.810662 0.811027 -0.000981
v 0.937316 0.937319 -0.006740
v 0.704348 0.589816 0.046679
v 0.561715 0.562146 0.046535
v 0.421817 0.683898 0.046679
v 0.812607 0.561250 0.028390
v 0.810312 0.685283 0.007119
v 0.937985 0.562120 0.012614
v 0.312823 0.262089 0.006853
v 0.564222 0.305394 0.046679
v 0.435080 0.436063 0.046535
v 0.187763 0.062361 -0.010025
v 0.062222 0.062191 -0.009903
v 0.188307 0.187997 -0.010236
v 0.312638 0.062538 -0.003226
v 0.314081 0.187897 0.000144
v 0.437291 0.062684 0.002901
v 0.811957 0.062990 -0.006357
v 0.937484 0.062530 -0.008358
v 0.337098 0.427641 0.046679
v 0.561553 0.435927 0.046535
v 0.300164 0.492527 0.046679
v 0.561160 0.186874 0.022880
v 0.685399 0.189331 0.002339
v 0.562056 0.062598 0.005144
v 0.937245 0.312683 0.005553
v 0.811267 0.314119 0.009056
v 0.938698 0.437301 0.016021
v 0.312830 0.936803 -0.000735
v 0.185060 0.625366 0.025200
v 0.811107 0.189038 -0.004619
v 0.251153 0.188030 -0.004816
v 0.686874 0.063168 -0.000191
v 0.688330 0.435741 0.046535
v 0.936988 0.187939 -0.003565
v 0.435772 0.184811 0.032657
v 0.062095 0.187672 -0.012615
v 0.750119 0.509404 0.046679
v 0.936891 0.686860 0.003820
v 0.670575 0.365931 0.046679
v 0.062434 0.812036 -0.009355
v 0.812092 0.936762 0.001487
v 0.184231 0.562635 0.031142
v 0.562609 0.813523 0.034924
v 0.814614 0.436057 0.040132
v 0.445151 0.237325 0.046692
v 0.247338 0.584825 0.046692
v 0.792663 0.435175 0.046692
v 0.594825 0.782662 0.046692
v 0.669027 0.651869 0.046679
v 0.506328 0.272441 0.046679
v 0.297907 0.332869 0.014448
v 0.187840 0.748465 0.001347
v 0.711420 0.302677 0.016204
v 0.747834 0.811038 0.004729
v 0.580958 0.673205 0.046607
v 0.280392 0.655226 0.026663
v 0.686779 0.756760 0.021824
v 0.400990 0.315205 0.046689
v 0.638090 0.706379 0.046686
v 0.800864 0.372438 0.026368
v 0.366074 0.219851 0.016202
v 0.724587 0.396571 0.046686
v 0.312986 0.622069 0.046689
v 0.432951 0.370912 0.046610
vt 0.000000 0.000000
vt 1.000000 0.000000
vt 0.000000 1.000000
vt 1.000000 1.000000
vt 0.500000 0.500000
vt 0.000000 0.500000
vt 0.500000 1.000000
vt 1.000000 0.500000
vt 0.500000 0.000000
vt 0.250000 0.750000
vt 0.750000 0.750000
vt 0.250000 0.250000
vt 0.750000 0.250000
vt 0.750000 0.000000
vt 0.250000 0.000000
vt 1.000000 0.750000
vt 1.000000 0.250000
vt 0.250000 1.000000
vt 0.750000 1.000000
vt 0.000000 0.250000
vt 0.000000 0.750000
vt 0.500000 0.250000
vt 0.250000 0.500000
vt 0.500000 0.750000
vt 0.373098 0.372230
vt 0.875000 0.375000
vt 0.625000 0.125000
vt 0.625000 0.375000
vt 0.875000 0.125000
vt 0.375000 0.125000
vt 0.125000 0.125000
vt 0.750000 0.687500
vt 0.875000 0.625000
vt 0.625000 0.625000
vt 0.875000 0.875000
vt 0.375000 0.875000
vt 0.375000 0.625000
vt 0.125000 0.875000
vt 0.125000 0.625000
vt 0.625000 0.875000
vt 0.125000 0.375000
vt 0.250000 0.125000
vt 0.875000 0.750000
vt 0.875000 0.250000
vt 0.250000 0.875000
vt 0.750000 0.875000
vt 0.125000 0.250000
vt 0.125000 0.750000
vt 0.304602 0.713891
vt 0.278861 0.435152
vt 0.750000 0.625000
vt 0.875000 0.500000
vt 0.368677 0.651064
vt 0.375000 0.750000
vt 0.000000 0.375000
vt 0.500000 0.875000
vt 0.500000 0.625000
vt 0.250000 0.375000
vt 0.125000 0.500000
vt 0.375000 0.500000
vt 0.625000 0.250000
vt 0.500000 0.125000
vt 0.500000 0.375000
vt 0.000000 0.625000
vt 0.000000 0.875000
vt 0.000000 0.125000
vt 0.625000 1.000000
vt 0.875000 1.000000
vt 0.125000 1.000000
vt 0.375000 1.000000
vt 1.000000 0.375000
vt 1.000000 0.125000
vt 1.000000 0.875000
vt 1.000000 0.625000
vt 0.375000 0.000000
vt 0.125000 0.000000
vt 0.875000 0.000000
vt 0.625000 0.000000
vt 0.750000 0.125000
vt 0.625000 0.500000
vt 0.344661 0.562348
vt 0.062500 0.312500
vt 0.187500 0.437500
vt 0.187500 0.312500
vt 0.062500 0.437500
vt 0.687500 0.937500
vt 0.687500 0.812500
vt 0.562500 0.937500
vt 0.062500 0.687500
vt 0.187500 0.687500
vt 0.062500 0.562500
vt 0.187500 0.937500
vt 0.187500 0.812500
vt 0.062500 0.937500
vt 0.437500 0.562500
vt 0.527572 0.742114
vt 0.437500 0.812500
vt 0.312500 0.812500
vt 0.437500 0.937500
vt 0.937500 0.812500
vt 0.812500 0.812500
vt 0.937500 0.937500
vt 0.703483 0.590122
vt 0.562500 0.562500
vt 0.423772 0.682718
vt 0.812500 0.562500
vt 0.812500 0.687500
vt 0.937500 0.562500
vt 0.311128 0.261404
vt 0.565162 0.308031
vt 0.437500 0.437500
vt 0.187500 0.062500
vt 0.062500 0.062500
vt 0.187500 0.187500
vt 0.312500 0.062500
vt 0.312500 0.187500
vt 0.437500 0.062500
vt 0.812500 0.062500
vt 0.937500 0.062500
vt 0.340461 0.429025
vt 0.562500 0.437500
vt 0.303715 0.493129
vt 0.562500 0.187500
vt 0.687500 0.187500
vt 0.562500 0.062500
vt 0.937500 0.312500
vt 0.812500 0.312500
vt 0.937500 0.437500
vt 0.312500 0.937500
vt 0.187500 0.625000
vt 0.812500 0.187500
vt 0.250000 0.187500
vt 0.687500 0.062500
vt 0.687500 0.437500
vt 0.937500 0.187500
vt 0.437500 0.187500
vt 0.062500 0.187500
vt 0.748669 0.510477
vt 0.937500 0.687500
vt 0.670040 0.368213
vt 0.062500 0.812500
vt 0.812500 0.937500
vt 0.187500 0.562500
vt 0.562500 0.812500
vt 0.812500 0.437500
vt 0.447626 0.241207
vt 0.251832 0.583959
vt 0.789907 0.436840
vt 0.594381 0.780169
vt 0.668291 0.651448
vt 0.507993 0.275516
vt 0.296906 0.332149
vt 0.187500 0.750000
vt 0.713437 0.300753
vt 0.750000 0.812500
vt 0.581168 0.672349
vt 0.281585 0.657008
vt 0.688844 0.757642
vt 0.404029 0.317991
vt 0.637457 0.705262
vt 0.800716 0.372483
vt 0.365347 0.220303
vt 0.723250 0.398688
vt 0.316352 0.620999
vt 0.435524 0.373072
vn 0.079601 0.079601 0.993644
vn -0.067868 0.067868 0.995383
vn 0.078698 -0.078698 0.993787
vn -0.055795 -0.055795 0.996882
vn 0.000000 0.000000 1.000000
vn 0.011031 -0.004806 0.999928
vn -0.018670 0.176182 0.984181
vn 0.218982 0.013454 0.975636
vn -0.008734 -0.057352 0.998316
vn -0.071560 0.133682 0.988437
vn 0.164022 0.090750 0.982273
vn -0.111386 -0.075620 0.990896
vn 0.082459 -0.133269 0.987644
vn 0.023844 0.060322 0.997894
vn -0.026363 0.111254 0.993442
vn 0.024370 0.015399 0.999584
vn 0.010066 -0.035686 0.999312
vn -0.029648 -0.077103 0.996582
vn 0.030376 0.077166 0.996555
vn 0.170507 -0.016386 0.985220
vn 0.106489 0.023814 0.994029
vn 0.095629 -0.142458 0.985170
vn -0.199819 -0.166280 0.965621
vn -0.077036 0.174621 0.981617
vn -0.135337 -0.076318 0.987856
vn 0.116899 -0.161597 0.979909
vn 0.098431 -0.080064 0.991918
vn -0.001591 0.002402 0.999996
vn -0.009057 -0.025547 0.999633
vn -0.142875 -0.128962 0.981303
vn 0.004811 0.024230 0.999695
vn 0.198082 0.157521 0.967445
vn 0.074062 0.119351 0.990086
vn -0.001143 -0.001110 0.999999
vn 0.011282 0.000294 0.999936
vn -0.117305 0.060294 0.991264
vn 0.002386 -0.003396 0.999991
vn -0.008619 0.003401 0.999957
vn -0.191059 0.114519 0.974875
vn 0.088862 0.153436 0.984155
vn -0.070602 -0.096497 0.992826
vn -0.089694 -0.027650 0.995585
vn 0.008521 0.065303 0.997829
vn 0.004240 -0.090445 0.995892
vn -0.060595 0.020317 0.997956
vn 0.116246 0.014924 0.993108
vn -0.026243 -0.043417 0.998712
vn -0.066810 0.086650 0.993996
vn -0.134175 0.221880 0.965798
vn -0.250897 -0.161150 0.954506
vn 0.222194 0.186140 0.957069
vn 0.158108 0.040438 0.986593
vn -0.048538 0.073054 0.996146
vn -0.183323 0.199626 0.962571
vn 0.079821 -0.029615 0.996369
vn -0.069578 0.135843 0.988284
vn -0.000027 -0.000754 1.000000
vn -0.186703 -0.155043 0.970105
vn -0.186022 -0.073499 0.979793
vn 0.001304 0.000235 0.999999
vn 0.169104 -0.199551 0.965186
vn 0.033731 -0.189377 0.981325
vn 0.000434 0.001006 0.999999
vn 0.030247 0.014371 0.999439
vn 0.154844 0.000831 0.987939
vn 0.180393 0.011268 0.983530
vn 0.019120 0.175078 0.984369
vn 0.032243 -0.047330 0.998359
vn -0.005288 -0.145933 0.989280
vn -0.039712 0.060747 0.997363
vn 0.163799 -0.041804 0.985608
vn -0.098004 -0.018767 0.995009
vn -0.058900 0.026426 0.997914
vn 0.123800 0.034947 0.991692
vn -0.024734 0.009346 0.999650
vn 0.001224 0.160654 0.987010
vn 0.007043 0.121193 0.992604
vn 0.021879 -0.030678 0.999290
vn 0.056111 -0.017298 0.998275
vn -0.000429 -0.000216 1.000000
vn 0.001388 -0.000138 0.999999
vn 0.070854 -0.038460 0.996745
vn -0.165215 -0.158575 0.973426
vn -0.109523 -0.097358 0.989205
vn -0.025921 -0.050907 0.998367
vn 0.062548 0.081975 0.994670
vn 0.216788 0.095747 0.971512
vn 0.003126 0.162466 0.986709
vn -0.021886 0.054074 0.998297
vn -0.112751 0.185016 0.976246
vn -0.092780 0.004965 0.995674
vn -0.032322 -0.081161 0.996177
vn -0.067728 0.085880 0.994001
vn 0.064488 -0.066665 0.995689
vn 0.000255 -0.000000 1.000000
vn -0.045206 0.126791 0.990899
vn -0.147796 0.164994 0.975158
vn -0.109546 0.109996 0.987877
vn -0.067192 0.093495 0.993350
vn -0.039212 0.040264 0.998419
vn 0.078274 0.065107 0.994804
vn -0.031109 -0.034011 0.998937
vn 0.144672 0.096249 0.984787
vn -0.000000 -0.000175 1.000000
vn -0.079797 0.127484 0.988625
vn 0.153296 0.138023 0.978494
vn 0.107510 0.125830 0.986209
vn 0.159310 0.060685 0.985362
vn -0.217018 -0.128494 0.967674
vn 0.070615 -0.124333 0.989725
vn 0.000762 0.000696 0.999999
vn -0.024252 0.107567 0.993902
vn 0.073142 0.078275 0.994245
vn -0.069897 -0.046154 0.996486
vn -0.070987 -0.005383 0.997463
vn -0.179786 -0.058082 0.981990
vn -0.027945 -0.119019 0.992499
vn 0.028478 0.068684 0.997232
vn -0.054125 0.048195 0.997370
vn -0.160034 -0.087269 0.983246
vn 0.000000 -0.000000 1.000000
vn -0.142015 -0.108309 0.983921
vn 0.135237 -0.177751 0.974739
vn 0.109071 -0.104377 0.988539
vn 0.035621 -0.083143 0.995901
vn 0.055548 -0.075614 0.995589
vn 0.081756 -0.206011 0.975128
vn 0.180561 -0.040067 0.982747
vn -0.052691 -0.016652 0.998472
vn -0.196318 0.211257 0.957512
vn 0.034704 -0.074687 0.996603
vn -0.083883 -0.052247 0.995105
vn 0.040355 0.008660 0.999148
vn -0.001315 0.001200 0.999998
vn -0.045334 -0.047272 0.997853
vn -0.124045 -0.205031 0.970863
vn 0.115834 -0.009963 0.993219
vn 0.108778 0.055830 0.992497
vn 0.043402 0.047826 0.997912
vn 0.069155 -0.111935 0.991306
vn 0.079085 0.028388 0.996464
vn 0.052741 -0.035194 0.997988
vn -0.240530 0.002974 0.970637
vn -0.078740 0.237486 0.968194
vn 0.267150 -0.104680 0.957952
vn -0.080014 -0.178180 0.980739
vn -0.157941 0.100807 0.982289
vn 0.250053 -0.102677 0.962772
vn 0.018807 0.185233 0.982515
vn 0.107930 0.064860 0.992040
vn 0.081673 -0.089359 0.992645
vn -0.224915 -0.173956 0.958724
vn -0.079968 0.090991 0.992636
vn 0.151072 -0.236091 0.959916
vn 0.143389 0.068644 0.987283
vn -0.000198 -0.001139 0.999999
vn -0.162988 0.306522 0.937806
vn 0.247864 0.117067 0.961696
vn -0.137158 -0.076716 0.987574
vn 0.134651 0.077905 0.987826
vn 0.152008 -0.267800 0.951408
vn -0.278398 -0.119873 0.952956
vn 0.067854 -0.130175 0.989167
vn -0.102418 0.182584 0.977841
vn 0.001078 0.001075 0.999999
f 1/1/1 113/113/113 66/66/66
f 31/31/31 137/137/137 113/113/113
f 148/148/148 161/161/161 145/145/145
f 112/112/112 31/31/31 113/113/113
f 138/138/138 145/145/145 106/106/106
f 106/106/106 52/52/52 33/33/33
f 50/50/50 58/58/58 120/120/120
f 84/84/84 41/41/41 47/47/47
f 137/137/137 66/66/66 113/113/113
f 75/75/75 115/115/115 15/15/15
f 12/12/12 152/152/152 84/84/84
f 23/23/23 147/147/147 143/143/143
f 25/25/25 120/120/120 152/152/152
f 76/76/76 113/113/113 1/1/1
f 76/76/76 112/112/112 113/113/113
f 15/15/15 112/112/112 76/76/76
f 115/115/115 112/112/112 15/15/15
f 30/30/30 115/115/115 117/117/117
f 108/108/108 33/33/33 52/52/52
f 75/75/75 117/117/117 115/115/115
f 115/115/115 30/30/30 42/42/42
f 163/163/163 140/140/140 154/154/154
f 51/51/51 150/150/150 103/103/103
f 136/136/136 162/162/162 30/30/30
f 63/63/63 165/165/165 151/151/151
f 54/54/54 98/98/98 49/49/49
f 42/42/42 112/112/112 115/115/115
f 58/58/58 84/84/84 152/152/152
f 13/13/13 154/154/154 124/124/124
f 60/60/60 120/120/120 111/111/111
f 127/127/127 13/13/13 44/44/44
f 26/26/26 127/127/127 126/126/126
f 101/101/101 43/43/43 35/35/35
f 104/104/104 80/80/80 34/34/34
f 10/10/10 49/49/49 98/98/98
f 50/50/50 122/122/122 23/23/23
f 49/49/49 53/53/53 54/54/54
f 117/117/117 62/62/62 30/30/30
f 150/150/150 32/32/32 160/160/160
f 62/62/62 123/123/123 136/136/136
f 77/77/77 2/2/2 119/119/119
f 77/77/77 119/119/119 118/118/118
f 71/71/71 128/128/128 126/126/126
f 58/58/58 152/152/152 120/120/120
f 63/63/63 28/28/28 121/121/121
f 119/119/119 29/29/29 118/118/118
f 122/122/122 50/50/50 120/120/120
f 125/125/125 27/27/27 62/62/62
f 135/135/135 72/72/72 17/17/17
f 136/136/136 30/30/30 62/62/62
f 159/159/159 151/151/151 165/165/165
f 60/60/60 122/122/122 120/120/120
f 164/164/164 53/53/53 157/157/157
f 11/11/11 32/32/32 107/107/107
f 22/22/22 61/61/61 151/151/151
f 150/150/150 160/160/160 34/34/34
f 22/22/22 146/146/146 136/136/136
f 147/147/147 157/157/157 130/130/130
f 145/145/145 138/138/138 148/148/148
f 154/154/154 140/140/140 61/61/61
f 82/82/82 47/47/47 41/41/41
f 45/45/45 98/98/98 36/36/36
f 82/82/82 137/137/137 47/47/47
f 61/61/61 124/124/124 154/154/154
f 26/26/26 126/126/126 128/128/128
f 62/62/62 117/117/117 125/125/125
f 20/20/20 137/137/137 82/82/82
f 38/38/38 92/92/92 94/94/94
f 20/20/20 66/66/66 137/137/137
f 55/55/55 20/20/20 82/82/82
f 69/69/69 94/94/94 92/92/92
f 12/12/12 114/114/114 132/132/132
f 8/8/8 108/108/108 128/128/128
f 141/141/141 48/48/48 38/38/38
f 24/24/24 144/144/144 97/97/97
f 65/65/65 141/141/141 94/94/94
f 114/114/114 31/31/31 42/42/42
f 38/38/38 94/94/94 141/141/141
f 92/92/92 18/18/18 69/69/69
f 97/97/97 54/54/54 24/24/24
f 151/151/151 110/110/110 63/63/63
f 11/11/11 107/107/107 101/101/101
f 29/29/29 119/119/119 135/135/135
f 83/83/83 23/23/23 59/59/59
f 153/153/153 90/90/90 10/10/10
f 43/43/43 101/101/101 107/107/107
f 129/129/129 45/45/45 36/36/36
f 27/27/27 124/124/124 123/123/123
f 85/85/85 41/41/41 59/59/59
f 78/78/78 125/125/125 9/9/9
f 70/70/70 129/129/129 99/99/99
f 83/83/83 59/59/59 41/41/41
f 129/129/129 70/70/70 18/18/18
f 36/36/36 99/99/99 129/129/129
f 93/93/93 38/38/38 48/48/48
f 38/38/38 45/45/45 92/92/92
f 52/52/52 128/128/128 108/108/108
f 65/65/65 94/94/94 3/3/3
f 72/72/72 135/135/135 119/119/119
f 94/94/94 69/69/69 3/3/3
f 39/39/39 90/90/90 48/48/48
f 21/21/21 141/141/141 65/65/65
f 18/18/18 92/92/92 129/129/129
f 6/6/6 91/91/91 64/64/64
f 105/105/105 24/24/24 54/54/54
f 93/93/93 45/45/45 38/38/38
f 89/89/89 39/39/39 48/48/48
f 13/13/13 124/124/124 131/131/131
f 45/45/45 129/129/129 92/92/92
f 9/9/9 125/125/125 117/117/117
f 64/64/64 89/89/89 21/21/21
f 55/55/55 82/82/82 85/85/85
f 6/6/6 85/85/85 91/91/91
f 59/59/59 91/91/91 85/85/85
f 41/41/41 85/85/85 82/82/82
f 6/6/6 55/55/55 85/85/85
f 146/146/146 151/151/151 159/159/159
f 59/59/59 39/39/39 91/91/91
f 109/109/109 162/162/162 159/159/159
f 143/143/143 39/39/39 59/59/59
f 118/118/118 29/29/29 79/79/79
f 58/58/58 50/50/50 83/83/83
f 134/134/134 148/148/148 138/138/138
f 58/58/58 83/83/83 84/84/84
f 119/119/119 2/2/2 72/72/72
f 49/49/49 157/157/157 53/53/53
f 11/11/11 158/158/158 32/32/32
f 138/138/138 103/103/103 80/80/80
f 10/10/10 98/98/98 93/93/93
f 21/21/21 89/89/89 141/141/141
f 105/105/105 53/53/53 37/37/37
f 51/51/51 32/32/32 150/150/150
f 79/79/79 133/133/133 118/118/118
f 118/118/118 133/133/133 14/14/14
f 79/79/79 131/131/131 124/124/124
f 100/100/100 35/35/35 43/43/43
f 90/90/90 153/153/153 48/48/48
f 48/48/48 141/141/141 89/89/89
f 78/78/78 133/133/133 125/125/125
f 62/62/62 27/27/27 123/123/123
f 53/53/53 164/164/164 37/37/37
f 37/37/37 81/81/81 95/95/95
f 60/60/60 95/95/95 81/81/81
f 156/156/156 34/34/34 160/160/160
f 5/5/5 95/95/95 111/111/111
f 148/148/148 163/163/163 161/161/161
f 57/57/57 37/37/37 95/95/95
f 37/37/37 57/57/57 105/105/105
f 27/27/27 125/125/125 133/133/133
f 121/121/121 5/5/5 111/111/111
f 151/151/151 146/146/146 22/22/22
f 123/123/123 22/22/22 136/136/136
f 17/17/17 126/126/126 135/135/135
f 41/41/41 84/84/84 83/83/83
f 131/131/131 44/44/44 13/13/13
f 60/60/60 111/111/111 95/95/95
f 28/28/28 134/134/134 80/80/80
f 104/104/104 95/95/95 5/5/5
f 28/28/28 140/140/140 134/134/134
f 24/24/24 105/105/105 96/96/96
f 57/57/57 95/95/95 104/104/104
f 24/24/24 96/96/96 144/144/144
f 132/132/132 42/42/42 116/116/116
f 12/12/12 132/132/132 116/116/116
f 45/45/45 93/93/93 98/98/98
f 110/110/110 28/28/28 63/63/63
f 106/106/106 103/103/103 138/138/138
f 9/9/9 117/117/117 75/75/75
f 26/26/26 128/128/128 52/52/52
f 54/54/54 97/97/97 98/98/98
f 130/130/130 90/90/90 39/39/39
f 123/123/123 61/61/61 22/22/22
f 99/99/99 36/36/36 56/56/56
f 80/80/80 104/104/104 5/5/5
f 23/23/23 83/83/83 50/50/50
f 126/126/126 17/17/17 71/71/71
f 109/109/109 12/12/12 116/116/116
f 44/44/44 126/126/126 127/127/127
f 144/144/144 149/149/149 40/40/40
f 103/103/103 150/150/150 34/34/34
f 36/36/36 98/98/98 97/97/97
f 164/164/164 81/81/81 37/37/37
f 96/96/96 156/156/156 149/149/149
f 122/122/122 147/147/147 23/23/23
f 158/158/158 160/160/160 32/32/32
f 157/157/157 147/147/147 164/164/164
f 120/120/120 25/25/25 111/111/111
f 12/12/12 109/109/109 152/152/152
f 14/14/14 133/133/133 78/78/78
f 140/140/140 110/110/110 61/61/61
f 107/107/107 106/106/106 33/33/33
f 44/44/44 135/135/135 126/126/126
f 51/51/51 103/103/103 106/106/106
f 34/34/34 156/156/156 104/104/104
f 57/57/57 104/104/104 156/156/156
f 121/121/121 80/80/80 5/5/5
f 63/63/63 121/121/121 111/111/111
f 121/121/121 28/28/28 80/80/80
f 77/77/77 118/118/118 14/14/14
f 52/52/52 106/106/106 145/145/145
f 103/103/103 34/34/34 80/80/80
f 131/131/131 79/79/79 29/29/29
f 140/140/140 163/163/163 134/134/134
f 49/49/49 10/10/10 157/157/157
f 124/124/124 27/27/27 79/79/79
f 139/139/139 33/33/33 108/108/108
f 107/107/107 33/33/33 43/43/43
f 133/133/133 79/79/79 27/27/27
f 163/163/163 148/148/148 134/134/134
f 139/139/139 43/43/43 33/33/33
f 11/11/11 155/155/155 158/158/158
f 96/96/96 105/105/105 57/57/57
f 140/140/140 28/28/28 110/110/110
f 51/51/51 106/106/106 107/107/107
f 127/127/127 161/161/161 154/154/154
f 97/97/97 56/56/56 36/36/36
f 86/86/86 46/46/46 142/142/142
f 112/112/112 42/42/42 31/31/31
f 40/40/40 46/46/46 86/86/86
f 74/74/74 139/139/139 108/108/108
f 100/100/100 43/43/43 139/139/139
f 137/137/137 31/31/31 47/47/47
f 114/114/114 47/47/47 31/31/31
f 88/88/88 40/40/40 86/86/86
f 16/16/16 100/100/100 139/139/139
f 102/102/102 35/35/35 100/100/100
f 68/68/68 142/142/142 102/102/102
f 88/88/88 99/99/99 56/56/56
f 142/142/142 35/35/35 102/102/102
f 53/53/53 105/105/105 54/54/54
f 147/147/147 122/122/122 81/81/81
f 19/19/19 86/86/86 142/142/142
f 88/88/88 56/56/56 40/40/40
f 144/144/144 40/40/40 56/56/56
f 96/96/96 149/149/149 144/144/144
f 44/44/44 131/131/131 135/135/135
f 87/87/87 46/46/46 40/40/40
f 81/81/81 164/164/164 147/147/147
f 87/87/87 155/155/155 46/46/46
f 144/144/144 56/56/56 97/97/97
f 60/60/60 81/81/81 122/122/122
f 64/64/64 91/91/91 89/89/89
f 156/156/156 96/96/96 57/57/57
f 67/67/67 88/88/88 86/86/86
f 7/7/7 99/99/99 88/88/88
f 7/7/7 70/70/70 99/99/99
f 67/67/67 7/7/7 88/88/88
f 19/19/19 67/67/67 86/86/86
f 68/68/68 19/19/19 142/142/142
f 73/73/73 102/102/102 100/100/100
f 4/4/4 68/68/68 102/102/102
f 73/73/73 4/4/4 102/102/102
f 16/16/16 73/73/73 100/100/100
f 74/74/74 16/16/16 139/139/139
f 8/8/8 74/74/74 108/108/108
f 39/39/39 89/89/89 91/91/91
f 153/153/153 93/93/93 48/48/48
f 116/116/116 42/42/42 30/30/30
f 134/134/134 138/138/138 80/80/80
f 61/61/61 123/123/123 124/124/124
f 145/145/145 26/26/26 52/52/52
f 87/87/87 40/40/40 149/149/149
f 128/128/128 71/71/71 8/8/8
f 90/90/90 130/130/130 157/157/157
f 32/32/32 51/51/51 107/107/107
f 42/42/42 132/132/132 114/114/114
f 130/130/130 143/143/143 147/147/147
f 29/29/29 135/135/135 131/131/131
f 25/25/25 152/152/152 159/159/159
f 155/155/155 101/101/101 46/46/46
f 154/154/154 161/161/161 163/163/163
f 84/84/84 114/114/114 12/12/12
f 101/101/101 155/155/155 11/11/11
f 114/114/114 84/84/84 47/47/47
f 93/93/93 153/153/153 10/10/10
f 154/154/154 13/13/13 127/127/127
f 90/90/90 157/157/157 10/10/10
f 143/143/143 130/130/130 39/39/39
f 149/149/149 158/158/158 87/87/87
f 109/109/109 159/159/159 152/152/152
f 116/116/116 30/30/30 162/162/162
f 87/87/87 158/158/158 155/155/155
f 149/149/149 160/160/160 158/158/158
f 160/160/160 149/149/149 156/156/156
f 110/110/110 151/151/151 61/61/61
f 146/146/146 159/159/159 162/162/162
f 146/146/146 162/162/162 136/136/136
f 116/116/116 162/162/162 109/109/109
f 26/26/26 145/145/145 161/161/161
f 161/161/161 127/127/127 26/26/26
f 165/165/165 25/25/25 159/159/159
f 143/143/143 59/59/59 23/23/23
f 25/25/25 165/165/165 111/111/111
f 165/165/165 63/63/63 111/111/111
f 35/35/35 46/46/46 101/101/101
f 46/46/46 35/35/35 142/142/142
