# frame 000274 
# time 0.137500 
# name Cloth3D 
v -0.000000 0.000000 -0.000000
v 1.000000 0.000000 -0.000000
v -0.000000 1.000000 0.000000
v 1.000000 1.000000 0.000000
v 0.500564 0.500185 0.063534
v -0.000000 0.500000 0.000000
v 0.500000 1.000000 0.000000
v 1.000000 0.500000 0.000000
v 0.500000 -0.000000 0.000000
v 0.249492 0.750779 0.034329
v 0.751996 0.751987 0.044507
v 0.251300 0.250654 0.021477
v 0.751099 0.249596 0.034715
v 0.750000 0.000000 0.000000
v 0.250000 0.000000 0.000000
v 1.000000 0.750000 0.000000
v 1.000000 0.250000 0.000000
v 0.250000 1.000000 0.000000
v 0.750000 1.000000 0.000000
v 0.000000 0.250000 0.000000
v 0.000000 0.750000 -0.000000
v 0.365617 0.218654 0.041472
v 0.630145 0.774260 0.053780
v 0.499580 0.751561 0.063718
v 0.374564 0.372546 0.063686
v 0.878138 0.374696 0.035845
v 0.625590 0.122424 0.033263
v 0.627027 0.373634 0.063534
v 0.875746 0.124380 0.016836
v 0.375503 0.123343 0.027723
v 0.125361 0.125285 0.007171
v 0.752608 0.689058 0.049540
v 0.878753 0.625842 0.038862
v 0.627006 0.626898 0.063534
v 0.876394 0.876423 0.022265
v 0.374819 0.877719 0.033398
v 0.259560 0.600560 0.057065
v 0.124689 0.875433 0.014060
v 0.122711 0.625392 0.031985
v 0.625821 0.878999 0.039053
v 0.123881 0.375132 0.026569
v 0.250495 0.124755 0.016682
v 0.876679 0.750909 0.027102
v 0.876663 0.249591 0.025480
v 0.249733 0.876229 0.023500
v 0.751008 0.877078 0.028885
v 0.125273 0.250425 0.014067
v 0.124047 0.750390 0.022423
v 0.304026 0.714813 0.044045
v 0.694149 0.508140 0.063607
v 0.753465 0.626453 0.058168
v 0.878166 0.500129 0.038066
v 0.371795 0.646624 0.063686
v 0.374850 0.751944 0.048133
v 0.000000 0.375000 0.000000
v 0.500289 0.878401 0.038029
v 0.500486 0.626914 0.063535
v 0.249440 0.375154 0.041621
v 0.122509 0.500241 0.033830
v 0.373828 0.500118 0.063535
v 0.625884 0.248137 0.049535
v 0.500290 0.121079 0.039489
v 0.500505 0.373429 0.063535
v 0.000000 0.625000 0.000000
v 0.000000 0.875000 0.000000
v 0.000000 0.125000 0.000000
v 0.625000 1.000000 0.000000
v 0.875000 1.000000 0.000000
v 0.125000 1.000000 0.000000
v 0.375000 1.000000 0.000000
v 1.000000 0.375000 0.000000
v 1.000000 0.125000 0.000000
v 1.000000 0.875000 0.000000
v 1.000000 0.625000 0.000000
v 0.375000 0.000000 0.000000
v 0.125000 0.000000 0.000000
v 0.875000 0.000000 0.000000
v 0.625000 0.000000 0.000000
v 0.750621 0.123930 0.023806
v 0.627262 0.500238 0.063535
v 0.342925 0.563130 0.063612
v 0.062082 0.312668 0.011736
v 0.186172 0.437999 0.038404
v 0.187812 0.313187 0.023644
v 0.061147 0.437586 0.017130
v 0.687816 0.938689 0.015987
v 0.688829 0.815617 0.044771
v 0.562730 0.938969 0.018253
v 0.061107 0.687718 0.016414
v 0.186200 0.687920 0.034352
v 0.060203 0.562649 0.020607
v 0.187351 0.938181 0.011520
v 0.187453 0.812773 0.018702
v 0.062532 0.937494 0.002814
v 0.437193 0.563439 0.063535
v 0.838549 0.423261 0.047323
v 0.437467 0.815856 0.048396
v 0.312187 0.814193 0.036188
v 0.437556 0.939824 0.020719
v 0.937749 0.812925 0.010109
v 0.814123 0.814271 0.032844
v 0.937912 0.937922 0.007309
v 0.709616 0.593623 0.063679
v 0.563840 0.563573 0.063535
v 0.421659 0.687531 0.063679
v 0.817041 0.563252 0.055006
v 0.815918 0.689197 0.047374
v 0.939178 0.562709 0.019343
v 0.311416 0.260791 0.037111
v 0.573258 0.295448 0.063679
v 0.437266 0.436828 0.063535
v 0.187649 0.062345 0.008445
v 0.062705 0.062704 -0.000159
v 0.188396 0.188029 0.012154
v 0.312700 0.061596 0.013841
v 0.313314 0.186977 0.027499
v 0.437643 0.059994 0.021024
v 0.812790 0.061855 0.011773
v 0.937614 0.062404 0.004461
v 0.332404 0.423913 0.063679
v 0.563833 0.436879 0.063535
v 0.284775 0.481921 0.063679
v 0.562882 0.184465 0.047109
v 0.688341 0.185976 0.036835
v 0.562742 0.060179 0.020720
v 0.939032 0.312393 0.016797
v 0.814876 0.311921 0.039754
v 0.938311 0.437566 0.016135
v 0.312403 0.939013 0.016718
v 0.184860 0.625829 0.044525
v 0.813432 0.186993 0.024902
v 0.804411 0.371481 0.051636
v 0.687675 0.061837 0.013354
v 0.690580 0.437035 0.063534
v 0.938280 0.187276 0.011958
v 0.438223 0.185141 0.043313
v 0.062431 0.187626 0.008595
v 0.768703 0.521660 0.063679
v 0.939307 0.687907 0.018415
v 0.668236 0.373433 0.063679
v 0.062084 0.812676 0.010196
v 0.812986 0.938266 0.012529
v 0.184189 0.563098 0.049706
v 0.426762 0.223863 0.051650
v 0.716426 0.412883 0.063686
v 0.492362 0.228593 0.063692
v 0.238616 0.537609 0.063692
v 0.801386 0.482391 0.063692
v 0.547609 0.791384 0.063692
v 0.664011 0.649168 0.063679
v 0.467443 0.288367 0.063684
v 0.296877 0.331922 0.043079
v 0.324394 0.607801 0.063689
v 0.714784 0.300434 0.043856
v 0.751661 0.814974 0.040036
v 0.582531 0.675065 0.063607
v 0.280068 0.657926 0.051192
v 0.690227 0.760138 0.047929
v 0.414684 0.323556 0.063689
v 0.624067 0.697941 0.063686
v 0.647966 0.309450 0.056055
vt 0.000000 0.000000
vt 1.000000 0.000000
vt 0.000000 1.000000
vt 1.000000 1.000000
vt 0.500000 0.500000
vt 0.000000 0.500000
vt 0.500000 1.000000
vt 1.000000 0.500000
vt 0.500000 0.000000
vt 0.250000 0.750000
vt 0.750000 0.750000
vt 0.250000 0.250000
vt 0.750000 0.250000
vt 0.750000 0.000000
vt 0.250000 0.000000
vt 1.000000 0.750000
vt 1.000000 0.250000
vt 0.250000 1.000000
vt 0.750000 1.000000
vt 0.000000 0.250000
vt 0.000000 0.750000
vt 0.365347 0.220303
vt 0.629073 0.770824
vt 0.499230 0.747633
vt 0.375550 0.373982
vt 0.875000 0.375000
vt 0.625000 0.125000
vt 0.625000 0.375000
vt 0.875000 0.125000
vt 0.375000 0.125000
vt 0.125000 0.125000
vt 0.750000 0.687500
vt 0.875000 0.625000
vt 0.625000 0.625000
vt 0.875000 0.875000
vt 0.375000 0.875000
vt 0.262101 0.599801
vt 0.125000 0.875000
vt 0.125000 0.625000
vt 0.625000 0.875000
vt 0.125000 0.375000
vt 0.250000 0.125000
vt 0.875000 0.750000
vt 0.875000 0.250000
vt 0.250000 0.875000
vt 0.750000 0.875000
vt 0.125000 0.250000
vt 0.125000 0.750000
vt 0.304602 0.713891
vt 0.690882 0.507820
vt 0.750000 0.625000
vt 0.875000 0.500000
vt 0.372915 0.644830
vt 0.375000 0.750000
vt 0.000000 0.375000
vt 0.500000 0.875000
vt 0.500000 0.625000
vt 0.250000 0.375000
vt 0.125000 0.500000
vt 0.375000 0.500000
vt 0.625000 0.250000
vt 0.500000 0.125000
vt 0.500000 0.375000
vt 0.000000 0.625000
vt 0.000000 0.875000
vt 0.000000 0.125000
vt 0.625000 1.000000
vt 0.875000 1.000000
vt 0.125000 1.000000
vt 0.375000 1.000000
vt 1.000000 0.375000
vt 1.000000 0.125000
vt 1.000000 0.875000
vt 1.000000 0.625000
vt 0.375000 0.000000
vt 0.125000 0.000000
vt 0.875000 0.000000
vt 0.625000 0.000000
vt 0.750000 0.125000
vt 0.625000 0.500000
vt 0.344661 0.562348
vt 0.062500 0.312500
vt 0.187500 0.437500
vt 0.187500 0.312500
vt 0.062500 0.437500
vt 0.687500 0.937500
vt 0.687500 0.812500
vt 0.562500 0.937500
vt 0.062500 0.687500
vt 0.187500 0.687500
vt 0.062500 0.562500
vt 0.187500 0.937500
vt 0.187500 0.812500
vt 0.062500 0.937500
vt 0.437500 0.562500
vt 0.834853 0.423541
vt 0.437500 0.812500
vt 0.312500 0.812500
vt 0.437500 0.937500
vt 0.937500 0.812500
vt 0.812500 0.812500
vt 0.937500 0.937500
vt 0.706384 0.592335
vt 0.562500 0.562500
vt 0.422143 0.685016
vt 0.812500 0.562500
vt 0.812500 0.687500
vt 0.937500 0.562500
vt 0.311128 0.261404
vt 0.572113 0.298051
vt 0.437500 0.437500
vt 0.187500 0.062500
vt 0.062500 0.062500
vt 0.187500 0.187500
vt 0.312500 0.062500
vt 0.312500 0.187500
vt 0.437500 0.062500
vt 0.812500 0.062500
vt 0.937500 0.062500
vt 0.334014 0.424665
vt 0.562500 0.437500
vt 0.287376 0.482036
vt 0.562500 0.187500
vt 0.687500 0.187500
vt 0.562500 0.062500
vt 0.937500 0.312500
vt 0.812500 0.312500
vt 0.937500 0.437500
vt 0.312500 0.937500
vt 0.187500 0.625000
vt 0.812500 0.187500
vt 0.800716 0.372483
vt 0.687500 0.062500
vt 0.687500 0.437500
vt 0.937500 0.187500
vt 0.437500 0.187500
vt 0.062500 0.187500
vt 0.764138 0.521269
vt 0.937500 0.687500
vt 0.665688 0.374685
vt 0.062500 0.812500
vt 0.812500 0.937500
vt 0.187500 0.562500
vt 0.426610 0.226694
vt 0.713049 0.413620
vt 0.492183 0.232842
vt 0.242560 0.537243
vt 0.795937 0.482455
vt 0.546817 0.786354
vt 0.661607 0.647076
vt 0.467440 0.291396
vt 0.296906 0.332149
vt 0.326266 0.606565
vt 0.713437 0.300753
vt 0.750000 0.812500
vt 0.581168 0.672349
vt 0.281585 0.657008
vt 0.688844 0.757642
vt 0.415184 0.325727
vt 0.622291 0.695027
vt 0.646352 0.310977
vn 0.002644 0.002644 0.999993
vn 0.034579 -0.034579 0.998804
vn -0.021133 0.021133 0.999553
vn 0.057787 0.057787 0.996655
vn 0.000000 0.000000 1.000000
vn -0.297009 -0.015295 0.954752
vn 0.010178 0.306898 0.951688
vn 0.282195 -0.013516 0.959262
vn 0.001703 -0.329862 0.944028
vn -0.112715 0.118833 0.986496
vn 0.068383 0.083757 0.994137
vn -0.157875 -0.109717 0.981345
vn 0.079840 -0.104667 0.991297
vn 0.006420 -0.198729 0.980033
vn -0.022984 -0.175766 0.984164
vn 0.225537 0.033790 0.973649
vn 0.227366 -0.020430 0.973595
vn -0.020929 0.221846 0.974857
vn 0.014334 0.226193 0.973977
vn -0.158152 -0.012551 0.987335
vn -0.210459 0.026289 0.977249
vn -0.158354 -0.153680 0.975349
vn 0.120095 0.110110 0.986637
vn -0.060885 0.070204 0.995673
vn -0.090969 -0.074104 0.993093
vn 0.242092 -0.049358 0.968997
vn 0.068766 -0.192010 0.978981
vn -0.002134 0.002579 0.999994
vn 0.087624 -0.091829 0.991912
vn -0.095520 -0.145818 0.984689
vn -0.053999 -0.049827 0.997297
vn 0.056394 0.110140 0.992315
vn 0.251613 0.040787 0.966968
vn -0.001465 -0.001598 0.999998
vn 0.122183 0.103386 0.987108
vn -0.062979 0.182806 0.981130
vn -0.129188 0.139194 0.981802
vn -0.082333 0.071791 0.994016
vn -0.190929 0.074680 0.978759
vn 0.048917 0.252320 0.966407
vn -0.127581 -0.080859 0.988527
vn -0.082953 -0.065732 0.994383
vn 0.201887 0.080031 0.976134
vn 0.139098 -0.078610 0.987154
vn -0.084809 0.103146 0.991044
vn 0.072415 0.189378 0.979230
vn -0.058959 -0.067825 0.995954
vn -0.109245 0.080809 0.990725
vn -0.101763 0.138012 0.985189
vn -0.000908 -0.000844 0.999999
vn 0.083682 0.092248 0.992214
vn 0.303488 -0.017161 0.952681
vn -0.063736 0.080509 0.994714
vn -0.115007 0.119133 0.986195
vn -0.225523 -0.022003 0.973989
vn -0.025458 0.261015 0.964999
vn 0.000199 -0.000783 1.000000
vn -0.167620 -0.138303 0.976102
vn -0.195065 -0.041905 0.979895
vn 0.001036 0.000124 0.999999
vn 0.121128 -0.139933 0.982724
vn -0.019104 -0.220994 0.975088
vn 0.000361 0.000947 0.999999
vn -0.293817 0.017052 0.955710
vn -0.100818 0.029394 0.994471
vn -0.064111 -0.034866 0.997334
vn 0.008857 0.270784 0.962599
vn 0.021031 0.157116 0.987356
vn -0.034975 0.111923 0.993101
vn -0.016787 0.294312 0.955562
vn 0.261584 0.002677 0.965177
vn 0.128631 -0.029890 0.991242
vn 0.137370 0.011115 0.990457
vn 0.299079 0.004677 0.954217
vn -0.029399 -0.277214 0.960358
vn -0.034123 -0.062629 0.997453
vn 0.029596 -0.128037 0.991328
vn 0.030205 -0.269576 0.962505
vn 0.060500 -0.140910 0.988172
vn -0.000497 -0.000319 1.000000
vn 0.001071 -0.000909 0.999999
vn -0.158606 -0.042701 0.986418
vn -0.156228 -0.105524 0.982068
vn -0.093500 -0.118574 0.988533
vn -0.236134 -0.033529 0.971142
vn 0.032817 0.268460 0.962732
vn 0.086265 0.101764 0.991061
vn 0.007272 0.304084 0.952618
vn -0.212919 0.041366 0.976194
vn -0.131386 0.126774 0.983192
vn -0.257402 0.004564 0.966294
vn -0.046855 0.147041 0.988020
vn -0.078295 0.075601 0.994060
vn -0.055605 0.052808 0.997055
vn 0.000470 -0.000527 1.000000
vn 0.265724 -0.057293 0.962345
vn -0.088698 0.155463 0.983852
vn -0.107072 0.099726 0.989237
vn -0.013029 0.281311 0.959528
vn 0.193951 0.031639 0.980501
vn 0.107840 0.101625 0.988961
vn 0.083822 0.078817 0.993359
vn 0.048182 0.039533 0.998056
vn 0.000000 -0.000175 1.000000
vn -0.067444 0.082450 0.994310
vn 0.179704 0.052333 0.982328
vn 0.115408 0.099002 0.988372
vn 0.301896 -0.005926 0.953322
vn -0.205434 -0.127699 0.970304
vn 0.076063 -0.092706 0.992784
vn 0.000644 0.000614 1.000000
vn -0.047764 -0.092359 0.994580
vn -0.029346 -0.029728 0.999127
vn -0.069835 -0.045944 0.996500
vn -0.048510 -0.173555 0.983629
vn -0.157720 -0.111235 0.981199
vn -0.038502 -0.263794 0.963810
vn 0.031811 -0.159104 0.986749
vn 0.065262 -0.065398 0.995723
vn -0.085246 -0.071072 0.993822
vn 0.000000 -0.000000 1.000000
vn -0.081396 -0.065682 0.994515
vn 0.093020 -0.163428 0.982160
vn 0.094098 -0.105918 0.989913
vn 0.028805 -0.286460 0.957659
vn 0.241729 -0.029683 0.969890
vn 0.114025 -0.140146 0.983543
vn 0.284719 -0.010500 0.958553
vn -0.039420 0.223594 0.973885
vn -0.164860 0.123999 0.978491
vn 0.068692 -0.086254 0.993902
vn 0.161398 -0.130917 0.978167
vn 0.038233 -0.224384 0.973751
vn -0.002074 0.001947 0.999996
vn 0.166829 -0.042827 0.985055
vn -0.141293 -0.223572 0.964392
vn -0.081732 -0.037599 0.995945
vn 0.058352 0.044955 0.997283
vn 0.258737 0.043614 0.964963
vn 0.054625 -0.064026 0.996452
vn -0.142506 0.044523 0.988792
vn 0.030862 0.201941 0.978911
vn -0.202531 0.047070 0.978144
vn -0.153215 -0.222317 0.962861
vn 0.026141 -0.041345 0.998803
vn -0.047255 -0.150148 0.987534
vn -0.157002 0.028883 0.987176
vn 0.170952 -0.001609 0.985278
vn 0.006661 0.128506 0.991686
vn 0.034089 0.033401 0.998861
vn 0.000371 0.000838 1.000000
vn -0.176555 -0.143484 0.973776
vn -0.057586 0.070712 0.995833
vn 0.110712 -0.144785 0.983250
vn 0.095052 0.118545 0.988389
vn -0.000457 -0.001440 0.999999
vn -0.112585 0.151642 0.982003
vn 0.098824 0.078924 0.991970
vn -0.074848 -0.058437 0.995481
vn 0.049682 0.041361 0.997908
vn 0.144642 -0.160656 0.976355
f 1/1/1 113/113/113 66/66/66
f 31/31/31 137/137/137 113/113/113
f 132/132/132 127/127/127 26/26/26
f 112/112/112 31/31/31 113/113/113
f 135/135/135 44/44/44 29/29/29
f 106/106/106 52/52/52 33/33/33
f 24/24/24 57/57/57 156/156/156
f 84/84/84 41/41/41 47/47/47
f 137/137/137 66/66/66 113/113/113
f 75/75/75 115/115/115 15/15/15
f 12/12/12 152/152/152 84/84/84
f 61/61/61 110/110/110 123/123/123
f 25/25/25 120/120/120 152/152/152
f 76/76/76 113/113/113 1/1/1
f 76/76/76 112/112/112 113/113/113
f 15/15/15 112/112/112 76/76/76
f 115/115/115 112/112/112 15/15/15
f 30/30/30 115/115/115 117/117/117
f 108/108/108 33/33/33 52/52/52
f 75/75/75 117/117/117 115/115/115
f 115/115/115 30/30/30 42/42/42
f 145/145/145 140/140/140 154/154/154
f 51/51/51 150/150/150 103/103/103
f 136/136/136 22/22/22 30/30/30
f 90/90/90 10/10/10 48/48/48
f 54/54/54 98/98/98 49/49/49
f 42/42/42 112/112/112 115/115/115
f 58/58/58 84/84/84 152/152/152
f 13/13/13 154/154/154 124/124/124
f 60/60/60 120/120/120 111/111/111
f 136/136/136 62/62/62 146/146/146
f 159/159/159 63/63/63 111/111/111
f 101/101/101 43/43/43 35/35/35
f 104/104/104 80/80/80 34/34/34
f 10/10/10 49/49/49 98/98/98
f 24/24/24 156/156/156 149/149/149
f 49/49/49 53/53/53 54/54/54
f 117/117/117 62/62/62 30/30/30
f 95/95/95 57/57/57 105/105/105
f 131/131/131 29/29/29 44/44/44
f 77/77/77 2/2/2 119/119/119
f 77/77/77 119/119/119 118/118/118
f 71/71/71 128/128/128 126/126/126
f 58/58/58 152/152/152 120/120/120
f 63/63/63 28/28/28 121/121/121
f 119/119/119 29/29/29 118/118/118
f 57/57/57 24/24/24 105/105/105
f 125/125/125 27/27/27 62/62/62
f 135/135/135 72/72/72 17/17/17
f 136/136/136 30/30/30 62/62/62
f 138/138/138 148/148/148 106/106/106
f 60/60/60 122/122/122 120/120/120
f 153/153/153 53/53/53 157/157/157
f 11/11/11 32/32/32 107/107/107
f 12/12/12 114/114/114 116/116/116
f 150/150/150 160/160/160 34/34/34
f 32/32/32 158/158/158 150/150/150
f 110/110/110 146/146/146 123/123/123
f 63/63/63 151/151/151 110/110/110
f 44/44/44 127/127/127 131/131/131
f 82/82/82 47/47/47 41/41/41
f 45/45/45 98/98/98 36/36/36
f 82/82/82 137/137/137 47/47/47
f 61/61/61 124/124/124 154/154/154
f 26/26/26 126/126/126 128/128/128
f 62/62/62 117/117/117 125/125/125
f 20/20/20 137/137/137 82/82/82
f 38/38/38 92/92/92 94/94/94
f 20/20/20 66/66/66 137/137/137
f 55/55/55 20/20/20 82/82/82
f 69/69/69 94/94/94 92/92/92
f 159/159/159 151/151/151 63/63/63
f 8/8/8 108/108/108 128/128/128
f 141/141/141 48/48/48 38/38/38
f 50/50/50 80/80/80 134/134/134
f 65/65/65 141/141/141 94/94/94
f 114/114/114 31/31/31 42/42/42
f 38/38/38 94/94/94 141/141/141
f 92/92/92 18/18/18 69/69/69
f 24/24/24 149/149/149 97/97/97
f 151/151/151 159/159/159 146/146/146
f 46/46/46 35/35/35 142/142/142
f 29/29/29 119/119/119 135/135/135
f 40/40/40 149/149/149 23/23/23
f 158/158/158 23/23/23 160/160/160
f 35/35/35 46/46/46 101/101/101
f 129/129/129 45/45/45 36/36/36
f 27/27/27 124/124/124 123/123/123
f 85/85/85 41/41/41 59/59/59
f 78/78/78 125/125/125 9/9/9
f 70/70/70 129/129/129 99/99/99
f 83/83/83 59/59/59 41/41/41
f 129/129/129 70/70/70 18/18/18
f 36/36/36 99/99/99 129/129/129
f 93/93/93 38/38/38 48/48/48
f 38/38/38 45/45/45 92/92/92
f 52/52/52 128/128/128 108/108/108
f 65/65/65 94/94/94 3/3/3
f 72/72/72 135/135/135 119/119/119
f 94/94/94 69/69/69 3/3/3
f 39/39/39 90/90/90 48/48/48
f 21/21/21 141/141/141 65/65/65
f 18/18/18 92/92/92 129/129/129
f 6/6/6 91/91/91 64/64/64
f 153/153/153 81/81/81 53/53/53
f 93/93/93 45/45/45 38/38/38
f 89/89/89 39/39/39 48/48/48
f 13/13/13 124/124/124 131/131/131
f 45/45/45 129/129/129 92/92/92
f 9/9/9 125/125/125 117/117/117
f 64/64/64 89/89/89 21/21/21
f 55/55/55 82/82/82 85/85/85
f 6/6/6 85/85/85 91/91/91
f 59/59/59 91/91/91 85/85/85
f 41/41/41 85/85/85 82/82/82
f 6/6/6 55/55/55 85/85/85
f 59/59/59 83/83/83 143/143/143
f 59/59/59 39/39/39 91/91/91
f 109/109/109 22/22/22 159/159/159
f 143/143/143 39/39/39 59/59/59
f 118/118/118 29/29/29 79/79/79
f 23/23/23 149/149/149 160/160/160
f 134/134/134 148/148/148 138/138/138
f 58/58/58 83/83/83 84/84/84
f 119/119/119 2/2/2 72/72/72
f 49/49/49 157/157/157 53/53/53
f 11/11/11 158/158/158 32/32/32
f 144/144/144 146/146/146 159/159/159
f 10/10/10 98/98/98 93/93/93
f 21/21/21 89/89/89 141/141/141
f 97/97/97 54/54/54 24/24/24
f 51/51/51 32/32/32 150/150/150
f 79/79/79 133/133/133 118/118/118
f 118/118/118 133/133/133 14/14/14
f 79/79/79 131/131/131 124/124/124
f 100/100/100 35/35/35 43/43/43
f 149/149/149 40/40/40 56/56/56
f 48/48/48 141/141/141 89/89/89
f 78/78/78 133/133/133 125/125/125
f 62/62/62 27/27/27 123/123/123
f 147/147/147 37/37/37 143/143/143
f 148/148/148 96/96/96 52/52/52
f 60/60/60 95/95/95 81/81/81
f 156/156/156 34/34/34 160/160/160
f 5/5/5 95/95/95 111/111/111
f 148/148/148 145/145/145 132/132/132
f 130/130/130 143/143/143 37/37/37
f 157/157/157 37/37/37 153/153/153
f 27/27/27 125/125/125 133/133/133
f 121/121/121 5/5/5 111/111/111
f 160/160/160 150/150/150 158/158/158
f 122/122/122 58/58/58 120/120/120
f 17/17/17 126/126/126 135/135/135
f 41/41/41 84/84/84 83/83/83
f 123/123/123 146/146/146 62/62/62
f 60/60/60 111/111/111 95/95/95
f 28/28/28 134/134/134 80/80/80
f 104/104/104 95/95/95 5/5/5
f 28/28/28 140/140/140 134/134/134
f 26/26/26 128/128/128 96/96/96
f 57/57/57 95/95/95 104/104/104
f 138/138/138 50/50/50 134/134/134
f 127/127/127 44/44/44 26/26/26
f 126/126/126 26/26/26 44/44/44
f 45/45/45 93/93/93 98/98/98
f 110/110/110 28/28/28 63/63/63
f 11/11/11 107/107/107 101/101/101
f 9/9/9 117/117/117 75/75/75
f 96/96/96 148/148/148 132/132/132
f 54/54/54 97/97/97 98/98/98
f 130/130/130 90/90/90 39/39/39
f 114/114/114 42/42/42 116/116/116
f 99/99/99 36/36/36 56/56/56
f 80/80/80 104/104/104 5/5/5
f 95/95/95 53/53/53 81/81/81
f 126/126/126 17/17/17 71/71/71
f 109/109/109 12/12/12 116/116/116
f 25/25/25 159/159/159 111/111/111
f 52/52/52 96/96/96 128/128/128
f 103/103/103 150/150/150 34/34/34
f 36/36/36 98/98/98 97/97/97
f 37/37/37 157/157/157 130/130/130
f 105/105/105 53/53/53 95/95/95
f 58/58/58 122/122/122 83/83/83
f 26/26/26 96/96/96 132/132/132
f 50/50/50 138/138/138 103/103/103
f 120/120/120 25/25/25 111/111/111
f 12/12/12 109/109/109 152/152/152
f 14/14/14 133/133/133 78/78/78
f 13/13/13 131/131/131 127/127/127
f 107/107/107 106/106/106 33/33/33
f 44/44/44 135/135/135 126/126/126
f 43/43/43 101/101/101 107/107/107
f 34/34/34 156/156/156 104/104/104
f 57/57/57 104/104/104 156/156/156
f 121/121/121 80/80/80 5/5/5
f 63/63/63 121/121/121 111/111/111
f 121/121/121 28/28/28 80/80/80
f 77/77/77 118/118/118 14/14/14
f 10/10/10 93/93/93 48/48/48
f 103/103/103 34/34/34 80/80/80
f 131/131/131 79/79/79 29/29/29
f 140/140/140 145/145/145 134/134/134
f 49/49/49 10/10/10 157/157/157
f 124/124/124 27/27/27 79/79/79
f 139/139/139 33/33/33 108/108/108
f 107/107/107 33/33/33 43/43/43
f 133/133/133 79/79/79 27/27/27
f 145/145/145 148/148/148 134/134/134
f 139/139/139 43/43/43 33/33/33
f 11/11/11 155/155/155 158/158/158
f 80/80/80 50/50/50 103/103/103
f 140/140/140 28/28/28 110/110/110
f 51/51/51 106/106/106 107/107/107
f 127/127/127 132/132/132 154/154/154
f 97/97/97 56/56/56 36/36/36
f 86/86/86 46/46/46 142/142/142
f 112/112/112 42/42/42 31/31/31
f 40/40/40 46/46/46 86/86/86
f 74/74/74 139/139/139 108/108/108
f 100/100/100 43/43/43 139/139/139
f 137/137/137 31/31/31 47/47/47
f 114/114/114 47/47/47 31/31/31
f 88/88/88 40/40/40 86/86/86
f 16/16/16 100/100/100 139/139/139
f 102/102/102 35/35/35 100/100/100
f 68/68/68 142/142/142 102/102/102
f 88/88/88 99/99/99 56/56/56
f 142/142/142 35/35/35 102/102/102
f 53/53/53 105/105/105 54/54/54
f 147/147/147 122/122/122 81/81/81
f 19/19/19 86/86/86 142/142/142
f 88/88/88 56/56/56 40/40/40
f 144/144/144 22/22/22 136/136/136
f 105/105/105 24/24/24 54/54/54
f 106/106/106 51/51/51 138/138/138
f 87/87/87 46/46/46 40/40/40
f 81/81/81 153/153/153 147/147/147
f 87/87/87 155/155/155 46/46/46
f 110/110/110 151/151/151 146/146/146
f 60/60/60 81/81/81 122/122/122
f 64/64/64 91/91/91 89/89/89
f 87/87/87 40/40/40 23/23/23
f 67/67/67 88/88/88 86/86/86
f 7/7/7 99/99/99 88/88/88
f 7/7/7 70/70/70 99/99/99
f 67/67/67 7/7/7 88/88/88
f 19/19/19 67/67/67 86/86/86
f 68/68/68 19/19/19 142/142/142
f 73/73/73 102/102/102 100/100/100
f 4/4/4 68/68/68 102/102/102
f 73/73/73 4/4/4 102/102/102
f 16/16/16 73/73/73 100/100/100
f 74/74/74 16/16/16 139/139/139
f 8/8/8 74/74/74 108/108/108
f 39/39/39 89/89/89 91/91/91
f 116/116/116 22/22/22 109/109/109
f 116/116/116 42/42/42 30/30/30
f 22/22/22 144/144/144 159/159/159
f 61/61/61 123/123/123 124/124/124
f 106/106/106 148/148/148 52/52/52
f 23/23/23 158/158/158 87/87/87
f 128/128/128 71/71/71 8/8/8
f 90/90/90 130/130/130 157/157/157
f 32/32/32 51/51/51 107/107/107
f 146/146/146 144/144/144 136/136/136
f 37/37/37 147/147/147 153/153/153
f 103/103/103 138/138/138 51/51/51
f 25/25/25 152/152/152 159/159/159
f 155/155/155 101/101/101 46/46/46
f 154/154/154 132/132/132 145/145/145
f 84/84/84 114/114/114 12/12/12
f 101/101/101 155/155/155 11/11/11
f 114/114/114 84/84/84 47/47/47
f 97/97/97 149/149/149 56/56/56
f 154/154/154 13/13/13 127/127/127
f 90/90/90 157/157/157 10/10/10
f 143/143/143 130/130/130 39/39/39
f 140/140/140 161/161/161 154/154/154
f 109/109/109 159/159/159 152/152/152
f 116/116/116 30/30/30 22/22/22
f 87/87/87 158/158/158 155/155/155
f 161/161/161 61/61/61 154/154/154
f 160/160/160 149/149/149 156/156/156
f 61/61/61 161/161/161 110/110/110
f 161/161/161 140/140/140 110/110/110
f 147/147/147 143/143/143 83/83/83
f 147/147/147 83/83/83 122/122/122
