# frame 000259 
# time 0.130000 
# name Cloth3D 
v -0.000000 0.000000 -0.000000
v 1.000000 0.000000 -0.000000
v -0.000000 1.000000 0.000000
v 1.000000 1.000000 0.000000
v 0.501232 0.500599 0.059784
v -0.000000 0.500000 0.000000
v 0.500000 1.000000 0.000000
v 1.000000 0.500000 0.000000
v 0.500000 -0.000000 0.000000
v 0.250432 0.750216 0.027314
v 0.751595 0.751460 0.037369
v 0.252001 0.250964 0.016917
v 0.750908 0.250057 0.028860
v 0.750000 0.000000 0.000000
v 0.250000 0.000000 0.000000
v 1.000000 0.750000 0.000000
v 1.000000 0.250000 0.000000
v 0.250000 1.000000 0.000000
v 0.750000 1.000000 0.000000
v 0.000000 0.250000 0.000000
v 0.000000 0.750000 -0.000000
v 0.366753 0.219507 0.033964
v 0.248338 0.500840 0.053624
v 0.500897 0.753885 0.059266
v 0.374023 0.372131 0.059936
v 0.878202 0.374705 0.033413
v 0.625702 0.122801 0.031560
v 0.627435 0.373892 0.059784
v 0.875388 0.124756 0.012057
v 0.376142 0.123764 0.022925
v 0.125746 0.125526 0.002008
v 0.752335 0.688675 0.043165
v 0.878816 0.625728 0.036504
v 0.627495 0.626892 0.059784
v 0.875945 0.875839 0.017915
v 0.375168 0.877405 0.031089
v 0.374613 0.626952 0.059784
v 0.125183 0.874943 0.008853
v 0.123339 0.625340 0.028864
v 0.626219 0.879159 0.039397
v 0.124994 0.375443 0.021466
v 0.251013 0.125072 0.012339
v 0.876290 0.750430 0.021794
v 0.876510 0.249698 0.022743
v 0.250271 0.875526 0.017791
v 0.750923 0.876695 0.025636
v 0.126003 0.250694 0.009208
v 0.124778 0.749843 0.016111
v 0.305000 0.714468 0.037779
v 0.278827 0.436065 0.047228
v 0.753112 0.625881 0.049432
v 0.879321 0.500083 0.039499
v 0.371682 0.648046 0.059936
v 0.376022 0.751359 0.040094
v 0.000000 0.375000 0.000000
v 0.500612 0.879081 0.039258
v 0.501136 0.627169 0.059785
v 0.250701 0.375933 0.034392
v 0.123394 0.500402 0.030162
v 0.374578 0.500617 0.059785
v 0.625724 0.248917 0.042689
v 0.500506 0.121251 0.038257
v 0.501054 0.373915 0.059785
v 0.000000 0.625000 0.000000
v 0.000000 0.875000 0.000000
v 0.000000 0.125000 0.000000
v 0.625000 1.000000 0.000000
v 0.875000 1.000000 0.000000
v 0.125000 1.000000 0.000000
v 0.375000 1.000000 0.000000
v 1.000000 0.375000 0.000000
v 1.000000 0.125000 0.000000
v 1.000000 0.875000 0.000000
v 1.000000 0.625000 0.000000
v 0.375000 0.000000 0.000000
v 0.125000 0.000000 0.000000
v 0.875000 0.000000 0.000000
v 0.625000 0.000000 0.000000
v 0.750344 0.124592 0.017932
v 0.627790 0.500422 0.059785
v 0.343707 0.563593 0.059862
v 0.062681 0.312797 0.008768
v 0.187403 0.438563 0.032373
v 0.188957 0.313816 0.015797
v 0.061734 0.437671 0.014931
v 0.687975 0.939209 0.017447
v 0.688804 0.815038 0.039440
v 0.562959 0.939567 0.019930
v 0.061050 0.687720 0.016820
v 0.186945 0.687692 0.029718
v 0.060342 0.562651 0.020388
v 0.187566 0.937797 0.008917
v 0.188071 0.812236 0.012968
v 0.062672 0.937347 0.000161
v 0.437932 0.563870 0.059785
v 0.519324 0.760302 0.059976
v 0.438551 0.815133 0.040222
v 0.313062 0.813546 0.029316
v 0.437713 0.939766 0.020066
v 0.937870 0.812739 0.009082
v 0.813402 0.813435 0.023807
v 0.937723 0.937701 0.005335
v 0.708250 0.592230 0.059929
v 0.564446 0.563796 0.059785
v 0.422941 0.686976 0.059929
v 0.816973 0.563092 0.050450
v 0.815413 0.688750 0.040708
v 0.940798 0.562702 0.023216
v 0.313057 0.261861 0.027579
v 0.571580 0.298445 0.059929
v 0.437931 0.437359 0.059785
v 0.187893 0.062682 0.004582
v 0.062756 0.062732 -0.002726
v 0.188991 0.188268 0.007260
v 0.312765 0.061496 0.014360
v 0.314284 0.187556 0.020534
v 0.437754 0.059692 0.021717
v 0.812714 0.062036 0.010293
v 0.937502 0.062525 0.002125
v 0.333866 0.424981 0.059929
v 0.564403 0.437244 0.059785
v 0.288551 0.484593 0.059929
v 0.562749 0.185312 0.040851
v 0.687732 0.186967 0.026894
v 0.562876 0.060040 0.021104
v 0.939373 0.312295 0.017239
v 0.814481 0.312522 0.032532
v 0.939730 0.437502 0.019499
v 0.312625 0.938540 0.014093
v 0.186508 0.625082 0.035029
v 0.813069 0.187634 0.017136
v 0.803852 0.372318 0.043078
v 0.687695 0.061684 0.013473
v 0.690941 0.437119 0.059785
v 0.937952 0.187410 0.008892
v 0.438746 0.185443 0.040208
v 0.062901 0.187785 0.004926
v 0.764508 0.518221 0.059929
v 0.939323 0.687802 0.017123
v 0.669260 0.372696 0.059929
v 0.062482 0.812438 0.006950
v 0.812920 0.938198 0.011510
v 0.184987 0.563265 0.045821
v 0.563786 0.817329 0.055081
v 0.718815 0.410252 0.059936
v 0.481831 0.229827 0.059942
v 0.239847 0.548141 0.059942
v 0.800154 0.471859 0.059942
v 0.558141 0.790153 0.059942
v 0.664802 0.649390 0.059929
v 0.518373 0.258001 0.059929
v 0.298208 0.332819 0.035515
v 0.322870 0.611036 0.059939
v 0.714769 0.300778 0.038975
v 0.750705 0.813798 0.027877
v 0.583051 0.675041 0.059857
v 0.280848 0.658132 0.047357
v 0.690077 0.759651 0.042266
v 0.412260 0.321696 0.059939
v 0.626734 0.699602 0.059936
v 0.647759 0.310288 0.049008
v 0.630305 0.773973 0.049725
v 0.511865 0.691446 0.059857
v 0.694517 0.508185 0.059857
vt 0.000000 0.000000
vt 1.000000 0.000000
vt 0.000000 1.000000
vt 1.000000 1.000000
vt 0.500000 0.500000
vt 0.000000 0.500000
vt 0.500000 1.000000
vt 1.000000 0.500000
vt 0.500000 0.000000
vt 0.250000 0.750000
vt 0.750000 0.750000
vt 0.250000 0.250000
vt 0.750000 0.250000
vt 0.750000 0.000000
vt 0.250000 0.000000
vt 1.000000 0.750000
vt 1.000000 0.250000
vt 0.250000 1.000000
vt 0.750000 1.000000
vt 0.000000 0.250000
vt 0.000000 0.750000
vt 0.365347 0.220303
vt 0.250000 0.500000
vt 0.500000 0.750000
vt 0.374448 0.373111
vt 0.875000 0.375000
vt 0.625000 0.125000
vt 0.625000 0.375000
vt 0.875000 0.125000
vt 0.375000 0.125000
vt 0.125000 0.125000
vt 0.750000 0.687500
vt 0.875000 0.625000
vt 0.625000 0.625000
vt 0.875000 0.875000
vt 0.375000 0.875000
vt 0.375000 0.625000
vt 0.125000 0.875000
vt 0.125000 0.625000
vt 0.625000 0.875000
vt 0.125000 0.375000
vt 0.250000 0.125000
vt 0.875000 0.750000
vt 0.875000 0.250000
vt 0.250000 0.875000
vt 0.750000 0.875000
vt 0.125000 0.250000
vt 0.125000 0.750000
vt 0.304602 0.713891
vt 0.278861 0.435152
vt 0.750000 0.625000
vt 0.875000 0.500000
vt 0.372087 0.645885
vt 0.375000 0.750000
vt 0.000000 0.375000
vt 0.500000 0.875000
vt 0.500000 0.625000
vt 0.250000 0.375000
vt 0.125000 0.500000
vt 0.375000 0.500000
vt 0.625000 0.250000
vt 0.500000 0.125000
vt 0.500000 0.375000
vt 0.000000 0.625000
vt 0.000000 0.875000
vt 0.000000 0.125000
vt 0.625000 1.000000
vt 0.875000 1.000000
vt 0.125000 1.000000
vt 0.375000 1.000000
vt 1.000000 0.375000
vt 1.000000 0.125000
vt 1.000000 0.875000
vt 1.000000 0.625000
vt 0.375000 0.000000
vt 0.125000 0.000000
vt 0.875000 0.000000
vt 0.625000 0.000000
vt 0.750000 0.125000
vt 0.625000 0.500000
vt 0.344661 0.562348
vt 0.062500 0.312500
vt 0.187500 0.437500
vt 0.187500 0.312500
vt 0.062500 0.437500
vt 0.687500 0.937500
vt 0.687500 0.812500
vt 0.562500 0.937500
vt 0.062500 0.687500
vt 0.187500 0.687500
vt 0.062500 0.562500
vt 0.187500 0.937500
vt 0.187500 0.812500
vt 0.062500 0.937500
vt 0.437500 0.562500
vt 0.518265 0.756228
vt 0.437500 0.812500
vt 0.312500 0.812500
vt 0.437500 0.937500
vt 0.937500 0.812500
vt 0.812500 0.812500
vt 0.937500 0.937500
vt 0.704703 0.591016
vt 0.562500 0.562500
vt 0.422752 0.684238
vt 0.812500 0.562500
vt 0.812500 0.687500
vt 0.937500 0.562500
vt 0.311128 0.261404
vt 0.570081 0.300641
vt 0.437500 0.437500
vt 0.187500 0.062500
vt 0.062500 0.062500
vt 0.187500 0.187500
vt 0.312500 0.062500
vt 0.312500 0.187500
vt 0.437500 0.062500
vt 0.812500 0.062500
vt 0.937500 0.062500
vt 0.334782 0.425265
vt 0.562500 0.437500
vt 0.290239 0.484265
vt 0.562500 0.187500
vt 0.687500 0.187500
vt 0.562500 0.062500
vt 0.937500 0.312500
vt 0.812500 0.312500
vt 0.937500 0.437500
vt 0.312500 0.937500
vt 0.187500 0.625000
vt 0.812500 0.187500
vt 0.800716 0.372483
vt 0.687500 0.062500
vt 0.687500 0.437500
vt 0.937500 0.187500
vt 0.437500 0.187500
vt 0.062500 0.187500
vt 0.759860 0.517911
vt 0.937500 0.687500
vt 0.666380 0.373805
vt 0.062500 0.812500
vt 0.812500 0.937500
vt 0.187500 0.562500
vt 0.562500 0.812500
vt 0.715155 0.410962
vt 0.481510 0.233538
vt 0.242932 0.547268
vt 0.794706 0.472082
vt 0.556868 0.785401
vt 0.662000 0.647382
vt 0.517554 0.261045
vt 0.296906 0.332149
vt 0.324036 0.609386
vt 0.713437 0.300753
vt 0.750000 0.812500
vt 0.581168 0.672349
vt 0.281585 0.657008
vt 0.688844 0.757642
vt 0.412300 0.323436
vt 0.624523 0.696786
vt 0.646352 0.310977
vt 0.629073 0.770824
vt 0.510736 0.688401
vt 0.690882 0.507820
vn 0.023058 0.023058 0.999468
vn 0.015596 -0.015596 0.999757
vn 0.000165 -0.000165 1.000000
vn 0.041494 0.041494 0.998277
vn 0.000000 0.000000 1.000000
vn -0.274644 -0.022242 0.961289
vn -0.000328 0.315066 0.949070
vn 0.339745 -0.015032 0.940397
vn 0.002521 -0.335852 0.941911
vn -0.110706 0.131293 0.985143
vn 0.082771 0.126280 0.988535
vn -0.127091 -0.095842 0.987250
vn 0.081473 -0.127817 0.988446
vn 0.013345 -0.187537 0.982167
vn -0.040115 -0.147482 0.988251
vn 0.207022 0.032212 0.977806
vn 0.206324 -0.034557 0.977873
vn -0.020809 0.179487 0.983540
vn 0.024702 0.230166 0.972838
vn -0.104100 -0.015678 0.994443
vn -0.186180 0.040275 0.981690
vn -0.189638 -0.130095 0.973197
vn -0.220586 -0.169829 0.960469
vn -0.092991 0.171529 0.980781
vn -0.114516 -0.086371 0.989660
vn 0.175987 -0.088414 0.980414
vn 0.085676 -0.127110 0.988182
vn -0.002043 0.002586 0.999995
vn 0.069326 -0.070559 0.995096
vn -0.111160 -0.098831 0.988876
vn -0.042524 -0.038114 0.998368
vn 0.077443 0.099819 0.991987
vn 0.197025 0.069744 0.977915
vn -0.001463 -0.001514 0.999998
vn 0.098350 0.075890 0.992254
vn -0.078354 0.136747 0.987502
vn 0.004004 -0.004762 0.999981
vn -0.067384 0.051990 0.996372
vn -0.128401 0.080068 0.988485
vn 0.068384 0.212767 0.974707
vn -0.094086 -0.088177 0.991651
vn -0.088047 -0.032294 0.995593
vn 0.148716 0.087908 0.984965
vn 0.090375 -0.091301 0.991714
vn -0.087429 0.074633 0.993371
vn 0.095750 0.098748 0.990495
vn -0.035626 -0.063308 0.997358
vn -0.074241 0.094041 0.992796
vn -0.098177 0.166740 0.981101
vn -0.223677 -0.161387 0.961209
vn 0.111917 0.101493 0.988521
vn 0.246777 -0.002045 0.969070
vn -0.025293 0.037257 0.998986
vn -0.117414 0.141723 0.982918
vn -0.183683 -0.024839 0.982672
vn -0.047993 0.215794 0.975259
vn 0.000044 -0.000804 1.000000
vn -0.175354 -0.143364 0.974011
vn -0.178049 -0.053995 0.982539
vn 0.001072 0.000136 0.999999
vn 0.137302 -0.154596 0.978391
vn -0.016742 -0.189483 0.981741
vn 0.000308 0.000809 1.000000
vn -0.290741 0.013890 0.956701
vn -0.053258 0.026899 0.998218
vn -0.013372 -0.029894 0.999464
vn 0.010091 0.296764 0.954897
vn 0.025002 0.132689 0.990842
vn -0.034885 0.069157 0.996996
vn -0.024568 0.267529 0.963237
vn 0.292429 -0.010078 0.956234
vn 0.084886 -0.026911 0.996027
vn 0.113376 0.015289 0.993434
vn 0.319111 0.026130 0.947357
vn -0.029927 -0.283723 0.958439
vn -0.028667 -0.010898 0.999530
vn 0.032768 -0.096558 0.994788
vn 0.030804 -0.273067 0.961502
vn 0.065178 -0.076423 0.994943
vn -0.000505 -0.000325 1.000000
vn 0.001523 -0.000341 0.999999
vn -0.117667 -0.044641 0.992049
vn -0.139315 -0.130715 0.981583
vn -0.081772 -0.108872 0.990687
vn -0.200370 -0.041965 0.978821
vn 0.045444 0.255855 0.965646
vn 0.152360 0.066250 0.986102
vn 0.004963 0.308682 0.951152
vn -0.175621 0.053592 0.982998
vn -0.117286 0.109786 0.987011
vn -0.231036 -0.001803 0.972943
vn -0.045768 0.102670 0.993662
vn -0.074496 0.066144 0.995025
vn -0.034172 0.030173 0.998960
vn 0.000253 0.000001 1.000000
vn -0.065025 0.118594 0.990811
vn -0.107840 0.112606 0.987770
vn -0.105826 0.078684 0.991267
vn -0.029534 0.276365 0.960599
vn 0.155377 0.031687 0.987347
vn 0.074171 0.075748 0.994365
vn 0.068412 0.063506 0.995634
vn 0.087502 0.066336 0.993953
vn 0.000001 -0.000175 1.000000
vn -0.075388 0.095678 0.992553
vn 0.137937 0.073920 0.987679
vn 0.096938 0.105356 0.989698
vn 0.299535 0.012245 0.954007
vn -0.175974 -0.122092 0.976794
vn 0.090546 -0.107521 0.990071
vn 0.000639 0.000592 1.000000
vn -0.055137 -0.054071 0.997014
vn -0.006033 -0.006655 0.999960
vn -0.068686 -0.040210 0.996828
vn -0.056510 -0.137258 0.988922
vn -0.145779 -0.082355 0.985883
vn -0.044992 -0.239816 0.969775
vn 0.034719 -0.116298 0.992607
vn 0.047618 -0.044658 0.997867
vn -0.132903 -0.091959 0.986854
vn 0.000000 -0.000000 1.000000
vn -0.165699 -0.134712 0.976932
vn 0.114318 -0.132852 0.984521
vn 0.102669 -0.084392 0.991129
vn 0.030723 -0.273121 0.961489
vn 0.221398 -0.044039 0.974189
vn 0.082812 -0.131828 0.987807
vn 0.287604 -0.025549 0.957409
vn -0.049900 0.191127 0.980296
vn -0.126862 0.132881 0.982980
vn 0.040441 -0.082134 0.995800
vn 0.116271 -0.161466 0.980005
vn 0.049918 -0.193295 0.979870
vn -0.001837 0.001725 0.999997
vn 0.136453 -0.052436 0.989258
vn -0.174789 -0.190246 0.966051
vn -0.041587 -0.037295 0.998439
vn 0.056452 0.048888 0.997208
vn 0.229409 0.059306 0.971522
vn 0.053432 -0.079682 0.995387
vn -0.095747 0.048135 0.994241
vn 0.040714 0.170788 0.984466
vn -0.201805 0.061546 0.977490
vn 0.038045 0.160718 0.986267
vn 0.038304 -0.054794 0.997763
vn -0.020152 -0.143351 0.989467
vn -0.201041 -0.046806 0.978464
vn 0.124145 -0.012828 0.992181
vn 0.019442 0.138220 0.990211
vn 0.048417 0.037532 0.998122
vn 0.077856 -0.099173 0.992020
vn -0.185280 -0.157317 0.970012
vn -0.044967 0.060969 0.997126
vn 0.106830 -0.162736 0.980869
vn 0.115319 0.080139 0.990091
vn -0.000418 -0.001369 0.999999
vn -0.120908 0.174231 0.977254
vn 0.139468 0.095082 0.985651
vn -0.109775 -0.079325 0.990786
vn 0.063209 0.048573 0.996818
vn 0.141789 -0.186956 0.972082
vn 0.148273 0.106930 0.983149
vn 0.000224 -0.001458 0.999999
vn -0.000953 -0.000852 0.999999
f 1/1/1 113/113/113 66/66/66
f 31/31/31 137/137/137 113/113/113
f 132/132/132 127/127/127 26/26/26
f 112/112/112 31/31/31 113/113/113
f 135/135/135 44/44/44 29/29/29
f 106/106/106 52/52/52 33/33/33
f 50/50/50 58/58/58 120/120/120
f 84/84/84 41/41/41 47/47/47
f 137/137/137 66/66/66 113/113/113
f 75/75/75 115/115/115 15/15/15
f 12/12/12 152/152/152 84/84/84
f 23/23/23 147/147/147 143/143/143
f 25/25/25 120/120/120 152/152/152
f 76/76/76 113/113/113 1/1/1
f 76/76/76 112/112/112 113/113/113
f 15/15/15 112/112/112 76/76/76
f 115/115/115 112/112/112 15/15/15
f 30/30/30 115/115/115 117/117/117
f 108/108/108 33/33/33 52/52/52
f 75/75/75 117/117/117 115/115/115
f 115/115/115 30/30/30 42/42/42
f 145/145/145 140/140/140 154/154/154
f 51/51/51 150/150/150 103/103/103
f 136/136/136 22/22/22 30/30/30
f 90/90/90 10/10/10 48/48/48
f 54/54/54 98/98/98 49/49/49
f 42/42/42 112/112/112 115/115/115
f 58/58/58 84/84/84 152/152/152
f 13/13/13 154/154/154 124/124/124
f 60/60/60 120/120/120 111/111/111
f 136/136/136 62/62/62 146/146/146
f 159/159/159 63/63/63 111/111/111
f 101/101/101 43/43/43 35/35/35
f 104/104/104 80/80/80 34/34/34
f 10/10/10 49/49/49 98/98/98
f 50/50/50 122/122/122 23/23/23
f 49/49/49 53/53/53 54/54/54
f 117/117/117 62/62/62 30/30/30
f 148/148/148 26/26/26 52/52/52
f 131/131/131 29/29/29 44/44/44
f 77/77/77 2/2/2 119/119/119
f 77/77/77 119/119/119 118/118/118
f 71/71/71 128/128/128 126/126/126
f 58/58/58 152/152/152 120/120/120
f 63/63/63 28/28/28 121/121/121
f 119/119/119 29/29/29 118/118/118
f 122/122/122 50/50/50 120/120/120
f 125/125/125 27/27/27 62/62/62
f 135/135/135 72/72/72 17/17/17
f 136/136/136 30/30/30 62/62/62
f 138/138/138 148/148/148 106/106/106
f 60/60/60 122/122/122 120/120/120
f 153/153/153 53/53/53 157/157/157
f 11/11/11 32/32/32 107/107/107
f 12/12/12 114/114/114 116/116/116
f 150/150/150 160/160/160 34/34/34
f 32/32/32 158/158/158 150/150/150
f 147/147/147 157/157/157 130/130/130
f 151/151/151 146/146/146 123/123/123
f 44/44/44 127/127/127 131/131/131
f 82/82/82 47/47/47 41/41/41
f 45/45/45 98/98/98 36/36/36
f 82/82/82 137/137/137 47/47/47
f 61/61/61 124/124/124 154/154/154
f 26/26/26 126/126/126 128/128/128
f 62/62/62 117/117/117 125/125/125
f 20/20/20 137/137/137 82/82/82
f 38/38/38 92/92/92 94/94/94
f 20/20/20 66/66/66 137/137/137
f 55/55/55 20/20/20 82/82/82
f 69/69/69 94/94/94 92/92/92
f 110/110/110 151/151/151 61/61/61
f 8/8/8 108/108/108 128/128/128
f 141/141/141 48/48/48 38/38/38
f 164/164/164 80/80/80 134/134/134
f 65/65/65 141/141/141 94/94/94
f 114/114/114 31/31/31 42/42/42
f 38/38/38 94/94/94 141/141/141
f 92/92/92 18/18/18 69/69/69
f 97/97/97 54/54/54 24/24/24
f 151/151/151 110/110/110 63/63/63
f 46/46/46 35/35/35 142/142/142
f 29/29/29 119/119/119 135/135/135
f 83/83/83 23/23/23 59/59/59
f 151/151/151 63/63/63 159/159/159
f 35/35/35 46/46/46 101/101/101
f 129/129/129 45/45/45 36/36/36
f 27/27/27 124/124/124 123/123/123
f 85/85/85 41/41/41 59/59/59
f 78/78/78 125/125/125 9/9/9
f 70/70/70 129/129/129 99/99/99
f 83/83/83 59/59/59 41/41/41
f 129/129/129 70/70/70 18/18/18
f 36/36/36 99/99/99 129/129/129
f 93/93/93 38/38/38 48/48/48
f 38/38/38 45/45/45 92/92/92
f 52/52/52 128/128/128 108/108/108
f 65/65/65 94/94/94 3/3/3
f 72/72/72 135/135/135 119/119/119
f 94/94/94 69/69/69 3/3/3
f 39/39/39 90/90/90 48/48/48
f 21/21/21 141/141/141 65/65/65
f 18/18/18 92/92/92 129/129/129
f 6/6/6 91/91/91 64/64/64
f 105/105/105 24/24/24 54/54/54
f 93/93/93 45/45/45 38/38/38
f 89/89/89 39/39/39 48/48/48
f 13/13/13 124/124/124 131/131/131
f 45/45/45 129/129/129 92/92/92
f 9/9/9 125/125/125 117/117/117
f 64/64/64 89/89/89 21/21/21
f 55/55/55 82/82/82 85/85/85
f 6/6/6 85/85/85 91/91/91
f 59/59/59 91/91/91 85/85/85
f 41/41/41 85/85/85 82/82/82
f 6/6/6 55/55/55 85/85/85
f 146/146/146 151/151/151 159/159/159
f 59/59/59 39/39/39 91/91/91
f 109/109/109 22/22/22 159/159/159
f 143/143/143 39/39/39 59/59/59
f 118/118/118 29/29/29 79/79/79
f 58/58/58 50/50/50 83/83/83
f 134/134/134 148/148/148 138/138/138
f 58/58/58 83/83/83 84/84/84
f 119/119/119 2/2/2 72/72/72
f 49/49/49 157/157/157 53/53/53
f 11/11/11 158/158/158 32/32/32
f 40/40/40 144/144/144 162/162/162
f 10/10/10 98/98/98 93/93/93
f 21/21/21 89/89/89 141/141/141
f 105/105/105 53/53/53 37/37/37
f 51/51/51 32/32/32 150/150/150
f 79/79/79 133/133/133 118/118/118
f 118/118/118 133/133/133 14/14/14
f 79/79/79 131/131/131 124/124/124
f 100/100/100 35/35/35 43/43/43
f 143/143/143 59/59/59 23/23/23
f 48/48/48 141/141/141 89/89/89
f 78/78/78 133/133/133 125/125/125
f 62/62/62 27/27/27 123/123/123
f 53/53/53 153/153/153 37/37/37
f 37/37/37 81/81/81 95/95/95
f 60/60/60 95/95/95 81/81/81
f 156/156/156 34/34/34 160/160/160
f 5/5/5 95/95/95 111/111/111
f 148/148/148 145/145/145 132/132/132
f 57/57/57 37/37/37 95/95/95
f 37/37/37 57/57/57 105/105/105
f 27/27/27 125/125/125 133/133/133
f 121/121/121 5/5/5 111/111/111
f 160/160/160 150/150/150 158/158/158
f 61/61/61 151/151/151 123/123/123
f 17/17/17 126/126/126 135/135/135
f 41/41/41 84/84/84 83/83/83
f 123/123/123 146/146/146 62/62/62
f 60/60/60 111/111/111 95/95/95
f 28/28/28 134/134/134 80/80/80
f 104/104/104 95/95/95 5/5/5
f 28/28/28 140/140/140 134/134/134
f 24/24/24 105/105/105 96/96/96
f 57/57/57 95/95/95 104/104/104
f 138/138/138 164/164/164 134/134/134
f 127/127/127 44/44/44 26/26/26
f 126/126/126 26/26/26 44/44/44
f 45/45/45 93/93/93 98/98/98
f 110/110/110 28/28/28 63/63/63
f 11/11/11 107/107/107 101/101/101
f 9/9/9 117/117/117 75/75/75
f 26/26/26 128/128/128 52/52/52
f 54/54/54 97/97/97 98/98/98
f 130/130/130 90/90/90 39/39/39
f 114/114/114 42/42/42 116/116/116
f 99/99/99 36/36/36 56/56/56
f 80/80/80 104/104/104 5/5/5
f 23/23/23 83/83/83 50/50/50
f 126/126/126 17/17/17 71/71/71
f 109/109/109 12/12/12 116/116/116
f 25/25/25 159/159/159 111/111/111
f 163/163/163 96/96/96 105/105/105
f 103/103/103 150/150/150 34/34/34
f 36/36/36 98/98/98 97/97/97
f 153/153/153 81/81/81 37/37/37
f 96/96/96 156/156/156 149/149/149
f 122/122/122 147/147/147 23/23/23
f 26/26/26 148/148/148 132/132/132
f 157/157/157 147/147/147 153/153/153
f 120/120/120 25/25/25 111/111/111
f 12/12/12 109/109/109 152/152/152
f 14/14/14 133/133/133 78/78/78
f 13/13/13 131/131/131 127/127/127
f 107/107/107 106/106/106 33/33/33
f 44/44/44 135/135/135 126/126/126
f 43/43/43 101/101/101 107/107/107
f 34/34/34 156/156/156 104/104/104
f 57/57/57 104/104/104 156/156/156
f 121/121/121 80/80/80 5/5/5
f 63/63/63 121/121/121 111/111/111
f 121/121/121 28/28/28 80/80/80
f 77/77/77 118/118/118 14/14/14
f 10/10/10 93/93/93 48/48/48
f 103/103/103 34/34/34 80/80/80
f 131/131/131 79/79/79 29/29/29
f 140/140/140 145/145/145 134/134/134
f 49/49/49 10/10/10 157/157/157
f 124/124/124 27/27/27 79/79/79
f 139/139/139 33/33/33 108/108/108
f 107/107/107 33/33/33 43/43/43
f 133/133/133 79/79/79 27/27/27
f 145/145/145 148/148/148 134/134/134
f 139/139/139 43/43/43 33/33/33
f 11/11/11 155/155/155 158/158/158
f 57/57/57 163/163/163 105/105/105
f 140/140/140 28/28/28 110/110/110
f 51/51/51 106/106/106 107/107/107
f 127/127/127 132/132/132 154/154/154
f 97/97/97 56/56/56 36/36/36
f 86/86/86 46/46/46 142/142/142
f 112/112/112 42/42/42 31/31/31
f 40/40/40 46/46/46 86/86/86
f 74/74/74 139/139/139 108/108/108
f 100/100/100 43/43/43 139/139/139
f 137/137/137 31/31/31 47/47/47
f 114/114/114 47/47/47 31/31/31
f 88/88/88 40/40/40 86/86/86
f 16/16/16 100/100/100 139/139/139
f 102/102/102 35/35/35 100/100/100
f 68/68/68 142/142/142 102/102/102
f 88/88/88 99/99/99 56/56/56
f 142/142/142 35/35/35 102/102/102
f 53/53/53 105/105/105 54/54/54
f 147/147/147 122/122/122 81/81/81
f 19/19/19 86/86/86 142/142/142
f 88/88/88 56/56/56 40/40/40
f 144/144/144 40/40/40 56/56/56
f 96/96/96 149/149/149 144/144/144
f 106/106/106 51/51/51 138/138/138
f 87/87/87 46/46/46 40/40/40
f 81/81/81 153/153/153 147/147/147
f 87/87/87 155/155/155 46/46/46
f 144/144/144 56/56/56 97/97/97
f 60/60/60 81/81/81 122/122/122
f 64/64/64 91/91/91 89/89/89
f 87/87/87 40/40/40 162/162/162
f 67/67/67 88/88/88 86/86/86
f 7/7/7 99/99/99 88/88/88
f 7/7/7 70/70/70 99/99/99
f 67/67/67 7/7/7 88/88/88
f 19/19/19 67/67/67 86/86/86
f 68/68/68 19/19/19 142/142/142
f 73/73/73 102/102/102 100/100/100
f 4/4/4 68/68/68 102/102/102
f 73/73/73 4/4/4 102/102/102
f 16/16/16 73/73/73 100/100/100
f 74/74/74 16/16/16 139/139/139
f 8/8/8 74/74/74 108/108/108
f 39/39/39 89/89/89 91/91/91
f 116/116/116 22/22/22 109/109/109
f 116/116/116 42/42/42 30/30/30
f 149/149/149 162/162/162 144/144/144
f 61/61/61 123/123/123 124/124/124
f 106/106/106 148/148/148 52/52/52
f 162/162/162 158/158/158 87/87/87
f 128/128/128 71/71/71 8/8/8
f 90/90/90 130/130/130 157/157/157
f 32/32/32 51/51/51 107/107/107
f 146/146/146 159/159/159 22/22/22
f 130/130/130 143/143/143 147/147/147
f 103/103/103 138/138/138 51/51/51
f 25/25/25 152/152/152 159/159/159
f 155/155/155 101/101/101 46/46/46
f 154/154/154 132/132/132 145/145/145
f 84/84/84 114/114/114 12/12/12
f 101/101/101 155/155/155 11/11/11
f 114/114/114 84/84/84 47/47/47
f 146/146/146 22/22/22 136/136/136
f 154/154/154 13/13/13 127/127/127
f 90/90/90 157/157/157 10/10/10
f 143/143/143 130/130/130 39/39/39
f 140/140/140 161/161/161 154/154/154
f 109/109/109 159/159/159 152/152/152
f 116/116/116 30/30/30 22/22/22
f 87/87/87 158/158/158 155/155/155
f 161/161/161 61/61/61 154/154/154
f 160/160/160 149/149/149 156/156/156
f 61/61/61 161/161/161 110/110/110
f 161/161/161 140/140/140 110/110/110
f 158/158/158 162/162/162 160/160/160
f 162/162/162 149/149/149 160/160/160
f 96/96/96 163/163/163 156/156/156
f 163/163/163 57/57/57 156/156/156
f 80/80/80 164/164/164 103/103/103
f 164/164/164 138/138/138 103/103/103
f 24/24/24 96/96/96 97/97/97
f 144/144/144 97/97/97 96/96/96
