# frame 000298 
# time 0.149500 
# name Cloth3D 
v -0.000000 0.000000 -0.000000
v 1.000000 0.000000 -0.000000
v -0.000000 1.000000 0.000000
v 1.000000 1.000000 0.000000
v 0.499472 0.499827 0.069534
v -0.000000 0.500000 0.000000
v 0.500000 1.000000 0.000000
v 1.000000 0.500000 0.000000
v 0.500000 -0.000000 0.000000
v 0.248146 0.751350 0.043405
v 0.752788 0.753003 0.057355
v 0.248822 0.248848 0.036432
v 0.751822 0.247929 0.048279
v 0.750000 0.000000 0.000000
v 0.250000 0.000000 0.000000
v 1.000000 0.750000 0.000000
v 1.000000 0.250000 0.000000
v 0.250000 1.000000 0.000000
v 0.750000 1.000000 0.000000
v 0.000000 0.250000 0.000000
v 0.000000 0.750000 -0.000000
v 0.364113 0.217360 0.049843
v 0.630009 0.774019 0.058770
v 0.493861 0.757952 0.069718
v 0.374686 0.373161 0.069686
v 0.877335 0.374550 0.034367
v 0.625216 0.123309 0.032005
v 0.626357 0.372973 0.069534
v 0.876183 0.123774 0.021372
v 0.374278 0.122284 0.033234
v 0.124492 0.124484 0.014057
v 0.753279 0.689804 0.062405
v 0.877516 0.625606 0.036304
v 0.626486 0.626735 0.069534
v 0.876207 0.876300 0.021903
v 0.374339 0.877515 0.034907
v 0.258368 0.600430 0.061989
v 0.123966 0.875915 0.019154
v 0.121501 0.625468 0.036714
v 0.625169 0.876000 0.030652
v 0.123029 0.374758 0.029367
v 0.249447 0.123905 0.021910
v 0.877930 0.751525 0.035600
v 0.876552 0.249100 0.028457
v 0.249030 0.876831 0.028891
v 0.751143 0.877350 0.033256
v 0.123918 0.249626 0.021294
v 0.123111 0.750736 0.027970
v 0.302334 0.715697 0.055661
v 0.694043 0.507801 0.069607
v 0.753665 0.626492 0.065747
v 0.876658 0.500057 0.034992
v 0.372070 0.645054 0.069686
v 0.373214 0.753136 0.060903
v 0.000000 0.375000 0.000000
v 0.499893 0.877190 0.036282
v 0.499484 0.626897 0.069535
v 0.247530 0.374225 0.050787
v 0.121661 0.499942 0.037171
v 0.372450 0.499759 0.069535
v 0.625776 0.246698 0.059717
v 0.499738 0.122376 0.036316
v 0.499448 0.372781 0.069535
v 0.000000 0.625000 0.000000
v 0.000000 0.875000 0.000000
v 0.000000 0.125000 0.000000
v 0.625000 1.000000 0.000000
v 0.875000 1.000000 0.000000
v 0.125000 1.000000 0.000000
v 0.375000 1.000000 0.000000
v 1.000000 0.375000 0.000000
v 1.000000 0.125000 0.000000
v 1.000000 0.875000 0.000000
v 1.000000 0.625000 0.000000
v 0.375000 0.000000 0.000000
v 0.125000 0.000000 0.000000
v 0.875000 0.000000 0.000000
v 0.625000 0.000000 0.000000
v 0.750863 0.122869 0.030316
v 0.626708 0.499876 0.069535
v 0.341630 0.562925 0.069612
v 0.061374 0.312368 0.014532
v 0.183699 0.436915 0.050148
v 0.185704 0.311795 0.035906
v 0.060787 0.437457 0.018190
v 0.687729 0.937899 0.014745
v 0.688797 0.815602 0.049461
v 0.562497 0.938356 0.017151
v 0.062039 0.687633 0.013007
v 0.184560 0.688421 0.043951
v 0.061780 0.562532 0.015435
v 0.187062 0.938439 0.013613
v 0.185836 0.813922 0.032905
v 0.062233 0.937745 0.006119
v 0.435981 0.563251 0.069535
v 0.837985 0.423183 0.046876
v 0.436671 0.816422 0.054509
v 0.311074 0.814945 0.044329
v 0.437372 0.938302 0.016702
v 0.938059 0.812934 0.012797
v 0.815323 0.815444 0.043981
v 0.937951 0.937975 0.008149
v 0.712486 0.595925 0.069679
v 0.562996 0.563343 0.069535
v 0.419558 0.689031 0.069679
v 0.816739 0.562939 0.056951
v 0.815595 0.689137 0.049905
v 0.937550 0.562662 0.014559
v 0.309662 0.259465 0.047406
v 0.576342 0.290095 0.069679
v 0.435993 0.436331 0.069535
v 0.187211 0.061686 0.011891
v 0.062409 0.062410 0.003757
v 0.187072 0.187116 0.019459
v 0.312394 0.062261 0.010691
v 0.311462 0.185437 0.038049
v 0.437399 0.061755 0.015572
v 0.812854 0.061904 0.012044
v 0.937842 0.062150 0.006966
v 0.329399 0.422042 0.069679
v 0.562950 0.436375 0.069535
v 0.278263 0.477211 0.069679
v 0.562635 0.183008 0.055688
v 0.688672 0.184350 0.047724
v 0.562471 0.061544 0.016887
v 0.938190 0.312250 0.014715
v 0.815494 0.311086 0.047844
v 0.937510 0.437497 0.013854
v 0.312161 0.939001 0.017687
v 0.183668 0.625640 0.049491
v 0.814209 0.185577 0.036077
v 0.803916 0.371545 0.052018
v 0.687640 0.062077 0.013705
v 0.690277 0.436571 0.069535
v 0.938502 0.187043 0.014348
v 0.436487 0.183091 0.054239
v 0.061868 0.187270 0.010713
v 0.776164 0.527220 0.069679
v 0.938618 0.687932 0.017495
v 0.666768 0.373906 0.069679
v 0.061420 0.812865 0.013855
v 0.812903 0.938253 0.013399
v 0.182793 0.562797 0.055207
v 0.777183 0.418521 0.062050
v 0.712690 0.416345 0.069686
v 0.509286 0.227442 0.069692
v 0.237469 0.520684 0.069692
v 0.802532 0.499316 0.069692
v 0.530684 0.792531 0.069692
v 0.663442 0.648841 0.069679
v 0.580578 0.834365 0.049808
v 0.294824 0.330677 0.053784
v 0.326968 0.603355 0.069689
v 0.715182 0.298793 0.056367
v 0.752112 0.815748 0.048133
v 0.581823 0.675003 0.069607
v 0.278997 0.657895 0.056203
v 0.690680 0.760708 0.058665
v 0.417809 0.326515 0.069689
v 0.620553 0.695232 0.069686
v 0.647290 0.308727 0.061373
v 0.362488 0.291890 0.058125
v 0.461172 0.279554 0.069691
v 0.577780 0.741538 0.069689
vt 0.000000 0.000000
vt 1.000000 0.000000
vt 0.000000 1.000000
vt 1.000000 1.000000
vt 0.500000 0.500000
vt 0.000000 0.500000
vt 0.500000 1.000000
vt 1.000000 0.500000
vt 0.500000 0.000000
vt 0.250000 0.750000
vt 0.750000 0.750000
vt 0.250000 0.250000
vt 0.750000 0.250000
vt 0.750000 0.000000
vt 0.250000 0.000000
vt 1.000000 0.750000
vt 1.000000 0.250000
vt 0.250000 1.000000
vt 0.750000 1.000000
vt 0.000000 0.250000
vt 0.000000 0.750000
vt 0.365347 0.220303
vt 0.629073 0.770824
vt 0.494301 0.753348
vt 0.376938 0.375174
vt 0.875000 0.375000
vt 0.625000 0.125000
vt 0.625000 0.375000
vt 0.875000 0.125000
vt 0.375000 0.125000
vt 0.125000 0.125000
vt 0.750000 0.687500
vt 0.875000 0.625000
vt 0.625000 0.625000
vt 0.875000 0.875000
vt 0.375000 0.875000
vt 0.262101 0.599801
vt 0.125000 0.875000
vt 0.125000 0.625000
vt 0.625000 0.875000
vt 0.125000 0.375000
vt 0.250000 0.125000
vt 0.875000 0.750000
vt 0.875000 0.250000
vt 0.250000 0.875000
vt 0.750000 0.875000
vt 0.125000 0.250000
vt 0.125000 0.750000
vt 0.304602 0.713891
vt 0.690882 0.507820
vt 0.750000 0.625000
vt 0.875000 0.500000
vt 0.374299 0.643232
vt 0.375000 0.750000
vt 0.000000 0.375000
vt 0.500000 0.875000
vt 0.500000 0.625000
vt 0.250000 0.375000
vt 0.125000 0.500000
vt 0.375000 0.500000
vt 0.625000 0.250000
vt 0.500000 0.125000
vt 0.500000 0.375000
vt 0.000000 0.625000
vt 0.000000 0.875000
vt 0.000000 0.125000
vt 0.625000 1.000000
vt 0.875000 1.000000
vt 0.125000 1.000000
vt 0.375000 1.000000
vt 1.000000 0.375000
vt 1.000000 0.125000
vt 1.000000 0.875000
vt 1.000000 0.625000
vt 0.375000 0.000000
vt 0.125000 0.000000
vt 0.875000 0.000000
vt 0.625000 0.000000
vt 0.750000 0.125000
vt 0.625000 0.500000
vt 0.344661 0.562348
vt 0.062500 0.312500
vt 0.187500 0.437500
vt 0.187500 0.312500
vt 0.062500 0.437500
vt 0.687500 0.937500
vt 0.687500 0.812500
vt 0.562500 0.937500
vt 0.062500 0.687500
vt 0.187500 0.687500
vt 0.062500 0.562500
vt 0.187500 0.937500
vt 0.187500 0.812500
vt 0.062500 0.937500
vt 0.437500 0.562500
vt 0.834853 0.423541
vt 0.437500 0.812500
vt 0.312500 0.812500
vt 0.437500 0.937500
vt 0.937500 0.812500
vt 0.812500 0.812500
vt 0.937500 0.937500
vt 0.709246 0.594804
vt 0.562500 0.562500
vt 0.421066 0.686262
vt 0.812500 0.562500
vt 0.812500 0.687500
vt 0.937500 0.562500
vt 0.311128 0.261404
vt 0.575924 0.293655
vt 0.437500 0.437500
vt 0.187500 0.062500
vt 0.062500 0.062500
vt 0.187500 0.187500
vt 0.312500 0.062500
vt 0.312500 0.187500
vt 0.437500 0.062500
vt 0.812500 0.062500
vt 0.937500 0.062500
vt 0.332466 0.423310
vt 0.562500 0.437500
vt 0.282462 0.477776
vt 0.562500 0.187500
vt 0.687500 0.187500
vt 0.562500 0.062500
vt 0.937500 0.312500
vt 0.812500 0.312500
vt 0.937500 0.437500
vt 0.312500 0.937500
vt 0.187500 0.625000
vt 0.812500 0.187500
vt 0.800716 0.372483
vt 0.687500 0.062500
vt 0.687500 0.437500
vt 0.937500 0.187500
vt 0.437500 0.187500
vt 0.062500 0.187500
vt 0.770857 0.527056
vt 0.937500 0.687500
vt 0.664742 0.375775
vt 0.062500 0.812500
vt 0.812500 0.937500
vt 0.187500 0.562500
vt 0.773244 0.419416
vt 0.709606 0.417539
vt 0.509688 0.232695
vt 0.242780 0.520786
vt 0.796009 0.499437
vt 0.530444 0.786673
vt 0.661368 0.646868
vt 0.580205 0.830830
vt 0.296906 0.332149
vt 0.330029 0.602254
vt 0.713437 0.300753
vt 0.750000 0.812500
vt 0.581168 0.672349
vt 0.281585 0.657008
vt 0.688844 0.757642
vt 0.419403 0.329398
vt 0.619312 0.692426
vt 0.646352 0.310977
vt 0.364019 0.294291
vt 0.462191 0.283478
vt 0.577197 0.737526
vn -0.028915 -0.028915 0.999164
vn 0.055358 -0.055358 0.996931
vn -0.048232 0.048232 0.997671
vn 0.065866 0.065866 0.995652
vn 0.000000 0.000000 1.000000
vn -0.266137 0.011006 0.963872
vn -0.001103 0.267242 0.963629
vn 0.221823 -0.003144 0.975082
vn -0.005296 -0.258323 0.966044
vn -0.115791 0.097116 0.988515
vn 0.081524 0.100689 0.991572
vn -0.149404 -0.125974 0.980719
vn 0.092988 -0.094857 0.991138
vn 0.006148 -0.203133 0.979132
vn 0.004418 -0.179566 0.983736
vn 0.237806 0.019384 0.971119
vn 0.230044 -0.001562 0.973179
vn -0.016561 0.247823 0.968664
vn 0.005133 0.221697 0.975102
vn -0.200181 -0.015225 0.979641
vn -0.212673 -0.003080 0.977118
vn -0.131557 -0.140826 0.981255
vn 0.064014 0.177316 0.982070
vn -0.055127 0.068296 0.996141
vn -0.071451 -0.065310 0.995304
vn 0.275115 -0.021655 0.961168
vn 0.035413 -0.283849 0.958215
vn -0.002246 0.002536 0.999994
vn 0.113176 -0.123231 0.985903
vn -0.075653 -0.247647 0.965892
vn -0.075761 -0.067417 0.994844
vn 0.129776 0.072309 0.988903
vn 0.293087 0.006575 0.956063
vn -0.001439 -0.001720 0.999997
vn 0.140663 0.139264 0.980214
vn -0.033680 0.251390 0.967300
vn -0.122689 0.130764 0.983793
vn -0.108026 0.107277 0.988343
vn -0.262332 0.055361 0.963388
vn 0.055136 0.274781 0.959925
vn -0.207291 -0.068401 0.975885
vn -0.073652 -0.135872 0.987985
vn 0.247790 0.052541 0.967388
vn 0.214711 -0.051058 0.975342
vn -0.063457 0.178437 0.981903
vn 0.033280 0.257986 0.965575
vn -0.116891 -0.071212 0.990588
vn -0.194633 0.056405 0.979253
vn -0.144497 0.091383 0.985276
vn -0.000851 -0.000829 0.999999
vn 0.109166 0.056807 0.992399
vn 0.360548 -0.008255 0.932704
vn -0.058550 0.052148 0.996921
vn -0.099636 0.122403 0.987467
vn -0.258626 -0.014934 0.965862
vn -0.008834 0.317986 0.948054
vn 0.000185 -0.000744 1.000000
vn -0.145778 -0.112110 0.982945
vn -0.278904 -0.020182 0.960107
vn 0.000982 0.000099 1.000000
vn 0.094975 -0.096375 0.990803
vn -0.003366 -0.302855 0.953031
vn 0.000428 0.000884 1.000000
vn -0.225957 0.009913 0.974087
vn -0.158102 0.031074 0.986934
vn -0.114343 -0.028355 0.993037
vn 0.009844 0.250535 0.968058
vn 0.020469 0.171915 0.984899
vn -0.030299 0.156543 0.987206
vn 0.003734 0.272234 0.962224
vn 0.224377 0.004470 0.974492
vn 0.169413 -0.029674 0.985098
vn 0.165969 0.017493 0.985976
vn 0.251210 -0.012202 0.967856
vn -0.019885 -0.209800 0.977542
vn -0.032952 -0.123490 0.991799
vn 0.020451 -0.151124 0.988303
vn 0.013868 -0.241854 0.970214
vn 0.047418 -0.227630 0.972592
vn -0.000485 -0.000308 1.000000
vn 0.001188 -0.001035 0.999999
vn -0.199469 -0.031647 0.979393
vn -0.202832 -0.093653 0.974725
vn -0.146855 -0.107092 0.983344
vn -0.261793 -0.017762 0.964961
vn 0.002968 0.251575 0.967833
vn 0.010132 0.203032 0.979120
vn 0.015826 0.276314 0.960937
vn -0.254893 0.021034 0.966740
vn -0.139499 0.091652 0.985972
vn -0.290330 0.011380 0.956859
vn -0.043012 0.189688 0.980902
vn -0.108479 0.102046 0.988847
vn -0.077379 0.077749 0.993966
vn 0.000475 -0.000530 1.000000
vn 0.278827 -0.065797 0.958085
vn -0.066305 0.234759 0.969790
vn -0.094137 0.155880 0.983280
vn -0.001084 0.278535 0.960426
vn 0.225377 0.044897 0.973237
vn 0.128891 0.155780 0.979347
vn 0.087322 0.085840 0.992475
vn 0.032549 0.030195 0.999014
vn 0.000000 -0.000175 1.000000
vn -0.042699 0.046174 0.998020
vn 0.268040 0.077946 0.960249
vn 0.199648 0.053276 0.978418
vn 0.279913 -0.011373 0.959958
vn -0.146182 -0.120586 0.981881
vn 0.078927 -0.073336 0.994179
vn 0.000647 0.000649 1.000000
vn -0.030175 -0.141812 0.989434
vn -0.058610 -0.056297 0.996692
vn -0.088732 -0.079900 0.992846
vn -0.030389 -0.217425 0.975604
vn -0.129882 -0.144136 0.980997
vn -0.019058 -0.273590 0.961657
vn 0.030836 -0.204179 0.978448
vn 0.080576 -0.085261 0.993095
vn -0.071538 -0.061926 0.995514
vn 0.000000 -0.000000 1.000000
vn -0.071165 -0.066717 0.995231
vn 0.055641 -0.243000 0.968429
vn 0.066646 -0.177302 0.981897
vn 0.013379 -0.268529 0.963179
vn 0.247661 -0.010837 0.968786
vn 0.170471 -0.061095 0.983467
vn 0.271328 0.000211 0.962487
vn -0.018628 0.250816 0.967856
vn -0.164061 0.095702 0.981797
vn 0.122668 -0.112159 0.986090
vn 0.197331 -0.062550 0.978339
vn 0.013450 -0.244701 0.969505
vn -0.002579 0.002350 0.999994
vn 0.196814 -0.029588 0.979994
vn -0.087010 -0.214549 0.972830
vn -0.138892 -0.036276 0.989643
vn 0.107848 0.083340 0.990668
vn 0.282359 0.005797 0.959291
vn 0.034404 -0.049298 0.998191
vn -0.186352 0.031646 0.981973
vn 0.034726 0.218477 0.975224
vn -0.205120 0.055105 0.977184
vn 0.183617 -0.116660 0.976051
vn 0.032524 -0.032956 0.998927
vn -0.005760 -0.150547 0.988586
vn -0.140295 0.001772 0.990108
vn 0.216356 0.033183 0.975751
vn 0.030201 0.167331 0.985438
vn 0.019016 0.021478 0.999588
vn 0.109043 0.282847 0.952947
vn -0.144956 -0.114298 0.982814
vn -0.055058 0.062534 0.996523
vn 0.085480 -0.098063 0.991502
vn 0.046392 0.189420 0.980800
vn -0.000655 -0.001525 0.999999
vn -0.123966 0.111257 0.986030
vn 0.037573 0.133094 0.990391
vn -0.075055 -0.068944 0.994793
vn 0.030093 0.034196 0.998962
vn 0.100184 -0.108555 0.989029
vn -0.131308 -0.116373 0.984487
vn -0.067344 -0.062615 0.995763
vn 0.073020 0.087001 0.993528
f 1/1/1 113/113/113 66/66/66
f 31/31/31 137/137/137 113/113/113
f 132/132/132 127/127/127 26/26/26
f 112/112/112 31/31/31 113/113/113
f 135/135/135 44/44/44 29/29/29
f 106/106/106 52/52/52 33/33/33
f 24/24/24 57/57/57 156/156/156
f 84/84/84 41/41/41 47/47/47
f 137/137/137 66/66/66 113/113/113
f 75/75/75 115/115/115 15/15/15
f 12/12/12 152/152/152 84/84/84
f 61/61/61 110/110/110 123/123/123
f 25/25/25 120/120/120 152/152/152
f 76/76/76 113/113/113 1/1/1
f 76/76/76 112/112/112 113/113/113
f 15/15/15 112/112/112 76/76/76
f 115/115/115 112/112/112 15/15/15
f 30/30/30 115/115/115 117/117/117
f 108/108/108 33/33/33 52/52/52
f 75/75/75 117/117/117 115/115/115
f 115/115/115 30/30/30 42/42/42
f 145/145/145 140/140/140 154/154/154
f 51/51/51 150/150/150 103/103/103
f 136/136/136 22/22/22 30/30/30
f 107/107/107 43/43/43 11/11/11
f 54/54/54 98/98/98 49/49/49
f 42/42/42 112/112/112 115/115/115
f 58/58/58 84/84/84 152/152/152
f 110/110/110 163/163/163 146/146/146
f 60/60/60 120/120/120 111/111/111
f 136/136/136 62/62/62 146/146/146
f 159/159/159 63/63/63 111/111/111
f 147/147/147 83/83/83 122/122/122
f 104/104/104 80/80/80 34/34/34
f 10/10/10 49/49/49 98/98/98
f 160/160/160 164/164/164 156/156/156
f 49/49/49 53/53/53 54/54/54
f 117/117/117 62/62/62 30/30/30
f 95/95/95 57/57/57 105/105/105
f 131/131/131 29/29/29 44/44/44
f 77/77/77 2/2/2 119/119/119
f 77/77/77 119/119/119 118/118/118
f 71/71/71 128/128/128 126/126/126
f 58/58/58 152/152/152 120/120/120
f 63/63/63 28/28/28 121/121/121
f 119/119/119 29/29/29 118/118/118
f 57/57/57 24/24/24 105/105/105
f 125/125/125 27/27/27 62/62/62
f 135/135/135 72/72/72 17/17/17
f 136/136/136 30/30/30 62/62/62
f 138/138/138 148/148/148 106/106/106
f 60/60/60 122/122/122 120/120/120
f 153/153/153 53/53/53 157/157/157
f 11/11/11 32/32/32 107/107/107
f 12/12/12 114/114/114 116/116/116
f 150/150/150 160/160/160 34/34/34
f 32/32/32 158/158/158 150/150/150
f 110/110/110 146/146/146 123/123/123
f 40/40/40 151/151/151 23/23/23
f 44/44/44 127/127/127 131/131/131
f 82/82/82 47/47/47 41/41/41
f 45/45/45 98/98/98 36/36/36
f 82/82/82 137/137/137 47/47/47
f 63/63/63 163/163/163 110/110/110
f 26/26/26 126/126/126 128/128/128
f 62/62/62 117/117/117 125/125/125
f 20/20/20 137/137/137 82/82/82
f 38/38/38 92/92/92 94/94/94
f 20/20/20 66/66/66 137/137/137
f 55/55/55 20/20/20 82/82/82
f 69/69/69 94/94/94 92/92/92
f 43/43/43 100/100/100 101/101/101
f 8/8/8 108/108/108 128/128/128
f 141/141/141 48/48/48 38/38/38
f 50/50/50 80/80/80 134/134/134
f 65/65/65 141/141/141 94/94/94
f 114/114/114 31/31/31 42/42/42
f 38/38/38 94/94/94 141/141/141
f 92/92/92 18/18/18 69/69/69
f 24/24/24 149/149/149 97/97/97
f 159/159/159 25/25/25 162/162/162
f 46/46/46 35/35/35 142/142/142
f 29/29/29 119/119/119 135/135/135
f 23/23/23 151/151/151 164/164/164
f 158/158/158 23/23/23 160/160/160
f 35/35/35 46/46/46 101/101/101
f 129/129/129 45/45/45 36/36/36
f 27/27/27 124/124/124 123/123/123
f 85/85/85 41/41/41 59/59/59
f 78/78/78 125/125/125 9/9/9
f 70/70/70 129/129/129 99/99/99
f 83/83/83 59/59/59 41/41/41
f 129/129/129 70/70/70 18/18/18
f 36/36/36 99/99/99 129/129/129
f 93/93/93 38/38/38 48/48/48
f 38/38/38 45/45/45 92/92/92
f 52/52/52 128/128/128 108/108/108
f 65/65/65 94/94/94 3/3/3
f 72/72/72 135/135/135 119/119/119
f 94/94/94 69/69/69 3/3/3
f 39/39/39 90/90/90 48/48/48
f 21/21/21 141/141/141 65/65/65
f 18/18/18 92/92/92 129/129/129
f 6/6/6 91/91/91 64/64/64
f 153/153/153 81/81/81 53/53/53
f 93/93/93 45/45/45 38/38/38
f 89/89/89 39/39/39 48/48/48
f 13/13/13 124/124/124 131/131/131
f 45/45/45 129/129/129 92/92/92
f 9/9/9 125/125/125 117/117/117
f 64/64/64 89/89/89 21/21/21
f 55/55/55 82/82/82 85/85/85
f 6/6/6 85/85/85 91/91/91
f 59/59/59 91/91/91 85/85/85
f 41/41/41 85/85/85 82/82/82
f 6/6/6 55/55/55 85/85/85
f 59/59/59 83/83/83 143/143/143
f 59/59/59 39/39/39 91/91/91
f 149/149/149 151/151/151 56/56/56
f 143/143/143 39/39/39 59/59/59
f 118/118/118 29/29/29 79/79/79
f 22/22/22 163/163/163 162/162/162
f 134/134/134 148/148/148 138/138/138
f 58/58/58 83/83/83 84/84/84
f 119/119/119 2/2/2 72/72/72
f 49/49/49 157/157/157 53/53/53
f 11/11/11 158/158/158 32/32/32
f 152/152/152 162/162/162 25/25/25
f 10/10/10 98/98/98 93/93/93
f 21/21/21 89/89/89 141/141/141
f 97/97/97 54/54/54 24/24/24
f 51/51/51 32/32/32 150/150/150
f 79/79/79 133/133/133 118/118/118
f 118/118/118 133/133/133 14/14/14
f 79/79/79 131/131/131 124/124/124
f 147/147/147 143/143/143 83/83/83
f 149/149/149 164/164/164 151/151/151
f 48/48/48 141/141/141 89/89/89
f 78/78/78 133/133/133 125/125/125
f 62/62/62 27/27/27 123/123/123
f 147/147/147 37/37/37 143/143/143
f 148/148/148 96/96/96 52/52/52
f 60/60/60 95/95/95 81/81/81
f 156/156/156 34/34/34 160/160/160
f 5/5/5 95/95/95 111/111/111
f 10/10/10 93/93/93 90/90/90
f 130/130/130 143/143/143 37/37/37
f 157/157/157 37/37/37 153/153/153
f 27/27/27 125/125/125 133/133/133
f 121/121/121 5/5/5 111/111/111
f 160/160/160 150/150/150 158/158/158
f 122/122/122 58/58/58 120/120/120
f 17/17/17 126/126/126 135/135/135
f 41/41/41 84/84/84 83/83/83
f 123/123/123 146/146/146 62/62/62
f 60/60/60 111/111/111 95/95/95
f 28/28/28 134/134/134 80/80/80
f 104/104/104 95/95/95 5/5/5
f 28/28/28 140/140/140 134/134/134
f 26/26/26 128/128/128 96/96/96
f 57/57/57 95/95/95 104/104/104
f 138/138/138 50/50/50 134/134/134
f 127/127/127 44/44/44 26/26/26
f 126/126/126 26/26/26 44/44/44
f 45/45/45 93/93/93 98/98/98
f 110/110/110 28/28/28 63/63/63
f 156/156/156 164/164/164 24/24/24
f 9/9/9 117/117/117 75/75/75
f 48/48/48 90/90/90 93/93/93
f 54/54/54 97/97/97 98/98/98
f 130/130/130 90/90/90 39/39/39
f 114/114/114 42/42/42 116/116/116
f 99/99/99 36/36/36 56/56/56
f 80/80/80 104/104/104 5/5/5
f 95/95/95 53/53/53 81/81/81
f 126/126/126 17/17/17 71/71/71
f 109/109/109 12/12/12 116/116/116
f 25/25/25 159/159/159 111/111/111
f 52/52/52 96/96/96 128/128/128
f 103/103/103 150/150/150 34/34/34
f 36/36/36 98/98/98 97/97/97
f 37/37/37 157/157/157 130/130/130
f 105/105/105 53/53/53 95/95/95
f 58/58/58 122/122/122 83/83/83
f 26/26/26 96/96/96 132/132/132
f 50/50/50 138/138/138 103/103/103
f 120/120/120 25/25/25 111/111/111
f 12/12/12 109/109/109 152/152/152
f 14/14/14 133/133/133 78/78/78
f 13/13/13 131/131/131 127/127/127
f 107/107/107 106/106/106 33/33/33
f 44/44/44 135/135/135 126/126/126
f 149/149/149 24/24/24 164/164/164
f 34/34/34 156/156/156 104/104/104
f 57/57/57 104/104/104 156/156/156
f 121/121/121 80/80/80 5/5/5
f 63/63/63 121/121/121 111/111/111
f 121/121/121 28/28/28 80/80/80
f 77/77/77 118/118/118 14/14/14
f 101/101/101 11/11/11 43/43/43
f 103/103/103 34/34/34 80/80/80
f 131/131/131 79/79/79 29/29/29
f 140/140/140 145/145/145 134/134/134
f 49/49/49 10/10/10 157/157/157
f 124/124/124 27/27/27 79/79/79
f 139/139/139 33/33/33 108/108/108
f 107/107/107 33/33/33 43/43/43
f 133/133/133 79/79/79 27/27/27
f 145/145/145 148/148/148 134/134/134
f 139/139/139 43/43/43 33/33/33
f 11/11/11 155/155/155 158/158/158
f 80/80/80 50/50/50 103/103/103
f 140/140/140 28/28/28 110/110/110
f 51/51/51 106/106/106 107/107/107
f 127/127/127 132/132/132 154/154/154
f 97/97/97 56/56/56 36/36/36
f 86/86/86 46/46/46 142/142/142
f 112/112/112 42/42/42 31/31/31
f 40/40/40 46/46/46 86/86/86
f 74/74/74 139/139/139 108/108/108
f 100/100/100 43/43/43 139/139/139
f 137/137/137 31/31/31 47/47/47
f 114/114/114 47/47/47 31/31/31
f 88/88/88 40/40/40 86/86/86
f 16/16/16 100/100/100 139/139/139
f 102/102/102 35/35/35 100/100/100
f 68/68/68 142/142/142 102/102/102
f 88/88/88 99/99/99 56/56/56
f 142/142/142 35/35/35 102/102/102
f 53/53/53 105/105/105 54/54/54
f 147/147/147 122/122/122 81/81/81
f 19/19/19 86/86/86 142/142/142
f 56/56/56 151/151/151 88/88/88
f 145/145/145 144/144/144 148/148/148
f 105/105/105 24/24/24 54/54/54
f 106/106/106 51/51/51 138/138/138
f 87/87/87 46/46/46 40/40/40
f 81/81/81 153/153/153 147/147/147
f 87/87/87 155/155/155 46/46/46
f 35/35/35 101/101/101 100/100/100
f 60/60/60 81/81/81 122/122/122
f 64/64/64 91/91/91 89/89/89
f 87/87/87 40/40/40 23/23/23
f 67/67/67 88/88/88 86/86/86
f 7/7/7 99/99/99 88/88/88
f 7/7/7 70/70/70 99/99/99
f 67/67/67 7/7/7 88/88/88
f 19/19/19 67/67/67 86/86/86
f 68/68/68 19/19/19 142/142/142
f 73/73/73 102/102/102 100/100/100
f 4/4/4 68/68/68 102/102/102
f 73/73/73 4/4/4 102/102/102
f 16/16/16 73/73/73 100/100/100
f 74/74/74 16/16/16 139/139/139
f 8/8/8 74/74/74 108/108/108
f 39/39/39 89/89/89 91/91/91
f 116/116/116 22/22/22 109/109/109
f 116/116/116 42/42/42 30/30/30
f 144/144/144 145/145/145 132/132/132
f 61/61/61 123/123/123 124/124/124
f 106/106/106 148/148/148 52/52/52
f 23/23/23 158/158/158 87/87/87
f 128/128/128 71/71/71 8/8/8
f 90/90/90 130/130/130 157/157/157
f 32/32/32 51/51/51 107/107/107
f 144/144/144 96/96/96 148/148/148
f 37/37/37 147/147/147 153/153/153
f 103/103/103 138/138/138 51/51/51
f 163/163/163 22/22/22 136/136/136
f 155/155/155 101/101/101 46/46/46
f 154/154/154 132/132/132 145/145/145
f 84/84/84 114/114/114 12/12/12
f 101/101/101 155/155/155 11/11/11
f 114/114/114 84/84/84 47/47/47
f 97/97/97 149/149/149 56/56/56
f 154/154/154 13/13/13 127/127/127
f 90/90/90 157/157/157 10/10/10
f 143/143/143 130/130/130 39/39/39
f 140/140/140 161/161/161 154/154/154
f 164/164/164 160/160/160 23/23/23
f 116/116/116 30/30/30 22/22/22
f 87/87/87 158/158/158 155/155/155
f 161/161/161 61/61/61 154/154/154
f 159/159/159 162/162/162 163/163/163
f 61/61/61 161/161/161 110/110/110
f 161/161/161 140/140/140 110/110/110
f 109/109/109 162/162/162 152/152/152
f 162/162/162 109/109/109 22/22/22
f 96/96/96 144/144/144 132/132/132
f 146/146/146 163/163/163 136/136/136
f 40/40/40 88/88/88 151/151/151
f 159/159/159 163/163/163 63/63/63
f 124/124/124 13/13/13 61/61/61
f 154/154/154 61/61/61 13/13/13
