# frame 000233 
# time 0.117000 
# name Cloth3D 
v -0.000000 0.000000 -0.000000
v 1.000000 0.000000 -0.000000
v -0.000000 1.000000 0.000000
v 1.000000 1.000000 0.000000
v 0.500335 0.499869 0.053284
v -0.000000 0.500000 0.000000
v 0.500000 1.000000 0.000000
v 1.000000 0.500000 0.000000
v 0.500000 -0.000000 0.000000
v 0.251082 0.749016 0.015546
v 0.749590 0.750142 0.021975
v 0.252153 0.251201 0.008885
v 0.749688 0.251217 0.016949
v 0.750000 0.000000 0.000000
v 0.250000 0.000000 0.000000
v 1.000000 0.750000 0.000000
v 1.000000 0.250000 0.000000
v 0.250000 1.000000 0.000000
v 0.750000 1.000000 0.000000
v 0.000000 0.250000 0.000000
v 0.000000 0.750000 -0.000000
v 0.368253 0.220786 0.018927
v 0.248524 0.500477 0.044670
v 0.501228 0.751882 0.047487
v 0.372476 0.371127 0.053436
v 0.877009 0.375395 0.025834
v 0.624681 0.124603 0.018128
v 0.626518 0.373531 0.053284
v 0.874667 0.125581 0.001701
v 0.375533 0.124589 0.017588
v 0.125799 0.125643 -0.007666
v 0.750722 0.687865 0.032013
v 0.877103 0.625434 0.028245
v 0.626750 0.626318 0.053284
v 0.874708 0.874983 0.005521
v 0.375579 0.875490 0.019239
v 0.374173 0.626344 0.053284
v 0.125642 0.874472 -0.003429
v 0.124136 0.625222 0.022652
v 0.625426 0.877767 0.031204
v 0.126101 0.376110 0.006290
v 0.251193 0.125727 0.002587
v 0.875011 0.750072 0.012885
v 0.875271 0.250429 0.013834
v 0.250790 0.874451 0.006693
v 0.749744 0.875722 0.015463
v 0.126279 0.250979 -0.000725
v 0.125645 0.749271 0.005054
v 0.305220 0.713485 0.028755
v 0.278007 0.435209 0.041537
v 0.751361 0.625020 0.038146
v 0.879471 0.500177 0.040393
v 0.369590 0.649897 0.053436
v 0.376246 0.749854 0.029744
v 0.000000 0.375000 0.000000
v 0.500150 0.877990 0.034658
v 0.500521 0.626371 0.053285
v 0.251671 0.376676 0.020384
v 0.124045 0.500165 0.023474
v 0.373907 0.499945 0.053285
v 0.624204 0.250352 0.029323
v 0.499975 0.122735 0.030763
v 0.500037 0.373398 0.053285
v 0.000000 0.625000 0.000000
v 0.000000 0.875000 0.000000
v 0.000000 0.125000 0.000000
v 0.625000 1.000000 0.000000
v 0.875000 1.000000 0.000000
v 0.125000 1.000000 0.000000
v 0.375000 1.000000 0.000000
v 1.000000 0.375000 0.000000
v 1.000000 0.125000 0.000000
v 1.000000 0.875000 0.000000
v 1.000000 0.625000 0.000000
v 0.375000 0.000000 0.000000
v 0.125000 0.000000 0.000000
v 0.875000 0.000000 0.000000
v 0.625000 0.000000 0.000000
v 0.749366 0.125654 0.005745
v 0.626801 0.499877 0.053285
v 0.343231 0.563053 0.053362
v 0.063151 0.312983 0.002080
v 0.187707 0.438397 0.023500
v 0.189391 0.313945 0.006625
v 0.062499 0.437756 0.008286
v 0.687758 0.939435 0.017464
v 0.686930 0.813564 0.024863
v 0.562613 0.940435 0.022166
v 0.062265 0.687506 0.009292
v 0.187854 0.686791 0.018193
v 0.062248 0.562599 0.010686
v 0.187812 0.937170 0.001805
v 0.188294 0.811793 0.006383
v 0.062649 0.937370 -0.004639
v 0.437246 0.563118 0.053285
v 0.524016 0.752141 0.053429
v 0.438581 0.813570 0.031375
v 0.313859 0.811818 0.014311
v 0.437624 0.938908 0.016315
v 0.937514 0.812556 0.006333
v 0.811766 0.812429 0.008429
v 0.937379 0.937419 0.000242
v 0.705949 0.590827 0.053429
v 0.563620 0.563101 0.053285
v 0.423184 0.685360 0.053429
v 0.815073 0.562166 0.037452
v 0.813064 0.687455 0.023590
v 0.940446 0.562803 0.022179
v 0.313748 0.262530 0.015153
v 0.567945 0.302271 0.053429
v 0.436991 0.436626 0.053285
v 0.188015 0.062933 -0.002657
v 0.062599 0.062578 -0.006923
v 0.189063 0.188574 -0.001244
v 0.312720 0.062393 0.008321
v 0.314793 0.188345 0.009500
v 0.437604 0.061453 0.014287
v 0.812337 0.062819 0.004145
v 0.937341 0.062701 -0.003024
v 0.335934 0.426325 0.053429
v 0.563424 0.436662 0.053285
v 0.294667 0.488633 0.053429
v 0.562357 0.186223 0.033578
v 0.686525 0.188443 0.013375
v 0.562521 0.061063 0.016431
v 0.938664 0.312494 0.014119
v 0.813053 0.313880 0.019962
v 0.940818 0.437501 0.023076
v 0.312789 0.937576 0.007999
v 0.186845 0.624871 0.028878
v 0.812005 0.188669 0.005386
v 0.802023 0.374153 0.028869
v 0.687520 0.062085 0.011650
v 0.690001 0.436709 0.053284
v 0.937346 0.187857 0.002758
v 0.436855 0.185060 0.039536
v 0.063009 0.187988 -0.004339
v 0.757147 0.513524 0.053429
v 0.938161 0.687648 0.011584
v 0.670090 0.369921 0.053429
v 0.062904 0.812196 -0.000145
v 0.812504 0.937859 0.008112
v 0.185699 0.562917 0.037482
v 0.563398 0.815934 0.046926
v 0.721990 0.404184 0.053436
v 0.463713 0.232898 0.053442
v 0.242914 0.566260 0.053442
v 0.797087 0.453739 0.053442
v 0.576260 0.787086 0.053442
v 0.666406 0.650536 0.053429
v 0.512337 0.265443 0.053429
v 0.299134 0.333555 0.022047
v 0.318591 0.616211 0.053439
v 0.713722 0.301399 0.029775
v 0.749537 0.812973 0.017856
v 0.582471 0.674339 0.053357
v 0.281696 0.656378 0.034543
v 0.689021 0.758859 0.033398
v 0.407288 0.318417 0.053439
v 0.631765 0.702983 0.053436
vt 0.000000 0.000000
vt 1.000000 0.000000
vt 0.000000 1.000000
vt 1.000000 1.000000
vt 0.500000 0.500000
vt 0.000000 0.500000
vt 0.500000 1.000000
vt 1.000000 0.500000
vt 0.500000 0.000000
vt 0.250000 0.750000
vt 0.750000 0.750000
vt 0.250000 0.250000
vt 0.750000 0.250000
vt 0.750000 0.000000
vt 0.250000 0.000000
vt 1.000000 0.750000
vt 1.000000 0.250000
vt 0.250000 1.000000
vt 0.750000 1.000000
vt 0.000000 0.250000
vt 0.000000 0.750000
vt 0.365347 0.220303
vt 0.250000 0.500000
vt 0.500000 0.750000
vt 0.373928 0.372731
vt 0.875000 0.375000
vt 0.625000 0.125000
vt 0.625000 0.375000
vt 0.875000 0.125000
vt 0.375000 0.125000
vt 0.125000 0.125000
vt 0.750000 0.687500
vt 0.875000 0.625000
vt 0.625000 0.625000
vt 0.875000 0.875000
vt 0.375000 0.875000
vt 0.375000 0.625000
vt 0.125000 0.875000
vt 0.125000 0.625000
vt 0.625000 0.875000
vt 0.125000 0.375000
vt 0.250000 0.125000
vt 0.875000 0.750000
vt 0.875000 0.250000
vt 0.250000 0.875000
vt 0.750000 0.875000
vt 0.125000 0.250000
vt 0.125000 0.750000
vt 0.304602 0.713891
vt 0.278861 0.435152
vt 0.750000 0.625000
vt 0.875000 0.500000
vt 0.370391 0.648293
vt 0.375000 0.750000
vt 0.000000 0.375000
vt 0.500000 0.875000
vt 0.500000 0.625000
vt 0.250000 0.375000
vt 0.125000 0.500000
vt 0.375000 0.500000
vt 0.625000 0.250000
vt 0.500000 0.125000
vt 0.500000 0.375000
vt 0.000000 0.625000
vt 0.000000 0.875000
vt 0.000000 0.125000
vt 0.625000 1.000000
vt 0.875000 1.000000
vt 0.125000 1.000000
vt 0.375000 1.000000
vt 1.000000 0.375000
vt 1.000000 0.125000
vt 1.000000 0.875000
vt 1.000000 0.625000
vt 0.375000 0.000000
vt 0.125000 0.000000
vt 0.875000 0.000000
vt 0.625000 0.000000
vt 0.750000 0.125000
vt 0.625000 0.500000
vt 0.344661 0.562348
vt 0.062500 0.312500
vt 0.187500 0.437500
vt 0.187500 0.312500
vt 0.062500 0.437500
vt 0.687500 0.937500
vt 0.687500 0.812500
vt 0.562500 0.937500
vt 0.062500 0.687500
vt 0.187500 0.687500
vt 0.062500 0.562500
vt 0.187500 0.937500
vt 0.187500 0.812500
vt 0.062500 0.937500
vt 0.437500 0.562500
vt 0.523281 0.749129
vt 0.437500 0.812500
vt 0.312500 0.812500
vt 0.437500 0.937500
vt 0.937500 0.812500
vt 0.812500 0.812500
vt 0.937500 0.937500
vt 0.703316 0.590015
vt 0.562500 0.562500
vt 0.423397 0.683335
vt 0.812500 0.562500
vt 0.812500 0.687500
vt 0.937500 0.562500
vt 0.311128 0.261404
vt 0.567268 0.304605
vt 0.437500 0.437500
vt 0.187500 0.062500
vt 0.062500 0.062500
vt 0.187500 0.187500
vt 0.312500 0.062500
vt 0.312500 0.187500
vt 0.437500 0.062500
vt 0.812500 0.062500
vt 0.937500 0.062500
vt 0.337554 0.427220
vt 0.562500 0.437500
vt 0.296648 0.488775
vt 0.562500 0.187500
vt 0.687500 0.187500
vt 0.562500 0.062500
vt 0.937500 0.312500
vt 0.812500 0.312500
vt 0.937500 0.437500
vt 0.312500 0.937500
vt 0.187500 0.625000
vt 0.812500 0.187500
vt 0.800716 0.372483
vt 0.687500 0.062500
vt 0.687500 0.437500
vt 0.937500 0.187500
vt 0.437500 0.187500
vt 0.062500 0.187500
vt 0.753708 0.513544
vt 0.937500 0.687500
vt 0.668090 0.371379
vt 0.062500 0.812500
vt 0.812500 0.937500
vt 0.187500 0.562500
vt 0.562500 0.812500
vt 0.719157 0.405324
vt 0.464415 0.236462
vt 0.245975 0.565392
vt 0.792894 0.454408
vt 0.575071 0.783373
vt 0.664317 0.648998
vt 0.512438 0.268259
vt 0.296906 0.332149
vt 0.320146 0.614862
vt 0.713437 0.300753
vt 0.750000 0.812500
vt 0.581168 0.672349
vt 0.281585 0.657008
vt 0.688844 0.757642
vt 0.408513 0.320729
vt 0.630071 0.700698
vn 0.056290 0.056290 0.996826
vn -0.025806 0.025806 0.999334
vn 0.038499 -0.038499 0.998517
vn 0.000056 0.000056 1.000000
vn 0.000000 0.000000 1.000000
vn -0.144457 -0.009130 0.989469
vn -0.024385 0.301604 0.953121
vn 0.353946 0.004792 0.935254
vn -0.008975 -0.237214 0.971416
vn -0.106745 0.128818 0.985906
vn 0.170942 0.111330 0.978971
vn -0.093712 -0.082272 0.992194
vn 0.085572 -0.146719 0.985470
vn 0.030418 -0.120896 0.992199
vn -0.043395 -0.039412 0.998280
vn 0.139353 0.020699 0.990026
vn 0.130704 -0.045742 0.990366
vn -0.025024 0.072951 0.997021
vn 0.037956 0.201449 0.978763
vn 0.023810 -0.025668 0.999387
vn -0.066530 0.037290 0.997087
vn -0.220063 -0.102538 0.970082
vn -0.212704 -0.141028 0.966886
vn -0.213018 0.260524 0.941674
vn -0.157118 -0.103238 0.982169
vn 0.087929 -0.135094 0.986924
vn 0.100575 -0.073263 0.992228
vn -0.001828 0.002514 0.999995
vn 0.033318 -0.027550 0.999065
vn -0.137386 -0.081973 0.987120
vn -0.026092 -0.008880 0.999620
vn 0.164193 0.130640 0.977739
vn 0.104616 0.105691 0.988881
vn -0.001334 -0.001311 0.999998
vn 0.046717 0.031208 0.998421
vn -0.108071 0.081958 0.990759
vn 0.003075 -0.004011 0.999987
vn -0.040629 0.025858 0.998840
vn -0.138604 0.094831 0.985797
vn 0.093733 0.142392 0.985362
vn -0.077108 -0.095036 0.992483
vn -0.093572 -0.008883 0.995573
vn 0.052426 0.085920 0.994922
vn 0.041734 -0.114121 0.992590
vn -0.072734 0.041725 0.996478
vn 0.108747 0.034454 0.993472
vn -0.030087 -0.055839 0.997986
vn -0.052529 0.094085 0.994177
vn -0.143297 0.173740 0.974310
vn -0.217750 -0.183173 0.958662
vn 0.181148 0.122019 0.975857
vn 0.170176 0.025683 0.985079
vn -0.038200 0.053883 0.997816
vn -0.131165 0.179181 0.975033
vn -0.076846 -0.024942 0.996731
vn -0.067615 0.154503 0.985676
vn -0.000032 -0.000718 1.000000
vn -0.169331 -0.184154 0.968202
vn -0.180729 -0.066372 0.981291
vn 0.001172 0.000181 0.999999
vn 0.152546 -0.175234 0.972637
vn 0.007691 -0.169185 0.985554
vn 0.000252 0.000846 1.000000
vn -0.151554 0.005548 0.988433
vn 0.042296 0.017393 0.998954
vn 0.093418 -0.009488 0.995582
vn 0.019222 0.311526 0.950043
vn 0.031767 0.063464 0.997478
vn -0.025096 -0.026970 0.999321
vn -0.033872 0.189206 0.981353
vn 0.292565 -0.037323 0.955517
vn -0.005912 -0.022956 0.999719
vn 0.049290 0.024651 0.998480
vn 0.263721 0.043015 0.963639
vn -0.023906 -0.173038 0.984625
vn -0.016501 0.079537 0.996695
vn 0.028134 -0.004466 0.999594
vn 0.018979 -0.217798 0.975809
vn 0.063478 -0.010323 0.997930
vn -0.000410 -0.000208 1.000000
vn 0.001421 -0.000237 0.999999
vn -0.017964 -0.039188 0.999070
vn -0.156618 -0.162975 0.974120
vn -0.093803 -0.086170 0.991855
vn -0.114140 -0.052082 0.992099
vn 0.060763 0.182199 0.981382
vn 0.144389 0.114157 0.982914
vn 0.004316 0.257512 0.966265
vn -0.107036 0.056821 0.992630
vn -0.095792 0.157849 0.982806
vn -0.180077 -0.000144 0.983652
vn -0.045396 0.009115 0.998927
vn -0.078623 0.069281 0.994494
vn 0.014524 -0.018381 0.999726
vn 0.000254 0.000000 1.000000
vn -0.173225 0.204349 0.963449
vn -0.132185 0.091787 0.986966
vn -0.103664 0.086921 0.990807
vn -0.061026 0.209275 0.975951
vn 0.069572 0.037800 0.996861
vn 0.089055 0.049561 0.994793
vn 0.025833 0.022294 0.999418
vn 0.134225 0.088576 0.986984
vn 0.000000 -0.000175 1.000000
vn -0.082491 0.132566 0.987736
vn 0.103539 0.121302 0.987201
vn 0.092941 0.123247 0.988014
vn 0.268984 0.049342 0.961880
vn -0.146175 -0.120374 0.981908
vn 0.085031 -0.128691 0.988033
vn 0.000657 0.000577 1.000000
vn -0.050299 0.023722 0.998452
vn 0.035927 0.039465 0.998575
vn -0.072216 -0.046838 0.996289
vn -0.064457 -0.077462 0.994910
vn -0.121314 -0.043616 0.991656
vn -0.042623 -0.189565 0.980943
vn 0.037452 -0.025821 0.998965
vn 0.003587 -0.001006 0.999993
vn -0.136196 -0.104361 0.985170
vn 0.000000 -0.000000 1.000000
vn -0.144088 -0.096997 0.984800
vn 0.129630 -0.132595 0.982657
vn 0.105676 -0.092701 0.990070
vn 0.030891 -0.189913 0.981315
vn 0.154215 -0.066053 0.985827
vn 0.056911 -0.118334 0.991342
vn 0.260193 -0.046287 0.964447
vn -0.054343 0.098545 0.993648
vn -0.134776 0.170536 0.976091
vn 0.034414 -0.092745 0.995095
vn 0.100748 -0.211156 0.972246
vn 0.049325 -0.090319 0.994691
vn -0.001561 0.001588 0.999997
vn 0.043842 -0.058568 0.997320
vn -0.179348 -0.150747 0.972168
vn 0.036571 -0.031412 0.998837
vn 0.097409 0.071052 0.992705
vn 0.160100 0.062807 0.985101
vn 0.050444 -0.080614 0.995468
vn -0.002873 0.044552 0.999003
vn 0.054872 0.079426 0.995329
vn -0.221132 0.032463 0.974703
vn -0.060202 0.194395 0.979074
vn 0.064076 -0.089613 0.993913
vn -0.075148 -0.151333 0.985622
vn -0.189077 0.023621 0.981678
vn 0.111159 -0.076728 0.990836
vn -0.020371 0.155727 0.987590
vn 0.072446 0.046317 0.996296
vn 0.075404 -0.095241 0.992594
vn -0.206192 -0.155782 0.966031
vn -0.082144 0.126275 0.988588
vn 0.130869 -0.194976 0.972038
vn 0.142679 0.063312 0.987742
vn -0.000330 -0.001221 0.999999
vn -0.164792 0.220325 0.961405
vn 0.184459 0.136068 0.973376
vn -0.153783 -0.103377 0.982682
vn 0.081067 0.052772 0.995311
f 1/1/1 113/113/113 66/66/66
f 31/31/31 137/137/137 113/113/113
f 132/132/132 127/127/127 26/26/26
f 112/112/112 31/31/31 113/113/113
f 136/136/136 123/123/123 146/146/146
f 106/106/106 52/52/52 33/33/33
f 50/50/50 58/58/58 120/120/120
f 84/84/84 41/41/41 47/47/47
f 137/137/137 66/66/66 113/113/113
f 75/75/75 115/115/115 15/15/15
f 12/12/12 152/152/152 84/84/84
f 23/23/23 147/147/147 143/143/143
f 25/25/25 120/120/120 152/152/152
f 76/76/76 113/113/113 1/1/1
f 76/76/76 112/112/112 113/113/113
f 15/15/15 112/112/112 76/76/76
f 115/115/115 112/112/112 15/15/15
f 30/30/30 115/115/115 117/117/117
f 108/108/108 33/33/33 52/52/52
f 75/75/75 117/117/117 115/115/115
f 115/115/115 30/30/30 42/42/42
f 145/145/145 140/140/140 154/154/154
f 51/51/51 150/150/150 103/103/103
f 136/136/136 22/22/22 30/30/30
f 90/90/90 10/10/10 48/48/48
f 54/54/54 98/98/98 49/49/49
f 42/42/42 112/112/112 115/115/115
f 58/58/58 84/84/84 152/152/152
f 13/13/13 154/154/154 124/124/124
f 60/60/60 120/120/120 111/111/111
f 127/127/127 13/13/13 44/44/44
f 159/159/159 63/63/63 111/111/111
f 101/101/101 43/43/43 35/35/35
f 104/104/104 80/80/80 34/34/34
f 10/10/10 49/49/49 98/98/98
f 50/50/50 122/122/122 23/23/23
f 49/49/49 53/53/53 54/54/54
f 117/117/117 62/62/62 30/30/30
f 148/148/148 26/26/26 52/52/52
f 62/62/62 123/123/123 136/136/136
f 77/77/77 2/2/2 119/119/119
f 77/77/77 119/119/119 118/118/118
f 71/71/71 128/128/128 126/126/126
f 58/58/58 152/152/152 120/120/120
f 63/63/63 28/28/28 121/121/121
f 119/119/119 29/29/29 118/118/118
f 122/122/122 50/50/50 120/120/120
f 125/125/125 27/27/27 62/62/62
f 135/135/135 72/72/72 17/17/17
f 136/136/136 30/30/30 62/62/62
f 138/138/138 148/148/148 106/106/106
f 60/60/60 122/122/122 120/120/120
f 153/153/153 53/53/53 157/157/157
f 11/11/11 32/32/32 107/107/107
f 12/12/12 114/114/114 116/116/116
f 150/150/150 160/160/160 34/34/34
f 32/32/32 158/158/158 150/150/150
f 147/147/147 157/157/157 130/130/130
f 151/151/151 146/146/146 123/123/123
f 154/154/154 140/140/140 61/61/61
f 82/82/82 47/47/47 41/41/41
f 45/45/45 98/98/98 36/36/36
f 82/82/82 137/137/137 47/47/47
f 61/61/61 124/124/124 154/154/154
f 26/26/26 126/126/126 128/128/128
f 62/62/62 117/117/117 125/125/125
f 20/20/20 137/137/137 82/82/82
f 38/38/38 92/92/92 94/94/94
f 20/20/20 66/66/66 137/137/137
f 55/55/55 20/20/20 82/82/82
f 69/69/69 94/94/94 92/92/92
f 110/110/110 151/151/151 61/61/61
f 8/8/8 108/108/108 128/128/128
f 141/141/141 48/48/48 38/38/38
f 24/24/24 144/144/144 97/97/97
f 65/65/65 141/141/141 94/94/94
f 114/114/114 31/31/31 42/42/42
f 38/38/38 94/94/94 141/141/141
f 92/92/92 18/18/18 69/69/69
f 97/97/97 54/54/54 24/24/24
f 151/151/151 110/110/110 63/63/63
f 46/46/46 35/35/35 142/142/142
f 29/29/29 119/119/119 135/135/135
f 83/83/83 23/23/23 59/59/59
f 151/151/151 63/63/63 159/159/159
f 35/35/35 46/46/46 101/101/101
f 129/129/129 45/45/45 36/36/36
f 27/27/27 124/124/124 123/123/123
f 85/85/85 41/41/41 59/59/59
f 78/78/78 125/125/125 9/9/9
f 70/70/70 129/129/129 99/99/99
f 83/83/83 59/59/59 41/41/41
f 129/129/129 70/70/70 18/18/18
f 36/36/36 99/99/99 129/129/129
f 93/93/93 38/38/38 48/48/48
f 38/38/38 45/45/45 92/92/92
f 52/52/52 128/128/128 108/108/108
f 65/65/65 94/94/94 3/3/3
f 72/72/72 135/135/135 119/119/119
f 94/94/94 69/69/69 3/3/3
f 39/39/39 90/90/90 48/48/48
f 21/21/21 141/141/141 65/65/65
f 18/18/18 92/92/92 129/129/129
f 6/6/6 91/91/91 64/64/64
f 105/105/105 24/24/24 54/54/54
f 93/93/93 45/45/45 38/38/38
f 89/89/89 39/39/39 48/48/48
f 13/13/13 124/124/124 131/131/131
f 45/45/45 129/129/129 92/92/92
f 9/9/9 125/125/125 117/117/117
f 64/64/64 89/89/89 21/21/21
f 55/55/55 82/82/82 85/85/85
f 6/6/6 85/85/85 91/91/91
f 59/59/59 91/91/91 85/85/85
f 41/41/41 85/85/85 82/82/82
f 6/6/6 55/55/55 85/85/85
f 146/146/146 151/151/151 159/159/159
f 59/59/59 39/39/39 91/91/91
f 109/109/109 22/22/22 159/159/159
f 143/143/143 39/39/39 59/59/59
f 118/118/118 29/29/29 79/79/79
f 58/58/58 50/50/50 83/83/83
f 134/134/134 148/148/148 138/138/138
f 58/58/58 83/83/83 84/84/84
f 119/119/119 2/2/2 72/72/72
f 49/49/49 157/157/157 53/53/53
f 11/11/11 158/158/158 32/32/32
f 138/138/138 103/103/103 80/80/80
f 10/10/10 98/98/98 93/93/93
f 21/21/21 89/89/89 141/141/141
f 105/105/105 53/53/53 37/37/37
f 51/51/51 32/32/32 150/150/150
f 79/79/79 133/133/133 118/118/118
f 118/118/118 133/133/133 14/14/14
f 79/79/79 131/131/131 124/124/124
f 100/100/100 35/35/35 43/43/43
f 143/143/143 59/59/59 23/23/23
f 48/48/48 141/141/141 89/89/89
f 78/78/78 133/133/133 125/125/125
f 62/62/62 27/27/27 123/123/123
f 53/53/53 153/153/153 37/37/37
f 37/37/37 81/81/81 95/95/95
f 60/60/60 95/95/95 81/81/81
f 156/156/156 34/34/34 160/160/160
f 5/5/5 95/95/95 111/111/111
f 148/148/148 145/145/145 132/132/132
f 57/57/57 37/37/37 95/95/95
f 37/37/37 57/57/57 105/105/105
f 27/27/27 125/125/125 133/133/133
f 121/121/121 5/5/5 111/111/111
f 160/160/160 150/150/150 158/158/158
f 61/61/61 151/151/151 123/123/123
f 17/17/17 126/126/126 135/135/135
f 41/41/41 84/84/84 83/83/83
f 131/131/131 44/44/44 13/13/13
f 60/60/60 111/111/111 95/95/95
f 28/28/28 134/134/134 80/80/80
f 104/104/104 95/95/95 5/5/5
f 28/28/28 140/140/140 134/134/134
f 24/24/24 105/105/105 96/96/96
f 57/57/57 95/95/95 104/104/104
f 24/24/24 96/96/96 144/144/144
f 127/127/127 44/44/44 26/26/26
f 126/126/126 26/26/26 44/44/44
f 45/45/45 93/93/93 98/98/98
f 110/110/110 28/28/28 63/63/63
f 11/11/11 107/107/107 101/101/101
f 9/9/9 117/117/117 75/75/75
f 26/26/26 128/128/128 52/52/52
f 54/54/54 97/97/97 98/98/98
f 130/130/130 90/90/90 39/39/39
f 114/114/114 42/42/42 116/116/116
f 99/99/99 36/36/36 56/56/56
f 80/80/80 104/104/104 5/5/5
f 23/23/23 83/83/83 50/50/50
f 126/126/126 17/17/17 71/71/71
f 109/109/109 12/12/12 116/116/116
f 25/25/25 159/159/159 111/111/111
f 144/144/144 149/149/149 40/40/40
f 103/103/103 150/150/150 34/34/34
f 36/36/36 98/98/98 97/97/97
f 153/153/153 81/81/81 37/37/37
f 96/96/96 156/156/156 149/149/149
f 122/122/122 147/147/147 23/23/23
f 26/26/26 148/148/148 132/132/132
f 157/157/157 147/147/147 153/153/153
f 120/120/120 25/25/25 111/111/111
f 12/12/12 109/109/109 152/152/152
f 14/14/14 133/133/133 78/78/78
f 140/140/140 110/110/110 61/61/61
f 107/107/107 106/106/106 33/33/33
f 44/44/44 135/135/135 126/126/126
f 43/43/43 101/101/101 107/107/107
f 34/34/34 156/156/156 104/104/104
f 57/57/57 104/104/104 156/156/156
f 121/121/121 80/80/80 5/5/5
f 63/63/63 121/121/121 111/111/111
f 121/121/121 28/28/28 80/80/80
f 77/77/77 118/118/118 14/14/14
f 10/10/10 93/93/93 48/48/48
f 103/103/103 34/34/34 80/80/80
f 131/131/131 79/79/79 29/29/29
f 140/140/140 145/145/145 134/134/134
f 49/49/49 10/10/10 157/157/157
f 124/124/124 27/27/27 79/79/79
f 139/139/139 33/33/33 108/108/108
f 107/107/107 33/33/33 43/43/43
f 133/133/133 79/79/79 27/27/27
f 145/145/145 148/148/148 134/134/134
f 139/139/139 43/43/43 33/33/33
f 11/11/11 155/155/155 158/158/158
f 96/96/96 105/105/105 57/57/57
f 140/140/140 28/28/28 110/110/110
f 51/51/51 106/106/106 107/107/107
f 127/127/127 132/132/132 154/154/154
f 97/97/97 56/56/56 36/36/36
f 86/86/86 46/46/46 142/142/142
f 112/112/112 42/42/42 31/31/31
f 40/40/40 46/46/46 86/86/86
f 74/74/74 139/139/139 108/108/108
f 100/100/100 43/43/43 139/139/139
f 137/137/137 31/31/31 47/47/47
f 114/114/114 47/47/47 31/31/31
f 88/88/88 40/40/40 86/86/86
f 16/16/16 100/100/100 139/139/139
f 102/102/102 35/35/35 100/100/100
f 68/68/68 142/142/142 102/102/102
f 88/88/88 99/99/99 56/56/56
f 142/142/142 35/35/35 102/102/102
f 53/53/53 105/105/105 54/54/54
f 147/147/147 122/122/122 81/81/81
f 19/19/19 86/86/86 142/142/142
f 88/88/88 56/56/56 40/40/40
f 144/144/144 40/40/40 56/56/56
f 96/96/96 149/149/149 144/144/144
f 44/44/44 131/131/131 135/135/135
f 87/87/87 46/46/46 40/40/40
f 81/81/81 153/153/153 147/147/147
f 87/87/87 155/155/155 46/46/46
f 144/144/144 56/56/56 97/97/97
f 60/60/60 81/81/81 122/122/122
f 64/64/64 91/91/91 89/89/89
f 156/156/156 96/96/96 57/57/57
f 67/67/67 88/88/88 86/86/86
f 7/7/7 99/99/99 88/88/88
f 7/7/7 70/70/70 99/99/99
f 67/67/67 7/7/7 88/88/88
f 19/19/19 67/67/67 86/86/86
f 68/68/68 19/19/19 142/142/142
f 73/73/73 102/102/102 100/100/100
f 4/4/4 68/68/68 102/102/102
f 73/73/73 4/4/4 102/102/102
f 16/16/16 73/73/73 100/100/100
f 74/74/74 16/16/16 139/139/139
f 8/8/8 74/74/74 108/108/108
f 39/39/39 89/89/89 91/91/91
f 116/116/116 22/22/22 109/109/109
f 116/116/116 42/42/42 30/30/30
f 134/134/134 138/138/138 80/80/80
f 61/61/61 123/123/123 124/124/124
f 106/106/106 148/148/148 52/52/52
f 87/87/87 40/40/40 149/149/149
f 128/128/128 71/71/71 8/8/8
f 90/90/90 130/130/130 157/157/157
f 32/32/32 51/51/51 107/107/107
f 146/146/146 159/159/159 22/22/22
f 130/130/130 143/143/143 147/147/147
f 29/29/29 135/135/135 131/131/131
f 25/25/25 152/152/152 159/159/159
f 155/155/155 101/101/101 46/46/46
f 154/154/154 132/132/132 145/145/145
f 84/84/84 114/114/114 12/12/12
f 101/101/101 155/155/155 11/11/11
f 114/114/114 84/84/84 47/47/47
f 146/146/146 22/22/22 136/136/136
f 154/154/154 13/13/13 127/127/127
f 90/90/90 157/157/157 10/10/10
f 143/143/143 130/130/130 39/39/39
f 149/149/149 158/158/158 87/87/87
f 109/109/109 159/159/159 152/152/152
f 116/116/116 30/30/30 22/22/22
f 87/87/87 158/158/158 155/155/155
f 149/149/149 160/160/160 158/158/158
f 160/160/160 149/149/149 156/156/156
f 103/103/103 138/138/138 51/51/51
f 106/106/106 51/51/51 138/138/138
