# frame 000257 
# time 0.129000 
# name Cloth3D 
v -0.000000 0.000000 -0.000000
v 1.000000 0.000000 -0.000000
v -0.000000 1.000000 0.000000
v 1.000000 1.000000 0.000000
v 0.501265 0.500597 0.059284
v -0.000000 0.500000 0.000000
v 0.500000 1.000000 0.000000
v 1.000000 0.500000 0.000000
v 0.500000 -0.000000 0.000000
v 0.250537 0.750126 0.026315
v 0.751531 0.751404 0.036329
v 0.252055 0.250988 0.016433
v 0.750863 0.250106 0.028053
v 0.750000 0.000000 0.000000
v 0.250000 0.000000 0.000000
v 1.000000 0.750000 0.000000
v 1.000000 0.250000 0.000000
v 0.250000 1.000000 0.000000
v 0.750000 1.000000 0.000000
v 0.000000 0.250000 0.000000
v 0.000000 0.750000 -0.000000
v 0.366910 0.219648 0.032750
v 0.248459 0.500895 0.052754
v 0.500900 0.753939 0.059148
v 0.373930 0.372068 0.059436
v 0.878178 0.374734 0.033006
v 0.625668 0.122901 0.030940
v 0.627457 0.373906 0.059284
v 0.875326 0.124803 0.011348
v 0.376173 0.123815 0.022325
v 0.125781 0.125555 0.001291
v 0.752295 0.688637 0.042410
v 0.878793 0.625696 0.036059
v 0.627531 0.626876 0.059284
v 0.875868 0.875755 0.017103
v 0.375199 0.877341 0.030566
v 0.374651 0.626954 0.059284
v 0.125245 0.874891 0.008016
v 0.123424 0.625340 0.028508
v 0.626218 0.879096 0.039025
v 0.125125 0.375493 0.020463
v 0.251062 0.125126 0.011699
v 0.876251 0.750382 0.021139
v 0.876449 0.249722 0.022254
v 0.250339 0.875449 0.016939
v 0.750895 0.876632 0.025096
v 0.126071 0.250728 0.008525
v 0.124869 0.749773 0.015189
v 0.305071 0.714438 0.037124
v 0.278808 0.436033 0.046956
v 0.753039 0.625804 0.048317
v 0.879456 0.500075 0.039690
v 0.371603 0.648209 0.059436
v 0.376141 0.751276 0.039004
v 0.000000 0.375000 0.000000
v 0.500619 0.879118 0.039204
v 0.501171 0.627162 0.059285
v 0.250875 0.376033 0.033154
v 0.123482 0.500400 0.029703
v 0.374615 0.500618 0.059285
v 0.625661 0.249030 0.041645
v 0.500502 0.121320 0.037836
v 0.501075 0.373946 0.059285
v 0.000000 0.625000 0.000000
v 0.000000 0.875000 0.000000
v 0.000000 0.125000 0.000000
v 0.625000 1.000000 0.000000
v 0.875000 1.000000 0.000000
v 0.125000 1.000000 0.000000
v 0.375000 1.000000 0.000000
v 1.000000 0.375000 0.000000
v 1.000000 0.125000 0.000000
v 1.000000 0.875000 0.000000
v 1.000000 0.625000 0.000000
v 0.375000 0.000000 0.000000
v 0.125000 0.000000 0.000000
v 0.875000 0.000000 0.000000
v 0.625000 0.000000 0.000000
v 0.750277 0.124664 0.017064
v 0.627814 0.500418 0.059285
v 0.343745 0.563595 0.059362
v 0.062737 0.312810 0.008344
v 0.187496 0.438586 0.031677
v 0.189067 0.313858 0.014923
v 0.061803 0.437682 0.014544
v 0.687988 0.939282 0.017634
v 0.688767 0.814955 0.038552
v 0.562962 0.939701 0.020240
v 0.061107 0.687716 0.016618
v 0.187025 0.687654 0.029076
v 0.060462 0.562653 0.019956
v 0.187595 0.937749 0.008493
v 0.188124 0.812191 0.012433
v 0.062683 0.937339 -0.000202
v 0.437967 0.563860 0.059285
v 0.519787 0.759712 0.059476
v 0.438666 0.815062 0.039151
v 0.313158 0.813463 0.028289
v 0.437720 0.939735 0.019844
v 0.937885 0.812715 0.008938
v 0.813310 0.813347 0.022595
v 0.937699 0.937673 0.005020
v 0.708074 0.592071 0.059429
v 0.564482 0.563783 0.059285
v 0.423058 0.686884 0.059429
v 0.816915 0.563047 0.049608
v 0.815314 0.688661 0.039546
v 0.940943 0.562701 0.023535
v 0.313224 0.261989 0.026322
v 0.571349 0.298809 0.059429
v 0.437960 0.437373 0.059285
v 0.187919 0.062723 0.004021
v 0.062754 0.062730 -0.003064
v 0.189048 0.188305 0.006569
v 0.312766 0.061526 0.014229
v 0.314377 0.187631 0.019655
v 0.437755 0.059733 0.021517
v 0.812689 0.062073 0.009980
v 0.937483 0.062540 0.001774
v 0.334051 0.425101 0.059429
v 0.564433 0.437256 0.059285
v 0.289036 0.484936 0.059429
v 0.562721 0.185393 0.040208
v 0.687630 0.187076 0.025628
v 0.562871 0.060044 0.021024
v 0.939373 0.312290 0.017180
v 0.814413 0.312615 0.031552
v 0.939913 0.437492 0.019955
v 0.312650 0.938481 0.013670
v 0.186663 0.624988 0.033888
v 0.813005 0.187702 0.016132
v 0.803743 0.372476 0.041764
v 0.687692 0.061657 0.013479
v 0.690955 0.437117 0.059285
v 0.937898 0.187430 0.008442
v 0.438670 0.185391 0.040230
v 0.062949 0.187808 0.004300
v 0.763945 0.517802 0.059429
v 0.939284 0.687777 0.016803
v 0.669382 0.372559 0.059429
v 0.062530 0.812414 0.006482
v 0.812907 0.938185 0.011325
v 0.185083 0.563271 0.045214
v 0.563804 0.817367 0.055008
v 0.719119 0.409861 0.059436
v 0.480431 0.230021 0.059442
v 0.240041 0.549541 0.059442
v 0.799960 0.470458 0.059442
v 0.559541 0.789959 0.059442
v 0.664919 0.649436 0.059429
v 0.517945 0.258635 0.059429
v 0.298345 0.332906 0.034491
v 0.322605 0.611443 0.059439
v 0.714756 0.300800 0.038390
v 0.750585 0.813703 0.026455
v 0.583084 0.675031 0.059357
v 0.280923 0.658089 0.046617
v 0.690063 0.759607 0.041571
v 0.411902 0.321458 0.059439
v 0.627103 0.699837 0.059436
v 0.647723 0.310374 0.048174
v 0.630299 0.773935 0.049151
v 0.511892 0.691449 0.059357
v 0.694527 0.508179 0.059357
vt 0.000000 0.000000
vt 1.000000 0.000000
vt 0.000000 1.000000
vt 1.000000 1.000000
vt 0.500000 0.500000
vt 0.000000 0.500000
vt 0.500000 1.000000
vt 1.000000 0.500000
vt 0.500000 0.000000
vt 0.250000 0.750000
vt 0.750000 0.750000
vt 0.250000 0.250000
vt 0.750000 0.250000
vt 0.750000 0.000000
vt 0.250000 0.000000
vt 1.000000 0.750000
vt 1.000000 0.250000
vt 0.250000 1.000000
vt 0.750000 1.000000
vt 0.000000 0.250000
vt 0.000000 0.750000
vt 0.365347 0.220303
vt 0.250000 0.500000
vt 0.500000 0.750000
vt 0.374345 0.373033
vt 0.875000 0.375000
vt 0.625000 0.125000
vt 0.625000 0.375000
vt 0.875000 0.125000
vt 0.375000 0.125000
vt 0.125000 0.125000
vt 0.750000 0.687500
vt 0.875000 0.625000
vt 0.625000 0.625000
vt 0.875000 0.875000
vt 0.375000 0.875000
vt 0.375000 0.625000
vt 0.125000 0.875000
vt 0.125000 0.625000
vt 0.625000 0.875000
vt 0.125000 0.375000
vt 0.250000 0.125000
vt 0.875000 0.750000
vt 0.875000 0.250000
vt 0.250000 0.875000
vt 0.750000 0.875000
vt 0.125000 0.250000
vt 0.125000 0.750000
vt 0.304602 0.713891
vt 0.278861 0.435152
vt 0.750000 0.625000
vt 0.875000 0.500000
vt 0.371971 0.646039
vt 0.375000 0.750000
vt 0.000000 0.375000
vt 0.500000 0.875000
vt 0.500000 0.625000
vt 0.250000 0.375000
vt 0.125000 0.500000
vt 0.375000 0.500000
vt 0.625000 0.250000
vt 0.500000 0.125000
vt 0.500000 0.375000
vt 0.000000 0.625000
vt 0.000000 0.875000
vt 0.000000 0.125000
vt 0.625000 1.000000
vt 0.875000 1.000000
vt 0.125000 1.000000
vt 0.375000 1.000000
vt 1.000000 0.375000
vt 1.000000 0.125000
vt 1.000000 0.875000
vt 1.000000 0.625000
vt 0.375000 0.000000
vt 0.125000 0.000000
vt 0.875000 0.000000
vt 0.625000 0.000000
vt 0.750000 0.125000
vt 0.625000 0.500000
vt 0.344661 0.562348
vt 0.062500 0.312500
vt 0.187500 0.437500
vt 0.187500 0.312500
vt 0.062500 0.437500
vt 0.687500 0.937500
vt 0.687500 0.812500
vt 0.562500 0.937500
vt 0.062500 0.687500
vt 0.187500 0.687500
vt 0.062500 0.562500
vt 0.187500 0.937500
vt 0.187500 0.812500
vt 0.062500 0.937500
vt 0.437500 0.562500
vt 0.518706 0.755639
vt 0.437500 0.812500
vt 0.312500 0.812500
vt 0.437500 0.937500
vt 0.937500 0.812500
vt 0.812500 0.812500
vt 0.937500 0.937500
vt 0.704505 0.590868
vt 0.562500 0.562500
vt 0.422836 0.684125
vt 0.812500 0.562500
vt 0.812500 0.687500
vt 0.937500 0.562500
vt 0.311128 0.261404
vt 0.569835 0.300968
vt 0.437500 0.437500
vt 0.187500 0.062500
vt 0.062500 0.062500
vt 0.187500 0.187500
vt 0.312500 0.062500
vt 0.312500 0.187500
vt 0.437500 0.062500
vt 0.812500 0.062500
vt 0.937500 0.062500
vt 0.334933 0.425379
vt 0.562500 0.437500
vt 0.290669 0.484587
vt 0.562500 0.187500
vt 0.687500 0.187500
vt 0.562500 0.062500
vt 0.937500 0.312500
vt 0.812500 0.312500
vt 0.937500 0.437500
vt 0.312500 0.937500
vt 0.187500 0.625000
vt 0.812500 0.187500
vt 0.800716 0.372483
vt 0.687500 0.062500
vt 0.687500 0.437500
vt 0.937500 0.187500
vt 0.437500 0.187500
vt 0.062500 0.187500
vt 0.759316 0.517503
vt 0.937500 0.687500
vt 0.666486 0.373665
vt 0.062500 0.812500
vt 0.812500 0.937500
vt 0.187500 0.562500
vt 0.562500 0.812500
vt 0.715446 0.410579
vt 0.480134 0.233667
vt 0.243075 0.548624
vt 0.794537 0.470696
vt 0.558217 0.785248
vt 0.662083 0.647445
vt 0.517130 0.261608
vt 0.296906 0.332149
vt 0.323735 0.609784
vt 0.713437 0.300753
vt 0.750000 0.812500
vt 0.581168 0.672349
vt 0.281585 0.657008
vt 0.688844 0.757642
vt 0.411951 0.323171
vt 0.624853 0.697035
vt 0.646352 0.310977
vt 0.629073 0.770824
vt 0.510736 0.688401
vt 0.690882 0.507820
vn 0.025749 0.025749 0.999337
vn 0.012754 -0.012754 0.999837
vn 0.003066 -0.003066 0.999991
vn 0.038910 0.038910 0.998485
vn 0.000000 0.000000 1.000000
vn -0.267861 -0.021890 0.963209
vn -0.002584 0.315850 0.948806
vn 0.345669 -0.014376 0.938246
vn 0.001943 -0.333343 0.942804
vn -0.111301 0.132101 0.984968
vn 0.087486 0.130496 0.987581
vn -0.122515 -0.094354 0.987971
vn 0.082423 -0.130916 0.987961
vn 0.014689 -0.185018 0.982625
vn -0.041723 -0.141731 0.989025
vn 0.203283 0.031452 0.978615
vn 0.202190 -0.036100 0.978681
vn -0.020837 0.172678 0.984758
vn 0.026228 0.230177 0.972795
vn -0.095637 -0.016523 0.995279
vn -0.180553 0.041203 0.982702
vn -0.192863 -0.126590 0.973026
vn -0.223153 -0.168103 0.960179
vn -0.074997 0.177523 0.981255
vn -0.117760 -0.087900 0.989144
vn 0.166534 -0.091638 0.981768
vn 0.087552 -0.120077 0.988896
vn -0.002030 0.002584 0.999995
vn 0.066723 -0.067937 0.995456
vn -0.113611 -0.094763 0.988996
vn -0.041186 -0.036240 0.998494
vn 0.083593 0.099484 0.991522
vn 0.189150 0.073379 0.979203
vn -0.001460 -0.001501 0.999998
vn 0.094625 0.072256 0.992887
vn -0.080290 0.131115 0.988110
vn 0.003926 -0.004705 0.999981
vn -0.065400 0.049643 0.996624
vn -0.122885 0.080571 0.989145
vn 0.071451 0.207121 0.975703
vn -0.091256 -0.089012 0.991841
vn -0.088732 -0.028904 0.995636
vn 0.141126 0.088333 0.986043
vn 0.084571 -0.092669 0.992099
vn -0.086973 0.071850 0.993616
vn 0.097953 0.088448 0.991253
vn -0.033748 -0.062778 0.997457
vn -0.070884 0.095218 0.992930
vn -0.100474 0.168922 0.980495
vn -0.222304 -0.162943 0.961265
vn 0.117165 0.102053 0.987855
vn 0.239164 -0.000661 0.970979
vn -0.025910 0.038509 0.998922
vn -0.117960 0.145394 0.982317
vn -0.177198 -0.024951 0.983859
vn -0.051270 0.210987 0.976143
vn 0.000044 -0.000804 1.000000
vn -0.176111 -0.148030 0.973176
vn -0.176363 -0.055338 0.982768
vn 0.001078 0.000139 0.999999
vn 0.139011 -0.157195 0.977735
vn -0.015413 -0.187590 0.982127
vn 0.000303 0.000811 1.000000
vn -0.285175 0.012915 0.958388
vn -0.046579 0.026459 0.998564
vn -0.005599 -0.028693 0.999573
vn 0.010666 0.300768 0.953638
vn 0.025531 0.128606 0.991367
vn -0.034591 0.062769 0.997428
vn -0.025366 0.262462 0.964609
vn 0.295523 -0.012268 0.955257
vn 0.078403 -0.026508 0.996569
vn 0.109662 0.016004 0.993840
vn 0.318975 0.028709 0.947328
vn -0.029615 -0.280662 0.959350
vn -0.027765 -0.003720 0.999608
vn 0.032874 -0.091094 0.995300
vn 0.030389 -0.272388 0.961707
vn 0.065414 -0.068768 0.995486
vn -0.000505 -0.000325 1.000000
vn 0.001513 -0.000332 0.999999
vn -0.110846 -0.044430 0.992844
vn -0.139880 -0.133154 0.981175
vn -0.081666 -0.106540 0.990949
vn -0.194550 -0.042991 0.979950
vn 0.046818 0.252131 0.966560
vn 0.157664 0.065598 0.985312
vn 0.004791 0.306899 0.951730
vn -0.170561 0.054698 0.983828
vn -0.114667 0.109050 0.987400
vn -0.227861 -0.002316 0.973691
vn -0.045618 0.095875 0.994348
vn -0.074774 0.065275 0.995062
vn -0.030867 0.026796 0.999164
vn 0.000253 0.000000 1.000000
vn -0.054037 0.119542 0.991358
vn -0.111485 0.109978 0.987662
vn -0.105232 0.077375 0.991433
vn -0.032039 0.273964 0.961206
vn 0.149524 0.032023 0.988239
vn 0.071502 0.072845 0.994777
vn 0.065710 0.060897 0.995979
vn 0.092129 0.069113 0.993346
vn 0.000001 -0.000175 1.000000
vn -0.077178 0.097519 0.992237
vn 0.133329 0.077804 0.988013
vn 0.096021 0.106053 0.989713
vn 0.298677 0.015200 0.954233
vn -0.170481 -0.121478 0.977844
vn 0.091935 -0.110428 0.989623
vn 0.000640 0.000590 1.000000
vn -0.055623 -0.048600 0.997268
vn -0.002801 -0.003271 0.999991
vn -0.068905 -0.040235 0.996812
vn -0.057273 -0.132349 0.989547
vn -0.142371 -0.078101 0.986727
vn -0.045404 -0.235849 0.970728
vn 0.035124 -0.109972 0.993314
vn 0.044809 -0.041599 0.998129
vn -0.132412 -0.093578 0.986768
vn 0.000000 -0.000000 1.000000
vn -0.165439 -0.129810 0.977640
vn 0.116592 -0.130534 0.984564
vn 0.103297 -0.083266 0.991159
vn 0.030671 -0.268876 0.962686
vn 0.217778 -0.046094 0.974909
vn 0.079079 -0.129719 0.988392
vn 0.286855 -0.027585 0.957577
vn -0.050902 0.185584 0.981309
vn -0.121506 0.133681 0.983548
vn 0.037444 -0.081897 0.995937
vn 0.112743 -0.163248 0.980122
vn 0.050798 -0.187241 0.981000
vn -0.001808 0.001695 0.999997
vn 0.131582 -0.053424 0.989865
vn -0.179516 -0.186392 0.965936
vn -0.035984 -0.037175 0.998661
vn 0.057646 0.049942 0.997087
vn 0.225134 0.060605 0.972441
vn 0.053258 -0.081334 0.995263
vn -0.088673 0.048229 0.994892
vn 0.042298 0.165300 0.985336
vn -0.200361 0.064197 0.977617
vn 0.039653 0.152342 0.987532
vn 0.040371 -0.056920 0.997562
vn -0.024976 -0.142259 0.989514
vn -0.201607 -0.042632 0.978538
vn 0.121891 -0.016694 0.992403
vn 0.027765 0.126436 0.991586
vn 0.050218 0.037942 0.998017
vn 0.077788 -0.099045 0.992038
vn -0.187053 -0.157417 0.969655
vn -0.046588 0.063755 0.996878
vn 0.107158 -0.165452 0.980379
vn 0.117691 0.076253 0.990118
vn -0.000415 -0.001352 0.999999
vn -0.124023 0.176161 0.976517
vn 0.144068 0.098741 0.984629
vn -0.113409 -0.081636 0.990189
vn 0.065026 0.049586 0.996651
vn 0.141094 -0.191654 0.971268
vn 0.152409 0.107972 0.982402
vn 0.000230 -0.001407 0.999999
vn -0.000959 -0.000852 0.999999
f 1/1/1 113/113/113 66/66/66
f 31/31/31 137/137/137 113/113/113
f 132/132/132 127/127/127 26/26/26
f 112/112/112 31/31/31 113/113/113
f 135/135/135 44/44/44 29/29/29
f 106/106/106 52/52/52 33/33/33
f 50/50/50 58/58/58 120/120/120
f 84/84/84 41/41/41 47/47/47
f 137/137/137 66/66/66 113/113/113
f 75/75/75 115/115/115 15/15/15
f 12/12/12 152/152/152 84/84/84
f 23/23/23 147/147/147 143/143/143
f 25/25/25 120/120/120 152/152/152
f 76/76/76 113/113/113 1/1/1
f 76/76/76 112/112/112 113/113/113
f 15/15/15 112/112/112 76/76/76
f 115/115/115 112/112/112 15/15/15
f 30/30/30 115/115/115 117/117/117
f 108/108/108 33/33/33 52/52/52
f 75/75/75 117/117/117 115/115/115
f 115/115/115 30/30/30 42/42/42
f 145/145/145 140/140/140 154/154/154
f 51/51/51 150/150/150 103/103/103
f 136/136/136 22/22/22 30/30/30
f 90/90/90 10/10/10 48/48/48
f 54/54/54 98/98/98 49/49/49
f 42/42/42 112/112/112 115/115/115
f 58/58/58 84/84/84 152/152/152
f 13/13/13 154/154/154 124/124/124
f 60/60/60 120/120/120 111/111/111
f 136/136/136 62/62/62 146/146/146
f 159/159/159 63/63/63 111/111/111
f 101/101/101 43/43/43 35/35/35
f 104/104/104 80/80/80 34/34/34
f 10/10/10 49/49/49 98/98/98
f 50/50/50 122/122/122 23/23/23
f 49/49/49 53/53/53 54/54/54
f 117/117/117 62/62/62 30/30/30
f 148/148/148 26/26/26 52/52/52
f 131/131/131 29/29/29 44/44/44
f 77/77/77 2/2/2 119/119/119
f 77/77/77 119/119/119 118/118/118
f 71/71/71 128/128/128 126/126/126
f 58/58/58 152/152/152 120/120/120
f 63/63/63 28/28/28 121/121/121
f 119/119/119 29/29/29 118/118/118
f 122/122/122 50/50/50 120/120/120
f 125/125/125 27/27/27 62/62/62
f 135/135/135 72/72/72 17/17/17
f 136/136/136 30/30/30 62/62/62
f 138/138/138 148/148/148 106/106/106
f 60/60/60 122/122/122 120/120/120
f 153/153/153 53/53/53 157/157/157
f 11/11/11 32/32/32 107/107/107
f 12/12/12 114/114/114 116/116/116
f 150/150/150 160/160/160 34/34/34
f 32/32/32 158/158/158 150/150/150
f 147/147/147 157/157/157 130/130/130
f 151/151/151 146/146/146 123/123/123
f 44/44/44 127/127/127 131/131/131
f 82/82/82 47/47/47 41/41/41
f 45/45/45 98/98/98 36/36/36
f 82/82/82 137/137/137 47/47/47
f 61/61/61 124/124/124 154/154/154
f 26/26/26 126/126/126 128/128/128
f 62/62/62 117/117/117 125/125/125
f 20/20/20 137/137/137 82/82/82
f 38/38/38 92/92/92 94/94/94
f 20/20/20 66/66/66 137/137/137
f 55/55/55 20/20/20 82/82/82
f 69/69/69 94/94/94 92/92/92
f 110/110/110 151/151/151 61/61/61
f 8/8/8 108/108/108 128/128/128
f 141/141/141 48/48/48 38/38/38
f 164/164/164 80/80/80 134/134/134
f 65/65/65 141/141/141 94/94/94
f 114/114/114 31/31/31 42/42/42
f 38/38/38 94/94/94 141/141/141
f 92/92/92 18/18/18 69/69/69
f 97/97/97 54/54/54 24/24/24
f 151/151/151 110/110/110 63/63/63
f 46/46/46 35/35/35 142/142/142
f 29/29/29 119/119/119 135/135/135
f 83/83/83 23/23/23 59/59/59
f 151/151/151 63/63/63 159/159/159
f 35/35/35 46/46/46 101/101/101
f 129/129/129 45/45/45 36/36/36
f 27/27/27 124/124/124 123/123/123
f 85/85/85 41/41/41 59/59/59
f 78/78/78 125/125/125 9/9/9
f 70/70/70 129/129/129 99/99/99
f 83/83/83 59/59/59 41/41/41
f 129/129/129 70/70/70 18/18/18
f 36/36/36 99/99/99 129/129/129
f 93/93/93 38/38/38 48/48/48
f 38/38/38 45/45/45 92/92/92
f 52/52/52 128/128/128 108/108/108
f 65/65/65 94/94/94 3/3/3
f 72/72/72 135/135/135 119/119/119
f 94/94/94 69/69/69 3/3/3
f 39/39/39 90/90/90 48/48/48
f 21/21/21 141/141/141 65/65/65
f 18/18/18 92/92/92 129/129/129
f 6/6/6 91/91/91 64/64/64
f 105/105/105 24/24/24 54/54/54
f 93/93/93 45/45/45 38/38/38
f 89/89/89 39/39/39 48/48/48
f 13/13/13 124/124/124 131/131/131
f 45/45/45 129/129/129 92/92/92
f 9/9/9 125/125/125 117/117/117
f 64/64/64 89/89/89 21/21/21
f 55/55/55 82/82/82 85/85/85
f 6/6/6 85/85/85 91/91/91
f 59/59/59 91/91/91 85/85/85
f 41/41/41 85/85/85 82/82/82
f 6/6/6 55/55/55 85/85/85
f 146/146/146 151/151/151 159/159/159
f 59/59/59 39/39/39 91/91/91
f 109/109/109 22/22/22 159/159/159
f 143/143/143 39/39/39 59/59/59
f 118/118/118 29/29/29 79/79/79
f 58/58/58 50/50/50 83/83/83
f 134/134/134 148/148/148 138/138/138
f 58/58/58 83/83/83 84/84/84
f 119/119/119 2/2/2 72/72/72
f 49/49/49 157/157/157 53/53/53
f 11/11/11 158/158/158 32/32/32
f 40/40/40 144/144/144 162/162/162
f 10/10/10 98/98/98 93/93/93
f 21/21/21 89/89/89 141/141/141
f 105/105/105 53/53/53 37/37/37
f 51/51/51 32/32/32 150/150/150
f 79/79/79 133/133/133 118/118/118
f 118/118/118 133/133/133 14/14/14
f 79/79/79 131/131/131 124/124/124
f 100/100/100 35/35/35 43/43/43
f 143/143/143 59/59/59 23/23/23
f 48/48/48 141/141/141 89/89/89
f 78/78/78 133/133/133 125/125/125
f 62/62/62 27/27/27 123/123/123
f 53/53/53 153/153/153 37/37/37
f 37/37/37 81/81/81 95/95/95
f 60/60/60 95/95/95 81/81/81
f 156/156/156 34/34/34 160/160/160
f 5/5/5 95/95/95 111/111/111
f 148/148/148 145/145/145 132/132/132
f 57/57/57 37/37/37 95/95/95
f 37/37/37 57/57/57 105/105/105
f 27/27/27 125/125/125 133/133/133
f 121/121/121 5/5/5 111/111/111
f 160/160/160 150/150/150 158/158/158
f 61/61/61 151/151/151 123/123/123
f 17/17/17 126/126/126 135/135/135
f 41/41/41 84/84/84 83/83/83
f 123/123/123 146/146/146 62/62/62
f 60/60/60 111/111/111 95/95/95
f 28/28/28 134/134/134 80/80/80
f 104/104/104 95/95/95 5/5/5
f 28/28/28 140/140/140 134/134/134
f 24/24/24 105/105/105 96/96/96
f 57/57/57 95/95/95 104/104/104
f 138/138/138 164/164/164 134/134/134
f 127/127/127 44/44/44 26/26/26
f 126/126/126 26/26/26 44/44/44
f 45/45/45 93/93/93 98/98/98
f 110/110/110 28/28/28 63/63/63
f 11/11/11 107/107/107 101/101/101
f 9/9/9 117/117/117 75/75/75
f 26/26/26 128/128/128 52/52/52
f 54/54/54 97/97/97 98/98/98
f 130/130/130 90/90/90 39/39/39
f 114/114/114 42/42/42 116/116/116
f 99/99/99 36/36/36 56/56/56
f 80/80/80 104/104/104 5/5/5
f 23/23/23 83/83/83 50/50/50
f 126/126/126 17/17/17 71/71/71
f 109/109/109 12/12/12 116/116/116
f 25/25/25 159/159/159 111/111/111
f 163/163/163 96/96/96 105/105/105
f 103/103/103 150/150/150 34/34/34
f 36/36/36 98/98/98 97/97/97
f 153/153/153 81/81/81 37/37/37
f 96/96/96 156/156/156 149/149/149
f 122/122/122 147/147/147 23/23/23
f 26/26/26 148/148/148 132/132/132
f 157/157/157 147/147/147 153/153/153
f 120/120/120 25/25/25 111/111/111
f 12/12/12 109/109/109 152/152/152
f 14/14/14 133/133/133 78/78/78
f 13/13/13 131/131/131 127/127/127
f 107/107/107 106/106/106 33/33/33
f 44/44/44 135/135/135 126/126/126
f 43/43/43 101/101/101 107/107/107
f 34/34/34 156/156/156 104/104/104
f 57/57/57 104/104/104 156/156/156
f 121/121/121 80/80/80 5/5/5
f 63/63/63 121/121/121 111/111/111
f 121/121/121 28/28/28 80/80/80
f 77/77/77 118/118/118 14/14/14
f 10/10/10 93/93/93 48/48/48
f 103/103/103 34/34/34 80/80/80
f 131/131/131 79/79/79 29/29/29
f 140/140/140 145/145/145 134/134/134
f 49/49/49 10/10/10 157/157/157
f 124/124/124 27/27/27 79/79/79
f 139/139/139 33/33/33 108/108/108
f 107/107/107 33/33/33 43/43/43
f 133/133/133 79/79/79 27/27/27
f 145/145/145 148/148/148 134/134/134
f 139/139/139 43/43/43 33/33/33
f 11/11/11 155/155/155 158/158/158
f 57/57/57 163/163/163 105/105/105
f 140/140/140 28/28/28 110/110/110
f 51/51/51 106/106/106 107/107/107
f 127/127/127 132/132/132 154/154/154
f 97/97/97 56/56/56 36/36/36
f 86/86/86 46/46/46 142/142/142
f 112/112/112 42/42/42 31/31/31
f 40/40/40 46/46/46 86/86/86
f 74/74/74 139/139/139 108/108/108
f 100/100/100 43/43/43 139/139/139
f 137/137/137 31/31/31 47/47/47
f 114/114/114 47/47/47 31/31/31
f 88/88/88 40/40/40 86/86/86
f 16/16/16 100/100/100 139/139/139
f 102/102/102 35/35/35 100/100/100
f 68/68/68 142/142/142 102/102/102
f 88/88/88 99/99/99 56/56/56
f 142/142/142 35/35/35 102/102/102
f 53/53/53 105/105/105 54/54/54
f 147/147/147 122/122/122 81/81/81
f 19/19/19 86/86/86 142/142/142
f 88/88/88 56/56/56 40/40/40
f 144/144/144 40/40/40 56/56/56
f 96/96/96 149/149/149 144/144/144
f 106/106/106 51/51/51 138/138/138
f 87/87/87 46/46/46 40/40/40
f 81/81/81 153/153/153 147/147/147
f 87/87/87 155/155/155 46/46/46
f 144/144/144 56/56/56 97/97/97
f 60/60/60 81/81/81 122/122/122
f 64/64/64 91/91/91 89/89/89
f 87/87/87 40/40/40 162/162/162
f 67/67/67 88/88/88 86/86/86
f 7/7/7 99/99/99 88/88/88
f 7/7/7 70/70/70 99/99/99
f 67/67/67 7/7/7 88/88/88
f 19/19/19 67/67/67 86/86/86
f 68/68/68 19/19/19 142/142/142
f 73/73/73 102/102/102 100/100/100
f 4/4/4 68/68/68 102/102/102
f 73/73/73 4/4/4 102/102/102
f 16/16/16 73/73/73 100/100/100
f 74/74/74 16/16/16 139/139/139
f 8/8/8 74/74/74 108/108/108
f 39/39/39 89/89/89 91/91/91
f 116/116/116 22/22/22 109/109/109
f 116/116/116 42/42/42 30/30/30
f 149/149/149 162/162/162 144/144/144
f 61/61/61 123/123/123 124/124/124
f 106/106/106 148/148/148 52/52/52
f 162/162/162 158/158/158 87/87/87
f 128/128/128 71/71/71 8/8/8
f 90/90/90 130/130/130 157/157/157
f 32/32/32 51/51/51 107/107/107
f 146/146/146 159/159/159 22/22/22
f 130/130/130 143/143/143 147/147/147
f 103/103/103 138/138/138 51/51/51
f 25/25/25 152/152/152 159/159/159
f 155/155/155 101/101/101 46/46/46
f 154/154/154 132/132/132 145/145/145
f 84/84/84 114/114/114 12/12/12
f 101/101/101 155/155/155 11/11/11
f 114/114/114 84/84/84 47/47/47
f 146/146/146 22/22/22 136/136/136
f 154/154/154 13/13/13 127/127/127
f 90/90/90 157/157/157 10/10/10
f 143/143/143 130/130/130 39/39/39
f 140/140/140 161/161/161 154/154/154
f 109/109/109 159/159/159 152/152/152
f 116/116/116 30/30/30 22/22/22
f 87/87/87 158/158/158 155/155/155
f 161/161/161 61/61/61 154/154/154
f 160/160/160 149/149/149 156/156/156
f 61/61/61 161/161/161 110/110/110
f 161/161/161 140/140/140 110/110/110
f 158/158/158 162/162/162 160/160/160
f 162/162/162 149/149/149 160/160/160
f 96/96/96 163/163/163 156/156/156
f 163/163/163 57/57/57 156/156/156
f 80/80/80 164/164/164 103/103/103
f 164/164/164 138/138/138 103/103/103
f 24/24/24 96/96/96 97/97/97
f 144/144/144 97/97/97 96/96/96
