# frame 000260 
# time 0.130500 
# name Cloth3D 
v -0.000000 0.000000 -0.000000
v 1.000000 0.000000 -0.000000
v -0.000000 1.000000 0.000000
v 1.000000 1.000000 0.000000
v 0.501209 0.500595 0.060034
v -0.000000 0.500000 0.000000
v 0.500000 1.000000 0.000000
v 1.000000 0.500000 0.000000
v 0.500000 -0.000000 0.000000
v 0.250377 0.750261 0.027812
v 0.751624 0.751487 0.037875
v 0.251972 0.250952 0.017161
v 0.750929 0.250034 0.029258
v 0.750000 0.000000 0.000000
v 0.250000 0.000000 0.000000
v 1.000000 0.750000 0.000000
v 1.000000 0.250000 0.000000
v 0.250000 1.000000 0.000000
v 0.750000 1.000000 0.000000
v 0.000000 0.250000 0.000000
v 0.000000 0.750000 -0.000000
v 0.366676 0.219439 0.034555
v 0.248271 0.500806 0.054059
v 0.500899 0.753848 0.059288
v 0.374069 0.372161 0.060186
v 0.878203 0.374706 0.033614
v 0.625714 0.122755 0.031833
v 0.627420 0.373881 0.060034
v 0.875417 0.124732 0.012406
v 0.376122 0.123740 0.023234
v 0.125727 0.125511 0.002364
v 0.752353 0.688695 0.043545
v 0.878821 0.625744 0.036716
v 0.627474 0.626899 0.060034
v 0.875982 0.875881 0.018305
v 0.375151 0.877434 0.031326
v 0.374588 0.626945 0.060034
v 0.125151 0.874971 0.009260
v 0.123296 0.625341 0.029044
v 0.626213 0.879186 0.039551
v 0.124925 0.375420 0.021942
v 0.250986 0.125046 0.012653
v 0.876310 0.750456 0.022124
v 0.876537 0.249687 0.022975
v 0.250237 0.875566 0.018213
v 0.750933 0.876727 0.025894
v 0.125966 0.250677 0.009544
v 0.124732 0.749881 0.016570
v 0.304960 0.714483 0.038117
v 0.278823 0.436071 0.047394
v 0.753144 0.625921 0.050000
v 0.879255 0.500089 0.039405
v 0.371715 0.647962 0.060186
v 0.375955 0.751399 0.040650
v 0.000000 0.375000 0.000000
v 0.500605 0.879057 0.039264
v 0.501114 0.627167 0.060035
v 0.250614 0.375885 0.034990
v 0.123347 0.500400 0.030394
v 0.374554 0.500610 0.060035
v 0.625752 0.248861 0.043199
v 0.500505 0.121220 0.038448
v 0.501038 0.373893 0.060035
v 0.000000 0.625000 0.000000
v 0.000000 0.875000 0.000000
v 0.000000 0.125000 0.000000
v 0.625000 1.000000 0.000000
v 0.875000 1.000000 0.000000
v 0.125000 1.000000 0.000000
v 0.375000 1.000000 0.000000
v 1.000000 0.375000 0.000000
v 1.000000 0.125000 0.000000
v 1.000000 0.875000 0.000000
v 1.000000 0.625000 0.000000
v 0.375000 0.000000 0.000000
v 0.125000 0.000000 0.000000
v 0.875000 0.000000 0.000000
v 0.625000 0.000000 0.000000
v 0.750376 0.124556 0.018359
v 0.627772 0.500422 0.060035
v 0.343680 0.563586 0.060112
v 0.062651 0.312791 0.008978
v 0.187349 0.438547 0.032728
v 0.188898 0.313793 0.016252
v 0.061698 0.437665 0.015115
v 0.687967 0.939173 0.017349
v 0.688816 0.815081 0.039862
v 0.562954 0.939503 0.019778
v 0.061027 0.687722 0.016895
v 0.186904 0.687712 0.030030
v 0.060289 0.562650 0.020569
v 0.187551 0.937821 0.009122
v 0.188041 0.812261 0.013250
v 0.062665 0.937353 0.000342
v 0.437907 0.563869 0.060035
v 0.519085 0.760594 0.060226
v 0.438488 0.815171 0.040775
v 0.313012 0.813587 0.029818
v 0.437708 0.939780 0.020169
v 0.937861 0.812753 0.009151
v 0.813448 0.813482 0.024413
v 0.937735 0.937716 0.005488
v 0.708338 0.592314 0.060179
v 0.564422 0.563800 0.060035
v 0.422877 0.687020 0.060179
v 0.816998 0.563111 0.050852
v 0.815458 0.688793 0.041271
v 0.940715 0.562702 0.023033
v 0.312966 0.261795 0.028218
v 0.571693 0.298259 0.060179
v 0.437910 0.437345 0.060035
v 0.187878 0.062661 0.004860
v 0.062756 0.062732 -0.002556
v 0.188961 0.188250 0.007604
v 0.312764 0.061485 0.014405
v 0.314234 0.187519 0.020979
v 0.437753 0.059678 0.021789
v 0.812724 0.062018 0.010439
v 0.937510 0.062516 0.002297
v 0.333774 0.424918 0.060179
v 0.564382 0.437233 0.060035
v 0.288308 0.484418 0.060179
v 0.562762 0.185269 0.041190
v 0.687782 0.186912 0.027539
v 0.562876 0.060040 0.021130
v 0.939369 0.312298 0.017256
v 0.814512 0.312477 0.033021
v 0.939628 0.437509 0.019272
v 0.312613 0.938568 0.014301
v 0.186423 0.625131 0.035627
v 0.813100 0.187600 0.017643
v 0.803906 0.372241 0.043732
v 0.687697 0.061698 0.013468
v 0.690931 0.437117 0.060034
v 0.937977 0.187401 0.009115
v 0.438772 0.185465 0.040224
v 0.062875 0.187774 0.005229
v 0.764789 0.518435 0.060179
v 0.939339 0.687814 0.017272
v 0.669196 0.372761 0.060179
v 0.062457 0.812452 0.007180
v 0.812926 0.938205 0.011598
v 0.184937 0.563258 0.046115
v 0.563775 0.817304 0.055102
v 0.718661 0.410443 0.060186
v 0.482531 0.229732 0.060192
v 0.239753 0.547440 0.060192
v 0.800248 0.472560 0.060192
v 0.557440 0.790247 0.060192
v 0.664744 0.649369 0.060179
v 0.518586 0.257680 0.060179
v 0.298135 0.332773 0.036026
v 0.322996 0.610830 0.060189
v 0.714773 0.300767 0.039266
v 0.750767 0.813852 0.028626
v 0.583033 0.675043 0.060107
v 0.280809 0.658147 0.047704
v 0.690084 0.759675 0.042617
v 0.412436 0.321815 0.060189
v 0.626551 0.699484 0.060186
v 0.647778 0.310238 0.049447
v 0.630309 0.773992 0.050024
v 0.511849 0.691440 0.060107
v 0.694506 0.508188 0.060107
v 0.839206 0.423251 0.046845
vt 0.000000 0.000000
vt 1.000000 0.000000
vt 0.000000 1.000000
vt 1.000000 1.000000
vt 0.500000 0.500000
vt 0.000000 0.500000
vt 0.500000 1.000000
vt 1.000000 0.500000
vt 0.500000 0.000000
vt 0.250000 0.750000
vt 0.750000 0.750000
vt 0.250000 0.250000
vt 0.750000 0.250000
vt 0.750000 0.000000
vt 0.250000 0.000000
vt 1.000000 0.750000
vt 1.000000 0.250000
vt 0.250000 1.000000
vt 0.750000 1.000000
vt 0.000000 0.250000
vt 0.000000 0.750000
vt 0.365347 0.220303
vt 0.250000 0.500000
vt 0.500000 0.750000
vt 0.374505 0.373155
vt 0.875000 0.375000
vt 0.625000 0.125000
vt 0.625000 0.375000
vt 0.875000 0.125000
vt 0.375000 0.125000
vt 0.125000 0.125000
vt 0.750000 0.687500
vt 0.875000 0.625000
vt 0.625000 0.625000
vt 0.875000 0.875000
vt 0.375000 0.875000
vt 0.375000 0.625000
vt 0.125000 0.875000
vt 0.125000 0.625000
vt 0.625000 0.875000
vt 0.125000 0.375000
vt 0.250000 0.125000
vt 0.875000 0.750000
vt 0.875000 0.250000
vt 0.250000 0.875000
vt 0.750000 0.875000
vt 0.125000 0.250000
vt 0.125000 0.750000
vt 0.304602 0.713891
vt 0.278861 0.435152
vt 0.750000 0.625000
vt 0.875000 0.500000
vt 0.372143 0.645810
vt 0.375000 0.750000
vt 0.000000 0.375000
vt 0.500000 0.875000
vt 0.500000 0.625000
vt 0.250000 0.375000
vt 0.125000 0.500000
vt 0.375000 0.500000
vt 0.625000 0.250000
vt 0.500000 0.125000
vt 0.500000 0.375000
vt 0.000000 0.625000
vt 0.000000 0.875000
vt 0.000000 0.125000
vt 0.625000 1.000000
vt 0.875000 1.000000
vt 0.125000 1.000000
vt 0.375000 1.000000
vt 1.000000 0.375000
vt 1.000000 0.125000
vt 1.000000 0.875000
vt 1.000000 0.625000
vt 0.375000 0.000000
vt 0.125000 0.000000
vt 0.875000 0.000000
vt 0.625000 0.000000
vt 0.750000 0.125000
vt 0.625000 0.500000
vt 0.344661 0.562348
vt 0.062500 0.312500
vt 0.187500 0.437500
vt 0.187500 0.312500
vt 0.062500 0.437500
vt 0.687500 0.937500
vt 0.687500 0.812500
vt 0.562500 0.937500
vt 0.062500 0.687500
vt 0.187500 0.687500
vt 0.062500 0.562500
vt 0.187500 0.937500
vt 0.187500 0.812500
vt 0.062500 0.937500
vt 0.437500 0.562500
vt 0.518045 0.756521
vt 0.437500 0.812500
vt 0.312500 0.812500
vt 0.437500 0.937500
vt 0.937500 0.812500
vt 0.812500 0.812500
vt 0.937500 0.937500
vt 0.704805 0.591094
vt 0.562500 0.562500
vt 0.422708 0.684296
vt 0.812500 0.562500
vt 0.812500 0.687500
vt 0.937500 0.562500
vt 0.311128 0.261404
vt 0.570205 0.300476
vt 0.437500 0.437500
vt 0.187500 0.062500
vt 0.062500 0.062500
vt 0.187500 0.187500
vt 0.312500 0.062500
vt 0.312500 0.187500
vt 0.437500 0.062500
vt 0.812500 0.062500
vt 0.937500 0.062500
vt 0.334711 0.425212
vt 0.562500 0.437500
vt 0.290030 0.484108
vt 0.562500 0.187500
vt 0.687500 0.187500
vt 0.562500 0.062500
vt 0.937500 0.312500
vt 0.812500 0.312500
vt 0.937500 0.437500
vt 0.312500 0.937500
vt 0.187500 0.625000
vt 0.812500 0.187500
vt 0.800716 0.372483
vt 0.687500 0.062500
vt 0.687500 0.437500
vt 0.937500 0.187500
vt 0.437500 0.187500
vt 0.062500 0.187500
vt 0.760135 0.518120
vt 0.937500 0.687500
vt 0.666328 0.373873
vt 0.062500 0.812500
vt 0.812500 0.937500
vt 0.187500 0.562500
vt 0.562500 0.812500
vt 0.715009 0.411153
vt 0.482204 0.233478
vt 0.242870 0.546594
vt 0.794808 0.472764
vt 0.556199 0.785473
vt 0.661962 0.647353
vt 0.517770 0.260761
vt 0.296906 0.332149
vt 0.324187 0.609189
vt 0.713437 0.300753
vt 0.750000 0.812500
vt 0.581168 0.672349
vt 0.281585 0.657008
vt 0.688844 0.757642
vt 0.412479 0.323573
vt 0.624360 0.696662
vt 0.646352 0.310977
vt 0.629073 0.770824
vt 0.510736 0.688401
vt 0.690882 0.507820
vt 0.834853 0.423541
vn 0.021709 0.021709 0.999529
vn 0.016990 -0.016990 0.999711
vn -0.001284 0.001284 0.999998
vn 0.042749 0.042749 0.998171
vn 0.000000 0.000000 1.000000
vn -0.277710 -0.022316 0.960406
vn 0.000761 0.314634 0.949213
vn 0.336547 -0.015290 0.941542
vn 0.002751 -0.336783 0.941578
vn -0.110428 0.130806 0.985239
vn 0.080681 0.123878 0.989012
vn -0.129414 -0.096625 0.986872
vn 0.081049 -0.126227 0.988685
vn 0.012703 -0.188688 0.981955
vn -0.039233 -0.150178 0.987880
vn 0.208781 0.032560 0.977420
vn 0.208281 -0.033752 0.977486
vn -0.020809 0.182796 0.982931
vn 0.023937 0.230079 0.972878
vn -0.108232 -0.015285 0.994008
vn -0.188759 0.039720 0.981220
vn -0.187931 -0.131805 0.973298
vn -0.219205 -0.170410 0.960682
vn -0.104361 0.168088 0.980232
vn -0.112897 -0.085592 0.989913
vn 0.184058 -0.091640 0.978634
vn 0.084699 -0.130810 0.987783
vn -0.002050 0.002586 0.999995
vn 0.070615 -0.071894 0.994909
vn -0.109948 -0.101067 0.988786
vn -0.043209 -0.039020 0.998304
vn 0.074568 0.100160 0.992173
vn 0.200949 0.067886 0.977247
vn -0.001464 -0.001520 0.999998
vn 0.100173 0.077714 0.991930
vn -0.077407 0.139641 0.987172
vn 0.004044 -0.004790 0.999980
vn -0.068375 0.053190 0.996241
vn -0.131514 0.079816 0.988096
vn 0.066848 0.215523 0.974208
vn -0.095645 -0.087741 0.991541
vn -0.087703 -0.034096 0.995563
vn 0.152485 0.087653 0.984411
vn 0.093349 -0.090580 0.991505
vn -0.087587 0.076080 0.993247
vn 0.094549 0.104203 0.990052
vn -0.036684 -0.063581 0.997302
vn -0.076042 0.093386 0.992722
vn -0.097257 0.165480 0.981406
vn -0.224156 -0.160696 0.961213
vn 0.109372 0.101194 0.988836
vn 0.252404 -0.007873 0.967590
vn -0.025011 0.036632 0.999016
vn -0.117090 0.139885 0.983220
vn -0.186840 -0.024760 0.982078
vn -0.046280 0.218211 0.974804
vn 0.000043 -0.000803 1.000000
vn -0.174931 -0.141107 0.974417
vn -0.179068 -0.053294 0.982392
vn 0.001069 0.000135 0.999999
vn 0.136404 -0.153399 0.978705
vn -0.017335 -0.190632 0.981509
vn 0.000310 0.000808 1.000000
vn -0.293064 0.014348 0.955985
vn -0.056568 0.027106 0.998031
vn -0.017186 -0.030455 0.999388
vn 0.009834 0.294738 0.955527
vn 0.024736 0.134653 0.990584
vn -0.035003 0.072288 0.996769
vn -0.024155 0.269971 0.962566
vn 0.290746 -0.009002 0.956758
vn 0.088078 -0.027115 0.995744
vn 0.115172 0.014938 0.993233
vn 0.318911 0.024788 0.947461
vn -0.030052 -0.284871 0.958095
vn -0.029110 -0.014479 0.999471
vn 0.032685 -0.099175 0.994533
vn 0.030967 -0.273272 0.961438
vn 0.065028 -0.080372 0.994641
vn -0.000504 -0.000324 1.000000
vn 0.001528 -0.000345 0.999999
vn -0.120963 -0.044711 0.991650
vn -0.139168 -0.129557 0.981757
vn -0.081938 -0.109980 0.990551
vn -0.203201 -0.041441 0.978260
vn 0.044737 0.257550 0.965229
vn 0.149332 0.067025 0.986513
vn 0.005061 0.309383 0.950924
vn -0.178150 0.052981 0.982576
vn -0.118565 0.110390 0.986791
vn -0.232643 -0.001505 0.972561
vn -0.045851 0.106011 0.993307
vn -0.074404 0.066631 0.995000
vn -0.035788 0.031832 0.998852
vn 0.000253 0.000001 1.000000
vn -0.071922 0.117756 0.990435
vn -0.105945 0.113926 0.987824
vn -0.106130 0.079494 0.991170
vn -0.028303 0.277384 0.960342
vn 0.158250 0.031536 0.986895
vn 0.075774 0.077233 0.994129
vn 0.069715 0.064767 0.995462
vn 0.085095 0.064851 0.994260
vn 0.000001 -0.000175 1.000000
vn -0.074383 0.094805 0.992713
vn 0.140337 0.072020 0.987481
vn 0.097485 0.105042 0.989678
vn 0.299906 0.010791 0.953908
vn -0.178719 -0.122429 0.976253
vn 0.089777 -0.106159 0.990288
vn 0.000639 0.000593 1.000000
vn -0.054843 -0.056772 0.996880
vn -0.007643 -0.008324 0.999936
vn -0.068598 -0.040257 0.996832
vn -0.056107 -0.139723 0.988600
vn -0.147389 -0.084475 0.985465
vn -0.044745 -0.241768 0.969302
vn 0.034514 -0.119412 0.992245
vn 0.048983 -0.046165 0.997732
vn -0.133003 -0.091168 0.986914
vn 0.000000 -0.000000 1.000000
vn -0.165620 -0.136907 0.976640
vn 0.113182 -0.134176 0.984473
vn 0.102310 -0.085106 0.991105
vn 0.030734 -0.275036 0.960943
vn 0.223105 -0.043004 0.973845
vn 0.084745 -0.132843 0.987508
vn 0.286865 -0.025594 0.957629
vn -0.049356 0.193783 0.979802
vn -0.129775 0.132556 0.982643
vn 0.042017 -0.082273 0.995724
vn 0.120619 -0.160652 0.979613
vn 0.049409 -0.196149 0.979329
vn -0.001851 0.001740 0.999997
vn 0.138816 -0.051913 0.988957
vn -0.172350 -0.192001 0.966142
vn -0.044360 -0.037344 0.998317
vn 0.055954 0.048377 0.997261
vn 0.231507 0.058587 0.971068
vn 0.053550 -0.078799 0.995451
vn -0.099234 0.048055 0.993903
vn 0.039920 0.173423 0.984038
vn -0.202756 0.059894 0.977396
vn 0.037085 0.165537 0.985506
vn 0.037300 -0.053767 0.997857
vn -0.017773 -0.143749 0.989455
vn -0.200765 -0.048805 0.978423
vn 0.141935 -0.024486 0.989573
vn 0.014759 0.145026 0.989318
vn 0.047507 0.037325 0.998173
vn 0.077886 -0.099176 0.992017
vn -0.184454 -0.157121 0.970201
vn -0.044255 0.059724 0.997233
vn 0.106799 -0.161421 0.981090
vn 0.114116 0.082225 0.990059
vn -0.000423 -0.001372 0.999999
vn -0.119473 0.173257 0.977603
vn 0.137148 0.093327 0.986144
vn -0.107963 -0.078187 0.991076
vn 0.062311 0.048040 0.996900
vn 0.142174 -0.184733 0.972451
vn 0.146272 0.106599 0.983484
vn 0.000223 -0.001454 0.999999
vn -0.000950 -0.000851 0.999999
vn 0.192340 -0.111862 0.974932
f 1/1/1 113/113/113 66/66/66
f 31/31/31 137/137/137 113/113/113
f 132/132/132 127/127/127 26/26/26
f 112/112/112 31/31/31 113/113/113
f 135/135/135 44/44/44 29/29/29
f 106/106/106 52/52/52 33/33/33
f 50/50/50 58/58/58 120/120/120
f 84/84/84 41/41/41 47/47/47
f 137/137/137 66/66/66 113/113/113
f 75/75/75 115/115/115 15/15/15
f 12/12/12 152/152/152 84/84/84
f 23/23/23 147/147/147 143/143/143
f 25/25/25 120/120/120 152/152/152
f 76/76/76 113/113/113 1/1/1
f 76/76/76 112/112/112 113/113/113
f 15/15/15 112/112/112 76/76/76
f 115/115/115 112/112/112 15/15/15
f 30/30/30 115/115/115 117/117/117
f 108/108/108 33/33/33 52/52/52
f 75/75/75 117/117/117 115/115/115
f 115/115/115 30/30/30 42/42/42
f 145/145/145 140/140/140 154/154/154
f 51/51/51 150/150/150 103/103/103
f 136/136/136 22/22/22 30/30/30
f 90/90/90 10/10/10 48/48/48
f 54/54/54 98/98/98 49/49/49
f 42/42/42 112/112/112 115/115/115
f 58/58/58 84/84/84 152/152/152
f 13/13/13 154/154/154 124/124/124
f 60/60/60 120/120/120 111/111/111
f 136/136/136 62/62/62 146/146/146
f 159/159/159 63/63/63 111/111/111
f 101/101/101 43/43/43 35/35/35
f 104/104/104 80/80/80 34/34/34
f 10/10/10 49/49/49 98/98/98
f 50/50/50 122/122/122 23/23/23
f 49/49/49 53/53/53 54/54/54
f 117/117/117 62/62/62 30/30/30
f 144/144/144 97/97/97 96/96/96
f 131/131/131 29/29/29 44/44/44
f 77/77/77 2/2/2 119/119/119
f 77/77/77 119/119/119 118/118/118
f 71/71/71 128/128/128 126/126/126
f 58/58/58 152/152/152 120/120/120
f 63/63/63 28/28/28 121/121/121
f 119/119/119 29/29/29 118/118/118
f 122/122/122 50/50/50 120/120/120
f 125/125/125 27/27/27 62/62/62
f 135/135/135 72/72/72 17/17/17
f 136/136/136 30/30/30 62/62/62
f 138/138/138 148/148/148 106/106/106
f 60/60/60 122/122/122 120/120/120
f 153/153/153 53/53/53 157/157/157
f 11/11/11 32/32/32 107/107/107
f 12/12/12 114/114/114 116/116/116
f 150/150/150 160/160/160 34/34/34
f 32/32/32 158/158/158 150/150/150
f 147/147/147 157/157/157 130/130/130
f 151/151/151 146/146/146 123/123/123
f 44/44/44 127/127/127 131/131/131
f 82/82/82 47/47/47 41/41/41
f 45/45/45 98/98/98 36/36/36
f 82/82/82 137/137/137 47/47/47
f 61/61/61 124/124/124 154/154/154
f 26/26/26 126/126/126 128/128/128
f 62/62/62 117/117/117 125/125/125
f 20/20/20 137/137/137 82/82/82
f 38/38/38 92/92/92 94/94/94
f 20/20/20 66/66/66 137/137/137
f 55/55/55 20/20/20 82/82/82
f 69/69/69 94/94/94 92/92/92
f 110/110/110 151/151/151 61/61/61
f 8/8/8 108/108/108 128/128/128
f 141/141/141 48/48/48 38/38/38
f 164/164/164 80/80/80 134/134/134
f 65/65/65 141/141/141 94/94/94
f 114/114/114 31/31/31 42/42/42
f 38/38/38 94/94/94 141/141/141
f 92/92/92 18/18/18 69/69/69
f 97/97/97 54/54/54 24/24/24
f 151/151/151 110/110/110 63/63/63
f 46/46/46 35/35/35 142/142/142
f 29/29/29 119/119/119 135/135/135
f 83/83/83 23/23/23 59/59/59
f 151/151/151 63/63/63 159/159/159
f 35/35/35 46/46/46 101/101/101
f 129/129/129 45/45/45 36/36/36
f 27/27/27 124/124/124 123/123/123
f 85/85/85 41/41/41 59/59/59
f 78/78/78 125/125/125 9/9/9
f 70/70/70 129/129/129 99/99/99
f 83/83/83 59/59/59 41/41/41
f 129/129/129 70/70/70 18/18/18
f 36/36/36 99/99/99 129/129/129
f 93/93/93 38/38/38 48/48/48
f 38/38/38 45/45/45 92/92/92
f 52/52/52 128/128/128 108/108/108
f 65/65/65 94/94/94 3/3/3
f 72/72/72 135/135/135 119/119/119
f 94/94/94 69/69/69 3/3/3
f 39/39/39 90/90/90 48/48/48
f 21/21/21 141/141/141 65/65/65
f 18/18/18 92/92/92 129/129/129
f 6/6/6 91/91/91 64/64/64
f 105/105/105 24/24/24 54/54/54
f 93/93/93 45/45/45 38/38/38
f 89/89/89 39/39/39 48/48/48
f 13/13/13 124/124/124 131/131/131
f 45/45/45 129/129/129 92/92/92
f 9/9/9 125/125/125 117/117/117
f 64/64/64 89/89/89 21/21/21
f 55/55/55 82/82/82 85/85/85
f 6/6/6 85/85/85 91/91/91
f 59/59/59 91/91/91 85/85/85
f 41/41/41 85/85/85 82/82/82
f 6/6/6 55/55/55 85/85/85
f 146/146/146 151/151/151 159/159/159
f 59/59/59 39/39/39 91/91/91
f 109/109/109 22/22/22 159/159/159
f 143/143/143 39/39/39 59/59/59
f 118/118/118 29/29/29 79/79/79
f 58/58/58 50/50/50 83/83/83
f 134/134/134 148/148/148 138/138/138
f 58/58/58 83/83/83 84/84/84
f 119/119/119 2/2/2 72/72/72
f 49/49/49 157/157/157 53/53/53
f 11/11/11 158/158/158 32/32/32
f 40/40/40 144/144/144 162/162/162
f 10/10/10 98/98/98 93/93/93
f 21/21/21 89/89/89 141/141/141
f 105/105/105 53/53/53 37/37/37
f 51/51/51 32/32/32 150/150/150
f 79/79/79 133/133/133 118/118/118
f 118/118/118 133/133/133 14/14/14
f 79/79/79 131/131/131 124/124/124
f 100/100/100 35/35/35 43/43/43
f 143/143/143 59/59/59 23/23/23
f 48/48/48 141/141/141 89/89/89
f 78/78/78 133/133/133 125/125/125
f 62/62/62 27/27/27 123/123/123
f 53/53/53 153/153/153 37/37/37
f 37/37/37 81/81/81 95/95/95
f 60/60/60 95/95/95 81/81/81
f 156/156/156 34/34/34 160/160/160
f 5/5/5 95/95/95 111/111/111
f 148/148/148 145/145/145 132/132/132
f 57/57/57 37/37/37 95/95/95
f 37/37/37 57/57/57 105/105/105
f 27/27/27 125/125/125 133/133/133
f 121/121/121 5/5/5 111/111/111
f 160/160/160 150/150/150 158/158/158
f 61/61/61 151/151/151 123/123/123
f 17/17/17 126/126/126 135/135/135
f 41/41/41 84/84/84 83/83/83
f 123/123/123 146/146/146 62/62/62
f 60/60/60 111/111/111 95/95/95
f 28/28/28 134/134/134 80/80/80
f 104/104/104 95/95/95 5/5/5
f 28/28/28 140/140/140 134/134/134
f 24/24/24 105/105/105 96/96/96
f 57/57/57 95/95/95 104/104/104
f 138/138/138 164/164/164 134/134/134
f 127/127/127 44/44/44 26/26/26
f 126/126/126 26/26/26 44/44/44
f 45/45/45 93/93/93 98/98/98
f 110/110/110 28/28/28 63/63/63
f 11/11/11 107/107/107 101/101/101
f 9/9/9 117/117/117 75/75/75
f 165/165/165 148/148/148 132/132/132
f 54/54/54 97/97/97 98/98/98
f 130/130/130 90/90/90 39/39/39
f 114/114/114 42/42/42 116/116/116
f 99/99/99 36/36/36 56/56/56
f 80/80/80 104/104/104 5/5/5
f 23/23/23 83/83/83 50/50/50
f 126/126/126 17/17/17 71/71/71
f 109/109/109 12/12/12 116/116/116
f 25/25/25 159/159/159 111/111/111
f 163/163/163 96/96/96 105/105/105
f 103/103/103 150/150/150 34/34/34
f 36/36/36 98/98/98 97/97/97
f 153/153/153 81/81/81 37/37/37
f 96/96/96 156/156/156 149/149/149
f 122/122/122 147/147/147 23/23/23
f 24/24/24 96/96/96 97/97/97
f 157/157/157 147/147/147 153/153/153
f 120/120/120 25/25/25 111/111/111
f 12/12/12 109/109/109 152/152/152
f 14/14/14 133/133/133 78/78/78
f 13/13/13 131/131/131 127/127/127
f 107/107/107 106/106/106 33/33/33
f 44/44/44 135/135/135 126/126/126
f 43/43/43 101/101/101 107/107/107
f 34/34/34 156/156/156 104/104/104
f 57/57/57 104/104/104 156/156/156
f 121/121/121 80/80/80 5/5/5
f 63/63/63 121/121/121 111/111/111
f 121/121/121 28/28/28 80/80/80
f 77/77/77 118/118/118 14/14/14
f 10/10/10 93/93/93 48/48/48
f 103/103/103 34/34/34 80/80/80
f 131/131/131 79/79/79 29/29/29
f 140/140/140 145/145/145 134/134/134
f 49/49/49 10/10/10 157/157/157
f 124/124/124 27/27/27 79/79/79
f 139/139/139 33/33/33 108/108/108
f 107/107/107 33/33/33 43/43/43
f 133/133/133 79/79/79 27/27/27
f 145/145/145 148/148/148 134/134/134
f 139/139/139 43/43/43 33/33/33
f 11/11/11 155/155/155 158/158/158
f 57/57/57 163/163/163 105/105/105
f 140/140/140 28/28/28 110/110/110
f 51/51/51 106/106/106 107/107/107
f 127/127/127 132/132/132 154/154/154
f 97/97/97 56/56/56 36/36/36
f 86/86/86 46/46/46 142/142/142
f 112/112/112 42/42/42 31/31/31
f 40/40/40 46/46/46 86/86/86
f 74/74/74 139/139/139 108/108/108
f 100/100/100 43/43/43 139/139/139
f 137/137/137 31/31/31 47/47/47
f 114/114/114 47/47/47 31/31/31
f 88/88/88 40/40/40 86/86/86
f 16/16/16 100/100/100 139/139/139
f 102/102/102 35/35/35 100/100/100
f 68/68/68 142/142/142 102/102/102
f 88/88/88 99/99/99 56/56/56
f 142/142/142 35/35/35 102/102/102
f 53/53/53 105/105/105 54/54/54
f 147/147/147 122/122/122 81/81/81
f 19/19/19 86/86/86 142/142/142
f 88/88/88 56/56/56 40/40/40
f 144/144/144 40/40/40 56/56/56
f 96/96/96 149/149/149 144/144/144
f 106/106/106 51/51/51 138/138/138
f 87/87/87 46/46/46 40/40/40
f 81/81/81 153/153/153 147/147/147
f 87/87/87 155/155/155 46/46/46
f 144/144/144 56/56/56 97/97/97
f 60/60/60 81/81/81 122/122/122
f 64/64/64 91/91/91 89/89/89
f 87/87/87 40/40/40 162/162/162
f 67/67/67 88/88/88 86/86/86
f 7/7/7 99/99/99 88/88/88
f 7/7/7 70/70/70 99/99/99
f 67/67/67 7/7/7 88/88/88
f 19/19/19 67/67/67 86/86/86
f 68/68/68 19/19/19 142/142/142
f 73/73/73 102/102/102 100/100/100
f 4/4/4 68/68/68 102/102/102
f 73/73/73 4/4/4 102/102/102
f 16/16/16 73/73/73 100/100/100
f 74/74/74 16/16/16 139/139/139
f 8/8/8 74/74/74 108/108/108
f 39/39/39 89/89/89 91/91/91
f 116/116/116 22/22/22 109/109/109
f 116/116/116 42/42/42 30/30/30
f 149/149/149 162/162/162 144/144/144
f 61/61/61 123/123/123 124/124/124
f 106/106/106 148/148/148 52/52/52
f 162/162/162 158/158/158 87/87/87
f 128/128/128 71/71/71 8/8/8
f 90/90/90 130/130/130 157/157/157
f 32/32/32 51/51/51 107/107/107
f 146/146/146 159/159/159 22/22/22
f 130/130/130 143/143/143 147/147/147
f 103/103/103 138/138/138 51/51/51
f 25/25/25 152/152/152 159/159/159
f 155/155/155 101/101/101 46/46/46
f 154/154/154 132/132/132 145/145/145
f 84/84/84 114/114/114 12/12/12
f 101/101/101 155/155/155 11/11/11
f 114/114/114 84/84/84 47/47/47
f 146/146/146 22/22/22 136/136/136
f 154/154/154 13/13/13 127/127/127
f 90/90/90 157/157/157 10/10/10
f 143/143/143 130/130/130 39/39/39
f 140/140/140 161/161/161 154/154/154
f 109/109/109 159/159/159 152/152/152
f 116/116/116 30/30/30 22/22/22
f 87/87/87 158/158/158 155/155/155
f 161/161/161 61/61/61 154/154/154
f 160/160/160 149/149/149 156/156/156
f 61/61/61 161/161/161 110/110/110
f 161/161/161 140/140/140 110/110/110
f 158/158/158 162/162/162 160/160/160
f 162/162/162 149/149/149 160/160/160
f 96/96/96 163/163/163 156/156/156
f 163/163/163 57/57/57 156/156/156
f 80/80/80 164/164/164 103/103/103
f 164/164/164 138/138/138 103/103/103
f 148/148/148 165/165/165 52/52/52
f 26/26/26 165/165/165 132/132/132
f 52/52/52 165/165/165 128/128/128
f 26/26/26 128/128/128 165/165/165
