# frame 000272 
# time 0.136500 
# name Cloth3D 
v -0.000000 0.000000 -0.000000
v 1.000000 0.000000 -0.000000
v -0.000000 1.000000 0.000000
v 1.000000 1.000000 0.000000
v 0.500683 0.500265 0.063034
v -0.000000 0.500000 0.000000
v 0.500000 1.000000 0.000000
v 1.000000 0.500000 0.000000
v 0.500000 -0.000000 0.000000
v 0.249625 0.750729 0.033465
v 0.751948 0.751894 0.043566
v 0.251432 0.250730 0.020683
v 0.751088 0.249684 0.033912
v 0.750000 0.000000 0.000000
v 0.250000 0.000000 0.000000
v 1.000000 0.750000 0.000000
v 1.000000 0.250000 0.000000
v 0.250000 1.000000 0.000000
v 0.750000 1.000000 0.000000
v 0.000000 0.250000 0.000000
v 0.000000 0.750000 -0.000000
v 0.365789 0.218756 0.040607
v 0.247216 0.500288 0.058980
v 0.500043 0.751057 0.063218
v 0.374513 0.372490 0.063186
v 0.878171 0.374689 0.035624
v 0.625633 0.122422 0.033285
v 0.627094 0.373675 0.063034
v 0.875701 0.124432 0.016265
v 0.375628 0.123414 0.027105
v 0.125423 0.125323 0.006510
v 0.752574 0.688992 0.048579
v 0.878770 0.625843 0.038668
v 0.627096 0.626901 0.063034
v 0.876355 0.876364 0.021903
v 0.374881 0.877685 0.033213
v 0.259675 0.600615 0.056705
v 0.124757 0.875365 0.013478
v 0.122795 0.625382 0.031510
v 0.625896 0.879098 0.039408
v 0.124026 0.375178 0.026135
v 0.250581 0.124799 0.016142
v 0.876600 0.750839 0.026343
v 0.876666 0.249612 0.025194
v 0.249804 0.876129 0.022835
v 0.750996 0.877052 0.028511
v 0.125388 0.250472 0.013430
v 0.124150 0.750334 0.021684
v 0.304187 0.714753 0.043068
v 0.694199 0.508159 0.063107
v 0.753428 0.626390 0.057035
v 0.878332 0.500122 0.038285
v 0.371812 0.646822 0.063186
v 0.375020 0.751854 0.047078
v 0.000000 0.375000 0.000000
v 0.500345 0.878536 0.038300
v 0.500612 0.626959 0.063035
v 0.249611 0.375271 0.040812
v 0.122630 0.500270 0.033352
v 0.373967 0.500210 0.063035
v 0.625870 0.248243 0.048675
v 0.500336 0.121056 0.039536
v 0.500611 0.373504 0.063035
v 0.000000 0.625000 0.000000
v 0.000000 0.875000 0.000000
v 0.000000 0.125000 0.000000
v 0.625000 1.000000 0.000000
v 0.875000 1.000000 0.000000
v 0.125000 1.000000 0.000000
v 0.375000 1.000000 0.000000
v 1.000000 0.375000 0.000000
v 1.000000 0.125000 0.000000
v 1.000000 0.875000 0.000000
v 1.000000 0.625000 0.000000
v 0.375000 0.000000 0.000000
v 0.125000 0.000000 0.000000
v 0.875000 0.000000 0.000000
v 0.625000 0.000000 0.000000
v 0.750606 0.124030 0.023094
v 0.627343 0.500279 0.063035
v 0.343062 0.563212 0.063112
v 0.062175 0.312691 0.011369
v 0.186371 0.438112 0.037475
v 0.187993 0.313313 0.022526
v 0.061227 0.437597 0.016902
v 0.687831 0.938756 0.016163
v 0.688835 0.815550 0.044149
v 0.562773 0.939008 0.018393
v 0.061054 0.687726 0.016628
v 0.186315 0.687902 0.033696
v 0.060139 0.562651 0.020862
v 0.187383 0.938128 0.011228
v 0.187557 0.812689 0.017728
v 0.062557 0.937469 0.002473
v 0.437328 0.563526 0.063035
v 0.838686 0.423252 0.047331
v 0.437601 0.815735 0.047373
v 0.312315 0.814104 0.035361
v 0.437586 0.939849 0.020766
v 0.937756 0.812906 0.009959
v 0.814017 0.814152 0.031645
v 0.937888 0.937894 0.007089
v 0.709422 0.593428 0.063179
v 0.563957 0.563614 0.063035
v 0.421860 0.687464 0.063179
v 0.817054 0.563246 0.054579
v 0.815871 0.689168 0.046737
v 0.939414 0.562706 0.019943
v 0.311643 0.260938 0.035915
v 0.573023 0.295863 0.063179
v 0.437389 0.436922 0.063035
v 0.187685 0.062394 0.007985
v 0.062717 0.062711 -0.000504
v 0.188492 0.188070 0.011541
v 0.312720 0.061557 0.014034
v 0.313470 0.187066 0.026555
v 0.437669 0.059897 0.021309
v 0.812785 0.061865 0.011657
v 0.937597 0.062419 0.004179
v 0.332619 0.424058 0.063179
v 0.563930 0.436945 0.063035
v 0.285308 0.482267 0.063179
v 0.562881 0.184595 0.046169
v 0.688284 0.186129 0.035541
v 0.562771 0.060141 0.020858
v 0.939102 0.312383 0.016926
v 0.814832 0.312004 0.038820
v 0.938494 0.437559 0.016558
v 0.312436 0.938952 0.016439
v 0.185082 0.625747 0.043324
v 0.813389 0.187101 0.023860
v 0.804370 0.371544 0.050756
v 0.687683 0.061822 0.013365
v 0.690633 0.437057 0.063034
v 0.938237 0.187295 0.011596
v 0.438387 0.185272 0.042519
v 0.062497 0.187646 0.008222
v 0.768132 0.521191 0.063179
v 0.939337 0.687903 0.018369
v 0.668375 0.373359 0.063179
v 0.062142 0.812648 0.009790
v 0.812980 0.938263 0.012422
v 0.184315 0.563112 0.049244
v 0.426822 0.223868 0.051357
v 0.716747 0.412556 0.063186
v 0.490955 0.228735 0.063192
v 0.238757 0.539016 0.063192
v 0.801244 0.480984 0.063192
v 0.549016 0.791243 0.063192
v 0.664109 0.649183 0.063179
v 0.467530 0.288516 0.063184
v 0.297068 0.332065 0.042097
v 0.324222 0.608242 0.063189
v 0.714785 0.300513 0.043081
v 0.751548 0.814789 0.038451
v 0.582617 0.675082 0.063107
v 0.280178 0.657978 0.050819
v 0.690206 0.760059 0.047111
v 0.414390 0.323297 0.063189
v 0.624405 0.698161 0.063186
v 0.647974 0.309527 0.055340
v 0.630181 0.774251 0.053411
vt 0.000000 0.000000
vt 1.000000 0.000000
vt 0.000000 1.000000
vt 1.000000 1.000000
vt 0.500000 0.500000
vt 0.000000 0.500000
vt 0.500000 1.000000
vt 1.000000 0.500000
vt 0.500000 0.000000
vt 0.250000 0.750000
vt 0.750000 0.750000
vt 0.250000 0.250000
vt 0.750000 0.250000
vt 0.750000 0.000000
vt 0.250000 0.000000
vt 1.000000 0.750000
vt 1.000000 0.250000
vt 0.250000 1.000000
vt 0.750000 1.000000
vt 0.000000 0.250000
vt 0.000000 0.750000
vt 0.365347 0.220303
vt 0.250000 0.500000
vt 0.499625 0.747143
vt 0.375385 0.373848
vt 0.875000 0.375000
vt 0.625000 0.125000
vt 0.625000 0.375000
vt 0.875000 0.125000
vt 0.375000 0.125000
vt 0.125000 0.125000
vt 0.750000 0.687500
vt 0.875000 0.625000
vt 0.625000 0.625000
vt 0.875000 0.875000
vt 0.375000 0.875000
vt 0.262101 0.599801
vt 0.125000 0.875000
vt 0.125000 0.625000
vt 0.625000 0.875000
vt 0.125000 0.375000
vt 0.250000 0.125000
vt 0.875000 0.750000
vt 0.875000 0.250000
vt 0.250000 0.875000
vt 0.750000 0.875000
vt 0.125000 0.250000
vt 0.125000 0.750000
vt 0.304602 0.713891
vt 0.690882 0.507820
vt 0.750000 0.625000
vt 0.875000 0.500000
vt 0.372806 0.644966
vt 0.375000 0.750000
vt 0.000000 0.375000
vt 0.500000 0.875000
vt 0.500000 0.625000
vt 0.250000 0.375000
vt 0.125000 0.500000
vt 0.375000 0.500000
vt 0.625000 0.250000
vt 0.500000 0.125000
vt 0.500000 0.375000
vt 0.000000 0.625000
vt 0.000000 0.875000
vt 0.000000 0.125000
vt 0.625000 1.000000
vt 0.875000 1.000000
vt 0.125000 1.000000
vt 0.375000 1.000000
vt 1.000000 0.375000
vt 1.000000 0.125000
vt 1.000000 0.875000
vt 1.000000 0.625000
vt 0.375000 0.000000
vt 0.125000 0.000000
vt 0.875000 0.000000
vt 0.625000 0.000000
vt 0.750000 0.125000
vt 0.625000 0.500000
vt 0.344661 0.562348
vt 0.062500 0.312500
vt 0.187500 0.437500
vt 0.187500 0.312500
vt 0.062500 0.437500
vt 0.687500 0.937500
vt 0.687500 0.812500
vt 0.562500 0.937500
vt 0.062500 0.687500
vt 0.187500 0.687500
vt 0.062500 0.562500
vt 0.187500 0.937500
vt 0.187500 0.812500
vt 0.062500 0.937500
vt 0.437500 0.562500
vt 0.834853 0.423541
vt 0.437500 0.812500
vt 0.312500 0.812500
vt 0.437500 0.937500
vt 0.937500 0.812500
vt 0.812500 0.812500
vt 0.937500 0.937500
vt 0.706149 0.592145
vt 0.562500 0.562500
vt 0.422225 0.684914
vt 0.812500 0.562500
vt 0.812500 0.687500
vt 0.937500 0.562500
vt 0.311128 0.261404
vt 0.571815 0.298418
vt 0.437500 0.437500
vt 0.187500 0.062500
vt 0.062500 0.062500
vt 0.187500 0.187500
vt 0.312500 0.062500
vt 0.312500 0.187500
vt 0.437500 0.062500
vt 0.812500 0.062500
vt 0.937500 0.062500
vt 0.334091 0.424727
vt 0.562500 0.437500
vt 0.287721 0.482313
vt 0.562500 0.187500
vt 0.687500 0.187500
vt 0.562500 0.062500
vt 0.937500 0.312500
vt 0.812500 0.312500
vt 0.937500 0.437500
vt 0.312500 0.937500
vt 0.187500 0.625000
vt 0.812500 0.187500
vt 0.800716 0.372483
vt 0.687500 0.062500
vt 0.687500 0.437500
vt 0.937500 0.187500
vt 0.437500 0.187500
vt 0.062500 0.187500
vt 0.763561 0.520802
vt 0.937500 0.687500
vt 0.665773 0.374580
vt 0.062500 0.812500
vt 0.812500 0.937500
vt 0.187500 0.562500
vt 0.426610 0.226694
vt 0.713327 0.413281
vt 0.490725 0.232912
vt 0.242596 0.538605
vt 0.795809 0.481065
vt 0.548162 0.786240
vt 0.661636 0.647099
vt 0.467440 0.291396
vt 0.296906 0.332149
vt 0.325965 0.606933
vt 0.713437 0.300753
vt 0.750000 0.812500
vt 0.581168 0.672349
vt 0.281585 0.657008
vt 0.688844 0.757642
vt 0.414793 0.325406
vt 0.622565 0.695250
vt 0.646352 0.310977
vt 0.629073 0.770824
vn 0.005389 0.005389 0.999971
vn 0.032285 -0.032285 0.998957
vn -0.018381 0.018381 0.999662
vn 0.055949 0.055949 0.996865
vn 0.000000 0.000000 1.000000
vn -0.296783 -0.017171 0.954791
vn 0.009657 0.308294 0.951242
vn 0.290500 -0.014204 0.956770
vn 0.002282 -0.332869 0.942970
vn -0.111664 0.120984 0.986354
vn 0.068399 0.089014 0.993679
vn -0.154868 -0.107745 0.982042
vn 0.079400 -0.107208 0.991061
vn 0.006991 -0.197867 0.980204
vn -0.025594 -0.173435 0.984513
vn 0.224002 0.034131 0.973991
vn 0.225517 -0.022449 0.973980
vn -0.020964 0.217164 0.975910
vn 0.015532 0.226841 0.973808
vn -0.152035 -0.012607 0.988295
vn -0.208788 0.028745 0.977538
vn -0.163097 -0.153614 0.974578
vn -0.209693 -0.143699 0.967150
vn -0.061981 0.072021 0.995475
vn -0.093926 -0.075737 0.992694
vn 0.235016 -0.055332 0.970415
vn 0.071263 -0.182643 0.980593
vn -0.002123 0.002581 0.999994
vn 0.085307 -0.088902 0.992380
vn -0.097196 -0.137953 0.985658
vn -0.052324 -0.048451 0.997454
vn 0.055895 0.108848 0.992486
vn 0.245161 0.044645 0.968454
vn -0.001468 -0.001588 0.999998
vn 0.119507 0.099734 0.987811
vn -0.065188 0.176447 0.982149
vn -0.132489 0.142136 0.980940
vn -0.080298 0.068943 0.994384
vn -0.181532 0.075702 0.980467
vn 0.051400 0.249133 0.967104
vn -0.121905 -0.081827 0.989163
vn -0.083643 -0.060616 0.994650
vn 0.195355 0.081659 0.977327
vn 0.132218 -0.080530 0.987944
vn -0.085802 0.098380 0.991443
vn 0.075943 0.177275 0.981227
vn -0.055088 -0.067237 0.996215
vn -0.103661 0.082884 0.991153
vn -0.099116 0.142778 0.984779
vn -0.000914 -0.000845 0.999999
vn 0.085871 0.094280 0.991835
vn 0.296559 -0.016162 0.954878
vn -0.064088 0.082951 0.994491
vn -0.115727 0.121291 0.985848
vn -0.220627 -0.022545 0.975098
vn -0.028299 0.255827 0.966308
vn 0.000199 -0.000787 1.000000
vn -0.169011 -0.141943 0.975340
vn -0.189636 -0.043761 0.980879
vn 0.001041 0.000125 0.999999
vn 0.123292 -0.142272 0.982119
vn -0.019637 -0.215151 0.976383
vn 0.000355 0.000949 0.999999
vn -0.297008 0.017135 0.954721
vn -0.094772 0.029119 0.995073
vn -0.058221 -0.034665 0.997702
vn 0.008722 0.273451 0.961847
vn 0.021515 0.154439 0.987768
vn -0.035137 0.106747 0.993665
vn -0.018075 0.292249 0.956171
vn 0.266133 0.001378 0.963935
vn 0.123396 -0.029549 0.991917
vn 0.134433 0.011466 0.990856
vn 0.303483 0.007423 0.952808
vn -0.029764 -0.280650 0.959349
vn -0.033606 -0.056106 0.997859
vn 0.030237 -0.124755 0.991727
vn 0.030657 -0.270697 0.962176
vn 0.061415 -0.132010 0.989344
vn -0.000498 -0.000320 1.000000
vn 0.001064 -0.000900 0.999999
vn -0.154154 -0.043332 0.987096
vn -0.156864 -0.105271 0.981994
vn -0.090699 -0.118140 0.988846
vn -0.232318 -0.034737 0.972019
vn 0.034736 0.268267 0.962718
vn 0.097347 0.094970 0.990709
vn 0.006885 0.306372 0.951887
vn -0.208113 0.043253 0.977148
vn -0.130257 0.124372 0.983649
vn -0.253688 0.003609 0.967279
vn -0.046783 0.141935 0.988770
vn -0.077029 0.074186 0.994265
vn -0.053102 0.050084 0.997332
vn 0.000470 -0.000527 1.000000
vn 0.256083 -0.063789 0.964548
vn -0.091412 0.148461 0.984684
vn -0.107336 0.095890 0.989588
vn -0.014915 0.281639 0.959404
vn 0.189444 0.031298 0.981393
vn 0.102971 0.097588 0.989886
vn 0.082338 0.077264 0.993605
vn 0.053398 0.043350 0.997632
vn 0.000000 -0.000175 1.000000
vn -0.069188 0.085456 0.993937
vn 0.173358 0.054103 0.983372
vn 0.111374 0.100414 0.988693
vn 0.302100 -0.003974 0.953268
vn -0.203766 -0.127130 0.970730
vn 0.077636 -0.094037 0.992537
vn 0.000643 0.000611 1.000000
vn -0.049044 -0.087518 0.994955
vn -0.026380 -0.026922 0.999289
vn -0.069302 -0.044507 0.996602
vn -0.049839 -0.168924 0.984368
vn -0.157633 -0.107765 0.981600
vn -0.039690 -0.261461 0.964398
vn 0.032148 -0.153934 0.987558
vn 0.063262 -0.062905 0.996012
vn -0.086769 -0.072088 0.993617
vn 0.000000 -0.000000 1.000000
vn -0.101358 -0.082697 0.991407
vn 0.096025 -0.157455 0.982846
vn 0.095601 -0.101696 0.990211
vn 0.029389 -0.286503 0.957628
vn 0.239754 -0.031503 0.970322
vn 0.109600 -0.140736 0.983962
vn 0.285491 -0.012534 0.958300
vn -0.041052 0.220129 0.974606
vn -0.161486 0.126044 0.978793
vn 0.064467 -0.085353 0.994263
vn 0.155776 -0.135740 0.978422
vn 0.040194 -0.221550 0.974320
vn -0.002040 0.001917 0.999996
vn 0.163376 -0.044248 0.985571
vn -0.145628 -0.228411 0.962612
vn -0.076523 -0.037584 0.996359
vn 0.056823 0.044780 0.997379
vn 0.255084 0.046273 0.965811
vn 0.054881 -0.066073 0.996304
vn -0.137099 0.045300 0.989521
vn 0.031776 0.198894 0.979506
vn -0.203139 0.041485 0.978271
vn -0.157251 -0.230196 0.960355
vn 0.027299 -0.042943 0.998704
vn -0.050800 -0.151970 0.987079
vn -0.195992 -0.030068 0.980144
vn 0.166646 -0.004342 0.986007
vn 0.007432 0.125282 0.992093
vn 0.036039 0.034137 0.998767
vn 0.000361 0.000827 1.000000
vn -0.177678 -0.146256 0.973160
vn -0.057540 0.071332 0.995792
vn 0.110426 -0.147192 0.982925
vn 0.098072 0.112697 0.988778
vn -0.000448 -0.001432 0.999999
vn -0.113141 0.154847 0.981438
vn 0.105799 0.079254 0.991224
vn -0.077616 -0.059512 0.995206
vn 0.051586 0.041843 0.997792
vn 0.145292 -0.163801 0.975735
vn 0.125063 0.107083 0.986353
f 1/1/1 113/113/113 66/66/66
f 31/31/31 137/137/137 113/113/113
f 132/132/132 127/127/127 26/26/26
f 112/112/112 31/31/31 113/113/113
f 135/135/135 44/44/44 29/29/29
f 106/106/106 52/52/52 33/33/33
f 24/24/24 57/57/57 156/156/156
f 84/84/84 41/41/41 47/47/47
f 137/137/137 66/66/66 113/113/113
f 75/75/75 115/115/115 15/15/15
f 12/12/12 152/152/152 84/84/84
f 23/23/23 147/147/147 143/143/143
f 25/25/25 120/120/120 152/152/152
f 76/76/76 113/113/113 1/1/1
f 76/76/76 112/112/112 113/113/113
f 15/15/15 112/112/112 76/76/76
f 115/115/115 112/112/112 15/15/15
f 30/30/30 115/115/115 117/117/117
f 108/108/108 33/33/33 52/52/52
f 75/75/75 117/117/117 115/115/115
f 115/115/115 30/30/30 42/42/42
f 145/145/145 140/140/140 154/154/154
f 51/51/51 150/150/150 103/103/103
f 136/136/136 22/22/22 30/30/30
f 90/90/90 10/10/10 48/48/48
f 54/54/54 98/98/98 49/49/49
f 42/42/42 112/112/112 115/115/115
f 58/58/58 84/84/84 152/152/152
f 13/13/13 154/154/154 124/124/124
f 60/60/60 120/120/120 111/111/111
f 136/136/136 62/62/62 146/146/146
f 159/159/159 63/63/63 111/111/111
f 101/101/101 43/43/43 35/35/35
f 104/104/104 80/80/80 34/34/34
f 10/10/10 49/49/49 98/98/98
f 24/24/24 156/156/156 149/149/149
f 49/49/49 53/53/53 54/54/54
f 117/117/117 62/62/62 30/30/30
f 95/95/95 57/57/57 105/105/105
f 131/131/131 29/29/29 44/44/44
f 77/77/77 2/2/2 119/119/119
f 77/77/77 119/119/119 118/118/118
f 71/71/71 128/128/128 126/126/126
f 58/58/58 152/152/152 120/120/120
f 63/63/63 28/28/28 121/121/121
f 119/119/119 29/29/29 118/118/118
f 57/57/57 24/24/24 105/105/105
f 125/125/125 27/27/27 62/62/62
f 135/135/135 72/72/72 17/17/17
f 136/136/136 30/30/30 62/62/62
f 138/138/138 148/148/148 106/106/106
f 60/60/60 122/122/122 120/120/120
f 153/153/153 53/53/53 157/157/157
f 11/11/11 32/32/32 107/107/107
f 12/12/12 114/114/114 116/116/116
f 150/150/150 160/160/160 34/34/34
f 32/32/32 158/158/158 150/150/150
f 23/23/23 83/83/83 58/58/58
f 63/63/63 151/151/151 110/110/110
f 44/44/44 127/127/127 131/131/131
f 82/82/82 47/47/47 41/41/41
f 45/45/45 98/98/98 36/36/36
f 82/82/82 137/137/137 47/47/47
f 61/61/61 124/124/124 154/154/154
f 26/26/26 126/126/126 128/128/128
f 62/62/62 117/117/117 125/125/125
f 20/20/20 137/137/137 82/82/82
f 38/38/38 92/92/92 94/94/94
f 20/20/20 66/66/66 137/137/137
f 55/55/55 20/20/20 82/82/82
f 69/69/69 94/94/94 92/92/92
f 159/159/159 151/151/151 63/63/63
f 8/8/8 108/108/108 128/128/128
f 141/141/141 48/48/48 38/38/38
f 50/50/50 80/80/80 134/134/134
f 65/65/65 141/141/141 94/94/94
f 114/114/114 31/31/31 42/42/42
f 38/38/38 94/94/94 141/141/141
f 92/92/92 18/18/18 69/69/69
f 24/24/24 149/149/149 97/97/97
f 151/151/151 159/159/159 146/146/146
f 46/46/46 35/35/35 142/142/142
f 29/29/29 119/119/119 135/135/135
f 40/40/40 149/149/149 162/162/162
f 23/23/23 143/143/143 83/83/83
f 35/35/35 46/46/46 101/101/101
f 129/129/129 45/45/45 36/36/36
f 27/27/27 124/124/124 123/123/123
f 85/85/85 41/41/41 59/59/59
f 78/78/78 125/125/125 9/9/9
f 70/70/70 129/129/129 99/99/99
f 83/83/83 59/59/59 41/41/41
f 129/129/129 70/70/70 18/18/18
f 36/36/36 99/99/99 129/129/129
f 93/93/93 38/38/38 48/48/48
f 38/38/38 45/45/45 92/92/92
f 52/52/52 128/128/128 108/108/108
f 65/65/65 94/94/94 3/3/3
f 72/72/72 135/135/135 119/119/119
f 94/94/94 69/69/69 3/3/3
f 39/39/39 90/90/90 48/48/48
f 21/21/21 141/141/141 65/65/65
f 18/18/18 92/92/92 129/129/129
f 6/6/6 91/91/91 64/64/64
f 153/153/153 81/81/81 53/53/53
f 93/93/93 45/45/45 38/38/38
f 89/89/89 39/39/39 48/48/48
f 13/13/13 124/124/124 131/131/131
f 45/45/45 129/129/129 92/92/92
f 9/9/9 125/125/125 117/117/117
f 64/64/64 89/89/89 21/21/21
f 55/55/55 82/82/82 85/85/85
f 6/6/6 85/85/85 91/91/91
f 59/59/59 91/91/91 85/85/85
f 41/41/41 85/85/85 82/82/82
f 6/6/6 55/55/55 85/85/85
f 59/59/59 83/83/83 143/143/143
f 59/59/59 39/39/39 91/91/91
f 109/109/109 22/22/22 159/159/159
f 143/143/143 39/39/39 59/59/59
f 118/118/118 29/29/29 79/79/79
f 162/162/162 149/149/149 160/160/160
f 134/134/134 148/148/148 138/138/138
f 58/58/58 83/83/83 84/84/84
f 119/119/119 2/2/2 72/72/72
f 49/49/49 157/157/157 53/53/53
f 11/11/11 158/158/158 32/32/32
f 144/144/144 146/146/146 159/159/159
f 10/10/10 98/98/98 93/93/93
f 21/21/21 89/89/89 141/141/141
f 97/97/97 54/54/54 24/24/24
f 51/51/51 32/32/32 150/150/150
f 79/79/79 133/133/133 118/118/118
f 118/118/118 133/133/133 14/14/14
f 79/79/79 131/131/131 124/124/124
f 100/100/100 35/35/35 43/43/43
f 149/149/149 40/40/40 56/56/56
f 48/48/48 141/141/141 89/89/89
f 78/78/78 133/133/133 125/125/125
f 62/62/62 27/27/27 123/123/123
f 147/147/147 37/37/37 143/143/143
f 148/148/148 96/96/96 52/52/52
f 60/60/60 95/95/95 81/81/81
f 156/156/156 34/34/34 160/160/160
f 5/5/5 95/95/95 111/111/111
f 148/148/148 145/145/145 132/132/132
f 130/130/130 143/143/143 37/37/37
f 157/157/157 37/37/37 153/153/153
f 27/27/27 125/125/125 133/133/133
f 121/121/121 5/5/5 111/111/111
f 160/160/160 150/150/150 158/158/158
f 122/122/122 58/58/58 120/120/120
f 17/17/17 126/126/126 135/135/135
f 41/41/41 84/84/84 83/83/83
f 123/123/123 146/146/146 62/62/62
f 60/60/60 111/111/111 95/95/95
f 28/28/28 134/134/134 80/80/80
f 104/104/104 95/95/95 5/5/5
f 28/28/28 140/140/140 134/134/134
f 26/26/26 128/128/128 96/96/96
f 57/57/57 95/95/95 104/104/104
f 138/138/138 50/50/50 134/134/134
f 127/127/127 44/44/44 26/26/26
f 126/126/126 26/26/26 44/44/44
f 45/45/45 93/93/93 98/98/98
f 110/110/110 28/28/28 63/63/63
f 11/11/11 107/107/107 101/101/101
f 9/9/9 117/117/117 75/75/75
f 96/96/96 148/148/148 132/132/132
f 54/54/54 97/97/97 98/98/98
f 130/130/130 90/90/90 39/39/39
f 114/114/114 42/42/42 116/116/116
f 99/99/99 36/36/36 56/56/56
f 80/80/80 104/104/104 5/5/5
f 95/95/95 53/53/53 81/81/81
f 126/126/126 17/17/17 71/71/71
f 109/109/109 12/12/12 116/116/116
f 25/25/25 159/159/159 111/111/111
f 52/52/52 96/96/96 128/128/128
f 103/103/103 150/150/150 34/34/34
f 36/36/36 98/98/98 97/97/97
f 37/37/37 157/157/157 130/130/130
f 105/105/105 53/53/53 95/95/95
f 122/122/122 147/147/147 23/23/23
f 26/26/26 96/96/96 132/132/132
f 50/50/50 138/138/138 103/103/103
f 120/120/120 25/25/25 111/111/111
f 12/12/12 109/109/109 152/152/152
f 14/14/14 133/133/133 78/78/78
f 13/13/13 131/131/131 127/127/127
f 107/107/107 106/106/106 33/33/33
f 44/44/44 135/135/135 126/126/126
f 43/43/43 101/101/101 107/107/107
f 34/34/34 156/156/156 104/104/104
f 57/57/57 104/104/104 156/156/156
f 121/121/121 80/80/80 5/5/5
f 63/63/63 121/121/121 111/111/111
f 121/121/121 28/28/28 80/80/80
f 77/77/77 118/118/118 14/14/14
f 10/10/10 93/93/93 48/48/48
f 103/103/103 34/34/34 80/80/80
f 131/131/131 79/79/79 29/29/29
f 140/140/140 145/145/145 134/134/134
f 49/49/49 10/10/10 157/157/157
f 124/124/124 27/27/27 79/79/79
f 139/139/139 33/33/33 108/108/108
f 107/107/107 33/33/33 43/43/43
f 133/133/133 79/79/79 27/27/27
f 145/145/145 148/148/148 134/134/134
f 139/139/139 43/43/43 33/33/33
f 11/11/11 155/155/155 158/158/158
f 80/80/80 50/50/50 103/103/103
f 140/140/140 28/28/28 110/110/110
f 51/51/51 106/106/106 107/107/107
f 127/127/127 132/132/132 154/154/154
f 97/97/97 56/56/56 36/36/36
f 86/86/86 46/46/46 142/142/142
f 112/112/112 42/42/42 31/31/31
f 40/40/40 46/46/46 86/86/86
f 74/74/74 139/139/139 108/108/108
f 100/100/100 43/43/43 139/139/139
f 137/137/137 31/31/31 47/47/47
f 114/114/114 47/47/47 31/31/31
f 88/88/88 40/40/40 86/86/86
f 16/16/16 100/100/100 139/139/139
f 102/102/102 35/35/35 100/100/100
f 68/68/68 142/142/142 102/102/102
f 88/88/88 99/99/99 56/56/56
f 142/142/142 35/35/35 102/102/102
f 53/53/53 105/105/105 54/54/54
f 147/147/147 122/122/122 81/81/81
f 19/19/19 86/86/86 142/142/142
f 88/88/88 56/56/56 40/40/40
f 144/144/144 22/22/22 136/136/136
f 105/105/105 24/24/24 54/54/54
f 106/106/106 51/51/51 138/138/138
f 87/87/87 46/46/46 40/40/40
f 81/81/81 153/153/153 147/147/147
f 87/87/87 155/155/155 46/46/46
f 58/58/58 122/122/122 23/23/23
f 60/60/60 81/81/81 122/122/122
f 64/64/64 91/91/91 89/89/89
f 87/87/87 40/40/40 162/162/162
f 67/67/67 88/88/88 86/86/86
f 7/7/7 99/99/99 88/88/88
f 7/7/7 70/70/70 99/99/99
f 67/67/67 7/7/7 88/88/88
f 19/19/19 67/67/67 86/86/86
f 68/68/68 19/19/19 142/142/142
f 73/73/73 102/102/102 100/100/100
f 4/4/4 68/68/68 102/102/102
f 73/73/73 4/4/4 102/102/102
f 16/16/16 73/73/73 100/100/100
f 74/74/74 16/16/16 139/139/139
f 8/8/8 74/74/74 108/108/108
f 39/39/39 89/89/89 91/91/91
f 116/116/116 22/22/22 109/109/109
f 116/116/116 42/42/42 30/30/30
f 22/22/22 144/144/144 159/159/159
f 61/61/61 123/123/123 124/124/124
f 106/106/106 148/148/148 52/52/52
f 162/162/162 158/158/158 87/87/87
f 128/128/128 71/71/71 8/8/8
f 90/90/90 130/130/130 157/157/157
f 32/32/32 51/51/51 107/107/107
f 146/146/146 144/144/144 136/136/136
f 37/37/37 147/147/147 153/153/153
f 103/103/103 138/138/138 51/51/51
f 25/25/25 152/152/152 159/159/159
f 155/155/155 101/101/101 46/46/46
f 154/154/154 132/132/132 145/145/145
f 84/84/84 114/114/114 12/12/12
f 101/101/101 155/155/155 11/11/11
f 114/114/114 84/84/84 47/47/47
f 97/97/97 149/149/149 56/56/56
f 154/154/154 13/13/13 127/127/127
f 90/90/90 157/157/157 10/10/10
f 143/143/143 130/130/130 39/39/39
f 140/140/140 161/161/161 154/154/154
f 109/109/109 159/159/159 152/152/152
f 116/116/116 30/30/30 22/22/22
f 87/87/87 158/158/158 155/155/155
f 161/161/161 61/61/61 154/154/154
f 160/160/160 149/149/149 156/156/156
f 61/61/61 161/161/161 110/110/110
f 161/161/161 140/140/140 110/110/110
f 158/158/158 162/162/162 160/160/160
f 61/61/61 110/110/110 123/123/123
f 110/110/110 151/151/151 146/146/146
f 110/110/110 146/146/146 123/123/123
