# frame 000273 
# time 0.137000 
# name Cloth3D 
v -0.000000 0.000000 -0.000000
v 1.000000 0.000000 -0.000000
v -0.000000 1.000000 0.000000
v 1.000000 1.000000 0.000000
v 0.500624 0.500224 0.063284
v -0.000000 0.500000 0.000000
v 0.500000 1.000000 0.000000
v 1.000000 0.500000 0.000000
v 0.500000 -0.000000 0.000000
v 0.249559 0.750754 0.033900
v 0.751973 0.751940 0.044035
v 0.251368 0.250694 0.021070
v 0.751094 0.249642 0.034311
v 0.750000 0.000000 0.000000
v 0.250000 0.000000 0.000000
v 1.000000 0.750000 0.000000
v 1.000000 0.250000 0.000000
v 0.250000 1.000000 0.000000
v 0.750000 1.000000 0.000000
v 0.000000 0.250000 0.000000
v 0.000000 0.750000 -0.000000
v 0.365703 0.218705 0.041043
v 0.630162 0.774257 0.053593
v 0.499812 0.751309 0.063468
v 0.374540 0.372517 0.063436
v 0.878156 0.374693 0.035740
v 0.625612 0.122420 0.033280
v 0.627060 0.373654 0.063284
v 0.875723 0.124406 0.016553
v 0.375566 0.123380 0.027416
v 0.125392 0.125305 0.006842
v 0.752592 0.689024 0.049054
v 0.878761 0.625843 0.038771
v 0.627050 0.626900 0.063284
v 0.876375 0.876395 0.022094
v 0.374850 0.877703 0.033309
v 0.259618 0.600586 0.056885
v 0.124723 0.875399 0.013773
v 0.122753 0.625386 0.031745
v 0.625858 0.879052 0.039242
v 0.123952 0.375156 0.026360
v 0.250539 0.124778 0.016413
v 0.876638 0.750874 0.026721
v 0.876665 0.249602 0.025339
v 0.249769 0.876179 0.023172
v 0.751002 0.877066 0.028699
v 0.125331 0.250450 0.013749
v 0.124099 0.750363 0.022059
v 0.304107 0.714781 0.043552
v 0.694174 0.508149 0.063357
v 0.753448 0.626422 0.057606
v 0.878249 0.500126 0.038178
v 0.371804 0.646722 0.063436
v 0.374934 0.751899 0.047604
v 0.000000 0.375000 0.000000
v 0.500316 0.878471 0.038165
v 0.500549 0.626937 0.063285
v 0.249526 0.375212 0.041220
v 0.122569 0.500256 0.033593
v 0.373900 0.500164 0.063285
v 0.625877 0.248190 0.049102
v 0.500313 0.121065 0.039520
v 0.500559 0.373469 0.063285
v 0.000000 0.625000 0.000000
v 0.000000 0.875000 0.000000
v 0.000000 0.125000 0.000000
v 0.625000 1.000000 0.000000
v 0.875000 1.000000 0.000000
v 0.125000 1.000000 0.000000
v 0.375000 1.000000 0.000000
v 1.000000 0.375000 0.000000
v 1.000000 0.125000 0.000000
v 1.000000 0.875000 0.000000
v 1.000000 0.625000 0.000000
v 0.375000 0.000000 0.000000
v 0.125000 0.000000 0.000000
v 0.875000 0.000000 0.000000
v 0.625000 0.000000 0.000000
v 0.750614 0.123980 0.023453
v 0.627302 0.500258 0.063285
v 0.342995 0.563171 0.063362
v 0.062129 0.312680 0.011554
v 0.186272 0.438055 0.037935
v 0.187903 0.313251 0.023084
v 0.061187 0.437592 0.017018
v 0.687823 0.938723 0.016074
v 0.688832 0.815585 0.044464
v 0.562752 0.938988 0.018320
v 0.061079 0.687723 0.016526
v 0.186257 0.687911 0.034021
v 0.060168 0.562650 0.020743
v 0.187367 0.938155 0.011376
v 0.187506 0.812731 0.018207
v 0.062545 0.937481 0.002644
v 0.437261 0.563482 0.063285
v 0.838618 0.423257 0.047327
v 0.437532 0.815797 0.047889
v 0.312252 0.814148 0.035779
v 0.437571 0.939839 0.020748
v 0.937752 0.812916 0.010033
v 0.814069 0.814211 0.032245
v 0.937900 0.937908 0.007201
v 0.709519 0.593525 0.063429
v 0.563899 0.563593 0.063285
v 0.421760 0.687497 0.063429
v 0.817048 0.563249 0.054799
v 0.815896 0.689184 0.047066
v 0.939295 0.562708 0.019644
v 0.311530 0.260864 0.036519
v 0.573141 0.295656 0.063429
v 0.437329 0.436874 0.063285
v 0.187667 0.062370 0.008218
v 0.062711 0.062708 -0.000332
v 0.188444 0.188050 0.011849
v 0.312710 0.061576 0.013941
v 0.313394 0.187023 0.027028
v 0.437656 0.059944 0.021172
v 0.812788 0.061860 0.011718
v 0.937606 0.062411 0.004321
v 0.332513 0.423985 0.063429
v 0.563882 0.436912 0.063285
v 0.285042 0.482094 0.063429
v 0.562882 0.184529 0.046638
v 0.688313 0.186053 0.036193
v 0.562757 0.060159 0.020792
v 0.939068 0.312388 0.016863
v 0.814854 0.311963 0.039289
v 0.938402 0.437563 0.016344
v 0.312420 0.938982 0.016582
v 0.184970 0.625789 0.043934
v 0.813411 0.187048 0.024381
v 0.804392 0.371511 0.051211
v 0.687679 0.061829 0.013359
v 0.690606 0.437047 0.063285
v 0.938259 0.187286 0.011779
v 0.438306 0.185208 0.042903
v 0.062464 0.187636 0.008413
v 0.768417 0.521425 0.063429
v 0.939323 0.687905 0.018397
v 0.668305 0.373397 0.063429
v 0.062113 0.812662 0.009994
v 0.812983 0.938265 0.012476
v 0.184254 0.563108 0.049477
v 0.426788 0.223861 0.051514
v 0.716586 0.412720 0.063436
v 0.491658 0.228663 0.063442
v 0.238686 0.538312 0.063442
v 0.801316 0.481687 0.063442
v 0.548312 0.791314 0.063442
v 0.664059 0.649176 0.063429
v 0.467486 0.288435 0.063434
v 0.296973 0.331993 0.042590
v 0.324308 0.608021 0.063439
v 0.714783 0.300476 0.043460
v 0.751606 0.814881 0.039252
v 0.582573 0.675075 0.063357
v 0.280123 0.657953 0.051009
v 0.690215 0.760099 0.047519
v 0.414537 0.323427 0.063439
v 0.624235 0.698052 0.063436
v 0.647976 0.309482 0.055737
vt 0.000000 0.000000
vt 1.000000 0.000000
vt 0.000000 1.000000
vt 1.000000 1.000000
vt 0.500000 0.500000
vt 0.000000 0.500000
vt 0.500000 1.000000
vt 1.000000 0.500000
vt 0.500000 0.000000
vt 0.250000 0.750000
vt 0.750000 0.750000
vt 0.250000 0.250000
vt 0.750000 0.250000
vt 0.750000 0.000000
vt 0.250000 0.000000
vt 1.000000 0.750000
vt 1.000000 0.250000
vt 0.250000 1.000000
vt 0.750000 1.000000
vt 0.000000 0.250000
vt 0.000000 0.750000
vt 0.365347 0.220303
vt 0.629073 0.770824
vt 0.499427 0.747389
vt 0.375468 0.373915
vt 0.875000 0.375000
vt 0.625000 0.125000
vt 0.625000 0.375000
vt 0.875000 0.125000
vt 0.375000 0.125000
vt 0.125000 0.125000
vt 0.750000 0.687500
vt 0.875000 0.625000
vt 0.625000 0.625000
vt 0.875000 0.875000
vt 0.375000 0.875000
vt 0.262101 0.599801
vt 0.125000 0.875000
vt 0.125000 0.625000
vt 0.625000 0.875000
vt 0.125000 0.375000
vt 0.250000 0.125000
vt 0.875000 0.750000
vt 0.875000 0.250000
vt 0.250000 0.875000
vt 0.750000 0.875000
vt 0.125000 0.250000
vt 0.125000 0.750000
vt 0.304602 0.713891
vt 0.690882 0.507820
vt 0.750000 0.625000
vt 0.875000 0.500000
vt 0.372860 0.644898
vt 0.375000 0.750000
vt 0.000000 0.375000
vt 0.500000 0.875000
vt 0.500000 0.625000
vt 0.250000 0.375000
vt 0.125000 0.500000
vt 0.375000 0.500000
vt 0.625000 0.250000
vt 0.500000 0.125000
vt 0.500000 0.375000
vt 0.000000 0.625000
vt 0.000000 0.875000
vt 0.000000 0.125000
vt 0.625000 1.000000
vt 0.875000 1.000000
vt 0.125000 1.000000
vt 0.375000 1.000000
vt 1.000000 0.375000
vt 1.000000 0.125000
vt 1.000000 0.875000
vt 1.000000 0.625000
vt 0.375000 0.000000
vt 0.125000 0.000000
vt 0.875000 0.000000
vt 0.625000 0.000000
vt 0.750000 0.125000
vt 0.625000 0.500000
vt 0.344661 0.562348
vt 0.062500 0.312500
vt 0.187500 0.437500
vt 0.187500 0.312500
vt 0.062500 0.437500
vt 0.687500 0.937500
vt 0.687500 0.812500
vt 0.562500 0.937500
vt 0.062500 0.687500
vt 0.187500 0.687500
vt 0.062500 0.562500
vt 0.187500 0.937500
vt 0.187500 0.812500
vt 0.062500 0.937500
vt 0.437500 0.562500
vt 0.834853 0.423541
vt 0.437500 0.812500
vt 0.312500 0.812500
vt 0.437500 0.937500
vt 0.937500 0.812500
vt 0.812500 0.812500
vt 0.937500 0.937500
vt 0.706267 0.592239
vt 0.562500 0.562500
vt 0.422184 0.684965
vt 0.812500 0.562500
vt 0.812500 0.687500
vt 0.937500 0.562500
vt 0.311128 0.261404
vt 0.571964 0.298234
vt 0.437500 0.437500
vt 0.187500 0.062500
vt 0.062500 0.062500
vt 0.187500 0.187500
vt 0.312500 0.062500
vt 0.312500 0.187500
vt 0.437500 0.062500
vt 0.812500 0.062500
vt 0.937500 0.062500
vt 0.334052 0.424696
vt 0.562500 0.437500
vt 0.287548 0.482175
vt 0.562500 0.187500
vt 0.687500 0.187500
vt 0.562500 0.062500
vt 0.937500 0.312500
vt 0.812500 0.312500
vt 0.937500 0.437500
vt 0.312500 0.937500
vt 0.187500 0.625000
vt 0.812500 0.187500
vt 0.800716 0.372483
vt 0.687500 0.062500
vt 0.687500 0.437500
vt 0.937500 0.187500
vt 0.437500 0.187500
vt 0.062500 0.187500
vt 0.763850 0.521035
vt 0.937500 0.687500
vt 0.665731 0.374632
vt 0.062500 0.812500
vt 0.812500 0.937500
vt 0.187500 0.562500
vt 0.426610 0.226694
vt 0.713188 0.413450
vt 0.491451 0.232873
vt 0.242580 0.537925
vt 0.795875 0.481759
vt 0.547486 0.786302
vt 0.661621 0.647087
vt 0.467440 0.291396
vt 0.296906 0.332149
vt 0.326115 0.606750
vt 0.713437 0.300753
vt 0.750000 0.812500
vt 0.581168 0.672349
vt 0.281585 0.657008
vt 0.688844 0.757642
vt 0.414988 0.325566
vt 0.622427 0.695138
vt 0.646352 0.310977
vn 0.004017 0.004017 0.999984
vn 0.033441 -0.033441 0.998881
vn -0.019763 0.019763 0.999609
vn 0.056883 0.056883 0.996759
vn 0.000000 0.000000 1.000000
vn -0.296988 -0.016263 0.954743
vn 0.009956 0.307617 0.951458
vn 0.286341 -0.013871 0.958027
vn 0.002006 -0.331440 0.943474
vn -0.112168 0.119920 0.986427
vn 0.068349 0.086316 0.993921
vn -0.156437 -0.108733 0.981685
vn 0.079576 -0.105874 0.991190
vn 0.006693 -0.198318 0.980115
vn -0.024294 -0.174652 0.984330
vn 0.224800 0.033984 0.973812
vn 0.226476 -0.021439 0.973781
vn -0.020951 0.219545 0.975377
vn 0.014924 0.226514 0.973894
vn -0.155140 -0.012566 0.987813
vn -0.209673 0.027534 0.977384
vn -0.160732 -0.153739 0.974951
vn 0.122582 0.108544 0.986505
vn -0.061429 0.071096 0.995576
vn -0.092436 -0.074917 0.992896
vn 0.238620 -0.052297 0.969704
vn 0.070022 -0.187330 0.979798
vn -0.002128 0.002580 0.999994
vn 0.086469 -0.090365 0.992148
vn -0.096342 -0.141832 0.985191
vn -0.053157 -0.049144 0.997376
vn 0.056003 0.109534 0.992404
vn 0.248431 0.042709 0.967708
vn -0.001467 -0.001593 0.999998
vn 0.120866 0.101562 0.987460
vn -0.064087 0.179623 0.981646
vn -0.130811 0.140615 0.981385
vn -0.081313 0.070360 0.994202
vn -0.186237 0.075209 0.979622
vn 0.050158 0.250778 0.966744
vn -0.124706 -0.081342 0.988854
vn -0.083299 -0.063155 0.994521
vn 0.198650 0.080869 0.976728
vn 0.135651 -0.079579 0.987556
vn -0.085330 0.100725 0.991248
vn 0.074192 0.183376 0.980239
vn -0.057001 -0.067534 0.996087
vn -0.106422 0.081853 0.990946
vn -0.100362 0.140418 0.984993
vn -0.000911 -0.000844 0.999999
vn 0.084701 0.093303 0.992028
vn 0.300045 -0.016693 0.953779
vn -0.063906 0.081732 0.994603
vn -0.115386 0.120171 0.986025
vn -0.223104 -0.022278 0.974540
vn -0.026872 0.258433 0.965655
vn 0.000199 -0.000785 1.000000
vn -0.168390 -0.139791 0.975758
vn -0.192294 -0.042839 0.980402
vn 0.001038 0.000125 0.999999
vn 0.122159 -0.141424 0.982383
vn -0.019402 -0.218022 0.975751
vn 0.000358 0.000948 0.999999
vn -0.295527 0.017112 0.955181
vn -0.097809 0.029258 0.994775
vn -0.061201 -0.034784 0.997519
vn 0.008781 0.272081 0.962234
vn 0.021270 0.155799 0.987560
vn -0.035061 0.109357 0.993384
vn -0.017444 0.293351 0.955846
vn 0.263860 0.002044 0.964559
vn 0.126040 -0.029724 0.991580
vn 0.135908 0.011279 0.990657
vn 0.301326 0.006034 0.953502
vn -0.029592 -0.279012 0.959832
vn -0.033875 -0.059388 0.997660
vn 0.029924 -0.126428 0.991524
vn 0.030446 -0.270159 0.962334
vn 0.060970 -0.136469 0.988766
vn -0.000498 -0.000319 1.000000
vn 0.001068 -0.000904 0.999999
vn -0.156413 -0.043029 0.986754
vn -0.154928 -0.106157 0.982206
vn -0.092052 -0.118391 0.988691
vn -0.234265 -0.034137 0.971573
vn 0.033788 0.268416 0.962710
vn 0.091796 0.098298 0.990914
vn 0.007073 0.305281 0.952236
vn -0.210527 0.042313 0.976672
vn -0.130853 0.125609 0.983412
vn -0.255543 0.004088 0.966789
vn -0.046824 0.144522 0.988393
vn -0.077629 0.074892 0.994165
vn -0.054367 0.051458 0.997194
vn 0.000470 -0.000527 1.000000
vn 0.260997 -0.060441 0.963446
vn -0.090051 0.151949 0.984278
vn -0.107217 0.097773 0.989416
vn -0.013955 0.281495 0.959461
vn 0.191726 0.031452 0.980944
vn 0.105423 0.099580 0.989429
vn 0.083104 0.078061 0.993479
vn 0.050765 0.041431 0.997851
vn 0.000000 -0.000175 1.000000
vn -0.068324 0.083956 0.994124
vn 0.176501 0.053163 0.982864
vn 0.113317 0.099748 0.988539
vn 0.302024 -0.004971 0.953287
vn -0.204716 -0.127432 0.970491
vn 0.076664 -0.093451 0.992668
vn 0.000643 0.000613 1.000000
vn -0.048412 -0.089948 0.994769
vn -0.027870 -0.028336 0.999210
vn -0.069550 -0.045198 0.996554
vn -0.049184 -0.171252 0.983999
vn -0.157727 -0.109514 0.981391
vn -0.039107 -0.262665 0.964094
vn 0.031976 -0.156542 0.987154
vn 0.064276 -0.064164 0.995867
vn -0.085996 -0.071577 0.993721
vn 0.000000 -0.000000 1.000000
vn -0.081731 -0.065635 0.994491
vn 0.094549 -0.160383 0.982516
vn 0.094852 -0.103741 0.990071
vn 0.029112 -0.286541 0.957626
vn 0.240772 -0.030590 0.970100
vn 0.111794 -0.140540 0.983743
vn 0.285115 -0.011507 0.958424
vn -0.040243 0.221892 0.974240
vn -0.163239 0.125047 0.978630
vn 0.066569 -0.085786 0.994087
vn 0.158621 -0.133347 0.978293
vn 0.039224 -0.223007 0.974027
vn -0.002056 0.001932 0.999996
vn 0.165125 -0.043539 0.985311
vn -0.143409 -0.226304 0.963442
vn -0.079132 -0.037592 0.996155
vn 0.057536 0.044829 0.997336
vn 0.256923 0.044963 0.965385
vn 0.054834 -0.064927 0.996382
vn -0.139839 0.044923 0.989155
vn 0.031297 0.200460 0.979202
vn -0.202504 0.048889 0.978060
vn -0.155180 -0.226684 0.961527
vn 0.026699 -0.042144 0.998755
vn -0.048967 -0.151101 0.987305
vn -0.157506 0.030176 0.987057
vn 0.168808 -0.002977 0.985645
vn 0.007037 0.126869 0.991894
vn 0.035062 0.033776 0.998814
vn 0.000366 0.000833 1.000000
vn -0.177134 -0.144885 0.973464
vn -0.057554 0.070997 0.995815
vn 0.110784 -0.146030 0.983057
vn 0.096595 0.115599 0.988588
vn -0.000453 -0.001436 0.999999
vn -0.112821 0.153251 0.981726
vn 0.102299 0.079019 0.991610
vn -0.076219 -0.058948 0.995347
vn 0.050632 0.041606 0.997850
vn 0.145118 -0.162332 0.976007
f 1/1/1 113/113/113 66/66/66
f 31/31/31 137/137/137 113/113/113
f 132/132/132 127/127/127 26/26/26
f 112/112/112 31/31/31 113/113/113
f 135/135/135 44/44/44 29/29/29
f 106/106/106 52/52/52 33/33/33
f 24/24/24 57/57/57 156/156/156
f 84/84/84 41/41/41 47/47/47
f 137/137/137 66/66/66 113/113/113
f 75/75/75 115/115/115 15/15/15
f 12/12/12 152/152/152 84/84/84
f 61/61/61 110/110/110 123/123/123
f 25/25/25 120/120/120 152/152/152
f 76/76/76 113/113/113 1/1/1
f 76/76/76 112/112/112 113/113/113
f 15/15/15 112/112/112 76/76/76
f 115/115/115 112/112/112 15/15/15
f 30/30/30 115/115/115 117/117/117
f 108/108/108 33/33/33 52/52/52
f 75/75/75 117/117/117 115/115/115
f 115/115/115 30/30/30 42/42/42
f 145/145/145 140/140/140 154/154/154
f 51/51/51 150/150/150 103/103/103
f 136/136/136 22/22/22 30/30/30
f 90/90/90 10/10/10 48/48/48
f 54/54/54 98/98/98 49/49/49
f 42/42/42 112/112/112 115/115/115
f 58/58/58 84/84/84 152/152/152
f 13/13/13 154/154/154 124/124/124
f 60/60/60 120/120/120 111/111/111
f 136/136/136 62/62/62 146/146/146
f 159/159/159 63/63/63 111/111/111
f 101/101/101 43/43/43 35/35/35
f 104/104/104 80/80/80 34/34/34
f 10/10/10 49/49/49 98/98/98
f 24/24/24 156/156/156 149/149/149
f 49/49/49 53/53/53 54/54/54
f 117/117/117 62/62/62 30/30/30
f 95/95/95 57/57/57 105/105/105
f 131/131/131 29/29/29 44/44/44
f 77/77/77 2/2/2 119/119/119
f 77/77/77 119/119/119 118/118/118
f 71/71/71 128/128/128 126/126/126
f 58/58/58 152/152/152 120/120/120
f 63/63/63 28/28/28 121/121/121
f 119/119/119 29/29/29 118/118/118
f 57/57/57 24/24/24 105/105/105
f 125/125/125 27/27/27 62/62/62
f 135/135/135 72/72/72 17/17/17
f 136/136/136 30/30/30 62/62/62
f 138/138/138 148/148/148 106/106/106
f 60/60/60 122/122/122 120/120/120
f 153/153/153 53/53/53 157/157/157
f 11/11/11 32/32/32 107/107/107
f 12/12/12 114/114/114 116/116/116
f 150/150/150 160/160/160 34/34/34
f 32/32/32 158/158/158 150/150/150
f 110/110/110 146/146/146 123/123/123
f 63/63/63 151/151/151 110/110/110
f 44/44/44 127/127/127 131/131/131
f 82/82/82 47/47/47 41/41/41
f 45/45/45 98/98/98 36/36/36
f 82/82/82 137/137/137 47/47/47
f 61/61/61 124/124/124 154/154/154
f 26/26/26 126/126/126 128/128/128
f 62/62/62 117/117/117 125/125/125
f 20/20/20 137/137/137 82/82/82
f 38/38/38 92/92/92 94/94/94
f 20/20/20 66/66/66 137/137/137
f 55/55/55 20/20/20 82/82/82
f 69/69/69 94/94/94 92/92/92
f 159/159/159 151/151/151 63/63/63
f 8/8/8 108/108/108 128/128/128
f 141/141/141 48/48/48 38/38/38
f 50/50/50 80/80/80 134/134/134
f 65/65/65 141/141/141 94/94/94
f 114/114/114 31/31/31 42/42/42
f 38/38/38 94/94/94 141/141/141
f 92/92/92 18/18/18 69/69/69
f 24/24/24 149/149/149 97/97/97
f 151/151/151 159/159/159 146/146/146
f 46/46/46 35/35/35 142/142/142
f 29/29/29 119/119/119 135/135/135
f 40/40/40 149/149/149 23/23/23
f 158/158/158 23/23/23 160/160/160
f 35/35/35 46/46/46 101/101/101
f 129/129/129 45/45/45 36/36/36
f 27/27/27 124/124/124 123/123/123
f 85/85/85 41/41/41 59/59/59
f 78/78/78 125/125/125 9/9/9
f 70/70/70 129/129/129 99/99/99
f 83/83/83 59/59/59 41/41/41
f 129/129/129 70/70/70 18/18/18
f 36/36/36 99/99/99 129/129/129
f 93/93/93 38/38/38 48/48/48
f 38/38/38 45/45/45 92/92/92
f 52/52/52 128/128/128 108/108/108
f 65/65/65 94/94/94 3/3/3
f 72/72/72 135/135/135 119/119/119
f 94/94/94 69/69/69 3/3/3
f 39/39/39 90/90/90 48/48/48
f 21/21/21 141/141/141 65/65/65
f 18/18/18 92/92/92 129/129/129
f 6/6/6 91/91/91 64/64/64
f 153/153/153 81/81/81 53/53/53
f 93/93/93 45/45/45 38/38/38
f 89/89/89 39/39/39 48/48/48
f 13/13/13 124/124/124 131/131/131
f 45/45/45 129/129/129 92/92/92
f 9/9/9 125/125/125 117/117/117
f 64/64/64 89/89/89 21/21/21
f 55/55/55 82/82/82 85/85/85
f 6/6/6 85/85/85 91/91/91
f 59/59/59 91/91/91 85/85/85
f 41/41/41 85/85/85 82/82/82
f 6/6/6 55/55/55 85/85/85
f 59/59/59 83/83/83 143/143/143
f 59/59/59 39/39/39 91/91/91
f 109/109/109 22/22/22 159/159/159
f 143/143/143 39/39/39 59/59/59
f 118/118/118 29/29/29 79/79/79
f 23/23/23 149/149/149 160/160/160
f 134/134/134 148/148/148 138/138/138
f 58/58/58 83/83/83 84/84/84
f 119/119/119 2/2/2 72/72/72
f 49/49/49 157/157/157 53/53/53
f 11/11/11 158/158/158 32/32/32
f 144/144/144 146/146/146 159/159/159
f 10/10/10 98/98/98 93/93/93
f 21/21/21 89/89/89 141/141/141
f 97/97/97 54/54/54 24/24/24
f 51/51/51 32/32/32 150/150/150
f 79/79/79 133/133/133 118/118/118
f 118/118/118 133/133/133 14/14/14
f 79/79/79 131/131/131 124/124/124
f 100/100/100 35/35/35 43/43/43
f 149/149/149 40/40/40 56/56/56
f 48/48/48 141/141/141 89/89/89
f 78/78/78 133/133/133 125/125/125
f 62/62/62 27/27/27 123/123/123
f 147/147/147 37/37/37 143/143/143
f 148/148/148 96/96/96 52/52/52
f 60/60/60 95/95/95 81/81/81
f 156/156/156 34/34/34 160/160/160
f 5/5/5 95/95/95 111/111/111
f 148/148/148 145/145/145 132/132/132
f 130/130/130 143/143/143 37/37/37
f 157/157/157 37/37/37 153/153/153
f 27/27/27 125/125/125 133/133/133
f 121/121/121 5/5/5 111/111/111
f 160/160/160 150/150/150 158/158/158
f 122/122/122 58/58/58 120/120/120
f 17/17/17 126/126/126 135/135/135
f 41/41/41 84/84/84 83/83/83
f 123/123/123 146/146/146 62/62/62
f 60/60/60 111/111/111 95/95/95
f 28/28/28 134/134/134 80/80/80
f 104/104/104 95/95/95 5/5/5
f 28/28/28 140/140/140 134/134/134
f 26/26/26 128/128/128 96/96/96
f 57/57/57 95/95/95 104/104/104
f 138/138/138 50/50/50 134/134/134
f 127/127/127 44/44/44 26/26/26
f 126/126/126 26/26/26 44/44/44
f 45/45/45 93/93/93 98/98/98
f 110/110/110 28/28/28 63/63/63
f 11/11/11 107/107/107 101/101/101
f 9/9/9 117/117/117 75/75/75
f 96/96/96 148/148/148 132/132/132
f 54/54/54 97/97/97 98/98/98
f 130/130/130 90/90/90 39/39/39
f 114/114/114 42/42/42 116/116/116
f 99/99/99 36/36/36 56/56/56
f 80/80/80 104/104/104 5/5/5
f 95/95/95 53/53/53 81/81/81
f 126/126/126 17/17/17 71/71/71
f 109/109/109 12/12/12 116/116/116
f 25/25/25 159/159/159 111/111/111
f 52/52/52 96/96/96 128/128/128
f 103/103/103 150/150/150 34/34/34
f 36/36/36 98/98/98 97/97/97
f 37/37/37 157/157/157 130/130/130
f 105/105/105 53/53/53 95/95/95
f 58/58/58 122/122/122 83/83/83
f 26/26/26 96/96/96 132/132/132
f 50/50/50 138/138/138 103/103/103
f 120/120/120 25/25/25 111/111/111
f 12/12/12 109/109/109 152/152/152
f 14/14/14 133/133/133 78/78/78
f 13/13/13 131/131/131 127/127/127
f 107/107/107 106/106/106 33/33/33
f 44/44/44 135/135/135 126/126/126
f 43/43/43 101/101/101 107/107/107
f 34/34/34 156/156/156 104/104/104
f 57/57/57 104/104/104 156/156/156
f 121/121/121 80/80/80 5/5/5
f 63/63/63 121/121/121 111/111/111
f 121/121/121 28/28/28 80/80/80
f 77/77/77 118/118/118 14/14/14
f 10/10/10 93/93/93 48/48/48
f 103/103/103 34/34/34 80/80/80
f 131/131/131 79/79/79 29/29/29
f 140/140/140 145/145/145 134/134/134
f 49/49/49 10/10/10 157/157/157
f 124/124/124 27/27/27 79/79/79
f 139/139/139 33/33/33 108/108/108
f 107/107/107 33/33/33 43/43/43
f 133/133/133 79/79/79 27/27/27
f 145/145/145 148/148/148 134/134/134
f 139/139/139 43/43/43 33/33/33
f 11/11/11 155/155/155 158/158/158
f 80/80/80 50/50/50 103/103/103
f 140/140/140 28/28/28 110/110/110
f 51/51/51 106/106/106 107/107/107
f 127/127/127 132/132/132 154/154/154
f 97/97/97 56/56/56 36/36/36
f 86/86/86 46/46/46 142/142/142
f 112/112/112 42/42/42 31/31/31
f 40/40/40 46/46/46 86/86/86
f 74/74/74 139/139/139 108/108/108
f 100/100/100 43/43/43 139/139/139
f 137/137/137 31/31/31 47/47/47
f 114/114/114 47/47/47 31/31/31
f 88/88/88 40/40/40 86/86/86
f 16/16/16 100/100/100 139/139/139
f 102/102/102 35/35/35 100/100/100
f 68/68/68 142/142/142 102/102/102
f 88/88/88 99/99/99 56/56/56
f 142/142/142 35/35/35 102/102/102
f 53/53/53 105/105/105 54/54/54
f 147/147/147 122/122/122 81/81/81
f 19/19/19 86/86/86 142/142/142
f 88/88/88 56/56/56 40/40/40
f 144/144/144 22/22/22 136/136/136
f 105/105/105 24/24/24 54/54/54
f 106/106/106 51/51/51 138/138/138
f 87/87/87 46/46/46 40/40/40
f 81/81/81 153/153/153 147/147/147
f 87/87/87 155/155/155 46/46/46
f 110/110/110 151/151/151 146/146/146
f 60/60/60 81/81/81 122/122/122
f 64/64/64 91/91/91 89/89/89
f 87/87/87 40/40/40 23/23/23
f 67/67/67 88/88/88 86/86/86
f 7/7/7 99/99/99 88/88/88
f 7/7/7 70/70/70 99/99/99
f 67/67/67 7/7/7 88/88/88
f 19/19/19 67/67/67 86/86/86
f 68/68/68 19/19/19 142/142/142
f 73/73/73 102/102/102 100/100/100
f 4/4/4 68/68/68 102/102/102
f 73/73/73 4/4/4 102/102/102
f 16/16/16 73/73/73 100/100/100
f 74/74/74 16/16/16 139/139/139
f 8/8/8 74/74/74 108/108/108
f 39/39/39 89/89/89 91/91/91
f 116/116/116 22/22/22 109/109/109
f 116/116/116 42/42/42 30/30/30
f 22/22/22 144/144/144 159/159/159
f 61/61/61 123/123/123 124/124/124
f 106/106/106 148/148/148 52/52/52
f 23/23/23 158/158/158 87/87/87
f 128/128/128 71/71/71 8/8/8
f 90/90/90 130/130/130 157/157/157
f 32/32/32 51/51/51 107/107/107
f 146/146/146 144/144/144 136/136/136
f 37/37/37 147/147/147 153/153/153
f 103/103/103 138/138/138 51/51/51
f 25/25/25 152/152/152 159/159/159
f 155/155/155 101/101/101 46/46/46
f 154/154/154 132/132/132 145/145/145
f 84/84/84 114/114/114 12/12/12
f 101/101/101 155/155/155 11/11/11
f 114/114/114 84/84/84 47/47/47
f 97/97/97 149/149/149 56/56/56
f 154/154/154 13/13/13 127/127/127
f 90/90/90 157/157/157 10/10/10
f 143/143/143 130/130/130 39/39/39
f 140/140/140 161/161/161 154/154/154
f 109/109/109 159/159/159 152/152/152
f 116/116/116 30/30/30 22/22/22
f 87/87/87 158/158/158 155/155/155
f 161/161/161 61/61/61 154/154/154
f 160/160/160 149/149/149 156/156/156
f 61/61/61 161/161/161 110/110/110
f 161/161/161 140/140/140 110/110/110
f 147/147/147 143/143/143 83/83/83
f 147/147/147 83/83/83 122/122/122
