# frame 000349 
# time 0.175000 
# name Cloth3D 
v -0.000000 0.000000 -0.000000
v 1.000000 0.000000 -0.000000
v -0.000000 1.000000 0.000000
v 1.000000 1.000000 0.000000
v 0.501288 0.500499 0.082284
v -0.000000 0.500000 0.000000
v 0.500000 1.000000 0.000000
v 1.000000 0.500000 0.000000
v 0.500000 -0.000000 0.000000
v 0.247805 0.753084 0.057500
v 0.752110 0.751576 0.049152
v 0.247788 0.247796 0.054599
v 0.752979 0.247880 0.053820
v 0.750000 0.000000 0.000000
v 0.250000 0.000000 0.000000
v 1.000000 0.750000 0.000000
v 1.000000 0.250000 0.000000
v 0.250000 1.000000 0.000000
v 0.750000 1.000000 0.000000
v 0.000000 0.250000 0.000000
v 0.000000 0.750000 -0.000000
v 0.364760 0.218436 0.054389
v 0.630216 0.773957 0.059551
v 0.480942 0.774533 0.082468
v 0.374153 0.371837 0.082436
v 0.875423 0.375641 0.027504
v 0.625867 0.124297 0.032115
v 0.628570 0.372697 0.082284
v 0.875976 0.124326 0.017671
v 0.375064 0.124846 0.028421
v 0.124270 0.124190 0.018324
v 0.752871 0.688578 0.057097
v 0.877013 0.624709 0.033927
v 0.628446 0.627947 0.082284
v 0.876067 0.875647 0.016864
v 0.375323 0.875569 0.029793
v 0.259770 0.601202 0.068617
v 0.123889 0.876304 0.021526
v 0.125014 0.625328 0.029281
v 0.625291 0.876451 0.032266
v 0.123303 0.374718 0.035129
v 0.249298 0.123997 0.027083
v 0.876988 0.750481 0.029876
v 0.877017 0.249523 0.030013
v 0.249376 0.876878 0.030431
v 0.750728 0.875835 0.025423
v 0.123780 0.249166 0.029074
v 0.123522 0.751050 0.030925
v 0.302805 0.717178 0.067619
v 0.696796 0.508426 0.082357
v 0.754388 0.625708 0.067434
v 0.880647 0.500183 0.046512
v 0.373540 0.645928 0.082436
v 0.374897 0.752912 0.062320
v 0.000000 0.375000 0.000000
v 0.500321 0.878421 0.040438
v 0.501004 0.628497 0.082285
v 0.247104 0.373998 0.066368
v 0.123761 0.500059 0.035168
v 0.373367 0.500418 0.082285
v 0.627232 0.246168 0.069474
v 0.500678 0.124798 0.031429
v 0.501242 0.372625 0.082285
v 0.000000 0.625000 0.000000
v 0.000000 0.875000 0.000000
v 0.000000 0.125000 0.000000
v 0.625000 1.000000 0.000000
v 0.875000 1.000000 0.000000
v 0.125000 1.000000 0.000000
v 0.375000 1.000000 0.000000
v 1.000000 0.375000 0.000000
v 1.000000 0.125000 0.000000
v 1.000000 0.875000 0.000000
v 1.000000 0.625000 0.000000
v 0.375000 0.000000 0.000000
v 0.125000 0.000000 0.000000
v 0.875000 0.000000 0.000000
v 0.625000 0.000000 0.000000
v 0.751313 0.123287 0.030877
v 0.629152 0.500522 0.082285
v 0.293192 0.550015 0.082441
v 0.062348 0.312401 0.014206
v 0.184630 0.437483 0.055500
v 0.184500 0.311211 0.051225
v 0.061754 0.437505 0.017796
v 0.687615 0.937790 0.013425
v 0.688881 0.815282 0.047661
v 0.562525 0.937613 0.014645
v 0.061954 0.687719 0.016156
v 0.185818 0.688911 0.047231
v 0.061951 0.562598 0.017266
v 0.187284 0.937958 0.011769
v 0.185561 0.814955 0.040229
v 0.062386 0.937640 0.004468
v 0.437410 0.564299 0.082285
v 0.837354 0.424494 0.044704
v 0.438197 0.816602 0.056966
v 0.311802 0.815167 0.047818
v 0.437599 0.938661 0.018436
v 0.939243 0.812892 0.017290
v 0.814187 0.813722 0.032924
v 0.937295 0.937201 -0.001395
v 0.720538 0.602461 0.082429
v 0.564956 0.564385 0.082285
v 0.415287 0.695868 0.082429
v 0.820156 0.563410 0.068623
v 0.814713 0.687941 0.044045
v 0.938568 0.562316 0.017989
v 0.309347 0.258723 0.063194
v 0.587566 0.279647 0.082429
v 0.437418 0.436686 0.082285
v 0.187470 0.062676 0.008162
v 0.062271 0.062246 0.006044
v 0.185410 0.185226 0.039902
v 0.312472 0.062053 0.014899
v 0.311606 0.185714 0.045169
v 0.437734 0.062128 0.016508
v 0.812884 0.061918 0.012383
v 0.937522 0.062545 0.002478
v 0.322588 0.414923 0.082429
v 0.565092 0.436633 0.082285
v 0.264163 0.463721 0.082429
v 0.563624 0.183323 0.059482
v 0.689518 0.184775 0.049953
v 0.562851 0.062194 0.016484
v 0.937567 0.312715 0.012402
v 0.814309 0.312082 0.042487
v 0.939086 0.437595 0.019326
v 0.312570 0.937334 0.012245
v 0.186645 0.625723 0.046362
v 0.815032 0.185633 0.038475
v 0.803088 0.372594 0.049418
v 0.687900 0.061542 0.017432
v 0.692742 0.436877 0.082285
v 0.938298 0.187412 0.012704
v 0.438024 0.186638 0.046978
v 0.062580 0.187367 0.009205
v 0.497693 0.694688 0.082376
v 0.937606 0.687366 0.012597
v 0.667509 0.375359 0.082429
v 0.062217 0.812817 0.011797
v 0.812852 0.938116 0.012519
v 0.186839 0.562358 0.048011
v 0.747631 0.470973 0.082439
v 0.707831 0.423494 0.082436
v 0.545301 0.228373 0.082442
v 0.238409 0.484667 0.082442
v 0.801592 0.535333 0.082442
v 0.494667 0.791591 0.082442
v 0.664583 0.649199 0.082429
v 0.580486 0.834016 0.049268
v 0.294423 0.330177 0.071210
v 0.333898 0.598583 0.082439
v 0.717446 0.298127 0.069226
v 0.751432 0.814074 0.038848
v 0.583449 0.676741 0.082357
v 0.279138 0.659493 0.071004
v 0.690433 0.759838 0.054287
v 0.423180 0.330782 0.082439
v 0.615774 0.690070 0.082436
v 0.649651 0.307745 0.076970
v 0.362812 0.291640 0.071903
v 0.472471 0.289457 0.082441
v 0.567115 0.730852 0.082439
v 0.418127 0.253629 0.068098
vt 0.000000 0.000000
vt 1.000000 0.000000
vt 0.000000 1.000000
vt 1.000000 1.000000
vt 0.500000 0.500000
vt 0.000000 0.500000
vt 0.500000 1.000000
vt 1.000000 0.500000
vt 0.500000 0.000000
vt 0.250000 0.750000
vt 0.750000 0.750000
vt 0.250000 0.250000
vt 0.750000 0.250000
vt 0.750000 0.000000
vt 0.250000 0.000000
vt 1.000000 0.750000
vt 1.000000 0.250000
vt 0.250000 1.000000
vt 0.750000 1.000000
vt 0.000000 0.250000
vt 0.000000 0.750000
vt 0.365347 0.220303
vt 0.629073 0.770824
vt 0.480962 0.766241
vt 0.375591 0.373686
vt 0.875000 0.375000
vt 0.625000 0.125000
vt 0.625000 0.375000
vt 0.875000 0.125000
vt 0.375000 0.125000
vt 0.125000 0.125000
vt 0.750000 0.687500
vt 0.875000 0.625000
vt 0.625000 0.625000
vt 0.875000 0.875000
vt 0.375000 0.875000
vt 0.262101 0.599801
vt 0.125000 0.875000
vt 0.125000 0.625000
vt 0.625000 0.875000
vt 0.125000 0.375000
vt 0.250000 0.125000
vt 0.875000 0.750000
vt 0.875000 0.250000
vt 0.250000 0.875000
vt 0.750000 0.875000
vt 0.125000 0.250000
vt 0.125000 0.750000
vt 0.304602 0.713891
vt 0.690882 0.507820
vt 0.750000 0.625000
vt 0.875000 0.500000
vt 0.374823 0.642675
vt 0.375000 0.750000
vt 0.000000 0.375000
vt 0.500000 0.875000
vt 0.500000 0.625000
vt 0.250000 0.375000
vt 0.125000 0.500000
vt 0.375000 0.500000
vt 0.625000 0.250000
vt 0.500000 0.125000
vt 0.500000 0.375000
vt 0.000000 0.625000
vt 0.000000 0.875000
vt 0.000000 0.125000
vt 0.625000 1.000000
vt 0.875000 1.000000
vt 0.125000 1.000000
vt 0.375000 1.000000
vt 1.000000 0.375000
vt 1.000000 0.125000
vt 1.000000 0.875000
vt 1.000000 0.625000
vt 0.375000 0.000000
vt 0.125000 0.000000
vt 0.875000 0.000000
vt 0.625000 0.000000
vt 0.750000 0.125000
vt 0.625000 0.500000
vt 0.296683 0.548841
vt 0.062500 0.312500
vt 0.187500 0.437500
vt 0.187500 0.312500
vt 0.062500 0.437500
vt 0.687500 0.937500
vt 0.687500 0.812500
vt 0.562500 0.937500
vt 0.062500 0.687500
vt 0.187500 0.687500
vt 0.062500 0.562500
vt 0.187500 0.937500
vt 0.187500 0.812500
vt 0.062500 0.937500
vt 0.437500 0.562500
vt 0.834853 0.423541
vt 0.437500 0.812500
vt 0.312500 0.812500
vt 0.437500 0.937500
vt 0.937500 0.812500
vt 0.812500 0.812500
vt 0.937500 0.937500
vt 0.714651 0.600392
vt 0.562500 0.562500
vt 0.415849 0.691248
vt 0.812500 0.562500
vt 0.812500 0.687500
vt 0.937500 0.562500
vt 0.311128 0.261404
vt 0.585252 0.284738
vt 0.437500 0.437500
vt 0.187500 0.062500
vt 0.062500 0.062500
vt 0.187500 0.187500
vt 0.312500 0.062500
vt 0.312500 0.187500
vt 0.437500 0.062500
vt 0.812500 0.062500
vt 0.937500 0.062500
vt 0.325396 0.415877
vt 0.562500 0.437500
vt 0.269089 0.463816
vt 0.562500 0.187500
vt 0.687500 0.187500
vt 0.562500 0.062500
vt 0.937500 0.312500
vt 0.812500 0.312500
vt 0.937500 0.437500
vt 0.312500 0.937500
vt 0.187500 0.625000
vt 0.812500 0.187500
vt 0.800716 0.372483
vt 0.687500 0.062500
vt 0.687500 0.437500
vt 0.937500 0.187500
vt 0.437500 0.187500
vt 0.062500 0.187500
vt 0.497032 0.689303
vt 0.937500 0.687500
vt 0.663184 0.377303
vt 0.062500 0.812500
vt 0.812500 0.937500
vt 0.187500 0.562500
vt 0.740573 0.471098
vt 0.702399 0.424353
vt 0.544052 0.236055
vt 0.244598 0.484547
vt 0.791605 0.534227
vt 0.494483 0.782280
vt 0.660563 0.646046
vt 0.580205 0.830830
vt 0.296906 0.332149
vt 0.336072 0.596458
vt 0.713437 0.300753
vt 0.750000 0.812500
vt 0.581168 0.672349
vt 0.281585 0.657008
vt 0.688844 0.757642
vt 0.423556 0.333703
vt 0.612933 0.685713
vt 0.646352 0.310977
vt 0.364019 0.294291
vt 0.472024 0.293883
vt 0.565418 0.724899
vt 0.418341 0.256674
vn -0.049254 -0.049254 0.997571
vn 0.021618 -0.021618 0.999533
vn -0.037010 0.037010 0.998629
vn -0.010087 -0.010087 0.999898
vn 0.000000 0.000000 1.000000
vn -0.272238 0.000908 0.962230
vn 0.016051 0.256412 0.966434
vn 0.288833 0.006242 0.957359
vn 0.000754 -0.254764 0.967003
vn -0.124375 0.135342 0.982962
vn 0.122013 0.134999 0.983305
vn -0.110031 -0.160757 0.980842
vn 0.181494 -0.124442 0.975487
vn 0.019976 -0.235577 0.971650
vn -0.026138 -0.181603 0.983025
vn 0.238248 -0.019669 0.971005
vn 0.197896 0.001413 0.980222
vn -0.001714 0.189198 0.981937
vn 0.002467 0.206248 0.978497
vn -0.183644 -0.019103 0.982807
vn -0.219781 0.017083 0.975400
vn -0.032101 -0.255222 0.966349
vn 0.119453 0.228717 0.966136
vn -0.165553 0.144436 0.975567
vn -0.049019 -0.062161 0.996862
vn 0.258472 -0.077065 0.962940
vn 0.014625 -0.294561 0.955521
vn -0.002443 0.002396 0.999994
vn 0.138119 -0.145053 0.979736
vn -0.013932 -0.239582 0.970776
vn -0.130601 -0.134514 0.982267
vn 0.189040 0.145053 0.971197
vn 0.296926 0.115259 0.947919
vn -0.001437 -0.002077 0.999997
vn 0.111566 0.156391 0.981374
vn -0.048675 0.290367 0.955677
vn -0.237703 0.061021 0.969419
vn -0.142705 0.143800 0.979263
vn -0.244566 0.009764 0.969583
vn 0.042769 0.286565 0.957106
vn -0.282927 -0.027046 0.958760
vn -0.037111 -0.237727 0.970623
vn 0.192909 0.024216 0.980918
vn 0.229178 -0.011829 0.973313
vn -0.030528 0.254440 0.966607
vn 0.076186 0.213550 0.973957
vn -0.266784 -0.064491 0.961596
vn -0.235380 0.035915 0.971240
vn -0.080897 0.148663 0.985573
vn -0.001325 -0.000458 0.999999
vn 0.226543 0.215597 0.949840
vn 0.365516 -0.058383 0.928972
vn -0.057286 0.049208 0.997144
vn -0.104292 0.222778 0.969274
vn -0.247417 -0.013917 0.968809
vn 0.000563 0.367258 0.930119
vn 0.000180 -0.000854 1.000000
vn -0.191989 -0.083494 0.977839
vn -0.294998 0.028296 0.955079
vn 0.000900 -0.000068 1.000000
vn 0.142652 -0.196602 0.970051
vn -0.030811 -0.285586 0.957858
vn 0.000538 0.000956 0.999999
vn -0.261552 0.004719 0.965178
vn -0.130698 0.028490 0.991013
vn -0.122354 -0.012083 0.992413
vn 0.003784 0.218361 0.975861
vn 0.056004 0.091351 0.994243
vn -0.028298 0.130337 0.991066
vn -0.024573 0.239920 0.970482
vn 0.231577 -0.027186 0.972437
vn 0.122430 -0.039739 0.991681
vn 0.129569 0.075237 0.988712
vn 0.238698 0.019982 0.970888
vn -0.006221 -0.244264 0.969689
vn -0.008052 -0.114355 0.993407
vn 0.038810 -0.120580 0.991945
vn -0.005319 -0.263393 0.964674
vn 0.059798 -0.233283 0.970569
vn -0.000447 -0.000225 1.000000
vn -0.129831 0.081982 0.988141
vn -0.251269 -0.028961 0.967484
vn -0.302744 -0.087012 0.949092
vn -0.225276 -0.056887 0.972633
vn -0.274549 -0.006533 0.961551
vn 0.015651 0.233674 0.972189
vn 0.095701 0.184295 0.978201
vn 0.027515 0.281083 0.959289
vn -0.235530 0.006852 0.971843
vn -0.247108 0.010902 0.968927
vn -0.250887 0.015211 0.967897
vn -0.032500 0.207585 0.977677
vn -0.141850 0.142638 0.979558
vn -0.076114 0.076218 0.994182
vn 0.000549 -0.000522 1.000000
vn 0.290546 -0.144119 0.945945
vn -0.175589 0.331335 0.927030
vn -0.037484 0.235847 0.971067
vn -0.025906 0.272679 0.961756
vn 0.195184 0.054016 0.979278
vn 0.108756 0.157383 0.981531
vn 0.056961 0.066616 0.996151
vn 0.154811 0.180026 0.971403
vn 0.000001 -0.000173 1.000000
vn -0.074480 0.092438 0.992929
vn 0.347755 0.210614 0.913624
vn 0.216883 0.092461 0.971809
vn 0.323105 0.039545 0.945536
vn -0.067848 -0.188965 0.979637
vn 0.119325 -0.110587 0.986677
vn 0.000590 0.000658 1.000000
vn -0.033685 -0.184791 0.982201
vn -0.065313 -0.067361 0.995589
vn -0.135015 -0.160988 0.977678
vn -0.019338 -0.217387 0.975894
vn -0.034431 -0.249242 0.967829
vn -0.008283 -0.233424 0.972340
vn 0.055402 -0.193300 0.979574
vn 0.065987 -0.066440 0.995606
vn -0.066312 -0.063571 0.995772
vn 0.000000 -0.000000 1.000000
vn -0.111013 -0.111057 0.987594
vn 0.048579 -0.392317 0.918546
vn 0.072310 -0.242266 0.967511
vn -0.003838 -0.246753 0.969071
vn 0.221627 0.002189 0.975129
vn 0.255476 -0.031568 0.966300
vn 0.283826 -0.062760 0.956820
vn -0.010642 0.236583 0.971553
vn -0.271010 0.007842 0.962545
vn 0.147901 -0.142092 0.978742
vn 0.291299 -0.087812 0.952593
vn 0.009231 -0.246398 0.969125
vn -0.004698 0.003535 0.999983
vn 0.198242 -0.043790 0.979174
vn -0.055731 -0.299271 0.952539
vn -0.187158 -0.036351 0.981657
vn 0.000199 -0.001293 0.999999
vn 0.237928 0.006104 0.971264
vn 0.035935 -0.033551 0.998791
vn -0.208646 0.041129 0.977126
vn 0.046271 0.169489 0.984445
vn -0.287381 0.076389 0.954765
vn 0.094350 -0.072502 0.992895
vn 0.026859 -0.017197 0.999491
vn 0.050847 -0.275724 0.959891
vn -0.174060 -0.077613 0.981672
vn 0.295929 0.103589 0.949576
vn -0.133434 0.201084 0.970443
vn 0.060712 0.064933 0.996041
vn 0.118594 0.310426 0.943171
vn -0.121322 -0.102832 0.987272
vn -0.086294 0.054224 0.994793
vn 0.171971 -0.124748 0.977171
vn 0.111026 0.186401 0.976180
vn -0.000984 -0.001936 0.999998
vn -0.172100 0.061270 0.983172
vn 0.122141 0.156623 0.980077
vn -0.058122 -0.085714 0.994623
vn 0.045277 0.056982 0.997348
vn 0.113338 -0.133738 0.984514
vn -0.067856 -0.168131 0.983427
vn -0.076663 -0.120786 0.989714
vn 0.078508 0.103975 0.991477
vn -0.073132 -0.244643 0.966851
f 1/1/1 113/113/113 66/66/66
f 31/31/31 137/137/137 113/113/113
f 132/132/132 127/127/127 26/26/26
f 112/112/112 31/31/31 113/113/113
f 83/83/83 147/147/147 59/59/59
f 106/106/106 33/33/33 51/51/51
f 46/46/46 86/86/86 87/87/87
f 84/84/84 41/41/41 47/47/47
f 137/137/137 66/66/66 113/113/113
f 75/75/75 115/115/115 15/15/15
f 12/12/12 152/152/152 84/84/84
f 153/153/153 81/81/81 60/60/60
f 25/25/25 120/120/120 152/152/152
f 76/76/76 113/113/113 1/1/1
f 76/76/76 112/112/112 113/113/113
f 15/15/15 112/112/112 76/76/76
f 115/115/115 112/112/112 15/15/15
f 30/30/30 115/115/115 117/117/117
f 107/107/107 51/51/51 33/33/33
f 75/75/75 117/117/117 115/115/115
f 115/115/115 30/30/30 42/42/42
f 145/145/145 140/140/140 154/154/154
f 51/51/51 150/150/150 103/103/103
f 136/136/136 22/22/22 30/30/30
f 107/107/107 43/43/43 11/11/11
f 54/54/54 98/98/98 49/49/49
f 42/42/42 112/112/112 115/115/115
f 58/58/58 84/84/84 152/152/152
f 110/110/110 163/163/163 146/146/146
f 60/60/60 120/120/120 111/111/111
f 148/148/148 106/106/106 103/103/103
f 159/159/159 63/63/63 111/111/111
f 147/147/147 83/83/83 122/122/122
f 104/104/104 80/80/80 34/34/34
f 10/10/10 49/49/49 98/98/98
f 160/160/160 164/164/164 156/156/156
f 146/146/146 136/136/136 123/123/123
f 117/117/117 62/62/62 30/30/30
f 43/43/43 139/139/139 100/100/100
f 143/143/143 59/59/59 147/147/147
f 77/77/77 2/2/2 119/119/119
f 77/77/77 119/119/119 118/118/118
f 116/116/116 12/12/12 42/42/42
f 58/58/58 152/152/152 120/120/120
f 63/63/63 28/28/28 121/121/121
f 119/119/119 29/29/29 118/118/118
f 40/40/40 87/87/87 86/86/86
f 125/125/125 27/27/27 62/62/62
f 135/135/135 72/72/72 17/17/17
f 136/136/136 30/30/30 62/62/62
f 95/95/95 53/53/53 153/153/153
f 60/60/60 122/122/122 120/120/120
f 153/153/153 53/53/53 157/157/157
f 11/11/11 32/32/32 107/107/107
f 105/105/105 53/53/53 57/57/57
f 150/150/150 160/160/160 34/34/34
f 32/32/32 158/158/158 150/150/150
f 60/60/60 95/95/95 153/153/153
f 40/40/40 151/151/151 23/23/23
f 24/24/24 138/138/138 164/164/164
f 82/82/82 47/47/47 41/41/41
f 45/45/45 98/98/98 36/36/36
f 82/82/82 137/137/137 47/47/47
f 63/63/63 163/163/163 110/110/110
f 114/114/114 42/42/42 12/12/12
f 62/62/62 117/117/117 125/125/125
f 20/20/20 137/137/137 82/82/82
f 38/38/38 92/92/92 94/94/94
f 20/20/20 66/66/66 137/137/137
f 55/55/55 20/20/20 82/82/82
f 69/69/69 94/94/94 92/92/92
f 43/43/43 100/100/100 101/101/101
f 8/8/8 108/108/108 128/128/128
f 141/141/141 48/48/48 38/38/38
f 50/50/50 80/80/80 134/134/134
f 65/65/65 141/141/141 94/94/94
f 126/126/126 71/71/71 26/26/26
f 38/38/38 94/94/94 141/141/141
f 92/92/92 18/18/18 69/69/69
f 24/24/24 149/149/149 97/97/97
f 159/159/159 25/25/25 162/162/162
f 46/46/46 35/35/35 142/142/142
f 29/29/29 119/119/119 135/135/135
f 23/23/23 151/151/151 164/164/164
f 158/158/158 23/23/23 160/160/160
f 35/35/35 46/46/46 101/101/101
f 129/129/129 45/45/45 36/36/36
f 27/27/27 124/124/124 123/123/123
f 85/85/85 41/41/41 59/59/59
f 78/78/78 125/125/125 9/9/9
f 70/70/70 129/129/129 99/99/99
f 83/83/83 59/59/59 41/41/41
f 129/129/129 70/70/70 18/18/18
f 36/36/36 99/99/99 129/129/129
f 93/93/93 38/38/38 48/48/48
f 38/38/38 45/45/45 92/92/92
f 52/52/52 128/128/128 108/108/108
f 65/65/65 94/94/94 3/3/3
f 72/72/72 135/135/135 119/119/119
f 94/94/94 69/69/69 3/3/3
f 39/39/39 90/90/90 48/48/48
f 21/21/21 141/141/141 65/65/65
f 18/18/18 92/92/92 129/129/129
f 6/6/6 91/91/91 64/64/64
f 163/163/163 159/159/159 165/165/165
f 93/93/93 45/45/45 38/38/38
f 89/89/89 39/39/39 48/48/48
f 13/13/13 124/124/124 131/131/131
f 45/45/45 129/129/129 92/92/92
f 9/9/9 125/125/125 117/117/117
f 64/64/64 89/89/89 21/21/21
f 55/55/55 82/82/82 85/85/85
f 6/6/6 85/85/85 91/91/91
f 59/59/59 91/91/91 85/85/85
f 41/41/41 85/85/85 82/82/82
f 6/6/6 55/55/55 85/85/85
f 110/110/110 146/146/146 61/61/61
f 59/59/59 39/39/39 91/91/91
f 149/149/149 151/151/151 56/56/56
f 143/143/143 39/39/39 59/59/59
f 118/118/118 29/29/29 79/79/79
f 54/54/54 49/49/49 105/105/105
f 145/145/145 144/144/144 134/134/134
f 33/33/33 106/106/106 108/108/108
f 119/119/119 2/2/2 72/72/72
f 49/49/49 157/157/157 53/53/53
f 11/11/11 158/158/158 32/32/32
f 152/152/152 162/162/162 25/25/25
f 10/10/10 98/98/98 93/93/93
f 21/21/21 89/89/89 141/141/141
f 97/97/97 54/54/54 24/24/24
f 51/51/51 32/32/32 150/150/150
f 79/79/79 133/133/133 118/118/118
f 118/118/118 133/133/133 14/14/14
f 79/79/79 131/131/131 124/124/124
f 123/123/123 61/61/61 146/146/146
f 149/149/149 164/164/164 151/151/151
f 48/48/48 141/141/141 89/89/89
f 78/78/78 133/133/133 125/125/125
f 62/62/62 27/27/27 123/123/123
f 162/162/162 165/165/165 159/159/159
f 148/148/148 96/96/96 52/52/52
f 81/81/81 153/153/153 37/37/37
f 156/156/156 34/34/34 160/160/160
f 5/5/5 95/95/95 111/111/111
f 10/10/10 93/93/93 90/90/90
f 130/130/130 143/143/143 37/37/37
f 157/157/157 37/37/37 153/153/153
f 27/27/27 125/125/125 133/133/133
f 121/121/121 5/5/5 111/111/111
f 160/160/160 150/150/150 158/158/158
f 122/122/122 58/58/58 120/120/120
f 17/17/17 126/126/126 135/135/135
f 52/52/52 108/108/108 106/106/106
f 51/51/51 103/103/103 106/106/106
f 60/60/60 111/111/111 95/95/95
f 28/28/28 134/134/134 80/80/80
f 104/104/104 95/95/95 5/5/5
f 28/28/28 140/140/140 134/134/134
f 26/26/26 128/128/128 96/96/96
f 57/57/57 95/95/95 104/104/104
f 144/144/144 145/145/145 132/132/132
f 131/131/131 44/44/44 13/13/13
f 127/127/127 13/13/13 44/44/44
f 45/45/45 93/93/93 98/98/98
f 110/110/110 28/28/28 63/63/63
f 138/138/138 24/24/24 105/105/105
f 9/9/9 117/117/117 75/75/75
f 48/48/48 90/90/90 93/93/93
f 54/54/54 97/97/97 98/98/98
f 130/130/130 90/90/90 39/39/39
f 95/95/95 57/57/57 53/53/53
f 99/99/99 36/36/36 56/56/56
f 80/80/80 104/104/104 5/5/5
f 96/96/96 144/144/144 132/132/132
f 126/126/126 17/17/17 71/71/71
f 109/109/109 12/12/12 116/116/116
f 25/25/25 159/159/159 111/111/111
f 52/52/52 96/96/96 128/128/128
f 103/103/103 150/150/150 34/34/34
f 36/36/36 98/98/98 97/97/97
f 37/37/37 157/157/157 130/130/130
f 16/16/16 100/100/100 139/139/139
f 58/58/58 122/122/122 83/83/83
f 26/26/26 96/96/96 132/132/132
f 159/159/159 163/163/163 63/63/63
f 120/120/120 25/25/25 111/111/111
f 12/12/12 109/109/109 152/152/152
f 14/14/14 133/133/133 78/78/78
f 156/156/156 164/164/164 138/138/138
f 13/13/13 154/154/154 124/124/124
f 44/44/44 135/135/135 126/126/126
f 149/149/149 24/24/24 164/164/164
f 34/34/34 156/156/156 104/104/104
f 57/57/57 104/104/104 156/156/156
f 121/121/121 80/80/80 5/5/5
f 63/63/63 121/121/121 111/111/111
f 121/121/121 28/28/28 80/80/80
f 77/77/77 118/118/118 14/14/14
f 101/101/101 11/11/11 43/43/43
f 147/147/147 122/122/122 81/81/81
f 131/131/131 79/79/79 29/29/29
f 140/140/140 145/145/145 134/134/134
f 49/49/49 10/10/10 157/157/157
f 124/124/124 27/27/27 79/79/79
f 139/139/139 33/33/33 108/108/108
f 134/134/134 144/144/144 50/50/50
f 133/133/133 79/79/79 27/27/27
f 26/26/26 127/127/127 126/126/126
f 40/40/40 88/88/88 151/151/151
f 11/11/11 155/155/155 158/158/158
f 103/103/103 34/34/34 50/50/50
f 140/140/140 28/28/28 110/110/110
f 61/61/61 124/124/124 154/154/154
f 127/127/127 132/132/132 154/154/154
f 97/97/97 56/56/56 36/36/36
f 86/86/86 46/46/46 142/142/142
f 128/128/128 26/26/26 71/71/71
f 29/29/29 135/135/135 131/131/131
f 74/74/74 139/139/139 108/108/108
f 43/43/43 107/107/107 139/139/139
f 137/137/137 31/31/31 47/47/47
f 114/114/114 47/47/47 31/31/31
f 88/88/88 40/40/40 86/86/86
f 33/33/33 139/139/139 107/107/107
f 102/102/102 35/35/35 100/100/100
f 68/68/68 142/142/142 102/102/102
f 88/88/88 99/99/99 56/56/56
f 142/142/142 35/35/35 102/102/102
f 62/62/62 123/123/123 136/136/136
f 122/122/122 60/60/60 81/81/81
f 19/19/19 86/86/86 142/142/142
f 56/56/56 151/151/151 88/88/88
f 44/44/44 126/126/126 127/127/127
f 105/105/105 24/24/24 54/54/54
f 42/42/42 114/114/114 112/112/112
f 44/44/44 131/131/131 135/135/135
f 83/83/83 41/41/41 58/58/58
f 87/87/87 155/155/155 46/46/46
f 35/35/35 101/101/101 100/100/100
f 80/80/80 50/50/50 34/34/34
f 64/64/64 91/91/91 89/89/89
f 87/87/87 40/40/40 23/23/23
f 67/67/67 88/88/88 86/86/86
f 7/7/7 99/99/99 88/88/88
f 7/7/7 70/70/70 99/99/99
f 67/67/67 7/7/7 88/88/88
f 19/19/19 67/67/67 86/86/86
f 68/68/68 19/19/19 142/142/142
f 73/73/73 102/102/102 100/100/100
f 4/4/4 68/68/68 102/102/102
f 73/73/73 4/4/4 102/102/102
f 16/16/16 73/73/73 100/100/100
f 74/74/74 16/16/16 139/139/139
f 8/8/8 74/74/74 108/108/108
f 39/39/39 89/89/89 91/91/91
f 116/116/116 22/22/22 109/109/109
f 116/116/116 42/42/42 30/30/30
f 57/57/57 138/138/138 105/105/105
f 61/61/61 123/123/123 124/124/124
f 106/106/106 148/148/148 52/52/52
f 23/23/23 158/158/158 87/87/87
f 128/128/128 71/71/71 8/8/8
f 90/90/90 130/130/130 157/157/157
f 32/32/32 51/51/51 107/107/107
f 138/138/138 57/57/57 156/156/156
f 84/84/84 58/58/58 41/41/41
f 31/31/31 112/112/112 114/114/114
f 53/53/53 105/105/105 49/49/49
f 155/155/155 101/101/101 46/46/46
f 154/154/154 132/132/132 145/145/145
f 84/84/84 114/114/114 12/12/12
f 101/101/101 155/155/155 11/11/11
f 114/114/114 84/84/84 47/47/47
f 97/97/97 149/149/149 56/56/56
f 154/154/154 13/13/13 127/127/127
f 90/90/90 157/157/157 10/10/10
f 143/143/143 130/130/130 39/39/39
f 140/140/140 161/161/161 154/154/154
f 164/164/164 160/160/160 23/23/23
f 116/116/116 30/30/30 22/22/22
f 87/87/87 158/158/158 155/155/155
f 161/161/161 61/61/61 154/154/154
f 22/22/22 165/165/165 162/162/162
f 61/61/61 161/161/161 110/110/110
f 161/161/161 140/140/140 110/110/110
f 109/109/109 162/162/162 152/152/152
f 162/162/162 109/109/109 22/22/22
f 144/144/144 96/96/96 148/148/148
f 146/146/146 163/163/163 136/136/136
f 50/50/50 148/148/148 103/103/103
f 148/148/148 50/50/50 144/144/144
f 163/163/163 165/165/165 136/136/136
f 165/165/165 22/22/22 136/136/136
f 147/147/147 81/81/81 143/143/143
f 37/37/37 143/143/143 81/81/81
