# frame 000351 
# time 0.176000 
# name Cloth3D 
v -0.000000 0.000000 -0.000000
v 1.000000 0.000000 -0.000000
v -0.000000 1.000000 0.000000
v 1.000000 1.000000 0.000000
v 0.501311 0.500546 0.082784
v -0.000000 0.500000 0.000000
v 0.500000 1.000000 0.000000
v 1.000000 0.500000 0.000000
v 0.500000 -0.000000 0.000000
v 0.247890 0.752937 0.056678
v 0.751871 0.751354 0.047762
v 0.247754 0.247786 0.054900
v 0.752877 0.247994 0.053129
v 0.750000 0.000000 0.000000
v 0.250000 0.000000 0.000000
v 1.000000 0.750000 0.000000
v 1.000000 0.250000 0.000000
v 0.250000 1.000000 0.000000
v 0.750000 1.000000 0.000000
v 0.000000 0.250000 0.000000
v 0.000000 0.750000 -0.000000
v 0.364800 0.218571 0.054051
v 0.630128 0.773907 0.059330
v 0.480307 0.775162 0.082968
v 0.374049 0.371771 0.082936
v 0.875511 0.375672 0.027745
v 0.625854 0.124225 0.032324
v 0.628602 0.372661 0.082784
v 0.875926 0.124376 0.017319
v 0.375076 0.124930 0.028201
v 0.124267 0.124192 0.018308
v 0.752729 0.688425 0.056282
v 0.877315 0.624796 0.034798
v 0.628533 0.628043 0.082784
v 0.876004 0.875622 0.016530
v 0.375342 0.875675 0.030177
v 0.259794 0.601157 0.068579
v 0.123918 0.876248 0.021202
v 0.124945 0.625288 0.029514
v 0.625261 0.876528 0.032536
v 0.123395 0.374728 0.034934
v 0.249285 0.123913 0.027519
v 0.876802 0.750418 0.028965
v 0.876854 0.249575 0.029263
v 0.249412 0.876740 0.029948
v 0.750646 0.875771 0.024970
v 0.123702 0.249159 0.029391
v 0.123560 0.750994 0.030659
v 0.302804 0.717122 0.067480
v 0.696896 0.508462 0.082857
v 0.754532 0.625746 0.067893
v 0.880620 0.500260 0.046585
v 0.373514 0.645979 0.082936
v 0.374894 0.752951 0.062790
v 0.000000 0.375000 0.000000
v 0.500294 0.878588 0.040971
v 0.501033 0.628577 0.082785
v 0.247153 0.374049 0.066361
v 0.123826 0.500026 0.034930
v 0.373347 0.500443 0.082785
v 0.627139 0.246128 0.069538
v 0.500691 0.124770 0.031587
v 0.501254 0.372613 0.082785
v 0.000000 0.625000 0.000000
v 0.000000 0.875000 0.000000
v 0.000000 0.125000 0.000000
v 0.625000 1.000000 0.000000
v 0.875000 1.000000 0.000000
v 0.125000 1.000000 0.000000
v 0.375000 1.000000 0.000000
v 1.000000 0.375000 0.000000
v 1.000000 0.125000 0.000000
v 1.000000 0.875000 0.000000
v 1.000000 0.625000 0.000000
v 0.375000 0.000000 0.000000
v 0.125000 0.000000 0.000000
v 0.875000 0.000000 0.000000
v 0.625000 0.000000 0.000000
v 0.751291 0.123265 0.030857
v 0.629229 0.500556 0.082785
v 0.293633 0.549648 0.082941
v 0.062305 0.312400 0.014423
v 0.184595 0.437509 0.055765
v 0.184527 0.311235 0.051238
v 0.061657 0.437490 0.018169
v 0.687583 0.937800 0.013428
v 0.688826 0.815219 0.047452
v 0.562513 0.937719 0.015046
v 0.061953 0.687693 0.016104
v 0.185844 0.688837 0.046963
v 0.062030 0.562569 0.016965
v 0.187292 0.937971 0.011844
v 0.185585 0.814881 0.039918
v 0.062411 0.937610 0.004152
v 0.437394 0.564374 0.082785
v 0.837488 0.424496 0.045135
v 0.438219 0.816581 0.057176
v 0.311851 0.815016 0.047292
v 0.437606 0.938702 0.018522
v 0.939142 0.812867 0.016908
v 0.814049 0.813641 0.032306
v 0.937286 0.937200 -0.001626
v 0.720885 0.602788 0.082929
v 0.565010 0.564457 0.082785
v 0.415024 0.696142 0.082929
v 0.820491 0.563569 0.069728
v 0.814606 0.687842 0.043374
v 0.938738 0.562365 0.018559
v 0.309370 0.258825 0.062913
v 0.588043 0.279178 0.082929
v 0.437420 0.436713 0.082785
v 0.187483 0.062706 0.008053
v 0.062289 0.062266 0.005814
v 0.185414 0.185247 0.039829
v 0.312486 0.062037 0.015036
v 0.311656 0.185913 0.044589
v 0.437740 0.062139 0.016545
v 0.812868 0.061926 0.012318
v 0.937482 0.062585 0.002020
v 0.322250 0.414615 0.082929
v 0.565128 0.436631 0.082785
v 0.263536 0.463158 0.082929
v 0.563619 0.182980 0.060417
v 0.689455 0.184863 0.049531
v 0.562854 0.062108 0.016812
v 0.937576 0.312735 0.012365
v 0.814364 0.312148 0.042518
v 0.939152 0.437625 0.019559
v 0.312587 0.937319 0.012165
v 0.186819 0.625664 0.045673
v 0.814898 0.185749 0.037668
v 0.803263 0.372606 0.049928
v 0.687898 0.061572 0.017255
v 0.692821 0.436859 0.082785
v 0.938321 0.187416 0.012833
v 0.438076 0.186735 0.046797
v 0.062595 0.187378 0.009141
v 0.497722 0.694773 0.082876
v 0.937580 0.687352 0.012312
v 0.667539 0.375327 0.082929
v 0.062197 0.812793 0.011792
v 0.812809 0.938052 0.012087
v 0.186825 0.562331 0.047983
v 0.747224 0.471391 0.082939
v 0.707642 0.423690 0.082936
v 0.546709 0.228503 0.082942
v 0.238540 0.483259 0.082942
v 0.801462 0.536741 0.082942
v 0.493259 0.791460 0.082942
v 0.664662 0.649276 0.082929
v 0.580459 0.834118 0.049634
v 0.294373 0.330175 0.071747
v 0.334101 0.598426 0.082939
v 0.717255 0.298253 0.068216
v 0.751237 0.813873 0.037680
v 0.583512 0.676825 0.082857
v 0.279087 0.659481 0.071170
v 0.690235 0.759661 0.053289
v 0.423288 0.330956 0.082939
v 0.615637 0.689912 0.082936
v 0.649636 0.307686 0.077353
v 0.362763 0.291622 0.072454
v 0.472796 0.289868 0.082941
v 0.566763 0.730460 0.082939
v 0.418151 0.253740 0.067963
vt 0.000000 0.000000
vt 1.000000 0.000000
vt 0.000000 1.000000
vt 1.000000 1.000000
vt 0.500000 0.500000
vt 0.000000 0.500000
vt 0.500000 1.000000
vt 1.000000 0.500000
vt 0.500000 0.000000
vt 0.250000 0.750000
vt 0.750000 0.750000
vt 0.250000 0.250000
vt 0.750000 0.250000
vt 0.750000 0.000000
vt 0.250000 0.000000
vt 1.000000 0.750000
vt 1.000000 0.250000
vt 0.250000 1.000000
vt 0.750000 1.000000
vt 0.000000 0.250000
vt 0.000000 0.750000
vt 0.365347 0.220303
vt 0.629073 0.770824
vt 0.480372 0.766745
vt 0.375520 0.373601
vt 0.875000 0.375000
vt 0.625000 0.125000
vt 0.625000 0.375000
vt 0.875000 0.125000
vt 0.375000 0.125000
vt 0.125000 0.125000
vt 0.750000 0.687500
vt 0.875000 0.625000
vt 0.625000 0.625000
vt 0.875000 0.875000
vt 0.375000 0.875000
vt 0.262101 0.599801
vt 0.125000 0.875000
vt 0.125000 0.625000
vt 0.625000 0.875000
vt 0.125000 0.375000
vt 0.250000 0.125000
vt 0.875000 0.750000
vt 0.875000 0.250000
vt 0.250000 0.875000
vt 0.750000 0.875000
vt 0.125000 0.250000
vt 0.125000 0.750000
vt 0.304602 0.713891
vt 0.690882 0.507820
vt 0.750000 0.625000
vt 0.875000 0.500000
vt 0.374830 0.642669
vt 0.375000 0.750000
vt 0.000000 0.375000
vt 0.500000 0.875000
vt 0.500000 0.625000
vt 0.250000 0.375000
vt 0.125000 0.500000
vt 0.375000 0.500000
vt 0.625000 0.250000
vt 0.500000 0.125000
vt 0.500000 0.375000
vt 0.000000 0.625000
vt 0.000000 0.875000
vt 0.000000 0.125000
vt 0.625000 1.000000
vt 0.875000 1.000000
vt 0.125000 1.000000
vt 0.375000 1.000000
vt 1.000000 0.375000
vt 1.000000 0.125000
vt 1.000000 0.875000
vt 1.000000 0.625000
vt 0.375000 0.000000
vt 0.125000 0.000000
vt 0.875000 0.000000
vt 0.625000 0.000000
vt 0.750000 0.125000
vt 0.625000 0.500000
vt 0.297139 0.548469
vt 0.062500 0.312500
vt 0.187500 0.437500
vt 0.187500 0.312500
vt 0.062500 0.437500
vt 0.687500 0.937500
vt 0.687500 0.812500
vt 0.562500 0.937500
vt 0.062500 0.687500
vt 0.187500 0.687500
vt 0.062500 0.562500
vt 0.187500 0.937500
vt 0.187500 0.812500
vt 0.062500 0.937500
vt 0.437500 0.562500
vt 0.834853 0.423541
vt 0.437500 0.812500
vt 0.312500 0.812500
vt 0.437500 0.937500
vt 0.937500 0.812500
vt 0.812500 0.812500
vt 0.937500 0.937500
vt 0.714859 0.600637
vt 0.562500 0.562500
vt 0.415605 0.691456
vt 0.812500 0.562500
vt 0.812500 0.687500
vt 0.937500 0.562500
vt 0.311128 0.261404
vt 0.585708 0.284354
vt 0.437500 0.437500
vt 0.187500 0.062500
vt 0.062500 0.062500
vt 0.187500 0.187500
vt 0.312500 0.062500
vt 0.312500 0.187500
vt 0.437500 0.062500
vt 0.812500 0.062500
vt 0.937500 0.062500
vt 0.325115 0.415544
vt 0.562500 0.437500
vt 0.268585 0.463221
vt 0.562500 0.187500
vt 0.687500 0.187500
vt 0.562500 0.062500
vt 0.937500 0.312500
vt 0.812500 0.312500
vt 0.937500 0.437500
vt 0.312500 0.937500
vt 0.187500 0.625000
vt 0.812500 0.187500
vt 0.800716 0.372483
vt 0.687500 0.062500
vt 0.687500 0.437500
vt 0.937500 0.187500
vt 0.437500 0.187500
vt 0.062500 0.187500
vt 0.497032 0.689303
vt 0.937500 0.687500
vt 0.663178 0.377308
vt 0.062500 0.812500
vt 0.812500 0.937500
vt 0.187500 0.562500
vt 0.740081 0.471496
vt 0.702129 0.424575
vt 0.545431 0.236258
vt 0.244835 0.483122
vt 0.791371 0.535568
vt 0.493145 0.782061
vt 0.660540 0.646019
vt 0.580205 0.830830
vt 0.296906 0.332149
vt 0.336308 0.596261
vt 0.713437 0.300753
vt 0.750000 0.812500
vt 0.581168 0.672349
vt 0.281585 0.657008
vt 0.688844 0.757642
vt 0.423684 0.333859
vt 0.612727 0.685463
vt 0.646352 0.310977
vt 0.364019 0.294291
vt 0.472371 0.294311
vt 0.565034 0.724427
vt 0.418341 0.256674
vn -0.047532 -0.047532 0.997738
vn 0.017984 -0.017984 0.999677
vn -0.034511 0.034511 0.998808
vn -0.012070 -0.012070 0.999854
vn 0.000000 0.000000 1.000000
vn -0.273032 0.003575 0.961998
vn 0.014949 0.260204 0.965438
vn 0.294776 0.005008 0.955553
vn -0.000444 -0.258009 0.966142
vn -0.126233 0.138325 0.982309
vn 0.123333 0.137464 0.982798
vn -0.106532 -0.163579 0.980761
vn 0.179408 -0.124533 0.975861
vn 0.019614 -0.233932 0.972055
vn -0.027248 -0.181709 0.982975
vn 0.233239 -0.019369 0.972227
vn 0.198619 0.002078 0.980075
vn -0.001064 0.189030 0.981971
vn 0.004100 0.203010 0.979168
vn -0.184672 -0.020212 0.982592
vn -0.219453 0.016990 0.975475
vn -0.034102 -0.260349 0.964912
vn 0.128060 0.225804 0.965719
vn -0.172312 0.148560 0.973776
vn -0.048607 -0.062079 0.996887
vn 0.260811 -0.079883 0.962079
vn 0.018620 -0.296005 0.955005
vn -0.002444 0.002385 0.999994
vn 0.137018 -0.144477 0.979976
vn -0.006022 -0.236162 0.971695
vn -0.131147 -0.136327 0.981945
vn 0.190329 0.159223 0.968722
vn 0.299173 0.126004 0.945843
vn -0.001436 -0.002090 0.999997
vn 0.110327 0.155140 0.981713
vn -0.052497 0.289005 0.955887
vn -0.243805 0.062948 0.967779
vn -0.141990 0.143016 0.979482
vn -0.240058 0.009966 0.970707
vn 0.046665 0.285329 0.957293
vn -0.280783 -0.026634 0.959402
vn -0.045953 -0.237916 0.970198
vn 0.188425 0.024346 0.981786
vn 0.224561 -0.014433 0.974353
vn -0.031133 0.251405 0.967381
vn 0.079364 0.207676 0.974973
vn -0.266395 -0.064780 0.961684
vn -0.233448 0.036999 0.971665
vn -0.087514 0.154145 0.984165
vn -0.001332 -0.000453 0.999999
vn 0.226232 0.228570 0.946876
vn 0.365686 -0.062388 0.928645
vn -0.059248 0.050853 0.996947
vn -0.110599 0.226145 0.967794
vn -0.251937 -0.014641 0.967633
vn -0.000262 0.367823 0.929896
vn 0.000179 -0.000853 1.000000
vn -0.197041 -0.083446 0.976838
vn -0.294892 0.029319 0.955081
vn 0.000901 -0.000077 1.000000
vn 0.152946 -0.199986 0.967788
vn -0.034658 -0.286746 0.957379
vn 0.000542 0.000960 0.999999
vn -0.259157 0.003723 0.965828
vn -0.128137 0.029704 0.991312
vn -0.120078 -0.012656 0.992684
vn 0.005344 0.221306 0.975190
vn 0.055337 0.086056 0.994752
vn -0.029835 0.128411 0.991272
vn -0.025381 0.240042 0.970431
vn 0.233214 -0.028269 0.972014
vn 0.119809 -0.042081 0.991905
vn 0.124715 0.074781 0.989370
vn 0.240654 0.023320 0.970331
vn -0.005891 -0.245871 0.969285
vn -0.008392 -0.111613 0.993716
vn 0.040398 -0.116467 0.992373
vn -0.003261 -0.265030 0.964235
vn 0.061467 -0.229549 0.971354
vn -0.000447 -0.000225 1.000000
vn -0.131713 0.083421 0.987772
vn -0.251727 -0.028868 0.967368
vn -0.307297 -0.089739 0.947373
vn -0.226846 -0.054711 0.972393
vn -0.272816 -0.005439 0.962051
vn 0.018734 0.233012 0.972293
vn 0.106785 0.173150 0.979089
vn 0.028290 0.284035 0.958396
vn -0.235427 0.007239 0.971865
vn -0.244629 0.010049 0.969565
vn -0.250755 0.015117 0.967933
vn -0.032632 0.204517 0.978319
vn -0.140016 0.142571 0.979831
vn -0.075012 0.074949 0.994362
vn 0.000551 -0.000523 1.000000
vn 0.292336 -0.143063 0.945554
vn -0.181243 0.333909 0.925016
vn -0.042746 0.235082 0.971035
vn -0.027215 0.276029 0.960764
vn 0.190806 0.052791 0.980207
vn 0.103727 0.151218 0.983043
vn 0.054960 0.064721 0.996389
vn 0.155050 0.184475 0.970530
vn 0.000001 -0.000173 1.000000
vn -0.077157 0.093486 0.992626
vn 0.345976 0.202190 0.916198
vn 0.213700 0.106927 0.971030
vn 0.328212 0.039034 0.943797
vn -0.066768 -0.197704 0.977985
vn 0.125979 -0.116014 0.985226
vn 0.000588 0.000658 1.000000
vn -0.035308 -0.185349 0.982038
vn -0.064589 -0.066756 0.995677
vn -0.136708 -0.161669 0.977330
vn -0.018378 -0.226388 0.973864
vn -0.031060 -0.242957 0.969540
vn -0.009429 -0.232896 0.972456
vn 0.056703 -0.191887 0.979778
vn 0.064249 -0.065083 0.995809
vn -0.068591 -0.064831 0.995536
vn 0.000000 -0.000000 1.000000
vn -0.113592 -0.115775 0.986759
vn 0.048876 -0.390844 0.919158
vn 0.077732 -0.237978 0.968155
vn -0.003496 -0.247758 0.968816
vn 0.220641 -0.000018 0.975355
vn 0.253467 -0.040014 0.966516
vn 0.285692 -0.063507 0.956215
vn -0.012386 0.236125 0.971644
vn -0.266241 0.009542 0.963859
vn 0.147625 -0.137833 0.979392
vn 0.291143 -0.092229 0.952223
vn 0.010424 -0.246978 0.968965
vn -0.004810 0.003598 0.999982
vn 0.194827 -0.043901 0.979855
vn -0.059292 -0.299400 0.952284
vn -0.188360 -0.037852 0.981370
vn 0.000192 -0.001292 0.999999
vn 0.236056 0.011497 0.971671
vn 0.040991 -0.036387 0.998497
vn -0.206460 0.041801 0.977562
vn 0.046473 0.166368 0.984968
vn -0.286822 0.080307 0.954612
vn 0.093151 -0.070876 0.993126
vn 0.026562 -0.017459 0.999495
vn 0.055461 -0.271913 0.960722
vn -0.175360 -0.084340 0.980885
vn 0.293248 0.099337 0.950862
vn -0.143216 0.201866 0.968886
vn 0.062772 0.068724 0.995659
vn 0.122133 0.308113 0.943478
vn -0.124323 -0.104419 0.986732
vn -0.088791 0.054966 0.994532
vn 0.176190 -0.129238 0.975835
vn 0.113470 0.177653 0.977530
vn -0.000999 -0.001958 0.999998
vn -0.177358 0.063773 0.982078
vn 0.132539 0.151821 0.979481
vn -0.057396 -0.087976 0.994468
vn 0.046849 0.058728 0.997174
vn 0.126407 -0.141314 0.981861
vn -0.068105 -0.175945 0.982041
vn -0.078644 -0.123098 0.989273
vn 0.079373 0.104263 0.991377
vn -0.073396 -0.250973 0.965208
f 1/1/1 113/113/113 66/66/66
f 31/31/31 137/137/137 113/113/113
f 132/132/132 127/127/127 26/26/26
f 112/112/112 31/31/31 113/113/113
f 83/83/83 147/147/147 59/59/59
f 106/106/106 33/33/33 51/51/51
f 46/46/46 86/86/86 87/87/87
f 84/84/84 41/41/41 47/47/47
f 137/137/137 66/66/66 113/113/113
f 75/75/75 115/115/115 15/15/15
f 12/12/12 152/152/152 84/84/84
f 153/153/153 81/81/81 60/60/60
f 25/25/25 120/120/120 152/152/152
f 76/76/76 113/113/113 1/1/1
f 76/76/76 112/112/112 113/113/113
f 15/15/15 112/112/112 76/76/76
f 115/115/115 112/112/112 15/15/15
f 30/30/30 115/115/115 117/117/117
f 107/107/107 51/51/51 33/33/33
f 75/75/75 117/117/117 115/115/115
f 37/37/37 143/143/143 81/81/81
f 145/145/145 140/140/140 154/154/154
f 51/51/51 150/150/150 103/103/103
f 136/136/136 22/22/22 30/30/30
f 107/107/107 43/43/43 11/11/11
f 54/54/54 98/98/98 49/49/49
f 42/42/42 112/112/112 115/115/115
f 58/58/58 84/84/84 152/152/152
f 110/110/110 163/163/163 146/146/146
f 60/60/60 120/120/120 111/111/111
f 148/148/148 106/106/106 103/103/103
f 159/159/159 63/63/63 111/111/111
f 147/147/147 83/83/83 122/122/122
f 104/104/104 80/80/80 34/34/34
f 10/10/10 49/49/49 98/98/98
f 160/160/160 164/164/164 156/156/156
f 146/146/146 136/136/136 123/123/123
f 117/117/117 62/62/62 30/30/30
f 43/43/43 139/139/139 100/100/100
f 143/143/143 59/59/59 147/147/147
f 77/77/77 2/2/2 119/119/119
f 77/77/77 119/119/119 118/118/118
f 116/116/116 12/12/12 42/42/42
f 58/58/58 152/152/152 120/120/120
f 63/63/63 28/28/28 121/121/121
f 119/119/119 29/29/29 118/118/118
f 40/40/40 87/87/87 86/86/86
f 125/125/125 27/27/27 62/62/62
f 135/135/135 72/72/72 17/17/17
f 136/136/136 30/30/30 62/62/62
f 95/95/95 53/53/53 153/153/153
f 60/60/60 122/122/122 120/120/120
f 153/153/153 53/53/53 157/157/157
f 11/11/11 32/32/32 107/107/107
f 105/105/105 53/53/53 57/57/57
f 150/150/150 160/160/160 34/34/34
f 32/32/32 158/158/158 150/150/150
f 60/60/60 95/95/95 153/153/153
f 40/40/40 151/151/151 23/23/23
f 24/24/24 138/138/138 164/164/164
f 82/82/82 47/47/47 41/41/41
f 45/45/45 98/98/98 36/36/36
f 82/82/82 137/137/137 47/47/47
f 63/63/63 163/163/163 110/110/110
f 114/114/114 42/42/42 12/12/12
f 62/62/62 117/117/117 125/125/125
f 20/20/20 137/137/137 82/82/82
f 38/38/38 92/92/92 94/94/94
f 20/20/20 66/66/66 137/137/137
f 55/55/55 20/20/20 82/82/82
f 69/69/69 94/94/94 92/92/92
f 43/43/43 100/100/100 101/101/101
f 8/8/8 108/108/108 128/128/128
f 141/141/141 48/48/48 38/38/38
f 50/50/50 80/80/80 134/134/134
f 65/65/65 141/141/141 94/94/94
f 126/126/126 71/71/71 26/26/26
f 38/38/38 94/94/94 141/141/141
f 92/92/92 18/18/18 69/69/69
f 24/24/24 149/149/149 97/97/97
f 159/159/159 25/25/25 162/162/162
f 46/46/46 35/35/35 142/142/142
f 29/29/29 119/119/119 135/135/135
f 23/23/23 151/151/151 164/164/164
f 158/158/158 23/23/23 160/160/160
f 35/35/35 46/46/46 101/101/101
f 129/129/129 45/45/45 36/36/36
f 27/27/27 124/124/124 123/123/123
f 85/85/85 41/41/41 59/59/59
f 78/78/78 125/125/125 9/9/9
f 70/70/70 129/129/129 99/99/99
f 83/83/83 59/59/59 41/41/41
f 129/129/129 70/70/70 18/18/18
f 36/36/36 99/99/99 129/129/129
f 93/93/93 38/38/38 48/48/48
f 38/38/38 45/45/45 92/92/92
f 52/52/52 128/128/128 108/108/108
f 65/65/65 94/94/94 3/3/3
f 72/72/72 135/135/135 119/119/119
f 94/94/94 69/69/69 3/3/3
f 39/39/39 90/90/90 48/48/48
f 21/21/21 141/141/141 65/65/65
f 18/18/18 92/92/92 129/129/129
f 6/6/6 91/91/91 64/64/64
f 163/163/163 159/159/159 165/165/165
f 93/93/93 45/45/45 38/38/38
f 89/89/89 39/39/39 48/48/48
f 13/13/13 124/124/124 131/131/131
f 45/45/45 129/129/129 92/92/92
f 9/9/9 125/125/125 117/117/117
f 64/64/64 89/89/89 21/21/21
f 55/55/55 82/82/82 85/85/85
f 6/6/6 85/85/85 91/91/91
f 59/59/59 91/91/91 85/85/85
f 41/41/41 85/85/85 82/82/82
f 6/6/6 55/55/55 85/85/85
f 110/110/110 146/146/146 61/61/61
f 59/59/59 39/39/39 91/91/91
f 149/149/149 151/151/151 56/56/56
f 143/143/143 39/39/39 59/59/59
f 118/118/118 29/29/29 79/79/79
f 54/54/54 49/49/49 105/105/105
f 145/145/145 144/144/144 134/134/134
f 33/33/33 106/106/106 108/108/108
f 119/119/119 2/2/2 72/72/72
f 49/49/49 157/157/157 53/53/53
f 11/11/11 158/158/158 32/32/32
f 152/152/152 162/162/162 25/25/25
f 10/10/10 98/98/98 93/93/93
f 21/21/21 89/89/89 141/141/141
f 97/97/97 54/54/54 24/24/24
f 51/51/51 32/32/32 150/150/150
f 79/79/79 133/133/133 118/118/118
f 118/118/118 133/133/133 14/14/14
f 79/79/79 131/131/131 124/124/124
f 123/123/123 61/61/61 146/146/146
f 149/149/149 164/164/164 151/151/151
f 48/48/48 141/141/141 89/89/89
f 78/78/78 133/133/133 125/125/125
f 62/62/62 27/27/27 123/123/123
f 162/162/162 165/165/165 159/159/159
f 148/148/148 96/96/96 52/52/52
f 81/81/81 153/153/153 37/37/37
f 156/156/156 34/34/34 160/160/160
f 5/5/5 95/95/95 111/111/111
f 10/10/10 93/93/93 90/90/90
f 130/130/130 143/143/143 37/37/37
f 157/157/157 37/37/37 153/153/153
f 27/27/27 125/125/125 133/133/133
f 121/121/121 5/5/5 111/111/111
f 160/160/160 150/150/150 158/158/158
f 122/122/122 58/58/58 120/120/120
f 17/17/17 126/126/126 135/135/135
f 52/52/52 108/108/108 106/106/106
f 51/51/51 103/103/103 106/106/106
f 60/60/60 111/111/111 95/95/95
f 28/28/28 134/134/134 80/80/80
f 104/104/104 95/95/95 5/5/5
f 28/28/28 140/140/140 134/134/134
f 26/26/26 128/128/128 96/96/96
f 57/57/57 95/95/95 104/104/104
f 144/144/144 145/145/145 132/132/132
f 131/131/131 44/44/44 13/13/13
f 127/127/127 13/13/13 44/44/44
f 45/45/45 93/93/93 98/98/98
f 110/110/110 28/28/28 63/63/63
f 138/138/138 24/24/24 105/105/105
f 9/9/9 117/117/117 75/75/75
f 48/48/48 90/90/90 93/93/93
f 54/54/54 97/97/97 98/98/98
f 130/130/130 90/90/90 39/39/39
f 95/95/95 57/57/57 53/53/53
f 99/99/99 36/36/36 56/56/56
f 80/80/80 104/104/104 5/5/5
f 96/96/96 144/144/144 132/132/132
f 126/126/126 17/17/17 71/71/71
f 109/109/109 12/12/12 116/116/116
f 25/25/25 159/159/159 111/111/111
f 52/52/52 96/96/96 128/128/128
f 103/103/103 150/150/150 34/34/34
f 36/36/36 98/98/98 97/97/97
f 37/37/37 157/157/157 130/130/130
f 16/16/16 100/100/100 139/139/139
f 58/58/58 122/122/122 83/83/83
f 26/26/26 96/96/96 132/132/132
f 159/159/159 163/163/163 63/63/63
f 120/120/120 25/25/25 111/111/111
f 12/12/12 109/109/109 152/152/152
f 14/14/14 133/133/133 78/78/78
f 156/156/156 164/164/164 138/138/138
f 13/13/13 154/154/154 124/124/124
f 44/44/44 135/135/135 126/126/126
f 149/149/149 24/24/24 164/164/164
f 34/34/34 156/156/156 104/104/104
f 57/57/57 104/104/104 156/156/156
f 121/121/121 80/80/80 5/5/5
f 63/63/63 121/121/121 111/111/111
f 121/121/121 28/28/28 80/80/80
f 77/77/77 118/118/118 14/14/14
f 101/101/101 11/11/11 43/43/43
f 147/147/147 122/122/122 81/81/81
f 131/131/131 79/79/79 29/29/29
f 140/140/140 145/145/145 134/134/134
f 49/49/49 10/10/10 157/157/157
f 124/124/124 27/27/27 79/79/79
f 139/139/139 33/33/33 108/108/108
f 134/134/134 144/144/144 50/50/50
f 133/133/133 79/79/79 27/27/27
f 26/26/26 127/127/127 126/126/126
f 40/40/40 88/88/88 151/151/151
f 11/11/11 155/155/155 158/158/158
f 103/103/103 34/34/34 50/50/50
f 140/140/140 28/28/28 110/110/110
f 61/61/61 124/124/124 154/154/154
f 127/127/127 132/132/132 154/154/154
f 97/97/97 56/56/56 36/36/36
f 86/86/86 46/46/46 142/142/142
f 128/128/128 26/26/26 71/71/71
f 29/29/29 135/135/135 131/131/131
f 74/74/74 139/139/139 108/108/108
f 43/43/43 107/107/107 139/139/139
f 137/137/137 31/31/31 47/47/47
f 114/114/114 47/47/47 31/31/31
f 88/88/88 40/40/40 86/86/86
f 33/33/33 139/139/139 107/107/107
f 102/102/102 35/35/35 100/100/100
f 68/68/68 142/142/142 102/102/102
f 88/88/88 99/99/99 56/56/56
f 142/142/142 35/35/35 102/102/102
f 62/62/62 123/123/123 136/136/136
f 122/122/122 60/60/60 81/81/81
f 19/19/19 86/86/86 142/142/142
f 56/56/56 151/151/151 88/88/88
f 44/44/44 126/126/126 127/127/127
f 105/105/105 24/24/24 54/54/54
f 42/42/42 114/114/114 112/112/112
f 44/44/44 131/131/131 135/135/135
f 83/83/83 41/41/41 58/58/58
f 87/87/87 155/155/155 46/46/46
f 35/35/35 101/101/101 100/100/100
f 80/80/80 50/50/50 34/34/34
f 64/64/64 91/91/91 89/89/89
f 87/87/87 40/40/40 23/23/23
f 67/67/67 88/88/88 86/86/86
f 7/7/7 99/99/99 88/88/88
f 7/7/7 70/70/70 99/99/99
f 67/67/67 7/7/7 88/88/88
f 19/19/19 67/67/67 86/86/86
f 68/68/68 19/19/19 142/142/142
f 73/73/73 102/102/102 100/100/100
f 4/4/4 68/68/68 102/102/102
f 73/73/73 4/4/4 102/102/102
f 16/16/16 73/73/73 100/100/100
f 74/74/74 16/16/16 139/139/139
f 8/8/8 74/74/74 108/108/108
f 39/39/39 89/89/89 91/91/91
f 116/116/116 22/22/22 109/109/109
f 147/147/147 81/81/81 143/143/143
f 57/57/57 138/138/138 105/105/105
f 61/61/61 123/123/123 124/124/124
f 106/106/106 148/148/148 52/52/52
f 23/23/23 158/158/158 87/87/87
f 128/128/128 71/71/71 8/8/8
f 90/90/90 130/130/130 157/157/157
f 32/32/32 51/51/51 107/107/107
f 138/138/138 57/57/57 156/156/156
f 84/84/84 58/58/58 41/41/41
f 31/31/31 112/112/112 114/114/114
f 53/53/53 105/105/105 49/49/49
f 155/155/155 101/101/101 46/46/46
f 154/154/154 132/132/132 145/145/145
f 84/84/84 114/114/114 12/12/12
f 101/101/101 155/155/155 11/11/11
f 114/114/114 84/84/84 47/47/47
f 97/97/97 149/149/149 56/56/56
f 154/154/154 13/13/13 127/127/127
f 90/90/90 157/157/157 10/10/10
f 143/143/143 130/130/130 39/39/39
f 140/140/140 161/161/161 154/154/154
f 164/164/164 160/160/160 23/23/23
f 116/116/116 30/30/30 22/22/22
f 87/87/87 158/158/158 155/155/155
f 161/161/161 61/61/61 154/154/154
f 22/22/22 165/165/165 162/162/162
f 61/61/61 161/161/161 110/110/110
f 161/161/161 140/140/140 110/110/110
f 109/109/109 162/162/162 152/152/152
f 162/162/162 109/109/109 22/22/22
f 144/144/144 96/96/96 148/148/148
f 146/146/146 163/163/163 136/136/136
f 50/50/50 148/148/148 103/103/103
f 148/148/148 50/50/50 144/144/144
f 163/163/163 165/165/165 136/136/136
f 165/165/165 22/22/22 136/136/136
f 30/30/30 116/116/116 115/115/115
f 42/42/42 115/115/115 116/116/116
