# frame 000307 
# time 0.154000 
# name Cloth3D 
v -0.000000 0.000000 -0.000000
v 1.000000 0.000000 -0.000000
v -0.000000 1.000000 0.000000
v 1.000000 1.000000 0.000000
v 0.499529 0.499865 0.071784
v -0.000000 0.500000 0.000000
v 0.500000 1.000000 0.000000
v 1.000000 0.500000 0.000000
v 0.500000 -0.000000 0.000000
v 0.247672 0.751789 0.047226
v 0.753250 0.753317 0.061326
v 0.248086 0.248171 0.042974
v 0.752436 0.247137 0.054872
v 0.750000 0.000000 0.000000
v 0.250000 0.000000 0.000000
v 1.000000 0.750000 0.000000
v 1.000000 0.250000 0.000000
v 0.250000 1.000000 0.000000
v 0.750000 1.000000 0.000000
v 0.000000 0.250000 0.000000
v 0.000000 0.750000 -0.000000
v 0.363929 0.216985 0.052561
v 0.630286 0.774071 0.060327
v 0.491915 0.760799 0.071968
v 0.374670 0.373171 0.071936
v 0.876531 0.374492 0.032082
v 0.625248 0.123279 0.032480
v 0.626547 0.372828 0.071784
v 0.876264 0.123698 0.021876
v 0.374203 0.122125 0.033892
v 0.124323 0.124341 0.016000
v 0.753617 0.689855 0.065092
v 0.876373 0.625538 0.033060
v 0.626718 0.626740 0.071784
v 0.876078 0.876132 0.021055
v 0.374391 0.877344 0.034790
v 0.258211 0.600530 0.063287
v 0.123797 0.876087 0.020443
v 0.121614 0.625493 0.036217
v 0.625216 0.875277 0.028538
v 0.122975 0.374690 0.030699
v 0.249370 0.123830 0.023003
v 0.878189 0.751472 0.037225
v 0.876699 0.248923 0.029801
v 0.248863 0.876936 0.030106
v 0.751145 0.877505 0.034144
v 0.123674 0.249502 0.023455
v 0.123036 0.750898 0.029034
v 0.302071 0.716070 0.058717
v 0.694349 0.507713 0.071857
v 0.753572 0.626352 0.065493
v 0.876636 0.499954 0.035300
v 0.372373 0.644879 0.071936
v 0.373062 0.753581 0.064377
v 0.000000 0.375000 0.000000
v 0.499989 0.877295 0.036770
v 0.499601 0.627064 0.071785
v 0.247029 0.373995 0.054901
v 0.121760 0.499971 0.037281
v 0.372348 0.499864 0.071785
v 0.625910 0.246267 0.062757
v 0.499671 0.122820 0.035019
v 0.499459 0.372670 0.071785
v 0.000000 0.625000 0.000000
v 0.000000 0.875000 0.000000
v 0.000000 0.125000 0.000000
v 0.625000 1.000000 0.000000
v 0.875000 1.000000 0.000000
v 0.125000 1.000000 0.000000
v 0.375000 1.000000 0.000000
v 1.000000 0.375000 0.000000
v 1.000000 0.125000 0.000000
v 1.000000 0.875000 0.000000
v 1.000000 0.625000 0.000000
v 0.375000 0.000000 0.000000
v 0.125000 0.000000 0.000000
v 0.875000 0.000000 0.000000
v 0.625000 0.000000 0.000000
v 0.751001 0.122688 0.031490
v 0.626952 0.499791 0.071785
v 0.341491 0.563081 0.071862
v 0.061449 0.312362 0.014613
v 0.183163 0.436830 0.053306
v 0.185282 0.311531 0.039581
v 0.061059 0.437455 0.017614
v 0.687736 0.937776 0.014426
v 0.688958 0.815099 0.048556
v 0.562551 0.938055 0.016212
v 0.062183 0.687714 0.012633
v 0.184083 0.688649 0.047031
v 0.062035 0.562523 0.014608
v 0.187025 0.938392 0.013565
v 0.185239 0.814501 0.037543
v 0.062154 0.937829 0.006834
v 0.435974 0.563409 0.071785
v 0.837635 0.423134 0.045992
v 0.436936 0.816111 0.053980
v 0.310913 0.815253 0.046620
v 0.437408 0.937694 0.014813
v 0.938394 0.812909 0.014428
v 0.815357 0.815464 0.044402
v 0.937844 0.937845 0.007168
v 0.713776 0.596842 0.071929
v 0.563151 0.563367 0.071785
v 0.418939 0.689990 0.071929
v 0.816407 0.562674 0.056354
v 0.815464 0.689200 0.050330
v 0.937478 0.562583 0.014567
v 0.309470 0.259228 0.050026
v 0.577928 0.288188 0.071929
v 0.435962 0.436341 0.071785
v 0.187181 0.061679 0.012150
v 0.062329 0.062337 0.004932
v 0.186799 0.186919 0.022924
v 0.312353 0.062455 0.010123
v 0.311176 0.184986 0.041437
v 0.437369 0.062248 0.013890
v 0.812880 0.061947 0.012052
v 0.937883 0.062112 0.007310
v 0.328215 0.421103 0.071929
v 0.563073 0.436308 0.071785
v 0.275761 0.475202 0.071929
v 0.562531 0.183025 0.055890
v 0.688785 0.184084 0.049288
v 0.562442 0.062219 0.014614
v 0.937903 0.312241 0.014054
v 0.815330 0.310946 0.048093
v 0.937634 0.437456 0.014656
v 0.312149 0.938701 0.016891
v 0.183819 0.625553 0.048583
v 0.814607 0.185155 0.039033
v 0.803262 0.371483 0.050125
v 0.687684 0.062037 0.014177
v 0.690573 0.436451 0.071785
v 0.938446 0.187023 0.014149
v 0.436425 0.182725 0.055749
v 0.061884 0.187253 0.010765
v 0.779132 0.529433 0.071929
v 0.938507 0.687942 0.017318
v 0.666613 0.374175 0.071929
v 0.061378 0.812932 0.014259
v 0.812865 0.938314 0.013686
v 0.182479 0.562904 0.056702
v 0.756088 0.460646 0.071939
v 0.711601 0.417667 0.071936
v 0.515645 0.227273 0.071942
v 0.237301 0.514324 0.071942
v 0.802700 0.505676 0.071942
v 0.524324 0.792699 0.071942
v 0.663513 0.648684 0.071929
v 0.580630 0.833840 0.048426
v 0.294534 0.330479 0.057051
v 0.328160 0.602118 0.071939
v 0.715580 0.298199 0.060792
v 0.752190 0.815453 0.047793
v 0.582078 0.675119 0.071857
v 0.278671 0.658248 0.059294
v 0.691064 0.761072 0.062717
v 0.418901 0.327437 0.071939
v 0.619563 0.694127 0.071936
v 0.647838 0.308015 0.067495
v 0.362352 0.291683 0.060540
v 0.463375 0.281395 0.071941
v 0.575732 0.739489 0.071939
v 0.496663 0.692705 0.071876
vt 0.000000 0.000000
vt 1.000000 0.000000
vt 0.000000 1.000000
vt 1.000000 1.000000
vt 0.500000 0.500000
vt 0.000000 0.500000
vt 0.500000 1.000000
vt 1.000000 0.500000
vt 0.500000 0.000000
vt 0.250000 0.750000
vt 0.750000 0.750000
vt 0.250000 0.250000
vt 0.750000 0.250000
vt 0.750000 0.000000
vt 0.250000 0.000000
vt 1.000000 0.750000
vt 1.000000 0.250000
vt 0.250000 1.000000
vt 0.750000 1.000000
vt 0.000000 0.250000
vt 0.000000 0.750000
vt 0.365347 0.220303
vt 0.629073 0.770824
vt 0.492101 0.755695
vt 0.377013 0.375244
vt 0.875000 0.375000
vt 0.625000 0.125000
vt 0.625000 0.375000
vt 0.875000 0.125000
vt 0.375000 0.125000
vt 0.125000 0.125000
vt 0.750000 0.687500
vt 0.875000 0.625000
vt 0.625000 0.625000
vt 0.875000 0.875000
vt 0.375000 0.875000
vt 0.262101 0.599801
vt 0.125000 0.875000
vt 0.125000 0.625000
vt 0.625000 0.875000
vt 0.125000 0.375000
vt 0.250000 0.125000
vt 0.875000 0.750000
vt 0.875000 0.250000
vt 0.250000 0.875000
vt 0.750000 0.875000
vt 0.125000 0.250000
vt 0.125000 0.750000
vt 0.304602 0.713891
vt 0.690882 0.507820
vt 0.750000 0.625000
vt 0.875000 0.500000
vt 0.374685 0.642821
vt 0.375000 0.750000
vt 0.000000 0.375000
vt 0.500000 0.875000
vt 0.500000 0.625000
vt 0.250000 0.375000
vt 0.125000 0.500000
vt 0.375000 0.500000
vt 0.625000 0.250000
vt 0.500000 0.125000
vt 0.500000 0.375000
vt 0.000000 0.625000
vt 0.000000 0.875000
vt 0.000000 0.125000
vt 0.625000 1.000000
vt 0.875000 1.000000
vt 0.125000 1.000000
vt 0.375000 1.000000
vt 1.000000 0.375000
vt 1.000000 0.125000
vt 1.000000 0.875000
vt 1.000000 0.625000
vt 0.375000 0.000000
vt 0.125000 0.000000
vt 0.875000 0.000000
vt 0.625000 0.000000
vt 0.750000 0.125000
vt 0.625000 0.500000
vt 0.344661 0.562348
vt 0.062500 0.312500
vt 0.187500 0.437500
vt 0.187500 0.312500
vt 0.062500 0.437500
vt 0.687500 0.937500
vt 0.687500 0.812500
vt 0.562500 0.937500
vt 0.062500 0.687500
vt 0.187500 0.687500
vt 0.062500 0.562500
vt 0.187500 0.937500
vt 0.187500 0.812500
vt 0.062500 0.937500
vt 0.437500 0.562500
vt 0.834853 0.423541
vt 0.437500 0.812500
vt 0.312500 0.812500
vt 0.437500 0.937500
vt 0.937500 0.812500
vt 0.812500 0.812500
vt 0.937500 0.937500
vt 0.710280 0.595767
vt 0.562500 0.562500
vt 0.420449 0.686920
vt 0.812500 0.562500
vt 0.812500 0.687500
vt 0.937500 0.562500
vt 0.311128 0.261404
vt 0.577463 0.292019
vt 0.437500 0.437500
vt 0.187500 0.062500
vt 0.062500 0.062500
vt 0.187500 0.187500
vt 0.312500 0.062500
vt 0.312500 0.187500
vt 0.437500 0.062500
vt 0.812500 0.062500
vt 0.937500 0.062500
vt 0.331454 0.422359
vt 0.562500 0.437500
vt 0.280272 0.475720
vt 0.562500 0.187500
vt 0.687500 0.187500
vt 0.562500 0.062500
vt 0.937500 0.312500
vt 0.812500 0.312500
vt 0.937500 0.437500
vt 0.312500 0.937500
vt 0.187500 0.625000
vt 0.812500 0.187500
vt 0.800716 0.372483
vt 0.687500 0.062500
vt 0.687500 0.437500
vt 0.937500 0.187500
vt 0.437500 0.187500
vt 0.062500 0.187500
vt 0.773278 0.529298
vt 0.937500 0.687500
vt 0.664350 0.376189
vt 0.062500 0.812500
vt 0.812500 0.937500
vt 0.187500 0.562500
vt 0.751262 0.461400
vt 0.708239 0.418967
vt 0.515940 0.232947
vt 0.242938 0.514408
vt 0.795467 0.505894
vt 0.523909 0.786273
vt 0.661191 0.646701
vt 0.580205 0.830830
vt 0.296906 0.332149
vt 0.331362 0.600849
vt 0.713437 0.300753
vt 0.750000 0.812500
vt 0.581168 0.672349
vt 0.281585 0.657008
vt 0.688844 0.757642
vt 0.420536 0.330473
vt 0.618078 0.691255
vt 0.646352 0.310977
vt 0.364019 0.294291
vt 0.464402 0.285584
vt 0.574935 0.735346
vt 0.497032 0.689303
vn -0.038543 -0.038543 0.998513
vn 0.058506 -0.058506 0.996571
vn -0.054306 0.054306 0.997046
vn 0.058657 0.058657 0.996553
vn 0.000000 0.000000 1.000000
vn -0.254179 0.012771 0.967073
vn -0.005521 0.244561 0.969618
vn 0.226668 0.000157 0.973972
vn -0.003251 -0.226347 0.974041
vn -0.105743 0.094931 0.989852
vn 0.089049 0.122858 0.988421
vn -0.132545 -0.125796 0.983162
vn 0.114230 -0.086895 0.989647
vn 0.007927 -0.206445 0.978426
vn 0.008371 -0.176777 0.984215
vn 0.269655 0.011830 0.962884
vn 0.223222 0.000807 0.974767
vn -0.013452 0.241749 0.970245
vn 0.002697 0.221255 0.975212
vn -0.201783 -0.015396 0.979309
vn -0.212530 -0.006945 0.977130
vn -0.122633 -0.142904 0.982110
vn 0.045415 0.211808 0.976256
vn -0.057504 0.072627 0.995700
vn -0.065851 -0.063865 0.995784
vn 0.269116 -0.027698 0.962709
vn 0.021836 -0.299130 0.953962
vn -0.002289 0.002522 0.999994
vn 0.121999 -0.131358 0.983800
vn -0.064569 -0.274457 0.959429
vn -0.084340 -0.076687 0.993482
vn 0.155469 0.039335 0.987057
vn 0.293295 0.007644 0.955992
vn -0.001440 -0.001775 0.999997
vn 0.139941 0.150761 0.978615
vn -0.023816 0.269139 0.962807
vn -0.137106 0.124825 0.982660
vn -0.117770 0.119594 0.985813
vn -0.269768 0.047915 0.961732
vn 0.054092 0.278993 0.958769
vn -0.236313 -0.061915 0.969702
vn -0.069331 -0.164327 0.983966
vn 0.244812 0.034774 0.968947
vn 0.225416 -0.039245 0.973472
vn -0.054089 0.209291 0.976356
vn 0.025191 0.252476 0.967275
vn -0.144345 -0.070482 0.987014
vn -0.225829 0.047913 0.972988
vn -0.139214 0.089067 0.986249
vn -0.001144 -0.000606 0.999999
vn 0.135452 0.056701 0.989160
vn 0.364049 -0.001764 0.931378
vn -0.055019 0.045905 0.997429
vn -0.094256 0.134002 0.986488
vn -0.255274 -0.012220 0.966792
vn -0.006239 0.333813 0.942619
vn 0.000202 -0.000876 1.000000
vn -0.139856 -0.111602 0.983863
vn -0.303485 -0.012797 0.952750
vn 0.000957 0.000083 1.000000
vn 0.073012 -0.126589 0.989265
vn 0.001570 -0.325606 0.945504
vn 0.000453 0.000896 1.000000
vn -0.214426 0.007876 0.976708
vn -0.167903 0.029950 0.985348
vn -0.124552 -0.023858 0.991926
vn 0.007465 0.240847 0.970534
vn 0.025185 0.167019 0.985632
vn -0.027250 0.162528 0.986328
vn 0.008716 0.250630 0.968044
vn 0.224330 -0.001372 0.974512
vn 0.171400 -0.027537 0.984817
vn 0.171578 0.027489 0.984787
vn 0.248798 -0.011722 0.968484
vn -0.015306 -0.190427 0.981582
vn -0.029416 -0.135596 0.990327
vn 0.018836 -0.154145 0.987869
vn 0.002806 -0.227194 0.973846
vn 0.045078 -0.244534 0.968592
vn -0.000481 -0.000305 1.000000
vn 0.001243 -0.001083 0.999999
vn -0.212972 -0.028409 0.976645
vn -0.222599 -0.085387 0.971164
vn -0.168383 -0.099551 0.980682
vn -0.267015 -0.013245 0.963601
vn -0.006264 0.246022 0.969244
vn 0.000167 0.252716 0.967541
vn 0.018631 0.269023 0.962954
vn -0.257821 0.015292 0.966072
vn -0.155775 0.056510 0.986175
vn -0.289648 0.012069 0.957057
vn -0.039677 0.199705 0.979052
vn -0.122969 0.117374 0.985445
vn -0.081555 0.082905 0.993215
vn 0.000475 -0.000529 1.000000
vn 0.283642 -0.082250 0.955396
vn -0.070896 0.259556 0.963122
vn -0.081441 0.176303 0.980961
vn -0.001737 0.279904 0.960026
vn 0.231338 0.063024 0.970830
vn 0.126986 0.179050 0.975611
vn 0.084318 0.085495 0.992764
vn 0.055515 0.053737 0.997011
vn 0.000000 -0.000175 1.000000
vn -0.033412 0.034451 0.998848
vn 0.303235 0.115282 0.945917
vn 0.232018 0.021543 0.972473
vn 0.267803 -0.002589 0.963470
vn -0.116097 -0.116515 0.986380
vn 0.061895 -0.082523 0.994665
vn 0.000641 0.000655 1.000000
vn -0.024709 -0.154244 0.987724
vn -0.065673 -0.062865 0.995859
vn -0.101113 -0.099190 0.989918
vn -0.025272 -0.224904 0.974053
vn -0.112716 -0.158469 0.980909
vn -0.011291 -0.271277 0.962435
vn 0.032276 -0.211394 0.976868
vn 0.082506 -0.086925 0.992792
vn -0.065975 -0.060260 0.996000
vn 0.000000 -0.000000 1.000000
vn -0.069991 -0.066805 0.995308
vn 0.054619 -0.266260 0.962353
vn 0.052272 -0.208828 0.976554
vn 0.005247 -0.264677 0.964323
vn 0.244193 -0.005339 0.969712
vn 0.193765 -0.027144 0.980672
vn 0.266439 -0.006522 0.963830
vn -0.011896 0.255217 0.966811
vn -0.168338 0.085001 0.982058
vn 0.140299 -0.121354 0.982644
vn 0.213042 -0.052496 0.975632
vn 0.006939 -0.251024 0.967956
vn -0.002978 0.002468 0.999992
vn 0.204256 -0.028773 0.978495
vn -0.075782 -0.233681 0.969356
vn -0.155570 -0.034531 0.987221
vn 0.120614 0.102623 0.987381
vn 0.270517 -0.019051 0.962527
vn 0.030562 -0.033545 0.998970
vn -0.195793 0.028627 0.980227
vn 0.039580 0.219005 0.974921
vn -0.213793 0.075964 0.973921
vn 0.079444 -0.070842 0.994319
vn 0.027224 -0.023366 0.999356
vn 0.015224 -0.167038 0.985833
vn -0.137446 -0.007040 0.990484
vn 0.193336 0.049612 0.979877
vn 0.015389 0.179022 0.983725
vn 0.020836 0.018368 0.999614
vn 0.118439 0.303305 0.945504
vn -0.128178 -0.112007 0.985406
vn -0.053519 0.053928 0.997110
vn 0.099188 -0.069869 0.992613
vn 0.036631 0.216409 0.975615
vn -0.000676 -0.001560 0.999999
vn -0.129312 0.093417 0.987194
vn 0.024236 0.181140 0.983159
vn -0.069359 -0.066653 0.995363
vn 0.024232 0.032386 0.999182
vn 0.088286 -0.099868 0.991076
vn -0.124073 -0.115989 0.985471
vn -0.061782 -0.060586 0.996249
vn 0.066118 0.087628 0.993957
vn 0.000346 -0.001349 0.999999
f 1/1/1 113/113/113 66/66/66
f 31/31/31 137/137/137 113/113/113
f 132/132/132 127/127/127 26/26/26
f 112/112/112 31/31/31 113/113/113
f 135/135/135 44/44/44 29/29/29
f 106/106/106 52/52/52 33/33/33
f 154/154/154 61/61/61 13/13/13
f 84/84/84 41/41/41 47/47/47
f 137/137/137 66/66/66 113/113/113
f 75/75/75 115/115/115 15/15/15
f 12/12/12 152/152/152 84/84/84
f 61/61/61 110/110/110 123/123/123
f 25/25/25 120/120/120 152/152/152
f 76/76/76 113/113/113 1/1/1
f 76/76/76 112/112/112 113/113/113
f 15/15/15 112/112/112 76/76/76
f 115/115/115 112/112/112 15/15/15
f 30/30/30 115/115/115 117/117/117
f 108/108/108 33/33/33 52/52/52
f 75/75/75 117/117/117 115/115/115
f 115/115/115 30/30/30 42/42/42
f 145/145/145 140/140/140 154/154/154
f 51/51/51 150/150/150 103/103/103
f 136/136/136 22/22/22 30/30/30
f 107/107/107 43/43/43 11/11/11
f 54/54/54 98/98/98 49/49/49
f 42/42/42 112/112/112 115/115/115
f 58/58/58 84/84/84 152/152/152
f 110/110/110 163/163/163 146/146/146
f 60/60/60 120/120/120 111/111/111
f 136/136/136 62/62/62 146/146/146
f 159/159/159 63/63/63 111/111/111
f 147/147/147 83/83/83 122/122/122
f 104/104/104 80/80/80 34/34/34
f 10/10/10 49/49/49 98/98/98
f 160/160/160 164/164/164 156/156/156
f 49/49/49 53/53/53 54/54/54
f 117/117/117 62/62/62 30/30/30
f 95/95/95 57/57/57 105/105/105
f 131/131/131 29/29/29 44/44/44
f 77/77/77 2/2/2 119/119/119
f 77/77/77 119/119/119 118/118/118
f 71/71/71 128/128/128 126/126/126
f 58/58/58 152/152/152 120/120/120
f 63/63/63 28/28/28 121/121/121
f 119/119/119 29/29/29 118/118/118
f 124/124/124 13/13/13 61/61/61
f 125/125/125 27/27/27 62/62/62
f 135/135/135 72/72/72 17/17/17
f 136/136/136 30/30/30 62/62/62
f 138/138/138 148/148/148 106/106/106
f 60/60/60 122/122/122 120/120/120
f 153/153/153 53/53/53 157/157/157
f 11/11/11 32/32/32 107/107/107
f 12/12/12 114/114/114 116/116/116
f 150/150/150 160/160/160 34/34/34
f 32/32/32 158/158/158 150/150/150
f 110/110/110 146/146/146 123/123/123
f 40/40/40 151/151/151 23/23/23
f 24/24/24 165/165/165 164/164/164
f 82/82/82 47/47/47 41/41/41
f 45/45/45 98/98/98 36/36/36
f 82/82/82 137/137/137 47/47/47
f 63/63/63 163/163/163 110/110/110
f 26/26/26 126/126/126 128/128/128
f 62/62/62 117/117/117 125/125/125
f 20/20/20 137/137/137 82/82/82
f 38/38/38 92/92/92 94/94/94
f 20/20/20 66/66/66 137/137/137
f 55/55/55 20/20/20 82/82/82
f 69/69/69 94/94/94 92/92/92
f 43/43/43 100/100/100 101/101/101
f 8/8/8 108/108/108 128/128/128
f 141/141/141 48/48/48 38/38/38
f 50/50/50 80/80/80 134/134/134
f 65/65/65 141/141/141 94/94/94
f 114/114/114 31/31/31 42/42/42
f 38/38/38 94/94/94 141/141/141
f 92/92/92 18/18/18 69/69/69
f 24/24/24 149/149/149 97/97/97
f 159/159/159 25/25/25 162/162/162
f 46/46/46 35/35/35 142/142/142
f 29/29/29 119/119/119 135/135/135
f 23/23/23 151/151/151 164/164/164
f 158/158/158 23/23/23 160/160/160
f 35/35/35 46/46/46 101/101/101
f 129/129/129 45/45/45 36/36/36
f 27/27/27 124/124/124 123/123/123
f 85/85/85 41/41/41 59/59/59
f 78/78/78 125/125/125 9/9/9
f 70/70/70 129/129/129 99/99/99
f 83/83/83 59/59/59 41/41/41
f 129/129/129 70/70/70 18/18/18
f 36/36/36 99/99/99 129/129/129
f 93/93/93 38/38/38 48/48/48
f 38/38/38 45/45/45 92/92/92
f 52/52/52 128/128/128 108/108/108
f 65/65/65 94/94/94 3/3/3
f 72/72/72 135/135/135 119/119/119
f 94/94/94 69/69/69 3/3/3
f 39/39/39 90/90/90 48/48/48
f 21/21/21 141/141/141 65/65/65
f 18/18/18 92/92/92 129/129/129
f 6/6/6 91/91/91 64/64/64
f 153/153/153 81/81/81 53/53/53
f 93/93/93 45/45/45 38/38/38
f 89/89/89 39/39/39 48/48/48
f 13/13/13 124/124/124 131/131/131
f 45/45/45 129/129/129 92/92/92
f 9/9/9 125/125/125 117/117/117
f 64/64/64 89/89/89 21/21/21
f 55/55/55 82/82/82 85/85/85
f 6/6/6 85/85/85 91/91/91
f 59/59/59 91/91/91 85/85/85
f 41/41/41 85/85/85 82/82/82
f 6/6/6 55/55/55 85/85/85
f 59/59/59 83/83/83 143/143/143
f 59/59/59 39/39/39 91/91/91
f 149/149/149 151/151/151 56/56/56
f 143/143/143 39/39/39 59/59/59
f 118/118/118 29/29/29 79/79/79
f 22/22/22 163/163/163 162/162/162
f 145/145/145 144/144/144 134/134/134
f 58/58/58 83/83/83 84/84/84
f 119/119/119 2/2/2 72/72/72
f 49/49/49 157/157/157 53/53/53
f 11/11/11 158/158/158 32/32/32
f 152/152/152 162/162/162 25/25/25
f 10/10/10 98/98/98 93/93/93
f 21/21/21 89/89/89 141/141/141
f 97/97/97 54/54/54 24/24/24
f 51/51/51 32/32/32 150/150/150
f 79/79/79 133/133/133 118/118/118
f 118/118/118 133/133/133 14/14/14
f 79/79/79 131/131/131 124/124/124
f 147/147/147 143/143/143 83/83/83
f 149/149/149 164/164/164 151/151/151
f 48/48/48 141/141/141 89/89/89
f 78/78/78 133/133/133 125/125/125
f 62/62/62 27/27/27 123/123/123
f 147/147/147 37/37/37 143/143/143
f 148/148/148 96/96/96 52/52/52
f 60/60/60 95/95/95 81/81/81
f 156/156/156 34/34/34 160/160/160
f 5/5/5 95/95/95 111/111/111
f 10/10/10 93/93/93 90/90/90
f 130/130/130 143/143/143 37/37/37
f 157/157/157 37/37/37 153/153/153
f 27/27/27 125/125/125 133/133/133
f 121/121/121 5/5/5 111/111/111
f 160/160/160 150/150/150 158/158/158
f 122/122/122 58/58/58 120/120/120
f 17/17/17 126/126/126 135/135/135
f 41/41/41 84/84/84 83/83/83
f 123/123/123 146/146/146 62/62/62
f 60/60/60 111/111/111 95/95/95
f 28/28/28 134/134/134 80/80/80
f 104/104/104 95/95/95 5/5/5
f 28/28/28 140/140/140 134/134/134
f 26/26/26 128/128/128 96/96/96
f 57/57/57 95/95/95 104/104/104
f 144/144/144 145/145/145 132/132/132
f 131/131/131 44/44/44 13/13/13
f 127/127/127 13/13/13 44/44/44
f 45/45/45 93/93/93 98/98/98
f 110/110/110 28/28/28 63/63/63
f 165/165/165 24/24/24 105/105/105
f 9/9/9 117/117/117 75/75/75
f 48/48/48 90/90/90 93/93/93
f 54/54/54 97/97/97 98/98/98
f 130/130/130 90/90/90 39/39/39
f 114/114/114 42/42/42 116/116/116
f 99/99/99 36/36/36 56/56/56
f 80/80/80 104/104/104 5/5/5
f 95/95/95 53/53/53 81/81/81
f 126/126/126 17/17/17 71/71/71
f 109/109/109 12/12/12 116/116/116
f 25/25/25 159/159/159 111/111/111
f 52/52/52 96/96/96 128/128/128
f 103/103/103 150/150/150 34/34/34
f 36/36/36 98/98/98 97/97/97
f 37/37/37 157/157/157 130/130/130
f 105/105/105 53/53/53 95/95/95
f 58/58/58 122/122/122 83/83/83
f 26/26/26 96/96/96 132/132/132
f 50/50/50 138/138/138 103/103/103
f 120/120/120 25/25/25 111/111/111
f 12/12/12 109/109/109 152/152/152
f 14/14/14 133/133/133 78/78/78
f 156/156/156 164/164/164 165/165/165
f 107/107/107 106/106/106 33/33/33
f 44/44/44 135/135/135 126/126/126
f 149/149/149 24/24/24 164/164/164
f 34/34/34 156/156/156 104/104/104
f 57/57/57 104/104/104 156/156/156
f 121/121/121 80/80/80 5/5/5
f 63/63/63 121/121/121 111/111/111
f 121/121/121 28/28/28 80/80/80
f 77/77/77 118/118/118 14/14/14
f 101/101/101 11/11/11 43/43/43
f 103/103/103 34/34/34 80/80/80
f 131/131/131 79/79/79 29/29/29
f 140/140/140 145/145/145 134/134/134
f 49/49/49 10/10/10 157/157/157
f 124/124/124 27/27/27 79/79/79
f 139/139/139 33/33/33 108/108/108
f 134/134/134 144/144/144 50/50/50
f 133/133/133 79/79/79 27/27/27
f 26/26/26 127/127/127 126/126/126
f 138/138/138 50/50/50 144/144/144
f 11/11/11 155/155/155 158/158/158
f 80/80/80 50/50/50 103/103/103
f 140/140/140 28/28/28 110/110/110
f 51/51/51 106/106/106 107/107/107
f 127/127/127 132/132/132 154/154/154
f 97/97/97 56/56/56 36/36/36
f 86/86/86 46/46/46 142/142/142
f 112/112/112 42/42/42 31/31/31
f 40/40/40 46/46/46 86/86/86
f 74/74/74 139/139/139 108/108/108
f 43/43/43 107/107/107 139/139/139
f 137/137/137 31/31/31 47/47/47
f 114/114/114 47/47/47 31/31/31
f 88/88/88 40/40/40 86/86/86
f 33/33/33 139/139/139 107/107/107
f 102/102/102 35/35/35 100/100/100
f 68/68/68 142/142/142 102/102/102
f 88/88/88 99/99/99 56/56/56
f 142/142/142 35/35/35 102/102/102
f 53/53/53 105/105/105 54/54/54
f 147/147/147 122/122/122 81/81/81
f 19/19/19 86/86/86 142/142/142
f 56/56/56 151/151/151 88/88/88
f 44/44/44 126/126/126 127/127/127
f 105/105/105 24/24/24 54/54/54
f 106/106/106 51/51/51 138/138/138
f 87/87/87 46/46/46 40/40/40
f 81/81/81 153/153/153 147/147/147
f 87/87/87 155/155/155 46/46/46
f 35/35/35 101/101/101 100/100/100
f 60/60/60 81/81/81 122/122/122
f 64/64/64 91/91/91 89/89/89
f 87/87/87 40/40/40 23/23/23
f 67/67/67 88/88/88 86/86/86
f 7/7/7 99/99/99 88/88/88
f 7/7/7 70/70/70 99/99/99
f 67/67/67 7/7/7 88/88/88
f 19/19/19 67/67/67 86/86/86
f 68/68/68 19/19/19 142/142/142
f 73/73/73 102/102/102 100/100/100
f 4/4/4 68/68/68 102/102/102
f 73/73/73 4/4/4 102/102/102
f 16/16/16 73/73/73 100/100/100
f 74/74/74 16/16/16 139/139/139
f 8/8/8 74/74/74 108/108/108
f 39/39/39 89/89/89 91/91/91
f 116/116/116 22/22/22 109/109/109
f 116/116/116 42/42/42 30/30/30
f 148/148/148 138/138/138 144/144/144
f 61/61/61 123/123/123 124/124/124
f 106/106/106 148/148/148 52/52/52
f 23/23/23 158/158/158 87/87/87
f 128/128/128 71/71/71 8/8/8
f 90/90/90 130/130/130 157/157/157
f 32/32/32 51/51/51 107/107/107
f 165/165/165 57/57/57 156/156/156
f 37/37/37 147/147/147 153/153/153
f 103/103/103 138/138/138 51/51/51
f 163/163/163 22/22/22 136/136/136
f 155/155/155 101/101/101 46/46/46
f 154/154/154 132/132/132 145/145/145
f 84/84/84 114/114/114 12/12/12
f 101/101/101 155/155/155 11/11/11
f 114/114/114 84/84/84 47/47/47
f 97/97/97 149/149/149 56/56/56
f 154/154/154 13/13/13 127/127/127
f 90/90/90 157/157/157 10/10/10
f 143/143/143 130/130/130 39/39/39
f 140/140/140 161/161/161 154/154/154
f 164/164/164 160/160/160 23/23/23
f 116/116/116 30/30/30 22/22/22
f 87/87/87 158/158/158 155/155/155
f 161/161/161 61/61/61 154/154/154
f 159/159/159 162/162/162 163/163/163
f 61/61/61 161/161/161 110/110/110
f 161/161/161 140/140/140 110/110/110
f 109/109/109 162/162/162 152/152/152
f 162/162/162 109/109/109 22/22/22
f 144/144/144 96/96/96 148/148/148
f 146/146/146 163/163/163 136/136/136
f 40/40/40 88/88/88 151/151/151
f 159/159/159 163/163/163 63/63/63
f 57/57/57 165/165/165 105/105/105
f 96/96/96 144/144/144 132/132/132
f 139/139/139 16/16/16 43/43/43
f 100/100/100 43/43/43 16/16/16
