# frame 000325 
# time 0.163000 
# name Cloth3D 
v -0.000000 0.000000 -0.000000
v 1.000000 0.000000 -0.000000
v -0.000000 1.000000 0.000000
v 1.000000 1.000000 0.000000
v 0.500275 0.499992 0.076284
v -0.000000 0.500000 0.000000
v 0.500000 1.000000 0.000000
v 1.000000 0.500000 0.000000
v 0.500000 -0.000000 0.000000
v 0.247225 0.753013 0.056501
v 0.753687 0.753392 0.061739
v 0.247664 0.247629 0.051531
v 0.753477 0.246425 0.061728
v 0.750000 0.000000 0.000000
v 0.250000 0.000000 0.000000
v 1.000000 0.750000 0.000000
v 1.000000 0.250000 0.000000
v 0.250000 1.000000 0.000000
v 0.750000 1.000000 0.000000
v 0.000000 0.250000 0.000000
v 0.000000 0.750000 -0.000000
v 0.364177 0.216855 0.056307
v 0.630693 0.774237 0.061597
v 0.487727 0.766742 0.076468
v 0.374683 0.372730 0.076436
v 0.875086 0.374723 0.027402
v 0.625622 0.123291 0.033669
v 0.627310 0.372529 0.076284
v 0.876253 0.123727 0.021205
v 0.374642 0.122982 0.032385
v 0.124232 0.124238 0.018235
v 0.753704 0.689882 0.064164
v 0.874915 0.625197 0.028361
v 0.627424 0.627180 0.076284
v 0.876248 0.875910 0.019703
v 0.374765 0.876226 0.031592
v 0.258936 0.600969 0.065469
v 0.123628 0.876414 0.022319
v 0.123652 0.625623 0.031605
v 0.625525 0.875277 0.029296
v 0.122718 0.374667 0.034310
v 0.249514 0.124182 0.023930
v 0.878400 0.751196 0.037122
v 0.877220 0.248784 0.032489
v 0.248847 0.877297 0.032143
v 0.751288 0.876841 0.031841
v 0.123706 0.249448 0.026240
v 0.123057 0.751272 0.031038
v 0.302331 0.716800 0.063687
v 0.695358 0.507937 0.076357
v 0.753569 0.626292 0.065355
v 0.878363 0.499942 0.040274
v 0.373160 0.645180 0.076436
v 0.373849 0.753707 0.064817
v 0.000000 0.375000 0.000000
v 0.500280 0.877645 0.037765
v 0.500303 0.627564 0.076285
v 0.246578 0.373711 0.063094
v 0.122446 0.500164 0.037082
v 0.372806 0.500093 0.076285
v 0.626792 0.245829 0.068204
v 0.500199 0.123543 0.032973
v 0.500204 0.372445 0.076285
v 0.000000 0.625000 0.000000
v 0.000000 0.875000 0.000000
v 0.000000 0.125000 0.000000
v 0.625000 1.000000 0.000000
v 0.875000 1.000000 0.000000
v 0.125000 1.000000 0.000000
v 0.375000 1.000000 0.000000
v 1.000000 0.375000 0.000000
v 1.000000 0.125000 0.000000
v 1.000000 0.875000 0.000000
v 1.000000 0.625000 0.000000
v 0.375000 0.000000 0.000000
v 0.125000 0.000000 0.000000
v 0.875000 0.000000 0.000000
v 0.625000 0.000000 0.000000
v 0.751252 0.122947 0.031623
v 0.627858 0.499971 0.076285
v 0.287439 0.554506 0.076441
v 0.061991 0.312435 0.013744
v 0.183492 0.437185 0.055341
v 0.184804 0.311322 0.046072
v 0.061974 0.437550 0.015734
v 0.687826 0.937625 0.014071
v 0.689320 0.814112 0.045987
v 0.562684 0.937338 0.013779
v 0.062112 0.687881 0.014150
v 0.184435 0.689203 0.049256
v 0.061817 0.562669 0.016331
v 0.187077 0.938086 0.012381
v 0.184894 0.815248 0.041846
v 0.062117 0.937891 0.007021
v 0.436641 0.563729 0.076285
v 0.836831 0.423451 0.043881
v 0.437740 0.815953 0.053982
v 0.311106 0.815761 0.049560
v 0.437560 0.937714 0.014892
v 0.939320 0.813036 0.017626
v 0.815114 0.814640 0.040080
v 0.937569 0.937516 0.003442
v 0.716406 0.599094 0.076429
v 0.563935 0.563661 0.076285
v 0.417736 0.692432 0.076429
v 0.816078 0.562248 0.056185
v 0.815522 0.689030 0.049946
v 0.937731 0.562546 0.015562
v 0.309324 0.258776 0.057265
v 0.581702 0.284531 0.076429
v 0.436569 0.436355 0.076285
v 0.187283 0.062045 0.011091
v 0.062242 0.062244 0.006494
v 0.186219 0.186289 0.031843
v 0.312437 0.062416 0.011453
v 0.311196 0.184558 0.046402
v 0.437565 0.062392 0.013662
v 0.812915 0.061898 0.012360
v 0.937848 0.062150 0.006562
v 0.325944 0.418689 0.076429
v 0.563892 0.436248 0.076285
v 0.270891 0.470580 0.076429
v 0.562861 0.184432 0.053532
v 0.689319 0.184280 0.050501
v 0.562735 0.062976 0.012124
v 0.937577 0.312243 0.013410
v 0.814280 0.310883 0.045084
v 0.938264 0.437408 0.017010
v 0.312272 0.937928 0.014510
v 0.184672 0.626066 0.049483
v 0.815196 0.184811 0.042005
v 0.802099 0.371643 0.047221
v 0.687866 0.061708 0.016020
v 0.691347 0.436473 0.076284
v 0.938107 0.187118 0.012739
v 0.437216 0.183788 0.052778
v 0.062176 0.187316 0.010301
v 0.785101 0.534340 0.076429
v 0.938174 0.687752 0.016291
v 0.666643 0.374646 0.076429
v 0.061734 0.813011 0.013298
v 0.813012 0.938436 0.014444
v 0.183753 0.563097 0.054631
v 0.752340 0.465268 0.076439
v 0.709697 0.420190 0.076436
v 0.528368 0.227363 0.076442
v 0.237394 0.501600 0.076442
v 0.802607 0.518399 0.076442
v 0.511600 0.792606 0.076442
v 0.663716 0.648761 0.076429
v 0.580595 0.832992 0.046359
v 0.294554 0.330365 0.062882
v 0.330851 0.600405 0.076439
v 0.716680 0.297563 0.068962
v 0.752521 0.815524 0.048224
v 0.582722 0.675686 0.076357
v 0.278806 0.659082 0.065521
v 0.691545 0.761555 0.065012
v 0.421065 0.328899 0.076439
v 0.617734 0.692211 0.076436
v 0.648848 0.307375 0.075601
v 0.362673 0.291561 0.065031
v 0.467676 0.284799 0.076441
v 0.571879 0.735581 0.076439
v 0.497286 0.693442 0.076376
vt 0.000000 0.000000
vt 1.000000 0.000000
vt 0.000000 1.000000
vt 1.000000 1.000000
vt 0.500000 0.500000
vt 0.000000 0.500000
vt 0.500000 1.000000
vt 1.000000 0.500000
vt 0.500000 0.000000
vt 0.250000 0.750000
vt 0.750000 0.750000
vt 0.250000 0.250000
vt 0.750000 0.250000
vt 0.750000 0.000000
vt 0.250000 0.000000
vt 1.000000 0.750000
vt 1.000000 0.250000
vt 0.250000 1.000000
vt 0.750000 1.000000
vt 0.000000 0.250000
vt 0.000000 0.750000
vt 0.365347 0.220303
vt 0.629073 0.770824
vt 0.487429 0.760369
vt 0.376601 0.374822
vt 0.875000 0.375000
vt 0.625000 0.125000
vt 0.625000 0.375000
vt 0.875000 0.125000
vt 0.375000 0.125000
vt 0.125000 0.125000
vt 0.750000 0.687500
vt 0.875000 0.625000
vt 0.625000 0.625000
vt 0.875000 0.875000
vt 0.375000 0.875000
vt 0.262101 0.599801
vt 0.125000 0.875000
vt 0.125000 0.625000
vt 0.625000 0.875000
vt 0.125000 0.375000
vt 0.250000 0.125000
vt 0.875000 0.750000
vt 0.875000 0.250000
vt 0.250000 0.875000
vt 0.750000 0.875000
vt 0.125000 0.250000
vt 0.125000 0.750000
vt 0.304602 0.713891
vt 0.690882 0.507820
vt 0.750000 0.625000
vt 0.875000 0.500000
vt 0.374910 0.642593
vt 0.375000 0.750000
vt 0.000000 0.375000
vt 0.500000 0.875000
vt 0.500000 0.625000
vt 0.250000 0.375000
vt 0.125000 0.500000
vt 0.375000 0.500000
vt 0.625000 0.250000
vt 0.500000 0.125000
vt 0.500000 0.375000
vt 0.000000 0.625000
vt 0.000000 0.875000
vt 0.000000 0.125000
vt 0.625000 1.000000
vt 0.875000 1.000000
vt 0.125000 1.000000
vt 0.375000 1.000000
vt 1.000000 0.375000
vt 1.000000 0.125000
vt 1.000000 0.875000
vt 1.000000 0.625000
vt 0.375000 0.000000
vt 0.125000 0.000000
vt 0.875000 0.000000
vt 0.625000 0.000000
vt 0.750000 0.125000
vt 0.625000 0.500000
vt 0.291373 0.553490
vt 0.062500 0.312500
vt 0.187500 0.437500
vt 0.187500 0.312500
vt 0.062500 0.437500
vt 0.687500 0.937500
vt 0.687500 0.812500
vt 0.562500 0.937500
vt 0.062500 0.687500
vt 0.187500 0.687500
vt 0.062500 0.562500
vt 0.187500 0.937500
vt 0.187500 0.812500
vt 0.062500 0.937500
vt 0.437500 0.562500
vt 0.834853 0.423541
vt 0.437500 0.812500
vt 0.312500 0.812500
vt 0.437500 0.937500
vt 0.937500 0.812500
vt 0.812500 0.812500
vt 0.937500 0.937500
vt 0.712028 0.597507
vt 0.562500 0.562500
vt 0.418652 0.688708
vt 0.812500 0.562500
vt 0.812500 0.687500
vt 0.937500 0.562500
vt 0.311128 0.261404
vt 0.580437 0.289059
vt 0.437500 0.437500
vt 0.187500 0.062500
vt 0.062500 0.062500
vt 0.187500 0.187500
vt 0.312500 0.062500
vt 0.312500 0.187500
vt 0.437500 0.062500
vt 0.812500 0.062500
vt 0.937500 0.062500
vt 0.328956 0.419843
vt 0.562500 0.437500
vt 0.275429 0.470851
vt 0.562500 0.187500
vt 0.687500 0.187500
vt 0.562500 0.062500
vt 0.937500 0.312500
vt 0.812500 0.312500
vt 0.937500 0.437500
vt 0.312500 0.937500
vt 0.187500 0.625000
vt 0.812500 0.187500
vt 0.800716 0.372483
vt 0.687500 0.062500
vt 0.687500 0.437500
vt 0.937500 0.187500
vt 0.437500 0.187500
vt 0.062500 0.187500
vt 0.777678 0.533644
vt 0.937500 0.687500
vt 0.663641 0.376890
vt 0.062500 0.812500
vt 0.812500 0.937500
vt 0.187500 0.562500
vt 0.746577 0.465904
vt 0.705677 0.421471
vt 0.527929 0.234022
vt 0.243100 0.501467
vt 0.794019 0.518002
vt 0.510903 0.784908
vt 0.660760 0.646268
vt 0.580205 0.830830
vt 0.296906 0.332149
vt 0.333569 0.598670
vt 0.713437 0.300753
vt 0.750000 0.812500
vt 0.581168 0.672349
vt 0.281585 0.657008
vt 0.688844 0.757642
vt 0.422126 0.332087
vt 0.615664 0.688803
vt 0.646352 0.310977
vt 0.364019 0.294291
vt 0.468020 0.289283
vt 0.570552 0.730810
vt 0.497032 0.689303
vn -0.051593 -0.051593 0.997335
vn 0.053410 -0.053410 0.997143
vn -0.056650 0.056650 0.996786
vn 0.029441 0.029441 0.999133
vn 0.000000 0.000000 1.000000
vn -0.250167 -0.001489 0.968202
vn 0.003562 0.223351 0.974732
vn 0.252712 0.005765 0.967525
vn 0.006082 -0.200651 0.979644
vn -0.096104 0.102632 0.990066
vn 0.116833 0.120302 0.985839
vn -0.117238 -0.123002 0.985457
vn 0.121310 -0.091625 0.988377
vn 0.013911 -0.222669 0.974795
vn -0.000127 -0.177928 0.984044
vn 0.279506 -0.005354 0.960129
vn 0.206744 -0.002002 0.978393
vn -0.008332 0.213693 0.976865
vn -0.001985 0.224127 0.974558
vn -0.190877 -0.013635 0.981519
vn -0.216140 0.002066 0.976360
vn -0.075980 -0.176011 0.981452
vn 0.041758 0.259773 0.964766
vn -0.097028 0.106470 0.989570
vn -0.059420 -0.064646 0.996138
vn 0.250371 -0.051780 0.966764
vn 0.000368 -0.297666 0.954670
vn -0.002385 0.002494 0.999994
vn 0.136179 -0.142838 0.980333
vn -0.037035 -0.285207 0.957750
vn -0.101747 -0.101153 0.989654
vn 0.171623 0.030547 0.984689
vn 0.266126 0.018738 0.963756
vn -0.001445 -0.001922 0.999997
vn 0.127860 0.158921 0.978977
vn -0.019457 0.290082 0.956804
vn -0.166409 0.100176 0.980955
vn -0.135205 0.138520 0.981087
vn -0.278864 0.031063 0.959828
vn 0.036044 0.281632 0.958845
vn -0.280811 -0.044699 0.958722
vn -0.058292 -0.217995 0.974208
vn 0.234111 0.032684 0.971660
vn 0.253985 -0.014011 0.967107
vn -0.037578 0.253670 0.966561
vn 0.028330 0.249495 0.967962
vn -0.209518 -0.067215 0.975492
vn -0.251415 0.034301 0.967271
vn -0.082286 0.099237 0.991656
vn -0.001242 -0.000481 0.999999
vn 0.196492 0.102250 0.975159
vn 0.357725 -0.009174 0.933782
vn -0.053335 0.051364 0.997255
vn -0.086702 0.156317 0.983894
vn -0.232388 -0.007764 0.972592
vn 0.003076 0.355310 0.934743
vn 0.000182 -0.000866 1.000000
vn -0.141259 -0.110502 0.983786
vn -0.316153 0.004869 0.948696
vn 0.000909 0.000044 1.000000
vn 0.075242 -0.177680 0.981208
vn 0.000552 -0.333685 0.942685
vn 0.000493 0.000922 0.999999
vn -0.236678 0.008540 0.971551
vn -0.163146 0.025203 0.986280
vn -0.133705 -0.015457 0.990901
vn -0.000996 0.218387 0.975862
vn 0.042983 0.144419 0.988583
vn -0.021420 0.155640 0.987582
vn -0.000121 0.229968 0.973198
vn 0.237332 -0.013808 0.971330
vn 0.155226 -0.024436 0.987577
vn 0.169438 0.055595 0.983972
vn 0.249096 -0.003879 0.968471
vn -0.008800 -0.195353 0.980693
vn -0.018916 -0.140575 0.989889
vn 0.022544 -0.151473 0.988204
vn -0.015652 -0.218976 0.975605
vn 0.047707 -0.253273 0.966218
vn -0.000448 -0.000225 1.000000
vn -0.088293 0.084090 0.992539
vn -0.237529 -0.026565 0.971017
vn -0.256154 -0.067148 0.964301
vn -0.199893 -0.086705 0.975974
vn -0.278996 -0.010443 0.960235
vn -0.007875 0.237453 0.971367
vn -0.011341 0.311514 0.950174
vn 0.020305 0.263216 0.964523
vn -0.246919 0.006936 0.969011
vn -0.215623 0.020574 0.976260
vn -0.270130 0.014025 0.962722
vn -0.034223 0.215505 0.975903
vn -0.145191 0.137991 0.979734
vn -0.083719 0.085638 0.992803
vn 0.000530 -0.000503 1.000000
vn 0.285616 -0.131807 0.949237
vn -0.107792 0.299817 0.947887
vn -0.042279 0.214122 0.975891
vn -0.010045 0.271968 0.962254
vn 0.227975 0.067048 0.971356
vn 0.144609 0.197780 0.969521
vn 0.075884 0.082233 0.993720
vn 0.103441 0.109404 0.988600
vn 0.000000 -0.000174 1.000000
vn -0.055251 0.052146 0.997110
vn 0.358251 0.225370 0.906016
vn 0.240089 -0.014723 0.970639
vn 0.272359 0.024128 0.961893
vn -0.078548 -0.117088 0.990010
vn 0.047542 -0.069405 0.996455
vn 0.000622 0.000660 1.000000
vn -0.020775 -0.167060 0.985728
vn -0.071675 -0.069926 0.994974
vn -0.127553 -0.140006 0.981900
vn -0.021660 -0.222650 0.974658
vn -0.075687 -0.206606 0.975492
vn -0.001937 -0.257361 0.966313
vn 0.038720 -0.210216 0.976888
vn 0.080740 -0.081719 0.993380
vn -0.055219 -0.059259 0.996714
vn 0.000000 -0.000000 1.000000
vn -0.075041 -0.067673 0.994881
vn 0.074792 -0.347796 0.934582
vn 0.038781 -0.238276 0.970423
vn -0.006155 -0.261101 0.965292
vn 0.232646 0.001972 0.972559
vn 0.240795 0.026190 0.970223
vn 0.265758 -0.032090 0.963506
vn -0.003280 0.250978 0.967987
vn -0.230736 0.048933 0.971785
vn 0.153467 -0.163618 0.974514
vn 0.260723 -0.058156 0.963660
vn 0.002635 -0.256619 0.966509
vn -0.003596 0.002887 0.999989
vn 0.214966 -0.034888 0.975998
vn -0.060673 -0.271756 0.960452
vn -0.176012 -0.030342 0.983920
vn 0.187986 0.186518 0.964299
vn 0.258406 -0.029964 0.965571
vn 0.022046 -0.013746 0.999662
vn -0.210978 0.030750 0.977007
vn 0.044879 0.205649 0.977596
vn -0.256711 0.084996 0.962744
vn 0.091118 -0.078330 0.992755
vn 0.029342 -0.019122 0.999386
vn 0.026441 -0.227692 0.973374
vn -0.137779 -0.021887 0.990221
vn 0.229270 0.149586 0.961800
vn -0.036356 0.194786 0.980172
vn 0.033874 0.025891 0.999091
vn 0.104862 0.320448 0.941444
vn -0.103654 -0.109258 0.988594
vn -0.077305 0.059436 0.995234
vn 0.126400 -0.066765 0.989730
vn 0.056979 0.251814 0.966097
vn -0.000801 -0.001701 0.999998
vn -0.135011 0.061039 0.988962
vn 0.024646 0.233131 0.972133
vn -0.062413 -0.065636 0.995890
vn 0.024395 0.036393 0.999040
vn 0.065283 -0.086916 0.994074
vn -0.099285 -0.114516 0.988448
vn -0.058454 -0.072819 0.995631
vn 0.067055 0.098138 0.992911
vn 0.000281 -0.001313 0.999999
f 1/1/1 113/113/113 66/66/66
f 31/31/31 137/137/137 113/113/113
f 132/132/132 127/127/127 26/26/26
f 112/112/112 31/31/31 113/113/113
f 83/83/83 147/147/147 59/59/59
f 106/106/106 33/33/33 51/51/51
f 46/46/46 86/86/86 87/87/87
f 84/84/84 41/41/41 47/47/47
f 137/137/137 66/66/66 113/113/113
f 75/75/75 115/115/115 15/15/15
f 12/12/12 152/152/152 84/84/84
f 153/153/153 81/81/81 60/60/60
f 25/25/25 120/120/120 152/152/152
f 76/76/76 113/113/113 1/1/1
f 76/76/76 112/112/112 113/113/113
f 15/15/15 112/112/112 76/76/76
f 115/115/115 112/112/112 15/15/15
f 30/30/30 115/115/115 117/117/117
f 107/107/107 51/51/51 33/33/33
f 75/75/75 117/117/117 115/115/115
f 115/115/115 30/30/30 42/42/42
f 145/145/145 140/140/140 154/154/154
f 51/51/51 150/150/150 103/103/103
f 136/136/136 22/22/22 30/30/30
f 107/107/107 43/43/43 11/11/11
f 54/54/54 98/98/98 49/49/49
f 42/42/42 112/112/112 115/115/115
f 58/58/58 84/84/84 152/152/152
f 110/110/110 163/163/163 146/146/146
f 60/60/60 120/120/120 111/111/111
f 136/136/136 62/62/62 146/146/146
f 159/159/159 63/63/63 111/111/111
f 147/147/147 83/83/83 122/122/122
f 104/104/104 80/80/80 34/34/34
f 10/10/10 49/49/49 98/98/98
f 160/160/160 164/164/164 156/156/156
f 49/49/49 53/53/53 54/54/54
f 117/117/117 62/62/62 30/30/30
f 95/95/95 57/57/57 105/105/105
f 143/143/143 59/59/59 147/147/147
f 77/77/77 2/2/2 119/119/119
f 77/77/77 119/119/119 118/118/118
f 71/71/71 128/128/128 126/126/126
f 58/58/58 152/152/152 120/120/120
f 63/63/63 28/28/28 121/121/121
f 119/119/119 29/29/29 118/118/118
f 40/40/40 87/87/87 86/86/86
f 125/125/125 27/27/27 62/62/62
f 135/135/135 72/72/72 17/17/17
f 136/136/136 30/30/30 62/62/62
f 138/138/138 148/148/148 106/106/106
f 60/60/60 122/122/122 120/120/120
f 153/153/153 53/53/53 157/157/157
f 11/11/11 32/32/32 107/107/107
f 12/12/12 114/114/114 116/116/116
f 150/150/150 160/160/160 34/34/34
f 32/32/32 158/158/158 150/150/150
f 60/60/60 95/95/95 153/153/153
f 40/40/40 151/151/151 23/23/23
f 24/24/24 165/165/165 164/164/164
f 82/82/82 47/47/47 41/41/41
f 45/45/45 98/98/98 36/36/36
f 82/82/82 137/137/137 47/47/47
f 63/63/63 163/163/163 110/110/110
f 26/26/26 126/126/126 128/128/128
f 62/62/62 117/117/117 125/125/125
f 20/20/20 137/137/137 82/82/82
f 38/38/38 92/92/92 94/94/94
f 20/20/20 66/66/66 137/137/137
f 55/55/55 20/20/20 82/82/82
f 69/69/69 94/94/94 92/92/92
f 43/43/43 100/100/100 101/101/101
f 8/8/8 108/108/108 128/128/128
f 141/141/141 48/48/48 38/38/38
f 50/50/50 80/80/80 134/134/134
f 65/65/65 141/141/141 94/94/94
f 114/114/114 31/31/31 42/42/42
f 38/38/38 94/94/94 141/141/141
f 92/92/92 18/18/18 69/69/69
f 24/24/24 149/149/149 97/97/97
f 159/159/159 25/25/25 162/162/162
f 46/46/46 35/35/35 142/142/142
f 29/29/29 119/119/119 135/135/135
f 23/23/23 151/151/151 164/164/164
f 158/158/158 23/23/23 160/160/160
f 35/35/35 46/46/46 101/101/101
f 129/129/129 45/45/45 36/36/36
f 27/27/27 124/124/124 123/123/123
f 85/85/85 41/41/41 59/59/59
f 78/78/78 125/125/125 9/9/9
f 70/70/70 129/129/129 99/99/99
f 83/83/83 59/59/59 41/41/41
f 129/129/129 70/70/70 18/18/18
f 36/36/36 99/99/99 129/129/129
f 93/93/93 38/38/38 48/48/48
f 38/38/38 45/45/45 92/92/92
f 52/52/52 128/128/128 108/108/108
f 65/65/65 94/94/94 3/3/3
f 72/72/72 135/135/135 119/119/119
f 94/94/94 69/69/69 3/3/3
f 39/39/39 90/90/90 48/48/48
f 21/21/21 141/141/141 65/65/65
f 18/18/18 92/92/92 129/129/129
f 6/6/6 91/91/91 64/64/64
f 147/147/147 81/81/81 37/37/37
f 93/93/93 45/45/45 38/38/38
f 89/89/89 39/39/39 48/48/48
f 13/13/13 124/124/124 131/131/131
f 45/45/45 129/129/129 92/92/92
f 9/9/9 125/125/125 117/117/117
f 64/64/64 89/89/89 21/21/21
f 55/55/55 82/82/82 85/85/85
f 6/6/6 85/85/85 91/91/91
f 59/59/59 91/91/91 85/85/85
f 41/41/41 85/85/85 82/82/82
f 6/6/6 55/55/55 85/85/85
f 110/110/110 146/146/146 61/61/61
f 59/59/59 39/39/39 91/91/91
f 149/149/149 151/151/151 56/56/56
f 143/143/143 39/39/39 59/59/59
f 118/118/118 29/29/29 79/79/79
f 22/22/22 163/163/163 162/162/162
f 145/145/145 144/144/144 134/134/134
f 58/58/58 83/83/83 84/84/84
f 119/119/119 2/2/2 72/72/72
f 49/49/49 157/157/157 53/53/53
f 11/11/11 158/158/158 32/32/32
f 152/152/152 162/162/162 25/25/25
f 10/10/10 98/98/98 93/93/93
f 21/21/21 89/89/89 141/141/141
f 97/97/97 54/54/54 24/24/24
f 51/51/51 32/32/32 150/150/150
f 79/79/79 133/133/133 118/118/118
f 118/118/118 133/133/133 14/14/14
f 79/79/79 131/131/131 124/124/124
f 123/123/123 61/61/61 146/146/146
f 149/149/149 164/164/164 151/151/151
f 48/48/48 141/141/141 89/89/89
f 78/78/78 133/133/133 125/125/125
f 62/62/62 27/27/27 123/123/123
f 147/147/147 37/37/37 143/143/143
f 148/148/148 96/96/96 52/52/52
f 81/81/81 153/153/153 37/37/37
f 156/156/156 34/34/34 160/160/160
f 5/5/5 95/95/95 111/111/111
f 10/10/10 93/93/93 90/90/90
f 130/130/130 143/143/143 37/37/37
f 157/157/157 37/37/37 153/153/153
f 27/27/27 125/125/125 133/133/133
f 121/121/121 5/5/5 111/111/111
f 160/160/160 150/150/150 158/158/158
f 122/122/122 58/58/58 120/120/120
f 17/17/17 126/126/126 135/135/135
f 41/41/41 84/84/84 83/83/83
f 123/123/123 146/146/146 62/62/62
f 60/60/60 111/111/111 95/95/95
f 28/28/28 134/134/134 80/80/80
f 104/104/104 95/95/95 5/5/5
f 28/28/28 140/140/140 134/134/134
f 26/26/26 128/128/128 96/96/96
f 57/57/57 95/95/95 104/104/104
f 144/144/144 145/145/145 132/132/132
f 131/131/131 44/44/44 13/13/13
f 127/127/127 13/13/13 44/44/44
f 45/45/45 93/93/93 98/98/98
f 110/110/110 28/28/28 63/63/63
f 165/165/165 24/24/24 105/105/105
f 9/9/9 117/117/117 75/75/75
f 48/48/48 90/90/90 93/93/93
f 54/54/54 97/97/97 98/98/98
f 130/130/130 90/90/90 39/39/39
f 114/114/114 42/42/42 116/116/116
f 99/99/99 36/36/36 56/56/56
f 80/80/80 104/104/104 5/5/5
f 96/96/96 144/144/144 132/132/132
f 126/126/126 17/17/17 71/71/71
f 109/109/109 12/12/12 116/116/116
f 25/25/25 159/159/159 111/111/111
f 52/52/52 96/96/96 128/128/128
f 103/103/103 150/150/150 34/34/34
f 36/36/36 98/98/98 97/97/97
f 37/37/37 157/157/157 130/130/130
f 105/105/105 53/53/53 95/95/95
f 58/58/58 122/122/122 83/83/83
f 26/26/26 96/96/96 132/132/132
f 50/50/50 138/138/138 103/103/103
f 120/120/120 25/25/25 111/111/111
f 12/12/12 109/109/109 152/152/152
f 14/14/14 133/133/133 78/78/78
f 156/156/156 164/164/164 165/165/165
f 13/13/13 154/154/154 124/124/124
f 44/44/44 135/135/135 126/126/126
f 149/149/149 24/24/24 164/164/164
f 34/34/34 156/156/156 104/104/104
f 57/57/57 104/104/104 156/156/156
f 121/121/121 80/80/80 5/5/5
f 63/63/63 121/121/121 111/111/111
f 121/121/121 28/28/28 80/80/80
f 77/77/77 118/118/118 14/14/14
f 101/101/101 11/11/11 43/43/43
f 147/147/147 122/122/122 81/81/81
f 131/131/131 79/79/79 29/29/29
f 140/140/140 145/145/145 134/134/134
f 49/49/49 10/10/10 157/157/157
f 124/124/124 27/27/27 79/79/79
f 139/139/139 33/33/33 108/108/108
f 134/134/134 144/144/144 50/50/50
f 133/133/133 79/79/79 27/27/27
f 26/26/26 127/127/127 126/126/126
f 138/138/138 50/50/50 144/144/144
f 11/11/11 155/155/155 158/158/158
f 103/103/103 34/34/34 50/50/50
f 140/140/140 28/28/28 110/110/110
f 61/61/61 124/124/124 154/154/154
f 127/127/127 132/132/132 154/154/154
f 97/97/97 56/56/56 36/36/36
f 86/86/86 46/46/46 142/142/142
f 112/112/112 42/42/42 31/31/31
f 29/29/29 135/135/135 131/131/131
f 74/74/74 139/139/139 108/108/108
f 43/43/43 107/107/107 139/139/139
f 137/137/137 31/31/31 47/47/47
f 114/114/114 47/47/47 31/31/31
f 88/88/88 40/40/40 86/86/86
f 33/33/33 139/139/139 107/107/107
f 102/102/102 35/35/35 100/100/100
f 68/68/68 142/142/142 102/102/102
f 88/88/88 99/99/99 56/56/56
f 142/142/142 35/35/35 102/102/102
f 53/53/53 105/105/105 54/54/54
f 122/122/122 60/60/60 81/81/81
f 19/19/19 86/86/86 142/142/142
f 56/56/56 151/151/151 88/88/88
f 44/44/44 126/126/126 127/127/127
f 105/105/105 24/24/24 54/54/54
f 106/106/106 51/51/51 138/138/138
f 44/44/44 131/131/131 135/135/135
f 139/139/139 16/16/16 43/43/43
f 87/87/87 155/155/155 46/46/46
f 35/35/35 101/101/101 100/100/100
f 80/80/80 50/50/50 34/34/34
f 64/64/64 91/91/91 89/89/89
f 87/87/87 40/40/40 23/23/23
f 67/67/67 88/88/88 86/86/86
f 7/7/7 99/99/99 88/88/88
f 7/7/7 70/70/70 99/99/99
f 67/67/67 7/7/7 88/88/88
f 19/19/19 67/67/67 86/86/86
f 68/68/68 19/19/19 142/142/142
f 73/73/73 102/102/102 100/100/100
f 4/4/4 68/68/68 102/102/102
f 73/73/73 4/4/4 102/102/102
f 16/16/16 73/73/73 100/100/100
f 74/74/74 16/16/16 139/139/139
f 8/8/8 74/74/74 108/108/108
f 39/39/39 89/89/89 91/91/91
f 116/116/116 22/22/22 109/109/109
f 116/116/116 42/42/42 30/30/30
f 148/148/148 138/138/138 144/144/144
f 61/61/61 123/123/123 124/124/124
f 106/106/106 148/148/148 52/52/52
f 23/23/23 158/158/158 87/87/87
f 128/128/128 71/71/71 8/8/8
f 90/90/90 130/130/130 157/157/157
f 32/32/32 51/51/51 107/107/107
f 165/165/165 57/57/57 156/156/156
f 100/100/100 43/43/43 16/16/16
f 103/103/103 138/138/138 51/51/51
f 163/163/163 22/22/22 136/136/136
f 155/155/155 101/101/101 46/46/46
f 154/154/154 132/132/132 145/145/145
f 84/84/84 114/114/114 12/12/12
f 101/101/101 155/155/155 11/11/11
f 114/114/114 84/84/84 47/47/47
f 97/97/97 149/149/149 56/56/56
f 154/154/154 13/13/13 127/127/127
f 90/90/90 157/157/157 10/10/10
f 143/143/143 130/130/130 39/39/39
f 140/140/140 161/161/161 154/154/154
f 164/164/164 160/160/160 23/23/23
f 116/116/116 30/30/30 22/22/22
f 87/87/87 158/158/158 155/155/155
f 161/161/161 61/61/61 154/154/154
f 159/159/159 162/162/162 163/163/163
f 61/61/61 161/161/161 110/110/110
f 161/161/161 140/140/140 110/110/110
f 109/109/109 162/162/162 152/152/152
f 162/162/162 109/109/109 22/22/22
f 144/144/144 96/96/96 148/148/148
f 146/146/146 163/163/163 136/136/136
f 40/40/40 88/88/88 151/151/151
f 159/159/159 163/163/163 63/63/63
f 57/57/57 165/165/165 105/105/105
f 95/95/95 53/53/53 153/153/153
f 52/52/52 108/108/108 106/106/106
f 33/33/33 106/106/106 108/108/108
