# frame 000308 
# time 0.154500 
# name Cloth3D 
v -0.000000 0.000000 -0.000000
v 1.000000 0.000000 -0.000000
v -0.000000 1.000000 0.000000
v 1.000000 1.000000 0.000000
v 0.499554 0.499867 0.072034
v -0.000000 0.500000 0.000000
v 0.500000 1.000000 0.000000
v 1.000000 0.500000 0.000000
v 0.500000 -0.000000 0.000000
v 0.247625 0.751849 0.047700
v 0.753297 0.753352 0.061642
v 0.248026 0.248111 0.043651
v 0.752516 0.247053 0.055556
v 0.750000 0.000000 0.000000
v 0.250000 0.000000 0.000000
v 1.000000 0.750000 0.000000
v 1.000000 0.250000 0.000000
v 0.250000 1.000000 0.000000
v 0.750000 1.000000 0.000000
v 0.000000 0.250000 0.000000
v 0.000000 0.750000 -0.000000
v 0.363918 0.216952 0.052851
v 0.630319 0.774082 0.060468
v 0.491694 0.761122 0.072218
v 0.374670 0.373161 0.072186
v 0.876435 0.374490 0.031795
v 0.625258 0.123258 0.032567
v 0.626585 0.372813 0.072034
v 0.876272 0.123693 0.021897
v 0.374208 0.122127 0.033904
v 0.124313 0.124332 0.016187
v 0.753643 0.689866 0.065238
v 0.876237 0.625538 0.032676
v 0.626758 0.626751 0.072034
v 0.876074 0.876114 0.020969
v 0.374404 0.877313 0.034716
v 0.258214 0.600546 0.063400
v 0.123779 0.876108 0.020571
v 0.121673 0.625496 0.036059
v 0.625233 0.875229 0.028432
v 0.122969 0.374686 0.030880
v 0.249373 0.123834 0.023091
v 0.878201 0.751462 0.037331
v 0.876713 0.248906 0.029956
v 0.248849 0.876950 0.030232
v 0.751150 0.877499 0.034172
v 0.123663 0.249497 0.023666
v 0.123033 0.750918 0.029145
v 0.302063 0.716114 0.059015
v 0.694384 0.507714 0.072107
v 0.753560 0.626346 0.065433
v 0.876681 0.499945 0.035430
v 0.372414 0.644876 0.072186
v 0.373073 0.753624 0.064642
v 0.000000 0.375000 0.000000
v 0.500005 0.877322 0.036843
v 0.499631 0.627082 0.072035
v 0.246985 0.373972 0.055385
v 0.121783 0.499979 0.037274
v 0.372346 0.499874 0.072035
v 0.625940 0.246234 0.063079
v 0.499675 0.122854 0.034890
v 0.499483 0.372658 0.072035
v 0.000000 0.625000 0.000000
v 0.000000 0.875000 0.000000
v 0.000000 0.125000 0.000000
v 0.625000 1.000000 0.000000
v 0.875000 1.000000 0.000000
v 0.125000 1.000000 0.000000
v 0.375000 1.000000 0.000000
v 1.000000 0.375000 0.000000
v 1.000000 0.125000 0.000000
v 1.000000 0.875000 0.000000
v 1.000000 0.625000 0.000000
v 0.375000 0.000000 0.000000
v 0.125000 0.000000 0.000000
v 0.875000 0.000000 0.000000
v 0.625000 0.000000 0.000000
v 0.751017 0.122679 0.031570
v 0.626994 0.499787 0.072035
v 0.341481 0.563103 0.072112
v 0.061470 0.312365 0.014592
v 0.183130 0.436836 0.053574
v 0.185253 0.311514 0.039964
v 0.061103 0.437457 0.017518
v 0.687743 0.937757 0.014392
v 0.688984 0.815016 0.048363
v 0.562561 0.938015 0.016085
v 0.062189 0.687724 0.012646
v 0.184050 0.688674 0.047301
v 0.062041 0.562526 0.014597
v 0.187023 0.938382 0.013531
v 0.185182 0.814564 0.037975
v 0.062146 0.937837 0.006891
v 0.435987 0.563423 0.072035
v 0.837579 0.423124 0.045882
v 0.436979 0.816073 0.053902
v 0.310908 0.815289 0.046846
v 0.437415 0.937649 0.014662
v 0.938448 0.812918 0.014626
v 0.815355 0.815438 0.044302
v 0.937824 0.937825 0.007013
v 0.713918 0.596955 0.072179
v 0.563190 0.563371 0.072035
v 0.418877 0.690113 0.072179
v 0.816360 0.562634 0.056264
v 0.815458 0.689206 0.050381
v 0.937482 0.562581 0.014609
v 0.309453 0.259204 0.050337
v 0.578125 0.287988 0.072179
v 0.435973 0.436338 0.072035
v 0.187183 0.061689 0.012144
v 0.062323 0.062330 0.005048
v 0.186777 0.186901 0.023352
v 0.312353 0.062467 0.010109
v 0.311158 0.184945 0.041783
v 0.437370 0.062282 0.013759
v 0.812884 0.061947 0.012058
v 0.937886 0.062110 0.007321
v 0.328085 0.420989 0.072179
v 0.563108 0.436299 0.072035
v 0.275482 0.474970 0.072179
v 0.562531 0.183058 0.055807
v 0.688803 0.184075 0.049399
v 0.562445 0.062284 0.014369
v 0.937877 0.312235 0.014001
v 0.815283 0.310937 0.048018
v 0.937670 0.437450 0.014773
v 0.312153 0.938660 0.016776
v 0.183851 0.625561 0.048516
v 0.814646 0.185115 0.039295
v 0.803183 0.371484 0.049929
v 0.687691 0.062023 0.014246
v 0.690589 0.436439 0.072035
v 0.938432 0.187024 0.014095
v 0.436442 0.182721 0.055768
v 0.061896 0.187255 0.010756
v 0.779466 0.529686 0.072179
v 0.938496 0.687955 0.017300
v 0.666602 0.374202 0.072179
v 0.061383 0.812939 0.014263
v 0.812867 0.938317 0.013726
v 0.182471 0.562924 0.056796
v 0.755861 0.460897 0.072189
v 0.711468 0.417795 0.072186
v 0.516352 0.227263 0.072192
v 0.237291 0.513617 0.072192
v 0.802710 0.506383 0.072192
v 0.523617 0.792709 0.072192
v 0.663522 0.648675 0.072179
v 0.580631 0.833774 0.048251
v 0.294519 0.330464 0.057388
v 0.328291 0.601988 0.072189
v 0.715627 0.298143 0.061254
v 0.752208 0.815431 0.047786
v 0.582113 0.675135 0.072107
v 0.278646 0.658295 0.059663
v 0.691107 0.761126 0.063107
v 0.419023 0.327530 0.072189
v 0.619459 0.694008 0.072186
v 0.647910 0.307947 0.068218
v 0.362350 0.291665 0.060799
v 0.463618 0.281592 0.072191
v 0.575512 0.739262 0.072189
v 0.496697 0.692742 0.072126
v 0.283004 0.558008 0.072191
vt 0.000000 0.000000
vt 1.000000 0.000000
vt 0.000000 1.000000
vt 1.000000 1.000000
vt 0.500000 0.500000
vt 0.000000 0.500000
vt 0.500000 1.000000
vt 1.000000 0.500000
vt 0.500000 0.000000
vt 0.250000 0.750000
vt 0.750000 0.750000
vt 0.250000 0.250000
vt 0.750000 0.250000
vt 0.750000 0.000000
vt 0.250000 0.000000
vt 1.000000 0.750000
vt 1.000000 0.250000
vt 0.250000 1.000000
vt 0.750000 1.000000
vt 0.000000 0.250000
vt 0.000000 0.750000
vt 0.365347 0.220303
vt 0.629073 0.770824
vt 0.491845 0.755961
vt 0.377010 0.375241
vt 0.875000 0.375000
vt 0.625000 0.125000
vt 0.625000 0.375000
vt 0.875000 0.125000
vt 0.375000 0.125000
vt 0.125000 0.125000
vt 0.750000 0.687500
vt 0.875000 0.625000
vt 0.625000 0.625000
vt 0.875000 0.875000
vt 0.375000 0.875000
vt 0.262101 0.599801
vt 0.125000 0.875000
vt 0.125000 0.625000
vt 0.625000 0.875000
vt 0.125000 0.375000
vt 0.250000 0.125000
vt 0.875000 0.750000
vt 0.875000 0.250000
vt 0.250000 0.875000
vt 0.750000 0.875000
vt 0.125000 0.250000
vt 0.125000 0.750000
vt 0.304602 0.713891
vt 0.690882 0.507820
vt 0.750000 0.625000
vt 0.875000 0.500000
vt 0.374718 0.642787
vt 0.375000 0.750000
vt 0.000000 0.375000
vt 0.500000 0.875000
vt 0.500000 0.625000
vt 0.250000 0.375000
vt 0.125000 0.500000
vt 0.375000 0.500000
vt 0.625000 0.250000
vt 0.500000 0.125000
vt 0.500000 0.375000
vt 0.000000 0.625000
vt 0.000000 0.875000
vt 0.000000 0.125000
vt 0.625000 1.000000
vt 0.875000 1.000000
vt 0.125000 1.000000
vt 0.375000 1.000000
vt 1.000000 0.375000
vt 1.000000 0.125000
vt 1.000000 0.875000
vt 1.000000 0.625000
vt 0.375000 0.000000
vt 0.125000 0.000000
vt 0.875000 0.000000
vt 0.625000 0.000000
vt 0.750000 0.125000
vt 0.625000 0.500000
vt 0.344661 0.562348
vt 0.062500 0.312500
vt 0.187500 0.437500
vt 0.187500 0.312500
vt 0.062500 0.437500
vt 0.687500 0.937500
vt 0.687500 0.812500
vt 0.562500 0.937500
vt 0.062500 0.687500
vt 0.187500 0.687500
vt 0.062500 0.562500
vt 0.187500 0.937500
vt 0.187500 0.812500
vt 0.062500 0.937500
vt 0.437500 0.562500
vt 0.834853 0.423541
vt 0.437500 0.812500
vt 0.312500 0.812500
vt 0.437500 0.937500
vt 0.937500 0.812500
vt 0.812500 0.812500
vt 0.937500 0.937500
vt 0.710385 0.595867
vt 0.562500 0.562500
vt 0.420367 0.687005
vt 0.812500 0.562500
vt 0.812500 0.687500
vt 0.937500 0.562500
vt 0.311128 0.261404
vt 0.577631 0.291845
vt 0.437500 0.437500
vt 0.187500 0.062500
vt 0.062500 0.062500
vt 0.187500 0.187500
vt 0.312500 0.062500
vt 0.312500 0.187500
vt 0.437500 0.062500
vt 0.812500 0.062500
vt 0.937500 0.062500
vt 0.331333 0.422242
vt 0.562500 0.437500
vt 0.280022 0.475480
vt 0.562500 0.187500
vt 0.687500 0.187500
vt 0.562500 0.062500
vt 0.937500 0.312500
vt 0.812500 0.312500
vt 0.937500 0.437500
vt 0.312500 0.937500
vt 0.187500 0.625000
vt 0.812500 0.187500
vt 0.800716 0.372483
vt 0.687500 0.062500
vt 0.687500 0.437500
vt 0.937500 0.187500
vt 0.437500 0.187500
vt 0.062500 0.187500
vt 0.773542 0.529549
vt 0.937500 0.687500
vt 0.664306 0.376233
vt 0.062500 0.812500
vt 0.812500 0.937500
vt 0.187500 0.562500
vt 0.751001 0.461662
vt 0.708098 0.419111
vt 0.516613 0.232986
vt 0.242970 0.513691
vt 0.795423 0.506593
vt 0.523177 0.786220
vt 0.661164 0.646674
vt 0.580205 0.830830
vt 0.296906 0.332149
vt 0.331509 0.600698
vt 0.713437 0.300753
vt 0.750000 0.812500
vt 0.581168 0.672349
vt 0.281585 0.657008
vt 0.688844 0.757642
vt 0.420646 0.330580
vt 0.617940 0.691121
vt 0.646352 0.310977
vt 0.364019 0.294291
vt 0.464627 0.285804
vt 0.574682 0.735096
vt 0.497032 0.689303
vt 0.287394 0.557380
vn -0.039497 -0.039497 0.998439
vn 0.058640 -0.058640 0.996555
vn -0.054805 0.054805 0.996992
vn 0.057472 0.057472 0.996691
vn 0.000000 0.000000 1.000000
vn -0.253223 0.012496 0.967327
vn -0.005700 0.242263 0.970194
vn 0.227836 0.000481 0.973700
vn -0.002818 -0.223234 0.974761
vn -0.104582 0.094929 0.989975
vn 0.090406 0.124336 0.988113
vn -0.130776 -0.125610 0.983422
vn 0.115343 -0.085972 0.989598
vn 0.008171 -0.206999 0.978307
vn 0.008475 -0.176564 0.984253
vn 0.270795 0.010953 0.962575
vn 0.222368 0.000849 0.974963
vn -0.013109 0.240619 0.970531
vn 0.002391 0.221259 0.975212
vn -0.201569 -0.015350 0.979354
vn -0.212617 -0.006986 0.977111
vn -0.121225 -0.143644 0.982177
vn 0.043773 0.215773 0.975462
vn -0.059205 0.074626 0.995453
vn -0.065375 -0.063803 0.995819
vn 0.268249 -0.028811 0.962919
vn 0.020358 -0.300042 0.953709
vn -0.002295 0.002521 0.999994
vn 0.122931 -0.132084 0.983586
vn -0.063174 -0.276626 0.958899
vn -0.085299 -0.077850 0.993309
vn 0.157348 0.036243 0.986878
vn 0.293018 0.006842 0.956082
vn -0.001441 -0.001782 0.999997
vn 0.139567 0.151692 0.978525
vn -0.022955 0.270794 0.962364
vn -0.135486 0.124875 0.982878
vn -0.118840 0.120877 0.985528
vn -0.270399 0.047118 0.961595
vn 0.053330 0.279181 0.958757
vn -0.239338 -0.061101 0.969012
vn -0.068807 -0.167469 0.983473
vn 0.245066 0.034343 0.968898
vn 0.227902 -0.037917 0.972946
vn -0.053059 0.212528 0.975713
vn 0.024620 0.251795 0.967467
vn -0.147623 -0.070351 0.986538
vn -0.228654 0.046989 0.972373
vn -0.137390 0.089281 0.986485
vn -0.001146 -0.000604 0.999999
vn 0.138439 0.057728 0.988687
vn 0.363930 -0.001139 0.931426
vn -0.054649 0.045538 0.997467
vn -0.093705 0.135369 0.986354
vn -0.254378 -0.011913 0.967031
vn -0.005800 0.335354 0.942074
vn 0.000201 -0.000876 1.000000
vn -0.139379 -0.111785 0.983909
vn -0.305435 -0.011955 0.952138
vn 0.000954 0.000081 1.000000
vn 0.070332 -0.131000 0.988884
vn 0.001930 -0.327434 0.944872
vn 0.000455 0.000898 1.000000
vn -0.214216 0.007761 0.976756
vn -0.168485 0.029745 0.985255
vn -0.125435 -0.023350 0.991827
vn 0.007108 0.239578 0.970851
vn 0.025935 0.166159 0.985758
vn -0.026881 0.162783 0.986296
vn 0.008937 0.248420 0.968611
vn 0.224765 -0.002078 0.974411
vn 0.171140 -0.027271 0.984869
vn 0.172007 0.028889 0.984672
vn 0.248928 -0.011507 0.968454
vn -0.014825 -0.189072 0.981851
vn -0.028937 -0.136536 0.990212
vn 0.018789 -0.154316 0.987843
vn 0.001521 -0.225727 0.974190
vn 0.044993 -0.245788 0.968279
vn -0.000481 -0.000305 1.000000
vn 0.001323 -0.001116 0.999999
vn -0.214469 -0.028139 0.976325
vn -0.224697 -0.084213 0.970783
vn -0.170588 -0.098751 0.980382
vn -0.267623 -0.012867 0.963438
vn -0.006963 0.245641 0.969336
vn -0.001131 0.258403 0.966037
vn 0.018830 0.268373 0.963131
vn -0.257676 0.014710 0.966119
vn -0.158366 0.052994 0.985957
vn -0.289055 0.012141 0.957236
vn -0.039301 0.200719 0.978860
vn -0.124545 0.118964 0.985056
vn -0.081884 0.083318 0.993153
vn 0.000475 -0.000529 1.000000
vn 0.284010 -0.085077 0.955039
vn -0.072069 0.262134 0.962337
vn -0.079649 0.178510 0.980709
vn -0.001987 0.279940 0.960016
vn 0.231640 0.063557 0.970723
vn 0.127441 0.181116 0.975170
vn 0.083926 0.085430 0.992803
vn 0.058504 0.056904 0.996664
vn 0.000000 -0.000175 1.000000
vn -0.033404 0.034268 0.998854
vn 0.307170 0.120321 0.944018
vn 0.233771 0.018594 0.972114
vn 0.266716 -0.001281 0.963774
vn -0.113021 -0.116063 0.986791
vn 0.059693 -0.084116 0.994666
vn 0.000640 0.000656 1.000000
vn -0.024214 -0.155368 0.987560
vn -0.066299 -0.063475 0.995779
vn -0.102592 -0.101467 0.989535
vn -0.024838 -0.225350 0.973961
vn -0.110795 -0.160462 0.980804
vn -0.010505 -0.270845 0.962566
vn 0.032498 -0.211859 0.976760
vn 0.082608 -0.086915 0.992785
vn -0.065301 -0.060133 0.996052
vn 0.000000 -0.000000 1.000000
vn -0.064464 -0.061609 0.996016
vn 0.055308 -0.268688 0.961638
vn 0.050795 -0.212137 0.975919
vn 0.004375 -0.264475 0.964383
vn 0.243666 -0.004799 0.969847
vn 0.196508 -0.022528 0.980243
vn 0.266040 -0.007632 0.963932
vn -0.011222 0.255448 0.966758
vn -0.169944 0.083661 0.981896
vn 0.141924 -0.124278 0.982045
vn 0.215427 -0.052215 0.975123
vn 0.006393 -0.251691 0.967787
vn -0.003008 0.002489 0.999992
vn 0.204967 -0.028858 0.978343
vn -0.074678 -0.235893 0.968905
vn -0.157182 -0.034297 0.986974
vn 0.124453 0.106928 0.986447
vn 0.270001 -0.020280 0.962646
vn 0.030266 -0.031716 0.999039
vn -0.196736 0.028457 0.980043
vn 0.040067 0.218825 0.974941
vn -0.215267 0.077918 0.973442
vn 0.080157 -0.071439 0.994219
vn 0.027439 -0.023147 0.999355
vn 0.017838 -0.169500 0.985369
vn -0.117931 0.000881 0.993021
vn 0.195459 0.054415 0.979201
vn 0.013258 0.180220 0.983537
vn 0.021291 0.018226 0.999607
vn 0.118572 0.305058 0.944923
vn -0.126332 -0.111928 0.985653
vn -0.050102 0.049947 0.997494
vn 0.101397 -0.066924 0.992592
vn 0.036264 0.219415 0.974957
vn -0.000682 -0.001567 0.999999
vn -0.129757 0.091348 0.987329
vn 0.023022 0.186622 0.982162
vn -0.068842 -0.066488 0.995410
vn 0.023733 0.032285 0.999197
vn 0.087209 -0.099216 0.991237
vn -0.123283 -0.115878 0.985583
vn -0.061357 -0.060763 0.996265
vn 0.065905 0.088279 0.993913
vn 0.000342 -0.001347 0.999999
vn -0.068992 0.071640 0.995042
f 1/1/1 113/113/113 66/66/66
f 31/31/31 137/137/137 113/113/113
f 132/132/132 127/127/127 26/26/26
f 112/112/112 31/31/31 113/113/113
f 135/135/135 44/44/44 29/29/29
f 106/106/106 52/52/52 33/33/33
f 154/154/154 61/61/61 13/13/13
f 84/84/84 41/41/41 47/47/47
f 137/137/137 66/66/66 113/113/113
f 75/75/75 115/115/115 15/15/15
f 12/12/12 152/152/152 84/84/84
f 61/61/61 110/110/110 123/123/123
f 25/25/25 120/120/120 152/152/152
f 76/76/76 113/113/113 1/1/1
f 76/76/76 112/112/112 113/113/113
f 15/15/15 112/112/112 76/76/76
f 115/115/115 112/112/112 15/15/15
f 30/30/30 115/115/115 117/117/117
f 108/108/108 33/33/33 52/52/52
f 75/75/75 117/117/117 115/115/115
f 115/115/115 30/30/30 42/42/42
f 145/145/145 140/140/140 154/154/154
f 51/51/51 150/150/150 103/103/103
f 136/136/136 22/22/22 30/30/30
f 107/107/107 43/43/43 11/11/11
f 54/54/54 98/98/98 49/49/49
f 42/42/42 112/112/112 115/115/115
f 58/58/58 84/84/84 152/152/152
f 110/110/110 163/163/163 146/146/146
f 60/60/60 120/120/120 111/111/111
f 136/136/136 62/62/62 146/146/146
f 159/159/159 63/63/63 111/111/111
f 147/147/147 83/83/83 122/122/122
f 104/104/104 80/80/80 34/34/34
f 10/10/10 49/49/49 98/98/98
f 160/160/160 164/164/164 156/156/156
f 49/49/49 53/53/53 54/54/54
f 117/117/117 62/62/62 30/30/30
f 95/95/95 57/57/57 105/105/105
f 131/131/131 29/29/29 44/44/44
f 77/77/77 2/2/2 119/119/119
f 77/77/77 119/119/119 118/118/118
f 71/71/71 128/128/128 126/126/126
f 58/58/58 152/152/152 120/120/120
f 63/63/63 28/28/28 121/121/121
f 119/119/119 29/29/29 118/118/118
f 124/124/124 13/13/13 61/61/61
f 125/125/125 27/27/27 62/62/62
f 135/135/135 72/72/72 17/17/17
f 136/136/136 30/30/30 62/62/62
f 138/138/138 148/148/148 106/106/106
f 60/60/60 122/122/122 120/120/120
f 153/153/153 53/53/53 157/157/157
f 11/11/11 32/32/32 107/107/107
f 12/12/12 114/114/114 116/116/116
f 150/150/150 160/160/160 34/34/34
f 32/32/32 158/158/158 150/150/150
f 110/110/110 146/146/146 123/123/123
f 40/40/40 151/151/151 23/23/23
f 24/24/24 165/165/165 164/164/164
f 82/82/82 47/47/47 41/41/41
f 45/45/45 98/98/98 36/36/36
f 82/82/82 137/137/137 47/47/47
f 63/63/63 163/163/163 110/110/110
f 26/26/26 126/126/126 128/128/128
f 62/62/62 117/117/117 125/125/125
f 20/20/20 137/137/137 82/82/82
f 38/38/38 92/92/92 94/94/94
f 20/20/20 66/66/66 137/137/137
f 55/55/55 20/20/20 82/82/82
f 69/69/69 94/94/94 92/92/92
f 43/43/43 100/100/100 101/101/101
f 8/8/8 108/108/108 128/128/128
f 141/141/141 48/48/48 38/38/38
f 50/50/50 80/80/80 134/134/134
f 65/65/65 141/141/141 94/94/94
f 114/114/114 31/31/31 42/42/42
f 38/38/38 94/94/94 141/141/141
f 92/92/92 18/18/18 69/69/69
f 24/24/24 149/149/149 97/97/97
f 159/159/159 25/25/25 162/162/162
f 46/46/46 35/35/35 142/142/142
f 29/29/29 119/119/119 135/135/135
f 23/23/23 151/151/151 164/164/164
f 158/158/158 23/23/23 160/160/160
f 35/35/35 46/46/46 101/101/101
f 129/129/129 45/45/45 36/36/36
f 27/27/27 124/124/124 123/123/123
f 85/85/85 41/41/41 59/59/59
f 78/78/78 125/125/125 9/9/9
f 70/70/70 129/129/129 99/99/99
f 83/83/83 59/59/59 41/41/41
f 129/129/129 70/70/70 18/18/18
f 36/36/36 99/99/99 129/129/129
f 93/93/93 38/38/38 48/48/48
f 38/38/38 45/45/45 92/92/92
f 52/52/52 128/128/128 108/108/108
f 65/65/65 94/94/94 3/3/3
f 72/72/72 135/135/135 119/119/119
f 94/94/94 69/69/69 3/3/3
f 39/39/39 90/90/90 48/48/48
f 21/21/21 141/141/141 65/65/65
f 18/18/18 92/92/92 129/129/129
f 6/6/6 91/91/91 64/64/64
f 153/153/153 81/81/81 53/53/53
f 93/93/93 45/45/45 38/38/38
f 89/89/89 39/39/39 48/48/48
f 13/13/13 124/124/124 131/131/131
f 45/45/45 129/129/129 92/92/92
f 9/9/9 125/125/125 117/117/117
f 64/64/64 89/89/89 21/21/21
f 55/55/55 82/82/82 85/85/85
f 6/6/6 85/85/85 91/91/91
f 59/59/59 91/91/91 85/85/85
f 41/41/41 85/85/85 82/82/82
f 6/6/6 55/55/55 85/85/85
f 59/59/59 83/83/83 143/143/143
f 59/59/59 39/39/39 91/91/91
f 149/149/149 151/151/151 56/56/56
f 143/143/143 39/39/39 59/59/59
f 118/118/118 29/29/29 79/79/79
f 22/22/22 163/163/163 162/162/162
f 145/145/145 144/144/144 134/134/134
f 58/58/58 83/83/83 84/84/84
f 119/119/119 2/2/2 72/72/72
f 49/49/49 157/157/157 53/53/53
f 11/11/11 158/158/158 32/32/32
f 152/152/152 162/162/162 25/25/25
f 10/10/10 98/98/98 93/93/93
f 21/21/21 89/89/89 141/141/141
f 97/97/97 54/54/54 24/24/24
f 51/51/51 32/32/32 150/150/150
f 79/79/79 133/133/133 118/118/118
f 118/118/118 133/133/133 14/14/14
f 79/79/79 131/131/131 124/124/124
f 147/147/147 143/143/143 83/83/83
f 149/149/149 164/164/164 151/151/151
f 48/48/48 141/141/141 89/89/89
f 78/78/78 133/133/133 125/125/125
f 62/62/62 27/27/27 123/123/123
f 147/147/147 37/37/37 143/143/143
f 148/148/148 96/96/96 52/52/52
f 60/60/60 95/95/95 81/81/81
f 156/156/156 34/34/34 160/160/160
f 5/5/5 95/95/95 111/111/111
f 10/10/10 93/93/93 90/90/90
f 130/130/130 143/143/143 37/37/37
f 157/157/157 37/37/37 153/153/153
f 27/27/27 125/125/125 133/133/133
f 121/121/121 5/5/5 111/111/111
f 160/160/160 150/150/150 158/158/158
f 122/122/122 58/58/58 120/120/120
f 17/17/17 126/126/126 135/135/135
f 41/41/41 84/84/84 83/83/83
f 123/123/123 146/146/146 62/62/62
f 60/60/60 111/111/111 95/95/95
f 28/28/28 134/134/134 80/80/80
f 104/104/104 95/95/95 5/5/5
f 28/28/28 140/140/140 134/134/134
f 26/26/26 128/128/128 96/96/96
f 57/57/57 95/95/95 104/104/104
f 144/144/144 145/145/145 132/132/132
f 131/131/131 44/44/44 13/13/13
f 127/127/127 13/13/13 44/44/44
f 45/45/45 93/93/93 98/98/98
f 110/110/110 28/28/28 63/63/63
f 165/165/165 24/24/24 105/105/105
f 9/9/9 117/117/117 75/75/75
f 48/48/48 90/90/90 93/93/93
f 54/54/54 97/97/97 98/98/98
f 130/130/130 90/90/90 39/39/39
f 114/114/114 42/42/42 116/116/116
f 99/99/99 36/36/36 56/56/56
f 80/80/80 104/104/104 5/5/5
f 95/95/95 53/53/53 81/81/81
f 126/126/126 17/17/17 71/71/71
f 109/109/109 12/12/12 116/116/116
f 25/25/25 159/159/159 111/111/111
f 52/52/52 96/96/96 128/128/128
f 103/103/103 150/150/150 34/34/34
f 36/36/36 98/98/98 97/97/97
f 37/37/37 157/157/157 130/130/130
f 105/105/105 53/53/53 95/95/95
f 58/58/58 122/122/122 83/83/83
f 26/26/26 96/96/96 132/132/132
f 50/50/50 138/138/138 103/103/103
f 120/120/120 25/25/25 111/111/111
f 12/12/12 109/109/109 152/152/152
f 14/14/14 133/133/133 78/78/78
f 156/156/156 164/164/164 165/165/165
f 107/107/107 106/106/106 33/33/33
f 44/44/44 135/135/135 126/126/126
f 149/149/149 24/24/24 164/164/164
f 34/34/34 156/156/156 104/104/104
f 57/57/57 104/104/104 156/156/156
f 121/121/121 80/80/80 5/5/5
f 63/63/63 121/121/121 111/111/111
f 121/121/121 28/28/28 80/80/80
f 77/77/77 118/118/118 14/14/14
f 101/101/101 11/11/11 43/43/43
f 103/103/103 34/34/34 80/80/80
f 131/131/131 79/79/79 29/29/29
f 140/140/140 145/145/145 134/134/134
f 49/49/49 10/10/10 157/157/157
f 124/124/124 27/27/27 79/79/79
f 139/139/139 33/33/33 108/108/108
f 134/134/134 144/144/144 50/50/50
f 133/133/133 79/79/79 27/27/27
f 26/26/26 127/127/127 126/126/126
f 138/138/138 50/50/50 144/144/144
f 11/11/11 155/155/155 158/158/158
f 80/80/80 50/50/50 103/103/103
f 140/140/140 28/28/28 110/110/110
f 51/51/51 106/106/106 107/107/107
f 127/127/127 132/132/132 154/154/154
f 97/97/97 56/56/56 36/36/36
f 86/86/86 46/46/46 142/142/142
f 112/112/112 42/42/42 31/31/31
f 40/40/40 46/46/46 86/86/86
f 74/74/74 139/139/139 108/108/108
f 43/43/43 107/107/107 139/139/139
f 137/137/137 31/31/31 47/47/47
f 114/114/114 47/47/47 31/31/31
f 88/88/88 40/40/40 86/86/86
f 33/33/33 139/139/139 107/107/107
f 102/102/102 35/35/35 100/100/100
f 68/68/68 142/142/142 102/102/102
f 88/88/88 99/99/99 56/56/56
f 142/142/142 35/35/35 102/102/102
f 53/53/53 105/105/105 54/54/54
f 153/153/153 166/166/166 81/81/81
f 19/19/19 86/86/86 142/142/142
f 56/56/56 151/151/151 88/88/88
f 44/44/44 126/126/126 127/127/127
f 105/105/105 24/24/24 54/54/54
f 106/106/106 51/51/51 138/138/138
f 87/87/87 46/46/46 40/40/40
f 139/139/139 16/16/16 43/43/43
f 87/87/87 155/155/155 46/46/46
f 35/35/35 101/101/101 100/100/100
f 60/60/60 81/81/81 122/122/122
f 64/64/64 91/91/91 89/89/89
f 87/87/87 40/40/40 23/23/23
f 67/67/67 88/88/88 86/86/86
f 7/7/7 99/99/99 88/88/88
f 7/7/7 70/70/70 99/99/99
f 67/67/67 7/7/7 88/88/88
f 19/19/19 67/67/67 86/86/86
f 68/68/68 19/19/19 142/142/142
f 73/73/73 102/102/102 100/100/100
f 4/4/4 68/68/68 102/102/102
f 73/73/73 4/4/4 102/102/102
f 16/16/16 73/73/73 100/100/100
f 74/74/74 16/16/16 139/139/139
f 8/8/8 74/74/74 108/108/108
f 39/39/39 89/89/89 91/91/91
f 116/116/116 22/22/22 109/109/109
f 116/116/116 42/42/42 30/30/30
f 148/148/148 138/138/138 144/144/144
f 61/61/61 123/123/123 124/124/124
f 106/106/106 148/148/148 52/52/52
f 23/23/23 158/158/158 87/87/87
f 128/128/128 71/71/71 8/8/8
f 90/90/90 130/130/130 157/157/157
f 32/32/32 51/51/51 107/107/107
f 165/165/165 57/57/57 156/156/156
f 100/100/100 43/43/43 16/16/16
f 103/103/103 138/138/138 51/51/51
f 163/163/163 22/22/22 136/136/136
f 155/155/155 101/101/101 46/46/46
f 154/154/154 132/132/132 145/145/145
f 84/84/84 114/114/114 12/12/12
f 101/101/101 155/155/155 11/11/11
f 114/114/114 84/84/84 47/47/47
f 97/97/97 149/149/149 56/56/56
f 154/154/154 13/13/13 127/127/127
f 90/90/90 157/157/157 10/10/10
f 143/143/143 130/130/130 39/39/39
f 140/140/140 161/161/161 154/154/154
f 164/164/164 160/160/160 23/23/23
f 116/116/116 30/30/30 22/22/22
f 87/87/87 158/158/158 155/155/155
f 161/161/161 61/61/61 154/154/154
f 159/159/159 162/162/162 163/163/163
f 61/61/61 161/161/161 110/110/110
f 161/161/161 140/140/140 110/110/110
f 109/109/109 162/162/162 152/152/152
f 162/162/162 109/109/109 22/22/22
f 144/144/144 96/96/96 148/148/148
f 146/146/146 163/163/163 136/136/136
f 40/40/40 88/88/88 151/151/151
f 159/159/159 163/163/163 63/63/63
f 57/57/57 165/165/165 105/105/105
f 96/96/96 144/144/144 132/132/132
f 147/147/147 166/166/166 37/37/37
f 166/166/166 153/153/153 37/37/37
f 147/147/147 122/122/122 166/166/166
f 81/81/81 166/166/166 122/122/122
