# frame 000339 
# time 0.170000 
# name Cloth3D 
v -0.000000 0.000000 -0.000000
v 1.000000 0.000000 -0.000000
v -0.000000 1.000000 0.000000
v 1.000000 1.000000 0.000000
v 0.501002 0.500230 0.079784
v -0.000000 0.500000 0.000000
v 0.500000 1.000000 0.000000
v 1.000000 0.500000 0.000000
v 0.500000 -0.000000 0.000000
v 0.247383 0.753499 0.059932
v 0.753071 0.752508 0.055511
v 0.247843 0.247759 0.053352
v 0.753402 0.247213 0.057554
v 0.750000 0.000000 0.000000
v 0.250000 0.000000 0.000000
v 1.000000 0.750000 0.000000
v 1.000000 0.250000 0.000000
v 0.250000 1.000000 0.000000
v 0.750000 1.000000 0.000000
v 0.000000 0.250000 0.000000
v 0.000000 0.750000 -0.000000
v 0.364601 0.217578 0.055949
v 0.630609 0.774158 0.060739
v 0.483960 0.771342 0.079968
v 0.374512 0.372199 0.079936
v 0.875065 0.375298 0.026716
v 0.625781 0.124059 0.032443
v 0.628158 0.372726 0.079784
v 0.876177 0.124055 0.019339
v 0.375012 0.124234 0.029849
v 0.124207 0.124213 0.018403
v 0.753386 0.689231 0.060663
v 0.875778 0.624659 0.030301
v 0.627995 0.627558 0.079784
v 0.876249 0.875753 0.018312
v 0.375122 0.875381 0.029136
v 0.259585 0.601229 0.067899
v 0.123742 0.876501 0.022551
v 0.125013 0.625519 0.028899
v 0.625428 0.876030 0.031037
v 0.122864 0.374686 0.035623
v 0.249432 0.124365 0.025175
v 0.877836 0.750768 0.033916
v 0.877530 0.249168 0.032625
v 0.249167 0.877350 0.032124
v 0.751085 0.876201 0.027957
v 0.123881 0.249262 0.027655
v 0.123309 0.751286 0.031736
v 0.302706 0.717193 0.066978
v 0.696211 0.508263 0.079857
v 0.753866 0.625898 0.066108
v 0.880209 0.500006 0.045049
v 0.373519 0.645622 0.079936
v 0.374663 0.753184 0.062047
v 0.000000 0.375000 0.000000
v 0.500375 0.877864 0.038582
v 0.500833 0.628069 0.079785
v 0.246811 0.373813 0.066040
v 0.123214 0.500153 0.036371
v 0.373360 0.500266 0.079785
v 0.627323 0.246048 0.069588
v 0.500533 0.124372 0.031647
v 0.500933 0.372573 0.079785
v 0.000000 0.625000 0.000000
v 0.000000 0.875000 0.000000
v 0.000000 0.125000 0.000000
v 0.625000 1.000000 0.000000
v 0.875000 1.000000 0.000000
v 0.125000 1.000000 0.000000
v 0.375000 1.000000 0.000000
v 1.000000 0.375000 0.000000
v 1.000000 0.125000 0.000000
v 1.000000 0.875000 0.000000
v 1.000000 0.625000 0.000000
v 0.375000 0.000000 0.000000
v 0.125000 0.000000 0.000000
v 0.875000 0.000000 0.000000
v 0.625000 0.000000 0.000000
v 0.751380 0.123286 0.030960
v 0.628640 0.500301 0.079785
v 0.290951 0.551920 0.079941
v 0.062348 0.312426 0.013530
v 0.184457 0.437409 0.054851
v 0.184465 0.311153 0.050061
v 0.062138 0.437555 0.016086
v 0.687751 0.937755 0.013638
v 0.689115 0.815023 0.047179
v 0.562597 0.937291 0.013378
v 0.062020 0.687843 0.015841
v 0.185460 0.689223 0.048317
v 0.061726 0.562702 0.017880
v 0.187215 0.937934 0.011640
v 0.185372 0.815215 0.041290
v 0.062246 0.937797 0.005862
v 0.437296 0.564003 0.079785
v 0.836867 0.424204 0.043427
v 0.438070 0.816492 0.055878
v 0.311501 0.815655 0.049529
v 0.437582 0.938353 0.017401
v 0.939518 0.812965 0.018320
v 0.814688 0.814025 0.035839
v 0.937370 0.937273 0.000260
v 0.718729 0.601002 0.079929
v 0.564590 0.564027 0.079785
v 0.416418 0.694409 0.079929
v 0.818066 0.562615 0.062239
v 0.815187 0.688414 0.047044
v 0.938037 0.562322 0.016265
v 0.309291 0.258484 0.062712
v 0.585183 0.281877 0.079929
v 0.437230 0.436504 0.079785
v 0.187389 0.062493 0.009233
v 0.062210 0.062210 0.006715
v 0.185535 0.185413 0.038341
v 0.312480 0.062221 0.013772
v 0.311416 0.184892 0.047208
v 0.437704 0.062158 0.015557
v 0.812942 0.061891 0.012554
v 0.937699 0.062358 0.004563
v 0.324117 0.416494 0.079929
v 0.564687 0.436477 0.079785
v 0.267107 0.466580 0.079929
v 0.563236 0.184634 0.055197
v 0.689556 0.184434 0.051009
v 0.562833 0.062605 0.014235
v 0.937517 0.312489 0.012727
v 0.814075 0.311563 0.042859
v 0.938723 0.437490 0.018308
v 0.312465 0.937490 0.012937
v 0.185574 0.625993 0.049344
v 0.815470 0.185088 0.041401
v 0.802271 0.372284 0.047370
v 0.687920 0.061481 0.017517
v 0.692175 0.436819 0.079784
v 0.938155 0.187319 0.012247
v 0.437906 0.185623 0.048766
v 0.062406 0.187342 0.009661
v 0.497616 0.694144 0.079876
v 0.937834 0.687480 0.014164
v 0.667200 0.375229 0.079929
v 0.062165 0.812949 0.012103
v 0.813003 0.938375 0.014024
v 0.186113 0.562656 0.049607
v 0.749621 0.468734 0.079939
v 0.708642 0.422261 0.079936
v 0.538253 0.227829 0.079942
v 0.237863 0.491715 0.079942
v 0.802139 0.528285 0.079942
v 0.501715 0.792137 0.079942
v 0.664170 0.648939 0.079929
v 0.580585 0.833438 0.047512
v 0.294566 0.330237 0.067890
v 0.332790 0.599379 0.079939
v 0.717682 0.297694 0.072079
v 0.752237 0.815022 0.044418
v 0.583187 0.676238 0.079857
v 0.279192 0.659435 0.069173
v 0.691241 0.760675 0.059544
v 0.422453 0.329971 0.079939
v 0.616553 0.690880 0.079936
v 0.649502 0.307754 0.075622
v 0.362891 0.291641 0.068882
v 0.470612 0.287500 0.079941
v 0.569044 0.732764 0.079939
vt 0.000000 0.000000
vt 1.000000 0.000000
vt 0.000000 1.000000
vt 1.000000 1.000000
vt 0.500000 0.500000
vt 0.000000 0.500000
vt 0.500000 1.000000
vt 1.000000 0.500000
vt 0.500000 0.000000
vt 0.250000 0.750000
vt 0.750000 0.750000
vt 0.250000 0.250000
vt 0.750000 0.250000
vt 0.750000 0.000000
vt 0.250000 0.000000
vt 1.000000 0.750000
vt 1.000000 0.250000
vt 0.250000 1.000000
vt 0.750000 1.000000
vt 0.000000 0.250000
vt 0.000000 0.750000
vt 0.365347 0.220303
vt 0.629073 0.770824
vt 0.483695 0.763841
vt 0.376007 0.374170
vt 0.875000 0.375000
vt 0.625000 0.125000
vt 0.625000 0.375000
vt 0.875000 0.125000
vt 0.375000 0.125000
vt 0.125000 0.125000
vt 0.750000 0.687500
vt 0.875000 0.625000
vt 0.625000 0.625000
vt 0.875000 0.875000
vt 0.375000 0.875000
vt 0.262101 0.599801
vt 0.125000 0.875000
vt 0.125000 0.625000
vt 0.625000 0.875000
vt 0.125000 0.375000
vt 0.250000 0.125000
vt 0.875000 0.750000
vt 0.875000 0.250000
vt 0.250000 0.875000
vt 0.750000 0.875000
vt 0.125000 0.250000
vt 0.125000 0.750000
vt 0.304602 0.713891
vt 0.690882 0.507820
vt 0.750000 0.625000
vt 0.875000 0.500000
vt 0.374786 0.642706
vt 0.375000 0.750000
vt 0.000000 0.375000
vt 0.500000 0.875000
vt 0.500000 0.625000
vt 0.250000 0.375000
vt 0.125000 0.500000
vt 0.375000 0.500000
vt 0.625000 0.250000
vt 0.500000 0.125000
vt 0.500000 0.375000
vt 0.000000 0.625000
vt 0.000000 0.875000
vt 0.000000 0.125000
vt 0.625000 1.000000
vt 0.875000 1.000000
vt 0.125000 1.000000
vt 0.375000 1.000000
vt 1.000000 0.375000
vt 1.000000 0.125000
vt 1.000000 0.875000
vt 1.000000 0.625000
vt 0.375000 0.000000
vt 0.125000 0.000000
vt 0.875000 0.000000
vt 0.625000 0.000000
vt 0.750000 0.125000
vt 0.625000 0.500000
vt 0.294433 0.550739
vt 0.062500 0.312500
vt 0.187500 0.437500
vt 0.187500 0.312500
vt 0.062500 0.437500
vt 0.687500 0.937500
vt 0.687500 0.812500
vt 0.562500 0.937500
vt 0.062500 0.687500
vt 0.187500 0.687500
vt 0.062500 0.562500
vt 0.187500 0.937500
vt 0.187500 0.812500
vt 0.062500 0.937500
vt 0.437500 0.562500
vt 0.834853 0.423541
vt 0.437500 0.812500
vt 0.312500 0.812500
vt 0.437500 0.937500
vt 0.937500 0.812500
vt 0.812500 0.812500
vt 0.937500 0.937500
vt 0.713587 0.599179
vt 0.562500 0.562500
vt 0.417084 0.690163
vt 0.812500 0.562500
vt 0.812500 0.687500
vt 0.937500 0.562500
vt 0.311128 0.261404
vt 0.583139 0.286571
vt 0.437500 0.437500
vt 0.187500 0.062500
vt 0.062500 0.062500
vt 0.187500 0.187500
vt 0.312500 0.062500
vt 0.312500 0.187500
vt 0.437500 0.062500
vt 0.812500 0.062500
vt 0.937500 0.062500
vt 0.326832 0.417532
vt 0.562500 0.437500
vt 0.271617 0.466715
vt 0.562500 0.187500
vt 0.687500 0.187500
vt 0.562500 0.062500
vt 0.937500 0.312500
vt 0.812500 0.312500
vt 0.937500 0.437500
vt 0.312500 0.937500
vt 0.187500 0.625000
vt 0.812500 0.187500
vt 0.800716 0.372483
vt 0.687500 0.062500
vt 0.687500 0.437500
vt 0.937500 0.187500
vt 0.437500 0.187500
vt 0.062500 0.187500
vt 0.497032 0.689303
vt 0.937500 0.687500
vt 0.663314 0.377191
vt 0.062500 0.812500
vt 0.812500 0.937500
vt 0.187500 0.562500
vt 0.743077 0.469007
vt 0.703799 0.423165
vt 0.537206 0.235032
vt 0.243642 0.491606
vt 0.792692 0.527365
vt 0.501158 0.783448
vt 0.660653 0.646152
vt 0.580205 0.830830
vt 0.296906 0.332149
vt 0.334955 0.597411
vt 0.713437 0.300753
vt 0.750000 0.812500
vt 0.581168 0.672349
vt 0.281585 0.657008
vt 0.688844 0.757642
vt 0.422990 0.333038
vt 0.614021 0.686990
vt 0.646352 0.310977
vt 0.364019 0.294291
vt 0.470341 0.291871
vt 0.567442 0.727313
vn -0.054004 -0.054004 0.997079
vn 0.038023 -0.038023 0.998553
vn -0.047951 0.047951 0.997698
vn 0.003702 0.003702 0.999986
vn 0.000000 0.000000 1.000000
vn -0.263313 -0.007614 0.964680
vn 0.015991 0.238607 0.970985
vn 0.268704 0.008527 0.963185
vn 0.005865 -0.229491 0.973293
vn -0.111091 0.119922 0.986548
vn 0.121526 0.121537 0.985119
vn -0.120310 -0.144694 0.982135
vn 0.172759 -0.117443 0.977937
vn 0.019253 -0.236445 0.971454
vn -0.016718 -0.181255 0.983294
vn 0.257400 -0.017046 0.966155
vn 0.197194 -0.001624 0.980363
vn -0.004997 0.194421 0.980906
vn -0.002269 0.218878 0.975750
vn -0.182951 -0.014822 0.983010
vn -0.219458 0.013979 0.975522
vn -0.029268 -0.222033 0.974600
vn 0.079954 0.247340 0.965624
vn -0.134421 0.126555 0.982810
vn -0.053180 -0.063920 0.996537
vn 0.250809 -0.065958 0.965787
vn 0.000616 -0.290784 0.956789
vn -0.002427 0.002442 0.999994
vn 0.140909 -0.145777 0.979231
vn -0.018833 -0.260783 0.965214
vn -0.123537 -0.122357 0.984768
vn 0.181742 0.085210 0.979647
vn 0.281627 0.064073 0.957382
vn -0.001442 -0.002012 0.999997
vn 0.117738 0.159170 0.980205
vn -0.032601 0.294099 0.955219
vn -0.197047 0.082035 0.976956
vn -0.142798 0.144839 0.979097
vn -0.267514 0.014690 0.963442
vn 0.031396 0.287252 0.957340
vn -0.288480 -0.031788 0.956958
vn -0.041036 -0.232319 0.971774
vn 0.214784 0.026822 0.976293
vn 0.247587 -0.005552 0.968850
vn -0.030553 0.262045 0.964572
vn 0.055438 0.238113 0.969654
vn -0.255063 -0.064427 0.964776
vn -0.243776 0.032264 0.969295
vn -0.052938 0.118934 0.991490
vn -0.001294 -0.000480 0.999999
vn 0.222381 0.146108 0.963950
vn 0.361363 -0.034218 0.931797
vn -0.057414 0.063696 0.996316
vn -0.092859 0.175089 0.980164
vn -0.230321 -0.009627 0.973067
vn 0.004167 0.363795 0.931470
vn 0.000186 -0.000859 1.000000
vn -0.167482 -0.092564 0.981520
vn -0.302000 0.020604 0.953085
vn 0.000900 -0.000022 1.000000
vn 0.099490 -0.183137 0.978040
vn -0.013553 -0.290474 0.956787
vn 0.000519 0.000941 0.999999
vn -0.262133 0.008286 0.964996
vn -0.144447 0.024466 0.989210
vn -0.130916 -0.011651 0.991325
vn -0.001735 0.211137 0.977455
vn 0.054735 0.116420 0.991691
vn -0.022501 0.140588 0.989812
vn -0.016910 0.236755 0.971422
vn 0.226100 -0.021792 0.973860
vn 0.135474 -0.029841 0.990331
vn 0.150632 0.071972 0.985967
vn 0.238592 0.007232 0.971093
vn -0.006988 -0.227250 0.973811
vn -0.010277 -0.128183 0.991697
vn 0.031149 -0.138035 0.989937
vn -0.014328 -0.245498 0.969291
vn 0.053381 -0.247051 0.967531
vn -0.000447 -0.000225 1.000000
vn -0.090591 0.080416 0.992636
vn -0.247942 -0.028194 0.968365
vn -0.280791 -0.075771 0.956773
vn -0.215773 -0.068711 0.974023
vn -0.281180 -0.010184 0.959601
vn 0.002849 0.235239 0.971933
vn 0.037619 0.250955 0.967268
vn 0.023673 0.269474 0.962717
vn -0.237587 0.005252 0.971352
vn -0.248768 0.016996 0.968414
vn -0.255056 0.015514 0.966802
vn -0.032539 0.217488 0.975520
vn -0.147806 0.142455 0.978703
vn -0.080569 0.081587 0.993404
vn 0.000541 -0.000520 1.000000
vn 0.284350 -0.147432 0.947317
vn -0.146831 0.320008 0.935968
vn -0.025028 0.233988 0.971917
vn -0.019319 0.264334 0.964238
vn 0.213314 0.058810 0.975212
vn 0.133946 0.182734 0.973995
vn 0.066123 0.074779 0.995005
vn 0.147865 0.146105 0.978156
vn 0.000001 -0.000173 1.000000
vn -0.094228 0.083033 0.992082
vn 0.356828 0.239797 0.902868
vn 0.229920 0.032114 0.972680
vn 0.297489 0.038005 0.953968
vn -0.072244 -0.147850 0.986368
vn 0.084543 -0.083886 0.992882
vn 0.000603 0.000659 1.000000
vn -0.026299 -0.179937 0.983327
vn -0.069005 -0.069694 0.995179
vn -0.128184 -0.154748 0.979603
vn -0.021727 -0.216266 0.976093
vn -0.053923 -0.241953 0.968788
vn -0.003691 -0.241115 0.970489
vn 0.048045 -0.200239 0.978568
vn 0.073736 -0.073052 0.994599
vn -0.057428 -0.060176 0.996534
vn 0.000000 -0.000000 1.000000
vn -0.096344 -0.089073 0.991355
vn 0.046811 -0.389404 0.919877
vn 0.051629 -0.252568 0.966201
vn -0.006106 -0.250512 0.968094
vn 0.226233 0.009861 0.974023
vn 0.258163 0.006024 0.966082
vn 0.275084 -0.057012 0.959728
vn -0.004341 0.241050 0.970503
vn -0.277966 0.013472 0.960496
vn 0.149984 -0.159843 0.975682
vn 0.285384 -0.070730 0.955800
vn 0.005114 -0.248954 0.968502
vn -0.004180 0.003237 0.999986
vn 0.210742 -0.041788 0.976648
vn -0.046846 -0.292316 0.955174
vn -0.182189 -0.031156 0.982770
vn 0.000232 -0.001298 0.999999
vn 0.247149 -0.014057 0.968876
vn 0.019667 -0.021753 0.999570
vn -0.215122 0.037138 0.975881
vn 0.045622 0.185177 0.981646
vn -0.293036 0.070614 0.953490
vn 0.098275 -0.079593 0.991971
vn 0.028418 -0.016791 0.999455
vn 0.031978 -0.284407 0.958170
vn -0.161749 -0.057001 0.985184
vn 0.309678 0.120769 0.943141
vn -0.088701 0.198466 0.976086
vn 0.049214 0.046345 0.997712
vn 0.104205 0.318700 0.942110
vn -0.108209 -0.101770 0.988905
vn -0.079450 0.054366 0.995355
vn 0.151213 -0.098741 0.983557
vn 0.092467 0.226691 0.969567
vn -0.000906 -0.001830 0.999998
vn -0.149349 0.054367 0.987289
vn 0.072053 0.192363 0.978675
vn -0.056526 -0.063781 0.996362
vn 0.036175 0.047599 0.998211
vn 0.068010 -0.099798 0.992681
vn -0.072433 -0.130332 0.988821
vn -0.058445 -0.087345 0.994462
vn 0.073201 0.102148 0.992072
f 1/1/1 113/113/113 66/66/66
f 31/31/31 137/137/137 113/113/113
f 132/132/132 127/127/127 26/26/26
f 112/112/112 31/31/31 113/113/113
f 83/83/83 147/147/147 59/59/59
f 106/106/106 33/33/33 51/51/51
f 46/46/46 86/86/86 87/87/87
f 84/84/84 41/41/41 47/47/47
f 137/137/137 66/66/66 113/113/113
f 75/75/75 115/115/115 15/15/15
f 12/12/12 152/152/152 84/84/84
f 153/153/153 81/81/81 60/60/60
f 25/25/25 120/120/120 152/152/152
f 76/76/76 113/113/113 1/1/1
f 76/76/76 112/112/112 113/113/113
f 15/15/15 112/112/112 76/76/76
f 115/115/115 112/112/112 15/15/15
f 30/30/30 115/115/115 117/117/117
f 107/107/107 51/51/51 33/33/33
f 75/75/75 117/117/117 115/115/115
f 115/115/115 30/30/30 42/42/42
f 145/145/145 140/140/140 154/154/154
f 51/51/51 150/150/150 103/103/103
f 136/136/136 22/22/22 30/30/30
f 107/107/107 43/43/43 11/11/11
f 54/54/54 98/98/98 49/49/49
f 42/42/42 112/112/112 115/115/115
f 58/58/58 84/84/84 152/152/152
f 110/110/110 163/163/163 146/146/146
f 60/60/60 120/120/120 111/111/111
f 148/148/148 106/106/106 103/103/103
f 159/159/159 63/63/63 111/111/111
f 147/147/147 83/83/83 122/122/122
f 104/104/104 80/80/80 34/34/34
f 10/10/10 49/49/49 98/98/98
f 160/160/160 164/164/164 156/156/156
f 49/49/49 53/53/53 54/54/54
f 117/117/117 62/62/62 30/30/30
f 43/43/43 139/139/139 100/100/100
f 143/143/143 59/59/59 147/147/147
f 77/77/77 2/2/2 119/119/119
f 77/77/77 119/119/119 118/118/118
f 116/116/116 12/12/12 42/42/42
f 58/58/58 152/152/152 120/120/120
f 63/63/63 28/28/28 121/121/121
f 119/119/119 29/29/29 118/118/118
f 40/40/40 87/87/87 86/86/86
f 125/125/125 27/27/27 62/62/62
f 135/135/135 72/72/72 17/17/17
f 136/136/136 30/30/30 62/62/62
f 95/95/95 53/53/53 153/153/153
f 60/60/60 122/122/122 120/120/120
f 153/153/153 53/53/53 157/157/157
f 11/11/11 32/32/32 107/107/107
f 105/105/105 53/53/53 57/57/57
f 150/150/150 160/160/160 34/34/34
f 32/32/32 158/158/158 150/150/150
f 60/60/60 95/95/95 153/153/153
f 40/40/40 151/151/151 23/23/23
f 24/24/24 138/138/138 164/164/164
f 82/82/82 47/47/47 41/41/41
f 45/45/45 98/98/98 36/36/36
f 82/82/82 137/137/137 47/47/47
f 63/63/63 163/163/163 110/110/110
f 114/114/114 42/42/42 12/12/12
f 62/62/62 117/117/117 125/125/125
f 20/20/20 137/137/137 82/82/82
f 38/38/38 92/92/92 94/94/94
f 20/20/20 66/66/66 137/137/137
f 55/55/55 20/20/20 82/82/82
f 69/69/69 94/94/94 92/92/92
f 43/43/43 100/100/100 101/101/101
f 8/8/8 108/108/108 128/128/128
f 141/141/141 48/48/48 38/38/38
f 50/50/50 80/80/80 134/134/134
f 65/65/65 141/141/141 94/94/94
f 126/126/126 71/71/71 26/26/26
f 38/38/38 94/94/94 141/141/141
f 92/92/92 18/18/18 69/69/69
f 24/24/24 149/149/149 97/97/97
f 159/159/159 25/25/25 162/162/162
f 46/46/46 35/35/35 142/142/142
f 29/29/29 119/119/119 135/135/135
f 23/23/23 151/151/151 164/164/164
f 158/158/158 23/23/23 160/160/160
f 35/35/35 46/46/46 101/101/101
f 129/129/129 45/45/45 36/36/36
f 27/27/27 124/124/124 123/123/123
f 85/85/85 41/41/41 59/59/59
f 78/78/78 125/125/125 9/9/9
f 70/70/70 129/129/129 99/99/99
f 83/83/83 59/59/59 41/41/41
f 129/129/129 70/70/70 18/18/18
f 36/36/36 99/99/99 129/129/129
f 93/93/93 38/38/38 48/48/48
f 38/38/38 45/45/45 92/92/92
f 52/52/52 128/128/128 108/108/108
f 65/65/65 94/94/94 3/3/3
f 72/72/72 135/135/135 119/119/119
f 94/94/94 69/69/69 3/3/3
f 39/39/39 90/90/90 48/48/48
f 21/21/21 141/141/141 65/65/65
f 18/18/18 92/92/92 129/129/129
f 6/6/6 91/91/91 64/64/64
f 147/147/147 81/81/81 37/37/37
f 93/93/93 45/45/45 38/38/38
f 89/89/89 39/39/39 48/48/48
f 13/13/13 124/124/124 131/131/131
f 45/45/45 129/129/129 92/92/92
f 9/9/9 125/125/125 117/117/117
f 64/64/64 89/89/89 21/21/21
f 55/55/55 82/82/82 85/85/85
f 6/6/6 85/85/85 91/91/91
f 59/59/59 91/91/91 85/85/85
f 41/41/41 85/85/85 82/82/82
f 6/6/6 55/55/55 85/85/85
f 110/110/110 146/146/146 61/61/61
f 59/59/59 39/39/39 91/91/91
f 149/149/149 151/151/151 56/56/56
f 143/143/143 39/39/39 59/59/59
f 118/118/118 29/29/29 79/79/79
f 22/22/22 163/163/163 162/162/162
f 145/145/145 144/144/144 134/134/134
f 33/33/33 106/106/106 108/108/108
f 119/119/119 2/2/2 72/72/72
f 49/49/49 157/157/157 53/53/53
f 11/11/11 158/158/158 32/32/32
f 152/152/152 162/162/162 25/25/25
f 10/10/10 98/98/98 93/93/93
f 21/21/21 89/89/89 141/141/141
f 97/97/97 54/54/54 24/24/24
f 51/51/51 32/32/32 150/150/150
f 79/79/79 133/133/133 118/118/118
f 118/118/118 133/133/133 14/14/14
f 79/79/79 131/131/131 124/124/124
f 123/123/123 61/61/61 146/146/146
f 149/149/149 164/164/164 151/151/151
f 48/48/48 141/141/141 89/89/89
f 78/78/78 133/133/133 125/125/125
f 62/62/62 27/27/27 123/123/123
f 147/147/147 37/37/37 143/143/143
f 148/148/148 96/96/96 52/52/52
f 81/81/81 153/153/153 37/37/37
f 156/156/156 34/34/34 160/160/160
f 5/5/5 95/95/95 111/111/111
f 10/10/10 93/93/93 90/90/90
f 130/130/130 143/143/143 37/37/37
f 157/157/157 37/37/37 153/153/153
f 27/27/27 125/125/125 133/133/133
f 121/121/121 5/5/5 111/111/111
f 160/160/160 150/150/150 158/158/158
f 122/122/122 58/58/58 120/120/120
f 17/17/17 126/126/126 135/135/135
f 52/52/52 108/108/108 106/106/106
f 51/51/51 103/103/103 106/106/106
f 60/60/60 111/111/111 95/95/95
f 28/28/28 134/134/134 80/80/80
f 104/104/104 95/95/95 5/5/5
f 28/28/28 140/140/140 134/134/134
f 26/26/26 128/128/128 96/96/96
f 57/57/57 95/95/95 104/104/104
f 144/144/144 145/145/145 132/132/132
f 131/131/131 44/44/44 13/13/13
f 127/127/127 13/13/13 44/44/44
f 45/45/45 93/93/93 98/98/98
f 110/110/110 28/28/28 63/63/63
f 138/138/138 24/24/24 105/105/105
f 9/9/9 117/117/117 75/75/75
f 48/48/48 90/90/90 93/93/93
f 54/54/54 97/97/97 98/98/98
f 130/130/130 90/90/90 39/39/39
f 95/95/95 57/57/57 53/53/53
f 99/99/99 36/36/36 56/56/56
f 80/80/80 104/104/104 5/5/5
f 96/96/96 144/144/144 132/132/132
f 126/126/126 17/17/17 71/71/71
f 109/109/109 12/12/12 116/116/116
f 25/25/25 159/159/159 111/111/111
f 52/52/52 96/96/96 128/128/128
f 103/103/103 150/150/150 34/34/34
f 36/36/36 98/98/98 97/97/97
f 37/37/37 157/157/157 130/130/130
f 16/16/16 100/100/100 139/139/139
f 58/58/58 122/122/122 83/83/83
f 26/26/26 96/96/96 132/132/132
f 159/159/159 163/163/163 63/63/63
f 120/120/120 25/25/25 111/111/111
f 12/12/12 109/109/109 152/152/152
f 14/14/14 133/133/133 78/78/78
f 156/156/156 164/164/164 138/138/138
f 13/13/13 154/154/154 124/124/124
f 44/44/44 135/135/135 126/126/126
f 149/149/149 24/24/24 164/164/164
f 34/34/34 156/156/156 104/104/104
f 57/57/57 104/104/104 156/156/156
f 121/121/121 80/80/80 5/5/5
f 63/63/63 121/121/121 111/111/111
f 121/121/121 28/28/28 80/80/80
f 77/77/77 118/118/118 14/14/14
f 101/101/101 11/11/11 43/43/43
f 147/147/147 122/122/122 81/81/81
f 131/131/131 79/79/79 29/29/29
f 140/140/140 145/145/145 134/134/134
f 49/49/49 10/10/10 157/157/157
f 124/124/124 27/27/27 79/79/79
f 139/139/139 33/33/33 108/108/108
f 134/134/134 144/144/144 50/50/50
f 133/133/133 79/79/79 27/27/27
f 26/26/26 127/127/127 126/126/126
f 40/40/40 88/88/88 151/151/151
f 11/11/11 155/155/155 158/158/158
f 103/103/103 34/34/34 50/50/50
f 140/140/140 28/28/28 110/110/110
f 61/61/61 124/124/124 154/154/154
f 127/127/127 132/132/132 154/154/154
f 97/97/97 56/56/56 36/36/36
f 86/86/86 46/46/46 142/142/142
f 128/128/128 26/26/26 71/71/71
f 29/29/29 135/135/135 131/131/131
f 74/74/74 139/139/139 108/108/108
f 43/43/43 107/107/107 139/139/139
f 137/137/137 31/31/31 47/47/47
f 114/114/114 47/47/47 31/31/31
f 88/88/88 40/40/40 86/86/86
f 33/33/33 139/139/139 107/107/107
f 102/102/102 35/35/35 100/100/100
f 68/68/68 142/142/142 102/102/102
f 88/88/88 99/99/99 56/56/56
f 142/142/142 35/35/35 102/102/102
f 53/53/53 105/105/105 54/54/54
f 122/122/122 60/60/60 81/81/81
f 19/19/19 86/86/86 142/142/142
f 56/56/56 151/151/151 88/88/88
f 44/44/44 126/126/126 127/127/127
f 105/105/105 24/24/24 54/54/54
f 42/42/42 114/114/114 112/112/112
f 44/44/44 131/131/131 135/135/135
f 83/83/83 41/41/41 58/58/58
f 87/87/87 155/155/155 46/46/46
f 35/35/35 101/101/101 100/100/100
f 80/80/80 50/50/50 34/34/34
f 64/64/64 91/91/91 89/89/89
f 87/87/87 40/40/40 23/23/23
f 67/67/67 88/88/88 86/86/86
f 7/7/7 99/99/99 88/88/88
f 7/7/7 70/70/70 99/99/99
f 67/67/67 7/7/7 88/88/88
f 19/19/19 67/67/67 86/86/86
f 68/68/68 19/19/19 142/142/142
f 73/73/73 102/102/102 100/100/100
f 4/4/4 68/68/68 102/102/102
f 73/73/73 4/4/4 102/102/102
f 16/16/16 73/73/73 100/100/100
f 74/74/74 16/16/16 139/139/139
f 8/8/8 74/74/74 108/108/108
f 39/39/39 89/89/89 91/91/91
f 116/116/116 22/22/22 109/109/109
f 116/116/116 42/42/42 30/30/30
f 57/57/57 138/138/138 105/105/105
f 61/61/61 123/123/123 124/124/124
f 106/106/106 148/148/148 52/52/52
f 23/23/23 158/158/158 87/87/87
f 128/128/128 71/71/71 8/8/8
f 90/90/90 130/130/130 157/157/157
f 32/32/32 51/51/51 107/107/107
f 138/138/138 57/57/57 156/156/156
f 84/84/84 58/58/58 41/41/41
f 31/31/31 112/112/112 114/114/114
f 163/163/163 22/22/22 136/136/136
f 155/155/155 101/101/101 46/46/46
f 154/154/154 132/132/132 145/145/145
f 84/84/84 114/114/114 12/12/12
f 101/101/101 155/155/155 11/11/11
f 114/114/114 84/84/84 47/47/47
f 97/97/97 149/149/149 56/56/56
f 154/154/154 13/13/13 127/127/127
f 90/90/90 157/157/157 10/10/10
f 143/143/143 130/130/130 39/39/39
f 140/140/140 161/161/161 154/154/154
f 164/164/164 160/160/160 23/23/23
f 116/116/116 30/30/30 22/22/22
f 87/87/87 158/158/158 155/155/155
f 161/161/161 61/61/61 154/154/154
f 159/159/159 162/162/162 163/163/163
f 61/61/61 161/161/161 110/110/110
f 161/161/161 140/140/140 110/110/110
f 109/109/109 162/162/162 152/152/152
f 162/162/162 109/109/109 22/22/22
f 144/144/144 96/96/96 148/148/148
f 146/146/146 163/163/163 136/136/136
f 50/50/50 148/148/148 103/103/103
f 148/148/148 50/50/50 144/144/144
f 146/146/146 136/136/136 123/123/123
f 62/62/62 123/123/123 136/136/136
