# frame 000310 
# time 0.155500 
# name Cloth3D 
v -0.000000 0.000000 -0.000000
v 1.000000 0.000000 -0.000000
v -0.000000 1.000000 0.000000
v 1.000000 1.000000 0.000000
v 0.499617 0.499868 0.072534
v -0.000000 0.500000 0.000000
v 0.500000 1.000000 0.000000
v 1.000000 0.500000 0.000000
v 0.500000 -0.000000 0.000000
v 0.247539 0.751974 0.048677
v 0.753385 0.753412 0.062177
v 0.247919 0.247999 0.044955
v 0.752676 0.246894 0.056860
v 0.750000 0.000000 0.000000
v 0.250000 0.000000 0.000000
v 1.000000 0.750000 0.000000
v 1.000000 0.250000 0.000000
v 0.250000 1.000000 0.000000
v 0.750000 1.000000 0.000000
v 0.000000 0.250000 0.000000
v 0.000000 0.750000 -0.000000
v 0.363904 0.216894 0.053414
v 0.630386 0.774106 0.060726
v 0.491251 0.761773 0.072718
v 0.374671 0.373136 0.072686
v 0.876240 0.374491 0.031214
v 0.625283 0.123210 0.032750
v 0.626655 0.372777 0.072534
v 0.876283 0.123683 0.021918
v 0.374225 0.122147 0.033890
v 0.124298 0.124316 0.016542
v 0.753682 0.689887 0.065441
v 0.875973 0.625537 0.031917
v 0.626842 0.626779 0.072534
v 0.876077 0.876079 0.020804
v 0.374437 0.877238 0.034528
v 0.258248 0.600587 0.063616
v 0.123745 0.876150 0.020818
v 0.121817 0.625504 0.035690
v 0.625271 0.875152 0.028293
v 0.122955 0.374680 0.031260
v 0.249383 0.123849 0.023248
v 0.878229 0.751457 0.037501
v 0.876740 0.248874 0.030269
v 0.248825 0.876978 0.030484
v 0.751163 0.877468 0.034173
v 0.123648 0.249491 0.024068
v 0.123030 0.750961 0.029366
v 0.302058 0.716202 0.059595
v 0.694468 0.507720 0.072607
v 0.753535 0.626334 0.065319
v 0.876779 0.499928 0.035759
v 0.372497 0.644876 0.072686
v 0.373112 0.753698 0.065086
v 0.000000 0.375000 0.000000
v 0.500039 0.877373 0.036990
v 0.499697 0.627122 0.072535
v 0.246902 0.373928 0.056362
v 0.121835 0.499998 0.037254
v 0.372348 0.499893 0.072535
v 0.626009 0.246176 0.063721
v 0.499694 0.122918 0.034640
v 0.499543 0.372634 0.072535
v 0.000000 0.625000 0.000000
v 0.000000 0.875000 0.000000
v 0.000000 0.125000 0.000000
v 0.625000 1.000000 0.000000
v 0.875000 1.000000 0.000000
v 0.125000 1.000000 0.000000
v 0.375000 1.000000 0.000000
v 1.000000 0.375000 0.000000
v 1.000000 0.125000 0.000000
v 1.000000 0.875000 0.000000
v 1.000000 0.625000 0.000000
v 0.375000 0.000000 0.000000
v 0.125000 0.000000 0.000000
v 0.875000 0.000000 0.000000
v 0.625000 0.000000 0.000000
v 0.751046 0.122667 0.031702
v 0.627075 0.499786 0.072535
v 0.341484 0.563152 0.072612
v 0.061519 0.312373 0.014534
v 0.183080 0.436855 0.054056
v 0.185200 0.311483 0.040718
v 0.061196 0.437463 0.017314
v 0.687759 0.937719 0.014327
v 0.689042 0.814843 0.047951
v 0.562584 0.937934 0.015817
v 0.062196 0.687745 0.012704
v 0.184001 0.688726 0.047791
v 0.062042 0.562532 0.014625
v 0.187019 0.938358 0.013446
v 0.185078 0.814686 0.038777
v 0.062130 0.937853 0.006989
v 0.436022 0.563449 0.072535
v 0.837456 0.423116 0.045653
v 0.437071 0.816000 0.053758
v 0.310904 0.815360 0.047279
v 0.437432 0.937578 0.014407
v 0.938554 0.812930 0.015027
v 0.815346 0.815375 0.044026
v 0.937789 0.937789 0.006678
v 0.714203 0.597187 0.072679
v 0.563273 0.563379 0.072535
v 0.418755 0.690367 0.072679
v 0.816266 0.562555 0.056086
v 0.815451 0.689214 0.050474
v 0.937504 0.562586 0.014706
v 0.309421 0.259156 0.050985
v 0.578530 0.287592 0.072679
v 0.436005 0.436332 0.072535
v 0.187191 0.061712 0.012111
v 0.062312 0.062319 0.005270
v 0.186734 0.186862 0.024237
v 0.312353 0.062484 0.010113
v 0.311128 0.184867 0.042454
v 0.437373 0.062337 0.013536
v 0.812892 0.061945 0.012075
v 0.937893 0.062106 0.007324
v 0.327825 0.420752 0.072679
v 0.563189 0.436283 0.072535
v 0.274925 0.474498 0.072679
v 0.562538 0.183143 0.055593
v 0.688846 0.184071 0.049592
v 0.562457 0.062406 0.013896
v 0.937830 0.312220 0.013907
v 0.815180 0.310925 0.047817
v 0.937752 0.437438 0.015019
v 0.312160 0.938575 0.016535
v 0.183926 0.625587 0.048422
v 0.814720 0.185039 0.039779
v 0.803025 0.371489 0.049544
v 0.687707 0.061990 0.014397
v 0.690631 0.436416 0.072535
v 0.938399 0.187026 0.013971
v 0.436492 0.182738 0.055723
v 0.061923 0.187261 0.010731
v 0.780127 0.530204 0.072679
v 0.938463 0.687966 0.017260
v 0.666572 0.374244 0.072679
v 0.061397 0.812953 0.014246
v 0.812875 0.938324 0.013813
v 0.182470 0.562969 0.056928
v 0.755420 0.461408 0.072689
v 0.711212 0.418053 0.072686
v 0.517766 0.227248 0.072692
v 0.237277 0.512203 0.072692
v 0.802725 0.507797 0.072692
v 0.522203 0.792723 0.072692
v 0.663541 0.648662 0.072679
v 0.580630 0.833637 0.047907
v 0.294498 0.330438 0.058049
v 0.328571 0.601750 0.072689
v 0.715719 0.298033 0.062172
v 0.752246 0.815392 0.047804
v 0.582188 0.675174 0.072607
v 0.278604 0.658394 0.060406
v 0.691190 0.761239 0.063824
v 0.419267 0.327710 0.072689
v 0.619251 0.693775 0.072686
v 0.648046 0.307819 0.069629
v 0.362356 0.291633 0.061310
v 0.464107 0.281981 0.072691
v 0.575077 0.738810 0.072689
v 0.496767 0.692821 0.072626
v 0.283557 0.557597 0.072691
vt 0.000000 0.000000
vt 1.000000 0.000000
vt 0.000000 1.000000
vt 1.000000 1.000000
vt 0.500000 0.500000
vt 0.000000 0.500000
vt 0.500000 1.000000
vt 1.000000 0.500000
vt 0.500000 0.000000
vt 0.250000 0.750000
vt 0.750000 0.750000
vt 0.250000 0.250000
vt 0.750000 0.250000
vt 0.750000 0.000000
vt 0.250000 0.000000
vt 1.000000 0.750000
vt 1.000000 0.250000
vt 0.250000 1.000000
vt 0.750000 1.000000
vt 0.000000 0.250000
vt 0.000000 0.750000
vt 0.365347 0.220303
vt 0.629073 0.770824
vt 0.491333 0.756490
vt 0.376996 0.375227
vt 0.875000 0.375000
vt 0.625000 0.125000
vt 0.625000 0.375000
vt 0.875000 0.125000
vt 0.375000 0.125000
vt 0.125000 0.125000
vt 0.750000 0.687500
vt 0.875000 0.625000
vt 0.625000 0.625000
vt 0.875000 0.875000
vt 0.375000 0.875000
vt 0.262101 0.599801
vt 0.125000 0.875000
vt 0.125000 0.625000
vt 0.625000 0.875000
vt 0.125000 0.375000
vt 0.250000 0.125000
vt 0.875000 0.750000
vt 0.875000 0.250000
vt 0.250000 0.875000
vt 0.750000 0.875000
vt 0.125000 0.250000
vt 0.125000 0.750000
vt 0.304602 0.713891
vt 0.690882 0.507820
vt 0.750000 0.625000
vt 0.875000 0.500000
vt 0.374780 0.642724
vt 0.375000 0.750000
vt 0.000000 0.375000
vt 0.500000 0.875000
vt 0.500000 0.625000
vt 0.250000 0.375000
vt 0.125000 0.500000
vt 0.375000 0.500000
vt 0.625000 0.250000
vt 0.500000 0.125000
vt 0.500000 0.375000
vt 0.000000 0.625000
vt 0.000000 0.875000
vt 0.000000 0.125000
vt 0.625000 1.000000
vt 0.875000 1.000000
vt 0.125000 1.000000
vt 0.375000 1.000000
vt 1.000000 0.375000
vt 1.000000 0.125000
vt 1.000000 0.875000
vt 1.000000 0.625000
vt 0.375000 0.000000
vt 0.125000 0.000000
vt 0.875000 0.000000
vt 0.625000 0.000000
vt 0.750000 0.125000
vt 0.625000 0.500000
vt 0.344661 0.562348
vt 0.062500 0.312500
vt 0.187500 0.437500
vt 0.187500 0.312500
vt 0.062500 0.437500
vt 0.687500 0.937500
vt 0.687500 0.812500
vt 0.562500 0.937500
vt 0.062500 0.687500
vt 0.187500 0.687500
vt 0.062500 0.562500
vt 0.187500 0.937500
vt 0.187500 0.812500
vt 0.062500 0.937500
vt 0.437500 0.562500
vt 0.834853 0.423541
vt 0.437500 0.812500
vt 0.312500 0.812500
vt 0.437500 0.937500
vt 0.937500 0.812500
vt 0.812500 0.812500
vt 0.937500 0.937500
vt 0.710590 0.596065
vt 0.562500 0.562500
vt 0.420197 0.687181
vt 0.812500 0.562500
vt 0.812500 0.687500
vt 0.937500 0.562500
vt 0.311128 0.261404
vt 0.577964 0.291503
vt 0.437500 0.437500
vt 0.187500 0.062500
vt 0.062500 0.062500
vt 0.187500 0.187500
vt 0.312500 0.062500
vt 0.312500 0.187500
vt 0.437500 0.062500
vt 0.812500 0.062500
vt 0.937500 0.062500
vt 0.331085 0.422002
vt 0.562500 0.437500
vt 0.279514 0.474988
vt 0.562500 0.187500
vt 0.687500 0.187500
vt 0.562500 0.062500
vt 0.937500 0.312500
vt 0.812500 0.312500
vt 0.937500 0.437500
vt 0.312500 0.937500
vt 0.187500 0.625000
vt 0.812500 0.187500
vt 0.800716 0.372483
vt 0.687500 0.062500
vt 0.687500 0.437500
vt 0.937500 0.187500
vt 0.437500 0.187500
vt 0.062500 0.187500
vt 0.774061 0.530044
vt 0.937500 0.687500
vt 0.664224 0.376318
vt 0.062500 0.812500
vt 0.812500 0.937500
vt 0.187500 0.562500
vt 0.750467 0.462194
vt 0.707814 0.419398
vt 0.517943 0.233069
vt 0.243018 0.512246
vt 0.795306 0.507978
vt 0.521717 0.786106
vt 0.661107 0.646619
vt 0.580205 0.830830
vt 0.296906 0.332149
vt 0.331797 0.600404
vt 0.713437 0.300753
vt 0.750000 0.812500
vt 0.581168 0.672349
vt 0.281585 0.657008
vt 0.688844 0.757642
vt 0.420856 0.330786
vt 0.617662 0.690848
vt 0.646352 0.310977
vt 0.364019 0.294291
vt 0.465063 0.286234
vt 0.574177 0.734592
vt 0.497032 0.689303
vt 0.287881 0.556885
vn -0.041332 -0.041332 0.998290
vn 0.058768 -0.058768 0.996540
vn -0.055684 0.055684 0.996894
vn 0.054899 0.054899 0.996982
vn 0.000000 0.000000 1.000000
vn -0.251568 0.011681 0.967769
vn -0.005810 0.237937 0.971263
vn 0.230409 0.001115 0.973093
vn -0.001854 -0.217438 0.976072
vn -0.102357 0.095072 0.990194
vn 0.093410 0.126547 0.987553
vn -0.127453 -0.125176 0.983914
vn 0.117751 -0.084291 0.989459
vn 0.008691 -0.208236 0.978040
vn 0.008470 -0.176231 0.984312
vn 0.272926 0.009157 0.961991
vn 0.220620 0.000815 0.975360
vn -0.012438 0.238130 0.971154
vn 0.001768 0.221322 0.975199
vn -0.200939 -0.015225 0.979485
vn -0.212850 -0.006840 0.977061
vn -0.118046 -0.145493 0.982292
vn 0.040871 0.223572 0.973830
vn -0.062840 0.078680 0.994917
vn -0.064497 -0.063735 0.995881
vn 0.266381 -0.031199 0.963363
vn 0.017453 -0.301425 0.953330
vn -0.002307 0.002519 0.999994
vn 0.124759 -0.133440 0.983173
vn -0.060301 -0.280417 0.957982
vn -0.087219 -0.080255 0.992951
vn 0.160566 0.030761 0.986546
vn 0.292381 0.005442 0.956287
vn -0.001443 -0.001796 0.999997
vn 0.138667 0.153330 0.978397
vn -0.021418 0.273919 0.961514
vn -0.139089 0.123027 0.982608
vn -0.120963 0.123380 0.984960
vn -0.271627 0.045528 0.961325
vn 0.051485 0.279447 0.958780
vn -0.245244 -0.059419 0.967639
vn -0.067727 -0.173725 0.982463
vn 0.245247 0.033777 0.968872
vn 0.232603 -0.035242 0.971933
vn -0.051019 0.218811 0.974432
vn 0.023724 0.250583 0.967804
vn -0.154321 -0.070065 0.985533
vn -0.233837 0.045170 0.971226
vn -0.133045 0.089913 0.987023
vn -0.001149 -0.000600 0.999999
vn 0.144338 0.060414 0.987683
vn 0.363487 -0.000068 0.931599
vn -0.053953 0.045024 0.997528
vn -0.092624 0.138080 0.986080
vn -0.252325 -0.011301 0.967577
vn -0.004841 0.338309 0.941023
vn 0.000199 -0.000875 1.000000
vn -0.138563 -0.112214 0.983976
vn -0.308785 -0.010242 0.951077
vn 0.000949 0.000078 1.000000
vn 0.064959 -0.139959 0.988024
vn 0.002513 -0.330613 0.943763
vn 0.000460 0.000901 0.999999
vn -0.214431 0.007602 0.976710
vn -0.169334 0.029294 0.985123
vn -0.127059 -0.022337 0.991644
vn 0.006334 0.236956 0.971500
vn 0.027558 0.164282 0.986028
vn -0.026134 0.163048 0.986272
vn 0.009134 0.244271 0.969664
vn 0.225833 -0.003496 0.974160
vn 0.170346 -0.026739 0.985021
vn 0.172709 0.031814 0.984459
vn 0.249280 -0.010985 0.968369
vn -0.013894 -0.186927 0.982275
vn -0.027931 -0.138174 0.990014
vn 0.018781 -0.154557 0.987805
vn -0.001033 -0.223008 0.974816
vn 0.044925 -0.247949 0.967731
vn -0.000481 -0.000305 1.000000
vn 0.001340 -0.001130 0.999998
vn -0.217450 -0.027660 0.975680
vn -0.228813 -0.081719 0.970034
vn -0.174847 -0.097192 0.979787
vn -0.268871 -0.012196 0.963099
vn -0.008139 0.244978 0.969494
vn -0.003827 0.269506 0.962991
vn 0.019159 0.267179 0.963456
vn -0.257147 0.013581 0.966277
vn -0.163973 0.046407 0.985373
vn -0.287602 0.012295 0.957671
vn -0.038561 0.202705 0.978480
vn -0.127634 0.122026 0.984286
vn -0.082463 0.084048 0.993044
vn 0.000475 -0.000528 1.000000
vn 0.284655 -0.090841 0.954316
vn -0.074806 0.267185 0.960737
vn -0.075842 0.182892 0.980203
vn -0.002580 0.279863 0.960036
vn 0.232060 0.064510 0.970560
vn 0.128766 0.184901 0.974285
vn 0.083112 0.085276 0.992885
vn 0.064532 0.063378 0.995901
vn 0.000000 -0.000174 1.000000
vn -0.033774 0.034301 0.998841
vn 0.314976 0.130815 0.940041
vn 0.236668 0.013252 0.971500
vn 0.264794 0.001498 0.964304
vn -0.107133 -0.115213 0.987547
vn 0.055363 -0.087487 0.994626
vn 0.000639 0.000657 1.000000
vn -0.023305 -0.157459 0.987251
vn -0.067449 -0.064622 0.995628
vn -0.105585 -0.106072 0.988737
vn -0.024058 -0.226009 0.973828
vn -0.106938 -0.164729 0.980525
vn -0.009002 -0.269867 0.962856
vn 0.032982 -0.212589 0.976585
vn 0.082744 -0.086782 0.992785
vn -0.063936 -0.059910 0.996154
vn 0.000000 -0.000000 1.000000
vn -0.064736 -0.061683 0.995994
vn 0.057156 -0.273536 0.960162
vn 0.048003 -0.218563 0.974641
vn 0.002682 -0.264160 0.964475
vn 0.242514 -0.003759 0.970141
vn 0.202045 -0.013697 0.979280
vn 0.265336 -0.010032 0.964104
vn -0.009928 0.255738 0.966695
vn -0.173917 0.080842 0.981436
vn 0.144933 -0.130122 0.980848
vn 0.220419 -0.051972 0.974020
vn 0.005416 -0.252958 0.967462
vn -0.003068 0.002531 0.999992
vn 0.206319 -0.029133 0.978051
vn -0.072537 -0.240329 0.967978
vn -0.160245 -0.033812 0.986498
vn 0.132333 0.115863 0.984410
vn 0.268880 -0.022550 0.962910
vn 0.029676 -0.028161 0.999163
vn -0.198582 0.028223 0.979678
vn 0.040980 0.218285 0.975024
vn -0.218553 0.081358 0.972428
vn 0.081606 -0.072601 0.994017
vn 0.027844 -0.022714 0.999354
vn 0.023311 -0.174771 0.984333
vn -0.118956 -0.001127 0.992899
vn 0.199747 0.064451 0.977725
vn 0.008689 0.182531 0.983162
vn 0.022326 0.018106 0.999587
vn 0.118316 0.308232 0.943925
vn -0.122714 -0.111816 0.986123
vn -0.050122 0.048353 0.997572
vn 0.106000 -0.061371 0.992470
vn 0.036056 0.225298 0.973623
vn -0.000695 -0.001581 0.999999
vn -0.130562 0.087203 0.987598
vn 0.020840 0.197234 0.980135
vn -0.067873 -0.066211 0.995495
vn 0.022873 0.032175 0.999220
vn 0.085064 -0.097962 0.991548
vn -0.121593 -0.115605 0.985825
vn -0.060613 -0.061345 0.996275
vn 0.065579 0.089597 0.993817
vn 0.000335 -0.001342 0.999999
vn -0.070107 0.072073 0.994932
f 1/1/1 113/113/113 66/66/66
f 31/31/31 137/137/137 113/113/113
f 132/132/132 127/127/127 26/26/26
f 112/112/112 31/31/31 113/113/113
f 135/135/135 44/44/44 29/29/29
f 106/106/106 52/52/52 33/33/33
f 154/154/154 61/61/61 13/13/13
f 84/84/84 41/41/41 47/47/47
f 137/137/137 66/66/66 113/113/113
f 75/75/75 115/115/115 15/15/15
f 12/12/12 152/152/152 84/84/84
f 61/61/61 110/110/110 123/123/123
f 25/25/25 120/120/120 152/152/152
f 76/76/76 113/113/113 1/1/1
f 76/76/76 112/112/112 113/113/113
f 15/15/15 112/112/112 76/76/76
f 115/115/115 112/112/112 15/15/15
f 30/30/30 115/115/115 117/117/117
f 108/108/108 33/33/33 52/52/52
f 75/75/75 117/117/117 115/115/115
f 115/115/115 30/30/30 42/42/42
f 145/145/145 140/140/140 154/154/154
f 51/51/51 150/150/150 103/103/103
f 136/136/136 22/22/22 30/30/30
f 107/107/107 43/43/43 11/11/11
f 54/54/54 98/98/98 49/49/49
f 42/42/42 112/112/112 115/115/115
f 58/58/58 84/84/84 152/152/152
f 110/110/110 163/163/163 146/146/146
f 60/60/60 120/120/120 111/111/111
f 136/136/136 62/62/62 146/146/146
f 159/159/159 63/63/63 111/111/111
f 147/147/147 83/83/83 122/122/122
f 104/104/104 80/80/80 34/34/34
f 10/10/10 49/49/49 98/98/98
f 160/160/160 164/164/164 156/156/156
f 49/49/49 53/53/53 54/54/54
f 117/117/117 62/62/62 30/30/30
f 95/95/95 57/57/57 105/105/105
f 131/131/131 29/29/29 44/44/44
f 77/77/77 2/2/2 119/119/119
f 77/77/77 119/119/119 118/118/118
f 71/71/71 128/128/128 126/126/126
f 58/58/58 152/152/152 120/120/120
f 63/63/63 28/28/28 121/121/121
f 119/119/119 29/29/29 118/118/118
f 124/124/124 13/13/13 61/61/61
f 125/125/125 27/27/27 62/62/62
f 135/135/135 72/72/72 17/17/17
f 136/136/136 30/30/30 62/62/62
f 138/138/138 148/148/148 106/106/106
f 60/60/60 122/122/122 120/120/120
f 153/153/153 53/53/53 157/157/157
f 11/11/11 32/32/32 107/107/107
f 12/12/12 114/114/114 116/116/116
f 150/150/150 160/160/160 34/34/34
f 32/32/32 158/158/158 150/150/150
f 110/110/110 146/146/146 123/123/123
f 40/40/40 151/151/151 23/23/23
f 24/24/24 165/165/165 164/164/164
f 82/82/82 47/47/47 41/41/41
f 45/45/45 98/98/98 36/36/36
f 82/82/82 137/137/137 47/47/47
f 63/63/63 163/163/163 110/110/110
f 26/26/26 126/126/126 128/128/128
f 62/62/62 117/117/117 125/125/125
f 20/20/20 137/137/137 82/82/82
f 38/38/38 92/92/92 94/94/94
f 20/20/20 66/66/66 137/137/137
f 55/55/55 20/20/20 82/82/82
f 69/69/69 94/94/94 92/92/92
f 43/43/43 100/100/100 101/101/101
f 8/8/8 108/108/108 128/128/128
f 141/141/141 48/48/48 38/38/38
f 50/50/50 80/80/80 134/134/134
f 65/65/65 141/141/141 94/94/94
f 114/114/114 31/31/31 42/42/42
f 38/38/38 94/94/94 141/141/141
f 92/92/92 18/18/18 69/69/69
f 24/24/24 149/149/149 97/97/97
f 159/159/159 25/25/25 162/162/162
f 46/46/46 35/35/35 142/142/142
f 29/29/29 119/119/119 135/135/135
f 23/23/23 151/151/151 164/164/164
f 158/158/158 23/23/23 160/160/160
f 35/35/35 46/46/46 101/101/101
f 129/129/129 45/45/45 36/36/36
f 27/27/27 124/124/124 123/123/123
f 85/85/85 41/41/41 59/59/59
f 78/78/78 125/125/125 9/9/9
f 70/70/70 129/129/129 99/99/99
f 83/83/83 59/59/59 41/41/41
f 129/129/129 70/70/70 18/18/18
f 36/36/36 99/99/99 129/129/129
f 93/93/93 38/38/38 48/48/48
f 38/38/38 45/45/45 92/92/92
f 52/52/52 128/128/128 108/108/108
f 65/65/65 94/94/94 3/3/3
f 72/72/72 135/135/135 119/119/119
f 94/94/94 69/69/69 3/3/3
f 39/39/39 90/90/90 48/48/48
f 21/21/21 141/141/141 65/65/65
f 18/18/18 92/92/92 129/129/129
f 6/6/6 91/91/91 64/64/64
f 153/153/153 81/81/81 53/53/53
f 93/93/93 45/45/45 38/38/38
f 89/89/89 39/39/39 48/48/48
f 13/13/13 124/124/124 131/131/131
f 45/45/45 129/129/129 92/92/92
f 9/9/9 125/125/125 117/117/117
f 64/64/64 89/89/89 21/21/21
f 55/55/55 82/82/82 85/85/85
f 6/6/6 85/85/85 91/91/91
f 59/59/59 91/91/91 85/85/85
f 41/41/41 85/85/85 82/82/82
f 6/6/6 55/55/55 85/85/85
f 59/59/59 83/83/83 143/143/143
f 59/59/59 39/39/39 91/91/91
f 149/149/149 151/151/151 56/56/56
f 143/143/143 39/39/39 59/59/59
f 118/118/118 29/29/29 79/79/79
f 22/22/22 163/163/163 162/162/162
f 145/145/145 144/144/144 134/134/134
f 58/58/58 83/83/83 84/84/84
f 119/119/119 2/2/2 72/72/72
f 49/49/49 157/157/157 53/53/53
f 11/11/11 158/158/158 32/32/32
f 152/152/152 162/162/162 25/25/25
f 10/10/10 98/98/98 93/93/93
f 21/21/21 89/89/89 141/141/141
f 97/97/97 54/54/54 24/24/24
f 51/51/51 32/32/32 150/150/150
f 79/79/79 133/133/133 118/118/118
f 118/118/118 133/133/133 14/14/14
f 79/79/79 131/131/131 124/124/124
f 147/147/147 143/143/143 83/83/83
f 149/149/149 164/164/164 151/151/151
f 48/48/48 141/141/141 89/89/89
f 78/78/78 133/133/133 125/125/125
f 62/62/62 27/27/27 123/123/123
f 147/147/147 37/37/37 143/143/143
f 148/148/148 96/96/96 52/52/52
f 60/60/60 95/95/95 81/81/81
f 156/156/156 34/34/34 160/160/160
f 5/5/5 95/95/95 111/111/111
f 10/10/10 93/93/93 90/90/90
f 130/130/130 143/143/143 37/37/37
f 157/157/157 37/37/37 153/153/153
f 27/27/27 125/125/125 133/133/133
f 121/121/121 5/5/5 111/111/111
f 160/160/160 150/150/150 158/158/158
f 122/122/122 58/58/58 120/120/120
f 17/17/17 126/126/126 135/135/135
f 41/41/41 84/84/84 83/83/83
f 123/123/123 146/146/146 62/62/62
f 60/60/60 111/111/111 95/95/95
f 28/28/28 134/134/134 80/80/80
f 104/104/104 95/95/95 5/5/5
f 28/28/28 140/140/140 134/134/134
f 26/26/26 128/128/128 96/96/96
f 57/57/57 95/95/95 104/104/104
f 144/144/144 145/145/145 132/132/132
f 131/131/131 44/44/44 13/13/13
f 127/127/127 13/13/13 44/44/44
f 45/45/45 93/93/93 98/98/98
f 110/110/110 28/28/28 63/63/63
f 165/165/165 24/24/24 105/105/105
f 9/9/9 117/117/117 75/75/75
f 48/48/48 90/90/90 93/93/93
f 54/54/54 97/97/97 98/98/98
f 130/130/130 90/90/90 39/39/39
f 114/114/114 42/42/42 116/116/116
f 99/99/99 36/36/36 56/56/56
f 80/80/80 104/104/104 5/5/5
f 95/95/95 53/53/53 81/81/81
f 126/126/126 17/17/17 71/71/71
f 109/109/109 12/12/12 116/116/116
f 25/25/25 159/159/159 111/111/111
f 52/52/52 96/96/96 128/128/128
f 103/103/103 150/150/150 34/34/34
f 36/36/36 98/98/98 97/97/97
f 37/37/37 157/157/157 130/130/130
f 105/105/105 53/53/53 95/95/95
f 58/58/58 122/122/122 83/83/83
f 26/26/26 96/96/96 132/132/132
f 50/50/50 138/138/138 103/103/103
f 120/120/120 25/25/25 111/111/111
f 12/12/12 109/109/109 152/152/152
f 14/14/14 133/133/133 78/78/78
f 156/156/156 164/164/164 165/165/165
f 107/107/107 106/106/106 33/33/33
f 44/44/44 135/135/135 126/126/126
f 149/149/149 24/24/24 164/164/164
f 34/34/34 156/156/156 104/104/104
f 57/57/57 104/104/104 156/156/156
f 121/121/121 80/80/80 5/5/5
f 63/63/63 121/121/121 111/111/111
f 121/121/121 28/28/28 80/80/80
f 77/77/77 118/118/118 14/14/14
f 101/101/101 11/11/11 43/43/43
f 103/103/103 34/34/34 80/80/80
f 131/131/131 79/79/79 29/29/29
f 140/140/140 145/145/145 134/134/134
f 49/49/49 10/10/10 157/157/157
f 124/124/124 27/27/27 79/79/79
f 139/139/139 33/33/33 108/108/108
f 134/134/134 144/144/144 50/50/50
f 133/133/133 79/79/79 27/27/27
f 26/26/26 127/127/127 126/126/126
f 138/138/138 50/50/50 144/144/144
f 11/11/11 155/155/155 158/158/158
f 80/80/80 50/50/50 103/103/103
f 140/140/140 28/28/28 110/110/110
f 51/51/51 106/106/106 107/107/107
f 127/127/127 132/132/132 154/154/154
f 97/97/97 56/56/56 36/36/36
f 86/86/86 46/46/46 142/142/142
f 112/112/112 42/42/42 31/31/31
f 40/40/40 46/46/46 86/86/86
f 74/74/74 139/139/139 108/108/108
f 43/43/43 107/107/107 139/139/139
f 137/137/137 31/31/31 47/47/47
f 114/114/114 47/47/47 31/31/31
f 88/88/88 40/40/40 86/86/86
f 33/33/33 139/139/139 107/107/107
f 102/102/102 35/35/35 100/100/100
f 68/68/68 142/142/142 102/102/102
f 88/88/88 99/99/99 56/56/56
f 142/142/142 35/35/35 102/102/102
f 53/53/53 105/105/105 54/54/54
f 153/153/153 166/166/166 81/81/81
f 19/19/19 86/86/86 142/142/142
f 56/56/56 151/151/151 88/88/88
f 44/44/44 126/126/126 127/127/127
f 105/105/105 24/24/24 54/54/54
f 106/106/106 51/51/51 138/138/138
f 87/87/87 46/46/46 40/40/40
f 139/139/139 16/16/16 43/43/43
f 87/87/87 155/155/155 46/46/46
f 35/35/35 101/101/101 100/100/100
f 60/60/60 81/81/81 122/122/122
f 64/64/64 91/91/91 89/89/89
f 87/87/87 40/40/40 23/23/23
f 67/67/67 88/88/88 86/86/86
f 7/7/7 99/99/99 88/88/88
f 7/7/7 70/70/70 99/99/99
f 67/67/67 7/7/7 88/88/88
f 19/19/19 67/67/67 86/86/86
f 68/68/68 19/19/19 142/142/142
f 73/73/73 102/102/102 100/100/100
f 4/4/4 68/68/68 102/102/102
f 73/73/73 4/4/4 102/102/102
f 16/16/16 73/73/73 100/100/100
f 74/74/74 16/16/16 139/139/139
f 8/8/8 74/74/74 108/108/108
f 39/39/39 89/89/89 91/91/91
f 116/116/116 22/22/22 109/109/109
f 116/116/116 42/42/42 30/30/30
f 148/148/148 138/138/138 144/144/144
f 61/61/61 123/123/123 124/124/124
f 106/106/106 148/148/148 52/52/52
f 23/23/23 158/158/158 87/87/87
f 128/128/128 71/71/71 8/8/8
f 90/90/90 130/130/130 157/157/157
f 32/32/32 51/51/51 107/107/107
f 165/165/165 57/57/57 156/156/156
f 100/100/100 43/43/43 16/16/16
f 103/103/103 138/138/138 51/51/51
f 163/163/163 22/22/22 136/136/136
f 155/155/155 101/101/101 46/46/46
f 154/154/154 132/132/132 145/145/145
f 84/84/84 114/114/114 12/12/12
f 101/101/101 155/155/155 11/11/11
f 114/114/114 84/84/84 47/47/47
f 97/97/97 149/149/149 56/56/56
f 154/154/154 13/13/13 127/127/127
f 90/90/90 157/157/157 10/10/10
f 143/143/143 130/130/130 39/39/39
f 140/140/140 161/161/161 154/154/154
f 164/164/164 160/160/160 23/23/23
f 116/116/116 30/30/30 22/22/22
f 87/87/87 158/158/158 155/155/155
f 161/161/161 61/61/61 154/154/154
f 159/159/159 162/162/162 163/163/163
f 61/61/61 161/161/161 110/110/110
f 161/161/161 140/140/140 110/110/110
f 109/109/109 162/162/162 152/152/152
f 162/162/162 109/109/109 22/22/22
f 144/144/144 96/96/96 148/148/148
f 146/146/146 163/163/163 136/136/136
f 40/40/40 88/88/88 151/151/151
f 159/159/159 163/163/163 63/63/63
f 57/57/57 165/165/165 105/105/105
f 96/96/96 144/144/144 132/132/132
f 147/147/147 166/166/166 37/37/37
f 166/166/166 153/153/153 37/37/37
f 147/147/147 122/122/122 166/166/166
f 81/81/81 166/166/166 122/122/122
