# frame 000394 
# time 0.197500 
# name Cloth3D 
v -0.000000 0.000000 -0.000000
v 1.000000 0.000000 -0.000000
v -0.000000 1.000000 0.000000
v 1.000000 1.000000 0.000000
v 0.500157 0.500443 0.093534
v -0.000000 0.500000 0.000000
v 0.500000 1.000000 0.000000
v 1.000000 0.500000 0.000000
v 0.500000 -0.000000 0.000000
v 0.251654 0.749855 0.036391
v 0.748044 0.746924 0.032339
v 0.249161 0.249773 0.044333
v 0.747226 0.252054 0.033108
v 0.750000 0.000000 0.000000
v 0.250000 0.000000 0.000000
v 1.000000 0.750000 0.000000
v 1.000000 0.250000 0.000000
v 0.250000 1.000000 0.000000
v 0.750000 1.000000 0.000000
v 0.000000 0.250000 0.000000
v 0.000000 0.750000 -0.000000
v 0.365954 0.220087 0.048762
v 0.627972 0.772439 0.056928
v 0.708638 0.363160 0.073357
v 0.371117 0.369254 0.093686
v 0.878058 0.374999 0.040807
v 0.625306 0.120864 0.043101
v 0.628687 0.371643 0.093534
v 0.873887 0.125879 0.007577
v 0.375683 0.125248 0.026497
v 0.124747 0.124862 0.012749
v 0.751147 0.686318 0.053326
v 0.878729 0.624869 0.041844
v 0.628995 0.629328 0.093534
v 0.873710 0.873200 0.004397
v 0.374769 0.879171 0.041331
v 0.259807 0.600154 0.067944
v 0.125541 0.874704 0.009856
v 0.124997 0.624590 0.027977
v 0.623846 0.876624 0.034432
v 0.122229 0.374934 0.037308
v 0.249897 0.124390 0.025439
v 0.873162 0.746689 0.007930
v 0.873884 0.251384 0.017443
v 0.251328 0.874808 0.017291
v 0.748174 0.873263 0.014574
v 0.123688 0.249880 0.026736
v 0.125197 0.749798 0.022197
v 0.305653 0.715042 0.055093
v 0.697549 0.509106 0.093607
v 0.755385 0.626109 0.076504
v 0.880162 0.500510 0.048528
v 0.371500 0.647156 0.093686
v 0.374573 0.754928 0.071076
v 0.000000 0.375000 0.000000
v 0.499547 0.881446 0.051919
v 0.500037 0.629507 0.093535
v 0.245586 0.374360 0.070920
v 0.122170 0.499835 0.039527
v 0.371155 0.500369 0.093538
v 0.624952 0.245700 0.074083
v 0.500182 0.120929 0.044393
v 0.500305 0.371495 0.093535
v 0.000000 0.625000 0.000000
v 0.000000 0.875000 0.000000
v 0.000000 0.125000 0.000000
v 0.625000 1.000000 0.000000
v 0.875000 1.000000 0.000000
v 0.125000 1.000000 0.000000
v 0.375000 1.000000 0.000000
v 1.000000 0.375000 0.000000
v 1.000000 0.125000 0.000000
v 1.000000 0.875000 0.000000
v 1.000000 0.625000 0.000000
v 0.375000 0.000000 0.000000
v 0.125000 0.000000 0.000000
v 0.875000 0.000000 0.000000
v 0.625000 0.000000 0.000000
v 0.748456 0.125549 0.019082
v 0.629178 0.500729 0.093535
v 0.302007 0.542195 0.093691
v 0.060931 0.312475 0.018214
v 0.181592 0.437109 0.064617
v 0.185529 0.312482 0.043944
v 0.062151 0.437465 0.016086
v 0.686955 0.937932 0.015255
v 0.684594 0.810651 0.029849
v 0.562460 0.941549 0.027511
v 0.062826 0.687221 0.011404
v 0.187860 0.687290 0.037048
v 0.062216 0.562294 0.015529
v 0.187955 0.937502 0.008858
v 0.188719 0.811924 0.019372
v 0.062878 0.937175 -0.001630
v 0.435743 0.564764 0.093535
v 0.839015 0.423955 0.055395
v 0.435719 0.821585 0.076060
v 0.313973 0.813820 0.038541
v 0.437534 0.940577 0.024891
v 0.936356 0.811014 -0.000770
v 0.810055 0.809341 0.010548
v 0.937008 0.936926 0.000761
v 0.727775 0.611860 0.093679
v 0.564535 0.564983 0.093535
v 0.407748 0.702026 0.093679
v 0.817310 0.625291 0.060407
v 0.812902 0.685350 0.037686
v 0.941867 0.562581 0.028276
v 0.310499 0.261015 0.054387
v 0.599766 0.268744 0.093679
v 0.435775 0.436107 0.093535
v 0.187378 0.061869 0.012952
v 0.062813 0.062831 -0.002815
v 0.186732 0.187052 0.029285
v 0.312775 0.062978 0.010544
v 0.312606 0.186910 0.040765
v 0.437874 0.061991 0.016642
v 0.811846 0.062824 0.007984
v 0.937005 0.062979 -0.002739
v 0.314456 0.406667 0.093679
v 0.564528 0.436027 0.093535
v 0.524661 0.811578 0.073975
v 0.563386 0.178927 0.073773
v 0.685732 0.186879 0.040449
v 0.562595 0.060003 0.023258
v 0.937755 0.313042 0.013930
v 0.812070 0.314272 0.036406
v 0.939035 0.437644 0.021055
v 0.313058 0.938209 0.014007
v 0.186243 0.624948 0.046309
v 0.810300 0.189198 0.016084
v 0.802740 0.373346 0.053103
v 0.686999 0.061786 0.015316
v 0.693225 0.436610 0.093692
v 0.936872 0.188141 0.006440
v 0.437918 0.184615 0.054229
v 0.061662 0.187344 0.013150
v 0.496813 0.696187 0.093626
v 0.938573 0.687121 0.016538
v 0.668995 0.373634 0.093679
v 0.062477 0.812363 0.010158
v 0.811544 0.936272 0.001943
v 0.184562 0.562288 0.054554
v 0.738466 0.478526 0.093689
v 0.703957 0.426440 0.093686
v 0.576757 0.232994 0.093692
v 0.243039 0.453211 0.093692
v 0.796963 0.566788 0.093692
v 0.463211 0.786961 0.093692
v 0.666441 0.652344 0.093679
v 0.579606 0.835069 0.055115
v 0.294534 0.331861 0.067362
v 0.337191 0.595309 0.093689
v 0.712085 0.301452 0.054695
v 0.179610 0.488668 0.064167
v 0.583532 0.678085 0.093607
v 0.282235 0.656889 0.057515
v 0.686906 0.756108 0.043674
v 0.424875 0.333677 0.093689
v 0.613103 0.687642 0.093686
v 0.648233 0.307425 0.082367
v 0.363798 0.294092 0.065179
v 0.478858 0.297904 0.093691
v 0.560097 0.722754 0.093689
v 0.418709 0.254526 0.067143
v 0.500597 0.181864 0.065216
v 0.819362 0.482638 0.069992
v 0.545905 0.323032 0.093607
v 0.882855 0.563315 0.055153
v 0.771294 0.425090 0.072431
v 0.240068 0.514945 0.079106
v 0.311420 0.476071 0.093653
v 0.939602 0.624759 0.021305
v 1.000000 0.937500 0.000000
v 1.000000 0.812500 0.000000
v 1.000000 0.687500 0.000000
vt 0.000000 0.000000
vt 1.000000 0.000000
vt 0.000000 1.000000
vt 1.000000 1.000000
vt 0.500000 0.500000
vt 0.000000 0.500000
vt 0.500000 1.000000
vt 1.000000 0.500000
vt 0.500000 0.000000
vt 0.250000 0.750000
vt 0.750000 0.750000
vt 0.250000 0.250000
vt 0.750000 0.250000
vt 0.750000 0.000000
vt 0.250000 0.000000
vt 1.000000 0.750000
vt 1.000000 0.250000
vt 0.250000 1.000000
vt 0.750000 1.000000
vt 0.000000 0.250000
vt 0.000000 0.750000
vt 0.365347 0.220303
vt 0.629073 0.770824
vt 0.706846 0.363401
vt 0.374498 0.372226
vt 0.875000 0.375000
vt 0.625000 0.125000
vt 0.625000 0.375000
vt 0.875000 0.125000
vt 0.375000 0.125000
vt 0.125000 0.125000
vt 0.750000 0.687500
vt 0.875000 0.625000
vt 0.625000 0.625000
vt 0.875000 0.875000
vt 0.375000 0.875000
vt 0.262101 0.599801
vt 0.125000 0.875000
vt 0.125000 0.625000
vt 0.625000 0.875000
vt 0.125000 0.375000
vt 0.250000 0.125000
vt 0.875000 0.750000
vt 0.875000 0.250000
vt 0.250000 0.875000
vt 0.750000 0.875000
vt 0.125000 0.250000
vt 0.125000 0.750000
vt 0.304602 0.713891
vt 0.690882 0.507820
vt 0.750000 0.625000
vt 0.875000 0.500000
vt 0.374811 0.642681
vt 0.375000 0.750000
vt 0.000000 0.375000
vt 0.500000 0.875000
vt 0.500000 0.625000
vt 0.250000 0.375000
vt 0.125000 0.500000
vt 0.375000 0.500000
vt 0.625000 0.250000
vt 0.500000 0.125000
vt 0.500000 0.375000
vt 0.000000 0.625000
vt 0.000000 0.875000
vt 0.000000 0.125000
vt 0.625000 1.000000
vt 0.875000 1.000000
vt 0.125000 1.000000
vt 0.375000 1.000000
vt 1.000000 0.375000
vt 1.000000 0.125000
vt 1.000000 0.875000
vt 1.000000 0.625000
vt 0.375000 0.000000
vt 0.125000 0.000000
vt 0.875000 0.000000
vt 0.625000 0.000000
vt 0.750000 0.125000
vt 0.625000 0.500000
vt 0.307629 0.540809
vt 0.062500 0.312500
vt 0.187500 0.437500
vt 0.187500 0.312500
vt 0.062500 0.437500
vt 0.687500 0.937500
vt 0.687500 0.812500
vt 0.562500 0.937500
vt 0.062500 0.687500
vt 0.187500 0.687500
vt 0.062500 0.562500
vt 0.187500 0.937500
vt 0.187500 0.812500
vt 0.062500 0.937500
vt 0.437500 0.562500
vt 0.834853 0.423541
vt 0.437500 0.812500
vt 0.312500 0.812500
vt 0.437500 0.937500
vt 0.937500 0.812500
vt 0.812500 0.812500
vt 0.937500 0.937500
vt 0.720096 0.607609
vt 0.562500 0.562500
vt 0.410194 0.695558
vt 0.812500 0.625000
vt 0.812500 0.687500
vt 0.937500 0.562500
vt 0.311128 0.261404
vt 0.596716 0.276071
vt 0.437500 0.437500
vt 0.187500 0.062500
vt 0.062500 0.062500
vt 0.187500 0.187500
vt 0.312500 0.062500
vt 0.312500 0.187500
vt 0.437500 0.062500
vt 0.812500 0.062500
vt 0.937500 0.062500
vt 0.319890 0.408616
vt 0.562500 0.437500
vt 0.525016 0.804189
vt 0.562500 0.187500
vt 0.687500 0.187500
vt 0.562500 0.062500
vt 0.937500 0.312500
vt 0.812500 0.312500
vt 0.937500 0.437500
vt 0.312500 0.937500
vt 0.187500 0.625000
vt 0.812500 0.187500
vt 0.800716 0.372483
vt 0.687500 0.062500
vt 0.687500 0.437500
vt 0.937500 0.187500
vt 0.437500 0.187500
vt 0.062500 0.187500
vt 0.497032 0.689303
vt 0.937500 0.687500
vt 0.664210 0.376562
vt 0.062500 0.812500
vt 0.812500 0.937500
vt 0.187500 0.562500
vt 0.730844 0.478195
vt 0.698031 0.427618
vt 0.574046 0.242776
vt 0.252155 0.454511
vt 0.785078 0.563610
vt 0.464668 0.775878
vt 0.661432 0.647272
vt 0.580205 0.830830
vt 0.296906 0.332149
vt 0.341504 0.592415
vt 0.713437 0.300753
vt 0.185471 0.488796
vt 0.581168 0.672349
vt 0.281585 0.657008
vt 0.688844 0.757642
vt 0.426637 0.337871
vt 0.609901 0.681715
vt 0.646352 0.310977
vt 0.364019 0.294291
vt 0.479072 0.303571
vt 0.558565 0.715627
vt 0.418341 0.256674
vt 0.500000 0.187500
vt 0.812755 0.481587
vt 0.544346 0.328467
vt 0.875000 0.562500
vt 0.766844 0.424637
vt 0.245672 0.515386
vt 0.317431 0.476446
vt 0.937500 0.625000
vt 1.000000 0.937500
vt 1.000000 0.812500
vt 1.000000 0.687500
vn 0.021119 0.021119 0.999554
vn -0.022861 0.022861 0.999477
vn 0.012619 -0.012619 0.999841
vn 0.006776 0.003388 0.999971
vn 0.000000 0.000000 1.000000
vn -0.244380 0.003189 0.969674
vn -0.012031 0.402743 0.915234
vn 0.379442 -0.031814 0.924668
vn -0.027048 -0.305655 0.951758
vn -0.176876 0.157051 0.971622
vn 0.204169 0.272426 0.940266
vn -0.125998 -0.167036 0.977867
vn 0.209130 -0.185783 0.960078
vn 0.028235 -0.183941 0.982532
vn 0.008980 -0.185052 0.982688
vn 0.103984 0.043439 0.993630
vn 0.149059 -0.027029 0.988459
vn -0.019596 0.182388 0.983031
vn 0.052969 0.133772 0.989596
vn -0.247365 -0.020770 0.968700
vn -0.171653 0.004787 0.985146
vn -0.103134 -0.218387 0.970397
vn 0.282833 0.272969 0.919507
vn 0.332298 -0.261418 0.906222
vn -0.108878 -0.180262 0.977574
vn 0.236708 -0.124838 0.963527
vn 0.146539 -0.290186 0.945684
vn -0.002224 0.001356 0.999997
vn 0.079615 -0.075172 0.993987
vn -0.078523 -0.242629 0.966936
vn -0.126630 -0.123650 0.984213
vn 0.245780 0.348571 0.904483
vn 0.288156 0.202979 0.935824
vn -0.001272 -0.002221 0.999997
vn 0.055260 0.032367 0.997947
vn -0.193794 0.287898 0.937848
vn -0.258784 0.217271 0.941182
vn -0.077885 0.095043 0.992422
vn -0.261948 0.087841 0.961076
vn 0.184254 0.220550 0.957814
vn -0.282798 -0.071932 0.956478
vn -0.034528 -0.184282 0.982267
vn 0.123313 0.171143 0.977499
vn 0.133271 -0.120168 0.983767
vn -0.095871 0.130411 0.986814
vn 0.123007 0.090226 0.988296
vn -0.166450 -0.083632 0.982497
vn -0.139556 0.072350 0.987568
vn -0.282742 0.168600 0.944262
vn -0.001176 0.000712 0.999999
vn 0.270612 0.412361 0.869901
vn 0.363079 -0.094156 0.926989
vn -0.182823 0.116120 0.976264
vn -0.311387 0.200362 0.928921
vn -0.279724 0.009506 0.960033
vn 0.051798 0.348043 0.936047
vn 0.000153 -0.000834 1.000000
vn -0.213561 -0.251213 0.944078
vn -0.360294 0.054806 0.931227
vn 0.001270 -0.000167 0.999999
vn 0.393281 -0.273022 0.877946
vn -0.102006 -0.340546 0.934678
vn 0.000371 0.001199 0.999999
vn -0.209642 0.014818 0.977666
vn -0.068579 0.047232 0.996527
vn -0.082806 -0.062866 0.994581
vn 0.049368 0.301648 0.952141
vn 0.005148 0.020328 0.999780
vn -0.042540 0.059189 0.997340
vn -0.042560 0.301653 0.952467
vn 0.292730 -0.029080 0.955753
vn 0.046117 -0.038432 0.998196
vn 0.014476 -0.002255 0.999893
vn 0.326697 0.057638 0.943370
vn -0.022301 -0.208990 0.977664
vn -0.061765 -0.080638 0.994828
vn 0.043879 -0.041137 0.998190
vn 0.030733 -0.316232 0.948184
vn 0.118488 -0.122078 0.985423
vn -0.000757 0.000259 1.000000
vn -0.158192 0.102646 0.982059
vn -0.248758 -0.031842 0.968042
vn -0.377902 -0.080916 0.922303
vn -0.193652 -0.142544 0.970660
vn -0.305454 0.008354 0.952170
vn 0.074909 0.193610 0.978215
vn 0.230695 0.192512 0.953792
vn 0.073135 0.340733 0.937311
vn -0.197833 0.020615 0.980019
vn -0.182250 0.127593 0.974938
vn -0.262971 0.032468 0.964257
vn -0.045618 0.109885 0.992897
vn -0.084943 0.121170 0.988991
vn -0.035174 0.037528 0.998676
vn 0.000597 -0.000525 1.000000
vn 0.257620 -0.140061 0.956041
vn -0.139312 0.335896 0.931540
vn -0.232986 0.188050 0.954125
vn -0.049247 0.374522 0.925909
vn 0.036666 0.010734 0.999270
vn 0.126574 0.079565 0.988761
vn 0.013594 0.015093 0.999794
vn 0.217877 0.330645 0.918261
vn 0.000000 -0.000173 1.000000
vn -0.179183 0.114419 0.977139
vn 0.274584 0.348782 0.896077
vn 0.219203 0.325370 0.919828
vn 0.376208 0.045149 0.925435
vn -0.082690 -0.199693 0.976363
vn 0.303887 -0.196372 0.932250
vn 0.000558 0.000666 1.000000
vn -0.051780 -0.160973 0.985600
vn -0.046098 -0.046642 0.997847
vn -0.120182 -0.127390 0.984545
vn -0.006405 -0.203207 0.979115
vn -0.042844 -0.199994 0.978860
vn -0.062105 -0.274922 0.959459
vn 0.059248 -0.108080 0.992375
vn 0.025975 -0.031140 0.999177
vn -0.098366 -0.150583 0.983691
vn 0.000000 0.000173 1.000000
vn 0.148615 0.335985 0.930069
vn 0.030565 -0.346209 0.937659
vn 0.256254 -0.178337 0.950016
vn -0.006105 -0.339520 0.940579
vn 0.226705 -0.093765 0.969439
vn 0.158573 -0.213617 0.963962
vn 0.336940 -0.032480 0.940966
vn -0.078490 0.217978 0.972792
vn -0.249005 0.146015 0.957432
vn 0.107432 -0.096446 0.989523
vn 0.199583 -0.215357 0.955923
vn 0.087269 -0.230680 0.969108
vn -0.000573 0.000240 1.000000
vn 0.100007 -0.038008 0.994260
vn -0.174563 -0.255349 0.950960
vn -0.158856 -0.069910 0.984824
vn 0.000043 -0.001217 0.999999
vn 0.233029 0.106800 0.966587
vn 0.218089 -0.150942 0.964185
vn -0.129321 0.050515 0.990315
vn 0.049852 0.077820 0.995720
vn -0.288678 0.136660 0.947623
vn 0.132316 -0.088984 0.987205
vn 0.066530 -0.051389 0.996460
vn 0.226405 -0.260551 0.938538
vn -0.252424 -0.026635 0.967250
vn 0.275576 0.165883 0.946858
vn -0.048090 0.306812 0.950554
vn 0.091969 0.130950 0.987114
vn 0.202130 0.272884 0.940573
vn -0.147911 -0.251129 0.956586
vn -0.175556 0.127296 0.976205
vn 0.293088 -0.241051 0.925199
vn -0.369099 0.076252 0.926257
vn -0.001233 -0.002428 0.999996
vn -0.261422 0.205491 0.943097
vn 0.252849 0.286505 0.924112
vn -0.118625 -0.169262 0.978406
vn 0.059600 0.085034 0.994594
vn 0.388069 -0.264959 0.882723
vn -0.149015 -0.259858 0.954080
vn -0.087770 -0.124473 0.988333
vn 0.087892 0.117345 0.989194
vn -0.200138 -0.251944 0.946820
vn -0.164692 -0.298032 0.940241
vn 0.317608 -0.146527 0.936832
vn 0.000201 0.001282 0.999999
vn 0.378645 0.064945 0.923261
vn 0.258459 -0.205514 0.943908
vn -0.301371 0.189002 0.934588
vn 0.001269 0.000022 0.999999
vn 0.326728 0.102928 0.939497
vn 0.010168 0.000000 0.999948
vn -0.004558 0.000000 0.999990
vn 0.255639 0.000000 0.966772
f 1/1/1 113/113/113 66/66/66
f 31/31/31 137/137/137 113/113/113
f 41/41/41 58/58/58 83/83/83
f 76/76/76 112/112/112 113/113/113
f 110/110/110 161/161/161 140/140/140
f 112/112/112 114/114/114 31/31/31
f 136/136/136 30/30/30 117/117/117
f 59/59/59 83/83/83 155/155/155
f 137/137/137 66/66/66 113/113/113
f 112/112/112 31/31/31 113/113/113
f 115/115/115 112/112/112 15/15/15
f 12/12/12 114/114/114 116/116/116
f 56/56/56 97/97/97 122/122/122
f 76/76/76 113/113/113 1/1/1
f 42/42/42 114/114/114 112/112/112
f 15/15/15 112/112/112 76/76/76
f 115/115/115 15/15/15 75/75/75
f 137/137/137 31/31/31 47/47/47
f 116/116/116 115/115/115 30/30/30
f 115/115/115 75/75/75 30/30/30
f 22/22/22 30/30/30 136/136/136
f 114/114/114 47/47/47 31/31/31
f 159/159/159 165/165/165 163/163/163
f 165/165/165 22/22/22 136/136/136
f 109/109/109 116/116/116 22/22/22
f 109/109/109 12/12/12 116/116/116
f 42/42/42 116/116/116 114/114/114
f 116/116/116 30/30/30 22/22/22
f 42/42/42 112/112/112 115/115/115
f 42/42/42 115/115/115 116/116/116
f 152/152/152 12/12/12 109/109/109
f 84/84/84 58/58/58 41/41/41
f 109/109/109 22/22/22 162/162/162
f 152/152/152 109/109/109 162/162/162
f 25/25/25 152/152/152 162/162/162
f 120/120/120 152/152/152 25/25/25
f 165/165/165 162/162/162 22/22/22
f 140/140/140 28/28/28 110/110/110
f 122/122/122 151/151/151 56/56/56
f 84/84/84 12/12/12 152/152/152
f 166/166/166 165/165/165 136/136/136
f 168/168/168 121/121/121 63/63/63
f 28/28/28 140/140/140 134/134/134
f 63/63/63 159/159/159 163/163/163
f 159/159/159 25/25/25 162/162/162
f 159/159/159 162/162/162 165/165/165
f 60/60/60 120/120/120 111/111/111
f 111/111/111 25/25/25 159/159/159
f 77/77/77 2/2/2 119/119/119
f 120/120/120 25/25/25 111/111/111
f 84/84/84 152/152/152 58/58/58
f 58/58/58 152/152/152 120/120/120
f 60/60/60 95/95/95 153/153/153
f 122/122/122 149/149/149 164/164/164
f 98/98/98 36/36/36 129/129/129
f 98/98/98 54/54/54 36/36/36
f 143/143/143 171/171/171 37/37/37
f 81/81/81 37/37/37 171/171/171
f 157/157/157 37/37/37 153/153/153
f 149/149/149 122/122/122 97/97/97
f 85/85/85 55/55/55 41/41/41
f 155/155/155 83/83/83 147/147/147
f 85/85/85 41/41/41 83/83/83
f 82/82/82 137/137/137 47/47/47
f 47/47/47 114/114/114 84/84/84
f 84/84/84 114/114/114 12/12/12
f 46/46/46 87/87/87 101/101/101
f 11/11/11 101/101/101 87/87/87
f 55/55/55 82/82/82 41/41/41
f 20/20/20 137/137/137 82/82/82
f 20/20/20 66/66/66 137/137/137
f 55/55/55 20/20/20 82/82/82
f 131/131/131 79/79/79 29/29/29
f 21/21/21 141/141/141 65/65/65
f 38/38/38 92/92/92 94/94/94
f 59/59/59 39/39/39 91/91/91
f 171/171/171 155/155/155 147/147/147
f 49/49/49 98/98/98 10/10/10
f 36/36/36 99/99/99 129/129/129
f 21/21/21 89/89/89 141/141/141
f 70/70/70 18/18/18 129/129/129
f 99/99/99 70/70/70 129/129/129
f 53/53/53 157/157/157 153/153/153
f 97/97/97 99/99/99 36/36/36
f 54/54/54 149/149/149 97/97/97
f 81/81/81 147/147/147 172/172/172
f 60/60/60 153/153/153 81/81/81
f 164/164/164 149/149/149 138/138/138
f 54/54/54 97/97/97 36/36/36
f 157/157/157 130/130/130 37/37/37
f 45/45/45 10/10/10 98/98/98
f 90/90/90 48/48/48 39/39/39
f 92/92/92 18/18/18 69/69/69
f 93/93/93 45/45/45 38/38/38
f 45/45/45 98/98/98 129/129/129
f 48/48/48 141/141/141 89/89/89
f 118/118/118 29/29/29 79/79/79
f 38/38/38 45/45/45 92/92/92
f 94/94/94 69/69/69 3/3/3
f 48/48/48 38/38/38 141/141/141
f 65/65/65 94/94/94 3/3/3
f 44/44/44 127/127/127 131/131/131
f 89/89/89 39/39/39 48/48/48
f 69/69/69 94/94/94 92/92/92
f 13/13/13 131/131/131 127/127/127
f 6/6/6 91/91/91 64/64/64
f 38/38/38 94/94/94 141/141/141
f 93/93/93 38/38/38 48/48/48
f 65/65/65 141/141/141 94/94/94
f 93/93/93 10/10/10 45/45/45
f 143/143/143 39/39/39 59/59/59
f 130/130/130 90/90/90 39/39/39
f 143/143/143 130/130/130 39/39/39
f 77/77/77 119/119/119 118/118/118
f 49/49/49 54/54/54 98/98/98
f 157/157/157 10/10/10 90/90/90
f 64/64/64 89/89/89 21/21/21
f 47/47/47 84/84/84 82/82/82
f 6/6/6 85/85/85 91/91/91
f 59/59/59 91/91/91 85/85/85
f 41/41/41 82/82/82 84/84/84
f 6/6/6 55/55/55 85/85/85
f 59/59/59 85/85/85 83/83/83
f 143/143/143 59/59/59 155/155/155
f 169/169/169 106/106/106 148/148/148
f 167/167/167 52/52/52 169/169/169
f 119/119/119 29/29/29 118/118/118
f 104/104/104 95/95/95 5/5/5
f 138/138/138 149/149/149 105/105/105
f 53/53/53 49/49/49 157/157/157
f 37/37/37 130/130/130 143/143/143
f 37/37/37 81/81/81 153/153/153
f 157/157/157 49/49/49 10/10/10
f 157/157/157 90/90/90 130/130/130
f 57/57/57 53/53/53 95/95/95
f 105/105/105 49/49/49 53/53/53
f 105/105/105 149/149/149 54/54/54
f 105/105/105 54/54/54 49/49/49
f 57/57/57 105/105/105 53/53/53
f 156/156/156 138/138/138 57/57/57
f 95/95/95 53/53/53 153/153/153
f 5/5/5 95/95/95 111/111/111
f 135/135/135 72/72/72 17/17/17
f 60/60/60 111/111/111 95/95/95
f 34/34/34 156/156/156 104/104/104
f 146/146/146 123/123/123 61/61/61
f 156/156/156 164/164/164 138/138/138
f 57/57/57 138/138/138 105/105/105
f 57/57/57 95/95/95 104/104/104
f 158/158/158 150/150/150 32/32/32
f 40/40/40 86/86/86 67/67/67
f 9/9/9 117/117/117 75/75/75
f 50/50/50 103/103/103 34/34/34
f 32/32/32 150/150/150 51/51/51
f 51/51/51 148/148/148 106/106/106
f 88/88/88 151/151/151 40/40/40
f 103/103/103 150/150/150 34/34/34
f 102/102/102 35/35/35 73/73/73
f 156/156/156 57/57/57 104/104/104
f 156/156/156 160/160/160 164/164/164
f 34/34/34 160/160/160 156/156/156
f 80/80/80 34/34/34 104/104/104
f 51/51/51 150/150/150 103/103/103
f 150/150/150 160/160/160 34/34/34
f 50/50/50 34/34/34 80/80/80
f 32/32/32 51/51/51 107/107/107
f 80/80/80 104/104/104 5/5/5
f 134/134/134 144/144/144 50/50/50
f 26/26/26 71/71/71 128/128/128
f 148/148/148 103/103/103 50/50/50
f 144/144/144 148/148/148 50/50/50
f 106/106/106 107/107/107 51/51/51
f 170/170/170 144/144/144 145/145/145
f 132/132/132 170/170/170 24/24/24
f 39/39/39 89/89/89 91/91/91
f 100/100/100 73/73/73 35/35/35
f 172/172/172 147/147/147 120/120/120
f 8/8/8 108/108/108 52/52/52
f 18/18/18 92/92/92 129/129/129
f 107/107/107 33/33/33 139/139/139
f 48/48/48 90/90/90 93/93/93
f 51/51/51 103/103/103 148/148/148
f 145/145/145 24/24/24 170/170/170
f 11/11/11 32/32/32 107/107/107
f 158/158/158 32/32/32 11/11/11
f 88/88/88 40/40/40 67/67/67
f 87/87/87 46/46/46 40/40/40
f 45/45/45 129/129/129 92/92/92
f 43/43/43 107/107/107 139/139/139
f 101/101/101 11/11/11 43/43/43
f 100/100/100 101/101/101 43/43/43
f 147/147/147 58/58/58 120/120/120
f 35/35/35 101/101/101 100/100/100
f 10/10/10 93/93/93 90/90/90
f 107/107/107 43/43/43 11/11/11
f 142/142/142 46/46/46 35/35/35
f 102/102/102 142/142/142 35/35/35
f 68/68/68 142/142/142 102/102/102
f 7/7/7 99/99/99 88/88/88
f 170/170/170 132/132/132 96/96/96
f 40/40/40 46/46/46 86/86/86
f 86/86/86 46/46/46 142/142/142
f 19/19/19 86/86/86 142/142/142
f 151/151/151 164/164/164 23/23/23
f 23/23/23 160/160/160 158/158/158
f 23/23/23 87/87/87 40/40/40
f 23/23/23 158/158/158 87/87/87
f 158/158/158 160/160/160 150/150/150
f 158/158/158 11/11/11 87/87/87
f 151/151/151 23/23/23 40/40/40
f 23/23/23 164/164/164 160/160/160
f 88/88/88 56/56/56 151/151/151
f 172/172/172 60/60/60 81/81/81
f 56/56/56 99/99/99 97/97/97
f 151/151/151 122/122/122 164/164/164
f 7/7/7 88/88/88 67/67/67
f 88/88/88 99/99/99 56/56/56
f 7/7/7 70/70/70 99/99/99
f 19/19/19 67/67/67 86/86/86
f 68/68/68 19/19/19 142/142/142
f 101/101/101 35/35/35 46/46/46
f 4/4/4 68/68/68 102/102/102
f 173/173/173 74/74/74 139/139/139
f 174/174/174 4/4/4 102/102/102
f 175/175/175 73/73/73 100/100/100
f 8/8/8 74/74/74 108/108/108
f 79/79/79 13/13/13 124/124/124
f 126/126/126 71/71/71 26/26/26
f 146/146/146 168/168/168 163/163/163
f 96/96/96 128/128/128 52/52/52
f 167/167/167 96/96/96 52/52/52
f 134/134/134 50/50/50 80/80/80
f 24/24/24 140/140/140 161/161/161
f 128/128/128 71/71/71 8/8/8
f 128/128/128 8/8/8 52/52/52
f 44/44/44 126/126/126 26/26/26
f 126/126/126 17/17/17 71/71/71
f 127/127/127 44/44/44 26/26/26
f 44/44/44 17/17/17 126/126/126
f 100/100/100 43/43/43 16/16/16
f 135/135/135 17/17/17 44/44/44
f 132/132/132 127/127/127 26/26/26
f 154/154/154 132/132/132 24/24/24
f 61/61/61 161/161/161 110/110/110
f 133/133/133 124/124/124 27/27/27
f 96/96/96 132/132/132 26/26/26
f 145/145/145 144/144/144 134/134/134
f 96/96/96 26/26/26 128/128/128
f 107/107/107 106/106/106 33/33/33
f 167/167/167 148/148/148 144/144/144
f 144/144/144 170/170/170 167/167/167
f 28/28/28 134/134/134 80/80/80
f 140/140/140 145/145/145 134/134/134
f 24/24/24 145/145/145 140/140/140
f 64/64/64 91/91/91 89/89/89
f 121/121/121 28/28/28 80/80/80
f 154/154/154 24/24/24 161/161/161
f 121/121/121 80/80/80 5/5/5
f 168/168/168 28/28/28 121/121/121
f 121/121/121 5/5/5 111/111/111
f 63/63/63 121/121/121 111/111/111
f 63/63/63 111/111/111 159/159/159
f 168/168/168 63/63/63 163/163/163
f 166/166/166 123/123/123 146/146/146
f 110/110/110 28/28/28 168/168/168
f 62/62/62 166/166/166 136/136/136
f 27/27/27 124/124/124 61/61/61
f 124/124/124 154/154/154 61/61/61
f 118/118/118 133/133/133 14/14/14
f 154/154/154 127/127/127 132/132/132
f 96/96/96 167/167/167 170/170/170
f 154/154/154 161/161/161 61/61/61
f 154/154/154 13/13/13 127/127/127
f 124/124/124 13/13/13 154/154/154
f 133/133/133 27/27/27 78/78/78
f 123/123/123 27/27/27 61/61/61
f 125/125/125 78/78/78 27/27/27
f 146/146/146 61/61/61 110/110/110
f 166/166/166 146/146/146 163/163/163
f 146/146/146 110/110/110 168/168/168
f 166/166/166 163/163/163 165/165/165
f 62/62/62 136/136/136 117/117/117
f 62/62/62 123/123/123 166/166/166
f 125/125/125 27/27/27 62/62/62
f 62/62/62 27/27/27 123/123/123
f 125/125/125 62/62/62 117/117/117
f 9/9/9 125/125/125 117/117/117
f 9/9/9 78/78/78 125/125/125
f 14/14/14 133/133/133 78/78/78
f 77/77/77 118/118/118 14/14/14
f 119/119/119 2/2/2 72/72/72
f 29/29/29 44/44/44 131/131/131
f 117/117/117 30/30/30 75/75/75
f 79/79/79 124/124/124 133/133/133
f 79/79/79 133/133/133 118/118/118
f 139/139/139 16/16/16 43/43/43
f 131/131/131 13/13/13 79/79/79
f 119/119/119 72/72/72 29/29/29
f 135/135/135 44/44/44 29/29/29
f 135/135/135 29/29/29 72/72/72
f 33/33/33 169/169/169 108/108/108
f 169/169/169 52/52/52 108/108/108
f 106/106/106 169/169/169 33/33/33
f 167/167/167 169/169/169 148/148/148
f 155/155/155 171/171/171 143/143/143
f 81/81/81 171/171/171 147/147/147
f 60/60/60 172/172/172 120/120/120
f 147/147/147 83/83/83 58/58/58
f 74/74/74 173/173/173 108/108/108
f 173/173/173 33/33/33 108/108/108
f 33/33/33 173/173/173 139/139/139
f 73/73/73 174/174/174 102/102/102
f 16/16/16 175/175/175 100/100/100
f 74/74/74 176/176/176 139/139/139
f 176/176/176 16/16/16 139/139/139
