# frame 000350 
# time 0.175500 
# name Cloth3D 
v -0.000000 0.000000 -0.000000
v 1.000000 0.000000 -0.000000
v -0.000000 1.000000 0.000000
v 1.000000 1.000000 0.000000
v 0.501302 0.500523 0.082534
v -0.000000 0.500000 0.000000
v 0.500000 1.000000 0.000000
v 1.000000 0.500000 0.000000
v 0.500000 -0.000000 0.000000
v 0.247848 0.753012 0.057097
v 0.751991 0.751466 0.048461
v 0.247771 0.247792 0.054749
v 0.752930 0.247938 0.053473
v 0.750000 0.000000 0.000000
v 0.250000 0.000000 0.000000
v 1.000000 0.750000 0.000000
v 1.000000 0.250000 0.000000
v 0.250000 1.000000 0.000000
v 0.750000 1.000000 0.000000
v 0.000000 0.250000 0.000000
v 0.000000 0.750000 -0.000000
v 0.364780 0.218504 0.054220
v 0.630172 0.773933 0.059439
v 0.480626 0.774848 0.082718
v 0.374102 0.371803 0.082686
v 0.875466 0.375658 0.027620
v 0.625863 0.124267 0.032205
v 0.628588 0.372679 0.082534
v 0.875950 0.124352 0.017496
v 0.375070 0.124890 0.028309
v 0.124269 0.124190 0.018317
v 0.752801 0.688502 0.056693
v 0.877163 0.624750 0.034357
v 0.628489 0.627995 0.082534
v 0.876037 0.875635 0.016699
v 0.375334 0.875621 0.029977
v 0.259782 0.601180 0.068605
v 0.123903 0.876277 0.021369
v 0.124982 0.625308 0.029395
v 0.625276 0.876490 0.032400
v 0.123350 0.374722 0.035034
v 0.249290 0.123955 0.027301
v 0.876896 0.750449 0.029423
v 0.876937 0.249549 0.029645
v 0.249395 0.876810 0.030194
v 0.750687 0.875803 0.025194
v 0.123744 0.249162 0.029232
v 0.123541 0.751022 0.030795
v 0.302804 0.717152 0.067560
v 0.696848 0.508444 0.082607
v 0.754458 0.625723 0.067654
v 0.880637 0.500221 0.046556
v 0.373530 0.645955 0.082686
v 0.374897 0.752925 0.062540
v 0.000000 0.375000 0.000000
v 0.500308 0.878503 0.040698
v 0.501019 0.628538 0.082535
v 0.247130 0.374022 0.066365
v 0.123796 0.500042 0.035047
v 0.373356 0.500430 0.082535
v 0.627187 0.246150 0.069500
v 0.500685 0.124790 0.031495
v 0.501250 0.372618 0.082535
v 0.000000 0.625000 0.000000
v 0.000000 0.875000 0.000000
v 0.000000 0.125000 0.000000
v 0.625000 1.000000 0.000000
v 0.875000 1.000000 0.000000
v 0.125000 1.000000 0.000000
v 0.375000 1.000000 0.000000
v 1.000000 0.375000 0.000000
v 1.000000 0.125000 0.000000
v 1.000000 0.875000 0.000000
v 1.000000 0.625000 0.000000
v 0.375000 0.000000 0.000000
v 0.125000 0.000000 0.000000
v 0.875000 0.000000 0.000000
v 0.625000 0.000000 0.000000
v 0.751303 0.123277 0.030869
v 0.629193 0.500540 0.082535
v 0.293412 0.549830 0.082691
v 0.062328 0.312400 0.014311
v 0.184616 0.437496 0.055628
v 0.184513 0.311222 0.051240
v 0.061705 0.437498 0.017984
v 0.687599 0.937795 0.013424
v 0.688854 0.815256 0.047574
v 0.562519 0.937664 0.014840
v 0.061953 0.687706 0.016134
v 0.185834 0.688875 0.047100
v 0.061989 0.562584 0.017122
v 0.187288 0.937964 0.011805
v 0.185573 0.814919 0.040079
v 0.062399 0.937625 0.004311
v 0.437402 0.564338 0.082535
v 0.837420 0.424496 0.044913
v 0.438206 0.816591 0.057068
v 0.311827 0.815093 0.047562
v 0.437603 0.938682 0.018483
v 0.939194 0.812880 0.017106
v 0.814119 0.813683 0.032617
v 0.937290 0.937200 -0.001515
v 0.720712 0.602623 0.082679
v 0.564984 0.564422 0.082535
v 0.415158 0.696006 0.082679
v 0.820329 0.563492 0.069190
v 0.814660 0.687892 0.043712
v 0.938650 0.562338 0.018264
v 0.309358 0.258772 0.063066
v 0.587806 0.279415 0.082679
v 0.437420 0.436700 0.082535
v 0.187476 0.062691 0.008103
v 0.062280 0.062256 0.005933
v 0.185411 0.185233 0.039880
v 0.312478 0.062044 0.014970
v 0.311631 0.185814 0.044881
v 0.437737 0.062134 0.016535
v 0.812876 0.061922 0.012352
v 0.937502 0.062565 0.002250
v 0.322421 0.414769 0.082679
v 0.565112 0.436632 0.082535
v 0.263849 0.463441 0.082679
v 0.563623 0.183151 0.059953
v 0.689490 0.184818 0.049750
v 0.562853 0.062152 0.016656
v 0.937572 0.312726 0.012383
v 0.814337 0.312118 0.042499
v 0.939119 0.437610 0.019442
v 0.312579 0.937326 0.012202
v 0.186736 0.625694 0.046014
v 0.814966 0.185692 0.038079
v 0.803177 0.372602 0.049671
v 0.687899 0.061556 0.017350
v 0.692783 0.436869 0.082534
v 0.938310 0.187415 0.012768
v 0.438049 0.186691 0.046880
v 0.062589 0.187372 0.009171
v 0.497709 0.694731 0.082626
v 0.937593 0.687359 0.012453
v 0.667524 0.375345 0.082679
v 0.062208 0.812805 0.011793
v 0.812831 0.938085 0.012308
v 0.186834 0.562342 0.047986
v 0.747428 0.471183 0.082689
v 0.707737 0.423593 0.082686
v 0.546005 0.228437 0.082692
v 0.238474 0.483963 0.082692
v 0.801528 0.536037 0.082692
v 0.493963 0.791526 0.082692
v 0.664622 0.649237 0.082679
v 0.580472 0.834068 0.049451
v 0.294399 0.330175 0.071486
v 0.334001 0.598505 0.082689
v 0.717356 0.298189 0.068735
v 0.751335 0.813973 0.038262
v 0.583480 0.676784 0.082607
v 0.279113 0.659490 0.071099
v 0.690334 0.759750 0.053783
v 0.423235 0.330870 0.082689
v 0.615704 0.689991 0.082686
v 0.649645 0.307717 0.077162
v 0.362787 0.291631 0.072184
v 0.472636 0.289662 0.082691
v 0.566939 0.730655 0.082689
v 0.418136 0.253685 0.068033
vt 0.000000 0.000000
vt 1.000000 0.000000
vt 0.000000 1.000000
vt 1.000000 1.000000
vt 0.500000 0.500000
vt 0.000000 0.500000
vt 0.500000 1.000000
vt 1.000000 0.500000
vt 0.500000 0.000000
vt 0.250000 0.750000
vt 0.750000 0.750000
vt 0.250000 0.250000
vt 0.750000 0.250000
vt 0.750000 0.000000
vt 0.250000 0.000000
vt 1.000000 0.750000
vt 1.000000 0.250000
vt 0.250000 1.000000
vt 0.750000 1.000000
vt 0.000000 0.250000
vt 0.000000 0.750000
vt 0.365347 0.220303
vt 0.629073 0.770824
vt 0.480669 0.766492
vt 0.375555 0.373643
vt 0.875000 0.375000
vt 0.625000 0.125000
vt 0.625000 0.375000
vt 0.875000 0.125000
vt 0.375000 0.125000
vt 0.125000 0.125000
vt 0.750000 0.687500
vt 0.875000 0.625000
vt 0.625000 0.625000
vt 0.875000 0.875000
vt 0.375000 0.875000
vt 0.262101 0.599801
vt 0.125000 0.875000
vt 0.125000 0.625000
vt 0.625000 0.875000
vt 0.125000 0.375000
vt 0.250000 0.125000
vt 0.875000 0.750000
vt 0.875000 0.250000
vt 0.250000 0.875000
vt 0.750000 0.875000
vt 0.125000 0.250000
vt 0.125000 0.750000
vt 0.304602 0.713891
vt 0.690882 0.507820
vt 0.750000 0.625000
vt 0.875000 0.500000
vt 0.374828 0.642671
vt 0.375000 0.750000
vt 0.000000 0.375000
vt 0.500000 0.875000
vt 0.500000 0.625000
vt 0.250000 0.375000
vt 0.125000 0.500000
vt 0.375000 0.500000
vt 0.625000 0.250000
vt 0.500000 0.125000
vt 0.500000 0.375000
vt 0.000000 0.625000
vt 0.000000 0.875000
vt 0.000000 0.125000
vt 0.625000 1.000000
vt 0.875000 1.000000
vt 0.125000 1.000000
vt 0.375000 1.000000
vt 1.000000 0.375000
vt 1.000000 0.125000
vt 1.000000 0.875000
vt 1.000000 0.625000
vt 0.375000 0.000000
vt 0.125000 0.000000
vt 0.875000 0.000000
vt 0.625000 0.000000
vt 0.750000 0.125000
vt 0.625000 0.500000
vt 0.296905 0.548659
vt 0.062500 0.312500
vt 0.187500 0.437500
vt 0.187500 0.312500
vt 0.062500 0.437500
vt 0.687500 0.937500
vt 0.687500 0.812500
vt 0.562500 0.937500
vt 0.062500 0.687500
vt 0.187500 0.687500
vt 0.062500 0.562500
vt 0.187500 0.937500
vt 0.187500 0.812500
vt 0.062500 0.937500
vt 0.437500 0.562500
vt 0.834853 0.423541
vt 0.437500 0.812500
vt 0.312500 0.812500
vt 0.437500 0.937500
vt 0.937500 0.812500
vt 0.812500 0.812500
vt 0.937500 0.937500
vt 0.714755 0.600514
vt 0.562500 0.562500
vt 0.415726 0.691353
vt 0.812500 0.562500
vt 0.812500 0.687500
vt 0.937500 0.562500
vt 0.311128 0.261404
vt 0.585479 0.284546
vt 0.437500 0.437500
vt 0.187500 0.062500
vt 0.062500 0.062500
vt 0.187500 0.187500
vt 0.312500 0.062500
vt 0.312500 0.187500
vt 0.437500 0.062500
vt 0.812500 0.062500
vt 0.937500 0.062500
vt 0.325255 0.415711
vt 0.562500 0.437500
vt 0.268836 0.463519
vt 0.562500 0.187500
vt 0.687500 0.187500
vt 0.562500 0.062500
vt 0.937500 0.312500
vt 0.812500 0.312500
vt 0.937500 0.437500
vt 0.312500 0.937500
vt 0.187500 0.625000
vt 0.812500 0.187500
vt 0.800716 0.372483
vt 0.687500 0.062500
vt 0.687500 0.437500
vt 0.937500 0.187500
vt 0.437500 0.187500
vt 0.062500 0.187500
vt 0.497032 0.689303
vt 0.937500 0.687500
vt 0.663180 0.377306
vt 0.062500 0.812500
vt 0.812500 0.937500
vt 0.187500 0.562500
vt 0.740326 0.471298
vt 0.702263 0.424465
vt 0.544739 0.236155
vt 0.244715 0.483829
vt 0.791488 0.534899
vt 0.493815 0.782169
vt 0.660551 0.646033
vt 0.580205 0.830830
vt 0.296906 0.332149
vt 0.336191 0.596359
vt 0.713437 0.300753
vt 0.750000 0.812500
vt 0.581168 0.672349
vt 0.281585 0.657008
vt 0.688844 0.757642
vt 0.423619 0.333779
vt 0.612830 0.685588
vt 0.646352 0.310977
vt 0.364019 0.294291
vt 0.472198 0.294097
vt 0.565225 0.724663
vt 0.418341 0.256674
vn -0.048425 -0.048425 0.997652
vn 0.019811 -0.019811 0.999607
vn -0.035770 0.035770 0.998720
vn -0.011115 -0.011115 0.999876
vn 0.000000 0.000000 1.000000
vn -0.272692 0.002219 0.962099
vn 0.015542 0.258296 0.965941
vn 0.291724 0.005664 0.956486
vn 0.000157 -0.256499 0.966545
vn -0.125344 0.136845 0.982630
vn 0.122594 0.136263 0.983058
vn -0.108312 -0.162202 0.980795
vn 0.180585 -0.124523 0.975645
vn 0.019816 -0.234812 0.971839
vn -0.026724 -0.181639 0.983002
vn 0.235790 -0.019556 0.971607
vn 0.198248 0.001747 0.980150
vn -0.001383 0.189080 0.981961
vn 0.003253 0.204653 0.978829
vn -0.184118 -0.019651 0.982708
vn -0.219636 0.017062 0.975433
vn -0.033011 -0.257870 0.965616
vn 0.123732 0.227197 0.965957
vn -0.168918 0.146489 0.974683
vn -0.048786 -0.062091 0.996877
vn 0.259627 -0.078450 0.962517
vn 0.016582 -0.295270 0.955270
vn -0.002444 0.002390 0.999994
vn 0.137588 -0.144785 0.979850
vn -0.005302 -0.237791 0.971302
vn -0.130907 -0.135449 0.982098
vn 0.189688 0.152048 0.970000
vn 0.298100 0.120639 0.946880
vn -0.001437 -0.002083 0.999997
vn 0.110949 0.155802 0.981538
vn -0.050559 0.289703 0.955780
vn -0.240794 0.061885 0.968601
vn -0.142378 0.143431 0.979365
vn -0.242266 0.009816 0.970160
vn 0.044650 0.286002 0.957188
vn -0.281878 -0.026817 0.959075
vn -0.046528 -0.237852 0.970186
vn 0.190670 0.024245 0.981355
vn 0.226896 -0.013085 0.973831
vn -0.030804 0.252991 0.966978
vn 0.077832 0.210637 0.974461
vn -0.266702 -0.064624 0.961610
vn -0.234434 0.036446 0.971449
vn -0.084112 0.151435 0.984882
vn -0.001329 -0.000456 0.999999
vn 0.226428 0.222173 0.948351
vn 0.365637 -0.060440 0.928793
vn -0.058214 0.049993 0.997052
vn -0.107337 0.224538 0.968536
vn -0.249659 -0.014296 0.968228
vn 0.000145 0.367542 0.930007
vn 0.000180 -0.000853 1.000000
vn -0.194527 -0.083376 0.977347
vn -0.294884 0.028825 0.955098
vn 0.000900 -0.000073 1.000000
vn 0.147757 -0.198296 0.968941
vn -0.032729 -0.286084 0.957645
vn 0.000540 0.000958 0.999999
vn -0.260439 0.004229 0.965481
vn -0.129411 0.029084 0.991164
vn -0.121233 -0.012347 0.992547
vn 0.004549 0.219770 0.975541
vn 0.055709 0.088710 0.994498
vn -0.029056 0.129373 0.991170
vn -0.025006 0.239993 0.970453
vn 0.232375 -0.027728 0.972231
vn 0.121126 -0.040903 0.991794
vn 0.127167 0.075057 0.989037
vn 0.239583 0.021616 0.970635
vn -0.006076 -0.245146 0.969467
vn -0.008187 -0.112977 0.993564
vn 0.039604 -0.118543 0.992159
vn -0.004287 -0.264313 0.964427
vn 0.060613 -0.231452 0.970956
vn -0.000447 -0.000225 1.000000
vn -0.130778 0.082663 0.987960
vn -0.251504 -0.028928 0.967424
vn -0.305026 -0.088362 0.948236
vn -0.226081 -0.055772 0.972511
vn -0.273683 -0.005996 0.961801
vn 0.017172 0.233364 0.972238
vn 0.101315 0.178553 0.978700
vn 0.027904 0.282537 0.958850
vn -0.235474 0.007048 0.971855
vn -0.245934 0.010424 0.969230
vn -0.250794 0.015160 0.967922
vn -0.032559 0.206089 0.977991
vn -0.140958 0.142607 0.979691
vn -0.075571 0.075591 0.994271
vn 0.000550 -0.000523 1.000000
vn 0.291438 -0.143591 0.945751
vn -0.178427 0.332603 0.926034
vn -0.040011 0.235499 0.971051
vn -0.026560 0.274294 0.961279
vn 0.193026 0.053412 0.979739
vn 0.106206 0.154339 0.982293
vn 0.055966 0.065679 0.996270
vn 0.154975 0.182384 0.970937
vn 0.000001 -0.000173 1.000000
vn -0.075813 0.093036 0.992772
vn 0.346808 0.206398 0.914945
vn 0.215313 0.099601 0.971452
vn 0.325670 0.039321 0.944665
vn -0.067320 -0.193363 0.978815
vn 0.122664 -0.113338 0.985955
vn 0.000589 0.000658 1.000000
vn -0.034492 -0.185089 0.982116
vn -0.064949 -0.067064 0.995632
vn -0.135858 -0.161352 0.977501
vn -0.018868 -0.226616 0.973801
vn -0.032785 -0.242792 0.969524
vn -0.008846 -0.233102 0.972412
vn 0.056065 -0.192602 0.979674
vn 0.065124 -0.065764 0.995708
vn -0.067436 -0.064169 0.995658
vn 0.000000 -0.000000 1.000000
vn -0.112317 -0.113407 0.987180
vn 0.048723 -0.391642 0.918827
vn 0.074970 -0.240204 0.967823
vn -0.003660 -0.247153 0.968970
vn 0.221135 0.001115 0.975243
vn 0.254534 -0.035772 0.966402
vn 0.284751 -0.063150 0.956519
vn -0.011497 0.236340 0.971602
vn -0.268707 0.008588 0.963184
vn 0.147765 -0.139977 0.979067
vn 0.291291 -0.089981 0.952393
vn 0.009809 -0.246637 0.969058
vn -0.004753 0.003567 0.999982
vn 0.196567 -0.043855 0.979509
vn -0.057462 -0.299405 0.952394
vn -0.187756 -0.037085 0.981515
vn 0.000196 -0.001292 0.999999
vn 0.236991 0.008747 0.971473
vn 0.038404 -0.034945 0.998651
vn -0.207583 0.041469 0.977338
vn 0.046368 0.167927 0.984708
vn -0.287155 0.078297 0.954679
vn 0.093762 -0.071690 0.993010
vn 0.026708 -0.017322 0.999493
vn 0.053115 -0.273835 0.960309
vn -0.174745 -0.080963 0.981279
vn 0.294520 0.101368 0.950254
vn -0.138305 0.201470 0.969681
vn 0.061756 0.066831 0.995851
vn 0.120357 0.309295 0.943319
vn -0.122821 -0.103561 0.987011
vn -0.087490 0.054550 0.994671
vn 0.174088 -0.127025 0.976503
vn 0.112307 0.182029 0.976859
vn -0.000992 -0.001947 0.999998
vn -0.174718 0.062473 0.982635
vn 0.127344 0.154075 0.979819
vn -0.057736 -0.086819 0.994550
vn 0.046077 0.057865 0.997261
vn 0.119744 -0.137535 0.983232
vn -0.067906 -0.172017 0.982751
vn -0.077639 -0.121953 0.989495
vn 0.078951 0.104119 0.991426
vn -0.073228 -0.247867 0.966023
f 1/1/1 113/113/113 66/66/66
f 31/31/31 137/137/137 113/113/113
f 132/132/132 127/127/127 26/26/26
f 112/112/112 31/31/31 113/113/113
f 83/83/83 147/147/147 59/59/59
f 106/106/106 33/33/33 51/51/51
f 46/46/46 86/86/86 87/87/87
f 84/84/84 41/41/41 47/47/47
f 137/137/137 66/66/66 113/113/113
f 75/75/75 115/115/115 15/15/15
f 12/12/12 152/152/152 84/84/84
f 153/153/153 81/81/81 60/60/60
f 25/25/25 120/120/120 152/152/152
f 76/76/76 113/113/113 1/1/1
f 76/76/76 112/112/112 113/113/113
f 15/15/15 112/112/112 76/76/76
f 115/115/115 112/112/112 15/15/15
f 30/30/30 115/115/115 117/117/117
f 107/107/107 51/51/51 33/33/33
f 75/75/75 117/117/117 115/115/115
f 37/37/37 143/143/143 81/81/81
f 145/145/145 140/140/140 154/154/154
f 51/51/51 150/150/150 103/103/103
f 136/136/136 22/22/22 30/30/30
f 107/107/107 43/43/43 11/11/11
f 54/54/54 98/98/98 49/49/49
f 42/42/42 112/112/112 115/115/115
f 58/58/58 84/84/84 152/152/152
f 110/110/110 163/163/163 146/146/146
f 60/60/60 120/120/120 111/111/111
f 148/148/148 106/106/106 103/103/103
f 159/159/159 63/63/63 111/111/111
f 147/147/147 83/83/83 122/122/122
f 104/104/104 80/80/80 34/34/34
f 10/10/10 49/49/49 98/98/98
f 160/160/160 164/164/164 156/156/156
f 146/146/146 136/136/136 123/123/123
f 117/117/117 62/62/62 30/30/30
f 43/43/43 139/139/139 100/100/100
f 143/143/143 59/59/59 147/147/147
f 77/77/77 2/2/2 119/119/119
f 77/77/77 119/119/119 118/118/118
f 116/116/116 12/12/12 42/42/42
f 58/58/58 152/152/152 120/120/120
f 63/63/63 28/28/28 121/121/121
f 119/119/119 29/29/29 118/118/118
f 40/40/40 87/87/87 86/86/86
f 125/125/125 27/27/27 62/62/62
f 135/135/135 72/72/72 17/17/17
f 136/136/136 30/30/30 62/62/62
f 95/95/95 53/53/53 153/153/153
f 60/60/60 122/122/122 120/120/120
f 153/153/153 53/53/53 157/157/157
f 11/11/11 32/32/32 107/107/107
f 105/105/105 53/53/53 57/57/57
f 150/150/150 160/160/160 34/34/34
f 32/32/32 158/158/158 150/150/150
f 60/60/60 95/95/95 153/153/153
f 40/40/40 151/151/151 23/23/23
f 24/24/24 138/138/138 164/164/164
f 82/82/82 47/47/47 41/41/41
f 45/45/45 98/98/98 36/36/36
f 82/82/82 137/137/137 47/47/47
f 63/63/63 163/163/163 110/110/110
f 114/114/114 42/42/42 12/12/12
f 62/62/62 117/117/117 125/125/125
f 20/20/20 137/137/137 82/82/82
f 38/38/38 92/92/92 94/94/94
f 20/20/20 66/66/66 137/137/137
f 55/55/55 20/20/20 82/82/82
f 69/69/69 94/94/94 92/92/92
f 43/43/43 100/100/100 101/101/101
f 8/8/8 108/108/108 128/128/128
f 141/141/141 48/48/48 38/38/38
f 50/50/50 80/80/80 134/134/134
f 65/65/65 141/141/141 94/94/94
f 126/126/126 71/71/71 26/26/26
f 38/38/38 94/94/94 141/141/141
f 92/92/92 18/18/18 69/69/69
f 24/24/24 149/149/149 97/97/97
f 159/159/159 25/25/25 162/162/162
f 46/46/46 35/35/35 142/142/142
f 29/29/29 119/119/119 135/135/135
f 23/23/23 151/151/151 164/164/164
f 158/158/158 23/23/23 160/160/160
f 35/35/35 46/46/46 101/101/101
f 129/129/129 45/45/45 36/36/36
f 27/27/27 124/124/124 123/123/123
f 85/85/85 41/41/41 59/59/59
f 78/78/78 125/125/125 9/9/9
f 70/70/70 129/129/129 99/99/99
f 83/83/83 59/59/59 41/41/41
f 129/129/129 70/70/70 18/18/18
f 36/36/36 99/99/99 129/129/129
f 93/93/93 38/38/38 48/48/48
f 38/38/38 45/45/45 92/92/92
f 52/52/52 128/128/128 108/108/108
f 65/65/65 94/94/94 3/3/3
f 72/72/72 135/135/135 119/119/119
f 94/94/94 69/69/69 3/3/3
f 39/39/39 90/90/90 48/48/48
f 21/21/21 141/141/141 65/65/65
f 18/18/18 92/92/92 129/129/129
f 6/6/6 91/91/91 64/64/64
f 163/163/163 159/159/159 165/165/165
f 93/93/93 45/45/45 38/38/38
f 89/89/89 39/39/39 48/48/48
f 13/13/13 124/124/124 131/131/131
f 45/45/45 129/129/129 92/92/92
f 9/9/9 125/125/125 117/117/117
f 64/64/64 89/89/89 21/21/21
f 55/55/55 82/82/82 85/85/85
f 6/6/6 85/85/85 91/91/91
f 59/59/59 91/91/91 85/85/85
f 41/41/41 85/85/85 82/82/82
f 6/6/6 55/55/55 85/85/85
f 110/110/110 146/146/146 61/61/61
f 59/59/59 39/39/39 91/91/91
f 149/149/149 151/151/151 56/56/56
f 143/143/143 39/39/39 59/59/59
f 118/118/118 29/29/29 79/79/79
f 54/54/54 49/49/49 105/105/105
f 145/145/145 144/144/144 134/134/134
f 33/33/33 106/106/106 108/108/108
f 119/119/119 2/2/2 72/72/72
f 49/49/49 157/157/157 53/53/53
f 11/11/11 158/158/158 32/32/32
f 152/152/152 162/162/162 25/25/25
f 10/10/10 98/98/98 93/93/93
f 21/21/21 89/89/89 141/141/141
f 97/97/97 54/54/54 24/24/24
f 51/51/51 32/32/32 150/150/150
f 79/79/79 133/133/133 118/118/118
f 118/118/118 133/133/133 14/14/14
f 79/79/79 131/131/131 124/124/124
f 123/123/123 61/61/61 146/146/146
f 149/149/149 164/164/164 151/151/151
f 48/48/48 141/141/141 89/89/89
f 78/78/78 133/133/133 125/125/125
f 62/62/62 27/27/27 123/123/123
f 162/162/162 165/165/165 159/159/159
f 148/148/148 96/96/96 52/52/52
f 81/81/81 153/153/153 37/37/37
f 156/156/156 34/34/34 160/160/160
f 5/5/5 95/95/95 111/111/111
f 10/10/10 93/93/93 90/90/90
f 130/130/130 143/143/143 37/37/37
f 157/157/157 37/37/37 153/153/153
f 27/27/27 125/125/125 133/133/133
f 121/121/121 5/5/5 111/111/111
f 160/160/160 150/150/150 158/158/158
f 122/122/122 58/58/58 120/120/120
f 17/17/17 126/126/126 135/135/135
f 52/52/52 108/108/108 106/106/106
f 51/51/51 103/103/103 106/106/106
f 60/60/60 111/111/111 95/95/95
f 28/28/28 134/134/134 80/80/80
f 104/104/104 95/95/95 5/5/5
f 28/28/28 140/140/140 134/134/134
f 26/26/26 128/128/128 96/96/96
f 57/57/57 95/95/95 104/104/104
f 144/144/144 145/145/145 132/132/132
f 131/131/131 44/44/44 13/13/13
f 127/127/127 13/13/13 44/44/44
f 45/45/45 93/93/93 98/98/98
f 110/110/110 28/28/28 63/63/63
f 138/138/138 24/24/24 105/105/105
f 9/9/9 117/117/117 75/75/75
f 48/48/48 90/90/90 93/93/93
f 54/54/54 97/97/97 98/98/98
f 130/130/130 90/90/90 39/39/39
f 95/95/95 57/57/57 53/53/53
f 99/99/99 36/36/36 56/56/56
f 80/80/80 104/104/104 5/5/5
f 96/96/96 144/144/144 132/132/132
f 126/126/126 17/17/17 71/71/71
f 109/109/109 12/12/12 116/116/116
f 25/25/25 159/159/159 111/111/111
f 52/52/52 96/96/96 128/128/128
f 103/103/103 150/150/150 34/34/34
f 36/36/36 98/98/98 97/97/97
f 37/37/37 157/157/157 130/130/130
f 16/16/16 100/100/100 139/139/139
f 58/58/58 122/122/122 83/83/83
f 26/26/26 96/96/96 132/132/132
f 159/159/159 163/163/163 63/63/63
f 120/120/120 25/25/25 111/111/111
f 12/12/12 109/109/109 152/152/152
f 14/14/14 133/133/133 78/78/78
f 156/156/156 164/164/164 138/138/138
f 13/13/13 154/154/154 124/124/124
f 44/44/44 135/135/135 126/126/126
f 149/149/149 24/24/24 164/164/164
f 34/34/34 156/156/156 104/104/104
f 57/57/57 104/104/104 156/156/156
f 121/121/121 80/80/80 5/5/5
f 63/63/63 121/121/121 111/111/111
f 121/121/121 28/28/28 80/80/80
f 77/77/77 118/118/118 14/14/14
f 101/101/101 11/11/11 43/43/43
f 147/147/147 122/122/122 81/81/81
f 131/131/131 79/79/79 29/29/29
f 140/140/140 145/145/145 134/134/134
f 49/49/49 10/10/10 157/157/157
f 124/124/124 27/27/27 79/79/79
f 139/139/139 33/33/33 108/108/108
f 134/134/134 144/144/144 50/50/50
f 133/133/133 79/79/79 27/27/27
f 26/26/26 127/127/127 126/126/126
f 40/40/40 88/88/88 151/151/151
f 11/11/11 155/155/155 158/158/158
f 103/103/103 34/34/34 50/50/50
f 140/140/140 28/28/28 110/110/110
f 61/61/61 124/124/124 154/154/154
f 127/127/127 132/132/132 154/154/154
f 97/97/97 56/56/56 36/36/36
f 86/86/86 46/46/46 142/142/142
f 128/128/128 26/26/26 71/71/71
f 29/29/29 135/135/135 131/131/131
f 74/74/74 139/139/139 108/108/108
f 43/43/43 107/107/107 139/139/139
f 137/137/137 31/31/31 47/47/47
f 114/114/114 47/47/47 31/31/31
f 88/88/88 40/40/40 86/86/86
f 33/33/33 139/139/139 107/107/107
f 102/102/102 35/35/35 100/100/100
f 68/68/68 142/142/142 102/102/102
f 88/88/88 99/99/99 56/56/56
f 142/142/142 35/35/35 102/102/102
f 62/62/62 123/123/123 136/136/136
f 122/122/122 60/60/60 81/81/81
f 19/19/19 86/86/86 142/142/142
f 56/56/56 151/151/151 88/88/88
f 44/44/44 126/126/126 127/127/127
f 105/105/105 24/24/24 54/54/54
f 42/42/42 114/114/114 112/112/112
f 44/44/44 131/131/131 135/135/135
f 83/83/83 41/41/41 58/58/58
f 87/87/87 155/155/155 46/46/46
f 35/35/35 101/101/101 100/100/100
f 80/80/80 50/50/50 34/34/34
f 64/64/64 91/91/91 89/89/89
f 87/87/87 40/40/40 23/23/23
f 67/67/67 88/88/88 86/86/86
f 7/7/7 99/99/99 88/88/88
f 7/7/7 70/70/70 99/99/99
f 67/67/67 7/7/7 88/88/88
f 19/19/19 67/67/67 86/86/86
f 68/68/68 19/19/19 142/142/142
f 73/73/73 102/102/102 100/100/100
f 4/4/4 68/68/68 102/102/102
f 73/73/73 4/4/4 102/102/102
f 16/16/16 73/73/73 100/100/100
f 74/74/74 16/16/16 139/139/139
f 8/8/8 74/74/74 108/108/108
f 39/39/39 89/89/89 91/91/91
f 116/116/116 22/22/22 109/109/109
f 147/147/147 81/81/81 143/143/143
f 57/57/57 138/138/138 105/105/105
f 61/61/61 123/123/123 124/124/124
f 106/106/106 148/148/148 52/52/52
f 23/23/23 158/158/158 87/87/87
f 128/128/128 71/71/71 8/8/8
f 90/90/90 130/130/130 157/157/157
f 32/32/32 51/51/51 107/107/107
f 138/138/138 57/57/57 156/156/156
f 84/84/84 58/58/58 41/41/41
f 31/31/31 112/112/112 114/114/114
f 53/53/53 105/105/105 49/49/49
f 155/155/155 101/101/101 46/46/46
f 154/154/154 132/132/132 145/145/145
f 84/84/84 114/114/114 12/12/12
f 101/101/101 155/155/155 11/11/11
f 114/114/114 84/84/84 47/47/47
f 97/97/97 149/149/149 56/56/56
f 154/154/154 13/13/13 127/127/127
f 90/90/90 157/157/157 10/10/10
f 143/143/143 130/130/130 39/39/39
f 140/140/140 161/161/161 154/154/154
f 164/164/164 160/160/160 23/23/23
f 116/116/116 30/30/30 22/22/22
f 87/87/87 158/158/158 155/155/155
f 161/161/161 61/61/61 154/154/154
f 22/22/22 165/165/165 162/162/162
f 61/61/61 161/161/161 110/110/110
f 161/161/161 140/140/140 110/110/110
f 109/109/109 162/162/162 152/152/152
f 162/162/162 109/109/109 22/22/22
f 144/144/144 96/96/96 148/148/148
f 146/146/146 163/163/163 136/136/136
f 50/50/50 148/148/148 103/103/103
f 148/148/148 50/50/50 144/144/144
f 163/163/163 165/165/165 136/136/136
f 165/165/165 22/22/22 136/136/136
f 30/30/30 116/116/116 115/115/115
f 42/42/42 115/115/115 116/116/116
