# frame 000336 
# time 0.168500 
# name Cloth3D 
v -0.000000 0.000000 -0.000000
v 1.000000 0.000000 -0.000000
v -0.000000 1.000000 0.000000
v 1.000000 1.000000 0.000000
v 0.500871 0.500168 0.079034
v -0.000000 0.500000 0.000000
v 0.500000 1.000000 0.000000
v 1.000000 0.500000 0.000000
v 0.500000 -0.000000 0.000000
v 0.247304 0.753488 0.059875
v 0.753272 0.752738 0.057172
v 0.247811 0.247707 0.053060
v 0.753490 0.246994 0.058731
v 0.750000 0.000000 0.000000
v 0.250000 0.000000 0.000000
v 1.000000 0.750000 0.000000
v 1.000000 0.250000 0.000000
v 0.250000 1.000000 0.000000
v 0.750000 1.000000 0.000000
v 0.000000 0.250000 0.000000
v 0.000000 0.750000 -0.000000
v 0.364531 0.217373 0.056254
v 0.630668 0.774205 0.061045
v 0.484814 0.770371 0.079218
v 0.374577 0.372313 0.079186
v 0.874993 0.375155 0.026589
v 0.625760 0.123889 0.032788
v 0.627976 0.372680 0.079034
v 0.876205 0.123981 0.019801
v 0.374961 0.123985 0.030386
v 0.124211 0.124225 0.018431
v 0.753476 0.689397 0.061553
v 0.875535 0.624739 0.029508
v 0.627862 0.627461 0.079034
v 0.876273 0.875797 0.018670
v 0.375049 0.875475 0.029394
v 0.259496 0.601200 0.067426
v 0.123700 0.876518 0.022652
v 0.124860 0.625566 0.029172
v 0.625464 0.875869 0.030680
v 0.122776 0.374681 0.035549
v 0.249487 0.124412 0.024768
v 0.878036 0.750850 0.034881
v 0.877544 0.249058 0.032939
v 0.249092 0.877405 0.032351
v 0.751162 0.876332 0.028782
v 0.123851 0.249311 0.027315
v 0.123237 0.751325 0.031755
v 0.302627 0.717129 0.066409
v 0.696016 0.508204 0.079107
v 0.753743 0.625963 0.065927
v 0.879892 0.499998 0.044222
v 0.373475 0.645528 0.079186
v 0.374508 0.753290 0.062514
v 0.000000 0.375000 0.000000
v 0.500372 0.877785 0.038280
v 0.500736 0.627956 0.079035
v 0.246737 0.373779 0.065717
v 0.123027 0.500166 0.036631
v 0.373281 0.500228 0.079035
v 0.627265 0.245952 0.069549
v 0.500488 0.124224 0.031846
v 0.500782 0.372519 0.079035
v 0.000000 0.625000 0.000000
v 0.000000 0.875000 0.000000
v 0.000000 0.125000 0.000000
v 0.625000 1.000000 0.000000
v 0.875000 1.000000 0.000000
v 0.125000 1.000000 0.000000
v 0.375000 1.000000 0.000000
v 1.000000 0.375000 0.000000
v 1.000000 0.125000 0.000000
v 1.000000 0.875000 0.000000
v 1.000000 0.625000 0.000000
v 0.375000 0.000000 0.000000
v 0.125000 0.000000 0.000000
v 0.875000 0.000000 0.000000
v 0.625000 0.000000 0.000000
v 0.751374 0.123243 0.031054
v 0.628484 0.500222 0.079035
v 0.290236 0.552482 0.079191
v 0.062295 0.312432 0.013471
v 0.184294 0.437364 0.054879
v 0.184510 0.311170 0.049388
v 0.062178 0.437559 0.015769
v 0.687781 0.937730 0.013743
v 0.689183 0.814810 0.046801
v 0.562624 0.937249 0.013259
v 0.062042 0.687869 0.015562
v 0.185276 0.689277 0.048593
v 0.061707 0.562717 0.017740
v 0.187183 0.937949 0.011713
v 0.185275 0.815258 0.041523
v 0.062208 0.937832 0.006201
v 0.437186 0.563939 0.079035
v 0.836791 0.424053 0.043339
v 0.438020 0.816390 0.055469
v 0.311412 0.815723 0.049752
v 0.437584 0.938227 0.016896
v 0.939527 0.812992 0.018359
v 0.814791 0.814128 0.036710
v 0.937410 0.937321 0.000888
v 0.718188 0.600601 0.079179
v 0.564466 0.563939 0.079035
v 0.416733 0.693986 0.079179
v 0.817431 0.562553 0.060443
v 0.815303 0.688530 0.047809
v 0.937980 0.562356 0.016023
v 0.309290 0.258512 0.061908
v 0.584409 0.282443 0.079179
v 0.437113 0.436455 0.079035
v 0.187357 0.062402 0.009665
v 0.062208 0.062206 0.006764
v 0.185617 0.185576 0.037268
v 0.312483 0.062270 0.013293
v 0.311379 0.184749 0.047394
v 0.437694 0.062202 0.015136
v 0.812946 0.061891 0.012551
v 0.937737 0.062311 0.005094
v 0.324534 0.416968 0.079179
v 0.564527 0.436413 0.079035
v 0.267945 0.467441 0.079179
v 0.563126 0.184742 0.054398
v 0.689536 0.184393 0.051015
v 0.562830 0.062735 0.013565
v 0.937510 0.312404 0.012892
v 0.814050 0.311368 0.043194
v 0.938616 0.437452 0.018071
v 0.312424 0.937566 0.013221
v 0.185322 0.626065 0.049799
v 0.815484 0.184971 0.041862
v 0.802117 0.372128 0.047046
v 0.687922 0.061507 0.017300
v 0.691998 0.436760 0.079034
v 0.938112 0.187285 0.012231
v 0.437795 0.185209 0.049567
v 0.062350 0.187333 0.009811
v 0.788793 0.537621 0.079179
v 0.937939 0.687537 0.014648
v 0.667075 0.375121 0.079179
v 0.062092 0.812981 0.012302
v 0.813027 0.938419 0.014264
v 0.185665 0.562770 0.050563
v 0.750218 0.468032 0.079189
v 0.708871 0.421843 0.079186
v 0.536137 0.227700 0.079192
v 0.237733 0.493832 0.079192
v 0.802268 0.526168 0.079192
v 0.503832 0.792267 0.079192
v 0.664045 0.648896 0.079179
v 0.580588 0.833281 0.047082
v 0.294583 0.330270 0.066794
v 0.332410 0.599603 0.079189
v 0.717542 0.297630 0.072056
v 0.752383 0.815252 0.045751
v 0.583093 0.676111 0.079107
v 0.279145 0.659381 0.068455
v 0.691383 0.760916 0.061037
v 0.422188 0.329738 0.079189
v 0.616790 0.691152 0.079186
v 0.649382 0.307665 0.075556
v 0.362867 0.291625 0.067993
v 0.470023 0.286910 0.079191
v 0.569658 0.733335 0.079189
v 0.497564 0.693981 0.079126
vt 0.000000 0.000000
vt 1.000000 0.000000
vt 0.000000 1.000000
vt 1.000000 1.000000
vt 0.500000 0.500000
vt 0.000000 0.500000
vt 0.500000 1.000000
vt 1.000000 0.500000
vt 0.500000 0.000000
vt 0.250000 0.750000
vt 0.750000 0.750000
vt 0.250000 0.250000
vt 0.750000 0.250000
vt 0.750000 0.000000
vt 0.250000 0.000000
vt 1.000000 0.750000
vt 1.000000 0.250000
vt 0.250000 1.000000
vt 0.750000 1.000000
vt 0.000000 0.250000
vt 0.000000 0.750000
vt 0.365347 0.220303
vt 0.629073 0.770824
vt 0.484510 0.763103
vt 0.376139 0.374319
vt 0.875000 0.375000
vt 0.625000 0.125000
vt 0.625000 0.375000
vt 0.875000 0.125000
vt 0.375000 0.125000
vt 0.125000 0.125000
vt 0.750000 0.687500
vt 0.875000 0.625000
vt 0.625000 0.625000
vt 0.875000 0.875000
vt 0.375000 0.875000
vt 0.262101 0.599801
vt 0.125000 0.875000
vt 0.125000 0.625000
vt 0.625000 0.875000
vt 0.125000 0.375000
vt 0.250000 0.125000
vt 0.875000 0.750000
vt 0.875000 0.250000
vt 0.250000 0.875000
vt 0.750000 0.875000
vt 0.125000 0.250000
vt 0.125000 0.750000
vt 0.304602 0.713891
vt 0.690882 0.507820
vt 0.750000 0.625000
vt 0.875000 0.500000
vt 0.374816 0.642679
vt 0.375000 0.750000
vt 0.000000 0.375000
vt 0.500000 0.875000
vt 0.500000 0.625000
vt 0.250000 0.375000
vt 0.125000 0.500000
vt 0.375000 0.500000
vt 0.625000 0.250000
vt 0.500000 0.125000
vt 0.500000 0.375000
vt 0.000000 0.625000
vt 0.000000 0.875000
vt 0.000000 0.125000
vt 0.625000 1.000000
vt 0.875000 1.000000
vt 0.125000 1.000000
vt 0.375000 1.000000
vt 1.000000 0.375000
vt 1.000000 0.125000
vt 1.000000 0.875000
vt 1.000000 0.625000
vt 0.375000 0.000000
vt 0.125000 0.000000
vt 0.875000 0.000000
vt 0.625000 0.000000
vt 0.750000 0.125000
vt 0.625000 0.500000
vt 0.293764 0.551322
vt 0.062500 0.312500
vt 0.187500 0.437500
vt 0.187500 0.312500
vt 0.062500 0.437500
vt 0.687500 0.937500
vt 0.687500 0.812500
vt 0.562500 0.937500
vt 0.062500 0.687500
vt 0.187500 0.687500
vt 0.062500 0.562500
vt 0.187500 0.937500
vt 0.187500 0.812500
vt 0.062500 0.937500
vt 0.437500 0.562500
vt 0.834853 0.423541
vt 0.437500 0.812500
vt 0.312500 0.812500
vt 0.437500 0.937500
vt 0.937500 0.812500
vt 0.812500 0.812500
vt 0.937500 0.937500
vt 0.713225 0.598780
vt 0.562500 0.562500
vt 0.417419 0.689859
vt 0.812500 0.562500
vt 0.812500 0.687500
vt 0.937500 0.562500
vt 0.311128 0.261404
vt 0.582528 0.287120
vt 0.437500 0.437500
vt 0.187500 0.062500
vt 0.062500 0.062500
vt 0.187500 0.187500
vt 0.312500 0.062500
vt 0.312500 0.187500
vt 0.437500 0.062500
vt 0.812500 0.062500
vt 0.937500 0.062500
vt 0.327278 0.418030
vt 0.562500 0.437500
vt 0.272405 0.467592
vt 0.562500 0.187500
vt 0.687500 0.187500
vt 0.562500 0.062500
vt 0.937500 0.312500
vt 0.812500 0.312500
vt 0.937500 0.437500
vt 0.312500 0.937500
vt 0.187500 0.625000
vt 0.812500 0.187500
vt 0.800716 0.372483
vt 0.687500 0.062500
vt 0.687500 0.437500
vt 0.937500 0.187500
vt 0.437500 0.187500
vt 0.062500 0.187500
vt 0.780431 0.536573
vt 0.937500 0.687500
vt 0.663376 0.377135
vt 0.062500 0.812500
vt 0.812500 0.937500
vt 0.187500 0.562500
vt 0.743829 0.468359
vt 0.704208 0.422805
vt 0.535182 0.234750
vt 0.243444 0.493699
vt 0.792995 0.525361
vt 0.503212 0.783773
vt 0.660674 0.646175
vt 0.580205 0.830830
vt 0.296906 0.332149
vt 0.334652 0.597679
vt 0.713437 0.300753
vt 0.750000 0.812500
vt 0.581168 0.672349
vt 0.281585 0.657008
vt 0.688844 0.757642
vt 0.422825 0.332852
vt 0.614359 0.687374
vt 0.646352 0.310977
vt 0.364019 0.294291
vt 0.469874 0.291335
vt 0.568081 0.728053
vt 0.497032 0.689303
vn -0.054227 -0.054227 0.997055
vn 0.042148 -0.042148 0.998222
vn -0.050557 0.050557 0.997441
vn 0.008841 0.008841 0.999922
vn 0.000000 0.000000 1.000000
vn -0.259939 -0.007986 0.965592
vn 0.014180 0.233872 0.972164
vn 0.265153 0.008393 0.964170
vn 0.006766 -0.221241 0.975196
vn -0.106701 0.115533 0.987556
vn 0.121746 0.118768 0.985430
vn -0.120616 -0.140020 0.982775
vn 0.163697 -0.112814 0.980039
vn 0.018331 -0.234471 0.971950
vn -0.012992 -0.180924 0.983411
vn 0.261166 -0.015103 0.965176
vn 0.198483 -0.002282 0.980102
vn -0.005823 0.197498 0.980286
vn -0.002724 0.221253 0.975213
vn -0.183968 -0.014104 0.982831
vn -0.218898 0.011899 0.975675
vn -0.036721 -0.211811 0.976620
vn 0.069637 0.252561 0.965072
vn -0.125949 0.122118 0.984492
vn -0.054677 -0.064385 0.996426
vn 0.244111 -0.063294 0.967680
vn -0.001245 -0.291464 0.956581
vn -0.002420 0.002454 0.999994
vn 0.140735 -0.145422 0.979309
vn -0.021901 -0.267318 0.963359
vn -0.112590 -0.118149 0.986592
vn 0.179356 0.070527 0.981253
vn 0.276884 0.051111 0.959543
vn -0.001443 -0.001993 0.999997
vn 0.119702 0.159308 0.979945
vn -0.028773 0.294148 0.955327
vn -0.189164 0.084448 0.978307
vn -0.141824 0.144216 0.979330
vn -0.272503 0.017759 0.961991
vn 0.030542 0.286231 0.957674
vn -0.287655 -0.034057 0.957128
vn -0.050887 -0.229257 0.972035
vn 0.221001 0.028185 0.974866
vn 0.251014 -0.006063 0.967965
vn -0.031458 0.262122 0.964522
vn 0.048679 0.243049 0.968792
vn -0.247454 -0.064831 0.966728
vn -0.246135 0.031924 0.968710
vn -0.054411 0.112924 0.992113
vn -0.001267 -0.000463 0.999999
vn 0.215194 0.151554 0.964740
vn 0.359723 -0.027132 0.932665
vn -0.056155 0.061010 0.996556
vn -0.089851 0.170371 0.981275
vn -0.228079 -0.008648 0.973604
vn 0.004698 0.362439 0.931996
vn 0.000188 -0.000860 1.000000
vn -0.161306 -0.096905 0.982135
vn -0.305419 0.017507 0.952057
vn 0.000901 -0.000008 1.000000
vn 0.090570 -0.181269 0.979254
vn -0.009479 -0.318229 0.947966
vn 0.000514 0.000937 0.999999
vn -0.258559 0.008767 0.965956
vn -0.148794 0.024052 0.988576
vn -0.132357 -0.012153 0.991128
vn -0.002454 0.211247 0.977430
vn 0.052992 0.123238 0.990961
vn -0.021570 0.143905 0.989356
vn -0.013567 0.234981 0.971905
vn 0.242249 -0.020369 0.970000
vn 0.139582 -0.027787 0.989821
vn 0.155815 0.069408 0.985345
vn 0.240711 0.004403 0.970587
vn -0.007246 -0.220233 0.975420
vn -0.011936 -0.131927 0.991188
vn 0.029030 -0.142015 0.989439
vn -0.015945 -0.238633 0.970979
vn 0.051892 -0.249500 0.966984
vn -0.000447 -0.000225 1.000000
vn -0.089931 0.081048 0.992645
vn -0.246418 -0.027773 0.968765
vn -0.274913 -0.073676 0.958642
vn -0.212628 -0.071771 0.974494
vn -0.281897 -0.010578 0.959386
vn -0.000142 0.235490 0.971877
vn 0.022242 0.270021 0.962598
vn 0.022670 0.267163 0.963385
vn -0.238993 0.005144 0.971008
vn -0.244934 0.018098 0.969371
vn -0.257511 0.015376 0.966153
vn -0.032735 0.218495 0.975289
vn -0.148423 0.142071 0.978666
vn -0.081561 0.082839 0.993220
vn 0.000539 -0.000520 1.000000
vn 0.284050 -0.146900 0.947489
vn -0.138276 0.316464 0.938472
vn -0.025828 0.231215 0.972560
vn -0.017301 0.264589 0.964206
vn 0.217505 0.059681 0.974233
vn 0.139568 0.188196 0.972164
vn 0.068539 0.076785 0.994689
vn 0.128559 0.143622 0.981247
vn 0.000001 -0.000174 1.000000
vn -0.085759 0.076706 0.993359
vn 0.359382 0.254127 0.897922
vn 0.232868 0.018078 0.972340
vn 0.290516 0.036132 0.956188
vn -0.073084 -0.138240 0.987699
vn 0.074368 -0.078116 0.994167
vn 0.000607 0.000659 1.000000
vn -0.024590 -0.170805 0.984998
vn -0.069995 -0.070102 0.995081
vn -0.126654 -0.159264 0.979078
vn -0.021857 -0.217073 0.975911
vn -0.059643 -0.236324 0.969842
vn -0.002647 -0.244290 0.969699
vn 0.045811 -0.202470 0.978216
vn 0.075656 -0.075010 0.994309
vn -0.055834 -0.059761 0.996650
vn 0.000000 -0.000000 1.000000
vn -0.091502 -0.083274 0.992317
vn 0.089358 -0.381500 0.920040
vn 0.047458 -0.251888 0.966592
vn -0.006744 -0.252879 0.967474
vn 0.227376 0.001851 0.973805
vn 0.256625 0.014613 0.966401
vn 0.272379 -0.045826 0.961098
vn -0.003357 0.243052 0.970008
vn -0.272692 0.019434 0.961905
vn 0.150990 -0.163253 0.974962
vn 0.282007 -0.067174 0.957058
vn 0.004318 -0.250847 0.968017
vn -0.004044 0.003158 0.999987
vn 0.212829 -0.040654 0.976243
vn -0.059413 -0.288869 0.955523
vn -0.181040 -0.030394 0.983006
vn 0.195972 0.215828 0.956563
vn 0.249779 -0.017837 0.968139
vn 0.018135 -0.018943 0.999656
vn -0.215411 0.035738 0.975869
vn 0.045497 0.189822 0.980764
vn -0.287243 0.072105 0.955140
vn 0.094581 -0.077781 0.992474
vn 0.028779 -0.017020 0.999441
vn 0.044226 -0.257061 0.965383
vn -0.157077 -0.048383 0.986401
vn 0.229237 0.190728 0.954502
vn -0.076691 0.197961 0.977205
vn 0.045674 0.041201 0.998106
vn 0.102011 0.320036 0.941898
vn -0.105467 -0.103131 0.989061
vn -0.078735 0.055110 0.995371
vn 0.145437 -0.090421 0.985227
vn 0.085242 0.236152 0.967970
vn -0.000883 -0.001801 0.999998
vn -0.144468 0.054140 0.988027
vn 0.058795 0.204129 0.977177
vn -0.058050 -0.064518 0.996227
vn 0.033304 0.044826 0.998439
vn 0.062127 -0.093179 0.993709
vn -0.076647 -0.124564 0.989247
vn -0.058515 -0.084371 0.994715
vn 0.071589 0.101491 0.992257
vn 0.000242 -0.001300 0.999999
f 1/1/1 113/113/113 66/66/66
f 31/31/31 137/137/137 113/113/113
f 132/132/132 127/127/127 26/26/26
f 112/112/112 31/31/31 113/113/113
f 83/83/83 147/147/147 59/59/59
f 106/106/106 33/33/33 51/51/51
f 46/46/46 86/86/86 87/87/87
f 84/84/84 41/41/41 47/47/47
f 137/137/137 66/66/66 113/113/113
f 75/75/75 115/115/115 15/15/15
f 12/12/12 152/152/152 84/84/84
f 153/153/153 81/81/81 60/60/60
f 25/25/25 120/120/120 152/152/152
f 76/76/76 113/113/113 1/1/1
f 76/76/76 112/112/112 113/113/113
f 15/15/15 112/112/112 76/76/76
f 115/115/115 112/112/112 15/15/15
f 30/30/30 115/115/115 117/117/117
f 107/107/107 51/51/51 33/33/33
f 75/75/75 117/117/117 115/115/115
f 115/115/115 30/30/30 42/42/42
f 145/145/145 140/140/140 154/154/154
f 51/51/51 150/150/150 103/103/103
f 136/136/136 22/22/22 30/30/30
f 107/107/107 43/43/43 11/11/11
f 54/54/54 98/98/98 49/49/49
f 42/42/42 112/112/112 115/115/115
f 58/58/58 84/84/84 152/152/152
f 110/110/110 163/163/163 146/146/146
f 60/60/60 120/120/120 111/111/111
f 136/136/136 62/62/62 146/146/146
f 159/159/159 63/63/63 111/111/111
f 147/147/147 83/83/83 122/122/122
f 104/104/104 80/80/80 34/34/34
f 10/10/10 49/49/49 98/98/98
f 160/160/160 164/164/164 156/156/156
f 49/49/49 53/53/53 54/54/54
f 117/117/117 62/62/62 30/30/30
f 43/43/43 139/139/139 100/100/100
f 143/143/143 59/59/59 147/147/147
f 77/77/77 2/2/2 119/119/119
f 77/77/77 119/119/119 118/118/118
f 71/71/71 128/128/128 126/126/126
f 58/58/58 152/152/152 120/120/120
f 63/63/63 28/28/28 121/121/121
f 119/119/119 29/29/29 118/118/118
f 40/40/40 87/87/87 86/86/86
f 125/125/125 27/27/27 62/62/62
f 135/135/135 72/72/72 17/17/17
f 136/136/136 30/30/30 62/62/62
f 138/138/138 148/148/148 106/106/106
f 60/60/60 122/122/122 120/120/120
f 153/153/153 53/53/53 157/157/157
f 11/11/11 32/32/32 107/107/107
f 105/105/105 53/53/53 57/57/57
f 150/150/150 160/160/160 34/34/34
f 32/32/32 158/158/158 150/150/150
f 60/60/60 95/95/95 153/153/153
f 40/40/40 151/151/151 23/23/23
f 24/24/24 165/165/165 164/164/164
f 82/82/82 47/47/47 41/41/41
f 45/45/45 98/98/98 36/36/36
f 82/82/82 137/137/137 47/47/47
f 63/63/63 163/163/163 110/110/110
f 26/26/26 126/126/126 128/128/128
f 62/62/62 117/117/117 125/125/125
f 20/20/20 137/137/137 82/82/82
f 38/38/38 92/92/92 94/94/94
f 20/20/20 66/66/66 137/137/137
f 55/55/55 20/20/20 82/82/82
f 69/69/69 94/94/94 92/92/92
f 43/43/43 100/100/100 101/101/101
f 8/8/8 108/108/108 128/128/128
f 141/141/141 48/48/48 38/38/38
f 50/50/50 80/80/80 134/134/134
f 65/65/65 141/141/141 94/94/94
f 114/114/114 31/31/31 42/42/42
f 38/38/38 94/94/94 141/141/141
f 92/92/92 18/18/18 69/69/69
f 24/24/24 149/149/149 97/97/97
f 159/159/159 25/25/25 162/162/162
f 46/46/46 35/35/35 142/142/142
f 29/29/29 119/119/119 135/135/135
f 23/23/23 151/151/151 164/164/164
f 158/158/158 23/23/23 160/160/160
f 35/35/35 46/46/46 101/101/101
f 129/129/129 45/45/45 36/36/36
f 27/27/27 124/124/124 123/123/123
f 85/85/85 41/41/41 59/59/59
f 78/78/78 125/125/125 9/9/9
f 70/70/70 129/129/129 99/99/99
f 83/83/83 59/59/59 41/41/41
f 129/129/129 70/70/70 18/18/18
f 36/36/36 99/99/99 129/129/129
f 93/93/93 38/38/38 48/48/48
f 38/38/38 45/45/45 92/92/92
f 52/52/52 128/128/128 108/108/108
f 65/65/65 94/94/94 3/3/3
f 72/72/72 135/135/135 119/119/119
f 94/94/94 69/69/69 3/3/3
f 39/39/39 90/90/90 48/48/48
f 21/21/21 141/141/141 65/65/65
f 18/18/18 92/92/92 129/129/129
f 6/6/6 91/91/91 64/64/64
f 147/147/147 81/81/81 37/37/37
f 93/93/93 45/45/45 38/38/38
f 89/89/89 39/39/39 48/48/48
f 13/13/13 124/124/124 131/131/131
f 45/45/45 129/129/129 92/92/92
f 9/9/9 125/125/125 117/117/117
f 64/64/64 89/89/89 21/21/21
f 55/55/55 82/82/82 85/85/85
f 6/6/6 85/85/85 91/91/91
f 59/59/59 91/91/91 85/85/85
f 41/41/41 85/85/85 82/82/82
f 6/6/6 55/55/55 85/85/85
f 110/110/110 146/146/146 61/61/61
f 59/59/59 39/39/39 91/91/91
f 149/149/149 151/151/151 56/56/56
f 143/143/143 39/39/39 59/59/59
f 118/118/118 29/29/29 79/79/79
f 22/22/22 163/163/163 162/162/162
f 145/145/145 144/144/144 134/134/134
f 33/33/33 106/106/106 108/108/108
f 119/119/119 2/2/2 72/72/72
f 49/49/49 157/157/157 53/53/53
f 11/11/11 158/158/158 32/32/32
f 152/152/152 162/162/162 25/25/25
f 10/10/10 98/98/98 93/93/93
f 21/21/21 89/89/89 141/141/141
f 97/97/97 54/54/54 24/24/24
f 51/51/51 32/32/32 150/150/150
f 79/79/79 133/133/133 118/118/118
f 118/118/118 133/133/133 14/14/14
f 79/79/79 131/131/131 124/124/124
f 123/123/123 61/61/61 146/146/146
f 149/149/149 164/164/164 151/151/151
f 48/48/48 141/141/141 89/89/89
f 78/78/78 133/133/133 125/125/125
f 62/62/62 27/27/27 123/123/123
f 147/147/147 37/37/37 143/143/143
f 148/148/148 96/96/96 52/52/52
f 81/81/81 153/153/153 37/37/37
f 156/156/156 34/34/34 160/160/160
f 5/5/5 95/95/95 111/111/111
f 10/10/10 93/93/93 90/90/90
f 130/130/130 143/143/143 37/37/37
f 157/157/157 37/37/37 153/153/153
f 27/27/27 125/125/125 133/133/133
f 121/121/121 5/5/5 111/111/111
f 160/160/160 150/150/150 158/158/158
f 122/122/122 58/58/58 120/120/120
f 17/17/17 126/126/126 135/135/135
f 52/52/52 108/108/108 106/106/106
f 123/123/123 146/146/146 62/62/62
f 60/60/60 111/111/111 95/95/95
f 28/28/28 134/134/134 80/80/80
f 104/104/104 95/95/95 5/5/5
f 28/28/28 140/140/140 134/134/134
f 26/26/26 128/128/128 96/96/96
f 57/57/57 95/95/95 104/104/104
f 144/144/144 145/145/145 132/132/132
f 131/131/131 44/44/44 13/13/13
f 127/127/127 13/13/13 44/44/44
f 45/45/45 93/93/93 98/98/98
f 110/110/110 28/28/28 63/63/63
f 165/165/165 24/24/24 105/105/105
f 9/9/9 117/117/117 75/75/75
f 48/48/48 90/90/90 93/93/93
f 54/54/54 97/97/97 98/98/98
f 130/130/130 90/90/90 39/39/39
f 95/95/95 57/57/57 53/53/53
f 99/99/99 36/36/36 56/56/56
f 80/80/80 104/104/104 5/5/5
f 96/96/96 144/144/144 132/132/132
f 126/126/126 17/17/17 71/71/71
f 109/109/109 12/12/12 116/116/116
f 25/25/25 159/159/159 111/111/111
f 52/52/52 96/96/96 128/128/128
f 103/103/103 150/150/150 34/34/34
f 36/36/36 98/98/98 97/97/97
f 37/37/37 157/157/157 130/130/130
f 16/16/16 100/100/100 139/139/139
f 58/58/58 122/122/122 83/83/83
f 26/26/26 96/96/96 132/132/132
f 50/50/50 138/138/138 103/103/103
f 120/120/120 25/25/25 111/111/111
f 12/12/12 109/109/109 152/152/152
f 14/14/14 133/133/133 78/78/78
f 156/156/156 164/164/164 165/165/165
f 13/13/13 154/154/154 124/124/124
f 44/44/44 135/135/135 126/126/126
f 149/149/149 24/24/24 164/164/164
f 34/34/34 156/156/156 104/104/104
f 57/57/57 104/104/104 156/156/156
f 121/121/121 80/80/80 5/5/5
f 63/63/63 121/121/121 111/111/111
f 121/121/121 28/28/28 80/80/80
f 77/77/77 118/118/118 14/14/14
f 101/101/101 11/11/11 43/43/43
f 147/147/147 122/122/122 81/81/81
f 131/131/131 79/79/79 29/29/29
f 140/140/140 145/145/145 134/134/134
f 49/49/49 10/10/10 157/157/157
f 124/124/124 27/27/27 79/79/79
f 139/139/139 33/33/33 108/108/108
f 134/134/134 144/144/144 50/50/50
f 133/133/133 79/79/79 27/27/27
f 26/26/26 127/127/127 126/126/126
f 138/138/138 50/50/50 144/144/144
f 11/11/11 155/155/155 158/158/158
f 103/103/103 34/34/34 50/50/50
f 140/140/140 28/28/28 110/110/110
f 61/61/61 124/124/124 154/154/154
f 127/127/127 132/132/132 154/154/154
f 97/97/97 56/56/56 36/36/36
f 86/86/86 46/46/46 142/142/142
f 112/112/112 42/42/42 31/31/31
f 29/29/29 135/135/135 131/131/131
f 74/74/74 139/139/139 108/108/108
f 43/43/43 107/107/107 139/139/139
f 137/137/137 31/31/31 47/47/47
f 114/114/114 47/47/47 31/31/31
f 88/88/88 40/40/40 86/86/86
f 33/33/33 139/139/139 107/107/107
f 102/102/102 35/35/35 100/100/100
f 68/68/68 142/142/142 102/102/102
f 88/88/88 99/99/99 56/56/56
f 142/142/142 35/35/35 102/102/102
f 53/53/53 105/105/105 54/54/54
f 122/122/122 60/60/60 81/81/81
f 19/19/19 86/86/86 142/142/142
f 56/56/56 151/151/151 88/88/88
f 44/44/44 126/126/126 127/127/127
f 105/105/105 24/24/24 54/54/54
f 106/106/106 51/51/51 138/138/138
f 44/44/44 131/131/131 135/135/135
f 83/83/83 41/41/41 58/58/58
f 87/87/87 155/155/155 46/46/46
f 35/35/35 101/101/101 100/100/100
f 80/80/80 50/50/50 34/34/34
f 64/64/64 91/91/91 89/89/89
f 87/87/87 40/40/40 23/23/23
f 67/67/67 88/88/88 86/86/86
f 7/7/7 99/99/99 88/88/88
f 7/7/7 70/70/70 99/99/99
f 67/67/67 7/7/7 88/88/88
f 19/19/19 67/67/67 86/86/86
f 68/68/68 19/19/19 142/142/142
f 73/73/73 102/102/102 100/100/100
f 4/4/4 68/68/68 102/102/102
f 73/73/73 4/4/4 102/102/102
f 16/16/16 73/73/73 100/100/100
f 74/74/74 16/16/16 139/139/139
f 8/8/8 74/74/74 108/108/108
f 39/39/39 89/89/89 91/91/91
f 116/116/116 22/22/22 109/109/109
f 116/116/116 42/42/42 30/30/30
f 148/148/148 138/138/138 144/144/144
f 61/61/61 123/123/123 124/124/124
f 106/106/106 148/148/148 52/52/52
f 23/23/23 158/158/158 87/87/87
f 128/128/128 71/71/71 8/8/8
f 90/90/90 130/130/130 157/157/157
f 32/32/32 51/51/51 107/107/107
f 165/165/165 57/57/57 156/156/156
f 84/84/84 58/58/58 41/41/41
f 103/103/103 138/138/138 51/51/51
f 163/163/163 22/22/22 136/136/136
f 155/155/155 101/101/101 46/46/46
f 154/154/154 132/132/132 145/145/145
f 84/84/84 114/114/114 12/12/12
f 101/101/101 155/155/155 11/11/11
f 114/114/114 84/84/84 47/47/47
f 97/97/97 149/149/149 56/56/56
f 154/154/154 13/13/13 127/127/127
f 90/90/90 157/157/157 10/10/10
f 143/143/143 130/130/130 39/39/39
f 140/140/140 161/161/161 154/154/154
f 164/164/164 160/160/160 23/23/23
f 116/116/116 30/30/30 22/22/22
f 87/87/87 158/158/158 155/155/155
f 161/161/161 61/61/61 154/154/154
f 159/159/159 162/162/162 163/163/163
f 61/61/61 161/161/161 110/110/110
f 161/161/161 140/140/140 110/110/110
f 109/109/109 162/162/162 152/152/152
f 162/162/162 109/109/109 22/22/22
f 144/144/144 96/96/96 148/148/148
f 146/146/146 163/163/163 136/136/136
f 40/40/40 88/88/88 151/151/151
f 159/159/159 163/163/163 63/63/63
f 57/57/57 165/165/165 105/105/105
f 95/95/95 53/53/53 153/153/153
f 114/114/114 42/42/42 12/12/12
f 116/116/116 12/12/12 42/42/42
