# frame 000395 
# time 0.198000 
# name Cloth3D 
v -0.000000 0.000000 -0.000000
v 1.000000 0.000000 -0.000000
v -0.000000 1.000000 0.000000
v 1.000000 1.000000 0.000000
v 0.500138 0.500440 0.093784
v -0.000000 0.500000 0.000000
v 0.500000 1.000000 0.000000
v 1.000000 0.500000 0.000000
v 0.500000 -0.000000 0.000000
v 0.251789 0.749775 0.035899
v 0.748019 0.746978 0.032474
v 0.249267 0.249896 0.043739
v 0.747157 0.252138 0.032912
v 0.750000 0.000000 0.000000
v 0.250000 0.000000 0.000000
v 1.000000 0.750000 0.000000
v 1.000000 0.250000 0.000000
v 0.250000 1.000000 0.000000
v 0.750000 1.000000 0.000000
v 0.000000 0.250000 0.000000
v 0.000000 0.750000 -0.000000
v 0.366014 0.220070 0.048850
v 0.627892 0.772375 0.056848
v 0.708669 0.363137 0.073611
v 0.371058 0.369153 0.093936
v 0.878052 0.374975 0.040898
v 0.625325 0.120863 0.043163
v 0.628716 0.371634 0.093784
v 0.873824 0.125955 0.007211
v 0.375740 0.125246 0.026494
v 0.124786 0.124893 0.012518
v 0.751124 0.686348 0.053482
v 0.878647 0.624715 0.041564
v 0.629000 0.629373 0.093784
v 0.873672 0.873144 0.004002
v 0.374683 0.879275 0.041682
v 0.259820 0.600143 0.068029
v 0.125597 0.874652 0.009484
v 0.125012 0.624571 0.027981
v 0.623792 0.876562 0.034200
v 0.122193 0.374952 0.037410
v 0.249946 0.124476 0.025011
v 0.873128 0.746629 0.007690
v 0.873855 0.251432 0.017351
v 0.251381 0.874786 0.017072
v 0.748075 0.873186 0.013979
v 0.123740 0.249922 0.026447
v 0.125276 0.749763 0.021869
v 0.305785 0.714967 0.054749
v 0.697572 0.509134 0.093857
v 0.755441 0.626187 0.076867
v 0.880230 0.500567 0.048750
v 0.371441 0.647214 0.093936
v 0.374623 0.754894 0.070959
v 0.000000 0.375000 0.000000
v 0.499541 0.881457 0.051987
v 0.500012 0.629540 0.093785
v 0.245598 0.374396 0.070899
v 0.122175 0.499827 0.039598
v 0.371137 0.500359 0.093788
v 0.625020 0.245659 0.074390
v 0.500222 0.120907 0.044551
v 0.500309 0.371466 0.093785
v 0.000000 0.625000 0.000000
v 0.000000 0.875000 0.000000
v 0.000000 0.125000 0.000000
v 0.625000 1.000000 0.000000
v 0.875000 1.000000 0.000000
v 0.125000 1.000000 0.000000
v 0.375000 1.000000 0.000000
v 1.000000 0.375000 0.000000
v 1.000000 0.125000 0.000000
v 1.000000 0.875000 0.000000
v 1.000000 0.625000 0.000000
v 0.375000 0.000000 0.000000
v 0.125000 0.000000 0.000000
v 0.875000 0.000000 0.000000
v 0.625000 0.000000 0.000000
v 0.748391 0.125652 0.018641
v 0.629213 0.500755 0.093785
v 0.302189 0.542047 0.093941
v 0.060939 0.312487 0.018158
v 0.181467 0.437075 0.065006
v 0.185546 0.312533 0.043860
v 0.062148 0.437480 0.016110
v 0.686936 0.937929 0.015288
v 0.684592 0.810653 0.030048
v 0.562457 0.941570 0.027593
v 0.062858 0.687209 0.011251
v 0.187960 0.687233 0.036706
v 0.062153 0.562303 0.015782
v 0.187980 0.937467 0.008606
v 0.188825 0.811854 0.018804
v 0.062883 0.937167 -0.001667
v 0.435718 0.564779 0.093785
v 0.838992 0.423972 0.055346
v 0.435729 0.821632 0.076238
v 0.313991 0.813853 0.038625
v 0.437508 0.940704 0.025254
v 0.936342 0.810988 -0.001245
v 0.809962 0.809270 0.009919
v 0.937000 0.936909 0.000878
v 0.727913 0.612120 0.093929
v 0.564538 0.565003 0.093785
v 0.407557 0.702183 0.093929
v 0.817371 0.625277 0.060652
v 0.812909 0.685390 0.037888
v 0.941700 0.562562 0.027878
v 0.310590 0.261128 0.053948
v 0.600091 0.268523 0.093929
v 0.435747 0.436083 0.093785
v 0.187384 0.061853 0.013089
v 0.062823 0.062839 -0.002965
v 0.186788 0.187112 0.029017
v 0.312808 0.063001 0.010398
v 0.312656 0.186902 0.040844
v 0.437889 0.061914 0.016941
v 0.811818 0.062875 0.007790
v 0.936994 0.062986 -0.002586
v 0.314303 0.406426 0.093929
v 0.564536 0.436025 0.093785
v 0.524637 0.811614 0.074115
v 0.563436 0.178898 0.073930
v 0.685683 0.186946 0.040265
v 0.562608 0.059896 0.023590
v 0.937814 0.313017 0.014198
v 0.811984 0.314366 0.036024
v 0.939033 0.437654 0.021098
v 0.313066 0.938220 0.014020
v 0.186328 0.624887 0.046086
v 0.810222 0.189317 0.015607
v 0.802707 0.373351 0.053061
v 0.687009 0.061775 0.015410
v 0.693270 0.436623 0.093951
v 0.936822 0.188183 0.006074
v 0.437973 0.184592 0.054336
v 0.061654 0.187341 0.013238
v 0.496787 0.696218 0.093876
v 0.938598 0.687117 0.016810
v 0.669069 0.373603 0.093929
v 0.062508 0.812343 0.010041
v 0.811531 0.936257 0.001943
v 0.184559 0.562284 0.054646
v 0.738283 0.478677 0.093939
v 0.703907 0.426510 0.093936
v 0.577450 0.233137 0.093942
v 0.243182 0.452519 0.093942
v 0.796820 0.567481 0.093942
v 0.462519 0.786819 0.093942
v 0.666470 0.652455 0.093929
v 0.579604 0.835087 0.055213
v 0.294592 0.331964 0.067107
v 0.337249 0.595262 0.093939
v 0.712092 0.301451 0.054841
v 0.179597 0.488656 0.064320
v 0.583519 0.678120 0.093857
v 0.282281 0.656836 0.057504
v 0.686859 0.756106 0.043766
v 0.424923 0.333699 0.093939
v 0.613046 0.687619 0.093936
v 0.648369 0.307335 0.082846
v 0.363869 0.294126 0.065128
v 0.479011 0.298051 0.093941
v 0.559950 0.722600 0.093939
v 0.418736 0.254472 0.067379
v 0.500633 0.181809 0.065464
v 0.819380 0.482683 0.070098
v 0.545936 0.322998 0.093857
v 0.883274 0.563385 0.056111
v 0.771275 0.425119 0.072399
v 0.239991 0.514996 0.079449
v 0.311401 0.476031 0.093903
v 0.939565 0.624742 0.021233
v 1.000000 0.937500 0.000000
v 1.000000 0.812500 0.000000
v 1.000000 0.687500 0.000000
v 0.374797 0.817136 0.056334
vt 0.000000 0.000000
vt 1.000000 0.000000
vt 0.000000 1.000000
vt 1.000000 1.000000
vt 0.500000 0.500000
vt 0.000000 0.500000
vt 0.500000 1.000000
vt 1.000000 0.500000
vt 0.500000 0.000000
vt 0.250000 0.750000
vt 0.750000 0.750000
vt 0.250000 0.250000
vt 0.750000 0.250000
vt 0.750000 0.000000
vt 0.250000 0.000000
vt 1.000000 0.750000
vt 1.000000 0.250000
vt 0.250000 1.000000
vt 0.750000 1.000000
vt 0.000000 0.250000
vt 0.000000 0.750000
vt 0.365347 0.220303
vt 0.629073 0.770824
vt 0.706846 0.363401
vt 0.374465 0.372176
vt 0.875000 0.375000
vt 0.625000 0.125000
vt 0.625000 0.375000
vt 0.875000 0.125000
vt 0.375000 0.125000
vt 0.125000 0.125000
vt 0.750000 0.687500
vt 0.875000 0.625000
vt 0.625000 0.625000
vt 0.875000 0.875000
vt 0.375000 0.875000
vt 0.262101 0.599801
vt 0.125000 0.875000
vt 0.125000 0.625000
vt 0.625000 0.875000
vt 0.125000 0.375000
vt 0.250000 0.125000
vt 0.875000 0.750000
vt 0.875000 0.250000
vt 0.250000 0.875000
vt 0.750000 0.875000
vt 0.125000 0.250000
vt 0.125000 0.750000
vt 0.304602 0.713891
vt 0.690882 0.507820
vt 0.750000 0.625000
vt 0.875000 0.500000
vt 0.374792 0.642694
vt 0.375000 0.750000
vt 0.000000 0.375000
vt 0.500000 0.875000
vt 0.500000 0.625000
vt 0.250000 0.375000
vt 0.125000 0.500000
vt 0.375000 0.500000
vt 0.625000 0.250000
vt 0.500000 0.125000
vt 0.500000 0.375000
vt 0.000000 0.625000
vt 0.000000 0.875000
vt 0.000000 0.125000
vt 0.625000 1.000000
vt 0.875000 1.000000
vt 0.125000 1.000000
vt 0.375000 1.000000
vt 1.000000 0.375000
vt 1.000000 0.125000
vt 1.000000 0.875000
vt 1.000000 0.625000
vt 0.375000 0.000000
vt 0.125000 0.000000
vt 0.875000 0.000000
vt 0.625000 0.000000
vt 0.750000 0.125000
vt 0.625000 0.500000
vt 0.307839 0.540673
vt 0.062500 0.312500
vt 0.187500 0.437500
vt 0.187500 0.312500
vt 0.062500 0.437500
vt 0.687500 0.937500
vt 0.687500 0.812500
vt 0.562500 0.937500
vt 0.062500 0.687500
vt 0.187500 0.687500
vt 0.062500 0.562500
vt 0.187500 0.937500
vt 0.187500 0.812500
vt 0.062500 0.937500
vt 0.437500 0.562500
vt 0.834853 0.423541
vt 0.437500 0.812500
vt 0.312500 0.812500
vt 0.437500 0.937500
vt 0.937500 0.812500
vt 0.812500 0.812500
vt 0.937500 0.937500
vt 0.720223 0.607796
vt 0.562500 0.562500
vt 0.410048 0.695656
vt 0.812500 0.625000
vt 0.812500 0.687500
vt 0.937500 0.562500
vt 0.311128 0.261404
vt 0.596968 0.275901
vt 0.437500 0.437500
vt 0.187500 0.062500
vt 0.062500 0.062500
vt 0.187500 0.187500
vt 0.312500 0.062500
vt 0.312500 0.187500
vt 0.437500 0.062500
vt 0.812500 0.062500
vt 0.937500 0.062500
vt 0.319765 0.408431
vt 0.562500 0.437500
vt 0.525016 0.804189
vt 0.562500 0.187500
vt 0.687500 0.187500
vt 0.562500 0.062500
vt 0.937500 0.312500
vt 0.812500 0.312500
vt 0.937500 0.437500
vt 0.312500 0.937500
vt 0.187500 0.625000
vt 0.812500 0.187500
vt 0.800716 0.372483
vt 0.687500 0.062500
vt 0.687500 0.437500
vt 0.937500 0.187500
vt 0.437500 0.187500
vt 0.062500 0.187500
vt 0.497032 0.689303
vt 0.937500 0.687500
vt 0.664250 0.376536
vt 0.062500 0.812500
vt 0.812500 0.937500
vt 0.187500 0.562500
vt 0.730630 0.478332
vt 0.697936 0.427680
vt 0.574637 0.242969
vt 0.252324 0.453879
vt 0.784970 0.564249
vt 0.464021 0.775700
vt 0.661465 0.647320
vt 0.580205 0.830830
vt 0.296906 0.332149
vt 0.341589 0.592359
vt 0.713437 0.300753
vt 0.185471 0.488796
vt 0.581168 0.672349
vt 0.281585 0.657008
vt 0.688844 0.757642
vt 0.426683 0.337941
vt 0.609858 0.681650
vt 0.646352 0.310977
vt 0.364019 0.294291
vt 0.479191 0.303755
vt 0.558444 0.715441
vt 0.418341 0.256674
vt 0.500000 0.187500
vt 0.812755 0.481587
vt 0.544346 0.328467
vt 0.875000 0.562500
vt 0.766844 0.424637
vt 0.245672 0.515386
vt 0.317431 0.476446
vt 0.937500 0.625000
vt 1.000000 0.937500
vt 1.000000 0.812500
vt 1.000000 0.687500
vt 0.375000 0.812500
vn 0.022392 0.022392 0.999498
vn -0.021736 0.021736 0.999527
vn 0.012966 -0.012966 0.999832
vn 0.008047 0.004024 0.999960
vn 0.000000 0.000000 1.000000
vn -0.246361 0.002199 0.969176
vn -0.010984 0.406191 0.913722
vn 0.378764 -0.030004 0.925007
vn -0.027284 -0.310516 0.950177
vn -0.179320 0.157261 0.971140
vn 0.204955 0.274396 0.939521
vn -0.126226 -0.165625 0.978077
vn 0.213280 -0.188285 0.958676
vn 0.029382 -0.183119 0.982651
vn 0.010170 -0.185014 0.982683
vn 0.102092 0.045443 0.993736
vn 0.148166 -0.029503 0.988522
vn -0.020623 0.180534 0.983353
vn 0.053181 0.133950 0.989560
vn -0.247774 -0.020189 0.968607
vn -0.169539 0.004631 0.985513
vn -0.106349 -0.216669 0.970435
vn 0.282415 0.273995 0.919330
vn 0.334758 -0.260616 0.905548
vn -0.110758 -0.183373 0.976784
vn 0.234810 -0.124818 0.963994
vn 0.148462 -0.289778 0.945509
vn -0.002231 0.001305 0.999997
vn 0.077865 -0.072784 0.994304
vn -0.080364 -0.242958 0.966702
vn -0.126382 -0.122319 0.984411
vn 0.245288 0.350110 0.904022
vn 0.293581 0.209669 0.932657
vn -0.001267 -0.002223 0.999997
vn 0.053552 0.027499 0.998186
vn -0.216812 0.274757 0.936750
vn -0.259917 0.220169 0.940196
vn -0.075689 0.093445 0.992743
vn -0.259945 0.090538 0.961370
vn 0.187294 0.220843 0.957157
vn -0.283409 -0.074120 0.956130
vn -0.034733 -0.183588 0.982389
vn 0.122819 0.177377 0.976449
vn 0.130102 -0.122602 0.983891
vn -0.099041 0.128803 0.986712
vn 0.125000 0.088132 0.988235
vn -0.164805 -0.084460 0.982703
vn -0.136950 0.073494 0.987848
vn -0.284970 0.170543 0.943243
vn -0.001156 0.000790 0.999999
vn 0.270919 0.414850 0.868621
vn 0.367231 -0.101270 0.924600
vn -0.185192 0.117555 0.975646
vn -0.312939 0.204189 0.927564
vn -0.279976 0.009301 0.959962
vn 0.053094 0.347592 0.936142
vn 0.000152 -0.000833 1.000000
vn -0.213311 -0.256169 0.942802
vn -0.360915 0.055972 0.930918
vn 0.001272 -0.000171 0.999999
vn 0.396433 -0.275928 0.875617
vn -0.101979 -0.340201 0.934807
vn 0.000373 0.001202 0.999999
vn -0.210377 0.016450 0.977482
vn -0.067305 0.046947 0.996627
vn -0.082310 -0.063902 0.994556
vn 0.049622 0.301348 0.952222
vn 0.004620 0.021185 0.999765
vn -0.041735 0.056886 0.997508
vn -0.043994 0.304514 0.951491
vn 0.294288 -0.028194 0.955301
vn 0.043787 -0.036395 0.998378
vn 0.011650 -0.003816 0.999925
vn 0.326487 0.054402 0.943635
vn -0.024066 -0.209464 0.977520
vn -0.062986 -0.080513 0.994762
vn 0.042555 -0.040737 0.998263
vn 0.031760 -0.318160 0.947505
vn 0.121114 -0.119646 0.985402
vn -0.000779 0.000293 1.000000
vn -0.157256 0.102491 0.982225
vn -0.248127 -0.032739 0.968174
vn -0.377439 -0.079958 0.922576
vn -0.191984 -0.145469 0.970557
vn -0.306526 0.008130 0.951828
vn 0.075105 0.190420 0.978826
vn 0.230104 0.194382 0.953555
vn 0.075218 0.340873 0.937096
vn -0.196516 0.021999 0.980254
vn -0.181481 0.130074 0.974754
vn -0.263166 0.032955 0.964187
vn -0.046014 0.107519 0.993138
vn -0.084784 0.120055 0.989140
vn -0.033866 0.036481 0.998760
vn 0.000598 -0.000525 1.000000
vn 0.256762 -0.140616 0.956191
vn -0.165428 0.320373 0.932735
vn -0.245877 0.192787 0.949936
vn -0.048844 0.376423 0.925160
vn 0.032330 0.011076 0.999416
vn 0.128184 0.082798 0.988288
vn 0.013544 0.013874 0.999812
vn 0.218193 0.332953 0.917352
vn 0.000000 -0.000173 1.000000
vn -0.183022 0.116534 0.976178
vn 0.277143 0.353164 0.893570
vn 0.221028 0.326572 0.918965
vn 0.381672 0.045962 0.923154
vn -0.087195 -0.197956 0.976325
vn 0.306732 -0.198373 0.930894
vn 0.000557 0.000666 1.000000
vn -0.051415 -0.159433 0.985869
vn -0.045594 -0.046045 0.997898
vn -0.119847 -0.126451 0.984706
vn -0.007219 -0.202197 0.979318
vn -0.045395 -0.197557 0.979240
vn -0.063761 -0.275952 0.959054
vn 0.059010 -0.104863 0.992734
vn 0.025173 -0.029718 0.999241
vn -0.099945 -0.154421 0.982937
vn 0.000000 0.000173 1.000000
vn 0.148710 0.336122 0.930004
vn 0.031168 -0.346998 0.937348
vn 0.260264 -0.179286 0.948746
vn -0.004767 -0.340274 0.940314
vn 0.226787 -0.094671 0.969332
vn 0.158470 -0.217157 0.963187
vn 0.337478 -0.032910 0.940758
vn -0.080962 0.218395 0.972496
vn -0.248238 0.149587 0.957080
vn 0.106440 -0.097229 0.989554
vn 0.199999 -0.216965 0.955472
vn 0.088664 -0.229681 0.969219
vn -0.000094 -0.000069 1.000000
vn 0.098193 -0.039087 0.994399
vn -0.176262 -0.256485 0.950341
vn -0.156780 -0.070028 0.985148
vn 0.000040 -0.001220 0.999999
vn 0.233243 0.106023 0.966621
vn 0.218950 -0.150039 0.964131
vn -0.126584 0.050392 0.990675
vn 0.049318 0.073974 0.996040
vn -0.289706 0.139439 0.946904
vn 0.132608 -0.089155 0.987151
vn 0.067129 -0.051330 0.996423
vn 0.231677 -0.261496 0.936988
vn -0.250988 -0.031487 0.967478
vn 0.272486 0.170811 0.946876
vn -0.052281 0.305854 0.950642
vn 0.092073 0.131781 0.986994
vn 0.205249 0.273430 0.939739
vn -0.149674 -0.255856 0.955058
vn -0.176584 0.127729 0.975963
vn 0.297548 -0.243528 0.923125
vn -0.369605 0.078398 0.925876
vn -0.001237 -0.002440 0.999996
vn -0.263020 0.209355 0.941802
vn 0.251186 0.286333 0.924618
vn -0.119475 -0.169983 0.978178
vn 0.059503 0.085554 0.994555
vn 0.389680 -0.265960 0.881711
vn -0.153869 -0.260587 0.953110
vn -0.087013 -0.123838 0.988480
vn 0.088003 0.117590 0.989155
vn -0.202613 -0.251646 0.946373
vn -0.164996 -0.299017 0.939875
vn 0.316417 -0.149823 0.936714
vn 0.000205 0.001285 0.999999
vn 0.390709 0.068937 0.917929
vn 0.259970 -0.206293 0.943323
vn -0.300874 0.187786 0.934993
vn 0.001273 0.000017 0.999999
vn 0.324558 0.097238 0.940854
vn 0.012076 0.000000 0.999927
vn -0.012093 0.000000 0.999927
vn 0.259978 0.000000 0.965615
vn -0.299782 0.222573 0.927681
f 1/1/1 113/113/113 66/66/66
f 31/31/31 137/137/137 113/113/113
f 41/41/41 58/58/58 83/83/83
f 76/76/76 112/112/112 113/113/113
f 110/110/110 161/161/161 140/140/140
f 112/112/112 114/114/114 31/31/31
f 136/136/136 30/30/30 117/117/117
f 59/59/59 83/83/83 155/155/155
f 137/137/137 66/66/66 113/113/113
f 112/112/112 31/31/31 113/113/113
f 115/115/115 112/112/112 15/15/15
f 12/12/12 114/114/114 116/116/116
f 56/56/56 97/97/97 122/122/122
f 76/76/76 113/113/113 1/1/1
f 42/42/42 114/114/114 112/112/112
f 15/15/15 112/112/112 76/76/76
f 115/115/115 15/15/15 75/75/75
f 137/137/137 31/31/31 47/47/47
f 116/116/116 115/115/115 30/30/30
f 115/115/115 75/75/75 30/30/30
f 22/22/22 30/30/30 136/136/136
f 114/114/114 47/47/47 31/31/31
f 159/159/159 165/165/165 163/163/163
f 165/165/165 22/22/22 136/136/136
f 109/109/109 116/116/116 22/22/22
f 109/109/109 12/12/12 116/116/116
f 42/42/42 116/116/116 114/114/114
f 116/116/116 30/30/30 22/22/22
f 42/42/42 112/112/112 115/115/115
f 42/42/42 115/115/115 116/116/116
f 152/152/152 12/12/12 109/109/109
f 84/84/84 58/58/58 41/41/41
f 109/109/109 22/22/22 162/162/162
f 152/152/152 109/109/109 162/162/162
f 25/25/25 152/152/152 162/162/162
f 120/120/120 152/152/152 25/25/25
f 165/165/165 162/162/162 22/22/22
f 140/140/140 28/28/28 110/110/110
f 122/122/122 151/151/151 56/56/56
f 84/84/84 12/12/12 152/152/152
f 166/166/166 165/165/165 136/136/136
f 168/168/168 121/121/121 63/63/63
f 28/28/28 140/140/140 134/134/134
f 63/63/63 159/159/159 163/163/163
f 159/159/159 25/25/25 162/162/162
f 159/159/159 162/162/162 165/165/165
f 60/60/60 120/120/120 111/111/111
f 111/111/111 25/25/25 159/159/159
f 77/77/77 2/2/2 119/119/119
f 120/120/120 25/25/25 111/111/111
f 84/84/84 152/152/152 58/58/58
f 58/58/58 152/152/152 120/120/120
f 60/60/60 95/95/95 153/153/153
f 122/122/122 149/149/149 164/164/164
f 98/98/98 36/36/36 129/129/129
f 176/176/176 16/16/16 139/139/139
f 143/143/143 171/171/171 37/37/37
f 81/81/81 37/37/37 171/171/171
f 157/157/157 37/37/37 153/153/153
f 149/149/149 122/122/122 97/97/97
f 85/85/85 55/55/55 41/41/41
f 155/155/155 83/83/83 147/147/147
f 85/85/85 41/41/41 83/83/83
f 82/82/82 137/137/137 47/47/47
f 47/47/47 114/114/114 84/84/84
f 84/84/84 114/114/114 12/12/12
f 46/46/46 87/87/87 101/101/101
f 11/11/11 101/101/101 87/87/87
f 55/55/55 82/82/82 41/41/41
f 20/20/20 137/137/137 82/82/82
f 20/20/20 66/66/66 137/137/137
f 55/55/55 20/20/20 82/82/82
f 131/131/131 79/79/79 29/29/29
f 21/21/21 141/141/141 65/65/65
f 38/38/38 92/92/92 94/94/94
f 59/59/59 39/39/39 91/91/91
f 171/171/171 155/155/155 147/147/147
f 49/49/49 98/98/98 10/10/10
f 36/36/36 99/99/99 129/129/129
f 21/21/21 89/89/89 141/141/141
f 70/70/70 18/18/18 129/129/129
f 99/99/99 70/70/70 129/129/129
f 53/53/53 157/157/157 153/153/153
f 97/97/97 99/99/99 36/36/36
f 54/54/54 149/149/149 97/97/97
f 81/81/81 147/147/147 172/172/172
f 60/60/60 153/153/153 81/81/81
f 164/164/164 149/149/149 138/138/138
f 74/74/74 176/176/176 139/139/139
f 157/157/157 130/130/130 37/37/37
f 45/45/45 10/10/10 98/98/98
f 90/90/90 48/48/48 39/39/39
f 92/92/92 18/18/18 69/69/69
f 93/93/93 45/45/45 38/38/38
f 45/45/45 98/98/98 129/129/129
f 48/48/48 141/141/141 89/89/89
f 118/118/118 29/29/29 79/79/79
f 38/38/38 45/45/45 92/92/92
f 94/94/94 69/69/69 3/3/3
f 48/48/48 38/38/38 141/141/141
f 65/65/65 94/94/94 3/3/3
f 44/44/44 127/127/127 131/131/131
f 89/89/89 39/39/39 48/48/48
f 69/69/69 94/94/94 92/92/92
f 13/13/13 131/131/131 127/127/127
f 6/6/6 91/91/91 64/64/64
f 38/38/38 94/94/94 141/141/141
f 93/93/93 38/38/38 48/48/48
f 65/65/65 141/141/141 94/94/94
f 93/93/93 10/10/10 45/45/45
f 143/143/143 39/39/39 59/59/59
f 130/130/130 90/90/90 39/39/39
f 143/143/143 130/130/130 39/39/39
f 77/77/77 119/119/119 118/118/118
f 49/49/49 54/54/54 98/98/98
f 157/157/157 10/10/10 90/90/90
f 64/64/64 89/89/89 21/21/21
f 47/47/47 84/84/84 82/82/82
f 6/6/6 85/85/85 91/91/91
f 59/59/59 91/91/91 85/85/85
f 41/41/41 82/82/82 84/84/84
f 6/6/6 55/55/55 85/85/85
f 59/59/59 85/85/85 83/83/83
f 143/143/143 59/59/59 155/155/155
f 169/169/169 106/106/106 148/148/148
f 167/167/167 52/52/52 169/169/169
f 119/119/119 29/29/29 118/118/118
f 104/104/104 95/95/95 5/5/5
f 138/138/138 149/149/149 105/105/105
f 53/53/53 49/49/49 157/157/157
f 37/37/37 130/130/130 143/143/143
f 37/37/37 81/81/81 153/153/153
f 157/157/157 49/49/49 10/10/10
f 157/157/157 90/90/90 130/130/130
f 57/57/57 53/53/53 95/95/95
f 105/105/105 49/49/49 53/53/53
f 105/105/105 149/149/149 54/54/54
f 105/105/105 54/54/54 49/49/49
f 57/57/57 105/105/105 53/53/53
f 156/156/156 138/138/138 57/57/57
f 95/95/95 53/53/53 153/153/153
f 5/5/5 95/95/95 111/111/111
f 135/135/135 72/72/72 17/17/17
f 60/60/60 111/111/111 95/95/95
f 34/34/34 156/156/156 104/104/104
f 146/146/146 123/123/123 61/61/61
f 156/156/156 164/164/164 138/138/138
f 57/57/57 138/138/138 105/105/105
f 57/57/57 95/95/95 104/104/104
f 158/158/158 150/150/150 32/32/32
f 40/40/40 86/86/86 67/67/67
f 9/9/9 117/117/117 75/75/75
f 50/50/50 103/103/103 34/34/34
f 32/32/32 150/150/150 51/51/51
f 51/51/51 148/148/148 106/106/106
f 88/88/88 151/151/151 40/40/40
f 103/103/103 150/150/150 34/34/34
f 102/102/102 35/35/35 73/73/73
f 156/156/156 57/57/57 104/104/104
f 156/156/156 160/160/160 164/164/164
f 34/34/34 160/160/160 156/156/156
f 80/80/80 34/34/34 104/104/104
f 51/51/51 150/150/150 103/103/103
f 150/150/150 160/160/160 34/34/34
f 50/50/50 34/34/34 80/80/80
f 32/32/32 51/51/51 107/107/107
f 80/80/80 104/104/104 5/5/5
f 134/134/134 144/144/144 50/50/50
f 26/26/26 71/71/71 128/128/128
f 148/148/148 103/103/103 50/50/50
f 144/144/144 148/148/148 50/50/50
f 106/106/106 107/107/107 51/51/51
f 170/170/170 144/144/144 145/145/145
f 132/132/132 170/170/170 24/24/24
f 39/39/39 89/89/89 91/91/91
f 100/100/100 73/73/73 35/35/35
f 172/172/172 147/147/147 120/120/120
f 8/8/8 108/108/108 52/52/52
f 18/18/18 92/92/92 129/129/129
f 107/107/107 33/33/33 139/139/139
f 48/48/48 90/90/90 93/93/93
f 51/51/51 103/103/103 148/148/148
f 145/145/145 24/24/24 170/170/170
f 11/11/11 32/32/32 107/107/107
f 158/158/158 32/32/32 11/11/11
f 88/88/88 40/40/40 67/67/67
f 87/87/87 46/46/46 40/40/40
f 45/45/45 129/129/129 92/92/92
f 43/43/43 107/107/107 139/139/139
f 101/101/101 11/11/11 43/43/43
f 100/100/100 101/101/101 43/43/43
f 147/147/147 58/58/58 120/120/120
f 35/35/35 101/101/101 100/100/100
f 10/10/10 93/93/93 90/90/90
f 107/107/107 43/43/43 11/11/11
f 142/142/142 46/46/46 35/35/35
f 102/102/102 142/142/142 35/35/35
f 68/68/68 142/142/142 102/102/102
f 7/7/7 99/99/99 88/88/88
f 170/170/170 132/132/132 96/96/96
f 40/40/40 46/46/46 86/86/86
f 86/86/86 46/46/46 142/142/142
f 19/19/19 86/86/86 142/142/142
f 151/151/151 164/164/164 23/23/23
f 23/23/23 160/160/160 158/158/158
f 23/23/23 87/87/87 40/40/40
f 23/23/23 158/158/158 87/87/87
f 158/158/158 160/160/160 150/150/150
f 158/158/158 11/11/11 87/87/87
f 151/151/151 23/23/23 40/40/40
f 23/23/23 164/164/164 160/160/160
f 88/88/88 56/56/56 151/151/151
f 172/172/172 60/60/60 81/81/81
f 56/56/56 99/99/99 97/97/97
f 151/151/151 122/122/122 164/164/164
f 7/7/7 88/88/88 67/67/67
f 88/88/88 99/99/99 56/56/56
f 7/7/7 70/70/70 99/99/99
f 19/19/19 67/67/67 86/86/86
f 68/68/68 19/19/19 142/142/142
f 101/101/101 35/35/35 46/46/46
f 4/4/4 68/68/68 102/102/102
f 173/173/173 74/74/74 139/139/139
f 174/174/174 4/4/4 102/102/102
f 175/175/175 73/73/73 100/100/100
f 8/8/8 74/74/74 108/108/108
f 79/79/79 13/13/13 124/124/124
f 126/126/126 71/71/71 26/26/26
f 146/146/146 168/168/168 163/163/163
f 96/96/96 128/128/128 52/52/52
f 167/167/167 96/96/96 52/52/52
f 134/134/134 50/50/50 80/80/80
f 24/24/24 140/140/140 161/161/161
f 128/128/128 71/71/71 8/8/8
f 128/128/128 8/8/8 52/52/52
f 44/44/44 126/126/126 26/26/26
f 126/126/126 17/17/17 71/71/71
f 127/127/127 44/44/44 26/26/26
f 44/44/44 17/17/17 126/126/126
f 100/100/100 43/43/43 16/16/16
f 135/135/135 17/17/17 44/44/44
f 132/132/132 127/127/127 26/26/26
f 154/154/154 132/132/132 24/24/24
f 61/61/61 161/161/161 110/110/110
f 133/133/133 124/124/124 27/27/27
f 96/96/96 132/132/132 26/26/26
f 145/145/145 144/144/144 134/134/134
f 96/96/96 26/26/26 128/128/128
f 107/107/107 106/106/106 33/33/33
f 167/167/167 148/148/148 144/144/144
f 144/144/144 170/170/170 167/167/167
f 28/28/28 134/134/134 80/80/80
f 140/140/140 145/145/145 134/134/134
f 24/24/24 145/145/145 140/140/140
f 64/64/64 91/91/91 89/89/89
f 121/121/121 28/28/28 80/80/80
f 154/154/154 24/24/24 161/161/161
f 121/121/121 80/80/80 5/5/5
f 168/168/168 28/28/28 121/121/121
f 121/121/121 5/5/5 111/111/111
f 63/63/63 121/121/121 111/111/111
f 63/63/63 111/111/111 159/159/159
f 168/168/168 63/63/63 163/163/163
f 166/166/166 123/123/123 146/146/146
f 110/110/110 28/28/28 168/168/168
f 62/62/62 166/166/166 136/136/136
f 27/27/27 124/124/124 61/61/61
f 124/124/124 154/154/154 61/61/61
f 118/118/118 133/133/133 14/14/14
f 154/154/154 127/127/127 132/132/132
f 96/96/96 167/167/167 170/170/170
f 154/154/154 161/161/161 61/61/61
f 154/154/154 13/13/13 127/127/127
f 124/124/124 13/13/13 154/154/154
f 133/133/133 27/27/27 78/78/78
f 123/123/123 27/27/27 61/61/61
f 125/125/125 78/78/78 27/27/27
f 146/146/146 61/61/61 110/110/110
f 166/166/166 146/146/146 163/163/163
f 146/146/146 110/110/110 168/168/168
f 166/166/166 163/163/163 165/165/165
f 62/62/62 136/136/136 117/117/117
f 62/62/62 123/123/123 166/166/166
f 125/125/125 27/27/27 62/62/62
f 62/62/62 27/27/27 123/123/123
f 125/125/125 62/62/62 117/117/117
f 9/9/9 125/125/125 117/117/117
f 9/9/9 78/78/78 125/125/125
f 14/14/14 133/133/133 78/78/78
f 77/77/77 118/118/118 14/14/14
f 119/119/119 2/2/2 72/72/72
f 29/29/29 44/44/44 131/131/131
f 117/117/117 30/30/30 75/75/75
f 79/79/79 124/124/124 133/133/133
f 79/79/79 133/133/133 118/118/118
f 139/139/139 16/16/16 43/43/43
f 131/131/131 13/13/13 79/79/79
f 119/119/119 72/72/72 29/29/29
f 135/135/135 44/44/44 29/29/29
f 135/135/135 29/29/29 72/72/72
f 33/33/33 169/169/169 108/108/108
f 169/169/169 52/52/52 108/108/108
f 106/106/106 169/169/169 33/33/33
f 167/167/167 169/169/169 148/148/148
f 155/155/155 171/171/171 143/143/143
f 81/81/81 171/171/171 147/147/147
f 60/60/60 172/172/172 120/120/120
f 147/147/147 83/83/83 58/58/58
f 74/74/74 173/173/173 108/108/108
f 173/173/173 33/33/33 108/108/108
f 33/33/33 173/173/173 139/139/139
f 73/73/73 174/174/174 102/102/102
f 16/16/16 175/175/175 100/100/100
f 54/54/54 177/177/177 98/98/98
f 177/177/177 36/36/36 98/98/98
f 36/36/36 177/177/177 97/97/97
f 177/177/177 54/54/54 97/97/97
