# frame 000534 
# time 0.267500 
# name Cloth3D 
v -0.000000 0.000000 -0.000000
v 1.000000 0.000000 -0.000000
v -0.000000 1.000000 0.000000
v 1.000000 1.000000 0.000000
v 0.501073 0.500861 0.129562
v -0.000000 0.500000 0.000000
v 0.500000 1.000000 0.000000
v 1.000000 0.500000 0.000000
v 0.500000 -0.000000 0.000000
v 0.245459 0.756604 0.081962
v 0.758184 0.757818 0.090374
v 0.244572 0.246350 0.075564
v 0.755904 0.243637 0.084391
v 0.750000 0.000000 0.000000
v 0.250000 0.000000 0.000000
v 1.000000 0.750000 0.000000
v 1.000000 0.250000 0.000000
v 0.250000 1.000000 0.000000
v 0.750000 1.000000 0.000000
v 0.000000 0.250000 0.000000
v 0.000000 0.750000 -0.000000
v 0.363187 0.217842 0.073969
v 0.633571 0.779274 0.093864
v 0.715132 0.358101 0.113174
v 0.680539 0.677303 0.119929
v 0.879903 0.373733 0.053221
v 0.626494 0.118599 0.057022
v 0.630851 0.369736 0.121187
v 0.878429 0.121559 0.035928
v 0.374593 0.124585 0.039861
v 0.123704 0.124579 0.021798
v 0.492609 0.245510 0.093962
v 0.881227 0.627018 0.057329
v 0.632109 0.631165 0.123001
v 0.879181 0.879051 0.037410
v 0.373853 0.883591 0.061137
v 0.258982 0.603260 0.090821
v 0.122373 0.878094 0.033881
v 0.122392 0.626605 0.046953
v 0.626870 0.879931 0.052659
v 0.120588 0.374130 0.050569
v 0.248927 0.124484 0.033628
v 0.880033 0.753070 0.049181
v 0.880071 0.247400 0.048854
v 0.248401 0.879678 0.046342
v 0.753344 0.881028 0.051149
v 0.119776 0.248434 0.046138
v 0.119778 0.752832 0.050271
v 0.300654 0.721876 0.099573
v 0.310735 0.882205 0.055508
v 0.553387 0.707516 0.119929
v 0.881403 0.500411 0.058394
v 0.365268 0.723586 0.119962
v 0.242071 0.454479 0.096494
v 0.000000 0.375000 0.000000
v 0.500437 0.882605 0.060449
v 0.501414 0.631599 0.124970
v 0.240327 0.371722 0.104212
v 0.122627 0.500178 0.047460
v 0.370580 0.500867 0.123051
v 0.629495 0.241295 0.104920
v 0.500608 0.122646 0.047346
v 0.500448 0.370383 0.123058
v 0.000000 0.625000 0.000000
v 0.000000 0.875000 0.000000
v 0.000000 0.125000 0.000000
v 0.625000 1.000000 0.000000
v 0.875000 1.000000 0.000000
v 0.125000 1.000000 0.000000
v 0.375000 1.000000 0.000000
v 1.000000 0.375000 0.000000
v 1.000000 0.125000 0.000000
v 1.000000 0.875000 0.000000
v 1.000000 0.625000 0.000000
v 0.375000 0.000000 0.000000
v 0.125000 0.000000 0.000000
v 0.875000 0.000000 0.000000
v 0.625000 0.000000 0.000000
v 0.752871 0.118471 0.052792
v 0.631741 0.500702 0.126173
v 0.720219 0.487950 0.119929
v 0.058031 0.312155 0.029417
v 0.182818 0.436524 0.073376
v 0.179903 0.309772 0.074337
v 0.060784 0.437428 0.024938
v 0.688627 0.940582 0.027115
v 0.692045 0.819926 0.075938
v 0.562998 0.941339 0.030140
v 0.059321 0.688425 0.027745
v 0.182566 0.691177 0.070750
v 0.061639 0.562918 0.022944
v 0.186589 0.940618 0.024255
v 0.183671 0.817180 0.056323
v 0.061396 0.938708 0.013561
v 0.436119 0.566320 0.126560
v 0.880358 0.816424 0.045848
v 0.937500 0.000000 -0.000000
v 0.309246 0.821733 0.079844
v 0.437361 0.942023 0.031822
v 0.941103 0.814195 0.025701
v 0.818657 0.818697 0.062809
v 0.938665 0.938406 0.011572
v 0.937500 1.000000 0.000000
v 0.566669 0.566164 0.127492
v 0.705460 0.425840 0.119929
v 0.828507 0.594066 0.083961
v 0.820654 0.692009 0.080404
v 0.941743 0.563063 0.031541
v 0.492176 0.722038 0.119934
v 0.880430 0.690124 0.053387
v 0.435327 0.435618 0.126085
v 0.187227 0.062195 0.014658
v 0.062419 0.062679 0.004987
v 0.183925 0.185269 0.048017
v 0.312310 0.061265 0.022103
v 0.310341 0.186054 0.057976
v 0.437743 0.063236 0.018089
v 0.814029 0.058660 0.026176
v 0.939445 0.060595 0.017295
v 0.437024 0.882075 0.059212
v 0.566116 0.435402 0.126804
v 0.526407 0.814016 0.088736
v 0.564261 0.181723 0.077131
v 0.691167 0.180019 0.077466
v 0.562964 0.060093 0.027058
v 0.939440 0.311772 0.024516
v 0.818821 0.309032 0.073672
v 0.940228 0.437393 0.028120
v 0.311943 0.941172 0.028132
v -0.000000 0.062500 -0.000000
v 0.816978 0.182637 0.057545
v 0.808320 0.369824 0.083324
v 0.688417 0.059103 0.028199
v 0.062210 0.125410 0.008133
v 0.941161 0.186086 0.025906
v 0.437006 0.184653 0.067506
v 0.059795 0.186955 0.021402
v 0.062500 1.000000 0.000000
v 0.940802 0.688592 0.028262
v 0.690214 0.364289 0.119929
v 0.060425 0.813669 0.021914
v 0.814164 0.940799 0.024833
v 0.184495 0.563925 0.068652
v 0.359320 0.342725 0.119929
v 0.349836 0.658495 0.119929
v 0.668301 0.269250 0.119942
v 0.279322 0.361680 0.119942
v 0.760680 0.658320 0.119942
v 0.371680 0.750678 0.119942
v 0.486240 0.312565 0.119929
v 0.582591 0.839691 0.077033
v 0.288923 0.327317 0.108436
v 0.335129 0.596600 0.119929
v 0.720369 0.293523 0.104477
v 0.941539 0.877235 0.024542
v 0.434857 0.641764 0.122484
v 0.277010 0.662682 0.098857
v 0.734769 0.550294 0.119941
v 0.616110 0.692613 0.119929
v 0.305571 0.472103 0.119935
v 0.422728 0.327657 0.119929
v 0.359733 0.290527 0.099564
v 0.547633 0.297978 0.119929
v 0.320213 0.533827 0.119929
v 0.416622 0.253032 0.090321
v 0.424406 0.825645 0.087171
v 0.820214 0.481663 0.081280
v 0.546389 0.321577 0.120483
v 0.370458 0.415289 0.121408
v 0.775523 0.422700 0.097944
v 0.241209 0.516111 0.091139
v 0.674572 0.296819 0.119937
v 0.692358 0.588060 0.120406
v 1.000000 0.937500 0.000000
vt 0.000000 0.000000
vt 1.000000 0.000000
vt 0.000000 1.000000
vt 1.000000 1.000000
vt 0.500000 0.500000
vt 0.000000 0.500000
vt 0.500000 1.000000
vt 1.000000 0.500000
vt 0.500000 0.000000
vt 0.250000 0.750000
vt 0.750000 0.750000
vt 0.250000 0.250000
vt 0.750000 0.250000
vt 0.750000 0.000000
vt 0.250000 0.000000
vt 1.000000 0.750000
vt 1.000000 0.250000
vt 0.250000 1.000000
vt 0.750000 1.000000
vt 0.000000 0.250000
vt 0.000000 0.750000
vt 0.365347 0.220303
vt 0.629073 0.770824
vt 0.706846 0.363401
vt 0.671314 0.669537
vt 0.875000 0.375000
vt 0.625000 0.125000
vt 0.625000 0.375000
vt 0.875000 0.125000
vt 0.375000 0.125000
vt 0.125000 0.125000
vt 0.492214 0.250470
vt 0.875000 0.625000
vt 0.625000 0.625000
vt 0.875000 0.875000
vt 0.375000 0.875000
vt 0.262101 0.599801
vt 0.125000 0.875000
vt 0.125000 0.625000
vt 0.625000 0.875000
vt 0.125000 0.375000
vt 0.250000 0.125000
vt 0.875000 0.750000
vt 0.875000 0.250000
vt 0.250000 0.875000
vt 0.750000 0.875000
vt 0.125000 0.250000
vt 0.125000 0.750000
vt 0.304602 0.713891
vt 0.312500 0.875000
vt 0.550071 0.698086
vt 0.875000 0.500000
vt 0.369660 0.712227
vt 0.248222 0.455442
vt 0.000000 0.375000
vt 0.500000 0.875000
vt 0.500000 0.625000
vt 0.250000 0.375000
vt 0.125000 0.500000
vt 0.375000 0.500000
vt 0.625000 0.250000
vt 0.500000 0.125000
vt 0.500000 0.375000
vt 0.000000 0.625000
vt 0.000000 0.875000
vt 0.000000 0.125000
vt 0.625000 1.000000
vt 0.875000 1.000000
vt 0.125000 1.000000
vt 0.375000 1.000000
vt 1.000000 0.375000
vt 1.000000 0.125000
vt 1.000000 0.875000
vt 1.000000 0.625000
vt 0.375000 0.000000
vt 0.125000 0.000000
vt 0.875000 0.000000
vt 0.625000 0.000000
vt 0.750000 0.125000
vt 0.625000 0.500000
vt 0.710100 0.488049
vt 0.062500 0.312500
vt 0.187500 0.437500
vt 0.187500 0.312500
vt 0.062500 0.437500
vt 0.687500 0.937500
vt 0.687500 0.812500
vt 0.562500 0.937500
vt 0.062500 0.687500
vt 0.187500 0.687500
vt 0.062500 0.562500
vt 0.187500 0.937500
vt 0.187500 0.812500
vt 0.062500 0.937500
vt 0.437500 0.562500
vt 0.875000 0.812500
vt 0.937500 0.000000
vt 0.312500 0.812500
vt 0.437500 0.937500
vt 0.937500 0.812500
vt 0.812500 0.812500
vt 0.937500 0.937500
vt 0.937500 1.000000
vt 0.562500 0.562500
vt 0.696360 0.428542
vt 0.819332 0.591237
vt 0.812500 0.687500
vt 0.937500 0.562500
vt 0.491282 0.711548
vt 0.875000 0.687500
vt 0.437500 0.437500
vt 0.187500 0.062500
vt 0.062500 0.062500
vt 0.187500 0.187500
vt 0.312500 0.062500
vt 0.312500 0.187500
vt 0.437500 0.062500
vt 0.812500 0.062500
vt 0.937500 0.062500
vt 0.437500 0.875000
vt 0.562500 0.437500
vt 0.525016 0.804189
vt 0.562500 0.187500
vt 0.687500 0.187500
vt 0.562500 0.062500
vt 0.937500 0.312500
vt 0.812500 0.312500
vt 0.937500 0.437500
vt 0.312500 0.937500
vt 0.000000 0.062500
vt 0.812500 0.187500
vt 0.800716 0.372483
vt 0.687500 0.062500
vt 0.062500 0.125000
vt 0.937500 0.187500
vt 0.437500 0.187500
vt 0.062500 0.187500
vt 0.062500 1.000000
vt 0.937500 0.687500
vt 0.682080 0.369791
vt 0.062500 0.812500
vt 0.812500 0.937500
vt 0.187500 0.562500
vt 0.365124 0.348149
vt 0.354321 0.650844
vt 0.661332 0.280155
vt 0.289918 0.367023
vt 0.746547 0.651030
vt 0.376037 0.737626
vt 0.486672 0.319427
vt 0.580205 0.830830
vt 0.296906 0.332149
vt 0.340233 0.591783
vt 0.713437 0.300753
vt 0.937500 0.875000
vt 0.436137 0.634590
vt 0.281585 0.657008
vt 0.723452 0.547960
vt 0.610036 0.684018
vt 0.313001 0.472344
vt 0.425686 0.333692
vt 0.364019 0.294291
vt 0.545715 0.305902
vt 0.326357 0.531593
vt 0.418341 0.256674
vt 0.425703 0.815414
vt 0.812755 0.481587
vt 0.544346 0.328467
vt 0.375653 0.417988
vt 0.766844 0.424637
vt 0.245672 0.515386
vt 0.667282 0.306031
vt 0.682510 0.583771
vt 1.000000 0.937500
vn -0.048011 -0.024006 0.998558
vn 0.092711 -0.185423 0.978276
vn -0.070824 0.141647 0.987380
vn 0.097048 0.097048 0.990537
vn -0.007967 -0.003617 0.999962
vn -0.362478 0.007875 0.931959
vn 0.008302 0.464989 0.885278
vn 0.451073 -0.014891 0.892363
vn -0.038214 -0.341733 0.939020
vn -0.230075 0.164006 0.959254
vn 0.191690 0.259859 0.946429
vn -0.151240 -0.293464 0.943931
vn 0.276165 -0.196810 0.940744
vn 0.007502 -0.415480 0.909571
vn -0.028951 -0.283166 0.958634
vn 0.418884 0.008912 0.907996
vn 0.388338 0.007217 0.921489
vn -0.016614 0.380981 0.924434
vn 0.006955 0.405131 0.914232
vn -0.395118 -0.032733 0.918047
vn -0.382036 0.023491 0.923849
vn -0.071661 -0.343897 0.936269
vn 0.067447 0.319965 0.945026
vn 0.280039 -0.071242 0.957341
vn 0.040262 0.123452 0.991533
vn 0.392284 -0.039185 0.919009
vn -0.012069 -0.388434 0.921398
vn 0.023444 -0.023762 0.999443
vn 0.160661 -0.158789 0.974153
vn -0.039576 -0.328171 0.943789
vn -0.160020 -0.185303 0.969565
vn -0.083955 -0.359948 0.929187
vn 0.413790 0.044223 0.909297
vn 0.032411 0.035612 0.998840
vn 0.202346 0.182399 0.962178
vn -0.031343 0.413602 0.909918
vn -0.330212 0.017907 0.943737
vn -0.178273 0.172389 0.968763
vn -0.336988 -0.022534 0.941239
vn 0.062039 0.393051 0.917421
vn -0.376990 0.029701 0.925741
vn -0.069039 -0.266942 0.961236
vn 0.345517 0.062856 0.936305
vn 0.313067 -0.062821 0.947651
vn -0.128994 0.336607 0.932768
vn 0.056981 0.335395 0.940353
vn -0.275386 -0.140563 0.951002
vn -0.298495 0.065339 0.952172
vn -0.271322 0.120456 0.954921
vn -0.120794 0.395037 0.910689
vn 0.038702 0.170366 0.984621
vn 0.395172 -0.033416 0.917999
vn -0.190867 0.047620 0.980460
vn -0.374807 0.083304 0.923352
vn -0.401424 0.020910 0.915654
vn 0.011140 0.420694 0.907134
vn -0.010273 0.049405 0.998726
vn -0.374332 -0.091696 0.922750
vn -0.358864 0.023453 0.933095
vn -0.053561 -0.000105 0.998565
vn -0.056489 -0.392312 0.918096
vn -0.076093 -0.371739 0.925213
vn -0.005069 -0.054272 0.998513
vn -0.385641 -0.020884 0.922412
vn -0.276083 0.033503 0.960550
vn -0.138443 -0.077002 0.987372
vn 0.009376 0.434221 0.900758
vn 0.042437 0.275864 0.960259
vn -0.034096 0.277496 0.960122
vn -0.013452 0.456143 0.889805
vn 0.400558 -0.013783 0.916168
vn 0.340211 -0.034188 0.939727
vn 0.337884 0.061955 0.939146
vn 0.456109 0.012228 0.889840
vn 0.017642 -0.304246 0.952430
vn -0.039734 -0.150510 0.987810
vn 0.028981 -0.330062 0.943514
vn -0.006590 -0.428813 0.903369
vn 0.090097 -0.319052 0.943445
vn 0.049467 -0.002511 0.998773
vn 0.201861 -0.035541 0.978769
vn -0.386177 -0.006688 0.922400
vn -0.381207 0.063672 0.922294
vn -0.310384 -0.133031 0.941257
vn -0.372713 0.014753 0.927829
vn 0.010705 0.397501 0.917539
vn 0.052742 0.339819 0.939011
vn 0.027051 0.435879 0.899599
vn -0.369658 -0.006159 0.929147
vn -0.293845 0.030197 0.955376
vn -0.356731 -0.006236 0.934186
vn -0.042151 0.312508 0.948980
vn -0.175173 0.194310 0.965173
vn -0.113673 0.152249 0.981783
vn -0.038066 0.029261 0.998847
vn 0.289648 0.089126 0.952975
vn 0.000000 -0.273432 0.961891
vn -0.168593 0.323529 0.931078
vn -0.001013 0.449343 0.893359
vn 0.337090 0.037326 0.940732
vn 0.211314 0.184185 0.959907
vn 0.158046 0.158932 0.974557
vn 0.000000 0.191921 0.981410
vn 0.020559 0.027303 0.999416
vn 0.194566 -0.047662 0.979731
vn 0.427279 0.000885 0.904119
vn 0.418836 0.120132 0.900080
vn 0.438084 -0.000426 0.898934
vn 0.028671 0.168144 0.985345
vn 0.399085 0.062790 0.914761
vn -0.039912 -0.033390 0.998645
vn -0.059126 -0.213063 0.975248
vn -0.093076 -0.056842 0.994035
vn -0.151180 -0.264448 0.952477
vn -0.017425 -0.280974 0.959557
vn -0.068306 -0.342900 0.936885
vn -0.025826 -0.330311 0.943519
vn 0.053107 -0.337003 0.940004
vn 0.127758 -0.181712 0.975017
vn 0.003195 0.430804 0.902440
vn 0.019305 -0.039476 0.999034
vn 0.035728 0.345985 0.937560
vn -0.085472 -0.362588 0.928022
vn 0.098534 -0.345881 0.933090
vn -0.048040 -0.395557 0.917184
vn 0.389179 -0.011499 0.921090
vn 0.330974 -0.089781 0.939359
vn 0.421690 -0.025154 0.906391
vn -0.069709 0.421049 0.904355
vn -0.072037 -0.000000 0.997402
vn 0.209588 -0.179407 0.961190
vn 0.353345 -0.063885 0.933309
vn 0.015517 -0.414700 0.909826
vn -0.165250 -0.134652 0.977016
vn 0.329170 -0.039070 0.943462
vn -0.066530 -0.350498 0.934198
vn -0.246482 -0.140699 0.958880
vn 0.000000 0.210476 0.977599
vn 0.403671 0.033429 0.914293
vn 0.192147 -0.046588 0.980260
vn -0.325790 0.061119 0.943465
vn 0.055744 0.348426 0.935677
vn -0.327371 0.023291 0.944609
vn -0.052134 -0.229842 0.971831
vn -0.174409 0.045852 0.983605
vn 0.155550 -0.169012 0.973262
vn -0.301404 -0.257549 0.918055
vn 0.262161 0.112714 0.958419
vn -0.162622 0.131440 0.977894
vn -0.040342 -0.186522 0.981622
vn 0.079811 0.377739 0.922466
vn -0.194429 -0.340780 0.919819
vn -0.206361 0.039796 0.977666
vn 0.322225 -0.108789 0.940392
vn 0.301484 0.112017 0.946868
vn -0.028768 0.040992 0.998745
vn -0.292083 0.041566 0.955489
vn 0.159615 -0.034358 0.986581
vn 0.036806 0.153196 0.987510
vn -0.205871 0.042973 0.977635
vn -0.056801 -0.224061 0.972918
vn -0.078054 -0.352537 0.932537
vn -0.024991 -0.108355 0.993798
vn -0.193139 0.045338 0.980123
vn -0.076339 -0.347016 0.934747
vn 0.000314 0.401240 0.915973
vn 0.368101 -0.040114 0.928920
vn -0.001179 -0.029832 0.999554
vn -0.036954 -0.022493 0.999064
vn 0.335474 -0.044734 0.940987
vn -0.353245 0.071003 0.932832
vn 0.220735 -0.056044 0.973722
vn 0.030950 0.007324 0.999494
vn 0.192668 0.000000 0.981264
f 129/129/129 99/99/99 70/70/70
f 112/112/112 31/31/31 113/113/113
f 170/170/170 132/132/132 167/167/167
f 26/26/26 167/167/167 132/132/132
f 58/58/58 152/152/152 147/147/147
f 114/114/114 12/12/12 47/47/47
f 101/101/101 35/35/35 46/46/46
f 129/129/129 36/36/36 99/99/99
f 66/66/66 130/130/130 113/113/113
f 152/152/152 12/12/12 162/162/162
f 11/11/11 25/25/25 148/148/148
f 120/120/120 99/99/99 36/36/36
f 115/115/115 112/112/112 15/15/15
f 140/140/140 28/28/28 172/172/172
f 114/114/114 137/137/137 31/31/31
f 76/76/76 112/112/112 113/113/113
f 84/84/84 47/47/47 12/12/12
f 15/15/15 112/112/112 76/76/76
f 115/115/115 15/15/15 75/75/75
f 45/45/45 92/92/92 93/93/93
f 62/62/62 117/117/117 125/125/125
f 16/16/16 100/100/100 139/139/139
f 22/22/22 30/30/30 136/136/136
f 38/38/38 93/93/93 92/92/92
f 62/62/62 125/125/125 123/123/123
f 165/165/165 22/22/22 136/136/136
f 147/147/147 54/54/54 58/58/58
f 83/83/83 58/58/58 54/54/54
f 57/57/57 95/95/95 104/104/104
f 116/116/116 30/30/30 22/22/22
f 42/42/42 112/112/112 115/115/115
f 9/9/9 125/125/125 117/117/117
f 140/140/140 105/105/105 28/28/28
f 155/155/155 100/100/100 73/73/73
f 129/129/129 70/70/70 18/18/18
f 24/24/24 170/170/170 105/105/105
f 165/165/165 162/162/162 22/22/22
f 114/114/114 31/31/31 42/42/42
f 150/150/150 165/165/165 32/32/32
f 37/37/37 153/153/153 157/157/157
f 164/164/164 153/153/153 37/37/37
f 146/146/146 163/163/163 61/61/61
f 123/123/123 32/32/32 62/62/62
f 41/41/41 58/58/58 83/83/83
f 32/32/32 165/165/165 136/136/136
f 161/161/161 144/144/144 162/162/162
f 51/51/51 159/159/159 23/23/23
f 156/156/156 109/109/109 53/53/53
f 78/78/78 125/125/125 9/9/9
f 121/121/121 80/80/80 5/5/5
f 154/154/154 24/24/24 172/172/172
f 147/147/147 144/144/144 169/169/169
f 44/44/44 126/126/126 26/26/26
f 122/122/122 109/109/109 51/51/51
f 162/162/162 165/165/165 161/161/161
f 123/123/123 163/163/163 32/32/32
f 60/60/60 169/169/169 111/111/111
f 63/63/63 121/121/121 111/111/111
f 63/63/63 161/161/161 150/150/150
f 25/25/25 159/159/159 34/34/34
f 81/81/81 170/170/170 167/167/167
f 30/30/30 115/115/115 117/117/117
f 84/84/84 152/152/152 58/58/58
f 51/51/51 109/109/109 57/57/57
f 34/34/34 159/159/159 51/51/51
f 11/11/11 148/148/148 107/107/107
f 5/5/5 104/104/104 95/95/95
f 85/85/85 55/55/55 41/41/41
f 82/82/82 137/137/137 47/47/47
f 29/29/29 119/119/119 135/135/135
f 72/72/72 135/135/135 119/119/119
f 84/84/84 12/12/12 152/152/152
f 84/84/84 58/58/58 41/41/41
f 47/47/47 137/137/137 114/114/114
f 59/59/59 85/85/85 83/83/83
f 55/55/55 82/82/82 41/41/41
f 20/20/20 137/137/137 82/82/82
f 20/20/20 66/66/66 137/137/137
f 55/55/55 20/20/20 82/82/82
f 59/59/59 91/91/91 85/85/85
f 21/21/21 141/141/141 65/65/65
f 6/6/6 85/85/85 91/91/91
f 94/94/94 138/138/138 3/3/3
f 41/41/41 82/82/82 84/84/84
f 172/172/172 163/163/163 146/146/146
f 149/149/149 49/49/49 53/53/53
f 92/92/92 18/18/18 69/69/69
f 94/94/94 69/69/69 138/138/138
f 59/59/59 83/83/83 143/143/143
f 167/167/167 106/106/106 158/158/158
f 171/171/171 143/143/143 83/83/83
f 106/106/106 167/167/167 52/52/52
f 157/157/157 90/90/90 37/37/37
f 166/166/166 120/120/120 36/36/36
f 38/38/38 92/92/92 94/94/94
f 81/81/81 167/167/167 158/158/158
f 98/98/98 166/166/166 36/36/36
f 164/164/164 171/171/171 160/160/160
f 45/45/45 10/10/10 98/98/98
f 156/156/156 145/145/145 153/153/153
f 162/162/162 12/12/12 22/22/22
f 116/116/116 22/22/22 12/12/12
f 50/50/50 45/45/45 98/98/98
f 50/50/50 98/98/98 36/36/36
f 160/160/160 54/54/54 147/147/147
f 129/129/129 50/50/50 36/36/36
f 26/26/26 128/128/128 52/52/52
f 23/23/23 11/11/11 87/87/87
f 140/140/140 172/172/172 24/24/24
f 122/122/122 166/166/166 109/109/109
f 47/47/47 84/84/84 82/82/82
f 48/48/48 38/38/38 141/141/141
f 65/65/65 94/94/94 3/3/3
f 169/169/169 60/60/60 160/160/160
f 56/56/56 88/88/88 99/99/99
f 7/7/7 99/99/99 88/88/88
f 164/164/164 160/160/160 60/60/60
f 64/64/64 91/91/91 89/89/89
f 136/136/136 62/62/62 32/32/32
f 93/93/93 38/38/38 48/48/48
f 23/23/23 25/25/25 11/11/11
f 93/93/93 10/10/10 45/45/45
f 48/48/48 90/90/90 93/93/93
f 25/25/25 23/23/23 159/159/159
f 59/59/59 39/39/39 91/91/91
f 143/143/143 39/39/39 59/59/59
f 64/64/64 89/89/89 21/21/21
f 89/89/89 91/91/91 39/39/39
f 6/6/6 91/91/91 64/64/64
f 63/63/63 111/111/111 161/161/161
f 135/135/135 44/44/44 29/29/29
f 6/6/6 55/55/55 85/85/85
f 154/154/154 127/127/127 132/132/132
f 155/155/155 102/102/102 35/35/35
f 143/143/143 90/90/90 39/39/39
f 102/102/102 155/155/155 73/73/73
f 75/75/75 117/117/117 115/115/115
f 53/53/53 145/145/145 156/156/156
f 43/43/43 101/101/101 107/107/107
f 111/111/111 169/169/169 161/161/161
f 172/172/172 146/146/146 154/154/154
f 11/11/11 107/107/107 101/101/101
f 133/133/133 27/27/27 78/78/78
f 150/150/150 161/161/161 165/165/165
f 65/65/65 141/141/141 94/94/94
f 142/142/142 46/46/46 35/35/35
f 37/37/37 90/90/90 143/143/143
f 37/37/37 143/143/143 171/171/171
f 163/163/163 168/168/168 150/150/150
f 157/157/157 10/10/10 90/90/90
f 49/49/49 98/98/98 10/10/10
f 49/49/49 10/10/10 157/157/157
f 145/145/145 157/157/157 153/153/153
f 34/34/34 51/51/51 57/57/57
f 119/119/119 29/29/29 118/118/118
f 145/145/145 49/49/49 157/157/157
f 105/105/105 170/170/170 81/81/81
f 135/135/135 72/72/72 17/17/17
f 156/156/156 57/57/57 109/109/109
f 53/53/53 49/49/49 145/145/145
f 149/149/149 166/166/166 98/98/98
f 149/149/149 98/98/98 49/49/49
f 38/38/38 94/94/94 141/141/141
f 5/5/5 95/95/95 111/111/111
f 95/95/95 57/57/57 156/156/156
f 163/163/163 150/150/150 32/32/32
f 60/60/60 111/111/111 95/95/95
f 168/168/168 163/163/163 28/28/28
f 168/168/168 121/121/121 63/63/63
f 172/172/172 28/28/28 163/163/163
f 34/34/34 57/57/57 104/104/104
f 168/168/168 63/63/63 150/150/150
f 9/9/9 117/117/117 75/75/75
f 79/79/79 13/13/13 124/124/124
f 144/144/144 152/152/152 162/162/162
f 95/95/95 156/156/156 153/153/153
f 87/87/87 46/46/46 40/40/40
f 88/88/88 151/151/151 40/40/40
f 83/83/83 54/54/54 171/171/171
f 96/96/96 43/43/43 100/100/100
f 37/37/37 171/171/171 164/164/164
f 77/77/77 119/119/119 118/118/118
f 134/134/134 66/66/66 113/113/113
f 122/122/122 23/23/23 151/151/151
f 169/169/169 144/144/144 161/161/161
f 40/40/40 46/46/46 86/86/86
f 90/90/90 48/48/48 39/39/39
f 112/112/112 42/42/42 31/31/31
f 133/133/133 14/14/14 79/79/79
f 118/118/118 79/79/79 14/14/14
f 167/167/167 26/26/26 52/52/52
f 130/130/130 1/1/1 113/113/113
f 13/13/13 131/131/131 127/127/127
f 79/79/79 124/124/124 133/133/133
f 80/80/80 104/104/104 5/5/5
f 46/46/46 87/87/87 101/101/101
f 147/147/147 152/152/152 144/144/144
f 173/173/173 25/25/25 34/34/34
f 109/109/109 166/166/166 149/149/149
f 29/29/29 131/131/131 118/118/118
f 27/27/27 123/123/123 125/125/125
f 11/11/11 101/101/101 87/87/87
f 33/33/33 52/52/52 108/108/108
f 107/107/107 33/33/33 110/110/110
f 139/139/139 33/33/33 108/108/108
f 136/136/136 30/30/30 62/62/62
f 33/33/33 106/106/106 52/52/52
f 21/21/21 89/89/89 141/141/141
f 110/110/110 33/33/33 139/139/139
f 103/103/103 68/68/68 102/102/102
f 107/107/107 106/106/106 33/33/33
f 117/117/117 62/62/62 30/30/30
f 148/148/148 25/25/25 173/173/173
f 148/148/148 173/173/173 158/158/158
f 148/148/148 106/106/106 107/107/107
f 43/43/43 139/139/139 100/100/100
f 124/124/124 146/146/146 61/61/61
f 43/43/43 107/107/107 110/110/110
f 27/27/27 124/124/124 61/61/61
f 54/54/54 160/160/160 171/171/171
f 100/100/100 155/155/155 35/35/35
f 43/43/43 110/110/110 139/139/139
f 115/115/115 30/30/30 42/42/42
f 74/74/74 139/139/139 108/108/108
f 4/4/4 103/103/103 102/102/102
f 7/7/7 70/70/70 99/99/99
f 116/116/116 42/42/42 30/30/30
f 151/151/151 23/23/23 40/40/40
f 68/68/68 142/142/142 102/102/102
f 86/86/86 46/46/46 142/142/142
f 142/142/142 35/35/35 102/102/102
f 88/88/88 56/56/56 151/151/151
f 31/31/31 134/134/134 113/113/113
f 19/19/19 86/86/86 142/142/142
f 69/69/69 94/94/94 92/92/92
f 56/56/56 166/166/166 122/122/122
f 148/148/148 158/158/158 106/106/106
f 44/44/44 127/127/127 131/131/131
f 105/105/105 81/81/81 80/80/80
f 89/89/89 39/39/39 48/48/48
f 56/56/56 122/122/122 151/151/151
f 122/122/122 51/51/51 23/23/23
f 129/129/129 18/18/18 45/45/45
f 92/92/92 45/45/45 18/18/18
f 56/56/56 99/99/99 120/120/120
f 56/56/56 120/120/120 166/166/166
f 88/88/88 40/40/40 86/86/86
f 67/67/67 88/88/88 86/86/86
f 67/67/67 7/7/7 88/88/88
f 19/19/19 67/67/67 86/86/86
f 68/68/68 19/19/19 142/142/142
f 87/87/87 40/40/40 23/23/23
f 42/42/42 116/116/116 114/114/114
f 174/174/174 4/4/4 102/102/102
f 73/73/73 174/174/174 102/102/102
f 16/16/16 73/73/73 100/100/100
f 74/74/74 16/16/16 139/139/139
f 8/8/8 74/74/74 108/108/108
f 131/131/131 79/79/79 118/118/118
f 8/8/8 108/108/108 128/128/128
f 76/76/76 113/113/113 1/1/1
f 35/35/35 96/96/96 100/100/100
f 96/96/96 35/35/35 101/101/101
f 78/78/78 27/27/27 125/125/125
f 52/52/52 128/128/128 108/108/108
f 128/128/128 71/71/71 8/8/8
f 48/48/48 141/141/141 89/89/89
f 24/24/24 105/105/105 140/140/140
f 126/126/126 17/17/17 71/71/71
f 127/127/127 44/44/44 26/26/26
f 26/26/26 126/126/126 128/128/128
f 123/123/123 61/61/61 163/163/163
f 71/71/71 128/128/128 126/126/126
f 132/132/132 127/127/127 26/26/26
f 17/17/17 126/126/126 135/135/135
f 10/10/10 93/93/93 90/90/90
f 124/124/124 13/13/13 146/146/146
f 43/43/43 96/96/96 101/101/101
f 131/131/131 13/13/13 79/79/79
f 149/149/149 53/53/53 109/109/109
f 29/29/29 44/44/44 131/131/131
f 12/12/12 114/114/114 116/116/116
f 66/66/66 134/134/134 137/137/137
f 44/44/44 135/135/135 126/126/126
f 85/85/85 41/41/41 83/83/83
f 160/160/160 147/147/147 169/169/169
f 119/119/119 2/2/2 72/72/72
f 133/133/133 124/124/124 27/27/27
f 134/134/134 31/31/31 137/137/137
f 77/77/77 118/118/118 14/14/14
f 60/60/60 153/153/153 164/164/164
f 81/81/81 158/158/158 173/173/173
f 154/154/154 146/146/146 13/13/13
f 14/14/14 133/133/133 78/78/78
f 24/24/24 132/132/132 170/170/170
f 154/154/154 132/132/132 24/24/24
f 81/81/81 173/173/173 80/80/80
f 121/121/121 28/28/28 80/80/80
f 28/28/28 105/105/105 80/80/80
f 121/121/121 5/5/5 111/111/111
f 97/97/97 2/2/2 119/119/119
f 60/60/60 95/95/95 153/153/153
f 97/97/97 119/119/119 77/77/77
f 154/154/154 13/13/13 127/127/127
f 168/168/168 28/28/28 121/121/121
f 123/123/123 27/27/27 61/61/61
f 129/129/129 45/45/45 50/50/50
f 80/80/80 173/173/173 104/104/104
f 34/34/34 104/104/104 173/173/173
