# frame 000505 
# time 0.253000 
# name Cloth3D 
v -0.000000 0.000000 -0.000000
v 1.000000 0.000000 -0.000000
v -0.000000 1.000000 0.000000
v 1.000000 1.000000 0.000000
v 0.498688 0.499398 0.121243
v -0.000000 0.500000 0.000000
v 0.500000 1.000000 0.000000
v 1.000000 0.500000 0.000000
v 0.500000 -0.000000 0.000000
v 0.247571 0.754055 0.067722
v 0.755672 0.752202 0.077791
v 0.246481 0.248498 0.060596
v 0.752552 0.244299 0.075834
v 0.750000 0.000000 0.000000
v 0.250000 0.000000 0.000000
v 1.000000 0.750000 0.000000
v 1.000000 0.250000 0.000000
v 0.250000 1.000000 0.000000
v 0.750000 1.000000 0.000000
v 0.000000 0.250000 0.000000
v 0.000000 0.750000 -0.000000
v 0.363165 0.218217 0.068070
v 0.631543 0.774942 0.085771
v 0.711804 0.357585 0.107087
v 0.677271 0.670000 0.119929
v 0.876599 0.374339 0.046487
v 0.626044 0.118987 0.054847
v 0.629177 0.368192 0.121546
v 0.875136 0.123902 0.020976
v 0.374917 0.125586 0.033597
v 0.125940 0.126453 0.002655
v 0.759393 0.690825 0.099654
v 0.882287 0.626186 0.060902
v 0.630223 0.629430 0.121306
v 0.877900 0.877683 0.035159
v 0.374064 0.880155 0.052870
v 0.257477 0.601703 0.089649
v 0.124970 0.875192 0.015503
v 0.123753 0.625053 0.040021
v 0.625808 0.877745 0.049374
v 0.119375 0.373858 0.050316
v 0.249384 0.124587 0.027843
v 0.881615 0.751955 0.052394
v 0.876209 0.248720 0.037613
v 0.248639 0.878903 0.040716
v 0.751962 0.878015 0.045554
v 0.121819 0.248929 0.035448
v 0.124515 0.750465 0.031167
v 0.300778 0.720041 0.090757
v 0.311497 0.878839 0.045438
v 0.552300 0.709453 0.119929
v 0.877558 0.500327 0.051574
v 0.376420 0.719391 0.119962
v 0.374724 0.940454 0.027176
v 0.000000 0.375000 0.000000
v 0.499305 0.877681 0.050688
v 0.498923 0.630335 0.121626
v 0.238686 0.369842 0.103685
v 0.124530 0.498887 0.040591
v 0.368203 0.499485 0.121544
v 0.628626 0.238667 0.109513
v 0.500686 0.124095 0.042718
v 0.498549 0.368856 0.121537
v 0.000000 0.625000 0.000000
v 0.000000 0.875000 0.000000
v 0.000000 0.125000 0.000000
v 0.625000 1.000000 0.000000
v 0.875000 1.000000 0.000000
v 0.125000 1.000000 0.000000
v 0.375000 1.000000 0.000000
v 1.000000 0.375000 0.000000
v 1.000000 0.125000 0.000000
v 1.000000 0.875000 0.000000
v 1.000000 0.625000 0.000000
v 0.375000 0.000000 0.000000
v 0.125000 0.000000 0.000000
v 0.875000 0.000000 0.000000
v 0.625000 0.000000 0.000000
v 0.751147 0.119813 0.045533
v 0.629655 0.499008 0.121413
v 0.721926 0.485532 0.119929
v 0.059988 0.312178 0.022971
v 0.182860 0.434939 0.070766
v 0.181776 0.310475 0.063421
v 0.062140 0.437022 0.020050
v 0.688012 0.938818 0.023735
v 0.690281 0.815486 0.067535
v 0.562487 0.938570 0.024713
v 0.062307 0.687409 0.017193
v 0.185932 0.688977 0.055132
v 0.062643 0.562148 0.018741
v 0.187966 0.937428 0.009651
v 0.186419 0.814599 0.039435
v 0.062854 0.937156 -0.000199
v 0.433524 0.565142 0.121219
v 0.836031 0.423060 0.060047
v 0.937500 0.000000 -0.000000
v 0.309970 0.819036 0.070286
v 0.437259 0.941169 0.030186
v 0.940088 0.813450 0.022942
v 0.816260 0.814396 0.051370
v 0.938890 0.938894 0.015475
v 0.062500 0.000000 -0.000000
v 0.564355 0.564530 0.121157
v 0.702722 0.424702 0.119929
v 0.828290 0.592897 0.086095
v 0.822573 0.690867 0.085253
v 0.939137 0.562898 0.026715
v 0.491921 0.728492 0.119934
v 0.883614 0.689467 0.060779
v 0.433079 0.434128 0.121231
v 0.187619 0.062974 0.007646
v 0.062793 0.062880 -0.007986
v 0.186741 0.188107 0.028699
v 0.312790 0.063644 0.011176
v 0.310767 0.185754 0.052890
v 0.437743 0.062265 0.019972
v 0.812778 0.060317 0.019917
v 0.937336 0.062545 0.004380
v 0.436575 0.880635 0.056678
v 0.563972 0.433856 0.121109
v 0.524558 0.809855 0.081523
v 0.564297 0.182948 0.072942
v 0.690651 0.178079 0.079452
v 0.562930 0.060869 0.024318
v 0.938475 0.312267 0.022172
v 0.813740 0.310010 0.060857
v 0.937838 0.437562 0.023083
v 0.312238 0.940111 0.024529
v -0.000000 0.062500 -0.000000
v 0.813545 0.184507 0.045079
v 0.802146 0.370523 0.069615
v 0.687898 0.057054 0.031517
v 0.799454 0.540703 0.091968
v 0.937254 0.187402 0.012773
v 0.437191 0.186629 0.059882
v 0.062452 0.187747 0.008781
v 0.062500 1.000000 0.000000
v 0.941503 0.688069 0.029941
v 0.683088 0.364513 0.119929
v 0.061900 0.812586 0.014705
v 0.813520 0.940550 0.025585
v 0.185215 0.562156 0.063519
v 0.360327 0.350758 0.119929
v 0.356232 0.655335 0.119929
v 0.650472 0.259140 0.119942
v 0.269206 0.379505 0.119942
v 0.770795 0.640495 0.119942
v 0.389505 0.760794 0.119942
v 0.484761 0.311475 0.119929
v 0.580735 0.834536 0.067116
v 0.288305 0.326767 0.102185
v 0.337013 0.594457 0.119929
v 0.717376 0.293497 0.097605
v 0.182323 0.487187 0.066096
v 0.432045 0.641005 0.121922
v 0.276760 0.661130 0.092059
v 0.693294 0.760978 0.084463
v 0.614037 0.689963 0.119929
v 0.298326 0.471835 0.119935
v 0.422430 0.331152 0.119929
v 0.358894 0.289387 0.096989
v 0.545223 0.292387 0.119929
v 0.317506 0.532666 0.119929
v 0.416028 0.252991 0.086458
v 0.423304 0.825254 0.087450
v 0.816367 0.481674 0.075003
v 0.544950 0.320116 0.121412
v 0.368245 0.413677 0.121987
v 0.769870 0.422824 0.087015
v 0.240259 0.514621 0.090016
v 0.662682 0.298611 0.119937
v 0.690938 0.586360 0.122006
v 1.000000 0.937500 0.000000
v 0.491648 0.244459 0.093943
v 0.740967 0.546701 0.119941
v 0.249571 0.939683 0.020657
vt 0.000000 0.000000
vt 1.000000 0.000000
vt 0.000000 1.000000
vt 1.000000 1.000000
vt 0.500000 0.500000
vt 0.000000 0.500000
vt 0.500000 1.000000
vt 1.000000 0.500000
vt 0.500000 0.000000
vt 0.250000 0.750000
vt 0.750000 0.750000
vt 0.250000 0.250000
vt 0.750000 0.250000
vt 0.750000 0.000000
vt 0.250000 0.000000
vt 1.000000 0.750000
vt 1.000000 0.250000
vt 0.250000 1.000000
vt 0.750000 1.000000
vt 0.000000 0.250000
vt 0.000000 0.750000
vt 0.365347 0.220303
vt 0.629073 0.770824
vt 0.706846 0.363401
vt 0.669783 0.664169
vt 0.875000 0.375000
vt 0.625000 0.125000
vt 0.625000 0.375000
vt 0.875000 0.125000
vt 0.375000 0.125000
vt 0.125000 0.125000
vt 0.750000 0.687500
vt 0.875000 0.625000
vt 0.625000 0.625000
vt 0.875000 0.875000
vt 0.375000 0.875000
vt 0.262101 0.599801
vt 0.125000 0.875000
vt 0.125000 0.625000
vt 0.625000 0.875000
vt 0.125000 0.375000
vt 0.250000 0.125000
vt 0.875000 0.750000
vt 0.875000 0.250000
vt 0.250000 0.875000
vt 0.750000 0.875000
vt 0.125000 0.250000
vt 0.125000 0.750000
vt 0.304602 0.713891
vt 0.312500 0.875000
vt 0.550931 0.701314
vt 0.875000 0.500000
vt 0.382770 0.708389
vt 0.375000 0.937500
vt 0.000000 0.375000
vt 0.500000 0.875000
vt 0.500000 0.625000
vt 0.250000 0.375000
vt 0.125000 0.500000
vt 0.375000 0.500000
vt 0.625000 0.250000
vt 0.500000 0.125000
vt 0.500000 0.375000
vt 0.000000 0.625000
vt 0.000000 0.875000
vt 0.000000 0.125000
vt 0.625000 1.000000
vt 0.875000 1.000000
vt 0.125000 1.000000
vt 0.375000 1.000000
vt 1.000000 0.375000
vt 1.000000 0.125000
vt 1.000000 0.875000
vt 1.000000 0.625000
vt 0.375000 0.000000
vt 0.125000 0.000000
vt 0.875000 0.000000
vt 0.625000 0.000000
vt 0.750000 0.125000
vt 0.625000 0.500000
vt 0.713173 0.487267
vt 0.062500 0.312500
vt 0.187500 0.437500
vt 0.187500 0.312500
vt 0.062500 0.437500
vt 0.687500 0.937500
vt 0.687500 0.812500
vt 0.562500 0.937500
vt 0.062500 0.687500
vt 0.187500 0.687500
vt 0.062500 0.562500
vt 0.187500 0.937500
vt 0.187500 0.812500
vt 0.062500 0.937500
vt 0.437500 0.562500
vt 0.834853 0.423541
vt 0.937500 0.000000
vt 0.312500 0.812500
vt 0.437500 0.937500
vt 0.937500 0.812500
vt 0.812500 0.812500
vt 0.937500 0.937500
vt 0.062500 0.000000
vt 0.562500 0.562500
vt 0.695288 0.428871
vt 0.819332 0.591237
vt 0.812500 0.687500
vt 0.937500 0.562500
vt 0.493131 0.718630
vt 0.875000 0.687500
vt 0.437500 0.437500
vt 0.187500 0.062500
vt 0.062500 0.062500
vt 0.187500 0.187500
vt 0.312500 0.062500
vt 0.312500 0.187500
vt 0.437500 0.062500
vt 0.812500 0.062500
vt 0.937500 0.062500
vt 0.437500 0.875000
vt 0.562500 0.437500
vt 0.525016 0.804189
vt 0.562500 0.187500
vt 0.687500 0.187500
vt 0.562500 0.062500
vt 0.937500 0.312500
vt 0.812500 0.312500
vt 0.937500 0.437500
vt 0.312500 0.937500
vt 0.000000 0.062500
vt 0.812500 0.187500
vt 0.800716 0.372483
vt 0.687500 0.062500
vt 0.792154 0.539766
vt 0.937500 0.187500
vt 0.437500 0.187500
vt 0.062500 0.187500
vt 0.062500 1.000000
vt 0.937500 0.687500
vt 0.676815 0.371293
vt 0.062500 0.812500
vt 0.812500 0.937500
vt 0.187500 0.562500
vt 0.367780 0.357394
vt 0.362974 0.648361
vt 0.645300 0.271815
vt 0.282177 0.385359
vt 0.756847 0.635687
vt 0.395390 0.746903
vt 0.486753 0.319722
vt 0.580205 0.830830
vt 0.296906 0.332149
vt 0.344426 0.590620
vt 0.713437 0.300753
vt 0.185471 0.488796
vt 0.436137 0.634590
vt 0.281585 0.657008
vt 0.688844 0.757642
vt 0.609781 0.683123
vt 0.308024 0.473655
vt 0.427028 0.338509
vt 0.364019 0.294291
vt 0.544645 0.301885
vt 0.325829 0.531738
vt 0.418341 0.256674
vt 0.425703 0.815414
vt 0.812755 0.481587
vt 0.544346 0.328467
vt 0.375653 0.417988
vt 0.766844 0.424637
vt 0.245672 0.515386
vt 0.657187 0.308852
vt 0.682510 0.583771
vt 1.000000 0.937500
vt 0.492214 0.250470
vt 0.730512 0.546155
vt 0.250000 0.937500
vn -0.000000 -0.000000 1.000000
vn 0.020005 -0.040011 0.998999
vn 0.003716 -0.007432 0.999965
vn 0.162375 0.081187 0.983383
vn -0.000069 -0.000976 1.000000
vn -0.295767 0.005853 0.955242
vn 0.022685 0.414280 0.909867
vn 0.372069 -0.015508 0.928076
vn -0.015642 -0.331292 0.943399
vn -0.285333 0.173120 0.942664
vn 0.148477 0.306975 0.940064
vn -0.207333 -0.302084 0.930461
vn 0.337089 -0.172196 0.925592
vn 0.048012 -0.395408 0.917250
vn -0.013989 -0.142032 0.989763
vn 0.407267 0.029363 0.912837
vn 0.263157 -0.038613 0.963980
vn -0.078611 0.297041 0.951623
vn -0.008299 0.373405 0.927631
vn -0.242135 -0.057824 0.968518
vn -0.241484 0.008762 0.970365
vn -0.054473 -0.371446 0.926855
vn 0.086191 0.340146 0.936414
vn 0.387985 -0.114106 0.914575
vn 0.054656 0.158630 0.985824
vn 0.319189 -0.027013 0.947306
vn -0.061389 -0.391145 0.918279
vn 0.014158 -0.006028 0.999882
vn 0.191489 -0.133082 0.972431
vn -0.061060 -0.312804 0.947853
vn -0.138519 -0.146174 0.979513
vn 0.172962 0.372662 0.911705
vn 0.438336 -0.020886 0.898569
vn 0.003040 0.015759 0.999871
vn 0.151626 0.158222 0.975692
vn -0.088836 0.402731 0.910997
vn -0.362008 0.079557 0.928774
vn -0.150721 0.160544 0.975453
vn -0.319007 0.040190 0.946900
vn 0.027083 0.355573 0.934256
vn -0.374326 -0.014925 0.927177
vn -0.110850 -0.257793 0.959820
vn 0.343116 0.148093 0.927545
vn 0.289271 -0.098225 0.952194
vn -0.139090 0.295525 0.945155
vn 0.061421 0.277807 0.958671
vn -0.241858 -0.196601 0.950186
vn -0.251754 0.083242 0.964205
vn -0.324665 0.166547 0.931051
vn -0.093572 0.352797 0.931009
vn 0.059232 0.199793 0.978046
vn 0.394997 -0.093036 0.913959
vn -0.201421 0.066071 0.977274
vn -0.049263 0.403829 0.913507
vn -0.357391 0.011967 0.933878
vn 0.074443 0.407720 0.910067
vn 0.003239 0.004434 0.999985
vn -0.377770 -0.233322 0.896019
vn -0.368824 0.042054 0.928547
vn -0.011683 0.005751 0.999915
vn -0.071606 -0.413882 0.907510
vn -0.071777 -0.341007 0.937317
vn -0.007571 -0.009766 0.999924
vn -0.271550 0.007041 0.962399
vn -0.107348 0.059721 0.992426
vn 0.026782 -0.051861 0.998295
vn 0.004223 0.366179 0.930535
vn 0.039334 0.317101 0.947576
vn -0.031470 0.051259 0.998189
vn -0.030999 0.415184 0.909209
vn 0.339678 -0.002349 0.940539
vn 0.124835 -0.032740 0.991637
vn 0.286905 0.023730 0.957665
vn 0.429266 -0.016646 0.903025
vn -0.035726 -0.247885 0.968131
vn -0.048942 0.032346 0.998278
vn 0.050375 -0.159696 0.985880
vn -0.031118 -0.420407 0.906802
vn 0.186768 -0.275915 0.942862
vn 0.003577 -0.003452 0.999988
vn 0.241838 -0.079914 0.967020
vn -0.332380 -0.069414 0.940588
vn -0.403671 0.086528 0.910803
vn -0.297430 -0.237262 0.924793
vn -0.346186 0.046428 0.937016
vn 0.004337 0.359166 0.933264
vn 0.081022 0.298819 0.950864
vn 0.015891 0.374734 0.926996
vn -0.271268 0.025556 0.962165
vn -0.316321 0.089155 0.944453
vn -0.307005 0.008060 0.951674
vn -0.128394 0.237799 0.962791
vn -0.245850 0.163273 0.955458
vn -0.037006 0.042991 0.998390
vn -0.003971 -0.001881 0.999990
vn 0.352303 -0.063608 0.933722
vn 0.000000 -0.060004 0.998198
vn -0.196224 0.327010 0.924424
vn 0.003193 0.407068 0.913392
vn 0.339212 0.065649 0.938416
vn 0.138867 0.216896 0.966267
vn 0.168234 0.116103 0.978886
vn 0.032117 0.096351 0.994829
vn -0.000337 -0.000857 1.000000
vn 0.266981 -0.078893 0.960467
vn 0.442560 -0.065536 0.894341
vn 0.320633 0.194355 0.927050
vn 0.422082 -0.036791 0.905811
vn 0.062216 0.200686 0.977678
vn 0.419751 0.062105 0.905512
vn 0.004066 -0.002309 0.999989
vn -0.087573 -0.128107 0.987886
vn 0.040864 0.039559 0.998381
vn -0.196241 -0.245366 0.949360
vn -0.040970 -0.241405 0.969559
vn -0.088274 -0.322129 0.942571
vn -0.036035 -0.298442 0.953747
vn 0.105935 -0.255532 0.960979
vn 0.069846 -0.069593 0.995127
vn 0.029890 0.439530 0.897731
vn -0.001284 0.000710 0.999999
vn 0.084589 0.406833 0.909578
vn -0.121836 -0.394514 0.910777
vn 0.174568 -0.336930 0.925205
vn -0.052024 -0.370572 0.927346
vn 0.319302 -0.037544 0.946909
vn 0.322435 -0.077065 0.943449
vn 0.356902 -0.020586 0.933915
vn -0.057025 0.354008 0.933502
vn 0.096481 0.032160 0.994815
vn 0.247975 -0.185670 0.950808
vn 0.349300 -0.069593 0.934423
vn 0.024723 -0.405233 0.913879
vn 0.413364 -0.135694 0.900398
vn 0.225901 -0.068931 0.971708
vn -0.085778 -0.370399 0.924904
vn -0.144956 -0.127370 0.981206
vn 0.000000 -0.011148 0.999938
vn 0.449437 0.028678 0.892852
vn 0.253782 -0.081413 0.963829
vn -0.178169 0.065525 0.981816
vn 0.036582 0.304127 0.951929
vn -0.371753 0.051346 0.926911
vn -0.067048 -0.206854 0.976072
vn -0.184430 0.064946 0.980697
vn 0.087523 -0.260977 0.961369
vn -0.297408 -0.228856 0.926916
vn 0.260316 0.174920 0.949547
vn -0.142251 0.210791 0.967125
vn -0.060122 -0.175251 0.982686
vn 0.046103 0.369799 0.927967
vn -0.193547 -0.371519 0.908027
vn -0.194248 0.057496 0.979266
vn 0.375805 -0.116730 0.919317
vn -0.397822 0.060908 0.915439
vn -0.005547 0.003229 0.999979
vn -0.335217 0.115956 0.934978
vn 0.117761 0.317357 0.940966
vn 0.054467 0.173447 0.983336
vn -0.199030 0.057437 0.978309
vn -0.061360 -0.211946 0.975353
vn -0.102218 -0.367249 0.924489
vn -0.040043 -0.146067 0.988464
vn -0.182474 0.053402 0.981759
vn -0.094690 -0.386522 0.917406
vn 0.000912 0.459812 0.888016
vn 0.394335 -0.128455 0.909945
vn -0.008181 -0.033684 0.999399
vn -0.003120 -0.008606 0.999958
vn 0.403922 -0.105479 0.908692
vn -0.390972 0.077749 0.917113
vn 0.230518 -0.072224 0.970384
vn 0.012052 0.003177 0.999922
vn 0.240412 0.000000 0.970671
vn -0.116163 -0.394171 0.911666
vn 0.232066 -0.073609 0.969911
vn -0.119702 0.316955 0.940856
f 130/130/130 103/103/103 113/113/113
f 112/112/112 31/31/31 113/113/113
f 137/137/137 66/66/66 113/113/113
f 31/31/31 137/137/137 113/113/113
f 58/58/58 152/152/152 147/147/147
f 112/112/112 114/114/114 31/31/31
f 136/136/136 30/30/30 117/117/117
f 130/130/130 1/1/1 103/103/103
f 66/66/66 130/130/130 113/113/113
f 152/152/152 12/12/12 162/162/162
f 23/23/23 159/159/159 158/158/158
f 76/76/76 113/113/113 103/103/103
f 115/115/115 112/112/112 15/15/15
f 140/140/140 28/28/28 172/172/172
f 114/114/114 137/137/137 31/31/31
f 76/76/76 112/112/112 113/113/113
f 42/42/42 114/114/114 112/112/112
f 15/15/15 112/112/112 76/76/76
f 115/115/115 15/15/15 75/75/75
f 116/116/116 12/12/12 42/42/42
f 116/116/116 115/115/115 30/30/30
f 125/125/125 27/27/27 62/62/62
f 22/22/22 30/30/30 136/136/136
f 114/114/114 42/42/42 12/12/12
f 81/81/81 134/134/134 176/176/176
f 165/165/165 22/22/22 136/136/136
f 115/115/115 75/75/75 30/30/30
f 117/117/117 30/30/30 75/75/75
f 172/172/172 168/168/168 163/163/163
f 116/116/116 30/30/30 22/22/22
f 42/42/42 112/112/112 115/115/115
f 42/42/42 115/115/115 116/116/116
f 140/140/140 105/105/105 28/28/28
f 59/59/59 83/83/83 155/155/155
f 129/129/129 70/70/70 18/18/18
f 24/24/24 170/170/170 105/105/105
f 165/165/165 162/162/162 22/22/22
f 12/12/12 116/116/116 162/162/162
f 150/150/150 165/165/165 175/175/175
f 37/37/37 153/153/153 157/157/157
f 164/164/164 153/153/153 37/37/37
f 146/146/146 163/163/163 61/61/61
f 39/39/39 90/90/90 48/48/48
f 41/41/41 58/58/58 83/83/83
f 175/175/175 165/165/165 136/136/136
f 161/161/161 144/144/144 162/162/162
f 51/51/51 159/159/159 23/23/23
f 156/156/156 109/109/109 53/53/53
f 78/78/78 125/125/125 9/9/9
f 121/121/121 80/80/80 5/5/5
f 154/154/154 24/24/24 172/172/172
f 147/147/147 144/144/144 169/169/169
f 44/44/44 126/126/126 26/26/26
f 122/122/122 109/109/109 51/51/51
f 162/162/162 165/165/165 161/161/161
f 123/123/123 163/163/163 175/175/175
f 60/60/60 169/169/169 111/111/111
f 63/63/63 121/121/121 111/111/111
f 63/63/63 161/161/161 150/150/150
f 25/25/25 159/159/159 34/34/34
f 81/81/81 170/170/170 167/167/167
f 83/83/83 58/58/58 147/147/147
f 84/84/84 152/152/152 58/58/58
f 51/51/51 109/109/109 57/57/57
f 34/34/34 159/159/159 51/51/51
f 25/25/25 158/158/158 159/159/159
f 172/172/172 28/28/28 168/168/168
f 85/85/85 55/55/55 41/41/41
f 82/82/82 137/137/137 47/47/47
f 29/29/29 119/119/119 135/135/135
f 72/72/72 135/135/135 119/119/119
f 84/84/84 12/12/12 152/152/152
f 84/84/84 58/58/58 41/41/41
f 47/47/47 137/137/137 114/114/114
f 59/59/59 85/85/85 83/83/83
f 55/55/55 82/82/82 41/41/41
f 20/20/20 137/137/137 82/82/82
f 20/20/20 66/66/66 137/137/137
f 55/55/55 20/20/20 82/82/82
f 59/59/59 91/91/91 85/85/85
f 21/21/21 141/141/141 65/65/65
f 6/6/6 85/85/85 91/91/91
f 94/94/94 138/138/138 3/3/3
f 41/41/41 82/82/82 84/84/84
f 172/172/172 163/163/163 146/146/146
f 149/149/149 49/49/49 53/53/53
f 92/92/92 18/18/18 69/69/69
f 94/94/94 69/69/69 138/138/138
f 177/177/177 129/129/129 18/18/18
f 54/54/54 99/99/99 70/70/70
f 177/177/177 50/50/50 129/129/129
f 120/120/120 54/54/54 36/36/36
f 157/157/157 90/90/90 37/37/37
f 166/166/166 120/120/120 36/36/36
f 38/38/38 92/92/92 94/94/94
f 120/120/120 99/99/99 54/54/54
f 98/98/98 166/166/166 36/36/36
f 164/164/164 171/171/171 160/160/160
f 45/45/45 10/10/10 98/98/98
f 156/156/156 145/145/145 153/153/153
f 38/38/38 45/45/45 92/92/92
f 93/93/93 45/45/45 38/38/38
f 50/50/50 45/45/45 98/98/98
f 50/50/50 98/98/98 36/36/36
f 129/129/129 36/36/36 54/54/54
f 129/129/129 50/50/50 36/36/36
f 129/129/129 54/54/54 70/70/70
f 177/177/177 45/45/45 50/50/50
f 177/177/177 18/18/18 92/92/92
f 177/177/177 92/92/92 45/45/45
f 47/47/47 84/84/84 82/82/82
f 48/48/48 38/38/38 141/141/141
f 65/65/65 94/94/94 3/3/3
f 169/169/169 60/60/60 160/160/160
f 56/56/56 88/88/88 99/99/99
f 7/7/7 99/99/99 88/88/88
f 164/164/164 160/160/160 60/60/60
f 64/64/64 91/91/91 89/89/89
f 89/89/89 39/39/39 48/48/48
f 93/93/93 38/38/38 48/48/48
f 93/93/93 48/48/48 10/10/10
f 93/93/93 10/10/10 45/45/45
f 125/125/125 62/62/62 9/9/9
f 90/90/90 10/10/10 48/48/48
f 59/59/59 39/39/39 91/91/91
f 143/143/143 39/39/39 59/59/59
f 64/64/64 89/89/89 21/21/21
f 89/89/89 91/91/91 39/39/39
f 6/6/6 91/91/91 64/64/64
f 63/63/63 111/111/111 161/161/161
f 135/135/135 44/44/44 29/29/29
f 6/6/6 55/55/55 85/85/85
f 154/154/154 127/127/127 132/132/132
f 143/143/143 59/59/59 155/155/155
f 143/143/143 90/90/90 39/39/39
f 171/171/171 143/143/143 155/155/155
f 171/171/171 155/155/155 83/83/83
f 53/53/53 145/145/145 156/156/156
f 62/62/62 123/123/123 136/136/136
f 111/111/111 169/169/169 161/161/161
f 172/172/172 146/146/146 154/154/154
f 123/123/123 175/175/175 136/136/136
f 133/133/133 27/27/27 78/78/78
f 150/150/150 161/161/161 165/165/165
f 65/65/65 141/141/141 94/94/94
f 62/62/62 136/136/136 117/117/117
f 37/37/37 90/90/90 143/143/143
f 37/37/37 143/143/143 171/171/171
f 163/163/163 168/168/168 150/150/150
f 157/157/157 10/10/10 90/90/90
f 49/49/49 98/98/98 10/10/10
f 49/49/49 10/10/10 157/157/157
f 145/145/145 157/157/157 153/153/153
f 34/34/34 51/51/51 57/57/57
f 119/119/119 29/29/29 118/118/118
f 145/145/145 49/49/49 157/157/157
f 105/105/105 170/170/170 81/81/81
f 135/135/135 72/72/72 17/17/17
f 156/156/156 57/57/57 109/109/109
f 53/53/53 49/49/49 145/145/145
f 149/149/149 166/166/166 98/98/98
f 149/149/149 98/98/98 49/49/49
f 38/38/38 94/94/94 141/141/141
f 5/5/5 95/95/95 111/111/111
f 95/95/95 57/57/57 156/156/156
f 163/163/163 150/150/150 175/175/175
f 60/60/60 111/111/111 95/95/95
f 5/5/5 57/57/57 95/95/95
f 168/168/168 121/121/121 63/63/63
f 104/104/104 57/57/57 5/5/5
f 34/34/34 57/57/57 104/104/104
f 168/168/168 63/63/63 150/150/150
f 9/9/9 117/117/117 75/75/75
f 79/79/79 13/13/13 124/124/124
f 144/144/144 152/152/152 162/162/162
f 95/95/95 156/156/156 153/153/153
f 87/87/87 46/46/46 40/40/40
f 88/88/88 151/151/151 40/40/40
f 80/80/80 173/173/173 104/104/104
f 167/167/167 96/96/96 52/52/52
f 37/37/37 171/171/171 164/164/164
f 77/77/77 119/119/119 118/118/118
f 87/87/87 11/11/11 46/46/46
f 122/122/122 23/23/23 151/151/151
f 169/169/169 144/144/144 161/161/161
f 40/40/40 46/46/46 86/86/86
f 173/173/173 34/34/34 104/104/104
f 22/22/22 162/162/162 116/116/116
f 32/32/32 148/148/148 107/107/107
f 32/32/32 25/25/25 148/148/148
f 158/158/158 25/25/25 32/32/32
f 131/131/131 44/44/44 13/13/13
f 79/79/79 133/133/133 118/118/118
f 79/79/79 124/124/124 133/133/133
f 80/80/80 104/104/104 5/5/5
f 148/148/148 176/176/176 134/134/134
f 147/147/147 152/152/152 144/144/144
f 173/173/173 25/25/25 34/34/34
f 109/109/109 166/166/166 149/149/149
f 29/29/29 131/131/131 118/118/118
f 106/106/106 134/134/134 52/52/52
f 148/148/148 134/134/134 106/106/106
f 33/33/33 52/52/52 108/108/108
f 107/107/107 33/33/33 110/110/110
f 139/139/139 33/33/33 108/108/108
f 43/43/43 101/101/101 107/107/107
f 33/33/33 106/106/106 52/52/52
f 21/21/21 89/89/89 141/141/141
f 110/110/110 33/33/33 139/139/139
f 43/43/43 35/35/35 101/101/101
f 107/107/107 106/106/106 33/33/33
f 101/101/101 11/11/11 107/107/107
f 148/148/148 25/25/25 173/173/173
f 148/148/148 173/173/173 176/176/176
f 148/148/148 106/106/106 107/107/107
f 11/11/11 32/32/32 107/107/107
f 158/158/158 32/32/32 11/11/11
f 43/43/43 107/107/107 110/110/110
f 23/23/23 158/158/158 87/87/87
f 142/142/142 101/101/101 35/35/35
f 46/46/46 101/101/101 142/142/142
f 43/43/43 110/110/110 139/139/139
f 100/100/100 43/43/43 139/139/139
f 74/74/74 139/139/139 108/108/108
f 100/100/100 35/35/35 43/43/43
f 7/7/7 70/70/70 99/99/99
f 16/16/16 100/100/100 139/139/139
f 102/102/102 35/35/35 100/100/100
f 68/68/68 142/142/142 102/102/102
f 86/86/86 46/46/46 142/142/142
f 142/142/142 35/35/35 102/102/102
f 88/88/88 56/56/56 151/151/151
f 46/46/46 11/11/11 101/101/101
f 19/19/19 86/86/86 142/142/142
f 69/69/69 94/94/94 92/92/92
f 56/56/56 166/166/166 122/122/122
f 23/23/23 87/87/87 40/40/40
f 118/118/118 133/133/133 14/14/14
f 158/158/158 11/11/11 87/87/87
f 151/151/151 23/23/23 40/40/40
f 56/56/56 122/122/122 151/151/151
f 122/122/122 51/51/51 23/23/23
f 171/171/171 83/83/83 160/160/160
f 83/83/83 147/147/147 160/160/160
f 56/56/56 99/99/99 120/120/120
f 56/56/56 120/120/120 166/166/166
f 88/88/88 40/40/40 86/86/86
f 67/67/67 88/88/88 86/86/86
f 67/67/67 7/7/7 88/88/88
f 19/19/19 67/67/67 86/86/86
f 68/68/68 19/19/19 142/142/142
f 73/73/73 102/102/102 100/100/100
f 4/4/4 68/68/68 102/102/102
f 174/174/174 4/4/4 102/102/102
f 73/73/73 174/174/174 102/102/102
f 16/16/16 73/73/73 100/100/100
f 74/74/74 16/16/16 139/139/139
f 8/8/8 74/74/74 108/108/108
f 131/131/131 79/79/79 118/118/118
f 8/8/8 108/108/108 128/128/128
f 13/13/13 44/44/44 127/127/127
f 96/96/96 128/128/128 52/52/52
f 96/96/96 132/132/132 26/26/26
f 78/78/78 27/27/27 125/125/125
f 52/52/52 128/128/128 108/108/108
f 128/128/128 71/71/71 8/8/8
f 48/48/48 141/141/141 89/89/89
f 24/24/24 105/105/105 140/140/140
f 126/126/126 17/17/17 71/71/71
f 127/127/127 44/44/44 26/26/26
f 26/26/26 126/126/126 128/128/128
f 123/123/123 61/61/61 163/163/163
f 71/71/71 128/128/128 126/126/126
f 132/132/132 127/127/127 26/26/26
f 17/17/17 126/126/126 135/135/135
f 62/62/62 117/117/117 9/9/9
f 124/124/124 13/13/13 146/146/146
f 96/96/96 170/170/170 132/132/132
f 131/131/131 13/13/13 79/79/79
f 149/149/149 53/53/53 109/109/109
f 29/29/29 44/44/44 131/131/131
f 96/96/96 26/26/26 128/128/128
f 167/167/167 52/52/52 134/134/134
f 44/44/44 135/135/135 126/126/126
f 167/167/167 170/170/170 96/96/96
f 160/160/160 147/147/147 169/169/169
f 119/119/119 2/2/2 72/72/72
f 133/133/133 124/124/124 27/27/27
f 81/81/81 167/167/167 134/134/134
f 77/77/77 118/118/118 14/14/14
f 60/60/60 153/153/153 164/164/164
f 81/81/81 176/176/176 173/173/173
f 154/154/154 146/146/146 13/13/13
f 14/14/14 133/133/133 78/78/78
f 24/24/24 132/132/132 170/170/170
f 154/154/154 132/132/132 24/24/24
f 81/81/81 173/173/173 80/80/80
f 121/121/121 28/28/28 80/80/80
f 28/28/28 105/105/105 80/80/80
f 121/121/121 5/5/5 111/111/111
f 97/97/97 2/2/2 119/119/119
f 60/60/60 95/95/95 153/153/153
f 97/97/97 119/119/119 77/77/77
f 154/154/154 13/13/13 127/127/127
f 168/168/168 28/28/28 121/121/121
f 123/123/123 27/27/27 61/61/61
f 122/122/122 166/166/166 109/109/109
f 140/140/140 172/172/172 24/24/24
f 105/105/105 81/81/81 80/80/80
f 27/27/27 124/124/124 61/61/61
f 124/124/124 146/146/146 61/61/61
f 62/62/62 27/27/27 123/123/123
f 85/85/85 41/41/41 83/83/83
f 84/84/84 47/47/47 12/12/12
f 114/114/114 12/12/12 47/47/47
