# frame 000548 
# time 0.274500 
# name Cloth3D 
v -0.000000 0.000000 -0.000000
v 1.000000 0.000000 -0.000000
v -0.000000 1.000000 0.000000
v 1.000000 1.000000 0.000000
v 0.501997 0.501277 0.129547
v -0.000000 0.500000 0.000000
v 0.500000 1.000000 0.000000
v 1.000000 0.500000 0.000000
v 0.500000 -0.000000 0.000000
v 0.245292 0.757027 0.082766
v 0.758664 0.758031 0.090057
v 0.245243 0.246767 0.075892
v 0.757259 0.244247 0.085120
v 0.750000 0.000000 0.000000
v 0.250000 0.000000 0.000000
v 1.000000 0.750000 0.000000
v 1.000000 0.250000 0.000000
v 0.250000 1.000000 0.000000
v 0.750000 1.000000 0.000000
v 0.000000 0.250000 0.000000
v 0.000000 0.750000 -0.000000
v 0.363697 0.217829 0.075554
v 0.634017 0.779405 0.093693
v 1.000000 0.937500 0.000000
v 0.681982 0.681313 0.119929
v 0.881341 0.373884 0.054537
v 0.627227 0.121150 0.051084
v 0.632100 0.370236 0.120361
v 0.879490 0.120994 0.039050
v 0.374510 0.123064 0.045031
v 0.122206 0.122578 0.032391
v 0.493330 0.245004 0.096806
v 0.880604 0.627189 0.054645
v 0.632624 0.631246 0.120150
v 0.877925 0.877727 0.029829
v 0.373890 0.882918 0.059232
v 0.257891 0.603716 0.095552
v 0.121492 0.879034 0.037120
v 0.120994 0.626810 0.051510
v 0.627289 0.881644 0.055887
v 0.120692 0.374462 0.051655
v 0.248269 0.123121 0.039482
v 0.879365 0.752968 0.046181
v 0.881317 0.247304 0.050857
v 0.247457 0.881200 0.050690
v 0.753510 0.881244 0.050396
v 0.118922 0.247923 0.050971
v 0.119301 0.753286 0.052142
v 0.300147 0.722549 0.102335
v 0.000000 0.687500 -0.000000
v 0.553672 0.707094 0.119929
v 0.882527 0.500625 0.059162
v 0.428835 0.732165 0.119938
v 0.243169 0.455014 0.095640
v 0.000000 0.375000 0.000000
v 0.500574 0.881359 0.056883
v 0.501961 0.631671 0.122718
v 0.242130 0.372227 0.101883
v 0.121610 0.500498 0.051114
v 0.371614 0.501383 0.121487
v 0.630615 0.241337 0.104926
v 0.500952 0.122119 0.049674
v 0.501684 0.371020 0.122355
v 0.000000 0.625000 0.000000
v 0.000000 0.875000 0.000000
v 0.000000 0.125000 0.000000
v 0.625000 1.000000 0.000000
v 0.875000 1.000000 0.000000
v 0.125000 1.000000 0.000000
v 0.375000 1.000000 0.000000
v 1.000000 0.375000 0.000000
v 1.000000 0.125000 0.000000
v 1.000000 0.875000 0.000000
v 1.000000 0.625000 0.000000
v 0.375000 0.000000 0.000000
v 0.125000 0.000000 0.000000
v 0.875000 0.000000 0.000000
v 0.625000 0.000000 0.000000
v 0.753335 0.120858 0.047604
v 0.632528 0.501030 0.124122
v 0.719578 0.488630 0.119929
v 0.059749 0.312044 0.026399
v 0.182913 0.437011 0.074661
v 0.181080 0.310273 0.073177
v 0.060304 0.437559 0.026577
v 0.688589 0.939764 0.024804
v 0.692430 0.820249 0.075803
v 0.563176 0.942912 0.032980
v 0.060071 0.688672 0.026248
v 0.181983 0.691632 0.073172
v 0.061208 0.563040 0.024670
v 0.186018 0.941884 0.027354
v 0.182409 0.818602 0.062008
v 0.060829 0.939235 0.015705
v 0.436926 0.566632 0.125215
v 0.879799 0.816086 0.042204
v 0.937500 0.000000 -0.000000
v 0.309327 0.821737 0.079480
v 0.437435 0.942049 0.031340
v 0.940107 0.813719 0.021899
v 0.818746 0.818887 0.060829
v 0.937789 0.937598 0.004716
v 0.937500 1.000000 0.000000
v 0.567410 0.566416 0.127111
v 0.707018 0.426123 0.119929
v 0.827652 0.594227 0.080131
v 0.820751 0.692289 0.078775
v 0.940783 0.563179 0.028789
v 0.491901 0.719483 0.119934
v 0.693005 0.588281 0.120699
v 0.436537 0.436302 0.124094
v 0.186744 0.062044 0.016243
v 0.061638 0.061776 0.010757
v 0.183303 0.184384 0.054023
v 0.312150 0.061781 0.020745
v 0.310344 0.184737 0.063161
v 0.437687 0.061213 0.024254
v 0.814234 0.059789 0.024036
v 0.939072 0.061008 0.014442
v -0.000000 0.937500 0.000000
v 0.567176 0.435919 0.125021
v 0.526566 0.813422 0.086792
v 0.565031 0.182211 0.076804
v 0.692043 0.181796 0.074042
v 0.563245 0.060657 0.025902
v 0.940224 0.311726 0.025603
v 0.820027 0.309346 0.074083
v 0.941120 0.437471 0.028980
v 0.311858 0.940919 0.027484
v -0.000000 0.062500 -0.000000
v 0.818885 0.182226 0.062333
v 0.809705 0.370080 0.084083
v 0.688732 0.060876 0.024025
v 0.061177 0.124222 0.015742
v 0.941060 0.185992 0.025260
v 0.437496 0.184463 0.069389
v 0.059685 0.186649 0.022992
v 0.062500 1.000000 0.000000
v 0.939213 0.688478 0.023653
v 0.693953 0.364164 0.119929
v 0.059471 0.814166 0.024699
v 0.813637 0.939165 0.018961
v 0.184138 0.564282 0.070821
v 0.359273 0.338425 0.119929
v 0.346213 0.659669 0.119929
v 0.676634 0.274587 0.119942
v 0.284661 0.353348 0.119942
v 0.755340 0.666652 0.119942
v 0.363348 0.745339 0.119942
v 0.487361 0.312687 0.119929
v 0.582674 0.839229 0.075318
v 0.289634 0.327320 0.110763
v 0.333691 0.597346 0.119929
v 0.722554 0.293604 0.107807
v 0.939555 0.876304 0.016791
v 0.435355 0.641983 0.122023
v 0.277592 0.663037 0.098088
v 0.731911 0.551319 0.119941
v 0.616936 0.694383 0.119929
v 0.308575 0.472221 0.119935
v 0.423289 0.325561 0.119929
v 0.360463 0.290396 0.102125
v 0.549327 0.300236 0.119929
v 0.321008 0.534222 0.119929
v 0.417411 0.253319 0.091376
v 0.424699 0.825425 0.085299
v 0.822837 0.481805 0.085295
v 1.000000 0.062500 -0.000000
v 0.371599 0.415914 0.121457
v 0.776533 0.423105 0.097546
v 0.241633 0.516579 0.091801
v 0.680685 0.296205 0.119937
v 1.000000 0.812500 0.000000
v 0.000000 0.812500 -0.000000
v 1.000000 0.187500 0.000000
vt 0.000000 0.000000
vt 1.000000 0.000000
vt 0.000000 1.000000
vt 1.000000 1.000000
vt 0.500000 0.500000
vt 0.000000 0.500000
vt 0.500000 1.000000
vt 1.000000 0.500000
vt 0.500000 0.000000
vt 0.250000 0.750000
vt 0.750000 0.750000
vt 0.250000 0.250000
vt 0.750000 0.250000
vt 0.750000 0.000000
vt 0.250000 0.000000
vt 1.000000 0.750000
vt 1.000000 0.250000
vt 0.250000 1.000000
vt 0.750000 1.000000
vt 0.000000 0.250000
vt 0.000000 0.750000
vt 0.365347 0.220303
vt 0.629073 0.770824
vt 1.000000 0.937500
vt 0.672126 0.673180
vt 0.875000 0.375000
vt 0.625000 0.125000
vt 0.625000 0.375000
vt 0.875000 0.125000
vt 0.375000 0.125000
vt 0.125000 0.125000
vt 0.492214 0.250470
vt 0.875000 0.625000
vt 0.625000 0.625000
vt 0.875000 0.875000
vt 0.375000 0.875000
vt 0.262101 0.599801
vt 0.125000 0.875000
vt 0.125000 0.625000
vt 0.625000 0.875000
vt 0.125000 0.375000
vt 0.250000 0.125000
vt 0.875000 0.750000
vt 0.875000 0.250000
vt 0.250000 0.875000
vt 0.750000 0.875000
vt 0.125000 0.250000
vt 0.125000 0.750000
vt 0.304602 0.713891
vt 0.000000 0.687500
vt 0.549956 0.697573
vt 0.875000 0.500000
vt 0.430241 0.720521
vt 0.248222 0.455442
vt 0.000000 0.375000
vt 0.500000 0.875000
vt 0.500000 0.625000
vt 0.250000 0.375000
vt 0.125000 0.500000
vt 0.375000 0.500000
vt 0.625000 0.250000
vt 0.500000 0.125000
vt 0.500000 0.375000
vt 0.000000 0.625000
vt 0.000000 0.875000
vt 0.000000 0.125000
vt 0.625000 1.000000
vt 0.875000 1.000000
vt 0.125000 1.000000
vt 0.375000 1.000000
vt 1.000000 0.375000
vt 1.000000 0.125000
vt 1.000000 0.875000
vt 1.000000 0.625000
vt 0.375000 0.000000
vt 0.125000 0.000000
vt 0.875000 0.000000
vt 0.625000 0.000000
vt 0.750000 0.125000
vt 0.625000 0.500000
vt 0.708577 0.488374
vt 0.062500 0.312500
vt 0.187500 0.437500
vt 0.187500 0.312500
vt 0.062500 0.437500
vt 0.687500 0.937500
vt 0.687500 0.812500
vt 0.562500 0.937500
vt 0.062500 0.687500
vt 0.187500 0.687500
vt 0.062500 0.562500
vt 0.187500 0.937500
vt 0.187500 0.812500
vt 0.062500 0.937500
vt 0.437500 0.562500
vt 0.875000 0.812500
vt 0.937500 0.000000
vt 0.312500 0.812500
vt 0.437500 0.937500
vt 0.937500 0.812500
vt 0.812500 0.812500
vt 0.937500 0.937500
vt 0.937500 1.000000
vt 0.562500 0.562500
vt 0.696767 0.428456
vt 0.819332 0.591237
vt 0.812500 0.687500
vt 0.937500 0.562500
vt 0.490727 0.708930
vt 0.682510 0.583771
vt 0.437500 0.437500
vt 0.187500 0.062500
vt 0.062500 0.062500
vt 0.187500 0.187500
vt 0.312500 0.062500
vt 0.312500 0.187500
vt 0.437500 0.062500
vt 0.812500 0.062500
vt 0.937500 0.062500
vt 0.000000 0.937500
vt 0.562500 0.437500
vt 0.525016 0.804189
vt 0.562500 0.187500
vt 0.687500 0.187500
vt 0.562500 0.062500
vt 0.937500 0.312500
vt 0.812500 0.312500
vt 0.937500 0.437500
vt 0.312500 0.937500
vt 0.000000 0.062500
vt 0.812500 0.187500
vt 0.800716 0.372483
vt 0.687500 0.062500
vt 0.062500 0.125000
vt 0.937500 0.187500
vt 0.437500 0.187500
vt 0.062500 0.187500
vt 0.062500 1.000000
vt 0.937500 0.687500
vt 0.684498 0.369260
vt 0.062500 0.812500
vt 0.812500 0.937500
vt 0.187500 0.562500
vt 0.364061 0.343482
vt 0.350583 0.651696
vt 0.667987 0.284820
vt 0.294032 0.358575
vt 0.740925 0.658714
vt 0.367844 0.732457
vt 0.486573 0.318963
vt 0.580205 0.830830
vt 0.296906 0.332149
vt 0.338341 0.592197
vt 0.713437 0.300753
vt 0.937500 0.875000
vt 0.436137 0.634590
vt 0.281585 0.657008
vt 0.720070 0.548666
vt 0.610371 0.685568
vt 0.314884 0.471955
vt 0.425113 0.331074
vt 0.364019 0.294291
vt 0.546058 0.307544
vt 0.326334 0.531598
vt 0.418341 0.256674
vt 0.425703 0.815414
vt 0.812755 0.481587
vt 1.000000 0.062500
vt 0.375653 0.417988
vt 0.766844 0.424637
vt 0.245672 0.515386
vt 0.671782 0.305078
vt 1.000000 0.812500
vt 0.000000 0.812500
vt 1.000000 0.187500
vn -0.111518 -0.055759 0.992197
vn 0.119944 -0.119944 0.985508
vn -0.127307 0.127307 0.983659
vn 0.041911 0.041911 0.998242
vn -0.014499 -0.012245 0.999820
vn -0.386577 0.008810 0.922215
vn -0.006670 0.489863 0.871774
vn 0.440451 -0.000144 0.897777
vn -0.009043 -0.376614 0.926326
vn -0.214938 0.154697 0.964298
vn 0.210179 0.258209 0.942949
vn -0.148693 -0.253665 0.955795
vn 0.259205 -0.222588 0.939823
vn -0.001627 -0.373637 0.927574
vn -0.018729 -0.286960 0.957760
vn 0.356558 0.004099 0.934264
vn 0.393916 0.001035 0.919146
vn 0.000669 0.423414 0.905936
vn 0.021093 0.344488 0.938554
vn -0.388645 -0.013580 0.921288
vn -0.395039 0.003782 0.918656
vn -0.056431 -0.319765 0.945815
vn 0.058525 0.315331 0.947175
vn 0.083809 0.000000 0.996482
vn 0.025688 0.120150 0.992423
vn 0.396888 -0.045026 0.916762
vn 0.012275 -0.383311 0.923538
vn 0.013107 -0.015615 0.999792
vn 0.185459 -0.198438 0.962407
vn -0.038739 -0.330039 0.943172
vn -0.174725 -0.180376 0.967955
vn -0.079136 -0.338609 0.937593
vn 0.419313 0.046398 0.906655
vn 0.011813 0.026744 0.999573
vn 0.217490 0.214727 0.952150
vn -0.033806 0.410494 0.911236
vn -0.303277 0.032052 0.952363
vn -0.194657 0.177799 0.964622
vn -0.354433 -0.014379 0.934971
vn 0.066023 0.382758 0.921487
vn -0.375052 -0.003539 0.926997
vn -0.050323 -0.308935 0.949751
vn 0.353605 0.063611 0.933229
vn 0.332507 -0.052054 0.941663
vn -0.076634 0.321701 0.943735
vn 0.076255 0.369336 0.926162
vn -0.298114 -0.092006 0.950086
vn -0.322411 0.052366 0.945150
vn -0.288952 0.110877 0.950901
vn -0.402572 0.000000 0.915388
vn 0.031867 0.157481 0.987008
vn 0.420790 -0.000170 0.907158
vn 0.026676 0.165493 0.985850
vn -0.353877 0.061793 0.933249
vn -0.399495 0.001712 0.916734
vn 0.005603 0.398385 0.917201
vn -0.001060 0.043422 0.999056
vn -0.377074 -0.062656 0.924061
vn -0.358162 0.013127 0.933567
vn -0.036247 -0.000098 0.999343
vn -0.021575 -0.395092 0.918388
vn -0.037420 -0.366990 0.929472
vn -0.003547 -0.039071 0.999230
vn -0.389666 -0.007059 0.920929
vn -0.318359 0.023019 0.947691
vn -0.257426 -0.035917 0.965630
vn 0.033770 0.443572 0.895602
vn 0.045548 0.174322 0.983635
vn -0.037278 0.323748 0.945409
vn -0.016039 0.450752 0.892505
vn 0.415982 -0.013700 0.909269
vn 0.319483 -0.028069 0.947176
vn 0.250524 0.068049 0.965716
vn 0.404995 0.020364 0.914092
vn -0.010519 -0.341339 0.939881
vn -0.021846 -0.209374 0.977592
vn 0.029837 -0.295220 0.954963
vn 0.006495 -0.382726 0.923839
vn 0.045459 -0.340019 0.939319
vn 0.044153 -0.010387 0.998971
vn 0.181286 -0.034907 0.982811
vn -0.388696 0.000155 0.921366
vn -0.352202 0.043785 0.934899
vn -0.307798 -0.106470 0.945476
vn -0.389948 0.003610 0.920830
vn 0.037478 0.398406 0.916443
vn 0.059108 0.338391 0.939147
vn 0.016144 0.434459 0.900547
vn -0.396842 -0.006043 0.917867
vn -0.274867 0.032359 0.960938
vn -0.388532 -0.000869 0.921435
vn -0.049381 0.346613 0.936707
vn -0.173024 0.183830 0.967610
vn -0.150239 0.146342 0.977759
vn -0.035414 0.026870 0.999011
vn 0.308065 0.124520 0.943181
vn 0.000000 -0.236363 0.971665
vn -0.150589 0.320080 0.935346
vn -0.005763 0.443287 0.896361
vn 0.312700 0.058097 0.948074
vn 0.249252 0.205952 0.946286
vn 0.110317 0.116478 0.987048
vn 0.000000 0.083542 0.996504
vn 0.024126 0.042451 0.998807
vn 0.183305 -0.041467 0.982181
vn 0.419681 0.020492 0.907440
vn 0.432493 0.118857 0.893769
vn 0.434373 0.019772 0.900516
vn 0.028937 0.150287 0.988219
vn 0.021792 0.013919 0.999666
vn -0.033357 -0.026291 0.999098
vn -0.033568 -0.276823 0.960334
vn -0.135845 -0.107808 0.984847
vn -0.139461 -0.221189 0.965208
vn -0.025635 -0.321418 0.946590
vn -0.049555 -0.295831 0.953954
vn -0.019450 -0.358173 0.933453
vn 0.035237 -0.340128 0.939719
vn 0.145240 -0.146695 0.978461
vn -0.250461 -0.000000 0.968127
vn 0.023754 -0.043889 0.998754
vn 0.027802 0.366859 0.929861
vn -0.031412 -0.376622 0.925834
vn 0.075305 -0.374218 0.924278
vn -0.006443 -0.387169 0.921986
vn 0.405951 -0.012744 0.913806
vn 0.335803 -0.089739 0.937648
vn 0.434046 -0.016508 0.900740
vn -0.025856 0.422871 0.905821
vn -0.185110 -0.018843 0.982537
vn 0.176325 -0.193240 0.965178
vn 0.348640 -0.071493 0.934526
vn 0.008720 -0.382222 0.924029
vn -0.243155 -0.091018 0.965708
vn 0.361187 -0.035496 0.931818
vn -0.068410 -0.332140 0.940746
vn -0.300468 -0.089073 0.949624
vn 0.000000 0.250710 0.968062
vn 0.389122 0.029356 0.920718
vn 0.127278 -0.023675 0.991584
vn -0.354540 0.043130 0.934046
vn 0.079041 0.319748 0.944200
vn -0.314614 0.007482 0.949190
vn -0.045419 -0.230361 0.972045
vn -0.183137 0.037260 0.982381
vn 0.172120 -0.128946 0.976600
vn -0.307828 -0.280075 0.909285
vn 0.249344 0.128502 0.959852
vn -0.126507 0.190114 0.973577
vn -0.041766 -0.182922 0.982240
vn 0.040818 0.364256 0.930404
vn -0.225924 -0.337227 0.913913
vn -0.189360 0.038452 0.981155
vn 0.302352 -0.110658 0.946751
vn 0.242645 0.136952 0.960400
vn -0.014370 0.032367 0.999373
vn -0.283559 0.051575 0.957567
vn 0.157413 -0.015873 0.987405
vn 0.026369 0.129556 0.991221
vn -0.188224 0.033517 0.981554
vn -0.044937 -0.223011 0.973780
vn -0.065112 -0.352226 0.933647
vn -0.033950 -0.193435 0.980526
vn -0.168652 0.029464 0.985235
vn -0.072906 -0.340395 0.937452
vn 0.006616 0.393413 0.919338
vn 0.363915 -0.022914 0.931150
vn 0.236657 -0.000000 0.971593
vn -0.024910 -0.011836 0.999620
vn 0.307477 -0.052575 0.950102
vn -0.340538 0.041297 0.939323
vn 0.196884 -0.037865 0.979695
vn 0.348815 0.000000 0.937192
vn -0.380942 -0.000000 0.924599
vn 0.395839 0.000000 0.918320
f 129/129/129 99/99/99 70/70/70
f 112/112/112 31/31/31 113/113/113
f 170/170/170 132/132/132 167/167/167
f 26/26/26 167/167/167 132/132/132
f 58/58/58 152/152/152 147/147/147
f 114/114/114 12/12/12 47/47/47
f 101/101/101 35/35/35 46/46/46
f 129/129/129 36/36/36 99/99/99
f 3/3/3 120/120/120 94/94/94
f 152/152/152 12/12/12 162/162/162
f 11/11/11 25/25/25 148/148/148
f 80/80/80 110/110/110 104/104/104
f 115/115/115 112/112/112 15/15/15
f 140/140/140 28/28/28 172/172/172
f 114/114/114 137/137/137 31/31/31
f 76/76/76 112/112/112 113/113/113
f 84/84/84 47/47/47 12/12/12
f 15/15/15 112/112/112 76/76/76
f 115/115/115 15/15/15 75/75/75
f 45/45/45 92/92/92 93/93/93
f 113/113/113 134/134/134 130/130/130
f 16/16/16 100/100/100 139/139/139
f 22/22/22 30/30/30 136/136/136
f 38/38/38 93/93/93 92/92/92
f 62/62/62 125/125/125 123/123/123
f 165/165/165 22/22/22 136/136/136
f 147/147/147 54/54/54 58/58/58
f 83/83/83 58/58/58 54/54/54
f 57/57/57 95/95/95 104/104/104
f 116/116/116 30/30/30 22/22/22
f 42/42/42 112/112/112 115/115/115
f 66/66/66 130/130/130 134/134/134
f 140/140/140 105/105/105 28/28/28
f 155/155/155 100/100/100 73/73/73
f 129/129/129 70/70/70 18/18/18
f 63/63/63 28/28/28 121/121/121
f 165/165/165 162/162/162 22/22/22
f 114/114/114 31/31/31 42/42/42
f 150/150/150 165/165/165 32/32/32
f 37/37/37 153/153/153 157/157/157
f 164/164/164 153/153/153 37/37/37
f 146/146/146 163/163/163 61/61/61
f 123/123/123 32/32/32 62/62/62
f 41/41/41 58/58/58 83/83/83
f 32/32/32 165/165/165 136/136/136
f 161/161/161 144/144/144 162/162/162
f 51/51/51 159/159/159 23/23/23
f 85/85/85 41/41/41 59/59/59
f 78/78/78 125/125/125 9/9/9
f 121/121/121 80/80/80 5/5/5
f 60/60/60 95/95/95 153/153/153
f 147/147/147 144/144/144 169/169/169
f 44/44/44 126/126/126 26/26/26
f 122/122/122 109/109/109 51/51/51
f 162/162/162 165/165/165 161/161/161
f 123/123/123 163/163/163 32/32/32
f 60/60/60 169/169/169 111/111/111
f 63/63/63 121/121/121 111/111/111
f 63/63/63 161/161/161 150/150/150
f 25/25/25 159/159/159 34/34/34
f 81/81/81 170/170/170 167/167/167
f 30/30/30 115/115/115 117/117/117
f 84/84/84 152/152/152 58/58/58
f 51/51/51 109/109/109 57/57/57
f 34/34/34 159/159/159 51/51/51
f 11/11/11 148/148/148 107/107/107
f 5/5/5 104/104/104 95/95/95
f 85/85/85 55/55/55 41/41/41
f 174/174/174 21/21/21 141/141/141
f 29/29/29 119/119/119 135/135/135
f 72/72/72 135/135/135 119/119/119
f 84/84/84 12/12/12 152/152/152
f 84/84/84 58/58/58 41/41/41
f 47/47/47 137/137/137 114/114/114
f 14/14/14 118/118/118 133/133/133
f 55/55/55 82/82/82 41/41/41
f 65/65/65 174/174/174 141/141/141
f 20/20/20 66/66/66 137/137/137
f 55/55/55 20/20/20 82/82/82
f 59/59/59 91/91/91 85/85/85
f 166/166/166 53/53/53 122/122/122
f 6/6/6 85/85/85 91/91/91
f 94/94/94 138/138/138 3/3/3
f 41/41/41 82/82/82 84/84/84
f 172/172/172 163/163/163 146/146/146
f 89/89/89 48/48/48 21/21/21
f 92/92/92 18/18/18 69/69/69
f 94/94/94 69/69/69 138/138/138
f 59/59/59 83/83/83 143/143/143
f 167/167/167 106/106/106 158/158/158
f 171/171/171 143/143/143 83/83/83
f 106/106/106 167/167/167 52/52/52
f 157/157/157 90/90/90 37/37/37
f 117/117/117 9/9/9 62/62/62
f 38/38/38 92/92/92 94/94/94
f 81/81/81 167/167/167 158/158/158
f 98/98/98 166/166/166 36/36/36
f 164/164/164 171/171/171 160/160/160
f 45/45/45 10/10/10 98/98/98
f 156/156/156 145/145/145 153/153/153
f 162/162/162 12/12/12 22/22/22
f 116/116/116 22/22/22 12/12/12
f 118/118/118 29/29/29 79/79/79
f 45/45/45 129/129/129 92/92/92
f 160/160/160 54/54/54 147/147/147
f 131/131/131 79/79/79 29/29/29
f 26/26/26 128/128/128 52/52/52
f 23/23/23 11/11/11 87/87/87
f 97/97/97 119/119/119 77/77/77
f 145/145/145 53/53/53 149/149/149
f 47/47/47 84/84/84 82/82/82
f 48/48/48 38/38/38 141/141/141
f 168/168/168 72/72/72 119/119/119
f 169/169/169 60/60/60 160/160/160
f 56/56/56 88/88/88 99/99/99
f 7/7/7 99/99/99 88/88/88
f 164/164/164 160/160/160 60/60/60
f 64/64/64 91/91/91 89/89/89
f 136/136/136 62/62/62 32/32/32
f 93/93/93 38/38/38 48/48/48
f 23/23/23 25/25/25 11/11/11
f 93/93/93 10/10/10 45/45/45
f 48/48/48 90/90/90 93/93/93
f 25/25/25 23/23/23 159/159/159
f 59/59/59 39/39/39 91/91/91
f 143/143/143 39/39/39 59/59/59
f 18/18/18 92/92/92 129/129/129
f 89/89/89 91/91/91 39/39/39
f 6/6/6 91/91/91 64/64/64
f 63/63/63 111/111/111 161/161/161
f 135/135/135 44/44/44 29/29/29
f 6/6/6 55/55/55 85/85/85
f 154/154/154 127/127/127 132/132/132
f 155/155/155 102/102/102 35/35/35
f 143/143/143 90/90/90 39/39/39
f 102/102/102 155/155/155 73/73/73
f 75/75/75 117/117/117 115/115/115
f 173/173/173 73/73/73 100/100/100
f 43/43/43 101/101/101 107/107/107
f 111/111/111 169/169/169 161/161/161
f 172/172/172 146/146/146 154/154/154
f 11/11/11 107/107/107 101/101/101
f 43/43/43 33/33/33 139/139/139
f 150/150/150 161/161/161 165/165/165
f 65/65/65 141/141/141 94/94/94
f 142/142/142 46/46/46 35/35/35
f 37/37/37 90/90/90 143/143/143
f 37/37/37 143/143/143 171/171/171
f 97/97/97 2/2/2 119/119/119
f 157/157/157 10/10/10 90/90/90
f 49/49/49 98/98/98 10/10/10
f 49/49/49 10/10/10 157/157/157
f 145/145/145 157/157/157 153/153/153
f 34/34/34 51/51/51 57/57/57
f 119/119/119 29/29/29 118/118/118
f 145/145/145 49/49/49 157/157/157
f 105/105/105 170/170/170 81/81/81
f 110/110/110 80/80/80 158/158/158
f 156/156/156 57/57/57 109/109/109
f 156/156/156 53/53/53 145/145/145
f 149/149/149 166/166/166 98/98/98
f 149/149/149 98/98/98 49/49/49
f 38/38/38 94/94/94 141/141/141
f 5/5/5 95/95/95 111/111/111
f 95/95/95 57/57/57 156/156/156
f 163/163/163 150/150/150 32/32/32
f 60/60/60 111/111/111 95/95/95
f 166/166/166 56/56/56 36/36/36
f 56/56/56 99/99/99 36/36/36
f 172/172/172 28/28/28 163/163/163
f 34/34/34 57/57/57 104/104/104
f 21/21/21 50/50/50 89/89/89
f 9/9/9 117/117/117 75/75/75
f 78/78/78 133/133/133 125/125/125
f 144/144/144 152/152/152 162/162/162
f 95/95/95 156/156/156 153/153/153
f 45/45/45 98/98/98 36/36/36
f 88/88/88 151/151/151 40/40/40
f 83/83/83 54/54/54 171/171/171
f 96/96/96 43/43/43 100/100/100
f 37/37/37 171/171/171 164/164/164
f 77/77/77 119/119/119 118/118/118
f 120/120/120 65/65/65 94/94/94
f 122/122/122 23/23/23 151/151/151
f 169/169/169 144/144/144 161/161/161
f 129/129/129 45/45/45 36/36/36
f 90/90/90 48/48/48 39/39/39
f 112/112/112 42/42/42 31/31/31
f 63/63/63 163/163/163 28/28/28
f 163/163/163 63/63/63 150/150/150
f 167/167/167 26/26/26 52/52/52
f 130/130/130 1/1/1 113/113/113
f 13/13/13 131/131/131 127/127/127
f 154/154/154 132/132/132 140/140/140
f 80/80/80 104/104/104 5/5/5
f 27/27/27 124/124/124 123/123/123
f 147/147/147 152/152/152 144/144/144
f 110/110/110 25/25/25 34/34/34
f 16/16/16 173/173/173 100/100/100
f 87/87/87 11/11/11 46/46/46
f 27/27/27 123/123/123 125/125/125
f 61/61/61 123/123/123 124/124/124
f 33/33/33 52/52/52 108/108/108
f 124/124/124 27/27/27 79/79/79
f 139/139/139 33/33/33 108/108/108
f 136/136/136 30/30/30 62/62/62
f 33/33/33 106/106/106 52/52/52
f 40/40/40 87/87/87 86/86/86
f 133/133/133 79/79/79 27/27/27
f 103/103/103 68/68/68 102/102/102
f 107/107/107 106/106/106 33/33/33
f 117/117/117 62/62/62 30/30/30
f 148/148/148 25/25/25 110/110/110
f 148/148/148 110/110/110 158/158/158
f 148/148/148 106/106/106 107/107/107
f 43/43/43 139/139/139 100/100/100
f 124/124/124 146/146/146 61/61/61
f 140/140/140 170/170/170 105/105/105
f 50/50/50 64/64/64 89/89/89
f 54/54/54 160/160/160 171/171/171
f 100/100/100 155/155/155 35/35/35
f 140/140/140 132/132/132 170/170/170
f 115/115/115 30/30/30 42/42/42
f 74/74/74 139/139/139 108/108/108
f 4/4/4 103/103/103 102/102/102
f 7/7/7 70/70/70 99/99/99
f 116/116/116 42/42/42 30/30/30
f 151/151/151 23/23/23 40/40/40
f 68/68/68 142/142/142 102/102/102
f 86/86/86 46/46/46 142/142/142
f 142/142/142 35/35/35 102/102/102
f 88/88/88 56/56/56 151/151/151
f 31/31/31 134/134/134 113/113/113
f 19/19/19 86/86/86 142/142/142
f 69/69/69 94/94/94 92/92/92
f 56/56/56 166/166/166 122/122/122
f 148/148/148 158/158/158 106/106/106
f 44/44/44 127/127/127 131/131/131
f 105/105/105 81/81/81 80/80/80
f 89/89/89 39/39/39 48/48/48
f 56/56/56 122/122/122 151/151/151
f 122/122/122 51/51/51 23/23/23
f 79/79/79 131/131/131 124/124/124
f 13/13/13 124/124/124 131/131/131
f 2/2/2 168/168/168 119/119/119
f 125/125/125 62/62/62 9/9/9
f 88/88/88 40/40/40 86/86/86
f 67/67/67 88/88/88 86/86/86
f 67/67/67 7/7/7 88/88/88
f 19/19/19 67/67/67 86/86/86
f 68/68/68 19/19/19 142/142/142
f 87/87/87 40/40/40 23/23/23
f 42/42/42 116/116/116 114/114/114
f 24/24/24 4/4/4 102/102/102
f 73/73/73 24/24/24 102/102/102
f 141/141/141 21/21/21 48/48/48
f 74/74/74 16/16/16 139/139/139
f 8/8/8 74/74/74 108/108/108
f 101/101/101 46/46/46 11/11/11
f 8/8/8 108/108/108 128/128/128
f 76/76/76 113/113/113 1/1/1
f 35/35/35 96/96/96 100/100/100
f 96/96/96 35/35/35 101/101/101
f 107/107/107 33/33/33 43/43/43
f 52/52/52 128/128/128 108/108/108
f 128/128/128 71/71/71 8/8/8
f 46/46/46 86/86/86 87/87/87
f 149/149/149 49/49/49 145/145/145
f 126/126/126 17/17/17 71/71/71
f 127/127/127 44/44/44 26/26/26
f 26/26/26 126/126/126 128/128/128
f 123/123/123 61/61/61 163/163/163
f 71/71/71 128/128/128 126/126/126
f 132/132/132 127/127/127 26/26/26
f 17/17/17 126/126/126 135/135/135
f 10/10/10 93/93/93 90/90/90
f 124/124/124 13/13/13 146/146/146
f 43/43/43 96/96/96 101/101/101
f 27/27/27 125/125/125 133/133/133
f 83/83/83 59/59/59 41/41/41
f 29/29/29 44/44/44 131/131/131
f 12/12/12 114/114/114 116/116/116
f 66/66/66 134/134/134 137/137/137
f 44/44/44 135/135/135 126/126/126
f 79/79/79 133/133/133 118/118/118
f 160/160/160 147/147/147 169/169/169
f 34/34/34 104/104/104 110/110/110
f 154/154/154 140/140/140 172/172/172
f 134/134/134 31/31/31 137/137/137
f 77/77/77 118/118/118 14/14/14
f 60/60/60 153/153/153 164/164/164
f 82/82/82 20/20/20 47/47/47
f 154/154/154 146/146/146 13/13/13
f 14/14/14 133/133/133 78/78/78
f 149/149/149 53/53/53 166/166/166
f 154/154/154 13/13/13 127/127/127
f 137/137/137 47/47/47 20/20/20
f 121/121/121 28/28/28 80/80/80
f 28/28/28 105/105/105 80/80/80
f 121/121/121 5/5/5 111/111/111
f 109/109/109 53/53/53 156/156/156
f 109/109/109 122/122/122 53/53/53
f 81/81/81 158/158/158 80/80/80
f 72/72/72 175/175/175 135/135/135
f 175/175/175 17/17/17 135/135/135
