# frame 000528 
# time 0.264500 
# name Cloth3D 
v -0.000000 0.000000 -0.000000
v 1.000000 0.000000 -0.000000
v -0.000000 1.000000 0.000000
v 1.000000 1.000000 0.000000
v 0.500491 0.500596 0.127160
v -0.000000 0.500000 0.000000
v 0.500000 1.000000 0.000000
v 1.000000 0.500000 0.000000
v 0.500000 -0.000000 0.000000
v 0.245527 0.756154 0.080370
v 0.757551 0.756720 0.087864
v 0.244528 0.246185 0.074447
v 0.754756 0.243664 0.082855
v 0.750000 0.000000 0.000000
v 0.250000 0.000000 0.000000
v 1.000000 0.750000 0.000000
v 1.000000 0.250000 0.000000
v 0.250000 1.000000 0.000000
v 0.750000 1.000000 0.000000
v 0.000000 0.250000 0.000000
v 0.000000 0.750000 -0.000000
v 0.363220 0.217841 0.073023
v 0.633214 0.778900 0.093637
v 0.713351 0.358222 0.110070
v 0.679727 0.675722 0.119929
v 0.879087 0.373674 0.051984
v 0.626180 0.118045 0.057789
v 0.630108 0.369548 0.122157
v 0.877594 0.121968 0.033262
v 0.374759 0.124940 0.038078
v 0.124371 0.125350 0.016583
v 0.492379 0.245749 0.092821
v 0.881758 0.626889 0.058882
v 0.631596 0.630720 0.123738
v 0.879548 0.879542 0.040050
v 0.373897 0.882670 0.059470
v 0.258715 0.602872 0.090876
v 0.122721 0.877517 0.031091
v 0.122680 0.626330 0.045230
v 0.626725 0.879846 0.052590
v 0.120299 0.374062 0.050587
v 0.249155 0.124576 0.032410
v 0.880687 0.752923 0.050537
v 0.878908 0.247567 0.046303
v 0.248747 0.879173 0.044627
v 0.753156 0.880530 0.049875
v 0.120322 0.248744 0.043189
v 0.120534 0.752377 0.047023
v 0.300341 0.721592 0.099528
v 0.310580 0.882602 0.056666
v 0.553152 0.707811 0.119929
v 0.880344 0.500377 0.056541
v 0.367662 0.722654 0.119962
v 0.241532 0.454380 0.097006
v 0.000000 0.375000 0.000000
v 0.500459 0.883453 0.062344
v 0.500971 0.631222 0.125271
v 0.240334 0.371617 0.103062
v 0.123297 0.500043 0.044920
v 0.370143 0.500606 0.123496
v 0.629050 0.241438 0.104283
v 0.500577 0.122976 0.045840
v 0.499894 0.370263 0.123170
v 0.000000 0.625000 0.000000
v 0.000000 0.875000 0.000000
v 0.000000 0.125000 0.000000
v 0.625000 1.000000 0.000000
v 0.875000 1.000000 0.000000
v 0.125000 1.000000 0.000000
v 0.375000 1.000000 0.000000
v 1.000000 0.375000 0.000000
v 1.000000 0.125000 0.000000
v 1.000000 0.875000 0.000000
v 1.000000 0.625000 0.000000
v 0.375000 0.000000 0.000000
v 0.125000 0.000000 0.000000
v 0.875000 0.000000 0.000000
v 0.625000 0.000000 0.000000
v 0.752446 0.118139 0.052880
v 0.631019 0.500386 0.125947
v 0.720515 0.487485 0.119929
v 0.057850 0.312147 0.029364
v 0.182413 0.436520 0.073435
v 0.179587 0.309515 0.074194
v 0.061111 0.437372 0.023656
v 0.688552 0.940878 0.027641
v 0.691743 0.819598 0.075573
v 0.562868 0.940097 0.027541
v 0.059345 0.688264 0.027209
v 0.182918 0.690738 0.068560
v 0.061619 0.562836 0.022478
v 0.186787 0.939813 0.021761
v 0.184171 0.816545 0.053252
v 0.061710 0.938334 0.011184
v 0.435693 0.566005 0.126418
v 0.880455 0.816354 0.046222
v 0.937500 0.000000 -0.000000
v 0.309295 0.821140 0.078657
v 0.437404 0.941504 0.030956
v 0.941366 0.814256 0.026470
v 0.818380 0.818134 0.061741
v 0.939085 0.938921 0.014165
v 0.937500 1.000000 0.000000
v 0.566062 0.565774 0.126862
v 0.704830 0.425615 0.119929
v 0.828729 0.593862 0.085384
v 0.821415 0.691864 0.082245
v 0.941675 0.562985 0.031533
v 0.492193 0.723242 0.119934
v 0.880544 0.689910 0.053697
v 0.434780 0.435443 0.126227
v 0.187352 0.062277 0.013866
v 0.062633 0.062907 0.002046
v 0.184361 0.185770 0.044298
v 0.312458 0.061612 0.020643
v 0.310566 0.186537 0.055639
v 0.437816 0.063407 0.017043
v 0.813769 0.058485 0.026258
v 0.939130 0.060839 0.016317
v 0.437061 0.882514 0.060471
v 0.565413 0.435194 0.126826
v 0.526071 0.813504 0.088018
v 0.563987 0.181462 0.077073
v 0.690793 0.178913 0.079638
v 0.562859 0.059761 0.027343
v 0.939441 0.311774 0.024705
v 0.818375 0.308858 0.073945
v 0.940021 0.437318 0.027848
v 0.312046 0.941345 0.028601
v -0.000000 0.062500 -0.000000
v 0.815837 0.182935 0.054957
v 0.807069 0.369803 0.081490
v 0.688233 0.058136 0.029924
v 0.062306 0.125648 0.006028
v 0.940707 0.186195 0.025095
v 0.437051 0.185035 0.065770
v 0.060074 0.187016 0.020031
v 0.062500 1.000000 0.000000
v 0.941292 0.688531 0.029283
v 0.688665 0.364310 0.119929
v 0.060545 0.813462 0.020774
v 0.814327 0.941430 0.026743
v 0.184747 0.563659 0.067145
v 0.359475 0.344476 0.119929
v 0.351251 0.657787 0.119929
v 0.664673 0.267053 0.119942
v 0.277123 0.365307 0.119942
v 0.762878 0.654693 0.119942
v 0.375307 0.752877 0.119942
v 0.485780 0.312454 0.119929
v 0.582125 0.838627 0.074897
v 0.288943 0.327463 0.106507
v 0.335617 0.596117 0.119929
v 0.718980 0.293599 0.102423
v 0.941410 0.877272 0.024529
v 0.434493 0.641447 0.123034
v 0.277270 0.662266 0.097045
v 0.735996 0.549593 0.119941
v 0.615606 0.691978 0.119929
v 0.304200 0.472095 0.119935
v 0.422582 0.328476 0.119929
v 0.359620 0.290337 0.099099
v 0.546864 0.296969 0.119929
v 0.319763 0.533581 0.119929
v 0.416422 0.252659 0.090642
v 0.424297 0.825459 0.087393
v 0.819197 0.481631 0.080015
v 0.545808 0.321429 0.120365
v 0.369952 0.415086 0.122088
v 0.774381 0.422631 0.096599
v 0.241069 0.515866 0.090752
v 0.672014 0.297090 0.119937
v 0.691793 0.587693 0.121375
v 1.000000 0.937500 0.000000
vt 0.000000 0.000000
vt 1.000000 0.000000
vt 0.000000 1.000000
vt 1.000000 1.000000
vt 0.500000 0.500000
vt 0.000000 0.500000
vt 0.500000 1.000000
vt 1.000000 0.500000
vt 0.500000 0.000000
vt 0.250000 0.750000
vt 0.750000 0.750000
vt 0.250000 0.250000
vt 0.750000 0.250000
vt 0.750000 0.000000
vt 0.250000 0.000000
vt 1.000000 0.750000
vt 1.000000 0.250000
vt 0.250000 1.000000
vt 0.750000 1.000000
vt 0.000000 0.250000
vt 0.000000 0.750000
vt 0.365347 0.220303
vt 0.629073 0.770824
vt 0.706846 0.363401
vt 0.671046 0.668470
vt 0.875000 0.375000
vt 0.625000 0.125000
vt 0.625000 0.375000
vt 0.875000 0.125000
vt 0.375000 0.125000
vt 0.125000 0.125000
vt 0.492214 0.250470
vt 0.875000 0.625000
vt 0.625000 0.625000
vt 0.875000 0.875000
vt 0.375000 0.875000
vt 0.262101 0.599801
vt 0.125000 0.875000
vt 0.125000 0.625000
vt 0.625000 0.875000
vt 0.125000 0.375000
vt 0.250000 0.125000
vt 0.875000 0.750000
vt 0.875000 0.250000
vt 0.250000 0.875000
vt 0.750000 0.875000
vt 0.125000 0.250000
vt 0.125000 0.750000
vt 0.304602 0.713891
vt 0.312500 0.875000
vt 0.550236 0.698771
vt 0.875000 0.500000
vt 0.372165 0.711576
vt 0.248222 0.455442
vt 0.000000 0.375000
vt 0.500000 0.875000
vt 0.500000 0.625000
vt 0.250000 0.375000
vt 0.125000 0.500000
vt 0.375000 0.500000
vt 0.625000 0.250000
vt 0.500000 0.125000
vt 0.500000 0.375000
vt 0.000000 0.625000
vt 0.000000 0.875000
vt 0.000000 0.125000
vt 0.625000 1.000000
vt 0.875000 1.000000
vt 0.125000 1.000000
vt 0.375000 1.000000
vt 1.000000 0.375000
vt 1.000000 0.125000
vt 1.000000 0.875000
vt 1.000000 0.625000
vt 0.375000 0.000000
vt 0.125000 0.000000
vt 0.875000 0.000000
vt 0.625000 0.000000
vt 0.750000 0.125000
vt 0.625000 0.500000
vt 0.711040 0.487828
vt 0.062500 0.312500
vt 0.187500 0.437500
vt 0.187500 0.312500
vt 0.062500 0.437500
vt 0.687500 0.937500
vt 0.687500 0.812500
vt 0.562500 0.937500
vt 0.062500 0.687500
vt 0.187500 0.687500
vt 0.062500 0.562500
vt 0.187500 0.937500
vt 0.187500 0.812500
vt 0.062500 0.937500
vt 0.437500 0.562500
vt 0.875000 0.812500
vt 0.937500 0.000000
vt 0.312500 0.812500
vt 0.437500 0.937500
vt 0.937500 0.812500
vt 0.812500 0.812500
vt 0.937500 0.937500
vt 0.937500 1.000000
vt 0.562500 0.562500
vt 0.696511 0.428505
vt 0.819332 0.591237
vt 0.812500 0.687500
vt 0.937500 0.562500
vt 0.491632 0.713032
vt 0.875000 0.687500
vt 0.437500 0.437500
vt 0.187500 0.062500
vt 0.062500 0.062500
vt 0.187500 0.187500
vt 0.312500 0.062500
vt 0.312500 0.187500
vt 0.437500 0.062500
vt 0.812500 0.062500
vt 0.937500 0.062500
vt 0.437500 0.875000
vt 0.562500 0.437500
vt 0.525016 0.804189
vt 0.562500 0.187500
vt 0.687500 0.187500
vt 0.562500 0.062500
vt 0.937500 0.312500
vt 0.812500 0.312500
vt 0.937500 0.437500
vt 0.312500 0.937500
vt 0.000000 0.062500
vt 0.812500 0.187500
vt 0.800716 0.372483
vt 0.687500 0.062500
vt 0.062500 0.125000
vt 0.937500 0.187500
vt 0.437500 0.187500
vt 0.062500 0.187500
vt 0.062500 1.000000
vt 0.937500 0.687500
vt 0.681382 0.369963
vt 0.062500 0.812500
vt 0.812500 0.937500
vt 0.187500 0.562500
vt 0.365597 0.350002
vt 0.355913 0.650440
vt 0.658574 0.278269
vt 0.288317 0.370810
vt 0.748991 0.647892
vt 0.379724 0.739877
vt 0.486672 0.319431
vt 0.580205 0.830830
vt 0.296906 0.332149
vt 0.340952 0.591608
vt 0.713437 0.300753
vt 0.937500 0.875000
vt 0.436137 0.634590
vt 0.281585 0.657008
vt 0.725153 0.547566
vt 0.609993 0.683842
vt 0.312092 0.472554
vt 0.425903 0.334574
vt 0.364019 0.294291
vt 0.545528 0.305103
vt 0.326219 0.531626
vt 0.418341 0.256674
vt 0.425703 0.815414
vt 0.812755 0.481587
vt 0.544346 0.328467
vt 0.375653 0.417988
vt 0.766844 0.424637
vt 0.245672 0.515386
vt 0.665577 0.306443
vt 0.682510 0.583771
vt 1.000000 0.937500
vn -0.016360 -0.008180 0.999833
vn 0.086031 -0.172063 0.981322
vn -0.057487 0.114974 0.991704
vn 0.117736 0.117736 0.986041
vn -0.002059 -0.000537 0.999998
vn -0.349413 0.004448 0.936958
vn 0.015303 0.438700 0.898503
vn 0.447184 -0.015446 0.894308
vn -0.042957 -0.338221 0.940086
vn -0.249225 0.165158 0.954259
vn 0.177096 0.263566 0.948246
vn -0.156173 -0.308609 0.938281
vn 0.283129 -0.190944 0.939882
vn 0.014870 -0.422612 0.906189
vn -0.025582 -0.264124 0.964149
vn 0.430535 0.009824 0.902520
vn 0.382070 0.002164 0.924131
vn -0.029140 0.366765 0.929857
vn 0.001257 0.421433 0.906859
vn -0.383234 -0.038161 0.922863
vn -0.369066 0.025100 0.929064
vn -0.079492 -0.358471 0.930150
vn 0.068531 0.322386 0.944124
vn 0.348333 -0.092126 0.932833
vn 0.045947 0.132634 0.990100
vn 0.381674 -0.034728 0.923644
vn -0.027997 -0.387469 0.921457
vn 0.028280 -0.025363 0.999278
vn 0.158836 -0.145530 0.976520
vn -0.041216 -0.326212 0.944398
vn -0.145267 -0.182682 0.972381
vn -0.084928 -0.367676 0.926068
vn 0.420416 0.040119 0.906444
vn 0.031287 0.043074 0.998582
vn 0.205775 0.162388 0.965032
vn -0.037209 0.412480 0.910207
vn -0.333023 0.034408 0.942291
vn -0.169719 0.171531 0.970450
vn -0.327264 -0.018890 0.944744
vn 0.035308 0.391920 0.919322
vn -0.377721 0.032858 0.925336
vn -0.077582 -0.253676 0.964173
vn 0.342336 0.068439 0.937082
vn 0.305942 -0.073742 0.949190
vn -0.157293 0.326883 0.931883
vn 0.050826 0.319527 0.946213
vn -0.265592 -0.160061 0.950706
vn -0.285060 0.070374 0.955923
vn -0.286414 0.113897 0.951312
vn -0.118500 0.381662 0.916674
vn 0.041262 0.176585 0.983420
vn 0.393245 -0.043956 0.918382
vn -0.179545 0.048392 0.982559
vn -0.381032 0.086310 0.920524
vn -0.396471 0.025557 0.917691
vn 0.029180 0.426783 0.903883
vn -0.007842 0.044506 0.998978
vn -0.395418 -0.118687 0.910801
vn -0.360094 0.031135 0.932396
vn -0.054551 0.003282 0.998506
vn -0.079174 -0.401251 0.912540
vn -0.088967 -0.371962 0.923975
vn -0.004827 -0.054685 0.998492
vn -0.377455 -0.020001 0.925812
vn -0.248526 0.039125 0.967835
vn -0.103492 -0.083745 0.991098
vn -0.003370 0.417541 0.908652
vn 0.040079 0.310937 0.949585
vn -0.033570 0.237714 0.970755
vn -0.007378 0.452606 0.891680
vn 0.399406 -0.011648 0.916700
vn 0.322600 -0.035005 0.945888
vn 0.347066 0.053692 0.936302
vn 0.461037 0.007644 0.887348
vn 0.014239 -0.285595 0.958245
vn -0.048338 -0.120383 0.991550
vn 0.033002 -0.318871 0.947223
vn -0.012492 -0.439446 0.898182
vn 0.117200 -0.311635 0.942946
vn 0.040779 -0.004611 0.999158
vn 0.211643 -0.044030 0.976355
vn -0.380708 -0.016421 0.924550
vn -0.386318 0.065279 0.920053
vn -0.307120 -0.145272 0.940517
vn -0.366036 0.023893 0.930294
vn 0.003987 0.392738 0.919642
vn 0.062994 0.331622 0.941307
vn 0.027753 0.430534 0.902148
vn -0.351665 -0.001085 0.936125
vn -0.300095 0.038935 0.953114
vn -0.341858 -0.009436 0.939704
vn -0.051617 0.292525 0.954864
vn -0.186594 0.193599 0.963173
vn -0.100579 0.133793 0.985892
vn -0.031697 0.021886 0.999258
vn 0.274407 0.080980 0.958198
vn 0.000000 -0.254411 0.967096
vn -0.174590 0.316828 0.932276
vn -0.007131 0.459296 0.888254
vn 0.344793 0.040907 0.937787
vn 0.189911 0.177486 0.965625
vn 0.174887 0.159953 0.971509
vn 0.000000 0.232010 0.972713
vn 0.011166 0.013521 0.999846
vn 0.218872 -0.063841 0.973663
vn 0.428627 -0.016261 0.903335
vn 0.409310 0.129678 0.903133
vn 0.436253 -0.010686 0.899761
vn 0.034047 0.175844 0.983829
vn 0.406469 0.064345 0.911396
vn -0.030518 -0.028650 0.999124
vn -0.070063 -0.188468 0.979577
vn -0.066013 -0.047374 0.996693
vn -0.160593 -0.272492 0.948661
vn -0.016121 -0.270420 0.962608
vn -0.077250 -0.349490 0.933750
vn -0.030454 -0.318366 0.947479
vn 0.060903 -0.326981 0.943066
vn 0.121107 -0.169620 0.978040
vn -0.027652 0.440597 0.897279
vn 0.012229 -0.026906 0.999563
vn 0.053754 0.342127 0.938115
vn -0.089248 -0.361971 0.927907
vn 0.106585 -0.335281 0.936070
vn -0.054801 -0.394458 0.917278
vn 0.373770 -0.015903 0.927385
vn 0.327630 -0.080822 0.941343
vn 0.408944 -0.023002 0.912269
vn -0.070475 0.418952 0.905269
vn -0.024571 -0.000000 0.999698
vn 0.223724 -0.176431 0.958551
vn 0.341492 -0.052496 0.938418
vn 0.018379 -0.423597 0.905664
vn -0.123290 -0.146261 0.981533
vn 0.307722 -0.042365 0.950533
vn -0.070741 -0.363052 0.929080
vn -0.217152 -0.149500 0.964622
vn 0.000000 0.171363 0.985208
vn 0.408724 0.032575 0.912076
vn 0.265344 -0.068588 0.961711
vn -0.301843 0.063755 0.951223
vn 0.043839 0.352234 0.934885
vn -0.342468 0.025989 0.939170
vn -0.059005 -0.228532 0.971747
vn -0.180635 0.044955 0.982522
vn 0.143202 -0.189487 0.971384
vn -0.327629 -0.263362 0.907359
vn 0.262903 0.113452 0.958129
vn -0.148241 0.146286 0.978072
vn -0.041038 -0.190025 0.980921
vn 0.074574 0.382537 0.920925
vn -0.198596 -0.348438 0.916052
vn -0.207465 0.047368 0.977095
vn 0.333826 -0.097541 0.937574
vn 0.320100 0.096841 0.942421
vn -0.028276 0.037441 0.998899
vn -0.302302 0.047297 0.952038
vn 0.175508 -0.042815 0.983547
vn 0.041011 0.160087 0.986251
vn -0.213875 0.049902 0.975586
vn -0.058872 -0.220093 0.973701
vn -0.088729 -0.349062 0.932889
vn -0.030917 -0.115169 0.992865
vn -0.197071 0.047882 0.979219
vn -0.077315 -0.358932 0.930156
vn -0.014809 0.398407 0.917089
vn 0.376488 -0.053339 0.924884
vn -0.004676 -0.030009 0.999539
vn -0.035012 -0.024155 0.999095
vn 0.341638 -0.062420 0.937757
vn -0.361928 0.077898 0.928946
vn 0.240537 -0.060096 0.968778
vn 0.037978 0.007324 0.999252
vn 0.232540 0.000000 0.972587
f 129/129/129 99/99/99 70/70/70
f 112/112/112 31/31/31 113/113/113
f 170/170/170 132/132/132 167/167/167
f 26/26/26 167/167/167 132/132/132
f 58/58/58 152/152/152 147/147/147
f 114/114/114 12/12/12 47/47/47
f 101/101/101 35/35/35 46/46/46
f 129/129/129 36/36/36 99/99/99
f 66/66/66 130/130/130 113/113/113
f 152/152/152 12/12/12 162/162/162
f 11/11/11 25/25/25 148/148/148
f 120/120/120 99/99/99 36/36/36
f 115/115/115 112/112/112 15/15/15
f 140/140/140 28/28/28 172/172/172
f 114/114/114 137/137/137 31/31/31
f 76/76/76 112/112/112 113/113/113
f 84/84/84 47/47/47 12/12/12
f 15/15/15 112/112/112 76/76/76
f 115/115/115 15/15/15 75/75/75
f 45/45/45 92/92/92 93/93/93
f 62/62/62 117/117/117 125/125/125
f 16/16/16 100/100/100 139/139/139
f 22/22/22 30/30/30 136/136/136
f 38/38/38 93/93/93 92/92/92
f 62/62/62 125/125/125 123/123/123
f 165/165/165 22/22/22 136/136/136
f 147/147/147 54/54/54 58/58/58
f 83/83/83 58/58/58 54/54/54
f 57/57/57 95/95/95 104/104/104
f 116/116/116 30/30/30 22/22/22
f 42/42/42 112/112/112 115/115/115
f 9/9/9 125/125/125 117/117/117
f 140/140/140 105/105/105 28/28/28
f 155/155/155 100/100/100 73/73/73
f 129/129/129 70/70/70 18/18/18
f 24/24/24 170/170/170 105/105/105
f 165/165/165 162/162/162 22/22/22
f 114/114/114 31/31/31 42/42/42
f 150/150/150 165/165/165 32/32/32
f 37/37/37 153/153/153 157/157/157
f 164/164/164 153/153/153 37/37/37
f 146/146/146 163/163/163 61/61/61
f 104/104/104 80/80/80 34/34/34
f 41/41/41 58/58/58 83/83/83
f 32/32/32 165/165/165 136/136/136
f 161/161/161 144/144/144 162/162/162
f 51/51/51 159/159/159 23/23/23
f 156/156/156 109/109/109 53/53/53
f 78/78/78 125/125/125 9/9/9
f 121/121/121 80/80/80 5/5/5
f 154/154/154 24/24/24 172/172/172
f 147/147/147 144/144/144 169/169/169
f 44/44/44 126/126/126 26/26/26
f 122/122/122 109/109/109 51/51/51
f 162/162/162 165/165/165 161/161/161
f 123/123/123 163/163/163 32/32/32
f 60/60/60 169/169/169 111/111/111
f 63/63/63 121/121/121 111/111/111
f 63/63/63 161/161/161 150/150/150
f 25/25/25 159/159/159 34/34/34
f 81/81/81 170/170/170 167/167/167
f 30/30/30 115/115/115 117/117/117
f 84/84/84 152/152/152 58/58/58
f 51/51/51 109/109/109 57/57/57
f 34/34/34 159/159/159 51/51/51
f 11/11/11 148/148/148 107/107/107
f 5/5/5 104/104/104 95/95/95
f 85/85/85 55/55/55 41/41/41
f 82/82/82 137/137/137 47/47/47
f 29/29/29 119/119/119 135/135/135
f 72/72/72 135/135/135 119/119/119
f 84/84/84 12/12/12 152/152/152
f 84/84/84 58/58/58 41/41/41
f 47/47/47 137/137/137 114/114/114
f 59/59/59 85/85/85 83/83/83
f 55/55/55 82/82/82 41/41/41
f 20/20/20 137/137/137 82/82/82
f 20/20/20 66/66/66 137/137/137
f 55/55/55 20/20/20 82/82/82
f 59/59/59 91/91/91 85/85/85
f 21/21/21 141/141/141 65/65/65
f 6/6/6 85/85/85 91/91/91
f 94/94/94 138/138/138 3/3/3
f 41/41/41 82/82/82 84/84/84
f 172/172/172 163/163/163 146/146/146
f 149/149/149 49/49/49 53/53/53
f 92/92/92 18/18/18 69/69/69
f 94/94/94 69/69/69 138/138/138
f 59/59/59 83/83/83 143/143/143
f 167/167/167 106/106/106 158/158/158
f 171/171/171 143/143/143 83/83/83
f 106/106/106 167/167/167 52/52/52
f 157/157/157 90/90/90 37/37/37
f 166/166/166 120/120/120 36/36/36
f 38/38/38 92/92/92 94/94/94
f 81/81/81 167/167/167 158/158/158
f 98/98/98 166/166/166 36/36/36
f 164/164/164 171/171/171 160/160/160
f 45/45/45 10/10/10 98/98/98
f 156/156/156 145/145/145 153/153/153
f 162/162/162 12/12/12 22/22/22
f 116/116/116 22/22/22 12/12/12
f 50/50/50 45/45/45 98/98/98
f 50/50/50 98/98/98 36/36/36
f 160/160/160 54/54/54 147/147/147
f 129/129/129 50/50/50 36/36/36
f 26/26/26 128/128/128 52/52/52
f 23/23/23 11/11/11 87/87/87
f 140/140/140 172/172/172 24/24/24
f 122/122/122 166/166/166 109/109/109
f 47/47/47 84/84/84 82/82/82
f 48/48/48 38/38/38 141/141/141
f 65/65/65 94/94/94 3/3/3
f 169/169/169 60/60/60 160/160/160
f 56/56/56 88/88/88 99/99/99
f 7/7/7 99/99/99 88/88/88
f 164/164/164 160/160/160 60/60/60
f 64/64/64 91/91/91 89/89/89
f 173/173/173 34/34/34 80/80/80
f 93/93/93 38/38/38 48/48/48
f 23/23/23 25/25/25 11/11/11
f 93/93/93 10/10/10 45/45/45
f 48/48/48 90/90/90 93/93/93
f 25/25/25 23/23/23 159/159/159
f 59/59/59 39/39/39 91/91/91
f 143/143/143 39/39/39 59/59/59
f 64/64/64 89/89/89 21/21/21
f 89/89/89 91/91/91 39/39/39
f 6/6/6 91/91/91 64/64/64
f 63/63/63 111/111/111 161/161/161
f 135/135/135 44/44/44 29/29/29
f 6/6/6 55/55/55 85/85/85
f 154/154/154 127/127/127 132/132/132
f 155/155/155 102/102/102 35/35/35
f 143/143/143 90/90/90 39/39/39
f 102/102/102 155/155/155 73/73/73
f 75/75/75 117/117/117 115/115/115
f 53/53/53 145/145/145 156/156/156
f 62/62/62 123/123/123 136/136/136
f 111/111/111 169/169/169 161/161/161
f 172/172/172 146/146/146 154/154/154
f 123/123/123 32/32/32 136/136/136
f 133/133/133 27/27/27 78/78/78
f 150/150/150 161/161/161 165/165/165
f 65/65/65 141/141/141 94/94/94
f 142/142/142 46/46/46 35/35/35
f 37/37/37 90/90/90 143/143/143
f 37/37/37 143/143/143 171/171/171
f 163/163/163 168/168/168 150/150/150
f 157/157/157 10/10/10 90/90/90
f 49/49/49 98/98/98 10/10/10
f 49/49/49 10/10/10 157/157/157
f 145/145/145 157/157/157 153/153/153
f 34/34/34 51/51/51 57/57/57
f 119/119/119 29/29/29 118/118/118
f 145/145/145 49/49/49 157/157/157
f 105/105/105 170/170/170 81/81/81
f 135/135/135 72/72/72 17/17/17
f 156/156/156 57/57/57 109/109/109
f 53/53/53 49/49/49 145/145/145
f 149/149/149 166/166/166 98/98/98
f 149/149/149 98/98/98 49/49/49
f 38/38/38 94/94/94 141/141/141
f 5/5/5 95/95/95 111/111/111
f 95/95/95 57/57/57 156/156/156
f 163/163/163 150/150/150 32/32/32
f 60/60/60 111/111/111 95/95/95
f 168/168/168 163/163/163 28/28/28
f 168/168/168 121/121/121 63/63/63
f 172/172/172 28/28/28 163/163/163
f 34/34/34 57/57/57 104/104/104
f 168/168/168 63/63/63 150/150/150
f 9/9/9 117/117/117 75/75/75
f 79/79/79 13/13/13 124/124/124
f 144/144/144 152/152/152 162/162/162
f 95/95/95 156/156/156 153/153/153
f 87/87/87 46/46/46 40/40/40
f 88/88/88 151/151/151 40/40/40
f 83/83/83 54/54/54 171/171/171
f 96/96/96 43/43/43 100/100/100
f 37/37/37 171/171/171 164/164/164
f 77/77/77 119/119/119 118/118/118
f 134/134/134 66/66/66 113/113/113
f 122/122/122 23/23/23 151/151/151
f 169/169/169 144/144/144 161/161/161
f 40/40/40 46/46/46 86/86/86
f 90/90/90 48/48/48 39/39/39
f 112/112/112 42/42/42 31/31/31
f 133/133/133 14/14/14 79/79/79
f 118/118/118 79/79/79 14/14/14
f 167/167/167 26/26/26 52/52/52
f 130/130/130 1/1/1 113/113/113
f 13/13/13 131/131/131 127/127/127
f 79/79/79 124/124/124 133/133/133
f 80/80/80 104/104/104 5/5/5
f 46/46/46 87/87/87 101/101/101
f 147/147/147 152/152/152 144/144/144
f 173/173/173 25/25/25 34/34/34
f 109/109/109 166/166/166 149/149/149
f 29/29/29 131/131/131 118/118/118
f 27/27/27 123/123/123 125/125/125
f 11/11/11 101/101/101 87/87/87
f 33/33/33 52/52/52 108/108/108
f 107/107/107 33/33/33 110/110/110
f 139/139/139 33/33/33 108/108/108
f 136/136/136 30/30/30 62/62/62
f 33/33/33 106/106/106 52/52/52
f 21/21/21 89/89/89 141/141/141
f 110/110/110 33/33/33 139/139/139
f 103/103/103 68/68/68 102/102/102
f 107/107/107 106/106/106 33/33/33
f 117/117/117 62/62/62 30/30/30
f 148/148/148 25/25/25 173/173/173
f 148/148/148 173/173/173 158/158/158
f 148/148/148 106/106/106 107/107/107
f 43/43/43 139/139/139 100/100/100
f 124/124/124 146/146/146 61/61/61
f 43/43/43 107/107/107 110/110/110
f 27/27/27 124/124/124 61/61/61
f 54/54/54 160/160/160 171/171/171
f 100/100/100 155/155/155 35/35/35
f 43/43/43 110/110/110 139/139/139
f 115/115/115 30/30/30 42/42/42
f 74/74/74 139/139/139 108/108/108
f 4/4/4 103/103/103 102/102/102
f 7/7/7 70/70/70 99/99/99
f 116/116/116 42/42/42 30/30/30
f 151/151/151 23/23/23 40/40/40
f 68/68/68 142/142/142 102/102/102
f 86/86/86 46/46/46 142/142/142
f 142/142/142 35/35/35 102/102/102
f 88/88/88 56/56/56 151/151/151
f 31/31/31 134/134/134 113/113/113
f 19/19/19 86/86/86 142/142/142
f 69/69/69 94/94/94 92/92/92
f 56/56/56 166/166/166 122/122/122
f 148/148/148 158/158/158 106/106/106
f 44/44/44 127/127/127 131/131/131
f 105/105/105 81/81/81 80/80/80
f 89/89/89 39/39/39 48/48/48
f 56/56/56 122/122/122 151/151/151
f 122/122/122 51/51/51 23/23/23
f 129/129/129 18/18/18 45/45/45
f 92/92/92 45/45/45 18/18/18
f 56/56/56 99/99/99 120/120/120
f 56/56/56 120/120/120 166/166/166
f 88/88/88 40/40/40 86/86/86
f 67/67/67 88/88/88 86/86/86
f 67/67/67 7/7/7 88/88/88
f 19/19/19 67/67/67 86/86/86
f 68/68/68 19/19/19 142/142/142
f 87/87/87 40/40/40 23/23/23
f 42/42/42 116/116/116 114/114/114
f 174/174/174 4/4/4 102/102/102
f 73/73/73 174/174/174 102/102/102
f 16/16/16 73/73/73 100/100/100
f 74/74/74 16/16/16 139/139/139
f 8/8/8 74/74/74 108/108/108
f 131/131/131 79/79/79 118/118/118
f 8/8/8 108/108/108 128/128/128
f 76/76/76 113/113/113 1/1/1
f 35/35/35 96/96/96 100/100/100
f 96/96/96 35/35/35 101/101/101
f 78/78/78 27/27/27 125/125/125
f 52/52/52 128/128/128 108/108/108
f 128/128/128 71/71/71 8/8/8
f 48/48/48 141/141/141 89/89/89
f 24/24/24 105/105/105 140/140/140
f 126/126/126 17/17/17 71/71/71
f 127/127/127 44/44/44 26/26/26
f 26/26/26 126/126/126 128/128/128
f 123/123/123 61/61/61 163/163/163
f 71/71/71 128/128/128 126/126/126
f 132/132/132 127/127/127 26/26/26
f 17/17/17 126/126/126 135/135/135
f 10/10/10 93/93/93 90/90/90
f 124/124/124 13/13/13 146/146/146
f 43/43/43 96/96/96 101/101/101
f 131/131/131 13/13/13 79/79/79
f 149/149/149 53/53/53 109/109/109
f 29/29/29 44/44/44 131/131/131
f 12/12/12 114/114/114 116/116/116
f 66/66/66 134/134/134 137/137/137
f 44/44/44 135/135/135 126/126/126
f 85/85/85 41/41/41 83/83/83
f 160/160/160 147/147/147 169/169/169
f 119/119/119 2/2/2 72/72/72
f 133/133/133 124/124/124 27/27/27
f 134/134/134 31/31/31 137/137/137
f 77/77/77 118/118/118 14/14/14
f 60/60/60 153/153/153 164/164/164
f 81/81/81 158/158/158 173/173/173
f 154/154/154 146/146/146 13/13/13
f 14/14/14 133/133/133 78/78/78
f 24/24/24 132/132/132 170/170/170
f 154/154/154 132/132/132 24/24/24
f 81/81/81 173/173/173 80/80/80
f 121/121/121 28/28/28 80/80/80
f 28/28/28 105/105/105 80/80/80
f 121/121/121 5/5/5 111/111/111
f 97/97/97 2/2/2 119/119/119
f 60/60/60 95/95/95 153/153/153
f 97/97/97 119/119/119 77/77/77
f 154/154/154 13/13/13 127/127/127
f 168/168/168 28/28/28 121/121/121
f 123/123/123 27/27/27 61/61/61
f 129/129/129 45/45/45 50/50/50
f 43/43/43 101/101/101 107/107/107
f 11/11/11 107/107/107 101/101/101
