# frame 000529 
# time 0.265000 
# name Cloth3D 
v -0.000000 0.000000 -0.000000
v 1.000000 0.000000 -0.000000
v -0.000000 1.000000 0.000000
v 1.000000 1.000000 0.000000
v 0.500594 0.500648 0.127574
v -0.000000 0.500000 0.000000
v 0.500000 1.000000 0.000000
v 1.000000 0.500000 0.000000
v 0.500000 -0.000000 0.000000
v 0.245505 0.756240 0.080706
v 0.757657 0.756939 0.088352
v 0.244518 0.246196 0.074725
v 0.754954 0.243653 0.083145
v 0.750000 0.000000 0.000000
v 0.250000 0.000000 0.000000
v 1.000000 0.750000 0.000000
v 1.000000 0.250000 0.000000
v 0.250000 1.000000 0.000000
v 0.750000 1.000000 0.000000
v 0.000000 0.250000 0.000000
v 0.000000 0.750000 -0.000000
v 0.363211 0.217833 0.073206
v 0.633271 0.778980 0.093707
v 0.713648 0.358201 0.110552
v 0.679860 0.675982 0.119929
v 0.879216 0.373680 0.052207
v 0.626220 0.118109 0.057742
v 0.630230 0.369579 0.121993
v 0.877742 0.121896 0.033737
v 0.374732 0.124893 0.038352
v 0.124267 0.125240 0.017445
v 0.492415 0.245724 0.092952
v 0.881646 0.626916 0.058595
v 0.631696 0.630805 0.123665
v 0.879503 0.879480 0.039675
v 0.373887 0.882846 0.059829
v 0.258790 0.602935 0.090774
v 0.122658 0.877615 0.031612
v 0.122650 0.626388 0.045467
v 0.626751 0.879829 0.052555
v 0.120353 0.374068 0.050562
v 0.249128 0.124578 0.032571
v 0.880554 0.752966 0.050324
v 0.879110 0.247530 0.046763
v 0.248708 0.879230 0.044896
v 0.753189 0.880613 0.050111
v 0.120239 0.248703 0.043657
v 0.120391 0.752469 0.047638
v 0.300418 0.721645 0.099514
v 0.310594 0.882592 0.056620
v 0.553192 0.707758 0.119929
v 0.880521 0.500382 0.056887
v 0.367271 0.722824 0.119962
v 0.241604 0.454398 0.096955
v 0.000000 0.375000 0.000000
v 0.500446 0.883357 0.062140
v 0.501054 0.631296 0.125259
v 0.240307 0.371635 0.103286
v 0.123195 0.500071 0.045327
v 0.370218 0.500646 0.123436
v 0.629117 0.241451 0.104298
v 0.500575 0.122912 0.046102
v 0.499985 0.370281 0.123148
v 0.000000 0.625000 0.000000
v 0.000000 0.875000 0.000000
v 0.000000 0.125000 0.000000
v 0.625000 1.000000 0.000000
v 0.875000 1.000000 0.000000
v 0.125000 1.000000 0.000000
v 0.375000 1.000000 0.000000
v 1.000000 0.375000 0.000000
v 1.000000 0.125000 0.000000
v 1.000000 0.875000 0.000000
v 1.000000 0.625000 0.000000
v 0.375000 0.000000 0.000000
v 0.125000 0.000000 0.000000
v 0.875000 0.000000 0.000000
v 0.625000 0.000000 0.000000
v 0.752527 0.118168 0.052958
v 0.631153 0.500444 0.126033
v 0.720465 0.487568 0.119929
v 0.057848 0.312149 0.029437
v 0.182481 0.436520 0.073417
v 0.179613 0.309554 0.074283
v 0.061055 0.437382 0.023889
v 0.688568 0.940851 0.027612
v 0.691802 0.819674 0.075680
v 0.562885 0.940293 0.027960
v 0.059316 0.688296 0.027380
v 0.182844 0.690819 0.068970
v 0.061618 0.562854 0.022576
v 0.186754 0.939940 0.022221
v 0.184091 0.816645 0.053771
v 0.061657 0.938397 0.011619
v 0.435772 0.566065 0.126489
v 0.880437 0.816378 0.046197
v 0.937500 0.000000 -0.000000
v 0.309292 0.821246 0.078887
v 0.437396 0.941591 0.031116
v 0.941336 0.814252 0.026382
v 0.818431 0.818247 0.061988
v 0.939020 0.938838 0.013763
v 0.937500 1.000000 0.000000
v 0.566169 0.565849 0.126988
v 0.704934 0.425658 0.119929
v 0.828713 0.593899 0.085194
v 0.821280 0.691884 0.081925
v 0.941710 0.563001 0.031607
v 0.492195 0.723037 0.119934
v 0.880481 0.689947 0.053565
v 0.434868 0.435466 0.126261
v 0.187339 0.062263 0.014018
v 0.062603 0.062883 0.002548
v 0.184285 0.185685 0.044956
v 0.312434 0.061534 0.020973
v 0.310530 0.186482 0.055985
v 0.437806 0.063404 0.017136
v 0.813821 0.058496 0.026291
v 0.939200 0.060780 0.016576
v 0.437059 0.882396 0.060197
v 0.565535 0.435232 0.126884
v 0.526132 0.813605 0.088167
v 0.564024 0.181494 0.077132
v 0.690845 0.179094 0.079294
v 0.562867 0.059819 0.027306
v 0.939435 0.311770 0.024668
v 0.818459 0.308877 0.073955
v 0.940051 0.437329 0.027908
v 0.312026 0.941308 0.028514
v -0.000000 0.062500 -0.000000
v 0.816026 0.182886 0.055382
v 0.807296 0.369802 0.081865
v 0.688260 0.058301 0.029656
v 0.062298 0.125634 0.006317
v 0.940805 0.186174 0.025298
v 0.437043 0.184962 0.066088
v 0.060015 0.187011 0.020310
v 0.062500 1.000000 0.000000
v 0.941237 0.688541 0.029181
v 0.688921 0.364306 0.119929
v 0.060533 0.813501 0.020960
v 0.814308 0.941337 0.026469
v 0.184684 0.563709 0.067444
v 0.359446 0.344187 0.119929
v 0.351022 0.657915 0.119929
v 0.665280 0.267415 0.119942
v 0.277486 0.364700 0.119942
v 0.762516 0.655300 0.119942
v 0.374700 0.752514 0.119942
v 0.485855 0.312476 0.119929
v 0.582219 0.838850 0.075341
v 0.288933 0.327446 0.106810
v 0.335540 0.596200 0.119929
v 0.719199 0.293584 0.102740
v 0.941481 0.877279 0.024662
v 0.434567 0.641508 0.122930
v 0.277205 0.662346 0.097429
v 0.735790 0.549715 0.119941
v 0.615689 0.692081 0.119929
v 0.304430 0.472089 0.119935
v 0.422604 0.328343 0.119929
v 0.359640 0.290377 0.099135
v 0.546988 0.297140 0.119929
v 0.319841 0.533618 0.119929
v 0.416451 0.252709 0.090611
v 0.424319 0.825493 0.087377
v 0.819337 0.481641 0.080184
v 0.545901 0.321452 0.120329
v 0.370033 0.415112 0.121945
v 0.774611 0.422640 0.096937
v 0.241094 0.515904 0.090801
v 0.672436 0.297038 0.119937
v 0.691895 0.587759 0.121167
v 1.000000 0.937500 0.000000
vt 0.000000 0.000000
vt 1.000000 0.000000
vt 0.000000 1.000000
vt 1.000000 1.000000
vt 0.500000 0.500000
vt 0.000000 0.500000
vt 0.500000 1.000000
vt 1.000000 0.500000
vt 0.500000 0.000000
vt 0.250000 0.750000
vt 0.750000 0.750000
vt 0.250000 0.250000
vt 0.750000 0.250000
vt 0.750000 0.000000
vt 0.250000 0.000000
vt 1.000000 0.750000
vt 1.000000 0.250000
vt 0.250000 1.000000
vt 0.750000 1.000000
vt 0.000000 0.250000
vt 0.000000 0.750000
vt 0.365347 0.220303
vt 0.629073 0.770824
vt 0.706846 0.363401
vt 0.671088 0.668630
vt 0.875000 0.375000
vt 0.625000 0.125000
vt 0.625000 0.375000
vt 0.875000 0.125000
vt 0.375000 0.125000
vt 0.125000 0.125000
vt 0.492214 0.250470
vt 0.875000 0.625000
vt 0.625000 0.625000
vt 0.875000 0.875000
vt 0.375000 0.875000
vt 0.262101 0.599801
vt 0.125000 0.875000
vt 0.125000 0.625000
vt 0.625000 0.875000
vt 0.125000 0.375000
vt 0.250000 0.125000
vt 0.875000 0.750000
vt 0.875000 0.250000
vt 0.250000 0.875000
vt 0.750000 0.875000
vt 0.125000 0.250000
vt 0.125000 0.750000
vt 0.304602 0.713891
vt 0.312500 0.875000
vt 0.550203 0.698640
vt 0.875000 0.500000
vt 0.371737 0.711690
vt 0.248222 0.455442
vt 0.000000 0.375000
vt 0.500000 0.875000
vt 0.500000 0.625000
vt 0.250000 0.375000
vt 0.125000 0.500000
vt 0.375000 0.500000
vt 0.625000 0.250000
vt 0.500000 0.125000
vt 0.500000 0.375000
vt 0.000000 0.625000
vt 0.000000 0.875000
vt 0.000000 0.125000
vt 0.625000 1.000000
vt 0.875000 1.000000
vt 0.125000 1.000000
vt 0.375000 1.000000
vt 1.000000 0.375000
vt 1.000000 0.125000
vt 1.000000 0.875000
vt 1.000000 0.625000
vt 0.375000 0.000000
vt 0.125000 0.000000
vt 0.875000 0.000000
vt 0.625000 0.000000
vt 0.750000 0.125000
vt 0.625000 0.500000
vt 0.710877 0.487867
vt 0.062500 0.312500
vt 0.187500 0.437500
vt 0.187500 0.312500
vt 0.062500 0.437500
vt 0.687500 0.937500
vt 0.687500 0.812500
vt 0.562500 0.937500
vt 0.062500 0.687500
vt 0.187500 0.687500
vt 0.062500 0.562500
vt 0.187500 0.937500
vt 0.187500 0.812500
vt 0.062500 0.937500
vt 0.437500 0.562500
vt 0.875000 0.812500
vt 0.937500 0.000000
vt 0.312500 0.812500
vt 0.437500 0.937500
vt 0.937500 0.812500
vt 0.812500 0.812500
vt 0.937500 0.937500
vt 0.937500 1.000000
vt 0.562500 0.562500
vt 0.696481 0.428513
vt 0.819332 0.591237
vt 0.812500 0.687500
vt 0.937500 0.562500
vt 0.491568 0.712770
vt 0.875000 0.687500
vt 0.437500 0.437500
vt 0.187500 0.062500
vt 0.062500 0.062500
vt 0.187500 0.187500
vt 0.312500 0.062500
vt 0.312500 0.187500
vt 0.437500 0.062500
vt 0.812500 0.062500
vt 0.937500 0.062500
vt 0.437500 0.875000
vt 0.562500 0.437500
vt 0.525016 0.804189
vt 0.562500 0.187500
vt 0.687500 0.187500
vt 0.562500 0.062500
vt 0.937500 0.312500
vt 0.812500 0.312500
vt 0.937500 0.437500
vt 0.312500 0.937500
vt 0.000000 0.062500
vt 0.812500 0.187500
vt 0.800716 0.372483
vt 0.687500 0.062500
vt 0.062500 0.125000
vt 0.937500 0.187500
vt 0.437500 0.187500
vt 0.062500 0.187500
vt 0.062500 1.000000
vt 0.937500 0.687500
vt 0.681502 0.369933
vt 0.062500 0.812500
vt 0.812500 0.937500
vt 0.187500 0.562500
vt 0.365519 0.349705
vt 0.355642 0.650511
vt 0.659047 0.278583
vt 0.288587 0.370179
vt 0.748584 0.648411
vt 0.379091 0.739499
vt 0.486674 0.319439
vt 0.580205 0.830830
vt 0.296906 0.332149
vt 0.340831 0.591638
vt 0.713437 0.300753
vt 0.937500 0.875000
vt 0.436137 0.634590
vt 0.281585 0.657008
vt 0.724859 0.547636
vt 0.609996 0.683854
vt 0.312248 0.472517
vt 0.425868 0.334438
vt 0.364019 0.294291
vt 0.545561 0.305243
vt 0.326245 0.531620
vt 0.418341 0.256674
vt 0.425703 0.815414
vt 0.812755 0.481587
vt 0.544346 0.328467
vt 0.375653 0.417988
vt 0.766844 0.424637
vt 0.245672 0.515386
vt 0.665865 0.306371
vt 0.682510 0.583771
vt 1.000000 0.937500
vn -0.021734 -0.010867 0.999705
vn 0.087651 -0.175301 0.980605
vn -0.059895 0.119789 0.990991
vn 0.114577 0.114577 0.986785
vn -0.002884 -0.000840 0.999995
vn -0.351876 0.004984 0.936033
vn 0.014269 0.442936 0.896440
vn 0.448452 -0.015579 0.893671
vn -0.042535 -0.338289 0.940081
vn -0.245678 0.165167 0.955176
vn 0.179617 0.262673 0.948019
vn -0.155130 -0.306389 0.939181
vn 0.281780 -0.191623 0.940149
vn 0.013509 -0.422000 0.906495
vn -0.026388 -0.268074 0.963037
vn 0.429427 0.009779 0.903049
vn 0.383632 0.003305 0.923480
vn -0.026873 0.369166 0.928975
vn 0.002274 0.419544 0.907732
vn -0.386105 -0.037318 0.921700
vn -0.371841 0.025187 0.927955
vn -0.078502 -0.356248 0.931088
vn 0.068278 0.321936 0.944296
vn 0.338443 -0.089073 0.936761
vn 0.045221 0.131006 0.990350
vn 0.383750 -0.035295 0.922762
vn -0.025264 -0.387539 0.921507
vn 0.027467 -0.025259 0.999304
vn 0.158645 -0.147404 0.976270
vn -0.040916 -0.326563 0.944289
vn -0.147964 -0.183371 0.971844
vn -0.084611 -0.365728 0.926868
vn 0.419129 0.041500 0.906978
vn 0.032022 0.042442 0.998586
vn 0.204974 0.165645 0.964649
vn -0.034983 0.412780 0.910159
vn -0.332743 0.030884 0.942511
vn -0.171211 0.171625 0.970171
vn -0.328827 -0.019813 0.944182
vn 0.040241 0.392479 0.918880
vn -0.377609 0.032863 0.925382
vn -0.076096 -0.255421 0.963831
vn 0.342638 0.066763 0.937092
vn 0.307081 -0.071890 0.948964
vn -0.153756 0.328629 0.931859
vn 0.051607 0.322213 0.945260
vn -0.267106 -0.157042 0.950785
vn -0.287198 0.069590 0.955340
vn -0.282990 0.115309 0.952166
vn -0.119677 0.384117 0.915495
vn 0.040804 0.175659 0.983605
vn 0.393034 -0.042480 0.918542
vn -0.181437 0.048273 0.982217
vn -0.380105 0.086273 0.920911
vn -0.397536 0.024992 0.917246
vn 0.025312 0.425999 0.904369
vn -0.008509 0.045666 0.998921
vn -0.391638 -0.114364 0.912985
vn -0.359924 0.029928 0.932501
vn -0.054803 0.002599 0.998494
vn -0.076045 -0.400160 0.913285
vn -0.087238 -0.373410 0.923555
vn -0.004507 -0.055162 0.998467
vn -0.379603 -0.020395 0.924925
vn -0.253387 0.038034 0.966617
vn -0.108923 -0.082805 0.990595
vn -0.001625 0.420584 0.907252
vn 0.040511 0.305759 0.951247
vn -0.033668 0.244935 0.968955
vn -0.008439 0.453170 0.891384
vn 0.399708 -0.012073 0.916563
vn 0.326805 -0.034781 0.944452
vn 0.346836 0.055066 0.936308
vn 0.461219 0.008413 0.887246
vn 0.015454 -0.288722 0.957288
vn -0.046948 -0.125643 0.990964
vn 0.032192 -0.321913 0.946222
vn -0.011531 -0.438055 0.898874
vn 0.112702 -0.312853 0.943091
vn 0.042506 -0.004441 0.999086
vn 0.209933 -0.042198 0.976805
vn -0.381795 -0.014537 0.924133
vn -0.385806 0.065032 0.920285
vn -0.307803 -0.142954 0.940649
vn -0.367097 0.022263 0.929916
vn 0.004833 0.393412 0.919350
vn 0.060861 0.333502 0.940783
vn 0.027907 0.431794 0.901540
vn -0.354720 -0.002109 0.934970
vn -0.299381 0.037095 0.953412
vn -0.344055 -0.008997 0.938906
vn -0.049696 0.295990 0.953897
vn -0.184385 0.193962 0.963525
vn -0.102968 0.137116 0.985189
vn -0.032933 0.023375 0.999184
vn 0.277107 0.081802 0.957351
vn 0.000000 -0.259044 0.965866
vn -0.173778 0.317065 0.932347
vn -0.006296 0.457649 0.889111
vn 0.343766 0.039744 0.938214
vn 0.193665 0.178428 0.964706
vn 0.172431 0.160437 0.971868
vn 0.000000 0.225915 0.974147
vn 0.012199 0.015656 0.999803
vn 0.214364 -0.061377 0.974823
vn 0.428725 -0.013238 0.903338
vn 0.411660 0.127959 0.902309
vn 0.436541 -0.008982 0.899640
vn 0.033048 0.174575 0.984089
vn 0.404679 0.063795 0.912231
vn -0.032560 -0.029714 0.999028
vn -0.068352 -0.192379 0.978937
vn -0.070550 -0.048592 0.996324
vn -0.159017 -0.271628 0.949174
vn -0.016165 -0.271950 0.962176
vn -0.075943 -0.349341 0.933913
vn -0.029593 -0.320287 0.946858
vn 0.059630 -0.328970 0.942456
vn 0.122488 -0.172242 0.977409
vn -0.023073 0.439140 0.898122
vn 0.013457 -0.029220 0.999482
vn 0.050500 0.341753 0.938432
vn -0.087492 -0.361596 0.928221
vn 0.104624 -0.336688 0.935786
vn -0.054150 -0.394893 0.917130
vn 0.376462 -0.015016 0.926310
vn 0.328191 -0.082396 0.941011
vn 0.411184 -0.023552 0.911248
vn -0.070677 0.420352 0.904605
vn -0.032641 -0.000000 0.999467
vn 0.221633 -0.176836 0.958962
vn 0.343661 -0.054458 0.937513
vn 0.017860 -0.422504 0.906185
vn -0.130165 -0.144679 0.980880
vn 0.311504 -0.041621 0.949333
vn -0.070861 -0.361016 0.929864
vn -0.222092 -0.148746 0.963613
vn 0.000000 0.178449 0.983949
vn 0.407103 0.032671 0.912798
vn 0.255006 -0.065233 0.964737
vn -0.306300 0.063451 0.949818
vn 0.045757 0.351933 0.934906
vn -0.339796 0.025599 0.940151
vn -0.057941 -0.228942 0.971714
vn -0.179275 0.045144 0.982763
vn 0.145511 -0.186230 0.971671
vn -0.323028 -0.263195 0.909055
vn 0.262665 0.113372 0.958203
vn -0.150630 0.143683 0.978093
vn -0.040494 -0.189477 0.981050
vn 0.076193 0.381690 0.921145
vn -0.197735 -0.347710 0.916515
vn -0.207582 0.045934 0.977139
vn 0.332037 -0.098903 0.938067
vn 0.317619 0.099443 0.942990
vn -0.028666 0.038428 0.998850
vn -0.300493 0.045729 0.952687
vn 0.172498 -0.041377 0.984140
vn 0.040367 0.159227 0.986416
vn -0.212455 0.048804 0.975951
vn -0.058707 -0.220708 0.973571
vn -0.087191 -0.349471 0.932881
vn -0.030145 -0.112433 0.993202
vn -0.196789 0.047628 0.979288
vn -0.077095 -0.356715 0.931027
vn -0.012372 0.398922 0.916902
vn 0.375154 -0.050858 0.925566
vn -0.004206 -0.028331 0.999590
vn -0.035768 -0.024029 0.999071
vn 0.340649 -0.059276 0.938320
vn -0.360232 0.077266 0.929657
vn 0.237836 -0.059430 0.969485
vn 0.037395 0.007412 0.999273
vn 0.226493 0.000000 0.974013
f 129/129/129 99/99/99 70/70/70
f 112/112/112 31/31/31 113/113/113
f 170/170/170 132/132/132 167/167/167
f 26/26/26 167/167/167 132/132/132
f 58/58/58 152/152/152 147/147/147
f 114/114/114 12/12/12 47/47/47
f 101/101/101 35/35/35 46/46/46
f 129/129/129 36/36/36 99/99/99
f 66/66/66 130/130/130 113/113/113
f 152/152/152 12/12/12 162/162/162
f 11/11/11 25/25/25 148/148/148
f 120/120/120 99/99/99 36/36/36
f 115/115/115 112/112/112 15/15/15
f 140/140/140 28/28/28 172/172/172
f 114/114/114 137/137/137 31/31/31
f 76/76/76 112/112/112 113/113/113
f 84/84/84 47/47/47 12/12/12
f 15/15/15 112/112/112 76/76/76
f 115/115/115 15/15/15 75/75/75
f 45/45/45 92/92/92 93/93/93
f 62/62/62 117/117/117 125/125/125
f 16/16/16 100/100/100 139/139/139
f 22/22/22 30/30/30 136/136/136
f 38/38/38 93/93/93 92/92/92
f 62/62/62 125/125/125 123/123/123
f 165/165/165 22/22/22 136/136/136
f 147/147/147 54/54/54 58/58/58
f 83/83/83 58/58/58 54/54/54
f 57/57/57 95/95/95 104/104/104
f 116/116/116 30/30/30 22/22/22
f 42/42/42 112/112/112 115/115/115
f 9/9/9 125/125/125 117/117/117
f 140/140/140 105/105/105 28/28/28
f 155/155/155 100/100/100 73/73/73
f 129/129/129 70/70/70 18/18/18
f 24/24/24 170/170/170 105/105/105
f 165/165/165 162/162/162 22/22/22
f 114/114/114 31/31/31 42/42/42
f 150/150/150 165/165/165 32/32/32
f 37/37/37 153/153/153 157/157/157
f 164/164/164 153/153/153 37/37/37
f 146/146/146 163/163/163 61/61/61
f 104/104/104 80/80/80 34/34/34
f 41/41/41 58/58/58 83/83/83
f 32/32/32 165/165/165 136/136/136
f 161/161/161 144/144/144 162/162/162
f 51/51/51 159/159/159 23/23/23
f 156/156/156 109/109/109 53/53/53
f 78/78/78 125/125/125 9/9/9
f 121/121/121 80/80/80 5/5/5
f 154/154/154 24/24/24 172/172/172
f 147/147/147 144/144/144 169/169/169
f 44/44/44 126/126/126 26/26/26
f 122/122/122 109/109/109 51/51/51
f 162/162/162 165/165/165 161/161/161
f 123/123/123 163/163/163 32/32/32
f 60/60/60 169/169/169 111/111/111
f 63/63/63 121/121/121 111/111/111
f 63/63/63 161/161/161 150/150/150
f 25/25/25 159/159/159 34/34/34
f 81/81/81 170/170/170 167/167/167
f 30/30/30 115/115/115 117/117/117
f 84/84/84 152/152/152 58/58/58
f 51/51/51 109/109/109 57/57/57
f 34/34/34 159/159/159 51/51/51
f 11/11/11 148/148/148 107/107/107
f 5/5/5 104/104/104 95/95/95
f 85/85/85 55/55/55 41/41/41
f 82/82/82 137/137/137 47/47/47
f 29/29/29 119/119/119 135/135/135
f 72/72/72 135/135/135 119/119/119
f 84/84/84 12/12/12 152/152/152
f 84/84/84 58/58/58 41/41/41
f 47/47/47 137/137/137 114/114/114
f 59/59/59 85/85/85 83/83/83
f 55/55/55 82/82/82 41/41/41
f 20/20/20 137/137/137 82/82/82
f 20/20/20 66/66/66 137/137/137
f 55/55/55 20/20/20 82/82/82
f 59/59/59 91/91/91 85/85/85
f 21/21/21 141/141/141 65/65/65
f 6/6/6 85/85/85 91/91/91
f 94/94/94 138/138/138 3/3/3
f 41/41/41 82/82/82 84/84/84
f 172/172/172 163/163/163 146/146/146
f 149/149/149 49/49/49 53/53/53
f 92/92/92 18/18/18 69/69/69
f 94/94/94 69/69/69 138/138/138
f 59/59/59 83/83/83 143/143/143
f 167/167/167 106/106/106 158/158/158
f 171/171/171 143/143/143 83/83/83
f 106/106/106 167/167/167 52/52/52
f 157/157/157 90/90/90 37/37/37
f 166/166/166 120/120/120 36/36/36
f 38/38/38 92/92/92 94/94/94
f 81/81/81 167/167/167 158/158/158
f 98/98/98 166/166/166 36/36/36
f 164/164/164 171/171/171 160/160/160
f 45/45/45 10/10/10 98/98/98
f 156/156/156 145/145/145 153/153/153
f 162/162/162 12/12/12 22/22/22
f 116/116/116 22/22/22 12/12/12
f 50/50/50 45/45/45 98/98/98
f 50/50/50 98/98/98 36/36/36
f 160/160/160 54/54/54 147/147/147
f 129/129/129 50/50/50 36/36/36
f 26/26/26 128/128/128 52/52/52
f 23/23/23 11/11/11 87/87/87
f 140/140/140 172/172/172 24/24/24
f 122/122/122 166/166/166 109/109/109
f 47/47/47 84/84/84 82/82/82
f 48/48/48 38/38/38 141/141/141
f 65/65/65 94/94/94 3/3/3
f 169/169/169 60/60/60 160/160/160
f 56/56/56 88/88/88 99/99/99
f 7/7/7 99/99/99 88/88/88
f 164/164/164 160/160/160 60/60/60
f 64/64/64 91/91/91 89/89/89
f 173/173/173 34/34/34 80/80/80
f 93/93/93 38/38/38 48/48/48
f 23/23/23 25/25/25 11/11/11
f 93/93/93 10/10/10 45/45/45
f 48/48/48 90/90/90 93/93/93
f 25/25/25 23/23/23 159/159/159
f 59/59/59 39/39/39 91/91/91
f 143/143/143 39/39/39 59/59/59
f 64/64/64 89/89/89 21/21/21
f 89/89/89 91/91/91 39/39/39
f 6/6/6 91/91/91 64/64/64
f 63/63/63 111/111/111 161/161/161
f 135/135/135 44/44/44 29/29/29
f 6/6/6 55/55/55 85/85/85
f 154/154/154 127/127/127 132/132/132
f 155/155/155 102/102/102 35/35/35
f 143/143/143 90/90/90 39/39/39
f 102/102/102 155/155/155 73/73/73
f 75/75/75 117/117/117 115/115/115
f 53/53/53 145/145/145 156/156/156
f 62/62/62 123/123/123 136/136/136
f 111/111/111 169/169/169 161/161/161
f 172/172/172 146/146/146 154/154/154
f 123/123/123 32/32/32 136/136/136
f 133/133/133 27/27/27 78/78/78
f 150/150/150 161/161/161 165/165/165
f 65/65/65 141/141/141 94/94/94
f 142/142/142 46/46/46 35/35/35
f 37/37/37 90/90/90 143/143/143
f 37/37/37 143/143/143 171/171/171
f 163/163/163 168/168/168 150/150/150
f 157/157/157 10/10/10 90/90/90
f 49/49/49 98/98/98 10/10/10
f 49/49/49 10/10/10 157/157/157
f 145/145/145 157/157/157 153/153/153
f 34/34/34 51/51/51 57/57/57
f 119/119/119 29/29/29 118/118/118
f 145/145/145 49/49/49 157/157/157
f 105/105/105 170/170/170 81/81/81
f 135/135/135 72/72/72 17/17/17
f 156/156/156 57/57/57 109/109/109
f 53/53/53 49/49/49 145/145/145
f 149/149/149 166/166/166 98/98/98
f 149/149/149 98/98/98 49/49/49
f 38/38/38 94/94/94 141/141/141
f 5/5/5 95/95/95 111/111/111
f 95/95/95 57/57/57 156/156/156
f 163/163/163 150/150/150 32/32/32
f 60/60/60 111/111/111 95/95/95
f 168/168/168 163/163/163 28/28/28
f 168/168/168 121/121/121 63/63/63
f 172/172/172 28/28/28 163/163/163
f 34/34/34 57/57/57 104/104/104
f 168/168/168 63/63/63 150/150/150
f 9/9/9 117/117/117 75/75/75
f 79/79/79 13/13/13 124/124/124
f 144/144/144 152/152/152 162/162/162
f 95/95/95 156/156/156 153/153/153
f 87/87/87 46/46/46 40/40/40
f 88/88/88 151/151/151 40/40/40
f 83/83/83 54/54/54 171/171/171
f 96/96/96 43/43/43 100/100/100
f 37/37/37 171/171/171 164/164/164
f 77/77/77 119/119/119 118/118/118
f 134/134/134 66/66/66 113/113/113
f 122/122/122 23/23/23 151/151/151
f 169/169/169 144/144/144 161/161/161
f 40/40/40 46/46/46 86/86/86
f 90/90/90 48/48/48 39/39/39
f 112/112/112 42/42/42 31/31/31
f 133/133/133 14/14/14 79/79/79
f 118/118/118 79/79/79 14/14/14
f 167/167/167 26/26/26 52/52/52
f 130/130/130 1/1/1 113/113/113
f 13/13/13 131/131/131 127/127/127
f 79/79/79 124/124/124 133/133/133
f 80/80/80 104/104/104 5/5/5
f 46/46/46 87/87/87 101/101/101
f 147/147/147 152/152/152 144/144/144
f 173/173/173 25/25/25 34/34/34
f 109/109/109 166/166/166 149/149/149
f 29/29/29 131/131/131 118/118/118
f 27/27/27 123/123/123 125/125/125
f 11/11/11 101/101/101 87/87/87
f 33/33/33 52/52/52 108/108/108
f 107/107/107 33/33/33 110/110/110
f 139/139/139 33/33/33 108/108/108
f 136/136/136 30/30/30 62/62/62
f 33/33/33 106/106/106 52/52/52
f 21/21/21 89/89/89 141/141/141
f 110/110/110 33/33/33 139/139/139
f 103/103/103 68/68/68 102/102/102
f 107/107/107 106/106/106 33/33/33
f 117/117/117 62/62/62 30/30/30
f 148/148/148 25/25/25 173/173/173
f 148/148/148 173/173/173 158/158/158
f 148/148/148 106/106/106 107/107/107
f 43/43/43 139/139/139 100/100/100
f 124/124/124 146/146/146 61/61/61
f 43/43/43 107/107/107 110/110/110
f 27/27/27 124/124/124 61/61/61
f 54/54/54 160/160/160 171/171/171
f 100/100/100 155/155/155 35/35/35
f 43/43/43 110/110/110 139/139/139
f 115/115/115 30/30/30 42/42/42
f 74/74/74 139/139/139 108/108/108
f 4/4/4 103/103/103 102/102/102
f 7/7/7 70/70/70 99/99/99
f 116/116/116 42/42/42 30/30/30
f 151/151/151 23/23/23 40/40/40
f 68/68/68 142/142/142 102/102/102
f 86/86/86 46/46/46 142/142/142
f 142/142/142 35/35/35 102/102/102
f 88/88/88 56/56/56 151/151/151
f 31/31/31 134/134/134 113/113/113
f 19/19/19 86/86/86 142/142/142
f 69/69/69 94/94/94 92/92/92
f 56/56/56 166/166/166 122/122/122
f 148/148/148 158/158/158 106/106/106
f 44/44/44 127/127/127 131/131/131
f 105/105/105 81/81/81 80/80/80
f 89/89/89 39/39/39 48/48/48
f 56/56/56 122/122/122 151/151/151
f 122/122/122 51/51/51 23/23/23
f 129/129/129 18/18/18 45/45/45
f 92/92/92 45/45/45 18/18/18
f 56/56/56 99/99/99 120/120/120
f 56/56/56 120/120/120 166/166/166
f 88/88/88 40/40/40 86/86/86
f 67/67/67 88/88/88 86/86/86
f 67/67/67 7/7/7 88/88/88
f 19/19/19 67/67/67 86/86/86
f 68/68/68 19/19/19 142/142/142
f 87/87/87 40/40/40 23/23/23
f 42/42/42 116/116/116 114/114/114
f 174/174/174 4/4/4 102/102/102
f 73/73/73 174/174/174 102/102/102
f 16/16/16 73/73/73 100/100/100
f 74/74/74 16/16/16 139/139/139
f 8/8/8 74/74/74 108/108/108
f 131/131/131 79/79/79 118/118/118
f 8/8/8 108/108/108 128/128/128
f 76/76/76 113/113/113 1/1/1
f 35/35/35 96/96/96 100/100/100
f 96/96/96 35/35/35 101/101/101
f 78/78/78 27/27/27 125/125/125
f 52/52/52 128/128/128 108/108/108
f 128/128/128 71/71/71 8/8/8
f 48/48/48 141/141/141 89/89/89
f 24/24/24 105/105/105 140/140/140
f 126/126/126 17/17/17 71/71/71
f 127/127/127 44/44/44 26/26/26
f 26/26/26 126/126/126 128/128/128
f 123/123/123 61/61/61 163/163/163
f 71/71/71 128/128/128 126/126/126
f 132/132/132 127/127/127 26/26/26
f 17/17/17 126/126/126 135/135/135
f 10/10/10 93/93/93 90/90/90
f 124/124/124 13/13/13 146/146/146
f 43/43/43 96/96/96 101/101/101
f 131/131/131 13/13/13 79/79/79
f 149/149/149 53/53/53 109/109/109
f 29/29/29 44/44/44 131/131/131
f 12/12/12 114/114/114 116/116/116
f 66/66/66 134/134/134 137/137/137
f 44/44/44 135/135/135 126/126/126
f 85/85/85 41/41/41 83/83/83
f 160/160/160 147/147/147 169/169/169
f 119/119/119 2/2/2 72/72/72
f 133/133/133 124/124/124 27/27/27
f 134/134/134 31/31/31 137/137/137
f 77/77/77 118/118/118 14/14/14
f 60/60/60 153/153/153 164/164/164
f 81/81/81 158/158/158 173/173/173
f 154/154/154 146/146/146 13/13/13
f 14/14/14 133/133/133 78/78/78
f 24/24/24 132/132/132 170/170/170
f 154/154/154 132/132/132 24/24/24
f 81/81/81 173/173/173 80/80/80
f 121/121/121 28/28/28 80/80/80
f 28/28/28 105/105/105 80/80/80
f 121/121/121 5/5/5 111/111/111
f 97/97/97 2/2/2 119/119/119
f 60/60/60 95/95/95 153/153/153
f 97/97/97 119/119/119 77/77/77
f 154/154/154 13/13/13 127/127/127
f 168/168/168 28/28/28 121/121/121
f 123/123/123 27/27/27 61/61/61
f 129/129/129 45/45/45 50/50/50
f 43/43/43 101/101/101 107/107/107
f 11/11/11 107/107/107 101/101/101
