# frame 000510 
# time 0.255500 
# name Cloth3D 
v -0.000000 0.000000 -0.000000
v 1.000000 0.000000 -0.000000
v -0.000000 1.000000 0.000000
v 1.000000 1.000000 0.000000
v 0.498765 0.499625 0.122264
v -0.000000 0.500000 0.000000
v 0.500000 1.000000 0.000000
v 1.000000 0.500000 0.000000
v 0.500000 -0.000000 0.000000
v 0.246901 0.754571 0.070845
v 0.756005 0.752951 0.079176
v 0.245885 0.247816 0.063961
v 0.752600 0.244016 0.077389
v 0.750000 0.000000 0.000000
v 0.250000 0.000000 0.000000
v 1.000000 0.750000 0.000000
v 1.000000 0.250000 0.000000
v 0.250000 1.000000 0.000000
v 0.750000 1.000000 0.000000
v 0.000000 0.250000 0.000000
v 0.000000 0.750000 -0.000000
v 0.363214 0.218146 0.069059
v 0.632065 0.776043 0.088208
v 0.711726 0.357677 0.107454
v 0.677676 0.671217 0.119929
v 0.877087 0.374164 0.048168
v 0.626106 0.118707 0.055779
v 0.629041 0.368546 0.122639
v 0.875376 0.123475 0.023799
v 0.374870 0.125609 0.034224
v 0.125715 0.126404 0.004502
v 0.759688 0.691462 0.100851
v 0.882841 0.626265 0.061957
v 0.630256 0.629544 0.122380
v 0.878565 0.878427 0.038469
v 0.374097 0.880295 0.053693
v 0.257145 0.602047 0.091051
v 0.124497 0.875579 0.019203
v 0.123413 0.625148 0.041985
v 0.626099 0.878686 0.051474
v 0.119553 0.373941 0.050792
v 0.249258 0.124499 0.029365
v 0.881634 0.752106 0.052693
v 0.876309 0.248521 0.039256
v 0.248602 0.878969 0.041760
v 0.752301 0.878608 0.046820
v 0.121601 0.248828 0.037267
v 0.123815 0.750725 0.034596
v 0.300128 0.720556 0.094068
v 0.311313 0.879501 0.047779
v 0.552332 0.709071 0.119929
v 0.877749 0.500376 0.052128
v 0.374546 0.719982 0.119962
v 0.374722 0.940076 0.026704
v 0.000000 0.375000 0.000000
v 0.499703 0.879393 0.054617
v 0.499117 0.630409 0.122990
v 0.239354 0.370418 0.103097
v 0.124610 0.499018 0.040971
v 0.368517 0.499738 0.122697
v 0.628426 0.238913 0.109444
v 0.500697 0.124020 0.043273
v 0.498661 0.369164 0.122593
v 0.000000 0.625000 0.000000
v 0.000000 0.875000 0.000000
v 0.000000 0.125000 0.000000
v 0.625000 1.000000 0.000000
v 0.875000 1.000000 0.000000
v 0.125000 1.000000 0.000000
v 0.375000 1.000000 0.000000
v 1.000000 0.375000 0.000000
v 1.000000 0.125000 0.000000
v 1.000000 0.875000 0.000000
v 1.000000 0.625000 0.000000
v 0.375000 0.000000 0.000000
v 0.125000 0.000000 0.000000
v 0.875000 0.000000 0.000000
v 0.625000 0.000000 0.000000
v 0.751225 0.119244 0.047434
v 0.629595 0.499307 0.122663
v 0.721537 0.485830 0.119929
v 0.059412 0.312052 0.024939
v 0.182657 0.435482 0.071840
v 0.181125 0.310028 0.066486
v 0.062185 0.437010 0.020346
v 0.688181 0.939274 0.024875
v 0.690715 0.816520 0.069753
v 0.562593 0.938457 0.024494
v 0.061721 0.687456 0.019812
v 0.185139 0.689362 0.058360
v 0.062598 0.562165 0.019509
v 0.187763 0.937729 0.012104
v 0.185916 0.814919 0.042885
v 0.062702 0.937283 0.002324
v 0.433774 0.565235 0.122519
v 0.880107 0.815248 0.045505
v 0.937500 0.000000 -0.000000
v 0.309580 0.819633 0.072610
v 0.437275 0.941216 0.030377
v 0.940457 0.813724 0.024401
v 0.816795 0.815165 0.053709
v 0.939188 0.939204 0.016679
v 0.062500 0.000000 -0.000000
v 0.564449 0.564763 0.122502
v 0.703092 0.424754 0.119929
v 0.828361 0.593045 0.086106
v 0.822734 0.691120 0.085522
v 0.939499 0.562886 0.027649
v 0.491834 0.727319 0.119934
v 0.883621 0.689585 0.060751
v 0.433266 0.434465 0.122520
v 0.187474 0.062757 0.009433
v 0.062818 0.062946 -0.006574
v 0.186276 0.187582 0.031854
v 0.312686 0.063400 0.012762
v 0.310721 0.186006 0.053307
v 0.437786 0.062675 0.019073
v 0.812921 0.059658 0.022117
v 0.937600 0.062255 0.007449
v 0.436701 0.881597 0.058914
v 0.563975 0.434140 0.122420
v 0.524979 0.810834 0.083690
v 0.564279 0.182892 0.073175
v 0.690606 0.177743 0.080989
v 0.562895 0.060484 0.025595
v 0.938699 0.312180 0.023405
v 0.815008 0.309551 0.065351
v 0.938270 0.437534 0.024512
v 0.312116 0.940886 0.026987
v -0.000000 0.062500 -0.000000
v 0.813697 0.184055 0.047422
v 0.802906 0.370289 0.071918
v 0.687900 0.056725 0.032252
v 0.799581 0.540795 0.092152
v 0.937877 0.187092 0.016268
v 0.437198 0.186567 0.060491
v 0.062016 0.187449 0.011752
v 0.062500 1.000000 0.000000
v 0.941097 0.688107 0.029220
v 0.684227 0.364373 0.119929
v 0.061525 0.812663 0.016595
v 0.813851 0.941196 0.027299
v 0.185578 0.562377 0.063111
v 0.360023 0.349478 0.119929
v 0.355181 0.655746 0.119929
v 0.653597 0.260791 0.119942
v 0.270858 0.376380 0.119942
v 0.769144 0.643620 0.119942
v 0.386380 0.759142 0.119942
v 0.484880 0.311770 0.119929
v 0.581094 0.834989 0.067922
v 0.288338 0.326916 0.103585
v 0.336754 0.594733 0.119929
v 0.717313 0.293477 0.098532
v 0.182826 0.487465 0.065493
v 0.432545 0.640900 0.123198
v 0.277030 0.661248 0.092387
v 0.693822 0.762208 0.087507
v 0.614247 0.690373 0.119929
v 0.299666 0.471843 0.119935
v 0.422322 0.330663 0.119929
v 0.358795 0.289382 0.098222
v 0.545383 0.293499 0.119929
v 0.318058 0.532822 0.119929
v 0.416002 0.252835 0.087594
v 0.423443 0.825280 0.087870
v 0.817029 0.481485 0.076824
v 0.544862 0.320312 0.122099
v 0.368591 0.414091 0.123180
v 0.770091 0.422777 0.087755
v 0.240200 0.514991 0.090619
v 0.664641 0.298207 0.119937
v 0.690959 0.586563 0.123212
v 1.000000 0.937500 0.000000
v 0.491635 0.244309 0.094451
v 0.739822 0.547265 0.119941
v 0.249526 0.939912 0.021975
v 0.937500 1.000000 0.000000
vt 0.000000 0.000000
vt 1.000000 0.000000
vt 0.000000 1.000000
vt 1.000000 1.000000
vt 0.500000 0.500000
vt 0.000000 0.500000
vt 0.500000 1.000000
vt 1.000000 0.500000
vt 0.500000 0.000000
vt 0.250000 0.750000
vt 0.750000 0.750000
vt 0.250000 0.250000
vt 0.750000 0.250000
vt 0.750000 0.000000
vt 0.250000 0.000000
vt 1.000000 0.750000
vt 1.000000 0.250000
vt 0.250000 1.000000
vt 0.750000 1.000000
vt 0.000000 0.250000
vt 0.000000 0.750000
vt 0.365347 0.220303
vt 0.629073 0.770824
vt 0.706846 0.363401
vt 0.670129 0.665264
vt 0.875000 0.375000
vt 0.625000 0.125000
vt 0.625000 0.375000
vt 0.875000 0.125000
vt 0.375000 0.125000
vt 0.125000 0.125000
vt 0.750000 0.687500
vt 0.875000 0.625000
vt 0.625000 0.625000
vt 0.875000 0.875000
vt 0.375000 0.875000
vt 0.262101 0.599801
vt 0.125000 0.875000
vt 0.125000 0.625000
vt 0.625000 0.875000
vt 0.125000 0.375000
vt 0.250000 0.125000
vt 0.875000 0.750000
vt 0.875000 0.250000
vt 0.250000 0.875000
vt 0.750000 0.875000
vt 0.125000 0.250000
vt 0.125000 0.750000
vt 0.304602 0.713891
vt 0.312500 0.875000
vt 0.550807 0.700903
vt 0.875000 0.500000
vt 0.380376 0.709165
vt 0.375000 0.937500
vt 0.000000 0.375000
vt 0.500000 0.875000
vt 0.500000 0.625000
vt 0.250000 0.375000
vt 0.125000 0.500000
vt 0.375000 0.500000
vt 0.625000 0.250000
vt 0.500000 0.125000
vt 0.500000 0.375000
vt 0.000000 0.625000
vt 0.000000 0.875000
vt 0.000000 0.125000
vt 0.625000 1.000000
vt 0.875000 1.000000
vt 0.125000 1.000000
vt 0.375000 1.000000
vt 1.000000 0.375000
vt 1.000000 0.125000
vt 1.000000 0.875000
vt 1.000000 0.625000
vt 0.375000 0.000000
vt 0.125000 0.000000
vt 0.875000 0.000000
vt 0.625000 0.000000
vt 0.750000 0.125000
vt 0.625000 0.500000
vt 0.712964 0.487328
vt 0.062500 0.312500
vt 0.187500 0.437500
vt 0.187500 0.312500
vt 0.062500 0.437500
vt 0.687500 0.937500
vt 0.687500 0.812500
vt 0.562500 0.937500
vt 0.062500 0.687500
vt 0.187500 0.687500
vt 0.062500 0.562500
vt 0.187500 0.937500
vt 0.187500 0.812500
vt 0.062500 0.937500
vt 0.437500 0.562500
vt 0.875000 0.812500
vt 0.937500 0.000000
vt 0.312500 0.812500
vt 0.437500 0.937500
vt 0.937500 0.812500
vt 0.812500 0.812500
vt 0.937500 0.937500
vt 0.062500 0.000000
vt 0.562500 0.562500
vt 0.695826 0.428705
vt 0.819332 0.591237
vt 0.812500 0.687500
vt 0.937500 0.562500
vt 0.492822 0.717561
vt 0.875000 0.687500
vt 0.437500 0.437500
vt 0.187500 0.062500
vt 0.062500 0.062500
vt 0.187500 0.187500
vt 0.312500 0.062500
vt 0.312500 0.187500
vt 0.437500 0.062500
vt 0.812500 0.062500
vt 0.937500 0.062500
vt 0.437500 0.875000
vt 0.562500 0.437500
vt 0.525016 0.804189
vt 0.562500 0.187500
vt 0.687500 0.187500
vt 0.562500 0.062500
vt 0.937500 0.312500
vt 0.812500 0.312500
vt 0.937500 0.437500
vt 0.312500 0.937500
vt 0.000000 0.062500
vt 0.812500 0.187500
vt 0.800716 0.372483
vt 0.687500 0.062500
vt 0.792154 0.539766
vt 0.937500 0.187500
vt 0.437500 0.187500
vt 0.062500 0.187500
vt 0.062500 1.000000
vt 0.937500 0.687500
vt 0.678030 0.370914
vt 0.062500 0.812500
vt 0.812500 0.937500
vt 0.187500 0.562500
vt 0.367234 0.355673
vt 0.361328 0.648887
vt 0.648515 0.273065
vt 0.283369 0.381990
vt 0.755296 0.638409
vt 0.391949 0.745650
vt 0.486762 0.319752
vt 0.580205 0.830830
vt 0.296906 0.332149
vt 0.343698 0.590847
vt 0.713437 0.300753
vt 0.185471 0.488796
vt 0.436137 0.634590
vt 0.281585 0.657008
vt 0.688844 0.757642
vt 0.609877 0.683435
vt 0.308943 0.473385
vt 0.426748 0.337606
vt 0.364019 0.294291
vt 0.544897 0.302730
vt 0.326019 0.531680
vt 0.418341 0.256674
vt 0.425703 0.815414
vt 0.812755 0.481587
vt 0.544346 0.328467
vt 0.375653 0.417988
vt 0.766844 0.424637
vt 0.245672 0.515386
vt 0.659212 0.308222
vt 0.682510 0.583771
vt 1.000000 0.937500
vt 0.492214 0.250470
vt 0.729487 0.546451
vt 0.250000 0.937500
vt 0.937500 1.000000
vn -0.000000 -0.000000 1.000000
vn 0.036437 -0.072873 0.996675
vn -0.009651 0.019303 0.999767
vn 0.133103 0.133103 0.982124
vn 0.000300 -0.000930 1.000000
vn -0.302393 0.003946 0.953175
vn 0.025097 0.415217 0.909376
vn 0.388592 -0.013268 0.921314
vn -0.024373 -0.334565 0.942057
vn -0.283170 0.168904 0.944079
vn 0.166103 0.305450 0.937609
vn -0.189072 -0.318495 0.928877
vn 0.325255 -0.177730 0.928774
vn 0.042337 -0.419144 0.906932
vn -0.012399 -0.167564 0.985783
vn 0.411455 0.019711 0.911217
vn 0.298934 -0.029520 0.953817
vn -0.079952 0.325475 0.942164
vn -0.011465 0.395862 0.918239
vn -0.281225 -0.053886 0.958128
vn -0.276516 0.011227 0.960944
vn -0.078022 -0.363791 0.928207
vn 0.075895 0.336933 0.938465
vn 0.385594 -0.109005 0.916207
vn 0.055915 0.161666 0.985260
vn 0.336907 -0.046646 0.940382
vn -0.066124 -0.390137 0.918379
vn 0.025659 -0.012154 0.999597
vn 0.184007 -0.132521 0.973951
vn -0.052503 -0.315633 0.947428
vn -0.127793 -0.158505 0.979053
vn 0.181654 0.366537 0.912498
vn 0.438866 -0.015679 0.898416
vn 0.007693 0.029981 0.999521
vn 0.171395 0.152220 0.973372
vn -0.083809 0.407483 0.909359
vn -0.353707 0.077301 0.932157
vn -0.141420 0.166433 0.975859
vn -0.316956 0.019245 0.948245
vn 0.009448 0.364727 0.931067
vn -0.376433 0.000491 0.926444
vn -0.113626 -0.246171 0.962543
vn 0.331816 0.133755 0.933814
vn 0.290474 -0.096374 0.952017
vn -0.149867 0.296405 0.943231
vn 0.059108 0.280381 0.958067
vn -0.244542 -0.192624 0.950313
vn -0.259547 0.083956 0.962074
vn -0.325522 0.143451 0.934589
vn -0.090848 0.351122 0.931912
vn 0.054655 0.193903 0.979497
vn 0.403609 -0.065819 0.912561
vn -0.191103 0.061457 0.979644
vn -0.031849 0.410137 0.911468
vn -0.367172 0.019222 0.929954
vn 0.074279 0.416517 0.906088
vn 0.004672 0.010967 0.999929
vn -0.389108 -0.225449 0.893178
vn -0.360465 0.044603 0.931706
vn -0.024795 0.009696 0.999646
vn -0.066259 -0.391415 0.917826
vn -0.079285 -0.340828 0.936776
vn -0.012740 -0.021180 0.999695
vn -0.296382 -0.000697 0.955069
vn -0.143009 0.057520 0.988048
vn -0.003473 -0.057586 0.998334
vn -0.001389 0.372889 0.927875
vn 0.033332 0.326641 0.944561
vn -0.030971 0.090425 0.995422
vn -0.019012 0.417879 0.908304
vn 0.359100 -0.003121 0.933294
vn 0.176665 -0.034258 0.983675
vn 0.308797 0.024131 0.950822
vn 0.429059 -0.009540 0.903226
vn -0.026430 -0.252017 0.967362
vn -0.050806 0.008679 0.998671
vn 0.047966 -0.203749 0.977847
vn -0.029646 -0.431957 0.901407
vn 0.178480 -0.278122 0.943818
vn 0.009003 -0.006114 0.999941
vn 0.242376 -0.078704 0.966985
vn -0.346276 -0.057140 0.936391
vn -0.402366 0.096938 0.910332
vn -0.298854 -0.215752 0.929590
vn -0.349661 0.045725 0.935760
vn 0.001422 0.373220 0.927742
vn 0.088748 0.307626 0.947360
vn 0.017720 0.388311 0.921358
vn -0.294722 0.019870 0.955377
vn -0.307819 0.076489 0.948365
vn -0.315631 -0.000456 0.948882
vn -0.119304 0.244662 0.962241
vn -0.235060 0.183814 0.954442
vn -0.050783 0.064146 0.996648
vn -0.008412 -0.001589 0.999963
vn 0.228305 0.118914 0.966300
vn 0.000000 -0.109102 0.994031
vn -0.189235 0.333907 0.923416
vn -0.008002 0.424281 0.905495
vn 0.349333 0.067087 0.934594
vn 0.132785 0.189802 0.972802
vn 0.153618 0.149594 0.976741
vn 0.027218 0.081653 0.996289
vn -0.000604 -0.001620 0.999999
vn 0.271446 -0.077264 0.959347
vn 0.430759 -0.064777 0.900139
vn 0.324148 0.189410 0.926851
vn 0.428734 -0.033338 0.902815
vn 0.055588 0.194396 0.979347
vn 0.429152 0.069548 0.900551
vn 0.004340 -0.006209 0.999971
vn -0.087940 -0.130418 0.987551
vn 0.028100 0.025687 0.999275
vn -0.180385 -0.263481 0.947649
vn -0.033467 -0.249136 0.967890
vn -0.094185 -0.306329 0.947255
vn -0.036080 -0.299519 0.953408
vn 0.099785 -0.274030 0.956530
vn 0.083093 -0.094564 0.992045
vn 0.004164 0.442021 0.896995
vn -0.001640 0.000051 0.999999
vn 0.086802 0.395663 0.914285
vn -0.123022 -0.389679 0.912697
vn 0.165909 -0.333745 0.927948
vn -0.053679 -0.375966 0.925077
vn 0.332065 -0.033900 0.942647
vn 0.318778 -0.071724 0.945112
vn 0.377150 -0.016531 0.926005
vn -0.046180 0.361634 0.931176
vn 0.081767 0.027256 0.996279
vn 0.244254 -0.180080 0.952844
vn 0.331087 -0.061156 0.941616
vn 0.017915 -0.415118 0.909591
vn 0.407451 -0.121648 0.905088
vn 0.243009 -0.062999 0.967976
vn -0.083135 -0.376127 0.922831
vn -0.164172 -0.130331 0.977784
vn 0.000000 0.028947 0.999581
vn 0.456455 0.030399 0.889227
vn 0.267474 -0.082137 0.960058
vn -0.206126 0.065037 0.976362
vn 0.032128 0.321715 0.946291
vn -0.374525 0.039571 0.926372
vn -0.065751 -0.211973 0.975061
vn -0.190100 0.059028 0.979989
vn 0.110285 -0.229745 0.966982
vn -0.308793 -0.245470 0.918908
vn 0.252028 0.187967 0.949289
vn -0.139970 0.194691 0.970826
vn -0.061877 -0.182062 0.981338
vn 0.045413 0.379363 0.924133
vn -0.195601 -0.357048 0.913377
vn -0.196591 0.058429 0.978743
vn 0.365394 -0.111892 0.924104
vn -0.401109 0.080870 0.912453
vn -0.011329 0.008559 0.999899
vn -0.327877 0.100839 0.939323
vn 0.125788 0.319519 0.939194
vn 0.051401 0.172314 0.983700
vn -0.200304 0.054816 0.978199
vn -0.059118 -0.215249 0.974768
vn -0.099328 -0.364731 0.925800
vn -0.040742 -0.162835 0.985812
vn -0.187228 0.052048 0.980937
vn -0.090667 -0.386650 0.917759
vn -0.009683 0.443730 0.896108
vn 0.387858 -0.105571 0.915653
vn -0.013804 -0.059568 0.998129
vn -0.008261 -0.015841 0.999840
vn 0.385188 -0.102064 0.917177
vn -0.397381 0.075025 0.914582
vn 0.238061 -0.072119 0.968569
vn 0.023980 0.005472 0.999697
vn 0.261583 0.000000 0.965181
vn -0.109171 -0.390163 0.914251
vn 0.235590 -0.071490 0.969219
vn -0.122501 0.325029 0.937736
vn 0.000000 0.261642 0.965165
f 130/130/130 103/103/103 113/113/113
f 112/112/112 31/31/31 113/113/113
f 170/170/170 132/132/132 167/167/167
f 26/26/26 167/167/167 132/132/132
f 58/58/58 152/152/152 147/147/147
f 114/114/114 12/12/12 47/47/47
f 136/136/136 30/30/30 117/117/117
f 130/130/130 1/1/1 103/103/103
f 66/66/66 130/130/130 113/113/113
f 152/152/152 12/12/12 162/162/162
f 23/23/23 159/159/159 158/158/158
f 76/76/76 113/113/113 103/103/103
f 115/115/115 112/112/112 15/15/15
f 140/140/140 28/28/28 172/172/172
f 114/114/114 137/137/137 31/31/31
f 76/76/76 112/112/112 113/113/113
f 84/84/84 47/47/47 12/12/12
f 15/15/15 112/112/112 76/76/76
f 115/115/115 15/15/15 75/75/75
f 45/45/45 92/92/92 93/93/93
f 116/116/116 115/115/115 30/30/30
f 125/125/125 27/27/27 62/62/62
f 22/22/22 30/30/30 136/136/136
f 38/38/38 93/93/93 92/92/92
f 81/81/81 134/134/134 176/176/176
f 165/165/165 22/22/22 136/136/136
f 115/115/115 75/75/75 30/30/30
f 117/117/117 30/30/30 75/75/75
f 172/172/172 168/168/168 163/163/163
f 116/116/116 30/30/30 22/22/22
f 42/42/42 112/112/112 115/115/115
f 42/42/42 115/115/115 116/116/116
f 140/140/140 105/105/105 28/28/28
f 59/59/59 83/83/83 155/155/155
f 129/129/129 70/70/70 18/18/18
f 24/24/24 170/170/170 105/105/105
f 165/165/165 162/162/162 22/22/22
f 114/114/114 31/31/31 42/42/42
f 150/150/150 165/165/165 175/175/175
f 37/37/37 153/153/153 157/157/157
f 164/164/164 153/153/153 37/37/37
f 146/146/146 163/163/163 61/61/61
f 137/137/137 66/66/66 31/31/31
f 41/41/41 58/58/58 83/83/83
f 175/175/175 165/165/165 136/136/136
f 161/161/161 144/144/144 162/162/162
f 51/51/51 159/159/159 23/23/23
f 156/156/156 109/109/109 53/53/53
f 78/78/78 125/125/125 9/9/9
f 121/121/121 80/80/80 5/5/5
f 154/154/154 24/24/24 172/172/172
f 147/147/147 144/144/144 169/169/169
f 44/44/44 126/126/126 26/26/26
f 122/122/122 109/109/109 51/51/51
f 162/162/162 165/165/165 161/161/161
f 123/123/123 163/163/163 175/175/175
f 60/60/60 169/169/169 111/111/111
f 63/63/63 121/121/121 111/111/111
f 63/63/63 161/161/161 150/150/150
f 25/25/25 159/159/159 34/34/34
f 81/81/81 170/170/170 167/167/167
f 83/83/83 58/58/58 147/147/147
f 84/84/84 152/152/152 58/58/58
f 51/51/51 109/109/109 57/57/57
f 34/34/34 159/159/159 51/51/51
f 25/25/25 158/158/158 159/159/159
f 172/172/172 28/28/28 168/168/168
f 85/85/85 55/55/55 41/41/41
f 82/82/82 137/137/137 47/47/47
f 29/29/29 119/119/119 135/135/135
f 72/72/72 135/135/135 119/119/119
f 84/84/84 12/12/12 152/152/152
f 84/84/84 58/58/58 41/41/41
f 47/47/47 137/137/137 114/114/114
f 59/59/59 85/85/85 83/83/83
f 55/55/55 82/82/82 41/41/41
f 20/20/20 137/137/137 82/82/82
f 20/20/20 66/66/66 137/137/137
f 55/55/55 20/20/20 82/82/82
f 59/59/59 91/91/91 85/85/85
f 21/21/21 141/141/141 65/65/65
f 6/6/6 85/85/85 91/91/91
f 94/94/94 138/138/138 3/3/3
f 41/41/41 82/82/82 84/84/84
f 172/172/172 163/163/163 146/146/146
f 149/149/149 49/49/49 53/53/53
f 92/92/92 18/18/18 69/69/69
f 94/94/94 69/69/69 138/138/138
f 177/177/177 129/129/129 18/18/18
f 54/54/54 99/99/99 70/70/70
f 177/177/177 50/50/50 129/129/129
f 120/120/120 54/54/54 36/36/36
f 157/157/157 90/90/90 37/37/37
f 166/166/166 120/120/120 36/36/36
f 38/38/38 92/92/92 94/94/94
f 120/120/120 99/99/99 54/54/54
f 98/98/98 166/166/166 36/36/36
f 164/164/164 171/171/171 160/160/160
f 45/45/45 10/10/10 98/98/98
f 156/156/156 145/145/145 153/153/153
f 162/162/162 12/12/12 22/22/22
f 116/116/116 22/22/22 12/12/12
f 50/50/50 45/45/45 98/98/98
f 50/50/50 98/98/98 36/36/36
f 129/129/129 36/36/36 54/54/54
f 129/129/129 50/50/50 36/36/36
f 129/129/129 54/54/54 70/70/70
f 177/177/177 45/45/45 50/50/50
f 177/177/177 18/18/18 92/92/92
f 177/177/177 92/92/92 45/45/45
f 47/47/47 84/84/84 82/82/82
f 48/48/48 38/38/38 141/141/141
f 65/65/65 94/94/94 3/3/3
f 169/169/169 60/60/60 160/160/160
f 56/56/56 88/88/88 99/99/99
f 7/7/7 99/99/99 88/88/88
f 164/164/164 160/160/160 60/60/60
f 64/64/64 91/91/91 89/89/89
f 113/113/113 31/31/31 66/66/66
f 93/93/93 38/38/38 48/48/48
f 93/93/93 48/48/48 10/10/10
f 93/93/93 10/10/10 45/45/45
f 125/125/125 62/62/62 9/9/9
f 90/90/90 10/10/10 48/48/48
f 59/59/59 39/39/39 91/91/91
f 143/143/143 39/39/39 59/59/59
f 64/64/64 89/89/89 21/21/21
f 89/89/89 91/91/91 39/39/39
f 6/6/6 91/91/91 64/64/64
f 63/63/63 111/111/111 161/161/161
f 135/135/135 44/44/44 29/29/29
f 6/6/6 55/55/55 85/85/85
f 154/154/154 127/127/127 132/132/132
f 143/143/143 59/59/59 155/155/155
f 143/143/143 90/90/90 39/39/39
f 171/171/171 143/143/143 155/155/155
f 171/171/171 155/155/155 83/83/83
f 53/53/53 145/145/145 156/156/156
f 62/62/62 123/123/123 136/136/136
f 111/111/111 169/169/169 161/161/161
f 172/172/172 146/146/146 154/154/154
f 123/123/123 175/175/175 136/136/136
f 133/133/133 27/27/27 78/78/78
f 150/150/150 161/161/161 165/165/165
f 65/65/65 141/141/141 94/94/94
f 62/62/62 136/136/136 117/117/117
f 37/37/37 90/90/90 143/143/143
f 37/37/37 143/143/143 171/171/171
f 163/163/163 168/168/168 150/150/150
f 157/157/157 10/10/10 90/90/90
f 49/49/49 98/98/98 10/10/10
f 49/49/49 10/10/10 157/157/157
f 145/145/145 157/157/157 153/153/153
f 34/34/34 51/51/51 57/57/57
f 119/119/119 29/29/29 118/118/118
f 145/145/145 49/49/49 157/157/157
f 105/105/105 170/170/170 81/81/81
f 135/135/135 72/72/72 17/17/17
f 156/156/156 57/57/57 109/109/109
f 53/53/53 49/49/49 145/145/145
f 149/149/149 166/166/166 98/98/98
f 149/149/149 98/98/98 49/49/49
f 38/38/38 94/94/94 141/141/141
f 5/5/5 95/95/95 111/111/111
f 95/95/95 57/57/57 156/156/156
f 163/163/163 150/150/150 175/175/175
f 60/60/60 111/111/111 95/95/95
f 5/5/5 57/57/57 95/95/95
f 168/168/168 121/121/121 63/63/63
f 104/104/104 57/57/57 5/5/5
f 34/34/34 57/57/57 104/104/104
f 168/168/168 63/63/63 150/150/150
f 9/9/9 117/117/117 75/75/75
f 79/79/79 13/13/13 124/124/124
f 144/144/144 152/152/152 162/162/162
f 95/95/95 156/156/156 153/153/153
f 87/87/87 46/46/46 40/40/40
f 88/88/88 151/151/151 40/40/40
f 80/80/80 173/173/173 104/104/104
f 96/96/96 43/43/43 100/100/100
f 37/37/37 171/171/171 164/164/164
f 77/77/77 119/119/119 118/118/118
f 87/87/87 11/11/11 46/46/46
f 122/122/122 23/23/23 151/151/151
f 169/169/169 144/144/144 161/161/161
f 40/40/40 46/46/46 86/86/86
f 173/173/173 34/34/34 104/104/104
f 112/112/112 42/42/42 31/31/31
f 32/32/32 148/148/148 107/107/107
f 32/32/32 25/25/25 148/148/148
f 158/158/158 25/25/25 32/32/32
f 131/131/131 44/44/44 13/13/13
f 79/79/79 133/133/133 118/118/118
f 79/79/79 124/124/124 133/133/133
f 80/80/80 104/104/104 5/5/5
f 148/148/148 176/176/176 134/134/134
f 147/147/147 152/152/152 144/144/144
f 173/173/173 25/25/25 34/34/34
f 109/109/109 166/166/166 149/149/149
f 29/29/29 131/131/131 118/118/118
f 106/106/106 134/134/134 52/52/52
f 148/148/148 134/134/134 106/106/106
f 33/33/33 52/52/52 108/108/108
f 107/107/107 33/33/33 110/110/110
f 139/139/139 33/33/33 108/108/108
f 43/43/43 101/101/101 107/107/107
f 33/33/33 106/106/106 52/52/52
f 21/21/21 89/89/89 141/141/141
f 110/110/110 33/33/33 139/139/139
f 178/178/178 68/68/68 102/102/102
f 107/107/107 106/106/106 33/33/33
f 101/101/101 11/11/11 107/107/107
f 148/148/148 25/25/25 173/173/173
f 148/148/148 173/173/173 176/176/176
f 148/148/148 106/106/106 107/107/107
f 11/11/11 32/32/32 107/107/107
f 158/158/158 32/32/32 11/11/11
f 43/43/43 107/107/107 110/110/110
f 23/23/23 158/158/158 87/87/87
f 142/142/142 101/101/101 35/35/35
f 46/46/46 101/101/101 142/142/142
f 43/43/43 110/110/110 139/139/139
f 100/100/100 43/43/43 139/139/139
f 74/74/74 139/139/139 108/108/108
f 4/4/4 178/178/178 102/102/102
f 7/7/7 70/70/70 99/99/99
f 16/16/16 100/100/100 139/139/139
f 102/102/102 35/35/35 100/100/100
f 68/68/68 142/142/142 102/102/102
f 86/86/86 46/46/46 142/142/142
f 142/142/142 35/35/35 102/102/102
f 88/88/88 56/56/56 151/151/151
f 46/46/46 11/11/11 101/101/101
f 19/19/19 86/86/86 142/142/142
f 69/69/69 94/94/94 92/92/92
f 56/56/56 166/166/166 122/122/122
f 23/23/23 87/87/87 40/40/40
f 118/118/118 133/133/133 14/14/14
f 158/158/158 11/11/11 87/87/87
f 151/151/151 23/23/23 40/40/40
f 56/56/56 122/122/122 151/151/151
f 122/122/122 51/51/51 23/23/23
f 171/171/171 83/83/83 160/160/160
f 83/83/83 147/147/147 160/160/160
f 56/56/56 99/99/99 120/120/120
f 56/56/56 120/120/120 166/166/166
f 88/88/88 40/40/40 86/86/86
f 67/67/67 88/88/88 86/86/86
f 67/67/67 7/7/7 88/88/88
f 19/19/19 67/67/67 86/86/86
f 68/68/68 19/19/19 142/142/142
f 73/73/73 102/102/102 100/100/100
f 42/42/42 116/116/116 114/114/114
f 174/174/174 4/4/4 102/102/102
f 73/73/73 174/174/174 102/102/102
f 16/16/16 73/73/73 100/100/100
f 74/74/74 16/16/16 139/139/139
f 8/8/8 74/74/74 108/108/108
f 131/131/131 79/79/79 118/118/118
f 8/8/8 108/108/108 128/128/128
f 13/13/13 44/44/44 127/127/127
f 35/35/35 96/96/96 100/100/100
f 96/96/96 35/35/35 101/101/101
f 78/78/78 27/27/27 125/125/125
f 52/52/52 128/128/128 108/108/108
f 128/128/128 71/71/71 8/8/8
f 48/48/48 141/141/141 89/89/89
f 24/24/24 105/105/105 140/140/140
f 126/126/126 17/17/17 71/71/71
f 127/127/127 44/44/44 26/26/26
f 26/26/26 126/126/126 128/128/128
f 123/123/123 61/61/61 163/163/163
f 71/71/71 128/128/128 126/126/126
f 132/132/132 127/127/127 26/26/26
f 17/17/17 126/126/126 135/135/135
f 62/62/62 117/117/117 9/9/9
f 124/124/124 13/13/13 146/146/146
f 43/43/43 96/96/96 101/101/101
f 131/131/131 13/13/13 79/79/79
f 149/149/149 53/53/53 109/109/109
f 29/29/29 44/44/44 131/131/131
f 12/12/12 114/114/114 116/116/116
f 167/167/167 52/52/52 134/134/134
f 44/44/44 135/135/135 126/126/126
f 85/85/85 41/41/41 83/83/83
f 160/160/160 147/147/147 169/169/169
f 119/119/119 2/2/2 72/72/72
f 133/133/133 124/124/124 27/27/27
f 81/81/81 167/167/167 134/134/134
f 77/77/77 118/118/118 14/14/14
f 60/60/60 153/153/153 164/164/164
f 81/81/81 176/176/176 173/173/173
f 154/154/154 146/146/146 13/13/13
f 14/14/14 133/133/133 78/78/78
f 24/24/24 132/132/132 170/170/170
f 154/154/154 132/132/132 24/24/24
f 81/81/81 173/173/173 80/80/80
f 121/121/121 28/28/28 80/80/80
f 28/28/28 105/105/105 80/80/80
f 121/121/121 5/5/5 111/111/111
f 97/97/97 2/2/2 119/119/119
f 60/60/60 95/95/95 153/153/153
f 97/97/97 119/119/119 77/77/77
f 154/154/154 13/13/13 127/127/127
f 168/168/168 28/28/28 121/121/121
f 123/123/123 27/27/27 61/61/61
f 122/122/122 166/166/166 109/109/109
f 140/140/140 172/172/172 24/24/24
f 105/105/105 81/81/81 80/80/80
f 27/27/27 124/124/124 61/61/61
f 124/124/124 146/146/146 61/61/61
f 62/62/62 27/27/27 123/123/123
f 167/167/167 26/26/26 52/52/52
f 26/26/26 128/128/128 52/52/52
f 48/48/48 89/89/89 90/90/90
f 39/39/39 90/90/90 89/89/89
