# frame 000558 
# time 0.279500 
# name Cloth3D 
v -0.000000 0.000000 -0.000000
v 1.000000 0.000000 -0.000000
v -0.000000 1.000000 0.000000
v 1.000000 1.000000 0.000000
v 0.502261 0.501325 0.123577
v -0.000000 0.500000 0.000000
v 0.500000 1.000000 0.000000
v 1.000000 0.500000 0.000000
v 0.500000 -0.000000 0.000000
v 0.245119 0.756928 0.082870
v 0.758059 0.756895 0.086289
v 0.245803 0.246624 0.076608
v 0.757253 0.244519 0.084194
v 0.750000 0.000000 0.000000
v 0.250000 0.000000 0.000000
v 1.000000 0.750000 0.000000
v 1.000000 0.250000 0.000000
v 0.250000 1.000000 0.000000
v 0.750000 1.000000 0.000000
v 0.000000 0.250000 0.000000
v 0.000000 0.750000 -0.000000
v 0.364134 0.217062 0.078024
v 0.633932 0.778944 0.092779
v 1.000000 0.937500 0.000000
v 0.682645 0.684421 0.119929
v 0.881320 0.373946 0.054765
v 0.627197 0.123652 0.045416
v 0.632362 0.370310 0.120816
v 0.879302 0.121230 0.037320
v 0.374784 0.122104 0.047840
v 0.121842 0.122103 0.035923
v 0.493828 0.245208 0.096479
v 0.879578 0.627000 0.051921
v 0.632777 0.631320 0.120626
v 0.876999 0.876787 0.023707
v 0.374007 0.880839 0.054844
v 0.257218 0.603885 0.097518
v 0.121368 0.879004 0.037233
v 0.120716 0.626977 0.051778
v 0.627310 0.882321 0.057731
v 0.120606 0.374483 0.052015
v 0.248328 0.121896 0.044009
v 0.879198 0.752580 0.044244
v 0.880887 0.247501 0.049467
v 0.247220 0.881867 0.053098
v 0.753069 0.880186 0.046921
v 0.119821 0.248169 0.049455
v 0.120002 0.753263 0.049668
v 0.300028 0.722349 0.102417
v 0.000000 0.687500 -0.000000
v 0.553866 0.706963 0.119929
v 0.881711 0.500618 0.057477
v 0.428175 0.728953 0.119938
v 0.242971 0.455229 0.095879
v 0.000000 0.375000 0.000000
v 0.500603 0.881781 0.058057
v 0.502072 0.631651 0.121139
v 0.243431 0.372290 0.099255
v 0.121715 0.500635 0.050708
v 0.371783 0.501345 0.120868
v 0.630868 0.243477 0.099969
v 0.501134 0.121686 0.051035
v 0.502069 0.371068 0.121000
v 0.000000 0.625000 0.000000
v 0.000000 0.875000 0.000000
v 0.000000 0.125000 0.000000
v 0.625000 1.000000 0.000000
v 0.875000 1.000000 0.000000
v 0.125000 1.000000 0.000000
v 0.375000 1.000000 0.000000
v 1.000000 0.375000 0.000000
v 1.000000 0.125000 0.000000
v 1.000000 0.875000 0.000000
v 1.000000 0.625000 0.000000
v 0.375000 0.000000 0.000000
v 0.125000 0.000000 0.000000
v 0.875000 0.000000 0.000000
v 0.625000 0.000000 0.000000
v 0.753152 0.122713 0.042599
v 0.632708 0.501075 0.122197
v 0.719195 0.488817 0.119929
v 0.060905 0.312087 0.023701
v 0.182680 0.437143 0.075204
v 0.182087 0.310470 0.071310
v 0.060280 0.437588 0.026622
v 0.688543 0.939779 0.024541
v 0.692165 0.819722 0.074350
v 0.563194 0.941546 0.030283
v 0.060427 0.688695 0.025048
v 0.182128 0.691677 0.072185
v 0.060064 0.563137 0.027186
v 0.185936 0.941688 0.027142
v 0.182283 0.818686 0.062432
v 0.061130 0.938975 0.013745
v 0.437029 0.566644 0.123245
v 0.878847 0.815378 0.037748
v 0.937500 0.000000 -0.000000
v 0.309484 0.820795 0.077669
v 0.437455 0.940610 0.028403
v 0.939097 0.813407 0.017846
v 0.817668 0.817620 0.055427
v 0.937396 0.937280 -0.000491
v 0.937500 1.000000 0.000000
v 0.567549 0.566402 0.123563
v 0.708209 0.426055 0.119929
v 0.827507 0.594183 0.079380
v 0.821516 0.692260 0.079271
v 0.939850 0.563070 0.026660
v 0.491815 0.717802 0.119934
v 0.693095 0.588343 0.120968
v 0.436815 0.436231 0.122572
v 0.186615 0.061627 0.018673
v 0.061231 0.061430 0.013503
v 0.183493 0.184041 0.056345
v 0.312313 0.062505 0.019359
v 0.310791 0.184264 0.064868
v 0.437773 0.059608 0.028375
v 0.813999 0.060813 0.021133
v 0.938383 0.061707 0.010091
v -0.000000 0.937500 0.000000
v 0.567451 0.435968 0.122828
v 0.526446 0.811631 0.082230
v 0.565332 0.182301 0.076689
v 0.692175 0.182028 0.073118
v 0.563314 0.061425 0.024256
v 0.940973 0.311786 0.027317
v 0.820868 0.309310 0.076556
v 0.941340 0.437476 0.029587
v 0.311673 0.940714 0.027413
v -0.000000 0.062500 -0.000000
v 0.818756 0.182550 0.061050
v 0.809030 0.370331 0.082420
v 0.688659 0.061896 0.021563
v 0.059815 0.123667 0.021715
v 0.940456 0.186183 0.023475
v 0.437918 0.184300 0.070056
v 0.059683 0.186528 0.023881
v 0.062500 1.000000 0.000000
v 0.938378 0.688277 0.021052
v 0.696709 0.363855 0.119929
v 0.059221 0.814268 0.025138
v 0.813119 0.938238 0.014922
v 0.183035 0.564522 0.073857
v 0.359004 0.335280 0.119929
v 0.343381 0.660092 0.119929
v 0.682470 0.278576 0.119942
v 0.288652 0.347514 0.119942
v 0.751350 0.672486 0.119942
v 0.357514 0.741348 0.119942
v 0.487824 0.312729 0.119929
v 0.582615 0.837681 0.071514
v 0.289929 0.327174 0.111334
v 0.332436 0.597561 0.119929
v 0.721797 0.293965 0.105398
v 0.938008 0.875353 0.008834
v 0.435361 0.641942 0.121556
v 0.277169 0.663043 0.099209
v 0.729954 0.551771 0.119941
v 0.617325 0.695856 0.119929
v 0.310464 0.471890 0.119935
v 0.423478 0.323992 0.119929
v 0.360934 0.290206 0.102947
v 0.549958 0.301853 0.119929
v 0.321340 0.534167 0.119929
v 0.417761 0.252347 0.094329
v 0.424857 0.823925 0.082197
v 0.822775 0.481850 0.085221
v 1.000000 0.062500 -0.000000
v 0.371858 0.415755 0.121370
v 0.776396 0.423242 0.097231
v 0.241181 0.516808 0.092970
v 0.613683 0.290664 0.119936
v 1.000000 0.187500 0.000000
v 0.000000 0.812500 -0.000000
v 0.478073 0.771630 0.101698
vt 0.000000 0.000000
vt 1.000000 0.000000
vt 0.000000 1.000000
vt 1.000000 1.000000
vt 0.500000 0.500000
vt 0.000000 0.500000
vt 0.500000 1.000000
vt 1.000000 0.500000
vt 0.500000 0.000000
vt 0.250000 0.750000
vt 0.750000 0.750000
vt 0.250000 0.250000
vt 0.750000 0.250000
vt 0.750000 0.000000
vt 0.250000 0.000000
vt 1.000000 0.750000
vt 1.000000 0.250000
vt 0.250000 1.000000
vt 0.750000 1.000000
vt 0.000000 0.250000
vt 0.000000 0.750000
vt 0.365347 0.220303
vt 0.629073 0.770824
vt 1.000000 0.937500
vt 0.672698 0.676119
vt 0.875000 0.375000
vt 0.625000 0.125000
vt 0.625000 0.375000
vt 0.875000 0.125000
vt 0.375000 0.125000
vt 0.125000 0.125000
vt 0.492214 0.250470
vt 0.875000 0.625000
vt 0.625000 0.625000
vt 0.875000 0.875000
vt 0.375000 0.875000
vt 0.262101 0.599801
vt 0.125000 0.875000
vt 0.125000 0.625000
vt 0.625000 0.875000
vt 0.125000 0.375000
vt 0.250000 0.125000
vt 0.875000 0.750000
vt 0.875000 0.250000
vt 0.250000 0.875000
vt 0.750000 0.875000
vt 0.125000 0.250000
vt 0.125000 0.750000
vt 0.304602 0.713891
vt 0.000000 0.687500
vt 0.549958 0.697584
vt 0.875000 0.500000
vt 0.429730 0.717686
vt 0.248222 0.455442
vt 0.000000 0.375000
vt 0.500000 0.875000
vt 0.500000 0.625000
vt 0.250000 0.375000
vt 0.125000 0.500000
vt 0.375000 0.500000
vt 0.625000 0.250000
vt 0.500000 0.125000
vt 0.500000 0.375000
vt 0.000000 0.625000
vt 0.000000 0.875000
vt 0.000000 0.125000
vt 0.625000 1.000000
vt 0.875000 1.000000
vt 0.125000 1.000000
vt 0.375000 1.000000
vt 1.000000 0.375000
vt 1.000000 0.125000
vt 1.000000 0.875000
vt 1.000000 0.625000
vt 0.375000 0.000000
vt 0.125000 0.000000
vt 0.875000 0.000000
vt 0.625000 0.000000
vt 0.750000 0.125000
vt 0.625000 0.500000
vt 0.708094 0.488463
vt 0.062500 0.312500
vt 0.187500 0.437500
vt 0.187500 0.312500
vt 0.062500 0.437500
vt 0.687500 0.937500
vt 0.687500 0.812500
vt 0.562500 0.937500
vt 0.062500 0.687500
vt 0.187500 0.687500
vt 0.062500 0.562500
vt 0.187500 0.937500
vt 0.187500 0.812500
vt 0.062500 0.937500
vt 0.437500 0.562500
vt 0.875000 0.812500
vt 0.937500 0.000000
vt 0.312500 0.812500
vt 0.437500 0.937500
vt 0.937500 0.812500
vt 0.812500 0.812500
vt 0.937500 0.937500
vt 0.937500 1.000000
vt 0.562500 0.562500
vt 0.697777 0.428264
vt 0.819332 0.591237
vt 0.812500 0.687500
vt 0.937500 0.562500
vt 0.490471 0.707517
vt 0.682510 0.583771
vt 0.437500 0.437500
vt 0.187500 0.062500
vt 0.062500 0.062500
vt 0.187500 0.187500
vt 0.312500 0.062500
vt 0.312500 0.187500
vt 0.437500 0.062500
vt 0.812500 0.062500
vt 0.937500 0.062500
vt 0.000000 0.937500
vt 0.562500 0.437500
vt 0.525016 0.804189
vt 0.562500 0.187500
vt 0.687500 0.187500
vt 0.562500 0.062500
vt 0.937500 0.312500
vt 0.812500 0.312500
vt 0.937500 0.437500
vt 0.312500 0.937500
vt 0.000000 0.062500
vt 0.812500 0.187500
vt 0.800716 0.372483
vt 0.687500 0.062500
vt 0.062500 0.125000
vt 0.937500 0.187500
vt 0.437500 0.187500
vt 0.062500 0.187500
vt 0.062500 1.000000
vt 0.937500 0.687500
vt 0.686969 0.368791
vt 0.062500 0.812500
vt 0.812500 0.937500
vt 0.187500 0.562500
vt 0.363483 0.340571
vt 0.348027 0.652204
vt 0.673201 0.288536
vt 0.297666 0.353083
vt 0.737157 0.664090
vt 0.362430 0.728860
vt 0.486570 0.318954
vt 0.580205 0.830830
vt 0.296906 0.332149
vt 0.337199 0.592416
vt 0.713437 0.300753
vt 0.937500 0.875000
vt 0.436137 0.634590
vt 0.281585 0.657008
vt 0.718162 0.549009
vt 0.610643 0.687016
vt 0.316422 0.471684
vt 0.424836 0.329618
vt 0.364019 0.294291
vt 0.546301 0.308910
vt 0.326580 0.531553
vt 0.418341 0.256674
vt 0.425703 0.815414
vt 0.812755 0.481587
vt 1.000000 0.062500
vt 0.375653 0.417988
vt 0.766844 0.424637
vt 0.245672 0.515386
vt 0.607730 0.298958
vt 1.000000 0.187500
vt 0.000000 0.812500
vt 0.477574 0.762067
vn -0.142725 -0.071363 0.987186
vn 0.084953 -0.084953 0.992757
vn -0.113690 0.113690 0.986990
vn 0.000212 0.000212 1.000000
vn -0.002480 -0.006507 0.999976
vn -0.406740 -0.001132 0.913543
vn -0.008349 0.451179 0.892394
vn 0.429297 0.011881 0.903085
vn 0.014928 -0.392607 0.919585
vn -0.210796 0.155403 0.965099
vn 0.215007 0.285484 0.933954
vn -0.158967 -0.234181 0.959108
vn 0.249063 -0.223588 0.942325
vn 0.000069 -0.333304 0.942820
vn -0.002909 -0.290683 0.956815
vn 0.307365 0.010148 0.951538
vn 0.389639 -0.010500 0.920908
vn 0.000853 0.415528 0.909580
vn 0.035290 0.339078 0.940096
vn -0.375895 0.001235 0.926661
vn -0.386992 -0.001315 0.922082
vn -0.061143 -0.316861 0.946499
vn 0.050318 0.318151 0.946704
vn 0.000424 0.000000 1.000000
vn 0.029841 0.141910 0.989430
vn 0.385486 -0.033963 0.922088
vn 0.026327 -0.395740 0.917985
vn 0.009377 -0.010124 0.999905
vn 0.188708 -0.216882 0.957785
vn -0.041131 -0.332574 0.942180
vn -0.163660 -0.171650 0.971469
vn -0.057900 -0.340156 0.938585
vn 0.439137 0.043671 0.897358
vn 0.005191 0.019186 0.999802
vn 0.214338 0.234326 0.948235
vn -0.030150 0.405186 0.913737
vn -0.289788 0.039602 0.956271
vn -0.205596 0.183793 0.961223
vn -0.358320 0.014215 0.933491
vn 0.024758 0.371315 0.928177
vn -0.372794 -0.025220 0.927571
vn -0.039559 -0.323010 0.945568
vn 0.359371 0.088934 0.928948
vn 0.339118 -0.068768 0.938227
vn -0.059664 0.328003 0.942791
vn 0.107370 0.346215 0.931991
vn -0.304009 -0.059453 0.950812
vn -0.327707 0.036719 0.944066
vn -0.295014 0.120705 0.947838
vn -0.384336 0.000000 0.923193
vn 0.026134 0.165396 0.985881
vn 0.429413 0.014806 0.902987
vn 0.028098 0.201499 0.979086
vn -0.339038 0.038246 0.939995
vn -0.390637 -0.010427 0.920486
vn 0.013666 0.384815 0.922892
vn 0.005018 0.024996 0.999675
vn -0.382795 -0.053672 0.922273
vn -0.361480 0.003232 0.932374
vn -0.022937 0.001761 0.999735
vn -0.043829 -0.401254 0.914918
vn -0.001714 -0.362895 0.931828
vn -0.001534 -0.022875 0.999737
vn -0.393543 0.005282 0.919291
vn -0.306446 0.029414 0.951433
vn -0.338795 -0.011505 0.940790
vn 0.024384 0.431230 0.901912
vn 0.048872 0.097916 0.993994
vn -0.042486 0.308293 0.950342
vn -0.004681 0.428355 0.903598
vn 0.434173 -0.009127 0.900783
vn 0.272924 -0.035077 0.961396
vn 0.130030 0.083910 0.987953
vn 0.367854 0.022510 0.929611
vn -0.035454 -0.361668 0.931632
vn -0.019094 -0.249292 0.968240
vn 0.034472 -0.237032 0.970890
vn 0.010252 -0.352585 0.935724
vn 0.035540 -0.354239 0.934479
vn 0.022460 -0.006127 0.999729
vn 0.170255 -0.030128 0.984939
vn -0.378197 -0.006737 0.925701
vn -0.345103 0.022955 0.938284
vn -0.312837 -0.098635 0.944672
vn -0.390594 0.000093 0.920563
vn 0.040660 0.393161 0.918570
vn 0.091027 0.324582 0.941467
vn 0.003033 0.427882 0.903829
vn -0.382244 0.004642 0.924050
vn -0.292862 0.044485 0.955119
vn -0.389873 0.000648 0.920869
vn -0.053999 0.353016 0.934058
vn -0.191628 0.172059 0.966268
vn -0.143336 0.138357 0.979955
vn -0.016152 0.012995 0.999785
vn 0.288849 0.147445 0.945953
vn 0.000000 -0.168575 0.985689
vn -0.120292 0.330519 0.936102
vn -0.012049 0.431008 0.902268
vn 0.290078 0.087787 0.952968
vn 0.250028 0.225362 0.941646
vn 0.073471 0.072112 0.994687
vn 0.000000 0.000424 1.000000
vn 0.009542 0.018775 0.999778
vn 0.187386 -0.035334 0.981651
vn 0.433705 0.021196 0.900806
vn 0.433558 0.128636 0.891897
vn 0.418472 0.029242 0.907759
vn 0.034815 0.192896 0.980601
vn 0.017845 0.005188 0.999827
vn -0.014216 -0.012766 0.999817
vn -0.025575 -0.309773 0.950467
vn -0.152464 -0.146683 0.977363
vn -0.146995 -0.184942 0.971694
vn -0.026889 -0.350216 0.936283
vn -0.053892 -0.279340 0.958679
vn -0.013650 -0.374527 0.927115
vn 0.030799 -0.314907 0.948623
vn 0.122069 -0.125221 0.984591
vn -0.224302 -0.000000 0.974520
vn 0.009436 -0.018176 0.999790
vn 0.037083 0.351858 0.935319
vn -0.002195 -0.386162 0.922428
vn 0.064782 -0.401455 0.913585
vn 0.019981 -0.366822 0.930076
vn 0.402215 -0.020984 0.915305
vn 0.322269 -0.068163 0.944191
vn 0.428874 -0.004069 0.903355
vn -0.009211 0.410071 0.912007
vn -0.243683 -0.031859 0.969332
vn 0.170868 -0.218086 0.960855
vn 0.333620 -0.050616 0.941348
vn 0.009939 -0.339803 0.940444
vn -0.267364 -0.068467 0.961160
vn 0.348301 -0.045528 0.936276
vn -0.049395 -0.333686 0.941389
vn -0.315543 -0.041727 0.947993
vn 0.000000 0.224691 0.974430
vn 0.372316 0.030972 0.927589
vn 0.153020 -0.030682 0.987747
vn -0.350884 0.040283 0.935552
vn 0.110145 0.282961 0.952786
vn -0.322502 0.004151 0.946560
vn -0.046257 -0.240984 0.969426
vn -0.187742 0.035428 0.981579
vn 0.161394 -0.210503 0.964179
vn -0.323289 -0.318238 0.891184
vn 0.227044 0.163237 0.960107
vn -0.152353 0.187968 0.970287
vn -0.030319 -0.168061 0.985310
vn -0.001015 0.344932 0.938627
vn -0.265763 -0.359661 0.894435
vn -0.176774 0.034576 0.983644
vn 0.349131 -0.104297 0.931252
vn 0.204416 0.156052 0.966365
vn -0.003482 0.019679 0.999800
vn -0.281729 0.062419 0.957462
vn 0.148339 -0.015999 0.988807
vn 0.024879 0.140065 0.989830
vn -0.172648 0.025963 0.984641
vn -0.040037 -0.208476 0.977208
vn -0.073133 -0.343428 0.936327
vn -0.027280 -0.186407 0.982094
vn -0.153672 0.021609 0.987886
vn -0.065526 -0.337965 0.938875
vn 0.004521 0.391405 0.920208
vn 0.373385 -0.020477 0.927450
vn 0.168810 -0.000000 0.985649
vn -0.015206 -0.005766 0.999868
vn 0.315470 -0.060429 0.947009
vn -0.324763 0.025548 0.945450
vn -0.043322 -0.242540 0.969174
vn 0.370049 0.000000 0.929012
vn -0.391871 -0.000000 0.920020
vn 0.051610 0.355718 0.933167
f 129/129/129 99/99/99 70/70/70
f 112/112/112 31/31/31 113/113/113
f 170/170/170 132/132/132 167/167/167
f 26/26/26 167/167/167 132/132/132
f 58/58/58 152/152/152 147/147/147
f 114/114/114 12/12/12 47/47/47
f 173/173/173 17/17/17 135/135/135
f 129/129/129 36/36/36 99/99/99
f 3/3/3 120/120/120 94/94/94
f 152/152/152 12/12/12 162/162/162
f 11/11/11 25/25/25 148/148/148
f 80/80/80 110/110/110 104/104/104
f 115/115/115 112/112/112 15/15/15
f 163/163/163 172/172/172 28/28/28
f 114/114/114 137/137/137 31/31/31
f 76/76/76 112/112/112 113/113/113
f 84/84/84 47/47/47 12/12/12
f 15/15/15 112/112/112 76/76/76
f 115/115/115 15/15/15 75/75/75
f 45/45/45 92/92/92 93/93/93
f 113/113/113 134/134/134 130/130/130
f 16/16/16 100/100/100 139/139/139
f 22/22/22 30/30/30 136/136/136
f 38/38/38 93/93/93 92/92/92
f 16/16/16 73/73/73 100/100/100
f 165/165/165 22/22/22 136/136/136
f 89/89/89 64/64/64 39/39/39
f 83/83/83 58/58/58 54/54/54
f 57/57/57 95/95/95 104/104/104
f 116/116/116 30/30/30 22/22/22
f 42/42/42 112/112/112 115/115/115
f 66/66/66 130/130/130 134/134/134
f 140/140/140 105/105/105 28/28/28
f 155/155/155 100/100/100 73/73/73
f 129/129/129 70/70/70 18/18/18
f 63/63/63 28/28/28 121/121/121
f 165/165/165 162/162/162 22/22/22
f 114/114/114 31/31/31 42/42/42
f 150/150/150 165/165/165 32/32/32
f 37/37/37 153/153/153 157/157/157
f 164/164/164 153/153/153 37/37/37
f 39/39/39 90/90/90 89/89/89
f 123/123/123 32/32/32 62/62/62
f 41/41/41 58/58/58 83/83/83
f 32/32/32 165/165/165 136/136/136
f 161/161/161 144/144/144 162/162/162
f 51/51/51 159/159/159 23/23/23
f 85/85/85 41/41/41 59/59/59
f 78/78/78 125/125/125 9/9/9
f 121/121/121 80/80/80 5/5/5
f 60/60/60 95/95/95 153/153/153
f 147/147/147 144/144/144 169/169/169
f 44/44/44 126/126/126 26/26/26
f 175/175/175 53/53/53 109/109/109
f 162/162/162 165/165/165 161/161/161
f 123/123/123 163/163/163 32/32/32
f 60/60/60 169/169/169 111/111/111
f 63/63/63 121/121/121 111/111/111
f 63/63/63 161/161/161 150/150/150
f 25/25/25 159/159/159 34/34/34
f 81/81/81 170/170/170 167/167/167
f 30/30/30 115/115/115 117/117/117
f 84/84/84 152/152/152 58/58/58
f 51/51/51 109/109/109 57/57/57
f 34/34/34 159/159/159 51/51/51
f 11/11/11 148/148/148 107/107/107
f 5/5/5 104/104/104 95/95/95
f 85/85/85 55/55/55 41/41/41
f 174/174/174 21/21/21 141/141/141
f 29/29/29 119/119/119 135/135/135
f 72/72/72 135/135/135 119/119/119
f 84/84/84 12/12/12 152/152/152
f 84/84/84 58/58/58 41/41/41
f 47/47/47 137/137/137 114/114/114
f 14/14/14 118/118/118 133/133/133
f 55/55/55 82/82/82 41/41/41
f 65/65/65 174/174/174 141/141/141
f 20/20/20 66/66/66 137/137/137
f 55/55/55 20/20/20 82/82/82
f 59/59/59 91/91/91 85/85/85
f 35/35/35 96/96/96 155/155/155
f 6/6/6 85/85/85 91/91/91
f 94/94/94 138/138/138 3/3/3
f 41/41/41 82/82/82 84/84/84
f 48/48/48 89/89/89 90/90/90
f 89/89/89 48/48/48 21/21/21
f 92/92/92 18/18/18 69/69/69
f 94/94/94 69/69/69 138/138/138
f 59/59/59 83/83/83 143/143/143
f 167/167/167 106/106/106 158/158/158
f 171/171/171 143/143/143 83/83/83
f 106/106/106 167/167/167 52/52/52
f 157/157/157 90/90/90 37/37/37
f 117/117/117 9/9/9 62/62/62
f 38/38/38 92/92/92 94/94/94
f 81/81/81 167/167/167 158/158/158
f 98/98/98 166/166/166 36/36/36
f 164/164/164 171/171/171 160/160/160
f 45/45/45 10/10/10 98/98/98
f 156/156/156 145/145/145 153/153/153
f 162/162/162 12/12/12 22/22/22
f 116/116/116 22/22/22 12/12/12
f 118/118/118 29/29/29 79/79/79
f 147/147/147 160/160/160 58/58/58
f 91/91/91 39/39/39 64/64/64
f 131/131/131 79/79/79 29/29/29
f 26/26/26 128/128/128 52/52/52
f 23/23/23 11/11/11 87/87/87
f 97/97/97 119/119/119 77/77/77
f 145/145/145 53/53/53 149/149/149
f 47/47/47 84/84/84 82/82/82
f 48/48/48 38/38/38 141/141/141
f 168/168/168 72/72/72 119/119/119
f 169/169/169 60/60/60 160/160/160
f 56/56/56 88/88/88 99/99/99
f 7/7/7 99/99/99 88/88/88
f 164/164/164 160/160/160 60/60/60
f 122/122/122 175/175/175 51/51/51
f 136/136/136 62/62/62 32/32/32
f 93/93/93 38/38/38 48/48/48
f 23/23/23 25/25/25 11/11/11
f 93/93/93 10/10/10 45/45/45
f 48/48/48 90/90/90 93/93/93
f 25/25/25 23/23/23 159/159/159
f 59/59/59 39/39/39 91/91/91
f 143/143/143 39/39/39 59/59/59
f 54/54/54 58/58/58 160/160/160
f 109/109/109 51/51/51 175/175/175
f 6/6/6 91/91/91 64/64/64
f 63/63/63 111/111/111 161/161/161
f 135/135/135 44/44/44 29/29/29
f 6/6/6 55/55/55 85/85/85
f 154/154/154 127/127/127 132/132/132
f 155/155/155 102/102/102 35/35/35
f 143/143/143 90/90/90 39/39/39
f 102/102/102 155/155/155 73/73/73
f 75/75/75 117/117/117 115/115/115
f 142/142/142 19/19/19 46/46/46
f 43/43/43 101/101/101 107/107/107
f 111/111/111 169/169/169 161/161/161
f 100/100/100 155/155/155 96/96/96
f 11/11/11 107/107/107 101/101/101
f 43/43/43 33/33/33 139/139/139
f 150/150/150 161/161/161 165/165/165
f 125/125/125 27/27/27 62/62/62
f 72/72/72 173/173/173 135/135/135
f 37/37/37 90/90/90 143/143/143
f 37/37/37 143/143/143 171/171/171
f 97/97/97 2/2/2 119/119/119
f 157/157/157 10/10/10 90/90/90
f 49/49/49 98/98/98 10/10/10
f 49/49/49 10/10/10 157/157/157
f 145/145/145 157/157/157 153/153/153
f 34/34/34 51/51/51 57/57/57
f 119/119/119 29/29/29 118/118/118
f 145/145/145 49/49/49 157/157/157
f 105/105/105 170/170/170 81/81/81
f 110/110/110 80/80/80 158/158/158
f 156/156/156 57/57/57 109/109/109
f 156/156/156 53/53/53 145/145/145
f 149/149/149 166/166/166 98/98/98
f 149/149/149 98/98/98 49/49/49
f 123/123/123 62/62/62 27/27/27
f 5/5/5 95/95/95 111/111/111
f 95/95/95 57/57/57 156/156/156
f 163/163/163 150/150/150 32/32/32
f 60/60/60 111/111/111 95/95/95
f 166/166/166 56/56/56 36/36/36
f 56/56/56 99/99/99 36/36/36
f 146/146/146 172/172/172 61/61/61
f 34/34/34 57/57/57 104/104/104
f 21/21/21 50/50/50 89/89/89
f 9/9/9 117/117/117 75/75/75
f 78/78/78 133/133/133 125/125/125
f 144/144/144 152/152/152 162/162/162
f 95/95/95 156/156/156 153/153/153
f 92/92/92 45/45/45 18/18/18
f 88/88/88 151/151/151 40/40/40
f 83/83/83 54/54/54 171/171/171
f 96/96/96 43/43/43 100/100/100
f 37/37/37 171/171/171 164/164/164
f 77/77/77 119/119/119 118/118/118
f 120/120/120 65/65/65 94/94/94
f 122/122/122 23/23/23 151/151/151
f 169/169/169 144/144/144 161/161/161
f 129/129/129 18/18/18 45/45/45
f 94/94/94 65/65/65 38/38/38
f 112/112/112 42/42/42 31/31/31
f 63/63/63 163/163/163 28/28/28
f 163/163/163 63/63/63 150/150/150
f 167/167/167 26/26/26 52/52/52
f 130/130/130 1/1/1 113/113/113
f 13/13/13 131/131/131 127/127/127
f 154/154/154 132/132/132 140/140/140
f 80/80/80 104/104/104 5/5/5
f 27/27/27 124/124/124 123/123/123
f 147/147/147 152/152/152 144/144/144
f 110/110/110 25/25/25 34/34/34
f 86/86/86 46/46/46 19/19/19
f 87/87/87 11/11/11 46/46/46
f 81/81/81 158/158/158 80/80/80
f 61/61/61 123/123/123 124/124/124
f 33/33/33 52/52/52 108/108/108
f 124/124/124 27/27/27 79/79/79
f 139/139/139 33/33/33 108/108/108
f 136/136/136 30/30/30 62/62/62
f 33/33/33 106/106/106 52/52/52
f 40/40/40 87/87/87 86/86/86
f 133/133/133 79/79/79 27/27/27
f 103/103/103 68/68/68 102/102/102
f 107/107/107 106/106/106 33/33/33
f 117/117/117 62/62/62 30/30/30
f 148/148/148 25/25/25 110/110/110
f 148/148/148 110/110/110 158/158/158
f 148/148/148 106/106/106 107/107/107
f 43/43/43 139/139/139 100/100/100
f 124/124/124 146/146/146 61/61/61
f 140/140/140 170/170/170 105/105/105
f 50/50/50 64/64/64 89/89/89
f 54/54/54 160/160/160 171/171/171
f 154/154/154 140/140/140 146/146/146
f 140/140/140 132/132/132 170/170/170
f 115/115/115 30/30/30 42/42/42
f 74/74/74 139/139/139 108/108/108
f 4/4/4 103/103/103 102/102/102
f 7/7/7 70/70/70 99/99/99
f 116/116/116 42/42/42 30/30/30
f 151/151/151 23/23/23 40/40/40
f 68/68/68 142/142/142 102/102/102
f 88/88/88 40/40/40 67/67/67
f 142/142/142 35/35/35 102/102/102
f 88/88/88 56/56/56 151/151/151
f 31/31/31 134/134/134 113/113/113
f 86/86/86 67/67/67 40/40/40
f 69/69/69 94/94/94 92/92/92
f 56/56/56 166/166/166 122/122/122
f 148/148/148 158/158/158 106/106/106
f 44/44/44 127/127/127 131/131/131
f 105/105/105 81/81/81 80/80/80
f 141/141/141 38/38/38 65/65/65
f 56/56/56 122/122/122 151/151/151
f 122/122/122 51/51/51 23/23/23
f 79/79/79 131/131/131 124/124/124
f 13/13/13 124/124/124 131/131/131
f 2/2/2 168/168/168 119/119/119
f 125/125/125 62/62/62 9/9/9
f 36/36/36 129/129/129 98/98/98
f 45/45/45 98/98/98 129/129/129
f 67/67/67 7/7/7 88/88/88
f 19/19/19 67/67/67 86/86/86
f 68/68/68 19/19/19 142/142/142
f 87/87/87 40/40/40 23/23/23
f 42/42/42 116/116/116 114/114/114
f 24/24/24 4/4/4 102/102/102
f 73/73/73 24/24/24 102/102/102
f 141/141/141 21/21/21 48/48/48
f 74/74/74 16/16/16 139/139/139
f 8/8/8 74/74/74 108/108/108
f 101/101/101 46/46/46 11/11/11
f 8/8/8 108/108/108 128/128/128
f 76/76/76 113/113/113 1/1/1
f 146/146/146 28/28/28 172/172/172
f 96/96/96 35/35/35 101/101/101
f 107/107/107 33/33/33 43/43/43
f 52/52/52 128/128/128 108/108/108
f 128/128/128 71/71/71 8/8/8
f 46/46/46 86/86/86 87/87/87
f 149/149/149 49/49/49 145/145/145
f 126/126/126 17/17/17 71/71/71
f 127/127/127 44/44/44 26/26/26
f 26/26/26 126/126/126 128/128/128
f 123/123/123 61/61/61 163/163/163
f 71/71/71 128/128/128 126/126/126
f 132/132/132 127/127/127 26/26/26
f 17/17/17 126/126/126 135/135/135
f 10/10/10 93/93/93 90/90/90
f 124/124/124 13/13/13 146/146/146
f 43/43/43 96/96/96 101/101/101
f 27/27/27 125/125/125 133/133/133
f 83/83/83 59/59/59 41/41/41
f 29/29/29 44/44/44 131/131/131
f 12/12/12 114/114/114 116/116/116
f 66/66/66 134/134/134 137/137/137
f 44/44/44 135/135/135 126/126/126
f 79/79/79 133/133/133 118/118/118
f 160/160/160 147/147/147 169/169/169
f 34/34/34 104/104/104 110/110/110
f 172/172/172 163/163/163 61/61/61
f 134/134/134 31/31/31 137/137/137
f 77/77/77 118/118/118 14/14/14
f 60/60/60 153/153/153 164/164/164
f 82/82/82 20/20/20 47/47/47
f 154/154/154 146/146/146 13/13/13
f 14/14/14 133/133/133 78/78/78
f 149/149/149 53/53/53 166/166/166
f 154/154/154 13/13/13 127/127/127
f 137/137/137 47/47/47 20/20/20
f 121/121/121 28/28/28 80/80/80
f 28/28/28 105/105/105 80/80/80
f 121/121/121 5/5/5 111/111/111
f 109/109/109 53/53/53 156/156/156
f 140/140/140 28/28/28 146/146/146
f 53/53/53 175/175/175 166/166/166
f 175/175/175 122/122/122 166/166/166
f 101/101/101 35/35/35 46/46/46
f 142/142/142 46/46/46 35/35/35
