# frame 000569 
# time 0.285000 
# name Cloth3D 
v -0.000000 0.000000 -0.000000
v 1.000000 0.000000 -0.000000
v -0.000000 1.000000 0.000000
v 1.000000 1.000000 0.000000
v 0.501877 0.501043 0.119657
v -0.000000 0.500000 0.000000
v 0.500000 1.000000 0.000000
v 1.000000 0.500000 0.000000
v 0.500000 -0.000000 0.000000
v 0.245196 0.756583 0.082419
v 0.757420 0.755800 0.082045
v 0.246001 0.245979 0.077347
v 0.756961 0.244440 0.083379
v 0.750000 0.000000 0.000000
v 0.250000 0.000000 0.000000
v 1.000000 0.750000 0.000000
v 1.000000 0.250000 0.000000
v 0.250000 1.000000 0.000000
v 0.750000 1.000000 0.000000
v 0.000000 0.250000 0.000000
v 0.000000 0.750000 -0.000000
v 0.363951 0.215710 0.081158
v 0.633587 0.777808 0.089939
v 1.000000 0.937500 0.000000
v 0.683159 0.688025 0.119929
v 0.881118 0.373831 0.054894
v 0.626869 0.123914 0.043527
v 0.632015 0.370104 0.120717
v 0.878004 0.122460 0.030409
v 0.374902 0.121694 0.048263
v 0.121953 0.122109 0.035616
v 0.493673 0.245303 0.095413
v 0.878729 0.626750 0.049876
v 0.632578 0.631393 0.121296
v 0.875935 0.875519 0.016867
v 0.374129 0.878753 0.050198
v 0.256888 0.603557 0.097324
v 0.121824 0.878590 0.035205
v 0.121072 0.626713 0.050221
v 0.626831 0.880939 0.054604
v 0.121095 0.374336 0.050402
v 0.248469 0.121293 0.045223
v 0.879138 0.752048 0.042040
v 0.880373 0.247902 0.047632
v 0.247522 0.881700 0.052615
v 0.752159 0.878466 0.040976
v 0.121913 0.248361 0.043728
v 0.121344 0.752831 0.045380
v 0.299929 0.721982 0.102507
v 0.000000 0.687500 -0.000000
v 0.553658 0.707040 0.119929
v 0.880489 0.500480 0.055121
v 0.427476 0.725555 0.119938
v 0.242710 0.454848 0.095952
v 0.000000 0.375000 0.000000
v 0.500496 0.880400 0.055286
v 0.501783 0.631400 0.119865
v 0.243352 0.372055 0.098563
v 0.121555 0.500453 0.050564
v 0.371342 0.500974 0.120830
v 0.630592 0.243398 0.098720
v 0.501119 0.121010 0.052075
v 0.501661 0.370759 0.119994
v 0.000000 0.625000 0.000000
v 0.000000 0.875000 0.000000
v 0.000000 0.125000 0.000000
v 0.625000 1.000000 0.000000
v 0.875000 1.000000 0.000000
v 0.125000 1.000000 0.000000
v 0.375000 1.000000 0.000000
v 1.000000 0.375000 0.000000
v 1.000000 0.125000 0.000000
v 1.000000 0.875000 0.000000
v 1.000000 0.625000 0.000000
v 0.375000 0.000000 0.000000
v 0.125000 0.000000 0.000000
v 0.875000 0.000000 0.000000
v 0.625000 0.000000 0.000000
v 0.752430 0.123217 0.039286
v 0.632312 0.501025 0.119908
v 0.718883 0.488813 0.119929
v 0.061426 0.312148 0.022134
v 0.182964 0.436941 0.073983
v 0.183310 0.310467 0.067991
v 0.060676 0.437557 0.025542
v 0.688168 0.940305 0.025770
v 0.691639 0.818608 0.071159
v 0.562975 0.939520 0.026032
v 0.060756 0.688485 0.023859
v 0.182896 0.691258 0.069330
v 0.059599 0.563031 0.027996
v 0.186305 0.941055 0.025116
v 0.183202 0.817962 0.058695
v 0.061934 0.938328 0.009222
v 0.436672 0.566244 0.119783
v 0.877537 0.814182 0.030961
v 0.937500 0.000000 -0.000000
v 0.309689 0.819794 0.075305
v 0.437499 0.939128 0.025278
v 0.938144 0.812784 0.013062
v 0.816155 0.815680 0.047315
v 0.937122 0.936983 -0.005490
v 0.937500 1.000000 0.000000
v 0.567223 0.566255 0.119705
v 0.709604 0.425627 0.119929
v 0.827467 0.594102 0.079226
v 0.821462 0.692080 0.077922
v 0.939060 0.562904 0.024974
v 0.491365 0.716164 0.119934
v 0.692843 0.588500 0.119884
v 0.436441 0.435899 0.119712
v 0.186562 0.060237 0.022620
v 0.061074 0.061372 0.014498
v 0.183806 0.183662 0.056457
v 0.312324 0.061558 0.021601
v 0.310823 0.183276 0.066913
v 0.437815 0.059219 0.028911
v 0.813441 0.061558 0.017441
v 0.937770 0.062316 0.005295
v -0.000000 0.937500 0.000000
v 0.567044 0.435756 0.119933
v 0.526209 0.810306 0.079500
v 0.565107 0.183682 0.072419
v 0.691629 0.183245 0.068816
v 0.563098 0.062374 0.021320
v 0.941293 0.311849 0.028154
v 0.820142 0.309330 0.075460
v 0.940865 0.437411 0.028838
v 0.311840 0.940349 0.026650
v -0.000000 0.062500 -0.000000
v 0.817503 0.183660 0.054821
v 0.807834 0.370242 0.080371
v 0.688300 0.062873 0.017758
v 0.059101 0.123534 0.024442
v 0.939803 0.186597 0.020928
v 0.437790 0.183086 0.072634
v 0.059584 0.186533 0.024573
v 0.062500 1.000000 0.000000
v 0.938298 0.687923 0.020343
v 0.699801 0.363019 0.119929
v 0.060104 0.813979 0.022594
v 0.812560 0.937452 0.011149
v 0.181974 0.564251 0.075845
v 0.358245 0.331759 0.119929
v 0.340078 0.660244 0.119929
v 0.688772 0.283131 0.119942
v 0.293209 0.341214 0.119942
v 0.746793 0.678786 0.119942
v 0.351214 0.736791 0.119942
v 0.487539 0.312773 0.119929
v 0.582283 0.836503 0.069127
v 0.289584 0.326494 0.112528
v 0.330846 0.597368 0.119929
v 0.721215 0.293611 0.105228
v 0.936970 0.874289 0.000733
v 0.435059 0.641562 0.120051
v 0.276140 0.662882 0.101923
v 0.727939 0.552263 0.119941
v 0.617428 0.697677 0.119929
v 0.312336 0.471132 0.119935
v 0.422936 0.322259 0.119929
v 0.360630 0.289398 0.104515
v 0.549923 0.303614 0.119929
v 0.321495 0.533679 0.119929
v 0.417514 0.251593 0.095645
v 0.424792 0.821996 0.077953
v 0.820566 0.481791 0.080685
v 1.000000 0.062500 -0.000000
v 0.371650 0.415506 0.120252
v 0.775631 0.423049 0.096552
v 0.240018 0.516521 0.095324
v 0.614088 0.294158 0.119936
v 1.000000 0.187500 0.000000
v 0.000000 0.812500 -0.000000
v 0.477811 0.770139 0.098423
v 0.557756 0.242769 0.096637
v 0.302963 0.407452 0.119938
v 0.123828 0.939465 0.017611
v 0.737267 0.614863 0.119941
vt 0.000000 0.000000
vt 1.000000 0.000000
vt 0.000000 1.000000
vt 1.000000 1.000000
vt 0.500000 0.500000
vt 0.000000 0.500000
vt 0.500000 1.000000
vt 1.000000 0.500000
vt 0.500000 0.000000
vt 0.250000 0.750000
vt 0.750000 0.750000
vt 0.250000 0.250000
vt 0.750000 0.250000
vt 0.750000 0.000000
vt 0.250000 0.000000
vt 1.000000 0.750000
vt 1.000000 0.250000
vt 0.250000 1.000000
vt 0.750000 1.000000
vt 0.000000 0.250000
vt 0.000000 0.750000
vt 0.365347 0.220303
vt 0.629073 0.770824
vt 1.000000 0.937500
vt 0.673237 0.679295
vt 0.875000 0.375000
vt 0.625000 0.125000
vt 0.625000 0.375000
vt 0.875000 0.125000
vt 0.375000 0.125000
vt 0.125000 0.125000
vt 0.492214 0.250470
vt 0.875000 0.625000
vt 0.625000 0.625000
vt 0.875000 0.875000
vt 0.375000 0.875000
vt 0.262101 0.599801
vt 0.125000 0.875000
vt 0.125000 0.625000
vt 0.625000 0.875000
vt 0.125000 0.375000
vt 0.250000 0.125000
vt 0.875000 0.750000
vt 0.875000 0.250000
vt 0.250000 0.875000
vt 0.750000 0.875000
vt 0.125000 0.250000
vt 0.125000 0.750000
vt 0.304602 0.713891
vt 0.000000 0.687500
vt 0.549989 0.697786
vt 0.875000 0.500000
vt 0.429283 0.714796
vt 0.248222 0.455442
vt 0.000000 0.375000
vt 0.500000 0.875000
vt 0.500000 0.625000
vt 0.250000 0.375000
vt 0.125000 0.500000
vt 0.375000 0.500000
vt 0.625000 0.250000
vt 0.500000 0.125000
vt 0.500000 0.375000
vt 0.000000 0.625000
vt 0.000000 0.875000
vt 0.000000 0.125000
vt 0.625000 1.000000
vt 0.875000 1.000000
vt 0.125000 1.000000
vt 0.375000 1.000000
vt 1.000000 0.375000
vt 1.000000 0.125000
vt 1.000000 0.875000
vt 1.000000 0.625000
vt 0.375000 0.000000
vt 0.125000 0.000000
vt 0.875000 0.000000
vt 0.625000 0.000000
vt 0.750000 0.125000
vt 0.625000 0.500000
vt 0.708196 0.488449
vt 0.062500 0.312500
vt 0.187500 0.437500
vt 0.187500 0.312500
vt 0.062500 0.437500
vt 0.687500 0.937500
vt 0.687500 0.812500
vt 0.562500 0.937500
vt 0.062500 0.687500
vt 0.187500 0.687500
vt 0.062500 0.562500
vt 0.187500 0.937500
vt 0.187500 0.812500
vt 0.062500 0.937500
vt 0.437500 0.562500
vt 0.875000 0.812500
vt 0.937500 0.000000
vt 0.312500 0.812500
vt 0.437500 0.937500
vt 0.937500 0.812500
vt 0.812500 0.812500
vt 0.937500 0.937500
vt 0.937500 1.000000
vt 0.562500 0.562500
vt 0.699492 0.427984
vt 0.819332 0.591237
vt 0.812500 0.687500
vt 0.937500 0.562500
vt 0.490268 0.706215
vt 0.682510 0.583771
vt 0.437500 0.437500
vt 0.187500 0.062500
vt 0.062500 0.062500
vt 0.187500 0.187500
vt 0.312500 0.062500
vt 0.312500 0.187500
vt 0.437500 0.062500
vt 0.812500 0.062500
vt 0.937500 0.062500
vt 0.000000 0.937500
vt 0.562500 0.437500
vt 0.525016 0.804189
vt 0.562500 0.187500
vt 0.687500 0.187500
vt 0.562500 0.062500
vt 0.937500 0.312500
vt 0.812500 0.312500
vt 0.937500 0.437500
vt 0.312500 0.937500
vt 0.000000 0.062500
vt 0.812500 0.187500
vt 0.800716 0.372483
vt 0.687500 0.062500
vt 0.062500 0.125000
vt 0.937500 0.187500
vt 0.437500 0.187500
vt 0.062500 0.187500
vt 0.062500 1.000000
vt 0.937500 0.687500
vt 0.690264 0.368249
vt 0.062500 0.812500
vt 0.812500 0.937500
vt 0.187500 0.562500
vt 0.362983 0.337646
vt 0.345178 0.652691
vt 0.679307 0.293209
vt 0.301777 0.347401
vt 0.732856 0.669518
vt 0.356652 0.724795
vt 0.486626 0.319313
vt 0.580205 0.830830
vt 0.296906 0.332149
vt 0.336085 0.592600
vt 0.713437 0.300753
vt 0.937500 0.875000
vt 0.436137 0.634590
vt 0.281585 0.657008
vt 0.716534 0.549258
vt 0.610925 0.688744
vt 0.318660 0.471343
vt 0.424628 0.328339
vt 0.364019 0.294291
vt 0.546605 0.310898
vt 0.327166 0.531460
vt 0.418341 0.256674
vt 0.425703 0.815414
vt 0.812755 0.481587
vt 1.000000 0.062500
vt 0.375653 0.417988
vt 0.766844 0.424637
vt 0.245672 0.515386
vt 0.608243 0.302423
vt 1.000000 0.187500
vt 0.000000 0.812500
vt 0.477574 0.762067
vt 0.554454 0.248535
vt 0.310186 0.410233
vt 0.125000 0.937500
vt 0.724593 0.609001
vn -0.155646 -0.077823 0.984743
vn 0.045831 -0.045831 0.997897
vn -0.078155 0.078155 0.993873
vn -0.040532 -0.040532 0.998356
vn -0.000397 0.000628 1.000000
vn -0.407973 -0.010099 0.912938
vn -0.003742 0.393594 0.919277
vn 0.410981 0.016601 0.911493
vn 0.031621 -0.384469 0.922596
vn -0.222895 0.171120 0.959706
vn 0.232532 0.332860 0.913856
vn -0.182599 -0.219528 0.958366
vn 0.260034 -0.250221 0.932616
vn -0.000209 -0.277302 0.960783
vn 0.005479 -0.335710 0.941949
vn 0.296504 0.025439 0.954693
vn 0.368512 -0.021597 0.929372
vn -0.003912 0.402853 0.915256
vn 0.056792 0.289743 0.955418
vn -0.351546 0.010798 0.936108
vn -0.362352 0.001856 0.932039
vn -0.060380 -0.314005 0.947500
vn 0.054725 0.333943 0.941004
vn -0.081018 0.000000 0.996713
vn 0.035612 0.166223 0.985445
vn 0.368524 -0.020777 0.929386
vn 0.037688 -0.391226 0.919523
vn 0.003291 -0.002075 0.999992
vn 0.178637 -0.212265 0.960746
vn -0.039601 -0.340434 0.939434
vn -0.148812 -0.158191 0.976130
vn -0.029012 -0.349212 0.936595
vn 0.450239 0.032562 0.892314
vn 0.006264 0.002416 0.999977
vn 0.223916 0.215256 0.950540
vn -0.012929 0.396031 0.918146
vn -0.297000 0.032830 0.954313
vn -0.186539 0.203583 0.961123
vn -0.360064 0.040739 0.932038
vn 0.005213 0.369809 0.929093
vn -0.361176 -0.026536 0.932120
vn -0.040270 -0.310135 0.949839
vn 0.327292 0.146864 0.933441
vn 0.322429 -0.107487 0.940471
vn -0.068108 0.323325 0.943834
vn 0.149182 0.321507 0.935082
vn -0.307614 -0.043896 0.950498
vn -0.317264 0.044319 0.947301
vn -0.295288 0.146766 0.944068
vn -0.367386 0.000000 0.930069
vn 0.021701 0.181645 0.983125
vn 0.414134 0.014020 0.910108
vn 0.027279 0.209582 0.977411
vn -0.340524 0.015398 0.940110
vn -0.365196 -0.013669 0.930830
vn 0.011032 0.386640 0.922165
vn -0.000589 -0.002015 0.999998
vn -0.385084 -0.027540 0.922471
vn -0.360265 -0.017820 0.932680
vn -0.005835 0.000571 0.999983
vn -0.024551 -0.409333 0.912055
vn 0.025682 -0.360369 0.932456
vn -0.002161 0.000420 0.999998
vn -0.386380 0.012727 0.922252
vn -0.266915 0.034658 0.963097
vn -0.382879 0.000774 0.923798
vn 0.001745 0.397252 0.917708
vn 0.052643 0.023443 0.998338
vn -0.071962 0.264530 0.961689
vn 0.006355 0.398268 0.917247
vn 0.436201 -0.002392 0.899846
vn 0.214748 -0.041343 0.975794
vn 0.018670 0.084761 0.996226
vn 0.347289 0.018701 0.937572
vn -0.031720 -0.383706 0.922910
vn -0.030443 -0.289757 0.956616
vn 0.038344 -0.167806 0.985074
vn 0.013272 -0.302081 0.953190
vn 0.047388 -0.345479 0.937229
vn -0.001202 0.001751 0.999998
vn 0.171545 -0.022518 0.984919
vn -0.364818 -0.018438 0.930896
vn -0.356082 -0.001121 0.934454
vn -0.325756 -0.088021 0.941348
vn -0.382284 -0.011885 0.923968
vn 0.055914 0.374429 0.925568
vn 0.117058 0.317709 0.940935
vn -0.000092 0.407444 0.913230
vn -0.364739 0.011879 0.931034
vn -0.315190 0.060686 0.947086
vn -0.389796 0.006336 0.920880
vn -0.078049 0.328261 0.941357
vn -0.213443 0.164560 0.962996
vn -0.122456 0.145183 0.981798
vn 0.003506 -0.001342 0.999993
vn 0.268347 0.191897 0.944016
vn 0.000000 -0.091405 0.995814
vn -0.094959 0.339153 0.935926
vn -0.009355 0.404641 0.914428
vn 0.238208 0.145536 0.960248
vn 0.240227 0.245276 0.939218
vn 0.035396 0.026019 0.999035
vn 0.000000 -0.080843 0.996727
vn -0.003093 -0.007252 0.999969
vn 0.193582 -0.028817 0.980661
vn 0.445811 0.013767 0.895021
vn 0.424451 0.155909 0.891927
vn 0.400901 0.029411 0.915649
vn 0.031506 0.208775 0.977456
vn 0.004935 -0.002203 0.999985
vn 0.007059 -0.000899 0.999975
vn -0.030807 -0.316437 0.948113
vn -0.156658 -0.167182 0.973401
vn -0.165787 -0.165936 0.972101
vn -0.018793 -0.359229 0.933060
vn -0.063297 -0.289557 0.955066
vn -0.007299 -0.382178 0.924060
vn 0.038891 -0.277404 0.959966
vn 0.088590 -0.093328 0.991686
vn -0.155096 -0.000000 0.987899
vn -0.004338 0.005009 0.999978
vn 0.028582 0.353265 0.935087
vn 0.008311 -0.377771 0.925862
vn 0.067572 -0.409921 0.909615
vn 0.040917 -0.363662 0.930632
vn 0.398286 -0.031584 0.916718
vn 0.313567 -0.068262 0.947109
vn 0.420133 0.007123 0.907434
vn 0.007339 0.394620 0.918815
vn -0.271083 -0.040627 0.961698
vn 0.179489 -0.239748 0.954099
vn 0.333192 -0.037619 0.942108
vn 0.013589 -0.318751 0.947741
vn -0.262933 -0.060626 0.962907
vn 0.311616 -0.060145 0.948303
vn -0.026256 -0.332137 0.942866
vn -0.308367 -0.003845 0.951260
vn 0.000000 0.155632 0.987815
vn 0.367183 0.017995 0.929975
vn 0.174093 -0.033934 0.984144
vn -0.325710 0.033939 0.944860
vn 0.109413 0.234122 0.966031
vn -0.329153 0.009780 0.944226
vn -0.041513 -0.233490 0.971473
vn -0.177609 0.038154 0.983361
vn 0.238726 -0.177300 0.954764
vn -0.288312 -0.289221 0.912813
vn 0.199977 0.167532 0.965372
vn -0.188561 0.185608 0.964362
vn -0.020988 -0.159844 0.986919
vn -0.004440 0.344005 0.938957
vn -0.282875 -0.347793 0.893880
vn -0.168854 0.023099 0.985370
vn 0.401114 -0.083787 0.912188
vn 0.142296 0.151978 0.978087
vn 0.000367 -0.001228 0.999999
vn -0.285443 0.063830 0.956268
vn 0.136305 -0.017444 0.990513
vn 0.025032 0.167567 0.985543
vn -0.159745 0.016900 0.987014
vn -0.032840 -0.195453 0.980163
vn -0.068374 -0.333162 0.940387
vn -0.029986 -0.215996 0.975934
vn -0.146549 0.020684 0.988987
vn -0.045604 -0.322900 0.945334
vn 0.001206 0.401188 0.915995
vn 0.377879 -0.020388 0.925631
vn 0.091537 -0.000000 0.995802
vn -0.000006 -0.003684 0.999993
vn 0.352847 -0.050747 0.934304
vn -0.318594 0.012328 0.947811
vn -0.028342 -0.244792 0.969161
vn 0.332004 0.000000 0.943278
vn -0.357079 -0.000000 0.934074
vn 0.046245 0.385991 0.921343
vn -0.032218 -0.372585 0.927438
vn -0.187463 0.023062 0.982001
vn -0.125960 0.281677 0.951206
vn 0.145848 -0.021481 0.989074
f 129/129/129 99/99/99 70/70/70
f 112/112/112 31/31/31 113/113/113
f 170/170/170 132/132/132 167/167/167
f 26/26/26 167/167/167 132/132/132
f 58/58/58 152/152/152 147/147/147
f 160/160/160 54/54/54 177/177/177
f 173/173/173 17/17/17 135/135/135
f 129/129/129 36/36/36 99/99/99
f 3/3/3 120/120/120 94/94/94
f 152/152/152 12/12/12 162/162/162
f 11/11/11 25/25/25 148/148/148
f 80/80/80 110/110/110 104/104/104
f 115/115/115 112/112/112 15/15/15
f 163/163/163 172/172/172 28/28/28
f 114/114/114 137/137/137 31/31/31
f 76/76/76 112/112/112 113/113/113
f 58/58/58 177/177/177 54/54/54
f 15/15/15 112/112/112 76/76/76
f 115/115/115 15/15/15 75/75/75
f 45/45/45 92/92/92 93/93/93
f 113/113/113 134/134/134 130/130/130
f 148/148/148 25/25/25 179/179/179
f 22/22/22 30/30/30 136/136/136
f 38/38/38 93/93/93 92/92/92
f 16/16/16 73/73/73 100/100/100
f 165/165/165 22/22/22 136/136/136
f 89/89/89 64/64/64 39/39/39
f 83/83/83 58/58/58 54/54/54
f 57/57/57 95/95/95 104/104/104
f 116/116/116 30/30/30 22/22/22
f 42/42/42 112/112/112 115/115/115
f 66/66/66 130/130/130 134/134/134
f 140/140/140 105/105/105 28/28/28
f 155/155/155 100/100/100 73/73/73
f 129/129/129 70/70/70 18/18/18
f 63/63/63 28/28/28 121/121/121
f 165/165/165 162/162/162 22/22/22
f 114/114/114 31/31/31 42/42/42
f 150/150/150 165/165/165 32/32/32
f 37/37/37 153/153/153 157/157/157
f 164/164/164 153/153/153 37/37/37
f 39/39/39 90/90/90 89/89/89
f 61/61/61 172/172/172 176/176/176
f 139/139/139 16/16/16 43/43/43
f 32/32/32 165/165/165 136/136/136
f 161/161/161 144/144/144 162/162/162
f 51/51/51 159/159/159 23/23/23
f 142/142/142 46/46/46 35/35/35
f 78/78/78 125/125/125 9/9/9
f 121/121/121 80/80/80 5/5/5
f 60/60/60 95/95/95 153/153/153
f 169/169/169 177/177/177 144/144/144
f 9/9/9 125/125/125 117/117/117
f 175/175/175 53/53/53 109/109/109
f 162/162/162 165/165/165 161/161/161
f 126/126/126 44/44/44 17/17/17
f 60/60/60 169/169/169 111/111/111
f 178/178/178 92/92/92 69/69/69
f 63/63/63 161/161/161 150/150/150
f 25/25/25 159/159/159 34/34/34
f 81/81/81 170/170/170 167/167/167
f 30/30/30 115/115/115 117/117/117
f 84/84/84 152/152/152 58/58/58
f 51/51/51 109/109/109 57/57/57
f 34/34/34 159/159/159 51/51/51
f 11/11/11 148/148/148 107/107/107
f 5/5/5 104/104/104 95/95/95
f 47/47/47 114/114/114 84/84/84
f 174/174/174 21/21/21 141/141/141
f 29/29/29 119/119/119 135/135/135
f 72/72/72 135/135/135 119/119/119
f 84/84/84 12/12/12 152/152/152
f 100/100/100 43/43/43 16/16/16
f 47/47/47 137/137/137 114/114/114
f 14/14/14 118/118/118 133/133/133
f 12/12/12 84/84/84 114/114/114
f 65/65/65 174/174/174 141/141/141
f 20/20/20 66/66/66 137/137/137
f 55/55/55 20/20/20 82/82/82
f 59/59/59 91/91/91 85/85/85
f 35/35/35 96/96/96 155/155/155
f 6/6/6 85/85/85 91/91/91
f 94/94/94 138/138/138 3/3/3
f 58/58/58 83/83/83 84/84/84
f 48/48/48 89/89/89 90/90/90
f 55/55/55 82/82/82 85/85/85
f 92/92/92 18/18/18 69/69/69
f 94/94/94 69/69/69 138/138/138
f 59/59/59 85/85/85 83/83/83
f 167/167/167 106/106/106 158/158/158
f 41/41/41 83/83/83 85/85/85
f 106/106/106 167/167/167 52/52/52
f 157/157/157 90/90/90 37/37/37
f 127/127/127 13/13/13 44/44/44
f 101/101/101 11/11/11 43/43/43
f 81/81/81 167/167/167 158/158/158
f 98/98/98 166/166/166 36/36/36
f 164/164/164 171/171/171 160/160/160
f 45/45/45 10/10/10 98/98/98
f 156/156/156 145/145/145 153/153/153
f 162/162/162 12/12/12 22/22/22
f 116/116/116 22/22/22 12/12/12
f 118/118/118 29/29/29 79/79/79
f 40/40/40 86/86/86 88/88/88
f 91/91/91 39/39/39 64/64/64
f 131/131/131 79/79/79 29/29/29
f 26/26/26 128/128/128 52/52/52
f 23/23/23 11/11/11 87/87/87
f 97/97/97 119/119/119 77/77/77
f 145/145/145 53/53/53 149/149/149
f 41/41/41 84/84/84 83/83/83
f 48/48/48 38/38/38 141/141/141
f 168/168/168 72/72/72 119/119/119
f 169/169/169 60/60/60 160/160/160
f 56/56/56 88/88/88 99/99/99
f 7/7/7 99/99/99 88/88/88
f 164/164/164 160/160/160 60/60/60
f 122/122/122 175/175/175 51/51/51
f 163/163/163 176/176/176 172/172/172
f 93/93/93 38/38/38 48/48/48
f 23/23/23 25/25/25 11/11/11
f 93/93/93 10/10/10 45/45/45
f 48/48/48 90/90/90 93/93/93
f 25/25/25 23/23/23 159/159/159
f 48/48/48 141/141/141 89/89/89
f 21/21/21 89/89/89 141/141/141
f 147/147/147 144/144/144 177/177/177
f 109/109/109 51/51/51 175/175/175
f 6/6/6 91/91/91 64/64/64
f 63/63/63 111/111/111 161/161/161
f 32/32/32 136/136/136 123/123/123
f 6/6/6 55/55/55 85/85/85
f 154/154/154 127/127/127 132/132/132
f 155/155/155 102/102/102 35/35/35
f 143/143/143 90/90/90 39/39/39
f 102/102/102 155/155/155 73/73/73
f 75/75/75 117/117/117 115/115/115
f 136/136/136 30/30/30 62/62/62
f 59/59/59 143/143/143 91/91/91
f 111/111/111 169/169/169 161/161/161
f 100/100/100 155/155/155 96/96/96
f 39/39/39 91/91/91 143/143/143
f 111/111/111 63/63/63 5/5/5
f 150/150/150 161/161/161 165/165/165
f 125/125/125 27/27/27 62/62/62
f 72/72/72 173/173/173 135/135/135
f 37/37/37 90/90/90 143/143/143
f 37/37/37 143/143/143 171/171/171
f 97/97/97 2/2/2 119/119/119
f 157/157/157 10/10/10 90/90/90
f 49/49/49 98/98/98 10/10/10
f 49/49/49 10/10/10 157/157/157
f 145/145/145 157/157/157 153/153/153
f 34/34/34 51/51/51 57/57/57
f 119/119/119 29/29/29 118/118/118
f 145/145/145 49/49/49 157/157/157
f 105/105/105 170/170/170 81/81/81
f 110/110/110 80/80/80 158/158/158
f 156/156/156 57/57/57 109/109/109
f 156/156/156 53/53/53 145/145/145
f 149/149/149 166/166/166 98/98/98
f 149/149/149 98/98/98 49/49/49
f 123/123/123 62/62/62 27/27/27
f 5/5/5 95/95/95 111/111/111
f 95/95/95 57/57/57 156/156/156
f 163/163/163 150/150/150 32/32/32
f 60/60/60 111/111/111 95/95/95
f 166/166/166 56/56/56 36/36/36
f 56/56/56 99/99/99 36/36/36
f 146/146/146 172/172/172 61/61/61
f 34/34/34 57/57/57 104/104/104
f 21/21/21 50/50/50 89/89/89
f 9/9/9 117/117/117 75/75/75
f 78/78/78 133/133/133 125/125/125
f 144/144/144 152/152/152 162/162/162
f 95/95/95 156/156/156 153/153/153
f 82/82/82 47/47/47 41/41/41
f 88/88/88 151/151/151 40/40/40
f 83/83/83 54/54/54 171/171/171
f 96/96/96 43/43/43 100/100/100
f 37/37/37 171/171/171 164/164/164
f 77/77/77 119/119/119 118/118/118
f 120/120/120 65/65/65 94/94/94
f 122/122/122 23/23/23 151/151/151
f 169/169/169 144/144/144 161/161/161
f 84/84/84 41/41/41 47/47/47
f 94/94/94 65/65/65 38/38/38
f 112/112/112 42/42/42 31/31/31
f 63/63/63 163/163/163 28/28/28
f 163/163/163 63/63/63 150/150/150
f 167/167/167 26/26/26 52/52/52
f 130/130/130 1/1/1 113/113/113
f 29/29/29 135/135/135 131/131/131
f 154/154/154 132/132/132 140/140/140
f 80/80/80 104/104/104 5/5/5
f 27/27/27 124/124/124 123/123/123
f 147/147/147 152/152/152 144/144/144
f 110/110/110 25/25/25 34/34/34
f 117/117/117 62/62/62 30/30/30
f 43/43/43 107/107/107 139/139/139
f 81/81/81 158/158/158 80/80/80
f 61/61/61 123/123/123 124/124/124
f 33/33/33 52/52/52 108/108/108
f 124/124/124 27/27/27 79/79/79
f 139/139/139 33/33/33 108/108/108
f 143/143/143 59/59/59 171/171/171
f 33/33/33 106/106/106 52/52/52
f 40/40/40 87/87/87 86/86/86
f 133/133/133 79/79/79 27/27/27
f 103/103/103 68/68/68 102/102/102
f 107/107/107 106/106/106 33/33/33
f 83/83/83 171/171/171 59/59/59
f 158/158/158 179/179/179 110/110/110
f 46/46/46 87/87/87 101/101/101
f 148/148/148 106/106/106 107/107/107
f 110/110/110 179/179/179 25/25/25
f 124/124/124 146/146/146 61/61/61
f 140/140/140 170/170/170 105/105/105
f 50/50/50 64/64/64 89/89/89
f 54/54/54 160/160/160 171/171/171
f 154/154/154 140/140/140 146/146/146
f 140/140/140 132/132/132 170/170/170
f 115/115/115 30/30/30 42/42/42
f 74/74/74 139/139/139 108/108/108
f 4/4/4 103/103/103 102/102/102
f 7/7/7 70/70/70 99/99/99
f 116/116/116 42/42/42 30/30/30
f 151/151/151 23/23/23 40/40/40
f 68/68/68 142/142/142 102/102/102
f 19/19/19 86/86/86 142/142/142
f 142/142/142 35/35/35 102/102/102
f 88/88/88 56/56/56 151/151/151
f 31/31/31 134/134/134 113/113/113
f 46/46/46 142/142/142 86/86/86
f 107/107/107 43/43/43 11/11/11
f 56/56/56 166/166/166 122/122/122
f 11/11/11 101/101/101 87/87/87
f 44/44/44 131/131/131 135/135/135
f 105/105/105 81/81/81 80/80/80
f 141/141/141 38/38/38 65/65/65
f 56/56/56 122/122/122 151/151/151
f 122/122/122 51/51/51 23/23/23
f 79/79/79 131/131/131 124/124/124
f 13/13/13 124/124/124 131/131/131
f 2/2/2 168/168/168 119/119/119
f 131/131/131 44/44/44 13/13/13
f 36/36/36 129/129/129 98/98/98
f 45/45/45 98/98/98 129/129/129
f 67/67/67 7/7/7 88/88/88
f 19/19/19 67/67/67 86/86/86
f 68/68/68 19/19/19 142/142/142
f 87/87/87 40/40/40 23/23/23
f 42/42/42 116/116/116 114/114/114
f 24/24/24 4/4/4 102/102/102
f 73/73/73 24/24/24 102/102/102
f 41/41/41 85/85/85 82/82/82
f 74/74/74 16/16/16 139/139/139
f 8/8/8 74/74/74 108/108/108
f 33/33/33 139/139/139 107/107/107
f 8/8/8 108/108/108 128/128/128
f 76/76/76 113/113/113 1/1/1
f 146/146/146 28/28/28 172/172/172
f 96/96/96 35/35/35 101/101/101
f 121/121/121 5/5/5 63/63/63
f 52/52/52 128/128/128 108/108/108
f 128/128/128 71/71/71 8/8/8
f 46/46/46 86/86/86 87/87/87
f 149/149/149 49/49/49 145/145/145
f 126/126/126 17/17/17 71/71/71
f 62/62/62 117/117/117 125/125/125
f 26/26/26 126/126/126 128/128/128
f 135/135/135 17/17/17 44/44/44
f 71/71/71 128/128/128 126/126/126
f 132/132/132 127/127/127 26/26/26
f 44/44/44 126/126/126 127/127/127
f 10/10/10 93/93/93 90/90/90
f 124/124/124 13/13/13 146/146/146
f 43/43/43 96/96/96 101/101/101
f 27/27/27 125/125/125 133/133/133
f 101/101/101 35/35/35 46/46/46
f 62/62/62 123/123/123 136/136/136
f 12/12/12 114/114/114 116/116/116
f 66/66/66 134/134/134 137/137/137
f 26/26/26 127/127/127 126/126/126
f 79/79/79 133/133/133 118/118/118
f 67/67/67 88/88/88 86/86/86
f 34/34/34 104/104/104 110/110/110
f 176/176/176 163/163/163 32/32/32
f 134/134/134 31/31/31 137/137/137
f 77/77/77 118/118/118 14/14/14
f 60/60/60 153/153/153 164/164/164
f 82/82/82 20/20/20 47/47/47
f 154/154/154 146/146/146 13/13/13
f 14/14/14 133/133/133 78/78/78
f 149/149/149 53/53/53 166/166/166
f 154/154/154 13/13/13 127/127/127
f 137/137/137 47/47/47 20/20/20
f 121/121/121 28/28/28 80/80/80
f 28/28/28 105/105/105 80/80/80
f 94/94/94 178/178/178 69/69/69
f 109/109/109 53/53/53 156/156/156
f 140/140/140 28/28/28 146/146/146
f 53/53/53 175/175/175 166/166/166
f 175/175/175 122/122/122 166/166/166
f 123/123/123 176/176/176 32/32/32
f 176/176/176 123/123/123 61/61/61
f 160/160/160 177/177/177 169/169/169
f 147/147/147 177/177/177 58/58/58
f 92/92/92 178/178/178 38/38/38
f 178/178/178 94/94/94 38/38/38
f 148/148/148 179/179/179 106/106/106
f 179/179/179 158/158/158 106/106/106
f 18/18/18 92/92/92 129/129/129
f 45/45/45 129/129/129 92/92/92
