# frame 000530 
# time 0.265500 
# name Cloth3D 
v -0.000000 0.000000 -0.000000
v 1.000000 0.000000 -0.000000
v -0.000000 1.000000 0.000000
v 1.000000 1.000000 0.000000
v 0.500696 0.500697 0.127989
v -0.000000 0.500000 0.000000
v 0.500000 1.000000 0.000000
v 1.000000 0.500000 0.000000
v 0.500000 -0.000000 0.000000
v 0.245487 0.756322 0.081014
v 0.757765 0.757147 0.088817
v 0.244515 0.246215 0.074963
v 0.755152 0.243643 0.083423
v 0.750000 0.000000 0.000000
v 0.250000 0.000000 0.000000
v 1.000000 0.750000 0.000000
v 1.000000 0.250000 0.000000
v 0.250000 1.000000 0.000000
v 0.750000 1.000000 0.000000
v 0.000000 0.250000 0.000000
v 0.000000 0.750000 -0.000000
v 0.363203 0.217829 0.073379
v 0.633329 0.779053 0.093762
v 0.713952 0.358179 0.111061
v 0.679996 0.676243 0.119929
v 0.879348 0.373688 0.052425
v 0.626266 0.118185 0.057663
v 0.630354 0.369610 0.121826
v 0.877887 0.121825 0.034201
v 0.374705 0.124843 0.038635
v 0.124160 0.125122 0.018314
v 0.492449 0.245688 0.093116
v 0.881543 0.626940 0.058317
v 0.631792 0.630887 0.123572
v 0.879449 0.879407 0.039269
v 0.373880 0.883018 0.060161
v 0.258853 0.603000 0.090702
v 0.122599 0.877713 0.032112
v 0.122615 0.626442 0.045724
v 0.626778 0.879823 0.052535
v 0.120407 0.374076 0.050544
v 0.249096 0.124573 0.032746
v 0.880428 0.753003 0.050105
v 0.879311 0.247497 0.047214
v 0.248660 0.879299 0.045173
v 0.753222 0.880697 0.050342
v 0.120152 0.248656 0.044138
v 0.120255 0.752554 0.048227
v 0.300486 0.721695 0.099500
v 0.310613 0.882556 0.056503
v 0.553231 0.707706 0.119929
v 0.880699 0.500387 0.057224
v 0.366877 0.722988 0.119962
v 0.241683 0.454414 0.096886
v 0.000000 0.375000 0.000000
v 0.500435 0.883237 0.061882
v 0.501133 0.631366 0.125231
v 0.240287 0.371651 0.103507
v 0.123088 0.500096 0.045745
v 0.370291 0.500687 0.123370
v 0.629187 0.241447 0.104357
v 0.500574 0.122850 0.046367
v 0.500076 0.370298 0.123128
v 0.000000 0.625000 0.000000
v 0.000000 0.875000 0.000000
v 0.000000 0.125000 0.000000
v 0.625000 1.000000 0.000000
v 0.875000 1.000000 0.000000
v 0.125000 1.000000 0.000000
v 0.375000 1.000000 0.000000
v 1.000000 0.375000 0.000000
v 1.000000 0.125000 0.000000
v 1.000000 0.875000 0.000000
v 1.000000 0.625000 0.000000
v 0.375000 0.000000 0.000000
v 0.125000 0.000000 0.000000
v 0.875000 0.000000 0.000000
v 0.625000 0.000000 0.000000
v 0.752604 0.118209 0.053001
v 0.631284 0.500501 0.126101
v 0.720415 0.487648 0.119929
v 0.057860 0.312152 0.029486
v 0.182551 0.436518 0.073399
v 0.179651 0.309595 0.074341
v 0.060999 0.437392 0.024115
v 0.688582 0.940812 0.027559
v 0.691857 0.819741 0.075765
v 0.562904 0.940495 0.028391
v 0.059298 0.688326 0.027517
v 0.182777 0.690898 0.069361
v 0.061620 0.562869 0.022664
v 0.186722 0.940072 0.022664
v 0.184009 0.816747 0.054287
v 0.061605 0.938460 0.012041
v 0.435848 0.566123 0.126540
v 0.880419 0.816399 0.046160
v 0.937500 0.000000 -0.000000
v 0.309288 0.821351 0.079107
v 0.437388 0.941681 0.031274
v 0.941299 0.814246 0.026277
v 0.818480 0.818352 0.062209
v 0.938953 0.938753 0.013347
v 0.937500 1.000000 0.000000
v 0.566272 0.565920 0.127105
v 0.705038 0.425699 0.119929
v 0.828688 0.593936 0.084983
v 0.821145 0.691904 0.081607
v 0.941734 0.563015 0.031652
v 0.492196 0.722833 0.119934
v 0.880438 0.689984 0.053473
v 0.434957 0.435491 0.126271
v 0.187323 0.062250 0.014161
v 0.062571 0.062854 0.003046
v 0.184210 0.185601 0.045600
v 0.312409 0.061463 0.021272
v 0.310492 0.186416 0.056351
v 0.437795 0.063393 0.017260
v 0.813871 0.058514 0.026304
v 0.939263 0.060729 0.016799
v 0.437055 0.882290 0.059938
v 0.565656 0.435267 0.126916
v 0.526192 0.813701 0.088307
v 0.564067 0.181535 0.077169
v 0.690903 0.179278 0.078939
v 0.562878 0.059879 0.027265
v 0.939430 0.311768 0.024630
v 0.818537 0.308901 0.073936
v 0.940081 0.437341 0.027960
v 0.312005 0.941274 0.028429
v -0.000000 0.062500 -0.000000
v 0.816217 0.182837 0.055810
v 0.807517 0.369804 0.082212
v 0.688289 0.058467 0.029379
v 0.062289 0.125609 0.006629
v 0.940894 0.186154 0.025472
v 0.437037 0.184894 0.066396
v 0.059961 0.187003 0.020567
v 0.062500 1.000000 0.000000
v 0.941170 0.688551 0.029052
v 0.689177 0.364302 0.119929
v 0.060519 0.813538 0.021147
v 0.814284 0.941238 0.026177
v 0.184629 0.563757 0.067726
v 0.359417 0.343898 0.119929
v 0.350790 0.658040 0.119929
v 0.665886 0.267779 0.119942
v 0.277850 0.364094 0.119942
v 0.762151 0.655906 0.119942
v 0.374094 0.752150 0.119942
v 0.485931 0.312496 0.119929
v 0.582310 0.839058 0.075757
v 0.288925 0.327425 0.107125
v 0.335462 0.596283 0.119929
v 0.719426 0.293570 0.103067
v 0.941535 0.877281 0.024750
v 0.434636 0.641567 0.122830
v 0.277145 0.662422 0.097788
v 0.735585 0.549835 0.119941
v 0.615772 0.692184 0.119929
v 0.304660 0.472085 0.119935
v 0.422627 0.328208 0.119929
v 0.359659 0.290413 0.099186
v 0.547113 0.297310 0.119929
v 0.319918 0.533657 0.119929
v 0.416482 0.252767 0.090565
v 0.424338 0.825527 0.087355
v 0.819490 0.481649 0.080368
v 0.545995 0.321475 0.120318
v 0.370116 0.415140 0.121812
v 0.774826 0.422649 0.097227
v 0.241117 0.515943 0.090858
v 0.672860 0.296988 0.119937
v 0.691994 0.587823 0.120974
v 1.000000 0.937500 0.000000
vt 0.000000 0.000000
vt 1.000000 0.000000
vt 0.000000 1.000000
vt 1.000000 1.000000
vt 0.500000 0.500000
vt 0.000000 0.500000
vt 0.500000 1.000000
vt 1.000000 0.500000
vt 0.500000 0.000000
vt 0.250000 0.750000
vt 0.750000 0.750000
vt 0.250000 0.250000
vt 0.750000 0.250000
vt 0.750000 0.000000
vt 0.250000 0.000000
vt 1.000000 0.750000
vt 1.000000 0.250000
vt 0.250000 1.000000
vt 0.750000 1.000000
vt 0.000000 0.250000
vt 0.000000 0.750000
vt 0.365347 0.220303
vt 0.629073 0.770824
vt 0.706846 0.363401
vt 0.671130 0.668797
vt 0.875000 0.375000
vt 0.625000 0.125000
vt 0.625000 0.375000
vt 0.875000 0.125000
vt 0.375000 0.125000
vt 0.125000 0.125000
vt 0.492214 0.250470
vt 0.875000 0.625000
vt 0.625000 0.625000
vt 0.875000 0.875000
vt 0.375000 0.875000
vt 0.262101 0.599801
vt 0.125000 0.875000
vt 0.125000 0.625000
vt 0.625000 0.875000
vt 0.125000 0.375000
vt 0.250000 0.125000
vt 0.875000 0.750000
vt 0.875000 0.250000
vt 0.250000 0.875000
vt 0.750000 0.875000
vt 0.125000 0.250000
vt 0.125000 0.750000
vt 0.304602 0.713891
vt 0.312500 0.875000
vt 0.550173 0.698514
vt 0.875000 0.500000
vt 0.371314 0.711802
vt 0.248222 0.455442
vt 0.000000 0.375000
vt 0.500000 0.875000
vt 0.500000 0.625000
vt 0.250000 0.375000
vt 0.125000 0.500000
vt 0.375000 0.500000
vt 0.625000 0.250000
vt 0.500000 0.125000
vt 0.500000 0.375000
vt 0.000000 0.625000
vt 0.000000 0.875000
vt 0.000000 0.125000
vt 0.625000 1.000000
vt 0.875000 1.000000
vt 0.125000 1.000000
vt 0.375000 1.000000
vt 1.000000 0.375000
vt 1.000000 0.125000
vt 1.000000 0.875000
vt 1.000000 0.625000
vt 0.375000 0.000000
vt 0.125000 0.000000
vt 0.875000 0.000000
vt 0.625000 0.000000
vt 0.750000 0.125000
vt 0.625000 0.500000
vt 0.710715 0.487906
vt 0.062500 0.312500
vt 0.187500 0.437500
vt 0.187500 0.312500
vt 0.062500 0.437500
vt 0.687500 0.937500
vt 0.687500 0.812500
vt 0.562500 0.937500
vt 0.062500 0.687500
vt 0.187500 0.687500
vt 0.062500 0.562500
vt 0.187500 0.937500
vt 0.187500 0.812500
vt 0.062500 0.937500
vt 0.437500 0.562500
vt 0.875000 0.812500
vt 0.937500 0.000000
vt 0.312500 0.812500
vt 0.437500 0.937500
vt 0.937500 0.812500
vt 0.812500 0.812500
vt 0.937500 0.937500
vt 0.937500 1.000000
vt 0.562500 0.562500
vt 0.696451 0.428520
vt 0.819332 0.591237
vt 0.812500 0.687500
vt 0.937500 0.562500
vt 0.491507 0.712513
vt 0.875000 0.687500
vt 0.437500 0.437500
vt 0.187500 0.062500
vt 0.062500 0.062500
vt 0.187500 0.187500
vt 0.312500 0.062500
vt 0.312500 0.187500
vt 0.437500 0.062500
vt 0.812500 0.062500
vt 0.937500 0.062500
vt 0.437500 0.875000
vt 0.562500 0.437500
vt 0.525016 0.804189
vt 0.562500 0.187500
vt 0.687500 0.187500
vt 0.562500 0.062500
vt 0.937500 0.312500
vt 0.812500 0.312500
vt 0.937500 0.437500
vt 0.312500 0.937500
vt 0.000000 0.062500
vt 0.812500 0.187500
vt 0.800716 0.372483
vt 0.687500 0.062500
vt 0.062500 0.125000
vt 0.937500 0.187500
vt 0.437500 0.187500
vt 0.062500 0.187500
vt 0.062500 1.000000
vt 0.937500 0.687500
vt 0.681619 0.369903
vt 0.062500 0.812500
vt 0.812500 0.937500
vt 0.187500 0.562500
vt 0.365441 0.349404
vt 0.355373 0.650580
vt 0.659513 0.278897
vt 0.288855 0.369547
vt 0.748176 0.648932
vt 0.378467 0.739122
vt 0.486676 0.319446
vt 0.580205 0.830830
vt 0.296906 0.332149
vt 0.340711 0.591668
vt 0.713437 0.300753
vt 0.937500 0.875000
vt 0.436137 0.634590
vt 0.281585 0.657008
vt 0.724568 0.547705
vt 0.610001 0.683872
vt 0.312403 0.472481
vt 0.425834 0.334299
vt 0.364019 0.294291
vt 0.545594 0.305382
vt 0.326271 0.531613
vt 0.418341 0.256674
vt 0.425703 0.815414
vt 0.812755 0.481587
vt 0.544346 0.328467
vt 0.375653 0.417988
vt 0.766844 0.424637
vt 0.245672 0.515386
vt 0.666150 0.306301
vt 0.682510 0.583771
vt 1.000000 0.937500
vn -0.027079 -0.013540 0.999542
vn 0.089077 -0.178155 0.979962
vn -0.062239 0.124479 0.990268
vn 0.111278 0.111278 0.987540
vn -0.003789 -0.001231 0.999992
vn -0.354226 0.005548 0.935144
vn 0.013178 0.447310 0.894282
vn 0.449454 -0.015635 0.893166
vn -0.041967 -0.338542 0.940015
vn -0.242224 0.165105 0.956069
vn 0.182120 0.261901 0.947755
vn -0.154184 -0.304029 0.940103
vn 0.280527 -0.192395 0.940366
vn 0.012199 -0.421153 0.906908
vn -0.027113 -0.271734 0.961990
vn 0.427979 0.009698 0.903737
vn 0.384950 0.004333 0.922927
vn -0.024664 0.371556 0.928083
vn 0.003262 0.417302 0.908762
vn -0.388619 -0.036458 0.920677
vn -0.374354 0.025133 0.926945
vn -0.077356 -0.353907 0.932076
vn 0.068072 0.321506 0.944457
vn 0.327721 -0.085788 0.940871
vn 0.044400 0.129392 0.990599
vn 0.385712 -0.035952 0.921918
vn -0.022552 -0.387647 0.921532
vn 0.026642 -0.025083 0.999330
vn 0.158650 -0.149419 0.975963
vn -0.040630 -0.326908 0.944182
vn -0.150592 -0.183959 0.971330
vn -0.084422 -0.363741 0.927667
vn 0.417896 0.042569 0.907497
vn 0.032552 0.041700 0.998600
vn 0.204212 0.168974 0.964233
vn -0.033239 0.413038 0.910107
vn -0.332429 0.027593 0.942725
vn -0.172676 0.171736 0.969891
vn -0.330430 -0.020605 0.943606
vn 0.045091 0.392889 0.918480
vn -0.377491 0.032652 0.925438
vn -0.074637 -0.257361 0.963428
vn 0.343016 0.065408 0.937050
vn 0.308235 -0.070033 0.948729
vn -0.149674 0.330344 0.931918
vn 0.052482 0.324885 0.944296
vn -0.268665 -0.153915 0.950857
vn -0.289381 0.068785 0.954739
vn -0.279853 0.116676 0.952926
vn -0.120585 0.386512 0.914367
vn 0.040364 0.174692 0.983795
vn 0.393023 -0.040890 0.918619
vn -0.183406 0.048169 0.981856
vn -0.379147 0.086052 0.921326
vn -0.398510 0.024341 0.916841
vn 0.021712 0.425107 0.904882
vn -0.009084 0.046690 0.998868
vn -0.387852 -0.109887 0.915148
vn -0.359736 0.028674 0.932614
vn -0.054884 0.001954 0.998491
vn -0.072567 -0.398853 0.914139
vn -0.085323 -0.374652 0.923231
vn -0.004341 -0.055407 0.998454
vn -0.381417 -0.020693 0.924172
vn -0.258145 0.036992 0.965398
vn -0.114496 -0.081783 0.990052
vn 0.000303 0.423552 0.905872
vn 0.040932 0.300278 0.952973
vn -0.033758 0.251942 0.967153
vn -0.009511 0.453765 0.891070
vn 0.399923 -0.012474 0.916464
vn 0.330500 -0.034578 0.943172
vn 0.346151 0.056446 0.936479
vn 0.461005 0.009180 0.887350
vn 0.016430 -0.291854 0.956322
vn -0.045535 -0.130809 0.990361
vn 0.031429 -0.324492 0.945366
vn -0.010562 -0.436504 0.899640
vn 0.108174 -0.314080 0.943214
vn 0.044141 -0.004303 0.999016
vn 0.208259 -0.040526 0.977234
vn -0.382808 -0.012745 0.923740
vn -0.385175 0.064811 0.920565
vn -0.308448 -0.140780 0.940766
vn -0.368181 0.020661 0.929525
vn 0.005787 0.394133 0.919035
vn 0.058860 0.335195 0.940308
vn 0.027954 0.432904 0.901006
vn -0.357765 -0.003072 0.933806
vn -0.298539 0.035398 0.953741
vn -0.346380 -0.008506 0.938056
vn -0.047909 0.299407 0.952922
vn -0.182287 0.194228 0.963871
vn -0.105282 0.140351 0.984488
vn -0.034113 0.024778 0.999111
vn 0.279758 0.082865 0.956488
vn 0.000000 -0.263116 0.964764
vn -0.172911 0.317691 0.932295
vn -0.005347 0.455909 0.890010
vn 0.342635 0.038760 0.938669
vn 0.197355 0.179448 0.963768
vn 0.169809 0.160693 0.972287
vn 0.000000 0.219539 0.975604
vn 0.013298 0.017890 0.999752
vn 0.209989 -0.058768 0.975936
vn 0.428702 -0.010254 0.903388
vn 0.413696 0.126274 0.901616
vn 0.436842 -0.007267 0.899509
vn 0.032084 0.173290 0.984348
vn 0.403083 0.063360 0.912968
vn -0.034433 -0.030682 0.998936
vn -0.066590 -0.196365 0.978267
vn -0.075091 -0.049946 0.995925
vn -0.157429 -0.270578 0.949739
vn -0.016281 -0.273556 0.961718
vn -0.074555 -0.348811 0.934223
vn -0.028772 -0.322254 0.946216
vn 0.058345 -0.330837 0.941883
vn 0.123766 -0.174630 0.976825
vn -0.018125 0.437588 0.898993
vn 0.014680 -0.031483 0.999396
vn 0.047301 0.341820 0.938574
vn -0.085803 -0.361432 0.928442
vn 0.102923 -0.338255 0.935409
vn -0.053310 -0.395231 0.917034
vn 0.379131 -0.014181 0.925234
vn 0.328741 -0.083970 0.940680
vn 0.413403 -0.024039 0.910231
vn -0.070775 0.421286 0.904162
vn -0.040665 -0.000000 0.999173
vn 0.219426 -0.177275 0.959388
vn 0.345790 -0.056438 0.936613
vn 0.017357 -0.421247 0.906780
vn -0.137116 -0.142943 0.980187
vn 0.315231 -0.040949 0.948131
vn -0.071061 -0.358931 0.930655
vn -0.227026 -0.147718 0.962621
vn 0.000000 0.185340 0.982674
vn 0.405822 0.032787 0.913364
vn 0.243631 -0.061672 0.967905
vn -0.310588 0.063094 0.948448
vn 0.047724 0.351495 0.934973
vn -0.337151 0.025210 0.941113
vn -0.056822 -0.229271 0.971703
vn -0.178004 0.045352 0.982984
vn 0.147763 -0.182874 0.971969
vn -0.318376 -0.262597 0.910868
vn 0.262498 0.113242 0.958264
vn -0.153082 0.141124 0.978085
vn -0.040142 -0.188895 0.981176
vn 0.077559 0.380854 0.921376
vn -0.196880 -0.346742 0.917065
vn -0.207584 0.044535 0.977203
vn 0.330201 -0.100525 0.938543
vn 0.314852 0.102030 0.943641
vn -0.028942 0.039262 0.998810
vn -0.298701 0.044408 0.953313
vn 0.169586 -0.039940 0.984706
vn 0.039701 0.158262 0.986599
vn -0.211066 0.047663 0.976309
vn -0.058473 -0.221361 0.973437
vn -0.085520 -0.349978 0.932846
vn -0.029272 -0.110341 0.993463
vn -0.196358 0.047317 0.979390
vn -0.076915 -0.354561 0.931864
vn -0.009829 0.399502 0.916679
vn 0.373759 -0.048483 0.926258
vn -0.003685 -0.027335 0.999620
vn -0.036353 -0.023843 0.999055
vn 0.339677 -0.056157 0.938864
vn -0.358628 0.076422 0.930347
vn 0.234853 -0.058777 0.970252
vn 0.036676 0.007509 0.999299
vn 0.220163 0.000000 0.975463
f 129/129/129 99/99/99 70/70/70
f 112/112/112 31/31/31 113/113/113
f 170/170/170 132/132/132 167/167/167
f 26/26/26 167/167/167 132/132/132
f 58/58/58 152/152/152 147/147/147
f 114/114/114 12/12/12 47/47/47
f 101/101/101 35/35/35 46/46/46
f 129/129/129 36/36/36 99/99/99
f 66/66/66 130/130/130 113/113/113
f 152/152/152 12/12/12 162/162/162
f 11/11/11 25/25/25 148/148/148
f 120/120/120 99/99/99 36/36/36
f 115/115/115 112/112/112 15/15/15
f 140/140/140 28/28/28 172/172/172
f 114/114/114 137/137/137 31/31/31
f 76/76/76 112/112/112 113/113/113
f 84/84/84 47/47/47 12/12/12
f 15/15/15 112/112/112 76/76/76
f 115/115/115 15/15/15 75/75/75
f 45/45/45 92/92/92 93/93/93
f 62/62/62 117/117/117 125/125/125
f 16/16/16 100/100/100 139/139/139
f 22/22/22 30/30/30 136/136/136
f 38/38/38 93/93/93 92/92/92
f 62/62/62 125/125/125 123/123/123
f 165/165/165 22/22/22 136/136/136
f 147/147/147 54/54/54 58/58/58
f 83/83/83 58/58/58 54/54/54
f 57/57/57 95/95/95 104/104/104
f 116/116/116 30/30/30 22/22/22
f 42/42/42 112/112/112 115/115/115
f 9/9/9 125/125/125 117/117/117
f 140/140/140 105/105/105 28/28/28
f 155/155/155 100/100/100 73/73/73
f 129/129/129 70/70/70 18/18/18
f 24/24/24 170/170/170 105/105/105
f 165/165/165 162/162/162 22/22/22
f 114/114/114 31/31/31 42/42/42
f 150/150/150 165/165/165 32/32/32
f 37/37/37 153/153/153 157/157/157
f 164/164/164 153/153/153 37/37/37
f 146/146/146 163/163/163 61/61/61
f 104/104/104 80/80/80 34/34/34
f 41/41/41 58/58/58 83/83/83
f 32/32/32 165/165/165 136/136/136
f 161/161/161 144/144/144 162/162/162
f 51/51/51 159/159/159 23/23/23
f 156/156/156 109/109/109 53/53/53
f 78/78/78 125/125/125 9/9/9
f 121/121/121 80/80/80 5/5/5
f 154/154/154 24/24/24 172/172/172
f 147/147/147 144/144/144 169/169/169
f 44/44/44 126/126/126 26/26/26
f 122/122/122 109/109/109 51/51/51
f 162/162/162 165/165/165 161/161/161
f 123/123/123 163/163/163 32/32/32
f 60/60/60 169/169/169 111/111/111
f 63/63/63 121/121/121 111/111/111
f 63/63/63 161/161/161 150/150/150
f 25/25/25 159/159/159 34/34/34
f 81/81/81 170/170/170 167/167/167
f 30/30/30 115/115/115 117/117/117
f 84/84/84 152/152/152 58/58/58
f 51/51/51 109/109/109 57/57/57
f 34/34/34 159/159/159 51/51/51
f 11/11/11 148/148/148 107/107/107
f 5/5/5 104/104/104 95/95/95
f 85/85/85 55/55/55 41/41/41
f 82/82/82 137/137/137 47/47/47
f 29/29/29 119/119/119 135/135/135
f 72/72/72 135/135/135 119/119/119
f 84/84/84 12/12/12 152/152/152
f 84/84/84 58/58/58 41/41/41
f 47/47/47 137/137/137 114/114/114
f 59/59/59 85/85/85 83/83/83
f 55/55/55 82/82/82 41/41/41
f 20/20/20 137/137/137 82/82/82
f 20/20/20 66/66/66 137/137/137
f 55/55/55 20/20/20 82/82/82
f 59/59/59 91/91/91 85/85/85
f 21/21/21 141/141/141 65/65/65
f 6/6/6 85/85/85 91/91/91
f 94/94/94 138/138/138 3/3/3
f 41/41/41 82/82/82 84/84/84
f 172/172/172 163/163/163 146/146/146
f 149/149/149 49/49/49 53/53/53
f 92/92/92 18/18/18 69/69/69
f 94/94/94 69/69/69 138/138/138
f 59/59/59 83/83/83 143/143/143
f 167/167/167 106/106/106 158/158/158
f 171/171/171 143/143/143 83/83/83
f 106/106/106 167/167/167 52/52/52
f 157/157/157 90/90/90 37/37/37
f 166/166/166 120/120/120 36/36/36
f 38/38/38 92/92/92 94/94/94
f 81/81/81 167/167/167 158/158/158
f 98/98/98 166/166/166 36/36/36
f 164/164/164 171/171/171 160/160/160
f 45/45/45 10/10/10 98/98/98
f 156/156/156 145/145/145 153/153/153
f 162/162/162 12/12/12 22/22/22
f 116/116/116 22/22/22 12/12/12
f 50/50/50 45/45/45 98/98/98
f 50/50/50 98/98/98 36/36/36
f 160/160/160 54/54/54 147/147/147
f 129/129/129 50/50/50 36/36/36
f 26/26/26 128/128/128 52/52/52
f 23/23/23 11/11/11 87/87/87
f 140/140/140 172/172/172 24/24/24
f 122/122/122 166/166/166 109/109/109
f 47/47/47 84/84/84 82/82/82
f 48/48/48 38/38/38 141/141/141
f 65/65/65 94/94/94 3/3/3
f 169/169/169 60/60/60 160/160/160
f 56/56/56 88/88/88 99/99/99
f 7/7/7 99/99/99 88/88/88
f 164/164/164 160/160/160 60/60/60
f 64/64/64 91/91/91 89/89/89
f 173/173/173 34/34/34 80/80/80
f 93/93/93 38/38/38 48/48/48
f 23/23/23 25/25/25 11/11/11
f 93/93/93 10/10/10 45/45/45
f 48/48/48 90/90/90 93/93/93
f 25/25/25 23/23/23 159/159/159
f 59/59/59 39/39/39 91/91/91
f 143/143/143 39/39/39 59/59/59
f 64/64/64 89/89/89 21/21/21
f 89/89/89 91/91/91 39/39/39
f 6/6/6 91/91/91 64/64/64
f 63/63/63 111/111/111 161/161/161
f 135/135/135 44/44/44 29/29/29
f 6/6/6 55/55/55 85/85/85
f 154/154/154 127/127/127 132/132/132
f 155/155/155 102/102/102 35/35/35
f 143/143/143 90/90/90 39/39/39
f 102/102/102 155/155/155 73/73/73
f 75/75/75 117/117/117 115/115/115
f 53/53/53 145/145/145 156/156/156
f 62/62/62 123/123/123 136/136/136
f 111/111/111 169/169/169 161/161/161
f 172/172/172 146/146/146 154/154/154
f 123/123/123 32/32/32 136/136/136
f 133/133/133 27/27/27 78/78/78
f 150/150/150 161/161/161 165/165/165
f 65/65/65 141/141/141 94/94/94
f 142/142/142 46/46/46 35/35/35
f 37/37/37 90/90/90 143/143/143
f 37/37/37 143/143/143 171/171/171
f 163/163/163 168/168/168 150/150/150
f 157/157/157 10/10/10 90/90/90
f 49/49/49 98/98/98 10/10/10
f 49/49/49 10/10/10 157/157/157
f 145/145/145 157/157/157 153/153/153
f 34/34/34 51/51/51 57/57/57
f 119/119/119 29/29/29 118/118/118
f 145/145/145 49/49/49 157/157/157
f 105/105/105 170/170/170 81/81/81
f 135/135/135 72/72/72 17/17/17
f 156/156/156 57/57/57 109/109/109
f 53/53/53 49/49/49 145/145/145
f 149/149/149 166/166/166 98/98/98
f 149/149/149 98/98/98 49/49/49
f 38/38/38 94/94/94 141/141/141
f 5/5/5 95/95/95 111/111/111
f 95/95/95 57/57/57 156/156/156
f 163/163/163 150/150/150 32/32/32
f 60/60/60 111/111/111 95/95/95
f 168/168/168 163/163/163 28/28/28
f 168/168/168 121/121/121 63/63/63
f 172/172/172 28/28/28 163/163/163
f 34/34/34 57/57/57 104/104/104
f 168/168/168 63/63/63 150/150/150
f 9/9/9 117/117/117 75/75/75
f 79/79/79 13/13/13 124/124/124
f 144/144/144 152/152/152 162/162/162
f 95/95/95 156/156/156 153/153/153
f 87/87/87 46/46/46 40/40/40
f 88/88/88 151/151/151 40/40/40
f 83/83/83 54/54/54 171/171/171
f 96/96/96 43/43/43 100/100/100
f 37/37/37 171/171/171 164/164/164
f 77/77/77 119/119/119 118/118/118
f 134/134/134 66/66/66 113/113/113
f 122/122/122 23/23/23 151/151/151
f 169/169/169 144/144/144 161/161/161
f 40/40/40 46/46/46 86/86/86
f 90/90/90 48/48/48 39/39/39
f 112/112/112 42/42/42 31/31/31
f 133/133/133 14/14/14 79/79/79
f 118/118/118 79/79/79 14/14/14
f 167/167/167 26/26/26 52/52/52
f 130/130/130 1/1/1 113/113/113
f 13/13/13 131/131/131 127/127/127
f 79/79/79 124/124/124 133/133/133
f 80/80/80 104/104/104 5/5/5
f 46/46/46 87/87/87 101/101/101
f 147/147/147 152/152/152 144/144/144
f 173/173/173 25/25/25 34/34/34
f 109/109/109 166/166/166 149/149/149
f 29/29/29 131/131/131 118/118/118
f 27/27/27 123/123/123 125/125/125
f 11/11/11 101/101/101 87/87/87
f 33/33/33 52/52/52 108/108/108
f 107/107/107 33/33/33 110/110/110
f 139/139/139 33/33/33 108/108/108
f 136/136/136 30/30/30 62/62/62
f 33/33/33 106/106/106 52/52/52
f 21/21/21 89/89/89 141/141/141
f 110/110/110 33/33/33 139/139/139
f 103/103/103 68/68/68 102/102/102
f 107/107/107 106/106/106 33/33/33
f 117/117/117 62/62/62 30/30/30
f 148/148/148 25/25/25 173/173/173
f 148/148/148 173/173/173 158/158/158
f 148/148/148 106/106/106 107/107/107
f 43/43/43 139/139/139 100/100/100
f 124/124/124 146/146/146 61/61/61
f 43/43/43 107/107/107 110/110/110
f 27/27/27 124/124/124 61/61/61
f 54/54/54 160/160/160 171/171/171
f 100/100/100 155/155/155 35/35/35
f 43/43/43 110/110/110 139/139/139
f 115/115/115 30/30/30 42/42/42
f 74/74/74 139/139/139 108/108/108
f 4/4/4 103/103/103 102/102/102
f 7/7/7 70/70/70 99/99/99
f 116/116/116 42/42/42 30/30/30
f 151/151/151 23/23/23 40/40/40
f 68/68/68 142/142/142 102/102/102
f 86/86/86 46/46/46 142/142/142
f 142/142/142 35/35/35 102/102/102
f 88/88/88 56/56/56 151/151/151
f 31/31/31 134/134/134 113/113/113
f 19/19/19 86/86/86 142/142/142
f 69/69/69 94/94/94 92/92/92
f 56/56/56 166/166/166 122/122/122
f 148/148/148 158/158/158 106/106/106
f 44/44/44 127/127/127 131/131/131
f 105/105/105 81/81/81 80/80/80
f 89/89/89 39/39/39 48/48/48
f 56/56/56 122/122/122 151/151/151
f 122/122/122 51/51/51 23/23/23
f 129/129/129 18/18/18 45/45/45
f 92/92/92 45/45/45 18/18/18
f 56/56/56 99/99/99 120/120/120
f 56/56/56 120/120/120 166/166/166
f 88/88/88 40/40/40 86/86/86
f 67/67/67 88/88/88 86/86/86
f 67/67/67 7/7/7 88/88/88
f 19/19/19 67/67/67 86/86/86
f 68/68/68 19/19/19 142/142/142
f 87/87/87 40/40/40 23/23/23
f 42/42/42 116/116/116 114/114/114
f 174/174/174 4/4/4 102/102/102
f 73/73/73 174/174/174 102/102/102
f 16/16/16 73/73/73 100/100/100
f 74/74/74 16/16/16 139/139/139
f 8/8/8 74/74/74 108/108/108
f 131/131/131 79/79/79 118/118/118
f 8/8/8 108/108/108 128/128/128
f 76/76/76 113/113/113 1/1/1
f 35/35/35 96/96/96 100/100/100
f 96/96/96 35/35/35 101/101/101
f 78/78/78 27/27/27 125/125/125
f 52/52/52 128/128/128 108/108/108
f 128/128/128 71/71/71 8/8/8
f 48/48/48 141/141/141 89/89/89
f 24/24/24 105/105/105 140/140/140
f 126/126/126 17/17/17 71/71/71
f 127/127/127 44/44/44 26/26/26
f 26/26/26 126/126/126 128/128/128
f 123/123/123 61/61/61 163/163/163
f 71/71/71 128/128/128 126/126/126
f 132/132/132 127/127/127 26/26/26
f 17/17/17 126/126/126 135/135/135
f 10/10/10 93/93/93 90/90/90
f 124/124/124 13/13/13 146/146/146
f 43/43/43 96/96/96 101/101/101
f 131/131/131 13/13/13 79/79/79
f 149/149/149 53/53/53 109/109/109
f 29/29/29 44/44/44 131/131/131
f 12/12/12 114/114/114 116/116/116
f 66/66/66 134/134/134 137/137/137
f 44/44/44 135/135/135 126/126/126
f 85/85/85 41/41/41 83/83/83
f 160/160/160 147/147/147 169/169/169
f 119/119/119 2/2/2 72/72/72
f 133/133/133 124/124/124 27/27/27
f 134/134/134 31/31/31 137/137/137
f 77/77/77 118/118/118 14/14/14
f 60/60/60 153/153/153 164/164/164
f 81/81/81 158/158/158 173/173/173
f 154/154/154 146/146/146 13/13/13
f 14/14/14 133/133/133 78/78/78
f 24/24/24 132/132/132 170/170/170
f 154/154/154 132/132/132 24/24/24
f 81/81/81 173/173/173 80/80/80
f 121/121/121 28/28/28 80/80/80
f 28/28/28 105/105/105 80/80/80
f 121/121/121 5/5/5 111/111/111
f 97/97/97 2/2/2 119/119/119
f 60/60/60 95/95/95 153/153/153
f 97/97/97 119/119/119 77/77/77
f 154/154/154 13/13/13 127/127/127
f 168/168/168 28/28/28 121/121/121
f 123/123/123 27/27/27 61/61/61
f 129/129/129 45/45/45 50/50/50
f 43/43/43 101/101/101 107/107/107
f 11/11/11 107/107/107 101/101/101
