# frame 000588 
# time 0.294500 
# name Cloth3D 
v -0.000000 0.000000 -0.000000
v 1.000000 0.000000 -0.000000
v -0.000000 1.000000 0.000000
v 1.000000 1.000000 0.000000
v 0.500741 0.500290 0.119657
v -0.000000 0.500000 0.000000
v 0.500000 1.000000 0.000000
v 1.000000 0.500000 0.000000
v 0.500000 -0.000000 0.000000
v 0.245712 0.755315 0.077021
v 0.756754 0.755507 0.077819
v 0.245002 0.244544 0.077221
v 0.755320 0.244922 0.076929
v 0.750000 0.000000 0.000000
v 0.250000 0.000000 0.000000
v 1.000000 0.750000 0.000000
v 1.000000 0.250000 0.000000
v 0.250000 1.000000 0.000000
v 0.750000 1.000000 0.000000
v 0.000000 0.250000 0.000000
v 0.000000 0.750000 -0.000000
v 0.362638 0.213981 0.083723
v 0.632748 0.775922 0.085003
v 1.000000 0.937500 0.000000
v 0.684046 0.694608 0.119929
v 0.879053 0.374142 0.050275
v 0.625659 0.124115 0.040652
v 0.631150 0.368970 0.119967
v 0.874999 0.125663 0.013176
v 0.374000 0.120590 0.049776
v 0.122823 0.122281 0.030594
v 0.492211 0.244913 0.094004
v 0.879555 0.626751 0.051092
v 0.631903 0.631298 0.119916
v 0.873935 0.873475 0.003813
v 0.373979 0.877342 0.046487
v 0.256162 0.602994 0.097911
v 0.123130 0.876982 0.026156
v 0.122233 0.625929 0.046047
v 0.625714 0.876422 0.042754
v 0.123933 0.374146 0.041547
v 0.248346 0.120737 0.043141
v 0.877883 0.751401 0.036127
v 0.878849 0.248658 0.041854
v 0.248384 0.878800 0.042790
v 0.750439 0.875416 0.029457
v 0.123796 0.248433 0.035121
v 0.123504 0.751296 0.036315
v 0.731090 0.615640 0.119941
v 0.124117 0.938863 0.013803
v 0.553040 0.707528 0.119929
v 0.877573 0.500372 0.048724
v 0.426086 0.720035 0.119938
v 0.242011 0.453878 0.095564
v 0.000000 0.375000 0.000000
v 0.499940 0.875095 0.042616
v 0.500800 0.630860 0.119865
v 0.244290 0.370906 0.093299
v 0.121122 0.499843 0.050925
v 0.370327 0.500128 0.119842
v 0.629252 0.244244 0.093205
v 0.499955 0.122622 0.046598
v 0.500407 0.369821 0.119994
v 0.000000 0.625000 0.000000
v 0.000000 0.875000 0.000000
v 0.000000 0.125000 0.000000
v 0.625000 1.000000 0.000000
v 0.875000 1.000000 0.000000
v 0.125000 1.000000 0.000000
v 0.375000 1.000000 0.000000
v 1.000000 0.375000 0.000000
v 1.000000 0.125000 0.000000
v 1.000000 0.875000 0.000000
v 1.000000 0.625000 0.000000
v 0.375000 0.000000 0.000000
v 0.125000 0.000000 0.000000
v 0.875000 0.000000 0.000000
v 0.625000 0.000000 0.000000
v 0.750950 0.123954 0.033695
v 0.631371 0.500323 0.119908
v 0.718647 0.488219 0.119929
v 0.061731 0.312087 0.020103
v 0.182847 0.436125 0.072584
v 0.183954 0.309663 0.063514
v 0.061456 0.437317 0.022960
v 0.687789 0.939498 0.023729
v 0.690203 0.815328 0.060716
v 0.562527 0.937832 0.021519
v 0.061546 0.687788 0.020684
v 0.184105 0.690109 0.063689
v 0.060910 0.562565 0.024495
v 0.186826 0.939306 0.018869
v 0.185133 0.815554 0.046792
v 0.062978 0.937279 -0.000292
v 0.435568 0.565567 0.119787
v 0.874656 0.811433 0.016353
v 0.937500 0.000000 -0.000000
v 0.309513 0.818764 0.072180
v 0.437331 0.937605 0.021369
v 0.936935 0.811873 0.005316
v 0.813907 0.812994 0.035027
v 0.937060 0.937014 -0.007879
v 0.937500 1.000000 0.000000
v 0.566243 0.565697 0.119722
v 0.712340 0.424278 0.119929
v 0.825299 0.593697 0.074064
v 0.819867 0.692087 0.073699
v 0.938933 0.562887 0.024516
v 0.490303 0.713693 0.119934
v 0.691920 0.588344 0.119939
v 0.435286 0.434982 0.119721
v 0.186457 0.058907 0.024850
v 0.061651 0.061640 0.011150
v 0.184614 0.183858 0.049075
v 0.312048 0.058936 0.027064
v 0.309863 0.181869 0.068117
v 0.437301 0.061505 0.022674
v 0.812474 0.062615 0.011215
v 0.937056 0.063026 -0.001945
v -0.000000 0.937500 0.000000
v 0.565956 0.434845 0.119936
v 0.525561 0.808732 0.076093
v 0.563673 0.184105 0.068906
v 0.690017 0.184279 0.062635
v 0.562596 0.061427 0.022785
v 0.940508 0.312196 0.026031
v 0.817794 0.309714 0.068476
v 0.939181 0.437504 0.025154
v 0.312152 0.939161 0.023040
v -0.000000 0.062500 -0.000000
v 0.814641 0.186415 0.040433
v 0.806821 0.369983 0.079041
v 0.687558 0.062727 0.016496
v 0.061469 0.124087 0.014993
v 0.938686 0.187375 0.015537
v 0.436530 0.182007 0.073799
v 0.060603 0.186660 0.020541
v 0.062500 1.000000 0.000000
v 0.939933 0.688011 0.023856
v 0.705484 0.360912 0.119929
v 0.062230 0.812869 0.014211
v 0.812088 0.936859 0.006961
v 0.182717 0.563484 0.072766
v 0.356329 0.325348 0.119929
v 0.334059 0.660555 0.119929
v 0.699354 0.291401 0.119942
v 0.301482 0.330636 0.119942
v 0.738520 0.689365 0.119942
v 0.340636 0.728518 0.119942
v 0.486335 0.312527 0.119929
v 0.308912 0.405516 0.119938
v 0.288129 0.324928 0.113454
v 0.327796 0.597042 0.119929
v 0.722082 0.291851 0.108175
v 0.936859 0.874080 -0.003092
v 0.434016 0.641036 0.119784
v 0.276342 0.662290 0.099509
v 0.724711 0.552335 0.119941
v 0.617369 0.701185 0.119929
v 0.315265 0.469713 0.119935
v 0.421358 0.318934 0.119929
v 0.359074 0.287370 0.107916
v 0.549133 0.306335 0.119929
v 0.321459 0.532770 0.119929
v 0.416077 0.250446 0.096538
v 0.424312 0.818479 0.069889
v 0.816688 0.481569 0.072626
v 1.000000 0.062500 -0.000000
v 0.370610 0.414452 0.119884
v 0.772345 0.422599 0.090298
v 0.239507 0.515670 0.094956
v 0.613847 0.299919 0.119936
v 1.000000 0.187500 0.000000
v 0.062500 0.000000 -0.000000
v 0.477066 0.768464 0.094954
v 0.556322 0.243365 0.092339
v 0.382874 0.773746 0.094811
vt 0.000000 0.000000
vt 1.000000 0.000000
vt 0.000000 1.000000
vt 1.000000 1.000000
vt 0.500000 0.500000
vt 0.000000 0.500000
vt 0.500000 1.000000
vt 1.000000 0.500000
vt 0.500000 0.000000
vt 0.250000 0.750000
vt 0.750000 0.750000
vt 0.250000 0.250000
vt 0.750000 0.250000
vt 0.750000 0.000000
vt 0.250000 0.000000
vt 1.000000 0.750000
vt 1.000000 0.250000
vt 0.250000 1.000000
vt 0.750000 1.000000
vt 0.000000 0.250000
vt 0.000000 0.750000
vt 0.365347 0.220303
vt 0.629073 0.770824
vt 1.000000 0.937500
vt 0.674044 0.685096
vt 0.875000 0.375000
vt 0.625000 0.125000
vt 0.625000 0.375000
vt 0.875000 0.125000
vt 0.375000 0.125000
vt 0.125000 0.125000
vt 0.492214 0.250470
vt 0.875000 0.625000
vt 0.625000 0.625000
vt 0.875000 0.875000
vt 0.375000 0.875000
vt 0.262101 0.599801
vt 0.125000 0.875000
vt 0.125000 0.625000
vt 0.625000 0.875000
vt 0.125000 0.375000
vt 0.250000 0.125000
vt 0.875000 0.750000
vt 0.875000 0.250000
vt 0.250000 0.875000
vt 0.750000 0.875000
vt 0.125000 0.250000
vt 0.125000 0.750000
vt 0.719591 0.609565
vt 0.125000 0.937500
vt 0.550081 0.698513
vt 0.875000 0.500000
vt 0.428724 0.709987
vt 0.248222 0.455442
vt 0.000000 0.375000
vt 0.500000 0.875000
vt 0.500000 0.625000
vt 0.250000 0.375000
vt 0.125000 0.500000
vt 0.375000 0.500000
vt 0.625000 0.250000
vt 0.500000 0.125000
vt 0.500000 0.375000
vt 0.000000 0.625000
vt 0.000000 0.875000
vt 0.000000 0.125000
vt 0.625000 1.000000
vt 0.875000 1.000000
vt 0.125000 1.000000
vt 0.375000 1.000000
vt 1.000000 0.375000
vt 1.000000 0.125000
vt 1.000000 0.875000
vt 1.000000 0.625000
vt 0.375000 0.000000
vt 0.125000 0.000000
vt 0.875000 0.000000
vt 0.625000 0.000000
vt 0.750000 0.125000
vt 0.625000 0.500000
vt 0.708663 0.488392
vt 0.062500 0.312500
vt 0.187500 0.437500
vt 0.187500 0.312500
vt 0.062500 0.437500
vt 0.687500 0.937500
vt 0.687500 0.812500
vt 0.562500 0.937500
vt 0.062500 0.687500
vt 0.187500 0.687500
vt 0.062500 0.562500
vt 0.187500 0.937500
vt 0.187500 0.812500
vt 0.062500 0.937500
vt 0.437500 0.562500
vt 0.875000 0.812500
vt 0.937500 0.000000
vt 0.312500 0.812500
vt 0.437500 0.937500
vt 0.937500 0.812500
vt 0.812500 0.812500
vt 0.937500 0.937500
vt 0.937500 1.000000
vt 0.562500 0.562500
vt 0.702695 0.427574
vt 0.819332 0.591237
vt 0.812500 0.687500
vt 0.937500 0.562500
vt 0.490038 0.704270
vt 0.682510 0.583771
vt 0.437500 0.437500
vt 0.187500 0.062500
vt 0.062500 0.062500
vt 0.187500 0.187500
vt 0.312500 0.062500
vt 0.312500 0.187500
vt 0.437500 0.062500
vt 0.812500 0.062500
vt 0.937500 0.062500
vt 0.000000 0.937500
vt 0.562500 0.437500
vt 0.525016 0.804189
vt 0.562500 0.187500
vt 0.687500 0.187500
vt 0.562500 0.062500
vt 0.937500 0.312500
vt 0.812500 0.312500
vt 0.937500 0.437500
vt 0.312500 0.937500
vt 0.000000 0.062500
vt 0.812500 0.187500
vt 0.800716 0.372483
vt 0.687500 0.062500
vt 0.062500 0.125000
vt 0.937500 0.187500
vt 0.437500 0.187500
vt 0.062500 0.187500
vt 0.062500 1.000000
vt 0.937500 0.687500
vt 0.696161 0.367489
vt 0.062500 0.812500
vt 0.812500 0.937500
vt 0.187500 0.562500
vt 0.362321 0.332708
vt 0.340439 0.653310
vt 0.689618 0.302546
vt 0.310517 0.338482
vt 0.724766 0.678815
vt 0.347373 0.717298
vt 0.486709 0.319993
vt 0.316648 0.409491
vt 0.296906 0.332149
vt 0.334039 0.592857
vt 0.713437 0.300753
vt 0.937500 0.875000
vt 0.436137 0.634590
vt 0.281585 0.657008
vt 0.714207 0.549523
vt 0.611357 0.692038
vt 0.322253 0.470919
vt 0.424356 0.326180
vt 0.364019 0.294291
vt 0.547014 0.314426
vt 0.327963 0.531361
vt 0.418341 0.256674
vt 0.425703 0.815414
vt 0.812755 0.481587
vt 1.000000 0.062500
vt 0.375653 0.417988
vt 0.766844 0.424637
vt 0.245672 0.515386
vt 0.608963 0.308934
vt 1.000000 0.187500
vt 0.062500 0.000000
vt 0.477574 0.762067
vt 0.554454 0.248535
vt 0.386728 0.766561
vn -0.092137 -0.092137 0.991474
vn -0.012822 0.012822 0.999836
vn -0.000816 0.000816 0.999999
vn -0.063336 -0.063336 0.995981
vn -0.000394 0.000554 1.000000
vn -0.364076 -0.006747 0.931345
vn -0.000880 0.329365 0.944202
vn 0.378705 0.004015 0.925509
vn 0.001704 -0.348004 0.937492
vn -0.297058 0.199908 0.933699
vn 0.251631 0.409714 0.876822
vn -0.243427 -0.230964 0.942019
vn 0.299907 -0.336507 0.892647
vn 0.018259 -0.216621 0.976085
vn -0.006727 -0.403381 0.915008
vn 0.257802 0.071514 0.963548
vn 0.313551 -0.033028 0.948997
vn -0.014628 0.330424 0.943719
vn 0.068595 0.245093 0.967070
vn -0.320745 0.003738 0.947158
vn -0.276361 0.024146 0.960751
vn -0.052744 -0.318829 0.946344
vn 0.077425 0.404113 0.911426
vn -0.126216 0.000000 0.992003
vn 0.030786 0.212248 0.976731
vn 0.361135 -0.023638 0.932214
vn 0.049038 -0.355411 0.933423
vn 0.000161 -0.000032 1.000000
vn 0.142033 -0.185493 0.972327
vn -0.006028 -0.357504 0.933892
vn -0.184542 -0.123911 0.974982
vn 0.007429 -0.356055 0.934436
vn 0.395296 0.009840 0.918501
vn -0.000500 -0.000678 1.000000
vn 0.170853 0.151065 0.973647
vn 0.023284 0.377525 0.925707
vn -0.312923 0.056378 0.948104
vn -0.201835 0.163191 0.965728
vn -0.350513 0.050625 0.935188
vn 0.041503 0.338475 0.940060
vn -0.356731 -0.053530 0.932672
vn -0.081499 -0.256759 0.963033
vn 0.289191 0.253334 0.923142
vn 0.282927 -0.147042 0.947803
vn -0.105587 0.301162 0.947709
vn 0.160896 0.255103 0.953433
vn -0.279371 -0.036024 0.959507
vn -0.300647 0.084621 0.949974
vn 0.153353 -0.010562 0.988115
vn -0.152933 0.212990 0.965011
vn 0.019722 0.205001 0.978563
vn 0.374101 -0.006949 0.927362
vn 0.022248 0.252537 0.967331
vn -0.343577 -0.009913 0.939072
vn -0.332971 -0.010243 0.942881
vn 0.002507 0.388351 0.921508
vn -0.000602 -0.001001 0.999999
vn -0.392840 -0.019147 0.919408
vn -0.377308 -0.014712 0.925971
vn 0.001608 -0.000007 0.999999
vn -0.010606 -0.429283 0.903108
vn 0.031277 -0.371234 0.928013
vn -0.000671 0.000298 1.000000
vn -0.349173 0.014923 0.936939
vn -0.093812 0.046418 0.994507
vn -0.259254 -0.024378 0.965501
vn -0.011582 0.352192 0.935856
vn 0.047793 -0.031936 0.998347
vn -0.087817 0.173335 0.980940
vn 0.008020 0.342421 0.939512
vn 0.395312 0.005217 0.918532
vn 0.113134 -0.046664 0.992483
vn -0.053317 0.061367 0.996690
vn 0.368334 0.001702 0.929692
vn 0.017705 -0.383188 0.923501
vn -0.043849 -0.269183 0.962090
vn 0.041766 -0.057097 0.997495
vn 0.024968 -0.298630 0.954042
vn 0.103056 -0.296641 0.949412
vn -0.000922 0.000657 0.999999
vn 0.218089 -0.022908 0.975660
vn -0.297795 -0.015926 0.954497
vn -0.371657 -0.042034 0.927418
vn -0.381925 -0.088169 0.919978
vn -0.354779 -0.027258 0.934553
vn 0.055018 0.282090 0.957809
vn 0.128984 0.381928 0.915147
vn -0.007394 0.327664 0.944765
vn -0.323765 0.038310 0.945362
vn -0.331087 0.090689 0.939232
vn -0.372169 0.013181 0.928071
vn -0.064759 0.264764 0.962136
vn -0.223366 0.171164 0.959589
vn -0.096018 0.078349 0.992291
vn 0.000661 -0.000503 1.000000
vn 0.230273 0.253949 0.939406
vn 0.000000 0.025624 0.999672
vn -0.098299 0.375706 0.921511
vn 0.011736 0.340629 0.940124
vn 0.131961 0.166332 0.977200
vn 0.256976 0.301496 0.918185
vn -0.009284 -0.009263 0.999914
vn 0.000000 -0.126116 0.992016
vn -0.000884 -0.000818 0.999999
vn 0.265191 -0.028045 0.963788
vn 0.408483 -0.005506 0.912749
vn 0.403476 0.161116 0.900693
vn 0.381448 -0.001766 0.924389
vn 0.023591 0.234191 0.971904
vn -0.000329 -0.000080 1.000000
vn 0.000696 0.001140 0.999999
vn -0.055431 -0.292409 0.954685
vn -0.130383 -0.116239 0.984626
vn -0.200206 -0.150535 0.968120
vn -0.006056 -0.363552 0.931554
vn -0.094100 -0.300287 0.949196
vn 0.016056 -0.369578 0.929061
vn 0.075071 -0.189474 0.979012
vn 0.027594 -0.033547 0.999056
vn -0.001630 -0.000000 0.999999
vn -0.000858 0.001517 0.999999
vn 0.006979 0.421663 0.906726
vn 0.027591 -0.376137 0.926153
vn 0.094631 -0.403064 0.910266
vn 0.026223 -0.335698 0.941605
vn 0.358898 -0.034075 0.932755
vn 0.357658 -0.115000 0.926745
vn 0.379752 0.008560 0.925049
vn -0.007708 0.356887 0.934116
vn -0.199298 -0.016624 0.979798
vn 0.198482 -0.281318 0.938864
vn 0.371101 -0.033049 0.928004
vn 0.034599 -0.289467 0.956562
vn -0.237523 -0.067713 0.969019
vn 0.228223 -0.090543 0.969390
vn 0.006965 -0.341745 0.939767
vn -0.264191 -0.039187 0.963674
vn 0.000000 0.001636 0.999999
vn 0.357913 0.049134 0.932461
vn 0.197967 -0.018079 0.980042
vn -0.250275 0.060059 0.966310
vn 0.115466 0.134770 0.984126
vn -0.350788 0.039482 0.935622
vn -0.020319 -0.204845 0.978583
vn -0.200706 0.019910 0.979449
vn 0.313406 -0.169875 0.934301
vn -0.267491 -0.222953 0.937412
vn 0.197060 0.224681 0.954298
vn -0.114047 0.239545 0.964164
vn -0.012048 -0.163846 0.986412
vn -0.172846 0.007271 0.984922
vn -0.330188 -0.226413 0.916359
vn -0.179662 0.024229 0.983430
vn 0.431025 -0.150265 0.889740
vn 0.034242 0.108370 0.993521
vn -0.000136 -0.000770 1.000000
vn -0.328086 0.068354 0.942172
vn 0.149190 -0.015237 0.988691
vn 0.020074 0.198469 0.979901
vn -0.137539 0.010868 0.990437
vn -0.016720 -0.191712 0.981309
vn -0.045061 -0.318058 0.947000
vn -0.015327 -0.227157 0.973738
vn -0.133856 0.012927 0.990916
vn -0.010561 -0.320070 0.947335
vn 0.016287 0.436092 0.899755
vn 0.386798 -0.020034 0.921947
vn -0.025658 -0.000000 0.999671
vn 0.001369 0.000544 0.999999
vn 0.394826 -0.009395 0.918708
vn -0.326153 0.012528 0.945234
vn -0.018811 -0.242928 0.969862
vn 0.250494 0.000000 0.968118
vn -0.000000 -0.182733 0.983163
vn 0.020223 0.426437 0.904291
vn -0.003198 -0.389138 0.921174
vn 0.027703 0.460714 0.887116
f 129/129/129 99/99/99 70/70/70
f 112/112/112 31/31/31 113/113/113
f 170/170/170 132/132/132 167/167/167
f 26/26/26 167/167/167 132/132/132
f 58/58/58 152/152/152 147/147/147
f 160/160/160 54/54/54 151/151/151
f 173/173/173 17/17/17 135/135/135
f 129/129/129 36/36/36 99/99/99
f 3/3/3 120/120/120 94/94/94
f 152/152/152 12/12/12 162/162/162
f 11/11/11 25/25/25 148/148/148
f 80/80/80 110/110/110 104/104/104
f 115/115/115 112/112/112 15/15/15
f 163/163/163 172/172/172 28/28/28
f 114/114/114 137/137/137 31/31/31
f 76/76/76 112/112/112 113/113/113
f 58/58/58 151/151/151 54/54/54
f 15/15/15 112/112/112 76/76/76
f 115/115/115 15/15/15 75/75/75
f 20/20/20 137/137/137 82/82/82
f 113/113/113 134/134/134 130/130/130
f 148/148/148 25/25/25 49/49/49
f 22/22/22 30/30/30 136/136/136
f 47/47/47 82/82/82 137/137/137
f 16/16/16 73/73/73 100/100/100
f 165/165/165 22/22/22 136/136/136
f 21/21/21 64/64/64 89/89/89
f 83/83/83 58/58/58 54/54/54
f 57/57/57 95/95/95 104/104/104
f 116/116/116 30/30/30 22/22/22
f 42/42/42 112/112/112 115/115/115
f 66/66/66 130/130/130 134/134/134
f 140/140/140 105/105/105 28/28/28
f 155/155/155 100/100/100 73/73/73
f 129/129/129 70/70/70 18/18/18
f 63/63/63 28/28/28 121/121/121
f 165/165/165 162/162/162 22/22/22
f 114/114/114 31/31/31 42/42/42
f 150/150/150 165/165/165 32/32/32
f 37/37/37 153/153/153 157/157/157
f 164/164/164 153/153/153 37/37/37
f 39/39/39 90/90/90 89/89/89
f 61/61/61 172/172/172 176/176/176
f 139/139/139 16/16/16 43/43/43
f 32/32/32 165/165/165 136/136/136
f 161/161/161 144/144/144 162/162/162
f 51/51/51 159/159/159 23/23/23
f 142/142/142 46/46/46 35/35/35
f 78/78/78 125/125/125 9/9/9
f 121/121/121 80/80/80 5/5/5
f 60/60/60 95/95/95 153/153/153
f 169/169/169 151/151/151 144/144/144
f 9/9/9 125/125/125 117/117/117
f 175/175/175 53/53/53 109/109/109
f 162/162/162 165/165/165 161/161/161
f 64/64/64 91/91/91 89/89/89
f 60/60/60 169/169/169 111/111/111
f 50/50/50 92/92/92 69/69/69
f 63/63/63 161/161/161 150/150/150
f 25/25/25 159/159/159 34/34/34
f 81/81/81 170/170/170 167/167/167
f 30/30/30 115/115/115 117/117/117
f 84/84/84 152/152/152 58/58/58
f 51/51/51 109/109/109 57/57/57
f 34/34/34 159/159/159 51/51/51
f 11/11/11 148/148/148 107/107/107
f 5/5/5 104/104/104 95/95/95
f 23/23/23 87/87/87 40/40/40
f 38/38/38 94/94/94 141/141/141
f 29/29/29 119/119/119 135/135/135
f 72/72/72 135/135/135 119/119/119
f 84/84/84 12/12/12 152/152/152
f 100/100/100 43/43/43 16/16/16
f 47/47/47 137/137/137 114/114/114
f 14/14/14 118/118/118 133/133/133
f 56/56/56 122/122/122 40/40/40
f 65/65/65 141/141/141 94/94/94
f 20/20/20 66/66/66 137/137/137
f 55/55/55 20/20/20 82/82/82
f 59/59/59 91/91/91 85/85/85
f 65/65/65 21/21/21 141/141/141
f 6/6/6 85/85/85 91/91/91
f 94/94/94 138/138/138 3/3/3
f 58/58/58 83/83/83 84/84/84
f 48/48/48 89/89/89 90/90/90
f 55/55/55 82/82/82 85/85/85
f 92/92/92 18/18/18 69/69/69
f 94/94/94 69/69/69 138/138/138
f 127/127/127 44/44/44 26/26/26
f 167/167/167 106/106/106 158/158/158
f 126/126/126 26/26/26 44/44/44
f 106/106/106 167/167/167 52/52/52
f 157/157/157 90/90/90 37/37/37
f 127/127/127 13/13/13 44/44/44
f 101/101/101 11/11/11 43/43/43
f 81/81/81 167/167/167 158/158/158
f 98/98/98 166/166/166 36/36/36
f 164/164/164 171/171/171 160/160/160
f 155/155/155 35/35/35 100/100/100
f 156/156/156 145/145/145 153/153/153
f 162/162/162 12/12/12 22/22/22
f 116/116/116 22/22/22 12/12/12
f 118/118/118 29/29/29 79/79/79
f 40/40/40 86/86/86 88/88/88
f 149/149/149 98/98/98 10/10/10
f 131/131/131 79/79/79 29/29/29
f 26/26/26 128/128/128 52/52/52
f 23/23/23 11/11/11 87/87/87
f 97/97/97 119/119/119 77/77/77
f 145/145/145 53/53/53 149/149/149
f 41/41/41 84/84/84 83/83/83
f 48/48/48 38/38/38 141/141/141
f 168/168/168 72/72/72 119/119/119
f 169/169/169 60/60/60 160/160/160
f 56/56/56 88/88/88 99/99/99
f 7/7/7 99/99/99 88/88/88
f 164/164/164 160/160/160 60/60/60
f 122/122/122 175/175/175 51/51/51
f 163/163/163 176/176/176 172/172/172
f 93/93/93 38/38/38 48/48/48
f 23/23/23 25/25/25 11/11/11
f 96/96/96 100/100/100 35/35/35
f 1/1/1 174/174/174 113/113/113
f 25/25/25 23/23/23 159/159/159
f 48/48/48 141/141/141 89/89/89
f 21/21/21 89/89/89 141/141/141
f 147/147/147 144/144/144 151/151/151
f 109/109/109 51/51/51 175/175/175
f 6/6/6 91/91/91 64/64/64
f 63/63/63 111/111/111 161/161/161
f 32/32/32 136/136/136 123/123/123
f 6/6/6 55/55/55 85/85/85
f 154/154/154 127/127/127 132/132/132
f 155/155/155 102/102/102 35/35/35
f 143/143/143 90/90/90 39/39/39
f 102/102/102 155/155/155 73/73/73
f 75/75/75 117/117/117 115/115/115
f 160/160/160 151/151/151 169/169/169
f 59/59/59 143/143/143 91/91/91
f 111/111/111 169/169/169 161/161/161
f 87/87/87 46/46/46 40/40/40
f 39/39/39 91/91/91 143/143/143
f 111/111/111 63/63/63 5/5/5
f 150/150/150 161/161/161 165/165/165
f 125/125/125 27/27/27 62/62/62
f 72/72/72 173/173/173 135/135/135
f 37/37/37 90/90/90 143/143/143
f 37/37/37 143/143/143 171/171/171
f 97/97/97 2/2/2 119/119/119
f 157/157/157 10/10/10 90/90/90
f 92/92/92 38/38/38 45/45/45
f 49/49/49 158/158/158 106/106/106
f 145/145/145 157/157/157 153/153/153
f 34/34/34 51/51/51 57/57/57
f 119/119/119 29/29/29 118/118/118
f 30/30/30 117/117/117 136/136/136
f 105/105/105 170/170/170 81/81/81
f 110/110/110 80/80/80 158/158/158
f 156/156/156 57/57/57 109/109/109
f 156/156/156 53/53/53 145/145/145
f 114/114/114 12/12/12 47/47/47
f 93/93/93 45/45/45 38/38/38
f 123/123/123 62/62/62 27/27/27
f 5/5/5 95/95/95 111/111/111
f 95/95/95 57/57/57 156/156/156
f 163/163/163 150/150/150 32/32/32
f 60/60/60 111/111/111 95/95/95
f 166/166/166 56/56/56 36/36/36
f 56/56/56 99/99/99 36/36/36
f 146/146/146 172/172/172 61/61/61
f 34/34/34 57/57/57 104/104/104
f 145/145/145 149/149/149 157/157/157
f 9/9/9 117/117/117 75/75/75
f 78/78/78 133/133/133 125/125/125
f 42/42/42 115/115/115 116/116/116
f 95/95/95 156/156/156 153/153/153
f 82/82/82 47/47/47 41/41/41
f 10/10/10 98/98/98 93/93/93
f 83/83/83 54/54/54 171/171/171
f 96/96/96 43/43/43 100/100/100
f 37/37/37 171/171/171 164/164/164
f 77/77/77 119/119/119 118/118/118
f 120/120/120 65/65/65 94/94/94
f 45/45/45 93/93/93 98/98/98
f 169/169/169 144/144/144 161/161/161
f 84/84/84 41/41/41 47/47/47
f 144/144/144 147/147/147 162/162/162
f 112/112/112 42/42/42 31/31/31
f 63/63/63 163/163/163 28/28/28
f 163/163/163 63/63/63 150/150/150
f 167/167/167 26/26/26 52/52/52
f 130/130/130 1/1/1 113/113/113
f 106/106/106 107/107/107 49/49/49
f 154/154/154 132/132/132 140/140/140
f 80/80/80 104/104/104 5/5/5
f 27/27/27 124/124/124 123/123/123
f 30/30/30 116/116/116 115/115/115
f 110/110/110 25/25/25 34/34/34
f 176/176/176 123/123/123 61/61/61
f 43/43/43 107/107/107 139/139/139
f 81/81/81 158/158/158 80/80/80
f 61/61/61 123/123/123 124/124/124
f 33/33/33 52/52/52 108/108/108
f 124/124/124 27/27/27 79/79/79
f 139/139/139 33/33/33 108/108/108
f 143/143/143 59/59/59 171/171/171
f 33/33/33 106/106/106 52/52/52
f 83/83/83 59/59/59 41/41/41
f 133/133/133 79/79/79 27/27/27
f 103/103/103 68/68/68 102/102/102
f 107/107/107 106/106/106 33/33/33
f 83/83/83 171/171/171 59/59/59
f 158/158/158 49/49/49 110/110/110
f 46/46/46 87/87/87 101/101/101
f 62/62/62 136/136/136 117/117/117
f 110/110/110 49/49/49 25/25/25
f 124/124/124 146/146/146 61/61/61
f 140/140/140 170/170/170 105/105/105
f 149/149/149 10/10/10 157/157/157
f 54/54/54 160/160/160 171/171/171
f 154/154/154 140/140/140 146/146/146
f 140/140/140 132/132/132 170/170/170
f 135/135/135 44/44/44 29/29/29
f 74/74/74 139/139/139 108/108/108
f 4/4/4 103/103/103 102/102/102
f 7/7/7 70/70/70 99/99/99
f 131/131/131 29/29/29 44/44/44
f 90/90/90 10/10/10 48/48/48
f 68/68/68 142/142/142 102/102/102
f 19/19/19 86/86/86 142/142/142
f 142/142/142 35/35/35 102/102/102
f 92/92/92 50/50/50 38/38/38
f 31/31/31 134/134/134 113/113/113
f 46/46/46 142/142/142 86/86/86
f 107/107/107 43/43/43 11/11/11
f 56/56/56 166/166/166 122/122/122
f 11/11/11 101/101/101 87/87/87
f 148/148/148 49/49/49 107/107/107
f 105/105/105 81/81/81 80/80/80
f 152/152/152 162/162/162 147/147/147
f 147/147/147 151/151/151 58/58/58
f 122/122/122 51/51/51 23/23/23
f 79/79/79 131/131/131 124/124/124
f 13/13/13 124/124/124 131/131/131
f 2/2/2 168/168/168 119/119/119
f 131/131/131 44/44/44 13/13/13
f 36/36/36 129/129/129 98/98/98
f 45/45/45 98/98/98 129/129/129
f 67/67/67 7/7/7 88/88/88
f 19/19/19 67/67/67 86/86/86
f 68/68/68 19/19/19 142/142/142
f 93/93/93 48/48/48 10/10/10
f 42/42/42 116/116/116 114/114/114
f 24/24/24 4/4/4 102/102/102
f 73/73/73 24/24/24 102/102/102
f 41/41/41 85/85/85 82/82/82
f 74/74/74 16/16/16 139/139/139
f 8/8/8 74/74/74 108/108/108
f 33/33/33 139/139/139 107/107/107
f 8/8/8 108/108/108 128/128/128
f 86/86/86 40/40/40 46/46/46
f 146/146/146 28/28/28 172/172/172
f 96/96/96 35/35/35 101/101/101
f 121/121/121 5/5/5 63/63/63
f 52/52/52 128/128/128 108/108/108
f 128/128/128 71/71/71 8/8/8
f 85/85/85 41/41/41 59/59/59
f 50/50/50 94/94/94 38/38/38
f 126/126/126 17/17/17 71/71/71
f 62/62/62 117/117/117 125/125/125
f 26/26/26 126/126/126 128/128/128
f 39/39/39 89/89/89 91/91/91
f 71/71/71 128/128/128 126/126/126
f 132/132/132 127/127/127 26/26/26
f 44/44/44 135/135/135 126/126/126
f 174/174/174 76/76/76 113/113/113
f 124/124/124 13/13/13 146/146/146
f 43/43/43 96/96/96 101/101/101
f 27/27/27 125/125/125 133/133/133
f 101/101/101 35/35/35 46/46/46
f 62/62/62 123/123/123 136/136/136
f 12/12/12 114/114/114 116/116/116
f 66/66/66 134/134/134 137/137/137
f 17/17/17 126/126/126 135/135/135
f 79/79/79 133/133/133 118/118/118
f 67/67/67 88/88/88 86/86/86
f 34/34/34 104/104/104 110/110/110
f 176/176/176 163/163/163 32/32/32
f 134/134/134 31/31/31 137/137/137
f 77/77/77 118/118/118 14/14/14
f 60/60/60 153/153/153 164/164/164
f 18/18/18 92/92/92 129/129/129
f 154/154/154 146/146/146 13/13/13
f 14/14/14 133/133/133 78/78/78
f 84/84/84 47/47/47 12/12/12
f 154/154/154 13/13/13 127/127/127
f 45/45/45 129/129/129 92/92/92
f 121/121/121 28/28/28 80/80/80
f 28/28/28 105/105/105 80/80/80
f 94/94/94 50/50/50 69/69/69
f 109/109/109 53/53/53 156/156/156
f 140/140/140 28/28/28 146/146/146
f 177/177/177 166/166/166 98/98/98
f 175/175/175 122/122/122 166/166/166
f 123/123/123 176/176/176 32/32/32
f 122/122/122 23/23/23 40/40/40
f 88/88/88 56/56/56 40/40/40
f 149/149/149 177/177/177 98/98/98
f 177/177/177 149/149/149 53/53/53
f 166/166/166 177/177/177 175/175/175
f 53/53/53 175/175/175 177/177/177
