# frame 000539 
# time 0.270000 
# name Cloth3D 
v -0.000000 0.000000 -0.000000
v 1.000000 0.000000 -0.000000
v -0.000000 1.000000 0.000000
v 1.000000 1.000000 0.000000
v 0.501465 0.501032 0.130856
v -0.000000 0.500000 0.000000
v 0.500000 1.000000 0.000000
v 1.000000 0.500000 0.000000
v 0.500000 -0.000000 0.000000
v 0.245437 0.756851 0.082577
v 0.758562 0.758268 0.091347
v 0.244760 0.246557 0.075765
v 0.756648 0.243760 0.085170
v 0.750000 0.000000 0.000000
v 0.250000 0.000000 0.000000
v 1.000000 0.750000 0.000000
v 1.000000 0.250000 0.000000
v 0.250000 1.000000 0.000000
v 0.750000 1.000000 0.000000
v 0.000000 0.250000 0.000000
v 0.000000 0.750000 -0.000000
v 0.363259 0.217892 0.074514
v 0.633844 0.779406 0.093855
v 0.716256 0.358101 0.115192
v 0.681143 0.678682 0.119929
v 0.880595 0.373790 0.053951
v 0.626827 0.119296 0.055515
v 0.631441 0.369913 0.120605
v 0.878982 0.121276 0.037660
v 0.374489 0.124122 0.041607
v 0.123111 0.123797 0.026018
v 0.492800 0.245236 0.095225
v 0.881013 0.627107 0.056359
v 0.632387 0.631326 0.121898
v 0.878767 0.878561 0.034797
v 0.373822 0.883843 0.061363
v 0.258814 0.603500 0.091987
v 0.122047 0.878527 0.035540
v 0.121929 0.626710 0.048772
v 0.626961 0.880370 0.053378
v 0.120701 0.374232 0.050826
v 0.248653 0.124172 0.035248
v 0.879710 0.753055 0.048035
v 0.880831 0.247335 0.050317
v 0.248061 0.880273 0.047878
v 0.753462 0.881344 0.051629
v 0.119295 0.248139 0.048538
v 0.119370 0.753070 0.051917
v 0.300628 0.722130 0.100232
v 0.310891 0.881556 0.053848
v 0.553548 0.707320 0.119929
v 0.882151 0.500469 0.059288
v 0.363200 0.724231 0.119962
v 0.242605 0.454628 0.095963
v 0.000000 0.375000 0.000000
v 0.500511 0.881805 0.058399
v 0.501678 0.631733 0.124351
v 0.240733 0.371884 0.104268
v 0.122074 0.500276 0.049397
v 0.370957 0.501099 0.122544
v 0.629913 0.241014 0.105845
v 0.500679 0.122448 0.048352
v 0.500918 0.370582 0.122981
v 0.000000 0.625000 0.000000
v 0.000000 0.875000 0.000000
v 0.000000 0.125000 0.000000
v 0.625000 1.000000 0.000000
v 0.875000 1.000000 0.000000
v 0.125000 1.000000 0.000000
v 0.375000 1.000000 0.000000
v 1.000000 0.375000 0.000000
v 1.000000 0.125000 0.000000
v 1.000000 0.875000 0.000000
v 1.000000 0.625000 0.000000
v 0.375000 0.000000 0.000000
v 0.125000 0.000000 0.000000
v 0.875000 0.000000 0.000000
v 0.625000 0.000000 0.000000
v 0.753115 0.119043 0.051684
v 0.632140 0.500877 0.125755
v 0.719983 0.488268 0.119929
v 0.058495 0.312112 0.028739
v 0.183032 0.436640 0.073587
v 0.180331 0.309988 0.074024
v 0.060555 0.437476 0.025725
v 0.688656 0.940250 0.026214
v 0.692243 0.820053 0.075959
v 0.563106 0.942326 0.032005
v 0.059538 0.688514 0.027460
v 0.182342 0.691411 0.072077
v 0.061631 0.562969 0.023295
v 0.186368 0.941242 0.025820
v 0.183204 0.817764 0.058737
v 0.061120 0.938993 0.014961
v 0.436440 0.566481 0.126255
v 0.880262 0.816347 0.044990
v 0.937500 0.000000 -0.000000
v 0.309192 0.822021 0.080288
v 0.437385 0.942307 0.032123
v 0.940831 0.814062 0.024646
v 0.818838 0.818940 0.062879
v 0.938315 0.938045 0.009209
v 0.937500 1.000000 0.000000
v 0.567065 0.566347 0.127750
v 0.706002 0.425981 0.119929
v 0.828173 0.594186 0.082448
v 0.820315 0.692165 0.079284
v 0.941561 0.563116 0.030824
v 0.492106 0.721088 0.119934
v 0.880571 0.690254 0.053385
v 0.435797 0.435862 0.125468
v 0.187065 0.062129 0.015170
v 0.062131 0.062349 0.007248
v 0.183599 0.184883 0.050600
v 0.312205 0.061237 0.022266
v 0.310215 0.185494 0.060119
v 0.437706 0.062730 0.019843
v 0.814164 0.058977 0.025671
v 0.939476 0.060594 0.017018
v -0.000000 0.937500 0.000000
v 0.566590 0.435587 0.126310
v 0.526573 0.814169 0.088801
v 0.564613 0.181963 0.076854
v 0.691499 0.180879 0.075739
v 0.563095 0.060274 0.026713
v 0.939584 0.311766 0.024589
v 0.819176 0.309210 0.073308
v 0.940529 0.437432 0.028317
v 0.311900 0.941101 0.027870
v -0.000000 0.062500 -0.000000
v 0.817862 0.182415 0.059671
v 0.809102 0.369878 0.084137
v 0.688572 0.059825 0.026606
v 0.062012 0.125026 0.010541
v 0.941278 0.186024 0.025986
v 0.437066 0.184496 0.068546
v 0.059699 0.186862 0.022112
v 0.062500 1.000000 0.000000
v 0.940231 0.688597 0.026780
v 0.691533 0.364272 0.119929
v 0.060182 0.813838 0.022933
v 0.813991 0.940208 0.022854
v 0.184448 0.564078 0.069415
v 0.359260 0.341221 0.119929
v 0.348587 0.658973 0.119929
v 0.671298 0.271123 0.119942
v 0.281195 0.358683 0.119942
v 0.758806 0.661317 0.119942
v 0.368683 0.748805 0.119942
v 0.486636 0.312630 0.119929
v 0.582759 0.839984 0.077491
v 0.289061 0.327221 0.109841
v 0.334663 0.596935 0.119929
v 0.721494 0.293496 0.106329
v 0.941077 0.877028 0.022811
v 0.435047 0.641908 0.122217
v 0.277124 0.662905 0.099161
v 0.733748 0.550773 0.119941
v 0.616484 0.693195 0.119929
v 0.306687 0.472177 0.119935
v 0.422889 0.326938 0.119929
v 0.359902 0.290566 0.100397
v 0.548293 0.298791 0.119929
v 0.320544 0.534029 0.119929
v 0.416851 0.253347 0.090164
v 0.424474 0.825697 0.086707
v 0.821258 0.481690 0.082754
v 1.000000 0.062500 -0.000000
v 0.370894 0.415545 0.121229
v 0.776074 0.422793 0.098132
v 0.241380 0.516315 0.091480
v 0.676739 0.296630 0.119937
v 0.692698 0.588255 0.120193
v 1.000000 0.937500 0.000000
vt 0.000000 0.000000
vt 1.000000 0.000000
vt 0.000000 1.000000
vt 1.000000 1.000000
vt 0.500000 0.500000
vt 0.000000 0.500000
vt 0.500000 1.000000
vt 1.000000 0.500000
vt 0.500000 0.000000
vt 0.250000 0.750000
vt 0.750000 0.750000
vt 0.250000 0.250000
vt 0.750000 0.250000
vt 0.750000 0.000000
vt 0.250000 0.000000
vt 1.000000 0.750000
vt 1.000000 0.250000
vt 0.250000 1.000000
vt 0.750000 1.000000
vt 0.000000 0.250000
vt 0.000000 0.750000
vt 0.365347 0.220303
vt 0.629073 0.770824
vt 0.706846 0.363401
vt 0.671581 0.670673
vt 0.875000 0.375000
vt 0.625000 0.125000
vt 0.625000 0.375000
vt 0.875000 0.125000
vt 0.375000 0.125000
vt 0.125000 0.125000
vt 0.492214 0.250470
vt 0.875000 0.625000
vt 0.625000 0.625000
vt 0.875000 0.875000
vt 0.375000 0.875000
vt 0.262101 0.599801
vt 0.125000 0.875000
vt 0.125000 0.625000
vt 0.625000 0.875000
vt 0.125000 0.375000
vt 0.250000 0.125000
vt 0.875000 0.750000
vt 0.875000 0.250000
vt 0.250000 0.875000
vt 0.750000 0.875000
vt 0.125000 0.250000
vt 0.125000 0.750000
vt 0.304602 0.713891
vt 0.312500 0.875000
vt 0.549990 0.697732
vt 0.875000 0.500000
vt 0.367617 0.712728
vt 0.248222 0.455442
vt 0.000000 0.375000
vt 0.500000 0.875000
vt 0.500000 0.625000
vt 0.250000 0.375000
vt 0.125000 0.500000
vt 0.375000 0.500000
vt 0.625000 0.250000
vt 0.500000 0.125000
vt 0.500000 0.375000
vt 0.000000 0.625000
vt 0.000000 0.875000
vt 0.000000 0.125000
vt 0.625000 1.000000
vt 0.875000 1.000000
vt 0.125000 1.000000
vt 0.375000 1.000000
vt 1.000000 0.375000
vt 1.000000 0.125000
vt 1.000000 0.875000
vt 1.000000 0.625000
vt 0.375000 0.000000
vt 0.125000 0.000000
vt 0.875000 0.000000
vt 0.625000 0.000000
vt 0.750000 0.125000
vt 0.625000 0.500000
vt 0.709457 0.488192
vt 0.062500 0.312500
vt 0.187500 0.437500
vt 0.187500 0.312500
vt 0.062500 0.437500
vt 0.687500 0.937500
vt 0.687500 0.812500
vt 0.562500 0.937500
vt 0.062500 0.687500
vt 0.187500 0.687500
vt 0.062500 0.562500
vt 0.187500 0.937500
vt 0.187500 0.812500
vt 0.062500 0.937500
vt 0.437500 0.562500
vt 0.875000 0.812500
vt 0.937500 0.000000
vt 0.312500 0.812500
vt 0.437500 0.937500
vt 0.937500 0.812500
vt 0.812500 0.812500
vt 0.937500 0.937500
vt 0.937500 1.000000
vt 0.562500 0.562500
vt 0.696375 0.428539
vt 0.819332 0.591237
vt 0.812500 0.687500
vt 0.937500 0.562500
vt 0.491050 0.710510
vt 0.875000 0.687500
vt 0.437500 0.437500
vt 0.187500 0.062500
vt 0.062500 0.062500
vt 0.187500 0.187500
vt 0.312500 0.062500
vt 0.312500 0.187500
vt 0.437500 0.062500
vt 0.812500 0.062500
vt 0.937500 0.062500
vt 0.000000 0.937500
vt 0.562500 0.437500
vt 0.525016 0.804189
vt 0.562500 0.187500
vt 0.687500 0.187500
vt 0.562500 0.062500
vt 0.937500 0.312500
vt 0.812500 0.312500
vt 0.937500 0.437500
vt 0.312500 0.937500
vt 0.000000 0.062500
vt 0.812500 0.187500
vt 0.800716 0.372483
vt 0.687500 0.062500
vt 0.062500 0.125000
vt 0.937500 0.187500
vt 0.437500 0.187500
vt 0.062500 0.187500
vt 0.062500 1.000000
vt 0.937500 0.687500
vt 0.682709 0.369645
vt 0.062500 0.812500
vt 0.812500 0.937500
vt 0.187500 0.562500
vt 0.364725 0.346479
vt 0.353001 0.651159
vt 0.663622 0.281753
vt 0.291270 0.363899
vt 0.744518 0.653720
vt 0.373090 0.735777
vt 0.486641 0.319292
vt 0.580205 0.830830
vt 0.296906 0.332149
vt 0.339588 0.591931
vt 0.713437 0.300753
vt 0.937500 0.875000
vt 0.436137 0.634590
vt 0.281585 0.657008
vt 0.722151 0.548245
vt 0.610123 0.684396
vt 0.313691 0.472194
vt 0.425480 0.332796
vt 0.364019 0.294291
vt 0.545845 0.306490
vt 0.326387 0.531586
vt 0.418341 0.256674
vt 0.425703 0.815414
vt 0.812755 0.481587
vt 1.000000 0.062500
vt 0.375653 0.417988
vt 0.766844 0.424637
vt 0.245672 0.515386
vt 0.668762 0.305698
vt 0.682510 0.583771
vt 1.000000 0.937500
vn -0.072692 -0.036346 0.996692
vn 0.138870 -0.138870 0.980525
vn -0.118820 0.118820 0.985781
vn 0.077976 0.077976 0.993901
vn -0.013038 -0.007635 0.999886
vn -0.370838 0.010070 0.928643
vn 0.001617 0.483190 0.875514
vn 0.448997 -0.011464 0.893460
vn -0.029613 -0.357898 0.933291
vn -0.220297 0.160857 0.962078
vn 0.201296 0.259332 0.944577
vn -0.149008 -0.278846 0.948705
vn 0.271132 -0.206246 0.940186
vn 0.002822 -0.403604 0.914930
vn -0.028257 -0.289903 0.956639
vn 0.401218 0.007103 0.915955
vn 0.390268 0.007871 0.920667
vn -0.008620 0.392091 0.919886
vn 0.011332 0.384557 0.923032
vn -0.395849 -0.027083 0.917916
vn -0.387582 0.018565 0.921648
vn -0.063859 -0.332027 0.941106
vn 0.066007 0.318238 0.945710
vn 0.227379 -0.054241 0.972295
vn 0.033747 0.118100 0.992428
vn 0.397291 -0.043363 0.916667
vn -0.000166 -0.389968 0.920828
vn 0.017523 -0.020282 0.999641
vn 0.167244 -0.172697 0.970673
vn -0.038557 -0.329280 0.943445
vn -0.168685 -0.184920 0.968168
vn -0.084534 -0.349560 0.933093
vn 0.411627 0.042838 0.910345
vn 0.027066 0.031473 0.999138
vn 0.204495 0.197398 0.958757
vn -0.060272 0.410897 0.909687
vn -0.323718 0.015901 0.946020
vn -0.184801 0.173726 0.967299
vn -0.344665 -0.022303 0.938461
vn 0.073058 0.390515 0.917693
vn -0.376368 0.021803 0.926214
vn -0.062345 -0.281909 0.957413
vn 0.350986 0.064526 0.934155
vn 0.319721 -0.055365 0.945893
vn -0.098968 0.342239 0.934386
vn 0.065187 0.347663 0.935351
vn -0.284822 -0.122887 0.950671
vn -0.310038 0.060640 0.948788
vn -0.271429 0.118971 0.955077
vn -0.111825 0.401830 0.908861
vn 0.036672 0.164261 0.985735
vn 0.402460 -0.021982 0.915174
vn -0.195893 0.045909 0.979550
vn -0.368032 0.076614 0.926651
vn -0.402697 0.015005 0.915210
vn 0.012079 0.412143 0.911039
vn -0.008932 0.049806 0.998719
vn -0.366050 -0.073021 0.927726
vn -0.357888 0.017311 0.933604
vn -0.048816 -0.001258 0.998807
vn -0.036534 -0.384559 0.922377
vn -0.062342 -0.369322 0.927208
vn -0.004487 -0.049232 0.998777
vn -0.386146 -0.018777 0.922246
vn -0.283525 0.025098 0.958637
vn -0.186595 -0.055493 0.980868
vn 0.021531 0.443408 0.896061
vn 0.043768 0.241525 0.969407
vn -0.034723 0.302608 0.952482
vn -0.016502 0.457602 0.889004
vn 0.402911 -0.014658 0.915122
vn 0.328092 -0.028315 0.944221
vn 0.313158 0.068537 0.947225
vn 0.441950 0.015746 0.896901
vn 0.012628 -0.318883 0.947710
vn -0.032514 -0.173015 0.984382
vn 0.027609 -0.326479 0.944801
vn -0.001463 -0.416286 0.909233
vn 0.068891 -0.325252 0.943115
vn 0.052508 -0.004620 0.998610
vn 0.193849 -0.032604 0.980490
vn -0.388929 -0.002167 0.921265
vn -0.372963 0.059964 0.925907
vn -0.310750 -0.123779 0.942397
vn -0.378545 0.009059 0.925539
vn 0.019138 0.402391 0.915268
vn 0.051019 0.340235 0.938955
vn 0.023782 0.436784 0.899252
vn -0.382758 -0.007885 0.923815
vn -0.285784 0.027537 0.957898
vn -0.370552 -0.003491 0.928805
vn -0.038237 0.327157 0.944196
vn -0.169896 0.192283 0.966521
vn -0.140976 0.137229 0.980456
vn -0.040550 0.031632 0.998677
vn 0.299632 0.100074 0.948792
vn 0.000000 -0.272395 0.962186
vn -0.160355 0.334736 0.928568
vn -0.001662 0.456631 0.889655
vn 0.328036 0.042662 0.943701
vn 0.226370 0.191154 0.955100
vn 0.141667 0.149391 0.978577
vn 0.000000 0.154679 0.987965
vn 0.024915 0.037931 0.998970
vn 0.181869 -0.035646 0.982677
vn 0.423258 0.011675 0.905934
vn 0.420725 0.114286 0.899961
vn 0.439002 0.007631 0.898454
vn 0.025764 0.162519 0.986369
vn 0.400651 0.064185 0.913980
vn -0.041810 -0.033665 0.998558
vn -0.049332 -0.235510 0.970619
vn -0.106021 -0.077221 0.991361
vn -0.144483 -0.252450 0.956762
vn -0.020071 -0.293054 0.955885
vn -0.059849 -0.328272 0.942685
vn -0.026475 -0.340114 0.940012
vn 0.046447 -0.341486 0.938739
vn 0.154475 -0.154480 0.975845
vn -0.234145 -0.000000 0.972202
vn 0.023920 -0.049296 0.998498
vn 0.026085 0.356460 0.933947
vn -0.075178 -0.367458 0.926997
vn 0.097079 -0.357366 0.928905
vn -0.032994 -0.394227 0.918421
vn 0.399033 -0.009973 0.916882
vn 0.334138 -0.094524 0.937773
vn 0.429554 -0.024235 0.902716
vn -0.064159 0.415364 0.907390
vn -0.121567 -0.012748 0.992501
vn 0.195824 -0.183065 0.963400
vn 0.358974 -0.070549 0.930678
vn 0.013769 -0.403633 0.914817
vn -0.193633 -0.116134 0.974176
vn 0.342919 -0.038757 0.938565
vn -0.069842 -0.340978 0.937473
vn -0.269243 -0.125626 0.954844
vn 0.000000 0.234565 0.972100
vn 0.404775 0.034469 0.913766
vn 0.135901 -0.031140 0.990233
vn -0.339570 0.057566 0.938818
vn 0.065122 0.341581 0.937594
vn -0.318527 0.019051 0.947722
vn -0.047203 -0.229381 0.972191
vn -0.174622 0.044285 0.983639
vn 0.161036 -0.152423 0.975107
vn -0.290714 -0.253028 0.922747
vn 0.260739 0.113861 0.958671
vn -0.171322 0.120695 0.977794
vn -0.046278 -0.195601 0.979591
vn 0.073919 0.374353 0.924335
vn -0.197047 -0.332022 0.922461
vn -0.202074 0.036959 0.978673
vn 0.310715 -0.118969 0.943028
vn 0.281640 0.122981 0.951606
vn -0.025681 0.039812 0.998877
vn -0.286243 0.042761 0.957202
vn 0.152160 -0.028189 0.987954
vn 0.032668 0.143863 0.989058
vn -0.199950 0.037959 0.979070
vn -0.053166 -0.226523 0.972554
vn -0.069309 -0.355133 0.932243
vn -0.043082 -0.206871 0.977419
vn -0.186040 0.040888 0.981691
vn -0.075522 -0.341215 0.936946
vn 0.003379 0.386237 0.922393
vn 0.362935 -0.031934 0.931267
vn 0.272674 -0.000000 0.962106
vn -0.034211 -0.019486 0.999225
vn 0.328399 -0.035919 0.943856
vn -0.348612 0.060838 0.935291
vn 0.201481 -0.051361 0.978145
vn 0.026073 0.008490 0.999624
vn 0.155349 0.000000 0.987860
f 129/129/129 99/99/99 70/70/70
f 112/112/112 31/31/31 113/113/113
f 170/170/170 132/132/132 167/167/167
f 26/26/26 167/167/167 132/132/132
f 58/58/58 152/152/152 147/147/147
f 114/114/114 12/12/12 47/47/47
f 101/101/101 35/35/35 46/46/46
f 129/129/129 36/36/36 99/99/99
f 3/3/3 120/120/120 94/94/94
f 152/152/152 12/12/12 162/162/162
f 11/11/11 25/25/25 148/148/148
f 80/80/80 173/173/173 104/104/104
f 115/115/115 112/112/112 15/15/15
f 140/140/140 28/28/28 172/172/172
f 114/114/114 137/137/137 31/31/31
f 76/76/76 112/112/112 113/113/113
f 84/84/84 47/47/47 12/12/12
f 15/15/15 112/112/112 76/76/76
f 115/115/115 15/15/15 75/75/75
f 45/45/45 92/92/92 93/93/93
f 113/113/113 134/134/134 130/130/130
f 16/16/16 100/100/100 139/139/139
f 22/22/22 30/30/30 136/136/136
f 38/38/38 93/93/93 92/92/92
f 62/62/62 125/125/125 123/123/123
f 165/165/165 22/22/22 136/136/136
f 147/147/147 54/54/54 58/58/58
f 83/83/83 58/58/58 54/54/54
f 57/57/57 95/95/95 104/104/104
f 116/116/116 30/30/30 22/22/22
f 42/42/42 112/112/112 115/115/115
f 66/66/66 130/130/130 134/134/134
f 140/140/140 105/105/105 28/28/28
f 155/155/155 100/100/100 73/73/73
f 129/129/129 70/70/70 18/18/18
f 24/24/24 170/170/170 105/105/105
f 165/165/165 162/162/162 22/22/22
f 114/114/114 31/31/31 42/42/42
f 150/150/150 165/165/165 32/32/32
f 37/37/37 153/153/153 157/157/157
f 164/164/164 153/153/153 37/37/37
f 146/146/146 163/163/163 61/61/61
f 123/123/123 32/32/32 62/62/62
f 41/41/41 58/58/58 83/83/83
f 32/32/32 165/165/165 136/136/136
f 161/161/161 144/144/144 162/162/162
f 51/51/51 159/159/159 23/23/23
f 156/156/156 109/109/109 53/53/53
f 78/78/78 125/125/125 9/9/9
f 121/121/121 80/80/80 5/5/5
f 154/154/154 24/24/24 172/172/172
f 147/147/147 144/144/144 169/169/169
f 44/44/44 126/126/126 26/26/26
f 122/122/122 109/109/109 51/51/51
f 162/162/162 165/165/165 161/161/161
f 123/123/123 163/163/163 32/32/32
f 60/60/60 169/169/169 111/111/111
f 63/63/63 121/121/121 111/111/111
f 63/63/63 161/161/161 150/150/150
f 25/25/25 159/159/159 34/34/34
f 81/81/81 170/170/170 167/167/167
f 30/30/30 115/115/115 117/117/117
f 84/84/84 152/152/152 58/58/58
f 51/51/51 109/109/109 57/57/57
f 34/34/34 159/159/159 51/51/51
f 11/11/11 148/148/148 107/107/107
f 5/5/5 104/104/104 95/95/95
f 85/85/85 55/55/55 41/41/41
f 82/82/82 137/137/137 47/47/47
f 29/29/29 119/119/119 135/135/135
f 72/72/72 135/135/135 119/119/119
f 84/84/84 12/12/12 152/152/152
f 84/84/84 58/58/58 41/41/41
f 47/47/47 137/137/137 114/114/114
f 59/59/59 85/85/85 83/83/83
f 55/55/55 82/82/82 41/41/41
f 20/20/20 137/137/137 82/82/82
f 20/20/20 66/66/66 137/137/137
f 55/55/55 20/20/20 82/82/82
f 59/59/59 91/91/91 85/85/85
f 21/21/21 141/141/141 65/65/65
f 6/6/6 85/85/85 91/91/91
f 94/94/94 138/138/138 3/3/3
f 41/41/41 82/82/82 84/84/84
f 172/172/172 163/163/163 146/146/146
f 149/149/149 49/49/49 53/53/53
f 92/92/92 18/18/18 69/69/69
f 94/94/94 69/69/69 138/138/138
f 59/59/59 83/83/83 143/143/143
f 167/167/167 106/106/106 158/158/158
f 171/171/171 143/143/143 83/83/83
f 106/106/106 167/167/167 52/52/52
f 157/157/157 90/90/90 37/37/37
f 117/117/117 9/9/9 62/62/62
f 38/38/38 92/92/92 94/94/94
f 81/81/81 167/167/167 158/158/158
f 98/98/98 166/166/166 36/36/36
f 164/164/164 171/171/171 160/160/160
f 45/45/45 10/10/10 98/98/98
f 156/156/156 145/145/145 153/153/153
f 162/162/162 12/12/12 22/22/22
f 116/116/116 22/22/22 12/12/12
f 50/50/50 45/45/45 98/98/98
f 50/50/50 98/98/98 36/36/36
f 160/160/160 54/54/54 147/147/147
f 129/129/129 50/50/50 36/36/36
f 26/26/26 128/128/128 52/52/52
f 23/23/23 11/11/11 87/87/87
f 140/140/140 172/172/172 24/24/24
f 122/122/122 166/166/166 109/109/109
f 47/47/47 84/84/84 82/82/82
f 48/48/48 38/38/38 141/141/141
f 168/168/168 72/72/72 119/119/119
f 169/169/169 60/60/60 160/160/160
f 56/56/56 88/88/88 99/99/99
f 7/7/7 99/99/99 88/88/88
f 164/164/164 160/160/160 60/60/60
f 64/64/64 91/91/91 89/89/89
f 136/136/136 62/62/62 32/32/32
f 93/93/93 38/38/38 48/48/48
f 23/23/23 25/25/25 11/11/11
f 93/93/93 10/10/10 45/45/45
f 48/48/48 90/90/90 93/93/93
f 25/25/25 23/23/23 159/159/159
f 59/59/59 39/39/39 91/91/91
f 143/143/143 39/39/39 59/59/59
f 64/64/64 89/89/89 21/21/21
f 89/89/89 91/91/91 39/39/39
f 6/6/6 91/91/91 64/64/64
f 63/63/63 111/111/111 161/161/161
f 135/135/135 44/44/44 29/29/29
f 6/6/6 55/55/55 85/85/85
f 154/154/154 127/127/127 132/132/132
f 155/155/155 102/102/102 35/35/35
f 143/143/143 90/90/90 39/39/39
f 102/102/102 155/155/155 73/73/73
f 75/75/75 117/117/117 115/115/115
f 53/53/53 145/145/145 156/156/156
f 43/43/43 101/101/101 107/107/107
f 111/111/111 169/169/169 161/161/161
f 172/172/172 146/146/146 154/154/154
f 11/11/11 107/107/107 101/101/101
f 133/133/133 27/27/27 78/78/78
f 150/150/150 161/161/161 165/165/165
f 65/65/65 141/141/141 94/94/94
f 142/142/142 46/46/46 35/35/35
f 37/37/37 90/90/90 143/143/143
f 37/37/37 143/143/143 171/171/171
f 129/129/129 45/45/45 50/50/50
f 157/157/157 10/10/10 90/90/90
f 49/49/49 98/98/98 10/10/10
f 49/49/49 10/10/10 157/157/157
f 145/145/145 157/157/157 153/153/153
f 34/34/34 51/51/51 57/57/57
f 119/119/119 29/29/29 118/118/118
f 145/145/145 49/49/49 157/157/157
f 105/105/105 170/170/170 81/81/81
f 135/135/135 72/72/72 17/17/17
f 156/156/156 57/57/57 109/109/109
f 53/53/53 49/49/49 145/145/145
f 149/149/149 166/166/166 98/98/98
f 149/149/149 98/98/98 49/49/49
f 38/38/38 94/94/94 141/141/141
f 5/5/5 95/95/95 111/111/111
f 95/95/95 57/57/57 156/156/156
f 163/163/163 150/150/150 32/32/32
f 60/60/60 111/111/111 95/95/95
f 166/166/166 56/56/56 36/36/36
f 56/56/56 99/99/99 36/36/36
f 172/172/172 28/28/28 163/163/163
f 34/34/34 57/57/57 104/104/104
f 123/123/123 27/27/27 61/61/61
f 9/9/9 117/117/117 75/75/75
f 79/79/79 13/13/13 124/124/124
f 144/144/144 152/152/152 162/162/162
f 95/95/95 156/156/156 153/153/153
f 87/87/87 46/46/46 40/40/40
f 88/88/88 151/151/151 40/40/40
f 83/83/83 54/54/54 171/171/171
f 96/96/96 43/43/43 100/100/100
f 37/37/37 171/171/171 164/164/164
f 77/77/77 119/119/119 118/118/118
f 120/120/120 65/65/65 94/94/94
f 122/122/122 23/23/23 151/151/151
f 169/169/169 144/144/144 161/161/161
f 40/40/40 46/46/46 86/86/86
f 90/90/90 48/48/48 39/39/39
f 112/112/112 42/42/42 31/31/31
f 133/133/133 14/14/14 79/79/79
f 118/118/118 79/79/79 14/14/14
f 167/167/167 26/26/26 52/52/52
f 130/130/130 1/1/1 113/113/113
f 13/13/13 131/131/131 127/127/127
f 79/79/79 124/124/124 133/133/133
f 80/80/80 104/104/104 5/5/5
f 46/46/46 87/87/87 101/101/101
f 147/147/147 152/152/152 144/144/144
f 173/173/173 25/25/25 34/34/34
f 109/109/109 166/166/166 149/149/149
f 29/29/29 131/131/131 118/118/118
f 27/27/27 123/123/123 125/125/125
f 11/11/11 101/101/101 87/87/87
f 33/33/33 52/52/52 108/108/108
f 107/107/107 33/33/33 110/110/110
f 139/139/139 33/33/33 108/108/108
f 136/136/136 30/30/30 62/62/62
f 33/33/33 106/106/106 52/52/52
f 21/21/21 89/89/89 141/141/141
f 110/110/110 33/33/33 139/139/139
f 103/103/103 68/68/68 102/102/102
f 107/107/107 106/106/106 33/33/33
f 117/117/117 62/62/62 30/30/30
f 148/148/148 25/25/25 173/173/173
f 148/148/148 173/173/173 158/158/158
f 148/148/148 106/106/106 107/107/107
f 43/43/43 139/139/139 100/100/100
f 124/124/124 146/146/146 61/61/61
f 43/43/43 107/107/107 110/110/110
f 27/27/27 124/124/124 61/61/61
f 54/54/54 160/160/160 171/171/171
f 100/100/100 155/155/155 35/35/35
f 43/43/43 110/110/110 139/139/139
f 115/115/115 30/30/30 42/42/42
f 74/74/74 139/139/139 108/108/108
f 4/4/4 103/103/103 102/102/102
f 7/7/7 70/70/70 99/99/99
f 116/116/116 42/42/42 30/30/30
f 151/151/151 23/23/23 40/40/40
f 68/68/68 142/142/142 102/102/102
f 86/86/86 46/46/46 142/142/142
f 142/142/142 35/35/35 102/102/102
f 88/88/88 56/56/56 151/151/151
f 31/31/31 134/134/134 113/113/113
f 19/19/19 86/86/86 142/142/142
f 69/69/69 94/94/94 92/92/92
f 56/56/56 166/166/166 122/122/122
f 148/148/148 158/158/158 106/106/106
f 44/44/44 127/127/127 131/131/131
f 105/105/105 81/81/81 80/80/80
f 89/89/89 39/39/39 48/48/48
f 56/56/56 122/122/122 151/151/151
f 122/122/122 51/51/51 23/23/23
f 129/129/129 18/18/18 45/45/45
f 92/92/92 45/45/45 18/18/18
f 2/2/2 168/168/168 119/119/119
f 125/125/125 62/62/62 9/9/9
f 88/88/88 40/40/40 86/86/86
f 67/67/67 88/88/88 86/86/86
f 67/67/67 7/7/7 88/88/88
f 19/19/19 67/67/67 86/86/86
f 68/68/68 19/19/19 142/142/142
f 87/87/87 40/40/40 23/23/23
f 42/42/42 116/116/116 114/114/114
f 174/174/174 4/4/4 102/102/102
f 73/73/73 174/174/174 102/102/102
f 16/16/16 73/73/73 100/100/100
f 74/74/74 16/16/16 139/139/139
f 8/8/8 74/74/74 108/108/108
f 131/131/131 79/79/79 118/118/118
f 8/8/8 108/108/108 128/128/128
f 76/76/76 113/113/113 1/1/1
f 35/35/35 96/96/96 100/100/100
f 96/96/96 35/35/35 101/101/101
f 78/78/78 27/27/27 125/125/125
f 52/52/52 128/128/128 108/108/108
f 128/128/128 71/71/71 8/8/8
f 48/48/48 141/141/141 89/89/89
f 24/24/24 105/105/105 140/140/140
f 126/126/126 17/17/17 71/71/71
f 127/127/127 44/44/44 26/26/26
f 26/26/26 126/126/126 128/128/128
f 123/123/123 61/61/61 163/163/163
f 71/71/71 128/128/128 126/126/126
f 132/132/132 127/127/127 26/26/26
f 17/17/17 126/126/126 135/135/135
f 10/10/10 93/93/93 90/90/90
f 124/124/124 13/13/13 146/146/146
f 43/43/43 96/96/96 101/101/101
f 131/131/131 13/13/13 79/79/79
f 149/149/149 53/53/53 109/109/109
f 29/29/29 44/44/44 131/131/131
f 12/12/12 114/114/114 116/116/116
f 66/66/66 134/134/134 137/137/137
f 44/44/44 135/135/135 126/126/126
f 85/85/85 41/41/41 83/83/83
f 160/160/160 147/147/147 169/169/169
f 34/34/34 104/104/104 173/173/173
f 133/133/133 124/124/124 27/27/27
f 134/134/134 31/31/31 137/137/137
f 77/77/77 118/118/118 14/14/14
f 60/60/60 153/153/153 164/164/164
f 81/81/81 158/158/158 173/173/173
f 154/154/154 146/146/146 13/13/13
f 14/14/14 133/133/133 78/78/78
f 24/24/24 132/132/132 170/170/170
f 154/154/154 132/132/132 24/24/24
f 81/81/81 173/173/173 80/80/80
f 121/121/121 28/28/28 80/80/80
f 28/28/28 105/105/105 80/80/80
f 121/121/121 5/5/5 111/111/111
f 97/97/97 2/2/2 119/119/119
f 60/60/60 95/95/95 153/153/153
f 97/97/97 119/119/119 77/77/77
f 154/154/154 13/13/13 127/127/127
f 63/63/63 28/28/28 121/121/121
f 163/163/163 63/63/63 150/150/150
f 63/63/63 163/163/163 28/28/28
