# frame 000598 
# time 0.299500 
# name Cloth3D 
v -0.000000 0.000000 -0.000000
v 1.000000 0.000000 -0.000000
v -0.000000 1.000000 0.000000
v 1.000000 1.000000 0.000000
v 0.500532 0.499904 0.119657
v -0.000000 0.500000 0.000000
v 0.500000 1.000000 0.000000
v 1.000000 0.500000 0.000000
v 0.500000 -0.000000 0.000000
v 0.246335 0.754559 0.072157
v 0.756732 0.755823 0.076799
v 0.244831 0.244274 0.075537
v 0.754330 0.245599 0.072779
v 0.750000 0.000000 0.000000
v 0.250000 0.000000 0.000000
v 1.000000 0.750000 0.000000
v 1.000000 0.250000 0.000000
v 0.250000 1.000000 0.000000
v 0.750000 1.000000 0.000000
v 0.000000 0.250000 0.000000
v 0.000000 0.750000 -0.000000
v 0.362172 0.213497 0.083879
v 0.632582 0.775261 0.083383
v 1.000000 0.937500 0.000000
v 0.684115 0.698291 0.119929
v 0.877591 0.374240 0.046883
v 0.625315 0.123956 0.040353
v 0.631161 0.368556 0.119967
v 0.873861 0.126809 0.005019
v 0.373869 0.119965 0.050599
v 0.123552 0.122902 0.025717
v 0.491790 0.244539 0.094256
v 0.879206 0.626754 0.050763
v 0.631915 0.631343 0.119916
v 0.873044 0.872653 -0.001687
v 0.374003 0.876984 0.044843
v 0.256550 0.602576 0.095240
v 0.124119 0.875750 0.018558
v 0.123078 0.625488 0.042671
v 0.625474 0.875542 0.040673
v 0.124202 0.374102 0.039727
v 0.248374 0.120421 0.042820
v 0.876818 0.750043 0.031610
v 0.877329 0.249165 0.036694
v 0.248909 0.877164 0.036167
v 0.749923 0.874079 0.025787
v 0.123674 0.248558 0.034473
v 0.124196 0.750528 0.031515
v 0.727990 0.615707 0.119941
v 0.124429 0.938108 0.009874
v 0.552901 0.707927 0.119929
v 0.875778 0.500506 0.045025
v 0.425612 0.717261 0.119938
v 0.242428 0.453683 0.092845
v 0.000000 0.375000 0.000000
v 0.499526 0.874348 0.040389
v 0.500603 0.630815 0.119865
v 0.243969 0.370808 0.091936
v 0.121594 0.499657 0.048801
v 0.369972 0.499672 0.119842
v 0.629100 0.245083 0.090201
v 0.499546 0.123719 0.043453
v 0.500161 0.369392 0.119994
v 0.000000 0.625000 0.000000
v 0.000000 0.875000 0.000000
v 0.000000 0.125000 0.000000
v 0.625000 1.000000 0.000000
v 0.875000 1.000000 0.000000
v 0.125000 1.000000 0.000000
v 0.375000 1.000000 0.000000
v 1.000000 0.375000 0.000000
v 1.000000 0.125000 0.000000
v 1.000000 0.875000 0.000000
v 1.000000 0.625000 0.000000
v 0.375000 0.000000 0.000000
v 0.125000 0.000000 0.000000
v 0.875000 0.000000 0.000000
v 0.625000 0.000000 0.000000
v 0.750188 0.124764 0.029303
v 0.631210 0.499944 0.119908
v 0.718725 0.487871 0.119929
v 0.062684 0.312188 0.016471
v 0.183197 0.436007 0.070200
v 0.184662 0.309767 0.060309
v 0.061731 0.437261 0.021722
v 0.687297 0.937303 0.016622
v 0.689305 0.812625 0.054215
v 0.562319 0.936769 0.018538
v 0.061921 0.687432 0.018702
v 0.184513 0.689589 0.060564
v 0.061379 0.562440 0.022657
v 0.187105 0.938391 0.014818
v 0.185892 0.814363 0.040538
v 0.062895 0.937160 -0.003040
v 0.435299 0.565269 0.119787
v 0.873886 0.810342 0.011620
v 0.937500 0.000000 -0.000000
v 0.309409 0.818611 0.069661
v 0.437171 0.937008 0.019215
v 0.936614 0.811408 0.003307
v 0.813578 0.812193 0.031488
v 0.936885 0.936785 -0.005587
v 0.937500 1.000000 0.000000
v 0.566112 0.565525 0.119722
v 0.714021 0.423827 0.119929
v 0.823385 0.594162 0.070699
v 0.820080 0.692032 0.073381
v 0.939071 0.562887 0.025258
v 0.490010 0.712523 0.119934
v 0.692008 0.588139 0.119939
v 0.434918 0.434460 0.119721
v 0.186662 0.059602 0.021821
v 0.062092 0.062054 0.007695
v 0.185528 0.184404 0.043670
v 0.311983 0.058688 0.027094
v 0.309713 0.181617 0.067340
v 0.437019 0.062338 0.020089
v 0.812104 0.063115 0.008194
v 0.936873 0.063198 -0.004739
v -0.000000 0.937500 0.000000
v 0.565816 0.434386 0.119936
v 0.525243 0.806077 0.069955
v 0.563321 0.184408 0.067661
v 0.689600 0.184144 0.061146
v 0.562322 0.061260 0.023259
v 0.939232 0.312396 0.022677
v 0.817229 0.309698 0.066813
v 0.937932 0.437551 0.022299
v 0.312228 0.938629 0.020770
v -0.000000 0.062500 -0.000000
v 0.813285 0.187373 0.034190
v 0.805249 0.370003 0.075483
v 0.687348 0.061949 0.018601
v 0.062560 0.124539 0.009060
v 0.937894 0.187687 0.012352
v 0.436038 0.183067 0.070357
v 0.061862 0.186935 0.015128
v 0.062500 1.000000 0.000000
v 0.941008 0.687980 0.026299
v 0.708746 0.360242 0.119929
v 0.062782 0.812261 0.009703
v 0.811849 0.936467 0.005644
v 0.183200 0.563131 0.070130
v 0.775198 0.655310 0.097707
v 0.330724 0.660725 0.119929
v 0.704762 0.295952 0.119942
v 0.306035 0.325229 0.119942
v 0.733967 0.694771 0.119942
v 0.335229 0.723965 0.119942
v 0.486022 0.312147 0.119929
v 0.311929 0.404739 0.119938
v 0.287635 0.324570 0.112373
v 0.326034 0.596873 0.119929
v 0.721843 0.291629 0.107219
v 0.936596 0.873935 -0.002110
v 0.433696 0.640903 0.119784
v 0.276204 0.662041 0.098139
v 0.723184 0.552106 0.119941
v 0.617350 0.703196 0.119929
v 0.316681 0.469144 0.119935
v 0.420762 0.316939 0.119929
v 0.358338 0.286513 0.108805
v 0.549118 0.307514 0.119929
v 0.321298 0.532360 0.119929
v 0.415527 0.249867 0.097341
v 0.423954 0.817840 0.067766
v 0.815428 0.481562 0.070328
v 1.000000 0.062500 -0.000000
v 0.370044 0.413793 0.119884
v 0.772488 0.422440 0.091177
v 0.239680 0.515355 0.092991
v 0.614153 0.302704 0.119936
v 1.000000 0.187500 0.000000
v 0.062500 0.000000 -0.000000
v 0.476952 0.768689 0.094542
v 0.556033 0.243116 0.092126
v 0.382969 0.773189 0.092803
vt 0.000000 0.000000
vt 1.000000 0.000000
vt 0.000000 1.000000
vt 1.000000 1.000000
vt 0.500000 0.500000
vt 0.000000 0.500000
vt 0.500000 1.000000
vt 1.000000 0.500000
vt 0.500000 0.000000
vt 0.250000 0.750000
vt 0.750000 0.750000
vt 0.250000 0.250000
vt 0.750000 0.250000
vt 0.750000 0.000000
vt 0.250000 0.000000
vt 1.000000 0.750000
vt 1.000000 0.250000
vt 0.250000 1.000000
vt 0.750000 1.000000
vt 0.000000 0.250000
vt 0.000000 0.750000
vt 0.365347 0.220303
vt 0.629073 0.770824
vt 1.000000 0.937500
vt 0.674358 0.687952
vt 0.875000 0.375000
vt 0.625000 0.125000
vt 0.625000 0.375000
vt 0.875000 0.125000
vt 0.375000 0.125000
vt 0.125000 0.125000
vt 0.492214 0.250470
vt 0.875000 0.625000
vt 0.625000 0.625000
vt 0.875000 0.875000
vt 0.375000 0.875000
vt 0.262101 0.599801
vt 0.125000 0.875000
vt 0.125000 0.625000
vt 0.625000 0.875000
vt 0.125000 0.375000
vt 0.250000 0.125000
vt 0.875000 0.750000
vt 0.875000 0.250000
vt 0.250000 0.875000
vt 0.750000 0.875000
vt 0.125000 0.250000
vt 0.125000 0.750000
vt 0.716464 0.609794
vt 0.125000 0.937500
vt 0.550100 0.698731
vt 0.875000 0.500000
vt 0.428511 0.707348
vt 0.248222 0.455442
vt 0.000000 0.375000
vt 0.500000 0.875000
vt 0.500000 0.625000
vt 0.250000 0.375000
vt 0.125000 0.500000
vt 0.375000 0.500000
vt 0.625000 0.250000
vt 0.500000 0.125000
vt 0.500000 0.375000
vt 0.000000 0.625000
vt 0.000000 0.875000
vt 0.000000 0.125000
vt 0.625000 1.000000
vt 0.875000 1.000000
vt 0.125000 1.000000
vt 0.375000 1.000000
vt 1.000000 0.375000
vt 1.000000 0.125000
vt 1.000000 0.875000
vt 1.000000 0.625000
vt 0.375000 0.000000
vt 0.125000 0.000000
vt 0.875000 0.000000
vt 0.625000 0.000000
vt 0.750000 0.125000
vt 0.625000 0.500000
vt 0.708840 0.488377
vt 0.062500 0.312500
vt 0.187500 0.437500
vt 0.187500 0.312500
vt 0.062500 0.437500
vt 0.687500 0.937500
vt 0.687500 0.812500
vt 0.562500 0.937500
vt 0.062500 0.687500
vt 0.187500 0.687500
vt 0.062500 0.562500
vt 0.187500 0.937500
vt 0.187500 0.812500
vt 0.062500 0.937500
vt 0.437500 0.562500
vt 0.875000 0.812500
vt 0.937500 0.000000
vt 0.312500 0.812500
vt 0.437500 0.937500
vt 0.937500 0.812500
vt 0.812500 0.812500
vt 0.937500 0.937500
vt 0.937500 1.000000
vt 0.562500 0.562500
vt 0.704378 0.427418
vt 0.819332 0.591237
vt 0.812500 0.687500
vt 0.937500 0.562500
vt 0.489935 0.703041
vt 0.682510 0.583771
vt 0.437500 0.437500
vt 0.187500 0.062500
vt 0.062500 0.062500
vt 0.187500 0.187500
vt 0.312500 0.062500
vt 0.312500 0.187500
vt 0.437500 0.062500
vt 0.812500 0.062500
vt 0.937500 0.062500
vt 0.000000 0.937500
vt 0.562500 0.437500
vt 0.525016 0.804189
vt 0.562500 0.187500
vt 0.687500 0.187500
vt 0.562500 0.062500
vt 0.937500 0.312500
vt 0.812500 0.312500
vt 0.937500 0.437500
vt 0.312500 0.937500
vt 0.000000 0.062500
vt 0.812500 0.187500
vt 0.800716 0.372483
vt 0.687500 0.062500
vt 0.062500 0.125000
vt 0.937500 0.187500
vt 0.437500 0.187500
vt 0.062500 0.187500
vt 0.062500 1.000000
vt 0.937500 0.687500
vt 0.699183 0.367200
vt 0.062500 0.812500
vt 0.812500 0.937500
vt 0.187500 0.562500
vt 0.765906 0.648544
vt 0.337931 0.653555
vt 0.694187 0.307410
vt 0.315796 0.334318
vt 0.720965 0.682839
vt 0.343122 0.712845
vt 0.486707 0.319968
vt 0.319979 0.409236
vt 0.296906 0.332149
vt 0.332829 0.592968
vt 0.713437 0.300753
vt 0.937500 0.875000
vt 0.436137 0.634590
vt 0.281585 0.657008
vt 0.712783 0.549632
vt 0.611521 0.693707
vt 0.323998 0.470777
vt 0.424211 0.324617
vt 0.364019 0.294291
vt 0.547130 0.315877
vt 0.328206 0.531340
vt 0.418341 0.256674
vt 0.425703 0.815414
vt 0.812755 0.481587
vt 1.000000 0.062500
vt 0.375653 0.417988
vt 0.766844 0.424637
vt 0.245672 0.515386
vt 0.609178 0.311895
vt 1.000000 0.187500
vt 0.062500 0.000000
vt 0.477574 0.762067
vt 0.554454 0.248535
vt 0.386728 0.766561
vn -0.064791 -0.064791 0.995793
vn -0.035613 0.035613 0.998731
vn 0.022770 -0.022770 0.999481
vn -0.046345 -0.046345 0.997850
vn -0.000395 0.000556 1.000000
vn -0.341102 -0.004006 0.940018
vn 0.002238 0.289959 0.957037
vn 0.362706 -0.010865 0.931840
vn -0.012730 -0.333111 0.942802
vn -0.321543 0.213407 0.922533
vn 0.253564 0.449813 0.856373
vn -0.272481 -0.239042 0.931994
vn 0.314179 -0.348246 0.883185
vn 0.039070 -0.209332 0.977064
vn -0.019304 -0.385771 0.922392
vn 0.240884 0.091215 0.966258
vn 0.263316 -0.032676 0.964156
vn -0.022040 0.283127 0.958829
vn 0.045837 0.179575 0.982676
vn -0.253567 -0.003477 0.967312
vn -0.226319 0.034463 0.973443
vn -0.049148 -0.331164 0.942293
vn 0.082235 0.440766 0.893847
vn -0.092562 0.000000 0.995707
vn 0.027957 0.234566 0.971698
vn 0.362951 -0.022423 0.931538
vn 0.028700 -0.336177 0.941362
vn 0.000141 -0.000050 1.000000
vn 0.121866 -0.162916 0.979085
vn 0.017027 -0.354420 0.934931
vn -0.200930 -0.105544 0.973903
vn 0.011968 -0.370472 0.928767
vn 0.361370 -0.018191 0.932245
vn -0.000482 -0.000674 1.000000
vn 0.129216 0.123906 0.983845
vn 0.007533 0.388176 0.921554
vn -0.336480 0.056059 0.940020
vn -0.184434 0.137437 0.973188
vn -0.344395 0.050323 0.937475
vn 0.059796 0.347338 0.935831
vn -0.355187 -0.057730 0.933011
vn -0.106693 -0.242915 0.964162
vn 0.277195 0.287030 0.916939
vn 0.257140 -0.166465 0.951929
vn -0.117337 0.292916 0.948911
vn 0.150015 0.245946 0.957604
vn -0.282729 -0.060372 0.957298
vn -0.289305 0.110764 0.950807
vn 0.187521 -0.014270 0.982157
vn -0.144260 0.153919 0.977496
vn 0.019099 0.220147 0.975280
vn 0.362992 -0.016244 0.931651
vn 0.012046 0.244411 0.969597
vn -0.350242 -0.012739 0.936573
vn -0.297329 -0.019633 0.954573
vn 0.013496 0.370424 0.928765
vn -0.000599 -0.001005 0.999999
vn -0.398391 -0.018903 0.917021
vn -0.368171 -0.008826 0.929716
vn 0.001631 0.000011 0.999999
vn 0.009065 -0.435182 0.900297
vn 0.014840 -0.362954 0.931689
vn -0.000659 0.000281 1.000000
vn -0.320399 0.015188 0.947161
vn -0.036328 0.041229 0.998489
vn -0.165865 -0.027965 0.985752
vn 0.004749 0.276878 0.960893
vn 0.036732 -0.020218 0.999121
vn -0.082848 0.116246 0.989759
vn 0.008097 0.309124 0.950987
vn 0.349213 0.003442 0.937037
vn 0.064227 -0.045688 0.996889
vn -0.039540 0.041634 0.998350
vn 0.393025 -0.005894 0.919509
vn 0.029854 -0.375958 0.926156
vn -0.045799 -0.219855 0.974457
vn 0.041173 -0.009991 0.999102
vn 0.019436 -0.320526 0.947040
vn 0.159299 -0.281753 0.946171
vn -0.000923 0.000656 0.999999
vn 0.226994 -0.015642 0.973771
vn -0.287084 -0.021415 0.957666
vn -0.370924 -0.038890 0.927849
vn -0.381046 -0.089883 0.920176
vn -0.340038 -0.031126 0.939897
vn 0.054519 0.258451 0.964485
vn 0.151711 0.404686 0.901783
vn 0.002178 0.309513 0.950893
vn -0.299018 0.046452 0.953116
vn -0.333685 0.106479 0.936652
vn -0.352455 0.017829 0.935659
vn -0.067482 0.208411 0.975711
vn -0.232143 0.188962 0.954150
vn -0.069727 0.045753 0.996516
vn 0.000653 -0.000502 1.000000
vn 0.217757 0.263058 0.939884
vn 0.000000 0.071094 0.997470
vn -0.129572 0.393657 0.910080
vn 0.015473 0.325225 0.945510
vn 0.088407 0.152287 0.984374
vn 0.268445 0.314795 0.910407
vn -0.016460 -0.011060 0.999803
vn 0.000000 -0.092422 0.995720
vn -0.000882 -0.000814 0.999999
vn 0.272118 -0.021917 0.962014
vn 0.405185 -0.028283 0.913797
vn 0.417984 0.136750 0.898103
vn 0.365574 -0.021046 0.930544
vn 0.016904 0.223905 0.974464
vn -0.000329 -0.000036 1.000000
vn 0.000690 0.001129 0.999999
vn -0.071848 -0.273787 0.959103
vn -0.110502 -0.076775 0.990906
vn -0.217411 -0.150188 0.964456
vn -0.015631 -0.364720 0.930986
vn -0.115680 -0.297701 0.947625
vn 0.030121 -0.353451 0.934968
vn 0.093635 -0.138822 0.985881
vn 0.001153 -0.006877 0.999976
vn 0.045493 0.000000 0.998965
vn -0.000857 0.001516 0.999999
vn 0.030209 0.444578 0.895231
vn 0.031148 -0.383494 0.923018
vn 0.101126 -0.380313 0.919313
vn 0.010073 -0.320785 0.947099
vn 0.326130 -0.037867 0.944566
vn 0.367587 -0.131791 0.920604
vn 0.351644 0.000705 0.936134
vn -0.022221 0.315829 0.948556
vn -0.134780 -0.005779 0.990859
vn 0.232197 -0.275843 0.932735
vn 0.392735 -0.031842 0.919100
vn 0.049928 -0.288848 0.956072
vn -0.205986 -0.057367 0.976872
vn 0.175265 -0.095184 0.979909
vn 0.028319 -0.366193 0.930108
vn -0.231824 -0.053273 0.971298
vn 0.000000 -0.045541 0.998962
vn 0.353246 0.074293 0.932576
vn 0.226642 -0.024777 0.973663
vn -0.202509 0.067246 0.976969
vn 0.101208 0.096309 0.990193
vn -0.355890 0.041048 0.933626
vn 0.465620 -0.018825 0.884785
vn -0.231977 0.017155 0.972570
vn 0.439182 -0.192337 0.877568
vn -0.313350 -0.266342 0.911523
vn 0.226369 0.213396 0.950378
vn -0.154709 0.218477 0.963500
vn -0.007510 -0.162203 0.986729
vn -0.177515 0.006948 0.984094
vn -0.361065 -0.206878 0.909304
vn -0.205226 0.021979 0.978468
vn 0.507068 -0.222661 0.832649
vn -0.011755 0.073899 0.997196
vn -0.000149 -0.000804 1.000000
vn -0.362473 0.067603 0.929539
vn 0.156059 -0.011946 0.987676
vn 0.016505 0.217313 0.975962
vn -0.143535 0.007340 0.989618
vn -0.013164 -0.196883 0.980339
vn -0.062097 -0.334210 0.940451
vn -0.009797 -0.221416 0.975130
vn -0.146485 0.012458 0.989134
vn -0.003289 -0.340480 0.940246
vn 0.041440 0.446243 0.893952
vn 0.413754 -0.011817 0.910312
vn -0.071177 -0.000000 0.997464
vn 0.001419 0.000487 0.999999
vn 0.432499 -0.013986 0.901526
vn -0.341690 0.010378 0.939755
vn -0.006509 -0.242751 0.970067
vn 0.200398 0.000000 0.979715
vn -0.000000 -0.129080 0.991634
vn 0.034620 0.459518 0.887493
vn 0.018947 -0.394502 0.918700
vn 0.021879 0.455091 0.890176
f 129/129/129 99/99/99 70/70/70
f 112/112/112 31/31/31 113/113/113
f 170/170/170 132/132/132 167/167/167
f 26/26/26 167/167/167 132/132/132
f 38/38/38 141/141/141 93/93/93
f 160/160/160 54/54/54 151/151/151
f 173/173/173 17/17/17 135/135/135
f 129/129/129 36/36/36 99/99/99
f 3/3/3 120/120/120 94/94/94
f 152/152/152 12/12/12 162/162/162
f 11/11/11 25/25/25 148/148/148
f 80/80/80 110/110/110 104/104/104
f 115/115/115 112/112/112 15/15/15
f 163/163/163 172/172/172 28/28/28
f 114/114/114 137/137/137 31/31/31
f 76/76/76 112/112/112 113/113/113
f 58/58/58 151/151/151 54/54/54
f 15/15/15 112/112/112 76/76/76
f 115/115/115 15/15/15 75/75/75
f 20/20/20 137/137/137 82/82/82
f 113/113/113 134/134/134 130/130/130
f 148/148/148 25/25/25 49/49/49
f 22/22/22 30/30/30 136/136/136
f 47/47/47 82/82/82 137/137/137
f 16/16/16 73/73/73 100/100/100
f 165/165/165 22/22/22 136/136/136
f 21/21/21 64/64/64 89/89/89
f 83/83/83 58/58/58 54/54/54
f 57/57/57 95/95/95 104/104/104
f 116/116/116 30/30/30 22/22/22
f 42/42/42 112/112/112 115/115/115
f 66/66/66 130/130/130 134/134/134
f 140/140/140 105/105/105 28/28/28
f 155/155/155 100/100/100 73/73/73
f 129/129/129 70/70/70 18/18/18
f 63/63/63 28/28/28 121/121/121
f 165/165/165 162/162/162 22/22/22
f 114/114/114 31/31/31 42/42/42
f 150/150/150 165/165/165 32/32/32
f 37/37/37 153/153/153 157/157/157
f 164/164/164 153/153/153 37/37/37
f 39/39/39 90/90/90 89/89/89
f 61/61/61 172/172/172 176/176/176
f 139/139/139 16/16/16 43/43/43
f 32/32/32 165/165/165 136/136/136
f 143/143/143 39/39/39 59/59/59
f 51/51/51 159/159/159 23/23/23
f 142/142/142 46/46/46 35/35/35
f 78/78/78 125/125/125 9/9/9
f 121/121/121 80/80/80 5/5/5
f 60/60/60 95/95/95 153/153/153
f 144/144/144 107/107/107 148/148/148
f 9/9/9 125/125/125 117/117/117
f 175/175/175 53/53/53 109/109/109
f 162/162/162 165/165/165 161/161/161
f 64/64/64 91/91/91 89/89/89
f 60/60/60 169/169/169 111/111/111
f 50/50/50 92/92/92 69/69/69
f 63/63/63 161/161/161 150/150/150
f 25/25/25 159/159/159 34/34/34
f 81/81/81 170/170/170 167/167/167
f 25/25/25 34/34/34 49/49/49
f 84/84/84 152/152/152 58/58/58
f 51/51/51 109/109/109 57/57/57
f 34/34/34 159/159/159 51/51/51
f 11/11/11 148/148/148 107/107/107
f 5/5/5 104/104/104 95/95/95
f 23/23/23 87/87/87 40/40/40
f 38/38/38 94/94/94 141/141/141
f 29/29/29 119/119/119 135/135/135
f 72/72/72 135/135/135 119/119/119
f 84/84/84 12/12/12 152/152/152
f 100/100/100 43/43/43 16/16/16
f 47/47/47 137/137/137 114/114/114
f 14/14/14 118/118/118 133/133/133
f 56/56/56 122/122/122 40/40/40
f 65/65/65 141/141/141 94/94/94
f 20/20/20 66/66/66 137/137/137
f 55/55/55 20/20/20 82/82/82
f 59/59/59 91/91/91 85/85/85
f 65/65/65 21/21/21 141/141/141
f 6/6/6 85/85/85 91/91/91
f 94/94/94 138/138/138 3/3/3
f 58/58/58 83/83/83 84/84/84
f 48/48/48 89/89/89 90/90/90
f 55/55/55 82/82/82 85/85/85
f 92/92/92 18/18/18 69/69/69
f 94/94/94 69/69/69 138/138/138
f 127/127/127 44/44/44 26/26/26
f 167/167/167 106/106/106 158/158/158
f 126/126/126 26/26/26 44/44/44
f 106/106/106 167/167/167 52/52/52
f 157/157/157 90/90/90 37/37/37
f 124/124/124 79/79/79 13/13/13
f 101/101/101 11/11/11 43/43/43
f 81/81/81 167/167/167 158/158/158
f 58/58/58 152/152/152 151/151/151
f 164/164/164 171/171/171 160/160/160
f 155/155/155 35/35/35 100/100/100
f 156/156/156 145/145/145 153/153/153
f 162/162/162 12/12/12 22/22/22
f 116/116/116 22/22/22 12/12/12
f 118/118/118 29/29/29 79/79/79
f 40/40/40 86/86/86 88/88/88
f 149/149/149 98/98/98 10/10/10
f 131/131/131 79/79/79 29/29/29
f 26/26/26 128/128/128 52/52/52
f 23/23/23 11/11/11 87/87/87
f 97/97/97 119/119/119 77/77/77
f 145/145/145 53/53/53 149/149/149
f 41/41/41 84/84/84 83/83/83
f 169/169/169 151/151/151 147/147/147
f 168/168/168 72/72/72 119/119/119
f 169/169/169 60/60/60 160/160/160
f 56/56/56 88/88/88 99/99/99
f 7/7/7 99/99/99 88/88/88
f 164/164/164 160/160/160 60/60/60
f 122/122/122 175/175/175 51/51/51
f 163/163/163 176/176/176 172/172/172
f 169/169/169 147/147/147 161/161/161
f 23/23/23 25/25/25 11/11/11
f 96/96/96 100/100/100 35/35/35
f 1/1/1 174/174/174 113/113/113
f 25/25/25 23/23/23 159/159/159
f 48/48/48 141/141/141 89/89/89
f 21/21/21 89/89/89 141/141/141
f 49/49/49 144/144/144 148/148/148
f 109/109/109 51/51/51 175/175/175
f 6/6/6 91/91/91 64/64/64
f 63/63/63 111/111/111 161/161/161
f 32/32/32 136/136/136 123/123/123
f 6/6/6 55/55/55 85/85/85
f 154/154/154 127/127/127 132/132/132
f 155/155/155 102/102/102 35/35/35
f 143/143/143 90/90/90 39/39/39
f 102/102/102 155/155/155 73/73/73
f 110/110/110 49/49/49 34/34/34
f 160/160/160 151/151/151 169/169/169
f 107/107/107 144/144/144 106/106/106
f 111/111/111 169/169/169 161/161/161
f 87/87/87 46/46/46 40/40/40
f 144/144/144 49/49/49 106/106/106
f 111/111/111 63/63/63 5/5/5
f 150/150/150 161/161/161 165/165/165
f 125/125/125 27/27/27 62/62/62
f 72/72/72 173/173/173 135/135/135
f 37/37/37 90/90/90 143/143/143
f 37/37/37 143/143/143 171/171/171
f 97/97/97 2/2/2 119/119/119
f 157/157/157 10/10/10 90/90/90
f 92/92/92 38/38/38 45/45/45
f 49/49/49 158/158/158 106/106/106
f 145/145/145 157/157/157 153/153/153
f 34/34/34 51/51/51 57/57/57
f 119/119/119 29/29/29 118/118/118
f 30/30/30 117/117/117 136/136/136
f 105/105/105 170/170/170 81/81/81
f 110/110/110 80/80/80 158/158/158
f 156/156/156 57/57/57 109/109/109
f 156/156/156 53/53/53 145/145/145
f 44/44/44 127/127/127 131/131/131
f 93/93/93 45/45/45 38/38/38
f 123/123/123 62/62/62 27/27/27
f 5/5/5 95/95/95 111/111/111
f 95/95/95 57/57/57 156/156/156
f 163/163/163 150/150/150 32/32/32
f 60/60/60 111/111/111 95/95/95
f 166/166/166 56/56/56 36/36/36
f 56/56/56 99/99/99 36/36/36
f 146/146/146 172/172/172 61/61/61
f 34/34/34 57/57/57 104/104/104
f 145/145/145 149/149/149 157/157/157
f 9/9/9 117/117/117 75/75/75
f 78/78/78 133/133/133 125/125/125
f 42/42/42 115/115/115 116/116/116
f 95/95/95 156/156/156 153/153/153
f 82/82/82 47/47/47 41/41/41
f 10/10/10 98/98/98 93/93/93
f 83/83/83 54/54/54 171/171/171
f 96/96/96 43/43/43 100/100/100
f 37/37/37 171/171/171 164/164/164
f 77/77/77 119/119/119 118/118/118
f 120/120/120 65/65/65 94/94/94
f 45/45/45 93/93/93 98/98/98
f 91/91/91 59/59/59 39/39/39
f 84/84/84 41/41/41 47/47/47
f 177/177/177 149/149/149 53/53/53
f 112/112/112 42/42/42 31/31/31
f 63/63/63 163/163/163 28/28/28
f 163/163/163 63/63/63 150/150/150
f 167/167/167 26/26/26 52/52/52
f 130/130/130 1/1/1 113/113/113
f 129/129/129 45/45/45 36/36/36
f 154/154/154 132/132/132 140/140/140
f 80/80/80 104/104/104 5/5/5
f 27/27/27 124/124/124 123/123/123
f 30/30/30 116/116/116 115/115/115
f 53/53/53 175/175/175 177/177/177
f 176/176/176 123/123/123 61/61/61
f 43/43/43 107/107/107 139/139/139
f 81/81/81 158/158/158 80/80/80
f 61/61/61 123/123/123 124/124/124
f 33/33/33 52/52/52 108/108/108
f 166/166/166 36/36/36 177/177/177
f 139/139/139 33/33/33 108/108/108
f 12/12/12 84/84/84 114/114/114
f 33/33/33 106/106/106 52/52/52
f 83/83/83 59/59/59 41/41/41
f 98/98/98 177/177/177 36/36/36
f 103/103/103 68/68/68 102/102/102
f 107/107/107 106/106/106 33/33/33
f 47/47/47 114/114/114 84/84/84
f 158/158/158 49/49/49 110/110/110
f 46/46/46 87/87/87 101/101/101
f 62/62/62 136/136/136 117/117/117
f 166/166/166 177/177/177 175/175/175
f 124/124/124 146/146/146 61/61/61
f 140/140/140 170/170/170 105/105/105
f 149/149/149 10/10/10 157/157/157
f 54/54/54 160/160/160 171/171/171
f 154/154/154 140/140/140 146/146/146
f 140/140/140 132/132/132 170/170/170
f 135/135/135 44/44/44 29/29/29
f 74/74/74 139/139/139 108/108/108
f 4/4/4 103/103/103 102/102/102
f 7/7/7 70/70/70 99/99/99
f 131/131/131 29/29/29 44/44/44
f 90/90/90 10/10/10 48/48/48
f 68/68/68 142/142/142 102/102/102
f 19/19/19 86/86/86 142/142/142
f 142/142/142 35/35/35 102/102/102
f 92/92/92 50/50/50 38/38/38
f 31/31/31 134/134/134 113/113/113
f 46/46/46 142/142/142 86/86/86
f 107/107/107 43/43/43 11/11/11
f 56/56/56 166/166/166 122/122/122
f 11/11/11 101/101/101 87/87/87
f 98/98/98 36/36/36 45/45/45
f 105/105/105 81/81/81 80/80/80
f 152/152/152 162/162/162 147/147/147
f 48/48/48 93/93/93 141/141/141
f 122/122/122 51/51/51 23/23/23
f 27/27/27 133/133/133 124/124/124
f 79/79/79 124/124/124 133/133/133
f 2/2/2 168/168/168 119/119/119
f 131/131/131 13/13/13 79/79/79
f 117/117/117 30/30/30 75/75/75
f 115/115/115 75/75/75 30/30/30
f 67/67/67 7/7/7 88/88/88
f 19/19/19 67/67/67 86/86/86
f 68/68/68 19/19/19 142/142/142
f 93/93/93 48/48/48 10/10/10
f 42/42/42 116/116/116 114/114/114
f 24/24/24 4/4/4 102/102/102
f 73/73/73 24/24/24 102/102/102
f 41/41/41 85/85/85 82/82/82
f 74/74/74 16/16/16 139/139/139
f 8/8/8 74/74/74 108/108/108
f 33/33/33 139/139/139 107/107/107
f 8/8/8 108/108/108 128/128/128
f 86/86/86 40/40/40 46/46/46
f 146/146/146 28/28/28 172/172/172
f 96/96/96 35/35/35 101/101/101
f 121/121/121 5/5/5 63/63/63
f 52/52/52 128/128/128 108/108/108
f 128/128/128 71/71/71 8/8/8
f 85/85/85 41/41/41 59/59/59
f 50/50/50 94/94/94 38/38/38
f 126/126/126 17/17/17 71/71/71
f 62/62/62 117/117/117 125/125/125
f 26/26/26 126/126/126 128/128/128
f 39/39/39 89/89/89 91/91/91
f 71/71/71 128/128/128 126/126/126
f 132/132/132 127/127/127 26/26/26
f 44/44/44 135/135/135 126/126/126
f 174/174/174 76/76/76 113/113/113
f 171/171/171 143/143/143 83/83/83
f 43/43/43 96/96/96 101/101/101
f 27/27/27 125/125/125 133/133/133
f 101/101/101 35/35/35 46/46/46
f 62/62/62 123/123/123 136/136/136
f 12/12/12 114/114/114 116/116/116
f 66/66/66 134/134/134 137/137/137
f 17/17/17 126/126/126 135/135/135
f 79/79/79 133/133/133 118/118/118
f 67/67/67 88/88/88 86/86/86
f 34/34/34 104/104/104 110/110/110
f 176/176/176 163/163/163 32/32/32
f 134/134/134 31/31/31 137/137/137
f 77/77/77 118/118/118 14/14/14
f 60/60/60 153/153/153 164/164/164
f 18/18/18 92/92/92 129/129/129
f 59/59/59 83/83/83 143/143/143
f 14/14/14 133/133/133 78/78/78
f 13/13/13 131/131/131 127/127/127
f 154/154/154 13/13/13 127/127/127
f 45/45/45 129/129/129 92/92/92
f 121/121/121 28/28/28 80/80/80
f 28/28/28 105/105/105 80/80/80
f 94/94/94 50/50/50 69/69/69
f 109/109/109 53/53/53 156/156/156
f 140/140/140 28/28/28 146/146/146
f 147/147/147 151/151/151 152/152/152
f 175/175/175 122/122/122 166/166/166
f 123/123/123 176/176/176 32/32/32
f 122/122/122 23/23/23 40/40/40
f 88/88/88 56/56/56 40/40/40
f 149/149/149 177/177/177 98/98/98
f 161/161/161 147/147/147 162/162/162
f 13/13/13 154/154/154 124/124/124
f 146/146/146 124/124/124 154/154/154
