# frame 000589 
# time 0.295000 
# name Cloth3D 
v -0.000000 0.000000 -0.000000
v 1.000000 0.000000 -0.000000
v -0.000000 1.000000 0.000000
v 1.000000 1.000000 0.000000
v 0.500713 0.500239 0.119657
v -0.000000 0.500000 0.000000
v 0.500000 1.000000 0.000000
v 1.000000 0.500000 0.000000
v 0.500000 -0.000000 0.000000
v 0.245765 0.755249 0.076567
v 0.756752 0.755548 0.077721
v 0.244937 0.244482 0.077179
v 0.755208 0.244975 0.076491
v 0.750000 0.000000 0.000000
v 0.250000 0.000000 0.000000
v 1.000000 0.750000 0.000000
v 1.000000 0.250000 0.000000
v 0.250000 1.000000 0.000000
v 0.750000 1.000000 0.000000
v 0.000000 0.250000 0.000000
v 0.000000 0.750000 -0.000000
v 0.362560 0.213919 0.083774
v 0.632728 0.775865 0.084869
v 1.000000 0.937500 0.000000
v 0.684095 0.694967 0.119929
v 0.878891 0.374159 0.049915
v 0.625593 0.124155 0.040475
v 0.631142 0.368909 0.119967
v 0.874867 0.125812 0.012290
v 0.373966 0.120500 0.049914
v 0.122890 0.122323 0.030189
v 0.492143 0.244888 0.093984
v 0.879549 0.626770 0.051135
v 0.631886 0.631316 0.119916
v 0.873802 0.873365 0.003134
v 0.373973 0.877294 0.046340
v 0.256162 0.602958 0.097774
v 0.123194 0.876863 0.025481
v 0.122312 0.625895 0.045730
v 0.625682 0.876293 0.042471
v 0.124030 0.374142 0.041208
v 0.248351 0.120688 0.043111
v 0.877764 0.751317 0.035688
v 0.878706 0.248719 0.041392
v 0.248424 0.878618 0.042070
v 0.750372 0.875290 0.029055
v 0.123801 0.248452 0.034984
v 0.123596 0.751210 0.035828
v 0.730775 0.615657 0.119941
v 0.124129 0.938809 0.013487
v 0.553031 0.707562 0.119929
v 0.877392 0.500362 0.048313
v 0.426047 0.719751 0.119938
v 0.242035 0.453829 0.095352
v 0.000000 0.375000 0.000000
v 0.499879 0.874966 0.042253
v 0.500771 0.630849 0.119865
v 0.244286 0.370886 0.093088
v 0.121144 0.499820 0.050796
v 0.370283 0.500078 0.119842
v 0.629215 0.244407 0.092722
v 0.499890 0.122772 0.046190
v 0.500359 0.369765 0.119994
v 0.000000 0.625000 0.000000
v 0.000000 0.875000 0.000000
v 0.000000 0.125000 0.000000
v 0.625000 1.000000 0.000000
v 0.875000 1.000000 0.000000
v 0.125000 1.000000 0.000000
v 0.375000 1.000000 0.000000
v 1.000000 0.375000 0.000000
v 1.000000 0.125000 0.000000
v 1.000000 0.875000 0.000000
v 1.000000 0.625000 0.000000
v 0.375000 0.000000 0.000000
v 0.125000 0.000000 0.000000
v 0.875000 0.000000 0.000000
v 0.625000 0.000000 0.000000
v 0.750877 0.124043 0.033271
v 0.631344 0.500271 0.119908
v 0.718648 0.488181 0.119929
v 0.061811 0.312094 0.019805
v 0.182853 0.436080 0.072446
v 0.184005 0.309629 0.063229
v 0.061487 0.437312 0.022840
v 0.687730 0.939300 0.023129
v 0.690102 0.815034 0.059930
v 0.562503 0.937732 0.021250
v 0.061587 0.687758 0.020486
v 0.184152 0.690060 0.063393
v 0.060975 0.562552 0.024281
v 0.186839 0.939216 0.018491
v 0.185209 0.815421 0.046138
v 0.062991 0.937269 -0.000667
v 0.435533 0.565532 0.119787
v 0.874535 0.811296 0.015710
v 0.937500 0.000000 -0.000000
v 0.309498 0.818752 0.072038
v 0.437324 0.937520 0.021122
v 0.936882 0.811824 0.005029
v 0.813840 0.812896 0.034578
v 0.937041 0.936993 -0.007728
v 0.937500 1.000000 0.000000
v 0.566214 0.565670 0.119722
v 0.712499 0.424209 0.119929
v 0.825095 0.593709 0.073681
v 0.819863 0.692115 0.073669
v 0.938961 0.562890 0.024600
v 0.490254 0.713572 0.119934
v 0.691877 0.588333 0.119939
v 0.435241 0.434921 0.119721
v 0.186472 0.058940 0.024657
v 0.061696 0.061679 0.010840
v 0.184698 0.183888 0.048513
v 0.312039 0.058867 0.027160
v 0.309824 0.181841 0.068029
v 0.437261 0.061619 0.022342
v 0.812433 0.062673 0.010909
v 0.937029 0.063052 -0.002267
v -0.000000 0.937500 0.000000
v 0.565932 0.434783 0.119936
v 0.525554 0.808505 0.075516
v 0.563620 0.184093 0.068891
v 0.689963 0.184251 0.062497
v 0.562562 0.061365 0.022959
v 0.940393 0.312221 0.025762
v 0.817732 0.309723 0.068321
v 0.939069 0.437509 0.024902
v 0.312167 0.939110 0.022836
v -0.000000 0.062500 -0.000000
v 0.814496 0.186550 0.039749
v 0.806729 0.369978 0.078852
v 0.687528 0.062653 0.016689
v 0.061608 0.124134 0.014355
v 0.938603 0.187413 0.015230
v 0.436456 0.182072 0.073540
v 0.060720 0.186677 0.020072
v 0.062500 1.000000 0.000000
v 0.940028 0.688027 0.024112
v 0.705802 0.360820 0.119929
v 0.062306 0.812779 0.013746
v 0.812057 0.936823 0.006817
v 0.182773 0.563443 0.072503
v 0.356206 0.324997 0.119929
v 0.333730 0.660564 0.119929
v 0.699900 0.291850 0.119942
v 0.301931 0.330090 0.119942
v 0.738071 0.689910 0.119942
v 0.340090 0.728069 0.119942
v 0.486281 0.312498 0.119929
v 0.309218 0.405435 0.119938
v 0.288102 0.324929 0.113242
v 0.327624 0.597022 0.119929
v 0.721950 0.291843 0.107871
v 0.936837 0.874069 -0.003000
v 0.433973 0.641017 0.119784
v 0.276359 0.662258 0.099320
v 0.724554 0.552327 0.119941
v 0.617396 0.701378 0.119929
v 0.315411 0.469649 0.119935
v 0.421273 0.318744 0.119929
v 0.358983 0.287306 0.107971
v 0.549108 0.306461 0.119929
v 0.321447 0.532722 0.119929
v 0.415995 0.250358 0.096683
v 0.424233 0.818290 0.069497
v 0.816539 0.481541 0.072342
v 1.000000 0.062500 -0.000000
v 0.370555 0.414385 0.119884
v 0.772271 0.422561 0.090197
v 0.239512 0.515618 0.094805
v 0.613857 0.300205 0.119936
v 1.000000 0.187500 0.000000
v 0.062500 0.000000 -0.000000
v 0.477007 0.768563 0.095110
v 0.556266 0.243360 0.092266
v 0.383005 0.773685 0.094530
vt 0.000000 0.000000
vt 1.000000 0.000000
vt 0.000000 1.000000
vt 1.000000 1.000000
vt 0.500000 0.500000
vt 0.000000 0.500000
vt 0.500000 1.000000
vt 1.000000 0.500000
vt 0.500000 0.000000
vt 0.250000 0.750000
vt 0.750000 0.750000
vt 0.250000 0.250000
vt 0.750000 0.250000
vt 0.750000 0.000000
vt 0.250000 0.000000
vt 1.000000 0.750000
vt 1.000000 0.250000
vt 0.250000 1.000000
vt 0.750000 1.000000
vt 0.000000 0.250000
vt 0.000000 0.750000
vt 0.365347 0.220303
vt 0.629073 0.770824
vt 1.000000 0.937500
vt 0.674077 0.685382
vt 0.875000 0.375000
vt 0.625000 0.125000
vt 0.625000 0.375000
vt 0.875000 0.125000
vt 0.375000 0.125000
vt 0.125000 0.125000
vt 0.492214 0.250470
vt 0.875000 0.625000
vt 0.625000 0.625000
vt 0.875000 0.875000
vt 0.375000 0.875000
vt 0.262101 0.599801
vt 0.125000 0.875000
vt 0.125000 0.625000
vt 0.625000 0.875000
vt 0.125000 0.375000
vt 0.250000 0.125000
vt 0.875000 0.750000
vt 0.875000 0.250000
vt 0.250000 0.875000
vt 0.750000 0.875000
vt 0.125000 0.250000
vt 0.125000 0.750000
vt 0.719313 0.609588
vt 0.125000 0.937500
vt 0.550083 0.698528
vt 0.875000 0.500000
vt 0.428700 0.709726
vt 0.248222 0.455442
vt 0.000000 0.375000
vt 0.500000 0.875000
vt 0.500000 0.625000
vt 0.250000 0.375000
vt 0.125000 0.500000
vt 0.375000 0.500000
vt 0.625000 0.250000
vt 0.500000 0.125000
vt 0.500000 0.375000
vt 0.000000 0.625000
vt 0.000000 0.875000
vt 0.000000 0.125000
vt 0.625000 1.000000
vt 0.875000 1.000000
vt 0.125000 1.000000
vt 0.375000 1.000000
vt 1.000000 0.375000
vt 1.000000 0.125000
vt 1.000000 0.875000
vt 1.000000 0.625000
vt 0.375000 0.000000
vt 0.125000 0.000000
vt 0.875000 0.000000
vt 0.625000 0.000000
vt 0.750000 0.125000
vt 0.625000 0.500000
vt 0.708687 0.488390
vt 0.062500 0.312500
vt 0.187500 0.437500
vt 0.187500 0.312500
vt 0.062500 0.437500
vt 0.687500 0.937500
vt 0.687500 0.812500
vt 0.562500 0.937500
vt 0.062500 0.687500
vt 0.187500 0.687500
vt 0.062500 0.562500
vt 0.187500 0.937500
vt 0.187500 0.812500
vt 0.062500 0.937500
vt 0.437500 0.562500
vt 0.875000 0.812500
vt 0.937500 0.000000
vt 0.312500 0.812500
vt 0.437500 0.937500
vt 0.937500 0.812500
vt 0.812500 0.812500
vt 0.937500 0.937500
vt 0.937500 1.000000
vt 0.562500 0.562500
vt 0.702853 0.427557
vt 0.819332 0.591237
vt 0.812500 0.687500
vt 0.937500 0.562500
vt 0.490027 0.704155
vt 0.682510 0.583771
vt 0.437500 0.437500
vt 0.187500 0.062500
vt 0.062500 0.062500
vt 0.187500 0.187500
vt 0.312500 0.062500
vt 0.312500 0.187500
vt 0.437500 0.062500
vt 0.812500 0.062500
vt 0.937500 0.062500
vt 0.000000 0.937500
vt 0.562500 0.437500
vt 0.525016 0.804189
vt 0.562500 0.187500
vt 0.687500 0.187500
vt 0.562500 0.062500
vt 0.937500 0.312500
vt 0.812500 0.312500
vt 0.937500 0.437500
vt 0.312500 0.937500
vt 0.000000 0.062500
vt 0.812500 0.187500
vt 0.800716 0.372483
vt 0.687500 0.062500
vt 0.062500 0.125000
vt 0.937500 0.187500
vt 0.437500 0.187500
vt 0.062500 0.187500
vt 0.062500 1.000000
vt 0.937500 0.687500
vt 0.696465 0.367458
vt 0.062500 0.812500
vt 0.812500 0.937500
vt 0.187500 0.562500
vt 0.362291 0.332437
vt 0.340195 0.653336
vt 0.690101 0.303045
vt 0.311036 0.338040
vt 0.724370 0.679256
vt 0.347009 0.716886
vt 0.486710 0.320011
vt 0.316995 0.409460
vt 0.296906 0.332149
vt 0.333923 0.592869
vt 0.713437 0.300753
vt 0.937500 0.875000
vt 0.436137 0.634590
vt 0.281585 0.657008
vt 0.714102 0.549533
vt 0.611374 0.692197
vt 0.322434 0.470902
vt 0.424344 0.326061
vt 0.364019 0.294291
vt 0.547028 0.314585
vt 0.327995 0.531358
vt 0.418341 0.256674
vt 0.425703 0.815414
vt 0.812755 0.481587
vt 1.000000 0.062500
vt 0.375653 0.417988
vt 0.766844 0.424637
vt 0.245672 0.515386
vt 0.608989 0.309248
vt 1.000000 0.187500
vt 0.062500 0.000000
vt 0.477574 0.762067
vt 0.554454 0.248535
vt 0.386728 0.766561
vn -0.089703 -0.089703 0.991921
vn -0.015436 0.015436 0.999762
vn 0.002326 -0.002326 0.999995
vn -0.062327 -0.062327 0.996108
vn -0.000394 0.000554 1.000000
vn -0.361578 -0.006339 0.932320
vn -0.000839 0.325548 0.945525
vn 0.377394 0.002659 0.926049
vn -0.000511 -0.346836 0.937926
vn -0.299705 0.200939 0.932631
vn 0.251892 0.414320 0.874579
vn -0.245355 -0.231944 0.941277
vn 0.302420 -0.337590 0.891390
vn 0.020257 -0.215640 0.976263
vn -0.007896 -0.403253 0.915054
vn 0.255910 0.073845 0.963876
vn 0.309044 -0.033182 0.950469
vn -0.015316 0.326020 0.945239
vn 0.066915 0.239471 0.968595
vn -0.315263 0.003026 0.948999
vn -0.271286 0.025252 0.962167
vn -0.052839 -0.319830 0.946001
vn 0.078421 0.408221 0.909508
vn -0.124218 0.000000 0.992255
vn 0.030570 0.214454 0.976255
vn 0.361654 -0.023448 0.932017
vn 0.049267 -0.353556 0.934115
vn 0.000158 -0.000034 1.000000
vn 0.139919 -0.183293 0.973050
vn -0.003454 -0.358034 0.933702
vn -0.186813 -0.121870 0.974807
vn 0.008504 -0.356987 0.934071
vn 0.391456 0.007067 0.920170
vn -0.000476 -0.000674 1.000000
vn 0.166343 0.147817 0.974926
vn 0.024662 0.376801 0.925966
vn -0.314506 0.057274 0.947526
vn -0.200794 0.160563 0.966386
vn -0.350032 0.050627 0.935369
vn 0.043212 0.338442 0.939995
vn -0.356824 -0.054265 0.932594
vn -0.084028 -0.254519 0.963410
vn 0.287805 0.258197 0.922227
vn 0.281675 -0.149227 0.947835
vn -0.109036 0.300294 0.947594
vn 0.160158 0.252958 0.954129
vn -0.280329 -0.037839 0.959158
vn -0.299610 0.087182 0.950070
vn 0.153290 -0.010495 0.988126
vn -0.153057 0.207824 0.966117
vn 0.019822 0.205960 0.978360
vn 0.372479 -0.008011 0.928006
vn 0.020563 0.251375 0.967671
vn -0.343719 -0.010625 0.939012
vn -0.330016 -0.010882 0.943913
vn 0.003047 0.386502 0.922284
vn -0.000601 -0.001001 0.999999
vn -0.393174 -0.019557 0.919256
vn -0.377518 -0.014225 0.925893
vn 0.001611 -0.000005 0.999999
vn -0.008427 -0.430273 0.902659
vn 0.029765 -0.370979 0.928164
vn -0.000670 0.000296 1.000000
vn -0.346091 0.014818 0.938084
vn -0.087011 0.046152 0.995138
vn -0.249654 -0.025288 0.968005
vn -0.010336 0.346064 0.938154
vn 0.046916 -0.031708 0.998395
vn -0.087904 0.167985 0.981862
vn 0.008187 0.339003 0.940750
vn 0.391493 0.005171 0.920166
vn 0.107966 -0.046700 0.993057
vn -0.052715 0.059403 0.996841
vn 0.370856 0.000944 0.928690
vn 0.019674 -0.381544 0.924141
vn -0.044315 -0.265404 0.963118
vn 0.041819 -0.051931 0.997775
vn 0.025002 -0.301492 0.953141
vn 0.106651 -0.293873 0.949876
vn -0.000922 0.000657 0.999999
vn 0.219671 -0.022584 0.975313
vn -0.295770 -0.016166 0.955122
vn -0.371781 -0.042961 0.927326
vn -0.382844 -0.086809 0.919725
vn -0.353011 -0.027929 0.935202
vn 0.054979 0.279185 0.958662
vn 0.131571 0.384946 0.913513
vn -0.006897 0.324881 0.945730
vn -0.321351 0.039176 0.946149
vn -0.331371 0.092385 0.938967
vn -0.370541 0.013729 0.928715
vn -0.064466 0.259482 0.963594
vn -0.224066 0.172822 0.959128
vn -0.093900 0.074951 0.992756
vn 0.000660 -0.000502 1.000000
vn 0.228811 0.256031 0.939198
vn 0.000000 0.030845 0.999524
vn -0.099902 0.376032 0.921206
vn 0.012411 0.338558 0.940864
vn 0.126636 0.165241 0.978089
vn 0.258542 0.303652 0.917034
vn -0.010571 -0.009662 0.999897
vn 0.000000 -0.124128 0.992266
vn -0.000884 -0.000817 0.999999
vn 0.267752 -0.027640 0.963091
vn 0.406648 -0.008023 0.913550
vn 0.402846 0.161722 0.900867
vn 0.380052 -0.003838 0.924957
vn 0.022748 0.231639 0.972536
vn -0.000335 -0.000038 1.000000
vn 0.000696 0.001139 0.999999
vn -0.057034 -0.290871 0.955061
vn -0.129032 -0.112025 0.985292
vn -0.201937 -0.151488 0.967612
vn -0.005986 -0.363978 0.931388
vn -0.096515 -0.300495 0.948888
vn 0.017085 -0.367983 0.929675
vn 0.077148 -0.184254 0.979846
vn 0.024682 -0.030632 0.999226
vn 0.004643 0.000000 0.999989
vn -0.000858 0.001517 0.999999
vn 0.008822 0.425702 0.904820
vn 0.028568 -0.376536 0.925961
vn 0.096217 -0.402946 0.910152
vn 0.024621 -0.333369 0.942475
vn 0.355781 -0.034352 0.933938
vn 0.358690 -0.116360 0.926176
vn 0.376774 0.007928 0.926271
vn -0.009085 0.354671 0.934947
vn -0.193146 -0.015221 0.981052
vn 0.200389 -0.282873 0.937991
vn 0.372915 -0.032662 0.927290
vn 0.036112 -0.287139 0.957208
vn -0.235154 -0.067144 0.969636
vn 0.222941 -0.091387 0.970539
vn 0.009293 -0.344173 0.938860
vn -0.261194 -0.041107 0.964411
vn 0.000000 -0.004662 0.999989
vn 0.357619 0.051733 0.932434
vn 0.201352 -0.018817 0.979338
vn -0.245938 0.060752 0.967380
vn 0.114640 0.130264 0.984829
vn -0.351627 0.040551 0.935261
vn -0.019917 -0.206111 0.978326
vn -0.204241 0.019746 0.978721
vn 0.328877 -0.165507 0.929757
vn -0.268685 -0.229943 0.935379
vn 0.195039 0.227943 0.953940
vn -0.117685 0.237513 0.964229
vn -0.011437 -0.163737 0.986438
vn -0.172580 0.006926 0.984971
vn -0.334528 -0.229336 0.914055
vn -0.181480 0.024396 0.983092
vn 0.444877 -0.146175 0.883582
vn 0.028695 0.104953 0.994063
vn -0.000137 -0.000773 1.000000
vn -0.330943 0.069260 0.941106
vn 0.150024 -0.014950 0.988569
vn 0.019737 0.200131 0.979570
vn -0.137832 0.010551 0.990399
vn -0.016522 -0.191389 0.981375
vn -0.045525 -0.318497 0.946830
vn -0.014763 -0.227001 0.973783
vn -0.134650 0.012716 0.990812
vn -0.009937 -0.321488 0.946861
vn 0.016533 0.438666 0.898498
vn 0.388862 -0.019349 0.921093
vn -0.030885 -0.000000 0.999523
vn 0.001371 0.000541 0.999999
vn 0.397400 -0.008397 0.917607
vn -0.327089 0.012417 0.944912
vn -0.017323 -0.244097 0.969596
vn 0.245639 0.000000 0.969361
vn -0.000000 -0.177994 0.984031
vn 0.020702 0.430121 0.902534
vn -0.000328 -0.389003 0.921236
vn 0.026988 0.462293 0.886317
f 129/129/129 99/99/99 70/70/70
f 112/112/112 31/31/31 113/113/113
f 170/170/170 132/132/132 167/167/167
f 26/26/26 167/167/167 132/132/132
f 58/58/58 152/152/152 147/147/147
f 160/160/160 54/54/54 151/151/151
f 173/173/173 17/17/17 135/135/135
f 129/129/129 36/36/36 99/99/99
f 3/3/3 120/120/120 94/94/94
f 152/152/152 12/12/12 162/162/162
f 11/11/11 25/25/25 148/148/148
f 80/80/80 110/110/110 104/104/104
f 115/115/115 112/112/112 15/15/15
f 163/163/163 172/172/172 28/28/28
f 114/114/114 137/137/137 31/31/31
f 76/76/76 112/112/112 113/113/113
f 58/58/58 151/151/151 54/54/54
f 15/15/15 112/112/112 76/76/76
f 115/115/115 15/15/15 75/75/75
f 20/20/20 137/137/137 82/82/82
f 113/113/113 134/134/134 130/130/130
f 148/148/148 25/25/25 49/49/49
f 22/22/22 30/30/30 136/136/136
f 47/47/47 82/82/82 137/137/137
f 16/16/16 73/73/73 100/100/100
f 165/165/165 22/22/22 136/136/136
f 21/21/21 64/64/64 89/89/89
f 83/83/83 58/58/58 54/54/54
f 57/57/57 95/95/95 104/104/104
f 116/116/116 30/30/30 22/22/22
f 42/42/42 112/112/112 115/115/115
f 66/66/66 130/130/130 134/134/134
f 140/140/140 105/105/105 28/28/28
f 155/155/155 100/100/100 73/73/73
f 129/129/129 70/70/70 18/18/18
f 63/63/63 28/28/28 121/121/121
f 165/165/165 162/162/162 22/22/22
f 114/114/114 31/31/31 42/42/42
f 150/150/150 165/165/165 32/32/32
f 37/37/37 153/153/153 157/157/157
f 164/164/164 153/153/153 37/37/37
f 39/39/39 90/90/90 89/89/89
f 61/61/61 172/172/172 176/176/176
f 139/139/139 16/16/16 43/43/43
f 32/32/32 165/165/165 136/136/136
f 161/161/161 144/144/144 162/162/162
f 51/51/51 159/159/159 23/23/23
f 142/142/142 46/46/46 35/35/35
f 78/78/78 125/125/125 9/9/9
f 121/121/121 80/80/80 5/5/5
f 60/60/60 95/95/95 153/153/153
f 169/169/169 151/151/151 144/144/144
f 9/9/9 125/125/125 117/117/117
f 175/175/175 53/53/53 109/109/109
f 162/162/162 165/165/165 161/161/161
f 64/64/64 91/91/91 89/89/89
f 60/60/60 169/169/169 111/111/111
f 50/50/50 92/92/92 69/69/69
f 63/63/63 161/161/161 150/150/150
f 25/25/25 159/159/159 34/34/34
f 81/81/81 170/170/170 167/167/167
f 30/30/30 115/115/115 117/117/117
f 84/84/84 152/152/152 58/58/58
f 51/51/51 109/109/109 57/57/57
f 34/34/34 159/159/159 51/51/51
f 11/11/11 148/148/148 107/107/107
f 5/5/5 104/104/104 95/95/95
f 23/23/23 87/87/87 40/40/40
f 38/38/38 94/94/94 141/141/141
f 29/29/29 119/119/119 135/135/135
f 72/72/72 135/135/135 119/119/119
f 84/84/84 12/12/12 152/152/152
f 100/100/100 43/43/43 16/16/16
f 47/47/47 137/137/137 114/114/114
f 14/14/14 118/118/118 133/133/133
f 56/56/56 122/122/122 40/40/40
f 65/65/65 141/141/141 94/94/94
f 20/20/20 66/66/66 137/137/137
f 55/55/55 20/20/20 82/82/82
f 59/59/59 91/91/91 85/85/85
f 65/65/65 21/21/21 141/141/141
f 6/6/6 85/85/85 91/91/91
f 94/94/94 138/138/138 3/3/3
f 58/58/58 83/83/83 84/84/84
f 48/48/48 89/89/89 90/90/90
f 55/55/55 82/82/82 85/85/85
f 92/92/92 18/18/18 69/69/69
f 94/94/94 69/69/69 138/138/138
f 127/127/127 44/44/44 26/26/26
f 167/167/167 106/106/106 158/158/158
f 126/126/126 26/26/26 44/44/44
f 106/106/106 167/167/167 52/52/52
f 157/157/157 90/90/90 37/37/37
f 127/127/127 13/13/13 44/44/44
f 101/101/101 11/11/11 43/43/43
f 81/81/81 167/167/167 158/158/158
f 98/98/98 166/166/166 36/36/36
f 164/164/164 171/171/171 160/160/160
f 155/155/155 35/35/35 100/100/100
f 156/156/156 145/145/145 153/153/153
f 162/162/162 12/12/12 22/22/22
f 116/116/116 22/22/22 12/12/12
f 118/118/118 29/29/29 79/79/79
f 40/40/40 86/86/86 88/88/88
f 149/149/149 98/98/98 10/10/10
f 131/131/131 79/79/79 29/29/29
f 26/26/26 128/128/128 52/52/52
f 23/23/23 11/11/11 87/87/87
f 97/97/97 119/119/119 77/77/77
f 145/145/145 53/53/53 149/149/149
f 41/41/41 84/84/84 83/83/83
f 48/48/48 38/38/38 141/141/141
f 168/168/168 72/72/72 119/119/119
f 169/169/169 60/60/60 160/160/160
f 56/56/56 88/88/88 99/99/99
f 7/7/7 99/99/99 88/88/88
f 164/164/164 160/160/160 60/60/60
f 122/122/122 175/175/175 51/51/51
f 163/163/163 176/176/176 172/172/172
f 93/93/93 38/38/38 48/48/48
f 23/23/23 25/25/25 11/11/11
f 96/96/96 100/100/100 35/35/35
f 1/1/1 174/174/174 113/113/113
f 25/25/25 23/23/23 159/159/159
f 48/48/48 141/141/141 89/89/89
f 21/21/21 89/89/89 141/141/141
f 147/147/147 144/144/144 151/151/151
f 109/109/109 51/51/51 175/175/175
f 6/6/6 91/91/91 64/64/64
f 63/63/63 111/111/111 161/161/161
f 32/32/32 136/136/136 123/123/123
f 6/6/6 55/55/55 85/85/85
f 154/154/154 127/127/127 132/132/132
f 155/155/155 102/102/102 35/35/35
f 143/143/143 90/90/90 39/39/39
f 102/102/102 155/155/155 73/73/73
f 75/75/75 117/117/117 115/115/115
f 160/160/160 151/151/151 169/169/169
f 59/59/59 143/143/143 91/91/91
f 111/111/111 169/169/169 161/161/161
f 87/87/87 46/46/46 40/40/40
f 39/39/39 91/91/91 143/143/143
f 111/111/111 63/63/63 5/5/5
f 150/150/150 161/161/161 165/165/165
f 125/125/125 27/27/27 62/62/62
f 72/72/72 173/173/173 135/135/135
f 37/37/37 90/90/90 143/143/143
f 37/37/37 143/143/143 171/171/171
f 97/97/97 2/2/2 119/119/119
f 157/157/157 10/10/10 90/90/90
f 92/92/92 38/38/38 45/45/45
f 49/49/49 158/158/158 106/106/106
f 145/145/145 157/157/157 153/153/153
f 34/34/34 51/51/51 57/57/57
f 119/119/119 29/29/29 118/118/118
f 30/30/30 117/117/117 136/136/136
f 105/105/105 170/170/170 81/81/81
f 110/110/110 80/80/80 158/158/158
f 156/156/156 57/57/57 109/109/109
f 156/156/156 53/53/53 145/145/145
f 114/114/114 12/12/12 47/47/47
f 93/93/93 45/45/45 38/38/38
f 123/123/123 62/62/62 27/27/27
f 5/5/5 95/95/95 111/111/111
f 95/95/95 57/57/57 156/156/156
f 163/163/163 150/150/150 32/32/32
f 60/60/60 111/111/111 95/95/95
f 166/166/166 56/56/56 36/36/36
f 56/56/56 99/99/99 36/36/36
f 146/146/146 172/172/172 61/61/61
f 34/34/34 57/57/57 104/104/104
f 145/145/145 149/149/149 157/157/157
f 9/9/9 117/117/117 75/75/75
f 78/78/78 133/133/133 125/125/125
f 42/42/42 115/115/115 116/116/116
f 95/95/95 156/156/156 153/153/153
f 82/82/82 47/47/47 41/41/41
f 10/10/10 98/98/98 93/93/93
f 83/83/83 54/54/54 171/171/171
f 96/96/96 43/43/43 100/100/100
f 37/37/37 171/171/171 164/164/164
f 77/77/77 119/119/119 118/118/118
f 120/120/120 65/65/65 94/94/94
f 45/45/45 93/93/93 98/98/98
f 169/169/169 144/144/144 161/161/161
f 84/84/84 41/41/41 47/47/47
f 144/144/144 147/147/147 162/162/162
f 112/112/112 42/42/42 31/31/31
f 63/63/63 163/163/163 28/28/28
f 163/163/163 63/63/63 150/150/150
f 167/167/167 26/26/26 52/52/52
f 130/130/130 1/1/1 113/113/113
f 106/106/106 107/107/107 49/49/49
f 154/154/154 132/132/132 140/140/140
f 80/80/80 104/104/104 5/5/5
f 27/27/27 124/124/124 123/123/123
f 30/30/30 116/116/116 115/115/115
f 53/53/53 175/175/175 177/177/177
f 176/176/176 123/123/123 61/61/61
f 43/43/43 107/107/107 139/139/139
f 81/81/81 158/158/158 80/80/80
f 61/61/61 123/123/123 124/124/124
f 33/33/33 52/52/52 108/108/108
f 124/124/124 27/27/27 79/79/79
f 139/139/139 33/33/33 108/108/108
f 143/143/143 59/59/59 171/171/171
f 33/33/33 106/106/106 52/52/52
f 83/83/83 59/59/59 41/41/41
f 133/133/133 79/79/79 27/27/27
f 103/103/103 68/68/68 102/102/102
f 107/107/107 106/106/106 33/33/33
f 83/83/83 171/171/171 59/59/59
f 158/158/158 49/49/49 110/110/110
f 46/46/46 87/87/87 101/101/101
f 62/62/62 136/136/136 117/117/117
f 166/166/166 177/177/177 175/175/175
f 124/124/124 146/146/146 61/61/61
f 140/140/140 170/170/170 105/105/105
f 149/149/149 10/10/10 157/157/157
f 54/54/54 160/160/160 171/171/171
f 154/154/154 140/140/140 146/146/146
f 140/140/140 132/132/132 170/170/170
f 135/135/135 44/44/44 29/29/29
f 74/74/74 139/139/139 108/108/108
f 4/4/4 103/103/103 102/102/102
f 7/7/7 70/70/70 99/99/99
f 131/131/131 29/29/29 44/44/44
f 90/90/90 10/10/10 48/48/48
f 68/68/68 142/142/142 102/102/102
f 19/19/19 86/86/86 142/142/142
f 142/142/142 35/35/35 102/102/102
f 92/92/92 50/50/50 38/38/38
f 31/31/31 134/134/134 113/113/113
f 46/46/46 142/142/142 86/86/86
f 107/107/107 43/43/43 11/11/11
f 56/56/56 166/166/166 122/122/122
f 11/11/11 101/101/101 87/87/87
f 148/148/148 49/49/49 107/107/107
f 105/105/105 81/81/81 80/80/80
f 152/152/152 162/162/162 147/147/147
f 147/147/147 151/151/151 58/58/58
f 122/122/122 51/51/51 23/23/23
f 79/79/79 131/131/131 124/124/124
f 13/13/13 124/124/124 131/131/131
f 2/2/2 168/168/168 119/119/119
f 131/131/131 44/44/44 13/13/13
f 36/36/36 129/129/129 98/98/98
f 45/45/45 98/98/98 129/129/129
f 67/67/67 7/7/7 88/88/88
f 19/19/19 67/67/67 86/86/86
f 68/68/68 19/19/19 142/142/142
f 93/93/93 48/48/48 10/10/10
f 42/42/42 116/116/116 114/114/114
f 24/24/24 4/4/4 102/102/102
f 73/73/73 24/24/24 102/102/102
f 41/41/41 85/85/85 82/82/82
f 74/74/74 16/16/16 139/139/139
f 8/8/8 74/74/74 108/108/108
f 33/33/33 139/139/139 107/107/107
f 8/8/8 108/108/108 128/128/128
f 86/86/86 40/40/40 46/46/46
f 146/146/146 28/28/28 172/172/172
f 96/96/96 35/35/35 101/101/101
f 121/121/121 5/5/5 63/63/63
f 52/52/52 128/128/128 108/108/108
f 128/128/128 71/71/71 8/8/8
f 85/85/85 41/41/41 59/59/59
f 50/50/50 94/94/94 38/38/38
f 126/126/126 17/17/17 71/71/71
f 62/62/62 117/117/117 125/125/125
f 26/26/26 126/126/126 128/128/128
f 39/39/39 89/89/89 91/91/91
f 71/71/71 128/128/128 126/126/126
f 132/132/132 127/127/127 26/26/26
f 44/44/44 135/135/135 126/126/126
f 174/174/174 76/76/76 113/113/113
f 124/124/124 13/13/13 146/146/146
f 43/43/43 96/96/96 101/101/101
f 27/27/27 125/125/125 133/133/133
f 101/101/101 35/35/35 46/46/46
f 62/62/62 123/123/123 136/136/136
f 12/12/12 114/114/114 116/116/116
f 66/66/66 134/134/134 137/137/137
f 17/17/17 126/126/126 135/135/135
f 79/79/79 133/133/133 118/118/118
f 67/67/67 88/88/88 86/86/86
f 34/34/34 104/104/104 110/110/110
f 176/176/176 163/163/163 32/32/32
f 134/134/134 31/31/31 137/137/137
f 77/77/77 118/118/118 14/14/14
f 60/60/60 153/153/153 164/164/164
f 18/18/18 92/92/92 129/129/129
f 154/154/154 146/146/146 13/13/13
f 14/14/14 133/133/133 78/78/78
f 84/84/84 47/47/47 12/12/12
f 154/154/154 13/13/13 127/127/127
f 45/45/45 129/129/129 92/92/92
f 121/121/121 28/28/28 80/80/80
f 28/28/28 105/105/105 80/80/80
f 94/94/94 50/50/50 69/69/69
f 109/109/109 53/53/53 156/156/156
f 140/140/140 28/28/28 146/146/146
f 177/177/177 166/166/166 98/98/98
f 175/175/175 122/122/122 166/166/166
f 123/123/123 176/176/176 32/32/32
f 122/122/122 23/23/23 40/40/40
f 88/88/88 56/56/56 40/40/40
f 149/149/149 177/177/177 98/98/98
f 177/177/177 149/149/149 53/53/53
f 110/110/110 49/49/49 34/34/34
f 25/25/25 34/34/34 49/49/49
