# frame 000583 
# time 0.292000 
# name Cloth3D 
v -0.000000 0.000000 -0.000000
v 1.000000 0.000000 -0.000000
v -0.000000 1.000000 0.000000
v 1.000000 1.000000 0.000000
v 0.500958 0.500541 0.119657
v -0.000000 0.500000 0.000000
v 0.500000 1.000000 0.000000
v 1.000000 0.500000 0.000000
v 0.500000 -0.000000 0.000000
v 0.245472 0.755682 0.079012
v 0.756789 0.755412 0.078479
v 0.245382 0.244927 0.077360
v 0.755887 0.244697 0.079085
v 0.750000 0.000000 0.000000
v 0.250000 0.000000 0.000000
v 1.000000 0.750000 0.000000
v 1.000000 0.250000 0.000000
v 0.250000 1.000000 0.000000
v 0.750000 1.000000 0.000000
v 0.000000 0.250000 0.000000
v 0.000000 0.750000 -0.000000
v 0.363051 0.214352 0.083296
v 0.632885 0.776175 0.085808
v 1.000000 0.937500 0.000000
v 0.683620 0.692853 0.119929
v 0.879816 0.374036 0.052051
v 0.626039 0.123839 0.041757
v 0.631253 0.369311 0.119967
v 0.875743 0.124830 0.017728
v 0.374264 0.121059 0.049050
v 0.122506 0.122137 0.032381
v 0.492597 0.245018 0.094235
v 0.879404 0.626701 0.050666
v 0.632031 0.631267 0.119916
v 0.874614 0.874065 0.007341
v 0.374008 0.877582 0.047119
v 0.256289 0.603117 0.098149
v 0.122868 0.877495 0.029205
v 0.121878 0.626091 0.047453
v 0.626000 0.877185 0.044754
v 0.123280 0.374158 0.043734
v 0.248350 0.120974 0.043429
v 0.878423 0.751670 0.038126
v 0.879512 0.248337 0.043885
v 0.248191 0.879757 0.046170
v 0.750792 0.876091 0.031809
v 0.123684 0.248390 0.036230
v 0.123001 0.751707 0.038771
v 0.732677 0.615477 0.119941
v 0.124087 0.939101 0.015133
v 0.553134 0.707370 0.119929
v 0.878491 0.500400 0.050742
v 0.426496 0.721445 0.119938
v 0.242002 0.454187 0.096248
v 0.000000 0.375000 0.000000
v 0.500075 0.876104 0.045084
v 0.500968 0.630960 0.119865
v 0.244032 0.371238 0.094750
v 0.121112 0.499983 0.051266
v 0.370580 0.500374 0.119842
v 0.629498 0.243413 0.095724
v 0.500344 0.121876 0.048720
v 0.500714 0.370117 0.119994
v 0.000000 0.625000 0.000000
v 0.000000 0.875000 0.000000
v 0.000000 0.125000 0.000000
v 0.625000 1.000000 0.000000
v 0.875000 1.000000 0.000000
v 0.125000 1.000000 0.000000
v 0.375000 1.000000 0.000000
v 1.000000 0.375000 0.000000
v 1.000000 0.125000 0.000000
v 1.000000 0.875000 0.000000
v 1.000000 0.625000 0.000000
v 0.375000 0.000000 0.000000
v 0.125000 0.000000 0.000000
v 0.875000 0.000000 0.000000
v 0.625000 0.000000 0.000000
v 0.751310 0.123547 0.035638
v 0.631508 0.500565 0.119908
v 0.718665 0.488428 0.119929
v 0.061432 0.312074 0.021237
v 0.182903 0.436384 0.072961
v 0.183765 0.309842 0.064867
v 0.061282 0.437354 0.023565
v 0.688040 0.940362 0.025952
v 0.690744 0.816595 0.064487
v 0.562661 0.938281 0.022657
v 0.061344 0.687931 0.021649
v 0.183860 0.690358 0.065176
v 0.060526 0.562664 0.025609
v 0.186749 0.939784 0.020697
v 0.184665 0.816278 0.050143
v 0.062800 0.937399 0.001888
v 0.435782 0.565755 0.119787
v 0.875398 0.812208 0.019993
v 0.937500 0.000000 -0.000000
v 0.309656 0.818842 0.072845
v 0.437336 0.938109 0.022538
v 0.937229 0.812107 0.007019
v 0.814355 0.813568 0.037589
v 0.937161 0.937056 -0.008237
v 0.937500 1.000000 0.000000
v 0.566399 0.565864 0.119722
v 0.711572 0.424684 0.119929
v 0.826102 0.593803 0.075994
v 0.820171 0.691862 0.074213
v 0.938857 0.562865 0.024209
v 0.490578 0.714307 0.119934
v 0.692299 0.588375 0.119939
v 0.435570 0.435273 0.119721
v 0.186411 0.058900 0.025337
v 0.061426 0.061473 0.012542
v 0.184259 0.183687 0.051731
v 0.312082 0.059400 0.026257
v 0.310094 0.182043 0.068450
v 0.437492 0.060840 0.024503
v 0.812689 0.062313 0.012782
v 0.937203 0.062879 -0.000220
v -0.000000 0.937500 0.000000
v 0.566152 0.435148 0.119936
v 0.525649 0.809598 0.078333
v 0.564009 0.184243 0.068907
v 0.690360 0.184352 0.063477
v 0.562752 0.061840 0.021770
v 0.940979 0.312067 0.027140
v 0.818240 0.309612 0.069604
v 0.939698 0.437443 0.026302
v 0.312104 0.939489 0.024098
v -0.000000 0.062500 -0.000000
v 0.815354 0.185689 0.044070
v 0.807105 0.370051 0.079520
v 0.687725 0.063030 0.015794
v 0.060718 0.123866 0.018189
v 0.939014 0.187211 0.017077
v 0.436916 0.181841 0.074657
v 0.060083 0.186613 0.022555
v 0.062500 1.000000 0.000000
v 0.939447 0.687980 0.022607
v 0.703933 0.361475 0.119929
v 0.061718 0.813292 0.016551
v 0.812232 0.937028 0.007770
v 0.182415 0.563665 0.074031
v 0.356884 0.327084 0.119929
v 0.335684 0.660480 0.119929
v 0.696607 0.289176 0.119942
v 0.299256 0.333381 0.119942
v 0.740746 0.686619 0.119942
v 0.343381 0.730744 0.119942
v 0.486651 0.312647 0.119929
v 0.581599 0.835041 0.065767
v 0.288509 0.325284 0.113511
v 0.328635 0.597118 0.119929
v 0.722516 0.292075 0.109236
v 0.936943 0.874077 -0.003302
v 0.434259 0.641130 0.119784
v 0.276206 0.662458 0.100567
v 0.725515 0.552328 0.119941
v 0.617279 0.700234 0.119929
v 0.314530 0.470096 0.119935
v 0.421795 0.319862 0.119929
v 0.359541 0.287697 0.107656
v 0.549312 0.305676 0.119929
v 0.321503 0.533005 0.119929
v 0.416519 0.250886 0.095845
v 0.424488 0.819487 0.072157
v 0.817523 0.481696 0.074239
v 1.000000 0.062500 -0.000000
v 0.370897 0.414782 0.119884
v 0.773029 0.422821 0.091547
v 0.239498 0.515911 0.095593
v 0.613846 0.298463 0.119936
v 1.000000 0.187500 0.000000
v 0.000000 0.812500 -0.000000
v 0.477244 0.768106 0.094252
v 0.556665 0.243270 0.093075
v 0.307373 0.405966 0.119938
v 0.062500 0.000000 -0.000000
vt 0.000000 0.000000
vt 1.000000 0.000000
vt 0.000000 1.000000
vt 1.000000 1.000000
vt 0.500000 0.500000
vt 0.000000 0.500000
vt 0.500000 1.000000
vt 1.000000 0.500000
vt 0.500000 0.000000
vt 0.250000 0.750000
vt 0.750000 0.750000
vt 0.250000 0.250000
vt 0.750000 0.250000
vt 0.750000 0.000000
vt 0.250000 0.000000
vt 1.000000 0.750000
vt 1.000000 0.250000
vt 0.250000 1.000000
vt 0.750000 1.000000
vt 0.000000 0.250000
vt 0.000000 0.750000
vt 0.365347 0.220303
vt 0.629073 0.770824
vt 1.000000 0.937500
vt 0.673854 0.683563
vt 0.875000 0.375000
vt 0.625000 0.125000
vt 0.625000 0.375000
vt 0.875000 0.125000
vt 0.375000 0.125000
vt 0.125000 0.125000
vt 0.492214 0.250470
vt 0.875000 0.625000
vt 0.625000 0.625000
vt 0.875000 0.875000
vt 0.375000 0.875000
vt 0.262101 0.599801
vt 0.125000 0.875000
vt 0.125000 0.625000
vt 0.625000 0.875000
vt 0.125000 0.375000
vt 0.250000 0.125000
vt 0.875000 0.750000
vt 0.875000 0.250000
vt 0.250000 0.875000
vt 0.750000 0.875000
vt 0.125000 0.250000
vt 0.125000 0.750000
vt 0.720678 0.609468
vt 0.125000 0.937500
vt 0.550071 0.698417
vt 0.875000 0.500000
vt 0.428851 0.711278
vt 0.248222 0.455442
vt 0.000000 0.375000
vt 0.500000 0.875000
vt 0.500000 0.625000
vt 0.250000 0.375000
vt 0.125000 0.500000
vt 0.375000 0.500000
vt 0.625000 0.250000
vt 0.500000 0.125000
vt 0.500000 0.375000
vt 0.000000 0.625000
vt 0.000000 0.875000
vt 0.000000 0.125000
vt 0.625000 1.000000
vt 0.875000 1.000000
vt 0.125000 1.000000
vt 0.375000 1.000000
vt 1.000000 0.375000
vt 1.000000 0.125000
vt 1.000000 0.875000
vt 1.000000 0.625000
vt 0.375000 0.000000
vt 0.125000 0.000000
vt 0.875000 0.000000
vt 0.625000 0.000000
vt 0.750000 0.125000
vt 0.625000 0.500000
vt 0.708567 0.488402
vt 0.062500 0.312500
vt 0.187500 0.437500
vt 0.187500 0.312500
vt 0.062500 0.437500
vt 0.687500 0.937500
vt 0.687500 0.812500
vt 0.562500 0.937500
vt 0.062500 0.687500
vt 0.187500 0.687500
vt 0.062500 0.562500
vt 0.187500 0.937500
vt 0.187500 0.812500
vt 0.062500 0.937500
vt 0.437500 0.562500
vt 0.875000 0.812500
vt 0.937500 0.000000
vt 0.312500 0.812500
vt 0.437500 0.937500
vt 0.937500 0.812500
vt 0.812500 0.812500
vt 0.937500 0.937500
vt 0.937500 1.000000
vt 0.562500 0.562500
vt 0.701931 0.427658
vt 0.819332 0.591237
vt 0.812500 0.687500
vt 0.937500 0.562500
vt 0.490094 0.704820
vt 0.682510 0.583771
vt 0.437500 0.437500
vt 0.187500 0.062500
vt 0.062500 0.062500
vt 0.187500 0.187500
vt 0.312500 0.062500
vt 0.312500 0.187500
vt 0.437500 0.062500
vt 0.812500 0.062500
vt 0.937500 0.062500
vt 0.000000 0.937500
vt 0.562500 0.437500
vt 0.525016 0.804189
vt 0.562500 0.187500
vt 0.687500 0.187500
vt 0.562500 0.062500
vt 0.937500 0.312500
vt 0.812500 0.312500
vt 0.937500 0.437500
vt 0.312500 0.937500
vt 0.000000 0.062500
vt 0.812500 0.187500
vt 0.800716 0.372483
vt 0.687500 0.062500
vt 0.062500 0.125000
vt 0.937500 0.187500
vt 0.437500 0.187500
vt 0.062500 0.187500
vt 0.062500 1.000000
vt 0.937500 0.687500
vt 0.694659 0.367657
vt 0.062500 0.812500
vt 0.812500 0.937500
vt 0.187500 0.562500
vt 0.362461 0.333915
vt 0.341698 0.653167
vt 0.687091 0.300006
vt 0.307923 0.340961
vt 0.727075 0.676377
vt 0.349573 0.719394
vt 0.486693 0.319846
vt 0.580205 0.830830
vt 0.296906 0.332149
vt 0.334611 0.592794
vt 0.713437 0.300753
vt 0.937500 0.875000
vt 0.436137 0.634590
vt 0.281585 0.657008
vt 0.714731 0.549473
vt 0.611264 0.691235
vt 0.321322 0.471012
vt 0.424418 0.326751
vt 0.364019 0.294291
vt 0.546929 0.313558
vt 0.327776 0.531381
vt 0.418341 0.256674
vt 0.425703 0.815414
vt 0.812755 0.481587
vt 1.000000 0.062500
vt 0.375653 0.417988
vt 0.766844 0.424637
vt 0.245672 0.515386
vt 0.608814 0.307308
vt 1.000000 0.187500
vt 0.000000 0.812500
vt 0.477574 0.762067
vt 0.554454 0.248535
vt 0.314951 0.409656
vt 0.062500 0.000000
vn -0.102974 -0.102974 0.989339
vn 0.001150 -0.001150 0.999999
vn -0.018997 0.018997 0.999639
vn -0.065095 -0.065095 0.995754
vn -0.000394 0.000554 1.000000
vn -0.376931 -0.008889 0.926199
vn -0.000627 0.346672 0.937986
vn 0.385473 0.009757 0.922668
vn 0.013792 -0.354345 0.935013
vn -0.284063 0.189798 0.939833
vn 0.248845 0.387256 0.887755
vn -0.225373 -0.222998 0.948409
vn 0.287469 -0.326061 0.900581
vn 0.009351 -0.224143 0.974512
vn -0.001604 -0.397872 0.917440
vn 0.267423 0.059023 0.961770
vn 0.334200 -0.031536 0.941974
vn -0.011532 0.352217 0.935847
vn 0.073282 0.267514 0.960763
vn -0.342503 0.007375 0.939488
vn -0.294545 0.014664 0.955525
vn -0.052023 -0.315501 0.947498
vn 0.072140 0.379851 0.922231
vn -0.129762 0.000000 0.991545
vn 0.031552 0.200267 0.979233
vn 0.358897 -0.023788 0.933074
vn 0.047070 -0.364659 0.929951
vn 0.000172 -0.000023 1.000000
vn 0.152538 -0.195946 0.968678
vn -0.019394 -0.353797 0.935121
vn -0.172150 -0.134139 0.975895
vn -0.000304 -0.352957 0.935640
vn 0.414989 0.021194 0.909580
vn -0.000495 -0.000673 1.000000
vn 0.187068 0.173836 0.966844
vn 0.014743 0.382085 0.924010
vn -0.307174 0.049593 0.950360
vn -0.188258 0.176366 0.966154
vn -0.352707 0.050622 0.934364
vn 0.052209 0.354725 0.933512
vn -0.356323 -0.048682 0.933094
vn -0.068529 -0.269939 0.960436
vn 0.297450 0.226142 0.927569
vn 0.290800 -0.135693 0.947113
vn -0.089088 0.310516 0.946384
vn 0.162547 0.268990 0.949328
vn -0.284522 -0.030262 0.958192
vn -0.305470 0.072138 0.949465
vn 0.152825 -0.011144 0.988190
vn -0.149442 0.236060 0.960178
vn 0.019399 0.200325 0.979537
vn 0.383227 -0.001159 0.923653
vn 0.027087 0.226294 0.973682
vn -0.343608 -0.005141 0.939099
vn -0.345016 -0.008634 0.938557
vn -0.007552 0.397251 0.917679
vn -0.000603 -0.000999 0.999999
vn -0.390471 -0.023168 0.920324
vn -0.374597 -0.017232 0.927028
vn 0.001595 -0.000015 0.999999
vn -0.018911 -0.423410 0.905741
vn 0.037521 -0.370620 0.928026
vn -0.000679 0.000310 1.000000
vn -0.364606 0.015740 0.931029
vn -0.181372 0.038374 0.982666
vn -0.305783 -0.018245 0.951927
vn -0.015197 0.375364 0.926753
vn 0.051193 -0.028464 0.998283
vn -0.085720 0.199142 0.976214
vn 0.007563 0.359284 0.933198
vn 0.411666 0.004866 0.911322
vn 0.139673 -0.046117 0.989123
vn -0.051303 0.070518 0.996190
vn 0.357025 0.005924 0.934076
vn 0.005885 -0.390054 0.920773
vn -0.040418 -0.283235 0.958198
vn 0.041266 -0.084244 0.995590
vn 0.023179 -0.285921 0.957973
vn 0.085694 -0.310562 0.946683
vn -0.000921 0.000659 0.999999
vn 0.207728 -0.023148 0.977913
vn -0.311367 -0.015414 0.950165
vn -0.369951 -0.034150 0.928423
vn -0.371866 -0.087800 0.924125
vn -0.364181 -0.023259 0.931038
vn 0.055100 0.300646 0.952143
vn 0.119641 0.364825 0.923357
vn -0.008048 0.357441 0.933901
vn -0.335434 0.033614 0.941464
vn -0.329203 0.082318 0.940664
vn -0.379366 0.010306 0.925189
vn -0.067849 0.288746 0.954999
vn -0.225150 0.163747 0.960466
vn -0.104744 0.107691 0.988651
vn 0.000664 -0.000503 1.000000
vn 0.234881 0.237413 0.942585
vn 0.000000 -0.002299 0.999997
vn -0.094500 0.365516 0.925996
vn 0.007281 0.353438 0.935430
vn 0.165427 0.164113 0.972471
vn 0.249091 0.288634 0.924470
vn -0.001108 -0.005768 0.999983
vn 0.000000 -0.129523 0.991576
vn -0.000884 -0.000820 0.999999
vn 0.246488 -0.029182 0.968706
vn 0.419299 0.005700 0.907830
vn 0.407553 0.157479 0.899500
vn 0.387363 0.008635 0.921887
vn 0.027664 0.243944 0.969395
vn -0.000330 -0.000080 1.000000
vn 0.000696 0.001144 0.999999
vn -0.047808 -0.299777 0.952811
vn -0.135079 -0.137267 0.981281
vn -0.192019 -0.154653 0.969129
vn -0.007496 -0.360832 0.932601
vn -0.081611 -0.298956 0.950771
vn 0.010422 -0.377007 0.926152
vn 0.064433 -0.215167 0.974449
vn 0.042861 -0.048765 0.997890
vn -0.037918 -0.000000 0.999281
vn -0.000858 0.001517 0.999999
vn 0.003871 0.401496 0.915852
vn 0.021891 -0.376177 0.926289
vn 0.087162 -0.403877 0.910651
vn 0.033623 -0.347867 0.936941
vn 0.373085 -0.032961 0.927211
vn 0.349310 -0.104000 0.931218
vn 0.394099 0.010838 0.919004
vn -0.001114 0.367513 0.930018
vn -0.227993 -0.024244 0.973361
vn 0.189864 -0.272582 0.943213
vn 0.361511 -0.034943 0.931713
vn 0.027479 -0.300848 0.953276
vn -0.247284 -0.068757 0.966500
vn 0.253969 -0.085233 0.963450
vn -0.004540 -0.331460 0.943458
vn -0.278294 -0.028429 0.960075
vn 0.000000 0.038044 0.999276
vn 0.359331 0.037101 0.932472
vn 0.183804 -0.017380 0.982809
vn -0.269996 0.028663 0.962435
vn 0.117582 0.159118 0.980233
vn -0.345430 0.033738 0.937838
vn -0.038593 -0.209380 0.977072
vn -0.182968 0.020461 0.982906
vn 0.261476 -0.182026 0.947891
vn -0.260069 -0.289802 0.921075
vn 0.205248 0.207927 0.956368
vn -0.133033 0.187013 0.973308
vn -0.015106 -0.163982 0.986348
vn 0.036217 0.387878 0.920999
vn -0.307241 -0.292922 0.905428
vn -0.172974 0.022533 0.984669
vn 0.387813 -0.153486 0.908869
vn 0.065958 0.127951 0.989585
vn -0.000130 -0.000753 1.000000
vn -0.316004 0.061191 0.946782
vn 0.144931 -0.016399 0.989306
vn 0.021559 0.189471 0.981650
vn -0.137742 0.012139 0.990394
vn -0.017983 -0.193011 0.981032
vn -0.053152 -0.313369 0.948143
vn -0.018664 -0.225530 0.974057
vn -0.131302 0.014524 0.991236
vn -0.014814 -0.315782 0.948716
vn 0.012056 0.419142 0.907841
vn 0.379617 -0.021969 0.924883
vn 0.002302 -0.000000 0.999997
vn 0.001360 0.000554 0.999999
vn 0.385132 -0.018202 0.922682
vn -0.322049 0.012287 0.946643
vn -0.025057 -0.235483 0.971555
vn 0.274329 0.000000 0.961636
vn -0.266356 -0.000000 0.963875
vn 0.022214 0.409796 0.911907
vn -0.017641 -0.390506 0.920431
vn -0.173555 0.010543 0.984768
vn -0.000000 -0.203699 0.979033
f 129/129/129 99/99/99 70/70/70
f 112/112/112 31/31/31 113/113/113
f 170/170/170 132/132/132 167/167/167
f 26/26/26 167/167/167 132/132/132
f 58/58/58 152/152/152 147/147/147
f 160/160/160 54/54/54 177/177/177
f 173/173/173 17/17/17 135/135/135
f 129/129/129 36/36/36 99/99/99
f 3/3/3 120/120/120 94/94/94
f 152/152/152 12/12/12 162/162/162
f 11/11/11 25/25/25 148/148/148
f 80/80/80 110/110/110 104/104/104
f 115/115/115 112/112/112 15/15/15
f 163/163/163 172/172/172 28/28/28
f 114/114/114 137/137/137 31/31/31
f 76/76/76 112/112/112 113/113/113
f 58/58/58 177/177/177 54/54/54
f 15/15/15 112/112/112 76/76/76
f 115/115/115 15/15/15 75/75/75
f 20/20/20 137/137/137 82/82/82
f 113/113/113 134/134/134 130/130/130
f 148/148/148 25/25/25 49/49/49
f 22/22/22 30/30/30 136/136/136
f 47/47/47 82/82/82 137/137/137
f 16/16/16 73/73/73 100/100/100
f 165/165/165 22/22/22 136/136/136
f 21/21/21 64/64/64 89/89/89
f 83/83/83 58/58/58 54/54/54
f 57/57/57 95/95/95 104/104/104
f 116/116/116 30/30/30 22/22/22
f 42/42/42 112/112/112 115/115/115
f 66/66/66 130/130/130 134/134/134
f 140/140/140 105/105/105 28/28/28
f 155/155/155 100/100/100 73/73/73
f 129/129/129 70/70/70 18/18/18
f 63/63/63 28/28/28 121/121/121
f 165/165/165 162/162/162 22/22/22
f 114/114/114 31/31/31 42/42/42
f 150/150/150 165/165/165 32/32/32
f 37/37/37 153/153/153 157/157/157
f 164/164/164 153/153/153 37/37/37
f 39/39/39 90/90/90 89/89/89
f 61/61/61 172/172/172 176/176/176
f 139/139/139 16/16/16 43/43/43
f 32/32/32 165/165/165 136/136/136
f 161/161/161 144/144/144 162/162/162
f 51/51/51 159/159/159 23/23/23
f 142/142/142 46/46/46 35/35/35
f 78/78/78 125/125/125 9/9/9
f 121/121/121 80/80/80 5/5/5
f 60/60/60 95/95/95 153/153/153
f 169/169/169 177/177/177 144/144/144
f 9/9/9 125/125/125 117/117/117
f 175/175/175 53/53/53 109/109/109
f 162/162/162 165/165/165 161/161/161
f 64/64/64 91/91/91 89/89/89
f 60/60/60 169/169/169 111/111/111
f 50/50/50 92/92/92 69/69/69
f 63/63/63 161/161/161 150/150/150
f 25/25/25 159/159/159 34/34/34
f 81/81/81 170/170/170 167/167/167
f 30/30/30 115/115/115 117/117/117
f 84/84/84 152/152/152 58/58/58
f 51/51/51 109/109/109 57/57/57
f 34/34/34 159/159/159 51/51/51
f 11/11/11 148/148/148 107/107/107
f 5/5/5 104/104/104 95/95/95
f 47/47/47 114/114/114 84/84/84
f 174/174/174 21/21/21 141/141/141
f 29/29/29 119/119/119 135/135/135
f 72/72/72 135/135/135 119/119/119
f 84/84/84 12/12/12 152/152/152
f 100/100/100 43/43/43 16/16/16
f 47/47/47 137/137/137 114/114/114
f 14/14/14 118/118/118 133/133/133
f 12/12/12 84/84/84 114/114/114
f 65/65/65 174/174/174 141/141/141
f 20/20/20 66/66/66 137/137/137
f 55/55/55 20/20/20 82/82/82
f 59/59/59 91/91/91 85/85/85
f 35/35/35 96/96/96 155/155/155
f 6/6/6 85/85/85 91/91/91
f 94/94/94 138/138/138 3/3/3
f 58/58/58 83/83/83 84/84/84
f 48/48/48 89/89/89 90/90/90
f 55/55/55 82/82/82 85/85/85
f 92/92/92 18/18/18 69/69/69
f 94/94/94 69/69/69 138/138/138
f 127/127/127 44/44/44 26/26/26
f 167/167/167 106/106/106 158/158/158
f 126/126/126 26/26/26 44/44/44
f 106/106/106 167/167/167 52/52/52
f 157/157/157 90/90/90 37/37/37
f 127/127/127 13/13/13 44/44/44
f 101/101/101 11/11/11 43/43/43
f 81/81/81 167/167/167 158/158/158
f 98/98/98 166/166/166 36/36/36
f 164/164/164 171/171/171 160/160/160
f 45/45/45 10/10/10 98/98/98
f 156/156/156 145/145/145 153/153/153
f 162/162/162 12/12/12 22/22/22
f 116/116/116 22/22/22 12/12/12
f 118/118/118 29/29/29 79/79/79
f 40/40/40 86/86/86 88/88/88
f 149/149/149 98/98/98 10/10/10
f 131/131/131 79/79/79 29/29/29
f 26/26/26 128/128/128 52/52/52
f 23/23/23 11/11/11 87/87/87
f 97/97/97 119/119/119 77/77/77
f 145/145/145 53/53/53 149/149/149
f 41/41/41 84/84/84 83/83/83
f 48/48/48 38/38/38 141/141/141
f 168/168/168 72/72/72 119/119/119
f 169/169/169 60/60/60 160/160/160
f 56/56/56 88/88/88 99/99/99
f 7/7/7 99/99/99 88/88/88
f 164/164/164 160/160/160 60/60/60
f 122/122/122 175/175/175 51/51/51
f 163/163/163 176/176/176 172/172/172
f 93/93/93 38/38/38 48/48/48
f 23/23/23 25/25/25 11/11/11
f 93/93/93 10/10/10 45/45/45
f 1/1/1 178/178/178 113/113/113
f 25/25/25 23/23/23 159/159/159
f 48/48/48 141/141/141 89/89/89
f 21/21/21 89/89/89 141/141/141
f 147/147/147 144/144/144 177/177/177
f 109/109/109 51/51/51 175/175/175
f 6/6/6 91/91/91 64/64/64
f 63/63/63 111/111/111 161/161/161
f 32/32/32 136/136/136 123/123/123
f 6/6/6 55/55/55 85/85/85
f 154/154/154 127/127/127 132/132/132
f 155/155/155 102/102/102 35/35/35
f 143/143/143 90/90/90 39/39/39
f 102/102/102 155/155/155 73/73/73
f 75/75/75 117/117/117 115/115/115
f 23/23/23 87/87/87 151/151/151
f 59/59/59 143/143/143 91/91/91
f 111/111/111 169/169/169 161/161/161
f 100/100/100 155/155/155 96/96/96
f 39/39/39 91/91/91 143/143/143
f 111/111/111 63/63/63 5/5/5
f 150/150/150 161/161/161 165/165/165
f 125/125/125 27/27/27 62/62/62
f 72/72/72 173/173/173 135/135/135
f 37/37/37 90/90/90 143/143/143
f 37/37/37 143/143/143 171/171/171
f 97/97/97 2/2/2 119/119/119
f 157/157/157 10/10/10 90/90/90
f 92/92/92 38/38/38 45/45/45
f 49/49/49 158/158/158 106/106/106
f 145/145/145 157/157/157 153/153/153
f 34/34/34 51/51/51 57/57/57
f 119/119/119 29/29/29 118/118/118
f 30/30/30 117/117/117 136/136/136
f 105/105/105 170/170/170 81/81/81
f 110/110/110 80/80/80 158/158/158
f 156/156/156 57/57/57 109/109/109
f 156/156/156 53/53/53 145/145/145
f 149/149/149 166/166/166 98/98/98
f 93/93/93 45/45/45 38/38/38
f 123/123/123 62/62/62 27/27/27
f 5/5/5 95/95/95 111/111/111
f 95/95/95 57/57/57 156/156/156
f 163/163/163 150/150/150 32/32/32
f 60/60/60 111/111/111 95/95/95
f 166/166/166 56/56/56 36/36/36
f 56/56/56 99/99/99 36/36/36
f 146/146/146 172/172/172 61/61/61
f 34/34/34 57/57/57 104/104/104
f 145/145/145 149/149/149 157/157/157
f 9/9/9 117/117/117 75/75/75
f 78/78/78 133/133/133 125/125/125
f 144/144/144 152/152/152 162/162/162
f 95/95/95 156/156/156 153/153/153
f 82/82/82 47/47/47 41/41/41
f 88/88/88 151/151/151 40/40/40
f 83/83/83 54/54/54 171/171/171
f 96/96/96 43/43/43 100/100/100
f 37/37/37 171/171/171 164/164/164
f 77/77/77 119/119/119 118/118/118
f 120/120/120 65/65/65 94/94/94
f 122/122/122 23/23/23 151/151/151
f 169/169/169 144/144/144 161/161/161
f 84/84/84 41/41/41 47/47/47
f 94/94/94 65/65/65 38/38/38
f 112/112/112 42/42/42 31/31/31
f 63/63/63 163/163/163 28/28/28
f 163/163/163 63/63/63 150/150/150
f 167/167/167 26/26/26 52/52/52
f 130/130/130 1/1/1 113/113/113
f 106/106/106 107/107/107 49/49/49
f 154/154/154 132/132/132 140/140/140
f 80/80/80 104/104/104 5/5/5
f 27/27/27 124/124/124 123/123/123
f 147/147/147 152/152/152 144/144/144
f 110/110/110 25/25/25 34/34/34
f 40/40/40 151/151/151 87/87/87
f 43/43/43 107/107/107 139/139/139
f 81/81/81 158/158/158 80/80/80
f 61/61/61 123/123/123 124/124/124
f 33/33/33 52/52/52 108/108/108
f 124/124/124 27/27/27 79/79/79
f 139/139/139 33/33/33 108/108/108
f 143/143/143 59/59/59 171/171/171
f 33/33/33 106/106/106 52/52/52
f 83/83/83 59/59/59 41/41/41
f 133/133/133 79/79/79 27/27/27
f 103/103/103 68/68/68 102/102/102
f 107/107/107 106/106/106 33/33/33
f 83/83/83 171/171/171 59/59/59
f 158/158/158 49/49/49 110/110/110
f 46/46/46 87/87/87 101/101/101
f 62/62/62 136/136/136 117/117/117
f 110/110/110 49/49/49 25/25/25
f 124/124/124 146/146/146 61/61/61
f 140/140/140 170/170/170 105/105/105
f 149/149/149 10/10/10 157/157/157
f 54/54/54 160/160/160 171/171/171
f 154/154/154 140/140/140 146/146/146
f 140/140/140 132/132/132 170/170/170
f 135/135/135 44/44/44 29/29/29
f 74/74/74 139/139/139 108/108/108
f 4/4/4 103/103/103 102/102/102
f 7/7/7 70/70/70 99/99/99
f 131/131/131 29/29/29 44/44/44
f 90/90/90 10/10/10 48/48/48
f 68/68/68 142/142/142 102/102/102
f 19/19/19 86/86/86 142/142/142
f 142/142/142 35/35/35 102/102/102
f 88/88/88 56/56/56 151/151/151
f 31/31/31 134/134/134 113/113/113
f 46/46/46 142/142/142 86/86/86
f 107/107/107 43/43/43 11/11/11
f 56/56/56 166/166/166 122/122/122
f 11/11/11 101/101/101 87/87/87
f 148/148/148 49/49/49 107/107/107
f 105/105/105 81/81/81 80/80/80
f 141/141/141 38/38/38 65/65/65
f 56/56/56 122/122/122 151/151/151
f 122/122/122 51/51/51 23/23/23
f 79/79/79 131/131/131 124/124/124
f 13/13/13 124/124/124 131/131/131
f 2/2/2 168/168/168 119/119/119
f 131/131/131 44/44/44 13/13/13
f 36/36/36 129/129/129 98/98/98
f 45/45/45 98/98/98 129/129/129
f 67/67/67 7/7/7 88/88/88
f 19/19/19 67/67/67 86/86/86
f 68/68/68 19/19/19 142/142/142
f 93/93/93 48/48/48 10/10/10
f 42/42/42 116/116/116 114/114/114
f 24/24/24 4/4/4 102/102/102
f 73/73/73 24/24/24 102/102/102
f 41/41/41 85/85/85 82/82/82
f 74/74/74 16/16/16 139/139/139
f 8/8/8 74/74/74 108/108/108
f 33/33/33 139/139/139 107/107/107
f 8/8/8 108/108/108 128/128/128
f 86/86/86 40/40/40 46/46/46
f 146/146/146 28/28/28 172/172/172
f 96/96/96 35/35/35 101/101/101
f 121/121/121 5/5/5 63/63/63
f 52/52/52 128/128/128 108/108/108
f 128/128/128 71/71/71 8/8/8
f 85/85/85 41/41/41 59/59/59
f 50/50/50 94/94/94 38/38/38
f 126/126/126 17/17/17 71/71/71
f 62/62/62 117/117/117 125/125/125
f 26/26/26 126/126/126 128/128/128
f 39/39/39 89/89/89 91/91/91
f 71/71/71 128/128/128 126/126/126
f 132/132/132 127/127/127 26/26/26
f 44/44/44 135/135/135 126/126/126
f 178/178/178 76/76/76 113/113/113
f 124/124/124 13/13/13 146/146/146
f 43/43/43 96/96/96 101/101/101
f 27/27/27 125/125/125 133/133/133
f 101/101/101 35/35/35 46/46/46
f 62/62/62 123/123/123 136/136/136
f 12/12/12 114/114/114 116/116/116
f 66/66/66 134/134/134 137/137/137
f 17/17/17 126/126/126 135/135/135
f 79/79/79 133/133/133 118/118/118
f 67/67/67 88/88/88 86/86/86
f 34/34/34 104/104/104 110/110/110
f 176/176/176 163/163/163 32/32/32
f 134/134/134 31/31/31 137/137/137
f 77/77/77 118/118/118 14/14/14
f 60/60/60 153/153/153 164/164/164
f 18/18/18 92/92/92 129/129/129
f 154/154/154 146/146/146 13/13/13
f 14/14/14 133/133/133 78/78/78
f 149/149/149 53/53/53 166/166/166
f 154/154/154 13/13/13 127/127/127
f 45/45/45 129/129/129 92/92/92
f 121/121/121 28/28/28 80/80/80
f 28/28/28 105/105/105 80/80/80
f 94/94/94 50/50/50 69/69/69
f 109/109/109 53/53/53 156/156/156
f 140/140/140 28/28/28 146/146/146
f 53/53/53 175/175/175 166/166/166
f 175/175/175 122/122/122 166/166/166
f 123/123/123 176/176/176 32/32/32
f 176/176/176 123/123/123 61/61/61
f 160/160/160 177/177/177 169/169/169
f 147/147/147 177/177/177 58/58/58
f 92/92/92 50/50/50 38/38/38
f 87/87/87 46/46/46 40/40/40
f 30/30/30 116/116/116 115/115/115
f 42/42/42 115/115/115 116/116/116
