# frame 000674 
# time 0.337500 
# name Box 
v 0.719168 0.708323 -0.282484
v 0.719147 0.713323 0.117484
v 0.720828 0.313358 0.122484
v 0.719168 0.708323 -0.282484
v 0.720828 0.313358 0.122484
v 0.720849 0.308358 -0.277484
v 0.319172 0.706642 -0.282484
v 0.320853 0.306677 -0.277484
v 0.320832 0.311677 0.122484
v 0.319172 0.706642 -0.282484
v 0.320832 0.311677 0.122484
v 0.319151 0.711642 0.117484
v 0.719168 0.708323 -0.282484
v 0.319172 0.706642 -0.282484
v 0.319151 0.711642 0.117484
v 0.719168 0.708323 -0.282484
v 0.319151 0.711642 0.117484
v 0.719147 0.713323 0.117484
v 0.719147 0.713323 0.117484
v 0.319151 0.711642 0.117484
v 0.320832 0.311677 0.122484
v 0.719147 0.713323 0.117484
v 0.320832 0.311677 0.122484
v 0.720828 0.313358 0.122484
v 0.720828 0.313358 0.122484
v 0.320832 0.311677 0.122484
v 0.320853 0.306677 -0.277484
v 0.720828 0.313358 0.122484
v 0.320853 0.306677 -0.277484
v 0.720849 0.308358 -0.277484
v 0.319172 0.706642 -0.282484
v 0.719168 0.708323 -0.282484
v 0.720849 0.308358 -0.277484
v 0.319172 0.706642 -0.282484
v 0.720849 0.308358 -0.277484
v 0.320853 0.306677 -0.277484
vn 0.199998 0.000841 0.000000
vn 0.199998 0.000841 0.000000
vn 0.199998 0.000841 0.000000
vn 0.199998 0.000841 0.000000
vn 0.199998 0.000841 0.000000
vn 0.199998 0.000841 0.000000
vn -0.199998 -0.000841 0.000000
vn -0.199998 -0.000841 0.000000
vn -0.199998 -0.000841 0.000000
vn -0.199998 -0.000841 0.000000
vn -0.199998 -0.000841 0.000000
vn -0.199998 -0.000841 0.000000
vn -0.000841 0.199983 -0.002500
vn -0.000841 0.199983 -0.002500
vn -0.000841 0.199983 -0.002500
vn -0.000841 0.199983 -0.002500
vn -0.000841 0.199983 -0.002500
vn -0.000841 0.199983 -0.002500
vn -0.000011 0.002500 0.199984
vn -0.000011 0.002500 0.199984
vn -0.000011 0.002500 0.199984
vn -0.000011 0.002500 0.199984
vn -0.000011 0.002500 0.199984
vn -0.000011 0.002500 0.199984
vn 0.000841 -0.199983 0.002500
vn 0.000841 -0.199983 0.002500
vn 0.000841 -0.199983 0.002500
vn 0.000841 -0.199983 0.002500
vn 0.000841 -0.199983 0.002500
vn 0.000841 -0.199983 0.002500
vn 0.000011 -0.002500 -0.199984
vn 0.000011 -0.002500 -0.199984
vn 0.000011 -0.002500 -0.199984
vn 0.000011 -0.002500 -0.199984
vn 0.000011 -0.002500 -0.199984
vn 0.000011 -0.002500 -0.199984
f 1/1/1 2/2/2 3/3/3
f 4/4/4 5/5/5 6/6/6
f 7/7/7 8/8/8 9/9/9
f 10/10/10 11/11/11 12/12/12
f 13/13/13 14/14/14 15/15/15
f 16/16/16 17/17/17 18/18/18
f 19/19/19 20/20/20 21/21/21
f 22/22/22 23/23/23 24/24/24
f 25/25/25 26/26/26 27/27/27
f 28/28/28 29/29/29 30/30/30
f 31/31/31 32/32/32 33/33/33
f 34/34/34 35/35/35 36/36/36
