# frame 000639 
# time 0.320000 
# name Cloth3D 
v -0.000000 0.000000 -0.000000
v 1.000000 0.000000 -0.000000
v -0.000000 1.000000 0.000000
v 1.000000 1.000000 0.000000
v 0.501804 0.501490 0.119657
v -0.000000 0.500000 0.000000
v 0.500000 1.000000 0.000000
v 1.000000 0.500000 0.000000
v 0.500000 -0.000000 0.000000
v 0.245461 0.755598 0.064974
v 0.757514 0.758454 0.080307
v 0.246751 0.246358 0.066408
v 0.757416 0.244407 0.073007
v 0.750000 0.000000 0.000000
v 0.250000 0.000000 0.000000
v 1.000000 0.750000 0.000000
v 1.000000 0.250000 0.000000
v 0.250000 1.000000 0.000000
v 0.750000 1.000000 0.000000
v 0.000000 0.250000 0.000000
v 0.000000 0.750000 -0.000000
v 0.363910 0.216716 0.076788
v 0.633249 0.777063 0.083990
v 0.062500 0.000000 -0.000000
v 0.815521 0.248017 0.045087
v 0.875104 0.375096 0.036591
v 0.626824 0.123621 0.041516
v 0.634079 0.369717 0.119967
v 0.873955 0.126206 -0.000188
v 0.375309 0.123837 0.041157
v 0.126649 0.126424 0.000511
v 0.493983 0.246966 0.090804
v 0.877883 0.626946 0.046266
v 0.632473 0.633207 0.119916
v 0.875298 0.875326 0.013036
v 0.374139 0.877999 0.043466
v 0.259482 0.604025 0.086679
v 0.126881 0.873229 -0.006644
v 0.125874 0.625285 0.033034
v 0.625383 0.873524 0.033243
v 0.123765 0.374601 0.041015
v 0.250181 0.124432 0.027797
v 0.876096 0.751055 0.031475
v 0.873488 0.251073 0.017636
v 0.250621 0.874768 0.020057
v 0.750397 0.873976 0.023538
v 0.126247 0.250869 0.020898
v 0.126166 0.749545 0.018458
v 0.719206 0.617213 0.119941
v 0.125953 0.936859 -0.007074
v 0.552940 0.709907 0.119929
v 0.876889 0.500971 0.045220
v 0.424501 0.709357 0.119938
v 0.246675 0.454665 0.083122
v 0.000000 0.375000 0.000000
v 0.499801 0.876748 0.044297
v 0.500667 0.632513 0.119865
v 0.248256 0.371726 0.082122
v 0.126651 0.499894 0.035195
v 0.370495 0.501181 0.119842
v 0.631018 0.245981 0.087928
v 0.501158 0.124125 0.043741
v 0.502272 0.370523 0.119994
v 0.000000 0.625000 0.000000
v 0.000000 0.875000 0.000000
v 0.000000 0.125000 0.000000
v 0.625000 1.000000 0.000000
v 0.875000 1.000000 0.000000
v 0.125000 1.000000 0.000000
v 0.375000 1.000000 0.000000
v 1.000000 0.375000 0.000000
v 1.000000 0.125000 0.000000
v 1.000000 0.875000 0.000000
v 1.000000 0.625000 0.000000
v 0.375000 0.000000 0.000000
v 0.125000 0.000000 0.000000
v 0.875000 0.000000 0.000000
v 0.625000 0.000000 0.000000
v 0.751345 0.124151 0.027567
v 0.632916 0.501606 0.119908
v 0.719865 0.489234 0.119929
v 0.061807 0.312547 0.018557
v 0.187345 0.436769 0.060221
v 0.185376 0.310648 0.056129
v 0.062938 0.437477 0.018416
v 0.687251 0.936321 0.012071
v 0.689750 0.812932 0.053354
v 0.562439 0.937176 0.018660
v 0.062928 0.687201 0.013494
v 0.186911 0.689548 0.048798
v 0.063284 0.562385 0.016896
v 0.188416 0.936542 -0.000741
v 0.188705 0.811741 0.019351
v 0.063083 0.937000 -0.005278
v 0.435572 0.566934 0.119787
v 0.875398 0.813046 0.020963
v 0.186981 0.751599 0.037851
v 0.310468 0.815626 0.055305
v 0.437387 0.939631 0.024892
v 0.937565 0.812474 0.009873
v 0.814892 0.814911 0.038598
v 0.937393 0.937419 0.000488
v 0.873383 0.188813 0.006906
v 0.567045 0.567295 0.119722
v 0.720135 0.424563 0.119929
v 0.824838 0.594446 0.071629
v 0.817607 0.691881 0.067155
v 0.937845 0.563252 0.020782
v 0.752740 0.813668 0.046430
v 0.692603 0.589739 0.119939
v 0.436443 0.435819 0.119721
v 0.188265 0.063166 0.004498
v 0.062968 0.062947 -0.008398
v 0.187354 0.187032 0.030004
v 0.312971 0.062209 0.017148
v 0.311655 0.185318 0.056183
v 0.438025 0.062250 0.021112
v 0.811831 0.063428 0.000334
v 0.937228 0.062830 -0.006390
v 0.558227 0.245059 0.089304
v 0.567921 0.435854 0.119936
v 0.525486 0.807146 0.069656
v 0.565345 0.184916 0.067975
v 0.691929 0.183022 0.062378
v 0.563056 0.062460 0.020495
v 0.936411 0.313236 0.010865
v 0.815417 0.310655 0.056200
v 0.937833 0.437945 0.020418
v 0.312745 0.937775 0.014955
v 0.476777 0.769161 0.092019
v 0.813783 0.186851 0.028761
v 0.804938 0.370556 0.069917
v 0.687876 0.062233 0.016862
v 0.063329 0.125789 -0.003206
v 0.936394 0.188530 -0.001085
v 0.438026 0.186497 0.063663
v 0.063694 0.188503 0.001155
v 0.382857 0.772310 0.085605
v 0.938950 0.687971 0.020905
v 0.189164 0.873593 0.005322
v 0.063528 0.811666 0.000426
v 0.812082 0.936442 0.002786
v 0.188666 0.563511 0.055409
v 0.773779 0.655453 0.092532
v 0.319590 0.663416 0.119929
v 0.720779 0.310900 0.119942
v 0.320987 0.309218 0.119942
v 0.719015 0.710782 0.119942
v 0.319218 0.709013 0.119942
v 0.617162 0.310594 0.119936
v 0.320674 0.405571 0.119938
v 0.290311 0.325538 0.105902
v 0.319859 0.598878 0.119929
v 0.725363 0.292343 0.105922
v 0.937389 0.874881 0.004241
v 0.433214 0.642607 0.119784
v 0.275459 0.664033 0.096484
v 0.719338 0.553752 0.119941
v 0.617765 0.710180 0.119929
v 0.320425 0.470223 0.119935
v 0.422098 0.309813 0.119929
v 0.875355 0.312372 0.031320
v 0.551814 0.310355 0.119929
v 1.000000 0.812500 0.000000
v 0.417387 0.252489 0.093168
v 0.424055 0.818935 0.066259
v 0.817157 0.482119 0.070985
v 0.753349 0.185116 0.047107
v 0.371325 0.414940 0.119884
v 0.775246 0.422953 0.092410
v 0.244864 0.516346 0.080507
v 0.937891 0.750254 0.014754
v 0.816836 0.754183 0.055285
vt 0.000000 0.000000
vt 1.000000 0.000000
vt 0.000000 1.000000
vt 1.000000 1.000000
vt 0.500000 0.500000
vt 0.000000 0.500000
vt 0.500000 1.000000
vt 1.000000 0.500000
vt 0.500000 0.000000
vt 0.250000 0.750000
vt 0.750000 0.750000
vt 0.250000 0.250000
vt 0.750000 0.250000
vt 0.750000 0.000000
vt 0.250000 0.000000
vt 1.000000 0.750000
vt 1.000000 0.250000
vt 0.250000 1.000000
vt 0.750000 1.000000
vt 0.000000 0.250000
vt 0.000000 0.750000
vt 0.365347 0.220303
vt 0.629073 0.770824
vt 0.062500 0.000000
vt 0.812500 0.250000
vt 0.875000 0.375000
vt 0.625000 0.125000
vt 0.625000 0.375000
vt 0.875000 0.125000
vt 0.375000 0.125000
vt 0.125000 0.125000
vt 0.492214 0.250470
vt 0.875000 0.625000
vt 0.625000 0.625000
vt 0.875000 0.875000
vt 0.375000 0.875000
vt 0.262101 0.599801
vt 0.125000 0.875000
vt 0.125000 0.625000
vt 0.625000 0.875000
vt 0.125000 0.375000
vt 0.250000 0.125000
vt 0.875000 0.750000
vt 0.875000 0.250000
vt 0.250000 0.875000
vt 0.750000 0.875000
vt 0.125000 0.250000
vt 0.125000 0.750000
vt 0.707913 0.610004
vt 0.125000 0.937500
vt 0.550126 0.699126
vt 0.875000 0.500000
vt 0.428281 0.698451
vt 0.248222 0.455442
vt 0.000000 0.375000
vt 0.500000 0.875000
vt 0.500000 0.625000
vt 0.250000 0.375000
vt 0.125000 0.500000
vt 0.375000 0.500000
vt 0.625000 0.250000
vt 0.500000 0.125000
vt 0.500000 0.375000
vt 0.000000 0.625000
vt 0.000000 0.875000
vt 0.000000 0.125000
vt 0.625000 1.000000
vt 0.875000 1.000000
vt 0.125000 1.000000
vt 0.375000 1.000000
vt 1.000000 0.375000
vt 1.000000 0.125000
vt 1.000000 0.875000
vt 1.000000 0.625000
vt 0.375000 0.000000
vt 0.125000 0.000000
vt 0.875000 0.000000
vt 0.625000 0.000000
vt 0.750000 0.125000
vt 0.625000 0.500000
vt 0.708236 0.488381
vt 0.062500 0.312500
vt 0.187500 0.437500
vt 0.187500 0.312500
vt 0.062500 0.437500
vt 0.687500 0.937500
vt 0.687500 0.812500
vt 0.562500 0.937500
vt 0.062500 0.687500
vt 0.187500 0.687500
vt 0.062500 0.562500
vt 0.187500 0.937500
vt 0.187500 0.812500
vt 0.062500 0.937500
vt 0.437500 0.562500
vt 0.875000 0.812500
vt 0.187500 0.750000
vt 0.312500 0.812500
vt 0.437500 0.937500
vt 0.937500 0.812500
vt 0.812500 0.812500
vt 0.937500 0.937500
vt 0.875000 0.187500
vt 0.562500 0.562500
vt 0.707708 0.427239
vt 0.819332 0.591237
vt 0.812500 0.687500
vt 0.937500 0.562500
vt 0.750000 0.812500
vt 0.682510 0.583771
vt 0.437500 0.437500
vt 0.187500 0.062500
vt 0.062500 0.062500
vt 0.187500 0.187500
vt 0.312500 0.062500
vt 0.312500 0.187500
vt 0.437500 0.062500
vt 0.812500 0.062500
vt 0.937500 0.062500
vt 0.554454 0.248535
vt 0.562500 0.437500
vt 0.525016 0.804189
vt 0.562500 0.187500
vt 0.687500 0.187500
vt 0.562500 0.062500
vt 0.937500 0.312500
vt 0.812500 0.312500
vt 0.937500 0.437500
vt 0.312500 0.937500
vt 0.477574 0.762067
vt 0.812500 0.187500
vt 0.800716 0.372483
vt 0.687500 0.062500
vt 0.062500 0.125000
vt 0.937500 0.187500
vt 0.437500 0.187500
vt 0.062500 0.187500
vt 0.386728 0.766561
vt 0.937500 0.687500
vt 0.187500 0.875000
vt 0.062500 0.812500
vt 0.812500 0.937500
vt 0.187500 0.562500
vt 0.765906 0.648544
vt 0.329173 0.654021
vt 0.706182 0.321329
vt 0.329155 0.318627
vt 0.706603 0.697119
vt 0.330149 0.696362
vt 0.609357 0.318417
vt 0.327376 0.409017
vt 0.296906 0.332149
vt 0.327696 0.593193
vt 0.713437 0.300753
vt 0.937500 0.875000
vt 0.436137 0.634590
vt 0.281585 0.657008
vt 0.708209 0.549751
vt 0.611781 0.698545
vt 0.326949 0.470647
vt 0.423918 0.317185
vt 0.875000 0.312500
vt 0.547225 0.317488
vt 1.000000 0.812500
vt 0.418341 0.256674
vt 0.425703 0.815414
vt 0.812755 0.481587
vt 0.750000 0.187500
vt 0.375653 0.417988
vt 0.766844 0.424637
vt 0.245672 0.515386
vt 0.937500 0.750000
vt 0.812500 0.750000
vn 0.043132 0.086265 0.995338
vn -0.051556 0.051556 0.997338
vn 0.039747 -0.039747 0.998419
vn 0.003742 0.003742 0.999986
vn -0.000394 0.000558 1.000000
vn -0.271573 0.005828 0.962400
vn 0.025479 0.331784 0.943011
vn 0.310916 -0.001105 0.950437
vn 0.004300 -0.316624 0.948541
vn -0.389411 0.285773 0.875610
vn 0.279172 0.406464 0.869971
vn -0.296163 -0.293948 0.908781
vn 0.366703 -0.317030 0.874654
vn 0.067578 -0.135561 0.988462
vn -0.050144 -0.173365 0.983580
vn 0.222418 0.052438 0.973540
vn 0.075754 -0.046797 0.996028
vn -0.061541 0.111878 0.991814
vn 0.036180 0.110792 0.993185
vn -0.150701 -0.068297 0.986217
vn -0.108207 0.051467 0.992795
vn -0.063270 -0.393199 0.917274
vn 0.053674 0.493299 0.868203
vn -0.000000 0.128938 0.991653
vn 0.432375 -0.204219 0.878263
vn 0.368131 -0.080201 0.926308
vn 0.030047 -0.355320 0.934262
vn 0.000074 -0.000114 1.000000
vn 0.157328 -0.107134 0.981718
vn -0.048915 -0.333580 0.941452
vn -0.133246 -0.108472 0.985129
vn -0.003019 -0.397839 0.917450
vn 0.384255 0.020103 0.923008
vn -0.000546 -0.000739 1.000000
vn 0.133115 0.147334 0.980088
vn -0.083939 0.336164 0.938056
vn -0.461567 0.004334 0.887094
vn -0.091191 0.095257 0.991267
vn -0.284031 0.050887 0.957464
vn 0.078199 0.349900 0.933517
vn -0.311273 -0.012690 0.950236
vn -0.154914 -0.252265 0.955177
vn 0.296662 0.168975 0.939914
vn 0.315005 -0.180387 0.931790
vn -0.219154 0.217858 0.951057
vn 0.087286 0.310817 0.946453
vn -0.261424 -0.188291 0.946680
vn -0.244380 0.174345 0.953877
vn 0.149111 0.003572 0.988814
vn -0.035954 -0.053091 0.997942
vn 0.005138 0.240770 0.970569
vn 0.389254 -0.034160 0.920497
vn -0.010398 0.238194 0.971162
vn -0.404479 0.009534 0.914498
vn -0.297891 0.000127 0.954600
vn 0.050615 0.337789 0.939860
vn -0.000479 -0.001226 0.999999
vn -0.414461 0.010034 0.910012
vn -0.309683 0.033326 0.950256
vn 0.001626 0.000085 0.999999
vn 0.021476 -0.399384 0.916532
vn -0.014328 -0.343579 0.939014
vn -0.000831 0.000688 0.999999
vn -0.235023 0.013468 0.971897
vn 0.036341 0.021819 0.999101
vn 0.049663 -0.049206 0.997553
vn 0.027041 0.233301 0.972028
vn 0.008085 0.023607 0.999689
vn -0.023055 -0.090764 0.995606
vn -0.038326 0.320799 0.946371
vn 0.238765 -0.036865 0.970377
vn -0.059675 -0.021876 0.997978
vn 0.078805 0.041718 0.996017
vn 0.337528 -0.004553 0.941305
vn -0.014359 -0.297642 0.954570
vn -0.040945 0.048438 0.997987
vn 0.026534 0.050349 0.998379
vn 0.011322 -0.287638 0.957672
vn 0.216369 -0.292027 0.931614
vn -0.000923 0.000636 0.999999
vn 0.223726 0.001627 0.974651
vn -0.263312 -0.082783 0.961152
vn -0.342698 0.020343 0.939225
vn -0.345069 -0.135176 0.928792
vn -0.295544 0.023633 0.955037
vn 0.050624 0.216127 0.975052
vn 0.110355 0.468314 0.876643
vn 0.050234 0.293935 0.954504
vn -0.201571 0.061977 0.977511
vn -0.377596 0.116828 0.918571
vn -0.262836 0.013281 0.964749
vn -0.127702 0.039593 0.991022
vn -0.271698 0.257953 0.927168
vn 0.040510 -0.028366 0.998776
vn 0.000614 -0.000493 1.000000
vn 0.221432 0.139656 0.965124
vn -0.361910 0.221788 0.905445
vn -0.206341 0.383984 0.899989
vn 0.001383 0.344397 0.938823
vn 0.171108 0.075979 0.982318
vn 0.233345 0.293893 0.926918
vn 0.044944 0.042465 0.998087
vn 0.231444 -0.139482 0.962797
vn -0.000881 -0.000823 0.999999
vn 0.279755 0.001413 0.960070
vn 0.422164 0.021351 0.906268
vn 0.418252 0.130344 0.898930
vn 0.349336 -0.015315 0.936872
vn 0.102431 0.445761 0.889272
vn -0.000320 -0.000035 1.000000
vn 0.000677 0.001082 0.999999
vn -0.105819 -0.114242 0.987801
vn 0.002894 0.013840 0.999900
vn -0.268801 -0.224731 0.936612
vn -0.057218 -0.269763 0.961225
vn -0.151293 -0.335906 0.929665
vn -0.008731 -0.323076 0.946333
vn 0.102273 -0.105788 0.989115
vn -0.013567 0.015887 0.999782
vn 0.011169 -0.378094 0.925700
vn -0.000845 0.001503 0.999999
vn 0.036311 0.430788 0.901723
vn 0.011010 -0.347368 0.937664
vn 0.146815 -0.365365 0.919214
vn 0.010692 -0.330040 0.943906
vn 0.242925 -0.092162 0.965657
vn 0.448153 -0.149414 0.881382
vn 0.312200 -0.036531 0.949314
vn -0.104639 0.259969 0.959931
vn 0.005770 0.458007 0.888930
vn 0.331796 -0.245575 0.910826
vn 0.492217 -0.085466 0.866267
vn 0.066885 -0.287806 0.955350
vn -0.005695 -0.073935 0.997247
vn 0.073843 -0.084315 0.993699
vn -0.004994 -0.372810 0.927894
vn -0.069376 -0.085150 0.993950
vn -0.044013 0.439874 0.896980
vn 0.304387 0.072755 0.949766
vn -0.212461 0.154311 0.964908
vn -0.045786 0.087054 0.995151
vn 0.041800 0.140871 0.989145
vn -0.365565 0.030798 0.930276
vn 0.451245 0.040080 0.891500
vn -0.329263 -0.002377 0.944235
vn 0.295364 -0.409021 0.863401
vn -0.310093 -0.153321 0.938262
vn 0.252417 0.239140 0.937602
vn -0.286035 0.142513 0.947562
vn 0.003612 -0.217231 0.976114
vn -0.197124 -0.000062 0.980379
vn -0.448458 -0.055040 0.892108
vn -0.297203 -0.000352 0.954814
vn 0.325387 -0.474295 0.818027
vn 0.104448 0.076712 0.991567
vn -0.000412 -0.001186 0.999999
vn -0.483913 0.023977 0.874787
vn 0.142810 -0.001713 0.989749
vn -0.001254 0.246799 0.969066
vn -0.188360 0.002317 0.982097
vn 0.001485 -0.261202 0.965283
vn 0.349224 -0.143907 0.925923
vn 0.001396 -0.247573 0.968868
vn 0.152753 0.000000 0.988264
vn 0.002774 -0.415118 0.909763
vn -0.004397 0.389463 0.921031
vn 0.437762 -0.037224 0.898320
vn 0.262447 -0.357693 0.896202
vn 0.001468 0.000450 0.999999
vn 0.486940 -0.025555 0.873062
vn -0.414707 0.021443 0.909702
vn 0.241745 0.093099 0.965863
vn 0.386532 0.223207 0.894859
f 56/56/56 99/99/99 166/166/166
f 112/112/112 31/31/31 113/113/113
f 170/170/170 132/132/132 167/167/167
f 26/26/26 167/167/167 132/132/132
f 41/41/41 83/83/83 85/85/85
f 160/160/160 54/54/54 151/151/151
f 83/83/83 41/41/41 58/58/58
f 36/36/36 166/166/166 99/99/99
f 84/84/84 47/47/47 12/12/12
f 72/72/72 17/17/17 135/135/135
f 127/127/127 25/25/25 44/44/44
f 80/80/80 110/110/110 104/104/104
f 115/115/115 112/112/112 15/15/15
f 163/163/163 150/150/150 28/28/28
f 140/140/140 45/45/45 92/92/92
f 76/76/76 112/112/112 113/113/113
f 58/58/58 151/151/151 54/54/54
f 15/15/15 112/112/112 76/76/76
f 115/115/115 15/15/15 75/75/75
f 82/82/82 41/41/41 55/55/55
f 88/88/88 56/56/56 40/40/40
f 25/25/25 127/127/127 13/13/13
f 22/22/22 30/30/30 136/136/136
f 85/85/85 55/55/55 41/41/41
f 47/47/47 84/84/84 82/82/82
f 165/165/165 22/22/22 136/136/136
f 21/21/21 64/64/64 89/89/89
f 83/83/83 58/58/58 54/54/54
f 57/57/57 95/95/95 104/104/104
f 116/116/116 30/30/30 22/22/22
f 42/42/42 112/112/112 115/115/115
f 26/26/26 162/162/162 126/126/126
f 165/165/165 147/147/147 22/22/22
f 155/155/155 100/100/100 73/73/73
f 129/129/129 70/70/70 18/18/18
f 63/63/63 28/28/28 121/121/121
f 162/162/162 26/26/26 127/127/127
f 114/114/114 31/31/31 42/42/42
f 153/153/153 160/160/160 60/60/60
f 37/37/37 153/153/153 157/157/157
f 139/139/139 33/33/33 74/74/74
f 149/149/149 138/138/138 98/98/98
f 61/61/61 150/150/150 120/120/120
f 62/62/62 117/117/117 125/125/125
f 32/32/32 165/165/165 136/136/136
f 143/143/143 39/39/39 59/59/59
f 51/51/51 159/159/159 23/23/23
f 142/142/142 46/46/46 35/35/35
f 78/78/78 125/125/125 9/9/9
f 121/121/121 80/80/80 5/5/5
f 60/60/60 95/95/95 153/153/153
f 144/144/144 107/107/107 148/148/148
f 97/97/97 10/10/10 93/93/93
f 27/27/27 123/123/123 125/125/125
f 44/44/44 162/162/162 127/127/127
f 64/64/64 91/91/91 89/89/89
f 60/60/60 169/169/169 111/111/111
f 50/50/50 92/92/92 69/69/69
f 123/123/123 120/120/120 32/32/32
f 131/131/131 25/25/25 13/13/13
f 81/81/81 170/170/170 167/167/167
f 45/45/45 140/140/140 93/93/93
f 84/84/84 152/152/152 58/58/58
f 62/62/62 125/125/125 123/123/123
f 34/34/34 159/159/159 51/51/51
f 11/11/11 148/148/148 107/107/107
f 5/5/5 104/104/104 95/95/95
f 23/23/23 87/87/87 40/40/40
f 38/38/38 94/94/94 141/141/141
f 29/29/29 119/119/119 135/135/135
f 72/72/72 135/135/135 119/119/119
f 84/84/84 12/12/12 152/152/152
f 9/9/9 125/125/125 117/117/117
f 13/13/13 154/154/154 124/124/124
f 14/14/14 118/118/118 133/133/133
f 56/56/56 122/122/122 40/40/40
f 65/65/65 141/141/141 94/94/94
f 20/20/20 66/66/66 137/137/137
f 55/55/55 20/20/20 82/82/82
f 59/59/59 91/91/91 85/85/85
f 65/65/65 21/21/21 141/141/141
f 6/6/6 85/85/85 91/91/91
f 114/114/114 12/12/12 47/47/47
f 164/164/164 73/73/73 100/100/100
f 3/3/3 65/65/65 94/94/94
f 141/141/141 48/48/48 38/38/38
f 92/92/92 18/18/18 69/69/69
f 124/124/124 154/154/154 61/61/61
f 4/4/4 68/68/68 102/102/102
f 167/167/167 106/106/106 158/158/158
f 103/103/103 29/29/29 135/135/135
f 106/106/106 167/167/167 52/52/52
f 157/157/157 90/90/90 37/37/37
f 44/44/44 103/103/103 135/135/135
f 11/11/11 87/87/87 148/148/148
f 81/81/81 167/167/167 158/158/158
f 58/58/58 152/152/152 151/151/151
f 13/13/13 168/168/168 131/131/131
f 2/2/2 119/119/119 77/77/77
f 156/156/156 145/145/145 153/153/153
f 63/63/63 121/121/121 111/111/111
f 116/116/116 22/22/22 12/12/12
f 118/118/118 29/29/29 79/79/79
f 40/40/40 86/86/86 88/88/88
f 149/149/149 98/98/98 10/10/10
f 131/131/131 79/79/79 29/29/29
f 26/26/26 128/128/128 52/52/52
f 5/5/5 111/111/111 121/121/121
f 154/154/154 127/127/127 146/146/146
f 145/145/145 53/53/53 149/149/149
f 16/16/16 164/164/164 100/100/100
f 169/169/169 151/151/151 147/147/147
f 35/35/35 96/96/96 155/155/155
f 169/169/169 60/60/60 160/160/160
f 45/45/45 98/98/98 129/129/129
f 36/36/36 129/129/129 98/98/98
f 122/122/122 23/23/23 40/40/40
f 122/122/122 130/130/130 51/51/51
f 163/163/163 120/120/120 150/150/150
f 169/169/169 147/147/147 161/161/161
f 25/25/25 131/131/131 44/44/44
f 97/97/97 48/48/48 90/90/90
f 1/1/1 24/24/24 113/113/113
f 140/140/140 38/38/38 93/93/93
f 48/48/48 141/141/141 89/89/89
f 21/21/21 89/89/89 141/141/141
f 49/49/49 144/144/144 148/148/148
f 173/173/173 43/43/43 101/101/101
f 6/6/6 91/91/91 64/64/64
f 63/63/63 111/111/111 161/161/161
f 32/32/32 136/136/136 123/123/123
f 6/6/6 55/55/55 85/85/85
f 163/163/163 63/63/63 161/161/161
f 155/155/155 102/102/102 35/35/35
f 143/143/143 90/90/90 39/39/39
f 83/83/83 171/171/171 59/59/59
f 110/110/110 49/49/49 34/34/34
f 160/160/160 151/151/151 169/169/169
f 107/107/107 144/144/144 106/106/106
f 111/111/111 169/169/169 161/161/161
f 87/87/87 46/46/46 40/40/40
f 144/144/144 49/49/49 106/106/106
f 172/172/172 16/16/16 100/100/100
f 153/153/153 171/171/171 160/160/160
f 87/87/87 109/109/109 46/46/46
f 84/84/84 58/58/58 41/41/41
f 37/37/37 90/90/90 143/143/143
f 37/37/37 143/143/143 171/171/171
f 132/132/132 146/146/146 127/127/127
f 157/157/157 10/10/10 90/90/90
f 10/10/10 97/97/97 90/90/90
f 49/49/49 158/158/158 106/106/106
f 145/145/145 157/157/157 153/153/153
f 34/34/34 51/51/51 57/57/57
f 119/119/119 29/29/29 118/118/118
f 90/90/90 48/48/48 39/39/39
f 105/105/105 170/170/170 81/81/81
f 110/110/110 80/80/80 158/158/158
f 101/101/101 109/109/109 11/11/11
f 156/156/156 53/53/53 145/145/145
f 42/42/42 116/116/116 114/114/114
f 105/105/105 28/28/28 146/146/146
f 109/109/109 101/101/101 46/46/46
f 5/5/5 95/95/95 111/111/111
f 95/95/95 57/57/57 156/156/156
f 37/37/37 171/171/171 153/153/153
f 60/60/60 111/111/111 95/95/95
f 53/53/53 51/51/51 130/130/130
f 156/156/156 57/57/57 53/53/53
f 146/146/146 150/150/150 61/61/61
f 34/34/34 57/57/57 104/104/104
f 145/145/145 149/149/149 157/157/157
f 9/9/9 117/117/117 75/75/75
f 78/78/78 133/133/133 125/125/125
f 148/148/148 34/34/34 49/49/49
f 95/95/95 156/156/156 153/153/153
f 30/30/30 115/115/115 117/117/117
f 10/10/10 98/98/98 93/93/93
f 83/83/83 54/54/54 171/171/171
f 96/96/96 43/43/43 100/100/100
f 108/108/108 74/74/74 33/33/33
f 77/77/77 119/119/119 118/118/118
f 94/94/94 69/69/69 3/3/3
f 45/45/45 93/93/93 98/98/98
f 91/91/91 59/59/59 39/39/39
f 75/75/75 117/117/117 115/115/115
f 138/138/138 149/149/149 53/53/53
f 112/112/112 42/42/42 31/31/31
f 63/63/63 163/163/163 28/28/28
f 130/130/130 122/122/122 166/166/166
f 167/167/167 26/26/26 52/52/52
f 162/162/162 44/44/44 126/126/126
f 99/99/99 70/70/70 36/36/36
f 62/62/62 136/136/136 117/117/117
f 80/80/80 104/104/104 5/5/5
f 27/27/27 133/133/133 124/124/124
f 148/148/148 23/23/23 159/159/159
f 53/53/53 130/130/130 138/138/138
f 120/120/120 123/123/123 61/61/61
f 43/43/43 107/107/107 139/139/139
f 81/81/81 158/158/158 80/80/80
f 79/79/79 124/124/124 133/133/133
f 33/33/33 52/52/52 108/108/108
f 166/166/166 36/36/36 138/138/138
f 102/102/102 155/155/155 73/73/73
f 132/132/132 170/170/170 146/146/146
f 33/33/33 106/106/106 52/52/52
f 168/168/168 13/13/13 124/124/124
f 98/98/98 138/138/138 36/36/36
f 29/29/29 103/103/103 131/131/131
f 107/107/107 106/106/106 33/33/33
f 105/105/105 146/146/146 170/170/170
f 158/158/158 49/49/49 110/110/110
f 43/43/43 173/173/173 107/107/107
f 89/89/89 39/39/39 48/48/48
f 166/166/166 138/138/138 130/130/130
f 38/38/38 140/140/140 92/92/92
f 148/148/148 159/159/159 34/34/34
f 149/149/149 10/10/10 157/157/157
f 54/54/54 160/160/160 171/171/171
f 30/30/30 117/117/117 136/136/136
f 147/147/147 12/12/12 22/22/22
f 116/116/116 42/42/42 30/30/30
f 73/73/73 4/4/4 102/102/102
f 103/103/103 44/44/44 131/131/131
f 7/7/7 70/70/70 99/99/99
f 115/115/115 30/30/30 42/42/42
f 47/47/47 82/82/82 137/137/137
f 68/68/68 142/142/142 102/102/102
f 19/19/19 86/86/86 142/142/142
f 142/142/142 35/35/35 102/102/102
f 92/92/92 50/50/50 38/38/38
f 31/31/31 134/134/134 113/113/113
f 46/46/46 142/142/142 86/86/86
f 23/23/23 148/148/148 87/87/87
f 56/56/56 166/166/166 122/122/122
f 173/173/173 11/11/11 107/107/107
f 129/129/129 36/36/36 70/70/70
f 105/105/105 81/81/81 80/80/80
f 41/41/41 82/82/82 84/84/84
f 59/59/59 85/85/85 83/83/83
f 122/122/122 51/51/51 23/23/23
f 66/66/66 1/1/1 113/113/113
f 113/113/113 134/134/134 66/66/66
f 100/100/100 155/155/155 96/96/96
f 152/152/152 12/12/12 147/147/147
f 123/123/123 27/27/27 61/61/61
f 124/124/124 61/61/61 27/27/27
f 67/67/67 7/7/7 88/88/88
f 19/19/19 67/67/67 86/86/86
f 68/68/68 19/19/19 142/142/142
f 20/20/20 137/137/137 82/82/82
f 163/163/163 161/161/161 32/32/32
f 2/2/2 72/72/72 119/119/119
f 143/143/143 59/59/59 171/171/171
f 93/93/93 38/38/38 48/48/48
f 74/74/74 16/16/16 139/139/139
f 8/8/8 74/74/74 108/108/108
f 33/33/33 139/139/139 107/107/107
f 8/8/8 108/108/108 128/128/128
f 86/86/86 40/40/40 46/46/46
f 146/146/146 28/28/28 150/150/150
f 96/96/96 35/35/35 101/101/101
f 43/43/43 172/172/172 100/100/100
f 52/52/52 128/128/128 108/108/108
f 128/128/128 71/71/71 8/8/8
f 79/79/79 168/168/168 124/124/124
f 50/50/50 94/94/94 38/38/38
f 126/126/126 17/17/17 71/71/71
f 48/48/48 97/97/97 93/93/93
f 26/26/26 126/126/126 128/128/128
f 39/39/39 89/89/89 91/91/91
f 71/71/71 128/128/128 126/126/126
f 132/132/132 127/127/127 26/26/26
f 44/44/44 135/135/135 126/126/126
f 24/24/24 76/76/76 113/113/113
f 7/7/7 99/99/99 88/88/88
f 43/43/43 96/96/96 101/101/101
f 27/27/27 125/125/125 133/133/133
f 101/101/101 35/35/35 46/46/46
f 62/62/62 123/123/123 136/136/136
f 146/146/146 61/61/61 154/154/154
f 66/66/66 134/134/134 137/137/137
f 17/17/17 126/126/126 135/135/135
f 79/79/79 133/133/133 118/118/118
f 67/67/67 88/88/88 86/86/86
f 34/34/34 104/104/104 110/110/110
f 120/120/120 163/163/163 32/32/32
f 134/134/134 31/31/31 137/137/137
f 77/77/77 118/118/118 14/14/14
f 168/168/168 79/79/79 131/131/131
f 18/18/18 92/92/92 129/129/129
f 56/56/56 88/88/88 99/99/99
f 14/14/14 133/133/133 78/78/78
f 12/12/12 114/114/114 116/116/116
f 154/154/154 13/13/13 127/127/127
f 45/45/45 129/129/129 92/92/92
f 121/121/121 28/28/28 80/80/80
f 28/28/28 105/105/105 80/80/80
f 94/94/94 50/50/50 69/69/69
f 109/109/109 87/87/87 11/11/11
f 147/147/147 165/165/165 161/161/161
f 147/147/147 151/151/151 152/152/152
f 161/161/161 165/165/165 32/32/32
f 16/16/16 172/172/172 139/139/139
f 172/172/172 43/43/43 139/139/139
f 11/11/11 173/173/173 101/101/101
f 51/51/51 53/53/53 57/57/57
f 137/137/137 31/31/31 47/47/47
f 114/114/114 47/47/47 31/31/31
