# frame 000689 
# time 0.345000 
# name Cloth3D 
v -0.000000 0.000000 -0.000000
v 1.000000 0.000000 -0.000000
v -0.000000 1.000000 0.000000
v 1.000000 1.000000 0.000000
v 0.498423 0.497822 0.120579
v -0.000000 0.500000 0.000000
v 0.500000 1.000000 0.000000
v 1.000000 0.500000 0.000000
v 0.500000 -0.000000 0.000000
v 0.245359 0.754735 0.070324
v 0.756084 0.757534 0.088468
v 0.246996 0.247765 0.060308
v 0.755071 0.244956 0.080824
v 0.750000 0.000000 0.000000
v 0.250000 0.000000 0.000000
v 1.000000 0.750000 0.000000
v 1.000000 0.250000 0.000000
v 0.250000 1.000000 0.000000
v 0.750000 1.000000 0.000000
v 0.000000 0.250000 0.000000
v 0.000000 0.750000 -0.000000
v 0.361775 0.215834 0.076053
v 0.632459 0.780431 0.098021
v 0.240586 0.514921 0.087313
v 0.817475 0.246247 0.064412
v 0.879343 0.373376 0.054479
v 0.625282 0.123119 0.044255
v 0.630099 0.367252 0.127353
v 0.876067 0.123638 0.023438
v 0.374342 0.123770 0.038894
v 0.125404 0.125957 0.008499
v 0.490543 0.245859 0.092613
v 0.877554 0.625988 0.048934
v 0.629168 0.629038 0.118700
v 0.876744 0.877332 0.027265
v 0.374334 0.878594 0.046039
v 0.256376 0.602303 0.091567
v 0.125405 0.874672 0.009922
v 0.123770 0.625190 0.038094
v 0.626618 0.883483 0.060709
v 0.124628 0.374218 0.036083
v 0.250336 0.126037 0.020895
v 0.878475 0.752476 0.045354
v 0.879065 0.247936 0.045561
v 0.249055 0.876735 0.032639
v 0.752959 0.882627 0.054592
v 0.122743 0.249057 0.032756
v 0.123445 0.750669 0.031483
v 0.319706 0.596331 0.115790
v 0.125619 0.936963 -0.000115
v 0.247982 0.815187 0.049553
v 0.878608 0.499572 0.053705
v 0.425603 0.719222 0.109711
v 0.243188 0.453212 0.088107
v 0.000000 0.375000 0.000000
v 0.500520 0.879298 0.050864
v 0.498943 0.628821 0.119011
v 0.245192 0.370452 0.086364
v 0.124138 0.499357 0.039902
v 0.368170 0.498359 0.120621
v 0.627640 0.246267 0.089716
v 0.499659 0.123420 0.044436
v 0.497945 0.367288 0.127349
v 0.000000 0.625000 0.000000
v 0.000000 0.875000 0.000000
v 0.000000 0.125000 0.000000
v 0.625000 1.000000 0.000000
v 0.875000 1.000000 0.000000
v 0.125000 1.000000 0.000000
v 0.375000 1.000000 0.000000
v 1.000000 0.375000 0.000000
v 1.000000 0.125000 0.000000
v 1.000000 0.875000 0.000000
v 1.000000 0.625000 0.000000
v 0.375000 0.000000 0.000000
v 0.125000 0.000000 0.000000
v 0.875000 0.000000 0.000000
v 0.625000 0.000000 0.000000
v 0.750807 0.123255 0.037589
v 0.629204 0.498108 0.120748
v 0.767170 0.515130 0.100490
v 0.062669 0.312469 0.014525
v 0.184671 0.435726 0.063995
v 0.183216 0.310075 0.059504
v 0.062603 0.437234 0.017852
v 0.688511 0.942937 0.031819
v 0.691484 0.822698 0.083626
v 0.562914 0.942880 0.032706
v 0.062551 0.687344 0.014896
v 0.184116 0.689377 0.057852
v 0.062116 0.562257 0.019314
v 0.187658 0.937439 0.009206
v 0.185613 0.814198 0.037635
v 0.062878 0.937192 -0.001183
v 0.433610 0.563559 0.119493
v 0.877531 0.815129 0.037779
v 0.184589 0.752123 0.049689
v 0.310197 0.816955 0.062663
v 0.437666 0.938929 0.022992
v 0.939700 0.813537 0.022223
v 0.816466 0.817898 0.057530
v 0.937204 0.937285 0.001993
v 0.876701 0.186295 0.032045
v 0.563903 0.563330 0.120402
v 0.720143 0.422597 0.124567
v 0.823658 0.592374 0.073188
v 0.817827 0.690918 0.073362
v 0.938152 0.562472 0.023834
v 0.755313 0.821573 0.076233
v 0.689017 0.586092 0.117817
v 0.432591 0.432526 0.123798
v 0.188131 0.063665 0.002052
v 0.062719 0.062757 0.001741
v 0.187560 0.188803 0.025160
v 0.313026 0.063607 0.010518
v 0.311464 0.186809 0.049364
v 0.437385 0.061685 0.021491
v 0.813012 0.060220 0.021891
v 0.937070 0.062833 0.000310
v 0.554834 0.243643 0.092727
v 0.563844 0.432608 0.124037
v 0.525669 0.811658 0.082097
v 0.562807 0.184713 0.068128
v 0.689421 0.183974 0.065202
v 0.562400 0.063536 0.017096
v 0.940515 0.311865 0.027604
v 0.819307 0.308554 0.076780
v 0.940770 0.437079 0.030267
v 0.312565 0.938073 0.017232
v 0.476747 0.769375 0.094267
v 0.815245 0.184723 0.048157
v 0.807426 0.368488 0.086534
v 0.687535 0.060847 0.022974
v 0.062615 0.125341 0.004358
v 0.938605 0.187014 0.017739
v 0.435820 0.185437 0.064525
v 0.061986 0.187495 0.011151
v 0.383245 0.774499 0.091540
v 0.939627 0.688032 0.025504
v 0.187276 0.875231 0.020664
v 0.062498 0.812315 0.009118
v 0.813666 0.941048 0.024520
v 0.184725 0.562728 0.063029
v 0.772339 0.652463 0.093553
v 0.320071 0.532015 0.119010
v 0.720736 0.321145 0.129685
v 0.320944 0.319463 0.129686
v 0.719005 0.720500 0.109731
v 0.319177 0.718756 0.109704
v 0.613139 0.320823 0.129672
v 0.320683 0.403330 0.125455
v 0.287948 0.323860 0.108102
v 0.719496 0.613488 0.115017
v 0.721931 0.292447 0.112238
v 0.813546 0.123075 0.032434
v 0.432509 0.639274 0.117583
v 0.275503 0.661865 0.095126
v 0.719399 0.539257 0.118711
v 0.614361 0.720044 0.109724
v 0.320435 0.467672 0.122230
v 0.417703 0.320040 0.129664
v 0.939106 0.750811 0.022307
v 0.547709 0.320584 0.129664
v 0.817635 0.754776 0.067831
v 0.414064 0.251215 0.094542
v 0.424449 0.822118 0.074645
v 0.818108 0.480411 0.080132
v 0.752203 0.185102 0.055957
v 0.367569 0.411960 0.124977
v 0.250042 0.937723 0.013522
v 0.629548 0.432784 0.124044
v 0.550606 0.719766 0.109719
v 0.410346 0.667866 0.116487
vt 0.000000 0.000000
vt 1.000000 0.000000
vt 0.000000 1.000000
vt 1.000000 1.000000
vt 0.500000 0.500000
vt 0.000000 0.500000
vt 0.500000 1.000000
vt 1.000000 0.500000
vt 0.500000 0.000000
vt 0.250000 0.750000
vt 0.750000 0.750000
vt 0.250000 0.250000
vt 0.750000 0.250000
vt 0.750000 0.000000
vt 0.250000 0.000000
vt 1.000000 0.750000
vt 1.000000 0.250000
vt 0.250000 1.000000
vt 0.750000 1.000000
vt 0.000000 0.250000
vt 0.000000 0.750000
vt 0.365347 0.220303
vt 0.629073 0.770824
vt 0.245672 0.515386
vt 0.812500 0.250000
vt 0.875000 0.375000
vt 0.625000 0.125000
vt 0.625000 0.375000
vt 0.875000 0.125000
vt 0.375000 0.125000
vt 0.125000 0.125000
vt 0.492214 0.250470
vt 0.875000 0.625000
vt 0.625000 0.625000
vt 0.875000 0.875000
vt 0.375000 0.875000
vt 0.262101 0.599801
vt 0.125000 0.875000
vt 0.125000 0.625000
vt 0.625000 0.875000
vt 0.125000 0.375000
vt 0.250000 0.125000
vt 0.875000 0.750000
vt 0.875000 0.250000
vt 0.250000 0.875000
vt 0.750000 0.875000
vt 0.125000 0.250000
vt 0.125000 0.750000
vt 0.327431 0.593107
vt 0.125000 0.937500
vt 0.250000 0.812500
vt 0.875000 0.500000
vt 0.428844 0.711465
vt 0.248222 0.455442
vt 0.000000 0.375000
vt 0.500000 0.875000
vt 0.500000 0.625000
vt 0.250000 0.375000
vt 0.125000 0.500000
vt 0.375000 0.500000
vt 0.625000 0.250000
vt 0.500000 0.125000
vt 0.500000 0.375000
vt 0.000000 0.625000
vt 0.000000 0.875000
vt 0.000000 0.125000
vt 0.625000 1.000000
vt 0.875000 1.000000
vt 0.125000 1.000000
vt 0.375000 1.000000
vt 1.000000 0.375000
vt 1.000000 0.125000
vt 1.000000 0.875000
vt 1.000000 0.625000
vt 0.375000 0.000000
vt 0.125000 0.000000
vt 0.875000 0.000000
vt 0.625000 0.000000
vt 0.750000 0.125000
vt 0.625000 0.500000
vt 0.760524 0.515669
vt 0.062500 0.312500
vt 0.187500 0.437500
vt 0.187500 0.312500
vt 0.062500 0.437500
vt 0.687500 0.937500
vt 0.687500 0.812500
vt 0.562500 0.937500
vt 0.062500 0.687500
vt 0.187500 0.687500
vt 0.062500 0.562500
vt 0.187500 0.937500
vt 0.187500 0.812500
vt 0.062500 0.937500
vt 0.437500 0.562500
vt 0.875000 0.812500
vt 0.187500 0.750000
vt 0.312500 0.812500
vt 0.437500 0.937500
vt 0.937500 0.812500
vt 0.812500 0.812500
vt 0.937500 0.937500
vt 0.875000 0.187500
vt 0.562500 0.562500
vt 0.711096 0.427218
vt 0.819332 0.591237
vt 0.812500 0.687500
vt 0.937500 0.562500
vt 0.750000 0.812500
vt 0.682510 0.583771
vt 0.437500 0.437500
vt 0.187500 0.062500
vt 0.062500 0.062500
vt 0.187500 0.187500
vt 0.312500 0.062500
vt 0.312500 0.187500
vt 0.437500 0.062500
vt 0.812500 0.062500
vt 0.937500 0.062500
vt 0.554454 0.248535
vt 0.562500 0.437500
vt 0.525016 0.804189
vt 0.562500 0.187500
vt 0.687500 0.187500
vt 0.562500 0.062500
vt 0.937500 0.312500
vt 0.812500 0.312500
vt 0.937500 0.437500
vt 0.312500 0.937500
vt 0.477574 0.762067
vt 0.812500 0.187500
vt 0.800716 0.372483
vt 0.687500 0.062500
vt 0.062500 0.125000
vt 0.937500 0.187500
vt 0.437500 0.187500
vt 0.062500 0.187500
vt 0.386728 0.766561
vt 0.937500 0.687500
vt 0.187500 0.875000
vt 0.062500 0.812500
vt 0.812500 0.937500
vt 0.187500 0.562500
vt 0.765906 0.648544
vt 0.328251 0.531632
vt 0.709379 0.332017
vt 0.333835 0.331640
vt 0.711243 0.711964
vt 0.327240 0.709424
vt 0.609198 0.330374
vt 0.330756 0.409089
vt 0.296906 0.332149
vt 0.711882 0.609975
vt 0.713437 0.300753
vt 0.812500 0.125000
vt 0.436137 0.634590
vt 0.281585 0.657008
vt 0.711413 0.538658
vt 0.610884 0.712324
vt 0.329396 0.470167
vt 0.424034 0.330319
vt 0.937500 0.750000
vt 0.547192 0.330096
vt 0.812500 0.750000
vt 0.418341 0.256674
vt 0.425703 0.815414
vt 0.812755 0.481587
vt 0.750000 0.187500
vt 0.375653 0.417988
vt 0.250000 0.937500
vt 0.625000 0.437500
vt 0.549320 0.712543
vt 0.414679 0.661630
vn -0.011517 -0.011517 0.999867
vn 0.000042 -0.000042 1.000000
vn 0.011947 -0.011947 0.999857
vn 0.013934 0.013934 0.999806
vn -0.002157 0.028907 0.999580
vn -0.282123 -0.005503 0.959362
vn -0.041373 0.423809 0.904806
vn 0.406664 0.025354 0.913226
vn 0.018460 -0.315896 0.948614
vn -0.313463 0.263241 0.912384
vn 0.288758 0.178211 0.940670
vn -0.262612 -0.355214 0.897139
vn 0.232345 -0.336351 0.912625
vn 0.002909 -0.344718 0.938702
vn -0.033914 -0.096286 0.994776
vn 0.352585 0.014111 0.935673
vn 0.343333 -0.039977 0.938363
vn -0.044290 0.203099 0.978156
vn 0.028516 0.432866 0.901007
vn -0.200618 -0.014480 0.979563
vn -0.181845 0.022333 0.983074
vn -0.116802 -0.426968 0.896692
vn -0.006247 0.264144 0.964463
vn -0.384469 0.011400 0.923068
vn 0.271427 -0.217684 0.937519
vn 0.386633 -0.032499 0.921661
vn -0.013620 -0.349531 0.936826
vn -0.000177 0.047681 0.998863
vn 0.178440 -0.150529 0.972368
vn -0.105123 -0.331342 0.937636
vn -0.064018 -0.118547 0.990883
vn -0.012349 -0.420066 0.907409
vn 0.386789 0.009577 0.922118
vn 0.018771 0.046652 0.998735
vn 0.238180 0.194990 0.951446
vn -0.076365 0.381137 0.921359
vn -0.368795 0.041550 0.928582
vn -0.136326 0.169892 0.975988
vn -0.334955 0.033680 0.941632
vn -0.009927 0.384377 0.923123
vn -0.341068 -0.026359 0.939669
vn -0.127503 -0.239684 0.962442
vn 0.355454 0.088213 0.930522
vn 0.309682 -0.161336 0.937053
vn -0.162467 0.291549 0.942658
vn 0.147325 0.348791 0.925548
vn -0.246454 -0.151574 0.957228
vn -0.287542 0.115666 0.950758
vn -0.238498 0.044081 0.970142
vn -0.082936 0.074109 0.993796
vn -0.214675 0.280998 0.935390
vn 0.393100 0.032484 0.918922
vn 0.005521 0.209219 0.977853
vn -0.395322 -0.009562 0.918493
vn -0.263636 -0.011113 0.964558
vn -0.058939 0.383766 0.921547
vn -0.005838 0.050911 0.998686
vn -0.421322 -0.009376 0.906862
vn -0.348136 0.007617 0.937413
vn -0.001506 0.041054 0.999156
vn 0.026875 -0.413663 0.910034
vn 0.003648 -0.347561 0.937650
vn -0.000922 0.048357 0.998830
vn -0.258893 0.017701 0.965744
vn -0.057021 0.040760 0.997541
vn -0.075525 -0.050094 0.995885
vn 0.004244 0.489305 0.872102
vn 0.091369 0.208657 0.973712
vn -0.054784 0.011802 0.998429
vn -0.021309 0.309910 0.950527
vn 0.435115 -0.011090 0.900307
vn 0.135395 -0.068244 0.988439
vn 0.189022 0.081378 0.978595
vn 0.370279 -0.005409 0.928905
vn -0.042940 -0.271363 0.961519
vn -0.001726 -0.026456 0.999649
vn 0.087027 -0.172488 0.981160
vn -0.024018 -0.320076 0.947087
vn 0.081892 -0.263413 0.961201
vn 0.003106 0.036285 0.999337
vn 0.385824 0.042094 0.921611
vn -0.277369 -0.025541 0.960424
vn -0.372503 -0.022164 0.927766
vn -0.335889 -0.113686 0.935016
vn -0.301146 -0.007486 0.953548
vn 0.028419 0.439155 0.897962
vn 0.073656 0.311505 0.947386
vn -0.038861 0.423754 0.904943
vn -0.268553 0.032526 0.962716
vn -0.336651 0.091589 0.937165
vn -0.297162 0.008943 0.954785
vn -0.095261 0.146050 0.984680
vn -0.209267 0.222165 0.952287
vn -0.015171 0.041168 0.999037
vn -0.011687 0.019643 0.999739
vn 0.295642 0.134171 0.945830
vn -0.287973 0.174464 0.941612
vn -0.170325 0.357665 0.918186
vn -0.042394 0.370274 0.927955
vn 0.275999 0.057620 0.959429
vn 0.291962 0.208614 0.933401
vn 0.107180 0.102196 0.988973
vn 0.232109 -0.193929 0.953161
vn 0.002348 0.010958 0.999937
vn 0.195660 0.042330 0.979758
vn 0.393260 0.029565 0.918952
vn 0.360379 0.057047 0.931060
vn 0.384546 0.020406 0.922880
vn 0.210312 0.265182 0.940982
vn 0.039851 0.038250 0.998473
vn 0.000421 0.048469 0.998825
vn -0.042033 -0.108340 0.993225
vn -0.030301 -0.033870 0.998967
vn -0.150014 -0.257821 0.954476
vn -0.088678 -0.228695 0.969451
vn -0.210602 -0.361968 0.908089
vn -0.022993 -0.323697 0.945881
vn 0.082244 -0.228614 0.970037
vn 0.088819 -0.079316 0.992885
vn 0.013121 -0.407374 0.913167
vn -0.000792 0.048571 0.998819
vn -0.036557 0.341470 0.939181
vn 0.007919 -0.371105 0.928557
vn 0.084031 -0.351903 0.932257
vn 0.001608 -0.330936 0.943652
vn 0.378790 -0.044369 0.924419
vn 0.374297 -0.141671 0.916423
vn 0.407708 0.009452 0.913064
vn -0.058570 0.291728 0.954707
vn -0.013249 0.312644 0.949778
vn 0.203062 -0.268270 0.941699
vn 0.423489 -0.027657 0.905479
vn 0.010406 -0.325318 0.945547
vn -0.062252 -0.075448 0.995205
vn 0.250528 -0.113360 0.961449
vn -0.024577 -0.384293 0.922884
vn -0.133004 -0.089044 0.987107
vn -0.053485 0.367177 0.928612
vn 0.362751 0.017585 0.931720
vn -0.162385 0.238148 0.957558
vn -0.160257 0.074845 0.984234
vn 0.114404 0.320499 0.940315
vn -0.376437 0.023842 0.926135
vn 0.372500 0.044108 0.926984
vn -0.176745 0.040642 0.983417
vn 0.201237 -0.347546 0.915814
vn -0.374083 -0.117711 0.919895
vn 0.238373 0.161920 0.957580
vn -0.226802 0.211517 0.950695
vn 0.008038 -0.163849 0.986453
vn -0.183171 0.034808 0.982465
vn -0.507332 -0.067432 0.859108
vn 0.168846 0.042223 0.984738
vn 0.201907 -0.464035 0.862499
vn 0.133544 -0.195863 0.971496
vn 0.004399 0.053565 0.998555
vn -0.375145 0.070199 0.924304
vn 0.196361 0.040651 0.979689
vn -0.000741 0.154684 0.987964
vn -0.158732 0.042560 0.986404
vn -0.000494 -0.217428 0.976076
vn 0.335481 0.034801 0.941404
vn -0.001262 -0.205160 0.978728
vn 0.330446 0.114277 0.936881
vn -0.011880 -0.439141 0.898340
vn -0.049889 0.383215 0.922311
vn 0.393742 0.026390 0.918842
vn 0.125481 -0.331157 0.935195
vn 0.001251 0.048042 0.998845
vn -0.082577 0.234753 0.968541
vn -0.000172 0.047925 0.998851
vn -0.011056 0.188800 0.981953
vn 0.028358 0.081791 0.996246
f 1/1/1 113/113/113 66/66/66
f 47/47/47 114/114/114 12/12/12
f 112/112/112 31/31/31 113/113/113
f 76/76/76 112/112/112 113/113/113
f 169/169/169 147/147/147 161/161/161
f 112/112/112 114/114/114 31/31/31
f 41/41/41 58/58/58 83/83/83
f 31/31/31 134/134/134 113/113/113
f 134/134/134 137/137/137 66/66/66
f 134/134/134 66/66/66 113/113/113
f 115/115/115 112/112/112 15/15/15
f 31/31/31 137/137/137 134/134/134
f 165/165/165 147/147/147 22/22/22
f 114/114/114 137/137/137 31/31/31
f 76/76/76 113/113/113 1/1/1
f 42/42/42 114/114/114 112/112/112
f 15/15/15 112/112/112 76/76/76
f 115/115/115 15/15/15 75/75/75
f 45/45/45 51/51/51 98/98/98
f 116/116/116 115/115/115 30/30/30
f 136/136/136 30/30/30 117/117/117
f 22/22/22 30/30/30 136/136/136
f 156/156/156 173/173/173 49/49/49
f 62/62/62 136/136/136 117/117/117
f 165/165/165 136/136/136 32/32/32
f 147/147/147 12/12/12 22/22/22
f 12/12/12 116/116/116 22/22/22
f 42/42/42 116/116/116 114/114/114
f 116/116/116 30/30/30 22/22/22
f 42/42/42 112/112/112 115/115/115
f 42/42/42 115/115/115 116/116/116
f 84/84/84 152/152/152 58/58/58
f 12/12/12 114/114/114 116/116/116
f 147/147/147 152/152/152 12/12/12
f 54/54/54 151/151/151 160/160/160
f 161/161/161 147/147/147 165/165/165
f 111/111/111 169/169/169 161/161/161
f 165/165/165 22/22/22 136/136/136
f 161/161/161 165/165/165 32/32/32
f 83/83/83 58/58/58 54/54/54
f 47/47/47 137/137/137 114/114/114
f 63/63/63 121/121/121 111/111/111
f 117/117/117 30/30/30 75/75/75
f 60/60/60 169/169/169 111/111/111
f 151/151/151 147/147/147 169/169/169
f 72/72/72 135/135/135 119/119/119
f 121/121/121 63/63/63 28/28/28
f 54/54/54 58/58/58 151/151/151
f 129/129/129 45/45/45 36/36/36
f 151/151/151 152/152/152 147/147/147
f 151/151/151 169/169/169 160/160/160
f 84/84/84 47/47/47 12/12/12
f 58/58/58 152/152/152 151/151/151
f 149/149/149 98/98/98 10/10/10
f 27/27/27 123/123/123 125/125/125
f 148/148/148 159/159/159 34/34/34
f 157/157/157 10/10/10 90/90/90
f 82/82/82 137/137/137 47/47/47
f 84/84/84 12/12/12 152/152/152
f 84/84/84 58/58/58 41/41/41
f 85/85/85 41/41/41 83/83/83
f 20/20/20 137/137/137 82/82/82
f 55/55/55 82/82/82 41/41/41
f 20/20/20 66/66/66 137/137/137
f 55/55/55 20/20/20 82/82/82
f 85/85/85 55/55/55 41/41/41
f 23/23/23 40/40/40 122/122/122
f 97/97/97 93/93/93 48/48/48
f 59/59/59 85/85/85 83/83/83
f 94/94/94 50/50/50 69/69/69
f 52/52/52 108/108/108 106/106/106
f 139/139/139 33/33/33 74/74/74
f 108/108/108 74/74/74 33/33/33
f 140/140/140 170/170/170 92/92/92
f 49/49/49 37/37/37 145/145/145
f 6/6/6 85/85/85 91/91/91
f 45/45/45 98/98/98 36/36/36
f 94/94/94 69/69/69 3/3/3
f 110/110/110 153/153/153 34/34/34
f 166/166/166 138/138/138 130/130/130
f 122/122/122 166/166/166 130/130/130
f 33/33/33 106/106/106 108/108/108
f 93/93/93 38/38/38 48/48/48
f 10/10/10 51/51/51 97/97/97
f 37/37/37 90/90/90 143/143/143
f 143/143/143 90/90/90 39/39/39
f 170/170/170 129/129/129 18/18/18
f 140/140/140 45/45/45 170/170/170
f 129/129/129 70/70/70 18/18/18
f 170/170/170 45/45/45 129/129/129
f 92/92/92 18/18/18 69/69/69
f 38/38/38 92/92/92 50/50/50
f 92/92/92 170/170/170 18/18/18
f 92/92/92 69/69/69 50/50/50
f 38/38/38 140/140/140 92/92/92
f 93/93/93 45/45/45 140/140/140
f 94/94/94 38/38/38 50/50/50
f 48/48/48 38/38/38 141/141/141
f 65/65/65 94/94/94 3/3/3
f 47/47/47 84/84/84 82/82/82
f 21/21/21 141/141/141 65/65/65
f 38/38/38 94/94/94 141/141/141
f 41/41/41 82/82/82 84/84/84
f 65/65/65 141/141/141 94/94/94
f 39/39/39 90/90/90 48/48/48
f 51/51/51 45/45/45 93/93/93
f 23/23/23 122/122/122 172/172/172
f 93/93/93 140/140/140 38/38/38
f 145/145/145 160/160/160 60/60/60
f 90/90/90 10/10/10 97/97/97
f 90/90/90 97/97/97 48/48/48
f 89/89/89 39/39/39 48/48/48
f 48/48/48 141/141/141 89/89/89
f 24/24/24 59/59/59 83/83/83
f 89/89/89 21/21/21 64/64/64
f 21/21/21 89/89/89 141/141/141
f 153/153/153 148/148/148 34/34/34
f 149/149/149 10/10/10 157/157/157
f 6/6/6 91/91/91 64/64/64
f 59/59/59 91/91/91 85/85/85
f 6/6/6 55/55/55 85/85/85
f 24/24/24 83/83/83 54/54/54
f 59/59/59 39/39/39 91/91/91
f 143/143/143 39/39/39 59/59/59
f 24/24/24 143/143/143 59/59/59
f 24/24/24 54/54/54 160/160/160
f 29/29/29 155/155/155 118/118/118
f 163/163/163 28/28/28 63/63/63
f 57/57/57 34/34/34 172/172/172
f 119/119/119 29/29/29 118/118/118
f 103/103/103 131/131/131 155/155/155
f 39/39/39 89/89/89 91/91/91
f 166/166/166 56/56/56 36/36/36
f 99/99/99 36/36/36 56/56/56
f 77/77/77 2/2/2 119/119/119
f 37/37/37 157/157/157 90/90/90
f 37/37/37 143/143/143 24/24/24
f 149/149/149 138/138/138 98/98/98
f 138/138/138 166/166/166 98/98/98
f 135/135/135 72/72/72 17/17/17
f 57/57/57 53/53/53 156/156/156
f 51/51/51 10/10/10 98/98/98
f 159/159/159 172/172/172 34/34/34
f 17/17/17 126/126/126 135/135/135
f 104/104/104 95/95/95 5/5/5
f 60/60/60 160/160/160 169/169/169
f 44/44/44 135/135/135 126/126/126
f 105/105/105 158/158/158 80/80/80
f 57/57/57 95/95/95 104/104/104
f 133/133/133 27/27/27 78/78/78
f 34/34/34 57/57/57 104/104/104
f 57/57/57 156/156/156 95/95/95
f 122/122/122 130/130/130 172/172/172
f 53/53/53 138/138/138 149/149/149
f 123/123/123 27/27/27 61/61/61
f 132/132/132 146/146/146 127/127/127
f 11/11/11 144/144/144 107/107/107
f 103/103/103 44/44/44 25/25/25
f 87/87/87 11/11/11 109/109/109
f 46/46/46 101/101/101 142/142/142
f 80/80/80 110/110/110 104/104/104
f 124/124/124 154/154/154 61/61/61
f 95/95/95 156/156/156 49/49/49
f 11/11/11 148/148/148 144/144/144
f 37/37/37 49/49/49 157/157/157
f 144/144/144 153/153/153 106/106/106
f 53/53/53 172/172/172 130/130/130
f 106/106/106 153/153/153 81/81/81
f 110/110/110 34/34/34 104/104/104
f 77/77/77 119/119/119 118/118/118
f 80/80/80 104/104/104 5/5/5
f 158/158/158 153/153/153 110/110/110
f 121/121/121 171/171/171 80/80/80
f 105/105/105 146/146/146 132/132/132
f 81/81/81 153/153/153 158/158/158
f 158/158/158 110/110/110 80/80/80
f 28/28/28 146/146/146 105/105/105
f 167/167/167 106/106/106 81/81/81
f 36/36/36 99/99/99 129/129/129
f 107/107/107 106/106/106 33/33/33
f 127/127/127 44/44/44 26/26/26
f 96/96/96 164/164/164 43/43/43
f 107/107/107 33/33/33 139/139/139
f 125/125/125 78/78/78 27/27/27
f 74/74/74 108/108/108 8/8/8
f 126/126/126 26/26/26 44/44/44
f 164/164/164 11/11/11 107/107/107
f 173/173/173 156/156/156 53/53/53
f 144/144/144 148/148/148 153/153/153
f 144/144/144 106/106/106 107/107/107
f 111/111/111 5/5/5 60/60/60
f 87/87/87 148/148/148 11/11/11
f 95/95/95 60/60/60 5/5/5
f 88/88/88 56/56/56 40/40/40
f 142/142/142 101/101/101 35/35/35
f 43/43/43 107/107/107 139/139/139
f 96/96/96 162/162/162 100/100/100
f 43/43/43 164/164/164 107/107/107
f 43/43/43 139/139/139 162/162/162
f 56/56/56 166/166/166 122/122/122
f 149/149/149 49/49/49 173/173/173
f 16/16/16 162/162/162 139/139/139
f 35/35/35 101/101/101 96/96/96
f 35/35/35 96/96/96 100/100/100
f 96/96/96 101/101/101 164/164/164
f 96/96/96 43/43/43 162/162/162
f 86/86/86 46/46/46 142/142/142
f 16/16/16 100/100/100 162/162/162
f 102/102/102 35/35/35 100/100/100
f 68/68/68 142/142/142 102/102/102
f 88/88/88 99/99/99 56/56/56
f 142/142/142 35/35/35 102/102/102
f 87/87/87 46/46/46 40/40/40
f 46/46/46 109/109/109 101/101/101
f 19/19/19 86/86/86 142/142/142
f 88/88/88 40/40/40 86/86/86
f 23/23/23 87/87/87 40/40/40
f 86/86/86 40/40/40 46/46/46
f 23/23/23 148/148/148 87/87/87
f 87/87/87 109/109/109 46/46/46
f 49/49/49 149/149/149 157/157/157
f 23/23/23 159/159/159 148/148/148
f 24/24/24 145/145/145 37/37/37
f 56/56/56 122/122/122 40/40/40
f 67/67/67 88/88/88 86/86/86
f 7/7/7 99/99/99 88/88/88
f 7/7/7 70/70/70 99/99/99
f 67/67/67 7/7/7 88/88/88
f 19/19/19 67/67/67 86/86/86
f 68/68/68 19/19/19 142/142/142
f 73/73/73 102/102/102 100/100/100
f 4/4/4 68/68/68 102/102/102
f 73/73/73 4/4/4 102/102/102
f 16/16/16 73/73/73 100/100/100
f 74/74/74 16/16/16 139/139/139
f 154/154/154 150/150/150 61/61/61
f 26/26/26 128/128/128 52/52/52
f 126/126/126 17/17/17 71/71/71
f 155/155/155 168/168/168 79/79/79
f 77/77/77 118/118/118 14/14/14
f 60/60/60 95/95/95 145/145/145
f 167/167/167 132/132/132 26/26/26
f 49/49/49 145/145/145 95/95/95
f 128/128/128 71/71/71 8/8/8
f 70/70/70 129/129/129 99/99/99
f 164/164/164 101/101/101 11/11/11
f 109/109/109 11/11/11 101/101/101
f 25/25/25 44/44/44 127/127/127
f 64/64/64 91/91/91 89/89/89
f 25/25/25 127/127/127 13/13/13
f 115/115/115 75/75/75 30/30/30
f 132/132/132 127/127/127 26/26/26
f 154/154/154 127/127/127 146/146/146
f 131/131/131 13/13/13 168/168/168
f 131/131/131 25/25/25 13/13/13
f 167/167/167 26/26/26 52/52/52
f 105/105/105 132/132/132 167/167/167
f 167/167/167 52/52/52 106/106/106
f 105/105/105 167/167/167 81/81/81
f 105/105/105 81/81/81 158/158/158
f 171/171/171 28/28/28 105/105/105
f 171/171/171 105/105/105 80/80/80
f 29/29/29 119/119/119 135/135/135
f 121/121/121 80/80/80 5/5/5
f 121/121/121 28/28/28 171/171/171
f 121/121/121 5/5/5 111/111/111
f 63/63/63 111/111/111 161/161/161
f 163/163/163 161/161/161 32/32/32
f 163/163/163 150/150/150 28/28/28
f 120/120/120 150/150/150 163/163/163
f 150/150/150 146/146/146 28/28/28
f 163/163/163 63/63/63 161/161/161
f 120/120/120 123/123/123 61/61/61
f 62/62/62 123/123/123 136/136/136
f 23/23/23 172/172/172 159/159/159
f 119/119/119 2/2/2 72/72/72
f 154/154/154 13/13/13 127/127/127
f 154/154/154 146/146/146 150/150/150
f 124/124/124 13/13/13 154/154/154
f 160/160/160 145/145/145 24/24/24
f 117/117/117 9/9/9 62/62/62
f 133/133/133 78/78/78 14/14/14
f 120/120/120 61/61/61 150/150/150
f 123/123/123 32/32/32 136/136/136
f 120/120/120 163/163/163 32/32/32
f 120/120/120 32/32/32 123/123/123
f 124/124/124 61/61/61 27/27/27
f 125/125/125 62/62/62 9/9/9
f 9/9/9 117/117/117 75/75/75
f 26/26/26 126/126/126 128/128/128
f 78/78/78 125/125/125 9/9/9
f 71/71/71 128/128/128 126/126/126
f 118/118/118 133/133/133 14/14/14
f 133/133/133 124/124/124 27/27/27
f 135/135/135 44/44/44 103/103/103
f 155/155/155 131/131/131 168/168/168
f 79/79/79 124/124/124 133/133/133
f 79/79/79 133/133/133 118/118/118
f 168/168/168 13/13/13 124/124/124
f 168/168/168 124/124/124 79/79/79
f 155/155/155 79/79/79 118/118/118
f 103/103/103 25/25/25 131/131/131
f 103/103/103 155/155/155 29/29/29
f 135/135/135 103/103/103 29/29/29
f 36/36/36 98/98/98 166/166/166
f 53/53/53 130/130/130 138/138/138
f 62/62/62 125/125/125 123/123/123
f 93/93/93 97/97/97 51/51/51
f 149/149/149 173/173/173 53/53/53
f 172/172/172 53/53/53 57/57/57
f 108/108/108 52/52/52 8/8/8
f 128/128/128 8/8/8 52/52/52
