# frame 000624 
# time 0.312500 
# name Cloth3D 
v -0.000000 0.000000 -0.000000
v 1.000000 0.000000 -0.000000
v -0.000000 1.000000 0.000000
v 1.000000 1.000000 0.000000
v 0.500887 0.500543 0.119657
v -0.000000 0.500000 0.000000
v 0.500000 1.000000 0.000000
v 1.000000 0.500000 0.000000
v 0.500000 -0.000000 0.000000
v 0.246720 0.754131 0.064871
v 0.756914 0.756536 0.076314
v 0.246821 0.246317 0.067171
v 0.757360 0.243784 0.073347
v 0.750000 0.000000 0.000000
v 0.250000 0.000000 0.000000
v 1.000000 0.750000 0.000000
v 1.000000 0.250000 0.000000
v 0.250000 1.000000 0.000000
v 0.750000 1.000000 0.000000
v 0.000000 0.250000 0.000000
v 0.000000 0.750000 -0.000000
v 0.363095 0.214486 0.081729
v 0.632509 0.774281 0.079135
v 1.000000 0.937500 0.000000
v 0.813501 0.248981 0.041875
v 0.874837 0.375007 0.037052
v 0.626008 0.122270 0.044180
v 0.633005 0.368770 0.119967
v 0.873381 0.126691 -0.001999
v 0.374565 0.122896 0.043188
v 0.126025 0.125482 0.008015
v 0.492881 0.246925 0.088841
v 0.878643 0.626915 0.047745
v 0.631972 0.632820 0.119916
v 0.874547 0.873478 0.006237
v 0.374452 0.877340 0.043311
v 0.258291 0.602956 0.089263
v 0.127077 0.873378 -0.002389
v 0.124494 0.625225 0.037399
v 0.625186 0.872940 0.031691
v 0.123746 0.374222 0.039592
v 0.249085 0.122241 0.036199
v 0.875568 0.748641 0.026601
v 0.874657 0.250305 0.023225
v 0.250402 0.875255 0.025063
v 0.749742 0.872612 0.018472
v 0.125269 0.249664 0.026047
v 0.125906 0.749583 0.021749
v 0.720558 0.617236 0.119941
v 0.126148 0.936814 -0.005438
v 0.552466 0.709511 0.119929
v 0.876040 0.500852 0.043925
v 0.424305 0.710563 0.119938
v 0.244906 0.454000 0.086065
v 0.000000 0.375000 0.000000
v 0.499573 0.875011 0.040589
v 0.500152 0.631680 0.119865
v 0.245081 0.371317 0.088750
v 0.125028 0.499606 0.038994
v 0.369961 0.500251 0.119842
v 0.630553 0.243973 0.091287
v 0.500357 0.125088 0.039610
v 0.501275 0.369643 0.119994
v 0.000000 0.625000 0.000000
v 0.000000 0.875000 0.000000
v 0.000000 0.125000 0.000000
v 0.625000 1.000000 0.000000
v 0.875000 1.000000 0.000000
v 0.125000 1.000000 0.000000
v 0.375000 1.000000 0.000000
v 1.000000 0.375000 0.000000
v 1.000000 0.125000 0.000000
v 1.000000 0.875000 0.000000
v 1.000000 0.625000 0.000000
v 0.375000 0.000000 0.000000
v 0.125000 0.000000 0.000000
v 0.875000 0.000000 0.000000
v 0.625000 0.000000 0.000000
v 0.749632 0.125208 0.023097
v 0.631931 0.500763 0.119908
v 0.719613 0.488807 0.119929
v 0.062847 0.312480 0.014277
v 0.185895 0.436226 0.062583
v 0.184507 0.310272 0.058497
v 0.062184 0.437311 0.019964
v 0.686992 0.935501 0.008533
v 0.690091 0.814379 0.055085
v 0.562376 0.936821 0.018113
v 0.062917 0.687143 0.013843
v 0.186950 0.688948 0.050312
v 0.062455 0.562323 0.019214
v 0.188312 0.936771 0.003552
v 0.188396 0.812120 0.024873
v 0.063207 0.936968 -0.003194
v 0.434963 0.565961 0.119787
v 0.874499 0.810775 0.014076
v 0.937500 0.000000 -0.000000
v 0.310757 0.815623 0.058198
v 0.437469 0.938113 0.021376
v 0.937087 0.811560 0.006461
v 0.813697 0.812126 0.031124
v 0.937207 0.936967 -0.000434
v 0.873907 0.188561 0.010588
v 0.566252 0.566476 0.119722
v 0.719075 0.424174 0.119929
v 0.824104 0.594433 0.070349
v 0.819634 0.692047 0.070674
v 0.937394 0.563120 0.019907
v 0.489135 0.710015 0.119934
v 0.692129 0.589432 0.119939
v 0.435541 0.434917 0.119721
v 0.187857 0.062354 0.009748
v 0.062972 0.062921 -0.003350
v 0.186923 0.186107 0.034867
v 0.312447 0.060709 0.021937
v 0.310565 0.182984 0.063194
v 0.437636 0.061416 0.022736
v 0.811501 0.063549 0.000733
v 0.937037 0.062977 -0.007503
v 0.557267 0.243651 0.090552
v 0.566825 0.434839 0.119936
v 0.525081 0.805505 0.066746
v 0.564226 0.184587 0.066808
v 0.690718 0.183966 0.058861
v 0.562745 0.062806 0.018421
v 0.936865 0.313021 0.013435
v 0.815857 0.310400 0.058013
v 0.936844 0.437913 0.018038
v 0.312941 0.937471 0.015266
v 0.476438 0.766145 0.087450
v 0.812061 0.187942 0.024676
v 0.805108 0.370447 0.071366
v 0.687708 0.060988 0.020454
v 0.063219 0.125472 0.000876
v 0.936596 0.188358 0.001950
v 0.436965 0.185058 0.065631
v 0.063679 0.188191 0.002671
v 0.382769 0.773099 0.089541
v 0.940998 0.687885 0.025553
v 0.717935 0.359831 0.119929
v 0.063643 0.811672 0.001778
v 0.811886 0.936030 0.001646
v 0.186672 0.562996 0.060030
v 0.774249 0.655771 0.093838
v 0.321485 0.662143 0.119929
v 0.718275 0.308405 0.119942
v 0.318492 0.311721 0.119942
v 0.721509 0.708279 0.119942
v 0.321721 0.711508 0.119942
v 0.487221 0.310484 0.119929
v 0.319353 0.405051 0.119938
v 0.291335 0.325466 0.103481
v 0.320949 0.597775 0.119929
v 0.726386 0.290120 0.110169
v 0.936953 0.873957 -0.001871
v 0.432856 0.641654 0.119784
v 0.276245 0.662734 0.095526
v 0.719893 0.553423 0.119941
v 0.617271 0.708974 0.119929
v 0.319909 0.469492 0.119935
v 0.421357 0.311032 0.119929
v 0.358582 0.286936 0.109411
v 0.550823 0.309956 0.119929
v 0.320411 0.532894 0.119929
v 0.416393 0.251565 0.093981
v 0.424115 0.819052 0.068393
v 0.816035 0.482007 0.069670
v 1.000000 0.062500 -0.000000
v 0.370615 0.414234 0.119884
v 0.772332 0.422874 0.088242
v 0.243515 0.515521 0.082572
v 0.616480 0.309376 0.119936
v 1.000000 0.812500 0.000000
v 0.062500 0.000000 -0.000000
v 0.752608 0.185094 0.045722
v 0.188672 0.874216 0.012240
v 0.874673 0.312596 0.030281
vt 0.000000 0.000000
vt 1.000000 0.000000
vt 0.000000 1.000000
vt 1.000000 1.000000
vt 0.500000 0.500000
vt 0.000000 0.500000
vt 0.500000 1.000000
vt 1.000000 0.500000
vt 0.500000 0.000000
vt 0.250000 0.750000
vt 0.750000 0.750000
vt 0.250000 0.250000
vt 0.750000 0.250000
vt 0.750000 0.000000
vt 0.250000 0.000000
vt 1.000000 0.750000
vt 1.000000 0.250000
vt 0.250000 1.000000
vt 0.750000 1.000000
vt 0.000000 0.250000
vt 0.000000 0.750000
vt 0.365347 0.220303
vt 0.629073 0.770824
vt 1.000000 0.937500
vt 0.812500 0.250000
vt 0.875000 0.375000
vt 0.625000 0.125000
vt 0.625000 0.375000
vt 0.875000 0.125000
vt 0.375000 0.125000
vt 0.125000 0.125000
vt 0.492214 0.250470
vt 0.875000 0.625000
vt 0.625000 0.625000
vt 0.875000 0.875000
vt 0.375000 0.875000
vt 0.262101 0.599801
vt 0.125000 0.875000
vt 0.125000 0.625000
vt 0.625000 0.875000
vt 0.125000 0.375000
vt 0.250000 0.125000
vt 0.875000 0.750000
vt 0.875000 0.250000
vt 0.250000 0.875000
vt 0.750000 0.875000
vt 0.125000 0.250000
vt 0.125000 0.750000
vt 0.709474 0.610015
vt 0.125000 0.937500
vt 0.550125 0.699114
vt 0.875000 0.500000
vt 0.428269 0.700394
vt 0.248222 0.455442
vt 0.000000 0.375000
vt 0.500000 0.875000
vt 0.500000 0.625000
vt 0.250000 0.375000
vt 0.125000 0.500000
vt 0.375000 0.500000
vt 0.625000 0.250000
vt 0.500000 0.125000
vt 0.500000 0.375000
vt 0.000000 0.625000
vt 0.000000 0.875000
vt 0.000000 0.125000
vt 0.625000 1.000000
vt 0.875000 1.000000
vt 0.125000 1.000000
vt 0.375000 1.000000
vt 1.000000 0.375000
vt 1.000000 0.125000
vt 1.000000 0.875000
vt 1.000000 0.625000
vt 0.375000 0.000000
vt 0.125000 0.000000
vt 0.875000 0.000000
vt 0.625000 0.000000
vt 0.750000 0.125000
vt 0.625000 0.500000
vt 0.708745 0.488379
vt 0.062500 0.312500
vt 0.187500 0.437500
vt 0.187500 0.312500
vt 0.062500 0.437500
vt 0.687500 0.937500
vt 0.687500 0.812500
vt 0.562500 0.937500
vt 0.062500 0.687500
vt 0.187500 0.687500
vt 0.062500 0.562500
vt 0.187500 0.937500
vt 0.187500 0.812500
vt 0.062500 0.937500
vt 0.437500 0.562500
vt 0.875000 0.812500
vt 0.937500 0.000000
vt 0.312500 0.812500
vt 0.437500 0.937500
vt 0.937500 0.812500
vt 0.812500 0.812500
vt 0.937500 0.937500
vt 0.875000 0.187500
vt 0.562500 0.562500
vt 0.707547 0.427246
vt 0.819332 0.591237
vt 0.812500 0.687500
vt 0.937500 0.562500
vt 0.489808 0.699867
vt 0.682510 0.583771
vt 0.437500 0.437500
vt 0.187500 0.062500
vt 0.062500 0.062500
vt 0.187500 0.187500
vt 0.312500 0.062500
vt 0.312500 0.187500
vt 0.437500 0.062500
vt 0.812500 0.062500
vt 0.937500 0.062500
vt 0.554454 0.248535
vt 0.562500 0.437500
vt 0.525016 0.804189
vt 0.562500 0.187500
vt 0.687500 0.187500
vt 0.562500 0.062500
vt 0.937500 0.312500
vt 0.812500 0.312500
vt 0.937500 0.437500
vt 0.312500 0.937500
vt 0.477574 0.762067
vt 0.812500 0.187500
vt 0.800716 0.372483
vt 0.687500 0.062500
vt 0.062500 0.125000
vt 0.937500 0.187500
vt 0.437500 0.187500
vt 0.062500 0.187500
vt 0.386728 0.766561
vt 0.937500 0.687500
vt 0.705595 0.366805
vt 0.062500 0.812500
vt 0.812500 0.937500
vt 0.187500 0.562500
vt 0.765906 0.648544
vt 0.330789 0.653977
vt 0.703445 0.318976
vt 0.327330 0.321351
vt 0.708986 0.694060
vt 0.332259 0.699899
vt 0.486653 0.318274
vt 0.326611 0.409014
vt 0.296906 0.332149
vt 0.328904 0.593169
vt 0.713437 0.300753
vt 0.937500 0.875000
vt 0.436137 0.634590
vt 0.281585 0.657008
vt 0.709261 0.549752
vt 0.611758 0.697615
vt 0.326987 0.470649
vt 0.423937 0.318881
vt 0.364019 0.294291
vt 0.547220 0.318069
vt 0.327731 0.531352
vt 0.418341 0.256674
vt 0.425703 0.815414
vt 0.812755 0.481587
vt 1.000000 0.062500
vt 0.375653 0.417988
vt 0.766844 0.424637
vt 0.245672 0.515386
vt 0.609356 0.318046
vt 1.000000 0.812500
vt 0.062500 0.000000
vt 0.750000 0.187500
vt 0.187500 0.875000
vt 0.875000 0.312500
vn 0.015472 0.030943 0.999401
vn -0.059556 0.059556 0.996447
vn 0.025335 -0.025335 0.999358
vn -0.005700 -0.002850 0.999980
vn -0.000393 0.000551 1.000000
vn -0.301607 0.002784 0.953428
vn 0.012963 0.298248 0.954400
vn 0.289882 -0.008652 0.957023
vn 0.017489 -0.313869 0.949305
vn -0.362491 0.272821 0.891161
vn 0.284712 0.451708 0.845517
vn -0.285998 -0.250101 0.925016
vn 0.385948 -0.359371 0.849645
vn 0.078873 -0.168329 0.982570
vn -0.047794 -0.253677 0.966108
vn 0.202655 0.062741 0.977238
vn 0.124266 -0.045066 0.991225
vn -0.045222 0.150331 0.987601
vn 0.025978 0.078102 0.996607
vn -0.168979 -0.043695 0.984651
vn -0.123220 0.047643 0.991235
vn -0.040805 -0.360016 0.932054
vn 0.044210 0.483779 0.874073
vn -0.014697 -0.006160 0.999873
vn 0.386431 -0.256826 0.885839
vn 0.374341 -0.073401 0.924381
vn 0.040813 -0.332591 0.942188
vn 0.000111 -0.000098 1.000000
vn 0.123975 -0.137755 0.982677
vn -0.006759 -0.343133 0.939263
vn -0.164455 -0.106014 0.980671
vn -0.001482 -0.401248 0.915968
vn 0.376442 -0.023594 0.926140
vn -0.000540 -0.000738 1.000000
vn 0.124825 0.111313 0.985915
vn -0.065336 0.362173 0.929818
vn -0.423190 0.027679 0.905618
vn -0.122395 0.110302 0.986333
vn -0.299337 0.063207 0.952052
vn 0.073767 0.351381 0.933322
vn -0.338489 -0.037660 0.940216
vn -0.148282 -0.259201 0.954373
vn 0.263896 0.247181 0.932342
vn 0.264490 -0.175441 0.948296
vn -0.188466 0.233681 0.953873
vn 0.109368 0.295968 0.948916
vn -0.280347 -0.134972 0.950362
vn -0.255236 0.149847 0.955197
vn 0.159812 -0.000705 0.987147
vn -0.057147 -0.014902 0.998255
vn 0.004950 0.257337 0.966309
vn 0.389513 -0.036818 0.920285
vn 0.013493 0.248016 0.968662
vn -0.393840 0.034022 0.918549
vn -0.282985 -0.022883 0.958851
vn 0.060981 0.346657 0.936008
vn -0.000592 -0.001022 0.999999
vn -0.377467 -0.031810 0.925477
vn -0.321706 0.018033 0.946668
vn 0.001664 0.000072 0.999999
vn 0.012676 -0.413473 0.910428
vn 0.005305 -0.348003 0.937478
vn -0.000641 0.000280 1.000000
vn -0.256640 0.021051 0.966278
vn 0.010549 0.020304 0.999738
vn -0.010965 -0.031063 0.999457
vn 0.037873 0.201869 0.978680
vn 0.009012 0.009327 0.999916
vn -0.036900 -0.050780 0.998028
vn -0.021877 0.305674 0.951885
vn 0.243247 -0.016068 0.969831
vn -0.057763 -0.031016 0.997848
vn -0.000910 0.032750 0.999463
vn 0.353403 -0.025922 0.935112
vn -0.000628 -0.345003 0.938601
vn -0.041679 -0.036149 0.998477
vn 0.026676 0.066280 0.997444
vn -0.010396 -0.300503 0.953724
vn 0.211259 -0.276870 0.937397
vn -0.000925 0.000643 0.999999
vn 0.241352 -0.008485 0.970401
vn -0.268056 -0.050999 0.962052
vn -0.362463 0.024359 0.931680
vn -0.351607 -0.134784 0.926394
vn -0.309284 0.001926 0.950968
vn 0.059037 0.193597 0.979303
vn 0.104676 0.438117 0.892802
vn 0.043247 0.275399 0.960357
vn -0.231306 0.065384 0.970681
vn -0.353651 0.109117 0.928991
vn -0.294704 0.015341 0.955465
vn -0.134915 0.082490 0.987417
vn -0.250921 0.234851 0.939087
vn 0.024175 -0.007841 0.999677
vn 0.000627 -0.000495 1.000000
vn 0.193805 0.162666 0.967460
vn 0.000000 0.118674 0.992933
vn -0.197527 0.383684 0.902092
vn 0.016613 0.331940 0.943154
vn 0.103076 0.101079 0.989524
vn 0.242935 0.278499 0.929204
vn 0.019261 -0.006405 0.999794
vn 0.173297 -0.202544 0.963817
vn -0.000877 -0.000816 0.999999
vn 0.328284 -0.005052 0.944566
vn 0.411112 -0.011281 0.911515
vn 0.412385 0.140604 0.900094
vn 0.349343 -0.027143 0.936602
vn 0.002784 0.269673 0.962948
vn -0.000320 -0.000035 1.000000
vn 0.000690 0.001095 0.999999
vn -0.106234 -0.179220 0.978057
vn -0.032425 -0.017192 0.999326
vn -0.254159 -0.188058 0.948703
vn -0.037057 -0.311314 0.949584
vn -0.136295 -0.312665 0.940034
vn 0.017320 -0.318032 0.947922
vn 0.106385 -0.081487 0.990980
vn -0.031181 0.029302 0.999084
vn -0.026524 -0.393215 0.919064
vn -0.000856 0.001506 0.999999
vn 0.042426 0.420858 0.906134
vn -0.008517 -0.375576 0.926752
vn 0.146928 -0.400982 0.904226
vn -0.006882 -0.321469 0.946895
vn 0.240438 -0.065912 0.968424
vn 0.444583 -0.160680 0.881208
vn 0.309137 -0.025574 0.950673
vn -0.082856 0.275566 0.957705
vn 0.030150 0.451988 0.891514
vn 0.294428 -0.275639 0.915060
vn 0.462880 -0.055809 0.884662
vn 0.077233 -0.261685 0.962058
vn -0.068524 -0.046304 0.996574
vn 0.093692 -0.115318 0.988900
vn 0.033527 -0.376621 0.925761
vn -0.128547 -0.072540 0.989047
vn -0.009126 0.434713 0.900523
vn 0.332031 0.080091 0.939862
vn 0.269509 -0.011211 0.962933
vn -0.078870 0.081601 0.993540
vn 0.042192 0.093793 0.994697
vn -0.352097 0.027409 0.935562
vn 0.441666 0.003784 0.897172
vn -0.322918 0.002639 0.946423
vn 0.409677 -0.196632 0.890787
vn -0.338850 -0.176775 0.924084
vn 0.256453 0.258231 0.931423
vn -0.273193 0.156665 0.949116
vn 0.002355 -0.206460 0.978452
vn -0.179703 -0.002537 0.983718
vn -0.474957 -0.057156 0.878151
vn -0.282102 0.008615 0.959346
vn 0.392064 -0.302515 0.868775
vn 0.047940 0.057222 0.997210
vn -0.000174 -0.000925 1.000000
vn -0.465379 0.044679 0.883983
vn 0.149213 -0.003620 0.988798
vn 0.002740 0.273681 0.961817
vn -0.173469 0.004974 0.984827
vn -0.000296 -0.261053 0.965324
vn -0.039964 -0.406031 0.912985
vn -0.007620 -0.232461 0.972576
vn -0.206680 0.002506 0.978405
vn 0.028018 -0.385513 0.922277
vn 0.039682 0.385980 0.921653
vn 0.427679 -0.039673 0.903060
vn -0.118710 -0.000000 0.992929
vn 0.001463 0.000454 0.999999
vn 0.471267 -0.014782 0.881867
vn -0.395225 0.018950 0.918389
vn -0.003492 -0.200051 0.979779
vn 0.098557 0.000000 0.995131
vn -0.000000 0.046405 0.998923
vn 0.260600 -0.391036 0.882711
vn -0.215051 0.165860 0.962415
vn 0.345431 -0.101637 0.932924
f 56/56/56 99/99/99 166/166/166
f 112/112/112 31/31/31 113/113/113
f 170/170/170 132/132/132 167/167/167
f 26/26/26 167/167/167 132/132/132
f 41/41/41 83/83/83 85/85/85
f 160/160/160 54/54/54 151/151/151
f 83/83/83 41/41/41 58/58/58
f 36/36/36 166/166/166 99/99/99
f 84/84/84 47/47/47 12/12/12
f 72/72/72 17/17/17 135/135/135
f 127/127/127 25/25/25 44/44/44
f 80/80/80 110/110/110 104/104/104
f 115/115/115 112/112/112 15/15/15
f 163/163/163 172/172/172 28/28/28
f 176/176/176 45/45/45 92/92/92
f 76/76/76 112/112/112 113/113/113
f 58/58/58 151/151/151 54/54/54
f 15/15/15 112/112/112 76/76/76
f 115/115/115 15/15/15 75/75/75
f 82/82/82 41/41/41 55/55/55
f 88/88/88 56/56/56 40/40/40
f 25/25/25 127/127/127 13/13/13
f 22/22/22 30/30/30 136/136/136
f 85/85/85 55/55/55 41/41/41
f 47/47/47 84/84/84 82/82/82
f 165/165/165 22/22/22 136/136/136
f 21/21/21 64/64/64 89/89/89
f 83/83/83 58/58/58 54/54/54
f 57/57/57 95/95/95 104/104/104
f 116/116/116 30/30/30 22/22/22
f 42/42/42 112/112/112 115/115/115
f 117/117/117 62/62/62 30/30/30
f 140/140/140 105/105/105 28/28/28
f 155/155/155 100/100/100 73/73/73
f 129/129/129 70/70/70 18/18/18
f 63/63/63 28/28/28 121/121/121
f 165/165/165 162/162/162 22/22/22
f 114/114/114 31/31/31 42/42/42
f 150/150/150 165/165/165 32/32/32
f 37/37/37 153/153/153 157/157/157
f 164/164/164 153/153/153 37/37/37
f 149/149/149 138/138/138 98/98/98
f 61/61/61 172/172/172 120/120/120
f 139/139/139 16/16/16 43/43/43
f 32/32/32 165/165/165 136/136/136
f 143/143/143 39/39/39 59/59/59
f 51/51/51 159/159/159 23/23/23
f 142/142/142 46/46/46 35/35/35
f 78/78/78 125/125/125 9/9/9
f 121/121/121 80/80/80 5/5/5
f 60/60/60 95/95/95 153/153/153
f 144/144/144 107/107/107 148/148/148
f 9/9/9 125/125/125 117/117/117
f 130/130/130 53/53/53 109/109/109
f 162/162/162 165/165/165 161/161/161
f 64/64/64 91/91/91 89/89/89
f 60/60/60 169/169/169 111/111/111
f 50/50/50 92/92/92 69/69/69
f 63/63/63 161/161/161 150/150/150
f 131/131/131 25/25/25 13/13/13
f 81/81/81 170/170/170 167/167/167
f 45/45/45 176/176/176 93/93/93
f 84/84/84 152/152/152 58/58/58
f 51/51/51 109/109/109 57/57/57
f 34/34/34 159/159/159 51/51/51
f 11/11/11 148/148/148 107/107/107
f 5/5/5 104/104/104 95/95/95
f 23/23/23 87/87/87 40/40/40
f 38/38/38 94/94/94 141/141/141
f 29/29/29 119/119/119 135/135/135
f 72/72/72 135/135/135 119/119/119
f 84/84/84 12/12/12 152/152/152
f 100/100/100 43/43/43 16/16/16
f 13/13/13 154/154/154 124/124/124
f 14/14/14 118/118/118 133/133/133
f 56/56/56 122/122/122 40/40/40
f 65/65/65 141/141/141 94/94/94
f 20/20/20 66/66/66 137/137/137
f 55/55/55 20/20/20 82/82/82
f 59/59/59 91/91/91 85/85/85
f 65/65/65 21/21/21 141/141/141
f 6/6/6 85/85/85 91/91/91
f 114/114/114 12/12/12 47/47/47
f 173/173/173 73/73/73 100/100/100
f 3/3/3 65/65/65 94/94/94
f 141/141/141 48/48/48 38/38/38
f 92/92/92 18/18/18 69/69/69
f 124/124/124 154/154/154 61/61/61
f 4/4/4 68/68/68 102/102/102
f 167/167/167 106/106/106 158/158/158
f 103/103/103 29/29/29 135/135/135
f 106/106/106 167/167/167 52/52/52
f 157/157/157 90/90/90 37/37/37
f 162/162/162 147/147/147 12/12/12
f 101/101/101 11/11/11 43/43/43
f 81/81/81 167/167/167 158/158/158
f 58/58/58 152/152/152 151/151/151
f 164/164/164 171/171/171 160/160/160
f 155/155/155 35/35/35 100/100/100
f 156/156/156 145/145/145 153/153/153
f 162/162/162 12/12/12 22/22/22
f 116/116/116 22/22/22 12/12/12
f 118/118/118 29/29/29 79/79/79
f 40/40/40 86/86/86 88/88/88
f 149/149/149 98/98/98 10/10/10
f 131/131/131 79/79/79 29/29/29
f 26/26/26 128/128/128 52/52/52
f 23/23/23 11/11/11 87/87/87
f 97/97/97 119/119/119 77/77/77
f 145/145/145 53/53/53 149/149/149
f 16/16/16 173/173/173 100/100/100
f 169/169/169 151/151/151 147/147/147
f 168/168/168 72/72/72 119/119/119
f 169/169/169 60/60/60 160/160/160
f 45/45/45 98/98/98 129/129/129
f 36/36/36 129/129/129 98/98/98
f 164/164/164 160/160/160 60/60/60
f 122/122/122 130/130/130 51/51/51
f 163/163/163 120/120/120 172/172/172
f 169/169/169 147/147/147 161/161/161
f 25/25/25 131/131/131 44/44/44
f 96/96/96 100/100/100 35/35/35
f 1/1/1 174/174/174 113/113/113
f 176/176/176 38/38/38 93/93/93
f 48/48/48 141/141/141 89/89/89
f 21/21/21 89/89/89 141/141/141
f 49/49/49 144/144/144 148/148/148
f 109/109/109 51/51/51 130/130/130
f 6/6/6 91/91/91 64/64/64
f 63/63/63 111/111/111 161/161/161
f 32/32/32 136/136/136 123/123/123
f 6/6/6 55/55/55 85/85/85
f 154/154/154 127/127/127 132/132/132
f 155/155/155 102/102/102 35/35/35
f 143/143/143 90/90/90 39/39/39
f 83/83/83 171/171/171 59/59/59
f 110/110/110 49/49/49 34/34/34
f 160/160/160 151/151/151 169/169/169
f 107/107/107 144/144/144 106/106/106
f 111/111/111 169/169/169 161/161/161
f 87/87/87 46/46/46 40/40/40
f 144/144/144 49/49/49 106/106/106
f 111/111/111 63/63/63 5/5/5
f 150/150/150 161/161/161 165/165/165
f 125/125/125 27/27/27 62/62/62
f 84/84/84 58/58/58 41/41/41
f 37/37/37 90/90/90 143/143/143
f 37/37/37 143/143/143 171/171/171
f 97/97/97 2/2/2 119/119/119
f 157/157/157 10/10/10 90/90/90
f 73/73/73 24/24/24 155/155/155
f 49/49/49 158/158/158 106/106/106
f 145/145/145 157/157/157 153/153/153
f 34/34/34 51/51/51 57/57/57
f 119/119/119 29/29/29 118/118/118
f 90/90/90 48/48/48 39/39/39
f 105/105/105 170/170/170 81/81/81
f 110/110/110 80/80/80 158/158/158
f 156/156/156 57/57/57 109/109/109
f 156/156/156 53/53/53 145/145/145
f 42/42/42 116/116/116 114/114/114
f 102/102/102 155/155/155 24/24/24
f 123/123/123 62/62/62 27/27/27
f 5/5/5 95/95/95 111/111/111
f 95/95/95 57/57/57 156/156/156
f 163/163/163 150/150/150 32/32/32
f 60/60/60 111/111/111 95/95/95
f 133/133/133 79/79/79 27/27/27
f 124/124/124 27/27/27 79/79/79
f 146/146/146 172/172/172 61/61/61
f 34/34/34 57/57/57 104/104/104
f 145/145/145 149/149/149 157/157/157
f 9/9/9 117/117/117 75/75/75
f 78/78/78 133/133/133 125/125/125
f 148/148/148 34/34/34 49/49/49
f 95/95/95 156/156/156 153/153/153
f 30/30/30 115/115/115 117/117/117
f 10/10/10 98/98/98 93/93/93
f 83/83/83 54/54/54 171/171/171
f 96/96/96 43/43/43 100/100/100
f 37/37/37 171/171/171 164/164/164
f 77/77/77 119/119/119 118/118/118
f 94/94/94 69/69/69 3/3/3
f 45/45/45 93/93/93 98/98/98
f 91/91/91 59/59/59 39/39/39
f 75/75/75 117/117/117 115/115/115
f 138/138/138 149/149/149 53/53/53
f 112/112/112 42/42/42 31/31/31
f 63/63/63 163/163/163 28/28/28
f 163/163/163 63/63/63 150/150/150
f 167/167/167 26/26/26 52/52/52
f 136/136/136 30/30/30 62/62/62
f 99/99/99 70/70/70 36/36/36
f 154/154/154 132/132/132 140/140/140
f 80/80/80 104/104/104 5/5/5
f 27/27/27 124/124/124 123/123/123
f 148/148/148 23/23/23 159/159/159
f 53/53/53 130/130/130 138/138/138
f 120/120/120 123/123/123 61/61/61
f 43/43/43 107/107/107 139/139/139
f 81/81/81 158/158/158 80/80/80
f 61/61/61 123/123/123 124/124/124
f 33/33/33 52/52/52 108/108/108
f 166/166/166 36/36/36 138/138/138
f 139/139/139 33/33/33 108/108/108
f 82/82/82 20/20/20 47/47/47
f 33/33/33 106/106/106 52/52/52
f 175/175/175 13/13/13 124/124/124
f 98/98/98 138/138/138 36/36/36
f 29/29/29 103/103/103 131/131/131
f 107/107/107 106/106/106 33/33/33
f 137/137/137 47/47/47 20/20/20
f 158/158/158 49/49/49 110/110/110
f 46/46/46 87/87/87 101/101/101
f 89/89/89 39/39/39 48/48/48
f 166/166/166 138/138/138 130/130/130
f 38/38/38 176/176/176 92/92/92
f 140/140/140 170/170/170 105/105/105
f 149/149/149 10/10/10 157/157/157
f 54/54/54 160/160/160 171/171/171
f 154/154/154 140/140/140 146/146/146
f 140/140/140 132/132/132 170/170/170
f 116/116/116 42/42/42 30/30/30
f 74/74/74 139/139/139 108/108/108
f 103/103/103 44/44/44 131/131/131
f 7/7/7 70/70/70 99/99/99
f 115/115/115 30/30/30 42/42/42
f 90/90/90 10/10/10 48/48/48
f 68/68/68 142/142/142 102/102/102
f 19/19/19 86/86/86 142/142/142
f 142/142/142 35/35/35 102/102/102
f 92/92/92 50/50/50 38/38/38
f 31/31/31 134/134/134 113/113/113
f 46/46/46 142/142/142 86/86/86
f 107/107/107 43/43/43 11/11/11
f 56/56/56 166/166/166 122/122/122
f 11/11/11 101/101/101 87/87/87
f 129/129/129 36/36/36 70/70/70
f 105/105/105 81/81/81 80/80/80
f 41/41/41 82/82/82 84/84/84
f 59/59/59 85/85/85 83/83/83
f 122/122/122 51/51/51 23/23/23
f 66/66/66 1/1/1 113/113/113
f 113/113/113 134/134/134 66/66/66
f 2/2/2 168/168/168 119/119/119
f 152/152/152 12/12/12 147/147/147
f 47/47/47 137/137/137 114/114/114
f 31/31/31 114/114/114 137/137/137
f 67/67/67 7/7/7 88/88/88
f 19/19/19 67/67/67 86/86/86
f 68/68/68 19/19/19 142/142/142
f 93/93/93 48/48/48 10/10/10
f 161/161/161 147/147/147 162/162/162
f 24/24/24 4/4/4 102/102/102
f 143/143/143 59/59/59 171/171/171
f 93/93/93 38/38/38 48/48/48
f 74/74/74 16/16/16 139/139/139
f 8/8/8 74/74/74 108/108/108
f 33/33/33 139/139/139 107/107/107
f 8/8/8 108/108/108 128/128/128
f 86/86/86 40/40/40 46/46/46
f 146/146/146 28/28/28 172/172/172
f 96/96/96 35/35/35 101/101/101
f 121/121/121 5/5/5 63/63/63
f 52/52/52 128/128/128 108/108/108
f 128/128/128 71/71/71 8/8/8
f 79/79/79 175/175/175 124/124/124
f 50/50/50 94/94/94 38/38/38
f 126/126/126 17/17/17 71/71/71
f 62/62/62 117/117/117 125/125/125
f 26/26/26 126/126/126 128/128/128
f 39/39/39 89/89/89 91/91/91
f 71/71/71 128/128/128 126/126/126
f 132/132/132 127/127/127 26/26/26
f 44/44/44 135/135/135 126/126/126
f 174/174/174 76/76/76 113/113/113
f 7/7/7 99/99/99 88/88/88
f 43/43/43 96/96/96 101/101/101
f 27/27/27 125/125/125 133/133/133
f 101/101/101 35/35/35 46/46/46
f 62/62/62 123/123/123 136/136/136
f 146/146/146 61/61/61 154/154/154
f 66/66/66 134/134/134 137/137/137
f 17/17/17 126/126/126 135/135/135
f 79/79/79 133/133/133 118/118/118
f 67/67/67 88/88/88 86/86/86
f 34/34/34 104/104/104 110/110/110
f 120/120/120 163/163/163 32/32/32
f 134/134/134 31/31/31 137/137/137
f 77/77/77 118/118/118 14/14/14
f 60/60/60 153/153/153 164/164/164
f 18/18/18 92/92/92 129/129/129
f 56/56/56 88/88/88 99/99/99
f 14/14/14 133/133/133 78/78/78
f 12/12/12 114/114/114 116/116/116
f 154/154/154 13/13/13 127/127/127
f 45/45/45 129/129/129 92/92/92
f 121/121/121 28/28/28 80/80/80
f 28/28/28 105/105/105 80/80/80
f 94/94/94 50/50/50 69/69/69
f 109/109/109 53/53/53 156/156/156
f 140/140/140 28/28/28 146/146/146
f 147/147/147 151/151/151 152/152/152
f 130/130/130 122/122/122 166/166/166
f 123/123/123 120/120/120 32/32/32
f 122/122/122 23/23/23 40/40/40
f 13/13/13 175/175/175 131/131/131
f 175/175/175 79/79/79 131/131/131
f 23/23/23 148/148/148 11/11/11
f 148/148/148 159/159/159 34/34/34
f 44/44/44 103/103/103 135/135/135
f 44/44/44 177/177/177 127/127/127
f 177/177/177 26/26/26 127/127/127
f 26/26/26 177/177/177 126/126/126
f 177/177/177 44/44/44 126/126/126
