# frame 000629 
# time 0.315000 
# name Cloth3D 
v -0.000000 0.000000 -0.000000
v 1.000000 0.000000 -0.000000
v -0.000000 1.000000 0.000000
v 1.000000 1.000000 0.000000
v 0.501212 0.500929 0.119657
v -0.000000 0.500000 0.000000
v 0.500000 1.000000 0.000000
v 1.000000 0.500000 0.000000
v 0.500000 -0.000000 0.000000
v 0.246446 0.754511 0.064580
v 0.757260 0.757504 0.078106
v 0.246929 0.246308 0.066542
v 0.757804 0.243639 0.073852
v 0.750000 0.000000 0.000000
v 0.250000 0.000000 0.000000
v 1.000000 0.750000 0.000000
v 1.000000 0.250000 0.000000
v 0.250000 1.000000 0.000000
v 0.750000 1.000000 0.000000
v 0.000000 0.250000 0.000000
v 0.000000 0.750000 -0.000000
v 0.363279 0.215178 0.080251
v 0.632734 0.775043 0.080493
v 1.000000 0.937500 0.000000
v 0.813946 0.248621 0.042328
v 0.874994 0.375157 0.036425
v 0.626257 0.122672 0.043101
v 0.633828 0.369125 0.119967
v 0.873564 0.126429 -0.001662
v 0.374798 0.123430 0.042022
v 0.126377 0.125859 0.004929
v 0.493317 0.247418 0.088490
v 0.878492 0.626831 0.047456
v 0.632125 0.633137 0.119916
v 0.874818 0.874071 0.008817
v 0.374352 0.877661 0.043503
v 0.258605 0.603269 0.088519
v 0.127161 0.873236 -0.004908
v 0.124870 0.625225 0.036323
v 0.625142 0.872815 0.031089
v 0.123819 0.374333 0.040055
v 0.249359 0.122915 0.033585
v 0.875571 0.749270 0.027601
v 0.874186 0.250587 0.020956
v 0.250512 0.875017 0.023126
v 0.749934 0.873105 0.019648
v 0.125793 0.250149 0.023843
v 0.126157 0.749515 0.020253
v 0.719206 0.617278 0.119941
v 0.126163 0.936869 -0.007139
v 0.552570 0.709906 0.119929
v 0.876330 0.500869 0.044376
v 0.424306 0.709356 0.119938
v 0.245518 0.454256 0.085060
v 0.000000 0.375000 0.000000
v 0.499690 0.875647 0.041949
v 0.500318 0.631980 0.119865
v 0.246215 0.371501 0.086462
v 0.125624 0.499659 0.037437
v 0.370177 0.500590 0.119842
v 0.631269 0.244991 0.089541
v 0.500527 0.125053 0.040188
v 0.501694 0.370019 0.119994
v 0.000000 0.625000 0.000000
v 0.000000 0.875000 0.000000
v 0.000000 0.125000 0.000000
v 0.625000 1.000000 0.000000
v 0.875000 1.000000 0.000000
v 0.125000 1.000000 0.000000
v 0.375000 1.000000 0.000000
v 1.000000 0.375000 0.000000
v 1.000000 0.125000 0.000000
v 1.000000 0.875000 0.000000
v 1.000000 0.625000 0.000000
v 0.375000 0.000000 0.000000
v 0.125000 0.000000 0.000000
v 0.875000 0.000000 0.000000
v 0.625000 0.000000 0.000000
v 0.750210 0.124879 0.024148
v 0.632202 0.501059 0.119908
v 0.719866 0.489063 0.119929
v 0.062620 0.312609 0.015566
v 0.186395 0.436404 0.061779
v 0.184750 0.310296 0.058175
v 0.062392 0.437342 0.019515
v 0.687062 0.935717 0.009420
v 0.689964 0.813983 0.054063
v 0.562433 0.937001 0.018457
v 0.062984 0.687125 0.013487
v 0.187161 0.689051 0.049230
v 0.062725 0.562310 0.018455
v 0.188361 0.936650 0.001819
v 0.188647 0.811778 0.022355
v 0.063266 0.936958 -0.003417
v 0.435152 0.566326 0.119787
v 0.874774 0.811493 0.016346
v 0.186084 0.751867 0.042217
v 0.310744 0.815529 0.056882
v 0.437478 0.938684 0.022707
v 0.937219 0.811836 0.007602
v 0.813885 0.812846 0.032811
v 0.937288 0.937119 0.000014
v 0.873758 0.188615 0.009280
v 0.566491 0.566838 0.119722
v 0.720136 0.424374 0.119929
v 0.824371 0.594371 0.070861
v 0.818887 0.691921 0.069214
v 0.937205 0.563065 0.019360
v 0.489198 0.709618 0.119934
v 0.692157 0.589644 0.119939
v 0.435864 0.435253 0.119721
v 0.187998 0.062635 0.007761
v 0.063017 0.062967 -0.005380
v 0.187039 0.186348 0.033373
v 0.312580 0.061218 0.020482
v 0.310834 0.183630 0.061086
v 0.437762 0.061536 0.022687
v 0.811550 0.063464 0.000016
v 0.937110 0.062868 -0.007259
v 0.557847 0.244226 0.089952
v 0.567299 0.435190 0.119936
v 0.525191 0.805801 0.067061
v 0.564681 0.184284 0.068204
v 0.691389 0.183529 0.060088
v 0.562792 0.062675 0.018785
v 0.936540 0.313116 0.012121
v 0.815427 0.310489 0.056596
v 0.937153 0.437952 0.018535
v 0.312930 0.937532 0.014901
v 0.476590 0.767360 0.089374
v 0.812464 0.187628 0.025262
v 0.805129 0.370478 0.070175
v 0.687760 0.061230 0.019540
v 0.063313 0.125580 -0.000254
v 0.936455 0.188434 0.000500
v 0.437261 0.185679 0.064892
v 0.063808 0.188344 0.001663
v 0.382777 0.772832 0.088192
v 0.940350 0.687833 0.024203
v 0.188638 0.874092 0.010503
v 0.063665 0.811669 0.001178
v 0.811971 0.936121 0.001415
v 0.187550 0.563115 0.057849
v 0.774570 0.655600 0.094105
v 0.319593 0.662534 0.119929
v 0.720779 0.310900 0.119942
v 0.320987 0.309218 0.119942
v 0.719015 0.710782 0.119942
v 0.319218 0.709013 0.119942
v 0.487601 0.310086 0.119929
v 0.320675 0.405251 0.119938
v 0.291284 0.325580 0.103638
v 0.319862 0.598144 0.119929
v 0.726702 0.290551 0.109822
v 0.937017 0.874208 -0.000291
v 0.432922 0.641941 0.119784
v 0.276217 0.663094 0.095393
v 0.719338 0.553646 0.119941
v 0.617478 0.710179 0.119929
v 0.320427 0.469765 0.119935
v 0.421446 0.309810 0.119929
v 0.874647 0.312563 0.030138
v 0.551374 0.310353 0.119929
v 0.320135 0.533224 0.119929
v 0.416747 0.251990 0.093670
v 0.424074 0.818845 0.067234
v 0.816330 0.482112 0.069916
v 1.000000 0.062500 -0.000000
v 0.370905 0.414463 0.119884
v 0.773489 0.423024 0.089618
v 0.244164 0.515806 0.081357
v 0.617074 0.310594 0.119936
v 1.000000 0.812500 0.000000
v 0.062500 0.000000 -0.000000
v 0.752702 0.185460 0.045076
vt 0.000000 0.000000
vt 1.000000 0.000000
vt 0.000000 1.000000
vt 1.000000 1.000000
vt 0.500000 0.500000
vt 0.000000 0.500000
vt 0.500000 1.000000
vt 1.000000 0.500000
vt 0.500000 0.000000
vt 0.250000 0.750000
vt 0.750000 0.750000
vt 0.250000 0.250000
vt 0.750000 0.250000
vt 0.750000 0.000000
vt 0.250000 0.000000
vt 1.000000 0.750000
vt 1.000000 0.250000
vt 0.250000 1.000000
vt 0.750000 1.000000
vt 0.000000 0.250000
vt 0.000000 0.750000
vt 0.365347 0.220303
vt 0.629073 0.770824
vt 1.000000 0.937500
vt 0.812500 0.250000
vt 0.875000 0.375000
vt 0.625000 0.125000
vt 0.625000 0.375000
vt 0.875000 0.125000
vt 0.375000 0.125000
vt 0.125000 0.125000
vt 0.492214 0.250470
vt 0.875000 0.625000
vt 0.625000 0.625000
vt 0.875000 0.875000
vt 0.375000 0.875000
vt 0.262101 0.599801
vt 0.125000 0.875000
vt 0.125000 0.625000
vt 0.625000 0.875000
vt 0.125000 0.375000
vt 0.250000 0.125000
vt 0.875000 0.750000
vt 0.875000 0.250000
vt 0.250000 0.875000
vt 0.750000 0.875000
vt 0.125000 0.250000
vt 0.125000 0.750000
vt 0.708160 0.610007
vt 0.125000 0.937500
vt 0.550127 0.699265
vt 0.875000 0.500000
vt 0.428273 0.699054
vt 0.248222 0.455442
vt 0.000000 0.375000
vt 0.500000 0.875000
vt 0.500000 0.625000
vt 0.250000 0.375000
vt 0.125000 0.500000
vt 0.375000 0.500000
vt 0.625000 0.250000
vt 0.500000 0.125000
vt 0.500000 0.375000
vt 0.000000 0.625000
vt 0.000000 0.875000
vt 0.000000 0.125000
vt 0.625000 1.000000
vt 0.875000 1.000000
vt 0.125000 1.000000
vt 0.375000 1.000000
vt 1.000000 0.375000
vt 1.000000 0.125000
vt 1.000000 0.875000
vt 1.000000 0.625000
vt 0.375000 0.000000
vt 0.125000 0.000000
vt 0.875000 0.000000
vt 0.625000 0.000000
vt 0.750000 0.125000
vt 0.625000 0.500000
vt 0.708754 0.488378
vt 0.062500 0.312500
vt 0.187500 0.437500
vt 0.187500 0.312500
vt 0.062500 0.437500
vt 0.687500 0.937500
vt 0.687500 0.812500
vt 0.562500 0.937500
vt 0.062500 0.687500
vt 0.187500 0.687500
vt 0.062500 0.562500
vt 0.187500 0.937500
vt 0.187500 0.812500
vt 0.062500 0.937500
vt 0.437500 0.562500
vt 0.875000 0.812500
vt 0.187500 0.750000
vt 0.312500 0.812500
vt 0.437500 0.937500
vt 0.937500 0.812500
vt 0.812500 0.812500
vt 0.937500 0.937500
vt 0.875000 0.187500
vt 0.562500 0.562500
vt 0.708055 0.427234
vt 0.819332 0.591237
vt 0.812500 0.687500
vt 0.937500 0.562500
vt 0.489805 0.699331
vt 0.682510 0.583771
vt 0.437500 0.437500
vt 0.187500 0.062500
vt 0.062500 0.062500
vt 0.187500 0.187500
vt 0.312500 0.062500
vt 0.312500 0.187500
vt 0.437500 0.062500
vt 0.812500 0.062500
vt 0.937500 0.062500
vt 0.554454 0.248535
vt 0.562500 0.437500
vt 0.525016 0.804189
vt 0.562500 0.187500
vt 0.687500 0.187500
vt 0.562500 0.062500
vt 0.937500 0.312500
vt 0.812500 0.312500
vt 0.937500 0.437500
vt 0.312500 0.937500
vt 0.477574 0.762067
vt 0.812500 0.187500
vt 0.800716 0.372483
vt 0.687500 0.062500
vt 0.062500 0.125000
vt 0.937500 0.187500
vt 0.437500 0.187500
vt 0.062500 0.187500
vt 0.386728 0.766561
vt 0.937500 0.687500
vt 0.187500 0.875000
vt 0.062500 0.812500
vt 0.812500 0.937500
vt 0.187500 0.562500
vt 0.765906 0.648544
vt 0.329208 0.654020
vt 0.706082 0.321234
vt 0.329482 0.318714
vt 0.706466 0.696459
vt 0.330128 0.697235
vt 0.486652 0.317610
vt 0.327605 0.409020
vt 0.296906 0.332149
vt 0.327919 0.593190
vt 0.713437 0.300753
vt 0.937500 0.875000
vt 0.436137 0.634590
vt 0.281585 0.657008
vt 0.708695 0.549753
vt 0.611780 0.698540
vt 0.327267 0.470647
vt 0.423921 0.317698
vt 0.875000 0.312500
vt 0.547220 0.318077
vt 0.327376 0.531356
vt 0.418341 0.256674
vt 0.425703 0.815414
vt 0.812755 0.481587
vt 1.000000 0.062500
vt 0.375653 0.417988
vt 0.766844 0.424637
vt 0.245672 0.515386
vt 0.609348 0.318854
vt 1.000000 0.812500
vt 0.062500 0.000000
vt 0.750000 0.187500
vn 0.026379 0.052758 0.998259
vn -0.077302 0.038651 0.996258
vn 0.026387 -0.026387 0.999303
vn -0.000697 -0.000348 1.000000
vn -0.000393 0.000550 1.000000
vn -0.292346 0.004153 0.956304
vn 0.016919 0.311813 0.949993
vn 0.287931 -0.003868 0.957643
vn 0.016165 -0.310799 0.950338
vn -0.363880 0.267362 0.892249
vn 0.285945 0.443101 0.849645
vn -0.294366 -0.261304 0.919276
vn 0.393416 -0.355651 0.847783
vn 0.078639 -0.155550 0.984693
vn -0.050198 -0.226505 0.972716
vn 0.208667 0.054602 0.976461
vn 0.101162 -0.045715 0.993819
vn -0.050795 0.133089 0.989802
vn 0.030448 0.081837 0.996181
vn -0.132773 -0.053489 0.989702
vn -0.114881 0.048500 0.992195
vn -0.043000 -0.377176 0.925143
vn 0.044174 0.493662 0.868531
vn -0.003360 -0.002320 0.999992
vn 0.408514 -0.237987 0.881180
vn 0.370615 -0.079211 0.925403
vn 0.042222 -0.344505 0.937835
vn 0.000072 -0.000119 1.000000
vn 0.133011 -0.128436 0.982757
vn -0.029200 -0.338400 0.940549
vn -0.151594 -0.112163 0.982058
vn -0.002184 -0.401627 0.915801
vn 0.382362 -0.010003 0.923958
vn -0.000543 -0.000735 1.000000
vn 0.129344 0.120232 0.984284
vn -0.072542 0.352229 0.933098
vn -0.438567 0.022418 0.898419
vn -0.115169 0.104735 0.987809
vn -0.290499 0.059915 0.954998
vn 0.075880 0.346862 0.934842
vn -0.330703 -0.028298 0.943311
vn -0.151577 -0.258672 0.953999
vn 0.268959 0.222176 0.937176
vn 0.278495 -0.174047 0.944536
vn -0.193574 0.226392 0.954608
vn 0.099295 0.296492 0.949859
vn -0.288338 -0.148523 0.945940
vn -0.267338 0.166382 0.949130
vn 0.149676 0.000011 0.988735
vn -0.044086 -0.036256 0.998370
vn 0.004214 0.250701 0.968055
vn 0.392261 -0.036861 0.919115
vn 0.004337 0.236096 0.971720
vn -0.397575 0.030750 0.917054
vn -0.287197 -0.016383 0.957731
vn 0.060109 0.338352 0.939098
vn -0.000590 -0.001027 0.999999
vn -0.383565 -0.022609 0.923237
vn -0.314562 0.024214 0.948928
vn 0.001663 0.000083 0.999999
vn 0.016485 -0.403752 0.914720
vn 0.010167 -0.352823 0.935635
vn -0.000641 0.000292 1.000000
vn -0.247448 0.019598 0.968703
vn 0.016600 0.018304 0.999695
vn 0.009201 -0.036155 0.999304
vn 0.036302 0.211297 0.976747
vn 0.005837 0.010551 0.999927
vn -0.027979 -0.075718 0.996737
vn -0.028909 0.310641 0.950087
vn 0.235988 -0.023490 0.971472
vn -0.065390 -0.025502 0.997534
vn 0.021067 0.031622 0.999278
vn 0.337641 -0.023147 0.940990
vn -0.006683 -0.334536 0.942359
vn -0.041682 -0.003286 0.999126
vn 0.029489 0.057549 0.997907
vn -0.005811 -0.296298 0.955078
vn 0.210983 -0.276581 0.937544
vn -0.000926 0.000641 0.999999
vn 0.237605 -0.003790 0.971354
vn -0.265637 -0.076835 0.961006
vn -0.356141 0.026290 0.934062
vn -0.347629 -0.138454 0.927353
vn -0.304100 0.009131 0.952596
vn 0.056762 0.194672 0.979225
vn 0.103185 0.453304 0.885363
vn 0.048918 0.277494 0.959481
vn -0.221406 0.066159 0.972935
vn -0.356670 0.103645 0.928463
vn -0.284624 0.014044 0.958536
vn -0.139574 0.068894 0.987812
vn -0.269625 0.249481 0.930087
vn 0.040177 -0.017548 0.999038
vn 0.000620 -0.000494 1.000000
vn 0.197626 0.148866 0.968908
vn -0.343949 0.202737 0.916841
vn -0.204049 0.382550 0.901121
vn 0.011315 0.336007 0.941791
vn 0.120578 0.094071 0.988237
vn 0.233702 0.273593 0.933022
vn 0.025029 0.006072 0.999668
vn 0.190163 -0.181271 0.964872
vn -0.000878 -0.000817 0.999999
vn 0.313732 0.000786 0.949511
vn 0.414161 -0.001993 0.910201
vn 0.419989 0.138015 0.896973
vn 0.350434 -0.021693 0.936336
vn -0.000555 0.249815 0.968293
vn -0.000320 -0.000035 1.000000
vn 0.000688 0.001086 0.999999
vn -0.108577 -0.156116 0.981753
vn -0.018453 -0.007314 0.999803
vn -0.256318 -0.198469 0.945998
vn -0.043836 -0.296211 0.954116
vn -0.139607 -0.321289 0.936634
vn 0.013113 -0.324520 0.945788
vn 0.105531 -0.086584 0.990639
vn -0.037253 0.013509 0.999215
vn -0.019402 -0.380551 0.924556
vn -0.000855 0.001505 0.999999
vn 0.045023 0.427252 0.903011
vn -0.005158 -0.364715 0.931105
vn 0.153322 -0.399323 0.903899
vn -0.005890 -0.318961 0.947750
vn 0.237539 -0.074524 0.968515
vn 0.453187 -0.157293 0.877428
vn 0.308680 -0.029220 0.950717
vn -0.092285 0.268872 0.958745
vn 0.022697 0.455583 0.889904
vn 0.303862 -0.266874 0.914574
vn 0.478254 -0.069193 0.875491
vn 0.075215 -0.261755 0.962199
vn -0.043208 -0.053930 0.997609
vn 0.087476 -0.104388 0.990682
vn 0.023440 -0.369832 0.928803
vn -0.111079 -0.062504 0.991844
vn -0.022595 0.435216 0.900043
vn 0.327787 0.071648 0.942031
vn -0.220591 0.158821 0.962349
vn -0.061909 0.083330 0.994597
vn 0.039412 0.108487 0.993316
vn -0.355292 0.026588 0.934377
vn 0.443511 0.020711 0.896030
vn -0.342096 -0.001561 0.939664
vn 0.262960 -0.271412 0.925844
vn -0.353930 -0.125525 0.926810
vn 0.243543 0.265022 0.932979
vn -0.294222 0.141853 0.945151
vn 0.004870 -0.215445 0.976504
vn -0.182646 -0.003764 0.983171
vn -0.464676 -0.058822 0.883525
vn -0.295523 0.005630 0.955319
vn 0.303658 -0.349628 0.886314
vn 0.067257 0.060495 0.995900
vn -0.000178 -0.000954 1.000000
vn -0.482112 0.038402 0.875268
vn 0.146751 -0.002168 0.989171
vn -0.000693 0.271932 0.962316
vn -0.177894 0.003482 0.984044
vn 0.000550 -0.251140 0.967951
vn 0.343968 -0.114971 0.931916
vn -0.005605 -0.237271 0.971427
vn -0.216172 -0.000062 0.976355
vn 0.026602 -0.398631 0.916726
vn 0.028170 0.389878 0.920436
vn 0.430830 -0.040855 0.901508
vn -0.115598 -0.000000 0.993296
vn 0.001471 0.000450 0.999999
vn 0.479777 -0.020531 0.877150
vn -0.405768 0.020299 0.913751
vn 0.001135 -0.205324 0.978693
vn 0.116601 0.000000 0.993179
vn -0.000000 0.079048 0.996871
vn 0.266011 -0.386681 0.883015
f 56/56/56 99/99/99 166/166/166
f 112/112/112 31/31/31 113/113/113
f 170/170/170 132/132/132 167/167/167
f 26/26/26 167/167/167 132/132/132
f 41/41/41 83/83/83 85/85/85
f 160/160/160 54/54/54 151/151/151
f 83/83/83 41/41/41 58/58/58
f 36/36/36 166/166/166 99/99/99
f 84/84/84 47/47/47 12/12/12
f 72/72/72 17/17/17 135/135/135
f 127/127/127 25/25/25 44/44/44
f 80/80/80 110/110/110 104/104/104
f 115/115/115 112/112/112 15/15/15
f 163/163/163 172/172/172 28/28/28
f 140/140/140 45/45/45 92/92/92
f 76/76/76 112/112/112 113/113/113
f 58/58/58 151/151/151 54/54/54
f 15/15/15 112/112/112 76/76/76
f 115/115/115 15/15/15 75/75/75
f 82/82/82 41/41/41 55/55/55
f 88/88/88 56/56/56 40/40/40
f 25/25/25 127/127/127 13/13/13
f 22/22/22 30/30/30 136/136/136
f 85/85/85 55/55/55 41/41/41
f 47/47/47 84/84/84 82/82/82
f 165/165/165 22/22/22 136/136/136
f 21/21/21 64/64/64 89/89/89
f 83/83/83 58/58/58 54/54/54
f 57/57/57 95/95/95 104/104/104
f 116/116/116 30/30/30 22/22/22
f 42/42/42 112/112/112 115/115/115
f 26/26/26 162/162/162 126/126/126
f 165/165/165 147/147/147 22/22/22
f 155/155/155 100/100/100 73/73/73
f 129/129/129 70/70/70 18/18/18
f 63/63/63 28/28/28 121/121/121
f 162/162/162 26/26/26 127/127/127
f 114/114/114 31/31/31 42/42/42
f 150/150/150 165/165/165 32/32/32
f 37/37/37 153/153/153 157/157/157
f 164/164/164 153/153/153 37/37/37
f 149/149/149 138/138/138 98/98/98
f 61/61/61 172/172/172 120/120/120
f 139/139/139 16/16/16 43/43/43
f 32/32/32 165/165/165 136/136/136
f 143/143/143 39/39/39 59/59/59
f 51/51/51 159/159/159 23/23/23
f 142/142/142 46/46/46 35/35/35
f 78/78/78 125/125/125 9/9/9
f 121/121/121 80/80/80 5/5/5
f 60/60/60 95/95/95 153/153/153
f 144/144/144 107/107/107 148/148/148
f 97/97/97 10/10/10 93/93/93
f 130/130/130 53/53/53 109/109/109
f 44/44/44 162/162/162 127/127/127
f 64/64/64 91/91/91 89/89/89
f 60/60/60 169/169/169 111/111/111
f 50/50/50 92/92/92 69/69/69
f 63/63/63 161/161/161 150/150/150
f 131/131/131 25/25/25 13/13/13
f 81/81/81 170/170/170 167/167/167
f 45/45/45 140/140/140 93/93/93
f 84/84/84 152/152/152 58/58/58
f 51/51/51 109/109/109 57/57/57
f 34/34/34 159/159/159 51/51/51
f 11/11/11 148/148/148 107/107/107
f 5/5/5 104/104/104 95/95/95
f 23/23/23 87/87/87 40/40/40
f 38/38/38 94/94/94 141/141/141
f 29/29/29 119/119/119 135/135/135
f 72/72/72 135/135/135 119/119/119
f 84/84/84 12/12/12 152/152/152
f 100/100/100 43/43/43 16/16/16
f 13/13/13 154/154/154 124/124/124
f 14/14/14 118/118/118 133/133/133
f 56/56/56 122/122/122 40/40/40
f 65/65/65 141/141/141 94/94/94
f 20/20/20 66/66/66 137/137/137
f 55/55/55 20/20/20 82/82/82
f 59/59/59 91/91/91 85/85/85
f 65/65/65 21/21/21 141/141/141
f 6/6/6 85/85/85 91/91/91
f 114/114/114 12/12/12 47/47/47
f 173/173/173 73/73/73 100/100/100
f 3/3/3 65/65/65 94/94/94
f 141/141/141 48/48/48 38/38/38
f 92/92/92 18/18/18 69/69/69
f 124/124/124 154/154/154 61/61/61
f 4/4/4 68/68/68 102/102/102
f 167/167/167 106/106/106 158/158/158
f 103/103/103 29/29/29 135/135/135
f 106/106/106 167/167/167 52/52/52
f 157/157/157 90/90/90 37/37/37
f 44/44/44 103/103/103 135/135/135
f 101/101/101 11/11/11 43/43/43
f 81/81/81 167/167/167 158/158/158
f 58/58/58 152/152/152 151/151/151
f 164/164/164 171/171/171 160/160/160
f 155/155/155 35/35/35 100/100/100
f 156/156/156 145/145/145 153/153/153
f 23/23/23 148/148/148 11/11/11
f 116/116/116 22/22/22 12/12/12
f 118/118/118 29/29/29 79/79/79
f 40/40/40 86/86/86 88/88/88
f 149/149/149 98/98/98 10/10/10
f 131/131/131 79/79/79 29/29/29
f 26/26/26 128/128/128 52/52/52
f 23/23/23 11/11/11 87/87/87
f 154/154/154 127/127/127 146/146/146
f 145/145/145 53/53/53 149/149/149
f 16/16/16 173/173/173 100/100/100
f 169/169/169 151/151/151 147/147/147
f 168/168/168 72/72/72 119/119/119
f 169/169/169 60/60/60 160/160/160
f 45/45/45 98/98/98 129/129/129
f 36/36/36 129/129/129 98/98/98
f 164/164/164 160/160/160 60/60/60
f 122/122/122 130/130/130 51/51/51
f 163/163/163 120/120/120 172/172/172
f 169/169/169 147/147/147 161/161/161
f 25/25/25 131/131/131 44/44/44
f 96/96/96 100/100/100 35/35/35
f 1/1/1 174/174/174 113/113/113
f 140/140/140 38/38/38 93/93/93
f 48/48/48 141/141/141 89/89/89
f 21/21/21 89/89/89 141/141/141
f 49/49/49 144/144/144 148/148/148
f 109/109/109 51/51/51 130/130/130
f 6/6/6 91/91/91 64/64/64
f 63/63/63 111/111/111 161/161/161
f 32/32/32 136/136/136 123/123/123
f 6/6/6 55/55/55 85/85/85
f 117/117/117 9/9/9 62/62/62
f 155/155/155 102/102/102 35/35/35
f 143/143/143 90/90/90 39/39/39
f 83/83/83 171/171/171 59/59/59
f 110/110/110 49/49/49 34/34/34
f 160/160/160 151/151/151 169/169/169
f 107/107/107 144/144/144 106/106/106
f 111/111/111 169/169/169 161/161/161
f 87/87/87 46/46/46 40/40/40
f 144/144/144 49/49/49 106/106/106
f 111/111/111 63/63/63 5/5/5
f 150/150/150 161/161/161 165/165/165
f 125/125/125 27/27/27 62/62/62
f 84/84/84 58/58/58 41/41/41
f 37/37/37 90/90/90 143/143/143
f 37/37/37 143/143/143 171/171/171
f 132/132/132 146/146/146 127/127/127
f 157/157/157 10/10/10 90/90/90
f 73/73/73 24/24/24 155/155/155
f 49/49/49 158/158/158 106/106/106
f 145/145/145 157/157/157 153/153/153
f 34/34/34 51/51/51 57/57/57
f 119/119/119 29/29/29 118/118/118
f 90/90/90 48/48/48 39/39/39
f 105/105/105 170/170/170 81/81/81
f 110/110/110 80/80/80 158/158/158
f 156/156/156 57/57/57 109/109/109
f 156/156/156 53/53/53 145/145/145
f 42/42/42 116/116/116 114/114/114
f 102/102/102 155/155/155 24/24/24
f 123/123/123 62/62/62 27/27/27
f 5/5/5 95/95/95 111/111/111
f 95/95/95 57/57/57 156/156/156
f 163/163/163 150/150/150 32/32/32
f 60/60/60 111/111/111 95/95/95
f 133/133/133 79/79/79 27/27/27
f 124/124/124 27/27/27 79/79/79
f 146/146/146 172/172/172 61/61/61
f 34/34/34 57/57/57 104/104/104
f 145/145/145 149/149/149 157/157/157
f 9/9/9 117/117/117 75/75/75
f 78/78/78 133/133/133 125/125/125
f 148/148/148 34/34/34 49/49/49
f 95/95/95 156/156/156 153/153/153
f 30/30/30 115/115/115 117/117/117
f 10/10/10 98/98/98 93/93/93
f 83/83/83 54/54/54 171/171/171
f 96/96/96 43/43/43 100/100/100
f 37/37/37 171/171/171 164/164/164
f 77/77/77 119/119/119 118/118/118
f 94/94/94 69/69/69 3/3/3
f 45/45/45 93/93/93 98/98/98
f 91/91/91 59/59/59 39/39/39
f 75/75/75 117/117/117 115/115/115
f 138/138/138 149/149/149 53/53/53
f 112/112/112 42/42/42 31/31/31
f 63/63/63 163/163/163 28/28/28
f 163/163/163 63/63/63 150/150/150
f 167/167/167 26/26/26 52/52/52
f 162/162/162 44/44/44 126/126/126
f 99/99/99 70/70/70 36/36/36
f 62/62/62 136/136/136 117/117/117
f 80/80/80 104/104/104 5/5/5
f 27/27/27 124/124/124 123/123/123
f 148/148/148 23/23/23 159/159/159
f 53/53/53 130/130/130 138/138/138
f 120/120/120 123/123/123 61/61/61
f 43/43/43 107/107/107 139/139/139
f 81/81/81 158/158/158 80/80/80
f 61/61/61 123/123/123 124/124/124
f 33/33/33 52/52/52 108/108/108
f 166/166/166 36/36/36 138/138/138
f 139/139/139 33/33/33 108/108/108
f 132/132/132 170/170/170 146/146/146
f 33/33/33 106/106/106 52/52/52
f 175/175/175 13/13/13 124/124/124
f 98/98/98 138/138/138 36/36/36
f 29/29/29 103/103/103 131/131/131
f 107/107/107 106/106/106 33/33/33
f 105/105/105 146/146/146 170/170/170
f 158/158/158 49/49/49 110/110/110
f 46/46/46 87/87/87 101/101/101
f 89/89/89 39/39/39 48/48/48
f 166/166/166 138/138/138 130/130/130
f 38/38/38 140/140/140 92/92/92
f 148/148/148 159/159/159 34/34/34
f 149/149/149 10/10/10 157/157/157
f 54/54/54 160/160/160 171/171/171
f 30/30/30 117/117/117 136/136/136
f 147/147/147 12/12/12 22/22/22
f 116/116/116 42/42/42 30/30/30
f 74/74/74 139/139/139 108/108/108
f 103/103/103 44/44/44 131/131/131
f 7/7/7 70/70/70 99/99/99
f 115/115/115 30/30/30 42/42/42
f 47/47/47 82/82/82 137/137/137
f 68/68/68 142/142/142 102/102/102
f 19/19/19 86/86/86 142/142/142
f 142/142/142 35/35/35 102/102/102
f 92/92/92 50/50/50 38/38/38
f 31/31/31 134/134/134 113/113/113
f 46/46/46 142/142/142 86/86/86
f 107/107/107 43/43/43 11/11/11
f 56/56/56 166/166/166 122/122/122
f 11/11/11 101/101/101 87/87/87
f 129/129/129 36/36/36 70/70/70
f 105/105/105 81/81/81 80/80/80
f 41/41/41 82/82/82 84/84/84
f 59/59/59 85/85/85 83/83/83
f 122/122/122 51/51/51 23/23/23
f 66/66/66 1/1/1 113/113/113
f 113/113/113 134/134/134 66/66/66
f 2/2/2 168/168/168 119/119/119
f 152/152/152 12/12/12 147/147/147
f 47/47/47 137/137/137 114/114/114
f 31/31/31 114/114/114 137/137/137
f 67/67/67 7/7/7 88/88/88
f 19/19/19 67/67/67 86/86/86
f 68/68/68 19/19/19 142/142/142
f 20/20/20 137/137/137 82/82/82
f 125/125/125 62/62/62 9/9/9
f 24/24/24 4/4/4 102/102/102
f 143/143/143 59/59/59 171/171/171
f 93/93/93 38/38/38 48/48/48
f 74/74/74 16/16/16 139/139/139
f 8/8/8 74/74/74 108/108/108
f 33/33/33 139/139/139 107/107/107
f 8/8/8 108/108/108 128/128/128
f 86/86/86 40/40/40 46/46/46
f 146/146/146 28/28/28 172/172/172
f 96/96/96 35/35/35 101/101/101
f 121/121/121 5/5/5 63/63/63
f 52/52/52 128/128/128 108/108/108
f 128/128/128 71/71/71 8/8/8
f 79/79/79 175/175/175 124/124/124
f 50/50/50 94/94/94 38/38/38
f 126/126/126 17/17/17 71/71/71
f 48/48/48 97/97/97 93/93/93
f 26/26/26 126/126/126 128/128/128
f 39/39/39 89/89/89 91/91/91
f 71/71/71 128/128/128 126/126/126
f 132/132/132 127/127/127 26/26/26
f 44/44/44 135/135/135 126/126/126
f 174/174/174 76/76/76 113/113/113
f 7/7/7 99/99/99 88/88/88
f 43/43/43 96/96/96 101/101/101
f 27/27/27 125/125/125 133/133/133
f 101/101/101 35/35/35 46/46/46
f 62/62/62 123/123/123 136/136/136
f 146/146/146 61/61/61 154/154/154
f 66/66/66 134/134/134 137/137/137
f 17/17/17 126/126/126 135/135/135
f 79/79/79 133/133/133 118/118/118
f 67/67/67 88/88/88 86/86/86
f 34/34/34 104/104/104 110/110/110
f 120/120/120 163/163/163 32/32/32
f 134/134/134 31/31/31 137/137/137
f 77/77/77 118/118/118 14/14/14
f 60/60/60 153/153/153 164/164/164
f 18/18/18 92/92/92 129/129/129
f 56/56/56 88/88/88 99/99/99
f 14/14/14 133/133/133 78/78/78
f 12/12/12 114/114/114 116/116/116
f 154/154/154 13/13/13 127/127/127
f 45/45/45 129/129/129 92/92/92
f 121/121/121 28/28/28 80/80/80
f 28/28/28 105/105/105 80/80/80
f 94/94/94 50/50/50 69/69/69
f 109/109/109 53/53/53 156/156/156
f 147/147/147 165/165/165 161/161/161
f 147/147/147 151/151/151 152/152/152
f 130/130/130 122/122/122 166/166/166
f 123/123/123 120/120/120 32/32/32
f 122/122/122 23/23/23 40/40/40
f 13/13/13 175/175/175 131/131/131
f 175/175/175 79/79/79 131/131/131
f 105/105/105 28/28/28 146/146/146
f 10/10/10 97/97/97 90/90/90
f 97/97/97 48/48/48 90/90/90
f 2/2/2 119/119/119 77/77/77
