# frame 000692 
# time 0.346500 
# name Cloth3D 
v -0.000000 0.000000 -0.000000
v 1.000000 0.000000 -0.000000
v -0.000000 1.000000 0.000000
v 1.000000 1.000000 0.000000
v 0.498275 0.497153 0.120936
v -0.000000 0.500000 0.000000
v 0.500000 1.000000 0.000000
v 1.000000 0.500000 0.000000
v 0.500000 -0.000000 0.000000
v 0.245352 0.754644 0.070693
v 0.755867 0.757515 0.088237
v 0.246824 0.247733 0.061022
v 0.755097 0.245081 0.081397
v 0.750000 0.000000 0.000000
v 0.250000 0.000000 0.000000
v 1.000000 0.750000 0.000000
v 1.000000 0.250000 0.000000
v 0.250000 1.000000 0.000000
v 0.750000 1.000000 0.000000
v 0.000000 0.250000 0.000000
v 0.000000 0.750000 -0.000000
v 0.361683 0.215978 0.076372
v 0.632213 0.780307 0.097500
v 0.240388 0.514738 0.087884
v 0.817610 0.246338 0.065115
v 0.879564 0.373255 0.055306
v 0.625250 0.123152 0.044657
v 0.629979 0.366956 0.128523
v 0.876386 0.123466 0.025469
v 0.374174 0.123607 0.039663
v 0.125258 0.125806 0.010213
v 0.490406 0.245940 0.093025
v 0.877826 0.625985 0.049860
v 0.628907 0.628564 0.117361
v 0.876678 0.877368 0.027633
v 0.374186 0.878816 0.046897
v 0.256350 0.602009 0.091524
v 0.125138 0.874828 0.011538
v 0.123538 0.625160 0.038969
v 0.626452 0.884019 0.062184
v 0.124667 0.374109 0.036232
v 0.250081 0.125724 0.022404
v 0.878635 0.752588 0.046099
v 0.879816 0.247672 0.048055
v 0.248783 0.877180 0.034605
v 0.752912 0.883052 0.055863
v 0.122725 0.249053 0.032947
v 0.123255 0.750730 0.032441
v 0.319708 0.595853 0.115238
v 0.125391 0.937084 0.001735
v 0.247650 0.815616 0.051389
v 0.878366 0.499474 0.053457
v 0.425602 0.720639 0.108133
v 0.242812 0.453029 0.089222
v 0.000000 0.375000 0.000000
v 0.500372 0.879199 0.051001
v 0.498823 0.628209 0.118261
v 0.245041 0.370286 0.087125
v 0.123657 0.499276 0.041413
v 0.368044 0.497843 0.120811
v 0.627601 0.246238 0.090402
v 0.499594 0.123802 0.043836
v 0.497741 0.366879 0.128521
v 0.000000 0.625000 0.000000
v 0.000000 0.875000 0.000000
v 0.000000 0.125000 0.000000
v 0.625000 1.000000 0.000000
v 0.875000 1.000000 0.000000
v 0.125000 1.000000 0.000000
v 0.375000 1.000000 0.000000
v 1.000000 0.375000 0.000000
v 1.000000 0.125000 0.000000
v 1.000000 0.875000 0.000000
v 1.000000 0.625000 0.000000
v 0.375000 0.000000 0.000000
v 0.125000 0.000000 0.000000
v 0.875000 0.000000 0.000000
v 0.625000 0.000000 0.000000
v 0.750914 0.123202 0.038241
v 0.629115 0.497550 0.120967
v 0.767345 0.514957 0.101186
v 0.062805 0.312434 0.014115
v 0.184639 0.435594 0.064371
v 0.183010 0.309964 0.060220
v 0.062465 0.437149 0.018414
v 0.688412 0.943260 0.032804
v 0.691258 0.822683 0.083585
v 0.562795 0.942649 0.032558
v 0.062212 0.687370 0.016229
v 0.183688 0.689420 0.059263
v 0.061856 0.562206 0.020179
v 0.187511 0.937595 0.010093
v 0.185369 0.814399 0.039040
v 0.062767 0.937252 -0.000250
v 0.433526 0.562901 0.119374
v 0.877276 0.815162 0.037613
v 0.184394 0.752193 0.050690
v 0.310038 0.817164 0.063522
v 0.437585 0.938994 0.023622
v 0.939721 0.813537 0.022625
v 0.816622 0.818320 0.058772
v 0.937285 0.937352 0.002814
v 0.877072 0.186222 0.033649
v 0.563733 0.562738 0.120695
v 0.720144 0.422397 0.125319
v 0.823641 0.592279 0.073309
v 0.818010 0.690969 0.074170
v 0.937960 0.562460 0.023565
v 0.754996 0.821518 0.076029
v 0.688814 0.585699 0.117105
v 0.432390 0.431952 0.124486
v 0.188026 0.063637 0.002572
v 0.062662 0.062712 0.002604
v 0.187525 0.188826 0.025480
v 0.312958 0.063623 0.010637
v 0.311198 0.186572 0.050504
v 0.437348 0.061749 0.021478
v 0.813039 0.060210 0.022160
v 0.937091 0.062843 0.001353
v 0.554704 0.243628 0.093322
v 0.563712 0.432018 0.124730
v 0.525424 0.811837 0.082600
v 0.562693 0.185064 0.067801
v 0.689474 0.183867 0.066045
v 0.562397 0.063422 0.017645
v 0.940881 0.311780 0.028624
v 0.819883 0.308388 0.078899
v 0.940680 0.437040 0.030181
v 0.312496 0.937830 0.017095
v 0.476598 0.768899 0.092769
v 0.815531 0.184554 0.049647
v 0.808002 0.368376 0.088492
v 0.687563 0.060716 0.023565
v 0.062542 0.125287 0.005212
v 0.939085 0.186881 0.019607
v 0.435690 0.185414 0.065080
v 0.061843 0.187440 0.012035
v 0.383282 0.773963 0.090492
v 0.940125 0.688070 0.026927
v 0.186978 0.875574 0.022550
v 0.062278 0.812393 0.010303
v 0.813659 0.941259 0.025069
v 0.184612 0.562617 0.063463
v 0.772126 0.652317 0.093090
v 0.320072 0.531611 0.118937
v 0.720730 0.322724 0.131102
v 0.320937 0.321041 0.131103
v 0.718999 0.721917 0.108153
v 0.319171 0.720173 0.108126
v 0.612984 0.322401 0.131088
v 0.320685 0.403056 0.126343
v 0.287340 0.323669 0.109769
v 0.719497 0.613203 0.114338
v 0.721913 0.292463 0.113056
v 0.813711 0.122983 0.033481
v 0.432502 0.638599 0.116598
v 0.275760 0.661444 0.094172
v 0.719400 0.538977 0.118590
v 0.614087 0.721460 0.108146
v 0.320437 0.467348 0.122637
v 0.417527 0.321618 0.131079
v 0.938858 0.750776 0.021798
v 0.547520 0.322161 0.131079
v 0.817058 0.754716 0.066654
v 0.413947 0.251453 0.094703
v 0.424293 0.822122 0.074793
v 0.818059 0.480273 0.080420
v 0.752320 0.185119 0.056604
v 0.367366 0.411561 0.125809
v 0.249815 0.938128 0.015501
v 0.629460 0.432322 0.124731
v 0.550388 0.721183 0.108142
v 0.410399 0.667196 0.115341
v 0.673877 0.674968 0.112858
vt 0.000000 0.000000
vt 1.000000 0.000000
vt 0.000000 1.000000
vt 1.000000 1.000000
vt 0.500000 0.500000
vt 0.000000 0.500000
vt 0.500000 1.000000
vt 1.000000 0.500000
vt 0.500000 0.000000
vt 0.250000 0.750000
vt 0.750000 0.750000
vt 0.250000 0.250000
vt 0.750000 0.250000
vt 0.750000 0.000000
vt 0.250000 0.000000
vt 1.000000 0.750000
vt 1.000000 0.250000
vt 0.250000 1.000000
vt 0.750000 1.000000
vt 0.000000 0.250000
vt 0.000000 0.750000
vt 0.365347 0.220303
vt 0.629073 0.770824
vt 0.245672 0.515386
vt 0.812500 0.250000
vt 0.875000 0.375000
vt 0.625000 0.125000
vt 0.625000 0.375000
vt 0.875000 0.125000
vt 0.375000 0.125000
vt 0.125000 0.125000
vt 0.492214 0.250470
vt 0.875000 0.625000
vt 0.625000 0.625000
vt 0.875000 0.875000
vt 0.375000 0.875000
vt 0.262101 0.599801
vt 0.125000 0.875000
vt 0.125000 0.625000
vt 0.625000 0.875000
vt 0.125000 0.375000
vt 0.250000 0.125000
vt 0.875000 0.750000
vt 0.875000 0.250000
vt 0.250000 0.875000
vt 0.750000 0.875000
vt 0.125000 0.250000
vt 0.125000 0.750000
vt 0.327360 0.593106
vt 0.125000 0.937500
vt 0.250000 0.812500
vt 0.875000 0.500000
vt 0.428817 0.713405
vt 0.248222 0.455442
vt 0.000000 0.375000
vt 0.500000 0.875000
vt 0.500000 0.625000
vt 0.250000 0.375000
vt 0.125000 0.500000
vt 0.375000 0.500000
vt 0.625000 0.250000
vt 0.500000 0.125000
vt 0.500000 0.375000
vt 0.000000 0.625000
vt 0.000000 0.875000
vt 0.000000 0.125000
vt 0.625000 1.000000
vt 0.875000 1.000000
vt 0.125000 1.000000
vt 0.375000 1.000000
vt 1.000000 0.375000
vt 1.000000 0.125000
vt 1.000000 0.875000
vt 1.000000 0.625000
vt 0.375000 0.000000
vt 0.125000 0.000000
vt 0.875000 0.000000
vt 0.625000 0.000000
vt 0.750000 0.125000
vt 0.625000 0.500000
vt 0.760524 0.515669
vt 0.062500 0.312500
vt 0.187500 0.437500
vt 0.187500 0.312500
vt 0.062500 0.437500
vt 0.687500 0.937500
vt 0.687500 0.812500
vt 0.562500 0.937500
vt 0.062500 0.687500
vt 0.187500 0.687500
vt 0.062500 0.562500
vt 0.187500 0.937500
vt 0.187500 0.812500
vt 0.062500 0.937500
vt 0.437500 0.562500
vt 0.875000 0.812500
vt 0.187500 0.750000
vt 0.312500 0.812500
vt 0.437500 0.937500
vt 0.937500 0.812500
vt 0.812500 0.812500
vt 0.937500 0.937500
vt 0.875000 0.187500
vt 0.562500 0.562500
vt 0.711096 0.427218
vt 0.819332 0.591237
vt 0.812500 0.687500
vt 0.937500 0.562500
vt 0.750000 0.812500
vt 0.682510 0.583771
vt 0.437500 0.437500
vt 0.187500 0.062500
vt 0.062500 0.062500
vt 0.187500 0.187500
vt 0.312500 0.062500
vt 0.312500 0.187500
vt 0.437500 0.062500
vt 0.812500 0.062500
vt 0.937500 0.062500
vt 0.554454 0.248535
vt 0.562500 0.437500
vt 0.525016 0.804189
vt 0.562500 0.187500
vt 0.687500 0.187500
vt 0.562500 0.062500
vt 0.937500 0.312500
vt 0.812500 0.312500
vt 0.937500 0.437500
vt 0.312500 0.937500
vt 0.477574 0.762067
vt 0.812500 0.187500
vt 0.800716 0.372483
vt 0.687500 0.062500
vt 0.062500 0.125000
vt 0.937500 0.187500
vt 0.437500 0.187500
vt 0.062500 0.187500
vt 0.386728 0.766561
vt 0.937500 0.687500
vt 0.187500 0.875000
vt 0.062500 0.812500
vt 0.812500 0.937500
vt 0.187500 0.562500
vt 0.765906 0.648544
vt 0.328291 0.531632
vt 0.709388 0.333568
vt 0.334036 0.333275
vt 0.711696 0.713591
vt 0.326916 0.711377
vt 0.609181 0.332080
vt 0.330938 0.409094
vt 0.296906 0.332149
vt 0.712120 0.609975
vt 0.713437 0.300753
vt 0.812500 0.125000
vt 0.436137 0.634590
vt 0.281585 0.657008
vt 0.711519 0.538658
vt 0.610890 0.714015
vt 0.329530 0.470170
vt 0.424048 0.332058
vt 0.937500 0.750000
vt 0.547190 0.331848
vt 0.812500 0.750000
vt 0.418341 0.256674
vt 0.425703 0.815414
vt 0.812755 0.481587
vt 0.750000 0.187500
vt 0.375653 0.417988
vt 0.250000 0.937500
vt 0.625000 0.437500
vt 0.549316 0.714283
vt 0.414679 0.661630
vt 0.668274 0.669022
vn -0.018489 -0.018489 0.999658
vn 0.007823 -0.007823 0.999939
vn 0.004435 -0.004435 0.999980
vn 0.020123 0.020123 0.999595
vn -0.002984 0.033345 0.999439
vn -0.292841 -0.006937 0.956136
vn -0.037871 0.408726 0.911871
vn 0.404351 0.026798 0.914211
vn 0.016772 -0.315240 0.948864
vn -0.302766 0.250767 0.919483
vn 0.284147 0.172431 0.943148
vn -0.263627 -0.357590 0.895896
vn 0.228181 -0.340465 0.912150
vn 0.003900 -0.351976 0.936001
vn -0.032186 -0.100521 0.994414
vn 0.352120 0.019698 0.935748
vn 0.365856 -0.036675 0.929949
vn -0.037992 0.225020 0.973613
vn 0.030059 0.444965 0.895043
vn -0.203915 -0.008947 0.978948
vn -0.201373 0.022779 0.979250
vn -0.112952 -0.421921 0.899569
vn -0.004074 0.248442 0.968638
vn -0.381650 0.017797 0.924135
vn 0.258423 -0.226338 0.939142
vn 0.394602 -0.021626 0.918598
vn -0.019425 -0.349303 0.936808
vn -0.000218 0.055226 0.998474
vn 0.169855 -0.153003 0.973519
vn -0.102086 -0.333711 0.937132
vn -0.063671 -0.117996 0.990971
vn -0.014020 -0.423309 0.905877
vn 0.384276 -0.003140 0.923213
vn 0.020411 0.060778 0.997943
vn 0.241420 0.190570 0.951525
vn -0.072492 0.383143 0.920840
vn -0.358315 0.049120 0.932308
vn -0.139486 0.169975 0.975527
vn -0.333792 0.031908 0.942107
vn -0.013210 0.383795 0.923324
vn -0.344393 -0.028885 0.938381
vn -0.129309 -0.242896 0.961395
vn 0.350603 0.108715 0.930193
vn 0.298402 -0.170720 0.939048
vn -0.156223 0.291716 0.943661
vn 0.145841 0.342898 0.927982
vn -0.248542 -0.148177 0.957220
vn -0.287335 0.114653 0.950943
vn -0.233893 0.053155 0.970808
vn -0.082661 0.086910 0.992781
vn -0.208283 0.270326 0.939969
vn 0.396654 0.035753 0.917272
vn 0.006473 0.217570 0.976023
vn -0.399044 -0.006404 0.916909
vn -0.264238 -0.015077 0.964340
vn -0.060511 0.395521 0.916461
vn -0.006983 0.060648 0.998135
vn -0.426980 -0.004202 0.904251
vn -0.348322 0.003899 0.937367
vn -0.001962 0.047953 0.998848
vn 0.024387 -0.415703 0.909174
vn 0.005272 -0.348218 0.937399
vn -0.000937 0.055898 0.998436
vn -0.275645 0.015960 0.961127
vn -0.074047 0.041718 0.996382
vn -0.089376 -0.050253 0.994729
vn -0.000250 0.495881 0.868391
vn 0.090811 0.219880 0.971291
vn -0.054824 0.035723 0.997857
vn -0.024738 0.312305 0.949660
vn 0.443064 -0.006705 0.896465
vn 0.158329 -0.072093 0.984751
vn 0.199007 0.080190 0.976712
vn 0.377733 -0.012657 0.925828
vn -0.042678 -0.274339 0.960685
vn -0.000125 -0.037200 0.999308
vn 0.084651 -0.183059 0.979451
vn -0.024794 -0.325488 0.945221
vn 0.080305 -0.264845 0.960941
vn 0.004386 0.042714 0.999078
vn 0.383321 0.045801 0.922479
vn -0.278506 -0.024537 0.960121
vn -0.376249 -0.026479 0.926140
vn -0.341889 -0.113271 0.932889
vn -0.306073 -0.013008 0.951919
vn 0.027282 0.449225 0.893002
vn 0.074250 0.296951 0.952002
vn -0.053819 0.429077 0.901663
vn -0.275554 0.031725 0.960762
vn -0.330753 0.093012 0.939122
vn -0.306154 0.008601 0.951943
vn -0.099040 0.162313 0.981756
vn -0.213104 0.215552 0.952955
vn -0.026061 0.049731 0.998423
vn -0.013551 0.028273 0.999508
vn 0.299092 0.126596 0.945789
vn -0.285578 0.172764 0.942655
vn -0.159500 0.345580 0.924735
vn -0.029421 0.373549 0.927144
vn 0.270302 0.046951 0.961630
vn 0.300095 0.187928 0.935215
vn 0.110695 0.105404 0.988249
vn 0.223613 -0.196821 0.954599
vn 0.004363 0.020314 0.999784
vn 0.192849 0.050044 0.979951
vn 0.389233 0.025417 0.920789
vn 0.347732 0.064846 0.935349
vn 0.384684 0.015490 0.922918
vn 0.200161 0.253192 0.946483
vn 0.035437 0.046368 0.998296
vn 0.000206 0.055616 0.998452
vn -0.039938 -0.116316 0.992409
vn -0.037955 -0.039304 0.998506
vn -0.151225 -0.253422 0.955462
vn -0.087518 -0.235466 0.967934
vn -0.205679 -0.356468 0.911387
vn -0.017373 -0.324748 0.945641
vn 0.076871 -0.237836 0.968259
vn 0.095854 -0.089467 0.991367
vn 0.011473 -0.415270 0.909626
vn -0.000655 0.055642 0.998451
vn -0.045612 0.326612 0.944057
vn 0.004442 -0.377202 0.926120
vn 0.084981 -0.351760 0.932225
vn -0.002501 -0.330673 0.943742
vn 0.390853 -0.036659 0.919723
vn 0.370140 -0.147576 0.917179
vn 0.409221 0.014608 0.912318
vn -0.043587 0.303859 0.951719
vn -0.019572 0.295279 0.955211
vn 0.196913 -0.267908 0.943107
vn 0.427382 -0.019947 0.903851
vn 0.008881 -0.329898 0.943975
vn -0.076020 -0.075659 0.994232
vn 0.261380 -0.115387 0.958314
vn -0.022026 -0.383271 0.923373
vn -0.140841 -0.084712 0.986401
vn -0.047080 0.353294 0.934327
vn 0.369985 0.028440 0.928603
vn -0.167739 0.240724 0.955989
vn -0.170464 0.074265 0.982561
vn 0.116966 0.326988 0.937762
vn -0.370842 0.027542 0.928288
vn 0.359030 0.043029 0.932333
vn -0.173691 0.047626 0.983648
vn 0.196276 -0.332954 0.922289
vn -0.363876 -0.114264 0.924412
vn 0.201321 0.148776 0.968161
vn -0.218822 0.211813 0.952498
vn 0.007501 -0.152843 0.988222
vn -0.180690 0.042017 0.982642
vn -0.501720 -0.068218 0.862336
vn 0.153726 0.049493 0.986873
vn 0.196495 -0.460819 0.865468
vn 0.122435 -0.202039 0.971694
vn 0.004220 0.059718 0.998206
vn -0.361419 0.075106 0.929374
vn 0.188654 0.049006 0.980820
vn -0.000688 0.142854 0.989744
vn -0.155266 0.050176 0.986598
vn -0.001116 -0.210438 0.977607
vn 0.337267 0.047390 0.940215
vn -0.001729 -0.198604 0.980078
vn 0.328637 0.117819 0.937079
vn -0.013100 -0.439047 0.898368
vn -0.047223 0.365436 0.929638
vn 0.400037 0.030380 0.915995
vn 0.121094 -0.331368 0.935698
vn 0.001218 0.055563 0.998454
vn -0.071290 0.252415 0.964989
vn -0.000214 0.055335 0.998468
vn -0.013453 0.184582 0.982725
vn 0.030553 0.085450 0.995874
vn 0.022182 0.076912 0.996791
f 1/1/1 113/113/113 66/66/66
f 47/47/47 114/114/114 12/12/12
f 112/112/112 31/31/31 113/113/113
f 76/76/76 112/112/112 113/113/113
f 169/169/169 147/147/147 161/161/161
f 112/112/112 114/114/114 31/31/31
f 41/41/41 58/58/58 83/83/83
f 31/31/31 134/134/134 113/113/113
f 134/134/134 137/137/137 66/66/66
f 134/134/134 66/66/66 113/113/113
f 115/115/115 112/112/112 15/15/15
f 31/31/31 137/137/137 134/134/134
f 165/165/165 147/147/147 22/22/22
f 114/114/114 137/137/137 31/31/31
f 76/76/76 113/113/113 1/1/1
f 42/42/42 114/114/114 112/112/112
f 15/15/15 112/112/112 76/76/76
f 115/115/115 15/15/15 75/75/75
f 45/45/45 51/51/51 98/98/98
f 116/116/116 115/115/115 30/30/30
f 136/136/136 30/30/30 117/117/117
f 22/22/22 30/30/30 136/136/136
f 156/156/156 173/173/173 49/49/49
f 62/62/62 136/136/136 117/117/117
f 165/165/165 136/136/136 32/32/32
f 147/147/147 12/12/12 22/22/22
f 12/12/12 116/116/116 22/22/22
f 42/42/42 116/116/116 114/114/114
f 116/116/116 30/30/30 22/22/22
f 42/42/42 112/112/112 115/115/115
f 42/42/42 115/115/115 116/116/116
f 84/84/84 152/152/152 58/58/58
f 12/12/12 114/114/114 116/116/116
f 147/147/147 152/152/152 12/12/12
f 54/54/54 151/151/151 160/160/160
f 161/161/161 147/147/147 165/165/165
f 111/111/111 169/169/169 161/161/161
f 165/165/165 22/22/22 136/136/136
f 161/161/161 165/165/165 32/32/32
f 83/83/83 58/58/58 54/54/54
f 47/47/47 137/137/137 114/114/114
f 63/63/63 121/121/121 111/111/111
f 117/117/117 30/30/30 75/75/75
f 60/60/60 169/169/169 111/111/111
f 151/151/151 147/147/147 169/169/169
f 72/72/72 135/135/135 119/119/119
f 121/121/121 63/63/63 28/28/28
f 54/54/54 58/58/58 151/151/151
f 129/129/129 45/45/45 36/36/36
f 151/151/151 152/152/152 147/147/147
f 151/151/151 169/169/169 160/160/160
f 84/84/84 47/47/47 12/12/12
f 58/58/58 152/152/152 151/151/151
f 149/149/149 98/98/98 10/10/10
f 27/27/27 123/123/123 125/125/125
f 99/99/99 56/56/56 7/7/7
f 157/157/157 10/10/10 90/90/90
f 82/82/82 137/137/137 47/47/47
f 84/84/84 12/12/12 152/152/152
f 84/84/84 58/58/58 41/41/41
f 85/85/85 41/41/41 83/83/83
f 20/20/20 137/137/137 82/82/82
f 55/55/55 82/82/82 41/41/41
f 20/20/20 66/66/66 137/137/137
f 55/55/55 20/20/20 82/82/82
f 85/85/85 55/55/55 41/41/41
f 23/23/23 40/40/40 122/122/122
f 97/97/97 93/93/93 48/48/48
f 59/59/59 85/85/85 83/83/83
f 94/94/94 50/50/50 69/69/69
f 52/52/52 108/108/108 106/106/106
f 139/139/139 33/33/33 74/74/74
f 108/108/108 74/74/74 33/33/33
f 140/140/140 170/170/170 92/92/92
f 49/49/49 37/37/37 145/145/145
f 6/6/6 85/85/85 91/91/91
f 45/45/45 98/98/98 36/36/36
f 94/94/94 69/69/69 3/3/3
f 110/110/110 153/153/153 34/34/34
f 166/166/166 138/138/138 130/130/130
f 122/122/122 166/166/166 130/130/130
f 33/33/33 106/106/106 108/108/108
f 93/93/93 38/38/38 48/48/48
f 10/10/10 51/51/51 97/97/97
f 37/37/37 90/90/90 143/143/143
f 143/143/143 90/90/90 39/39/39
f 170/170/170 129/129/129 18/18/18
f 140/140/140 45/45/45 170/170/170
f 129/129/129 70/70/70 18/18/18
f 170/170/170 45/45/45 129/129/129
f 92/92/92 18/18/18 69/69/69
f 38/38/38 92/92/92 50/50/50
f 92/92/92 170/170/170 18/18/18
f 92/92/92 69/69/69 50/50/50
f 38/38/38 140/140/140 92/92/92
f 93/93/93 45/45/45 140/140/140
f 94/94/94 38/38/38 50/50/50
f 48/48/48 38/38/38 141/141/141
f 65/65/65 94/94/94 3/3/3
f 47/47/47 84/84/84 82/82/82
f 21/21/21 141/141/141 65/65/65
f 38/38/38 94/94/94 141/141/141
f 41/41/41 82/82/82 84/84/84
f 65/65/65 141/141/141 94/94/94
f 39/39/39 90/90/90 48/48/48
f 51/51/51 45/45/45 93/93/93
f 23/23/23 122/122/122 172/172/172
f 93/93/93 140/140/140 38/38/38
f 145/145/145 160/160/160 60/60/60
f 90/90/90 10/10/10 97/97/97
f 90/90/90 97/97/97 48/48/48
f 89/89/89 39/39/39 48/48/48
f 48/48/48 141/141/141 89/89/89
f 24/24/24 59/59/59 83/83/83
f 89/89/89 21/21/21 64/64/64
f 21/21/21 89/89/89 141/141/141
f 88/88/88 7/7/7 56/56/56
f 149/149/149 10/10/10 157/157/157
f 6/6/6 91/91/91 64/64/64
f 59/59/59 91/91/91 85/85/85
f 6/6/6 55/55/55 85/85/85
f 24/24/24 83/83/83 54/54/54
f 59/59/59 39/39/39 91/91/91
f 143/143/143 39/39/39 59/59/59
f 24/24/24 143/143/143 59/59/59
f 24/24/24 54/54/54 160/160/160
f 29/29/29 155/155/155 118/118/118
f 163/163/163 28/28/28 63/63/63
f 57/57/57 34/34/34 172/172/172
f 119/119/119 29/29/29 118/118/118
f 103/103/103 131/131/131 155/155/155
f 39/39/39 89/89/89 91/91/91
f 166/166/166 56/56/56 36/36/36
f 99/99/99 36/36/36 56/56/56
f 77/77/77 2/2/2 119/119/119
f 37/37/37 157/157/157 90/90/90
f 37/37/37 143/143/143 24/24/24
f 149/149/149 138/138/138 98/98/98
f 138/138/138 166/166/166 98/98/98
f 135/135/135 72/72/72 17/17/17
f 57/57/57 53/53/53 156/156/156
f 51/51/51 10/10/10 98/98/98
f 159/159/159 172/172/172 34/34/34
f 17/17/17 126/126/126 135/135/135
f 104/104/104 95/95/95 5/5/5
f 60/60/60 160/160/160 169/169/169
f 44/44/44 135/135/135 126/126/126
f 105/105/105 158/158/158 80/80/80
f 57/57/57 95/95/95 104/104/104
f 133/133/133 27/27/27 78/78/78
f 34/34/34 57/57/57 104/104/104
f 57/57/57 156/156/156 95/95/95
f 122/122/122 130/130/130 172/172/172
f 53/53/53 138/138/138 149/149/149
f 123/123/123 27/27/27 61/61/61
f 132/132/132 146/146/146 127/127/127
f 11/11/11 144/144/144 107/107/107
f 103/103/103 44/44/44 25/25/25
f 87/87/87 11/11/11 109/109/109
f 128/128/128 8/8/8 52/52/52
f 80/80/80 110/110/110 104/104/104
f 124/124/124 154/154/154 61/61/61
f 95/95/95 156/156/156 49/49/49
f 11/11/11 148/148/148 144/144/144
f 37/37/37 49/49/49 157/157/157
f 144/144/144 153/153/153 106/106/106
f 53/53/53 172/172/172 130/130/130
f 106/106/106 153/153/153 81/81/81
f 110/110/110 34/34/34 104/104/104
f 77/77/77 119/119/119 118/118/118
f 80/80/80 104/104/104 5/5/5
f 158/158/158 153/153/153 110/110/110
f 121/121/121 171/171/171 80/80/80
f 105/105/105 146/146/146 132/132/132
f 81/81/81 153/153/153 158/158/158
f 158/158/158 110/110/110 80/80/80
f 28/28/28 146/146/146 105/105/105
f 167/167/167 106/106/106 81/81/81
f 36/36/36 99/99/99 129/129/129
f 107/107/107 106/106/106 33/33/33
f 127/127/127 44/44/44 26/26/26
f 96/96/96 164/164/164 43/43/43
f 107/107/107 33/33/33 139/139/139
f 125/125/125 78/78/78 27/27/27
f 74/74/74 108/108/108 8/8/8
f 126/126/126 26/26/26 44/44/44
f 164/164/164 11/11/11 107/107/107
f 173/173/173 156/156/156 53/53/53
f 144/144/144 148/148/148 153/153/153
f 144/144/144 106/106/106 107/107/107
f 111/111/111 5/5/5 60/60/60
f 87/87/87 148/148/148 11/11/11
f 95/95/95 60/60/60 5/5/5
f 88/88/88 56/56/56 40/40/40
f 108/108/108 52/52/52 8/8/8
f 43/43/43 107/107/107 139/139/139
f 96/96/96 162/162/162 100/100/100
f 43/43/43 164/164/164 107/107/107
f 43/43/43 139/139/139 162/162/162
f 56/56/56 166/166/166 122/122/122
f 149/149/149 49/49/49 173/173/173
f 16/16/16 162/162/162 139/139/139
f 35/35/35 101/101/101 96/96/96
f 35/35/35 96/96/96 100/100/100
f 96/96/96 101/101/101 164/164/164
f 96/96/96 43/43/43 162/162/162
f 86/86/86 46/46/46 142/142/142
f 16/16/16 100/100/100 162/162/162
f 102/102/102 35/35/35 100/100/100
f 68/68/68 142/142/142 102/102/102
f 142/142/142 46/46/46 35/35/35
f 142/142/142 35/35/35 102/102/102
f 87/87/87 46/46/46 40/40/40
f 46/46/46 109/109/109 101/101/101
f 19/19/19 86/86/86 142/142/142
f 88/88/88 40/40/40 86/86/86
f 23/23/23 87/87/87 40/40/40
f 86/86/86 40/40/40 46/46/46
f 23/23/23 148/148/148 87/87/87
f 87/87/87 109/109/109 46/46/46
f 49/49/49 149/149/149 157/157/157
f 23/23/23 159/159/159 148/148/148
f 24/24/24 145/145/145 37/37/37
f 56/56/56 122/122/122 40/40/40
f 67/67/67 88/88/88 86/86/86
f 101/101/101 35/35/35 46/46/46
f 7/7/7 70/70/70 99/99/99
f 67/67/67 7/7/7 88/88/88
f 19/19/19 67/67/67 86/86/86
f 68/68/68 19/19/19 142/142/142
f 73/73/73 102/102/102 100/100/100
f 4/4/4 68/68/68 102/102/102
f 73/73/73 4/4/4 102/102/102
f 16/16/16 73/73/73 100/100/100
f 74/74/74 16/16/16 139/139/139
f 154/154/154 150/150/150 61/61/61
f 26/26/26 128/128/128 52/52/52
f 126/126/126 17/17/17 71/71/71
f 155/155/155 168/168/168 79/79/79
f 77/77/77 118/118/118 14/14/14
f 60/60/60 95/95/95 145/145/145
f 167/167/167 132/132/132 26/26/26
f 49/49/49 145/145/145 95/95/95
f 128/128/128 71/71/71 8/8/8
f 70/70/70 129/129/129 99/99/99
f 164/164/164 101/101/101 11/11/11
f 109/109/109 11/11/11 101/101/101
f 25/25/25 44/44/44 127/127/127
f 64/64/64 91/91/91 89/89/89
f 25/25/25 127/127/127 13/13/13
f 115/115/115 75/75/75 30/30/30
f 132/132/132 127/127/127 26/26/26
f 154/154/154 127/127/127 146/146/146
f 131/131/131 13/13/13 168/168/168
f 131/131/131 25/25/25 13/13/13
f 167/167/167 26/26/26 52/52/52
f 105/105/105 132/132/132 167/167/167
f 167/167/167 52/52/52 106/106/106
f 105/105/105 167/167/167 81/81/81
f 105/105/105 81/81/81 158/158/158
f 171/171/171 28/28/28 105/105/105
f 171/171/171 105/105/105 80/80/80
f 29/29/29 119/119/119 135/135/135
f 121/121/121 80/80/80 5/5/5
f 121/121/121 28/28/28 171/171/171
f 121/121/121 5/5/5 111/111/111
f 63/63/63 111/111/111 161/161/161
f 163/163/163 161/161/161 32/32/32
f 163/163/163 150/150/150 28/28/28
f 120/120/120 150/150/150 163/163/163
f 150/150/150 146/146/146 28/28/28
f 163/163/163 63/63/63 161/161/161
f 120/120/120 123/123/123 61/61/61
f 62/62/62 123/123/123 136/136/136
f 23/23/23 172/172/172 159/159/159
f 119/119/119 2/2/2 72/72/72
f 154/154/154 13/13/13 127/127/127
f 154/154/154 146/146/146 150/150/150
f 124/124/124 13/13/13 154/154/154
f 160/160/160 145/145/145 24/24/24
f 117/117/117 9/9/9 62/62/62
f 133/133/133 78/78/78 14/14/14
f 120/120/120 61/61/61 150/150/150
f 123/123/123 32/32/32 136/136/136
f 120/120/120 163/163/163 32/32/32
f 120/120/120 32/32/32 123/123/123
f 124/124/124 61/61/61 27/27/27
f 125/125/125 62/62/62 9/9/9
f 9/9/9 117/117/117 75/75/75
f 26/26/26 126/126/126 128/128/128
f 78/78/78 125/125/125 9/9/9
f 71/71/71 128/128/128 126/126/126
f 118/118/118 133/133/133 14/14/14
f 133/133/133 124/124/124 27/27/27
f 135/135/135 44/44/44 103/103/103
f 155/155/155 131/131/131 168/168/168
f 79/79/79 124/124/124 133/133/133
f 79/79/79 133/133/133 118/118/118
f 168/168/168 13/13/13 124/124/124
f 168/168/168 124/124/124 79/79/79
f 155/155/155 79/79/79 118/118/118
f 103/103/103 25/25/25 131/131/131
f 103/103/103 155/155/155 29/29/29
f 135/135/135 103/103/103 29/29/29
f 36/36/36 98/98/98 166/166/166
f 53/53/53 130/130/130 138/138/138
f 62/62/62 125/125/125 123/123/123
f 93/93/93 97/97/97 51/51/51
f 149/149/149 173/173/173 53/53/53
f 172/172/172 53/53/53 57/57/57
f 34/34/34 174/174/174 159/159/159
f 174/174/174 148/148/148 159/159/159
f 148/148/148 174/174/174 153/153/153
f 174/174/174 34/34/34 153/153/153
