# frame 000674 
# time 0.337500 
# name Cloth3D 
v -0.000000 0.000000 -0.000000
v 1.000000 0.000000 -0.000000
v -0.000000 1.000000 0.000000
v 1.000000 1.000000 0.000000
v 0.499818 0.500105 0.119787
v -0.000000 0.500000 0.000000
v 0.500000 1.000000 0.000000
v 1.000000 0.500000 0.000000
v 0.500000 -0.000000 0.000000
v 0.246695 0.754622 0.066314
v 0.758129 0.758010 0.090584
v 0.247154 0.247496 0.060243
v 0.756218 0.244196 0.078943
v 0.750000 0.000000 0.000000
v 0.250000 0.000000 0.000000
v 1.000000 0.750000 0.000000
v 1.000000 0.250000 0.000000
v 0.250000 1.000000 0.000000
v 0.750000 1.000000 0.000000
v 0.000000 0.250000 0.000000
v 0.000000 0.750000 -0.000000
v 0.362583 0.216115 0.074442
v 0.633783 0.779029 0.094189
v 0.242588 0.516110 0.083570
v 0.816361 0.246951 0.056098
v 0.879176 0.373691 0.050929
v 0.625830 0.124038 0.040887
v 0.631140 0.368928 0.121745
v 0.874496 0.125023 0.012210
v 0.375092 0.124717 0.035855
v 0.126136 0.126720 0.000827
v 0.491778 0.245726 0.091613
v 0.876841 0.626380 0.045868
v 0.630858 0.631165 0.120721
v 0.876950 0.876564 0.024291
v 0.375183 0.876777 0.041882
v 0.257457 0.603590 0.090505
v 0.126409 0.874072 0.002729
v 0.125382 0.625588 0.033957
v 0.627050 0.879931 0.054061
v 0.124152 0.374817 0.036905
v 0.251399 0.127485 0.014324
v 0.878542 0.752367 0.043397
v 0.876041 0.249182 0.032787
v 0.251244 0.874439 0.022109
v 0.752814 0.879427 0.046851
v 0.123421 0.249532 0.029436
v 0.124948 0.750507 0.025961
v 0.319700 0.597864 0.118831
v 0.125983 0.936916 -0.003678
v 0.249347 0.814483 0.043959
v 0.879518 0.500134 0.054007
v 0.425098 0.711958 0.117436
v 0.244684 0.454381 0.084896
v 0.000000 0.375000 0.000000
v 0.500476 0.879465 0.052503
v 0.499632 0.631790 0.120098
v 0.245625 0.371453 0.084600
v 0.126030 0.500063 0.035030
v 0.369186 0.500181 0.119974
v 0.628841 0.244895 0.090877
v 0.500163 0.123394 0.044021
v 0.499592 0.369315 0.121759
v 0.000000 0.625000 0.000000
v 0.000000 0.875000 0.000000
v 0.000000 0.125000 0.000000
v 0.625000 1.000000 0.000000
v 0.875000 1.000000 0.000000
v 0.125000 1.000000 0.000000
v 0.375000 1.000000 0.000000
v 1.000000 0.375000 0.000000
v 1.000000 0.125000 0.000000
v 1.000000 0.875000 0.000000
v 1.000000 0.625000 0.000000
v 0.375000 0.000000 0.000000
v 0.125000 0.000000 0.000000
v 0.875000 0.000000 0.000000
v 0.625000 0.000000 0.000000
v 0.751190 0.123034 0.036326
v 0.630715 0.499833 0.120049
v 0.767318 0.515942 0.097297
v 0.061530 0.312614 0.018261
v 0.186099 0.436770 0.060362
v 0.184652 0.310907 0.054773
v 0.063035 0.437619 0.016521
v 0.688480 0.939816 0.025626
v 0.692151 0.820360 0.078322
v 0.563187 0.940171 0.027802
v 0.063566 0.687343 0.011104
v 0.186485 0.689603 0.051946
v 0.063549 0.562516 0.015050
v 0.188581 0.936713 0.003160
v 0.187723 0.813027 0.028508
v 0.062979 0.937127 -0.006437
v 0.434317 0.565839 0.119667
v 0.878977 0.815122 0.038620
v 0.185762 0.752351 0.045863
v 0.310732 0.816758 0.059934
v 0.437962 0.938213 0.021806
v 0.938904 0.812982 0.017493
v 0.816731 0.816431 0.052377
v 0.937276 0.937169 -0.000020
v 0.876028 0.186596 0.025535
v 0.565282 0.565524 0.119523
v 0.720139 0.423558 0.121029
v 0.823789 0.593160 0.071761
v 0.816586 0.691034 0.068812
v 0.939439 0.562873 0.026208
v 0.754478 0.817618 0.065038
v 0.690866 0.587346 0.119861
v 0.434244 0.434637 0.120667
v 0.188451 0.063814 0.000983
v 0.062913 0.062979 -0.003063
v 0.187563 0.188366 0.024933
v 0.313066 0.063317 0.011903
v 0.312091 0.187518 0.046794
v 0.437691 0.061759 0.021029
v 0.812769 0.061401 0.016195
v 0.937052 0.062895 -0.002494
v 0.555997 0.243932 0.090785
v 0.565307 0.434626 0.120889
v 0.526083 0.810292 0.078769
v 0.563651 0.184214 0.068401
v 0.689949 0.185124 0.060268
v 0.562703 0.062244 0.020466
v 0.938471 0.312349 0.020442
v 0.817060 0.309533 0.066552
v 0.939679 0.437328 0.026697
v 0.312848 0.938626 0.019001
v 0.476865 0.771382 0.097679
v 0.814190 0.185780 0.039498
v 0.806242 0.369352 0.078629
v 0.687658 0.062026 0.018985
v 0.062973 0.125726 -0.000469
v 0.936855 0.187839 0.007821
v 0.436587 0.184576 0.065651
v 0.062654 0.187904 0.006789
v 0.383009 0.774516 0.091106
v 0.936988 0.688074 0.017618
v 0.188778 0.874280 0.013092
v 0.063291 0.812068 0.004109
v 0.813406 0.939092 0.019101
v 0.185990 0.563638 0.060676
v 0.772491 0.653214 0.092794
v 0.488364 0.712233 0.117441
v 0.720769 0.313415 0.122426
v 0.320977 0.311733 0.122427
v 0.719036 0.713238 0.117458
v 0.319208 0.711496 0.117429
v 0.614292 0.313098 0.122418
v 0.320678 0.404660 0.121253
v 0.288929 0.324737 0.105109
v 0.719492 0.614459 0.118645
v 0.723206 0.291920 0.110421
v 0.813420 0.123566 0.027683
v 0.432426 0.642186 0.120292
v 0.274722 0.663349 0.098476
v 0.719395 0.540116 0.119554
v 0.615968 0.712789 0.117450
v 0.320430 0.468934 0.120444
v 0.419632 0.312318 0.122411
v 0.939837 0.750636 0.023253
v 0.549055 0.312859 0.122411
v 0.818167 0.754559 0.066127
v 0.415360 0.250857 0.094139
v 0.424607 0.820967 0.072484
v 0.818390 0.481149 0.077310
v 0.753051 0.184041 0.055718
v 0.369322 0.413794 0.121087
v 0.251303 0.936703 0.007264
v 0.630853 0.434462 0.120896
v 0.551523 0.712508 0.117445
v 0.409822 0.670588 0.119278
v 0.320065 0.533396 0.119638
vt 0.000000 0.000000
vt 1.000000 0.000000
vt 0.000000 1.000000
vt 1.000000 1.000000
vt 0.500000 0.500000
vt 0.000000 0.500000
vt 0.500000 1.000000
vt 1.000000 0.500000
vt 0.500000 0.000000
vt 0.250000 0.750000
vt 0.750000 0.750000
vt 0.250000 0.250000
vt 0.750000 0.250000
vt 0.750000 0.000000
vt 0.250000 0.000000
vt 1.000000 0.750000
vt 1.000000 0.250000
vt 0.250000 1.000000
vt 0.750000 1.000000
vt 0.000000 0.250000
vt 0.000000 0.750000
vt 0.365347 0.220303
vt 0.629073 0.770824
vt 0.245672 0.515386
vt 0.812500 0.250000
vt 0.875000 0.375000
vt 0.625000 0.125000
vt 0.625000 0.375000
vt 0.875000 0.125000
vt 0.375000 0.125000
vt 0.125000 0.125000
vt 0.492214 0.250470
vt 0.875000 0.625000
vt 0.625000 0.625000
vt 0.875000 0.875000
vt 0.375000 0.875000
vt 0.262101 0.599801
vt 0.125000 0.875000
vt 0.125000 0.625000
vt 0.625000 0.875000
vt 0.125000 0.375000
vt 0.250000 0.125000
vt 0.875000 0.750000
vt 0.875000 0.250000
vt 0.250000 0.875000
vt 0.750000 0.875000
vt 0.125000 0.250000
vt 0.125000 0.750000
vt 0.327748 0.593107
vt 0.125000 0.937500
vt 0.250000 0.812500
vt 0.875000 0.500000
vt 0.428981 0.701526
vt 0.248222 0.455442
vt 0.000000 0.375000
vt 0.500000 0.875000
vt 0.500000 0.625000
vt 0.250000 0.375000
vt 0.125000 0.500000
vt 0.375000 0.500000
vt 0.625000 0.250000
vt 0.500000 0.125000
vt 0.500000 0.375000
vt 0.000000 0.625000
vt 0.000000 0.875000
vt 0.000000 0.125000
vt 0.625000 1.000000
vt 0.875000 1.000000
vt 0.125000 1.000000
vt 0.375000 1.000000
vt 1.000000 0.375000
vt 1.000000 0.125000
vt 1.000000 0.875000
vt 1.000000 0.625000
vt 0.375000 0.000000
vt 0.125000 0.000000
vt 0.875000 0.000000
vt 0.625000 0.000000
vt 0.750000 0.125000
vt 0.625000 0.500000
vt 0.760524 0.515669
vt 0.062500 0.312500
vt 0.187500 0.437500
vt 0.187500 0.312500
vt 0.062500 0.437500
vt 0.687500 0.937500
vt 0.687500 0.812500
vt 0.562500 0.937500
vt 0.062500 0.687500
vt 0.187500 0.687500
vt 0.062500 0.562500
vt 0.187500 0.937500
vt 0.187500 0.812500
vt 0.062500 0.937500
vt 0.437500 0.562500
vt 0.875000 0.812500
vt 0.187500 0.750000
vt 0.312500 0.812500
vt 0.437500 0.937500
vt 0.937500 0.812500
vt 0.812500 0.812500
vt 0.937500 0.937500
vt 0.875000 0.187500
vt 0.562500 0.562500
vt 0.710115 0.427225
vt 0.819332 0.591237
vt 0.812500 0.687500
vt 0.937500 0.562500
vt 0.750000 0.812500
vt 0.682510 0.583771
vt 0.437500 0.437500
vt 0.187500 0.062500
vt 0.062500 0.062500
vt 0.187500 0.187500
vt 0.312500 0.062500
vt 0.312500 0.187500
vt 0.437500 0.062500
vt 0.812500 0.062500
vt 0.937500 0.062500
vt 0.554454 0.248535
vt 0.562500 0.437500
vt 0.525016 0.804189
vt 0.562500 0.187500
vt 0.687500 0.187500
vt 0.562500 0.062500
vt 0.937500 0.312500
vt 0.812500 0.312500
vt 0.937500 0.437500
vt 0.312500 0.937500
vt 0.477574 0.762067
vt 0.812500 0.187500
vt 0.800716 0.372483
vt 0.687500 0.062500
vt 0.062500 0.125000
vt 0.937500 0.187500
vt 0.437500 0.187500
vt 0.062500 0.187500
vt 0.386728 0.766561
vt 0.937500 0.687500
vt 0.187500 0.875000
vt 0.062500 0.812500
vt 0.812500 0.937500
vt 0.187500 0.562500
vt 0.765906 0.648544
vt 0.489190 0.701756
vt 0.709026 0.323562
vt 0.331585 0.322666
vt 0.708388 0.703579
vt 0.329173 0.700105
vt 0.609312 0.321443
vt 0.329174 0.409048
vt 0.296906 0.332149
vt 0.709867 0.609966
vt 0.713437 0.300753
vt 0.812500 0.125000
vt 0.436137 0.634590
vt 0.281585 0.657008
vt 0.709829 0.538661
vt 0.610901 0.703019
vt 0.328267 0.470150
vt 0.423952 0.321127
vt 0.937500 0.750000
vt 0.547210 0.320956
vt 0.812500 0.750000
vt 0.418341 0.256674
vt 0.425703 0.815414
vt 0.812755 0.481587
vt 0.750000 0.187500
vt 0.375653 0.417988
vt 0.250000 0.937500
vt 0.625000 0.437500
vt 0.549390 0.702236
vt 0.414679 0.661630
vt 0.327873 0.531627
vn 0.027042 0.027042 0.999268
vn -0.020587 0.020587 0.999576
vn 0.053748 -0.053748 0.997107
vn -0.000424 -0.000424 1.000000
vn -0.000286 0.007354 0.999973
vn -0.240016 0.006989 0.970744
vn -0.021866 0.373478 0.927381
vn 0.403896 0.000387 0.914805
vn 0.000568 -0.320505 0.947247
vn -0.341021 0.282690 0.896544
vn 0.315320 0.253895 0.914391
vn -0.271256 -0.341151 0.900020
vn 0.285937 -0.317178 0.904234
vn 0.010883 -0.267413 0.963521
vn -0.043769 -0.100285 0.993996
vn 0.326550 -0.003123 0.945175
vn 0.211462 -0.050615 0.976075
vn -0.085886 0.129398 0.987866
vn 0.025158 0.339794 0.940163
vn -0.196855 -0.047701 0.979271
vn -0.116282 0.028252 0.992814
vn -0.134922 -0.431374 0.892027
vn -0.005851 0.356323 0.934345
vn -0.405283 0.000766 0.914191
vn 0.347530 -0.188661 0.918493
vn 0.375926 -0.079177 0.923261
vn 0.030896 -0.340588 0.939705
vn 0.000019 0.010017 0.999950
vn 0.221111 -0.163305 0.961479
vn -0.114357 -0.327697 0.937837
vn -0.082607 -0.123492 0.988901
vn -0.002303 -0.393184 0.919457
vn 0.388546 0.061591 0.919369
vn 0.004702 0.008864 0.999950
vn 0.225101 0.219032 0.949397
vn -0.101616 0.369372 0.923709
vn -0.421438 0.009934 0.906803
vn -0.119563 0.141477 0.982695
vn -0.331732 0.040411 0.942508
vn 0.013398 0.391354 0.920143
vn -0.315957 -0.009352 0.948728
vn -0.128210 -0.228376 0.965094
vn 0.340093 0.028574 0.939958
vn 0.335853 -0.120201 0.934213
vn -0.179388 0.273176 0.945090
vn 0.135419 0.323071 0.936636
vn -0.231479 -0.165053 0.958736
vn -0.282219 0.133677 0.949991
vn -0.271984 0.005668 0.962285
vn -0.075222 0.017503 0.997013
vn -0.254765 0.337045 0.906364
vn 0.374844 0.011849 0.927012
vn -0.007886 0.167366 0.985863
vn -0.408835 0.003306 0.912602
vn -0.278284 0.009195 0.960455
vn -0.033986 0.383858 0.922767
vn 0.001459 0.010485 0.999944
vn -0.416249 -0.012652 0.909163
vn -0.339403 0.019117 0.940447
vn 0.001033 0.009247 0.999957
vn 0.021874 -0.406149 0.913545
vn 0.001321 -0.352815 0.935692
vn -0.000853 0.010712 0.999942
vn -0.199246 0.014350 0.979844
vn 0.023720 0.042214 0.998827
vn 0.001430 -0.052504 0.998620
vn 0.007814 0.399401 0.916743
vn 0.074920 0.148099 0.986131
vn -0.049822 -0.049456 0.997533
vn -0.010048 0.317431 0.948228
vn 0.354694 -0.025267 0.934641
vn 0.035761 -0.038802 0.998607
vn 0.136067 0.068936 0.988298
vn 0.331935 0.036956 0.942578
vn -0.034969 -0.264335 0.963797
vn -0.017321 0.019764 0.999655
vn 0.072913 -0.103559 0.991947
vn 0.008449 -0.303799 0.952699
vn 0.091098 -0.286390 0.953773
vn -0.000531 0.007721 0.999970
vn 0.405945 0.019064 0.913698
vn -0.270939 -0.038442 0.961829
vn -0.372153 0.008403 0.928133
vn -0.327970 -0.123215 0.936618
vn -0.284147 0.017602 0.958619
vn 0.030938 0.382582 0.923403
vn 0.101382 0.370316 0.923357
vn -0.009635 0.403086 0.915111
vn -0.230054 0.036661 0.972487
vn -0.358206 0.089707 0.929323
vn -0.263071 0.012992 0.964689
vn -0.081839 0.094023 0.992201
vn -0.222929 0.264272 0.938330
vn -0.002157 0.002049 0.999996
vn -0.001276 -0.001671 0.999998
vn 0.290003 0.171458 0.941541
vn -0.306878 0.193335 0.931905
vn -0.204419 0.402746 0.892193
vn -0.036418 0.364201 0.930608
vn 0.306269 0.108241 0.945771
vn 0.224984 0.260642 0.938854
vn 0.085463 0.082407 0.992928
vn 0.272579 -0.174512 0.946175
vn -0.001723 -0.003322 0.999993
vn 0.202726 0.006857 0.979212
vn 0.405503 0.046101 0.912930
vn 0.401932 0.047622 0.914430
vn 0.378438 0.039057 0.924802
vn 0.198140 0.344239 0.917736
vn 0.018257 0.007139 0.999808
vn 0.000667 0.011080 0.999938
vn -0.057821 -0.079035 0.995194
vn 0.002692 -0.006052 0.999978
vn -0.162452 -0.273270 0.948121
vn -0.088759 -0.208926 0.973895
vn -0.207663 -0.378646 0.901944
vn -0.027733 -0.318873 0.947392
vn 0.112605 -0.198598 0.973591
vn 0.048824 -0.031726 0.998303
vn 0.000861 -0.382240 0.924063
vn -0.000725 0.011304 0.999936
vn -0.002360 0.378581 0.925565
vn 0.015198 -0.371010 0.928505
vn 0.058776 -0.364331 0.929413
vn 0.010966 -0.323039 0.946322
vn 0.318940 -0.075254 0.944783
vn 0.402868 -0.152429 0.902476
vn 0.397074 -0.022099 0.917521
vn -0.115632 0.228031 0.966763
vn -0.006386 0.380615 0.924711
vn 0.253525 -0.231779 0.939150
vn 0.411404 -0.071923 0.908611
vn 0.017251 -0.300212 0.953717
vn -0.002677 -0.079408 0.996839
vn 0.203829 -0.100305 0.973854
vn -0.042822 -0.381342 0.923442
vn -0.095993 -0.112424 0.989013
vn -0.064092 0.414637 0.907727
vn 0.334822 -0.024748 0.941956
vn -0.140326 0.207001 0.968225
vn -0.109351 0.081494 0.990657
vn 0.093729 0.277519 0.956137
vn -0.386951 0.013599 0.922000
vn 0.438621 0.049850 0.897288
vn -0.000140 0.188538 0.982066
vn 0.229026 -0.346863 0.909524
vn -0.335982 -0.157532 0.928601
vn 0.263536 0.165373 0.950369
vn -0.263202 0.204165 0.942890
vn 0.003191 -0.195496 0.980699
vn -0.183577 0.006275 0.982985
vn -0.468300 -0.079702 0.879968
vn 0.169190 0.013155 0.985496
vn 0.242266 -0.421600 0.873819
vn 0.207719 -0.202658 0.956965
vn -0.002749 0.016702 0.999857
vn -0.446766 0.052831 0.893089
vn 0.210139 0.006841 0.977648
vn -0.000939 0.199089 0.979981
vn -0.172654 0.009301 0.984939
vn 0.001151 -0.243213 0.969972
vn 0.339415 -0.007734 0.940605
vn 0.000411 -0.229456 0.973319
vn 0.349846 0.104202 0.930994
vn -0.021023 -0.415914 0.909161
vn -0.056673 0.410168 0.910247
vn 0.374510 0.007913 0.927189
vn 0.143796 -0.318214 0.937050
vn 0.001420 0.010438 0.999945
vn -0.139304 0.156983 0.977727
vn 0.000004 0.010453 0.999945
vn 0.000553 0.192530 0.981291
vn -0.003043 0.028310 0.999595
vn -0.202989 0.007570 0.979152
f 1/1/1 113/113/113 66/66/66
f 47/47/47 114/114/114 12/12/12
f 112/112/112 31/31/31 113/113/113
f 76/76/76 112/112/112 113/113/113
f 169/169/169 147/147/147 161/161/161
f 112/112/112 114/114/114 31/31/31
f 41/41/41 58/58/58 83/83/83
f 31/31/31 134/134/134 113/113/113
f 134/134/134 137/137/137 66/66/66
f 134/134/134 66/66/66 113/113/113
f 115/115/115 112/112/112 15/15/15
f 31/31/31 137/137/137 134/134/134
f 165/165/165 147/147/147 22/22/22
f 114/114/114 137/137/137 31/31/31
f 76/76/76 113/113/113 1/1/1
f 42/42/42 114/114/114 112/112/112
f 15/15/15 112/112/112 76/76/76
f 115/115/115 15/15/15 75/75/75
f 45/45/45 51/51/51 98/98/98
f 116/116/116 115/115/115 30/30/30
f 136/136/136 30/30/30 117/117/117
f 22/22/22 30/30/30 136/136/136
f 156/156/156 173/173/173 49/49/49
f 62/62/62 136/136/136 117/117/117
f 165/165/165 136/136/136 32/32/32
f 147/147/147 12/12/12 22/22/22
f 12/12/12 116/116/116 22/22/22
f 42/42/42 116/116/116 114/114/114
f 116/116/116 30/30/30 22/22/22
f 42/42/42 112/112/112 115/115/115
f 42/42/42 115/115/115 116/116/116
f 84/84/84 152/152/152 58/58/58
f 12/12/12 114/114/114 116/116/116
f 147/147/147 152/152/152 12/12/12
f 54/54/54 151/151/151 160/160/160
f 161/161/161 147/147/147 165/165/165
f 111/111/111 169/169/169 161/161/161
f 165/165/165 22/22/22 136/136/136
f 161/161/161 165/165/165 32/32/32
f 83/83/83 58/58/58 54/54/54
f 47/47/47 137/137/137 114/114/114
f 63/63/63 121/121/121 111/111/111
f 117/117/117 30/30/30 75/75/75
f 60/60/60 169/169/169 111/111/111
f 151/151/151 147/147/147 169/169/169
f 72/72/72 135/135/135 119/119/119
f 121/121/121 63/63/63 28/28/28
f 54/54/54 58/58/58 151/151/151
f 129/129/129 45/45/45 36/36/36
f 151/151/151 152/152/152 147/147/147
f 151/151/151 169/169/169 160/160/160
f 84/84/84 47/47/47 12/12/12
f 58/58/58 152/152/152 151/151/151
f 149/149/149 98/98/98 10/10/10
f 78/78/78 133/133/133 125/125/125
f 148/148/148 159/159/159 34/34/34
f 157/157/157 10/10/10 90/90/90
f 82/82/82 137/137/137 47/47/47
f 84/84/84 12/12/12 152/152/152
f 84/84/84 58/58/58 41/41/41
f 85/85/85 41/41/41 83/83/83
f 20/20/20 137/137/137 82/82/82
f 55/55/55 82/82/82 41/41/41
f 20/20/20 66/66/66 137/137/137
f 55/55/55 20/20/20 82/82/82
f 85/85/85 55/55/55 41/41/41
f 23/23/23 40/40/40 122/122/122
f 97/97/97 93/93/93 48/48/48
f 59/59/59 85/85/85 83/83/83
f 94/94/94 50/50/50 69/69/69
f 98/98/98 138/138/138 36/36/36
f 36/36/36 99/99/99 70/70/70
f 129/129/129 36/36/36 70/70/70
f 140/140/140 170/170/170 92/92/92
f 166/166/166 99/99/99 36/36/36
f 6/6/6 85/85/85 91/91/91
f 45/45/45 98/98/98 36/36/36
f 94/94/94 69/69/69 3/3/3
f 110/110/110 153/153/153 34/34/34
f 166/166/166 138/138/138 130/130/130
f 122/122/122 166/166/166 130/130/130
f 166/166/166 36/36/36 138/138/138
f 93/93/93 38/38/38 48/48/48
f 10/10/10 51/51/51 97/97/97
f 37/37/37 90/90/90 143/143/143
f 143/143/143 90/90/90 39/39/39
f 170/170/170 129/129/129 18/18/18
f 140/140/140 45/45/45 170/170/170
f 129/129/129 70/70/70 18/18/18
f 170/170/170 45/45/45 129/129/129
f 92/92/92 18/18/18 69/69/69
f 38/38/38 92/92/92 50/50/50
f 92/92/92 170/170/170 18/18/18
f 92/92/92 69/69/69 50/50/50
f 38/38/38 140/140/140 92/92/92
f 93/93/93 45/45/45 140/140/140
f 94/94/94 38/38/38 50/50/50
f 48/48/48 38/38/38 141/141/141
f 65/65/65 94/94/94 3/3/3
f 47/47/47 84/84/84 82/82/82
f 21/21/21 141/141/141 65/65/65
f 38/38/38 94/94/94 141/141/141
f 41/41/41 82/82/82 84/84/84
f 65/65/65 141/141/141 94/94/94
f 39/39/39 90/90/90 48/48/48
f 51/51/51 45/45/45 93/93/93
f 23/23/23 122/122/122 172/172/172
f 93/93/93 140/140/140 38/38/38
f 174/174/174 160/160/160 60/60/60
f 90/90/90 10/10/10 97/97/97
f 90/90/90 97/97/97 48/48/48
f 89/89/89 39/39/39 48/48/48
f 48/48/48 141/141/141 89/89/89
f 24/24/24 59/59/59 83/83/83
f 89/89/89 21/21/21 64/64/64
f 21/21/21 89/89/89 141/141/141
f 153/153/153 148/148/148 34/34/34
f 149/149/149 10/10/10 157/157/157
f 6/6/6 91/91/91 64/64/64
f 59/59/59 91/91/91 85/85/85
f 6/6/6 55/55/55 85/85/85
f 24/24/24 83/83/83 54/54/54
f 59/59/59 39/39/39 91/91/91
f 143/143/143 39/39/39 59/59/59
f 24/24/24 143/143/143 59/59/59
f 24/24/24 54/54/54 160/160/160
f 29/29/29 155/155/155 118/118/118
f 163/163/163 28/28/28 63/63/63
f 57/57/57 34/34/34 172/172/172
f 119/119/119 29/29/29 118/118/118
f 103/103/103 131/131/131 155/155/155
f 39/39/39 89/89/89 91/91/91
f 27/27/27 124/124/124 123/123/123
f 61/61/61 123/123/123 124/124/124
f 77/77/77 2/2/2 119/119/119
f 37/37/37 157/157/157 90/90/90
f 37/37/37 143/143/143 24/24/24
f 149/149/149 138/138/138 98/98/98
f 53/53/53 156/156/156 145/145/145
f 135/135/135 72/72/72 17/17/17
f 57/57/57 145/145/145 156/156/156
f 51/51/51 10/10/10 98/98/98
f 159/159/159 172/172/172 34/34/34
f 17/17/17 126/126/126 135/135/135
f 104/104/104 95/95/95 5/5/5
f 60/60/60 160/160/160 169/169/169
f 44/44/44 135/135/135 126/126/126
f 105/105/105 158/158/158 80/80/80
f 57/57/57 95/95/95 104/104/104
f 33/33/33 52/52/52 108/108/108
f 34/34/34 57/57/57 104/104/104
f 57/57/57 156/156/156 95/95/95
f 122/122/122 130/130/130 172/172/172
f 53/53/53 138/138/138 149/149/149
f 9/9/9 125/125/125 117/117/117
f 132/132/132 146/146/146 127/127/127
f 11/11/11 144/144/144 107/107/107
f 103/103/103 44/44/44 25/25/25
f 87/87/87 11/11/11 109/109/109
f 46/46/46 101/101/101 142/142/142
f 80/80/80 110/110/110 104/104/104
f 124/124/124 154/154/154 61/61/61
f 95/95/95 156/156/156 49/49/49
f 11/11/11 148/148/148 144/144/144
f 37/37/37 49/49/49 157/157/157
f 144/144/144 153/153/153 106/106/106
f 60/60/60 95/95/95 49/49/49
f 106/106/106 153/153/153 81/81/81
f 110/110/110 34/34/34 104/104/104
f 77/77/77 119/119/119 118/118/118
f 80/80/80 104/104/104 5/5/5
f 158/158/158 153/153/153 110/110/110
f 121/121/121 171/171/171 80/80/80
f 105/105/105 146/146/146 132/132/132
f 81/81/81 153/153/153 158/158/158
f 158/158/158 110/110/110 80/80/80
f 28/28/28 146/146/146 105/105/105
f 167/167/167 106/106/106 81/81/81
f 108/108/108 52/52/52 8/8/8
f 107/107/107 106/106/106 33/33/33
f 139/139/139 33/33/33 108/108/108
f 96/96/96 164/164/164 43/43/43
f 107/107/107 33/33/33 139/139/139
f 33/33/33 106/106/106 52/52/52
f 74/74/74 108/108/108 8/8/8
f 74/74/74 139/139/139 108/108/108
f 164/164/164 11/11/11 107/107/107
f 173/173/173 156/156/156 53/53/53
f 144/144/144 148/148/148 153/153/153
f 144/144/144 106/106/106 107/107/107
f 111/111/111 5/5/5 60/60/60
f 87/87/87 148/148/148 11/11/11
f 95/95/95 60/60/60 5/5/5
f 88/88/88 56/56/56 40/40/40
f 142/142/142 101/101/101 35/35/35
f 43/43/43 107/107/107 139/139/139
f 96/96/96 162/162/162 100/100/100
f 43/43/43 164/164/164 107/107/107
f 43/43/43 139/139/139 162/162/162
f 56/56/56 166/166/166 122/122/122
f 149/149/149 49/49/49 173/173/173
f 16/16/16 162/162/162 139/139/139
f 35/35/35 101/101/101 96/96/96
f 35/35/35 96/96/96 100/100/100
f 96/96/96 101/101/101 164/164/164
f 96/96/96 43/43/43 162/162/162
f 86/86/86 46/46/46 142/142/142
f 16/16/16 100/100/100 162/162/162
f 102/102/102 35/35/35 100/100/100
f 68/68/68 142/142/142 102/102/102
f 88/88/88 99/99/99 56/56/56
f 142/142/142 35/35/35 102/102/102
f 40/40/40 46/46/46 86/86/86
f 46/46/46 109/109/109 101/101/101
f 19/19/19 86/86/86 142/142/142
f 88/88/88 40/40/40 86/86/86
f 23/23/23 87/87/87 40/40/40
f 87/87/87 46/46/46 40/40/40
f 23/23/23 148/148/148 87/87/87
f 87/87/87 109/109/109 46/46/46
f 49/49/49 149/149/149 157/157/157
f 23/23/23 159/159/159 148/148/148
f 56/56/56 99/99/99 166/166/166
f 56/56/56 122/122/122 40/40/40
f 67/67/67 88/88/88 86/86/86
f 7/7/7 99/99/99 88/88/88
f 7/7/7 70/70/70 99/99/99
f 67/67/67 7/7/7 88/88/88
f 19/19/19 67/67/67 86/86/86
f 68/68/68 19/19/19 142/142/142
f 73/73/73 102/102/102 100/100/100
f 4/4/4 68/68/68 102/102/102
f 73/73/73 4/4/4 102/102/102
f 16/16/16 73/73/73 100/100/100
f 74/74/74 16/16/16 139/139/139
f 154/154/154 150/150/150 61/61/61
f 26/26/26 128/128/128 52/52/52
f 126/126/126 17/17/17 71/71/71
f 155/155/155 168/168/168 79/79/79
f 77/77/77 118/118/118 14/14/14
f 44/44/44 126/126/126 26/26/26
f 167/167/167 132/132/132 26/26/26
f 127/127/127 44/44/44 26/26/26
f 128/128/128 71/71/71 8/8/8
f 128/128/128 8/8/8 52/52/52
f 164/164/164 101/101/101 11/11/11
f 109/109/109 11/11/11 101/101/101
f 25/25/25 44/44/44 127/127/127
f 64/64/64 91/91/91 89/89/89
f 25/25/25 127/127/127 13/13/13
f 115/115/115 75/75/75 30/30/30
f 132/132/132 127/127/127 26/26/26
f 154/154/154 127/127/127 146/146/146
f 131/131/131 13/13/13 168/168/168
f 131/131/131 25/25/25 13/13/13
f 167/167/167 26/26/26 52/52/52
f 105/105/105 132/132/132 167/167/167
f 167/167/167 52/52/52 106/106/106
f 105/105/105 167/167/167 81/81/81
f 105/105/105 81/81/81 158/158/158
f 171/171/171 28/28/28 105/105/105
f 171/171/171 105/105/105 80/80/80
f 29/29/29 119/119/119 135/135/135
f 121/121/121 80/80/80 5/5/5
f 121/121/121 28/28/28 171/171/171
f 121/121/121 5/5/5 111/111/111
f 63/63/63 111/111/111 161/161/161
f 163/163/163 161/161/161 32/32/32
f 163/163/163 150/150/150 28/28/28
f 120/120/120 150/150/150 163/163/163
f 150/150/150 146/146/146 28/28/28
f 163/163/163 63/63/63 161/161/161
f 120/120/120 123/123/123 61/61/61
f 62/62/62 123/123/123 136/136/136
f 53/53/53 145/145/145 130/130/130
f 119/119/119 2/2/2 72/72/72
f 154/154/154 13/13/13 127/127/127
f 154/154/154 146/146/146 150/150/150
f 124/124/124 13/13/13 154/154/154
f 145/145/145 172/172/172 130/130/130
f 125/125/125 27/27/27 62/62/62
f 133/133/133 78/78/78 14/14/14
f 120/120/120 61/61/61 150/150/150
f 123/123/123 32/32/32 136/136/136
f 120/120/120 163/163/163 32/32/32
f 120/120/120 32/32/32 123/123/123
f 125/125/125 62/62/62 117/117/117
f 62/62/62 27/27/27 123/123/123
f 9/9/9 117/117/117 75/75/75
f 26/26/26 126/126/126 128/128/128
f 78/78/78 125/125/125 9/9/9
f 71/71/71 128/128/128 126/126/126
f 118/118/118 133/133/133 14/14/14
f 133/133/133 124/124/124 27/27/27
f 135/135/135 44/44/44 103/103/103
f 155/155/155 131/131/131 168/168/168
f 79/79/79 124/124/124 133/133/133
f 79/79/79 133/133/133 118/118/118
f 168/168/168 13/13/13 124/124/124
f 168/168/168 124/124/124 79/79/79
f 155/155/155 79/79/79 118/118/118
f 103/103/103 25/25/25 131/131/131
f 103/103/103 155/155/155 29/29/29
f 135/135/135 103/103/103 29/29/29
f 172/172/172 145/145/145 57/57/57
f 53/53/53 130/130/130 138/138/138
f 27/27/27 125/125/125 133/133/133
f 93/93/93 97/97/97 51/51/51
f 149/149/149 173/173/173 53/53/53
f 23/23/23 172/172/172 159/159/159
f 160/160/160 174/174/174 24/24/24
f 49/49/49 174/174/174 60/60/60
f 24/24/24 174/174/174 37/37/37
f 49/49/49 37/37/37 174/174/174
