# frame 000605 
# time 0.303000 
# name Cloth3D 
v -0.000000 0.000000 -0.000000
v 1.000000 0.000000 -0.000000
v -0.000000 1.000000 0.000000
v 1.000000 1.000000 0.000000
v 0.500491 0.499847 0.119657
v -0.000000 0.500000 0.000000
v 0.500000 1.000000 0.000000
v 1.000000 0.500000 0.000000
v 0.500000 -0.000000 0.000000
v 0.246787 0.754011 0.069072
v 0.756533 0.755504 0.075576
v 0.245379 0.244836 0.072781
v 0.754263 0.246184 0.070780
v 0.750000 0.000000 0.000000
v 0.250000 0.000000 0.000000
v 1.000000 0.750000 0.000000
v 1.000000 0.250000 0.000000
v 0.250000 1.000000 0.000000
v 0.750000 1.000000 0.000000
v 0.000000 0.250000 0.000000
v 0.000000 0.750000 -0.000000
v 0.362279 0.213416 0.083551
v 0.632352 0.774462 0.081584
v 1.000000 0.937500 0.000000
v 0.684388 0.700925 0.119929
v 0.876651 0.374429 0.044473
v 0.625455 0.123183 0.041930
v 0.631456 0.368379 0.119967
v 0.873342 0.127030 0.000883
v 0.374026 0.120113 0.050001
v 0.124174 0.123630 0.021330
v 0.491883 0.244347 0.094338
v 0.878766 0.626907 0.049542
v 0.631868 0.631556 0.119916
v 0.873192 0.872436 -0.002500
v 0.374095 0.876941 0.043800
v 0.257267 0.602505 0.092639
v 0.125128 0.874898 0.012527
v 0.123558 0.625228 0.040490
v 0.625386 0.875056 0.038925
v 0.123841 0.374097 0.039791
v 0.248457 0.120562 0.042177
v 0.876194 0.749027 0.028693
v 0.876328 0.249408 0.032774
v 0.249295 0.876465 0.032659
v 0.749690 0.873192 0.022891
v 0.123588 0.248698 0.033761
v 0.124744 0.750107 0.028465
v 0.725923 0.616147 0.119941
v 0.124970 0.937528 0.006120
v 0.552752 0.708279 0.119929
v 0.875120 0.500644 0.043446
v 0.425163 0.715393 0.119938
v 0.242863 0.453576 0.090941
v 0.000000 0.375000 0.000000
v 0.499546 0.874205 0.039684
v 0.500504 0.630772 0.119865
v 0.243869 0.370649 0.091329
v 0.122307 0.499653 0.046243
v 0.369796 0.499572 0.119842
v 0.628899 0.244372 0.091008
v 0.499664 0.123968 0.042444
v 0.500165 0.369308 0.119994
v 0.000000 0.625000 0.000000
v 0.000000 0.875000 0.000000
v 0.000000 0.125000 0.000000
v 0.625000 1.000000 0.000000
v 0.875000 1.000000 0.000000
v 0.125000 1.000000 0.000000
v 0.375000 1.000000 0.000000
v 1.000000 0.375000 0.000000
v 1.000000 0.125000 0.000000
v 1.000000 0.875000 0.000000
v 1.000000 0.625000 0.000000
v 0.375000 0.000000 0.000000
v 0.125000 0.000000 0.000000
v 0.875000 0.000000 0.000000
v 0.625000 0.000000 0.000000
v 0.749530 0.125156 0.026338
v 0.631303 0.500060 0.119908
v 0.718894 0.488130 0.119929
v 0.063194 0.312291 0.014148
v 0.183860 0.436023 0.067805
v 0.185028 0.310034 0.058421
v 0.061807 0.437265 0.020969
v 0.687067 0.936055 0.011915
v 0.689177 0.812303 0.053063
v 0.562289 0.936350 0.017036
v 0.062107 0.687310 0.017326
v 0.184919 0.689321 0.057904
v 0.061515 0.562355 0.021758
v 0.187476 0.937830 0.011653
v 0.186545 0.813656 0.036316
v 0.062885 0.937155 -0.003706
v 0.435155 0.565233 0.119787
v 0.873896 0.809994 0.010444
v 0.937500 0.000000 -0.000000
v 0.309612 0.817900 0.066484
v 0.437282 0.936911 0.018588
v 0.936670 0.811204 0.003154
v 0.813624 0.811817 0.030217
v 0.936888 0.936693 -0.003675
v 0.937500 1.000000 0.000000
v 0.566133 0.565529 0.119722
v 0.715294 0.423716 0.119929
v 0.823051 0.594331 0.069628
v 0.820376 0.692245 0.073553
v 0.938879 0.562893 0.024936
v 0.489719 0.711777 0.119934
v 0.691940 0.588468 0.119939
v 0.434819 0.434317 0.119721
v 0.186927 0.060451 0.018745
v 0.062385 0.062376 0.004913
v 0.186082 0.184875 0.040631
v 0.312071 0.059066 0.026113
v 0.309781 0.181500 0.066984
v 0.437073 0.062466 0.019516
v 0.811824 0.063343 0.006010
v 0.936842 0.063170 -0.006120
v 0.556039 0.242994 0.092019
v 0.565898 0.434363 0.119936
v 0.525022 0.804868 0.067039
v 0.563322 0.185039 0.065645
v 0.689596 0.184424 0.059729
v 0.562346 0.061644 0.021752
v 0.938321 0.312539 0.019885
v 0.816799 0.309927 0.064724
v 0.937107 0.437665 0.020187
v 0.312383 0.938221 0.018926
v 0.476666 0.767454 0.091611
v 0.812447 0.187663 0.030574
v 0.804015 0.370222 0.072416
v 0.687366 0.061275 0.020052
v 0.062923 0.124800 0.005812
v 0.937398 0.187762 0.009781
v 0.436097 0.183956 0.067759
v 0.062647 0.187226 0.010965
v 0.382800 0.773347 0.092274
v 0.941516 0.688005 0.027429
v 0.711106 0.359585 0.119929
v 0.063141 0.811983 0.006846
v 0.811826 0.936183 0.004674
v 0.183588 0.563061 0.068300
v 0.774997 0.655496 0.096796
v 0.328325 0.660991 0.119929
v 0.708479 0.299218 0.119942
v 0.309302 0.321513 0.119942
v 0.730699 0.698487 0.119942
v 0.331513 0.720698 0.119942
v 0.486071 0.311782 0.119929
v 0.313995 0.404411 0.119938
v 0.287290 0.324332 0.112464
v 0.324748 0.596965 0.119929
v 0.723985 0.290421 0.110038
v 0.936666 0.873780 -0.002118
v 0.433483 0.640919 0.119784
v 0.276040 0.662065 0.097700
v 0.722235 0.552548 0.119941
v 0.617359 0.704671 0.119929
v 0.317622 0.468936 0.119935
v 0.420580 0.315440 0.119929
v 0.358111 0.285782 0.110447
v 0.549325 0.308249 0.119929
v 0.321136 0.532295 0.119929
v 0.415550 0.250033 0.096507
v 0.423878 0.818552 0.068398
v 0.815033 0.481742 0.069442
v 1.000000 0.062500 -0.000000
v 0.369900 0.413571 0.119884
v 0.772977 0.422480 0.091818
v 0.240317 0.515294 0.090479
v 0.614514 0.304573 0.119936
v 1.000000 0.187500 0.000000
v 0.062500 0.000000 -0.000000
vt 0.000000 0.000000
vt 1.000000 0.000000
vt 0.000000 1.000000
vt 1.000000 1.000000
vt 0.500000 0.500000
vt 0.000000 0.500000
vt 0.500000 1.000000
vt 1.000000 0.500000
vt 0.500000 0.000000
vt 0.250000 0.750000
vt 0.750000 0.750000
vt 0.250000 0.250000
vt 0.750000 0.250000
vt 0.750000 0.000000
vt 0.250000 0.000000
vt 1.000000 0.750000
vt 1.000000 0.250000
vt 0.250000 1.000000
vt 0.750000 1.000000
vt 0.000000 0.250000
vt 0.000000 0.750000
vt 0.365347 0.220303
vt 0.629073 0.770824
vt 1.000000 0.937500
vt 0.674560 0.690085
vt 0.875000 0.375000
vt 0.625000 0.125000
vt 0.625000 0.375000
vt 0.875000 0.125000
vt 0.375000 0.125000
vt 0.125000 0.125000
vt 0.492214 0.250470
vt 0.875000 0.625000
vt 0.625000 0.625000
vt 0.875000 0.875000
vt 0.375000 0.875000
vt 0.262101 0.599801
vt 0.125000 0.875000
vt 0.125000 0.625000
vt 0.625000 0.875000
vt 0.125000 0.375000
vt 0.250000 0.125000
vt 0.875000 0.750000
vt 0.875000 0.250000
vt 0.250000 0.875000
vt 0.750000 0.875000
vt 0.125000 0.250000
vt 0.125000 0.750000
vt 0.714545 0.609897
vt 0.125000 0.937500
vt 0.550119 0.698988
vt 0.875000 0.500000
vt 0.428403 0.705527
vt 0.248222 0.455442
vt 0.000000 0.375000
vt 0.500000 0.875000
vt 0.500000 0.625000
vt 0.250000 0.375000
vt 0.125000 0.500000
vt 0.375000 0.500000
vt 0.625000 0.250000
vt 0.500000 0.125000
vt 0.500000 0.375000
vt 0.000000 0.625000
vt 0.000000 0.875000
vt 0.000000 0.125000
vt 0.625000 1.000000
vt 0.875000 1.000000
vt 0.125000 1.000000
vt 0.375000 1.000000
vt 1.000000 0.375000
vt 1.000000 0.125000
vt 1.000000 0.875000
vt 1.000000 0.625000
vt 0.375000 0.000000
vt 0.125000 0.000000
vt 0.875000 0.000000
vt 0.625000 0.000000
vt 0.750000 0.125000
vt 0.625000 0.500000
vt 0.708907 0.488373
vt 0.062500 0.312500
vt 0.187500 0.437500
vt 0.187500 0.312500
vt 0.062500 0.437500
vt 0.687500 0.937500
vt 0.687500 0.812500
vt 0.562500 0.937500
vt 0.062500 0.687500
vt 0.187500 0.687500
vt 0.062500 0.562500
vt 0.187500 0.937500
vt 0.187500 0.812500
vt 0.062500 0.937500
vt 0.437500 0.562500
vt 0.875000 0.812500
vt 0.937500 0.000000
vt 0.312500 0.812500
vt 0.437500 0.937500
vt 0.937500 0.812500
vt 0.812500 0.812500
vt 0.937500 0.937500
vt 0.937500 1.000000
vt 0.562500 0.562500
vt 0.705318 0.427348
vt 0.819332 0.591237
vt 0.812500 0.687500
vt 0.937500 0.562500
vt 0.489888 0.702308
vt 0.682510 0.583771
vt 0.437500 0.437500
vt 0.187500 0.062500
vt 0.062500 0.062500
vt 0.187500 0.187500
vt 0.312500 0.062500
vt 0.312500 0.187500
vt 0.437500 0.062500
vt 0.812500 0.062500
vt 0.937500 0.062500
vt 0.554454 0.248535
vt 0.562500 0.437500
vt 0.525016 0.804189
vt 0.562500 0.187500
vt 0.687500 0.187500
vt 0.562500 0.062500
vt 0.937500 0.312500
vt 0.812500 0.312500
vt 0.937500 0.437500
vt 0.312500 0.937500
vt 0.477574 0.762067
vt 0.812500 0.187500
vt 0.800716 0.372483
vt 0.687500 0.062500
vt 0.062500 0.125000
vt 0.937500 0.187500
vt 0.437500 0.187500
vt 0.062500 0.187500
vt 0.386728 0.766561
vt 0.937500 0.687500
vt 0.701027 0.367054
vt 0.062500 0.812500
vt 0.812500 0.937500
vt 0.187500 0.562500
vt 0.765906 0.648544
vt 0.336074 0.653703
vt 0.697089 0.311141
vt 0.319137 0.331189
vt 0.717866 0.685897
vt 0.340187 0.709532
vt 0.486694 0.319756
vt 0.322111 0.409123
vt 0.296906 0.332149
vt 0.331867 0.593038
vt 0.713437 0.300753
vt 0.937500 0.875000
vt 0.436137 0.634590
vt 0.281585 0.657008
vt 0.711906 0.549681
vt 0.611617 0.694911
vt 0.325085 0.470711
vt 0.424122 0.323424
vt 0.364019 0.294291
vt 0.547176 0.316652
vt 0.328260 0.531337
vt 0.418341 0.256674
vt 0.425703 0.815414
vt 0.812755 0.481587
vt 1.000000 0.062500
vt 0.375653 0.417988
vt 0.766844 0.424637
vt 0.245672 0.515386
vt 0.609272 0.313807
vt 1.000000 0.187500
vt 0.062500 0.000000
vn -0.028418 -0.056836 0.997979
vn -0.046979 0.046979 0.997791
vn 0.029106 -0.029106 0.999152
vn -0.031078 -0.031078 0.999034
vn -0.000396 0.000556 1.000000
vn -0.328876 -0.003397 0.944367
vn 0.005973 0.271852 0.962320
vn 0.344754 -0.019007 0.938501
vn -0.010474 -0.317559 0.948181
vn -0.335099 0.229269 0.913862
vn 0.255928 0.465277 0.847360
vn -0.288130 -0.229921 0.929579
vn 0.352228 -0.380003 0.855297
vn 0.054026 -0.204218 0.977434
vn -0.027955 -0.356360 0.933931
vn 0.232327 0.097722 0.967716
vn 0.222087 -0.031688 0.974512
vn -0.027506 0.244868 0.969166
vn 0.029970 0.133715 0.990566
vn -0.202215 -0.010591 0.979284
vn -0.193179 0.040782 0.980316
vn -0.038824 -0.341493 0.939082
vn 0.075943 0.456554 0.886449
vn -0.062183 0.000000 0.998065
vn 0.025730 0.255541 0.966456
vn 0.361812 -0.026876 0.931864
vn 0.045865 -0.322897 0.945322
vn 0.000130 -0.000063 1.000000
vn 0.111060 -0.148151 0.982709
vn 0.016976 -0.351564 0.936010
vn -0.202064 -0.103280 0.973911
vn 0.008079 -0.384396 0.923133
vn 0.353434 -0.033559 0.934857
vn -0.000487 -0.000676 1.000000
vn 0.113126 0.112172 0.987228
vn -0.008544 0.390900 0.920394
vn -0.360307 0.045686 0.931714
vn -0.165085 0.125335 0.978283
vn -0.336559 0.063621 0.939511
vn 0.068371 0.357521 0.931399
vn -0.350824 -0.056426 0.934740
vn -0.123624 -0.259512 0.957795
vn 0.270145 0.293057 0.917136
vn 0.255487 -0.172763 0.951251
vn -0.132510 0.283811 0.949680
vn 0.140465 0.257283 0.956073
vn -0.288227 -0.073221 0.954759
vn -0.280671 0.110939 0.953371
vn 0.179758 -0.012574 0.983631
vn -0.125531 0.105793 0.986433
vn 0.015583 0.237081 0.971365
vn 0.364249 -0.022353 0.931033
vn 0.015500 0.248491 0.968510
vn -0.362865 -0.004123 0.931833
vn -0.273083 -0.026499 0.961625
vn 0.026113 0.363921 0.931064
vn -0.000597 -0.001009 0.999999
vn -0.410420 -0.009529 0.911847
vn -0.358992 -0.004809 0.933328
vn 0.001645 0.000025 0.999999
vn 0.021930 -0.435149 0.900091
vn 0.017874 -0.353236 0.935364
vn -0.000653 0.000277 1.000000
vn -0.303607 0.016925 0.952647
vn -0.027547 0.043180 0.998687
vn -0.110376 -0.032604 0.993355
vn 0.017993 0.226483 0.973849
vn 0.027608 -0.007720 0.999589
vn -0.083979 0.093212 0.992098
vn 0.003703 0.289991 0.957022
vn 0.311403 0.000807 0.950278
vn 0.032679 -0.042721 0.998552
vn -0.030254 0.031435 0.999048
vn 0.401075 -0.012088 0.915965
vn 0.029234 -0.368214 0.929281
vn -0.044817 -0.174195 0.983691
vn 0.038776 0.017556 0.999094
vn 0.007799 -0.322438 0.946559
vn 0.162782 -0.264367 0.950585
vn -0.000925 0.000654 0.999999
vn 0.228851 -0.009750 0.973413
vn -0.285485 -0.029534 0.957928
vn -0.370674 -0.029718 0.928288
vn -0.374092 -0.097062 0.922298
vn -0.331319 -0.029232 0.943066
vn 0.055569 0.241026 0.968926
vn 0.151268 0.409630 0.899623
vn 0.012795 0.300678 0.953640
vn -0.269949 0.052637 0.961435
vn -0.347431 0.113406 0.930823
vn -0.335137 0.018641 0.941985
vn -0.076997 0.168163 0.982747
vn -0.235974 0.201891 0.950556
vn -0.075522 0.047767 0.995999
vn 0.000647 -0.000501 1.000000
vn 0.210178 0.248146 0.945647
vn 0.000000 0.093732 0.995597
vn -0.150422 0.396018 0.905838
vn 0.014605 0.318678 0.947751
vn 0.074733 0.141789 0.987072
vn 0.268965 0.310605 0.911692
vn -0.013718 -0.012008 0.999834
vn 0.000000 -0.062009 0.998076
vn -0.000882 -0.000812 0.999999
vn 0.270431 -0.017019 0.962589
vn 0.408115 -0.036063 0.912218
vn 0.416394 0.141925 0.898038
vn 0.354345 -0.029774 0.934641
vn 0.014132 0.243992 0.969674
vn -0.000325 -0.000036 1.000000
vn 0.000688 0.001121 0.999999
vn -0.083016 -0.254683 0.963455
vn -0.091669 -0.061883 0.993865
vn -0.236319 -0.151862 0.959735
vn -0.023330 -0.360583 0.932435
vn -0.112461 -0.289885 0.950431
vn 0.035309 -0.354565 0.934364
vn 0.102407 -0.109372 0.988712
vn -0.013145 0.007935 0.999882
vn 0.018736 -0.405502 0.913902
vn -0.000857 0.001516 0.999999
vn 0.041076 0.437950 0.898061
vn 0.023176 -0.389142 0.920886
vn 0.118441 -0.393666 0.911591
vn -0.000087 -0.322486 0.946574
vn 0.301966 -0.041545 0.952413
vn 0.387658 -0.128848 0.912754
vn 0.335919 -0.006147 0.941871
vn -0.032490 0.298184 0.953955
vn 0.045868 0.466614 0.883271
vn 0.242917 -0.280622 0.928570
vn 0.414676 -0.033646 0.909347
vn 0.061110 -0.265039 0.962299
vn -0.174875 -0.048610 0.983390
vn 0.140736 -0.093536 0.985619
vn 0.037698 -0.368474 0.928874
vn -0.211383 -0.056635 0.975761
vn 0.015105 0.448692 0.893559
vn 0.348012 0.086653 0.933477
vn 0.230401 -0.019305 0.972904
vn -0.170326 0.072239 0.982736
vn 0.084064 0.080091 0.993236
vn -0.354212 0.041290 0.934253
vn 0.457392 -0.021654 0.889002
vn -0.250186 0.014076 0.968095
vn 0.347771 -0.256850 0.901711
vn -0.282427 -0.266729 0.921461
vn 0.202362 0.245879 0.947942
vn -0.186702 0.203210 0.961170
vn -0.006882 -0.164209 0.986402
vn -0.173682 0.009825 0.984753
vn -0.347101 -0.182912 0.919817
vn -0.229178 0.016584 0.973243
vn 0.396626 -0.305356 0.865705
vn -0.021451 0.056148 0.998192
vn -0.000158 -0.000832 1.000000
vn -0.391025 0.058429 0.918524
vn 0.157142 -0.009645 0.987529
vn 0.013751 0.235575 0.971759
vn -0.150371 0.006254 0.988610
vn -0.004399 -0.206197 0.978501
vn -0.056198 -0.343289 0.937547
vn -0.006194 -0.217413 0.976060
vn -0.161868 0.012324 0.986735
vn 0.009330 -0.359984 0.932912
vn 0.048707 0.433895 0.899646
vn 0.430204 -0.012154 0.902650
vn -0.093769 -0.000000 0.995594
vn 0.001428 0.000474 0.999999
vn 0.461223 -0.026138 0.886899
vn -0.352194 0.013096 0.935836
vn -0.005011 -0.227236 0.973827
vn 0.160595 0.000000 0.987020
vn -0.000000 -0.085127 0.996370
f 129/129/129 99/99/99 70/70/70
f 112/112/112 31/31/31 113/113/113
f 170/170/170 132/132/132 167/167/167
f 26/26/26 167/167/167 132/132/132
f 38/38/38 141/141/141 93/93/93
f 160/160/160 54/54/54 151/151/151
f 173/173/173 17/17/17 135/135/135
f 129/129/129 36/36/36 99/99/99
f 114/114/114 47/47/47 31/31/31
f 152/152/152 12/12/12 162/162/162
f 11/11/11 25/25/25 148/148/148
f 80/80/80 110/110/110 104/104/104
f 115/115/115 112/112/112 15/15/15
f 163/163/163 172/172/172 28/28/28
f 114/114/114 42/42/42 12/12/12
f 76/76/76 112/112/112 113/113/113
f 58/58/58 151/151/151 54/54/54
f 15/15/15 112/112/112 76/76/76
f 115/115/115 15/15/15 75/75/75
f 20/20/20 137/137/137 82/82/82
f 88/88/88 56/56/56 40/40/40
f 148/148/148 25/25/25 49/49/49
f 22/22/22 30/30/30 136/136/136
f 47/47/47 82/82/82 137/137/137
f 16/16/16 73/73/73 100/100/100
f 165/165/165 22/22/22 136/136/136
f 21/21/21 64/64/64 89/89/89
f 83/83/83 58/58/58 54/54/54
f 57/57/57 95/95/95 104/104/104
f 116/116/116 30/30/30 22/22/22
f 42/42/42 112/112/112 115/115/115
f 117/117/117 62/62/62 30/30/30
f 140/140/140 105/105/105 28/28/28
f 155/155/155 100/100/100 73/73/73
f 129/129/129 70/70/70 18/18/18
f 63/63/63 28/28/28 121/121/121
f 165/165/165 162/162/162 22/22/22
f 114/114/114 31/31/31 42/42/42
f 150/150/150 165/165/165 32/32/32
f 37/37/37 153/153/153 157/157/157
f 164/164/164 153/153/153 37/37/37
f 149/149/149 138/138/138 98/98/98
f 61/61/61 172/172/172 120/120/120
f 139/139/139 16/16/16 43/43/43
f 32/32/32 165/165/165 136/136/136
f 143/143/143 39/39/39 59/59/59
f 51/51/51 159/159/159 23/23/23
f 142/142/142 46/46/46 35/35/35
f 78/78/78 125/125/125 9/9/9
f 121/121/121 80/80/80 5/5/5
f 60/60/60 95/95/95 153/153/153
f 144/144/144 107/107/107 148/148/148
f 9/9/9 125/125/125 117/117/117
f 130/130/130 53/53/53 109/109/109
f 162/162/162 165/165/165 161/161/161
f 64/64/64 91/91/91 89/89/89
f 60/60/60 169/169/169 111/111/111
f 50/50/50 92/92/92 69/69/69
f 63/63/63 161/161/161 150/150/150
f 25/25/25 159/159/159 34/34/34
f 81/81/81 170/170/170 167/167/167
f 25/25/25 34/34/34 49/49/49
f 84/84/84 152/152/152 58/58/58
f 51/51/51 109/109/109 57/57/57
f 34/34/34 159/159/159 51/51/51
f 11/11/11 148/148/148 107/107/107
f 5/5/5 104/104/104 95/95/95
f 23/23/23 87/87/87 40/40/40
f 38/38/38 94/94/94 141/141/141
f 29/29/29 119/119/119 135/135/135
f 72/72/72 135/135/135 119/119/119
f 84/84/84 12/12/12 152/152/152
f 100/100/100 43/43/43 16/16/16
f 13/13/13 154/154/154 124/124/124
f 14/14/14 118/118/118 133/133/133
f 56/56/56 122/122/122 40/40/40
f 65/65/65 141/141/141 94/94/94
f 20/20/20 66/66/66 137/137/137
f 55/55/55 20/20/20 82/82/82
f 59/59/59 91/91/91 85/85/85
f 65/65/65 21/21/21 141/141/141
f 6/6/6 85/85/85 91/91/91
f 137/137/137 31/31/31 47/47/47
f 58/58/58 83/83/83 84/84/84
f 3/3/3 65/65/65 94/94/94
f 55/55/55 82/82/82 85/85/85
f 92/92/92 18/18/18 69/69/69
f 124/124/124 154/154/154 61/61/61
f 127/127/127 44/44/44 26/26/26
f 167/167/167 106/106/106 158/158/158
f 126/126/126 26/26/26 44/44/44
f 106/106/106 167/167/167 52/52/52
f 157/157/157 90/90/90 37/37/37
f 124/124/124 79/79/79 13/13/13
f 101/101/101 11/11/11 43/43/43
f 81/81/81 167/167/167 158/158/158
f 58/58/58 152/152/152 151/151/151
f 164/164/164 171/171/171 160/160/160
f 155/155/155 35/35/35 100/100/100
f 156/156/156 145/145/145 153/153/153
f 162/162/162 12/12/12 22/22/22
f 116/116/116 22/22/22 12/12/12
f 118/118/118 29/29/29 79/79/79
f 40/40/40 86/86/86 88/88/88
f 149/149/149 98/98/98 10/10/10
f 131/131/131 79/79/79 29/29/29
f 26/26/26 128/128/128 52/52/52
f 23/23/23 11/11/11 87/87/87
f 97/97/97 119/119/119 77/77/77
f 145/145/145 53/53/53 149/149/149
f 41/41/41 84/84/84 83/83/83
f 169/169/169 151/151/151 147/147/147
f 168/168/168 72/72/72 119/119/119
f 169/169/169 60/60/60 160/160/160
f 56/56/56 88/88/88 99/99/99
f 7/7/7 99/99/99 88/88/88
f 164/164/164 160/160/160 60/60/60
f 122/122/122 130/130/130 51/51/51
f 163/163/163 120/120/120 172/172/172
f 169/169/169 147/147/147 161/161/161
f 23/23/23 25/25/25 11/11/11
f 96/96/96 100/100/100 35/35/35
f 1/1/1 174/174/174 113/113/113
f 25/25/25 23/23/23 159/159/159
f 48/48/48 141/141/141 89/89/89
f 21/21/21 89/89/89 141/141/141
f 49/49/49 144/144/144 148/148/148
f 109/109/109 51/51/51 130/130/130
f 6/6/6 91/91/91 64/64/64
f 63/63/63 111/111/111 161/161/161
f 32/32/32 136/136/136 123/123/123
f 6/6/6 55/55/55 85/85/85
f 154/154/154 127/127/127 132/132/132
f 155/155/155 102/102/102 35/35/35
f 143/143/143 90/90/90 39/39/39
f 102/102/102 155/155/155 73/73/73
f 110/110/110 49/49/49 34/34/34
f 160/160/160 151/151/151 169/169/169
f 107/107/107 144/144/144 106/106/106
f 111/111/111 169/169/169 161/161/161
f 87/87/87 46/46/46 40/40/40
f 144/144/144 49/49/49 106/106/106
f 111/111/111 63/63/63 5/5/5
f 150/150/150 161/161/161 165/165/165
f 125/125/125 27/27/27 62/62/62
f 72/72/72 173/173/173 135/135/135
f 37/37/37 90/90/90 143/143/143
f 37/37/37 143/143/143 171/171/171
f 97/97/97 2/2/2 119/119/119
f 157/157/157 10/10/10 90/90/90
f 92/92/92 38/38/38 45/45/45
f 49/49/49 158/158/158 106/106/106
f 145/145/145 157/157/157 153/153/153
f 34/34/34 51/51/51 57/57/57
f 119/119/119 29/29/29 118/118/118
f 90/90/90 48/48/48 39/39/39
f 105/105/105 170/170/170 81/81/81
f 110/110/110 80/80/80 158/158/158
f 156/156/156 57/57/57 109/109/109
f 156/156/156 53/53/53 145/145/145
f 44/44/44 127/127/127 131/131/131
f 93/93/93 45/45/45 38/38/38
f 123/123/123 62/62/62 27/27/27
f 5/5/5 95/95/95 111/111/111
f 95/95/95 57/57/57 156/156/156
f 163/163/163 150/150/150 32/32/32
f 60/60/60 111/111/111 95/95/95
f 166/166/166 56/56/56 36/36/36
f 56/56/56 99/99/99 36/36/36
f 146/146/146 172/172/172 61/61/61
f 34/34/34 57/57/57 104/104/104
f 145/145/145 149/149/149 157/157/157
f 9/9/9 117/117/117 75/75/75
f 78/78/78 133/133/133 125/125/125
f 42/42/42 115/115/115 116/116/116
f 95/95/95 156/156/156 153/153/153
f 82/82/82 47/47/47 41/41/41
f 10/10/10 98/98/98 93/93/93
f 83/83/83 54/54/54 171/171/171
f 96/96/96 43/43/43 100/100/100
f 37/37/37 171/171/171 164/164/164
f 77/77/77 119/119/119 118/118/118
f 94/94/94 69/69/69 3/3/3
f 45/45/45 93/93/93 98/98/98
f 91/91/91 59/59/59 39/39/39
f 84/84/84 41/41/41 47/47/47
f 138/138/138 149/149/149 53/53/53
f 112/112/112 42/42/42 31/31/31
f 63/63/63 163/163/163 28/28/28
f 163/163/163 63/63/63 150/150/150
f 167/167/167 26/26/26 52/52/52
f 136/136/136 30/30/30 62/62/62
f 129/129/129 45/45/45 36/36/36
f 154/154/154 132/132/132 140/140/140
f 80/80/80 104/104/104 5/5/5
f 27/27/27 124/124/124 123/123/123
f 30/30/30 116/116/116 115/115/115
f 53/53/53 130/130/130 138/138/138
f 120/120/120 123/123/123 61/61/61
f 43/43/43 107/107/107 139/139/139
f 81/81/81 158/158/158 80/80/80
f 61/61/61 123/123/123 124/124/124
f 33/33/33 52/52/52 108/108/108
f 166/166/166 36/36/36 138/138/138
f 139/139/139 33/33/33 108/108/108
f 12/12/12 84/84/84 114/114/114
f 33/33/33 106/106/106 52/52/52
f 83/83/83 59/59/59 41/41/41
f 98/98/98 138/138/138 36/36/36
f 103/103/103 68/68/68 102/102/102
f 107/107/107 106/106/106 33/33/33
f 47/47/47 114/114/114 84/84/84
f 158/158/158 49/49/49 110/110/110
f 46/46/46 87/87/87 101/101/101
f 89/89/89 39/39/39 48/48/48
f 166/166/166 138/138/138 130/130/130
f 116/116/116 12/12/12 42/42/42
f 140/140/140 170/170/170 105/105/105
f 149/149/149 10/10/10 157/157/157
f 54/54/54 160/160/160 171/171/171
f 154/154/154 140/140/140 146/146/146
f 140/140/140 132/132/132 170/170/170
f 135/135/135 44/44/44 29/29/29
f 74/74/74 139/139/139 108/108/108
f 4/4/4 103/103/103 102/102/102
f 7/7/7 70/70/70 99/99/99
f 131/131/131 29/29/29 44/44/44
f 90/90/90 10/10/10 48/48/48
f 68/68/68 142/142/142 102/102/102
f 19/19/19 86/86/86 142/142/142
f 142/142/142 35/35/35 102/102/102
f 92/92/92 50/50/50 38/38/38
f 31/31/31 134/134/134 113/113/113
f 46/46/46 142/142/142 86/86/86
f 107/107/107 43/43/43 11/11/11
f 56/56/56 166/166/166 122/122/122
f 11/11/11 101/101/101 87/87/87
f 98/98/98 36/36/36 45/45/45
f 105/105/105 81/81/81 80/80/80
f 152/152/152 162/162/162 147/147/147
f 48/48/48 93/93/93 141/141/141
f 122/122/122 51/51/51 23/23/23
f 66/66/66 1/1/1 113/113/113
f 113/113/113 134/134/134 66/66/66
f 2/2/2 168/168/168 119/119/119
f 131/131/131 13/13/13 79/79/79
f 117/117/117 30/30/30 75/75/75
f 115/115/115 75/75/75 30/30/30
f 67/67/67 7/7/7 88/88/88
f 19/19/19 67/67/67 86/86/86
f 68/68/68 19/19/19 142/142/142
f 93/93/93 48/48/48 10/10/10
f 161/161/161 147/147/147 162/162/162
f 24/24/24 4/4/4 102/102/102
f 73/73/73 24/24/24 102/102/102
f 41/41/41 85/85/85 82/82/82
f 74/74/74 16/16/16 139/139/139
f 8/8/8 74/74/74 108/108/108
f 33/33/33 139/139/139 107/107/107
f 8/8/8 108/108/108 128/128/128
f 86/86/86 40/40/40 46/46/46
f 146/146/146 28/28/28 172/172/172
f 96/96/96 35/35/35 101/101/101
f 121/121/121 5/5/5 63/63/63
f 52/52/52 128/128/128 108/108/108
f 128/128/128 71/71/71 8/8/8
f 85/85/85 41/41/41 59/59/59
f 50/50/50 94/94/94 38/38/38
f 126/126/126 17/17/17 71/71/71
f 62/62/62 117/117/117 125/125/125
f 26/26/26 126/126/126 128/128/128
f 39/39/39 89/89/89 91/91/91
f 71/71/71 128/128/128 126/126/126
f 132/132/132 127/127/127 26/26/26
f 44/44/44 135/135/135 126/126/126
f 174/174/174 76/76/76 113/113/113
f 171/171/171 143/143/143 83/83/83
f 43/43/43 96/96/96 101/101/101
f 27/27/27 125/125/125 133/133/133
f 101/101/101 35/35/35 46/46/46
f 62/62/62 123/123/123 136/136/136
f 146/146/146 61/61/61 154/154/154
f 66/66/66 134/134/134 137/137/137
f 17/17/17 126/126/126 135/135/135
f 79/79/79 133/133/133 118/118/118
f 67/67/67 88/88/88 86/86/86
f 34/34/34 104/104/104 110/110/110
f 120/120/120 163/163/163 32/32/32
f 134/134/134 31/31/31 137/137/137
f 77/77/77 118/118/118 14/14/14
f 60/60/60 153/153/153 164/164/164
f 18/18/18 92/92/92 129/129/129
f 59/59/59 83/83/83 143/143/143
f 14/14/14 133/133/133 78/78/78
f 13/13/13 131/131/131 127/127/127
f 154/154/154 13/13/13 127/127/127
f 45/45/45 129/129/129 92/92/92
f 121/121/121 28/28/28 80/80/80
f 28/28/28 105/105/105 80/80/80
f 94/94/94 50/50/50 69/69/69
f 109/109/109 53/53/53 156/156/156
f 140/140/140 28/28/28 146/146/146
f 147/147/147 151/151/151 152/152/152
f 130/130/130 122/122/122 166/166/166
f 123/123/123 120/120/120 32/32/32
f 122/122/122 23/23/23 40/40/40
f 124/124/124 27/27/27 79/79/79
f 133/133/133 79/79/79 27/27/27
