# frame 000620 
# time 0.310500 
# name Cloth3D 
v -0.000000 0.000000 -0.000000
v 1.000000 0.000000 -0.000000
v -0.000000 1.000000 0.000000
v 1.000000 1.000000 0.000000
v 0.500721 0.500308 0.119657
v -0.000000 0.500000 0.000000
v 0.500000 1.000000 0.000000
v 1.000000 0.500000 0.000000
v 0.500000 -0.000000 0.000000
v 0.246902 0.753891 0.065305
v 0.756708 0.755707 0.075198
v 0.246766 0.246202 0.067822
v 0.756826 0.243991 0.072998
v 0.750000 0.000000 0.000000
v 0.250000 0.000000 0.000000
v 1.000000 0.750000 0.000000
v 1.000000 0.250000 0.000000
v 0.250000 1.000000 0.000000
v 0.750000 1.000000 0.000000
v 0.000000 0.250000 0.000000
v 0.000000 0.750000 -0.000000
v 0.362951 0.214048 0.082380
v 0.632415 0.773810 0.078719
v 1.000000 0.937500 0.000000
v 0.684781 0.706794 0.119929
v 0.874951 0.374849 0.037921
v 0.625842 0.122195 0.044684
v 0.632550 0.368589 0.119967
v 0.873252 0.126887 -0.001997
v 0.374422 0.122256 0.044610
v 0.125687 0.125135 0.010725
v 0.492582 0.246205 0.090031
v 0.878638 0.627031 0.047836
v 0.631823 0.632502 0.119916
v 0.874285 0.873111 0.003983
v 0.374437 0.877168 0.043153
v 0.258155 0.602811 0.089696
v 0.126883 0.873506 0.000293
v 0.124278 0.625222 0.037996
v 0.625254 0.873302 0.032839
v 0.123712 0.374194 0.039490
v 0.248909 0.121833 0.038086
v 0.875597 0.748312 0.026242
v 0.874983 0.250125 0.025040
v 0.250252 0.875445 0.026715
v 0.749627 0.872437 0.018217
v 0.124666 0.249345 0.027968
v 0.125698 0.749675 0.023055
v 0.721657 0.617007 0.119941
v 0.126046 0.936788 -0.003346
v 0.552428 0.709219 0.119929
v 0.875750 0.500882 0.043551
v 0.424375 0.711551 0.119938
v 0.244372 0.453779 0.087045
v 0.000000 0.375000 0.000000
v 0.499490 0.874611 0.039767
v 0.500110 0.631447 0.119865
v 0.244420 0.371063 0.089841
v 0.124505 0.499600 0.040361
v 0.369825 0.499979 0.119842
v 0.630032 0.243144 0.092632
v 0.500182 0.124922 0.039880
v 0.500909 0.369426 0.119994
v 0.000000 0.625000 0.000000
v 0.000000 0.875000 0.000000
v 0.000000 0.125000 0.000000
v 0.625000 1.000000 0.000000
v 0.875000 1.000000 0.000000
v 0.125000 1.000000 0.000000
v 0.375000 1.000000 0.000000
v 1.000000 0.375000 0.000000
v 1.000000 0.125000 0.000000
v 1.000000 0.875000 0.000000
v 1.000000 0.625000 0.000000
v 0.375000 0.000000 0.000000
v 0.125000 0.000000 0.000000
v 0.875000 0.000000 0.000000
v 0.625000 0.000000 0.000000
v 0.749391 0.125467 0.022766
v 0.631786 0.500571 0.119908
v 0.719428 0.488599 0.119929
v 0.063021 0.312484 0.013556
v 0.185503 0.436100 0.063418
v 0.184439 0.310190 0.058319
v 0.062070 0.437322 0.020211
v 0.686956 0.935446 0.008184
v 0.690108 0.814304 0.055418
v 0.562300 0.936686 0.017676
v 0.062807 0.687173 0.014363
v 0.186605 0.688929 0.051562
v 0.062223 0.562348 0.019822
v 0.188210 0.936935 0.005102
v 0.188081 0.812439 0.027163
v 0.063117 0.936992 -0.003288
v 0.434901 0.565717 0.119787
v 0.874283 0.810332 0.012536
v 0.937500 0.000000 -0.000000
v 0.310652 0.815878 0.059552
v 0.437409 0.937738 0.020353
v 0.936969 0.811381 0.005563
v 0.813629 0.811775 0.030332
v 0.937096 0.936869 -0.000879
v 0.937500 1.000000 0.000000
v 0.566161 0.566228 0.119722
v 0.718244 0.423989 0.119929
v 0.823864 0.594529 0.070067
v 0.820180 0.692142 0.071797
v 0.937701 0.563146 0.020884
v 0.489134 0.710356 0.119934
v 0.692084 0.589212 0.119939
v 0.435284 0.434628 0.119721
v 0.187700 0.062094 0.011505
v 0.062896 0.062839 -0.001612
v 0.186784 0.185881 0.036033
v 0.312362 0.060397 0.022933
v 0.310385 0.182454 0.064550
v 0.437543 0.061499 0.022253
v 0.811502 0.063622 0.001602
v 0.936971 0.063040 -0.007552
v 0.556915 0.243323 0.090900
v 0.566550 0.434660 0.119936
v 0.525008 0.805239 0.066582
v 0.563965 0.185033 0.065481
v 0.690302 0.184150 0.058417
v 0.562666 0.062820 0.018489
v 0.937138 0.312925 0.014638
v 0.816019 0.310166 0.059645
v 0.936732 0.437912 0.017950
v 0.312875 0.937529 0.015737
v 0.476339 0.765507 0.086630
v 0.811740 0.188119 0.024824
v 0.805061 0.370329 0.072090
v 0.687659 0.060966 0.020939
v 0.063158 0.125340 0.001701
v 0.936723 0.188265 0.003430
v 0.436771 0.184707 0.066038
v 0.063540 0.188007 0.003881
v 0.382777 0.773276 0.090480
v 0.941402 0.687943 0.026446
v 0.716462 0.359718 0.119929
v 0.063584 0.811698 0.002436
v 0.811846 0.936041 0.002137
v 0.185887 0.562993 0.062064
v 0.773990 0.655835 0.093555
v 0.322969 0.661866 0.119929
v 0.716249 0.306433 0.119942
v 0.316519 0.313746 0.119942
v 0.723483 0.706254 0.119942
v 0.323746 0.713481 0.119942
v 0.486851 0.310788 0.119929
v 0.318266 0.404809 0.119938
v 0.290453 0.325212 0.105226
v 0.321790 0.597548 0.119929
v 0.725250 0.290482 0.108894
v 0.936974 0.873850 -0.002658
v 0.432877 0.641445 0.119784
v 0.276135 0.662529 0.095948
v 0.720355 0.553226 0.119941
v 0.617307 0.708032 0.119929
v 0.319467 0.469239 0.119935
v 0.421101 0.311992 0.119929
v 0.358439 0.286207 0.110602
v 0.550400 0.309625 0.119929
v 0.320603 0.532666 0.119929
v 0.416120 0.251235 0.094130
v 0.424124 0.819204 0.069142
v 0.815780 0.481945 0.069491
v 1.000000 0.062500 -0.000000
v 0.370396 0.414002 0.119884
v 0.771875 0.422731 0.087943
v 0.242886 0.515373 0.083881
v 0.615984 0.308389 0.119936
v 1.000000 0.812500 0.000000
v 0.062500 0.000000 -0.000000
v 0.752460 0.184949 0.046347
vt 0.000000 0.000000
vt 1.000000 0.000000
vt 0.000000 1.000000
vt 1.000000 1.000000
vt 0.500000 0.500000
vt 0.000000 0.500000
vt 0.500000 1.000000
vt 1.000000 0.500000
vt 0.500000 0.000000
vt 0.250000 0.750000
vt 0.750000 0.750000
vt 0.250000 0.250000
vt 0.750000 0.250000
vt 0.750000 0.000000
vt 0.250000 0.000000
vt 1.000000 0.750000
vt 1.000000 0.250000
vt 0.250000 1.000000
vt 0.750000 1.000000
vt 0.000000 0.250000
vt 0.000000 0.750000
vt 0.365347 0.220303
vt 0.629073 0.770824
vt 1.000000 0.937500
vt 0.674870 0.694438
vt 0.875000 0.375000
vt 0.625000 0.125000
vt 0.625000 0.375000
vt 0.875000 0.125000
vt 0.375000 0.125000
vt 0.125000 0.125000
vt 0.492214 0.250470
vt 0.875000 0.625000
vt 0.625000 0.625000
vt 0.875000 0.875000
vt 0.375000 0.875000
vt 0.262101 0.599801
vt 0.125000 0.875000
vt 0.125000 0.625000
vt 0.625000 0.875000
vt 0.125000 0.375000
vt 0.250000 0.125000
vt 0.875000 0.750000
vt 0.875000 0.250000
vt 0.250000 0.875000
vt 0.750000 0.875000
vt 0.125000 0.250000
vt 0.125000 0.750000
vt 0.710442 0.610010
vt 0.125000 0.937500
vt 0.550124 0.699073
vt 0.875000 0.500000
vt 0.428278 0.701494
vt 0.248222 0.455442
vt 0.000000 0.375000
vt 0.500000 0.875000
vt 0.500000 0.625000
vt 0.250000 0.375000
vt 0.125000 0.500000
vt 0.375000 0.500000
vt 0.625000 0.250000
vt 0.500000 0.125000
vt 0.500000 0.375000
vt 0.000000 0.625000
vt 0.000000 0.875000
vt 0.000000 0.125000
vt 0.625000 1.000000
vt 0.875000 1.000000
vt 0.125000 1.000000
vt 0.375000 1.000000
vt 1.000000 0.375000
vt 1.000000 0.125000
vt 1.000000 0.875000
vt 1.000000 0.625000
vt 0.375000 0.000000
vt 0.125000 0.000000
vt 0.875000 0.000000
vt 0.625000 0.000000
vt 0.750000 0.125000
vt 0.625000 0.500000
vt 0.708760 0.488378
vt 0.062500 0.312500
vt 0.187500 0.437500
vt 0.187500 0.312500
vt 0.062500 0.437500
vt 0.687500 0.937500
vt 0.687500 0.812500
vt 0.562500 0.937500
vt 0.062500 0.687500
vt 0.187500 0.687500
vt 0.062500 0.562500
vt 0.187500 0.937500
vt 0.187500 0.812500
vt 0.062500 0.937500
vt 0.437500 0.562500
vt 0.875000 0.812500
vt 0.937500 0.000000
vt 0.312500 0.812500
vt 0.437500 0.937500
vt 0.937500 0.812500
vt 0.812500 0.812500
vt 0.937500 0.937500
vt 0.937500 1.000000
vt 0.562500 0.562500
vt 0.707117 0.427259
vt 0.819332 0.591237
vt 0.812500 0.687500
vt 0.937500 0.562500
vt 0.489816 0.700359
vt 0.682510 0.583771
vt 0.437500 0.437500
vt 0.187500 0.062500
vt 0.062500 0.062500
vt 0.187500 0.187500
vt 0.312500 0.062500
vt 0.312500 0.187500
vt 0.437500 0.062500
vt 0.812500 0.062500
vt 0.937500 0.062500
vt 0.554454 0.248535
vt 0.562500 0.437500
vt 0.525016 0.804189
vt 0.562500 0.187500
vt 0.687500 0.187500
vt 0.562500 0.062500
vt 0.937500 0.312500
vt 0.812500 0.312500
vt 0.937500 0.437500
vt 0.312500 0.937500
vt 0.477574 0.762067
vt 0.812500 0.187500
vt 0.800716 0.372483
vt 0.687500 0.062500
vt 0.062500 0.125000
vt 0.937500 0.187500
vt 0.437500 0.187500
vt 0.062500 0.187500
vt 0.386728 0.766561
vt 0.937500 0.687500
vt 0.704757 0.366842
vt 0.062500 0.812500
vt 0.812500 0.937500
vt 0.187500 0.562500
vt 0.765906 0.648544
vt 0.331999 0.653933
vt 0.702114 0.317342
vt 0.325485 0.323261
vt 0.711054 0.692110
vt 0.333946 0.701997
vt 0.486660 0.318759
vt 0.325802 0.409019
vt 0.296906 0.332149
vt 0.329626 0.593148
vt 0.713437 0.300753
vt 0.937500 0.875000
vt 0.436137 0.634590
vt 0.281585 0.657008
vt 0.709783 0.549746
vt 0.611737 0.697035
vt 0.326726 0.470652
vt 0.423963 0.320021
vt 0.364019 0.294291
vt 0.547219 0.317943
vt 0.327955 0.531347
vt 0.418341 0.256674
vt 0.425703 0.815414
vt 0.812755 0.481587
vt 1.000000 0.062500
vt 0.375653 0.417988
vt 0.766844 0.424637
vt 0.245672 0.515386
vt 0.609355 0.317337
vt 1.000000 0.812500
vt 0.062500 0.000000
vt 0.750000 0.187500
vn 0.006209 0.012418 0.999904
vn -0.059554 0.059554 0.996447
vn 0.026406 -0.026406 0.999303
vn -0.007960 -0.007960 0.999937
vn -0.000394 0.000552 1.000000
vn -0.308126 0.001203 0.951345
vn 0.010714 0.287041 0.957858
vn 0.297595 -0.013154 0.954601
vn 0.014494 -0.310619 0.950424
vn -0.357519 0.264588 0.895641
vn 0.269711 0.460986 0.845428
vn -0.286505 -0.237742 0.928113
vn 0.354096 -0.374425 0.856984
vn 0.076824 -0.178456 0.980944
vn -0.044515 -0.275246 0.960343
vn 0.198673 0.068493 0.977669
vn 0.146075 -0.043821 0.988303
vn -0.041004 0.166789 0.985140
vn 0.022865 0.080419 0.996499
vn -0.179400 -0.035967 0.983119
vn -0.133310 0.047087 0.989955
vn -0.034173 -0.357653 0.933229
vn 0.050188 0.478354 0.876732
vn -0.015948 0.000000 0.999873
vn 0.017688 0.296731 0.954797
vn 0.380891 -0.056438 0.922896
vn 0.040108 -0.324156 0.945153
vn 0.000114 -0.000091 1.000000
vn 0.107435 -0.125302 0.986284
vn 0.010066 -0.347330 0.937689
vn -0.175188 -0.101966 0.979241
vn -0.000745 -0.400144 0.916452
vn 0.371420 -0.032138 0.927909
vn -0.000496 -0.000679 1.000000
vn 0.120766 0.106563 0.986945
vn -0.056502 0.369274 0.927601
vn -0.410891 0.029853 0.911195
vn -0.113655 0.103003 0.988166
vn -0.307889 0.065101 0.949192
vn 0.072674 0.355789 0.931737
vn -0.342510 -0.045912 0.938392
vn -0.154403 -0.268194 0.950911
vn 0.262254 0.264497 0.928043
vn 0.257520 -0.169141 0.951354
vn -0.177979 0.257235 0.949818
vn 0.116949 0.292635 0.949046
vn -0.282540 -0.121764 0.951496
vn -0.260823 0.143218 0.954704
vn 0.164191 -0.001341 0.986428
vn -0.070552 0.006897 0.997484
vn 0.006121 0.259334 0.965768
vn 0.384916 -0.035793 0.922257
vn 0.018810 0.254547 0.966877
vn -0.389786 0.030864 0.920388
vn -0.281258 -0.026389 0.959269
vn 0.059146 0.353118 0.933707
vn -0.000593 -0.001019 0.999999
vn -0.383682 -0.026354 0.923089
vn -0.329442 0.013147 0.944084
vn 0.001663 0.000062 0.999999
vn 0.010295 -0.420082 0.907428
vn 0.009872 -0.346365 0.938048
vn -0.000642 0.000276 1.000000
vn -0.265793 0.021278 0.963795
vn 0.006061 0.023648 0.999702
vn -0.027862 -0.028516 0.999205
vn 0.036968 0.196360 0.979835
vn 0.010361 0.004589 0.999936
vn -0.046179 -0.023931 0.998646
vn -0.015796 0.303072 0.952837
vn 0.252408 -0.010950 0.967559
vn -0.048192 -0.035903 0.998193
vn -0.005473 0.024450 0.999686
vn 0.367994 -0.025247 0.929485
vn 0.005715 -0.347986 0.937482
vn -0.041885 -0.064494 0.997039
vn 0.029585 0.060652 0.997720
vn -0.011336 -0.304646 0.952398
vn 0.209287 -0.276908 0.937828
vn -0.000925 0.000645 0.999999
vn 0.241610 -0.010377 0.970318
vn -0.270281 -0.042690 0.961835
vn -0.365804 0.017888 0.930520
vn -0.357469 -0.128175 0.925088
vn -0.314218 -0.002826 0.949347
vn 0.059700 0.198126 0.978357
vn 0.111321 0.426676 0.897527
vn 0.037368 0.277428 0.960019
vn -0.238613 0.063717 0.969022
vn -0.351323 0.111951 0.929537
vn -0.302287 0.016371 0.953076
vn -0.110909 0.089076 0.989831
vn -0.256061 0.235919 0.937430
vn 0.005396 0.001716 0.999984
vn 0.000632 -0.000496 1.000000
vn 0.194686 0.178390 0.964507
vn 0.000000 0.118688 0.992932
vn -0.190361 0.383829 0.903569
vn 0.020466 0.329162 0.944052
vn 0.090580 0.106455 0.990183
vn 0.250834 0.283947 0.925449
vn 0.006740 -0.008776 0.999939
vn 0.000000 -0.015890 0.999874
vn -0.000878 -0.000816 0.999999
vn 0.324685 -0.008245 0.945786
vn 0.410263 -0.017785 0.911794
vn 0.407147 0.140861 0.902435
vn 0.347949 -0.030096 0.937030
vn 0.005672 0.278765 0.960343
vn -0.000320 -0.000035 1.000000
vn 0.000690 0.001102 0.999999
vn -0.102856 -0.197450 0.974902
vn -0.044531 -0.025104 0.998693
vn -0.260493 -0.180685 0.948418
vn -0.031425 -0.332660 0.942523
vn -0.124639 -0.295454 0.947191
vn 0.021462 -0.325503 0.945297
vn 0.106794 -0.080789 0.990994
vn -0.029812 0.027145 0.999187
vn -0.023284 -0.403234 0.914801
vn -0.000856 0.001508 0.999999
vn 0.041003 0.418354 0.907358
vn -0.007304 -0.383381 0.923561
vn 0.143382 -0.399596 0.905409
vn -0.008790 -0.324386 0.945884
vn 0.246845 -0.051901 0.967664
vn 0.443736 -0.150018 0.883512
vn 0.311210 -0.022450 0.950076
vn -0.074654 0.282103 0.956475
vn 0.036139 0.451793 0.891391
vn 0.287423 -0.297768 0.910342
vn 0.452012 -0.048079 0.890715
vn 0.077019 -0.262022 0.961984
vn -0.090505 -0.042528 0.994987
vn 0.091662 -0.099428 0.990814
vn 0.037348 -0.374173 0.926607
vn -0.144419 -0.073366 0.986793
vn -0.000565 0.435068 0.900397
vn 0.335417 0.085397 0.938191
vn 0.268686 -0.014882 0.963113
vn -0.095133 0.080111 0.992236
vn 0.047143 0.084320 0.995323
vn -0.350468 0.029645 0.936105
vn 0.441390 -0.008764 0.897273
vn -0.305070 0.005589 0.952314
vn 0.453001 -0.217875 0.864477
vn -0.332736 -0.157020 0.929856
vn 0.162633 0.302061 0.939313
vn -0.255074 0.167922 0.952229
vn -0.000896 -0.196018 0.980600
vn -0.176670 0.001149 0.984269
vn -0.455947 -0.064404 0.887674
vn -0.272183 0.009695 0.962197
vn 0.433441 -0.314825 0.844401
vn 0.026308 0.050520 0.998376
vn -0.000170 -0.000903 1.000000
vn -0.450662 0.047360 0.891437
vn 0.151128 -0.004870 0.988502
vn 0.005647 0.271249 0.962493
vn -0.168908 0.005880 0.985614
vn 0.005265 -0.248285 0.968673
vn -0.036618 -0.379895 0.924304
vn -0.007039 -0.227774 0.973689
vn -0.198624 0.005037 0.980063
vn 0.032692 -0.382389 0.923423
vn 0.045901 0.386890 0.920983
vn 0.427909 -0.035857 0.903110
vn -0.118688 -0.000000 0.992932
vn 0.001456 0.000458 0.999999
vn 0.466341 -0.013659 0.884500
vn -0.385222 0.018653 0.922636
vn -0.006941 -0.197707 0.980237
vn 0.084453 0.000000 0.996427
vn -0.000000 0.018632 0.999826
vn 0.256242 -0.389120 0.884831
f 56/56/56 99/99/99 166/166/166
f 112/112/112 31/31/31 113/113/113
f 170/170/170 132/132/132 167/167/167
f 26/26/26 167/167/167 132/132/132
f 41/41/41 83/83/83 85/85/85
f 160/160/160 54/54/54 151/151/151
f 83/83/83 41/41/41 58/58/58
f 36/36/36 166/166/166 99/99/99
f 84/84/84 47/47/47 12/12/12
f 72/72/72 17/17/17 135/135/135
f 11/11/11 25/25/25 148/148/148
f 80/80/80 110/110/110 104/104/104
f 115/115/115 112/112/112 15/15/15
f 163/163/163 172/172/172 28/28/28
f 114/114/114 42/42/42 12/12/12
f 76/76/76 112/112/112 113/113/113
f 58/58/58 151/151/151 54/54/54
f 15/15/15 112/112/112 76/76/76
f 115/115/115 15/15/15 75/75/75
f 82/82/82 41/41/41 55/55/55
f 88/88/88 56/56/56 40/40/40
f 148/148/148 25/25/25 49/49/49
f 22/22/22 30/30/30 136/136/136
f 85/85/85 55/55/55 41/41/41
f 47/47/47 84/84/84 82/82/82
f 165/165/165 22/22/22 136/136/136
f 21/21/21 64/64/64 89/89/89
f 83/83/83 58/58/58 54/54/54
f 57/57/57 95/95/95 104/104/104
f 116/116/116 30/30/30 22/22/22
f 42/42/42 112/112/112 115/115/115
f 117/117/117 62/62/62 30/30/30
f 140/140/140 105/105/105 28/28/28
f 155/155/155 100/100/100 73/73/73
f 129/129/129 70/70/70 18/18/18
f 63/63/63 28/28/28 121/121/121
f 165/165/165 162/162/162 22/22/22
f 114/114/114 31/31/31 42/42/42
f 150/150/150 165/165/165 32/32/32
f 37/37/37 153/153/153 157/157/157
f 164/164/164 153/153/153 37/37/37
f 149/149/149 138/138/138 98/98/98
f 61/61/61 172/172/172 120/120/120
f 139/139/139 16/16/16 43/43/43
f 32/32/32 165/165/165 136/136/136
f 143/143/143 39/39/39 59/59/59
f 51/51/51 159/159/159 23/23/23
f 142/142/142 46/46/46 35/35/35
f 78/78/78 125/125/125 9/9/9
f 121/121/121 80/80/80 5/5/5
f 60/60/60 95/95/95 153/153/153
f 144/144/144 107/107/107 148/148/148
f 9/9/9 125/125/125 117/117/117
f 130/130/130 53/53/53 109/109/109
f 162/162/162 165/165/165 161/161/161
f 64/64/64 91/91/91 89/89/89
f 60/60/60 169/169/169 111/111/111
f 50/50/50 92/92/92 69/69/69
f 63/63/63 161/161/161 150/150/150
f 25/25/25 159/159/159 34/34/34
f 81/81/81 170/170/170 167/167/167
f 25/25/25 34/34/34 49/49/49
f 84/84/84 152/152/152 58/58/58
f 51/51/51 109/109/109 57/57/57
f 34/34/34 159/159/159 51/51/51
f 11/11/11 148/148/148 107/107/107
f 5/5/5 104/104/104 95/95/95
f 23/23/23 87/87/87 40/40/40
f 38/38/38 94/94/94 141/141/141
f 29/29/29 119/119/119 135/135/135
f 72/72/72 135/135/135 119/119/119
f 84/84/84 12/12/12 152/152/152
f 100/100/100 43/43/43 16/16/16
f 13/13/13 154/154/154 124/124/124
f 14/14/14 118/118/118 133/133/133
f 56/56/56 122/122/122 40/40/40
f 65/65/65 141/141/141 94/94/94
f 20/20/20 66/66/66 137/137/137
f 55/55/55 20/20/20 82/82/82
f 59/59/59 91/91/91 85/85/85
f 65/65/65 21/21/21 141/141/141
f 6/6/6 85/85/85 91/91/91
f 114/114/114 12/12/12 47/47/47
f 173/173/173 73/73/73 100/100/100
f 3/3/3 65/65/65 94/94/94
f 141/141/141 48/48/48 38/38/38
f 92/92/92 18/18/18 69/69/69
f 124/124/124 154/154/154 61/61/61
f 127/127/127 44/44/44 26/26/26
f 167/167/167 106/106/106 158/158/158
f 126/126/126 26/26/26 44/44/44
f 106/106/106 167/167/167 52/52/52
f 157/157/157 90/90/90 37/37/37
f 162/162/162 147/147/147 12/12/12
f 101/101/101 11/11/11 43/43/43
f 81/81/81 167/167/167 158/158/158
f 58/58/58 152/152/152 151/151/151
f 164/164/164 171/171/171 160/160/160
f 155/155/155 35/35/35 100/100/100
f 156/156/156 145/145/145 153/153/153
f 162/162/162 12/12/12 22/22/22
f 116/116/116 22/22/22 12/12/12
f 118/118/118 29/29/29 79/79/79
f 40/40/40 86/86/86 88/88/88
f 149/149/149 98/98/98 10/10/10
f 131/131/131 79/79/79 29/29/29
f 26/26/26 128/128/128 52/52/52
f 23/23/23 11/11/11 87/87/87
f 97/97/97 119/119/119 77/77/77
f 145/145/145 53/53/53 149/149/149
f 16/16/16 173/173/173 100/100/100
f 169/169/169 151/151/151 147/147/147
f 168/168/168 72/72/72 119/119/119
f 169/169/169 60/60/60 160/160/160
f 45/45/45 98/98/98 129/129/129
f 36/36/36 129/129/129 98/98/98
f 164/164/164 160/160/160 60/60/60
f 122/122/122 130/130/130 51/51/51
f 163/163/163 120/120/120 172/172/172
f 169/169/169 147/147/147 161/161/161
f 23/23/23 25/25/25 11/11/11
f 96/96/96 100/100/100 35/35/35
f 1/1/1 174/174/174 113/113/113
f 25/25/25 23/23/23 159/159/159
f 48/48/48 141/141/141 89/89/89
f 21/21/21 89/89/89 141/141/141
f 49/49/49 144/144/144 148/148/148
f 109/109/109 51/51/51 130/130/130
f 6/6/6 91/91/91 64/64/64
f 63/63/63 111/111/111 161/161/161
f 32/32/32 136/136/136 123/123/123
f 6/6/6 55/55/55 85/85/85
f 154/154/154 127/127/127 132/132/132
f 155/155/155 102/102/102 35/35/35
f 143/143/143 90/90/90 39/39/39
f 102/102/102 155/155/155 73/73/73
f 110/110/110 49/49/49 34/34/34
f 160/160/160 151/151/151 169/169/169
f 107/107/107 144/144/144 106/106/106
f 111/111/111 169/169/169 161/161/161
f 87/87/87 46/46/46 40/40/40
f 144/144/144 49/49/49 106/106/106
f 111/111/111 63/63/63 5/5/5
f 150/150/150 161/161/161 165/165/165
f 125/125/125 27/27/27 62/62/62
f 84/84/84 58/58/58 41/41/41
f 37/37/37 90/90/90 143/143/143
f 37/37/37 143/143/143 171/171/171
f 97/97/97 2/2/2 119/119/119
f 157/157/157 10/10/10 90/90/90
f 92/92/92 38/38/38 45/45/45
f 49/49/49 158/158/158 106/106/106
f 145/145/145 157/157/157 153/153/153
f 34/34/34 51/51/51 57/57/57
f 119/119/119 29/29/29 118/118/118
f 90/90/90 48/48/48 39/39/39
f 105/105/105 170/170/170 81/81/81
f 110/110/110 80/80/80 158/158/158
f 156/156/156 57/57/57 109/109/109
f 156/156/156 53/53/53 145/145/145
f 44/44/44 127/127/127 131/131/131
f 93/93/93 45/45/45 38/38/38
f 123/123/123 62/62/62 27/27/27
f 5/5/5 95/95/95 111/111/111
f 95/95/95 57/57/57 156/156/156
f 163/163/163 150/150/150 32/32/32
f 60/60/60 111/111/111 95/95/95
f 133/133/133 79/79/79 27/27/27
f 124/124/124 27/27/27 79/79/79
f 146/146/146 172/172/172 61/61/61
f 34/34/34 57/57/57 104/104/104
f 145/145/145 149/149/149 157/157/157
f 9/9/9 117/117/117 75/75/75
f 78/78/78 133/133/133 125/125/125
f 42/42/42 115/115/115 116/116/116
f 95/95/95 156/156/156 153/153/153
f 30/30/30 115/115/115 117/117/117
f 10/10/10 98/98/98 93/93/93
f 83/83/83 54/54/54 171/171/171
f 96/96/96 43/43/43 100/100/100
f 37/37/37 171/171/171 164/164/164
f 77/77/77 119/119/119 118/118/118
f 94/94/94 69/69/69 3/3/3
f 45/45/45 93/93/93 98/98/98
f 91/91/91 59/59/59 39/39/39
f 75/75/75 117/117/117 115/115/115
f 138/138/138 149/149/149 53/53/53
f 112/112/112 42/42/42 31/31/31
f 63/63/63 163/163/163 28/28/28
f 163/163/163 63/63/63 150/150/150
f 167/167/167 26/26/26 52/52/52
f 136/136/136 30/30/30 62/62/62
f 99/99/99 70/70/70 36/36/36
f 154/154/154 132/132/132 140/140/140
f 80/80/80 104/104/104 5/5/5
f 27/27/27 124/124/124 123/123/123
f 30/30/30 116/116/116 115/115/115
f 53/53/53 130/130/130 138/138/138
f 120/120/120 123/123/123 61/61/61
f 43/43/43 107/107/107 139/139/139
f 81/81/81 158/158/158 80/80/80
f 61/61/61 123/123/123 124/124/124
f 33/33/33 52/52/52 108/108/108
f 166/166/166 36/36/36 138/138/138
f 139/139/139 33/33/33 108/108/108
f 82/82/82 20/20/20 47/47/47
f 33/33/33 106/106/106 52/52/52
f 175/175/175 13/13/13 124/124/124
f 98/98/98 138/138/138 36/36/36
f 103/103/103 68/68/68 102/102/102
f 107/107/107 106/106/106 33/33/33
f 137/137/137 47/47/47 20/20/20
f 158/158/158 49/49/49 110/110/110
f 46/46/46 87/87/87 101/101/101
f 89/89/89 39/39/39 48/48/48
f 166/166/166 138/138/138 130/130/130
f 116/116/116 12/12/12 42/42/42
f 140/140/140 170/170/170 105/105/105
f 149/149/149 10/10/10 157/157/157
f 54/54/54 160/160/160 171/171/171
f 154/154/154 140/140/140 146/146/146
f 140/140/140 132/132/132 170/170/170
f 135/135/135 44/44/44 29/29/29
f 74/74/74 139/139/139 108/108/108
f 4/4/4 103/103/103 102/102/102
f 7/7/7 70/70/70 99/99/99
f 131/131/131 29/29/29 44/44/44
f 90/90/90 10/10/10 48/48/48
f 68/68/68 142/142/142 102/102/102
f 19/19/19 86/86/86 142/142/142
f 142/142/142 35/35/35 102/102/102
f 92/92/92 50/50/50 38/38/38
f 31/31/31 134/134/134 113/113/113
f 46/46/46 142/142/142 86/86/86
f 107/107/107 43/43/43 11/11/11
f 56/56/56 166/166/166 122/122/122
f 11/11/11 101/101/101 87/87/87
f 129/129/129 36/36/36 70/70/70
f 105/105/105 81/81/81 80/80/80
f 41/41/41 82/82/82 84/84/84
f 59/59/59 85/85/85 83/83/83
f 122/122/122 51/51/51 23/23/23
f 66/66/66 1/1/1 113/113/113
f 113/113/113 134/134/134 66/66/66
f 2/2/2 168/168/168 119/119/119
f 152/152/152 12/12/12 147/147/147
f 47/47/47 137/137/137 114/114/114
f 31/31/31 114/114/114 137/137/137
f 67/67/67 7/7/7 88/88/88
f 19/19/19 67/67/67 86/86/86
f 68/68/68 19/19/19 142/142/142
f 93/93/93 48/48/48 10/10/10
f 161/161/161 147/147/147 162/162/162
f 24/24/24 4/4/4 102/102/102
f 73/73/73 24/24/24 102/102/102
f 93/93/93 38/38/38 48/48/48
f 74/74/74 16/16/16 139/139/139
f 8/8/8 74/74/74 108/108/108
f 33/33/33 139/139/139 107/107/107
f 8/8/8 108/108/108 128/128/128
f 86/86/86 40/40/40 46/46/46
f 146/146/146 28/28/28 172/172/172
f 96/96/96 35/35/35 101/101/101
f 121/121/121 5/5/5 63/63/63
f 52/52/52 128/128/128 108/108/108
f 128/128/128 71/71/71 8/8/8
f 79/79/79 175/175/175 124/124/124
f 50/50/50 94/94/94 38/38/38
f 126/126/126 17/17/17 71/71/71
f 62/62/62 117/117/117 125/125/125
f 26/26/26 126/126/126 128/128/128
f 39/39/39 89/89/89 91/91/91
f 71/71/71 128/128/128 126/126/126
f 132/132/132 127/127/127 26/26/26
f 44/44/44 135/135/135 126/126/126
f 174/174/174 76/76/76 113/113/113
f 7/7/7 99/99/99 88/88/88
f 43/43/43 96/96/96 101/101/101
f 27/27/27 125/125/125 133/133/133
f 101/101/101 35/35/35 46/46/46
f 62/62/62 123/123/123 136/136/136
f 146/146/146 61/61/61 154/154/154
f 66/66/66 134/134/134 137/137/137
f 17/17/17 126/126/126 135/135/135
f 79/79/79 133/133/133 118/118/118
f 67/67/67 88/88/88 86/86/86
f 34/34/34 104/104/104 110/110/110
f 120/120/120 163/163/163 32/32/32
f 134/134/134 31/31/31 137/137/137
f 77/77/77 118/118/118 14/14/14
f 60/60/60 153/153/153 164/164/164
f 18/18/18 92/92/92 129/129/129
f 56/56/56 88/88/88 99/99/99
f 14/14/14 133/133/133 78/78/78
f 13/13/13 131/131/131 127/127/127
f 154/154/154 13/13/13 127/127/127
f 45/45/45 129/129/129 92/92/92
f 121/121/121 28/28/28 80/80/80
f 28/28/28 105/105/105 80/80/80
f 94/94/94 50/50/50 69/69/69
f 109/109/109 53/53/53 156/156/156
f 140/140/140 28/28/28 146/146/146
f 147/147/147 151/151/151 152/152/152
f 130/130/130 122/122/122 166/166/166
f 123/123/123 120/120/120 32/32/32
f 122/122/122 23/23/23 40/40/40
f 13/13/13 175/175/175 131/131/131
f 175/175/175 79/79/79 131/131/131
f 143/143/143 59/59/59 171/171/171
f 83/83/83 171/171/171 59/59/59
