# frame 000628 
# time 0.314500 
# name Cloth3D 
v -0.000000 0.000000 -0.000000
v 1.000000 0.000000 -0.000000
v -0.000000 1.000000 0.000000
v 1.000000 1.000000 0.000000
v 0.501142 0.500844 0.119657
v -0.000000 0.500000 0.000000
v 0.500000 1.000000 0.000000
v 1.000000 0.500000 0.000000
v 0.500000 -0.000000 0.000000
v 0.246508 0.754423 0.064605
v 0.757190 0.757326 0.077743
v 0.246898 0.246310 0.066640
v 0.757703 0.243675 0.073725
v 0.750000 0.000000 0.000000
v 0.250000 0.000000 0.000000
v 1.000000 0.750000 0.000000
v 1.000000 0.250000 0.000000
v 0.250000 1.000000 0.000000
v 0.750000 1.000000 0.000000
v 0.000000 0.250000 0.000000
v 0.000000 0.750000 -0.000000
v 0.363232 0.215026 0.080579
v 0.632676 0.774882 0.080162
v 1.000000 0.937500 0.000000
v 0.813824 0.248702 0.042184
v 0.874960 0.375150 0.036514
v 0.626202 0.122569 0.043333
v 0.633671 0.369045 0.119967
v 0.873533 0.126474 -0.001758
v 0.374751 0.123354 0.042203
v 0.126316 0.125791 0.005511
v 0.493219 0.247362 0.088444
v 0.878539 0.626840 0.047540
v 0.632097 0.633091 0.119916
v 0.874767 0.873943 0.008327
v 0.374377 0.877594 0.043470
v 0.258527 0.603197 0.088691
v 0.127161 0.873260 -0.004488
v 0.124786 0.625223 0.036576
v 0.625144 0.872811 0.031125
v 0.123803 0.374306 0.039941
v 0.249298 0.122772 0.034126
v 0.875562 0.749133 0.027355
v 0.874279 0.250535 0.021401
v 0.250502 0.875055 0.023498
v 0.749894 0.872989 0.019353
v 0.125720 0.250056 0.024265
v 0.126114 0.749524 0.020522
v 0.719474 0.617278 0.119941
v 0.126171 0.936861 -0.006896
v 0.552534 0.709824 0.119929
v 0.876274 0.500856 0.044291
v 0.424302 0.709595 0.119938
v 0.245401 0.454212 0.085246
v 0.000000 0.375000 0.000000
v 0.499670 0.875511 0.041665
v 0.500281 0.631918 0.119865
v 0.245980 0.371469 0.086977
v 0.125506 0.499644 0.037730
v 0.370132 0.500524 0.119842
v 0.631159 0.244829 0.089834
v 0.500491 0.125075 0.039988
v 0.501617 0.369948 0.119994
v 0.000000 0.625000 0.000000
v 0.000000 0.875000 0.000000
v 0.000000 0.125000 0.000000
v 0.625000 1.000000 0.000000
v 0.875000 1.000000 0.000000
v 0.125000 1.000000 0.000000
v 0.375000 1.000000 0.000000
v 1.000000 0.375000 0.000000
v 1.000000 0.125000 0.000000
v 1.000000 0.875000 0.000000
v 1.000000 0.625000 0.000000
v 0.375000 0.000000 0.000000
v 0.125000 0.000000 0.000000
v 0.875000 0.000000 0.000000
v 0.625000 0.000000 0.000000
v 0.750087 0.124944 0.023892
v 0.632132 0.500993 0.119908
v 0.719813 0.489012 0.119929
v 0.062671 0.312579 0.015282
v 0.186295 0.436367 0.061925
v 0.184695 0.310295 0.058290
v 0.062342 0.437332 0.019615
v 0.687047 0.935659 0.009212
v 0.689985 0.814104 0.054283
v 0.562427 0.936966 0.018408
v 0.062973 0.687124 0.013533
v 0.187141 0.689025 0.049401
v 0.062674 0.562310 0.018606
v 0.188357 0.936664 0.002144
v 0.188617 0.811837 0.022818
v 0.063261 0.936960 -0.003335
v 0.435106 0.566251 0.119787
v 0.874718 0.811339 0.015873
v 0.937500 0.000000 -0.000000
v 0.310752 0.815533 0.057112
v 0.437482 0.938568 0.022444
v 0.937193 0.811774 0.007374
v 0.813834 0.812683 0.032402
v 0.937276 0.937086 -0.000066
v 0.873785 0.188607 0.009552
v 0.566437 0.566764 0.119722
v 0.719921 0.424334 0.119929
v 0.824313 0.594382 0.070748
v 0.819035 0.691948 0.069495
v 0.937220 0.563071 0.019399
v 0.489180 0.709695 0.119934
v 0.692144 0.589618 0.119939
v 0.435803 0.435198 0.119721
v 0.187971 0.062573 0.008137
v 0.063012 0.062963 -0.004993
v 0.187021 0.186304 0.033681
v 0.312547 0.061105 0.020792
v 0.310772 0.183504 0.061542
v 0.437738 0.061502 0.022745
v 0.811533 0.063475 0.000120
v 0.937095 0.062887 -0.007321
v 0.557721 0.244100 0.090086
v 0.567189 0.435114 0.119936
v 0.525169 0.805738 0.066971
v 0.564578 0.184306 0.067994
v 0.691246 0.183632 0.059775
v 0.562785 0.062706 0.018678
v 0.936592 0.313098 0.012358
v 0.815502 0.310484 0.056787
v 0.937076 0.437941 0.018405
v 0.312942 0.937514 0.014953
v 0.476564 0.767101 0.088959
v 0.812372 0.187697 0.025081
v 0.805152 0.370470 0.070389
v 0.687745 0.061159 0.019748
v 0.063294 0.125563 -0.000013
v 0.936472 0.188423 0.000753
v 0.437195 0.185548 0.065045
v 0.063788 0.188320 0.001818
v 0.382775 0.772886 0.088468
v 0.940489 0.687838 0.024491
v 0.188631 0.874124 0.010898
v 0.063662 0.811670 0.001284
v 0.811954 0.936093 0.001419
v 0.187389 0.563081 0.058238
v 0.774532 0.655622 0.094091
v 0.319975 0.662452 0.119929
v 0.720281 0.310398 0.119942
v 0.320486 0.309716 0.119942
v 0.719516 0.710284 0.119942
v 0.319716 0.709514 0.119942
v 0.487533 0.310168 0.119929
v 0.320414 0.405206 0.119938
v 0.291378 0.325551 0.103443
v 0.320083 0.598067 0.119929
v 0.726834 0.290342 0.110267
v 0.937000 0.874148 -0.000655
v 0.432902 0.641881 0.119784
v 0.276237 0.663010 0.095378
v 0.719447 0.553618 0.119941
v 0.617433 0.709935 0.119929
v 0.320326 0.469717 0.119935
v 0.421428 0.310057 0.119929
v 0.874589 0.312564 0.030110
v 0.551262 0.310275 0.119929
v 0.320193 0.533159 0.119929
v 0.416685 0.251918 0.093745
v 0.424084 0.818880 0.067461
v 0.816263 0.482085 0.069861
v 1.000000 0.062500 -0.000000
v 0.370847 0.414418 0.119884
v 0.773236 0.423019 0.089299
v 0.244049 0.515748 0.081559
v 0.616985 0.310352 0.119936
v 1.000000 0.812500 0.000000
v 0.062500 0.000000 -0.000000
v 0.752686 0.185395 0.045162
v 0.186137 0.751876 0.042481
vt 0.000000 0.000000
vt 1.000000 0.000000
vt 0.000000 1.000000
vt 1.000000 1.000000
vt 0.500000 0.500000
vt 0.000000 0.500000
vt 0.500000 1.000000
vt 1.000000 0.500000
vt 0.500000 0.000000
vt 0.250000 0.750000
vt 0.750000 0.750000
vt 0.250000 0.250000
vt 0.750000 0.250000
vt 0.750000 0.000000
vt 0.250000 0.000000
vt 1.000000 0.750000
vt 1.000000 0.250000
vt 0.250000 1.000000
vt 0.750000 1.000000
vt 0.000000 0.250000
vt 0.000000 0.750000
vt 0.365347 0.220303
vt 0.629073 0.770824
vt 1.000000 0.937500
vt 0.812500 0.250000
vt 0.875000 0.375000
vt 0.625000 0.125000
vt 0.625000 0.375000
vt 0.875000 0.125000
vt 0.375000 0.125000
vt 0.125000 0.125000
vt 0.492214 0.250470
vt 0.875000 0.625000
vt 0.625000 0.625000
vt 0.875000 0.875000
vt 0.375000 0.875000
vt 0.262101 0.599801
vt 0.125000 0.875000
vt 0.125000 0.625000
vt 0.625000 0.875000
vt 0.125000 0.375000
vt 0.250000 0.125000
vt 0.875000 0.750000
vt 0.875000 0.250000
vt 0.250000 0.875000
vt 0.750000 0.875000
vt 0.125000 0.250000
vt 0.125000 0.750000
vt 0.708429 0.610010
vt 0.125000 0.937500
vt 0.550126 0.699221
vt 0.875000 0.500000
vt 0.428271 0.699322
vt 0.248222 0.455442
vt 0.000000 0.375000
vt 0.500000 0.875000
vt 0.500000 0.625000
vt 0.250000 0.375000
vt 0.125000 0.500000
vt 0.375000 0.500000
vt 0.625000 0.250000
vt 0.500000 0.125000
vt 0.500000 0.375000
vt 0.000000 0.625000
vt 0.000000 0.875000
vt 0.000000 0.125000
vt 0.625000 1.000000
vt 0.875000 1.000000
vt 0.125000 1.000000
vt 0.375000 1.000000
vt 1.000000 0.375000
vt 1.000000 0.125000
vt 1.000000 0.875000
vt 1.000000 0.625000
vt 0.375000 0.000000
vt 0.125000 0.000000
vt 0.875000 0.000000
vt 0.625000 0.000000
vt 0.750000 0.125000
vt 0.625000 0.500000
vt 0.708753 0.488379
vt 0.062500 0.312500
vt 0.187500 0.437500
vt 0.187500 0.312500
vt 0.062500 0.437500
vt 0.687500 0.937500
vt 0.687500 0.812500
vt 0.562500 0.937500
vt 0.062500 0.687500
vt 0.187500 0.687500
vt 0.062500 0.562500
vt 0.187500 0.937500
vt 0.187500 0.812500
vt 0.062500 0.937500
vt 0.437500 0.562500
vt 0.875000 0.812500
vt 0.937500 0.000000
vt 0.312500 0.812500
vt 0.437500 0.937500
vt 0.937500 0.812500
vt 0.812500 0.812500
vt 0.937500 0.937500
vt 0.875000 0.187500
vt 0.562500 0.562500
vt 0.707942 0.427236
vt 0.819332 0.591237
vt 0.812500 0.687500
vt 0.937500 0.562500
vt 0.489805 0.699437
vt 0.682510 0.583771
vt 0.437500 0.437500
vt 0.187500 0.062500
vt 0.062500 0.062500
vt 0.187500 0.187500
vt 0.312500 0.062500
vt 0.312500 0.187500
vt 0.437500 0.062500
vt 0.812500 0.062500
vt 0.937500 0.062500
vt 0.554454 0.248535
vt 0.562500 0.437500
vt 0.525016 0.804189
vt 0.562500 0.187500
vt 0.687500 0.187500
vt 0.562500 0.062500
vt 0.937500 0.312500
vt 0.812500 0.312500
vt 0.937500 0.437500
vt 0.312500 0.937500
vt 0.477574 0.762067
vt 0.812500 0.187500
vt 0.800716 0.372483
vt 0.687500 0.062500
vt 0.062500 0.125000
vt 0.937500 0.187500
vt 0.437500 0.187500
vt 0.062500 0.187500
vt 0.386728 0.766561
vt 0.937500 0.687500
vt 0.187500 0.875000
vt 0.062500 0.812500
vt 0.812500 0.937500
vt 0.187500 0.562500
vt 0.765906 0.648544
vt 0.329531 0.654013
vt 0.705497 0.320775
vt 0.329059 0.319253
vt 0.706944 0.695996
vt 0.330560 0.697773
vt 0.486652 0.317740
vt 0.327403 0.409018
vt 0.296906 0.332149
vt 0.328121 0.593187
vt 0.713437 0.300753
vt 0.937500 0.875000
vt 0.436137 0.634590
vt 0.281585 0.657008
vt 0.708811 0.549753
vt 0.611777 0.698338
vt 0.327212 0.470647
vt 0.423923 0.317929
vt 0.875000 0.312500
vt 0.547220 0.318082
vt 0.327451 0.531356
vt 0.418341 0.256674
vt 0.425703 0.815414
vt 0.812755 0.481587
vt 1.000000 0.062500
vt 0.375653 0.417988
vt 0.766844 0.424637
vt 0.245672 0.515386
vt 0.609351 0.318688
vt 1.000000 0.812500
vt 0.062500 0.000000
vt 0.750000 0.187500
vt 0.187500 0.750000
vn 0.024286 0.048572 0.998524
vn -0.058423 0.058423 0.996581
vn 0.025895 -0.025895 0.999329
vn -0.001596 -0.000798 0.999998
vn -0.000393 0.000550 1.000000
vn -0.294283 0.003937 0.955710
vn 0.016049 0.309232 0.950851
vn 0.287546 -0.004688 0.957755
vn 0.016689 -0.310046 0.950575
vn -0.362565 0.265290 0.893402
vn 0.285861 0.444988 0.848687
vn -0.294203 -0.258390 0.920152
vn 0.393678 -0.357832 0.846743
vn 0.078948 -0.158040 0.984272
vn -0.049883 -0.231973 0.971442
vn 0.207384 0.056293 0.976639
vn 0.105298 -0.045636 0.993393
vn -0.049683 0.136197 0.989435
vn 0.029575 0.080504 0.996315
vn -0.132112 -0.051698 0.989886
vn -0.116216 0.048288 0.992049
vn -0.041499 -0.375065 0.926069
vn 0.043832 0.491812 0.869598
vn -0.005713 -0.003327 0.999978
vn 0.404042 -0.241621 0.882252
vn 0.371282 -0.078581 0.925189
vn 0.041986 -0.342121 0.938717
vn 0.000072 -0.000118 1.000000
vn 0.131009 -0.130429 0.982764
vn -0.026997 -0.339299 0.940291
vn -0.154044 -0.110866 0.981824
vn -0.002150 -0.401604 0.915811
vn 0.381180 -0.012907 0.924411
vn -0.000542 -0.000735 1.000000
vn 0.128485 0.118238 0.984638
vn -0.071334 0.354219 0.932438
vn -0.435479 0.023777 0.899885
vn -0.116887 0.105855 0.987488
vn -0.292034 0.060642 0.954484
vn 0.075422 0.347577 0.934613
vn -0.332476 -0.030066 0.942632
vn -0.151000 -0.258909 0.954026
vn 0.267675 0.227364 0.936299
vn 0.275281 -0.173815 0.945520
vn -0.192119 0.227755 0.954577
vn 0.101326 0.296576 0.949619
vn -0.290570 -0.145962 0.945656
vn -0.268036 0.164973 0.949179
vn 0.151610 -0.000195 0.988440
vn -0.046259 -0.032646 0.998396
vn 0.004341 0.252301 0.967639
vn 0.391994 -0.036913 0.919227
vn 0.006254 0.238644 0.971087
vn -0.396937 0.031999 0.917288
vn -0.286210 -0.017845 0.958001
vn 0.060532 0.339849 0.938530
vn -0.000591 -0.001026 0.999999
vn -0.381282 -0.025695 0.924102
vn -0.315735 0.023013 0.948568
vn 0.001663 0.000081 0.999999
vn 0.015656 -0.405860 0.913801
vn 0.011518 -0.352976 0.935562
vn -0.000641 0.000290 1.000000
vn -0.249074 0.019987 0.968278
vn 0.015232 0.018499 0.999713
vn 0.005201 -0.034982 0.999374
vn 0.036834 0.209284 0.977161
vn 0.006277 0.010074 0.999930
vn -0.029443 -0.071656 0.996995
vn -0.027582 0.309562 0.950479
vn 0.236997 -0.021966 0.971262
vn -0.064228 -0.026532 0.997582
vn 0.016060 0.032044 0.999357
vn 0.340441 -0.024062 0.939958
vn -0.005589 -0.337182 0.941423
vn -0.041670 -0.009566 0.999086
vn 0.024070 0.069116 0.997318
vn -0.006990 -0.297106 0.954819
vn 0.211209 -0.276498 0.937518
vn -0.000926 0.000641 0.999999
vn 0.238555 -0.004833 0.971117
vn -0.265949 -0.075704 0.961010
vn -0.357536 0.026388 0.933526
vn -0.348146 -0.138102 0.927212
vn -0.305061 0.007603 0.952303
vn 0.057319 0.193880 0.979349
vn 0.102920 0.450402 0.886874
vn 0.047988 0.276677 0.959764
vn -0.223435 0.066148 0.972472
vn -0.355111 0.104378 0.928979
vn -0.286717 0.014282 0.957909
vn -0.139212 0.071679 0.987665
vn -0.268828 0.247994 0.930715
vn 0.037796 -0.015832 0.999160
vn 0.000622 -0.000494 1.000000
vn 0.196337 0.151077 0.968828
vn 0.000000 0.116461 0.993195
vn -0.203001 0.382811 0.901247
vn 0.012389 0.335157 0.942081
vn 0.116987 0.095487 0.988532
vn 0.235367 0.274417 0.932361
vn 0.024075 0.003152 0.999705
vn 0.186589 -0.185717 0.964725
vn -0.000878 -0.000817 0.999999
vn 0.315975 -0.000001 0.948768
vn 0.413371 -0.004010 0.910554
vn 0.418610 0.138863 0.897487
vn 0.350325 -0.022950 0.936347
vn 0.000073 0.254175 0.967158
vn -0.000320 -0.000035 1.000000
vn 0.000689 0.001088 0.999999
vn -0.108285 -0.160695 0.981046
vn -0.021113 -0.009319 0.999734
vn -0.256185 -0.196258 0.946495
vn -0.042465 -0.299101 0.953276
vn -0.138854 -0.319823 0.937247
vn 0.014904 -0.325051 0.945579
vn 0.105737 -0.085253 0.990733
vn -0.031294 0.030276 0.999052
vn -0.021622 -0.382795 0.923580
vn -0.000855 0.001505 0.999999
vn 0.044609 0.425895 0.903672
vn -0.006072 -0.366780 0.930288
vn 0.151938 -0.400055 0.903809
vn -0.007253 -0.319300 0.947626
vn 0.237599 -0.072687 0.968640
vn 0.449637 -0.157226 0.879265
vn 0.308666 -0.028483 0.950744
vn -0.090531 0.270072 0.958575
vn 0.024216 0.454794 0.890267
vn 0.301742 -0.268594 0.914773
vn 0.473232 -0.069514 0.878191
vn 0.075767 -0.261684 0.962175
vn -0.048015 -0.052165 0.997484
vn 0.088862 -0.106634 0.990319
vn 0.025833 -0.369709 0.928788
vn -0.114440 -0.061111 0.991549
vn -0.019761 0.435128 0.900152
vn 0.328639 0.073463 0.941594
vn -0.219990 0.160103 0.962274
vn -0.064878 0.082978 0.994437
vn 0.039700 0.105384 0.993639
vn -0.354565 0.026571 0.934654
vn 0.443154 0.017380 0.896277
vn -0.338690 -0.000681 0.940898
vn 0.278747 -0.260857 0.924259
vn -0.362494 -0.119876 0.924245
vn 0.245981 0.264038 0.932618
vn -0.290237 0.144861 0.945927
vn 0.004548 -0.214155 0.976789
vn -0.182150 -0.003800 0.983263
vn -0.468755 -0.058020 0.881421
vn -0.292714 0.006428 0.956178
vn 0.320301 -0.331943 0.887255
vn 0.063720 0.059886 0.996169
vn -0.000177 -0.000948 1.000000
vn -0.478967 0.039971 0.876923
vn 0.147270 -0.002451 0.989093
vn -0.000010 0.272615 0.962123
vn -0.177125 0.003817 0.984181
vn -0.000081 -0.248525 0.968625
vn 0.343984 -0.112040 0.932267
vn -0.006301 -0.236442 0.971625
vn -0.214329 0.000378 0.976762
vn 0.027464 -0.396093 0.917800
vn 0.030760 0.388914 0.920760
vn 0.430029 -0.040865 0.901890
vn -0.116440 -0.000000 0.993198
vn 0.001470 0.000450 0.999999
vn 0.477369 -0.020321 0.878468
vn -0.403890 0.019965 0.914590
vn 0.000343 -0.204371 0.978894
vn 0.112990 0.000000 0.993596
vn -0.000000 0.072791 0.997347
vn 0.264868 -0.387699 0.882912
vn -0.341987 0.200745 0.918012
f 56/56/56 99/99/99 166/166/166
f 112/112/112 31/31/31 113/113/113
f 170/170/170 132/132/132 167/167/167
f 26/26/26 167/167/167 132/132/132
f 41/41/41 83/83/83 85/85/85
f 160/160/160 54/54/54 151/151/151
f 83/83/83 41/41/41 58/58/58
f 36/36/36 166/166/166 99/99/99
f 84/84/84 47/47/47 12/12/12
f 72/72/72 17/17/17 135/135/135
f 127/127/127 25/25/25 44/44/44
f 80/80/80 110/110/110 104/104/104
f 115/115/115 112/112/112 15/15/15
f 163/163/163 172/172/172 28/28/28
f 140/140/140 45/45/45 92/92/92
f 76/76/76 112/112/112 113/113/113
f 58/58/58 151/151/151 54/54/54
f 15/15/15 112/112/112 76/76/76
f 115/115/115 15/15/15 75/75/75
f 82/82/82 41/41/41 55/55/55
f 88/88/88 56/56/56 40/40/40
f 25/25/25 127/127/127 13/13/13
f 22/22/22 30/30/30 136/136/136
f 85/85/85 55/55/55 41/41/41
f 47/47/47 84/84/84 82/82/82
f 165/165/165 22/22/22 136/136/136
f 21/21/21 64/64/64 89/89/89
f 83/83/83 58/58/58 54/54/54
f 57/57/57 95/95/95 104/104/104
f 116/116/116 30/30/30 22/22/22
f 42/42/42 112/112/112 115/115/115
f 26/26/26 162/162/162 126/126/126
f 165/165/165 147/147/147 22/22/22
f 155/155/155 100/100/100 73/73/73
f 129/129/129 70/70/70 18/18/18
f 63/63/63 28/28/28 121/121/121
f 162/162/162 26/26/26 127/127/127
f 114/114/114 31/31/31 42/42/42
f 150/150/150 165/165/165 32/32/32
f 37/37/37 153/153/153 157/157/157
f 164/164/164 153/153/153 37/37/37
f 149/149/149 138/138/138 98/98/98
f 61/61/61 172/172/172 120/120/120
f 139/139/139 16/16/16 43/43/43
f 32/32/32 165/165/165 136/136/136
f 143/143/143 39/39/39 59/59/59
f 51/51/51 159/159/159 23/23/23
f 142/142/142 46/46/46 35/35/35
f 78/78/78 125/125/125 9/9/9
f 121/121/121 80/80/80 5/5/5
f 60/60/60 95/95/95 153/153/153
f 144/144/144 107/107/107 148/148/148
f 176/176/176 10/10/10 93/93/93
f 130/130/130 53/53/53 109/109/109
f 44/44/44 162/162/162 127/127/127
f 64/64/64 91/91/91 89/89/89
f 60/60/60 169/169/169 111/111/111
f 50/50/50 92/92/92 69/69/69
f 63/63/63 161/161/161 150/150/150
f 131/131/131 25/25/25 13/13/13
f 81/81/81 170/170/170 167/167/167
f 45/45/45 140/140/140 93/93/93
f 84/84/84 152/152/152 58/58/58
f 51/51/51 109/109/109 57/57/57
f 34/34/34 159/159/159 51/51/51
f 11/11/11 148/148/148 107/107/107
f 5/5/5 104/104/104 95/95/95
f 23/23/23 87/87/87 40/40/40
f 38/38/38 94/94/94 141/141/141
f 29/29/29 119/119/119 135/135/135
f 72/72/72 135/135/135 119/119/119
f 84/84/84 12/12/12 152/152/152
f 100/100/100 43/43/43 16/16/16
f 13/13/13 154/154/154 124/124/124
f 14/14/14 118/118/118 133/133/133
f 56/56/56 122/122/122 40/40/40
f 65/65/65 141/141/141 94/94/94
f 20/20/20 66/66/66 137/137/137
f 55/55/55 20/20/20 82/82/82
f 59/59/59 91/91/91 85/85/85
f 65/65/65 21/21/21 141/141/141
f 6/6/6 85/85/85 91/91/91
f 114/114/114 12/12/12 47/47/47
f 173/173/173 73/73/73 100/100/100
f 3/3/3 65/65/65 94/94/94
f 141/141/141 48/48/48 38/38/38
f 92/92/92 18/18/18 69/69/69
f 124/124/124 154/154/154 61/61/61
f 4/4/4 68/68/68 102/102/102
f 167/167/167 106/106/106 158/158/158
f 103/103/103 29/29/29 135/135/135
f 106/106/106 167/167/167 52/52/52
f 157/157/157 90/90/90 37/37/37
f 44/44/44 103/103/103 135/135/135
f 101/101/101 11/11/11 43/43/43
f 81/81/81 167/167/167 158/158/158
f 58/58/58 152/152/152 151/151/151
f 164/164/164 171/171/171 160/160/160
f 155/155/155 35/35/35 100/100/100
f 156/156/156 145/145/145 153/153/153
f 23/23/23 148/148/148 11/11/11
f 116/116/116 22/22/22 12/12/12
f 118/118/118 29/29/29 79/79/79
f 40/40/40 86/86/86 88/88/88
f 149/149/149 98/98/98 10/10/10
f 131/131/131 79/79/79 29/29/29
f 26/26/26 128/128/128 52/52/52
f 23/23/23 11/11/11 87/87/87
f 97/97/97 119/119/119 77/77/77
f 145/145/145 53/53/53 149/149/149
f 16/16/16 173/173/173 100/100/100
f 169/169/169 151/151/151 147/147/147
f 168/168/168 72/72/72 119/119/119
f 169/169/169 60/60/60 160/160/160
f 45/45/45 98/98/98 129/129/129
f 36/36/36 129/129/129 98/98/98
f 164/164/164 160/160/160 60/60/60
f 122/122/122 130/130/130 51/51/51
f 163/163/163 120/120/120 172/172/172
f 169/169/169 147/147/147 161/161/161
f 25/25/25 131/131/131 44/44/44
f 96/96/96 100/100/100 35/35/35
f 1/1/1 174/174/174 113/113/113
f 140/140/140 38/38/38 93/93/93
f 48/48/48 141/141/141 89/89/89
f 21/21/21 89/89/89 141/141/141
f 49/49/49 144/144/144 148/148/148
f 109/109/109 51/51/51 130/130/130
f 6/6/6 91/91/91 64/64/64
f 63/63/63 111/111/111 161/161/161
f 32/32/32 136/136/136 123/123/123
f 6/6/6 55/55/55 85/85/85
f 154/154/154 127/127/127 132/132/132
f 155/155/155 102/102/102 35/35/35
f 143/143/143 90/90/90 39/39/39
f 83/83/83 171/171/171 59/59/59
f 110/110/110 49/49/49 34/34/34
f 160/160/160 151/151/151 169/169/169
f 107/107/107 144/144/144 106/106/106
f 111/111/111 169/169/169 161/161/161
f 87/87/87 46/46/46 40/40/40
f 144/144/144 49/49/49 106/106/106
f 111/111/111 63/63/63 5/5/5
f 150/150/150 161/161/161 165/165/165
f 125/125/125 27/27/27 62/62/62
f 84/84/84 58/58/58 41/41/41
f 37/37/37 90/90/90 143/143/143
f 37/37/37 143/143/143 171/171/171
f 97/97/97 2/2/2 119/119/119
f 157/157/157 10/10/10 90/90/90
f 73/73/73 24/24/24 155/155/155
f 49/49/49 158/158/158 106/106/106
f 145/145/145 157/157/157 153/153/153
f 34/34/34 51/51/51 57/57/57
f 119/119/119 29/29/29 118/118/118
f 90/90/90 48/48/48 39/39/39
f 105/105/105 170/170/170 81/81/81
f 110/110/110 80/80/80 158/158/158
f 156/156/156 57/57/57 109/109/109
f 156/156/156 53/53/53 145/145/145
f 42/42/42 116/116/116 114/114/114
f 102/102/102 155/155/155 24/24/24
f 123/123/123 62/62/62 27/27/27
f 5/5/5 95/95/95 111/111/111
f 95/95/95 57/57/57 156/156/156
f 163/163/163 150/150/150 32/32/32
f 60/60/60 111/111/111 95/95/95
f 133/133/133 79/79/79 27/27/27
f 124/124/124 27/27/27 79/79/79
f 146/146/146 172/172/172 61/61/61
f 34/34/34 57/57/57 104/104/104
f 145/145/145 149/149/149 157/157/157
f 9/9/9 117/117/117 75/75/75
f 78/78/78 133/133/133 125/125/125
f 148/148/148 34/34/34 49/49/49
f 95/95/95 156/156/156 153/153/153
f 30/30/30 115/115/115 117/117/117
f 10/10/10 98/98/98 93/93/93
f 83/83/83 54/54/54 171/171/171
f 96/96/96 43/43/43 100/100/100
f 37/37/37 171/171/171 164/164/164
f 77/77/77 119/119/119 118/118/118
f 94/94/94 69/69/69 3/3/3
f 45/45/45 93/93/93 98/98/98
f 91/91/91 59/59/59 39/39/39
f 75/75/75 117/117/117 115/115/115
f 138/138/138 149/149/149 53/53/53
f 112/112/112 42/42/42 31/31/31
f 63/63/63 163/163/163 28/28/28
f 163/163/163 63/63/63 150/150/150
f 167/167/167 26/26/26 52/52/52
f 162/162/162 44/44/44 126/126/126
f 99/99/99 70/70/70 36/36/36
f 62/62/62 136/136/136 117/117/117
f 80/80/80 104/104/104 5/5/5
f 27/27/27 124/124/124 123/123/123
f 148/148/148 23/23/23 159/159/159
f 53/53/53 130/130/130 138/138/138
f 120/120/120 123/123/123 61/61/61
f 43/43/43 107/107/107 139/139/139
f 81/81/81 158/158/158 80/80/80
f 61/61/61 123/123/123 124/124/124
f 33/33/33 52/52/52 108/108/108
f 166/166/166 36/36/36 138/138/138
f 139/139/139 33/33/33 108/108/108
f 132/132/132 170/170/170 146/146/146
f 33/33/33 106/106/106 52/52/52
f 175/175/175 13/13/13 124/124/124
f 98/98/98 138/138/138 36/36/36
f 29/29/29 103/103/103 131/131/131
f 107/107/107 106/106/106 33/33/33
f 105/105/105 146/146/146 170/170/170
f 158/158/158 49/49/49 110/110/110
f 46/46/46 87/87/87 101/101/101
f 89/89/89 39/39/39 48/48/48
f 166/166/166 138/138/138 130/130/130
f 38/38/38 140/140/140 92/92/92
f 148/148/148 159/159/159 34/34/34
f 149/149/149 10/10/10 157/157/157
f 54/54/54 160/160/160 171/171/171
f 30/30/30 117/117/117 136/136/136
f 147/147/147 12/12/12 22/22/22
f 116/116/116 42/42/42 30/30/30
f 74/74/74 139/139/139 108/108/108
f 103/103/103 44/44/44 131/131/131
f 7/7/7 70/70/70 99/99/99
f 115/115/115 30/30/30 42/42/42
f 47/47/47 82/82/82 137/137/137
f 68/68/68 142/142/142 102/102/102
f 19/19/19 86/86/86 142/142/142
f 142/142/142 35/35/35 102/102/102
f 92/92/92 50/50/50 38/38/38
f 31/31/31 134/134/134 113/113/113
f 46/46/46 142/142/142 86/86/86
f 107/107/107 43/43/43 11/11/11
f 56/56/56 166/166/166 122/122/122
f 11/11/11 101/101/101 87/87/87
f 129/129/129 36/36/36 70/70/70
f 105/105/105 81/81/81 80/80/80
f 41/41/41 82/82/82 84/84/84
f 59/59/59 85/85/85 83/83/83
f 122/122/122 51/51/51 23/23/23
f 66/66/66 1/1/1 113/113/113
f 113/113/113 134/134/134 66/66/66
f 2/2/2 168/168/168 119/119/119
f 152/152/152 12/12/12 147/147/147
f 47/47/47 137/137/137 114/114/114
f 31/31/31 114/114/114 137/137/137
f 67/67/67 7/7/7 88/88/88
f 19/19/19 67/67/67 86/86/86
f 68/68/68 19/19/19 142/142/142
f 20/20/20 137/137/137 82/82/82
f 154/154/154 132/132/132 146/146/146
f 24/24/24 4/4/4 102/102/102
f 143/143/143 59/59/59 171/171/171
f 93/93/93 38/38/38 48/48/48
f 74/74/74 16/16/16 139/139/139
f 8/8/8 74/74/74 108/108/108
f 33/33/33 139/139/139 107/107/107
f 8/8/8 108/108/108 128/128/128
f 86/86/86 40/40/40 46/46/46
f 146/146/146 28/28/28 172/172/172
f 96/96/96 35/35/35 101/101/101
f 121/121/121 5/5/5 63/63/63
f 52/52/52 128/128/128 108/108/108
f 128/128/128 71/71/71 8/8/8
f 79/79/79 175/175/175 124/124/124
f 50/50/50 94/94/94 38/38/38
f 126/126/126 17/17/17 71/71/71
f 48/48/48 176/176/176 93/93/93
f 26/26/26 126/126/126 128/128/128
f 39/39/39 89/89/89 91/91/91
f 71/71/71 128/128/128 126/126/126
f 132/132/132 127/127/127 26/26/26
f 44/44/44 135/135/135 126/126/126
f 174/174/174 76/76/76 113/113/113
f 7/7/7 99/99/99 88/88/88
f 43/43/43 96/96/96 101/101/101
f 27/27/27 125/125/125 133/133/133
f 101/101/101 35/35/35 46/46/46
f 62/62/62 123/123/123 136/136/136
f 146/146/146 61/61/61 154/154/154
f 66/66/66 134/134/134 137/137/137
f 17/17/17 126/126/126 135/135/135
f 79/79/79 133/133/133 118/118/118
f 67/67/67 88/88/88 86/86/86
f 34/34/34 104/104/104 110/110/110
f 120/120/120 163/163/163 32/32/32
f 134/134/134 31/31/31 137/137/137
f 77/77/77 118/118/118 14/14/14
f 60/60/60 153/153/153 164/164/164
f 18/18/18 92/92/92 129/129/129
f 56/56/56 88/88/88 99/99/99
f 14/14/14 133/133/133 78/78/78
f 12/12/12 114/114/114 116/116/116
f 154/154/154 13/13/13 127/127/127
f 45/45/45 129/129/129 92/92/92
f 121/121/121 28/28/28 80/80/80
f 28/28/28 105/105/105 80/80/80
f 94/94/94 50/50/50 69/69/69
f 109/109/109 53/53/53 156/156/156
f 147/147/147 165/165/165 161/161/161
f 147/147/147 151/151/151 152/152/152
f 130/130/130 122/122/122 166/166/166
f 123/123/123 120/120/120 32/32/32
f 122/122/122 23/23/23 40/40/40
f 13/13/13 175/175/175 131/131/131
f 175/175/175 79/79/79 131/131/131
f 105/105/105 28/28/28 146/146/146
f 10/10/10 176/176/176 90/90/90
f 176/176/176 48/48/48 90/90/90
f 125/125/125 62/62/62 9/9/9
f 117/117/117 9/9/9 62/62/62
