# frame 000694 
# time 0.347500 
# name Cloth3D 
v -0.000000 0.000000 -0.000000
v 1.000000 0.000000 -0.000000
v -0.000000 1.000000 0.000000
v 1.000000 1.000000 0.000000
v 0.498213 0.496771 0.121234
v -0.000000 0.500000 0.000000
v 0.500000 1.000000 0.000000
v 1.000000 0.500000 0.000000
v 0.500000 -0.000000 0.000000
v 0.245393 0.754541 0.070815
v 0.755782 0.757465 0.088121
v 0.246632 0.247676 0.061390
v 0.755166 0.245161 0.081884
v 0.750000 0.000000 0.000000
v 0.250000 0.000000 0.000000
v 1.000000 0.750000 0.000000
v 1.000000 0.250000 0.000000
v 0.250000 1.000000 0.000000
v 0.750000 1.000000 0.000000
v 0.000000 0.250000 0.000000
v 0.000000 0.750000 -0.000000
v 0.361642 0.215938 0.076218
v 0.632037 0.780136 0.096943
v 0.240273 0.514593 0.088239
v 0.817730 0.246433 0.065547
v 0.879779 0.373164 0.056008
v 0.625272 0.123188 0.044859
v 0.629966 0.366730 0.129315
v 0.876606 0.123348 0.026688
v 0.374076 0.123506 0.040205
v 0.125173 0.125709 0.011321
v 0.490348 0.246008 0.093351
v 0.878030 0.626004 0.050503
v 0.628741 0.628254 0.116331
v 0.876628 0.877385 0.027901
v 0.374072 0.878908 0.047404
v 0.256378 0.601791 0.091385
v 0.124987 0.874932 0.012656
v 0.123399 0.625156 0.039592
v 0.626336 0.884317 0.063120
v 0.124633 0.374046 0.036359
v 0.249932 0.125550 0.023350
v 0.878688 0.752666 0.046450
v 0.880296 0.247513 0.049587
v 0.248627 0.877433 0.035833
v 0.752905 0.883272 0.056662
v 0.122699 0.249097 0.032973
v 0.123171 0.750772 0.033090
v 0.319709 0.595537 0.114879
v 0.125257 0.937176 0.003050
v 0.247416 0.815905 0.052713
v 0.878223 0.499415 0.053269
v 0.425620 0.721577 0.107076
v 0.242579 0.452892 0.089936
v 0.000000 0.375000 0.000000
v 0.500258 0.879174 0.051256
v 0.498770 0.627831 0.117663
v 0.244832 0.370147 0.087773
v 0.123336 0.499246 0.042432
v 0.368000 0.497512 0.120947
v 0.627610 0.246143 0.091104
v 0.499545 0.124069 0.043362
v 0.497653 0.366572 0.129315
v 0.000000 0.625000 0.000000
v 0.000000 0.875000 0.000000
v 0.000000 0.125000 0.000000
v 0.625000 1.000000 0.000000
v 0.875000 1.000000 0.000000
v 0.125000 1.000000 0.000000
v 0.375000 1.000000 0.000000
v 1.000000 0.375000 0.000000
v 1.000000 0.125000 0.000000
v 1.000000 0.875000 0.000000
v 1.000000 0.625000 0.000000
v 0.375000 0.000000 0.000000
v 0.125000 0.000000 0.000000
v 0.875000 0.000000 0.000000
v 0.625000 0.000000 0.000000
v 0.751002 0.123151 0.038754
v 0.629071 0.497226 0.121140
v 0.767453 0.514833 0.101539
v 0.062840 0.312418 0.013927
v 0.184644 0.435535 0.064599
v 0.182915 0.309934 0.060699
v 0.062358 0.437124 0.018841
v 0.688363 0.943431 0.033369
v 0.691103 0.822572 0.083402
v 0.562715 0.942426 0.032215
v 0.062003 0.687400 0.017170
v 0.183451 0.689435 0.060136
v 0.061702 0.562201 0.020748
v 0.187459 0.937671 0.010662
v 0.185253 0.814507 0.039874
v 0.062705 0.937289 0.000353
v 0.433515 0.562518 0.119277
v 0.877164 0.815193 0.037615
v 0.184267 0.752251 0.051433
v 0.309904 0.817313 0.064197
v 0.437523 0.939087 0.024039
v 0.939672 0.813516 0.022700
v 0.816754 0.818509 0.059415
v 0.937331 0.937396 0.003436
v 0.877398 0.186130 0.034853
v 0.563645 0.562387 0.120820
v 0.720145 0.422232 0.125830
v 0.823640 0.592235 0.073383
v 0.818108 0.691015 0.074599
v 0.937869 0.562464 0.023457
v 0.754751 0.821311 0.075376
v 0.688693 0.585456 0.116609
v 0.432297 0.431584 0.124956
v 0.187954 0.063609 0.002990
v 0.062635 0.062683 0.003162
v 0.187499 0.188774 0.025824
v 0.312881 0.063588 0.010858
v 0.311001 0.186396 0.051302
v 0.437338 0.061807 0.021438
v 0.813064 0.060244 0.022158
v 0.937131 0.062822 0.002154
v 0.554663 0.243680 0.093653
v 0.563663 0.431662 0.125201
v 0.525256 0.811848 0.082751
v 0.562651 0.185341 0.067547
v 0.689527 0.183854 0.066543
v 0.562413 0.063271 0.018192
v 0.941100 0.311724 0.029188
v 0.820266 0.308293 0.080236
v 0.940527 0.437011 0.029914
v 0.312454 0.937705 0.017142
v 0.476509 0.768612 0.091930
v 0.815708 0.184525 0.050409
v 0.808401 0.368296 0.089734
v 0.687588 0.060640 0.023901
v 0.062501 0.125250 0.005784
v 0.939435 0.186782 0.020785
v 0.435614 0.185381 0.065603
v 0.061747 0.187408 0.012598
v 0.383299 0.773546 0.089622
v 0.940428 0.688112 0.027793
v 0.186795 0.875812 0.023893
v 0.062162 0.812441 0.011108
v 0.813644 0.941346 0.025313
v 0.184515 0.562539 0.063809
v 0.771966 0.652219 0.092685
v 0.320073 0.531336 0.118898
v 0.720725 0.323782 0.132040
v 0.320933 0.322099 0.132041
v 0.718995 0.722855 0.107095
v 0.319167 0.721111 0.107069
v 0.612945 0.323459 0.132025
v 0.320685 0.402855 0.126945
v 0.286792 0.323495 0.110786
v 0.719498 0.613026 0.113893
v 0.721930 0.292499 0.113581
v 0.813855 0.122912 0.034230
v 0.324714 0.270406 0.094709
v 0.275887 0.661159 0.093638
v 0.719401 0.538800 0.118517
v 0.613901 0.722398 0.107088
v 0.320438 0.467110 0.122919
v 0.417440 0.322675 0.132016
v 0.938720 0.750747 0.021570
v 0.547456 0.323219 0.132017
v 0.816731 0.754672 0.065897
v 0.414087 0.251520 0.094853
v 0.424179 0.822003 0.074730
v 0.818056 0.480168 0.080568
v 0.752438 0.185083 0.057248
v 0.367253 0.411302 0.126372
v 0.249707 0.938417 0.016858
v 0.629452 0.432027 0.125198
v 0.550241 0.722120 0.107084
v 0.410428 0.666711 0.114321
v 0.673656 0.674749 0.112184
vt 0.000000 0.000000
vt 1.000000 0.000000
vt 0.000000 1.000000
vt 1.000000 1.000000
vt 0.500000 0.500000
vt 0.000000 0.500000
vt 0.500000 1.000000
vt 1.000000 0.500000
vt 0.500000 0.000000
vt 0.250000 0.750000
vt 0.750000 0.750000
vt 0.250000 0.250000
vt 0.750000 0.250000
vt 0.750000 0.000000
vt 0.250000 0.000000
vt 1.000000 0.750000
vt 1.000000 0.250000
vt 0.250000 1.000000
vt 0.750000 1.000000
vt 0.000000 0.250000
vt 0.000000 0.750000
vt 0.365347 0.220303
vt 0.629073 0.770824
vt 0.245672 0.515386
vt 0.812500 0.250000
vt 0.875000 0.375000
vt 0.625000 0.125000
vt 0.625000 0.375000
vt 0.875000 0.125000
vt 0.375000 0.125000
vt 0.125000 0.125000
vt 0.492214 0.250470
vt 0.875000 0.625000
vt 0.625000 0.625000
vt 0.875000 0.875000
vt 0.375000 0.875000
vt 0.262101 0.599801
vt 0.125000 0.875000
vt 0.125000 0.625000
vt 0.625000 0.875000
vt 0.125000 0.375000
vt 0.250000 0.125000
vt 0.875000 0.750000
vt 0.875000 0.250000
vt 0.250000 0.875000
vt 0.750000 0.875000
vt 0.125000 0.250000
vt 0.125000 0.750000
vt 0.327302 0.593106
vt 0.125000 0.937500
vt 0.250000 0.812500
vt 0.875000 0.500000
vt 0.428800 0.714675
vt 0.248222 0.455442
vt 0.000000 0.375000
vt 0.500000 0.875000
vt 0.500000 0.625000
vt 0.250000 0.375000
vt 0.125000 0.500000
vt 0.375000 0.500000
vt 0.625000 0.250000
vt 0.500000 0.125000
vt 0.500000 0.375000
vt 0.000000 0.625000
vt 0.000000 0.875000
vt 0.000000 0.125000
vt 0.625000 1.000000
vt 0.875000 1.000000
vt 0.125000 1.000000
vt 0.375000 1.000000
vt 1.000000 0.375000
vt 1.000000 0.125000
vt 1.000000 0.875000
vt 1.000000 0.625000
vt 0.375000 0.000000
vt 0.125000 0.000000
vt 0.875000 0.000000
vt 0.625000 0.000000
vt 0.750000 0.125000
vt 0.625000 0.500000
vt 0.760524 0.515669
vt 0.062500 0.312500
vt 0.187500 0.437500
vt 0.187500 0.312500
vt 0.062500 0.437500
vt 0.687500 0.937500
vt 0.687500 0.812500
vt 0.562500 0.937500
vt 0.062500 0.687500
vt 0.187500 0.687500
vt 0.062500 0.562500
vt 0.187500 0.937500
vt 0.187500 0.812500
vt 0.062500 0.937500
vt 0.437500 0.562500
vt 0.875000 0.812500
vt 0.187500 0.750000
vt 0.312500 0.812500
vt 0.437500 0.937500
vt 0.937500 0.812500
vt 0.812500 0.812500
vt 0.937500 0.937500
vt 0.875000 0.187500
vt 0.562500 0.562500
vt 0.711035 0.427219
vt 0.819332 0.591237
vt 0.812500 0.687500
vt 0.937500 0.562500
vt 0.750000 0.812500
vt 0.682510 0.583771
vt 0.437500 0.437500
vt 0.187500 0.062500
vt 0.062500 0.062500
vt 0.187500 0.187500
vt 0.312500 0.062500
vt 0.312500 0.187500
vt 0.437500 0.062500
vt 0.812500 0.062500
vt 0.937500 0.062500
vt 0.554454 0.248535
vt 0.562500 0.437500
vt 0.525016 0.804189
vt 0.562500 0.187500
vt 0.687500 0.187500
vt 0.562500 0.062500
vt 0.937500 0.312500
vt 0.812500 0.312500
vt 0.937500 0.437500
vt 0.312500 0.937500
vt 0.477574 0.762067
vt 0.812500 0.187500
vt 0.800716 0.372483
vt 0.687500 0.062500
vt 0.062500 0.125000
vt 0.937500 0.187500
vt 0.437500 0.187500
vt 0.062500 0.187500
vt 0.386728 0.766561
vt 0.937500 0.687500
vt 0.187500 0.875000
vt 0.062500 0.812500
vt 0.812500 0.937500
vt 0.187500 0.562500
vt 0.765906 0.648544
vt 0.328289 0.531632
vt 0.709349 0.334616
vt 0.334244 0.334788
vt 0.711984 0.714704
vt 0.326703 0.712668
vt 0.609171 0.333255
vt 0.331043 0.409098
vt 0.296906 0.332149
vt 0.712267 0.609975
vt 0.713437 0.300753
vt 0.812500 0.125000
vt 0.331126 0.276226
vt 0.281585 0.657008
vt 0.711565 0.538657
vt 0.610895 0.715148
vt 0.329593 0.470171
vt 0.424057 0.333169
vt 0.937500 0.750000
vt 0.547189 0.333080
vt 0.812500 0.750000
vt 0.418341 0.256674
vt 0.425703 0.815414
vt 0.812755 0.481587
vt 0.750000 0.187500
vt 0.375653 0.417988
vt 0.250000 0.937500
vt 0.625000 0.437500
vt 0.549315 0.715427
vt 0.414679 0.661630
vt 0.668274 0.669022
vn -0.023007 -0.023007 0.999471
vn 0.013865 -0.013865 0.999808
vn -0.000422 0.000422 1.000000
vn 0.024867 0.024867 0.999381
vn -0.003537 0.036672 0.999321
vn -0.300285 -0.007621 0.953819
vn -0.035110 0.409786 0.911506
vn 0.402209 0.026606 0.915161
vn 0.014721 -0.315194 0.948913
vn -0.294498 0.240517 0.924891
vn 0.280617 0.171132 0.944440
vn -0.265654 -0.362948 0.893138
vn 0.226069 -0.342622 0.911868
vn 0.005092 -0.355047 0.934835
vn -0.031254 -0.104794 0.994003
vn 0.351929 0.023973 0.935720
vn 0.379546 -0.034221 0.924540
vn -0.034639 0.240305 0.970079
vn 0.031201 0.451366 0.891793
vn -0.206682 -0.005713 0.978392
vn -0.214887 0.023261 0.976362
vn -0.120904 -0.393131 0.911499
vn -0.002829 0.239140 0.970981
vn -0.379631 0.022365 0.924867
vn 0.250594 -0.232437 0.939774
vn 0.400733 -0.014547 0.916080
vn -0.022178 -0.349064 0.936836
vn -0.000244 0.060258 0.998183
vn 0.165217 -0.156885 0.973699
vn -0.097123 -0.348243 0.932359
vn -0.072572 -0.117986 0.990360
vn -0.014052 -0.425130 0.905023
vn 0.382108 -0.010707 0.924056
vn 0.018940 0.065803 0.997653
vn 0.243538 0.187926 0.951511
vn -0.069671 0.383637 0.920852
vn -0.352137 0.053143 0.934438
vn -0.141799 0.169490 0.975278
vn -0.332830 0.030899 0.942481
vn -0.015298 0.383561 0.923389
vn -0.350335 -0.030249 0.936136
vn -0.122685 -0.245283 0.961657
vn 0.346495 0.119977 0.930348
vn 0.291730 -0.175162 0.940325
vn -0.151539 0.291330 0.944544
vn 0.144897 0.335705 0.930756
vn -0.233560 -0.146208 0.961287
vn -0.287214 0.114259 0.951027
vn -0.232918 0.058905 0.970711
vn -0.082359 0.095761 0.991991
vn -0.204821 0.263644 0.942624
vn 0.399190 0.037673 0.916094
vn 0.001181 0.227050 0.973882
vn -0.401892 -0.003412 0.915681
vn -0.265378 -0.017567 0.963984
vn -0.061199 0.396433 0.916022
vn -0.002973 0.066949 0.997752
vn -0.427930 -0.001079 0.903811
vn -0.348270 0.001326 0.937393
vn -0.002265 0.052684 0.998609
vn 0.021535 -0.416831 0.908729
vn 0.006183 -0.348755 0.937193
vn -0.000947 0.060926 0.998142
vn -0.287108 0.014531 0.957788
vn -0.085351 0.042490 0.995445
vn -0.098480 -0.050343 0.993865
vn -0.003866 0.497804 0.867281
vn 0.089627 0.226926 0.969779
vn -0.054737 0.052622 0.997113
vn -0.026576 0.315000 0.948720
vn 0.445960 -0.003331 0.895047
vn 0.174038 -0.074018 0.981953
vn 0.204751 0.078338 0.975674
vn 0.382772 -0.016892 0.923688
vn -0.042704 -0.247943 0.967833
vn 0.000619 -0.044740 0.998998
vn 0.081893 -0.189510 0.978458
vn -0.024324 -0.329415 0.943872
vn 0.078477 -0.267861 0.960256
vn 0.005249 0.047199 0.998872
vn 0.382035 0.048358 0.922882
vn -0.279255 -0.024059 0.959916
vn -0.379083 -0.025385 0.925014
vn -0.346576 -0.133183 0.928519
vn -0.309515 -0.016667 0.950748
vn 0.026256 0.455528 0.889834
vn 0.076681 0.286985 0.954861
vn -0.055911 0.433002 0.899657
vn -0.280315 0.031239 0.959400
vn -0.326332 0.093432 0.940627
vn -0.312331 0.008382 0.949936
vn -0.101666 0.174155 0.979456
vn -0.216796 0.211953 0.952930
vn -0.034119 0.055547 0.997873
vn -0.013239 0.033019 0.999367
vn 0.301521 0.122176 0.945599
vn -0.283836 0.171216 0.943463
vn -0.151601 0.337362 0.929088
vn -0.028352 0.376100 0.926145
vn 0.268473 0.041928 0.962374
vn 0.302117 0.175060 0.937059
vn 0.112970 0.107349 0.987782
vn 0.218469 -0.198502 0.955441
vn 0.005757 0.027855 0.999595
vn 0.191115 0.055270 0.980010
vn 0.385930 0.022986 0.922242
vn 0.339593 0.069759 0.937982
vn 0.384921 0.012003 0.922872
vn 0.192948 0.245996 0.949872
vn 0.031446 0.052253 0.998139
vn -0.000015 0.060222 0.998185
vn -0.038972 -0.132392 0.990431
vn -0.043066 -0.042941 0.998149
vn -0.152991 -0.223852 0.962540
vn -0.071106 -0.244151 0.967127
vn -0.201901 -0.362597 0.909813
vn -0.029976 -0.325325 0.945127
vn 0.073657 -0.244793 0.966773
vn 0.100152 -0.096127 0.990318
vn 0.009540 -0.420486 0.907249
vn -0.000506 0.060126 0.998191
vn -0.050206 0.316778 0.947170
vn 0.001232 -0.381534 0.924354
vn 0.084320 -0.352320 0.932073
vn -0.005318 -0.330495 0.943793
vn 0.399012 -0.031632 0.916400
vn 0.367351 -0.151874 0.917599
vn 0.410709 0.017742 0.911594
vn -0.033970 0.311307 0.949702
vn -0.023525 0.285975 0.957948
vn 0.192881 -0.266161 0.944434
vn 0.429011 -0.015221 0.903171
vn 0.007921 -0.332737 0.942986
vn -0.085010 -0.075784 0.993494
vn 0.269282 -0.116376 0.956004
vn -0.020976 -0.382636 0.923661
vn -0.145969 -0.081786 0.985903
vn -0.042824 0.344755 0.937715
vn 0.374256 0.035136 0.926659
vn -0.170887 0.241364 0.955270
vn -0.177403 0.073987 0.981353
vn 0.118125 0.331043 0.936193
vn -0.366280 0.030122 0.930017
vn 0.350419 0.042635 0.935622
vn -0.172022 0.052460 0.983695
vn 0.193069 -0.323500 0.926322
vn -0.372156 -0.305686 0.876388
vn 0.197046 0.148738 0.969046
vn -0.212619 0.212061 0.953847
vn 0.006844 -0.144974 0.989412
vn -0.178841 0.046977 0.982756
vn -0.466766 -0.242772 0.850407
vn 0.149217 0.053935 0.987332
vn 0.193131 -0.458611 0.867397
vn 0.116350 -0.207674 0.971254
vn -0.207589 -0.469485 0.858190
vn -0.352870 0.077751 0.932436
vn 0.184045 0.054736 0.981393
vn -0.001193 0.140266 0.990113
vn -0.153151 0.055282 0.986655
vn -0.020111 -0.224135 0.974351
vn 0.338570 0.055714 0.939290
vn -0.001810 -0.194646 0.980872
vn 0.328309 0.119741 0.936950
vn -0.046442 -0.422772 0.905045
vn -0.046046 0.353340 0.934361
vn 0.403661 0.033444 0.914297
vn 0.118564 -0.330906 0.936186
vn 0.001194 0.060574 0.998163
vn -0.064571 0.263953 0.962372
vn -0.000246 0.060159 0.998189
vn -0.014409 0.181928 0.983206
vn -0.005425 0.095943 0.995372
vn 0.019692 0.078948 0.996684
f 1/1/1 113/113/113 66/66/66
f 174/174/174 34/34/34 153/153/153
f 112/112/112 31/31/31 113/113/113
f 76/76/76 112/112/112 113/113/113
f 169/169/169 147/147/147 161/161/161
f 57/57/57 53/53/53 173/173/173
f 114/114/114 31/31/31 42/42/42
f 31/31/31 134/134/134 113/113/113
f 134/134/134 137/137/137 66/66/66
f 134/134/134 66/66/66 113/113/113
f 115/115/115 112/112/112 15/15/15
f 31/31/31 137/137/137 134/134/134
f 58/58/58 83/83/83 84/84/84
f 114/114/114 137/137/137 31/31/31
f 76/76/76 113/113/113 1/1/1
f 57/57/57 173/173/173 95/95/95
f 15/15/15 112/112/112 76/76/76
f 115/115/115 15/15/15 75/75/75
f 45/45/45 51/51/51 98/98/98
f 47/47/47 114/114/114 84/84/84
f 136/136/136 30/30/30 117/117/117
f 22/22/22 30/30/30 136/136/136
f 22/22/22 156/156/156 116/116/116
f 62/62/62 136/136/136 117/117/117
f 165/165/165 136/136/136 32/32/32
f 115/115/115 30/30/30 42/42/42
f 152/152/152 156/156/156 147/147/147
f 42/42/42 116/116/116 114/114/114
f 116/116/116 30/30/30 22/22/22
f 42/42/42 112/112/112 115/115/115
f 12/12/12 84/84/84 114/114/114
f 84/84/84 152/152/152 58/58/58
f 12/12/12 114/114/114 116/116/116
f 116/116/116 42/42/42 30/30/30
f 54/54/54 151/151/151 160/160/160
f 75/75/75 117/117/117 115/115/115
f 111/111/111 169/169/169 161/161/161
f 165/165/165 22/22/22 136/136/136
f 161/161/161 165/165/165 32/32/32
f 83/83/83 58/58/58 54/54/54
f 47/47/47 137/137/137 114/114/114
f 63/63/63 121/121/121 111/111/111
f 30/30/30 115/115/115 117/117/117
f 60/60/60 169/169/169 111/111/111
f 151/151/151 147/147/147 169/169/169
f 72/72/72 135/135/135 119/119/119
f 121/121/121 63/63/63 28/28/28
f 54/54/54 58/58/58 151/151/151
f 129/129/129 45/45/45 36/36/36
f 151/151/151 152/152/152 147/147/147
f 151/151/151 169/169/169 160/160/160
f 148/148/148 174/174/174 153/153/153
f 58/58/58 152/152/152 151/151/151
f 149/149/149 98/98/98 10/10/10
f 27/27/27 123/123/123 125/125/125
f 99/99/99 56/56/56 7/7/7
f 157/157/157 10/10/10 90/90/90
f 82/82/82 137/137/137 47/47/47
f 84/84/84 12/12/12 152/152/152
f 112/112/112 42/42/42 31/31/31
f 85/85/85 41/41/41 83/83/83
f 20/20/20 137/137/137 82/82/82
f 55/55/55 82/82/82 41/41/41
f 20/20/20 66/66/66 137/137/137
f 55/55/55 20/20/20 82/82/82
f 85/85/85 55/55/55 41/41/41
f 23/23/23 40/40/40 122/122/122
f 97/97/97 93/93/93 48/48/48
f 59/59/59 85/85/85 83/83/83
f 94/94/94 50/50/50 69/69/69
f 52/52/52 108/108/108 106/106/106
f 139/139/139 33/33/33 74/74/74
f 108/108/108 74/74/74 33/33/33
f 140/140/140 170/170/170 92/92/92
f 49/49/49 37/37/37 145/145/145
f 6/6/6 85/85/85 91/91/91
f 45/45/45 98/98/98 36/36/36
f 94/94/94 69/69/69 3/3/3
f 110/110/110 153/153/153 34/34/34
f 166/166/166 138/138/138 130/130/130
f 122/122/122 166/166/166 130/130/130
f 33/33/33 106/106/106 108/108/108
f 93/93/93 38/38/38 48/48/48
f 10/10/10 51/51/51 97/97/97
f 37/37/37 90/90/90 143/143/143
f 143/143/143 90/90/90 39/39/39
f 170/170/170 129/129/129 18/18/18
f 140/140/140 45/45/45 170/170/170
f 129/129/129 70/70/70 18/18/18
f 170/170/170 45/45/45 129/129/129
f 92/92/92 18/18/18 69/69/69
f 38/38/38 92/92/92 50/50/50
f 92/92/92 170/170/170 18/18/18
f 92/92/92 69/69/69 50/50/50
f 38/38/38 140/140/140 92/92/92
f 93/93/93 45/45/45 140/140/140
f 94/94/94 38/38/38 50/50/50
f 48/48/48 38/38/38 141/141/141
f 65/65/65 94/94/94 3/3/3
f 47/47/47 84/84/84 82/82/82
f 21/21/21 141/141/141 65/65/65
f 38/38/38 94/94/94 141/141/141
f 41/41/41 82/82/82 84/84/84
f 65/65/65 141/141/141 94/94/94
f 39/39/39 90/90/90 48/48/48
f 51/51/51 45/45/45 93/93/93
f 23/23/23 122/122/122 172/172/172
f 93/93/93 140/140/140 38/38/38
f 145/145/145 160/160/160 60/60/60
f 90/90/90 10/10/10 97/97/97
f 90/90/90 97/97/97 48/48/48
f 89/89/89 39/39/39 48/48/48
f 48/48/48 141/141/141 89/89/89
f 24/24/24 59/59/59 83/83/83
f 89/89/89 21/21/21 64/64/64
f 21/21/21 89/89/89 141/141/141
f 88/88/88 7/7/7 56/56/56
f 149/149/149 10/10/10 157/157/157
f 6/6/6 91/91/91 64/64/64
f 59/59/59 91/91/91 85/85/85
f 6/6/6 55/55/55 85/85/85
f 24/24/24 83/83/83 54/54/54
f 59/59/59 39/39/39 91/91/91
f 143/143/143 39/39/39 59/59/59
f 24/24/24 143/143/143 59/59/59
f 24/24/24 54/54/54 160/160/160
f 29/29/29 155/155/155 118/118/118
f 163/163/163 28/28/28 63/63/63
f 57/57/57 34/34/34 172/172/172
f 119/119/119 29/29/29 118/118/118
f 103/103/103 131/131/131 155/155/155
f 39/39/39 89/89/89 91/91/91
f 166/166/166 56/56/56 36/36/36
f 99/99/99 36/36/36 56/56/56
f 77/77/77 2/2/2 119/119/119
f 37/37/37 157/157/157 90/90/90
f 37/37/37 143/143/143 24/24/24
f 149/149/149 138/138/138 98/98/98
f 138/138/138 166/166/166 98/98/98
f 135/135/135 72/72/72 17/17/17
f 174/174/174 148/148/148 159/159/159
f 51/51/51 10/10/10 98/98/98
f 159/159/159 172/172/172 34/34/34
f 17/17/17 126/126/126 135/135/135
f 104/104/104 95/95/95 5/5/5
f 60/60/60 160/160/160 169/169/169
f 44/44/44 135/135/135 126/126/126
f 105/105/105 158/158/158 80/80/80
f 57/57/57 95/95/95 104/104/104
f 133/133/133 27/27/27 78/78/78
f 34/34/34 57/57/57 104/104/104
f 156/156/156 152/152/152 12/12/12
f 122/122/122 130/130/130 172/172/172
f 53/53/53 138/138/138 149/149/149
f 123/123/123 27/27/27 61/61/61
f 132/132/132 146/146/146 127/127/127
f 11/11/11 144/144/144 107/107/107
f 103/103/103 44/44/44 25/25/25
f 87/87/87 11/11/11 109/109/109
f 128/128/128 8/8/8 52/52/52
f 80/80/80 110/110/110 104/104/104
f 124/124/124 154/154/154 61/61/61
f 12/12/12 116/116/116 156/156/156
f 11/11/11 148/148/148 144/144/144
f 37/37/37 49/49/49 157/157/157
f 144/144/144 153/153/153 106/106/106
f 53/53/53 172/172/172 130/130/130
f 106/106/106 153/153/153 81/81/81
f 110/110/110 34/34/34 104/104/104
f 77/77/77 119/119/119 118/118/118
f 80/80/80 104/104/104 5/5/5
f 158/158/158 153/153/153 110/110/110
f 121/121/121 171/171/171 80/80/80
f 105/105/105 146/146/146 132/132/132
f 81/81/81 153/153/153 158/158/158
f 158/158/158 110/110/110 80/80/80
f 28/28/28 146/146/146 105/105/105
f 167/167/167 106/106/106 81/81/81
f 36/36/36 99/99/99 129/129/129
f 107/107/107 106/106/106 33/33/33
f 127/127/127 44/44/44 26/26/26
f 96/96/96 164/164/164 43/43/43
f 107/107/107 33/33/33 139/139/139
f 125/125/125 78/78/78 27/27/27
f 74/74/74 108/108/108 8/8/8
f 126/126/126 26/26/26 44/44/44
f 164/164/164 11/11/11 107/107/107
f 41/41/41 84/84/84 83/83/83
f 144/144/144 148/148/148 153/153/153
f 144/144/144 106/106/106 107/107/107
f 111/111/111 5/5/5 60/60/60
f 87/87/87 148/148/148 11/11/11
f 95/95/95 60/60/60 5/5/5
f 88/88/88 56/56/56 40/40/40
f 108/108/108 52/52/52 8/8/8
f 43/43/43 107/107/107 139/139/139
f 96/96/96 162/162/162 100/100/100
f 43/43/43 164/164/164 107/107/107
f 43/43/43 139/139/139 162/162/162
f 56/56/56 166/166/166 122/122/122
f 149/149/149 49/49/49 173/173/173
f 16/16/16 162/162/162 139/139/139
f 35/35/35 101/101/101 96/96/96
f 35/35/35 96/96/96 100/100/100
f 96/96/96 101/101/101 164/164/164
f 96/96/96 43/43/43 162/162/162
f 86/86/86 46/46/46 142/142/142
f 16/16/16 100/100/100 162/162/162
f 102/102/102 35/35/35 100/100/100
f 68/68/68 142/142/142 102/102/102
f 142/142/142 46/46/46 35/35/35
f 142/142/142 35/35/35 102/102/102
f 87/87/87 46/46/46 40/40/40
f 46/46/46 109/109/109 101/101/101
f 19/19/19 86/86/86 142/142/142
f 88/88/88 40/40/40 86/86/86
f 23/23/23 87/87/87 40/40/40
f 86/86/86 40/40/40 46/46/46
f 23/23/23 148/148/148 87/87/87
f 87/87/87 109/109/109 46/46/46
f 49/49/49 149/149/149 157/157/157
f 23/23/23 159/159/159 148/148/148
f 24/24/24 145/145/145 37/37/37
f 56/56/56 122/122/122 40/40/40
f 67/67/67 88/88/88 86/86/86
f 101/101/101 35/35/35 46/46/46
f 7/7/7 70/70/70 99/99/99
f 67/67/67 7/7/7 88/88/88
f 19/19/19 67/67/67 86/86/86
f 68/68/68 19/19/19 142/142/142
f 73/73/73 102/102/102 100/100/100
f 4/4/4 68/68/68 102/102/102
f 73/73/73 4/4/4 102/102/102
f 16/16/16 73/73/73 100/100/100
f 74/74/74 16/16/16 139/139/139
f 154/154/154 150/150/150 61/61/61
f 26/26/26 128/128/128 52/52/52
f 126/126/126 17/17/17 71/71/71
f 155/155/155 168/168/168 79/79/79
f 77/77/77 118/118/118 14/14/14
f 60/60/60 95/95/95 145/145/145
f 167/167/167 132/132/132 26/26/26
f 49/49/49 145/145/145 95/95/95
f 128/128/128 71/71/71 8/8/8
f 70/70/70 129/129/129 99/99/99
f 164/164/164 101/101/101 11/11/11
f 109/109/109 11/11/11 101/101/101
f 25/25/25 44/44/44 127/127/127
f 64/64/64 91/91/91 89/89/89
f 25/25/25 127/127/127 13/13/13
f 22/22/22 165/165/165 156/156/156
f 132/132/132 127/127/127 26/26/26
f 154/154/154 127/127/127 146/146/146
f 131/131/131 13/13/13 168/168/168
f 131/131/131 25/25/25 13/13/13
f 167/167/167 26/26/26 52/52/52
f 105/105/105 132/132/132 167/167/167
f 167/167/167 52/52/52 106/106/106
f 105/105/105 167/167/167 81/81/81
f 105/105/105 81/81/81 158/158/158
f 171/171/171 28/28/28 105/105/105
f 171/171/171 105/105/105 80/80/80
f 29/29/29 119/119/119 135/135/135
f 121/121/121 80/80/80 5/5/5
f 121/121/121 28/28/28 171/171/171
f 121/121/121 5/5/5 111/111/111
f 63/63/63 111/111/111 161/161/161
f 163/163/163 161/161/161 32/32/32
f 163/163/163 150/150/150 28/28/28
f 120/120/120 150/150/150 163/163/163
f 150/150/150 146/146/146 28/28/28
f 163/163/163 63/63/63 161/161/161
f 120/120/120 123/123/123 61/61/61
f 62/62/62 123/123/123 136/136/136
f 23/23/23 172/172/172 159/159/159
f 119/119/119 2/2/2 72/72/72
f 154/154/154 13/13/13 127/127/127
f 154/154/154 146/146/146 150/150/150
f 124/124/124 13/13/13 154/154/154
f 160/160/160 145/145/145 24/24/24
f 117/117/117 9/9/9 62/62/62
f 133/133/133 78/78/78 14/14/14
f 120/120/120 61/61/61 150/150/150
f 123/123/123 32/32/32 136/136/136
f 120/120/120 163/163/163 32/32/32
f 120/120/120 32/32/32 123/123/123
f 124/124/124 61/61/61 27/27/27
f 125/125/125 62/62/62 9/9/9
f 9/9/9 117/117/117 75/75/75
f 26/26/26 126/126/126 128/128/128
f 78/78/78 125/125/125 9/9/9
f 71/71/71 128/128/128 126/126/126
f 118/118/118 133/133/133 14/14/14
f 133/133/133 124/124/124 27/27/27
f 135/135/135 44/44/44 103/103/103
f 155/155/155 131/131/131 168/168/168
f 79/79/79 124/124/124 133/133/133
f 79/79/79 133/133/133 118/118/118
f 168/168/168 13/13/13 124/124/124
f 168/168/168 124/124/124 79/79/79
f 155/155/155 79/79/79 118/118/118
f 103/103/103 25/25/25 131/131/131
f 103/103/103 155/155/155 29/29/29
f 135/135/135 103/103/103 29/29/29
f 36/36/36 98/98/98 166/166/166
f 53/53/53 130/130/130 138/138/138
f 62/62/62 125/125/125 123/123/123
f 93/93/93 97/97/97 51/51/51
f 149/149/149 173/173/173 53/53/53
f 172/172/172 53/53/53 57/57/57
f 34/34/34 174/174/174 159/159/159
f 95/95/95 173/173/173 49/49/49
f 165/165/165 161/161/161 156/156/156
f 147/147/147 156/156/156 161/161/161
