# frame 000663 
# time 0.332000 
# name Cloth3D 
v -0.000000 0.000000 -0.000000
v 1.000000 0.000000 -0.000000
v -0.000000 1.000000 0.000000
v 1.000000 1.000000 0.000000
v 0.500834 0.501140 0.119657
v -0.000000 0.500000 0.000000
v 0.500000 1.000000 0.000000
v 1.000000 0.500000 0.000000
v 0.500000 -0.000000 0.000000
v 0.246426 0.755407 0.064933
v 0.757851 0.757750 0.086186
v 0.246682 0.246476 0.063491
v 0.757392 0.244328 0.077378
v 0.750000 0.000000 0.000000
v 0.250000 0.000000 0.000000
v 1.000000 0.750000 0.000000
v 1.000000 0.250000 0.000000
v 0.250000 1.000000 0.000000
v 0.750000 1.000000 0.000000
v 0.000000 0.250000 0.000000
v 0.000000 0.750000 -0.000000
v 0.363386 0.217699 0.072764
v 0.633591 0.777170 0.088528
v 0.244150 0.516755 0.081353
v 0.814088 0.248485 0.046858
v 0.877915 0.374438 0.045411
v 0.626246 0.124587 0.039116
v 0.632543 0.369525 0.119967
v 0.874082 0.125681 0.006134
v 0.375323 0.125209 0.036279
v 0.126360 0.126940 -0.001415
v 0.492763 0.246071 0.091888
v 0.877463 0.626382 0.045533
v 0.632006 0.631959 0.119916
v 0.876520 0.876131 0.021351
v 0.374837 0.877130 0.040882
v 0.257989 0.604371 0.089783
v 0.126602 0.873940 -0.001238
v 0.126465 0.625621 0.031065
v 0.626506 0.878530 0.048296
v 0.124356 0.374987 0.038682
v 0.251530 0.127447 0.015140
v 0.879050 0.751980 0.042798
v 0.874586 0.250258 0.025396
v 0.251985 0.874193 0.017727
v 0.751860 0.877152 0.037782
v 0.124789 0.250557 0.025259
v 0.125851 0.750338 0.021484
v 0.719213 0.615697 0.119941
v 0.125739 0.936957 -0.002531
v 0.552913 0.709907 0.119929
v 0.879428 0.500470 0.051901
v 0.424689 0.709358 0.119938
v 0.245957 0.454996 0.083637
v 0.000000 0.375000 0.000000
v 0.500278 0.878788 0.049785
v 0.500377 0.631979 0.119865
v 0.246479 0.372026 0.085002
v 0.126601 0.500241 0.034723
v 0.369865 0.501223 0.119842
v 0.630032 0.244430 0.091938
v 0.500575 0.123985 0.043383
v 0.500891 0.370190 0.119994
v 0.000000 0.625000 0.000000
v 0.000000 0.875000 0.000000
v 0.000000 0.125000 0.000000
v 0.625000 1.000000 0.000000
v 0.875000 1.000000 0.000000
v 0.125000 1.000000 0.000000
v 0.375000 1.000000 0.000000
v 1.000000 0.375000 0.000000
v 1.000000 0.125000 0.000000
v 1.000000 0.875000 0.000000
v 1.000000 0.625000 0.000000
v 0.375000 0.000000 0.000000
v 0.125000 0.000000 0.000000
v 0.875000 0.000000 0.000000
v 0.625000 0.000000 0.000000
v 0.751690 0.122719 0.035439
v 0.631890 0.500882 0.119908
v 0.768317 0.516680 0.097097
v 0.061097 0.312672 0.020833
v 0.188102 0.437060 0.057375
v 0.186327 0.311385 0.052937
v 0.063344 0.437661 0.016768
v 0.688013 0.938539 0.020771
v 0.691352 0.817936 0.068902
v 0.562854 0.938261 0.022261
v 0.063412 0.687389 0.011865
v 0.186598 0.689999 0.050666
v 0.064155 0.562550 0.013411
v 0.188785 0.936583 -0.000950
v 0.188582 0.812662 0.022961
v 0.062860 0.937250 -0.009260
v 0.435066 0.566787 0.119787
v 0.878501 0.814725 0.035229
v 0.186728 0.752269 0.040751
v 0.310745 0.816510 0.057514
v 0.437664 0.939108 0.023417
v 0.938231 0.812709 0.014306
v 0.816556 0.816144 0.049272
v 0.937349 0.937276 -0.000104
v 0.875084 0.187539 0.018231
v 0.566311 0.566570 0.119722
v 0.720136 0.424225 0.119929
v 0.823897 0.593418 0.069954
v 0.816507 0.690859 0.065979
v 0.939921 0.562960 0.026313
v 0.754489 0.817471 0.061384
v 0.692061 0.588476 0.119939
v 0.435335 0.435603 0.119721
v 0.188509 0.063866 0.000831
v 0.062990 0.063023 -0.006731
v 0.187758 0.188266 0.024740
v 0.313124 0.063250 0.013065
v 0.312094 0.187475 0.048119
v 0.437835 0.062320 0.020187
v 0.812471 0.062395 0.009894
v 0.937130 0.062903 -0.003534
v 0.557053 0.243645 0.091942
v 0.566629 0.435453 0.119936
v 0.525997 0.810651 0.079187
v 0.564352 0.185127 0.066596
v 0.690839 0.185288 0.059386
v 0.562918 0.060941 0.024592
v 0.937359 0.312923 0.015607
v 0.816691 0.310233 0.061976
v 0.939067 0.437671 0.024001
v 0.312813 0.938697 0.017803
v 0.477150 0.769089 0.093125
v 0.814595 0.185854 0.037160
v 0.806502 0.369958 0.075831
v 0.687696 0.062817 0.015924
v 0.063101 0.126089 -0.004713
v 0.936363 0.188404 0.001922
v 0.437028 0.184320 0.067775
v 0.063102 0.188275 0.004357
v 0.383072 0.773937 0.088729
v 0.936450 0.687776 0.014695
v 0.189463 0.873802 0.006710
v 0.063471 0.812004 0.001824
v 0.812895 0.937911 0.013649
v 0.187725 0.564006 0.057234
v 0.773759 0.653922 0.093386
v 0.319589 0.663484 0.119929
v 0.720779 0.310900 0.119942
v 0.320987 0.309218 0.119942
v 0.719015 0.710782 0.119942
v 0.319218 0.709013 0.119942
v 0.615742 0.310588 0.119936
v 0.320674 0.405598 0.119938
v 0.290603 0.325477 0.103357
v 0.319858 0.599060 0.119929
v 0.724554 0.292215 0.108683
v 0.813367 0.124094 0.022928
v 0.433105 0.642391 0.119784
v 0.275703 0.664197 0.096826
v 0.719342 0.552723 0.119941
v 0.617672 0.710180 0.119929
v 0.320424 0.470381 0.119935
v 0.420790 0.309807 0.119929
v 0.939128 0.750475 0.020051
v 0.550401 0.310349 0.119929
v 0.817865 0.754241 0.062379
v 0.416312 0.252046 0.092989
v 0.424596 0.820666 0.070830
v 0.818517 0.481772 0.075209
v 0.754014 0.183867 0.054700
v 0.370405 0.414809 0.119884
v 0.251112 0.937060 0.007026
vt 0.000000 0.000000
vt 1.000000 0.000000
vt 0.000000 1.000000
vt 1.000000 1.000000
vt 0.500000 0.500000
vt 0.000000 0.500000
vt 0.500000 1.000000
vt 1.000000 0.500000
vt 0.500000 0.000000
vt 0.250000 0.750000
vt 0.750000 0.750000
vt 0.250000 0.250000
vt 0.750000 0.250000
vt 0.750000 0.000000
vt 0.250000 0.000000
vt 1.000000 0.750000
vt 1.000000 0.250000
vt 0.250000 1.000000
vt 0.750000 1.000000
vt 0.000000 0.250000
vt 0.000000 0.750000
vt 0.365347 0.220303
vt 0.629073 0.770824
vt 0.245672 0.515386
vt 0.812500 0.250000
vt 0.875000 0.375000
vt 0.625000 0.125000
vt 0.625000 0.375000
vt 0.875000 0.125000
vt 0.375000 0.125000
vt 0.125000 0.125000
vt 0.492214 0.250470
vt 0.875000 0.625000
vt 0.625000 0.625000
vt 0.875000 0.875000
vt 0.375000 0.875000
vt 0.262101 0.599801
vt 0.125000 0.875000
vt 0.125000 0.625000
vt 0.625000 0.875000
vt 0.125000 0.375000
vt 0.250000 0.125000
vt 0.875000 0.750000
vt 0.875000 0.250000
vt 0.250000 0.875000
vt 0.750000 0.875000
vt 0.125000 0.250000
vt 0.125000 0.750000
vt 0.708310 0.610009
vt 0.125000 0.937500
vt 0.550123 0.700034
vt 0.875000 0.500000
vt 0.428277 0.698636
vt 0.248222 0.455442
vt 0.000000 0.375000
vt 0.500000 0.875000
vt 0.500000 0.625000
vt 0.250000 0.375000
vt 0.125000 0.500000
vt 0.375000 0.500000
vt 0.625000 0.250000
vt 0.500000 0.125000
vt 0.500000 0.375000
vt 0.000000 0.625000
vt 0.000000 0.875000
vt 0.000000 0.125000
vt 0.625000 1.000000
vt 0.875000 1.000000
vt 0.125000 1.000000
vt 0.375000 1.000000
vt 1.000000 0.375000
vt 1.000000 0.125000
vt 1.000000 0.875000
vt 1.000000 0.625000
vt 0.375000 0.000000
vt 0.125000 0.000000
vt 0.875000 0.000000
vt 0.625000 0.000000
vt 0.750000 0.125000
vt 0.625000 0.500000
vt 0.760524 0.515669
vt 0.062500 0.312500
vt 0.187500 0.437500
vt 0.187500 0.312500
vt 0.062500 0.437500
vt 0.687500 0.937500
vt 0.687500 0.812500
vt 0.562500 0.937500
vt 0.062500 0.687500
vt 0.187500 0.687500
vt 0.062500 0.562500
vt 0.187500 0.937500
vt 0.187500 0.812500
vt 0.062500 0.937500
vt 0.437500 0.562500
vt 0.875000 0.812500
vt 0.187500 0.750000
vt 0.312500 0.812500
vt 0.437500 0.937500
vt 0.937500 0.812500
vt 0.812500 0.812500
vt 0.937500 0.937500
vt 0.875000 0.187500
vt 0.562500 0.562500
vt 0.709142 0.427228
vt 0.819332 0.591237
vt 0.812500 0.687500
vt 0.937500 0.562500
vt 0.750000 0.812500
vt 0.682510 0.583771
vt 0.437500 0.437500
vt 0.187500 0.062500
vt 0.062500 0.062500
vt 0.187500 0.187500
vt 0.312500 0.062500
vt 0.312500 0.187500
vt 0.437500 0.062500
vt 0.812500 0.062500
vt 0.937500 0.062500
vt 0.554454 0.248535
vt 0.562500 0.437500
vt 0.525016 0.804189
vt 0.562500 0.187500
vt 0.687500 0.187500
vt 0.562500 0.062500
vt 0.937500 0.312500
vt 0.812500 0.312500
vt 0.937500 0.437500
vt 0.312500 0.937500
vt 0.477574 0.762067
vt 0.812500 0.187500
vt 0.800716 0.372483
vt 0.687500 0.062500
vt 0.062500 0.125000
vt 0.937500 0.187500
vt 0.437500 0.187500
vt 0.062500 0.187500
vt 0.386728 0.766561
vt 0.937500 0.687500
vt 0.187500 0.875000
vt 0.062500 0.812500
vt 0.812500 0.937500
vt 0.187500 0.562500
vt 0.765906 0.648544
vt 0.328931 0.654027
vt 0.707770 0.320549
vt 0.330194 0.319171
vt 0.706904 0.699419
vt 0.329733 0.696386
vt 0.609357 0.318473
vt 0.328016 0.409028
vt 0.296906 0.332149
vt 0.327763 0.593193
vt 0.713437 0.300753
vt 0.812500 0.125000
vt 0.436137 0.634590
vt 0.281585 0.657008
vt 0.708751 0.549754
vt 0.611791 0.699946
vt 0.327508 0.470648
vt 0.423921 0.317569
vt 0.937500 0.750000
vt 0.547224 0.317744
vt 0.812500 0.750000
vt 0.418341 0.256674
vt 0.425703 0.815414
vt 0.812755 0.481587
vt 0.750000 0.187500
vt 0.375653 0.417988
vt 0.250000 0.937500
vn 0.055552 0.055552 0.996909
vn -0.028944 0.028944 0.999162
vn 0.074165 -0.074165 0.994484
vn -0.000717 -0.000717 0.999999
vn -0.000393 0.000560 1.000000
vn -0.230521 0.013741 0.972970
vn 0.007809 0.347923 0.937490
vn 0.382113 -0.009867 0.924063
vn -0.019199 -0.341334 0.939746
vn -0.376577 0.275568 0.884450
vn 0.305032 0.277497 0.911016
vn -0.283107 -0.324897 0.902382
vn 0.332186 -0.301003 0.893896
vn 0.024540 -0.195753 0.980346
vn -0.048593 -0.107857 0.992978
vn 0.278304 0.000827 0.960493
vn 0.129781 -0.054335 0.990053
vn -0.100257 0.114980 0.988296
vn 0.028164 0.261167 0.964883
vn -0.194834 -0.066435 0.978584
vn -0.106356 0.040793 0.993491
vn -0.128901 -0.414730 0.900768
vn 0.023285 0.407505 0.912906
vn -0.419556 0.002860 0.907725
vn 0.408788 -0.183005 0.894093
vn 0.382240 -0.095816 0.919082
vn 0.044403 -0.327523 0.943799
vn 0.000072 -0.000115 1.000000
vn 0.210178 -0.140092 0.967574
vn -0.110155 -0.332012 0.936821
vn -0.092545 -0.121738 0.988239
vn -0.009038 -0.387888 0.921662
vn 0.372552 0.071698 0.925237
vn -0.000553 -0.000745 1.000000
vn 0.200984 0.212654 0.956234
vn -0.086836 0.347163 0.933776
vn -0.437879 0.010835 0.898969
vn -0.093795 0.111344 0.989346
vn -0.316224 0.038584 0.947900
vn 0.041140 0.387284 0.921042
vn -0.301498 0.004215 0.953457
vn -0.143822 -0.229703 0.962576
vn 0.336660 0.052884 0.940140
vn 0.306732 -0.143374 0.940936
vn -0.208523 0.224933 0.951800
vn 0.109910 0.345512 0.931956
vn -0.225762 -0.177297 0.957913
vn -0.256530 0.154000 0.954189
vn 0.150685 0.000674 0.988582
vn -0.064781 -0.012971 0.997815
vn 0.000163 0.208751 0.977969
vn 0.373163 -0.006517 0.927743
vn -0.004553 0.223960 0.974588
vn -0.427927 0.015587 0.903679
vn -0.294336 0.017811 0.955536
vn -0.006514 0.394461 0.918889
vn -0.000486 -0.001224 0.999999
vn -0.409965 -0.023029 0.911810
vn -0.326389 0.024351 0.944922
vn 0.001639 0.000080 0.999999
vn 0.024510 -0.410761 0.911414
vn -0.011925 -0.340941 0.940009
vn -0.000831 0.000687 0.999999
vn -0.195274 0.004718 0.980737
vn 0.061299 0.043696 0.997162
vn 0.061561 -0.058594 0.996382
vn 0.005280 0.323819 0.946104
vn 0.052683 0.103514 0.993232
vn -0.043553 -0.055247 0.997522
vn -0.022523 0.317773 0.947899
vn 0.300635 -0.034265 0.953124
vn -0.017310 -0.020485 0.999640
vn 0.111246 0.056594 0.992180
vn 0.330860 0.045969 0.942560
vn -0.027055 -0.254887 0.966592
vn -0.031244 0.031283 0.999022
vn 0.051739 -0.044826 0.997654
vn 0.035996 -0.310817 0.949788
vn 0.138897 -0.289309 0.947105
vn -0.000999 0.000719 0.999999
vn 0.419210 0.011992 0.907810
vn -0.266432 -0.054893 0.962289
vn -0.372173 0.027104 0.927768
vn -0.332159 -0.132670 0.933846
vn -0.281179 0.027454 0.959263
vn 0.037736 0.327156 0.944217
vn 0.080457 0.397474 0.914079
vn 0.010044 0.371053 0.928557
vn -0.201796 0.041478 0.978549
vn -0.377504 0.114660 0.918882
vn -0.250843 0.016732 0.967883
vn -0.086326 0.064470 0.994179
vn -0.240109 0.269548 0.932573
vn -0.010825 -0.017806 0.999783
vn 0.000614 -0.000496 1.000000
vn 0.285831 0.179906 0.941241
vn -0.341495 0.215079 0.914944
vn -0.196686 0.395847 0.897006
vn -0.025000 0.357672 0.933512
vn 0.285586 0.104473 0.952642
vn 0.220702 0.274710 0.935855
vn 0.068100 0.070083 0.995214
vn 0.274651 -0.152406 0.949389
vn -0.000885 -0.000821 0.999999
vn 0.226799 -0.004588 0.973931
vn 0.410738 0.042400 0.910767
vn 0.406925 0.070432 0.910742
vn 0.371320 0.021456 0.928257
vn 0.143716 0.379793 0.913840
vn -0.000318 -0.000034 1.000000
vn 0.000684 0.001080 0.999999
vn -0.064515 -0.053929 0.996459
vn 0.007873 0.012298 0.999893
vn -0.191215 -0.292677 0.936898
vn -0.080341 -0.200069 0.976482
vn -0.179851 -0.384293 0.905523
vn -0.037941 -0.305449 0.951452
vn 0.124769 -0.177252 0.976224
vn 0.022598 -0.006916 0.999721
vn -0.005542 -0.395123 0.918612
vn -0.000842 0.001508 0.999999
vn -0.016113 0.377131 0.926020
vn 0.018297 -0.391577 0.919964
vn 0.062891 -0.368210 0.927613
vn 0.017453 -0.315449 0.948782
vn 0.269876 -0.084751 0.959158
vn 0.435725 -0.184620 0.880942
vn 0.368762 -0.036128 0.928821
vn -0.115292 0.233350 0.965534
vn -0.031041 0.381536 0.923833
vn 0.313036 -0.212838 0.925586
vn 0.438292 -0.086514 0.894659
vn 0.036945 -0.288827 0.956668
vn 0.013285 -0.089263 0.995920
vn 0.152568 -0.089479 0.984234
vn -0.054948 -0.377884 0.924221
vn -0.078418 -0.127340 0.988754
vn -0.054010 0.436350 0.898154
vn 0.325686 -0.005979 0.945459
vn -0.148172 0.186446 0.971227
vn -0.076768 0.087653 0.993189
vn 0.071462 0.229147 0.970765
vn -0.389323 0.020664 0.920870
vn 0.467482 0.061266 0.881877
vn -0.328185 -0.002375 0.944610
vn 0.278036 -0.361832 0.889816
vn -0.349403 -0.148737 0.925092
vn 0.277609 0.201513 0.939322
vn -0.289462 0.135857 0.947499
vn 0.001297 -0.192764 0.981244
vn -0.189498 -0.002850 0.981877
vn -0.475998 -0.064501 0.877078
vn -0.280193 0.002108 0.959941
vn 0.300479 -0.432788 0.849945
vn 0.239968 -0.211348 0.947495
vn -0.000419 -0.001182 0.999999
vn -0.470056 0.038759 0.881785
vn 0.171943 0.001726 0.985105
vn -0.001146 0.224565 0.974458
vn -0.184679 0.001445 0.982798
vn -0.004340 -0.259363 0.965770
vn 0.331989 0.000591 0.943283
vn -0.001851 -0.225278 0.974293
vn 0.326421 0.116023 0.938077
vn -0.039533 -0.405624 0.913185
vn -0.064649 0.384855 0.920710
vn 0.393647 -0.005358 0.919246
vn 0.170448 -0.327804 0.929243
vn 0.001477 0.000443 0.999999
vn -0.151133 0.134025 0.979386
f 56/56/56 99/99/99 166/166/166
f 61/61/61 123/123/123 124/124/124
f 105/105/105 158/158/158 80/80/80
f 26/26/26 167/167/167 132/132/132
f 41/41/41 83/83/83 85/85/85
f 160/160/160 54/54/54 151/151/151
f 83/83/83 41/41/41 58/58/58
f 36/36/36 166/166/166 99/99/99
f 84/84/84 47/47/47 12/12/12
f 72/72/72 17/17/17 135/135/135
f 127/127/127 25/25/25 44/44/44
f 80/80/80 110/110/110 104/104/104
f 115/115/115 112/112/112 15/15/15
f 163/163/163 150/150/150 28/28/28
f 140/140/140 45/45/45 92/92/92
f 27/27/27 124/124/124 123/123/123
f 58/58/58 151/151/151 54/54/54
f 15/15/15 112/112/112 76/76/76
f 115/115/115 15/15/15 75/75/75
f 82/82/82 41/41/41 55/55/55
f 88/88/88 56/56/56 40/40/40
f 25/25/25 127/127/127 13/13/13
f 22/22/22 30/30/30 136/136/136
f 85/85/85 55/55/55 41/41/41
f 47/47/47 84/84/84 82/82/82
f 165/165/165 22/22/22 136/136/136
f 21/21/21 64/64/64 89/89/89
f 83/83/83 58/58/58 54/54/54
f 57/57/57 95/95/95 104/104/104
f 116/116/116 30/30/30 22/22/22
f 42/42/42 112/112/112 115/115/115
f 107/107/107 11/11/11 144/144/144
f 165/165/165 147/147/147 22/22/22
f 155/155/155 79/79/79 118/118/118
f 129/129/129 70/70/70 18/18/18
f 63/63/63 28/28/28 121/121/121
f 51/51/51 53/53/53 57/57/57
f 114/114/114 31/31/31 42/42/42
f 153/153/153 160/160/160 60/60/60
f 37/37/37 153/153/153 157/157/157
f 139/139/139 33/33/33 74/74/74
f 149/149/149 138/138/138 98/98/98
f 61/61/61 150/150/150 120/120/120
f 62/62/62 117/117/117 125/125/125
f 32/32/32 165/165/165 136/136/136
f 143/143/143 39/39/39 59/59/59
f 51/51/51 159/159/159 23/23/23
f 142/142/142 46/46/46 35/35/35
f 78/78/78 125/125/125 9/9/9
f 121/121/121 80/80/80 5/5/5
f 60/60/60 95/95/95 153/153/153
f 35/35/35 96/96/96 100/100/100
f 97/97/97 10/10/10 93/93/93
f 100/100/100 102/102/102 35/35/35
f 16/16/16 73/73/73 100/100/100
f 64/64/64 91/91/91 89/89/89
f 60/60/60 169/169/169 111/111/111
f 50/50/50 92/92/92 69/69/69
f 123/123/123 120/120/120 32/32/32
f 131/131/131 25/25/25 13/13/13
f 158/158/158 81/81/81 106/106/106
f 45/45/45 140/140/140 93/93/93
f 84/84/84 152/152/152 58/58/58
f 81/81/81 158/158/158 105/105/105
f 34/34/34 159/159/159 51/51/51
f 102/102/102 100/100/100 73/73/73
f 5/5/5 104/104/104 95/95/95
f 23/23/23 87/87/87 40/40/40
f 38/38/38 94/94/94 141/141/141
f 29/29/29 119/119/119 135/135/135
f 72/72/72 135/135/135 119/119/119
f 84/84/84 12/12/12 152/152/152
f 9/9/9 125/125/125 117/117/117
f 13/13/13 154/154/154 124/124/124
f 14/14/14 118/118/118 133/133/133
f 56/56/56 122/122/122 40/40/40
f 65/65/65 141/141/141 94/94/94
f 20/20/20 66/66/66 137/137/137
f 55/55/55 20/20/20 82/82/82
f 59/59/59 91/91/91 85/85/85
f 65/65/65 21/21/21 141/141/141
f 6/6/6 85/85/85 91/91/91
f 114/114/114 12/12/12 47/47/47
f 113/113/113 76/76/76 31/31/31
f 3/3/3 65/65/65 94/94/94
f 141/141/141 48/48/48 38/38/38
f 92/92/92 18/18/18 69/69/69
f 124/124/124 154/154/154 61/61/61
f 4/4/4 68/68/68 102/102/102
f 92/92/92 170/170/170 18/18/18
f 103/103/103 29/29/29 135/135/135
f 106/106/106 167/167/167 52/52/52
f 157/157/157 90/90/90 37/37/37
f 44/44/44 103/103/103 135/135/135
f 11/11/11 87/87/87 148/148/148
f 170/170/170 129/129/129 18/18/18
f 58/58/58 152/152/152 151/151/151
f 13/13/13 168/168/168 131/131/131
f 2/2/2 119/119/119 77/77/77
f 156/156/156 145/145/145 153/153/153
f 63/63/63 121/121/121 111/111/111
f 116/116/116 22/22/22 12/12/12
f 16/16/16 162/162/162 139/139/139
f 40/40/40 86/86/86 88/88/88
f 149/149/149 98/98/98 10/10/10
f 1/1/1 76/76/76 113/113/113
f 26/26/26 128/128/128 52/52/52
f 5/5/5 111/111/111 121/121/121
f 154/154/154 127/127/127 146/146/146
f 145/145/145 53/53/53 149/149/149
f 112/112/112 31/31/31 76/76/76
f 169/169/169 151/151/151 147/147/147
f 123/123/123 62/62/62 27/27/27
f 169/169/169 60/60/60 160/160/160
f 45/45/45 98/98/98 129/129/129
f 36/36/36 129/129/129 98/98/98
f 122/122/122 23/23/23 40/40/40
f 122/122/122 130/130/130 51/51/51
f 163/163/163 120/120/120 150/150/150
f 169/169/169 147/147/147 161/161/161
f 25/25/25 131/131/131 44/44/44
f 97/97/97 48/48/48 90/90/90
f 26/26/26 44/44/44 126/126/126
f 140/140/140 38/38/38 93/93/93
f 48/48/48 141/141/141 89/89/89
f 21/21/21 89/89/89 141/141/141
f 49/49/49 144/144/144 148/148/148
f 137/137/137 47/47/47 20/20/20
f 6/6/6 91/91/91 64/64/64
f 63/63/63 111/111/111 161/161/161
f 32/32/32 136/136/136 123/123/123
f 6/6/6 55/55/55 85/85/85
f 163/163/163 63/63/63 161/161/161
f 29/29/29 155/155/155 118/118/118
f 143/143/143 90/90/90 39/39/39
f 83/83/83 24/24/24 59/59/59
f 110/110/110 49/49/49 34/34/34
f 160/160/160 151/151/151 169/169/169
f 107/107/107 144/144/144 106/106/106
f 111/111/111 169/169/169 161/161/161
f 87/87/87 46/46/46 40/40/40
f 144/144/144 49/49/49 106/106/106
f 162/162/162 16/16/16 100/100/100
f 153/153/153 24/24/24 160/160/160
f 87/87/87 109/109/109 46/46/46
f 84/84/84 58/58/58 41/41/41
f 37/37/37 90/90/90 143/143/143
f 37/37/37 143/143/143 24/24/24
f 132/132/132 146/146/146 127/127/127
f 157/157/157 10/10/10 90/90/90
f 10/10/10 97/97/97 90/90/90
f 49/49/49 158/158/158 106/106/106
f 145/145/145 157/157/157 153/153/153
f 34/34/34 51/51/51 57/57/57
f 119/119/119 29/29/29 118/118/118
f 90/90/90 48/48/48 39/39/39
f 109/109/109 11/11/11 101/101/101
f 110/110/110 80/80/80 158/158/158
f 148/148/148 144/144/144 11/11/11
f 156/156/156 53/53/53 145/145/145
f 42/42/42 116/116/116 114/114/114
f 105/105/105 28/28/28 146/146/146
f 109/109/109 101/101/101 46/46/46
f 5/5/5 95/95/95 111/111/111
f 95/95/95 57/57/57 156/156/156
f 37/37/37 24/24/24 153/153/153
f 60/60/60 111/111/111 95/95/95
f 53/53/53 51/51/51 130/130/130
f 156/156/156 57/57/57 53/53/53
f 146/146/146 150/150/150 61/61/61
f 34/34/34 57/57/57 104/104/104
f 145/145/145 149/149/149 157/157/157
f 9/9/9 117/117/117 75/75/75
f 78/78/78 133/133/133 125/125/125
f 148/148/148 34/34/34 49/49/49
f 95/95/95 156/156/156 153/153/153
f 30/30/30 115/115/115 117/117/117
f 10/10/10 98/98/98 93/93/93
f 83/83/83 54/54/54 24/24/24
f 96/96/96 43/43/43 100/100/100
f 108/108/108 74/74/74 33/33/33
f 77/77/77 119/119/119 118/118/118
f 94/94/94 69/69/69 3/3/3
f 45/45/45 93/93/93 98/98/98
f 91/91/91 59/59/59 39/39/39
f 75/75/75 117/117/117 115/115/115
f 138/138/138 149/149/149 53/53/53
f 112/112/112 42/42/42 31/31/31
f 63/63/63 163/163/163 28/28/28
f 130/130/130 122/122/122 166/166/166
f 167/167/167 26/26/26 52/52/52
f 162/162/162 43/43/43 139/139/139
f 99/99/99 70/70/70 36/36/36
f 138/138/138 166/166/166 98/98/98
f 80/80/80 104/104/104 5/5/5
f 27/27/27 133/133/133 124/124/124
f 148/148/148 23/23/23 159/159/159
f 53/53/53 130/130/130 138/138/138
f 120/120/120 123/123/123 61/61/61
f 43/43/43 107/107/107 139/139/139
f 170/170/170 92/92/92 45/45/45
f 79/79/79 124/124/124 133/133/133
f 33/33/33 52/52/52 108/108/108
f 105/105/105 132/132/132 167/167/167
f 161/161/161 165/165/165 32/32/32
f 164/164/164 101/101/101 11/11/11
f 33/33/33 106/106/106 52/52/52
f 168/168/168 13/13/13 124/124/124
f 132/132/132 105/105/105 146/146/146
f 125/125/125 27/27/27 62/62/62
f 107/107/107 106/106/106 33/33/33
f 129/129/129 170/170/170 45/45/45
f 158/158/158 49/49/49 110/110/110
f 43/43/43 164/164/164 107/107/107
f 89/89/89 39/39/39 48/48/48
f 166/166/166 138/138/138 130/130/130
f 38/38/38 140/140/140 92/92/92
f 148/148/148 159/159/159 34/34/34
f 149/149/149 10/10/10 157/157/157
f 54/54/54 160/160/160 24/24/24
f 36/36/36 98/98/98 166/166/166
f 147/147/147 12/12/12 22/22/22
f 116/116/116 42/42/42 30/30/30
f 73/73/73 4/4/4 102/102/102
f 103/103/103 44/44/44 131/131/131
f 7/7/7 70/70/70 99/99/99
f 115/115/115 30/30/30 42/42/42
f 47/47/47 137/137/137 114/114/114
f 68/68/68 142/142/142 102/102/102
f 19/19/19 86/86/86 142/142/142
f 142/142/142 35/35/35 102/102/102
f 92/92/92 50/50/50 38/38/38
f 31/31/31 134/134/134 113/113/113
f 46/46/46 142/142/142 86/86/86
f 23/23/23 148/148/148 87/87/87
f 56/56/56 166/166/166 122/122/122
f 164/164/164 11/11/11 107/107/107
f 129/129/129 36/36/36 70/70/70
f 81/81/81 167/167/167 106/106/106
f 41/41/41 82/82/82 84/84/84
f 59/59/59 85/85/85 83/83/83
f 122/122/122 51/51/51 23/23/23
f 66/66/66 1/1/1 113/113/113
f 113/113/113 134/134/134 66/66/66
f 79/79/79 155/155/155 131/131/131
f 152/152/152 12/12/12 147/147/147
f 117/117/117 62/62/62 30/30/30
f 136/136/136 30/30/30 62/62/62
f 67/67/67 7/7/7 88/88/88
f 19/19/19 67/67/67 86/86/86
f 68/68/68 19/19/19 142/142/142
f 31/31/31 114/114/114 137/137/137
f 163/163/163 161/161/161 32/32/32
f 2/2/2 72/72/72 119/119/119
f 143/143/143 59/59/59 24/24/24
f 93/93/93 38/38/38 48/48/48
f 74/74/74 16/16/16 139/139/139
f 8/8/8 74/74/74 108/108/108
f 33/33/33 139/139/139 107/107/107
f 8/8/8 108/108/108 128/128/128
f 86/86/86 40/40/40 46/46/46
f 146/146/146 28/28/28 150/150/150
f 96/96/96 35/35/35 101/101/101
f 43/43/43 162/162/162 100/100/100
f 52/52/52 128/128/128 108/108/108
f 128/128/128 71/71/71 8/8/8
f 79/79/79 168/168/168 124/124/124
f 50/50/50 94/94/94 38/38/38
f 126/126/126 17/17/17 71/71/71
f 48/48/48 97/97/97 93/93/93
f 26/26/26 126/126/126 128/128/128
f 39/39/39 89/89/89 91/91/91
f 71/71/71 128/128/128 126/126/126
f 132/132/132 127/127/127 26/26/26
f 44/44/44 135/135/135 126/126/126
f 44/44/44 26/26/26 127/127/127
f 7/7/7 99/99/99 88/88/88
f 82/82/82 20/20/20 47/47/47
f 27/27/27 125/125/125 133/133/133
f 101/101/101 35/35/35 46/46/46
f 62/62/62 123/123/123 136/136/136
f 146/146/146 61/61/61 154/154/154
f 66/66/66 134/134/134 137/137/137
f 17/17/17 126/126/126 135/135/135
f 79/79/79 133/133/133 118/118/118
f 67/67/67 88/88/88 86/86/86
f 34/34/34 104/104/104 110/110/110
f 120/120/120 163/163/163 32/32/32
f 134/134/134 31/31/31 137/137/137
f 77/77/77 118/118/118 14/14/14
f 168/168/168 79/79/79 131/131/131
f 131/131/131 155/155/155 103/103/103
f 56/56/56 88/88/88 99/99/99
f 14/14/14 133/133/133 78/78/78
f 12/12/12 114/114/114 116/116/116
f 154/154/154 13/13/13 127/127/127
f 29/29/29 103/103/103 155/155/155
f 121/121/121 28/28/28 80/80/80
f 28/28/28 105/105/105 80/80/80
f 94/94/94 50/50/50 69/69/69
f 109/109/109 87/87/87 11/11/11
f 147/147/147 165/165/165 161/161/161
f 147/147/147 151/151/151 152/152/152
f 167/167/167 81/81/81 105/105/105
f 43/43/43 96/96/96 164/164/164
f 101/101/101 164/164/164 96/96/96
