# frame 000626 
# time 0.313500 
# name Cloth3D 
v -0.000000 0.000000 -0.000000
v 1.000000 0.000000 -0.000000
v -0.000000 1.000000 0.000000
v 1.000000 1.000000 0.000000
v 0.501006 0.500685 0.119657
v -0.000000 0.500000 0.000000
v 0.500000 1.000000 0.000000
v 1.000000 0.500000 0.000000
v 0.500000 -0.000000 0.000000
v 0.246600 0.754260 0.064704
v 0.757045 0.756947 0.077009
v 0.246840 0.246329 0.066884
v 0.757507 0.243738 0.073507
v 0.750000 0.000000 0.000000
v 0.250000 0.000000 0.000000
v 1.000000 0.750000 0.000000
v 1.000000 0.250000 0.000000
v 0.250000 1.000000 0.000000
v 0.750000 1.000000 0.000000
v 0.000000 0.250000 0.000000
v 0.000000 0.750000 -0.000000
v 0.363165 0.214757 0.081198
v 0.632577 0.774574 0.079580
v 1.000000 0.937500 0.000000
v 0.813602 0.248847 0.041977
v 0.874895 0.375101 0.036747
v 0.626099 0.122392 0.043783
v 0.633303 0.368899 0.119967
v 0.873465 0.126575 -0.001909
v 0.374661 0.123159 0.042641
v 0.126180 0.125643 0.006731
v 0.493044 0.247184 0.088528
v 0.878609 0.626869 0.047666
v 0.632042 0.632973 0.119916
v 0.874660 0.873699 0.007308
v 0.374422 0.877460 0.043395
v 0.258393 0.603065 0.089000
v 0.127139 0.873318 -0.003521
v 0.124633 0.625224 0.037023
v 0.625160 0.872844 0.031328
v 0.123773 0.374258 0.039741
v 0.249185 0.122493 0.035182
v 0.875559 0.748873 0.026930
v 0.874480 0.250423 0.022307
v 0.250465 0.875149 0.024265
v 0.749816 0.872777 0.018847
v 0.125537 0.249856 0.025142
v 0.125998 0.749543 0.021109
v 0.720014 0.617278 0.119941
v 0.126170 0.936840 -0.006259
v 0.552486 0.709665 0.119929
v 0.876161 0.500844 0.044111
v 0.424298 0.710077 0.119938
v 0.245160 0.454113 0.085638
v 0.000000 0.375000 0.000000
v 0.499624 0.875250 0.041108
v 0.500210 0.631797 0.119865
v 0.245515 0.371403 0.087936
v 0.125268 0.499622 0.038346
v 0.370045 0.500389 0.119842
v 0.630856 0.244432 0.090518
v 0.500431 0.125107 0.039705
v 0.501455 0.369791 0.119994
v 0.000000 0.625000 0.000000
v 0.000000 0.875000 0.000000
v 0.000000 0.125000 0.000000
v 0.625000 1.000000 0.000000
v 0.875000 1.000000 0.000000
v 0.125000 1.000000 0.000000
v 0.375000 1.000000 0.000000
v 1.000000 0.375000 0.000000
v 1.000000 0.125000 0.000000
v 1.000000 0.875000 0.000000
v 1.000000 0.625000 0.000000
v 0.375000 0.000000 0.000000
v 0.125000 0.000000 0.000000
v 0.875000 0.000000 0.000000
v 0.625000 0.000000 0.000000
v 0.749844 0.125075 0.023445
v 0.632021 0.500870 0.119908
v 0.719711 0.488909 0.119929
v 0.062758 0.312518 0.014748
v 0.186094 0.436294 0.062236
v 0.184592 0.310290 0.058445
v 0.062255 0.437317 0.019801
v 0.687018 0.935565 0.008839
v 0.690039 0.814288 0.054716
v 0.562406 0.936894 0.018280
v 0.062951 0.687131 0.013662
v 0.187066 0.688980 0.049815
v 0.062568 0.562313 0.018909
v 0.188342 0.936705 0.002828
v 0.188525 0.811968 0.023812
v 0.063238 0.936964 -0.003229
v 0.435025 0.566103 0.119787
v 0.874608 0.811044 0.014951
v 0.937500 0.000000 -0.000000
v 0.310765 0.815564 0.057622
v 0.437481 0.938336 0.021910
v 0.937141 0.811660 0.006917
v 0.813754 0.812384 0.031695
v 0.937248 0.937024 -0.000240
v 0.873830 0.188593 0.010087
v 0.566336 0.566616 0.119722
v 0.719496 0.424254 0.119929
v 0.824207 0.594404 0.070535
v 0.819333 0.692002 0.070081
v 0.937287 0.563094 0.019584
v 0.489153 0.709853 0.119934
v 0.692131 0.589542 0.119939
v 0.435671 0.435063 0.119721
v 0.187917 0.062460 0.008922
v 0.062996 0.062947 -0.004188
v 0.186978 0.186212 0.034281
v 0.312491 0.060892 0.021383
v 0.310663 0.183247 0.062406
v 0.437684 0.061445 0.022791
v 0.811509 0.063508 0.000390
v 0.937064 0.062932 -0.007426
v 0.557480 0.243862 0.090336
v 0.566994 0.434968 0.119936
v 0.525126 0.805622 0.066839
v 0.564392 0.184412 0.067459
v 0.690966 0.183822 0.059244
v 0.562769 0.062760 0.018516
v 0.936724 0.313063 0.012871
v 0.815671 0.310472 0.057308
v 0.936940 0.437921 0.018190
v 0.312949 0.937485 0.015089
v 0.476505 0.766599 0.088154
v 0.812214 0.187825 0.024810
v 0.805122 0.370467 0.070859
v 0.687722 0.061050 0.020126
v 0.063256 0.125521 0.000445
v 0.936523 0.188393 0.001315
v 0.437068 0.185286 0.065344
v 0.063733 0.188267 0.002197
v 0.382771 0.772994 0.089014
v 0.940754 0.687857 0.025041
v 0.188639 0.874171 0.011614
v 0.063657 0.811671 0.001515
v 0.811919 0.936051 0.001493
v 0.187044 0.563026 0.059091
v 0.774406 0.655691 0.093994
v 0.320733 0.662293 0.119929
v 0.719281 0.309399 0.119942
v 0.319486 0.310716 0.119942
v 0.720515 0.709284 0.119942
v 0.320716 0.710514 0.119942
v 0.487391 0.310328 0.119929
v 0.319886 0.405134 0.119938
v 0.291454 0.325501 0.103271
v 0.320519 0.597915 0.119929
v 0.726823 0.290081 0.110567
v 0.936970 0.874041 -0.001314
v 0.432871 0.641766 0.119784
v 0.276260 0.662862 0.095411
v 0.719668 0.553534 0.119941
v 0.617333 0.709452 0.119929
v 0.320121 0.469611 0.119935
v 0.421421 0.310546 0.119929
v 0.874552 0.312565 0.030131
v 0.551039 0.310117 0.119929
v 0.320305 0.533025 0.119929
v 0.416526 0.251749 0.093871
v 0.424102 0.818963 0.067932
v 0.816144 0.482040 0.069763
v 1.000000 0.062500 -0.000000
v 0.370728 0.414332 0.119884
v 0.772749 0.422947 0.088716
v 0.243795 0.515631 0.082025
v 0.616747 0.309865 0.119936
v 1.000000 0.812500 0.000000
v 0.062500 0.000000 -0.000000
v 0.752666 0.185237 0.045418
vt 0.000000 0.000000
vt 1.000000 0.000000
vt 0.000000 1.000000
vt 1.000000 1.000000
vt 0.500000 0.500000
vt 0.000000 0.500000
vt 0.500000 1.000000
vt 1.000000 0.500000
vt 0.500000 0.000000
vt 0.250000 0.750000
vt 0.750000 0.750000
vt 0.250000 0.250000
vt 0.750000 0.250000
vt 0.750000 0.000000
vt 0.250000 0.000000
vt 1.000000 0.750000
vt 1.000000 0.250000
vt 0.250000 1.000000
vt 0.750000 1.000000
vt 0.000000 0.250000
vt 0.000000 0.750000
vt 0.365347 0.220303
vt 0.629073 0.770824
vt 1.000000 0.937500
vt 0.812500 0.250000
vt 0.875000 0.375000
vt 0.625000 0.125000
vt 0.625000 0.375000
vt 0.875000 0.125000
vt 0.375000 0.125000
vt 0.125000 0.125000
vt 0.492214 0.250470
vt 0.875000 0.625000
vt 0.625000 0.625000
vt 0.875000 0.875000
vt 0.375000 0.875000
vt 0.262101 0.599801
vt 0.125000 0.875000
vt 0.125000 0.625000
vt 0.625000 0.875000
vt 0.125000 0.375000
vt 0.250000 0.125000
vt 0.875000 0.750000
vt 0.875000 0.250000
vt 0.250000 0.875000
vt 0.750000 0.875000
vt 0.125000 0.250000
vt 0.125000 0.750000
vt 0.708968 0.610014
vt 0.125000 0.937500
vt 0.550125 0.699154
vt 0.875000 0.500000
vt 0.428268 0.699857
vt 0.248222 0.455442
vt 0.000000 0.375000
vt 0.500000 0.875000
vt 0.500000 0.625000
vt 0.250000 0.375000
vt 0.125000 0.500000
vt 0.375000 0.500000
vt 0.625000 0.250000
vt 0.500000 0.125000
vt 0.500000 0.375000
vt 0.000000 0.625000
vt 0.000000 0.875000
vt 0.000000 0.125000
vt 0.625000 1.000000
vt 0.875000 1.000000
vt 0.125000 1.000000
vt 0.375000 1.000000
vt 1.000000 0.375000
vt 1.000000 0.125000
vt 1.000000 0.875000
vt 1.000000 0.625000
vt 0.375000 0.000000
vt 0.125000 0.000000
vt 0.875000 0.000000
vt 0.625000 0.000000
vt 0.750000 0.125000
vt 0.625000 0.500000
vt 0.708748 0.488379
vt 0.062500 0.312500
vt 0.187500 0.437500
vt 0.187500 0.312500
vt 0.062500 0.437500
vt 0.687500 0.937500
vt 0.687500 0.812500
vt 0.562500 0.937500
vt 0.062500 0.687500
vt 0.187500 0.687500
vt 0.062500 0.562500
vt 0.187500 0.937500
vt 0.187500 0.812500
vt 0.062500 0.937500
vt 0.437500 0.562500
vt 0.875000 0.812500
vt 0.937500 0.000000
vt 0.312500 0.812500
vt 0.437500 0.937500
vt 0.937500 0.812500
vt 0.812500 0.812500
vt 0.937500 0.937500
vt 0.875000 0.187500
vt 0.562500 0.562500
vt 0.707742 0.427241
vt 0.819332 0.591237
vt 0.812500 0.687500
vt 0.937500 0.562500
vt 0.489806 0.699649
vt 0.682510 0.583771
vt 0.437500 0.437500
vt 0.187500 0.062500
vt 0.062500 0.062500
vt 0.187500 0.187500
vt 0.312500 0.062500
vt 0.312500 0.187500
vt 0.437500 0.062500
vt 0.812500 0.062500
vt 0.937500 0.062500
vt 0.554454 0.248535
vt 0.562500 0.437500
vt 0.525016 0.804189
vt 0.562500 0.187500
vt 0.687500 0.187500
vt 0.562500 0.062500
vt 0.937500 0.312500
vt 0.812500 0.312500
vt 0.937500 0.437500
vt 0.312500 0.937500
vt 0.477574 0.762067
vt 0.812500 0.187500
vt 0.800716 0.372483
vt 0.687500 0.062500
vt 0.062500 0.125000
vt 0.937500 0.187500
vt 0.437500 0.187500
vt 0.062500 0.187500
vt 0.386728 0.766561
vt 0.937500 0.687500
vt 0.187500 0.875000
vt 0.062500 0.812500
vt 0.812500 0.937500
vt 0.187500 0.562500
vt 0.765906 0.648544
vt 0.330165 0.653996
vt 0.704329 0.319836
vt 0.328208 0.320363
vt 0.707935 0.695056
vt 0.331410 0.698841
vt 0.486652 0.318005
vt 0.327006 0.409015
vt 0.296906 0.332149
vt 0.328519 0.593179
vt 0.713437 0.300753
vt 0.937500 0.875000
vt 0.436137 0.634590
vt 0.281585 0.657008
vt 0.709032 0.549753
vt 0.611768 0.697959
vt 0.327102 0.470648
vt 0.423928 0.318363
vt 0.875000 0.312500
vt 0.547220 0.318086
vt 0.327595 0.531354
vt 0.418341 0.256674
vt 0.425703 0.815414
vt 0.812755 0.481587
vt 1.000000 0.062500
vt 0.375653 0.417988
vt 0.766844 0.424637
vt 0.245672 0.515386
vt 0.609354 0.318370
vt 1.000000 0.812500
vt 0.062500 0.000000
vt 0.750000 0.187500
vn 0.019956 0.039911 0.999004
vn -0.059106 0.059106 0.996500
vn 0.025352 -0.025352 0.999357
vn -0.003548 -0.001774 0.999992
vn -0.000393 0.000550 1.000000
vn -0.298039 0.003419 0.954547
vn 0.014414 0.303843 0.952613
vn 0.287959 -0.006555 0.957620
vn 0.017651 -0.315125 0.948886
vn -0.364839 0.276838 0.888962
vn 0.285421 0.448505 0.846982
vn -0.293866 -0.253493 0.921620
vn 0.391488 -0.359976 0.846850
vn 0.079163 -0.163136 0.983423
vn -0.049005 -0.242865 0.968822
vn 0.204936 0.059586 0.976960
vn 0.114330 -0.045416 0.992404
vn -0.047455 0.142928 0.988595
vn 0.027772 0.078714 0.996510
vn -0.164880 -0.047503 0.985169
vn -0.119356 0.047930 0.991694
vn -0.038661 -0.370689 0.927952
vn 0.043655 0.487848 0.871836
vn -0.010299 -0.004989 0.999934
vn 0.395351 -0.249111 0.884105
vn 0.372826 -0.076615 0.924733
vn 0.041413 -0.337291 0.940489
vn 0.000072 -0.000115 1.000000
vn 0.127298 -0.134232 0.982739
vn -0.022350 -0.341238 0.939711
vn -0.159152 -0.108355 0.981290
vn -0.001919 -0.401485 0.915864
vn 0.378823 -0.018469 0.925285
vn -0.000541 -0.000736 1.000000
vn 0.126713 0.114546 0.985303
vn -0.068611 0.358235 0.931107
vn -0.429319 0.026026 0.902778
vn -0.119891 0.108073 0.986887
vn -0.295474 0.061992 0.953337
vn 0.074541 0.349330 0.934030
vn -0.335721 -0.033761 0.941356
vn -0.149718 -0.259185 0.954153
vn 0.265510 0.237504 0.934396
vn 0.269412 -0.174010 0.947173
vn -0.189873 0.230616 0.954340
vn 0.105383 0.296530 0.949191
vn -0.278683 -0.140950 0.949984
vn -0.252388 0.152803 0.955485
vn 0.155690 -0.000489 0.987806
vn -0.051275 -0.024418 0.998386
vn 0.004606 0.255142 0.966893
vn 0.391036 -0.036938 0.919634
vn 0.010014 0.243563 0.969833
vn -0.395499 0.033643 0.917850
vn -0.284433 -0.020541 0.958476
vn 0.061018 0.343168 0.937290
vn -0.000591 -0.001024 0.999999
vn -0.378167 -0.030154 0.925246
vn -0.318472 0.020542 0.947710
vn 0.001664 0.000077 0.999999
vn 0.014037 -0.409853 0.912044
vn 0.014096 -0.348912 0.937050
vn -0.000640 0.000284 1.000000
vn -0.252638 0.020625 0.967341
vn 0.012769 0.019197 0.999734
vn -0.002831 -0.032859 0.999456
vn 0.037582 0.205420 0.977952
vn 0.007462 0.009492 0.999927
vn -0.032865 -0.062090 0.997529
vn -0.024795 0.307508 0.951222
vn 0.239702 -0.018955 0.970661
vn -0.061368 -0.028704 0.997702
vn 0.006938 0.032599 0.999444
vn 0.346609 -0.025341 0.937667
vn -0.003246 -0.341689 0.939807
vn -0.041659 -0.022589 0.998877
vn 0.025310 0.068054 0.997361
vn -0.008955 -0.298762 0.954286
vn 0.211393 -0.276475 0.937483
vn -0.000925 0.000642 0.999999
vn 0.240160 -0.006801 0.970710
vn -0.267215 -0.055380 0.962044
vn -0.360160 0.025905 0.932531
vn -0.349580 -0.136841 0.926860
vn -0.307089 0.004661 0.951669
vn 0.058294 0.193148 0.979436
vn 0.103196 0.444304 0.889913
vn 0.045799 0.275629 0.960172
vn -0.227452 0.065888 0.971558
vn -0.355559 0.107612 0.928438
vn -0.290781 0.014802 0.956675
vn -0.137594 0.077140 0.987480
vn -0.252927 0.235468 0.938394
vn 0.031759 -0.012063 0.999423
vn 0.000625 -0.000495 1.000000
vn 0.194577 0.156328 0.968350
vn 0.000000 0.117797 0.993038
vn -0.200501 0.383320 0.901590
vn 0.014526 0.333504 0.942637
vn 0.109914 0.098308 0.989067
vn 0.239016 0.276289 0.930879
vn 0.021872 -0.002069 0.999759
vn 0.179773 -0.194384 0.964311
vn -0.000877 -0.000816 0.999999
vn 0.319709 -0.001605 0.947514
vn 0.412052 -0.007795 0.911127
vn 0.415553 0.140038 0.898724
vn 0.349929 -0.025213 0.936437
vn 0.001393 0.262467 0.964940
vn -0.000320 -0.000035 1.000000
vn 0.000690 0.001091 0.999999
vn -0.107434 -0.169946 0.979580
vn -0.026647 -0.013276 0.999557
vn -0.255473 -0.192033 0.947553
vn -0.039750 -0.305080 0.951497
vn -0.137515 -0.316574 0.938547
vn 0.014634 -0.326085 0.945227
vn 0.106096 -0.083040 0.990882
vn -0.031381 0.029930 0.999059
vn -0.024925 -0.387814 0.921401
vn -0.000855 0.001505 0.999999
vn 0.043545 0.423213 0.904983
vn -0.007586 -0.371155 0.928540
vn 0.149411 -0.400926 0.903844
vn -0.005339 -0.320100 0.947369
vn 0.238373 -0.069144 0.968709
vn 0.448145 -0.159283 0.879656
vn 0.308780 -0.027026 0.950749
vn -0.086811 0.272677 0.958181
vn 0.027189 0.453218 0.890985
vn 0.297771 -0.272033 0.915058
vn 0.467791 -0.064110 0.881511
vn 0.076673 -0.261651 0.962112
vn -0.058040 -0.048982 0.997112
vn 0.091419 -0.111055 0.989601
vn 0.030085 -0.369569 0.928716
vn -0.121085 -0.072653 0.989980
vn -0.014257 0.434895 0.900369
vn 0.330340 0.076914 0.940723
vn -0.218017 0.162870 0.962259
vn -0.071508 0.082306 0.994038
vn 0.040662 0.099391 0.994217
vn -0.353242 0.026810 0.935148
vn 0.442362 0.010580 0.896774
vn -0.331205 0.001022 0.943558
vn 0.276573 -0.265025 0.923726
vn -0.375600 -0.110608 0.920158
vn 0.251126 0.261506 0.931960
vn -0.281907 0.150806 0.947516
vn 0.003623 -0.210754 0.977532
vn -0.181002 -0.003475 0.983477
vn -0.474357 -0.056881 0.878493
vn -0.287289 0.007711 0.957813
vn 0.321628 -0.334660 0.885753
vn 0.056156 0.058604 0.996701
vn -0.000175 -0.000937 1.000000
vn -0.472358 0.042621 0.880376
vn 0.148265 -0.003027 0.988943
vn 0.001364 0.273515 0.961867
vn -0.175417 0.004429 0.984484
vn -0.001305 -0.243417 0.969921
vn 0.344521 -0.106474 0.932721
vn -0.007251 -0.234544 0.972079
vn -0.210554 0.001373 0.977581
vn 0.028224 -0.391107 0.919912
vn 0.035527 0.387154 0.921330
vn 0.428618 -0.040537 0.902576
vn -0.117807 -0.000000 0.993037
vn 0.001466 0.000452 0.999999
vn 0.472412 -0.019655 0.881158
vn -0.399770 0.019369 0.916411
vn -0.001468 -0.202237 0.979336
vn 0.105762 0.000000 0.994391
vn -0.000000 0.059835 0.998208
vn 0.262623 -0.389571 0.882759
f 56/56/56 99/99/99 166/166/166
f 112/112/112 31/31/31 113/113/113
f 170/170/170 132/132/132 167/167/167
f 26/26/26 167/167/167 132/132/132
f 41/41/41 83/83/83 85/85/85
f 160/160/160 54/54/54 151/151/151
f 83/83/83 41/41/41 58/58/58
f 36/36/36 166/166/166 99/99/99
f 84/84/84 47/47/47 12/12/12
f 72/72/72 17/17/17 135/135/135
f 127/127/127 25/25/25 44/44/44
f 80/80/80 110/110/110 104/104/104
f 115/115/115 112/112/112 15/15/15
f 163/163/163 172/172/172 28/28/28
f 140/140/140 45/45/45 92/92/92
f 76/76/76 112/112/112 113/113/113
f 58/58/58 151/151/151 54/54/54
f 15/15/15 112/112/112 76/76/76
f 115/115/115 15/15/15 75/75/75
f 82/82/82 41/41/41 55/55/55
f 88/88/88 56/56/56 40/40/40
f 25/25/25 127/127/127 13/13/13
f 22/22/22 30/30/30 136/136/136
f 85/85/85 55/55/55 41/41/41
f 47/47/47 84/84/84 82/82/82
f 165/165/165 22/22/22 136/136/136
f 21/21/21 64/64/64 89/89/89
f 83/83/83 58/58/58 54/54/54
f 57/57/57 95/95/95 104/104/104
f 116/116/116 30/30/30 22/22/22
f 42/42/42 112/112/112 115/115/115
f 26/26/26 162/162/162 126/126/126
f 165/165/165 147/147/147 22/22/22
f 155/155/155 100/100/100 73/73/73
f 129/129/129 70/70/70 18/18/18
f 63/63/63 28/28/28 121/121/121
f 162/162/162 26/26/26 127/127/127
f 114/114/114 31/31/31 42/42/42
f 150/150/150 165/165/165 32/32/32
f 37/37/37 153/153/153 157/157/157
f 164/164/164 153/153/153 37/37/37
f 149/149/149 138/138/138 98/98/98
f 61/61/61 172/172/172 120/120/120
f 139/139/139 16/16/16 43/43/43
f 32/32/32 165/165/165 136/136/136
f 143/143/143 39/39/39 59/59/59
f 51/51/51 159/159/159 23/23/23
f 142/142/142 46/46/46 35/35/35
f 78/78/78 125/125/125 9/9/9
f 121/121/121 80/80/80 5/5/5
f 60/60/60 95/95/95 153/153/153
f 144/144/144 107/107/107 148/148/148
f 9/9/9 125/125/125 117/117/117
f 130/130/130 53/53/53 109/109/109
f 44/44/44 162/162/162 127/127/127
f 64/64/64 91/91/91 89/89/89
f 60/60/60 169/169/169 111/111/111
f 50/50/50 92/92/92 69/69/69
f 63/63/63 161/161/161 150/150/150
f 131/131/131 25/25/25 13/13/13
f 81/81/81 170/170/170 167/167/167
f 45/45/45 140/140/140 93/93/93
f 84/84/84 152/152/152 58/58/58
f 51/51/51 109/109/109 57/57/57
f 34/34/34 159/159/159 51/51/51
f 11/11/11 148/148/148 107/107/107
f 5/5/5 104/104/104 95/95/95
f 23/23/23 87/87/87 40/40/40
f 38/38/38 94/94/94 141/141/141
f 29/29/29 119/119/119 135/135/135
f 72/72/72 135/135/135 119/119/119
f 84/84/84 12/12/12 152/152/152
f 100/100/100 43/43/43 16/16/16
f 13/13/13 154/154/154 124/124/124
f 14/14/14 118/118/118 133/133/133
f 56/56/56 122/122/122 40/40/40
f 65/65/65 141/141/141 94/94/94
f 20/20/20 66/66/66 137/137/137
f 55/55/55 20/20/20 82/82/82
f 59/59/59 91/91/91 85/85/85
f 65/65/65 21/21/21 141/141/141
f 6/6/6 85/85/85 91/91/91
f 114/114/114 12/12/12 47/47/47
f 173/173/173 73/73/73 100/100/100
f 3/3/3 65/65/65 94/94/94
f 141/141/141 48/48/48 38/38/38
f 92/92/92 18/18/18 69/69/69
f 124/124/124 154/154/154 61/61/61
f 4/4/4 68/68/68 102/102/102
f 167/167/167 106/106/106 158/158/158
f 103/103/103 29/29/29 135/135/135
f 106/106/106 167/167/167 52/52/52
f 157/157/157 90/90/90 37/37/37
f 44/44/44 103/103/103 135/135/135
f 101/101/101 11/11/11 43/43/43
f 81/81/81 167/167/167 158/158/158
f 58/58/58 152/152/152 151/151/151
f 164/164/164 171/171/171 160/160/160
f 155/155/155 35/35/35 100/100/100
f 156/156/156 145/145/145 153/153/153
f 23/23/23 148/148/148 11/11/11
f 116/116/116 22/22/22 12/12/12
f 118/118/118 29/29/29 79/79/79
f 40/40/40 86/86/86 88/88/88
f 149/149/149 98/98/98 10/10/10
f 131/131/131 79/79/79 29/29/29
f 26/26/26 128/128/128 52/52/52
f 23/23/23 11/11/11 87/87/87
f 97/97/97 119/119/119 77/77/77
f 145/145/145 53/53/53 149/149/149
f 16/16/16 173/173/173 100/100/100
f 169/169/169 151/151/151 147/147/147
f 168/168/168 72/72/72 119/119/119
f 169/169/169 60/60/60 160/160/160
f 45/45/45 98/98/98 129/129/129
f 36/36/36 129/129/129 98/98/98
f 164/164/164 160/160/160 60/60/60
f 122/122/122 130/130/130 51/51/51
f 163/163/163 120/120/120 172/172/172
f 169/169/169 147/147/147 161/161/161
f 25/25/25 131/131/131 44/44/44
f 96/96/96 100/100/100 35/35/35
f 1/1/1 174/174/174 113/113/113
f 140/140/140 38/38/38 93/93/93
f 48/48/48 141/141/141 89/89/89
f 21/21/21 89/89/89 141/141/141
f 49/49/49 144/144/144 148/148/148
f 109/109/109 51/51/51 130/130/130
f 6/6/6 91/91/91 64/64/64
f 63/63/63 111/111/111 161/161/161
f 32/32/32 136/136/136 123/123/123
f 6/6/6 55/55/55 85/85/85
f 154/154/154 127/127/127 132/132/132
f 155/155/155 102/102/102 35/35/35
f 143/143/143 90/90/90 39/39/39
f 83/83/83 171/171/171 59/59/59
f 110/110/110 49/49/49 34/34/34
f 160/160/160 151/151/151 169/169/169
f 107/107/107 144/144/144 106/106/106
f 111/111/111 169/169/169 161/161/161
f 87/87/87 46/46/46 40/40/40
f 144/144/144 49/49/49 106/106/106
f 111/111/111 63/63/63 5/5/5
f 150/150/150 161/161/161 165/165/165
f 125/125/125 27/27/27 62/62/62
f 84/84/84 58/58/58 41/41/41
f 37/37/37 90/90/90 143/143/143
f 37/37/37 143/143/143 171/171/171
f 97/97/97 2/2/2 119/119/119
f 157/157/157 10/10/10 90/90/90
f 73/73/73 24/24/24 155/155/155
f 49/49/49 158/158/158 106/106/106
f 145/145/145 157/157/157 153/153/153
f 34/34/34 51/51/51 57/57/57
f 119/119/119 29/29/29 118/118/118
f 90/90/90 48/48/48 39/39/39
f 105/105/105 170/170/170 81/81/81
f 110/110/110 80/80/80 158/158/158
f 156/156/156 57/57/57 109/109/109
f 156/156/156 53/53/53 145/145/145
f 42/42/42 116/116/116 114/114/114
f 102/102/102 155/155/155 24/24/24
f 123/123/123 62/62/62 27/27/27
f 5/5/5 95/95/95 111/111/111
f 95/95/95 57/57/57 156/156/156
f 163/163/163 150/150/150 32/32/32
f 60/60/60 111/111/111 95/95/95
f 133/133/133 79/79/79 27/27/27
f 124/124/124 27/27/27 79/79/79
f 146/146/146 172/172/172 61/61/61
f 34/34/34 57/57/57 104/104/104
f 145/145/145 149/149/149 157/157/157
f 9/9/9 117/117/117 75/75/75
f 78/78/78 133/133/133 125/125/125
f 148/148/148 34/34/34 49/49/49
f 95/95/95 156/156/156 153/153/153
f 30/30/30 115/115/115 117/117/117
f 10/10/10 98/98/98 93/93/93
f 83/83/83 54/54/54 171/171/171
f 96/96/96 43/43/43 100/100/100
f 37/37/37 171/171/171 164/164/164
f 77/77/77 119/119/119 118/118/118
f 94/94/94 69/69/69 3/3/3
f 45/45/45 93/93/93 98/98/98
f 91/91/91 59/59/59 39/39/39
f 75/75/75 117/117/117 115/115/115
f 138/138/138 149/149/149 53/53/53
f 112/112/112 42/42/42 31/31/31
f 63/63/63 163/163/163 28/28/28
f 163/163/163 63/63/63 150/150/150
f 167/167/167 26/26/26 52/52/52
f 162/162/162 44/44/44 126/126/126
f 99/99/99 70/70/70 36/36/36
f 62/62/62 136/136/136 117/117/117
f 80/80/80 104/104/104 5/5/5
f 27/27/27 124/124/124 123/123/123
f 148/148/148 23/23/23 159/159/159
f 53/53/53 130/130/130 138/138/138
f 120/120/120 123/123/123 61/61/61
f 43/43/43 107/107/107 139/139/139
f 81/81/81 158/158/158 80/80/80
f 61/61/61 123/123/123 124/124/124
f 33/33/33 52/52/52 108/108/108
f 166/166/166 36/36/36 138/138/138
f 139/139/139 33/33/33 108/108/108
f 82/82/82 20/20/20 47/47/47
f 33/33/33 106/106/106 52/52/52
f 175/175/175 13/13/13 124/124/124
f 98/98/98 138/138/138 36/36/36
f 29/29/29 103/103/103 131/131/131
f 107/107/107 106/106/106 33/33/33
f 137/137/137 47/47/47 20/20/20
f 158/158/158 49/49/49 110/110/110
f 46/46/46 87/87/87 101/101/101
f 89/89/89 39/39/39 48/48/48
f 166/166/166 138/138/138 130/130/130
f 38/38/38 140/140/140 92/92/92
f 148/148/148 159/159/159 34/34/34
f 149/149/149 10/10/10 157/157/157
f 54/54/54 160/160/160 171/171/171
f 30/30/30 117/117/117 136/136/136
f 147/147/147 12/12/12 22/22/22
f 116/116/116 42/42/42 30/30/30
f 74/74/74 139/139/139 108/108/108
f 103/103/103 44/44/44 131/131/131
f 7/7/7 70/70/70 99/99/99
f 115/115/115 30/30/30 42/42/42
f 90/90/90 10/10/10 48/48/48
f 68/68/68 142/142/142 102/102/102
f 19/19/19 86/86/86 142/142/142
f 142/142/142 35/35/35 102/102/102
f 92/92/92 50/50/50 38/38/38
f 31/31/31 134/134/134 113/113/113
f 46/46/46 142/142/142 86/86/86
f 107/107/107 43/43/43 11/11/11
f 56/56/56 166/166/166 122/122/122
f 11/11/11 101/101/101 87/87/87
f 129/129/129 36/36/36 70/70/70
f 105/105/105 81/81/81 80/80/80
f 41/41/41 82/82/82 84/84/84
f 59/59/59 85/85/85 83/83/83
f 122/122/122 51/51/51 23/23/23
f 66/66/66 1/1/1 113/113/113
f 113/113/113 134/134/134 66/66/66
f 2/2/2 168/168/168 119/119/119
f 152/152/152 12/12/12 147/147/147
f 47/47/47 137/137/137 114/114/114
f 31/31/31 114/114/114 137/137/137
f 67/67/67 7/7/7 88/88/88
f 19/19/19 67/67/67 86/86/86
f 68/68/68 19/19/19 142/142/142
f 93/93/93 48/48/48 10/10/10
f 154/154/154 132/132/132 146/146/146
f 24/24/24 4/4/4 102/102/102
f 143/143/143 59/59/59 171/171/171
f 93/93/93 38/38/38 48/48/48
f 74/74/74 16/16/16 139/139/139
f 8/8/8 74/74/74 108/108/108
f 33/33/33 139/139/139 107/107/107
f 8/8/8 108/108/108 128/128/128
f 86/86/86 40/40/40 46/46/46
f 146/146/146 28/28/28 172/172/172
f 96/96/96 35/35/35 101/101/101
f 121/121/121 5/5/5 63/63/63
f 52/52/52 128/128/128 108/108/108
f 128/128/128 71/71/71 8/8/8
f 79/79/79 175/175/175 124/124/124
f 50/50/50 94/94/94 38/38/38
f 126/126/126 17/17/17 71/71/71
f 62/62/62 117/117/117 125/125/125
f 26/26/26 126/126/126 128/128/128
f 39/39/39 89/89/89 91/91/91
f 71/71/71 128/128/128 126/126/126
f 132/132/132 127/127/127 26/26/26
f 44/44/44 135/135/135 126/126/126
f 174/174/174 76/76/76 113/113/113
f 7/7/7 99/99/99 88/88/88
f 43/43/43 96/96/96 101/101/101
f 27/27/27 125/125/125 133/133/133
f 101/101/101 35/35/35 46/46/46
f 62/62/62 123/123/123 136/136/136
f 146/146/146 61/61/61 154/154/154
f 66/66/66 134/134/134 137/137/137
f 17/17/17 126/126/126 135/135/135
f 79/79/79 133/133/133 118/118/118
f 67/67/67 88/88/88 86/86/86
f 34/34/34 104/104/104 110/110/110
f 120/120/120 163/163/163 32/32/32
f 134/134/134 31/31/31 137/137/137
f 77/77/77 118/118/118 14/14/14
f 60/60/60 153/153/153 164/164/164
f 18/18/18 92/92/92 129/129/129
f 56/56/56 88/88/88 99/99/99
f 14/14/14 133/133/133 78/78/78
f 12/12/12 114/114/114 116/116/116
f 154/154/154 13/13/13 127/127/127
f 45/45/45 129/129/129 92/92/92
f 121/121/121 28/28/28 80/80/80
f 28/28/28 105/105/105 80/80/80
f 94/94/94 50/50/50 69/69/69
f 109/109/109 53/53/53 156/156/156
f 147/147/147 165/165/165 161/161/161
f 147/147/147 151/151/151 152/152/152
f 130/130/130 122/122/122 166/166/166
f 123/123/123 120/120/120 32/32/32
f 122/122/122 23/23/23 40/40/40
f 13/13/13 175/175/175 131/131/131
f 175/175/175 79/79/79 131/131/131
f 105/105/105 28/28/28 146/146/146
f 105/105/105 146/146/146 170/170/170
f 132/132/132 170/170/170 146/146/146
