# frame 000670 
# time 0.335500 
# name Cloth3D 
v -0.000000 0.000000 -0.000000
v 1.000000 0.000000 -0.000000
v -0.000000 1.000000 0.000000
v 1.000000 1.000000 0.000000
v 0.500214 0.500529 0.119679
v -0.000000 0.500000 0.000000
v 0.500000 1.000000 0.000000
v 1.000000 0.500000 0.000000
v 0.500000 -0.000000 0.000000
v 0.246863 0.754825 0.065493
v 0.758239 0.758055 0.089677
v 0.247060 0.247208 0.061229
v 0.756652 0.244195 0.078363
v 0.750000 0.000000 0.000000
v 0.250000 0.000000 0.000000
v 1.000000 0.750000 0.000000
v 1.000000 0.250000 0.000000
v 0.250000 1.000000 0.000000
v 0.750000 1.000000 0.000000
v 0.000000 0.250000 0.000000
v 0.000000 0.750000 -0.000000
v 0.362848 0.216630 0.073818
v 0.633690 0.777864 0.092016
v 0.243265 0.516391 0.082541
v 0.815660 0.247442 0.052682
v 0.878811 0.373875 0.049175
v 0.625944 0.124412 0.040086
v 0.631596 0.369281 0.120319
v 0.874291 0.125347 0.009587
v 0.375192 0.125075 0.035656
v 0.126177 0.126811 -0.000317
v 0.492081 0.245788 0.091637
v 0.877051 0.626426 0.045598
v 0.631342 0.631190 0.120075
v 0.876861 0.876335 0.023217
v 0.375000 0.876925 0.041225
v 0.257723 0.603944 0.090311
v 0.126485 0.873993 0.001137
v 0.125793 0.625625 0.032811
v 0.626908 0.879499 0.052124
v 0.124205 0.374913 0.037543
v 0.251527 0.127633 0.014006
v 0.878806 0.752187 0.043425
v 0.875460 0.249594 0.029838
v 0.251808 0.874288 0.020069
v 0.752544 0.878545 0.043729
v 0.123883 0.249853 0.028038
v 0.125288 0.750463 0.024238
v 0.719336 0.614957 0.119801
v 0.125873 0.936944 -0.003196
v 0.552519 0.710639 0.119663
v 0.879660 0.500232 0.053567
v 0.424484 0.710126 0.119708
v 0.244986 0.454654 0.084672
v 0.000000 0.375000 0.000000
v 0.500447 0.879417 0.051985
v 0.499913 0.631364 0.119923
v 0.245912 0.371726 0.084650
v 0.126286 0.500147 0.034743
v 0.369411 0.500584 0.119863
v 0.629345 0.244537 0.091507
v 0.500339 0.123764 0.043404
v 0.500094 0.369767 0.120343
v 0.000000 0.625000 0.000000
v 0.000000 0.875000 0.000000
v 0.000000 0.125000 0.000000
v 0.625000 1.000000 0.000000
v 0.875000 1.000000 0.000000
v 0.125000 1.000000 0.000000
v 0.375000 1.000000 0.000000
v 1.000000 0.375000 0.000000
v 1.000000 0.125000 0.000000
v 1.000000 0.875000 0.000000
v 1.000000 0.625000 0.000000
v 0.375000 0.000000 0.000000
v 0.125000 0.000000 0.000000
v 0.875000 0.000000 0.000000
v 0.625000 0.000000 0.000000
v 0.751315 0.122971 0.036210
v 0.631167 0.500244 0.119933
v 0.767700 0.516204 0.097146
v 0.061313 0.312641 0.019352
v 0.186895 0.436931 0.059084
v 0.185368 0.311183 0.053746
v 0.063171 0.437644 0.016530
v 0.688349 0.939286 0.023822
v 0.691949 0.819550 0.075278
v 0.563106 0.939349 0.025580
v 0.063532 0.687356 0.011117
v 0.186649 0.689782 0.051213
v 0.063837 0.562533 0.014181
v 0.188715 0.936624 0.001396
v 0.188130 0.812814 0.026187
v 0.062916 0.937168 -0.007743
v 0.434636 0.566137 0.119760
v 0.879098 0.815071 0.037975
v 0.185964 0.752506 0.044371
v 0.310844 0.816579 0.059061
v 0.437874 0.938487 0.022158
v 0.938624 0.812771 0.016180
v 0.816846 0.816328 0.051327
v 0.937313 0.937186 -0.000114
v 0.875818 0.186839 0.023373
v 0.565679 0.565892 0.119682
v 0.720138 0.423803 0.120146
v 0.823790 0.593292 0.070983
v 0.816493 0.690982 0.067731
v 0.939754 0.562951 0.026474
v 0.754439 0.817080 0.062815
v 0.691357 0.587735 0.119936
v 0.434702 0.435055 0.119907
v 0.188440 0.063892 0.000881
v 0.062913 0.062986 -0.004445
v 0.187634 0.188261 0.024831
v 0.313105 0.063328 0.012383
v 0.312103 0.187504 0.047049
v 0.437742 0.061959 0.020860
v 0.812724 0.061830 0.013940
v 0.937113 0.062896 -0.002862
v 0.556378 0.243752 0.091247
v 0.565831 0.434939 0.120123
v 0.526087 0.810067 0.078924
v 0.563862 0.184485 0.067947
v 0.690307 0.185400 0.059429
v 0.562778 0.061680 0.022305
v 0.937993 0.312521 0.018528
v 0.816781 0.309831 0.064579
v 0.939366 0.437435 0.025523
v 0.312846 0.938775 0.018721
v 0.477010 0.770006 0.096549
v 0.814121 0.185866 0.038193
v 0.806416 0.369569 0.077646
v 0.687752 0.062361 0.017735
v 0.062995 0.125830 -0.002040
v 0.936608 0.188062 0.005401
v 0.436685 0.184287 0.066694
v 0.062817 0.188025 0.005794
v 0.383125 0.774080 0.090292
v 0.936627 0.688014 0.015994
v 0.189018 0.874172 0.010944
v 0.063354 0.812036 0.003158
v 0.813271 0.938629 0.017182
v 0.186588 0.563811 0.059514
v 0.772539 0.653487 0.092583
v 0.319303 0.662874 0.119833
v 0.720777 0.311400 0.120441
v 0.320985 0.309718 0.120442
v 0.719044 0.711253 0.119472
v 0.319216 0.709512 0.119442
v 0.614789 0.311085 0.120435
v 0.320676 0.405040 0.120198
v 0.289024 0.325002 0.105059
v 0.319786 0.598448 0.119780
v 0.723842 0.291642 0.110406
v 0.813484 0.123763 0.026154
v 0.432792 0.641767 0.119878
v 0.275276 0.663733 0.097993
v 0.719345 0.552075 0.119837
v 0.617228 0.710912 0.119664
v 0.320426 0.469798 0.120032
v 0.420084 0.310305 0.120428
v 0.939746 0.750587 0.022447
v 0.549520 0.310846 0.120428
v 0.817930 0.754377 0.064431
v 0.415664 0.251090 0.093907
v 0.424740 0.820797 0.071934
v 0.818446 0.481342 0.076426
v 0.753503 0.183833 0.055699
v 0.369815 0.414258 0.120121
v 0.251272 0.936865 0.006941
vt 0.000000 0.000000
vt 1.000000 0.000000
vt 0.000000 1.000000
vt 1.000000 1.000000
vt 0.500000 0.500000
vt 0.000000 0.500000
vt 0.500000 1.000000
vt 1.000000 0.500000
vt 0.500000 0.000000
vt 0.250000 0.750000
vt 0.750000 0.750000
vt 0.250000 0.250000
vt 0.750000 0.250000
vt 0.750000 0.000000
vt 0.250000 0.000000
vt 1.000000 0.750000
vt 1.000000 0.250000
vt 0.250000 1.000000
vt 0.750000 1.000000
vt 0.000000 0.250000
vt 0.000000 0.750000
vt 0.365347 0.220303
vt 0.629073 0.770824
vt 0.245672 0.515386
vt 0.812500 0.250000
vt 0.875000 0.375000
vt 0.625000 0.125000
vt 0.625000 0.375000
vt 0.875000 0.125000
vt 0.375000 0.125000
vt 0.125000 0.125000
vt 0.492214 0.250470
vt 0.875000 0.625000
vt 0.625000 0.625000
vt 0.875000 0.875000
vt 0.375000 0.875000
vt 0.262101 0.599801
vt 0.125000 0.875000
vt 0.125000 0.625000
vt 0.625000 0.875000
vt 0.125000 0.375000
vt 0.250000 0.125000
vt 0.875000 0.750000
vt 0.875000 0.250000
vt 0.250000 0.875000
vt 0.750000 0.875000
vt 0.125000 0.250000
vt 0.125000 0.750000
vt 0.709143 0.610018
vt 0.125000 0.937500
vt 0.550115 0.701318
vt 0.875000 0.500000
vt 0.428255 0.699937
vt 0.248222 0.455442
vt 0.000000 0.375000
vt 0.500000 0.875000
vt 0.500000 0.625000
vt 0.250000 0.375000
vt 0.125000 0.500000
vt 0.375000 0.500000
vt 0.625000 0.250000
vt 0.500000 0.125000
vt 0.500000 0.375000
vt 0.000000 0.625000
vt 0.000000 0.875000
vt 0.000000 0.125000
vt 0.625000 1.000000
vt 0.875000 1.000000
vt 0.125000 1.000000
vt 0.375000 1.000000
vt 1.000000 0.375000
vt 1.000000 0.125000
vt 1.000000 0.875000
vt 1.000000 0.625000
vt 0.375000 0.000000
vt 0.125000 0.000000
vt 0.875000 0.000000
vt 0.625000 0.000000
vt 0.750000 0.125000
vt 0.625000 0.500000
vt 0.760524 0.515669
vt 0.062500 0.312500
vt 0.187500 0.437500
vt 0.187500 0.312500
vt 0.062500 0.437500
vt 0.687500 0.937500
vt 0.687500 0.812500
vt 0.562500 0.937500
vt 0.062500 0.687500
vt 0.187500 0.687500
vt 0.062500 0.562500
vt 0.187500 0.937500
vt 0.187500 0.812500
vt 0.062500 0.937500
vt 0.437500 0.562500
vt 0.875000 0.812500
vt 0.187500 0.750000
vt 0.312500 0.812500
vt 0.437500 0.937500
vt 0.937500 0.812500
vt 0.812500 0.812500
vt 0.937500 0.937500
vt 0.875000 0.187500
vt 0.562500 0.562500
vt 0.709803 0.427226
vt 0.819332 0.591237
vt 0.812500 0.687500
vt 0.937500 0.562500
vt 0.750000 0.812500
vt 0.682510 0.583771
vt 0.437500 0.437500
vt 0.187500 0.062500
vt 0.062500 0.062500
vt 0.187500 0.187500
vt 0.312500 0.062500
vt 0.312500 0.187500
vt 0.437500 0.062500
vt 0.812500 0.062500
vt 0.937500 0.062500
vt 0.554454 0.248535
vt 0.562500 0.437500
vt 0.525016 0.804189
vt 0.562500 0.187500
vt 0.687500 0.187500
vt 0.562500 0.062500
vt 0.937500 0.312500
vt 0.812500 0.312500
vt 0.937500 0.437500
vt 0.312500 0.937500
vt 0.477574 0.762067
vt 0.812500 0.187500
vt 0.800716 0.372483
vt 0.687500 0.062500
vt 0.062500 0.125000
vt 0.937500 0.187500
vt 0.437500 0.187500
vt 0.062500 0.187500
vt 0.386728 0.766561
vt 0.937500 0.687500
vt 0.187500 0.875000
vt 0.062500 0.812500
vt 0.812500 0.937500
vt 0.187500 0.562500
vt 0.765906 0.648544
vt 0.328613 0.654032
vt 0.708856 0.321234
vt 0.330845 0.320176
vt 0.707692 0.700962
vt 0.329463 0.697555
vt 0.609347 0.319091
vt 0.328662 0.409038
vt 0.296906 0.332149
vt 0.327793 0.593192
vt 0.713437 0.300753
vt 0.812500 0.125000
vt 0.436137 0.634590
vt 0.281585 0.657008
vt 0.709394 0.549757
vt 0.611793 0.701393
vt 0.327982 0.470650
vt 0.423930 0.318566
vt 0.937500 0.750000
vt 0.547220 0.318537
vt 0.812500 0.750000
vt 0.418341 0.256674
vt 0.425703 0.815414
vt 0.812755 0.481587
vt 0.750000 0.187500
vt 0.375653 0.417988
vt 0.250000 0.937500
vn 0.037982 0.037982 0.998556
vn -0.023451 0.023451 0.999450
vn 0.063618 -0.063618 0.995945
vn -0.000976 -0.000976 0.999999
vn -0.000393 0.000561 1.000000
vn -0.233771 0.010311 0.972237
vn -0.010817 0.360882 0.932549
vn 0.393540 -0.005184 0.919293
vn -0.007694 -0.332207 0.943175
vn -0.356296 0.263081 0.896572
vn 0.318269 0.267137 0.909584
vn -0.275579 -0.336853 0.900326
vn 0.305603 -0.313133 0.899197
vn 0.015118 -0.240256 0.970592
vn -0.045951 -0.102891 0.993631
vn 0.310799 -0.003897 0.950468
vn 0.178281 -0.052495 0.982578
vn -0.093341 0.121638 0.988176
vn 0.025816 0.311478 0.949903
vn -0.197273 -0.055859 0.978756
vn -0.109966 0.032357 0.993409
vn -0.136725 -0.426167 0.894253
vn 0.001475 0.379265 0.925287
vn -0.409932 0.002888 0.912111
vn 0.382486 -0.198655 0.902353
vn 0.379491 -0.087307 0.921067
vn 0.039443 -0.333409 0.941957
vn 0.000071 -0.000116 1.000000
vn 0.223294 -0.161018 0.961360
vn -0.116204 -0.331502 0.936271
vn -0.072837 -0.120033 0.990094
vn -0.004072 -0.385312 0.922777
vn 0.380465 0.068346 0.922266
vn -0.000557 -0.000750 1.000000
vn 0.217378 0.220700 0.950809
vn -0.076186 0.357539 0.930785
vn -0.429900 0.010496 0.902815
vn -0.111670 0.129336 0.985293
vn -0.327231 0.040142 0.944091
vn 0.022871 0.391406 0.919934
vn -0.309221 -0.003983 0.950982
vn -0.136812 -0.228249 0.963942
vn 0.338657 0.035412 0.940243
vn 0.309835 -0.142108 0.940110
vn -0.189385 0.240982 0.951872
vn 0.127778 0.326617 0.936480
vn -0.227805 -0.169249 0.958884
vn -0.275853 0.141126 0.950783
vn 0.154256 0.003741 0.988024
vn -0.071482 0.005254 0.997428
vn 0.001573 0.197557 0.980290
vn 0.374296 0.004804 0.927297
vn -0.010063 0.208021 0.978073
vn -0.417742 0.010640 0.908503
vn -0.284603 0.013363 0.958552
vn -0.025053 0.389127 0.920843
vn -0.000490 -0.001219 0.999999
vn -0.415909 -0.012599 0.909319
vn -0.334877 0.020705 0.942034
vn 0.001649 0.000078 0.999999
vn 0.022242 -0.404170 0.914413
vn -0.013734 -0.348496 0.937210
vn -0.000831 0.000686 0.999999
vn -0.193794 0.010605 0.980985
vn 0.040772 0.043515 0.998220
vn 0.024572 -0.054539 0.998209
vn 0.006043 0.369844 0.929074
vn 0.067285 0.131928 0.988973
vn -0.047667 -0.051857 0.997516
vn -0.013272 0.316435 0.948521
vn 0.332374 -0.028368 0.942721
vn 0.014264 -0.030854 0.999422
vn 0.125174 0.063957 0.990071
vn 0.335020 0.042931 0.941232
vn -0.032891 -0.255940 0.966133
vn -0.022433 0.018322 0.999580
vn 0.065166 -0.082559 0.994453
vn 0.020796 -0.308126 0.951118
vn 0.118824 -0.275130 0.954036
vn -0.000999 0.000723 0.999999
vn 0.411260 0.012702 0.911430
vn -0.269079 -0.043889 0.962117
vn -0.375135 0.016410 0.926825
vn -0.330338 -0.126811 0.935305
vn -0.282201 0.022256 0.959097
vn 0.032904 0.363752 0.930915
vn 0.097450 0.381546 0.919198
vn -0.002267 0.393863 0.919167
vn -0.218897 0.038029 0.975007
vn -0.364298 0.095700 0.926352
vn -0.257659 0.014607 0.966125
vn -0.087684 0.089241 0.992143
vn -0.233560 0.265981 0.935256
vn -0.006816 -0.006333 0.999957
vn 0.000617 -0.000498 1.000000
vn 0.292553 0.174675 0.940160
vn -0.323555 0.195678 0.925755
vn -0.191366 0.393425 0.899220
vn -0.033081 0.362001 0.931590
vn 0.300968 0.107911 0.947509
vn 0.218004 0.265573 0.939120
vn 0.079126 0.077437 0.993852
vn 0.264031 -0.153404 0.952237
vn -0.000886 -0.000822 0.999999
vn 0.222406 -0.002402 0.974951
vn 0.406965 0.046468 0.912261
vn 0.403757 0.053929 0.913275
vn 0.377341 0.028725 0.925629
vn 0.179703 0.360919 0.915120
vn -0.000318 -0.000034 1.000000
vn 0.000682 0.001083 0.999999
vn -0.056523 -0.052389 0.997026
vn 0.003050 0.001276 0.999995
vn -0.171027 -0.297275 0.939349
vn -0.083351 -0.191708 0.977906
vn -0.197761 -0.391978 0.898468
vn -0.036113 -0.302070 0.952601
vn 0.118788 -0.191643 0.974250
vn 0.038470 -0.021291 0.999033
vn -0.003905 -0.382343 0.924012
vn -0.000843 0.001512 0.999999
vn -0.006394 0.378399 0.925621
vn 0.016361 -0.381539 0.924208
vn 0.054779 -0.368033 0.928198
vn 0.013480 -0.317808 0.948059
vn 0.301110 -0.079820 0.950243
vn 0.414501 -0.165660 0.894844
vn 0.389107 -0.026554 0.920810
vn -0.116818 0.243636 0.962806
vn -0.016416 0.392891 0.919438
vn 0.275858 -0.218667 0.935995
vn 0.417607 -0.081806 0.904937
vn 0.024507 -0.294009 0.955489
vn 0.005458 -0.082637 0.996565
vn 0.188264 -0.096594 0.977357
vn -0.048644 -0.389387 0.919789
vn -0.088608 -0.118878 0.988947
vn -0.062844 0.431941 0.899710
vn 0.331054 -0.021478 0.943367
vn -0.146610 0.193782 0.970028
vn -0.096451 0.083932 0.991793
vn 0.086024 0.259629 0.961869
vn -0.387860 0.014567 0.921603
vn 0.454995 0.052663 0.888936
vn -0.312846 -0.002261 0.949801
vn 0.234429 -0.323948 0.916570
vn -0.316291 -0.168914 0.933503
vn 0.274679 0.171804 0.946063
vn -0.281693 0.137040 0.949668
vn 0.002401 -0.196658 0.980469
vn -0.181866 -0.000808 0.983323
vn -0.449487 -0.082555 0.889464
vn -0.271202 0.000589 0.962522
vn 0.252427 -0.391500 0.884878
vn 0.212030 -0.196046 0.957397
vn -0.000416 -0.001165 0.999999
vn -0.460228 0.038963 0.886945
vn 0.172266 0.000368 0.985050
vn -0.001042 0.203571 0.979060
vn -0.176418 0.001746 0.984314
vn 0.000219 -0.248648 0.968594
vn 0.337230 -0.006027 0.941403
vn -0.000827 -0.228504 0.973543
vn 0.344101 0.106660 0.932855
vn -0.027892 -0.406198 0.913359
vn -0.068381 0.402271 0.912964
vn 0.378092 0.002787 0.925764
vn 0.161928 -0.329642 0.930116
vn 0.001481 0.000440 0.999999
vn -0.141532 0.150549 0.978419
f 56/56/56 99/99/99 166/166/166
f 61/61/61 123/123/123 124/124/124
f 105/105/105 158/158/158 80/80/80
f 26/26/26 167/167/167 132/132/132
f 41/41/41 83/83/83 85/85/85
f 160/160/160 54/54/54 151/151/151
f 83/83/83 41/41/41 58/58/58
f 36/36/36 166/166/166 99/99/99
f 84/84/84 47/47/47 12/12/12
f 72/72/72 17/17/17 135/135/135
f 127/127/127 25/25/25 44/44/44
f 80/80/80 110/110/110 104/104/104
f 115/115/115 112/112/112 15/15/15
f 163/163/163 150/150/150 28/28/28
f 140/140/140 45/45/45 92/92/92
f 27/27/27 124/124/124 123/123/123
f 58/58/58 151/151/151 54/54/54
f 15/15/15 112/112/112 76/76/76
f 115/115/115 15/15/15 75/75/75
f 82/82/82 41/41/41 55/55/55
f 88/88/88 56/56/56 40/40/40
f 25/25/25 127/127/127 13/13/13
f 22/22/22 30/30/30 136/136/136
f 85/85/85 55/55/55 41/41/41
f 47/47/47 84/84/84 82/82/82
f 165/165/165 22/22/22 136/136/136
f 21/21/21 64/64/64 89/89/89
f 83/83/83 58/58/58 54/54/54
f 57/57/57 95/95/95 104/104/104
f 116/116/116 30/30/30 22/22/22
f 42/42/42 112/112/112 115/115/115
f 107/107/107 11/11/11 144/144/144
f 165/165/165 147/147/147 22/22/22
f 155/155/155 79/79/79 118/118/118
f 129/129/129 70/70/70 18/18/18
f 63/63/63 28/28/28 121/121/121
f 51/51/51 53/53/53 57/57/57
f 114/114/114 31/31/31 42/42/42
f 153/153/153 160/160/160 60/60/60
f 37/37/37 153/153/153 157/157/157
f 139/139/139 33/33/33 74/74/74
f 149/149/149 138/138/138 98/98/98
f 61/61/61 150/150/150 120/120/120
f 62/62/62 117/117/117 125/125/125
f 32/32/32 165/165/165 136/136/136
f 143/143/143 39/39/39 59/59/59
f 51/51/51 159/159/159 23/23/23
f 142/142/142 46/46/46 35/35/35
f 78/78/78 125/125/125 9/9/9
f 121/121/121 80/80/80 5/5/5
f 60/60/60 95/95/95 153/153/153
f 35/35/35 96/96/96 100/100/100
f 97/97/97 10/10/10 93/93/93
f 100/100/100 102/102/102 35/35/35
f 16/16/16 73/73/73 100/100/100
f 64/64/64 91/91/91 89/89/89
f 60/60/60 169/169/169 111/111/111
f 50/50/50 92/92/92 69/69/69
f 123/123/123 120/120/120 32/32/32
f 131/131/131 25/25/25 13/13/13
f 158/158/158 81/81/81 106/106/106
f 45/45/45 140/140/140 93/93/93
f 84/84/84 152/152/152 58/58/58
f 81/81/81 158/158/158 105/105/105
f 34/34/34 159/159/159 51/51/51
f 102/102/102 100/100/100 73/73/73
f 5/5/5 104/104/104 95/95/95
f 23/23/23 87/87/87 40/40/40
f 38/38/38 94/94/94 141/141/141
f 29/29/29 119/119/119 135/135/135
f 72/72/72 135/135/135 119/119/119
f 84/84/84 12/12/12 152/152/152
f 9/9/9 125/125/125 117/117/117
f 13/13/13 154/154/154 124/124/124
f 14/14/14 118/118/118 133/133/133
f 56/56/56 122/122/122 40/40/40
f 65/65/65 141/141/141 94/94/94
f 20/20/20 66/66/66 137/137/137
f 55/55/55 20/20/20 82/82/82
f 59/59/59 91/91/91 85/85/85
f 65/65/65 21/21/21 141/141/141
f 6/6/6 85/85/85 91/91/91
f 114/114/114 12/12/12 47/47/47
f 113/113/113 76/76/76 31/31/31
f 3/3/3 65/65/65 94/94/94
f 141/141/141 48/48/48 38/38/38
f 92/92/92 18/18/18 69/69/69
f 124/124/124 154/154/154 61/61/61
f 4/4/4 68/68/68 102/102/102
f 92/92/92 170/170/170 18/18/18
f 103/103/103 29/29/29 135/135/135
f 106/106/106 167/167/167 52/52/52
f 157/157/157 90/90/90 37/37/37
f 44/44/44 103/103/103 135/135/135
f 11/11/11 87/87/87 148/148/148
f 170/170/170 129/129/129 18/18/18
f 58/58/58 152/152/152 151/151/151
f 13/13/13 168/168/168 131/131/131
f 2/2/2 119/119/119 77/77/77
f 156/156/156 145/145/145 153/153/153
f 63/63/63 121/121/121 111/111/111
f 116/116/116 22/22/22 12/12/12
f 16/16/16 162/162/162 139/139/139
f 40/40/40 86/86/86 88/88/88
f 149/149/149 98/98/98 10/10/10
f 1/1/1 76/76/76 113/113/113
f 26/26/26 128/128/128 52/52/52
f 5/5/5 111/111/111 121/121/121
f 154/154/154 127/127/127 146/146/146
f 145/145/145 53/53/53 149/149/149
f 112/112/112 31/31/31 76/76/76
f 169/169/169 151/151/151 147/147/147
f 123/123/123 62/62/62 27/27/27
f 169/169/169 60/60/60 160/160/160
f 45/45/45 98/98/98 129/129/129
f 36/36/36 129/129/129 98/98/98
f 122/122/122 23/23/23 40/40/40
f 122/122/122 130/130/130 51/51/51
f 163/163/163 120/120/120 150/150/150
f 169/169/169 147/147/147 161/161/161
f 25/25/25 131/131/131 44/44/44
f 97/97/97 48/48/48 90/90/90
f 26/26/26 44/44/44 126/126/126
f 140/140/140 38/38/38 93/93/93
f 48/48/48 141/141/141 89/89/89
f 21/21/21 89/89/89 141/141/141
f 49/49/49 144/144/144 148/148/148
f 93/93/93 10/10/10 45/45/45
f 6/6/6 91/91/91 64/64/64
f 63/63/63 111/111/111 161/161/161
f 32/32/32 136/136/136 123/123/123
f 6/6/6 55/55/55 85/85/85
f 163/163/163 63/63/63 161/161/161
f 29/29/29 155/155/155 118/118/118
f 143/143/143 90/90/90 39/39/39
f 83/83/83 24/24/24 59/59/59
f 110/110/110 49/49/49 34/34/34
f 160/160/160 151/151/151 169/169/169
f 107/107/107 144/144/144 106/106/106
f 111/111/111 169/169/169 161/161/161
f 87/87/87 46/46/46 40/40/40
f 144/144/144 49/49/49 106/106/106
f 162/162/162 16/16/16 100/100/100
f 153/153/153 24/24/24 160/160/160
f 87/87/87 109/109/109 46/46/46
f 84/84/84 58/58/58 41/41/41
f 37/37/37 90/90/90 143/143/143
f 37/37/37 143/143/143 24/24/24
f 132/132/132 146/146/146 127/127/127
f 157/157/157 10/10/10 90/90/90
f 10/10/10 97/97/97 90/90/90
f 49/49/49 158/158/158 106/106/106
f 145/145/145 157/157/157 153/153/153
f 34/34/34 51/51/51 57/57/57
f 119/119/119 29/29/29 118/118/118
f 90/90/90 48/48/48 39/39/39
f 109/109/109 11/11/11 101/101/101
f 110/110/110 80/80/80 158/158/158
f 148/148/148 144/144/144 11/11/11
f 156/156/156 53/53/53 145/145/145
f 42/42/42 116/116/116 114/114/114
f 105/105/105 28/28/28 146/146/146
f 109/109/109 101/101/101 46/46/46
f 5/5/5 95/95/95 111/111/111
f 95/95/95 57/57/57 156/156/156
f 37/37/37 24/24/24 153/153/153
f 60/60/60 111/111/111 95/95/95
f 53/53/53 51/51/51 130/130/130
f 156/156/156 57/57/57 53/53/53
f 101/101/101 164/164/164 96/96/96
f 34/34/34 57/57/57 104/104/104
f 145/145/145 149/149/149 157/157/157
f 9/9/9 117/117/117 75/75/75
f 78/78/78 133/133/133 125/125/125
f 148/148/148 34/34/34 49/49/49
f 95/95/95 156/156/156 153/153/153
f 30/30/30 115/115/115 117/117/117
f 124/124/124 27/27/27 79/79/79
f 83/83/83 54/54/54 24/24/24
f 96/96/96 43/43/43 100/100/100
f 108/108/108 74/74/74 33/33/33
f 77/77/77 119/119/119 118/118/118
f 94/94/94 69/69/69 3/3/3
f 133/133/133 79/79/79 27/27/27
f 91/91/91 59/59/59 39/39/39
f 75/75/75 117/117/117 115/115/115
f 138/138/138 149/149/149 53/53/53
f 112/112/112 42/42/42 31/31/31
f 63/63/63 163/163/163 28/28/28
f 130/130/130 122/122/122 166/166/166
f 167/167/167 26/26/26 52/52/52
f 162/162/162 43/43/43 139/139/139
f 99/99/99 70/70/70 36/36/36
f 138/138/138 166/166/166 98/98/98
f 80/80/80 104/104/104 5/5/5
f 146/146/146 150/150/150 154/154/154
f 148/148/148 23/23/23 159/159/159
f 53/53/53 130/130/130 138/138/138
f 120/120/120 123/123/123 61/61/61
f 43/43/43 107/107/107 139/139/139
f 170/170/170 92/92/92 45/45/45
f 61/61/61 154/154/154 150/150/150
f 33/33/33 52/52/52 108/108/108
f 105/105/105 132/132/132 167/167/167
f 161/161/161 165/165/165 32/32/32
f 164/164/164 101/101/101 11/11/11
f 33/33/33 106/106/106 52/52/52
f 168/168/168 13/13/13 124/124/124
f 132/132/132 105/105/105 146/146/146
f 125/125/125 27/27/27 62/62/62
f 107/107/107 106/106/106 33/33/33
f 129/129/129 170/170/170 45/45/45
f 158/158/158 49/49/49 110/110/110
f 43/43/43 164/164/164 107/107/107
f 89/89/89 39/39/39 48/48/48
f 166/166/166 138/138/138 130/130/130
f 38/38/38 140/140/140 92/92/92
f 148/148/148 159/159/159 34/34/34
f 149/149/149 10/10/10 157/157/157
f 54/54/54 160/160/160 24/24/24
f 36/36/36 98/98/98 166/166/166
f 147/147/147 12/12/12 22/22/22
f 116/116/116 42/42/42 30/30/30
f 73/73/73 4/4/4 102/102/102
f 103/103/103 44/44/44 131/131/131
f 7/7/7 70/70/70 99/99/99
f 115/115/115 30/30/30 42/42/42
f 47/47/47 137/137/137 114/114/114
f 68/68/68 142/142/142 102/102/102
f 19/19/19 86/86/86 142/142/142
f 142/142/142 35/35/35 102/102/102
f 92/92/92 50/50/50 38/38/38
f 31/31/31 134/134/134 113/113/113
f 46/46/46 142/142/142 86/86/86
f 23/23/23 148/148/148 87/87/87
f 56/56/56 166/166/166 122/122/122
f 164/164/164 11/11/11 107/107/107
f 129/129/129 36/36/36 70/70/70
f 81/81/81 167/167/167 106/106/106
f 41/41/41 82/82/82 84/84/84
f 59/59/59 85/85/85 83/83/83
f 122/122/122 51/51/51 23/23/23
f 66/66/66 1/1/1 113/113/113
f 113/113/113 134/134/134 66/66/66
f 79/79/79 155/155/155 131/131/131
f 152/152/152 12/12/12 147/147/147
f 117/117/117 62/62/62 30/30/30
f 136/136/136 30/30/30 62/62/62
f 67/67/67 7/7/7 88/88/88
f 19/19/19 67/67/67 86/86/86
f 68/68/68 19/19/19 142/142/142
f 31/31/31 114/114/114 137/137/137
f 163/163/163 161/161/161 32/32/32
f 2/2/2 72/72/72 119/119/119
f 143/143/143 59/59/59 24/24/24
f 93/93/93 38/38/38 48/48/48
f 74/74/74 16/16/16 139/139/139
f 8/8/8 74/74/74 108/108/108
f 33/33/33 139/139/139 107/107/107
f 8/8/8 108/108/108 128/128/128
f 86/86/86 40/40/40 46/46/46
f 146/146/146 28/28/28 150/150/150
f 96/96/96 35/35/35 101/101/101
f 43/43/43 162/162/162 100/100/100
f 52/52/52 128/128/128 108/108/108
f 128/128/128 71/71/71 8/8/8
f 79/79/79 168/168/168 124/124/124
f 50/50/50 94/94/94 38/38/38
f 126/126/126 17/17/17 71/71/71
f 48/48/48 97/97/97 93/93/93
f 26/26/26 126/126/126 128/128/128
f 39/39/39 89/89/89 91/91/91
f 71/71/71 128/128/128 126/126/126
f 132/132/132 127/127/127 26/26/26
f 44/44/44 135/135/135 126/126/126
f 44/44/44 26/26/26 127/127/127
f 7/7/7 99/99/99 88/88/88
f 98/98/98 45/45/45 10/10/10
f 27/27/27 125/125/125 133/133/133
f 101/101/101 35/35/35 46/46/46
f 62/62/62 123/123/123 136/136/136
f 43/43/43 96/96/96 164/164/164
f 66/66/66 134/134/134 137/137/137
f 17/17/17 126/126/126 135/135/135
f 79/79/79 133/133/133 118/118/118
f 67/67/67 88/88/88 86/86/86
f 34/34/34 104/104/104 110/110/110
f 120/120/120 163/163/163 32/32/32
f 134/134/134 31/31/31 137/137/137
f 77/77/77 118/118/118 14/14/14
f 168/168/168 79/79/79 131/131/131
f 131/131/131 155/155/155 103/103/103
f 56/56/56 88/88/88 99/99/99
f 14/14/14 133/133/133 78/78/78
f 12/12/12 114/114/114 116/116/116
f 154/154/154 13/13/13 127/127/127
f 29/29/29 103/103/103 155/155/155
f 121/121/121 28/28/28 80/80/80
f 28/28/28 105/105/105 80/80/80
f 94/94/94 50/50/50 69/69/69
f 109/109/109 87/87/87 11/11/11
f 147/147/147 165/165/165 161/161/161
f 147/147/147 151/151/151 152/152/152
f 167/167/167 81/81/81 105/105/105
f 47/47/47 82/82/82 137/137/137
f 20/20/20 137/137/137 82/82/82
