# frame 000607 
# time 0.304000 
# name Cloth3D 
v -0.000000 0.000000 -0.000000
v 1.000000 0.000000 -0.000000
v -0.000000 1.000000 0.000000
v 1.000000 1.000000 0.000000
v 0.500491 0.499873 0.119657
v -0.000000 0.500000 0.000000
v 0.500000 1.000000 0.000000
v 1.000000 0.500000 0.000000
v 0.500000 -0.000000 0.000000
v 0.246867 0.753897 0.068331
v 0.756500 0.755344 0.075226
v 0.245607 0.245063 0.071907
v 0.754422 0.246082 0.070609
v 0.750000 0.000000 0.000000
v 0.250000 0.000000 0.000000
v 1.000000 0.750000 0.000000
v 1.000000 0.250000 0.000000
v 0.250000 1.000000 0.000000
v 0.750000 1.000000 0.000000
v 0.000000 0.250000 0.000000
v 0.000000 0.750000 -0.000000
v 0.362363 0.213459 0.083392
v 0.632308 0.774210 0.081010
v 1.000000 0.937500 0.000000
v 0.684451 0.701690 0.119929
v 0.876390 0.374506 0.043631
v 0.625439 0.122997 0.042549
v 0.631596 0.368331 0.119967
v 0.873228 0.127035 0.000061
v 0.374079 0.120283 0.049573
v 0.124375 0.123840 0.019980
v 0.491906 0.244382 0.094133
v 0.878682 0.626954 0.049150
v 0.631848 0.631659 0.119916
v 0.873316 0.872449 -0.002155
v 0.374115 0.876978 0.043575
v 0.257448 0.602521 0.091993
v 0.125422 0.874664 0.010780
v 0.123665 0.625191 0.039995
v 0.625378 0.874874 0.038234
v 0.123746 0.374090 0.039828
v 0.248484 0.120657 0.041890
v 0.876040 0.748783 0.028021
v 0.876084 0.249508 0.031680
v 0.249423 0.876316 0.031819
v 0.749636 0.873005 0.021994
v 0.123617 0.248756 0.033332
v 0.124892 0.750024 0.027670
v 0.725342 0.616283 0.119941
v 0.125145 0.937372 0.004927
v 0.552690 0.708390 0.119929
v 0.875061 0.500688 0.043213
v 0.425031 0.714869 0.119938
v 0.243009 0.453570 0.090453
v 0.000000 0.375000 0.000000
v 0.499526 0.874197 0.039512
v 0.500442 0.630802 0.119865
v 0.243884 0.370652 0.091126
v 0.122585 0.499647 0.045420
v 0.369772 0.499586 0.119842
v 0.629060 0.243999 0.091525
v 0.499750 0.124033 0.042152
v 0.500211 0.369300 0.119994
v 0.000000 0.625000 0.000000
v 0.000000 0.875000 0.000000
v 0.000000 0.125000 0.000000
v 0.625000 1.000000 0.000000
v 0.875000 1.000000 0.000000
v 0.125000 1.000000 0.000000
v 0.375000 1.000000 0.000000
v 1.000000 0.375000 0.000000
v 1.000000 0.125000 0.000000
v 1.000000 0.875000 0.000000
v 1.000000 0.625000 0.000000
v 0.375000 0.000000 0.000000
v 0.125000 0.000000 0.000000
v 0.875000 0.000000 0.000000
v 0.625000 0.000000 0.000000
v 0.749432 0.125304 0.025565
v 0.631348 0.500131 0.119908
v 0.718951 0.488196 0.119929
v 0.063273 0.312333 0.013718
v 0.184074 0.436028 0.067130
v 0.185038 0.310094 0.058101
v 0.061831 0.437271 0.020808
v 0.687029 0.935841 0.010864
v 0.689281 0.812469 0.053263
v 0.562287 0.936326 0.016836
v 0.062209 0.687292 0.016914
v 0.185101 0.689247 0.057043
v 0.061566 0.562352 0.021531
v 0.187594 0.937683 0.010726
v 0.186761 0.813469 0.035101
v 0.062897 0.937132 -0.003752
v 0.435118 0.565242 0.119787
v 0.873916 0.809945 0.010369
v 0.937500 0.000000 -0.000000
v 0.309727 0.817597 0.065463
v 0.437324 0.936947 0.018577
v 0.936704 0.811176 0.003296
v 0.813619 0.811743 0.030013
v 0.936913 0.936688 -0.003185
v 0.937500 1.000000 0.000000
v 0.566109 0.565599 0.119722
v 0.715668 0.423668 0.119929
v 0.823086 0.594381 0.069561
v 0.820487 0.692273 0.073570
v 0.938781 0.562926 0.024613
v 0.489623 0.711575 0.119934
v 0.691938 0.588582 0.119939
v 0.434823 0.434319 0.119721
v 0.187025 0.060695 0.017782
v 0.062469 0.062476 0.004078
v 0.186209 0.185031 0.039905
v 0.312103 0.059219 0.025735
v 0.309844 0.181550 0.066877
v 0.437130 0.062399 0.019648
v 0.811735 0.063382 0.005376
v 0.936838 0.063141 -0.006438
v 0.556060 0.242967 0.091909
v 0.565976 0.434361 0.119936
v 0.524978 0.804723 0.066611
v 0.563334 0.185216 0.065134
v 0.689638 0.184441 0.059266
v 0.562385 0.061817 0.021174
v 0.938080 0.312588 0.019114
v 0.816753 0.309963 0.064034
v 0.936951 0.437694 0.019660
v 0.312441 0.938117 0.018394
v 0.476581 0.766995 0.090628
v 0.812274 0.187803 0.029583
v 0.803910 0.370210 0.071949
v 0.687409 0.061148 0.020398
v 0.062981 0.124865 0.005064
v 0.937242 0.187795 0.008973
v 0.436168 0.184105 0.067244
v 0.062825 0.187317 0.009836
v 0.382776 0.773406 0.092124
v 0.941614 0.688032 0.027574
v 0.711799 0.359475 0.119929
v 0.063242 0.811915 0.006105
v 0.811828 0.936136 0.004359
v 0.183772 0.563059 0.067707
v 0.774765 0.655569 0.096173
v 0.327629 0.661092 0.119929
v 0.709531 0.300163 0.119942
v 0.310248 0.320462 0.119942
v 0.729754 0.699538 0.119942
v 0.330462 0.719752 0.119942
v 0.486110 0.311666 0.119929
v 0.314578 0.404362 0.119938
v 0.287318 0.324327 0.112275
v 0.324371 0.597020 0.119929
v 0.724317 0.290104 0.110503
v 0.936728 0.873753 -0.002269
v 0.433405 0.640934 0.119784
v 0.275982 0.662105 0.097546
v 0.721972 0.552663 0.119941
v 0.617346 0.705104 0.119929
v 0.317883 0.468920 0.119935
v 0.420583 0.314998 0.119929
v 0.358104 0.285559 0.111022
v 0.549389 0.308448 0.119929
v 0.321081 0.532314 0.119929
v 0.415589 0.250170 0.096084
v 0.423938 0.818742 0.068700
v 0.815016 0.481819 0.069320
v 1.000000 0.062500 -0.000000
v 0.369898 0.413557 0.119884
v 0.772937 0.422490 0.091558
v 0.240617 0.515288 0.089586
v 0.614617 0.305098 0.119936
v 1.000000 0.187500 0.000000
v 0.062500 0.000000 -0.000000
vt 0.000000 0.000000
vt 1.000000 0.000000
vt 0.000000 1.000000
vt 1.000000 1.000000
vt 0.500000 0.500000
vt 0.000000 0.500000
vt 0.500000 1.000000
vt 1.000000 0.500000
vt 0.500000 0.000000
vt 0.250000 0.750000
vt 0.750000 0.750000
vt 0.250000 0.250000
vt 0.750000 0.250000
vt 0.750000 0.000000
vt 0.250000 0.000000
vt 1.000000 0.750000
vt 1.000000 0.250000
vt 0.250000 1.000000
vt 0.750000 1.000000
vt 0.000000 0.250000
vt 0.000000 0.750000
vt 0.365347 0.220303
vt 0.629073 0.770824
vt 1.000000 0.937500
vt 0.674610 0.690679
vt 0.875000 0.375000
vt 0.625000 0.125000
vt 0.625000 0.375000
vt 0.875000 0.125000
vt 0.375000 0.125000
vt 0.125000 0.125000
vt 0.492214 0.250470
vt 0.875000 0.625000
vt 0.625000 0.625000
vt 0.875000 0.875000
vt 0.375000 0.875000
vt 0.262101 0.599801
vt 0.125000 0.875000
vt 0.125000 0.625000
vt 0.625000 0.875000
vt 0.125000 0.375000
vt 0.250000 0.125000
vt 0.875000 0.750000
vt 0.875000 0.250000
vt 0.250000 0.875000
vt 0.750000 0.875000
vt 0.125000 0.250000
vt 0.125000 0.750000
vt 0.713996 0.609921
vt 0.125000 0.937500
vt 0.550121 0.699036
vt 0.875000 0.500000
vt 0.428378 0.705004
vt 0.248222 0.455442
vt 0.000000 0.375000
vt 0.500000 0.875000
vt 0.500000 0.625000
vt 0.250000 0.375000
vt 0.125000 0.500000
vt 0.375000 0.500000
vt 0.625000 0.250000
vt 0.500000 0.125000
vt 0.500000 0.375000
vt 0.000000 0.625000
vt 0.000000 0.875000
vt 0.000000 0.125000
vt 0.625000 1.000000
vt 0.875000 1.000000
vt 0.125000 1.000000
vt 0.375000 1.000000
vt 1.000000 0.375000
vt 1.000000 0.125000
vt 1.000000 0.875000
vt 1.000000 0.625000
vt 0.375000 0.000000
vt 0.125000 0.000000
vt 0.875000 0.000000
vt 0.625000 0.000000
vt 0.750000 0.125000
vt 0.625000 0.500000
vt 0.708904 0.488373
vt 0.062500 0.312500
vt 0.187500 0.437500
vt 0.187500 0.312500
vt 0.062500 0.437500
vt 0.687500 0.937500
vt 0.687500 0.812500
vt 0.562500 0.937500
vt 0.062500 0.687500
vt 0.187500 0.687500
vt 0.062500 0.562500
vt 0.187500 0.937500
vt 0.187500 0.812500
vt 0.062500 0.937500
vt 0.437500 0.562500
vt 0.875000 0.812500
vt 0.937500 0.000000
vt 0.312500 0.812500
vt 0.437500 0.937500
vt 0.937500 0.812500
vt 0.812500 0.812500
vt 0.937500 0.937500
vt 0.937500 1.000000
vt 0.562500 0.562500
vt 0.705539 0.427334
vt 0.819332 0.591237
vt 0.812500 0.687500
vt 0.937500 0.562500
vt 0.489877 0.702092
vt 0.682510 0.583771
vt 0.437500 0.437500
vt 0.187500 0.062500
vt 0.062500 0.062500
vt 0.187500 0.187500
vt 0.312500 0.062500
vt 0.312500 0.187500
vt 0.437500 0.062500
vt 0.812500 0.062500
vt 0.937500 0.062500
vt 0.554454 0.248535
vt 0.562500 0.437500
vt 0.525016 0.804189
vt 0.562500 0.187500
vt 0.687500 0.187500
vt 0.562500 0.062500
vt 0.937500 0.312500
vt 0.812500 0.312500
vt 0.937500 0.437500
vt 0.312500 0.937500
vt 0.477574 0.762067
vt 0.812500 0.187500
vt 0.800716 0.372483
vt 0.687500 0.062500
vt 0.062500 0.125000
vt 0.937500 0.187500
vt 0.437500 0.187500
vt 0.062500 0.187500
vt 0.386728 0.766561
vt 0.937500 0.687500
vt 0.701497 0.367021
vt 0.062500 0.812500
vt 0.812500 0.937500
vt 0.187500 0.562500
vt 0.765906 0.648544
vt 0.335548 0.653740
vt 0.697963 0.311929
vt 0.320076 0.330316
vt 0.716966 0.686745
vt 0.339359 0.708546
vt 0.486689 0.319665
vt 0.322667 0.409099
vt 0.296906 0.332149
vt 0.331584 0.593056
vt 0.713437 0.300753
vt 0.937500 0.875000
vt 0.436137 0.634590
vt 0.281585 0.657008
vt 0.711638 0.549693
vt 0.611640 0.695229
vt 0.325353 0.470698
vt 0.424096 0.323026
vt 0.364019 0.294291
vt 0.547186 0.316869
vt 0.328248 0.531337
vt 0.418341 0.256674
vt 0.425703 0.815414
vt 0.812755 0.481587
vt 1.000000 0.062500
vt 0.375653 0.417988
vt 0.766844 0.424637
vt 0.245672 0.515386
vt 0.609291 0.314314
vt 1.000000 0.187500
vt 0.062500 0.000000
vn -0.023982 -0.047964 0.998561
vn -0.049616 0.049616 0.997535
vn 0.029681 -0.029681 0.999119
vn -0.027081 -0.027081 0.999266
vn -0.000395 0.000556 1.000000
vn -0.325953 -0.003161 0.945381
vn 0.006682 0.284139 0.958760
vn 0.338580 -0.020158 0.940722
vn -0.007907 -0.313823 0.949449
vn -0.338440 0.234350 0.911339
vn 0.257128 0.467390 0.845832
vn -0.290412 -0.231545 0.928465
vn 0.361284 -0.386345 0.848653
vn 0.058157 -0.202276 0.977600
vn -0.030341 -0.346283 0.937639
vn 0.230595 0.098126 0.968090
vn 0.209638 -0.031694 0.977265
vn -0.029114 0.233497 0.971922
vn 0.026684 0.122538 0.992105
vn -0.189435 -0.013266 0.981804
vn -0.183994 0.042206 0.982021
vn -0.035653 -0.344582 0.938079
vn 0.072777 0.459753 0.885060
vn -0.054212 0.000000 0.998529
vn 0.025006 0.262232 0.964681
vn 0.362808 -0.029389 0.931400
vn 0.044823 -0.319878 0.946398
vn 0.000128 -0.000067 1.000000
vn 0.108882 -0.144368 0.983515
vn 0.017627 -0.350780 0.936292
vn -0.200655 -0.102674 0.974267
vn 0.006445 -0.387849 0.921700
vn 0.354216 -0.036457 0.934453
vn -0.000488 -0.000677 1.000000
vn 0.111451 0.109672 0.987700
vn -0.008077 0.380295 0.924830
vn -0.367439 0.042360 0.929083
vn -0.158792 0.122565 0.979675
vn -0.333690 0.064463 0.940476
vn 0.069730 0.359480 0.930544
vn -0.349352 -0.055415 0.935351
vn -0.128404 -0.260732 0.956834
vn 0.268332 0.292625 0.917806
vn 0.255138 -0.173502 0.951210
vn -0.155186 0.279677 0.947470
vn 0.137636 0.262389 0.955096
vn -0.290130 -0.078137 0.953792
vn -0.278100 0.113695 0.953800
vn 0.178391 -0.010944 0.983899
vn -0.118776 0.091722 0.988676
vn 0.014379 0.241770 0.970227
vn 0.366096 -0.024307 0.930259
vn 0.016846 0.250267 0.968030
vn -0.367164 0.000350 0.930156
vn -0.268061 -0.027808 0.963000
vn 0.037421 0.356217 0.933654
vn -0.000597 -0.001010 0.999999
vn -0.412418 -0.007759 0.910962
vn -0.355748 -0.003697 0.934575
vn 0.001649 0.000030 0.999999
vn 0.018092 -0.434317 0.900579
vn 0.017010 -0.350818 0.936289
vn -0.000651 0.000277 1.000000
vn -0.298812 0.017668 0.954148
vn -0.020918 0.040445 0.998963
vn -0.096758 -0.030883 0.994829
vn 0.021535 0.215846 0.976190
vn 0.025039 -0.004771 0.999675
vn -0.079397 0.077928 0.993792
vn 0.001711 0.309162 0.951008
vn 0.301198 -0.000184 0.953562
vn 0.023735 -0.041466 0.998858
vn -0.028790 0.029549 0.999149
vn 0.400588 -0.014033 0.916151
vn 0.027432 -0.365742 0.930312
vn -0.044369 -0.160054 0.986111
vn 0.037804 0.024760 0.998978
vn 0.003924 -0.321177 0.947011
vn 0.169020 -0.260266 0.950628
vn -0.000926 0.000653 0.999999
vn 0.230059 -0.008979 0.973135
vn -0.284436 -0.032378 0.958148
vn -0.370967 -0.025893 0.928285
vn -0.372064 -0.099548 0.922854
vn -0.328516 -0.027969 0.944084
vn 0.056188 0.235072 0.970353
vn 0.147816 0.410323 0.899881
vn 0.024339 0.297547 0.954397
vn -0.264812 0.054323 0.962769
vn -0.348386 0.114509 0.930330
vn -0.330109 0.018542 0.943761
vn -0.080686 0.156979 0.984300
vn -0.237116 0.205880 0.949415
vn -0.065445 0.040844 0.997020
vn 0.000645 -0.000501 1.000000
vn 0.207908 0.240511 0.948118
vn 0.000000 0.098992 0.995088
vn -0.157394 0.380687 0.911211
vn 0.018977 0.325373 0.945395
vn 0.073545 0.139124 0.987540
vn 0.267950 0.307657 0.912990
vn -0.011852 -0.012358 0.999853
vn 0.000000 -0.054032 0.998539
vn -0.000881 -0.000812 0.999999
vn 0.273777 -0.015856 0.961662
vn 0.408993 -0.035562 0.911844
vn 0.414176 0.142038 0.899046
vn 0.351820 -0.031173 0.935548
vn 0.013281 0.251020 0.967891
vn -0.000324 -0.000036 1.000000
vn 0.000688 0.001118 0.999999
vn -0.086070 -0.248399 0.964826
vn -0.085698 -0.055869 0.994754
vn -0.238403 -0.153412 0.958973
vn -0.025060 -0.358447 0.933214
vn -0.114483 -0.287652 0.950868
vn 0.035328 -0.352164 0.935272
vn 0.104071 -0.102599 0.989264
vn -0.016492 0.011536 0.999797
vn 0.015253 -0.408230 0.912752
vn -0.000857 0.001515 0.999999
vn 0.042705 0.434808 0.899510
vn 0.019319 -0.390193 0.920530
vn 0.122742 -0.396078 0.909976
vn -0.002549 -0.323720 0.946149
vn 0.294675 -0.042639 0.954646
vn 0.395134 -0.129745 0.909415
vn 0.331851 -0.008304 0.943295
vn -0.048871 0.310000 0.949480
vn 0.047260 0.465999 0.883522
vn 0.246455 -0.281145 0.927479
vn 0.420791 -0.034485 0.906502
vn 0.064031 -0.264271 0.962321
vn -0.164266 -0.046013 0.985342
vn 0.131785 -0.092460 0.986957
vn 0.038888 -0.369270 0.928508
vn -0.203970 -0.056883 0.977323
vn 0.013025 0.446407 0.894735
vn 0.346333 0.088785 0.933901
vn 0.231600 -0.017394 0.972655
vn -0.161276 0.073565 0.984164
vn 0.078505 0.077496 0.993897
vn -0.353231 0.040312 0.934667
vn 0.454719 -0.022888 0.890341
vn -0.255693 0.013093 0.966669
vn 0.327148 -0.239206 0.914196
vn -0.282699 -0.269324 0.920623
vn 0.197060 0.254552 0.946769
vn -0.195760 0.199013 0.960246
vn -0.006808 -0.166231 0.986063
vn -0.172939 0.010067 0.984881
vn -0.349551 -0.178503 0.919756
vn -0.235866 0.015039 0.971669
vn 0.378074 -0.298472 0.876341
vn -0.019670 0.052931 0.998404
vn -0.000160 -0.000840 1.000000
vn -0.399275 0.055924 0.915124
vn 0.156821 -0.009021 0.987586
vn 0.012881 0.241408 0.970338
vn -0.152639 0.006280 0.988262
vn -0.000932 -0.210475 0.977599
vn -0.053644 -0.346288 0.936593
vn -0.005523 -0.217236 0.976104
vn -0.166995 0.011903 0.985886
vn 0.014311 -0.365281 0.930787
vn 0.048655 0.422560 0.905028
vn 0.432597 -0.014157 0.901476
vn -0.098987 -0.000000 0.995089
vn 0.001431 0.000471 0.999999
vn 0.466049 -0.027560 0.884330
vn -0.355603 0.014356 0.934527
vn -0.005611 -0.221420 0.975163
vn 0.148019 0.000000 0.988984
vn -0.000000 -0.071862 0.997415
f 56/56/56 99/99/99 166/166/166
f 112/112/112 31/31/31 113/113/113
f 170/170/170 132/132/132 167/167/167
f 26/26/26 167/167/167 132/132/132
f 38/38/38 141/141/141 93/93/93
f 160/160/160 54/54/54 151/151/151
f 173/173/173 17/17/17 135/135/135
f 36/36/36 166/166/166 99/99/99
f 114/114/114 47/47/47 31/31/31
f 152/152/152 12/12/12 162/162/162
f 11/11/11 25/25/25 148/148/148
f 80/80/80 110/110/110 104/104/104
f 115/115/115 112/112/112 15/15/15
f 163/163/163 172/172/172 28/28/28
f 114/114/114 42/42/42 12/12/12
f 76/76/76 112/112/112 113/113/113
f 58/58/58 151/151/151 54/54/54
f 15/15/15 112/112/112 76/76/76
f 115/115/115 15/15/15 75/75/75
f 20/20/20 137/137/137 82/82/82
f 88/88/88 56/56/56 40/40/40
f 148/148/148 25/25/25 49/49/49
f 22/22/22 30/30/30 136/136/136
f 47/47/47 82/82/82 137/137/137
f 16/16/16 73/73/73 100/100/100
f 165/165/165 22/22/22 136/136/136
f 21/21/21 64/64/64 89/89/89
f 83/83/83 58/58/58 54/54/54
f 57/57/57 95/95/95 104/104/104
f 116/116/116 30/30/30 22/22/22
f 42/42/42 112/112/112 115/115/115
f 117/117/117 62/62/62 30/30/30
f 140/140/140 105/105/105 28/28/28
f 155/155/155 100/100/100 73/73/73
f 129/129/129 70/70/70 18/18/18
f 63/63/63 28/28/28 121/121/121
f 165/165/165 162/162/162 22/22/22
f 114/114/114 31/31/31 42/42/42
f 150/150/150 165/165/165 32/32/32
f 37/37/37 153/153/153 157/157/157
f 164/164/164 153/153/153 37/37/37
f 149/149/149 138/138/138 98/98/98
f 61/61/61 172/172/172 120/120/120
f 139/139/139 16/16/16 43/43/43
f 32/32/32 165/165/165 136/136/136
f 143/143/143 39/39/39 59/59/59
f 51/51/51 159/159/159 23/23/23
f 142/142/142 46/46/46 35/35/35
f 78/78/78 125/125/125 9/9/9
f 121/121/121 80/80/80 5/5/5
f 60/60/60 95/95/95 153/153/153
f 144/144/144 107/107/107 148/148/148
f 9/9/9 125/125/125 117/117/117
f 130/130/130 53/53/53 109/109/109
f 162/162/162 165/165/165 161/161/161
f 64/64/64 91/91/91 89/89/89
f 60/60/60 169/169/169 111/111/111
f 50/50/50 92/92/92 69/69/69
f 63/63/63 161/161/161 150/150/150
f 25/25/25 159/159/159 34/34/34
f 81/81/81 170/170/170 167/167/167
f 25/25/25 34/34/34 49/49/49
f 84/84/84 152/152/152 58/58/58
f 51/51/51 109/109/109 57/57/57
f 34/34/34 159/159/159 51/51/51
f 11/11/11 148/148/148 107/107/107
f 5/5/5 104/104/104 95/95/95
f 23/23/23 87/87/87 40/40/40
f 38/38/38 94/94/94 141/141/141
f 29/29/29 119/119/119 135/135/135
f 72/72/72 135/135/135 119/119/119
f 84/84/84 12/12/12 152/152/152
f 100/100/100 43/43/43 16/16/16
f 13/13/13 154/154/154 124/124/124
f 14/14/14 118/118/118 133/133/133
f 56/56/56 122/122/122 40/40/40
f 65/65/65 141/141/141 94/94/94
f 20/20/20 66/66/66 137/137/137
f 55/55/55 20/20/20 82/82/82
f 59/59/59 91/91/91 85/85/85
f 65/65/65 21/21/21 141/141/141
f 6/6/6 85/85/85 91/91/91
f 137/137/137 31/31/31 47/47/47
f 58/58/58 83/83/83 84/84/84
f 3/3/3 65/65/65 94/94/94
f 55/55/55 82/82/82 85/85/85
f 92/92/92 18/18/18 69/69/69
f 124/124/124 154/154/154 61/61/61
f 127/127/127 44/44/44 26/26/26
f 167/167/167 106/106/106 158/158/158
f 126/126/126 26/26/26 44/44/44
f 106/106/106 167/167/167 52/52/52
f 157/157/157 90/90/90 37/37/37
f 124/124/124 79/79/79 13/13/13
f 101/101/101 11/11/11 43/43/43
f 81/81/81 167/167/167 158/158/158
f 58/58/58 152/152/152 151/151/151
f 164/164/164 171/171/171 160/160/160
f 155/155/155 35/35/35 100/100/100
f 156/156/156 145/145/145 153/153/153
f 162/162/162 12/12/12 22/22/22
f 116/116/116 22/22/22 12/12/12
f 118/118/118 29/29/29 79/79/79
f 40/40/40 86/86/86 88/88/88
f 149/149/149 98/98/98 10/10/10
f 131/131/131 79/79/79 29/29/29
f 26/26/26 128/128/128 52/52/52
f 23/23/23 11/11/11 87/87/87
f 97/97/97 119/119/119 77/77/77
f 145/145/145 53/53/53 149/149/149
f 41/41/41 84/84/84 83/83/83
f 169/169/169 151/151/151 147/147/147
f 168/168/168 72/72/72 119/119/119
f 169/169/169 60/60/60 160/160/160
f 45/45/45 98/98/98 129/129/129
f 36/36/36 129/129/129 98/98/98
f 164/164/164 160/160/160 60/60/60
f 122/122/122 130/130/130 51/51/51
f 163/163/163 120/120/120 172/172/172
f 169/169/169 147/147/147 161/161/161
f 23/23/23 25/25/25 11/11/11
f 96/96/96 100/100/100 35/35/35
f 1/1/1 174/174/174 113/113/113
f 25/25/25 23/23/23 159/159/159
f 48/48/48 141/141/141 89/89/89
f 21/21/21 89/89/89 141/141/141
f 49/49/49 144/144/144 148/148/148
f 109/109/109 51/51/51 130/130/130
f 6/6/6 91/91/91 64/64/64
f 63/63/63 111/111/111 161/161/161
f 32/32/32 136/136/136 123/123/123
f 6/6/6 55/55/55 85/85/85
f 154/154/154 127/127/127 132/132/132
f 155/155/155 102/102/102 35/35/35
f 143/143/143 90/90/90 39/39/39
f 102/102/102 155/155/155 73/73/73
f 110/110/110 49/49/49 34/34/34
f 160/160/160 151/151/151 169/169/169
f 107/107/107 144/144/144 106/106/106
f 111/111/111 169/169/169 161/161/161
f 87/87/87 46/46/46 40/40/40
f 144/144/144 49/49/49 106/106/106
f 111/111/111 63/63/63 5/5/5
f 150/150/150 161/161/161 165/165/165
f 125/125/125 27/27/27 62/62/62
f 72/72/72 173/173/173 135/135/135
f 37/37/37 90/90/90 143/143/143
f 37/37/37 143/143/143 171/171/171
f 97/97/97 2/2/2 119/119/119
f 157/157/157 10/10/10 90/90/90
f 92/92/92 38/38/38 45/45/45
f 49/49/49 158/158/158 106/106/106
f 145/145/145 157/157/157 153/153/153
f 34/34/34 51/51/51 57/57/57
f 119/119/119 29/29/29 118/118/118
f 90/90/90 48/48/48 39/39/39
f 105/105/105 170/170/170 81/81/81
f 110/110/110 80/80/80 158/158/158
f 156/156/156 57/57/57 109/109/109
f 156/156/156 53/53/53 145/145/145
f 44/44/44 127/127/127 131/131/131
f 93/93/93 45/45/45 38/38/38
f 123/123/123 62/62/62 27/27/27
f 5/5/5 95/95/95 111/111/111
f 95/95/95 57/57/57 156/156/156
f 163/163/163 150/150/150 32/32/32
f 60/60/60 111/111/111 95/95/95
f 133/133/133 79/79/79 27/27/27
f 124/124/124 27/27/27 79/79/79
f 146/146/146 172/172/172 61/61/61
f 34/34/34 57/57/57 104/104/104
f 145/145/145 149/149/149 157/157/157
f 9/9/9 117/117/117 75/75/75
f 78/78/78 133/133/133 125/125/125
f 42/42/42 115/115/115 116/116/116
f 95/95/95 156/156/156 153/153/153
f 82/82/82 47/47/47 41/41/41
f 10/10/10 98/98/98 93/93/93
f 83/83/83 54/54/54 171/171/171
f 96/96/96 43/43/43 100/100/100
f 37/37/37 171/171/171 164/164/164
f 77/77/77 119/119/119 118/118/118
f 94/94/94 69/69/69 3/3/3
f 45/45/45 93/93/93 98/98/98
f 91/91/91 59/59/59 39/39/39
f 84/84/84 41/41/41 47/47/47
f 138/138/138 149/149/149 53/53/53
f 112/112/112 42/42/42 31/31/31
f 63/63/63 163/163/163 28/28/28
f 163/163/163 63/63/63 150/150/150
f 167/167/167 26/26/26 52/52/52
f 136/136/136 30/30/30 62/62/62
f 99/99/99 70/70/70 36/36/36
f 154/154/154 132/132/132 140/140/140
f 80/80/80 104/104/104 5/5/5
f 27/27/27 124/124/124 123/123/123
f 30/30/30 116/116/116 115/115/115
f 53/53/53 130/130/130 138/138/138
f 120/120/120 123/123/123 61/61/61
f 43/43/43 107/107/107 139/139/139
f 81/81/81 158/158/158 80/80/80
f 61/61/61 123/123/123 124/124/124
f 33/33/33 52/52/52 108/108/108
f 166/166/166 36/36/36 138/138/138
f 139/139/139 33/33/33 108/108/108
f 12/12/12 84/84/84 114/114/114
f 33/33/33 106/106/106 52/52/52
f 83/83/83 59/59/59 41/41/41
f 98/98/98 138/138/138 36/36/36
f 103/103/103 68/68/68 102/102/102
f 107/107/107 106/106/106 33/33/33
f 47/47/47 114/114/114 84/84/84
f 158/158/158 49/49/49 110/110/110
f 46/46/46 87/87/87 101/101/101
f 89/89/89 39/39/39 48/48/48
f 166/166/166 138/138/138 130/130/130
f 116/116/116 12/12/12 42/42/42
f 140/140/140 170/170/170 105/105/105
f 149/149/149 10/10/10 157/157/157
f 54/54/54 160/160/160 171/171/171
f 154/154/154 140/140/140 146/146/146
f 140/140/140 132/132/132 170/170/170
f 135/135/135 44/44/44 29/29/29
f 74/74/74 139/139/139 108/108/108
f 4/4/4 103/103/103 102/102/102
f 7/7/7 70/70/70 99/99/99
f 131/131/131 29/29/29 44/44/44
f 90/90/90 10/10/10 48/48/48
f 68/68/68 142/142/142 102/102/102
f 19/19/19 86/86/86 142/142/142
f 142/142/142 35/35/35 102/102/102
f 92/92/92 50/50/50 38/38/38
f 31/31/31 134/134/134 113/113/113
f 46/46/46 142/142/142 86/86/86
f 107/107/107 43/43/43 11/11/11
f 56/56/56 166/166/166 122/122/122
f 11/11/11 101/101/101 87/87/87
f 129/129/129 36/36/36 70/70/70
f 105/105/105 81/81/81 80/80/80
f 152/152/152 162/162/162 147/147/147
f 48/48/48 93/93/93 141/141/141
f 122/122/122 51/51/51 23/23/23
f 66/66/66 1/1/1 113/113/113
f 113/113/113 134/134/134 66/66/66
f 2/2/2 168/168/168 119/119/119
f 131/131/131 13/13/13 79/79/79
f 117/117/117 30/30/30 75/75/75
f 115/115/115 75/75/75 30/30/30
f 67/67/67 7/7/7 88/88/88
f 19/19/19 67/67/67 86/86/86
f 68/68/68 19/19/19 142/142/142
f 93/93/93 48/48/48 10/10/10
f 161/161/161 147/147/147 162/162/162
f 24/24/24 4/4/4 102/102/102
f 73/73/73 24/24/24 102/102/102
f 41/41/41 85/85/85 82/82/82
f 74/74/74 16/16/16 139/139/139
f 8/8/8 74/74/74 108/108/108
f 33/33/33 139/139/139 107/107/107
f 8/8/8 108/108/108 128/128/128
f 86/86/86 40/40/40 46/46/46
f 146/146/146 28/28/28 172/172/172
f 96/96/96 35/35/35 101/101/101
f 121/121/121 5/5/5 63/63/63
f 52/52/52 128/128/128 108/108/108
f 128/128/128 71/71/71 8/8/8
f 85/85/85 41/41/41 59/59/59
f 50/50/50 94/94/94 38/38/38
f 126/126/126 17/17/17 71/71/71
f 62/62/62 117/117/117 125/125/125
f 26/26/26 126/126/126 128/128/128
f 39/39/39 89/89/89 91/91/91
f 71/71/71 128/128/128 126/126/126
f 132/132/132 127/127/127 26/26/26
f 44/44/44 135/135/135 126/126/126
f 174/174/174 76/76/76 113/113/113
f 171/171/171 143/143/143 83/83/83
f 43/43/43 96/96/96 101/101/101
f 27/27/27 125/125/125 133/133/133
f 101/101/101 35/35/35 46/46/46
f 62/62/62 123/123/123 136/136/136
f 146/146/146 61/61/61 154/154/154
f 66/66/66 134/134/134 137/137/137
f 17/17/17 126/126/126 135/135/135
f 79/79/79 133/133/133 118/118/118
f 67/67/67 88/88/88 86/86/86
f 34/34/34 104/104/104 110/110/110
f 120/120/120 163/163/163 32/32/32
f 134/134/134 31/31/31 137/137/137
f 77/77/77 118/118/118 14/14/14
f 60/60/60 153/153/153 164/164/164
f 18/18/18 92/92/92 129/129/129
f 59/59/59 83/83/83 143/143/143
f 14/14/14 133/133/133 78/78/78
f 13/13/13 131/131/131 127/127/127
f 154/154/154 13/13/13 127/127/127
f 45/45/45 129/129/129 92/92/92
f 121/121/121 28/28/28 80/80/80
f 28/28/28 105/105/105 80/80/80
f 94/94/94 50/50/50 69/69/69
f 109/109/109 53/53/53 156/156/156
f 140/140/140 28/28/28 146/146/146
f 147/147/147 151/151/151 152/152/152
f 130/130/130 122/122/122 166/166/166
f 123/123/123 120/120/120 32/32/32
f 122/122/122 23/23/23 40/40/40
f 88/88/88 7/7/7 56/56/56
f 99/99/99 56/56/56 7/7/7
