# frame 000675 
# time 0.338000 
# name Cloth3D 
v -0.000000 0.000000 -0.000000
v 1.000000 0.000000 -0.000000
v -0.000000 1.000000 0.000000
v 1.000000 1.000000 0.000000
v 0.499709 0.500010 0.119819
v -0.000000 0.500000 0.000000
v 0.500000 1.000000 0.000000
v 1.000000 0.500000 0.000000
v 0.500000 -0.000000 0.000000
v 0.246593 0.754610 0.066570
v 0.758054 0.757966 0.090647
v 0.247165 0.247552 0.060065
v 0.756101 0.244231 0.079093
v 0.750000 0.000000 0.000000
v 0.250000 0.000000 0.000000
v 1.000000 0.750000 0.000000
v 1.000000 0.250000 0.000000
v 0.250000 1.000000 0.000000
v 0.750000 1.000000 0.000000
v 0.000000 0.250000 0.000000
v 0.000000 0.750000 -0.000000
v 0.362519 0.216032 0.074600
v 0.633764 0.779321 0.094692
v 0.242407 0.516032 0.083840
v 0.816503 0.246844 0.056916
v 0.879235 0.373658 0.051299
v 0.625804 0.123921 0.041112
v 0.631057 0.368795 0.122106
v 0.874569 0.124923 0.012917
v 0.375058 0.124617 0.035955
v 0.126125 0.126687 0.001203
v 0.491710 0.245737 0.091646
v 0.876810 0.626356 0.045975
v 0.630694 0.631119 0.120827
v 0.876953 0.876625 0.024553
v 0.375215 0.876774 0.042101
v 0.257370 0.603476 0.090557
v 0.126383 0.874101 0.003154
v 0.125282 0.625574 0.034247
v 0.627081 0.880096 0.054517
v 0.124147 0.374786 0.036758
v 0.251341 0.127416 0.014547
v 0.878462 0.752393 0.043387
v 0.876196 0.249078 0.033575
v 0.251070 0.874507 0.022732
v 0.752858 0.879648 0.047571
v 0.123321 0.249473 0.029758
v 0.124868 0.750512 0.026391
v 0.319700 0.597771 0.118616
v 0.126006 0.936909 -0.003759
v 0.249307 0.814469 0.044228
v 0.879469 0.500110 0.054075
v 0.425297 0.712452 0.116930
v 0.244616 0.454305 0.084962
v 0.000000 0.375000 0.000000
v 0.500462 0.879483 0.052511
v 0.499563 0.631844 0.120116
v 0.245583 0.371378 0.084640
v 0.125952 0.500037 0.035161
v 0.369130 0.500068 0.120004
v 0.628723 0.245016 0.090714
v 0.500120 0.123285 0.044191
v 0.499465 0.369162 0.122118
v 0.000000 0.625000 0.000000
v 0.000000 0.875000 0.000000
v 0.000000 0.125000 0.000000
v 0.625000 1.000000 0.000000
v 0.875000 1.000000 0.000000
v 0.125000 1.000000 0.000000
v 0.375000 1.000000 0.000000
v 1.000000 0.375000 0.000000
v 1.000000 0.125000 0.000000
v 1.000000 0.875000 0.000000
v 1.000000 0.625000 0.000000
v 0.375000 0.000000 0.000000
v 0.125000 0.000000 0.000000
v 0.875000 0.000000 0.000000
v 0.625000 0.000000 0.000000
v 0.751157 0.123049 0.036343
v 0.630607 0.499735 0.120083
v 0.767247 0.515874 0.097377
v 0.061583 0.312604 0.017973
v 0.185920 0.436717 0.060685
v 0.184495 0.310836 0.055077
v 0.063001 0.437610 0.016538
v 0.688501 0.939959 0.026075
v 0.692200 0.820599 0.078951
v 0.563194 0.940374 0.028361
v 0.063563 0.687341 0.011166
v 0.186395 0.689549 0.052192
v 0.063469 0.562513 0.015301
v 0.188542 0.936737 0.003626
v 0.187618 0.813076 0.029137
v 0.062996 0.937121 -0.006082
v 0.434241 0.565880 0.119645
v 0.878911 0.815134 0.038693
v 0.185711 0.752311 0.046181
v 0.310684 0.816832 0.060095
v 0.437989 0.938149 0.021778
v 0.938966 0.813042 0.017842
v 0.816686 0.816461 0.052642
v 0.937265 0.937175 0.000021
v 0.876067 0.186542 0.026011
v 0.565167 0.565544 0.119504
v 0.720139 0.423484 0.121254
v 0.823805 0.593107 0.071925
v 0.816650 0.691043 0.069086
v 0.939343 0.562846 0.026094
v 0.754528 0.817861 0.065792
v 0.690720 0.587284 0.119817
v 0.434116 0.434497 0.120862
v 0.188458 0.063779 0.001006
v 0.062919 0.062977 -0.002721
v 0.187559 0.188407 0.024945
v 0.313051 0.063310 0.011770
v 0.312076 0.187516 0.046781
v 0.437676 0.061706 0.021064
v 0.812781 0.061280 0.016732
v 0.937037 0.062893 -0.002391
v 0.555903 0.243975 0.090743
v 0.565180 0.434514 0.121085
v 0.526082 0.810483 0.078759
v 0.563587 0.184173 0.068462
v 0.689857 0.185054 0.060545
v 0.562678 0.062381 0.020000
v 0.938600 0.312309 0.020942
v 0.817152 0.309466 0.067117
v 0.939775 0.437310 0.027006
v 0.312861 0.938540 0.019003
v 0.476851 0.771561 0.097872
v 0.814228 0.185747 0.039916
v 0.806208 0.369293 0.078949
v 0.687637 0.061929 0.019291
v 0.062968 0.125701 -0.000095
v 0.936935 0.187783 0.008458
v 0.436569 0.184669 0.065409
v 0.062609 0.187872 0.007054
v 0.382984 0.774653 0.091291
v 0.937098 0.688071 0.018099
v 0.188689 0.874310 0.013584
v 0.063273 0.812078 0.004372
v 0.813431 0.939217 0.019566
v 0.185853 0.563587 0.060925
v 0.772524 0.653145 0.092875
v 0.488457 0.712727 0.116934
v 0.720767 0.313922 0.122919
v 0.320974 0.312240 0.122920
v 0.719034 0.713731 0.116951
v 0.319205 0.711989 0.116922
v 0.614189 0.313604 0.122910
v 0.320678 0.404553 0.121521
v 0.288950 0.324679 0.105078
v 0.719492 0.614384 0.118393
v 0.723049 0.292006 0.110389
v 0.813418 0.123516 0.028033
v 0.432449 0.642137 0.120335
v 0.274592 0.663249 0.098481
v 0.719396 0.540036 0.119487
v 0.615796 0.713282 0.116944
v 0.320430 0.468847 0.120552
v 0.419493 0.312824 0.122903
v 0.939842 0.750659 0.023393
v 0.548950 0.313366 0.122903
v 0.818240 0.754597 0.066569
v 0.415275 0.250844 0.094194
v 0.424559 0.821117 0.072574
v 0.818368 0.481111 0.077545
v 0.752951 0.184112 0.055698
v 0.369179 0.413644 0.121334
v 0.251267 0.936673 0.007420
v 0.630747 0.434352 0.121093
v 0.551459 0.713001 0.116939
v 0.409910 0.670430 0.119198
v 0.320065 0.533294 0.119584
vt 0.000000 0.000000
vt 1.000000 0.000000
vt 0.000000 1.000000
vt 1.000000 1.000000
vt 0.500000 0.500000
vt 0.000000 0.500000
vt 0.500000 1.000000
vt 1.000000 0.500000
vt 0.500000 0.000000
vt 0.250000 0.750000
vt 0.750000 0.750000
vt 0.250000 0.250000
vt 0.750000 0.250000
vt 0.750000 0.000000
vt 0.250000 0.000000
vt 1.000000 0.750000
vt 1.000000 0.250000
vt 0.250000 1.000000
vt 0.750000 1.000000
vt 0.000000 0.250000
vt 0.000000 0.750000
vt 0.365347 0.220303
vt 0.629073 0.770824
vt 0.245672 0.515386
vt 0.812500 0.250000
vt 0.875000 0.375000
vt 0.625000 0.125000
vt 0.625000 0.375000
vt 0.875000 0.125000
vt 0.375000 0.125000
vt 0.125000 0.125000
vt 0.492214 0.250470
vt 0.875000 0.625000
vt 0.625000 0.625000
vt 0.875000 0.875000
vt 0.375000 0.875000
vt 0.262101 0.599801
vt 0.125000 0.875000
vt 0.125000 0.625000
vt 0.625000 0.875000
vt 0.125000 0.375000
vt 0.250000 0.125000
vt 0.875000 0.750000
vt 0.875000 0.250000
vt 0.250000 0.875000
vt 0.750000 0.875000
vt 0.125000 0.250000
vt 0.125000 0.750000
vt 0.327739 0.593107
vt 0.125000 0.937500
vt 0.250000 0.812500
vt 0.875000 0.500000
vt 0.428974 0.702312
vt 0.248222 0.455442
vt 0.000000 0.375000
vt 0.500000 0.875000
vt 0.500000 0.625000
vt 0.250000 0.375000
vt 0.125000 0.500000
vt 0.375000 0.500000
vt 0.625000 0.250000
vt 0.500000 0.125000
vt 0.500000 0.375000
vt 0.000000 0.625000
vt 0.000000 0.875000
vt 0.000000 0.125000
vt 0.625000 1.000000
vt 0.875000 1.000000
vt 0.125000 1.000000
vt 0.375000 1.000000
vt 1.000000 0.375000
vt 1.000000 0.125000
vt 1.000000 0.875000
vt 1.000000 0.625000
vt 0.375000 0.000000
vt 0.125000 0.000000
vt 0.875000 0.000000
vt 0.625000 0.000000
vt 0.750000 0.125000
vt 0.625000 0.500000
vt 0.760524 0.515669
vt 0.062500 0.312500
vt 0.187500 0.437500
vt 0.187500 0.312500
vt 0.062500 0.437500
vt 0.687500 0.937500
vt 0.687500 0.812500
vt 0.562500 0.937500
vt 0.062500 0.687500
vt 0.187500 0.687500
vt 0.062500 0.562500
vt 0.187500 0.937500
vt 0.187500 0.812500
vt 0.062500 0.937500
vt 0.437500 0.562500
vt 0.875000 0.812500
vt 0.187500 0.750000
vt 0.312500 0.812500
vt 0.437500 0.937500
vt 0.937500 0.812500
vt 0.812500 0.812500
vt 0.937500 0.937500
vt 0.875000 0.187500
vt 0.562500 0.562500
vt 0.710198 0.427224
vt 0.819332 0.591237
vt 0.812500 0.687500
vt 0.937500 0.562500
vt 0.750000 0.812500
vt 0.682510 0.583771
vt 0.437500 0.437500
vt 0.187500 0.062500
vt 0.062500 0.062500
vt 0.187500 0.187500
vt 0.312500 0.062500
vt 0.312500 0.187500
vt 0.437500 0.062500
vt 0.812500 0.062500
vt 0.937500 0.062500
vt 0.554454 0.248535
vt 0.562500 0.437500
vt 0.525016 0.804189
vt 0.562500 0.187500
vt 0.687500 0.187500
vt 0.562500 0.062500
vt 0.937500 0.312500
vt 0.812500 0.312500
vt 0.937500 0.437500
vt 0.312500 0.937500
vt 0.477574 0.762067
vt 0.812500 0.187500
vt 0.800716 0.372483
vt 0.687500 0.062500
vt 0.062500 0.125000
vt 0.937500 0.187500
vt 0.437500 0.187500
vt 0.062500 0.187500
vt 0.386728 0.766561
vt 0.937500 0.687500
vt 0.187500 0.875000
vt 0.062500 0.812500
vt 0.812500 0.937500
vt 0.187500 0.562500
vt 0.765906 0.648544
vt 0.489185 0.702566
vt 0.709058 0.324151
vt 0.331770 0.323295
vt 0.708583 0.704175
vt 0.329092 0.700691
vt 0.609304 0.322028
vt 0.329301 0.409051
vt 0.296906 0.332149
vt 0.710020 0.609968
vt 0.713437 0.300753
vt 0.812500 0.125000
vt 0.436137 0.634590
vt 0.281585 0.657008
vt 0.709938 0.538661
vt 0.610894 0.703787
vt 0.328386 0.470151
vt 0.423958 0.321773
vt 0.937500 0.750000
vt 0.547208 0.321570
vt 0.812500 0.750000
vt 0.418341 0.256674
vt 0.425703 0.815414
vt 0.812755 0.481587
vt 0.750000 0.187500
vt 0.375653 0.417988
vt 0.250000 0.937500
vt 0.625000 0.437500
vt 0.549381 0.703087
vt 0.414679 0.661630
vt 0.327874 0.531627
vn 0.024315 0.024315 0.999409
vn -0.019812 0.019812 0.999607
vn 0.051013 -0.051013 0.997394
vn -0.000159 -0.000159 1.000000
vn -0.000283 0.009030 0.999959
vn -0.242007 0.006076 0.970255
vn -0.024466 0.377100 0.925849
vn 0.404787 0.002047 0.914409
vn 0.002687 -0.317351 0.948304
vn -0.339457 0.281848 0.897402
vn 0.313810 0.249449 0.916133
vn -0.270165 -0.342085 0.899994
vn 0.280917 -0.318035 0.905505
vn 0.009903 -0.274056 0.961663
vn -0.043182 -0.099518 0.994098
vn 0.330135 -0.002574 0.943930
vn 0.220194 -0.050093 0.974169
vn -0.083477 0.131987 0.987730
vn 0.025053 0.346764 0.937618
vn -0.196747 -0.045523 0.979397
vn -0.118531 0.027374 0.992573
vn -0.134087 -0.432371 0.891670
vn -0.007005 0.350352 0.936592
vn -0.403396 0.000521 0.915025
vn 0.342204 -0.189887 0.920239
vn 0.375281 -0.076794 0.923725
vn 0.028655 -0.342449 0.939099
vn 0.000006 0.012525 0.999922
vn 0.219636 -0.163003 0.961868
vn -0.113984 -0.327617 0.937910
vn -0.080475 -0.123106 0.989125
vn -0.002146 -0.395288 0.918555
vn 0.389122 0.059303 0.919275
vn 0.005945 0.011176 0.999920
vn 0.226023 0.218085 0.949396
vn -0.099874 0.370721 0.923359
vn -0.418722 0.010251 0.908056
vn -0.121193 0.144519 0.982052
vn -0.332613 0.040333 0.942201
vn 0.011274 0.391093 0.920282
vn -0.317798 -0.010679 0.948098
vn -0.127445 -0.228625 0.965136
vn 0.341639 0.028636 0.939395
vn 0.336592 -0.121035 0.933840
vn -0.178361 0.275393 0.944641
vn 0.137685 0.323524 0.936149
vn -0.232522 -0.164109 0.958646
vn -0.283408 0.131903 0.949885
vn -0.269673 0.006970 0.962927
vn -0.076150 0.020785 0.996880
vn -0.252407 0.334043 0.908133
vn 0.376006 0.013566 0.926518
vn -0.007603 0.170730 0.985289
vn -0.406515 0.001364 0.913643
vn -0.276725 0.008013 0.960916
vn -0.036078 0.382606 0.923207
vn 0.001837 0.013387 0.999909
vn -0.415845 -0.013115 0.909341
vn -0.340425 0.018694 0.940086
vn 0.000893 0.011556 0.999933
vn 0.022114 -0.406478 0.913393
vn 0.000403 -0.353798 0.935322
vn -0.000858 0.013219 0.999912
vn -0.201378 0.015194 0.979396
vn 0.018991 0.041850 0.998943
vn -0.004238 -0.052087 0.998634
vn 0.008294 0.406847 0.913459
vn 0.076713 0.152164 0.985374
vn -0.050355 -0.048419 0.997557
vn -0.009759 0.317834 0.948096
vn 0.360600 -0.024492 0.932399
vn 0.041494 -0.040910 0.998301
vn 0.139094 0.070199 0.987788
vn 0.334383 0.034668 0.941799
vn -0.035662 -0.264435 0.963744
vn -0.016044 0.016845 0.999729
vn 0.074746 -0.108711 0.991259
vn 0.005268 -0.302578 0.953110
vn 0.089554 -0.284305 0.954542
vn -0.000457 0.009530 0.999954
vn 0.404395 0.020840 0.914347
vn -0.271401 -0.037164 0.961749
vn -0.371348 0.006333 0.928472
vn -0.327475 -0.122356 0.936904
vn -0.284797 0.016243 0.958450
vn 0.030579 0.387026 0.921562
vn 0.101156 0.367156 0.924643
vn -0.011565 0.404955 0.914263
vn -0.232869 0.036365 0.971828
vn -0.356862 0.088709 0.929935
vn -0.264648 0.012594 0.964263
vn -0.082259 0.096626 0.991916
vn -0.221331 0.262187 0.939292
vn -0.001086 0.004328 0.999990
vn -0.001782 -0.001676 0.999997
vn 0.289946 0.169595 0.941897
vn -0.305079 0.190807 0.933016
vn -0.203581 0.400815 0.893254
vn -0.036945 0.364769 0.930365
vn 0.305881 0.106753 0.946066
vn 0.227858 0.259803 0.938394
vn 0.087033 0.083705 0.992683
vn 0.270592 -0.176111 0.946449
vn -0.001872 -0.003690 0.999991
vn 0.202875 0.009099 0.979162
vn 0.405105 0.045649 0.913130
vn 0.400992 0.046418 0.914905
vn 0.378877 0.038447 0.924648
vn 0.202000 0.339251 0.918752
vn 0.022173 0.008910 0.999714
vn 0.000657 0.013586 0.999907
vn -0.056504 -0.080100 0.995184
vn 0.001007 -0.007942 0.999968
vn -0.160555 -0.272847 0.948566
vn -0.088962 -0.209146 0.973830
vn -0.209568 -0.378602 0.901522
vn -0.026751 -0.319067 0.947355
vn 0.110777 -0.200276 0.973457
vn 0.051514 -0.034546 0.998075
vn 0.002235 -0.382651 0.923890
vn -0.000736 0.013804 0.999904
vn -0.002192 0.378411 0.925635
vn 0.014933 -0.368658 0.929445
vn 0.060249 -0.363362 0.929698
vn 0.010310 -0.324601 0.945795
vn 0.323297 -0.073846 0.943412
vn 0.400114 -0.149461 0.904196
vn 0.398686 -0.019933 0.916871
vn -0.114572 0.231389 0.966091
vn -0.004927 0.377662 0.925930
vn 0.248624 -0.235171 0.939617
vn 0.410496 -0.069106 0.909240
vn 0.015523 -0.301756 0.953259
vn -0.005418 -0.078750 0.996880
vn 0.207306 -0.101232 0.973024
vn -0.041287 -0.382191 0.923161
vn -0.098076 -0.110765 0.988996
vn -0.064788 0.412006 0.908875
vn 0.335918 -0.023593 0.941596
vn -0.140913 0.209109 0.967686
vn -0.112694 0.080885 0.990332
vn 0.095588 0.280904 0.954964
vn -0.386719 0.013663 0.922096
vn 0.434330 0.049298 0.899404
vn 0.000029 0.187426 0.982279
vn 0.227214 -0.353082 0.907583
vn -0.341834 -0.154002 0.927056
vn 0.260944 0.164261 0.951276
vn -0.260022 0.205977 0.943378
vn 0.003588 -0.194812 0.980834
vn -0.184046 0.007958 0.982885
vn -0.473530 -0.078528 0.877270
vn 0.171263 0.015214 0.985108
vn 0.239163 -0.429387 0.870878
vn 0.202704 -0.200888 0.958413
vn -0.002483 0.020568 0.999785
vn -0.442194 0.053028 0.895350
vn 0.211455 0.008641 0.977350
vn -0.000929 0.196755 0.980452
vn -0.171980 0.011299 0.985036
vn 0.001229 -0.241788 0.970328
vn 0.339009 -0.006734 0.940759
vn 0.000636 -0.229143 0.973393
vn 0.350262 0.103902 0.930871
vn -0.019515 -0.418333 0.908084
vn -0.056058 0.411868 0.909518
vn 0.374197 0.009250 0.927303
vn 0.142871 -0.319185 0.936861
vn 0.001408 0.012945 0.999915
vn -0.136629 0.160918 0.977465
vn -0.000007 0.012953 0.999916
vn 0.000291 0.192421 0.981312
vn -0.001937 0.035245 0.999377
vn -0.201093 0.009998 0.979521
f 1/1/1 113/113/113 66/66/66
f 47/47/47 114/114/114 12/12/12
f 112/112/112 31/31/31 113/113/113
f 76/76/76 112/112/112 113/113/113
f 169/169/169 147/147/147 161/161/161
f 112/112/112 114/114/114 31/31/31
f 41/41/41 58/58/58 83/83/83
f 31/31/31 134/134/134 113/113/113
f 134/134/134 137/137/137 66/66/66
f 134/134/134 66/66/66 113/113/113
f 115/115/115 112/112/112 15/15/15
f 31/31/31 137/137/137 134/134/134
f 165/165/165 147/147/147 22/22/22
f 114/114/114 137/137/137 31/31/31
f 76/76/76 113/113/113 1/1/1
f 42/42/42 114/114/114 112/112/112
f 15/15/15 112/112/112 76/76/76
f 115/115/115 15/15/15 75/75/75
f 45/45/45 51/51/51 98/98/98
f 116/116/116 115/115/115 30/30/30
f 136/136/136 30/30/30 117/117/117
f 22/22/22 30/30/30 136/136/136
f 156/156/156 173/173/173 49/49/49
f 62/62/62 136/136/136 117/117/117
f 165/165/165 136/136/136 32/32/32
f 147/147/147 12/12/12 22/22/22
f 12/12/12 116/116/116 22/22/22
f 42/42/42 116/116/116 114/114/114
f 116/116/116 30/30/30 22/22/22
f 42/42/42 112/112/112 115/115/115
f 42/42/42 115/115/115 116/116/116
f 84/84/84 152/152/152 58/58/58
f 12/12/12 114/114/114 116/116/116
f 147/147/147 152/152/152 12/12/12
f 54/54/54 151/151/151 160/160/160
f 161/161/161 147/147/147 165/165/165
f 111/111/111 169/169/169 161/161/161
f 165/165/165 22/22/22 136/136/136
f 161/161/161 165/165/165 32/32/32
f 83/83/83 58/58/58 54/54/54
f 47/47/47 137/137/137 114/114/114
f 63/63/63 121/121/121 111/111/111
f 117/117/117 30/30/30 75/75/75
f 60/60/60 169/169/169 111/111/111
f 151/151/151 147/147/147 169/169/169
f 72/72/72 135/135/135 119/119/119
f 121/121/121 63/63/63 28/28/28
f 54/54/54 58/58/58 151/151/151
f 129/129/129 45/45/45 36/36/36
f 151/151/151 152/152/152 147/147/147
f 151/151/151 169/169/169 160/160/160
f 84/84/84 47/47/47 12/12/12
f 58/58/58 152/152/152 151/151/151
f 149/149/149 98/98/98 10/10/10
f 78/78/78 133/133/133 125/125/125
f 148/148/148 159/159/159 34/34/34
f 157/157/157 10/10/10 90/90/90
f 82/82/82 137/137/137 47/47/47
f 84/84/84 12/12/12 152/152/152
f 84/84/84 58/58/58 41/41/41
f 85/85/85 41/41/41 83/83/83
f 20/20/20 137/137/137 82/82/82
f 55/55/55 82/82/82 41/41/41
f 20/20/20 66/66/66 137/137/137
f 55/55/55 20/20/20 82/82/82
f 85/85/85 55/55/55 41/41/41
f 23/23/23 40/40/40 122/122/122
f 97/97/97 93/93/93 48/48/48
f 59/59/59 85/85/85 83/83/83
f 94/94/94 50/50/50 69/69/69
f 98/98/98 138/138/138 36/36/36
f 36/36/36 99/99/99 70/70/70
f 129/129/129 36/36/36 70/70/70
f 140/140/140 170/170/170 92/92/92
f 166/166/166 99/99/99 36/36/36
f 6/6/6 85/85/85 91/91/91
f 45/45/45 98/98/98 36/36/36
f 94/94/94 69/69/69 3/3/3
f 110/110/110 153/153/153 34/34/34
f 166/166/166 138/138/138 130/130/130
f 122/122/122 166/166/166 130/130/130
f 166/166/166 36/36/36 138/138/138
f 93/93/93 38/38/38 48/48/48
f 10/10/10 51/51/51 97/97/97
f 37/37/37 90/90/90 143/143/143
f 143/143/143 90/90/90 39/39/39
f 170/170/170 129/129/129 18/18/18
f 140/140/140 45/45/45 170/170/170
f 129/129/129 70/70/70 18/18/18
f 170/170/170 45/45/45 129/129/129
f 92/92/92 18/18/18 69/69/69
f 38/38/38 92/92/92 50/50/50
f 92/92/92 170/170/170 18/18/18
f 92/92/92 69/69/69 50/50/50
f 38/38/38 140/140/140 92/92/92
f 93/93/93 45/45/45 140/140/140
f 94/94/94 38/38/38 50/50/50
f 48/48/48 38/38/38 141/141/141
f 65/65/65 94/94/94 3/3/3
f 47/47/47 84/84/84 82/82/82
f 21/21/21 141/141/141 65/65/65
f 38/38/38 94/94/94 141/141/141
f 41/41/41 82/82/82 84/84/84
f 65/65/65 141/141/141 94/94/94
f 39/39/39 90/90/90 48/48/48
f 51/51/51 45/45/45 93/93/93
f 23/23/23 122/122/122 172/172/172
f 93/93/93 140/140/140 38/38/38
f 174/174/174 160/160/160 60/60/60
f 90/90/90 10/10/10 97/97/97
f 90/90/90 97/97/97 48/48/48
f 89/89/89 39/39/39 48/48/48
f 48/48/48 141/141/141 89/89/89
f 24/24/24 59/59/59 83/83/83
f 89/89/89 21/21/21 64/64/64
f 21/21/21 89/89/89 141/141/141
f 153/153/153 148/148/148 34/34/34
f 149/149/149 10/10/10 157/157/157
f 6/6/6 91/91/91 64/64/64
f 59/59/59 91/91/91 85/85/85
f 6/6/6 55/55/55 85/85/85
f 24/24/24 83/83/83 54/54/54
f 59/59/59 39/39/39 91/91/91
f 143/143/143 39/39/39 59/59/59
f 24/24/24 143/143/143 59/59/59
f 24/24/24 54/54/54 160/160/160
f 29/29/29 155/155/155 118/118/118
f 163/163/163 28/28/28 63/63/63
f 57/57/57 34/34/34 172/172/172
f 119/119/119 29/29/29 118/118/118
f 103/103/103 131/131/131 155/155/155
f 39/39/39 89/89/89 91/91/91
f 27/27/27 124/124/124 123/123/123
f 61/61/61 123/123/123 124/124/124
f 77/77/77 2/2/2 119/119/119
f 37/37/37 157/157/157 90/90/90
f 37/37/37 143/143/143 24/24/24
f 149/149/149 138/138/138 98/98/98
f 53/53/53 156/156/156 145/145/145
f 135/135/135 72/72/72 17/17/17
f 57/57/57 145/145/145 156/156/156
f 51/51/51 10/10/10 98/98/98
f 159/159/159 172/172/172 34/34/34
f 17/17/17 126/126/126 135/135/135
f 104/104/104 95/95/95 5/5/5
f 60/60/60 160/160/160 169/169/169
f 44/44/44 135/135/135 126/126/126
f 105/105/105 158/158/158 80/80/80
f 57/57/57 95/95/95 104/104/104
f 33/33/33 52/52/52 108/108/108
f 34/34/34 57/57/57 104/104/104
f 57/57/57 156/156/156 95/95/95
f 122/122/122 130/130/130 172/172/172
f 53/53/53 138/138/138 149/149/149
f 9/9/9 125/125/125 117/117/117
f 132/132/132 146/146/146 127/127/127
f 11/11/11 144/144/144 107/107/107
f 103/103/103 44/44/44 25/25/25
f 87/87/87 11/11/11 109/109/109
f 46/46/46 101/101/101 142/142/142
f 80/80/80 110/110/110 104/104/104
f 124/124/124 154/154/154 61/61/61
f 95/95/95 156/156/156 49/49/49
f 11/11/11 148/148/148 144/144/144
f 37/37/37 49/49/49 157/157/157
f 144/144/144 153/153/153 106/106/106
f 60/60/60 95/95/95 49/49/49
f 106/106/106 153/153/153 81/81/81
f 110/110/110 34/34/34 104/104/104
f 77/77/77 119/119/119 118/118/118
f 80/80/80 104/104/104 5/5/5
f 158/158/158 153/153/153 110/110/110
f 121/121/121 171/171/171 80/80/80
f 105/105/105 146/146/146 132/132/132
f 81/81/81 153/153/153 158/158/158
f 158/158/158 110/110/110 80/80/80
f 28/28/28 146/146/146 105/105/105
f 167/167/167 106/106/106 81/81/81
f 108/108/108 52/52/52 8/8/8
f 107/107/107 106/106/106 33/33/33
f 139/139/139 33/33/33 108/108/108
f 96/96/96 164/164/164 43/43/43
f 107/107/107 33/33/33 139/139/139
f 33/33/33 106/106/106 52/52/52
f 74/74/74 108/108/108 8/8/8
f 74/74/74 139/139/139 108/108/108
f 164/164/164 11/11/11 107/107/107
f 173/173/173 156/156/156 53/53/53
f 144/144/144 148/148/148 153/153/153
f 144/144/144 106/106/106 107/107/107
f 111/111/111 5/5/5 60/60/60
f 87/87/87 148/148/148 11/11/11
f 95/95/95 60/60/60 5/5/5
f 88/88/88 56/56/56 40/40/40
f 142/142/142 101/101/101 35/35/35
f 43/43/43 107/107/107 139/139/139
f 96/96/96 162/162/162 100/100/100
f 43/43/43 164/164/164 107/107/107
f 43/43/43 139/139/139 162/162/162
f 56/56/56 166/166/166 122/122/122
f 149/149/149 49/49/49 173/173/173
f 16/16/16 162/162/162 139/139/139
f 35/35/35 101/101/101 96/96/96
f 35/35/35 96/96/96 100/100/100
f 96/96/96 101/101/101 164/164/164
f 96/96/96 43/43/43 162/162/162
f 86/86/86 46/46/46 142/142/142
f 16/16/16 100/100/100 162/162/162
f 102/102/102 35/35/35 100/100/100
f 68/68/68 142/142/142 102/102/102
f 88/88/88 99/99/99 56/56/56
f 142/142/142 35/35/35 102/102/102
f 40/40/40 46/46/46 86/86/86
f 46/46/46 109/109/109 101/101/101
f 19/19/19 86/86/86 142/142/142
f 88/88/88 40/40/40 86/86/86
f 23/23/23 87/87/87 40/40/40
f 87/87/87 46/46/46 40/40/40
f 23/23/23 148/148/148 87/87/87
f 87/87/87 109/109/109 46/46/46
f 49/49/49 149/149/149 157/157/157
f 23/23/23 159/159/159 148/148/148
f 56/56/56 99/99/99 166/166/166
f 56/56/56 122/122/122 40/40/40
f 67/67/67 88/88/88 86/86/86
f 7/7/7 99/99/99 88/88/88
f 7/7/7 70/70/70 99/99/99
f 67/67/67 7/7/7 88/88/88
f 19/19/19 67/67/67 86/86/86
f 68/68/68 19/19/19 142/142/142
f 73/73/73 102/102/102 100/100/100
f 4/4/4 68/68/68 102/102/102
f 73/73/73 4/4/4 102/102/102
f 16/16/16 73/73/73 100/100/100
f 74/74/74 16/16/16 139/139/139
f 154/154/154 150/150/150 61/61/61
f 26/26/26 128/128/128 52/52/52
f 126/126/126 17/17/17 71/71/71
f 155/155/155 168/168/168 79/79/79
f 77/77/77 118/118/118 14/14/14
f 44/44/44 126/126/126 26/26/26
f 167/167/167 132/132/132 26/26/26
f 127/127/127 44/44/44 26/26/26
f 128/128/128 71/71/71 8/8/8
f 128/128/128 8/8/8 52/52/52
f 164/164/164 101/101/101 11/11/11
f 109/109/109 11/11/11 101/101/101
f 25/25/25 44/44/44 127/127/127
f 64/64/64 91/91/91 89/89/89
f 25/25/25 127/127/127 13/13/13
f 115/115/115 75/75/75 30/30/30
f 132/132/132 127/127/127 26/26/26
f 154/154/154 127/127/127 146/146/146
f 131/131/131 13/13/13 168/168/168
f 131/131/131 25/25/25 13/13/13
f 167/167/167 26/26/26 52/52/52
f 105/105/105 132/132/132 167/167/167
f 167/167/167 52/52/52 106/106/106
f 105/105/105 167/167/167 81/81/81
f 105/105/105 81/81/81 158/158/158
f 171/171/171 28/28/28 105/105/105
f 171/171/171 105/105/105 80/80/80
f 29/29/29 119/119/119 135/135/135
f 121/121/121 80/80/80 5/5/5
f 121/121/121 28/28/28 171/171/171
f 121/121/121 5/5/5 111/111/111
f 63/63/63 111/111/111 161/161/161
f 163/163/163 161/161/161 32/32/32
f 163/163/163 150/150/150 28/28/28
f 120/120/120 150/150/150 163/163/163
f 150/150/150 146/146/146 28/28/28
f 163/163/163 63/63/63 161/161/161
f 120/120/120 123/123/123 61/61/61
f 62/62/62 123/123/123 136/136/136
f 53/53/53 145/145/145 130/130/130
f 119/119/119 2/2/2 72/72/72
f 154/154/154 13/13/13 127/127/127
f 154/154/154 146/146/146 150/150/150
f 124/124/124 13/13/13 154/154/154
f 145/145/145 172/172/172 130/130/130
f 125/125/125 27/27/27 62/62/62
f 133/133/133 78/78/78 14/14/14
f 120/120/120 61/61/61 150/150/150
f 123/123/123 32/32/32 136/136/136
f 120/120/120 163/163/163 32/32/32
f 120/120/120 32/32/32 123/123/123
f 125/125/125 62/62/62 117/117/117
f 62/62/62 27/27/27 123/123/123
f 9/9/9 117/117/117 75/75/75
f 26/26/26 126/126/126 128/128/128
f 78/78/78 125/125/125 9/9/9
f 71/71/71 128/128/128 126/126/126
f 118/118/118 133/133/133 14/14/14
f 133/133/133 124/124/124 27/27/27
f 135/135/135 44/44/44 103/103/103
f 155/155/155 131/131/131 168/168/168
f 79/79/79 124/124/124 133/133/133
f 79/79/79 133/133/133 118/118/118
f 168/168/168 13/13/13 124/124/124
f 168/168/168 124/124/124 79/79/79
f 155/155/155 79/79/79 118/118/118
f 103/103/103 25/25/25 131/131/131
f 103/103/103 155/155/155 29/29/29
f 135/135/135 103/103/103 29/29/29
f 172/172/172 145/145/145 57/57/57
f 53/53/53 130/130/130 138/138/138
f 27/27/27 125/125/125 133/133/133
f 93/93/93 97/97/97 51/51/51
f 149/149/149 173/173/173 53/53/53
f 23/23/23 172/172/172 159/159/159
f 160/160/160 174/174/174 24/24/24
f 49/49/49 174/174/174 60/60/60
f 24/24/24 174/174/174 37/37/37
f 49/49/49 37/37/37 174/174/174
