# frame 000622 
# time 0.311500 
# name Cloth3D 
v -0.000000 0.000000 -0.000000
v 1.000000 0.000000 -0.000000
v -0.000000 1.000000 0.000000
v 1.000000 1.000000 0.000000
v 0.500792 0.500416 0.119657
v -0.000000 0.500000 0.000000
v 0.500000 1.000000 0.000000
v 1.000000 0.500000 0.000000
v 0.500000 -0.000000 0.000000
v 0.246823 0.754006 0.065067
v 0.756812 0.756097 0.075707
v 0.246807 0.246283 0.067487
v 0.757154 0.243856 0.073199
v 0.750000 0.000000 0.000000
v 0.250000 0.000000 0.000000
v 1.000000 0.750000 0.000000
v 1.000000 0.250000 0.000000
v 0.250000 1.000000 0.000000
v 0.750000 1.000000 0.000000
v 0.000000 0.250000 0.000000
v 0.000000 0.750000 -0.000000
v 0.363019 0.214241 0.082118
v 0.632461 0.774011 0.078851
v 1.000000 0.937500 0.000000
v 0.813709 0.249106 0.041900
v 0.874854 0.374921 0.037425
v 0.625925 0.122206 0.044491
v 0.632766 0.368666 0.119967
v 0.873297 0.126806 -0.002028
v 0.374481 0.122586 0.043848
v 0.125860 0.125311 0.009350
v 0.492726 0.246589 0.089358
v 0.878649 0.626974 0.047795
v 0.631882 0.632650 0.119916
v 0.874423 0.873282 0.005123
v 0.374457 0.877243 0.043227
v 0.258215 0.602873 0.089489
v 0.126988 0.873437 -0.001101
v 0.124376 0.625225 0.037719
v 0.625218 0.873097 0.032200
v 0.123727 0.374202 0.039509
v 0.248997 0.122029 0.037174
v 0.875579 0.748453 0.026370
v 0.874815 0.250215 0.024125
v 0.250326 0.875353 0.025890
v 0.749678 0.872499 0.018255
v 0.124972 0.249494 0.026993
v 0.125807 0.749625 0.022396
v 0.721106 0.617116 0.119941
v 0.126110 0.936790 -0.004460
v 0.552449 0.709362 0.119929
v 0.875903 0.500867 0.043737
v 0.424329 0.711055 0.119938
v 0.244642 0.453885 0.086535
v 0.000000 0.375000 0.000000
v 0.499526 0.874799 0.040134
v 0.500120 0.631566 0.119865
v 0.244707 0.371202 0.089386
v 0.124776 0.499598 0.039668
v 0.369886 0.500113 0.119842
v 0.630275 0.243522 0.092027
v 0.500272 0.125023 0.039679
v 0.501087 0.369519 0.119994
v 0.000000 0.625000 0.000000
v 0.000000 0.875000 0.000000
v 0.000000 0.125000 0.000000
v 0.625000 1.000000 0.000000
v 0.875000 1.000000 0.000000
v 0.125000 1.000000 0.000000
v 0.375000 1.000000 0.000000
v 1.000000 0.375000 0.000000
v 1.000000 0.125000 0.000000
v 1.000000 0.875000 0.000000
v 1.000000 0.625000 0.000000
v 0.375000 0.000000 0.000000
v 0.125000 0.000000 0.000000
v 0.875000 0.000000 0.000000
v 0.625000 0.000000 0.000000
v 0.749485 0.125341 0.022862
v 0.631853 0.500667 0.119908
v 0.719518 0.488701 0.119929
v 0.062931 0.312463 0.013875
v 0.185700 0.436163 0.062976
v 0.184451 0.310237 0.058448
v 0.062123 0.437314 0.020101
v 0.686971 0.935462 0.008310
v 0.690117 0.814386 0.055329
v 0.562339 0.936750 0.017909
v 0.062868 0.687158 0.014078
v 0.186796 0.688931 0.050898
v 0.062339 0.562336 0.019519
v 0.188265 0.936854 0.004317
v 0.188242 0.812285 0.025999
v 0.063167 0.936977 -0.003219
v 0.434921 0.565831 0.119787
v 0.874388 0.810538 0.013266
v 0.937500 0.000000 -0.000000
v 0.310722 0.815725 0.058842
v 0.437444 0.937911 0.020853
v 0.937031 0.811468 0.006008
v 0.813656 0.811923 0.030674
v 0.937151 0.936914 -0.000647
v 0.937500 1.000000 0.000000
v 0.566197 0.566349 0.119722
v 0.718657 0.424084 0.119929
v 0.823987 0.594480 0.070196
v 0.819926 0.692087 0.071249
v 0.937534 0.563139 0.020348
v 0.489125 0.710183 0.119934
v 0.692118 0.589314 0.119939
v 0.435413 0.434771 0.119721
v 0.187785 0.062237 0.010610
v 0.062939 0.062885 -0.002489
v 0.186856 0.185985 0.035446
v 0.312408 0.060549 0.022453
v 0.310471 0.182714 0.063907
v 0.437589 0.061434 0.022554
v 0.811502 0.063590 0.001140
v 0.937010 0.063012 -0.007547
v 0.557075 0.243471 0.090737
v 0.566673 0.434737 0.119936
v 0.525039 0.805380 0.066666
v 0.564086 0.184804 0.066122
v 0.690489 0.184072 0.058594
v 0.562710 0.062832 0.018409
v 0.936999 0.312972 0.014026
v 0.815922 0.310278 0.058838
v 0.936781 0.437913 0.017958
v 0.312918 0.937482 0.015481
v 0.476378 0.765771 0.086922
v 0.811861 0.188037 0.024695
v 0.805111 0.370398 0.071794
v 0.687689 0.060964 0.020728
v 0.063186 0.125411 0.001290
v 0.936667 0.188317 0.002660
v 0.436871 0.184868 0.065867
v 0.063612 0.188108 0.003235
v 0.382771 0.773194 0.090034
v 0.941216 0.687916 0.026024
v 0.717197 0.359782 0.119929
v 0.063619 0.811682 0.002082
v 0.811861 0.936028 0.001865
v 0.186281 0.562988 0.061030
v 0.774105 0.655816 0.093670
v 0.322230 0.662001 0.119929
v 0.717265 0.307417 0.119942
v 0.317503 0.312731 0.119942
v 0.722499 0.707269 0.119942
v 0.322731 0.712497 0.119942
v 0.487038 0.310638 0.119929
v 0.318813 0.404940 0.119938
v 0.290997 0.325372 0.104137
v 0.321373 0.597651 0.119929
v 0.725830 0.290300 0.109492
v 0.936959 0.873896 -0.002320
v 0.432858 0.641547 0.119784
v 0.276200 0.662625 0.095712
v 0.720122 0.553319 0.119941
v 0.617300 0.708500 0.119929
v 0.319691 0.469367 0.119935
v 0.421243 0.311514 0.119929
v 0.358521 0.286590 0.109939
v 0.550606 0.309792 0.119929
v 0.320510 0.532773 0.119929
v 0.416266 0.251397 0.094061
v 0.424123 0.819135 0.068808
v 0.815915 0.481975 0.069581
v 1.000000 0.062500 -0.000000
v 0.370506 0.414123 0.119884
v 0.772034 0.422809 0.087963
v 0.243211 0.515429 0.083193
v 0.616235 0.308884 0.119936
v 1.000000 0.812500 0.000000
v 0.062500 0.000000 -0.000000
v 0.752526 0.184988 0.046053
v 0.188670 0.874306 0.012775
vt 0.000000 0.000000
vt 1.000000 0.000000
vt 0.000000 1.000000
vt 1.000000 1.000000
vt 0.500000 0.500000
vt 0.000000 0.500000
vt 0.500000 1.000000
vt 1.000000 0.500000
vt 0.500000 0.000000
vt 0.250000 0.750000
vt 0.750000 0.750000
vt 0.250000 0.250000
vt 0.750000 0.250000
vt 0.750000 0.000000
vt 0.250000 0.000000
vt 1.000000 0.750000
vt 1.000000 0.250000
vt 0.250000 1.000000
vt 0.750000 1.000000
vt 0.000000 0.250000
vt 0.000000 0.750000
vt 0.365347 0.220303
vt 0.629073 0.770824
vt 1.000000 0.937500
vt 0.812500 0.250000
vt 0.875000 0.375000
vt 0.625000 0.125000
vt 0.625000 0.375000
vt 0.875000 0.125000
vt 0.375000 0.125000
vt 0.125000 0.125000
vt 0.492214 0.250470
vt 0.875000 0.625000
vt 0.625000 0.625000
vt 0.875000 0.875000
vt 0.375000 0.875000
vt 0.262101 0.599801
vt 0.125000 0.875000
vt 0.125000 0.625000
vt 0.625000 0.875000
vt 0.125000 0.375000
vt 0.250000 0.125000
vt 0.875000 0.750000
vt 0.875000 0.250000
vt 0.250000 0.875000
vt 0.750000 0.875000
vt 0.125000 0.250000
vt 0.125000 0.750000
vt 0.709934 0.610014
vt 0.125000 0.937500
vt 0.550124 0.699086
vt 0.875000 0.500000
vt 0.428272 0.700939
vt 0.248222 0.455442
vt 0.000000 0.375000
vt 0.500000 0.875000
vt 0.500000 0.625000
vt 0.250000 0.375000
vt 0.125000 0.500000
vt 0.375000 0.500000
vt 0.625000 0.250000
vt 0.500000 0.125000
vt 0.500000 0.375000
vt 0.000000 0.625000
vt 0.000000 0.875000
vt 0.000000 0.125000
vt 0.625000 1.000000
vt 0.875000 1.000000
vt 0.125000 1.000000
vt 0.375000 1.000000
vt 1.000000 0.375000
vt 1.000000 0.125000
vt 1.000000 0.875000
vt 1.000000 0.625000
vt 0.375000 0.000000
vt 0.125000 0.000000
vt 0.875000 0.000000
vt 0.625000 0.000000
vt 0.750000 0.125000
vt 0.625000 0.500000
vt 0.708750 0.488378
vt 0.062500 0.312500
vt 0.187500 0.437500
vt 0.187500 0.312500
vt 0.062500 0.437500
vt 0.687500 0.937500
vt 0.687500 0.812500
vt 0.562500 0.937500
vt 0.062500 0.687500
vt 0.187500 0.687500
vt 0.062500 0.562500
vt 0.187500 0.937500
vt 0.187500 0.812500
vt 0.062500 0.937500
vt 0.437500 0.562500
vt 0.875000 0.812500
vt 0.937500 0.000000
vt 0.312500 0.812500
vt 0.437500 0.937500
vt 0.937500 0.812500
vt 0.812500 0.812500
vt 0.937500 0.937500
vt 0.937500 1.000000
vt 0.562500 0.562500
vt 0.707334 0.427252
vt 0.819332 0.591237
vt 0.812500 0.687500
vt 0.937500 0.562500
vt 0.489811 0.700102
vt 0.682510 0.583771
vt 0.437500 0.437500
vt 0.187500 0.062500
vt 0.062500 0.062500
vt 0.187500 0.187500
vt 0.312500 0.062500
vt 0.312500 0.187500
vt 0.437500 0.062500
vt 0.812500 0.062500
vt 0.937500 0.062500
vt 0.554454 0.248535
vt 0.562500 0.437500
vt 0.525016 0.804189
vt 0.562500 0.187500
vt 0.687500 0.187500
vt 0.562500 0.062500
vt 0.937500 0.312500
vt 0.812500 0.312500
vt 0.937500 0.437500
vt 0.312500 0.937500
vt 0.477574 0.762067
vt 0.812500 0.187500
vt 0.800716 0.372483
vt 0.687500 0.062500
vt 0.062500 0.125000
vt 0.937500 0.187500
vt 0.437500 0.187500
vt 0.062500 0.187500
vt 0.386728 0.766561
vt 0.937500 0.687500
vt 0.705175 0.366823
vt 0.062500 0.812500
vt 0.812500 0.937500
vt 0.187500 0.562500
vt 0.765906 0.648544
vt 0.331400 0.653956
vt 0.702756 0.318154
vt 0.326417 0.322296
vt 0.710071 0.693021
vt 0.333105 0.700950
vt 0.486656 0.318528
vt 0.326210 0.409016
vt 0.296906 0.332149
vt 0.329274 0.593159
vt 0.713437 0.300753
vt 0.937500 0.875000
vt 0.436137 0.634590
vt 0.281585 0.657008
vt 0.709511 0.549750
vt 0.611747 0.697318
vt 0.326865 0.470650
vt 0.423948 0.319449
vt 0.364019 0.294291
vt 0.547220 0.318023
vt 0.327852 0.531350
vt 0.418341 0.256674
vt 0.425703 0.815414
vt 0.812755 0.481587
vt 1.000000 0.062500
vt 0.375653 0.417988
vt 0.766844 0.424637
vt 0.245672 0.515386
vt 0.609357 0.317703
vt 1.000000 0.812500
vt 0.062500 0.000000
vt 0.750000 0.187500
vt 0.187500 0.875000
vn 0.010875 0.021751 0.999704
vn -0.059727 0.059727 0.996426
vn 0.025738 -0.025738 0.999337
vn -0.006035 -0.006035 0.999964
vn -0.000394 0.000551 1.000000
vn -0.304968 0.002038 0.952360
vn 0.011725 0.292588 0.956167
vn 0.293177 -0.010873 0.955996
vn 0.016422 -0.312286 0.949846
vn -0.360035 0.268719 0.893401
vn 0.283731 0.454698 0.844243
vn -0.286076 -0.248362 0.925460
vn 0.378844 -0.358585 0.853167
vn 0.078088 -0.173473 0.981738
vn -0.046266 -0.264422 0.963297
vn 0.200558 0.065724 0.977475
vn 0.134898 -0.044496 0.989860
vn -0.043016 0.158347 0.986446
vn 0.024303 0.078667 0.996605
vn -0.173840 -0.039831 0.983968
vn -0.127864 0.047385 0.990659
vn -0.037438 -0.358586 0.932746
vn 0.045528 0.479812 0.876189
vn -0.018893 -0.006827 0.999798
vn 0.376556 -0.263741 0.888058
vn 0.381299 -0.061555 0.922400
vn 0.040352 -0.328139 0.943767
vn 0.000112 -0.000095 1.000000
vn 0.109339 -0.123334 0.986323
vn 0.007284 -0.345215 0.938495
vn -0.169842 -0.103880 0.979981
vn -0.001119 -0.400813 0.916159
vn 0.373989 -0.028180 0.927005
vn -0.000540 -0.000740 1.000000
vn 0.122818 0.108629 0.986466
vn -0.061352 0.365893 0.928633
vn -0.417064 0.028887 0.908418
vn -0.124975 0.112570 0.985753
vn -0.303515 0.064259 0.950657
vn 0.073143 0.353588 0.932537
vn -0.340744 -0.041737 0.939229
vn -0.157625 -0.258274 0.953126
vn 0.262820 0.256228 0.930200
vn 0.261346 -0.187757 0.946808
vn -0.187246 0.236977 0.953300
vn 0.113234 0.294712 0.948854
vn -0.281617 -0.128536 0.950879
vn -0.258067 0.146598 0.954940
vn 0.163809 -0.000958 0.986492
vn -0.063715 -0.004308 0.997959
vn 0.005438 0.258752 0.965928
vn 0.387444 -0.036479 0.921171
vn 0.016483 0.251744 0.967653
vn -0.391944 0.033078 0.919394
vn -0.281918 -0.024836 0.959117
vn 0.060370 0.350045 0.934786
vn -0.000593 -0.001020 0.999999
vn -0.379391 -0.030450 0.924735
vn -0.325386 0.015548 0.945453
vn 0.001664 0.000067 0.999999
vn 0.011377 -0.416879 0.908891
vn 0.007706 -0.347149 0.937778
vn -0.000641 0.000278 1.000000
vn -0.261051 0.021262 0.965091
vn 0.008393 0.021800 0.999727
vn -0.019282 -0.029610 0.999376
vn 0.037674 0.198782 0.979319
vn 0.008670 0.005106 0.999949
vn -0.041430 -0.037994 0.998419
vn -0.018871 0.304158 0.952435
vn 0.247489 -0.013418 0.968798
vn -0.053349 -0.033449 0.998016
vn -0.007428 0.032497 0.999444
vn 0.360616 -0.025870 0.932356
vn 0.002359 -0.346996 0.937864
vn -0.041749 -0.050149 0.997869
vn 0.028120 0.063814 0.997566
vn -0.011208 -0.302449 0.953100
vn 0.210605 -0.277053 0.937490
vn -0.000925 0.000644 0.999999
vn 0.241857 -0.009704 0.970263
vn -0.269069 -0.046740 0.961986
vn -0.364361 0.021674 0.931006
vn -0.354267 -0.131889 0.925797
vn -0.311661 -0.000566 0.950193
vn 0.059510 0.195262 0.978944
vn 0.107409 0.432156 0.895380
vn 0.040412 0.276007 0.960306
vn -0.234998 0.064663 0.969842
vn -0.352276 0.110601 0.929338
vn -0.298522 0.015870 0.954271
vn -0.131381 0.088250 0.987396
vn -0.248617 0.234202 0.939861
vn 0.015297 -0.003204 0.999878
vn 0.000630 -0.000496 1.000000
vn 0.193884 0.170053 0.966174
vn 0.000000 0.119012 0.992893
vn -0.194118 0.383835 0.902767
vn 0.018608 0.330488 0.943627
vn 0.096595 0.103791 0.989897
vn 0.246923 0.281056 0.927382
vn 0.013940 -0.010131 0.999852
vn 0.000000 -0.012047 0.999927
vn -0.000878 -0.000816 0.999999
vn 0.327922 -0.006687 0.944681
vn 0.410536 -0.014561 0.911728
vn 0.409468 0.140807 0.901393
vn 0.348647 -0.028758 0.936813
vn 0.004221 0.275255 0.961362
vn -0.000320 -0.000035 1.000000
vn 0.000690 0.001098 0.999999
vn -0.104695 -0.188422 0.976492
vn -0.038398 -0.021118 0.999039
vn -0.252322 -0.184371 0.949916
vn -0.034133 -0.327275 0.944312
vn -0.135419 -0.299677 0.944381
vn 0.019549 -0.321408 0.946739
vn 0.106620 -0.080722 0.991018
vn -0.030668 0.028374 0.999127
vn -0.025950 -0.398484 0.916808
vn -0.000856 0.001507 0.999999
vn 0.041515 0.419152 0.906966
vn -0.008470 -0.379722 0.925062
vn 0.144877 -0.400543 0.904752
vn -0.008046 -0.322968 0.946376
vn 0.241075 -0.054229 0.968990
vn 0.439927 -0.171114 0.881581
vn 0.309878 -0.024105 0.950471
vn -0.078747 0.278722 0.957138
vn 0.033137 0.451447 0.891682
vn 0.304414 -0.290571 0.907139
vn 0.457416 -0.051585 0.887755
vn 0.077368 -0.261816 0.962012
vn -0.079365 -0.044150 0.995867
vn 0.087796 -0.096417 0.991461
vn 0.035864 -0.375527 0.926117
vn -0.136346 -0.072825 0.987981
vn -0.004526 0.434731 0.900549
vn 0.333722 0.082930 0.939016
vn 0.269720 -0.012964 0.962852
vn -0.086807 0.080845 0.992939
vn 0.044341 0.088725 0.995069
vn -0.351159 0.028359 0.935886
vn 0.441282 -0.002748 0.897364
vn -0.314104 0.004162 0.949379
vn 0.436043 -0.207954 0.875569
vn -0.340280 -0.164782 0.925773
vn 0.261775 0.254177 0.931057
vn -0.264215 0.162386 0.950695
vn 0.000792 -0.201454 0.979498
vn -0.178238 -0.000963 0.983987
vn -0.469078 -0.059523 0.881148
vn -0.277097 0.009237 0.960797
vn 0.415528 -0.309574 0.855278
vn 0.039139 0.055750 0.997677
vn -0.000172 -0.000914 1.000000
vn -0.458120 0.046218 0.887688
vn 0.150153 -0.004234 0.988654
vn 0.004103 0.272958 0.962017
vn -0.171285 0.005459 0.985206
vn 0.002351 -0.254704 0.967016
vn -0.038549 -0.392540 0.918927
vn -0.007499 -0.230172 0.973121
vn -0.202710 0.003741 0.979232
vn 0.030662 -0.383523 0.923022
vn 0.043158 0.385789 0.921577
vn 0.427436 -0.038136 0.903241
vn -0.119047 -0.000000 0.992889
vn 0.001460 0.000456 0.999999
vn 0.468158 -0.013597 0.883540
vn -0.390342 0.018725 0.920479
vn -0.005386 -0.198406 0.980105
vn 0.091427 0.000000 0.995812
vn -0.000000 0.032628 0.999468
vn 0.258564 -0.391110 0.883277
vn -0.211182 0.168937 0.962737
f 56/56/56 99/99/99 166/166/166
f 112/112/112 31/31/31 113/113/113
f 170/170/170 132/132/132 167/167/167
f 26/26/26 167/167/167 132/132/132
f 41/41/41 83/83/83 85/85/85
f 160/160/160 54/54/54 151/151/151
f 83/83/83 41/41/41 58/58/58
f 36/36/36 166/166/166 99/99/99
f 84/84/84 47/47/47 12/12/12
f 72/72/72 17/17/17 135/135/135
f 127/127/127 25/25/25 44/44/44
f 80/80/80 110/110/110 104/104/104
f 115/115/115 112/112/112 15/15/15
f 163/163/163 172/172/172 28/28/28
f 176/176/176 45/45/45 92/92/92
f 76/76/76 112/112/112 113/113/113
f 58/58/58 151/151/151 54/54/54
f 15/15/15 112/112/112 76/76/76
f 115/115/115 15/15/15 75/75/75
f 82/82/82 41/41/41 55/55/55
f 88/88/88 56/56/56 40/40/40
f 25/25/25 127/127/127 13/13/13
f 22/22/22 30/30/30 136/136/136
f 85/85/85 55/55/55 41/41/41
f 47/47/47 84/84/84 82/82/82
f 165/165/165 22/22/22 136/136/136
f 21/21/21 64/64/64 89/89/89
f 83/83/83 58/58/58 54/54/54
f 57/57/57 95/95/95 104/104/104
f 116/116/116 30/30/30 22/22/22
f 42/42/42 112/112/112 115/115/115
f 117/117/117 62/62/62 30/30/30
f 140/140/140 105/105/105 28/28/28
f 155/155/155 100/100/100 73/73/73
f 129/129/129 70/70/70 18/18/18
f 63/63/63 28/28/28 121/121/121
f 165/165/165 162/162/162 22/22/22
f 114/114/114 31/31/31 42/42/42
f 150/150/150 165/165/165 32/32/32
f 37/37/37 153/153/153 157/157/157
f 164/164/164 153/153/153 37/37/37
f 149/149/149 138/138/138 98/98/98
f 61/61/61 172/172/172 120/120/120
f 139/139/139 16/16/16 43/43/43
f 32/32/32 165/165/165 136/136/136
f 143/143/143 39/39/39 59/59/59
f 51/51/51 159/159/159 23/23/23
f 142/142/142 46/46/46 35/35/35
f 78/78/78 125/125/125 9/9/9
f 121/121/121 80/80/80 5/5/5
f 60/60/60 95/95/95 153/153/153
f 144/144/144 107/107/107 148/148/148
f 9/9/9 125/125/125 117/117/117
f 130/130/130 53/53/53 109/109/109
f 162/162/162 165/165/165 161/161/161
f 64/64/64 91/91/91 89/89/89
f 60/60/60 169/169/169 111/111/111
f 50/50/50 92/92/92 69/69/69
f 63/63/63 161/161/161 150/150/150
f 131/131/131 25/25/25 13/13/13
f 81/81/81 170/170/170 167/167/167
f 45/45/45 176/176/176 93/93/93
f 84/84/84 152/152/152 58/58/58
f 51/51/51 109/109/109 57/57/57
f 34/34/34 159/159/159 51/51/51
f 11/11/11 148/148/148 107/107/107
f 5/5/5 104/104/104 95/95/95
f 23/23/23 87/87/87 40/40/40
f 38/38/38 94/94/94 141/141/141
f 29/29/29 119/119/119 135/135/135
f 72/72/72 135/135/135 119/119/119
f 84/84/84 12/12/12 152/152/152
f 100/100/100 43/43/43 16/16/16
f 13/13/13 154/154/154 124/124/124
f 14/14/14 118/118/118 133/133/133
f 56/56/56 122/122/122 40/40/40
f 65/65/65 141/141/141 94/94/94
f 20/20/20 66/66/66 137/137/137
f 55/55/55 20/20/20 82/82/82
f 59/59/59 91/91/91 85/85/85
f 65/65/65 21/21/21 141/141/141
f 6/6/6 85/85/85 91/91/91
f 114/114/114 12/12/12 47/47/47
f 173/173/173 73/73/73 100/100/100
f 3/3/3 65/65/65 94/94/94
f 141/141/141 48/48/48 38/38/38
f 92/92/92 18/18/18 69/69/69
f 124/124/124 154/154/154 61/61/61
f 127/127/127 44/44/44 26/26/26
f 167/167/167 106/106/106 158/158/158
f 126/126/126 26/26/26 44/44/44
f 106/106/106 167/167/167 52/52/52
f 157/157/157 90/90/90 37/37/37
f 162/162/162 147/147/147 12/12/12
f 101/101/101 11/11/11 43/43/43
f 81/81/81 167/167/167 158/158/158
f 58/58/58 152/152/152 151/151/151
f 164/164/164 171/171/171 160/160/160
f 155/155/155 35/35/35 100/100/100
f 156/156/156 145/145/145 153/153/153
f 162/162/162 12/12/12 22/22/22
f 116/116/116 22/22/22 12/12/12
f 118/118/118 29/29/29 79/79/79
f 40/40/40 86/86/86 88/88/88
f 149/149/149 98/98/98 10/10/10
f 131/131/131 79/79/79 29/29/29
f 26/26/26 128/128/128 52/52/52
f 23/23/23 11/11/11 87/87/87
f 97/97/97 119/119/119 77/77/77
f 145/145/145 53/53/53 149/149/149
f 16/16/16 173/173/173 100/100/100
f 169/169/169 151/151/151 147/147/147
f 168/168/168 72/72/72 119/119/119
f 169/169/169 60/60/60 160/160/160
f 45/45/45 98/98/98 129/129/129
f 36/36/36 129/129/129 98/98/98
f 164/164/164 160/160/160 60/60/60
f 122/122/122 130/130/130 51/51/51
f 163/163/163 120/120/120 172/172/172
f 169/169/169 147/147/147 161/161/161
f 25/25/25 131/131/131 44/44/44
f 96/96/96 100/100/100 35/35/35
f 1/1/1 174/174/174 113/113/113
f 176/176/176 38/38/38 93/93/93
f 48/48/48 141/141/141 89/89/89
f 21/21/21 89/89/89 141/141/141
f 49/49/49 144/144/144 148/148/148
f 109/109/109 51/51/51 130/130/130
f 6/6/6 91/91/91 64/64/64
f 63/63/63 111/111/111 161/161/161
f 32/32/32 136/136/136 123/123/123
f 6/6/6 55/55/55 85/85/85
f 154/154/154 127/127/127 132/132/132
f 155/155/155 102/102/102 35/35/35
f 143/143/143 90/90/90 39/39/39
f 83/83/83 171/171/171 59/59/59
f 110/110/110 49/49/49 34/34/34
f 160/160/160 151/151/151 169/169/169
f 107/107/107 144/144/144 106/106/106
f 111/111/111 169/169/169 161/161/161
f 87/87/87 46/46/46 40/40/40
f 144/144/144 49/49/49 106/106/106
f 111/111/111 63/63/63 5/5/5
f 150/150/150 161/161/161 165/165/165
f 125/125/125 27/27/27 62/62/62
f 84/84/84 58/58/58 41/41/41
f 37/37/37 90/90/90 143/143/143
f 37/37/37 143/143/143 171/171/171
f 97/97/97 2/2/2 119/119/119
f 157/157/157 10/10/10 90/90/90
f 73/73/73 24/24/24 155/155/155
f 49/49/49 158/158/158 106/106/106
f 145/145/145 157/157/157 153/153/153
f 34/34/34 51/51/51 57/57/57
f 119/119/119 29/29/29 118/118/118
f 90/90/90 48/48/48 39/39/39
f 105/105/105 170/170/170 81/81/81
f 110/110/110 80/80/80 158/158/158
f 156/156/156 57/57/57 109/109/109
f 156/156/156 53/53/53 145/145/145
f 42/42/42 116/116/116 114/114/114
f 102/102/102 155/155/155 24/24/24
f 123/123/123 62/62/62 27/27/27
f 5/5/5 95/95/95 111/111/111
f 95/95/95 57/57/57 156/156/156
f 163/163/163 150/150/150 32/32/32
f 60/60/60 111/111/111 95/95/95
f 133/133/133 79/79/79 27/27/27
f 124/124/124 27/27/27 79/79/79
f 146/146/146 172/172/172 61/61/61
f 34/34/34 57/57/57 104/104/104
f 145/145/145 149/149/149 157/157/157
f 9/9/9 117/117/117 75/75/75
f 78/78/78 133/133/133 125/125/125
f 42/42/42 115/115/115 116/116/116
f 95/95/95 156/156/156 153/153/153
f 30/30/30 115/115/115 117/117/117
f 10/10/10 98/98/98 93/93/93
f 83/83/83 54/54/54 171/171/171
f 96/96/96 43/43/43 100/100/100
f 37/37/37 171/171/171 164/164/164
f 77/77/77 119/119/119 118/118/118
f 94/94/94 69/69/69 3/3/3
f 45/45/45 93/93/93 98/98/98
f 91/91/91 59/59/59 39/39/39
f 75/75/75 117/117/117 115/115/115
f 138/138/138 149/149/149 53/53/53
f 112/112/112 42/42/42 31/31/31
f 63/63/63 163/163/163 28/28/28
f 163/163/163 63/63/63 150/150/150
f 167/167/167 26/26/26 52/52/52
f 136/136/136 30/30/30 62/62/62
f 99/99/99 70/70/70 36/36/36
f 154/154/154 132/132/132 140/140/140
f 80/80/80 104/104/104 5/5/5
f 27/27/27 124/124/124 123/123/123
f 30/30/30 116/116/116 115/115/115
f 53/53/53 130/130/130 138/138/138
f 120/120/120 123/123/123 61/61/61
f 43/43/43 107/107/107 139/139/139
f 81/81/81 158/158/158 80/80/80
f 61/61/61 123/123/123 124/124/124
f 33/33/33 52/52/52 108/108/108
f 166/166/166 36/36/36 138/138/138
f 139/139/139 33/33/33 108/108/108
f 82/82/82 20/20/20 47/47/47
f 33/33/33 106/106/106 52/52/52
f 175/175/175 13/13/13 124/124/124
f 98/98/98 138/138/138 36/36/36
f 103/103/103 68/68/68 102/102/102
f 107/107/107 106/106/106 33/33/33
f 137/137/137 47/47/47 20/20/20
f 158/158/158 49/49/49 110/110/110
f 46/46/46 87/87/87 101/101/101
f 89/89/89 39/39/39 48/48/48
f 166/166/166 138/138/138 130/130/130
f 38/38/38 176/176/176 92/92/92
f 140/140/140 170/170/170 105/105/105
f 149/149/149 10/10/10 157/157/157
f 54/54/54 160/160/160 171/171/171
f 154/154/154 140/140/140 146/146/146
f 140/140/140 132/132/132 170/170/170
f 135/135/135 44/44/44 29/29/29
f 74/74/74 139/139/139 108/108/108
f 4/4/4 103/103/103 102/102/102
f 7/7/7 70/70/70 99/99/99
f 131/131/131 29/29/29 44/44/44
f 90/90/90 10/10/10 48/48/48
f 68/68/68 142/142/142 102/102/102
f 19/19/19 86/86/86 142/142/142
f 142/142/142 35/35/35 102/102/102
f 92/92/92 50/50/50 38/38/38
f 31/31/31 134/134/134 113/113/113
f 46/46/46 142/142/142 86/86/86
f 107/107/107 43/43/43 11/11/11
f 56/56/56 166/166/166 122/122/122
f 11/11/11 101/101/101 87/87/87
f 129/129/129 36/36/36 70/70/70
f 105/105/105 81/81/81 80/80/80
f 41/41/41 82/82/82 84/84/84
f 59/59/59 85/85/85 83/83/83
f 122/122/122 51/51/51 23/23/23
f 66/66/66 1/1/1 113/113/113
f 113/113/113 134/134/134 66/66/66
f 2/2/2 168/168/168 119/119/119
f 152/152/152 12/12/12 147/147/147
f 47/47/47 137/137/137 114/114/114
f 31/31/31 114/114/114 137/137/137
f 67/67/67 7/7/7 88/88/88
f 19/19/19 67/67/67 86/86/86
f 68/68/68 19/19/19 142/142/142
f 93/93/93 48/48/48 10/10/10
f 161/161/161 147/147/147 162/162/162
f 24/24/24 4/4/4 102/102/102
f 143/143/143 59/59/59 171/171/171
f 93/93/93 38/38/38 48/48/48
f 74/74/74 16/16/16 139/139/139
f 8/8/8 74/74/74 108/108/108
f 33/33/33 139/139/139 107/107/107
f 8/8/8 108/108/108 128/128/128
f 86/86/86 40/40/40 46/46/46
f 146/146/146 28/28/28 172/172/172
f 96/96/96 35/35/35 101/101/101
f 121/121/121 5/5/5 63/63/63
f 52/52/52 128/128/128 108/108/108
f 128/128/128 71/71/71 8/8/8
f 79/79/79 175/175/175 124/124/124
f 50/50/50 94/94/94 38/38/38
f 126/126/126 17/17/17 71/71/71
f 62/62/62 117/117/117 125/125/125
f 26/26/26 126/126/126 128/128/128
f 39/39/39 89/89/89 91/91/91
f 71/71/71 128/128/128 126/126/126
f 132/132/132 127/127/127 26/26/26
f 44/44/44 135/135/135 126/126/126
f 174/174/174 76/76/76 113/113/113
f 7/7/7 99/99/99 88/88/88
f 43/43/43 96/96/96 101/101/101
f 27/27/27 125/125/125 133/133/133
f 101/101/101 35/35/35 46/46/46
f 62/62/62 123/123/123 136/136/136
f 146/146/146 61/61/61 154/154/154
f 66/66/66 134/134/134 137/137/137
f 17/17/17 126/126/126 135/135/135
f 79/79/79 133/133/133 118/118/118
f 67/67/67 88/88/88 86/86/86
f 34/34/34 104/104/104 110/110/110
f 120/120/120 163/163/163 32/32/32
f 134/134/134 31/31/31 137/137/137
f 77/77/77 118/118/118 14/14/14
f 60/60/60 153/153/153 164/164/164
f 18/18/18 92/92/92 129/129/129
f 56/56/56 88/88/88 99/99/99
f 14/14/14 133/133/133 78/78/78
f 12/12/12 114/114/114 116/116/116
f 154/154/154 13/13/13 127/127/127
f 45/45/45 129/129/129 92/92/92
f 121/121/121 28/28/28 80/80/80
f 28/28/28 105/105/105 80/80/80
f 94/94/94 50/50/50 69/69/69
f 109/109/109 53/53/53 156/156/156
f 140/140/140 28/28/28 146/146/146
f 147/147/147 151/151/151 152/152/152
f 130/130/130 122/122/122 166/166/166
f 123/123/123 120/120/120 32/32/32
f 122/122/122 23/23/23 40/40/40
f 13/13/13 175/175/175 131/131/131
f 175/175/175 79/79/79 131/131/131
f 23/23/23 148/148/148 11/11/11
f 148/148/148 159/159/159 34/34/34
f 148/148/148 23/23/23 159/159/159
f 148/148/148 34/34/34 49/49/49
