# frame 000680 
# time 0.340500 
# name Box 
v 0.719181 0.705264 -0.285424
v 0.719135 0.716263 0.114425
v 0.720816 0.316417 0.125424
v 0.719181 0.705264 -0.285424
v 0.720816 0.316417 0.125424
v 0.720862 0.305419 -0.274425
v 0.319184 0.703583 -0.285424
v 0.320865 0.303737 -0.274425
v 0.320819 0.314736 0.125424
v 0.319184 0.703583 -0.285424
v 0.320819 0.314736 0.125424
v 0.319138 0.714581 0.114425
v 0.719181 0.705264 -0.285424
v 0.319184 0.703583 -0.285424
v 0.319138 0.714581 0.114425
v 0.719181 0.705264 -0.285424
v 0.319138 0.714581 0.114425
v 0.719135 0.716263 0.114425
v 0.719135 0.716263 0.114425
v 0.319138 0.714581 0.114425
v 0.320819 0.314736 0.125424
v 0.719135 0.716263 0.114425
v 0.320819 0.314736 0.125424
v 0.720816 0.316417 0.125424
v 0.720816 0.316417 0.125424
v 0.320819 0.314736 0.125424
v 0.320865 0.303737 -0.274425
v 0.720816 0.316417 0.125424
v 0.320865 0.303737 -0.274425
v 0.720862 0.305419 -0.274425
v 0.319184 0.703583 -0.285424
v 0.719181 0.705264 -0.285424
v 0.720862 0.305419 -0.274425
v 0.319184 0.703583 -0.285424
v 0.720862 0.305419 -0.274425
v 0.320865 0.303737 -0.274425
vn 0.199998 0.000841 0.000000
vn 0.199998 0.000841 0.000000
vn 0.199998 0.000841 0.000000
vn 0.199998 0.000841 0.000000
vn 0.199998 0.000841 0.000000
vn 0.199998 0.000841 0.000000
vn -0.199998 -0.000841 0.000000
vn -0.199998 -0.000841 0.000000
vn -0.199998 -0.000841 0.000000
vn -0.199998 -0.000841 0.000000
vn -0.199998 -0.000841 0.000000
vn -0.199998 -0.000841 0.000000
vn -0.000840 0.199923 -0.005499
vn -0.000840 0.199923 -0.005499
vn -0.000840 0.199923 -0.005499
vn -0.000840 0.199923 -0.005499
vn -0.000840 0.199923 -0.005499
vn -0.000840 0.199923 -0.005499
vn -0.000023 0.005499 0.199924
vn -0.000023 0.005499 0.199924
vn -0.000023 0.005499 0.199924
vn -0.000023 0.005499 0.199924
vn -0.000023 0.005499 0.199924
vn -0.000023 0.005499 0.199924
vn 0.000840 -0.199923 0.005499
vn 0.000840 -0.199923 0.005499
vn 0.000840 -0.199923 0.005499
vn 0.000840 -0.199923 0.005499
vn 0.000840 -0.199923 0.005499
vn 0.000840 -0.199923 0.005499
vn 0.000023 -0.005499 -0.199924
vn 0.000023 -0.005499 -0.199924
vn 0.000023 -0.005499 -0.199924
vn 0.000023 -0.005499 -0.199924
vn 0.000023 -0.005499 -0.199924
vn 0.000023 -0.005499 -0.199924
f 1/1/1 2/2/2 3/3/3
f 4/4/4 5/5/5 6/6/6
f 7/7/7 8/8/8 9/9/9
f 10/10/10 11/11/11 12/12/12
f 13/13/13 14/14/14 15/15/15
f 16/16/16 17/17/17 18/18/18
f 19/19/19 20/20/20 21/21/21
f 22/22/22 23/23/23 24/24/24
f 25/25/25 26/26/26 27/27/27
f 28/28/28 29/29/29 30/30/30
f 31/31/31 32/32/32 33/33/33
f 34/34/34 35/35/35 36/36/36
