# frame 000634 
# time 0.317500 
# name Cloth3D 
v -0.000000 0.000000 -0.000000
v 1.000000 0.000000 -0.000000
v -0.000000 1.000000 0.000000
v 1.000000 1.000000 0.000000
v 0.501571 0.501291 0.119657
v -0.000000 0.500000 0.000000
v 0.500000 1.000000 0.000000
v 1.000000 0.500000 0.000000
v 0.500000 -0.000000 0.000000
v 0.245953 0.755021 0.064673
v 0.757530 0.758180 0.079705
v 0.246965 0.246366 0.066324
v 0.757994 0.243640 0.074122
v 0.750000 0.000000 0.000000
v 0.250000 0.000000 0.000000
v 1.000000 0.750000 0.000000
v 1.000000 0.250000 0.000000
v 0.250000 1.000000 0.000000
v 0.750000 1.000000 0.000000
v 0.000000 0.250000 0.000000
v 0.000000 0.750000 -0.000000
v 0.363568 0.215941 0.078585
v 0.633030 0.776077 0.082529
v 0.062500 0.000000 -0.000000
v 0.814646 0.248226 0.043482
v 0.875062 0.375132 0.036273
v 0.626565 0.123257 0.042070
v 0.634122 0.369547 0.119967
v 0.873738 0.126272 -0.001020
v 0.375060 0.123686 0.041435
v 0.126583 0.126164 0.002367
v 0.493800 0.247373 0.089356
v 0.878167 0.626784 0.046913
v 0.632293 0.633245 0.119916
v 0.875063 0.874739 0.011058
v 0.374224 0.877937 0.043616
v 0.258993 0.603683 0.087518
v 0.127071 0.873178 -0.006329
v 0.125352 0.625247 0.034803
v 0.625213 0.872995 0.031584
v 0.123837 0.374474 0.040639
v 0.249715 0.123631 0.030759
v 0.875701 0.750032 0.029179
v 0.873793 0.250833 0.018927
v 0.250543 0.874870 0.021443
v 0.750145 0.873661 0.021445
v 0.126119 0.250530 0.022021
v 0.126193 0.749481 0.019148
v 0.719206 0.617311 0.119941
v 0.126073 0.936886 -0.007613
v 0.552770 0.709907 0.119929
v 0.876637 0.500949 0.044767
v 0.424352 0.709356 0.119938
v 0.246129 0.454469 0.084038
v 0.000000 0.375000 0.000000
v 0.499751 0.876286 0.043301
v 0.500508 0.632273 0.119865
v 0.247359 0.371669 0.083870
v 0.126201 0.499770 0.036130
v 0.370299 0.500915 0.119842
v 0.631275 0.245579 0.088351
v 0.500818 0.124776 0.041703
v 0.502082 0.370221 0.119994
v 0.000000 0.625000 0.000000
v 0.000000 0.875000 0.000000
v 0.000000 0.125000 0.000000
v 0.625000 1.000000 0.000000
v 0.875000 1.000000 0.000000
v 0.125000 1.000000 0.000000
v 0.375000 1.000000 0.000000
v 1.000000 0.375000 0.000000
v 1.000000 0.125000 0.000000
v 1.000000 0.875000 0.000000
v 1.000000 0.625000 0.000000
v 0.375000 0.000000 0.000000
v 0.125000 0.000000 0.000000
v 0.875000 0.000000 0.000000
v 0.625000 0.000000 0.000000
v 0.750823 0.124560 0.025698
v 0.632632 0.501390 0.119908
v 0.719865 0.489201 0.119929
v 0.062247 0.312637 0.017060
v 0.186869 0.436608 0.061071
v 0.185035 0.310397 0.057318
v 0.062686 0.437407 0.018974
v 0.687142 0.936046 0.010632
v 0.689912 0.813301 0.053165
v 0.562435 0.937138 0.018598
v 0.062996 0.687160 0.013409
v 0.187149 0.689250 0.048720
v 0.062989 0.562340 0.017704
v 0.188370 0.936597 0.000371
v 0.188717 0.811626 0.020468
v 0.063223 0.936956 -0.004130
v 0.435371 0.566679 0.119787
v 0.875059 0.812248 0.018679
v 0.186358 0.751805 0.040300
v 0.310637 0.815544 0.055895
v 0.437436 0.939224 0.023920
v 0.937377 0.812185 0.008747
v 0.814300 0.813795 0.035413
v 0.937317 0.937273 0.000328
v 0.873590 0.188693 0.007941
v 0.566785 0.567154 0.119722
v 0.720135 0.424565 0.119929
v 0.824657 0.594360 0.071364
v 0.818146 0.691861 0.067965
v 0.937391 0.563199 0.019690
v 0.489329 0.709619 0.119934
v 0.692333 0.589737 0.119939
v 0.436168 0.435491 0.119721
v 0.188140 0.062933 0.006026
v 0.063014 0.062965 -0.007115
v 0.187153 0.186618 0.031748
v 0.312766 0.061749 0.018822
v 0.311246 0.184408 0.058661
v 0.437858 0.061822 0.022094
v 0.811667 0.063447 -0.000148
v 0.937174 0.062827 -0.006876
v 0.558280 0.244806 0.089313
v 0.567760 0.435566 0.119936
v 0.525326 0.806246 0.067893
v 0.565185 0.184453 0.068613
v 0.691920 0.183006 0.061681
v 0.562884 0.062578 0.019522
v 0.936461 0.313186 0.011190
v 0.815251 0.310566 0.056214
v 0.937525 0.437968 0.019382
v 0.312833 0.937646 0.014800
v 0.476701 0.768516 0.091193
v 0.813064 0.187231 0.026641
v 0.804820 0.370533 0.069654
v 0.687839 0.061698 0.018317
v 0.063362 0.125667 -0.001612
v 0.936425 0.188470 -0.000492
v 0.437617 0.186232 0.064122
v 0.063783 0.188449 0.001195
v 0.382804 0.772482 0.086655
v 0.939682 0.687905 0.022633
v 0.188793 0.873868 0.008141
v 0.063642 0.811658 0.000739
v 0.812034 0.936303 0.001766
v 0.188220 0.563304 0.056317
v 0.774278 0.655574 0.093487
v 0.319592 0.662970 0.119929
v 0.720779 0.310900 0.119942
v 0.320987 0.309218 0.119942
v 0.719015 0.710782 0.119942
v 0.319218 0.709013 0.119942
v 0.617219 0.310595 0.119936
v 0.320674 0.405471 0.119938
v 0.290715 0.325604 0.104944
v 0.319861 0.598484 0.119929
v 0.725615 0.291927 0.106707
v 0.937161 0.874558 0.001826
v 0.433030 0.642275 0.119784
v 0.275816 0.663575 0.095933
v 0.719338 0.553731 0.119941
v 0.617644 0.710180 0.119929
v 0.320426 0.470007 0.119935
v 0.421771 0.309812 0.119929
v 0.875001 0.312473 0.030607
v 0.551771 0.310355 0.119929
v 1.000000 0.812500 0.000000
v 0.417012 0.252163 0.093459
v 0.424030 0.818790 0.066397
v 0.816702 0.482161 0.070257
v 0.752904 0.185580 0.045269
v 0.371138 0.414711 0.119884
v 0.774715 0.422974 0.091511
v 0.244622 0.516053 0.080728
v 0.937925 0.749933 0.014422
vt 0.000000 0.000000
vt 1.000000 0.000000
vt 0.000000 1.000000
vt 1.000000 1.000000
vt 0.500000 0.500000
vt 0.000000 0.500000
vt 0.500000 1.000000
vt 1.000000 0.500000
vt 0.500000 0.000000
vt 0.250000 0.750000
vt 0.750000 0.750000
vt 0.250000 0.250000
vt 0.750000 0.250000
vt 0.750000 0.000000
vt 0.250000 0.000000
vt 1.000000 0.750000
vt 1.000000 0.250000
vt 0.250000 1.000000
vt 0.750000 1.000000
vt 0.000000 0.250000
vt 0.000000 0.750000
vt 0.365347 0.220303
vt 0.629073 0.770824
vt 0.062500 0.000000
vt 0.812500 0.250000
vt 0.875000 0.375000
vt 0.625000 0.125000
vt 0.625000 0.375000
vt 0.875000 0.125000
vt 0.375000 0.125000
vt 0.125000 0.125000
vt 0.492214 0.250470
vt 0.875000 0.625000
vt 0.625000 0.625000
vt 0.875000 0.875000
vt 0.375000 0.875000
vt 0.262101 0.599801
vt 0.125000 0.875000
vt 0.125000 0.625000
vt 0.625000 0.875000
vt 0.125000 0.375000
vt 0.250000 0.125000
vt 0.875000 0.750000
vt 0.875000 0.250000
vt 0.250000 0.875000
vt 0.750000 0.875000
vt 0.125000 0.250000
vt 0.125000 0.750000
vt 0.708057 0.610005
vt 0.125000 0.937500
vt 0.550126 0.699180
vt 0.875000 0.500000
vt 0.428277 0.698747
vt 0.248222 0.455442
vt 0.000000 0.375000
vt 0.500000 0.875000
vt 0.500000 0.625000
vt 0.250000 0.375000
vt 0.125000 0.500000
vt 0.375000 0.500000
vt 0.625000 0.250000
vt 0.500000 0.125000
vt 0.500000 0.375000
vt 0.000000 0.625000
vt 0.000000 0.875000
vt 0.000000 0.125000
vt 0.625000 1.000000
vt 0.875000 1.000000
vt 0.125000 1.000000
vt 0.375000 1.000000
vt 1.000000 0.375000
vt 1.000000 0.125000
vt 1.000000 0.875000
vt 1.000000 0.625000
vt 0.375000 0.000000
vt 0.125000 0.000000
vt 0.875000 0.000000
vt 0.625000 0.000000
vt 0.750000 0.125000
vt 0.625000 0.500000
vt 0.708465 0.488380
vt 0.062500 0.312500
vt 0.187500 0.437500
vt 0.187500 0.312500
vt 0.062500 0.437500
vt 0.687500 0.937500
vt 0.687500 0.812500
vt 0.562500 0.937500
vt 0.062500 0.687500
vt 0.187500 0.687500
vt 0.062500 0.562500
vt 0.187500 0.937500
vt 0.187500 0.812500
vt 0.062500 0.937500
vt 0.437500 0.562500
vt 0.875000 0.812500
vt 0.187500 0.750000
vt 0.312500 0.812500
vt 0.437500 0.937500
vt 0.937500 0.812500
vt 0.812500 0.812500
vt 0.937500 0.937500
vt 0.875000 0.187500
vt 0.562500 0.562500
vt 0.707796 0.427238
vt 0.819332 0.591237
vt 0.812500 0.687500
vt 0.937500 0.562500
vt 0.489805 0.699119
vt 0.682510 0.583771
vt 0.437500 0.437500
vt 0.187500 0.062500
vt 0.062500 0.062500
vt 0.187500 0.187500
vt 0.312500 0.062500
vt 0.312500 0.187500
vt 0.437500 0.062500
vt 0.812500 0.062500
vt 0.937500 0.062500
vt 0.554454 0.248535
vt 0.562500 0.437500
vt 0.525016 0.804189
vt 0.562500 0.187500
vt 0.687500 0.187500
vt 0.562500 0.062500
vt 0.937500 0.312500
vt 0.812500 0.312500
vt 0.937500 0.437500
vt 0.312500 0.937500
vt 0.477574 0.762067
vt 0.812500 0.187500
vt 0.800716 0.372483
vt 0.687500 0.062500
vt 0.062500 0.125000
vt 0.937500 0.187500
vt 0.437500 0.187500
vt 0.062500 0.187500
vt 0.386728 0.766561
vt 0.937500 0.687500
vt 0.187500 0.875000
vt 0.062500 0.812500
vt 0.812500 0.937500
vt 0.187500 0.562500
vt 0.765906 0.648544
vt 0.329204 0.654020
vt 0.706262 0.321246
vt 0.329310 0.318603
vt 0.706483 0.696618
vt 0.330159 0.696784
vt 0.609353 0.318586
vt 0.327480 0.409019
vt 0.296906 0.332149
vt 0.327789 0.593192
vt 0.713437 0.300753
vt 0.937500 0.875000
vt 0.436137 0.634590
vt 0.281585 0.657008
vt 0.708493 0.549752
vt 0.611781 0.698551
vt 0.327078 0.470647
vt 0.423920 0.317417
vt 0.875000 0.312500
vt 0.547223 0.317712
vt 1.000000 0.812500
vt 0.418341 0.256674
vt 0.425703 0.815414
vt 0.812755 0.481587
vt 0.750000 0.187500
vt 0.375653 0.417988
vt 0.766844 0.424637
vt 0.245672 0.515386
vt 0.937500 0.750000
vn 0.035869 0.071737 0.996778
vn -0.055226 0.055226 0.996945
vn 0.031233 -0.031233 0.999024
vn 0.002206 0.002206 0.999995
vn -0.000393 0.000554 1.000000
vn -0.282228 0.004949 0.959334
vn 0.021421 0.323176 0.946096
vn 0.295573 -0.001210 0.955319
vn 0.011755 -0.317412 0.948215
vn -0.374682 0.277439 0.884670
vn 0.285129 0.431172 0.856033
vn -0.295357 -0.277822 0.914100
vn 0.381097 -0.335569 0.861486
vn 0.074939 -0.144165 0.986712
vn -0.050709 -0.199295 0.978627
vn 0.217718 0.065837 0.973789
vn 0.084658 -0.045977 0.995349
vn -0.056299 0.120212 0.991151
vn 0.034151 0.092815 0.995098
vn -0.139667 -0.061653 0.988277
vn -0.110245 0.049856 0.992653
vn -0.052308 -0.386338 0.920873
vn 0.049945 0.496671 0.866501
vn -0.000000 0.107358 0.994220
vn 0.428224 -0.221191 0.876184
vn 0.368354 -0.079941 0.926242
vn 0.043100 -0.354778 0.933957
vn 0.000074 -0.000116 1.000000
vn 0.144221 -0.117779 0.982511
vn -0.039271 -0.335056 0.941379
vn -0.140803 -0.118622 0.982906
vn -0.005057 -0.393044 0.919506
vn 0.380910 0.005614 0.924595
vn -0.000545 -0.000736 1.000000
vn 0.132462 0.132082 0.982348
vn -0.078209 0.342642 0.936205
vn -0.451528 0.013887 0.892149
vn -0.104534 0.099363 0.989545
vn -0.285111 0.055743 0.956872
vn 0.077972 0.346088 0.934956
vn -0.320943 -0.020086 0.946885
vn -0.153762 -0.256347 0.954277
vn 0.268819 0.183262 0.945596
vn 0.296349 -0.177097 0.938517
vn -0.204066 0.220785 0.953735
vn 0.089529 0.296472 0.950836
vn -0.275572 -0.159782 0.947908
vn -0.258390 0.171704 0.950659
vn 0.147905 0.001498 0.989000
vn -0.036916 -0.049070 0.998113
vn 0.004461 0.240112 0.970735
vn 0.391566 -0.036126 0.919440
vn -0.003470 0.229764 0.973240
vn -0.400867 0.020721 0.915902
vn -0.292647 -0.008303 0.956185
vn 0.056566 0.334052 0.940856
vn -0.000589 -0.001030 0.999999
vn -0.399621 -0.004481 0.916670
vn -0.310710 0.029646 0.950042
vn 0.001631 0.000085 0.999999
vn 0.020420 -0.397010 0.917587
vn 0.002177 -0.347706 0.937601
vn -0.000830 0.000688 0.999999
vn -0.240638 0.017023 0.970466
vn 0.025122 0.018893 0.999506
vn 0.029302 -0.042676 0.998659
vn 0.032383 0.221909 0.974530
vn 0.005363 0.015082 0.999872
vn -0.023344 -0.088616 0.995792
vn -0.034584 0.316187 0.948066
vn 0.234467 -0.030880 0.971634
vn -0.058163 -0.026324 0.997960
vn 0.051335 0.037200 0.997988
vn 0.342798 -0.015592 0.939280
vn -0.011332 -0.317973 0.948032
vn -0.041630 0.025340 0.998812
vn 0.026974 0.056892 0.998016
vn 0.001747 -0.292185 0.956360
vn 0.207867 -0.280743 0.937003
vn -0.000924 0.000637 0.999999
vn 0.229980 0.000100 0.973195
vn -0.264282 -0.081220 0.961019
vn -0.348292 0.023474 0.937092
vn -0.346032 -0.137821 0.928045
vn -0.299678 0.016870 0.953891
vn 0.053582 0.202535 0.977808
vn 0.108251 0.465625 0.878336
vn 0.051567 0.284063 0.957418
vn -0.211254 0.065006 0.975267
vn -0.366591 0.106198 0.924301
vn -0.273651 0.013236 0.961738
vn -0.136861 0.054349 0.989098
vn -0.272131 0.254780 0.927918
vn 0.045375 -0.024408 0.998672
vn 0.000616 -0.000493 1.000000
vn 0.207955 0.141386 0.967866
vn -0.353641 0.212734 0.910869
vn -0.206514 0.382608 0.900535
vn 0.006207 0.340408 0.940257
vn 0.150401 0.086902 0.984798
vn 0.228100 0.270262 0.935376
vn 0.036631 0.024606 0.999026
vn 0.209566 -0.158827 0.964809
vn -0.000879 -0.000821 0.999999
vn 0.292917 0.001475 0.956137
vn 0.418611 0.009775 0.908113
vn 0.424633 0.129748 0.896020
vn 0.349997 -0.023241 0.936462
vn -0.001101 0.231222 0.972900
vn -0.000320 -0.000035 1.000000
vn 0.000681 0.001083 0.999999
vn -0.108569 -0.134140 0.984997
vn -0.006463 0.003039 0.999974
vn -0.254910 -0.210728 0.943724
vn -0.050674 -0.282627 0.957890
vn -0.144915 -0.328641 0.933271
vn 0.001262 -0.322819 0.946460
vn 0.104160 -0.095067 0.990007
vn -0.016752 0.017105 0.999713
vn -0.004453 -0.374751 0.927115
vn -0.000845 0.001501 0.999999
vn 0.044250 0.432059 0.900759
vn 0.000794 -0.355967 0.934498
vn 0.156876 -0.392034 0.906476
vn 0.004217 -0.319317 0.947639
vn 0.239218 -0.083810 0.967342
vn 0.452235 -0.151764 0.878892
vn 0.309597 -0.032971 0.950296
vn -0.099849 0.263762 0.959406
vn 0.015106 0.458439 0.888598
vn 0.316695 -0.257524 0.912899
vn 0.488759 -0.078895 0.868844
vn 0.071765 -0.263179 0.962074
vn -0.021762 -0.063858 0.997722
vn 0.080013 -0.093321 0.992416
vn 0.010312 -0.371879 0.928224
vn -0.096023 -0.071970 0.992774
vn -0.035228 0.438471 0.898055
vn 0.302652 0.086962 0.949126
vn -0.219754 0.154572 0.963232
vn -0.050789 0.085256 0.995064
vn 0.039611 0.124580 0.991419
vn -0.359860 0.028101 0.932583
vn 0.448142 0.032989 0.893354
vn -0.338473 -0.002424 0.940973
vn 0.287179 -0.364301 0.885897
vn -0.328811 -0.142071 0.933649
vn 0.244846 0.254032 0.935691
vn -0.292929 0.140963 0.945686
vn 0.002741 -0.213146 0.977017
vn -0.190077 -0.002074 0.981767
vn -0.455113 -0.057265 0.888590
vn -0.293773 0.003207 0.955870
vn 0.318231 -0.432704 0.843502
vn 0.084988 0.066023 0.994192
vn -0.000178 -0.000967 1.000000
vn -0.485397 0.031252 0.873735
vn 0.144753 -0.001934 0.989466
vn -0.001316 0.259426 0.965762
vn -0.183616 0.003499 0.982992
vn 0.006829 -0.259955 0.965596
vn 0.346555 -0.130220 0.928947
vn -0.002887 -0.247609 0.968856
vn 0.134619 0.000000 0.990897
vn 0.020770 -0.405768 0.913740
vn 0.012296 0.391976 0.919893
vn 0.435667 -0.039120 0.899257
vn 0.269942 -0.378617 0.885314
vn 0.001471 0.000450 0.999999
vn 0.487711 -0.023409 0.872691
vn -0.409395 0.022835 0.912071
vn 0.224078 0.116915 0.967533
f 56/56/56 99/99/99 166/166/166
f 112/112/112 31/31/31 113/113/113
f 170/170/170 132/132/132 167/167/167
f 26/26/26 167/167/167 132/132/132
f 41/41/41 83/83/83 85/85/85
f 160/160/160 54/54/54 151/151/151
f 83/83/83 41/41/41 58/58/58
f 36/36/36 166/166/166 99/99/99
f 84/84/84 47/47/47 12/12/12
f 72/72/72 17/17/17 135/135/135
f 127/127/127 25/25/25 44/44/44
f 80/80/80 110/110/110 104/104/104
f 115/115/115 112/112/112 15/15/15
f 163/163/163 150/150/150 28/28/28
f 140/140/140 45/45/45 92/92/92
f 76/76/76 112/112/112 113/113/113
f 58/58/58 151/151/151 54/54/54
f 15/15/15 112/112/112 76/76/76
f 115/115/115 15/15/15 75/75/75
f 82/82/82 41/41/41 55/55/55
f 88/88/88 56/56/56 40/40/40
f 25/25/25 127/127/127 13/13/13
f 22/22/22 30/30/30 136/136/136
f 85/85/85 55/55/55 41/41/41
f 47/47/47 84/84/84 82/82/82
f 165/165/165 22/22/22 136/136/136
f 21/21/21 64/64/64 89/89/89
f 83/83/83 58/58/58 54/54/54
f 57/57/57 95/95/95 104/104/104
f 116/116/116 30/30/30 22/22/22
f 42/42/42 112/112/112 115/115/115
f 26/26/26 162/162/162 126/126/126
f 165/165/165 147/147/147 22/22/22
f 155/155/155 100/100/100 73/73/73
f 129/129/129 70/70/70 18/18/18
f 63/63/63 28/28/28 121/121/121
f 162/162/162 26/26/26 127/127/127
f 114/114/114 31/31/31 42/42/42
f 153/153/153 160/160/160 60/60/60
f 37/37/37 153/153/153 157/157/157
f 139/139/139 33/33/33 74/74/74
f 149/149/149 138/138/138 98/98/98
f 61/61/61 150/150/150 120/120/120
f 62/62/62 117/117/117 125/125/125
f 32/32/32 165/165/165 136/136/136
f 143/143/143 39/39/39 59/59/59
f 51/51/51 159/159/159 23/23/23
f 142/142/142 46/46/46 35/35/35
f 78/78/78 125/125/125 9/9/9
f 121/121/121 80/80/80 5/5/5
f 60/60/60 95/95/95 153/153/153
f 144/144/144 107/107/107 148/148/148
f 97/97/97 10/10/10 93/93/93
f 130/130/130 53/53/53 109/109/109
f 44/44/44 162/162/162 127/127/127
f 64/64/64 91/91/91 89/89/89
f 60/60/60 169/169/169 111/111/111
f 50/50/50 92/92/92 69/69/69
f 123/123/123 120/120/120 32/32/32
f 131/131/131 25/25/25 13/13/13
f 81/81/81 170/170/170 167/167/167
f 45/45/45 140/140/140 93/93/93
f 84/84/84 152/152/152 58/58/58
f 51/51/51 109/109/109 57/57/57
f 34/34/34 159/159/159 51/51/51
f 11/11/11 148/148/148 107/107/107
f 5/5/5 104/104/104 95/95/95
f 23/23/23 87/87/87 40/40/40
f 38/38/38 94/94/94 141/141/141
f 29/29/29 119/119/119 135/135/135
f 72/72/72 135/135/135 119/119/119
f 84/84/84 12/12/12 152/152/152
f 9/9/9 125/125/125 117/117/117
f 13/13/13 154/154/154 124/124/124
f 14/14/14 118/118/118 133/133/133
f 56/56/56 122/122/122 40/40/40
f 65/65/65 141/141/141 94/94/94
f 20/20/20 66/66/66 137/137/137
f 55/55/55 20/20/20 82/82/82
f 59/59/59 91/91/91 85/85/85
f 65/65/65 21/21/21 141/141/141
f 6/6/6 85/85/85 91/91/91
f 114/114/114 12/12/12 47/47/47
f 164/164/164 73/73/73 100/100/100
f 3/3/3 65/65/65 94/94/94
f 141/141/141 48/48/48 38/38/38
f 92/92/92 18/18/18 69/69/69
f 124/124/124 154/154/154 61/61/61
f 4/4/4 68/68/68 102/102/102
f 167/167/167 106/106/106 158/158/158
f 103/103/103 29/29/29 135/135/135
f 106/106/106 167/167/167 52/52/52
f 157/157/157 90/90/90 37/37/37
f 44/44/44 103/103/103 135/135/135
f 101/101/101 11/11/11 43/43/43
f 81/81/81 167/167/167 158/158/158
f 58/58/58 152/152/152 151/151/151
f 13/13/13 168/168/168 131/131/131
f 2/2/2 119/119/119 77/77/77
f 156/156/156 145/145/145 153/153/153
f 23/23/23 148/148/148 11/11/11
f 116/116/116 22/22/22 12/12/12
f 118/118/118 29/29/29 79/79/79
f 40/40/40 86/86/86 88/88/88
f 149/149/149 98/98/98 10/10/10
f 131/131/131 79/79/79 29/29/29
f 26/26/26 128/128/128 52/52/52
f 23/23/23 11/11/11 87/87/87
f 154/154/154 127/127/127 146/146/146
f 145/145/145 53/53/53 149/149/149
f 16/16/16 164/164/164 100/100/100
f 169/169/169 151/151/151 147/147/147
f 35/35/35 96/96/96 155/155/155
f 169/169/169 60/60/60 160/160/160
f 45/45/45 98/98/98 129/129/129
f 36/36/36 129/129/129 98/98/98
f 122/122/122 23/23/23 40/40/40
f 122/122/122 130/130/130 51/51/51
f 163/163/163 120/120/120 150/150/150
f 169/169/169 147/147/147 161/161/161
f 25/25/25 131/131/131 44/44/44
f 97/97/97 48/48/48 90/90/90
f 1/1/1 24/24/24 113/113/113
f 140/140/140 38/38/38 93/93/93
f 48/48/48 141/141/141 89/89/89
f 21/21/21 89/89/89 141/141/141
f 49/49/49 144/144/144 148/148/148
f 109/109/109 51/51/51 130/130/130
f 6/6/6 91/91/91 64/64/64
f 63/63/63 111/111/111 161/161/161
f 32/32/32 136/136/136 123/123/123
f 6/6/6 55/55/55 85/85/85
f 163/163/163 63/63/63 161/161/161
f 155/155/155 102/102/102 35/35/35
f 143/143/143 90/90/90 39/39/39
f 83/83/83 171/171/171 59/59/59
f 110/110/110 49/49/49 34/34/34
f 160/160/160 151/151/151 169/169/169
f 107/107/107 144/144/144 106/106/106
f 111/111/111 169/169/169 161/161/161
f 87/87/87 46/46/46 40/40/40
f 144/144/144 49/49/49 106/106/106
f 172/172/172 16/16/16 100/100/100
f 153/153/153 171/171/171 160/160/160
f 125/125/125 27/27/27 62/62/62
f 84/84/84 58/58/58 41/41/41
f 37/37/37 90/90/90 143/143/143
f 37/37/37 143/143/143 171/171/171
f 132/132/132 146/146/146 127/127/127
f 157/157/157 10/10/10 90/90/90
f 10/10/10 97/97/97 90/90/90
f 49/49/49 158/158/158 106/106/106
f 145/145/145 157/157/157 153/153/153
f 34/34/34 51/51/51 57/57/57
f 119/119/119 29/29/29 118/118/118
f 90/90/90 48/48/48 39/39/39
f 105/105/105 170/170/170 81/81/81
f 110/110/110 80/80/80 158/158/158
f 156/156/156 57/57/57 109/109/109
f 156/156/156 53/53/53 145/145/145
f 42/42/42 116/116/116 114/114/114
f 105/105/105 28/28/28 146/146/146
f 123/123/123 62/62/62 27/27/27
f 5/5/5 95/95/95 111/111/111
f 95/95/95 57/57/57 156/156/156
f 37/37/37 171/171/171 153/153/153
f 60/60/60 111/111/111 95/95/95
f 133/133/133 79/79/79 27/27/27
f 124/124/124 27/27/27 79/79/79
f 146/146/146 150/150/150 61/61/61
f 34/34/34 57/57/57 104/104/104
f 145/145/145 149/149/149 157/157/157
f 9/9/9 117/117/117 75/75/75
f 78/78/78 133/133/133 125/125/125
f 148/148/148 34/34/34 49/49/49
f 95/95/95 156/156/156 153/153/153
f 30/30/30 115/115/115 117/117/117
f 10/10/10 98/98/98 93/93/93
f 83/83/83 54/54/54 171/171/171
f 96/96/96 43/43/43 100/100/100
f 108/108/108 74/74/74 33/33/33
f 77/77/77 119/119/119 118/118/118
f 94/94/94 69/69/69 3/3/3
f 45/45/45 93/93/93 98/98/98
f 91/91/91 59/59/59 39/39/39
f 75/75/75 117/117/117 115/115/115
f 138/138/138 149/149/149 53/53/53
f 112/112/112 42/42/42 31/31/31
f 63/63/63 163/163/163 28/28/28
f 130/130/130 122/122/122 166/166/166
f 167/167/167 26/26/26 52/52/52
f 162/162/162 44/44/44 126/126/126
f 99/99/99 70/70/70 36/36/36
f 62/62/62 136/136/136 117/117/117
f 80/80/80 104/104/104 5/5/5
f 27/27/27 124/124/124 123/123/123
f 148/148/148 23/23/23 159/159/159
f 53/53/53 130/130/130 138/138/138
f 120/120/120 123/123/123 61/61/61
f 43/43/43 107/107/107 139/139/139
f 81/81/81 158/158/158 80/80/80
f 61/61/61 123/123/123 124/124/124
f 33/33/33 52/52/52 108/108/108
f 166/166/166 36/36/36 138/138/138
f 102/102/102 155/155/155 73/73/73
f 132/132/132 170/170/170 146/146/146
f 33/33/33 106/106/106 52/52/52
f 168/168/168 13/13/13 124/124/124
f 98/98/98 138/138/138 36/36/36
f 29/29/29 103/103/103 131/131/131
f 107/107/107 106/106/106 33/33/33
f 105/105/105 146/146/146 170/170/170
f 158/158/158 49/49/49 110/110/110
f 46/46/46 87/87/87 101/101/101
f 89/89/89 39/39/39 48/48/48
f 166/166/166 138/138/138 130/130/130
f 38/38/38 140/140/140 92/92/92
f 148/148/148 159/159/159 34/34/34
f 149/149/149 10/10/10 157/157/157
f 54/54/54 160/160/160 171/171/171
f 30/30/30 117/117/117 136/136/136
f 147/147/147 12/12/12 22/22/22
f 116/116/116 42/42/42 30/30/30
f 73/73/73 4/4/4 102/102/102
f 103/103/103 44/44/44 131/131/131
f 7/7/7 70/70/70 99/99/99
f 115/115/115 30/30/30 42/42/42
f 47/47/47 82/82/82 137/137/137
f 68/68/68 142/142/142 102/102/102
f 19/19/19 86/86/86 142/142/142
f 142/142/142 35/35/35 102/102/102
f 92/92/92 50/50/50 38/38/38
f 31/31/31 134/134/134 113/113/113
f 46/46/46 142/142/142 86/86/86
f 107/107/107 43/43/43 11/11/11
f 56/56/56 166/166/166 122/122/122
f 11/11/11 101/101/101 87/87/87
f 129/129/129 36/36/36 70/70/70
f 105/105/105 81/81/81 80/80/80
f 41/41/41 82/82/82 84/84/84
f 59/59/59 85/85/85 83/83/83
f 122/122/122 51/51/51 23/23/23
f 66/66/66 1/1/1 113/113/113
f 113/113/113 134/134/134 66/66/66
f 100/100/100 155/155/155 96/96/96
f 152/152/152 12/12/12 147/147/147
f 47/47/47 137/137/137 114/114/114
f 31/31/31 114/114/114 137/137/137
f 67/67/67 7/7/7 88/88/88
f 19/19/19 67/67/67 86/86/86
f 68/68/68 19/19/19 142/142/142
f 20/20/20 137/137/137 82/82/82
f 163/163/163 161/161/161 32/32/32
f 2/2/2 72/72/72 119/119/119
f 143/143/143 59/59/59 171/171/171
f 93/93/93 38/38/38 48/48/48
f 74/74/74 16/16/16 139/139/139
f 8/8/8 74/74/74 108/108/108
f 33/33/33 139/139/139 107/107/107
f 8/8/8 108/108/108 128/128/128
f 86/86/86 40/40/40 46/46/46
f 146/146/146 28/28/28 150/150/150
f 96/96/96 35/35/35 101/101/101
f 43/43/43 172/172/172 100/100/100
f 52/52/52 128/128/128 108/108/108
f 128/128/128 71/71/71 8/8/8
f 79/79/79 168/168/168 124/124/124
f 50/50/50 94/94/94 38/38/38
f 126/126/126 17/17/17 71/71/71
f 48/48/48 97/97/97 93/93/93
f 26/26/26 126/126/126 128/128/128
f 39/39/39 89/89/89 91/91/91
f 71/71/71 128/128/128 126/126/126
f 132/132/132 127/127/127 26/26/26
f 44/44/44 135/135/135 126/126/126
f 24/24/24 76/76/76 113/113/113
f 7/7/7 99/99/99 88/88/88
f 43/43/43 96/96/96 101/101/101
f 27/27/27 125/125/125 133/133/133
f 101/101/101 35/35/35 46/46/46
f 62/62/62 123/123/123 136/136/136
f 146/146/146 61/61/61 154/154/154
f 66/66/66 134/134/134 137/137/137
f 17/17/17 126/126/126 135/135/135
f 79/79/79 133/133/133 118/118/118
f 67/67/67 88/88/88 86/86/86
f 34/34/34 104/104/104 110/110/110
f 120/120/120 163/163/163 32/32/32
f 134/134/134 31/31/31 137/137/137
f 77/77/77 118/118/118 14/14/14
f 168/168/168 79/79/79 131/131/131
f 18/18/18 92/92/92 129/129/129
f 56/56/56 88/88/88 99/99/99
f 14/14/14 133/133/133 78/78/78
f 12/12/12 114/114/114 116/116/116
f 154/154/154 13/13/13 127/127/127
f 45/45/45 129/129/129 92/92/92
f 121/121/121 28/28/28 80/80/80
f 28/28/28 105/105/105 80/80/80
f 94/94/94 50/50/50 69/69/69
f 109/109/109 53/53/53 156/156/156
f 147/147/147 165/165/165 161/161/161
f 147/147/147 151/151/151 152/152/152
f 161/161/161 165/165/165 32/32/32
f 16/16/16 172/172/172 139/139/139
f 172/172/172 43/43/43 139/139/139
f 63/63/63 121/121/121 111/111/111
f 5/5/5 111/111/111 121/121/121
