# frame 000601 
# time 0.301000 
# name Cloth3D 
v -0.000000 0.000000 -0.000000
v 1.000000 0.000000 -0.000000
v -0.000000 1.000000 0.000000
v 1.000000 1.000000 0.000000
v 0.500498 0.499857 0.119657
v -0.000000 0.500000 0.000000
v 0.500000 1.000000 0.000000
v 1.000000 0.500000 0.000000
v 0.500000 -0.000000 0.000000
v 0.246559 0.754306 0.070757
v 0.756645 0.755759 0.076304
v 0.245002 0.244431 0.074429
v 0.754232 0.245927 0.071732
v 0.750000 0.000000 0.000000
v 0.250000 0.000000 0.000000
v 1.000000 0.750000 0.000000
v 1.000000 0.250000 0.000000
v 0.250000 1.000000 0.000000
v 0.750000 1.000000 0.000000
v 0.000000 0.250000 0.000000
v 0.000000 0.750000 -0.000000
v 0.362196 0.213428 0.083790
v 0.632471 0.774958 0.082669
v 1.000000 0.937500 0.000000
v 0.684221 0.699413 0.119929
v 0.877187 0.374303 0.045913
v 0.625384 0.123638 0.040897
v 0.631216 0.368516 0.119967
v 0.873617 0.126962 0.003030
v 0.373930 0.119946 0.050495
v 0.123801 0.123206 0.023913
v 0.491806 0.244420 0.094394
v 0.878999 0.626817 0.050309
v 0.631904 0.631403 0.119916
v 0.873035 0.872513 -0.002425
v 0.374040 0.876935 0.044340
v 0.256847 0.602520 0.094099
v 0.124542 0.875375 0.016008
v 0.123282 0.625373 0.041659
v 0.625425 0.875346 0.040039
v 0.124060 0.374105 0.039702
v 0.248406 0.120459 0.042597
v 0.876541 0.749588 0.030280
v 0.876907 0.249262 0.035001
v 0.249067 0.876827 0.034543
v 0.749817 0.873661 0.024613
v 0.123604 0.248605 0.034289
v 0.124403 0.750337 0.030148
v 0.727097 0.615884 0.119941
v 0.124641 0.937855 0.008355
v 0.552856 0.708070 0.119929
v 0.875407 0.500576 0.044214
v 0.425426 0.716454 0.119938
v 0.242602 0.453637 0.091991
v 0.000000 0.375000 0.000000
v 0.499528 0.874268 0.040053
v 0.500583 0.630784 0.119865
v 0.243891 0.370704 0.091666
v 0.121848 0.499656 0.047794
v 0.369882 0.499593 0.119842
v 0.629036 0.244929 0.090285
v 0.499547 0.123850 0.042965
v 0.500154 0.369339 0.119994
v 0.000000 0.625000 0.000000
v 0.000000 0.875000 0.000000
v 0.000000 0.125000 0.000000
v 0.625000 1.000000 0.000000
v 0.875000 1.000000 0.000000
v 0.125000 1.000000 0.000000
v 0.375000 1.000000 0.000000
v 1.000000 0.375000 0.000000
v 1.000000 0.125000 0.000000
v 1.000000 0.875000 0.000000
v 1.000000 0.625000 0.000000
v 0.375000 0.000000 0.000000
v 0.125000 0.000000 0.000000
v 0.875000 0.000000 0.000000
v 0.625000 0.000000 0.000000
v 0.749890 0.124939 0.028008
v 0.631243 0.499935 0.119908
v 0.718789 0.487951 0.119929
v 0.062939 0.312222 0.015357
v 0.183457 0.436025 0.069192
v 0.184881 0.309892 0.059383
v 0.061769 0.437257 0.021367
v 0.687181 0.936687 0.014450
v 0.689158 0.812297 0.053326
v 0.562291 0.936531 0.017761
v 0.061995 0.687349 0.018129
v 0.184669 0.689453 0.059506
v 0.061452 0.562386 0.022246
v 0.187251 0.938134 0.013486
v 0.186155 0.814051 0.038730
v 0.062872 0.937172 -0.003436
v 0.435231 0.565237 0.119787
v 0.873865 0.810150 0.010932
v 0.937500 0.000000 -0.000000
v 0.309449 0.818390 0.068401
v 0.437202 0.936928 0.018840
v 0.936614 0.811297 0.003115
v 0.813609 0.812000 0.030835
v 0.936866 0.936740 -0.004744
v 0.937500 1.000000 0.000000
v 0.566143 0.565483 0.119722
v 0.714558 0.423757 0.119929
v 0.823143 0.594235 0.070065
v 0.820164 0.692157 0.073442
v 0.939021 0.562864 0.025260
v 0.489888 0.712197 0.119934
v 0.691982 0.588266 0.119939
v 0.434860 0.434380 0.119721
v 0.186757 0.059946 0.020570
v 0.062218 0.062180 0.006530
v 0.185788 0.184601 0.042282
v 0.312008 0.058816 0.026756
v 0.309720 0.181523 0.067181
v 0.437011 0.062455 0.019682
v 0.812000 0.063233 0.007270
v 0.936851 0.063204 -0.005385
v 0.556062 0.243031 0.092116
v 0.565825 0.434350 0.119936
v 0.525160 0.805437 0.068471
v 0.563305 0.184670 0.066817
v 0.689550 0.184193 0.060598
v 0.562308 0.061381 0.022760
v 0.938837 0.312449 0.021481
v 0.816991 0.309771 0.066043
v 0.937534 0.437606 0.021369
v 0.312282 0.938451 0.019998
v -0.000000 0.062500 -0.000000
v 0.812871 0.187458 0.032575
v 0.804633 0.370071 0.074025
v 0.687326 0.061671 0.019232
v 0.062751 0.124668 0.007563
v 0.937683 0.187724 0.011300
v 0.436012 0.183492 0.069161
v 0.062233 0.187048 0.013326
v 0.382908 0.773219 0.092601
v 0.941268 0.687949 0.026884
v 0.709754 0.360047 0.119929
v 0.062935 0.812135 0.008436
v 0.811830 0.936337 0.005249
v 0.183338 0.563070 0.069364
v 0.775257 0.655375 0.097604
v 0.329703 0.660827 0.119929
v 0.706362 0.297344 0.119942
v 0.307427 0.323629 0.119942
v 0.732574 0.696371 0.119942
v 0.333630 0.722573 0.119942
v 0.486029 0.311999 0.119929
v 0.312820 0.404574 0.119938
v 0.287395 0.324427 0.112546
v 0.325489 0.596887 0.119929
v 0.722615 0.291380 0.108264
v 0.936587 0.873863 -0.002005
v 0.433610 0.640914 0.119784
v 0.276146 0.662033 0.097945
v 0.722771 0.552294 0.119941
v 0.617350 0.703821 0.119929
v 0.317089 0.469027 0.119935
v 0.420640 0.316307 0.119929
v 0.358205 0.286208 0.109402
v 0.549201 0.307836 0.119929
v 0.321233 0.532298 0.119929
v 0.415514 0.249879 0.097132
v 0.423856 0.818135 0.067920
v 0.815198 0.481621 0.069862
v 1.000000 0.062500 -0.000000
v 0.369948 0.413655 0.119884
v 0.772772 0.422424 0.091673
v 0.239865 0.515331 0.092051
v 0.614297 0.303512 0.119936
v 1.000000 0.187500 0.000000
v 0.062500 0.000000 -0.000000
v 0.476832 0.768192 0.093276
vt 0.000000 0.000000
vt 1.000000 0.000000
vt 0.000000 1.000000
vt 1.000000 1.000000
vt 0.500000 0.500000
vt 0.000000 0.500000
vt 0.500000 1.000000
vt 1.000000 0.500000
vt 0.500000 0.000000
vt 0.250000 0.750000
vt 0.750000 0.750000
vt 0.250000 0.250000
vt 0.750000 0.250000
vt 0.750000 0.000000
vt 0.250000 0.000000
vt 1.000000 0.750000
vt 1.000000 0.250000
vt 0.250000 1.000000
vt 0.750000 1.000000
vt 0.000000 0.250000
vt 0.000000 0.750000
vt 0.365347 0.220303
vt 0.629073 0.770824
vt 1.000000 0.937500
vt 0.674448 0.688866
vt 0.875000 0.375000
vt 0.625000 0.125000
vt 0.625000 0.375000
vt 0.875000 0.125000
vt 0.375000 0.125000
vt 0.125000 0.125000
vt 0.492214 0.250470
vt 0.875000 0.625000
vt 0.625000 0.625000
vt 0.875000 0.875000
vt 0.375000 0.875000
vt 0.262101 0.599801
vt 0.125000 0.875000
vt 0.125000 0.625000
vt 0.625000 0.875000
vt 0.125000 0.375000
vt 0.250000 0.125000
vt 0.875000 0.750000
vt 0.875000 0.250000
vt 0.250000 0.875000
vt 0.750000 0.875000
vt 0.125000 0.250000
vt 0.125000 0.750000
vt 0.715649 0.609842
vt 0.125000 0.937500
vt 0.550110 0.698855
vt 0.875000 0.500000
vt 0.428460 0.706562
vt 0.248222 0.455442
vt 0.000000 0.375000
vt 0.500000 0.875000
vt 0.500000 0.625000
vt 0.250000 0.375000
vt 0.125000 0.500000
vt 0.375000 0.500000
vt 0.625000 0.250000
vt 0.500000 0.125000
vt 0.500000 0.375000
vt 0.000000 0.625000
vt 0.000000 0.875000
vt 0.000000 0.125000
vt 0.625000 1.000000
vt 0.875000 1.000000
vt 0.125000 1.000000
vt 0.375000 1.000000
vt 1.000000 0.375000
vt 1.000000 0.125000
vt 1.000000 0.875000
vt 1.000000 0.625000
vt 0.375000 0.000000
vt 0.125000 0.000000
vt 0.875000 0.000000
vt 0.625000 0.000000
vt 0.750000 0.125000
vt 0.625000 0.500000
vt 0.708879 0.488374
vt 0.062500 0.312500
vt 0.187500 0.437500
vt 0.187500 0.312500
vt 0.062500 0.437500
vt 0.687500 0.937500
vt 0.687500 0.812500
vt 0.562500 0.937500
vt 0.062500 0.687500
vt 0.187500 0.687500
vt 0.062500 0.562500
vt 0.187500 0.937500
vt 0.187500 0.812500
vt 0.062500 0.937500
vt 0.437500 0.562500
vt 0.875000 0.812500
vt 0.937500 0.000000
vt 0.312500 0.812500
vt 0.437500 0.937500
vt 0.937500 0.812500
vt 0.812500 0.812500
vt 0.937500 0.937500
vt 0.937500 1.000000
vt 0.562500 0.562500
vt 0.704822 0.427383
vt 0.819332 0.591237
vt 0.812500 0.687500
vt 0.937500 0.562500
vt 0.489912 0.702715
vt 0.682510 0.583771
vt 0.437500 0.437500
vt 0.187500 0.062500
vt 0.062500 0.062500
vt 0.187500 0.187500
vt 0.312500 0.062500
vt 0.312500 0.187500
vt 0.437500 0.062500
vt 0.812500 0.062500
vt 0.937500 0.062500
vt 0.554454 0.248535
vt 0.562500 0.437500
vt 0.525016 0.804189
vt 0.562500 0.187500
vt 0.687500 0.187500
vt 0.562500 0.062500
vt 0.937500 0.312500
vt 0.812500 0.312500
vt 0.937500 0.437500
vt 0.312500 0.937500
vt 0.000000 0.062500
vt 0.812500 0.187500
vt 0.800716 0.372483
vt 0.687500 0.062500
vt 0.062500 0.125000
vt 0.937500 0.187500
vt 0.437500 0.187500
vt 0.062500 0.187500
vt 0.386728 0.766561
vt 0.937500 0.687500
vt 0.700015 0.367131
vt 0.062500 0.812500
vt 0.812500 0.937500
vt 0.187500 0.562500
vt 0.765906 0.648544
vt 0.337135 0.653622
vt 0.695392 0.309186
vt 0.317251 0.332971
vt 0.719652 0.684170
vt 0.341857 0.711454
vt 0.486702 0.319894
vt 0.320917 0.409182
vt 0.296906 0.332149
vt 0.332426 0.592999
vt 0.713437 0.300753
vt 0.937500 0.875000
vt 0.436137 0.634590
vt 0.281585 0.657008
vt 0.712408 0.549654
vt 0.611565 0.694237
vt 0.324482 0.470745
vt 0.424173 0.324141
vt 0.364019 0.294291
vt 0.547152 0.316233
vt 0.328248 0.531337
vt 0.418341 0.256674
vt 0.425703 0.815414
vt 0.812755 0.481587
vt 1.000000 0.062500
vt 0.375653 0.417988
vt 0.766844 0.424637
vt 0.245672 0.515386
vt 0.609223 0.312685
vt 1.000000 0.187500
vt 0.062500 0.000000
vt 0.477574 0.762067
vn -0.055522 -0.055522 0.996913
vn -0.040926 0.040926 0.998324
vn 0.026432 -0.026432 0.999301
vn -0.039689 -0.039689 0.998424
vn -0.000395 0.000556 1.000000
vn -0.335422 -0.003725 0.942061
vn 0.003909 0.280442 0.959863
vn 0.355783 -0.014964 0.934449
vn -0.013018 -0.326631 0.945062
vn -0.327740 0.219695 0.918869
vn 0.254315 0.457957 0.851821
vn -0.280713 -0.226847 0.932599
vn 0.328450 -0.360403 0.873058
vn 0.045404 -0.207207 0.977243
vn -0.023072 -0.374526 0.926929
vn 0.236792 0.094926 0.966912
vn 0.246178 -0.032145 0.968691
vn -0.024367 0.267151 0.963346
vn 0.038410 0.158967 0.986536
vn -0.230799 -0.006174 0.972982
vn -0.211907 0.037331 0.976577
vn -0.045301 -0.335406 0.940984
vn 0.080599 0.448542 0.890120
vn -0.079325 0.000000 0.996849
vn 0.027031 0.242900 0.969675
vn 0.362219 -0.023498 0.931797
vn 0.025409 -0.330397 0.943500
vn 0.000136 -0.000055 1.000000
vn 0.116710 -0.156325 0.980786
vn 0.022521 -0.352999 0.935353
vn -0.202505 -0.105048 0.973631
vn 0.010799 -0.376465 0.926368
vn 0.355778 -0.025562 0.934221
vn -0.000485 -0.000675 1.000000
vn 0.120425 0.118267 0.985653
vn 0.001423 0.389560 0.921000
vn -0.346317 0.052217 0.936663
vn -0.176729 0.131787 0.975397
vn -0.341525 0.050323 0.938525
vn 0.064198 0.352064 0.933772
vn -0.353508 -0.057622 0.933655
vn -0.113785 -0.257652 0.959515
vn 0.274071 0.291124 0.916587
vn 0.256411 -0.169942 0.951511
vn -0.123911 0.289356 0.949168
vn 0.145990 0.249238 0.957375
vn -0.284712 -0.064364 0.956450
vn -0.285453 0.116715 0.951259
vn 0.183510 -0.014398 0.982912
vn -0.137347 0.133655 0.981464
vn 0.017627 0.227514 0.973615
vn 0.362478 -0.018787 0.931803
vn 0.013407 0.246025 0.969171
vn -0.354980 -0.010599 0.934814
vn -0.286016 -0.022862 0.957952
vn 0.018733 0.367060 0.930009
vn -0.000599 -0.001006 0.999999
vn -0.404270 -0.014406 0.914526
vn -0.364660 -0.007080 0.931114
vn 0.001638 0.000017 0.999999
vn 0.028278 -0.436202 0.899404
vn 0.010379 -0.358709 0.933392
vn -0.000655 0.000279 1.000000
vn -0.313005 0.015780 0.949620
vn -0.043147 0.048326 0.997899
vn -0.140799 -0.026745 0.989677
vn 0.010486 0.253342 0.967320
vn 0.032834 -0.014645 0.999354
vn -0.091934 0.122547 0.988196
vn 0.006733 0.300277 0.953828
vn 0.332972 0.002451 0.942934
vn 0.050586 -0.044688 0.997719
vn -0.034828 0.036635 0.998722
vn 0.398121 -0.008441 0.917294
vn 0.030553 -0.372959 0.927345
vn -0.045539 -0.201128 0.978506
vn 0.040367 0.002278 0.999182
vn 0.015140 -0.322536 0.946436
vn 0.171852 -0.273572 0.946375
vn -0.000924 0.000656 0.999999
vn 0.227643 -0.012710 0.973662
vn -0.286510 -0.024492 0.957764
vn -0.370531 -0.035870 0.928127
vn -0.378373 -0.092567 0.921013
vn -0.336433 -0.030827 0.941203
vn 0.054733 0.251575 0.966289
vn 0.153776 0.407612 0.900114
vn 0.006507 0.305938 0.952029
vn -0.291471 0.048900 0.955329
vn -0.334638 0.110181 0.935883
vn -0.345263 0.018441 0.938325
vn -0.070860 0.191019 0.979025
vn -0.233749 0.194392 0.952666
vn -0.094133 0.062025 0.993626
vn 0.000651 -0.000502 1.000000
vn 0.214569 0.259127 0.941708
vn 0.000000 0.081675 0.996659
vn -0.138459 0.395285 0.908063
vn 0.015393 0.322069 0.946591
vn 0.080732 0.147662 0.985737
vn 0.269493 0.314370 0.910245
vn -0.016052 -0.011398 0.999806
vn 0.000000 -0.079182 0.996860
vn -0.000882 -0.000812 0.999999
vn 0.269905 -0.019702 0.962685
vn 0.406192 -0.033431 0.913176
vn 0.418594 0.139955 0.897325
vn 0.360494 -0.025477 0.932413
vn 0.015772 0.232076 0.972570
vn -0.000327 -0.000036 1.000000
vn 0.000689 0.001125 0.999999
vn -0.076696 -0.266157 0.960874
vn -0.101863 -0.066768 0.992555
vn -0.232832 -0.149952 0.960887
vn -0.019102 -0.363519 0.931391
vn -0.107451 -0.294689 0.949533
vn 0.032926 -0.349227 0.936459
vn 0.097886 -0.125290 0.987279
vn -0.005441 -0.000117 0.999985
vn 0.021018 -0.399138 0.916650
vn -0.000856 0.001516 0.999999
vn 0.035247 0.442472 0.896089
vn 0.028826 -0.386209 0.921961
vn 0.108834 -0.369732 0.922743
vn 0.005544 -0.320638 0.947186
vn 0.315935 -0.039389 0.947963
vn 0.374092 -0.129701 0.918277
vn 0.344517 -0.002123 0.938778
vn -0.026503 0.307617 0.951141
vn -0.114877 -0.004207 0.993371
vn 0.236899 -0.278616 0.930727
vn 0.401551 -0.032622 0.915256
vn 0.054525 -0.287732 0.956158
vn -0.192901 -0.052855 0.979794
vn 0.159965 -0.094939 0.982547
vn 0.033115 -0.371704 0.927761
vn -0.224554 -0.055189 0.972898
vn 0.019498 0.452755 0.891422
vn 0.351198 0.080337 0.932848
vn 0.230191 -0.023861 0.972853
vn -0.188690 0.069436 0.979579
vn 0.094441 0.088063 0.991628
vn -0.355619 0.041866 0.933693
vn 0.462264 -0.019285 0.886532
vn -0.239820 0.015917 0.970687
vn 0.406463 -0.298558 0.863511
vn -0.294617 -0.265537 0.917982
vn 0.214927 0.227758 0.949701
vn -0.168477 0.211694 0.962705
vn -0.007062 -0.162353 0.986708
vn -0.175709 0.008498 0.984406
vn -0.351007 -0.195233 0.915794
vn -0.215336 0.019818 0.976339
vn 0.444779 -0.323226 0.835283
vn -0.018894 0.065161 0.997696
vn -0.000153 -0.000816 1.000000
vn -0.374554 0.063921 0.924999
vn 0.156982 -0.010935 0.987541
vn 0.015366 0.224621 0.974325
vn -0.146221 0.006620 0.989230
vn -0.010169 -0.199766 0.979791
vn -0.060417 -0.337783 0.939283
vn -0.008132 -0.219176 0.975651
vn -0.152430 0.012589 0.988234
vn 0.001084 -0.348615 0.937265
vn 0.045394 0.441939 0.895896
vn 0.421961 -0.010727 0.906550
vn -0.081754 -0.000000 0.996653
vn 0.001422 0.000481 0.999999
vn 0.446057 -0.019547 0.894791
vn -0.346029 0.011108 0.938158
vn -0.005009 -0.237342 0.971413
vn 0.184080 0.000000 0.982911
vn -0.000000 -0.110737 0.993850
vn 0.040295 0.464322 0.884749
f 129/129/129 99/99/99 70/70/70
f 112/112/112 31/31/31 113/113/113
f 170/170/170 132/132/132 167/167/167
f 26/26/26 167/167/167 132/132/132
f 38/38/38 141/141/141 93/93/93
f 160/160/160 54/54/54 151/151/151
f 173/173/173 17/17/17 135/135/135
f 129/129/129 36/36/36 99/99/99
f 114/114/114 47/47/47 31/31/31
f 152/152/152 12/12/12 162/162/162
f 11/11/11 25/25/25 148/148/148
f 80/80/80 110/110/110 104/104/104
f 115/115/115 112/112/112 15/15/15
f 163/163/163 172/172/172 28/28/28
f 114/114/114 42/42/42 12/12/12
f 76/76/76 112/112/112 113/113/113
f 58/58/58 151/151/151 54/54/54
f 15/15/15 112/112/112 76/76/76
f 115/115/115 15/15/15 75/75/75
f 20/20/20 137/137/137 82/82/82
f 113/113/113 134/134/134 130/130/130
f 148/148/148 25/25/25 49/49/49
f 22/22/22 30/30/30 136/136/136
f 47/47/47 82/82/82 137/137/137
f 16/16/16 73/73/73 100/100/100
f 165/165/165 22/22/22 136/136/136
f 21/21/21 64/64/64 89/89/89
f 83/83/83 58/58/58 54/54/54
f 57/57/57 95/95/95 104/104/104
f 116/116/116 30/30/30 22/22/22
f 42/42/42 112/112/112 115/115/115
f 66/66/66 130/130/130 134/134/134
f 140/140/140 105/105/105 28/28/28
f 155/155/155 100/100/100 73/73/73
f 129/129/129 70/70/70 18/18/18
f 63/63/63 28/28/28 121/121/121
f 165/165/165 162/162/162 22/22/22
f 114/114/114 31/31/31 42/42/42
f 150/150/150 165/165/165 32/32/32
f 37/37/37 153/153/153 157/157/157
f 164/164/164 153/153/153 37/37/37
f 39/39/39 90/90/90 89/89/89
f 61/61/61 172/172/172 120/120/120
f 139/139/139 16/16/16 43/43/43
f 32/32/32 165/165/165 136/136/136
f 143/143/143 39/39/39 59/59/59
f 51/51/51 159/159/159 23/23/23
f 142/142/142 46/46/46 35/35/35
f 78/78/78 125/125/125 9/9/9
f 121/121/121 80/80/80 5/5/5
f 60/60/60 95/95/95 153/153/153
f 144/144/144 107/107/107 148/148/148
f 9/9/9 125/125/125 117/117/117
f 175/175/175 53/53/53 109/109/109
f 162/162/162 165/165/165 161/161/161
f 64/64/64 91/91/91 89/89/89
f 60/60/60 169/169/169 111/111/111
f 50/50/50 92/92/92 69/69/69
f 63/63/63 161/161/161 150/150/150
f 25/25/25 159/159/159 34/34/34
f 81/81/81 170/170/170 167/167/167
f 25/25/25 34/34/34 49/49/49
f 84/84/84 152/152/152 58/58/58
f 51/51/51 109/109/109 57/57/57
f 34/34/34 159/159/159 51/51/51
f 11/11/11 148/148/148 107/107/107
f 5/5/5 104/104/104 95/95/95
f 23/23/23 87/87/87 40/40/40
f 38/38/38 94/94/94 141/141/141
f 29/29/29 119/119/119 135/135/135
f 72/72/72 135/135/135 119/119/119
f 84/84/84 12/12/12 152/152/152
f 100/100/100 43/43/43 16/16/16
f 13/13/13 154/154/154 124/124/124
f 14/14/14 118/118/118 133/133/133
f 56/56/56 122/122/122 40/40/40
f 65/65/65 141/141/141 94/94/94
f 20/20/20 66/66/66 137/137/137
f 55/55/55 20/20/20 82/82/82
f 59/59/59 91/91/91 85/85/85
f 65/65/65 21/21/21 141/141/141
f 6/6/6 85/85/85 91/91/91
f 137/137/137 31/31/31 47/47/47
f 58/58/58 83/83/83 84/84/84
f 48/48/48 89/89/89 90/90/90
f 55/55/55 82/82/82 85/85/85
f 92/92/92 18/18/18 69/69/69
f 124/124/124 154/154/154 61/61/61
f 127/127/127 44/44/44 26/26/26
f 167/167/167 106/106/106 158/158/158
f 126/126/126 26/26/26 44/44/44
f 106/106/106 167/167/167 52/52/52
f 157/157/157 90/90/90 37/37/37
f 124/124/124 79/79/79 13/13/13
f 101/101/101 11/11/11 43/43/43
f 81/81/81 167/167/167 158/158/158
f 58/58/58 152/152/152 151/151/151
f 164/164/164 171/171/171 160/160/160
f 155/155/155 35/35/35 100/100/100
f 156/156/156 145/145/145 153/153/153
f 162/162/162 12/12/12 22/22/22
f 116/116/116 22/22/22 12/12/12
f 118/118/118 29/29/29 79/79/79
f 40/40/40 86/86/86 88/88/88
f 149/149/149 98/98/98 10/10/10
f 131/131/131 79/79/79 29/29/29
f 26/26/26 128/128/128 52/52/52
f 23/23/23 11/11/11 87/87/87
f 97/97/97 119/119/119 77/77/77
f 145/145/145 53/53/53 149/149/149
f 41/41/41 84/84/84 83/83/83
f 169/169/169 151/151/151 147/147/147
f 168/168/168 72/72/72 119/119/119
f 169/169/169 60/60/60 160/160/160
f 56/56/56 88/88/88 99/99/99
f 7/7/7 99/99/99 88/88/88
f 164/164/164 160/160/160 60/60/60
f 122/122/122 175/175/175 51/51/51
f 163/163/163 120/120/120 172/172/172
f 169/169/169 147/147/147 161/161/161
f 23/23/23 25/25/25 11/11/11
f 96/96/96 100/100/100 35/35/35
f 1/1/1 174/174/174 113/113/113
f 25/25/25 23/23/23 159/159/159
f 48/48/48 141/141/141 89/89/89
f 21/21/21 89/89/89 141/141/141
f 49/49/49 144/144/144 148/148/148
f 109/109/109 51/51/51 175/175/175
f 6/6/6 91/91/91 64/64/64
f 63/63/63 111/111/111 161/161/161
f 32/32/32 136/136/136 123/123/123
f 6/6/6 55/55/55 85/85/85
f 154/154/154 127/127/127 132/132/132
f 155/155/155 102/102/102 35/35/35
f 143/143/143 90/90/90 39/39/39
f 102/102/102 155/155/155 73/73/73
f 110/110/110 49/49/49 34/34/34
f 160/160/160 151/151/151 169/169/169
f 107/107/107 144/144/144 106/106/106
f 111/111/111 169/169/169 161/161/161
f 87/87/87 46/46/46 40/40/40
f 144/144/144 49/49/49 106/106/106
f 111/111/111 63/63/63 5/5/5
f 150/150/150 161/161/161 165/165/165
f 125/125/125 27/27/27 62/62/62
f 72/72/72 173/173/173 135/135/135
f 37/37/37 90/90/90 143/143/143
f 37/37/37 143/143/143 171/171/171
f 97/97/97 2/2/2 119/119/119
f 157/157/157 10/10/10 90/90/90
f 92/92/92 38/38/38 45/45/45
f 49/49/49 158/158/158 106/106/106
f 145/145/145 157/157/157 153/153/153
f 34/34/34 51/51/51 57/57/57
f 119/119/119 29/29/29 118/118/118
f 30/30/30 117/117/117 136/136/136
f 105/105/105 170/170/170 81/81/81
f 110/110/110 80/80/80 158/158/158
f 156/156/156 57/57/57 109/109/109
f 156/156/156 53/53/53 145/145/145
f 44/44/44 127/127/127 131/131/131
f 93/93/93 45/45/45 38/38/38
f 123/123/123 62/62/62 27/27/27
f 5/5/5 95/95/95 111/111/111
f 95/95/95 57/57/57 156/156/156
f 163/163/163 150/150/150 32/32/32
f 60/60/60 111/111/111 95/95/95
f 166/166/166 56/56/56 36/36/36
f 56/56/56 99/99/99 36/36/36
f 146/146/146 172/172/172 61/61/61
f 34/34/34 57/57/57 104/104/104
f 145/145/145 149/149/149 157/157/157
f 9/9/9 117/117/117 75/75/75
f 78/78/78 133/133/133 125/125/125
f 42/42/42 115/115/115 116/116/116
f 95/95/95 156/156/156 153/153/153
f 82/82/82 47/47/47 41/41/41
f 10/10/10 98/98/98 93/93/93
f 83/83/83 54/54/54 171/171/171
f 96/96/96 43/43/43 100/100/100
f 37/37/37 171/171/171 164/164/164
f 77/77/77 119/119/119 118/118/118
f 94/94/94 69/69/69 3/3/3
f 45/45/45 93/93/93 98/98/98
f 91/91/91 59/59/59 39/39/39
f 84/84/84 41/41/41 47/47/47
f 138/138/138 149/149/149 53/53/53
f 112/112/112 42/42/42 31/31/31
f 63/63/63 163/163/163 28/28/28
f 163/163/163 63/63/63 150/150/150
f 167/167/167 26/26/26 52/52/52
f 130/130/130 1/1/1 113/113/113
f 129/129/129 45/45/45 36/36/36
f 154/154/154 132/132/132 140/140/140
f 80/80/80 104/104/104 5/5/5
f 27/27/27 124/124/124 123/123/123
f 30/30/30 116/116/116 115/115/115
f 53/53/53 175/175/175 138/138/138
f 120/120/120 123/123/123 61/61/61
f 43/43/43 107/107/107 139/139/139
f 81/81/81 158/158/158 80/80/80
f 61/61/61 123/123/123 124/124/124
f 33/33/33 52/52/52 108/108/108
f 166/166/166 36/36/36 138/138/138
f 139/139/139 33/33/33 108/108/108
f 12/12/12 84/84/84 114/114/114
f 33/33/33 106/106/106 52/52/52
f 83/83/83 59/59/59 41/41/41
f 98/98/98 138/138/138 36/36/36
f 103/103/103 68/68/68 102/102/102
f 107/107/107 106/106/106 33/33/33
f 47/47/47 114/114/114 84/84/84
f 158/158/158 49/49/49 110/110/110
f 46/46/46 87/87/87 101/101/101
f 62/62/62 136/136/136 117/117/117
f 166/166/166 138/138/138 175/175/175
f 116/116/116 12/12/12 42/42/42
f 140/140/140 170/170/170 105/105/105
f 149/149/149 10/10/10 157/157/157
f 54/54/54 160/160/160 171/171/171
f 154/154/154 140/140/140 146/146/146
f 140/140/140 132/132/132 170/170/170
f 135/135/135 44/44/44 29/29/29
f 74/74/74 139/139/139 108/108/108
f 4/4/4 103/103/103 102/102/102
f 7/7/7 70/70/70 99/99/99
f 131/131/131 29/29/29 44/44/44
f 90/90/90 10/10/10 48/48/48
f 68/68/68 142/142/142 102/102/102
f 19/19/19 86/86/86 142/142/142
f 142/142/142 35/35/35 102/102/102
f 92/92/92 50/50/50 38/38/38
f 31/31/31 134/134/134 113/113/113
f 46/46/46 142/142/142 86/86/86
f 107/107/107 43/43/43 11/11/11
f 56/56/56 166/166/166 122/122/122
f 11/11/11 101/101/101 87/87/87
f 98/98/98 36/36/36 45/45/45
f 105/105/105 81/81/81 80/80/80
f 152/152/152 162/162/162 147/147/147
f 48/48/48 93/93/93 141/141/141
f 122/122/122 51/51/51 23/23/23
f 27/27/27 133/133/133 124/124/124
f 79/79/79 124/124/124 133/133/133
f 2/2/2 168/168/168 119/119/119
f 131/131/131 13/13/13 79/79/79
f 117/117/117 30/30/30 75/75/75
f 115/115/115 75/75/75 30/30/30
f 67/67/67 7/7/7 88/88/88
f 19/19/19 67/67/67 86/86/86
f 68/68/68 19/19/19 142/142/142
f 93/93/93 48/48/48 10/10/10
f 161/161/161 147/147/147 162/162/162
f 24/24/24 4/4/4 102/102/102
f 73/73/73 24/24/24 102/102/102
f 41/41/41 85/85/85 82/82/82
f 74/74/74 16/16/16 139/139/139
f 8/8/8 74/74/74 108/108/108
f 33/33/33 139/139/139 107/107/107
f 8/8/8 108/108/108 128/128/128
f 86/86/86 40/40/40 46/46/46
f 146/146/146 28/28/28 172/172/172
f 96/96/96 35/35/35 101/101/101
f 121/121/121 5/5/5 63/63/63
f 52/52/52 128/128/128 108/108/108
f 128/128/128 71/71/71 8/8/8
f 85/85/85 41/41/41 59/59/59
f 50/50/50 94/94/94 38/38/38
f 126/126/126 17/17/17 71/71/71
f 62/62/62 117/117/117 125/125/125
f 26/26/26 126/126/126 128/128/128
f 39/39/39 89/89/89 91/91/91
f 71/71/71 128/128/128 126/126/126
f 132/132/132 127/127/127 26/26/26
f 44/44/44 135/135/135 126/126/126
f 174/174/174 76/76/76 113/113/113
f 171/171/171 143/143/143 83/83/83
f 43/43/43 96/96/96 101/101/101
f 27/27/27 125/125/125 133/133/133
f 101/101/101 35/35/35 46/46/46
f 62/62/62 123/123/123 136/136/136
f 146/146/146 61/61/61 154/154/154
f 66/66/66 134/134/134 137/137/137
f 17/17/17 126/126/126 135/135/135
f 79/79/79 133/133/133 118/118/118
f 67/67/67 88/88/88 86/86/86
f 34/34/34 104/104/104 110/110/110
f 120/120/120 163/163/163 32/32/32
f 134/134/134 31/31/31 137/137/137
f 77/77/77 118/118/118 14/14/14
f 60/60/60 153/153/153 164/164/164
f 18/18/18 92/92/92 129/129/129
f 59/59/59 83/83/83 143/143/143
f 14/14/14 133/133/133 78/78/78
f 13/13/13 131/131/131 127/127/127
f 154/154/154 13/13/13 127/127/127
f 45/45/45 129/129/129 92/92/92
f 121/121/121 28/28/28 80/80/80
f 28/28/28 105/105/105 80/80/80
f 94/94/94 50/50/50 69/69/69
f 109/109/109 53/53/53 156/156/156
f 140/140/140 28/28/28 146/146/146
f 147/147/147 151/151/151 152/152/152
f 175/175/175 122/122/122 166/166/166
f 123/123/123 120/120/120 32/32/32
f 122/122/122 23/23/23 40/40/40
f 88/88/88 56/56/56 40/40/40
f 149/149/149 138/138/138 98/98/98
f 3/3/3 65/65/65 94/94/94
