# frame 000680 
# time 0.340500 
# name Cloth3D 
v -0.000000 0.000000 -0.000000
v 1.000000 0.000000 -0.000000
v -0.000000 1.000000 0.000000
v 1.000000 1.000000 0.000000
v 0.499152 0.499808 0.119994
v -0.000000 0.500000 0.000000
v 0.500000 1.000000 0.000000
v 1.000000 0.500000 0.000000
v 0.500000 -0.000000 0.000000
v 0.245979 0.754717 0.067995
v 0.757425 0.757701 0.090158
v 0.247190 0.247755 0.059595
v 0.755568 0.244479 0.079744
v 0.750000 0.000000 0.000000
v 0.250000 0.000000 0.000000
v 1.000000 0.750000 0.000000
v 1.000000 0.250000 0.000000
v 0.250000 1.000000 0.000000
v 0.750000 1.000000 0.000000
v 0.000000 0.250000 0.000000
v 0.000000 0.750000 -0.000000
v 0.362215 0.215786 0.075273
v 0.633296 0.780077 0.096915
v 0.241562 0.515583 0.085199
v 0.817064 0.246418 0.060536
v 0.879357 0.373528 0.052697
v 0.625589 0.123412 0.042341
v 0.630728 0.368101 0.123942
v 0.875061 0.124367 0.016627
v 0.374820 0.124229 0.036752
v 0.125959 0.126446 0.003489
v 0.491308 0.245823 0.091921
v 0.876874 0.626167 0.046748
v 0.629977 0.630375 0.120892
v 0.876872 0.876921 0.025765
v 0.374991 0.877272 0.043324
v 0.256887 0.602950 0.090904
v 0.126167 0.874263 0.005424
v 0.124734 0.625454 0.035658
v 0.627190 0.881421 0.056572
v 0.124250 0.374595 0.036197
v 0.251017 0.126975 0.016339
v 0.878174 0.752417 0.043548
v 0.877125 0.248624 0.037663
v 0.250297 0.875147 0.026203
v 0.753050 0.880854 0.050558
v 0.122937 0.249250 0.031177
v 0.124427 0.750535 0.028428
v 0.319701 0.597409 0.117564
v 0.126049 0.936861 -0.003610
v 0.248869 0.814494 0.045612
v 0.879202 0.499935 0.054197
v 0.425620 0.714899 0.114379
v 0.244188 0.453872 0.085523
v 0.000000 0.375000 0.000000
v 0.500483 0.879723 0.051977
v 0.499346 0.630821 0.120066
v 0.245442 0.371014 0.085040
v 0.125454 0.499860 0.036249
v 0.368767 0.499649 0.120178
v 0.628209 0.245648 0.089915
v 0.499960 0.122875 0.044897
v 0.498845 0.368302 0.123947
v 0.000000 0.625000 0.000000
v 0.000000 0.875000 0.000000
v 0.000000 0.125000 0.000000
v 0.625000 1.000000 0.000000
v 0.875000 1.000000 0.000000
v 0.125000 1.000000 0.000000
v 0.375000 1.000000 0.000000
v 1.000000 0.375000 0.000000
v 1.000000 0.125000 0.000000
v 1.000000 0.875000 0.000000
v 1.000000 0.625000 0.000000
v 0.375000 0.000000 0.000000
v 0.125000 0.000000 0.000000
v 0.875000 0.000000 0.000000
v 0.625000 0.000000 0.000000
v 0.750912 0.123175 0.036505
v 0.629991 0.499428 0.120271
v 0.767017 0.515585 0.098135
v 0.061893 0.312546 0.016542
v 0.185207 0.436374 0.062191
v 0.183895 0.310539 0.056746
v 0.062854 0.437536 0.016765
v 0.688551 0.940885 0.028305
v 0.692163 0.821706 0.081535
v 0.563170 0.941574 0.030775
v 0.063449 0.687338 0.011920
v 0.185659 0.689329 0.053784
v 0.063032 0.562482 0.016685
v 0.188259 0.936899 0.005911
v 0.186886 0.813403 0.032366
v 0.063048 0.937116 -0.004258
v 0.434097 0.565702 0.119573
v 0.878449 0.815171 0.038645
v 0.185299 0.752153 0.047460
v 0.310441 0.816939 0.060874
v 0.437946 0.938269 0.021838
v 0.939238 0.813299 0.019634
v 0.816510 0.816746 0.054059
v 0.937185 0.937211 0.000386
v 0.876218 0.186352 0.028158
v 0.564521 0.565452 0.119590
v 0.720141 0.423027 0.122404
v 0.823837 0.592825 0.072551
v 0.817100 0.690989 0.070516
v 0.938861 0.562719 0.025275
v 0.755028 0.819513 0.070300
v 0.689954 0.587000 0.119407
v 0.433455 0.433723 0.121867
v 0.188418 0.063675 0.001175
v 0.062934 0.062928 -0.001049
v 0.187567 0.188580 0.024932
v 0.313020 0.063342 0.011115
v 0.311967 0.187380 0.047091
v 0.437585 0.061543 0.021238
v 0.812878 0.060706 0.019167
v 0.937011 0.062855 -0.001745
v 0.555477 0.244044 0.091017
v 0.564641 0.433810 0.122095
v 0.526024 0.810969 0.079494
v 0.563244 0.184197 0.068549
v 0.689512 0.184684 0.062174
v 0.562551 0.062975 0.017951
v 0.939225 0.312150 0.023510
v 0.817656 0.309185 0.070324
v 0.940277 0.437241 0.028547
v 0.312875 0.938223 0.018595
v 0.476955 0.771165 0.097990
v 0.814485 0.185498 0.042541
v 0.806255 0.369011 0.081056
v 0.687595 0.061401 0.020739
v 0.062906 0.125566 0.001643
v 0.937438 0.187472 0.011756
v 0.436390 0.185112 0.064458
v 0.062399 0.187721 0.008459
v 0.383080 0.775004 0.092122
v 0.937858 0.688033 0.020733
v 0.188208 0.874481 0.015946
v 0.063146 0.812134 0.005857
v 0.813520 0.939895 0.021736
v 0.185252 0.563242 0.061894
v 0.772630 0.652908 0.093422
v 0.320067 0.532898 0.119339
v 0.720756 0.316474 0.125364
v 0.320964 0.314792 0.125365
v 0.719023 0.716177 0.114400
v 0.319195 0.714435 0.114371
v 0.613781 0.316155 0.125354
v 0.320681 0.403995 0.122890
v 0.289020 0.324400 0.105153
v 0.719493 0.614145 0.117151
v 0.722384 0.292380 0.110483
v 0.813404 0.123312 0.029654
v 0.432661 0.641158 0.120054
v 0.274502 0.662820 0.097922
v 0.719397 0.539822 0.119174
v 0.615260 0.715726 0.114392
v 0.320432 0.468396 0.121114
v 0.418740 0.315374 0.125347
v 0.939706 0.750785 0.023619
v 0.548480 0.315916 0.125347
v 0.818538 0.754732 0.068413
v 0.414812 0.250875 0.094377
v 0.424530 0.821721 0.073213
v 0.818275 0.480863 0.078680
v 0.752511 0.184544 0.055559
v 0.368449 0.412871 0.122597
v 0.250932 0.936712 0.008799
v 0.630295 0.433748 0.122107
v 0.551191 0.715447 0.114388
v 0.410214 0.669540 0.118584
vt 0.000000 0.000000
vt 1.000000 0.000000
vt 0.000000 1.000000
vt 1.000000 1.000000
vt 0.500000 0.500000
vt 0.000000 0.500000
vt 0.500000 1.000000
vt 1.000000 0.500000
vt 0.500000 0.000000
vt 0.250000 0.750000
vt 0.750000 0.750000
vt 0.250000 0.250000
vt 0.750000 0.250000
vt 0.750000 0.000000
vt 0.250000 0.000000
vt 1.000000 0.750000
vt 1.000000 0.250000
vt 0.250000 1.000000
vt 0.750000 1.000000
vt 0.000000 0.250000
vt 0.000000 0.750000
vt 0.365347 0.220303
vt 0.629073 0.770824
vt 0.245672 0.515386
vt 0.812500 0.250000
vt 0.875000 0.375000
vt 0.625000 0.125000
vt 0.625000 0.375000
vt 0.875000 0.125000
vt 0.375000 0.125000
vt 0.125000 0.125000
vt 0.492214 0.250470
vt 0.875000 0.625000
vt 0.625000 0.625000
vt 0.875000 0.875000
vt 0.375000 0.875000
vt 0.262101 0.599801
vt 0.125000 0.875000
vt 0.125000 0.625000
vt 0.625000 0.875000
vt 0.125000 0.375000
vt 0.250000 0.125000
vt 0.875000 0.750000
vt 0.875000 0.250000
vt 0.250000 0.875000
vt 0.750000 0.875000
vt 0.125000 0.250000
vt 0.125000 0.750000
vt 0.327646 0.593108
vt 0.125000 0.937500
vt 0.250000 0.812500
vt 0.875000 0.500000
vt 0.428933 0.705563
vt 0.248222 0.455442
vt 0.000000 0.375000
vt 0.500000 0.875000
vt 0.500000 0.625000
vt 0.250000 0.375000
vt 0.125000 0.500000
vt 0.375000 0.500000
vt 0.625000 0.250000
vt 0.500000 0.125000
vt 0.500000 0.375000
vt 0.000000 0.625000
vt 0.000000 0.875000
vt 0.000000 0.125000
vt 0.625000 1.000000
vt 0.875000 1.000000
vt 0.125000 1.000000
vt 0.375000 1.000000
vt 1.000000 0.375000
vt 1.000000 0.125000
vt 1.000000 0.875000
vt 1.000000 0.625000
vt 0.375000 0.000000
vt 0.125000 0.000000
vt 0.875000 0.000000
vt 0.625000 0.000000
vt 0.750000 0.125000
vt 0.625000 0.500000
vt 0.760524 0.515669
vt 0.062500 0.312500
vt 0.187500 0.437500
vt 0.187500 0.312500
vt 0.062500 0.437500
vt 0.687500 0.937500
vt 0.687500 0.812500
vt 0.562500 0.937500
vt 0.062500 0.687500
vt 0.187500 0.687500
vt 0.062500 0.562500
vt 0.187500 0.937500
vt 0.187500 0.812500
vt 0.062500 0.937500
vt 0.437500 0.562500
vt 0.875000 0.812500
vt 0.187500 0.750000
vt 0.312500 0.812500
vt 0.437500 0.937500
vt 0.937500 0.812500
vt 0.812500 0.812500
vt 0.937500 0.937500
vt 0.875000 0.187500
vt 0.562500 0.562500
vt 0.710581 0.427222
vt 0.819332 0.591237
vt 0.812500 0.687500
vt 0.937500 0.562500
vt 0.750000 0.812500
vt 0.682510 0.583771
vt 0.437500 0.437500
vt 0.187500 0.062500
vt 0.062500 0.062500
vt 0.187500 0.187500
vt 0.312500 0.062500
vt 0.312500 0.187500
vt 0.437500 0.062500
vt 0.812500 0.062500
vt 0.937500 0.062500
vt 0.554454 0.248535
vt 0.562500 0.437500
vt 0.525016 0.804189
vt 0.562500 0.187500
vt 0.687500 0.187500
vt 0.562500 0.062500
vt 0.937500 0.312500
vt 0.812500 0.312500
vt 0.937500 0.437500
vt 0.312500 0.937500
vt 0.477574 0.762067
vt 0.812500 0.187500
vt 0.800716 0.372483
vt 0.687500 0.062500
vt 0.062500 0.125000
vt 0.937500 0.187500
vt 0.437500 0.187500
vt 0.062500 0.187500
vt 0.386728 0.766561
vt 0.937500 0.687500
vt 0.187500 0.875000
vt 0.062500 0.812500
vt 0.812500 0.937500
vt 0.187500 0.562500
vt 0.765906 0.648544
vt 0.327984 0.531628
vt 0.709206 0.327070
vt 0.332667 0.326401
vt 0.709622 0.707046
vt 0.328452 0.703691
vt 0.609262 0.325046
vt 0.329961 0.409066
vt 0.296906 0.332149
vt 0.710828 0.609972
vt 0.713437 0.300753
vt 0.812500 0.125000
vt 0.436137 0.634590
vt 0.281585 0.657008
vt 0.710570 0.538661
vt 0.610879 0.707028
vt 0.328848 0.470157
vt 0.423987 0.324954
vt 0.937500 0.750000
vt 0.547201 0.324676
vt 0.812500 0.750000
vt 0.418341 0.256674
vt 0.425703 0.815414
vt 0.812755 0.481587
vt 0.750000 0.187500
vt 0.375653 0.417988
vt 0.250000 0.937500
vt 0.625000 0.437500
vt 0.549349 0.706870
vt 0.414679 0.661630
vn 0.010937 0.010937 0.999880
vn -0.015051 0.015051 0.999773
vn 0.036661 -0.036661 0.998655
vn 0.002286 0.002286 0.999995
vn -0.000532 0.016737 0.999860
vn -0.254045 0.001393 0.967191
vn -0.035335 0.396304 0.917439
vn 0.406060 0.011775 0.913770
vn 0.012371 -0.302648 0.953022
vn -0.332525 0.279319 0.900782
vn 0.304107 0.222273 0.926344
vn -0.265498 -0.346484 0.899700
vn 0.257749 -0.322933 0.910648
vn 0.005689 -0.305043 0.952322
vn -0.040000 -0.095740 0.994602
vn 0.344515 0.001713 0.938779
vn 0.265245 -0.047170 0.963026
vn -0.069396 0.149991 0.986249
vn 0.025098 0.380734 0.924344
vn -0.196589 -0.034170 0.979890
vn -0.134454 0.024047 0.990628
vn -0.128507 -0.434771 0.891325
vn -0.009702 0.319358 0.947584
vn -0.394844 0.000670 0.918748
vn 0.315791 -0.197578 0.928030
vn 0.374639 -0.056476 0.925449
vn 0.016362 -0.351191 0.936161
vn -0.000060 0.025075 0.999686
vn 0.207902 -0.158234 0.965266
vn -0.111555 -0.327681 0.938179
vn -0.071695 -0.121237 0.990031
vn -0.003717 -0.405818 0.913946
vn 0.389212 0.045025 0.920047
vn 0.011594 0.022282 0.999685
vn 0.230005 0.210997 0.950041
vn -0.091408 0.379789 0.920546
vn -0.402906 0.016706 0.915089
vn -0.127694 0.158338 0.979093
vn -0.335451 0.038959 0.941252
vn -0.003570 0.388765 0.921330
vn -0.327198 -0.016979 0.944803
vn -0.125260 -0.231113 0.964830
vn 0.350968 0.037281 0.935645
vn 0.334581 -0.134982 0.932650
vn -0.174392 0.284718 0.942615
vn 0.150771 0.332161 0.931095
vn -0.238000 -0.159812 0.958027
vn -0.287122 0.124028 0.949831
vn -0.256975 0.017111 0.966266
vn -0.080252 0.038451 0.996033
vn -0.239258 0.316028 0.918086
vn 0.383418 0.021525 0.923324
vn -0.004893 0.186820 0.982382
vn -0.396666 -0.006989 0.917937
vn -0.269660 0.001503 0.962955
vn -0.045211 0.379066 0.924265
vn 0.000565 0.024210 0.999707
vn -0.413696 -0.015719 0.910279
vn -0.344655 0.016018 0.938593
vn -0.000025 0.021449 0.999770
vn 0.024668 -0.408352 0.912491
vn -0.003363 -0.357738 0.933816
vn -0.000879 0.025762 0.999668
vn -0.216534 0.018280 0.976104
vn -0.006677 0.040337 0.999164
vn -0.031367 -0.050625 0.998225
vn 0.009807 0.442578 0.896676
vn 0.084646 0.172590 0.981350
vn -0.052739 -0.038049 0.997883
vn -0.011363 0.311416 0.950206
vn 0.390651 -0.020491 0.920311
vn 0.072266 -0.051602 0.996050
vn 0.155817 0.076190 0.984843
vn 0.350294 0.020394 0.936418
vn -0.039092 -0.265694 0.963264
vn -0.009927 0.002227 0.999948
vn 0.082589 -0.133678 0.987577
vn -0.009659 -0.297549 0.954658
vn 0.084454 -0.274204 0.957956
vn 0.000257 0.018690 0.999825
vn 0.396813 0.029430 0.917428
vn -0.273623 -0.031545 0.961319
vn -0.368418 -0.004202 0.929651
vn -0.326731 -0.118424 0.937669
vn -0.289099 0.008519 0.957261
vn 0.029270 0.412098 0.910669
vn 0.093831 0.345653 0.933659
vn -0.021597 0.412303 0.910791
vn -0.246590 0.035023 0.968487
vn -0.350309 0.086848 0.932599
vn -0.274072 0.010820 0.961648
vn -0.085575 0.110173 0.990222
vn -0.213299 0.248789 0.944779
vn 0.001407 0.016623 0.999861
vn -0.004412 0.000975 0.999990
vn 0.290306 0.158480 0.943720
vn -0.297141 0.181555 0.937414
vn -0.197960 0.388070 0.900119
vn -0.042466 0.367278 0.929141
vn 0.298969 0.094221 0.949600
vn 0.248172 0.251958 0.935376
vn 0.094698 0.090402 0.991393
vn 0.258373 -0.183429 0.948471
vn -0.001792 -0.003374 0.999993
vn 0.202193 0.020479 0.979132
vn 0.402148 0.041655 0.914627
vn 0.392173 0.043662 0.918855
vn 0.382121 0.030600 0.923606
vn 0.215668 0.311445 0.925467
vn 0.036567 0.018124 0.999167
vn 0.000608 0.026112 0.999659
vn -0.050480 -0.087747 0.994863
vn -0.008837 -0.017384 0.999810
vn -0.153429 -0.269122 0.950806
vn -0.089563 -0.212932 0.972953
vn -0.215506 -0.375848 0.901274
vn -0.020973 -0.320668 0.946959
vn 0.100675 -0.208782 0.972767
vn 0.065207 -0.049635 0.996637
vn 0.008855 -0.388043 0.921599
vn -0.000790 0.026286 0.999654
vn -0.007778 0.373447 0.927619
vn 0.013577 -0.360571 0.932633
vn 0.069355 -0.358218 0.931058
vn 0.006700 -0.332433 0.943103
vn 0.349824 -0.064710 0.934578
vn 0.384715 -0.138887 0.912526
vn 0.404300 -0.007532 0.914596
vn -0.099245 0.252161 0.962583
vn -0.001483 0.370180 0.928959
vn 0.227758 -0.251686 0.940628
vn 0.410566 -0.054095 0.910225
vn 0.007877 -0.310085 0.950676
vn -0.022710 -0.076426 0.996817
vn 0.222962 -0.105753 0.969074
vn -0.034138 -0.384958 0.922303
vn -0.109695 -0.102625 0.988653
vn -0.064353 0.395857 0.916055
vn 0.342912 -0.012296 0.939287
vn -0.146428 0.220723 0.964282
vn -0.129767 0.078108 0.988463
vn 0.103839 0.296659 0.949321
vn -0.385075 0.015538 0.922755
vn 0.412809 0.047314 0.909588
vn -0.189466 0.020639 0.981670
vn 0.217539 -0.371741 0.902488
vn -0.368721 -0.136204 0.919507
vn 0.251311 0.161851 0.954278
vn -0.246274 0.211048 0.945943
vn 0.006008 -0.188407 0.982073
vn -0.185671 0.016418 0.982475
vn -0.497281 -0.071989 0.864598
vn 0.177065 0.024732 0.983888
vn 0.223491 -0.457879 0.860464
vn 0.176676 -0.193882 0.964985
vn -0.000196 0.036224 0.999344
vn -0.418718 0.056016 0.906387
vn 0.212805 0.018567 0.976918
vn -0.000866 0.182727 0.983163
vn -0.168268 0.021547 0.985506
vn 0.001016 -0.234077 0.972218
vn 0.336095 0.003107 0.941823
vn 0.000856 -0.224031 0.974582
vn 0.346248 0.104410 0.932315
vn -0.013856 -0.429281 0.903065
vn -0.050002 0.412496 0.909586
vn 0.376629 0.015759 0.926230
vn 0.138062 -0.324617 0.935715
vn 0.001352 0.025476 0.999674
vn -0.119702 0.184171 0.975578
vn -0.000065 0.025442 0.999676
vn -0.002227 0.198917 0.980014
vn 0.004555 0.062014 0.998065
f 1/1/1 113/113/113 66/66/66
f 47/47/47 114/114/114 12/12/12
f 112/112/112 31/31/31 113/113/113
f 76/76/76 112/112/112 113/113/113
f 169/169/169 147/147/147 161/161/161
f 112/112/112 114/114/114 31/31/31
f 41/41/41 58/58/58 83/83/83
f 31/31/31 134/134/134 113/113/113
f 134/134/134 137/137/137 66/66/66
f 134/134/134 66/66/66 113/113/113
f 115/115/115 112/112/112 15/15/15
f 31/31/31 137/137/137 134/134/134
f 165/165/165 147/147/147 22/22/22
f 114/114/114 137/137/137 31/31/31
f 76/76/76 113/113/113 1/1/1
f 42/42/42 114/114/114 112/112/112
f 15/15/15 112/112/112 76/76/76
f 115/115/115 15/15/15 75/75/75
f 45/45/45 51/51/51 98/98/98
f 116/116/116 115/115/115 30/30/30
f 136/136/136 30/30/30 117/117/117
f 22/22/22 30/30/30 136/136/136
f 156/156/156 173/173/173 49/49/49
f 62/62/62 136/136/136 117/117/117
f 165/165/165 136/136/136 32/32/32
f 147/147/147 12/12/12 22/22/22
f 12/12/12 116/116/116 22/22/22
f 42/42/42 116/116/116 114/114/114
f 116/116/116 30/30/30 22/22/22
f 42/42/42 112/112/112 115/115/115
f 42/42/42 115/115/115 116/116/116
f 84/84/84 152/152/152 58/58/58
f 12/12/12 114/114/114 116/116/116
f 147/147/147 152/152/152 12/12/12
f 54/54/54 151/151/151 160/160/160
f 161/161/161 147/147/147 165/165/165
f 111/111/111 169/169/169 161/161/161
f 165/165/165 22/22/22 136/136/136
f 161/161/161 165/165/165 32/32/32
f 83/83/83 58/58/58 54/54/54
f 47/47/47 137/137/137 114/114/114
f 63/63/63 121/121/121 111/111/111
f 117/117/117 30/30/30 75/75/75
f 60/60/60 169/169/169 111/111/111
f 151/151/151 147/147/147 169/169/169
f 72/72/72 135/135/135 119/119/119
f 121/121/121 63/63/63 28/28/28
f 54/54/54 58/58/58 151/151/151
f 129/129/129 45/45/45 36/36/36
f 151/151/151 152/152/152 147/147/147
f 151/151/151 169/169/169 160/160/160
f 84/84/84 47/47/47 12/12/12
f 58/58/58 152/152/152 151/151/151
f 149/149/149 98/98/98 10/10/10
f 78/78/78 133/133/133 125/125/125
f 148/148/148 159/159/159 34/34/34
f 157/157/157 10/10/10 90/90/90
f 82/82/82 137/137/137 47/47/47
f 84/84/84 12/12/12 152/152/152
f 84/84/84 58/58/58 41/41/41
f 85/85/85 41/41/41 83/83/83
f 20/20/20 137/137/137 82/82/82
f 55/55/55 82/82/82 41/41/41
f 20/20/20 66/66/66 137/137/137
f 55/55/55 20/20/20 82/82/82
f 85/85/85 55/55/55 41/41/41
f 23/23/23 40/40/40 122/122/122
f 97/97/97 93/93/93 48/48/48
f 59/59/59 85/85/85 83/83/83
f 94/94/94 50/50/50 69/69/69
f 98/98/98 138/138/138 36/36/36
f 139/139/139 33/33/33 74/74/74
f 108/108/108 74/74/74 33/33/33
f 140/140/140 170/170/170 92/92/92
f 49/49/49 37/37/37 145/145/145
f 6/6/6 85/85/85 91/91/91
f 45/45/45 98/98/98 36/36/36
f 94/94/94 69/69/69 3/3/3
f 110/110/110 153/153/153 34/34/34
f 166/166/166 138/138/138 130/130/130
f 122/122/122 166/166/166 130/130/130
f 166/166/166 36/36/36 138/138/138
f 93/93/93 38/38/38 48/48/48
f 10/10/10 51/51/51 97/97/97
f 37/37/37 90/90/90 143/143/143
f 143/143/143 90/90/90 39/39/39
f 170/170/170 129/129/129 18/18/18
f 140/140/140 45/45/45 170/170/170
f 129/129/129 70/70/70 18/18/18
f 170/170/170 45/45/45 129/129/129
f 92/92/92 18/18/18 69/69/69
f 38/38/38 92/92/92 50/50/50
f 92/92/92 170/170/170 18/18/18
f 92/92/92 69/69/69 50/50/50
f 38/38/38 140/140/140 92/92/92
f 93/93/93 45/45/45 140/140/140
f 94/94/94 38/38/38 50/50/50
f 48/48/48 38/38/38 141/141/141
f 65/65/65 94/94/94 3/3/3
f 47/47/47 84/84/84 82/82/82
f 21/21/21 141/141/141 65/65/65
f 38/38/38 94/94/94 141/141/141
f 41/41/41 82/82/82 84/84/84
f 65/65/65 141/141/141 94/94/94
f 39/39/39 90/90/90 48/48/48
f 51/51/51 45/45/45 93/93/93
f 23/23/23 122/122/122 172/172/172
f 93/93/93 140/140/140 38/38/38
f 145/145/145 160/160/160 60/60/60
f 90/90/90 10/10/10 97/97/97
f 90/90/90 97/97/97 48/48/48
f 89/89/89 39/39/39 48/48/48
f 48/48/48 141/141/141 89/89/89
f 24/24/24 59/59/59 83/83/83
f 89/89/89 21/21/21 64/64/64
f 21/21/21 89/89/89 141/141/141
f 153/153/153 148/148/148 34/34/34
f 149/149/149 10/10/10 157/157/157
f 6/6/6 91/91/91 64/64/64
f 59/59/59 91/91/91 85/85/85
f 6/6/6 55/55/55 85/85/85
f 24/24/24 83/83/83 54/54/54
f 59/59/59 39/39/39 91/91/91
f 143/143/143 39/39/39 59/59/59
f 24/24/24 143/143/143 59/59/59
f 24/24/24 54/54/54 160/160/160
f 29/29/29 155/155/155 118/118/118
f 163/163/163 28/28/28 63/63/63
f 57/57/57 34/34/34 172/172/172
f 119/119/119 29/29/29 118/118/118
f 103/103/103 131/131/131 155/155/155
f 39/39/39 89/89/89 91/91/91
f 27/27/27 124/124/124 123/123/123
f 61/61/61 123/123/123 124/124/124
f 77/77/77 2/2/2 119/119/119
f 37/37/37 157/157/157 90/90/90
f 37/37/37 143/143/143 24/24/24
f 149/149/149 138/138/138 98/98/98
f 40/40/40 87/87/87 86/86/86
f 135/135/135 72/72/72 17/17/17
f 57/57/57 53/53/53 156/156/156
f 51/51/51 10/10/10 98/98/98
f 159/159/159 172/172/172 34/34/34
f 17/17/17 126/126/126 135/135/135
f 104/104/104 95/95/95 5/5/5
f 60/60/60 160/160/160 169/169/169
f 44/44/44 135/135/135 126/126/126
f 105/105/105 158/158/158 80/80/80
f 57/57/57 95/95/95 104/104/104
f 33/33/33 52/52/52 108/108/108
f 34/34/34 57/57/57 104/104/104
f 57/57/57 156/156/156 95/95/95
f 122/122/122 130/130/130 172/172/172
f 53/53/53 138/138/138 149/149/149
f 9/9/9 125/125/125 117/117/117
f 132/132/132 146/146/146 127/127/127
f 11/11/11 144/144/144 107/107/107
f 103/103/103 44/44/44 25/25/25
f 87/87/87 11/11/11 109/109/109
f 46/46/46 101/101/101 142/142/142
f 80/80/80 110/110/110 104/104/104
f 124/124/124 154/154/154 61/61/61
f 95/95/95 156/156/156 49/49/49
f 11/11/11 148/148/148 144/144/144
f 37/37/37 49/49/49 157/157/157
f 144/144/144 153/153/153 106/106/106
f 53/53/53 172/172/172 130/130/130
f 106/106/106 153/153/153 81/81/81
f 110/110/110 34/34/34 104/104/104
f 77/77/77 119/119/119 118/118/118
f 80/80/80 104/104/104 5/5/5
f 158/158/158 153/153/153 110/110/110
f 121/121/121 171/171/171 80/80/80
f 105/105/105 146/146/146 132/132/132
f 81/81/81 153/153/153 158/158/158
f 158/158/158 110/110/110 80/80/80
f 28/28/28 146/146/146 105/105/105
f 167/167/167 106/106/106 81/81/81
f 36/36/36 99/99/99 129/129/129
f 107/107/107 106/106/106 33/33/33
f 56/56/56 99/99/99 166/166/166
f 96/96/96 164/164/164 43/43/43
f 107/107/107 33/33/33 139/139/139
f 33/33/33 106/106/106 52/52/52
f 74/74/74 108/108/108 8/8/8
f 36/36/36 166/166/166 99/99/99
f 164/164/164 11/11/11 107/107/107
f 173/173/173 156/156/156 53/53/53
f 144/144/144 148/148/148 153/153/153
f 144/144/144 106/106/106 107/107/107
f 111/111/111 5/5/5 60/60/60
f 87/87/87 148/148/148 11/11/11
f 95/95/95 60/60/60 5/5/5
f 88/88/88 56/56/56 40/40/40
f 142/142/142 101/101/101 35/35/35
f 43/43/43 107/107/107 139/139/139
f 96/96/96 162/162/162 100/100/100
f 43/43/43 164/164/164 107/107/107
f 43/43/43 139/139/139 162/162/162
f 56/56/56 166/166/166 122/122/122
f 149/149/149 49/49/49 173/173/173
f 16/16/16 162/162/162 139/139/139
f 35/35/35 101/101/101 96/96/96
f 35/35/35 96/96/96 100/100/100
f 96/96/96 101/101/101 164/164/164
f 96/96/96 43/43/43 162/162/162
f 86/86/86 46/46/46 142/142/142
f 16/16/16 100/100/100 162/162/162
f 102/102/102 35/35/35 100/100/100
f 68/68/68 142/142/142 102/102/102
f 88/88/88 99/99/99 56/56/56
f 142/142/142 35/35/35 102/102/102
f 44/44/44 126/126/126 127/127/127
f 46/46/46 109/109/109 101/101/101
f 19/19/19 86/86/86 142/142/142
f 88/88/88 40/40/40 86/86/86
f 23/23/23 87/87/87 40/40/40
f 26/26/26 127/127/127 126/126/126
f 23/23/23 148/148/148 87/87/87
f 87/87/87 109/109/109 46/46/46
f 49/49/49 149/149/149 157/157/157
f 23/23/23 159/159/159 148/148/148
f 24/24/24 145/145/145 37/37/37
f 56/56/56 122/122/122 40/40/40
f 67/67/67 88/88/88 86/86/86
f 7/7/7 99/99/99 88/88/88
f 7/7/7 70/70/70 99/99/99
f 67/67/67 7/7/7 88/88/88
f 19/19/19 67/67/67 86/86/86
f 68/68/68 19/19/19 142/142/142
f 73/73/73 102/102/102 100/100/100
f 4/4/4 68/68/68 102/102/102
f 73/73/73 4/4/4 102/102/102
f 16/16/16 73/73/73 100/100/100
f 74/74/74 16/16/16 139/139/139
f 154/154/154 150/150/150 61/61/61
f 26/26/26 128/128/128 52/52/52
f 126/126/126 17/17/17 71/71/71
f 155/155/155 168/168/168 79/79/79
f 77/77/77 118/118/118 14/14/14
f 60/60/60 95/95/95 145/145/145
f 167/167/167 132/132/132 26/26/26
f 49/49/49 145/145/145 95/95/95
f 128/128/128 71/71/71 8/8/8
f 70/70/70 129/129/129 99/99/99
f 164/164/164 101/101/101 11/11/11
f 109/109/109 11/11/11 101/101/101
f 25/25/25 44/44/44 127/127/127
f 64/64/64 91/91/91 89/89/89
f 25/25/25 127/127/127 13/13/13
f 115/115/115 75/75/75 30/30/30
f 132/132/132 127/127/127 26/26/26
f 154/154/154 127/127/127 146/146/146
f 131/131/131 13/13/13 168/168/168
f 131/131/131 25/25/25 13/13/13
f 167/167/167 26/26/26 52/52/52
f 105/105/105 132/132/132 167/167/167
f 167/167/167 52/52/52 106/106/106
f 105/105/105 167/167/167 81/81/81
f 105/105/105 81/81/81 158/158/158
f 171/171/171 28/28/28 105/105/105
f 171/171/171 105/105/105 80/80/80
f 29/29/29 119/119/119 135/135/135
f 121/121/121 80/80/80 5/5/5
f 121/121/121 28/28/28 171/171/171
f 121/121/121 5/5/5 111/111/111
f 63/63/63 111/111/111 161/161/161
f 163/163/163 161/161/161 32/32/32
f 163/163/163 150/150/150 28/28/28
f 120/120/120 150/150/150 163/163/163
f 150/150/150 146/146/146 28/28/28
f 163/163/163 63/63/63 161/161/161
f 120/120/120 123/123/123 61/61/61
f 62/62/62 123/123/123 136/136/136
f 23/23/23 172/172/172 159/159/159
f 119/119/119 2/2/2 72/72/72
f 154/154/154 13/13/13 127/127/127
f 154/154/154 146/146/146 150/150/150
f 124/124/124 13/13/13 154/154/154
f 160/160/160 145/145/145 24/24/24
f 125/125/125 27/27/27 62/62/62
f 133/133/133 78/78/78 14/14/14
f 120/120/120 61/61/61 150/150/150
f 123/123/123 32/32/32 136/136/136
f 120/120/120 163/163/163 32/32/32
f 120/120/120 32/32/32 123/123/123
f 125/125/125 62/62/62 117/117/117
f 62/62/62 27/27/27 123/123/123
f 9/9/9 117/117/117 75/75/75
f 26/26/26 126/126/126 128/128/128
f 78/78/78 125/125/125 9/9/9
f 71/71/71 128/128/128 126/126/126
f 118/118/118 133/133/133 14/14/14
f 133/133/133 124/124/124 27/27/27
f 135/135/135 44/44/44 103/103/103
f 155/155/155 131/131/131 168/168/168
f 79/79/79 124/124/124 133/133/133
f 79/79/79 133/133/133 118/118/118
f 168/168/168 13/13/13 124/124/124
f 168/168/168 124/124/124 79/79/79
f 155/155/155 79/79/79 118/118/118
f 103/103/103 25/25/25 131/131/131
f 103/103/103 155/155/155 29/29/29
f 135/135/135 103/103/103 29/29/29
f 46/46/46 86/86/86 87/87/87
f 53/53/53 130/130/130 138/138/138
f 27/27/27 125/125/125 133/133/133
f 93/93/93 97/97/97 51/51/51
f 149/149/149 173/173/173 53/53/53
f 172/172/172 53/53/53 57/57/57
f 52/52/52 128/128/128 108/108/108
f 8/8/8 108/108/108 128/128/128
