# frame 000685 
# time 0.343000 
# name Cloth3D 
v -0.000000 0.000000 -0.000000
v 1.000000 0.000000 -0.000000
v -0.000000 1.000000 0.000000
v 1.000000 1.000000 0.000000
v 0.498704 0.498891 0.120249
v -0.000000 0.500000 0.000000
v 0.500000 1.000000 0.000000
v 1.000000 0.500000 0.000000
v 0.500000 -0.000000 0.000000
v 0.245517 0.754776 0.069457
v 0.756591 0.757535 0.089080
v 0.247140 0.247791 0.059745
v 0.755185 0.244769 0.080295
v 0.750000 0.000000 0.000000
v 0.250000 0.000000 0.000000
v 1.000000 0.750000 0.000000
v 1.000000 0.250000 0.000000
v 0.250000 1.000000 0.000000
v 0.750000 1.000000 0.000000
v 0.000000 0.250000 0.000000
v 0.000000 0.750000 -0.000000
v 0.361949 0.215732 0.075719
v 0.632784 0.780386 0.098043
v 0.240929 0.515164 0.086448
v 0.817343 0.246247 0.063110
v 0.879248 0.373470 0.053667
v 0.625409 0.123130 0.043527
v 0.630386 0.367563 0.125822
v 0.875629 0.123903 0.020471
v 0.374560 0.123974 0.037888
v 0.125649 0.126168 0.006206
v 0.490839 0.245841 0.092252
v 0.877230 0.626042 0.047836
v 0.629519 0.629647 0.120042
v 0.876790 0.877186 0.026712
v 0.374503 0.878147 0.044776
v 0.256523 0.602614 0.091356
v 0.125780 0.874469 0.007867
v 0.124155 0.625282 0.037001
v 0.626907 0.882619 0.058770
v 0.124487 0.374392 0.036007
v 0.250663 0.126456 0.018802
v 0.878241 0.752407 0.044331
v 0.878102 0.248267 0.042040
v 0.249544 0.876038 0.029834
v 0.753045 0.881900 0.052854
v 0.122778 0.249116 0.032231
v 0.123834 0.750595 0.030190
v 0.319704 0.596901 0.116557
v 0.125884 0.936862 -0.002158
v 0.248383 0.814755 0.047496
v 0.878924 0.499718 0.053984
v 0.425608 0.717314 0.111797
v 0.243674 0.453459 0.086734
v 0.000000 0.375000 0.000000
v 0.500553 0.879561 0.051176
v 0.499139 0.629645 0.119683
v 0.245305 0.370683 0.085649
v 0.124766 0.499562 0.038054
v 0.368423 0.499034 0.120400
v 0.627855 0.246102 0.089459
v 0.499757 0.122987 0.044962
v 0.498303 0.367679 0.125820
v 0.000000 0.625000 0.000000
v 0.000000 0.875000 0.000000
v 0.000000 0.125000 0.000000
v 0.625000 1.000000 0.000000
v 0.875000 1.000000 0.000000
v 0.125000 1.000000 0.000000
v 0.375000 1.000000 0.000000
v 1.000000 0.375000 0.000000
v 1.000000 0.125000 0.000000
v 1.000000 0.875000 0.000000
v 1.000000 0.625000 0.000000
v 0.375000 0.000000 0.000000
v 0.125000 0.000000 0.000000
v 0.875000 0.000000 0.000000
v 0.625000 0.000000 0.000000
v 0.750773 0.123256 0.036946
v 0.629414 0.498879 0.120508
v 0.767007 0.515345 0.099396
v 0.062346 0.312507 0.015294
v 0.184797 0.435975 0.063343
v 0.183491 0.310280 0.058386
v 0.062740 0.437387 0.017259
v 0.688603 0.942215 0.030342
v 0.691789 0.822453 0.083163
v 0.563055 0.942755 0.032219
v 0.063033 0.687338 0.013353
v 0.184777 0.689312 0.055931
v 0.062519 0.562375 0.018149
v 0.187923 0.937173 0.007889
v 0.186083 0.813871 0.035455
v 0.063002 0.937137 -0.002495
v 0.433840 0.564543 0.119554
v 0.877931 0.815132 0.038180
v 0.184862 0.752089 0.048587
v 0.310317 0.816831 0.061761
v 0.437827 0.938739 0.022291
v 0.939524 0.813477 0.021265
v 0.816439 0.817329 0.055818
v 0.937135 0.937224 0.001117
v 0.876414 0.186309 0.030206
v 0.564140 0.564261 0.119972
v 0.720143 0.422750 0.123592
v 0.823712 0.592554 0.072973
v 0.817535 0.690910 0.072106
v 0.938452 0.562559 0.024372
v 0.755420 0.821043 0.074607
v 0.689351 0.586575 0.118648
v 0.432920 0.433178 0.122916
v 0.188272 0.063674 0.001545
v 0.062829 0.062830 0.000539
v 0.187574 0.188719 0.024958
v 0.313047 0.063504 0.010639
v 0.311754 0.187106 0.048110
v 0.437472 0.061600 0.021415
v 0.812970 0.060349 0.021011
v 0.937054 0.062815 -0.000784
v 0.555090 0.243837 0.091889
v 0.564142 0.433281 0.123149
v 0.525893 0.811286 0.081014
v 0.562945 0.184447 0.068402
v 0.689364 0.184278 0.063924
v 0.562478 0.063418 0.016947
v 0.939969 0.311990 0.025940
v 0.818525 0.308832 0.073871
v 0.940660 0.437156 0.029798
v 0.312719 0.938233 0.017760
v 0.476919 0.770154 0.096305
v 0.814884 0.185076 0.045714
v 0.806765 0.368693 0.083925
v 0.687550 0.061031 0.022052
v 0.062748 0.125428 0.003196
v 0.938055 0.187188 0.015114
v 0.436075 0.185378 0.064179
v 0.062176 0.187580 0.009945
v 0.383213 0.774969 0.092281
v 0.938865 0.688013 0.023442
v 0.187707 0.874824 0.018420
v 0.062844 0.812217 0.007600
v 0.813622 0.940622 0.023486
v 0.184878 0.562904 0.062542
v 0.772539 0.652676 0.093769
v 0.320069 0.532492 0.119136
v 0.720745 0.319057 0.127778
v 0.320953 0.317375 0.127779
v 0.719013 0.718592 0.111818
v 0.319185 0.716848 0.111790
v 0.613429 0.318736 0.127766
v 0.320682 0.403600 0.124299
v 0.288633 0.324107 0.106294
v 0.719495 0.613841 0.115947
v 0.722025 0.292477 0.111251
v 0.813426 0.123171 0.031165
v 0.432571 0.640187 0.118866
v 0.275044 0.662354 0.096514
v 0.719397 0.539591 0.118899
v 0.614742 0.718138 0.111811
v 0.320434 0.468020 0.121716
v 0.418069 0.317954 0.127758
v 0.939414 0.750830 0.023061
v 0.548045 0.318497 0.127758
v 0.818296 0.754798 0.068815
v 0.414345 0.250986 0.094445
v 0.424611 0.821876 0.074129
v 0.818204 0.480584 0.079598
v 0.752210 0.184937 0.055578
v 0.367880 0.412363 0.123901
v 0.250454 0.937187 0.011140
v 0.629825 0.433299 0.123162
v 0.550889 0.717860 0.111806
v 0.410289 0.668700 0.117636
vt 0.000000 0.000000
vt 1.000000 0.000000
vt 0.000000 1.000000
vt 1.000000 1.000000
vt 0.500000 0.500000
vt 0.000000 0.500000
vt 0.500000 1.000000
vt 1.000000 0.500000
vt 0.500000 0.000000
vt 0.250000 0.750000
vt 0.750000 0.750000
vt 0.250000 0.250000
vt 0.750000 0.250000
vt 0.750000 0.000000
vt 0.250000 0.000000
vt 1.000000 0.750000
vt 1.000000 0.250000
vt 0.250000 1.000000
vt 0.750000 1.000000
vt 0.000000 0.250000
vt 0.000000 0.750000
vt 0.365347 0.220303
vt 0.629073 0.770824
vt 0.245672 0.515386
vt 0.812500 0.250000
vt 0.875000 0.375000
vt 0.625000 0.125000
vt 0.625000 0.375000
vt 0.875000 0.125000
vt 0.375000 0.125000
vt 0.125000 0.125000
vt 0.492214 0.250470
vt 0.875000 0.625000
vt 0.625000 0.625000
vt 0.875000 0.875000
vt 0.375000 0.875000
vt 0.262101 0.599801
vt 0.125000 0.875000
vt 0.125000 0.625000
vt 0.625000 0.875000
vt 0.125000 0.375000
vt 0.250000 0.125000
vt 0.875000 0.750000
vt 0.875000 0.250000
vt 0.250000 0.875000
vt 0.750000 0.875000
vt 0.125000 0.250000
vt 0.125000 0.750000
vt 0.327518 0.593107
vt 0.125000 0.937500
vt 0.250000 0.812500
vt 0.875000 0.500000
vt 0.428884 0.708830
vt 0.248222 0.455442
vt 0.000000 0.375000
vt 0.500000 0.875000
vt 0.500000 0.625000
vt 0.250000 0.375000
vt 0.125000 0.500000
vt 0.375000 0.500000
vt 0.625000 0.250000
vt 0.500000 0.125000
vt 0.500000 0.375000
vt 0.000000 0.625000
vt 0.000000 0.875000
vt 0.000000 0.125000
vt 0.625000 1.000000
vt 0.875000 1.000000
vt 0.125000 1.000000
vt 0.375000 1.000000
vt 1.000000 0.375000
vt 1.000000 0.125000
vt 1.000000 0.875000
vt 1.000000 0.625000
vt 0.375000 0.000000
vt 0.125000 0.000000
vt 0.875000 0.000000
vt 0.625000 0.000000
vt 0.750000 0.125000
vt 0.625000 0.500000
vt 0.760524 0.515669
vt 0.062500 0.312500
vt 0.187500 0.437500
vt 0.187500 0.312500
vt 0.062500 0.437500
vt 0.687500 0.937500
vt 0.687500 0.812500
vt 0.562500 0.937500
vt 0.062500 0.687500
vt 0.187500 0.687500
vt 0.062500 0.562500
vt 0.187500 0.937500
vt 0.187500 0.812500
vt 0.062500 0.937500
vt 0.437500 0.562500
vt 0.875000 0.812500
vt 0.187500 0.750000
vt 0.312500 0.812500
vt 0.437500 0.937500
vt 0.937500 0.812500
vt 0.812500 0.812500
vt 0.937500 0.937500
vt 0.875000 0.187500
vt 0.562500 0.562500
vt 0.710923 0.427220
vt 0.819332 0.591237
vt 0.812500 0.687500
vt 0.937500 0.562500
vt 0.750000 0.812500
vt 0.682510 0.583771
vt 0.437500 0.437500
vt 0.187500 0.062500
vt 0.062500 0.062500
vt 0.187500 0.187500
vt 0.312500 0.062500
vt 0.312500 0.187500
vt 0.437500 0.062500
vt 0.812500 0.062500
vt 0.937500 0.062500
vt 0.554454 0.248535
vt 0.562500 0.437500
vt 0.525016 0.804189
vt 0.562500 0.187500
vt 0.687500 0.187500
vt 0.562500 0.062500
vt 0.937500 0.312500
vt 0.812500 0.312500
vt 0.937500 0.437500
vt 0.312500 0.937500
vt 0.477574 0.762067
vt 0.812500 0.187500
vt 0.800716 0.372483
vt 0.687500 0.062500
vt 0.062500 0.125000
vt 0.937500 0.187500
vt 0.437500 0.187500
vt 0.062500 0.187500
vt 0.386728 0.766561
vt 0.937500 0.687500
vt 0.187500 0.875000
vt 0.062500 0.812500
vt 0.812500 0.937500
vt 0.187500 0.562500
vt 0.765906 0.648544
vt 0.328145 0.531630
vt 0.709328 0.329894
vt 0.333430 0.329387
vt 0.710581 0.709826
vt 0.327723 0.706841
vt 0.609224 0.328087
vt 0.330474 0.409080
vt 0.296906 0.332149
vt 0.711490 0.609975
vt 0.713437 0.300753
vt 0.812500 0.125000
vt 0.436137 0.634590
vt 0.281585 0.657008
vt 0.711141 0.538659
vt 0.610878 0.710028
vt 0.329174 0.470163
vt 0.424014 0.328023
vt 0.937500 0.750000
vt 0.547196 0.327778
vt 0.812500 0.750000
vt 0.418341 0.256674
vt 0.425703 0.815414
vt 0.812755 0.481587
vt 0.750000 0.187500
vt 0.375653 0.417988
vt 0.250000 0.937500
vt 0.625000 0.437500
vt 0.549330 0.710101
vt 0.414679 0.661630
vn -0.001821 -0.001821 0.999997
vn -0.008021 0.008021 0.999936
vn 0.022521 -0.022521 0.999493
vn 0.007467 0.007467 0.999944
vn -0.001242 0.023496 0.999723
vn -0.268808 -0.002854 0.963190
vn -0.041240 0.413931 0.909374
vn 0.408551 0.021116 0.912491
vn 0.018264 -0.293948 0.955647
vn -0.324021 0.273880 0.905539
vn 0.294924 0.193907 0.935639
vn -0.262840 -0.351305 0.898610
vn 0.240802 -0.330035 0.912739
vn 0.003189 -0.330229 0.943895
vn -0.036552 -0.094170 0.994885
vn 0.351547 0.007894 0.936137
vn 0.310082 -0.043614 0.949709
vn -0.054680 0.176699 0.982745
vn 0.026677 0.412279 0.910667
vn -0.197857 -0.022836 0.979965
vn -0.158227 0.022469 0.987147
vn -0.122026 -0.432197 0.893485
vn -0.008950 0.287651 0.957693
vn -0.388421 0.004767 0.921470
vn 0.290528 -0.207585 0.934078
vn 0.378902 -0.046808 0.924253
vn 0.003306 -0.357846 0.933775
vn -0.000125 0.037630 0.999292
vn 0.191693 -0.152204 0.969581
vn -0.108356 -0.329082 0.938064
vn -0.066142 -0.119573 0.990620
vn -0.008435 -0.414808 0.909870
vn 0.388781 0.027879 0.920908
vn 0.016257 0.034778 0.999263
vn 0.234067 0.201938 0.951017
vn -0.081443 0.377131 0.922572
vn -0.384133 0.029813 0.922796
vn -0.132556 0.167220 0.976968
vn -0.335862 0.036230 0.941214
vn -0.005006 0.386055 0.922462
vn -0.335666 -0.022524 0.941712
vn -0.125728 -0.235465 0.963716
vn 0.357062 0.061072 0.932082
vn 0.323805 -0.146654 0.934689
vn -0.168963 0.289882 0.942030
vn 0.148549 0.346108 0.926360
vn -0.243111 -0.155533 0.957448
vn -0.287829 0.118308 0.950346
vn -0.246226 0.031362 0.968705
vn -0.082529 0.057796 0.994911
vn -0.224991 0.296265 0.928227
vn 0.388462 0.027403 0.921057
vn 0.001540 0.198966 0.980005
vn -0.393052 -0.010759 0.919453
vn -0.264953 -0.005537 0.964245
vn -0.055110 0.380572 0.923108
vn -0.002866 0.038277 0.999263
vn -0.415592 -0.014463 0.909436
vn -0.347216 0.011956 0.937709
vn -0.000866 0.032205 0.999481
vn 0.027115 -0.410589 0.911417
vn -0.004712 -0.359590 0.933099
vn -0.000900 0.038308 0.999266
vn -0.238197 0.018933 0.971032
vn -0.034366 0.040037 0.998607
vn -0.056499 -0.050069 0.997146
vn 0.008168 0.473042 0.881002
vn 0.089886 0.192936 0.977086
vn -0.054262 -0.015360 0.998409
vn -0.016298 0.309352 0.950808
vn 0.418337 -0.015800 0.908155
vn 0.106216 -0.061587 0.992434
vn 0.174307 0.080419 0.981402
vn 0.360815 0.005577 0.932621
vn -0.041871 -0.268258 0.962437
vn -0.004791 -0.013142 0.999902
vn 0.086995 -0.156507 0.983838
vn -0.020420 -0.297977 0.954355
vn 0.082721 -0.266151 0.960375
vn 0.001601 0.028190 0.999601
vn 0.390161 0.036927 0.920006
vn -0.275748 -0.027572 0.960834
vn -0.369062 -0.014700 0.929289
vn -0.330048 -0.115242 0.936903
vn -0.295191 -0.000188 0.955438
vn 0.029159 0.425181 0.904638
vn 0.079952 0.329624 0.940721
vn -0.031691 0.418355 0.907731
vn -0.259182 0.033666 0.965241
vn -0.343278 0.088967 0.935011
vn -0.286036 0.009572 0.958171
vn -0.090648 0.127736 0.987657
vn -0.208299 0.233217 0.949853
vn -0.004235 0.030019 0.999540
vn -0.008472 0.009555 0.999918
vn 0.292382 0.145146 0.945222
vn -0.291368 0.176625 0.940164
vn -0.182113 0.372655 0.909925
vn -0.043389 0.367161 0.929145
vn 0.286415 0.074648 0.955193
vn 0.273946 0.233066 0.933078
vn 0.101997 0.097242 0.990020
vn 0.244017 -0.189528 0.951070
vn -0.000008 0.002118 0.999998
vn 0.199210 0.032361 0.979422
vn 0.396860 0.035675 0.917186
vn 0.376443 0.048335 0.925178
vn 0.385000 0.026647 0.922532
vn 0.218225 0.284172 0.933608
vn 0.041826 0.028559 0.998717
vn 0.000550 0.038618 0.999254
vn -0.045409 -0.098421 0.994108
vn -0.020363 -0.026614 0.999438
vn -0.150141 -0.263330 0.952951
vn -0.089495 -0.220615 0.971247
vn -0.215001 -0.369143 0.904161
vn -0.014522 -0.322615 0.946419
vn 0.090182 -0.218588 0.971641
vn 0.078646 -0.065847 0.994726
vn 0.012895 -0.397956 0.917314
vn -0.000836 0.038751 0.999249
vn -0.022495 0.358991 0.933070
vn 0.010265 -0.360330 0.932768
vn 0.079763 -0.353820 0.931906
vn 0.002123 -0.337678 0.941259
vn 0.363173 -0.054345 0.930135
vn 0.380001 -0.136870 0.914804
vn 0.406492 0.002008 0.913652
vn -0.078308 0.274405 0.958421
vn -0.005705 0.339455 0.940605
vn 0.212398 -0.263948 0.940860
vn 0.416966 -0.038944 0.908088
vn 0.002727 -0.318812 0.947814
vn -0.043984 -0.075479 0.996177
vn 0.237658 -0.110078 0.965091
vn -0.028362 -0.385264 0.922370
vn -0.122485 -0.094925 0.987920
vn -0.061078 0.385678 0.920609
vn 0.353036 0.003038 0.935605
vn -0.154818 0.231805 0.960363
vn -0.146815 0.076011 0.986239
vn 0.110287 0.310396 0.944188
vn -0.381595 0.019513 0.924124
vn 0.390706 0.045678 0.919382
vn -0.181828 0.031702 0.982819
vn 0.208191 -0.364681 0.907559
vn -0.379889 -0.123477 0.916754
vn 0.245188 0.162350 0.955785
vn -0.235735 0.211689 0.948481
vn 0.007788 -0.176554 0.984260
vn -0.185290 0.025970 0.982341
vn -0.508887 -0.067866 0.858154
vn 0.174998 0.034001 0.983982
vn 0.210230 -0.466183 0.859347
vn 0.151329 -0.192100 0.969638
vn 0.002975 0.046361 0.998920
vn -0.394416 0.063073 0.916765
vn 0.205884 0.030189 0.978111
vn -0.000793 0.166472 0.986046
vn -0.163423 0.032772 0.986012
vn 0.000263 -0.225428 0.974260
vn 0.334450 0.019047 0.942221
vn -0.000223 -0.214268 0.976775
vn 0.336481 0.108894 0.935373
vn -0.011576 -0.436684 0.899540
vn -0.055049 0.402816 0.913624
vn 0.384989 0.021670 0.922667
vn 0.131497 -0.329227 0.935050
vn 0.001294 0.038010 0.999277
vn -0.099161 0.211446 0.972346
vn -0.000122 0.037931 0.999280
vn -0.006967 0.194208 0.980936
vn 0.019105 0.076067 0.996920
f 1/1/1 113/113/113 66/66/66
f 47/47/47 114/114/114 12/12/12
f 112/112/112 31/31/31 113/113/113
f 76/76/76 112/112/112 113/113/113
f 169/169/169 147/147/147 161/161/161
f 112/112/112 114/114/114 31/31/31
f 41/41/41 58/58/58 83/83/83
f 31/31/31 134/134/134 113/113/113
f 134/134/134 137/137/137 66/66/66
f 134/134/134 66/66/66 113/113/113
f 115/115/115 112/112/112 15/15/15
f 31/31/31 137/137/137 134/134/134
f 165/165/165 147/147/147 22/22/22
f 114/114/114 137/137/137 31/31/31
f 76/76/76 113/113/113 1/1/1
f 42/42/42 114/114/114 112/112/112
f 15/15/15 112/112/112 76/76/76
f 115/115/115 15/15/15 75/75/75
f 45/45/45 51/51/51 98/98/98
f 116/116/116 115/115/115 30/30/30
f 136/136/136 30/30/30 117/117/117
f 22/22/22 30/30/30 136/136/136
f 156/156/156 173/173/173 49/49/49
f 62/62/62 136/136/136 117/117/117
f 165/165/165 136/136/136 32/32/32
f 147/147/147 12/12/12 22/22/22
f 12/12/12 116/116/116 22/22/22
f 42/42/42 116/116/116 114/114/114
f 116/116/116 30/30/30 22/22/22
f 42/42/42 112/112/112 115/115/115
f 42/42/42 115/115/115 116/116/116
f 84/84/84 152/152/152 58/58/58
f 12/12/12 114/114/114 116/116/116
f 147/147/147 152/152/152 12/12/12
f 54/54/54 151/151/151 160/160/160
f 161/161/161 147/147/147 165/165/165
f 111/111/111 169/169/169 161/161/161
f 165/165/165 22/22/22 136/136/136
f 161/161/161 165/165/165 32/32/32
f 83/83/83 58/58/58 54/54/54
f 47/47/47 137/137/137 114/114/114
f 63/63/63 121/121/121 111/111/111
f 117/117/117 30/30/30 75/75/75
f 60/60/60 169/169/169 111/111/111
f 151/151/151 147/147/147 169/169/169
f 72/72/72 135/135/135 119/119/119
f 121/121/121 63/63/63 28/28/28
f 54/54/54 58/58/58 151/151/151
f 129/129/129 45/45/45 36/36/36
f 151/151/151 152/152/152 147/147/147
f 151/151/151 169/169/169 160/160/160
f 84/84/84 47/47/47 12/12/12
f 58/58/58 152/152/152 151/151/151
f 149/149/149 98/98/98 10/10/10
f 78/78/78 133/133/133 125/125/125
f 148/148/148 159/159/159 34/34/34
f 157/157/157 10/10/10 90/90/90
f 82/82/82 137/137/137 47/47/47
f 84/84/84 12/12/12 152/152/152
f 84/84/84 58/58/58 41/41/41
f 85/85/85 41/41/41 83/83/83
f 20/20/20 137/137/137 82/82/82
f 55/55/55 82/82/82 41/41/41
f 20/20/20 66/66/66 137/137/137
f 55/55/55 20/20/20 82/82/82
f 85/85/85 55/55/55 41/41/41
f 23/23/23 40/40/40 122/122/122
f 97/97/97 93/93/93 48/48/48
f 59/59/59 85/85/85 83/83/83
f 94/94/94 50/50/50 69/69/69
f 52/52/52 108/108/108 106/106/106
f 139/139/139 33/33/33 74/74/74
f 108/108/108 74/74/74 33/33/33
f 140/140/140 170/170/170 92/92/92
f 49/49/49 37/37/37 145/145/145
f 6/6/6 85/85/85 91/91/91
f 45/45/45 98/98/98 36/36/36
f 94/94/94 69/69/69 3/3/3
f 110/110/110 153/153/153 34/34/34
f 166/166/166 138/138/138 130/130/130
f 122/122/122 166/166/166 130/130/130
f 33/33/33 106/106/106 108/108/108
f 93/93/93 38/38/38 48/48/48
f 10/10/10 51/51/51 97/97/97
f 37/37/37 90/90/90 143/143/143
f 143/143/143 90/90/90 39/39/39
f 170/170/170 129/129/129 18/18/18
f 140/140/140 45/45/45 170/170/170
f 129/129/129 70/70/70 18/18/18
f 170/170/170 45/45/45 129/129/129
f 92/92/92 18/18/18 69/69/69
f 38/38/38 92/92/92 50/50/50
f 92/92/92 170/170/170 18/18/18
f 92/92/92 69/69/69 50/50/50
f 38/38/38 140/140/140 92/92/92
f 93/93/93 45/45/45 140/140/140
f 94/94/94 38/38/38 50/50/50
f 48/48/48 38/38/38 141/141/141
f 65/65/65 94/94/94 3/3/3
f 47/47/47 84/84/84 82/82/82
f 21/21/21 141/141/141 65/65/65
f 38/38/38 94/94/94 141/141/141
f 41/41/41 82/82/82 84/84/84
f 65/65/65 141/141/141 94/94/94
f 39/39/39 90/90/90 48/48/48
f 51/51/51 45/45/45 93/93/93
f 23/23/23 122/122/122 172/172/172
f 93/93/93 140/140/140 38/38/38
f 145/145/145 160/160/160 60/60/60
f 90/90/90 10/10/10 97/97/97
f 90/90/90 97/97/97 48/48/48
f 89/89/89 39/39/39 48/48/48
f 48/48/48 141/141/141 89/89/89
f 24/24/24 59/59/59 83/83/83
f 89/89/89 21/21/21 64/64/64
f 21/21/21 89/89/89 141/141/141
f 153/153/153 148/148/148 34/34/34
f 149/149/149 10/10/10 157/157/157
f 6/6/6 91/91/91 64/64/64
f 59/59/59 91/91/91 85/85/85
f 6/6/6 55/55/55 85/85/85
f 24/24/24 83/83/83 54/54/54
f 59/59/59 39/39/39 91/91/91
f 143/143/143 39/39/39 59/59/59
f 24/24/24 143/143/143 59/59/59
f 24/24/24 54/54/54 160/160/160
f 29/29/29 155/155/155 118/118/118
f 163/163/163 28/28/28 63/63/63
f 57/57/57 34/34/34 172/172/172
f 119/119/119 29/29/29 118/118/118
f 103/103/103 131/131/131 155/155/155
f 39/39/39 89/89/89 91/91/91
f 166/166/166 56/56/56 36/36/36
f 99/99/99 36/36/36 56/56/56
f 77/77/77 2/2/2 119/119/119
f 37/37/37 157/157/157 90/90/90
f 37/37/37 143/143/143 24/24/24
f 149/149/149 138/138/138 98/98/98
f 138/138/138 166/166/166 98/98/98
f 135/135/135 72/72/72 17/17/17
f 57/57/57 53/53/53 156/156/156
f 51/51/51 10/10/10 98/98/98
f 159/159/159 172/172/172 34/34/34
f 17/17/17 126/126/126 135/135/135
f 104/104/104 95/95/95 5/5/5
f 60/60/60 160/160/160 169/169/169
f 44/44/44 135/135/135 126/126/126
f 105/105/105 158/158/158 80/80/80
f 57/57/57 95/95/95 104/104/104
f 8/8/8 108/108/108 128/128/128
f 34/34/34 57/57/57 104/104/104
f 57/57/57 156/156/156 95/95/95
f 122/122/122 130/130/130 172/172/172
f 53/53/53 138/138/138 149/149/149
f 9/9/9 125/125/125 117/117/117
f 132/132/132 146/146/146 127/127/127
f 11/11/11 144/144/144 107/107/107
f 103/103/103 44/44/44 25/25/25
f 87/87/87 11/11/11 109/109/109
f 46/46/46 101/101/101 142/142/142
f 80/80/80 110/110/110 104/104/104
f 124/124/124 154/154/154 61/61/61
f 95/95/95 156/156/156 49/49/49
f 11/11/11 148/148/148 144/144/144
f 37/37/37 49/49/49 157/157/157
f 144/144/144 153/153/153 106/106/106
f 53/53/53 172/172/172 130/130/130
f 106/106/106 153/153/153 81/81/81
f 110/110/110 34/34/34 104/104/104
f 77/77/77 119/119/119 118/118/118
f 80/80/80 104/104/104 5/5/5
f 158/158/158 153/153/153 110/110/110
f 121/121/121 171/171/171 80/80/80
f 105/105/105 146/146/146 132/132/132
f 81/81/81 153/153/153 158/158/158
f 158/158/158 110/110/110 80/80/80
f 28/28/28 146/146/146 105/105/105
f 167/167/167 106/106/106 81/81/81
f 36/36/36 99/99/99 129/129/129
f 107/107/107 106/106/106 33/33/33
f 127/127/127 44/44/44 26/26/26
f 96/96/96 164/164/164 43/43/43
f 107/107/107 33/33/33 139/139/139
f 52/52/52 128/128/128 108/108/108
f 74/74/74 108/108/108 8/8/8
f 126/126/126 26/26/26 44/44/44
f 164/164/164 11/11/11 107/107/107
f 173/173/173 156/156/156 53/53/53
f 144/144/144 148/148/148 153/153/153
f 144/144/144 106/106/106 107/107/107
f 111/111/111 5/5/5 60/60/60
f 87/87/87 148/148/148 11/11/11
f 95/95/95 60/60/60 5/5/5
f 88/88/88 56/56/56 40/40/40
f 142/142/142 101/101/101 35/35/35
f 43/43/43 107/107/107 139/139/139
f 96/96/96 162/162/162 100/100/100
f 43/43/43 164/164/164 107/107/107
f 43/43/43 139/139/139 162/162/162
f 56/56/56 166/166/166 122/122/122
f 149/149/149 49/49/49 173/173/173
f 16/16/16 162/162/162 139/139/139
f 35/35/35 101/101/101 96/96/96
f 35/35/35 96/96/96 100/100/100
f 96/96/96 101/101/101 164/164/164
f 96/96/96 43/43/43 162/162/162
f 86/86/86 46/46/46 142/142/142
f 16/16/16 100/100/100 162/162/162
f 102/102/102 35/35/35 100/100/100
f 68/68/68 142/142/142 102/102/102
f 88/88/88 99/99/99 56/56/56
f 142/142/142 35/35/35 102/102/102
f 87/87/87 46/46/46 40/40/40
f 46/46/46 109/109/109 101/101/101
f 19/19/19 86/86/86 142/142/142
f 88/88/88 40/40/40 86/86/86
f 23/23/23 87/87/87 40/40/40
f 86/86/86 40/40/40 46/46/46
f 23/23/23 148/148/148 87/87/87
f 87/87/87 109/109/109 46/46/46
f 49/49/49 149/149/149 157/157/157
f 23/23/23 159/159/159 148/148/148
f 24/24/24 145/145/145 37/37/37
f 56/56/56 122/122/122 40/40/40
f 67/67/67 88/88/88 86/86/86
f 7/7/7 99/99/99 88/88/88
f 7/7/7 70/70/70 99/99/99
f 67/67/67 7/7/7 88/88/88
f 19/19/19 67/67/67 86/86/86
f 68/68/68 19/19/19 142/142/142
f 73/73/73 102/102/102 100/100/100
f 4/4/4 68/68/68 102/102/102
f 73/73/73 4/4/4 102/102/102
f 16/16/16 73/73/73 100/100/100
f 74/74/74 16/16/16 139/139/139
f 154/154/154 150/150/150 61/61/61
f 26/26/26 128/128/128 52/52/52
f 126/126/126 17/17/17 71/71/71
f 155/155/155 168/168/168 79/79/79
f 77/77/77 118/118/118 14/14/14
f 60/60/60 95/95/95 145/145/145
f 167/167/167 132/132/132 26/26/26
f 49/49/49 145/145/145 95/95/95
f 128/128/128 71/71/71 8/8/8
f 70/70/70 129/129/129 99/99/99
f 164/164/164 101/101/101 11/11/11
f 109/109/109 11/11/11 101/101/101
f 25/25/25 44/44/44 127/127/127
f 64/64/64 91/91/91 89/89/89
f 25/25/25 127/127/127 13/13/13
f 115/115/115 75/75/75 30/30/30
f 132/132/132 127/127/127 26/26/26
f 154/154/154 127/127/127 146/146/146
f 131/131/131 13/13/13 168/168/168
f 131/131/131 25/25/25 13/13/13
f 167/167/167 26/26/26 52/52/52
f 105/105/105 132/132/132 167/167/167
f 167/167/167 52/52/52 106/106/106
f 105/105/105 167/167/167 81/81/81
f 105/105/105 81/81/81 158/158/158
f 171/171/171 28/28/28 105/105/105
f 171/171/171 105/105/105 80/80/80
f 29/29/29 119/119/119 135/135/135
f 121/121/121 80/80/80 5/5/5
f 121/121/121 28/28/28 171/171/171
f 121/121/121 5/5/5 111/111/111
f 63/63/63 111/111/111 161/161/161
f 163/163/163 161/161/161 32/32/32
f 163/163/163 150/150/150 28/28/28
f 120/120/120 150/150/150 163/163/163
f 150/150/150 146/146/146 28/28/28
f 163/163/163 63/63/63 161/161/161
f 120/120/120 123/123/123 61/61/61
f 62/62/62 123/123/123 136/136/136
f 23/23/23 172/172/172 159/159/159
f 119/119/119 2/2/2 72/72/72
f 154/154/154 13/13/13 127/127/127
f 154/154/154 146/146/146 150/150/150
f 124/124/124 13/13/13 154/154/154
f 160/160/160 145/145/145 24/24/24
f 125/125/125 27/27/27 62/62/62
f 133/133/133 78/78/78 14/14/14
f 120/120/120 61/61/61 150/150/150
f 123/123/123 32/32/32 136/136/136
f 120/120/120 163/163/163 32/32/32
f 120/120/120 32/32/32 123/123/123
f 125/125/125 62/62/62 117/117/117
f 62/62/62 27/27/27 123/123/123
f 9/9/9 117/117/117 75/75/75
f 26/26/26 126/126/126 128/128/128
f 78/78/78 125/125/125 9/9/9
f 71/71/71 128/128/128 126/126/126
f 118/118/118 133/133/133 14/14/14
f 133/133/133 124/124/124 27/27/27
f 135/135/135 44/44/44 103/103/103
f 155/155/155 131/131/131 168/168/168
f 79/79/79 124/124/124 133/133/133
f 79/79/79 133/133/133 118/118/118
f 168/168/168 13/13/13 124/124/124
f 168/168/168 124/124/124 79/79/79
f 155/155/155 79/79/79 118/118/118
f 103/103/103 25/25/25 131/131/131
f 103/103/103 155/155/155 29/29/29
f 135/135/135 103/103/103 29/29/29
f 36/36/36 98/98/98 166/166/166
f 53/53/53 130/130/130 138/138/138
f 27/27/27 125/125/125 133/133/133
f 93/93/93 97/97/97 51/51/51
f 149/149/149 173/173/173 53/53/53
f 172/172/172 53/53/53 57/57/57
f 124/124/124 61/61/61 27/27/27
f 123/123/123 27/27/27 61/61/61
