# frame 000606 
# time 0.303500 
# name Cloth3D 
v -0.000000 0.000000 -0.000000
v 1.000000 0.000000 -0.000000
v -0.000000 1.000000 0.000000
v 1.000000 1.000000 0.000000
v 0.500490 0.499858 0.119657
v -0.000000 0.500000 0.000000
v 0.500000 1.000000 0.000000
v 1.000000 0.500000 0.000000
v 0.500000 -0.000000 0.000000
v 0.246830 0.753950 0.068693
v 0.756514 0.755424 0.075397
v 0.245490 0.244948 0.072347
v 0.754333 0.246153 0.070664
v 0.750000 0.000000 0.000000
v 0.250000 0.000000 0.000000
v 1.000000 0.750000 0.000000
v 1.000000 0.250000 0.000000
v 0.250000 1.000000 0.000000
v 0.750000 1.000000 0.000000
v 0.000000 0.250000 0.000000
v 0.000000 0.750000 -0.000000
v 0.362317 0.213434 0.083474
v 0.632328 0.774335 0.081298
v 1.000000 0.937500 0.000000
v 0.684422 0.701307 0.119929
v 0.876519 0.374467 0.044063
v 0.625449 0.123089 0.042236
v 0.631528 0.368347 0.119967
v 0.873282 0.127034 0.000450
v 0.374051 0.120192 0.049801
v 0.124273 0.123735 0.020659
v 0.491895 0.244358 0.094253
v 0.878721 0.626931 0.049344
v 0.631858 0.631605 0.119916
v 0.873252 0.872438 -0.002358
v 0.374107 0.876958 0.043685
v 0.257360 0.602511 0.092307
v 0.125275 0.874782 0.011652
v 0.123614 0.625206 0.040234
v 0.625381 0.874968 0.038591
v 0.123791 0.374093 0.039812
v 0.248469 0.120605 0.042040
v 0.876114 0.748901 0.028345
v 0.876200 0.249456 0.032226
v 0.249357 0.876384 0.032237
v 0.749662 0.873095 0.022443
v 0.123599 0.248726 0.033562
v 0.124821 0.750063 0.028064
v 0.725632 0.616216 0.119941
v 0.125057 0.937449 0.005529
v 0.552722 0.708334 0.119929
v 0.875083 0.500664 0.043317
v 0.425096 0.715130 0.119938
v 0.242935 0.453571 0.090695
v 0.000000 0.375000 0.000000
v 0.499537 0.874201 0.039594
v 0.500474 0.630784 0.119865
v 0.243874 0.370649 0.091232
v 0.122443 0.499650 0.045834
v 0.369782 0.499578 0.119842
v 0.628966 0.244187 0.091256
v 0.499708 0.123998 0.042302
v 0.500183 0.369304 0.119994
v 0.000000 0.625000 0.000000
v 0.000000 0.875000 0.000000
v 0.000000 0.125000 0.000000
v 0.625000 1.000000 0.000000
v 0.875000 1.000000 0.000000
v 0.125000 1.000000 0.000000
v 0.375000 1.000000 0.000000
v 1.000000 0.375000 0.000000
v 1.000000 0.125000 0.000000
v 1.000000 0.875000 0.000000
v 1.000000 0.625000 0.000000
v 0.375000 0.000000 0.000000
v 0.125000 0.000000 0.000000
v 0.875000 0.000000 0.000000
v 0.625000 0.000000 0.000000
v 0.749475 0.125231 0.025946
v 0.631324 0.500098 0.119908
v 0.718922 0.488167 0.119929
v 0.063238 0.312311 0.013916
v 0.183967 0.436025 0.067465
v 0.185038 0.310065 0.058247
v 0.061818 0.437268 0.020885
v 0.687046 0.935940 0.011369
v 0.689222 0.812374 0.053140
v 0.562291 0.936331 0.016921
v 0.062155 0.687301 0.017121
v 0.185005 0.689285 0.057477
v 0.061538 0.562353 0.021644
v 0.187535 0.937757 0.011189
v 0.186652 0.813561 0.035710
v 0.062891 0.937144 -0.003736
v 0.435137 0.565236 0.119787
v 0.873906 0.809967 0.010393
v 0.937500 0.000000 -0.000000
v 0.309665 0.817757 0.065970
v 0.437309 0.936922 0.018575
v 0.936687 0.811189 0.003215
v 0.813622 0.811779 0.030106
v 0.936900 0.936689 -0.003426
v 0.937500 1.000000 0.000000
v 0.566122 0.565561 0.119722
v 0.715481 0.423691 0.119929
v 0.823062 0.594356 0.069584
v 0.820433 0.692261 0.073568
v 0.938833 0.562908 0.024788
v 0.489672 0.711676 0.119934
v 0.691938 0.588524 0.119939
v 0.434819 0.434315 0.119721
v 0.186975 0.060574 0.018267
v 0.062427 0.062429 0.004498
v 0.186147 0.184952 0.040260
v 0.312087 0.059140 0.025927
v 0.309811 0.181521 0.066933
v 0.437099 0.062438 0.019565
v 0.811778 0.063362 0.005693
v 0.936840 0.063156 -0.006283
v 0.556041 0.242980 0.091969
v 0.565935 0.434362 0.119936
v 0.524997 0.804783 0.066802
v 0.563326 0.185130 0.065379
v 0.689614 0.184441 0.059495
v 0.562365 0.061726 0.021466
v 0.938198 0.312563 0.019497
v 0.816776 0.309950 0.064376
v 0.937024 0.437679 0.019917
v 0.312411 0.938166 0.018658
v 0.476623 0.767231 0.091128
v 0.812355 0.187731 0.030080
v 0.803944 0.370223 0.072149
v 0.687387 0.061201 0.020231
v 0.062954 0.124829 0.005428
v 0.937320 0.187777 0.009381
v 0.436132 0.184036 0.067484
v 0.062738 0.187272 0.010395
v 0.382785 0.773378 0.092199
v 0.941567 0.688020 0.027513
v 0.711451 0.359517 0.119929
v 0.063192 0.811948 0.006471
v 0.811827 0.936156 0.004519
v 0.183675 0.563061 0.068011
v 0.774886 0.655532 0.096496
v 0.327978 0.661040 0.119929
v 0.709006 0.299690 0.119942
v 0.309774 0.320987 0.119942
v 0.730227 0.699013 0.119942
v 0.330987 0.720226 0.119942
v 0.486089 0.311725 0.119929
v 0.314287 0.404384 0.119938
v 0.287299 0.324327 0.112379
v 0.324560 0.596991 0.119929
v 0.724186 0.290232 0.110325
v 0.936696 0.873766 -0.002187
v 0.433445 0.640925 0.119784
v 0.276010 0.662083 0.097626
v 0.722103 0.552606 0.119941
v 0.617354 0.704887 0.119929
v 0.317753 0.468926 0.119935
v 0.420579 0.315220 0.119929
v 0.358105 0.285671 0.110733
v 0.549357 0.308349 0.119929
v 0.321109 0.532303 0.119929
v 0.415568 0.250097 0.096302
v 0.423904 0.818651 0.068546
v 0.815019 0.481781 0.069373
v 1.000000 0.062500 -0.000000
v 0.369897 0.413562 0.119884
v 0.772969 0.422488 0.091718
v 0.240462 0.515290 0.090040
v 0.614561 0.304836 0.119936
v 1.000000 0.187500 0.000000
v 0.062500 0.000000 -0.000000
vt 0.000000 0.000000
vt 1.000000 0.000000
vt 0.000000 1.000000
vt 1.000000 1.000000
vt 0.500000 0.500000
vt 0.000000 0.500000
vt 0.500000 1.000000
vt 1.000000 0.500000
vt 0.500000 0.000000
vt 0.250000 0.750000
vt 0.750000 0.750000
vt 0.250000 0.250000
vt 0.750000 0.250000
vt 0.750000 0.000000
vt 0.250000 0.000000
vt 1.000000 0.750000
vt 1.000000 0.250000
vt 0.250000 1.000000
vt 0.750000 1.000000
vt 0.000000 0.250000
vt 0.000000 0.750000
vt 0.365347 0.220303
vt 0.629073 0.770824
vt 1.000000 0.937500
vt 0.674585 0.690383
vt 0.875000 0.375000
vt 0.625000 0.125000
vt 0.625000 0.375000
vt 0.875000 0.125000
vt 0.375000 0.125000
vt 0.125000 0.125000
vt 0.492214 0.250470
vt 0.875000 0.625000
vt 0.625000 0.625000
vt 0.875000 0.875000
vt 0.375000 0.875000
vt 0.262101 0.599801
vt 0.125000 0.875000
vt 0.125000 0.625000
vt 0.625000 0.875000
vt 0.125000 0.375000
vt 0.250000 0.125000
vt 0.875000 0.750000
vt 0.875000 0.250000
vt 0.250000 0.875000
vt 0.750000 0.875000
vt 0.125000 0.250000
vt 0.125000 0.750000
vt 0.714271 0.609909
vt 0.125000 0.937500
vt 0.550120 0.699013
vt 0.875000 0.500000
vt 0.428390 0.705266
vt 0.248222 0.455442
vt 0.000000 0.375000
vt 0.500000 0.875000
vt 0.500000 0.625000
vt 0.250000 0.375000
vt 0.125000 0.500000
vt 0.375000 0.500000
vt 0.625000 0.250000
vt 0.500000 0.125000
vt 0.500000 0.375000
vt 0.000000 0.625000
vt 0.000000 0.875000
vt 0.000000 0.125000
vt 0.625000 1.000000
vt 0.875000 1.000000
vt 0.125000 1.000000
vt 0.375000 1.000000
vt 1.000000 0.375000
vt 1.000000 0.125000
vt 1.000000 0.875000
vt 1.000000 0.625000
vt 0.375000 0.000000
vt 0.125000 0.000000
vt 0.875000 0.000000
vt 0.625000 0.000000
vt 0.750000 0.125000
vt 0.625000 0.500000
vt 0.708907 0.488373
vt 0.062500 0.312500
vt 0.187500 0.437500
vt 0.187500 0.312500
vt 0.062500 0.437500
vt 0.687500 0.937500
vt 0.687500 0.812500
vt 0.562500 0.937500
vt 0.062500 0.687500
vt 0.187500 0.687500
vt 0.062500 0.562500
vt 0.187500 0.937500
vt 0.187500 0.812500
vt 0.062500 0.937500
vt 0.437500 0.562500
vt 0.875000 0.812500
vt 0.937500 0.000000
vt 0.312500 0.812500
vt 0.437500 0.937500
vt 0.937500 0.812500
vt 0.812500 0.812500
vt 0.937500 0.937500
vt 0.937500 1.000000
vt 0.562500 0.562500
vt 0.705429 0.427341
vt 0.819332 0.591237
vt 0.812500 0.687500
vt 0.937500 0.562500
vt 0.489882 0.702202
vt 0.682510 0.583771
vt 0.437500 0.437500
vt 0.187500 0.062500
vt 0.062500 0.062500
vt 0.187500 0.187500
vt 0.312500 0.062500
vt 0.312500 0.187500
vt 0.437500 0.062500
vt 0.812500 0.062500
vt 0.937500 0.062500
vt 0.554454 0.248535
vt 0.562500 0.437500
vt 0.525016 0.804189
vt 0.562500 0.187500
vt 0.687500 0.187500
vt 0.562500 0.062500
vt 0.937500 0.312500
vt 0.812500 0.312500
vt 0.937500 0.437500
vt 0.312500 0.937500
vt 0.477574 0.762067
vt 0.812500 0.187500
vt 0.800716 0.372483
vt 0.687500 0.062500
vt 0.062500 0.125000
vt 0.937500 0.187500
vt 0.437500 0.187500
vt 0.062500 0.187500
vt 0.386728 0.766561
vt 0.937500 0.687500
vt 0.701263 0.367037
vt 0.062500 0.812500
vt 0.812500 0.937500
vt 0.187500 0.562500
vt 0.765906 0.648544
vt 0.335810 0.653722
vt 0.697531 0.311523
vt 0.319606 0.330751
vt 0.717416 0.686322
vt 0.339772 0.709042
vt 0.486692 0.319712
vt 0.322392 0.409111
vt 0.296906 0.332149
vt 0.331725 0.593047
vt 0.713437 0.300753
vt 0.937500 0.875000
vt 0.436137 0.634590
vt 0.281585 0.657008
vt 0.711773 0.549687
vt 0.611629 0.695072
vt 0.325222 0.470704
vt 0.424109 0.323228
vt 0.364019 0.294291
vt 0.547181 0.316761
vt 0.328255 0.531337
vt 0.418341 0.256674
vt 0.425703 0.815414
vt 0.812755 0.481587
vt 1.000000 0.062500
vt 0.375653 0.417988
vt 0.766844 0.424637
vt 0.245672 0.515386
vt 0.609282 0.314063
vt 1.000000 0.187500
vt 0.062500 0.000000
vn -0.026211 -0.052422 0.998281
vn -0.048328 0.048328 0.997662
vn 0.029450 -0.029450 0.999132
vn -0.029048 -0.029048 0.999156
vn -0.000396 0.000556 1.000000
vn -0.327392 -0.003289 0.944883
vn 0.006411 0.270556 0.962683
vn 0.341713 -0.019664 0.939598
vn -0.009285 -0.315597 0.948848
vn -0.336797 0.231794 0.912600
vn 0.256492 0.466460 0.846538
vn -0.289397 -0.230715 0.928989
vn 0.357197 -0.383673 0.851590
vn 0.056123 -0.203311 0.977504
vn -0.029153 -0.351390 0.935775
vn 0.231416 0.098009 0.967905
vn 0.215887 -0.031668 0.975905
vn -0.028305 0.239189 0.970560
vn 0.028239 0.127989 0.991374
vn -0.195669 -0.011886 0.980598
vn -0.188563 0.041519 0.981183
vn -0.037212 -0.343036 0.938585
vn 0.074415 0.458209 0.885724
vn -0.058136 0.000000 0.998309
vn 0.025377 0.258873 0.965578
vn 0.362181 -0.028067 0.931685
vn 0.045353 -0.321300 0.945891
vn 0.000129 -0.000065 1.000000
vn 0.109909 -0.146234 0.983126
vn 0.017367 -0.351158 0.936155
vn -0.201457 -0.102955 0.974072
vn 0.007273 -0.386177 0.922396
vn 0.353684 -0.035113 0.934705
vn -0.000488 -0.000676 1.000000
vn 0.112128 0.110874 0.987489
vn -0.021958 0.391048 0.920108
vn -0.363873 0.044005 0.930408
vn -0.161974 0.123911 0.978984
vn -0.335170 0.064057 0.939977
vn 0.069107 0.358579 0.930938
vn -0.350096 -0.055951 0.935041
vn -0.126028 -0.260106 0.957320
vn 0.269223 0.292959 0.917439
vn 0.255300 -0.173181 0.951226
vn -0.134663 0.282290 0.949831
vn 0.139056 0.259773 0.955605
vn -0.289174 -0.075642 0.954283
vn -0.279387 0.112322 0.953586
vn 0.179052 -0.011804 0.983769
vn -0.122215 0.098759 0.987578
vn 0.015003 0.239435 0.970796
vn 0.365101 -0.023315 0.930676
vn 0.016139 0.249322 0.968286
vn -0.365002 -0.001964 0.931005
vn -0.270433 -0.027205 0.962354
vn 0.034801 0.363027 0.931128
vn -0.000597 -0.001009 0.999999
vn -0.411506 -0.008605 0.911367
vn -0.357403 -0.004254 0.933941
vn 0.001647 0.000027 0.999999
vn 0.019997 -0.434762 0.900323
vn 0.017424 -0.351984 0.935844
vn -0.000652 0.000277 1.000000
vn -0.301222 0.017287 0.953397
vn -0.024137 0.041820 0.998834
vn -0.103449 -0.031704 0.994129
vn 0.019788 0.220904 0.975095
vn 0.026318 -0.006193 0.999634
vn -0.081732 0.085613 0.992970
vn 0.002744 0.287741 0.957704
vn 0.306230 0.000327 0.951958
vn 0.028208 -0.042116 0.998714
vn -0.029459 0.030431 0.999103
vn 0.401004 -0.013051 0.915983
vn 0.028424 -0.366982 0.929794
vn -0.044598 -0.167170 0.984919
vn 0.038302 0.021195 0.999041
vn 0.005848 -0.321915 0.946751
vn 0.165935 -0.262200 0.950640
vn -0.000926 0.000653 0.999999
vn 0.229397 -0.009298 0.973288
vn -0.285022 -0.030933 0.958022
vn -0.370810 -0.027855 0.928291
vn -0.373045 -0.098293 0.922592
vn -0.329940 -0.028637 0.943567
vn 0.055864 0.238100 0.969633
vn 0.149710 0.409980 0.899724
vn 0.014418 0.299192 0.954084
vn -0.267334 0.053479 0.962119
vn -0.347941 0.114018 0.930557
vn -0.332610 0.018606 0.942881
vn -0.078792 0.162546 0.983550
vn -0.236541 0.203865 0.949993
vn -0.070543 0.044287 0.996525
vn 0.000646 -0.000501 1.000000
vn 0.209048 0.244483 0.946851
vn 0.000000 0.096423 0.995340
vn -0.153432 0.395951 0.905363
vn 0.014165 0.325265 0.945517
vn 0.073990 0.140429 0.987322
vn 0.268516 0.309202 0.912301
vn -0.012839 -0.012183 0.999843
vn 0.000000 -0.057957 0.998319
vn -0.000882 -0.000812 0.999999
vn 0.271809 -0.016423 0.962211
vn 0.408574 -0.035952 0.912017
vn 0.415353 0.142037 0.898503
vn 0.353025 -0.030536 0.935115
vn 0.013709 0.247395 0.968818
vn -0.000325 -0.000036 1.000000
vn 0.000688 0.001119 0.999999
vn -0.084555 -0.251588 0.964134
vn -0.088708 -0.058819 0.994319
vn -0.237328 -0.152583 0.959372
vn -0.024228 -0.359574 0.932802
vn -0.113508 -0.288739 0.950655
vn 0.035400 -0.353434 0.934789
vn 0.103290 -0.105872 0.989001
vn -0.014863 0.009772 0.999842
vn 0.017189 -0.406928 0.913299
vn -0.000858 0.001515 0.999999
vn 0.042032 0.436455 0.898744
vn 0.021332 -0.389716 0.920688
vn 0.120690 -0.394945 0.910743
vn -0.001353 -0.323094 0.946366
vn 0.298350 -0.042092 0.953528
vn 0.391391 -0.129172 0.911114
vn 0.333871 -0.007213 0.942591
vn -0.034048 0.296106 0.954548
vn 0.046695 0.466453 0.883312
vn 0.244613 -0.280922 0.928034
vn 0.417802 -0.034030 0.907900
vn 0.062581 -0.264609 0.962323
vn -0.169609 -0.047245 0.984378
vn 0.136198 -0.093027 0.986304
vn 0.038372 -0.368928 0.928666
vn -0.207749 -0.056789 0.976532
vn 0.014027 0.447566 0.894141
vn 0.347175 0.087815 0.933680
vn 0.230766 -0.018256 0.972838
vn -0.165787 0.072910 0.983463
vn 0.081304 0.078675 0.993579
vn -0.353734 0.040854 0.934454
vn 0.456073 -0.022309 0.889663
vn -0.252893 0.013589 0.967399
vn 0.335452 -0.247274 0.909025
vn -0.282142 -0.267874 0.921216
vn 0.199650 0.250242 0.947375
vn -0.191231 0.201119 0.960719
vn -0.006852 -0.165119 0.986250
vn -0.173286 0.009980 0.984821
vn -0.348047 -0.180588 0.919919
vn -0.232554 0.015795 0.972455
vn 0.385932 -0.301488 0.871872
vn -0.020809 0.054429 0.998301
vn -0.000159 -0.000836 1.000000
vn -0.395155 0.057139 0.916836
vn 0.157013 -0.009332 0.987552
vn 0.013323 0.238476 0.971057
vn -0.151492 0.006254 0.988439
vn -0.002699 -0.208255 0.978071
vn -0.054939 -0.344773 0.937077
vn -0.005830 -0.217262 0.976096
vn -0.164409 0.012140 0.986318
vn 0.011761 -0.362681 0.931839
vn 0.048110 0.425759 0.903557
vn 0.431560 -0.013054 0.901990
vn -0.096441 -0.000000 0.995339
vn 0.001430 0.000473 0.999999
vn 0.463908 -0.027049 0.885471
vn -0.353864 0.013712 0.935196
vn -0.005270 -0.224343 0.974496
vn 0.154374 0.000000 0.988013
vn -0.000000 -0.078528 0.996912
f 129/129/129 99/99/99 70/70/70
f 112/112/112 31/31/31 113/113/113
f 170/170/170 132/132/132 167/167/167
f 26/26/26 167/167/167 132/132/132
f 38/38/38 141/141/141 93/93/93
f 160/160/160 54/54/54 151/151/151
f 173/173/173 17/17/17 135/135/135
f 129/129/129 36/36/36 99/99/99
f 114/114/114 47/47/47 31/31/31
f 152/152/152 12/12/12 162/162/162
f 11/11/11 25/25/25 148/148/148
f 80/80/80 110/110/110 104/104/104
f 115/115/115 112/112/112 15/15/15
f 163/163/163 172/172/172 28/28/28
f 114/114/114 42/42/42 12/12/12
f 76/76/76 112/112/112 113/113/113
f 58/58/58 151/151/151 54/54/54
f 15/15/15 112/112/112 76/76/76
f 115/115/115 15/15/15 75/75/75
f 20/20/20 137/137/137 82/82/82
f 88/88/88 56/56/56 40/40/40
f 148/148/148 25/25/25 49/49/49
f 22/22/22 30/30/30 136/136/136
f 47/47/47 82/82/82 137/137/137
f 16/16/16 73/73/73 100/100/100
f 165/165/165 22/22/22 136/136/136
f 21/21/21 64/64/64 89/89/89
f 83/83/83 58/58/58 54/54/54
f 57/57/57 95/95/95 104/104/104
f 116/116/116 30/30/30 22/22/22
f 42/42/42 112/112/112 115/115/115
f 117/117/117 62/62/62 30/30/30
f 140/140/140 105/105/105 28/28/28
f 155/155/155 100/100/100 73/73/73
f 129/129/129 70/70/70 18/18/18
f 63/63/63 28/28/28 121/121/121
f 165/165/165 162/162/162 22/22/22
f 114/114/114 31/31/31 42/42/42
f 150/150/150 165/165/165 32/32/32
f 37/37/37 153/153/153 157/157/157
f 164/164/164 153/153/153 37/37/37
f 149/149/149 138/138/138 98/98/98
f 61/61/61 172/172/172 120/120/120
f 139/139/139 16/16/16 43/43/43
f 32/32/32 165/165/165 136/136/136
f 143/143/143 39/39/39 59/59/59
f 51/51/51 159/159/159 23/23/23
f 142/142/142 46/46/46 35/35/35
f 78/78/78 125/125/125 9/9/9
f 121/121/121 80/80/80 5/5/5
f 60/60/60 95/95/95 153/153/153
f 144/144/144 107/107/107 148/148/148
f 9/9/9 125/125/125 117/117/117
f 130/130/130 53/53/53 109/109/109
f 162/162/162 165/165/165 161/161/161
f 64/64/64 91/91/91 89/89/89
f 60/60/60 169/169/169 111/111/111
f 50/50/50 92/92/92 69/69/69
f 63/63/63 161/161/161 150/150/150
f 25/25/25 159/159/159 34/34/34
f 81/81/81 170/170/170 167/167/167
f 25/25/25 34/34/34 49/49/49
f 84/84/84 152/152/152 58/58/58
f 51/51/51 109/109/109 57/57/57
f 34/34/34 159/159/159 51/51/51
f 11/11/11 148/148/148 107/107/107
f 5/5/5 104/104/104 95/95/95
f 23/23/23 87/87/87 40/40/40
f 38/38/38 94/94/94 141/141/141
f 29/29/29 119/119/119 135/135/135
f 72/72/72 135/135/135 119/119/119
f 84/84/84 12/12/12 152/152/152
f 100/100/100 43/43/43 16/16/16
f 13/13/13 154/154/154 124/124/124
f 14/14/14 118/118/118 133/133/133
f 56/56/56 122/122/122 40/40/40
f 65/65/65 141/141/141 94/94/94
f 20/20/20 66/66/66 137/137/137
f 55/55/55 20/20/20 82/82/82
f 59/59/59 91/91/91 85/85/85
f 65/65/65 21/21/21 141/141/141
f 6/6/6 85/85/85 91/91/91
f 137/137/137 31/31/31 47/47/47
f 58/58/58 83/83/83 84/84/84
f 3/3/3 65/65/65 94/94/94
f 55/55/55 82/82/82 85/85/85
f 92/92/92 18/18/18 69/69/69
f 124/124/124 154/154/154 61/61/61
f 127/127/127 44/44/44 26/26/26
f 167/167/167 106/106/106 158/158/158
f 126/126/126 26/26/26 44/44/44
f 106/106/106 167/167/167 52/52/52
f 157/157/157 90/90/90 37/37/37
f 124/124/124 79/79/79 13/13/13
f 101/101/101 11/11/11 43/43/43
f 81/81/81 167/167/167 158/158/158
f 58/58/58 152/152/152 151/151/151
f 164/164/164 171/171/171 160/160/160
f 155/155/155 35/35/35 100/100/100
f 156/156/156 145/145/145 153/153/153
f 162/162/162 12/12/12 22/22/22
f 116/116/116 22/22/22 12/12/12
f 118/118/118 29/29/29 79/79/79
f 40/40/40 86/86/86 88/88/88
f 149/149/149 98/98/98 10/10/10
f 131/131/131 79/79/79 29/29/29
f 26/26/26 128/128/128 52/52/52
f 23/23/23 11/11/11 87/87/87
f 97/97/97 119/119/119 77/77/77
f 145/145/145 53/53/53 149/149/149
f 41/41/41 84/84/84 83/83/83
f 169/169/169 151/151/151 147/147/147
f 168/168/168 72/72/72 119/119/119
f 169/169/169 60/60/60 160/160/160
f 56/56/56 88/88/88 99/99/99
f 7/7/7 99/99/99 88/88/88
f 164/164/164 160/160/160 60/60/60
f 122/122/122 130/130/130 51/51/51
f 163/163/163 120/120/120 172/172/172
f 169/169/169 147/147/147 161/161/161
f 23/23/23 25/25/25 11/11/11
f 96/96/96 100/100/100 35/35/35
f 1/1/1 174/174/174 113/113/113
f 25/25/25 23/23/23 159/159/159
f 48/48/48 141/141/141 89/89/89
f 21/21/21 89/89/89 141/141/141
f 49/49/49 144/144/144 148/148/148
f 109/109/109 51/51/51 130/130/130
f 6/6/6 91/91/91 64/64/64
f 63/63/63 111/111/111 161/161/161
f 32/32/32 136/136/136 123/123/123
f 6/6/6 55/55/55 85/85/85
f 154/154/154 127/127/127 132/132/132
f 155/155/155 102/102/102 35/35/35
f 143/143/143 90/90/90 39/39/39
f 102/102/102 155/155/155 73/73/73
f 110/110/110 49/49/49 34/34/34
f 160/160/160 151/151/151 169/169/169
f 107/107/107 144/144/144 106/106/106
f 111/111/111 169/169/169 161/161/161
f 87/87/87 46/46/46 40/40/40
f 144/144/144 49/49/49 106/106/106
f 111/111/111 63/63/63 5/5/5
f 150/150/150 161/161/161 165/165/165
f 125/125/125 27/27/27 62/62/62
f 72/72/72 173/173/173 135/135/135
f 37/37/37 90/90/90 143/143/143
f 37/37/37 143/143/143 171/171/171
f 97/97/97 2/2/2 119/119/119
f 157/157/157 10/10/10 90/90/90
f 92/92/92 38/38/38 45/45/45
f 49/49/49 158/158/158 106/106/106
f 145/145/145 157/157/157 153/153/153
f 34/34/34 51/51/51 57/57/57
f 119/119/119 29/29/29 118/118/118
f 90/90/90 48/48/48 39/39/39
f 105/105/105 170/170/170 81/81/81
f 110/110/110 80/80/80 158/158/158
f 156/156/156 57/57/57 109/109/109
f 156/156/156 53/53/53 145/145/145
f 44/44/44 127/127/127 131/131/131
f 93/93/93 45/45/45 38/38/38
f 123/123/123 62/62/62 27/27/27
f 5/5/5 95/95/95 111/111/111
f 95/95/95 57/57/57 156/156/156
f 163/163/163 150/150/150 32/32/32
f 60/60/60 111/111/111 95/95/95
f 133/133/133 79/79/79 27/27/27
f 124/124/124 27/27/27 79/79/79
f 146/146/146 172/172/172 61/61/61
f 34/34/34 57/57/57 104/104/104
f 145/145/145 149/149/149 157/157/157
f 9/9/9 117/117/117 75/75/75
f 78/78/78 133/133/133 125/125/125
f 42/42/42 115/115/115 116/116/116
f 95/95/95 156/156/156 153/153/153
f 82/82/82 47/47/47 41/41/41
f 10/10/10 98/98/98 93/93/93
f 83/83/83 54/54/54 171/171/171
f 96/96/96 43/43/43 100/100/100
f 37/37/37 171/171/171 164/164/164
f 77/77/77 119/119/119 118/118/118
f 94/94/94 69/69/69 3/3/3
f 45/45/45 93/93/93 98/98/98
f 91/91/91 59/59/59 39/39/39
f 84/84/84 41/41/41 47/47/47
f 138/138/138 149/149/149 53/53/53
f 112/112/112 42/42/42 31/31/31
f 63/63/63 163/163/163 28/28/28
f 163/163/163 63/63/63 150/150/150
f 167/167/167 26/26/26 52/52/52
f 136/136/136 30/30/30 62/62/62
f 129/129/129 45/45/45 36/36/36
f 154/154/154 132/132/132 140/140/140
f 80/80/80 104/104/104 5/5/5
f 27/27/27 124/124/124 123/123/123
f 30/30/30 116/116/116 115/115/115
f 53/53/53 130/130/130 138/138/138
f 120/120/120 123/123/123 61/61/61
f 43/43/43 107/107/107 139/139/139
f 81/81/81 158/158/158 80/80/80
f 61/61/61 123/123/123 124/124/124
f 33/33/33 52/52/52 108/108/108
f 166/166/166 36/36/36 138/138/138
f 139/139/139 33/33/33 108/108/108
f 12/12/12 84/84/84 114/114/114
f 33/33/33 106/106/106 52/52/52
f 83/83/83 59/59/59 41/41/41
f 98/98/98 138/138/138 36/36/36
f 103/103/103 68/68/68 102/102/102
f 107/107/107 106/106/106 33/33/33
f 47/47/47 114/114/114 84/84/84
f 158/158/158 49/49/49 110/110/110
f 46/46/46 87/87/87 101/101/101
f 89/89/89 39/39/39 48/48/48
f 166/166/166 138/138/138 130/130/130
f 116/116/116 12/12/12 42/42/42
f 140/140/140 170/170/170 105/105/105
f 149/149/149 10/10/10 157/157/157
f 54/54/54 160/160/160 171/171/171
f 154/154/154 140/140/140 146/146/146
f 140/140/140 132/132/132 170/170/170
f 135/135/135 44/44/44 29/29/29
f 74/74/74 139/139/139 108/108/108
f 4/4/4 103/103/103 102/102/102
f 7/7/7 70/70/70 99/99/99
f 131/131/131 29/29/29 44/44/44
f 90/90/90 10/10/10 48/48/48
f 68/68/68 142/142/142 102/102/102
f 19/19/19 86/86/86 142/142/142
f 142/142/142 35/35/35 102/102/102
f 92/92/92 50/50/50 38/38/38
f 31/31/31 134/134/134 113/113/113
f 46/46/46 142/142/142 86/86/86
f 107/107/107 43/43/43 11/11/11
f 56/56/56 166/166/166 122/122/122
f 11/11/11 101/101/101 87/87/87
f 98/98/98 36/36/36 45/45/45
f 105/105/105 81/81/81 80/80/80
f 152/152/152 162/162/162 147/147/147
f 48/48/48 93/93/93 141/141/141
f 122/122/122 51/51/51 23/23/23
f 66/66/66 1/1/1 113/113/113
f 113/113/113 134/134/134 66/66/66
f 2/2/2 168/168/168 119/119/119
f 131/131/131 13/13/13 79/79/79
f 117/117/117 30/30/30 75/75/75
f 115/115/115 75/75/75 30/30/30
f 67/67/67 7/7/7 88/88/88
f 19/19/19 67/67/67 86/86/86
f 68/68/68 19/19/19 142/142/142
f 93/93/93 48/48/48 10/10/10
f 161/161/161 147/147/147 162/162/162
f 24/24/24 4/4/4 102/102/102
f 73/73/73 24/24/24 102/102/102
f 41/41/41 85/85/85 82/82/82
f 74/74/74 16/16/16 139/139/139
f 8/8/8 74/74/74 108/108/108
f 33/33/33 139/139/139 107/107/107
f 8/8/8 108/108/108 128/128/128
f 86/86/86 40/40/40 46/46/46
f 146/146/146 28/28/28 172/172/172
f 96/96/96 35/35/35 101/101/101
f 121/121/121 5/5/5 63/63/63
f 52/52/52 128/128/128 108/108/108
f 128/128/128 71/71/71 8/8/8
f 85/85/85 41/41/41 59/59/59
f 50/50/50 94/94/94 38/38/38
f 126/126/126 17/17/17 71/71/71
f 62/62/62 117/117/117 125/125/125
f 26/26/26 126/126/126 128/128/128
f 39/39/39 89/89/89 91/91/91
f 71/71/71 128/128/128 126/126/126
f 132/132/132 127/127/127 26/26/26
f 44/44/44 135/135/135 126/126/126
f 174/174/174 76/76/76 113/113/113
f 171/171/171 143/143/143 83/83/83
f 43/43/43 96/96/96 101/101/101
f 27/27/27 125/125/125 133/133/133
f 101/101/101 35/35/35 46/46/46
f 62/62/62 123/123/123 136/136/136
f 146/146/146 61/61/61 154/154/154
f 66/66/66 134/134/134 137/137/137
f 17/17/17 126/126/126 135/135/135
f 79/79/79 133/133/133 118/118/118
f 67/67/67 88/88/88 86/86/86
f 34/34/34 104/104/104 110/110/110
f 120/120/120 163/163/163 32/32/32
f 134/134/134 31/31/31 137/137/137
f 77/77/77 118/118/118 14/14/14
f 60/60/60 153/153/153 164/164/164
f 18/18/18 92/92/92 129/129/129
f 59/59/59 83/83/83 143/143/143
f 14/14/14 133/133/133 78/78/78
f 13/13/13 131/131/131 127/127/127
f 154/154/154 13/13/13 127/127/127
f 45/45/45 129/129/129 92/92/92
f 121/121/121 28/28/28 80/80/80
f 28/28/28 105/105/105 80/80/80
f 94/94/94 50/50/50 69/69/69
f 109/109/109 53/53/53 156/156/156
f 140/140/140 28/28/28 146/146/146
f 147/147/147 151/151/151 152/152/152
f 130/130/130 122/122/122 166/166/166
f 123/123/123 120/120/120 32/32/32
f 122/122/122 23/23/23 40/40/40
f 56/56/56 99/99/99 166/166/166
f 36/36/36 166/166/166 99/99/99
