# frame 000610 
# time 0.305500 
# name Cloth3D 
v -0.000000 0.000000 -0.000000
v 1.000000 0.000000 -0.000000
v -0.000000 1.000000 0.000000
v 1.000000 1.000000 0.000000
v 0.500515 0.499935 0.119657
v -0.000000 0.500000 0.000000
v 0.500000 1.000000 0.000000
v 1.000000 0.500000 0.000000
v 0.500000 -0.000000 0.000000
v 0.246947 0.753769 0.067358
v 0.756478 0.755143 0.074792
v 0.246005 0.245422 0.070620
v 0.754788 0.245677 0.070805
v 0.750000 0.000000 0.000000
v 0.250000 0.000000 0.000000
v 1.000000 0.750000 0.000000
v 1.000000 0.250000 0.000000
v 0.250000 1.000000 0.000000
v 0.750000 1.000000 0.000000
v 0.000000 0.250000 0.000000
v 0.000000 0.750000 -0.000000
v 0.362535 0.213565 0.083120
v 0.632272 0.773884 0.080168
v 1.000000 0.937500 0.000000
v 0.684522 0.702848 0.119929
v 0.876006 0.374604 0.042222
v 0.625441 0.122714 0.043456
v 0.631789 0.368361 0.119967
v 0.873112 0.127036 -0.000846
v 0.374158 0.120617 0.048696
v 0.124686 0.124138 0.017885
v 0.491961 0.244552 0.093563
v 0.878603 0.627023 0.048625
v 0.631814 0.631845 0.119916
v 0.873527 0.872523 -0.001218
v 0.374162 0.877030 0.043305
v 0.257685 0.602565 0.091185
v 0.125845 0.874322 0.008195
v 0.123810 0.625177 0.039375
v 0.625365 0.874552 0.037043
v 0.123648 0.374085 0.039821
v 0.248536 0.120860 0.041334
v 0.875856 0.748482 0.027200
v 0.875791 0.249669 0.030057
v 0.249636 0.876129 0.030599
v 0.749578 0.872769 0.020689
v 0.123677 0.248817 0.032468
v 0.125092 0.749931 0.026531
v 0.724478 0.616484 0.119941
v 0.125400 0.937153 0.003056
v 0.552592 0.708566 0.119929
v 0.875081 0.500775 0.043046
v 0.424844 0.714089 0.119938
v 0.243252 0.453594 0.089745
v 0.000000 0.375000 0.000000
v 0.499501 0.874193 0.039320
v 0.500335 0.630901 0.119865
v 0.243974 0.370699 0.090750
v 0.123042 0.499646 0.044179
v 0.369755 0.499627 0.119842
v 0.629363 0.243435 0.092359
v 0.499852 0.124178 0.041653
v 0.500329 0.369297 0.119994
v 0.000000 0.625000 0.000000
v 0.000000 0.875000 0.000000
v 0.000000 0.125000 0.000000
v 0.625000 1.000000 0.000000
v 0.875000 1.000000 0.000000
v 0.125000 1.000000 0.000000
v 0.375000 1.000000 0.000000
v 1.000000 0.375000 0.000000
v 1.000000 0.125000 0.000000
v 1.000000 0.875000 0.000000
v 1.000000 0.625000 0.000000
v 0.375000 0.000000 0.000000
v 0.125000 0.000000 0.000000
v 0.875000 0.000000 0.000000
v 0.625000 0.000000 0.000000
v 0.749346 0.125479 0.024487
v 0.631440 0.500201 0.119908
v 0.719043 0.488253 0.119929
v 0.063332 0.312409 0.013308
v 0.184388 0.436033 0.066173
v 0.184976 0.310143 0.057816
v 0.061876 0.437278 0.020617
v 0.686990 0.935632 0.009611
v 0.689512 0.812867 0.053831
v 0.562259 0.936371 0.016750
v 0.062377 0.687261 0.016285
v 0.185425 0.689130 0.055711
v 0.061681 0.562354 0.021188
v 0.187771 0.937471 0.009350
v 0.187096 0.813214 0.033260
v 0.062921 0.937094 -0.003734
v 0.435050 0.565289 0.119787
v 0.873953 0.809910 0.010458
v 0.937500 0.000000 -0.000000
v 0.309946 0.817099 0.063974
v 0.437315 0.937084 0.018695
v 0.936747 0.811159 0.003645
v 0.813607 0.811655 0.029832
v 0.936957 0.936711 -0.002516
v 0.937500 1.000000 0.000000
v 0.566079 0.565731 0.119722
v 0.716242 0.423651 0.119929
v 0.823216 0.594468 0.069587
v 0.820609 0.692295 0.073481
v 0.938590 0.562985 0.023936
v 0.489473 0.711279 0.119934
v 0.691950 0.588748 0.119939
v 0.434868 0.434352 0.119721
v 0.187180 0.061046 0.016305
v 0.062591 0.062582 0.002797
v 0.186367 0.185302 0.038945
v 0.312152 0.059493 0.025130
v 0.309960 0.181672 0.066648
v 0.437247 0.062225 0.020076
v 0.811633 0.063461 0.004438
v 0.936827 0.063101 -0.006857
v 0.556218 0.242962 0.091689
v 0.566108 0.434378 0.119936
v 0.524952 0.804666 0.066290
v 0.563403 0.185420 0.064567
v 0.689746 0.184410 0.058705
v 0.562446 0.062120 0.020314
v 0.937788 0.312669 0.018002
v 0.816642 0.309953 0.063070
v 0.936789 0.437755 0.018989
v 0.312536 0.937988 0.017642
v 0.476469 0.766279 0.089117
v 0.812078 0.188010 0.028096
v 0.804017 0.370150 0.071737
v 0.687465 0.061085 0.020819
v 0.063046 0.124990 0.004092
v 0.937028 0.187877 0.007708
v 0.436279 0.184260 0.066723
v 0.063062 0.187476 0.008231
v 0.382781 0.773452 0.091887
v 0.941716 0.688046 0.027617
v 0.712854 0.359442 0.119929
v 0.063370 0.811828 0.005073
v 0.811831 0.936108 0.003852
v 0.184127 0.563051 0.066686
v 0.774384 0.655681 0.095157
v 0.326576 0.661266 0.119929
v 0.711099 0.301591 0.119942
v 0.311675 0.318894 0.119942
v 0.728326 0.701106 0.119942
v 0.328894 0.718325 0.119942
v 0.486189 0.311482 0.119929
v 0.315445 0.404319 0.119938
v 0.287404 0.324338 0.111898
v 0.323795 0.597120 0.119929
v 0.724412 0.290043 0.110299
v 0.936819 0.873734 -0.002557
v 0.433265 0.640996 0.119784
v 0.275928 0.662185 0.097260
v 0.721584 0.552817 0.119941
v 0.617312 0.705763 0.119929
v 0.318266 0.468927 0.119935
v 0.420612 0.314323 0.119929
v 0.358129 0.285234 0.111854
v 0.549521 0.308738 0.119929
v 0.320990 0.532364 0.119929
v 0.415662 0.250438 0.095401
v 0.424021 0.818994 0.069126
v 0.815082 0.481896 0.069234
v 1.000000 0.062500 -0.000000
v 0.369925 0.413556 0.119884
v 0.772707 0.422489 0.090762
v 0.241132 0.515302 0.088173
v 0.614851 0.305873 0.119936
v 1.000000 0.812500 0.000000
v 0.062500 0.000000 -0.000000
vt 0.000000 0.000000
vt 1.000000 0.000000
vt 0.000000 1.000000
vt 1.000000 1.000000
vt 0.500000 0.500000
vt 0.000000 0.500000
vt 0.500000 1.000000
vt 1.000000 0.500000
vt 0.500000 0.000000
vt 0.250000 0.750000
vt 0.750000 0.750000
vt 0.250000 0.250000
vt 0.750000 0.250000
vt 0.750000 0.000000
vt 0.250000 0.000000
vt 1.000000 0.750000
vt 1.000000 0.250000
vt 0.250000 1.000000
vt 0.750000 1.000000
vt 0.000000 0.250000
vt 0.000000 0.750000
vt 0.365347 0.220303
vt 0.629073 0.770824
vt 1.000000 0.937500
vt 0.674681 0.691556
vt 0.875000 0.375000
vt 0.625000 0.125000
vt 0.625000 0.375000
vt 0.875000 0.125000
vt 0.375000 0.125000
vt 0.125000 0.125000
vt 0.492214 0.250470
vt 0.875000 0.625000
vt 0.625000 0.625000
vt 0.875000 0.875000
vt 0.375000 0.875000
vt 0.262101 0.599801
vt 0.125000 0.875000
vt 0.125000 0.625000
vt 0.625000 0.875000
vt 0.125000 0.375000
vt 0.250000 0.125000
vt 0.875000 0.750000
vt 0.875000 0.250000
vt 0.250000 0.875000
vt 0.750000 0.875000
vt 0.125000 0.250000
vt 0.125000 0.750000
vt 0.713173 0.609951
vt 0.125000 0.937500
vt 0.550124 0.699081
vt 0.875000 0.500000
vt 0.428345 0.704215
vt 0.248222 0.455442
vt 0.000000 0.375000
vt 0.500000 0.875000
vt 0.500000 0.625000
vt 0.250000 0.375000
vt 0.125000 0.500000
vt 0.375000 0.500000
vt 0.625000 0.250000
vt 0.500000 0.125000
vt 0.500000 0.375000
vt 0.000000 0.625000
vt 0.000000 0.875000
vt 0.000000 0.125000
vt 0.625000 1.000000
vt 0.875000 1.000000
vt 0.125000 1.000000
vt 0.375000 1.000000
vt 1.000000 0.375000
vt 1.000000 0.125000
vt 1.000000 0.875000
vt 1.000000 0.625000
vt 0.375000 0.000000
vt 0.125000 0.000000
vt 0.875000 0.000000
vt 0.625000 0.000000
vt 0.750000 0.125000
vt 0.625000 0.500000
vt 0.708876 0.488374
vt 0.062500 0.312500
vt 0.187500 0.437500
vt 0.187500 0.312500
vt 0.062500 0.437500
vt 0.687500 0.937500
vt 0.687500 0.812500
vt 0.562500 0.937500
vt 0.062500 0.687500
vt 0.187500 0.687500
vt 0.062500 0.562500
vt 0.187500 0.937500
vt 0.187500 0.812500
vt 0.062500 0.937500
vt 0.437500 0.562500
vt 0.875000 0.812500
vt 0.937500 0.000000
vt 0.312500 0.812500
vt 0.437500 0.937500
vt 0.937500 0.812500
vt 0.812500 0.812500
vt 0.937500 0.937500
vt 0.937500 1.000000
vt 0.562500 0.562500
vt 0.705881 0.427314
vt 0.819332 0.591237
vt 0.812500 0.687500
vt 0.937500 0.562500
vt 0.489860 0.701737
vt 0.682510 0.583771
vt 0.437500 0.437500
vt 0.187500 0.062500
vt 0.062500 0.062500
vt 0.187500 0.187500
vt 0.312500 0.062500
vt 0.312500 0.187500
vt 0.437500 0.062500
vt 0.812500 0.062500
vt 0.937500 0.062500
vt 0.554454 0.248535
vt 0.562500 0.437500
vt 0.525016 0.804189
vt 0.562500 0.187500
vt 0.687500 0.187500
vt 0.562500 0.062500
vt 0.937500 0.312500
vt 0.812500 0.312500
vt 0.937500 0.437500
vt 0.312500 0.937500
vt 0.477574 0.762067
vt 0.812500 0.187500
vt 0.800716 0.372483
vt 0.687500 0.062500
vt 0.062500 0.125000
vt 0.937500 0.187500
vt 0.437500 0.187500
vt 0.062500 0.187500
vt 0.386728 0.766561
vt 0.937500 0.687500
vt 0.702225 0.366975
vt 0.062500 0.812500
vt 0.812500 0.937500
vt 0.187500 0.562500
vt 0.765906 0.648544
vt 0.334767 0.653791
vt 0.699188 0.313206
vt 0.321493 0.329036
vt 0.715619 0.687999
vt 0.338120 0.707051
vt 0.486682 0.319514
vt 0.323466 0.409071
vt 0.296906 0.332149
vt 0.331164 0.593080
vt 0.713437 0.300753
vt 0.937500 0.875000
vt 0.436137 0.634590
vt 0.281585 0.657008
vt 0.711223 0.549709
vt 0.611669 0.695677
vt 0.325716 0.470682
vt 0.424058 0.322395
vt 0.364019 0.294291
vt 0.547199 0.317181
vt 0.328214 0.531339
vt 0.418341 0.256674
vt 0.425703 0.815414
vt 0.812755 0.481587
vt 1.000000 0.062500
vt 0.375653 0.417988
vt 0.766844 0.424637
vt 0.245672 0.515386
vt 0.609315 0.315077
vt 1.000000 0.812500
vt 0.062500 0.000000
vn -0.017183 -0.034367 0.999262
vn -0.053110 0.053110 0.997175
vn 0.029787 -0.029787 0.999112
vn -0.021595 -0.021595 0.999534
vn -0.000394 0.000554 1.000000
vn -0.321838 -0.002610 0.946791
vn 0.007627 0.283132 0.959050
vn 0.328759 -0.020618 0.944189
vn -0.002889 -0.309802 0.950797
vn -0.343222 0.241881 0.907575
vn 0.259453 0.468726 0.844381
vn -0.278697 -0.235125 0.931152
vn 0.367917 -0.387908 0.845083
vn 0.063832 -0.198436 0.978033
vn -0.033844 -0.330320 0.943262
vn 0.193587 0.077626 0.978007
vn 0.206468 -0.040197 0.977627
vn -0.031659 0.216704 0.975724
vn 0.023153 0.107990 0.993882
vn -0.172766 -0.017901 0.984800
vn -0.170643 0.043958 0.984352
vn -0.031543 -0.349244 0.936501
vn 0.067371 0.463937 0.883303
vn -0.043252 0.000000 0.999064
vn 0.023763 0.272221 0.961941
vn 0.366284 -0.034090 0.929879
vn 0.043172 -0.316926 0.947467
vn 0.000124 -0.000073 1.000000
vn 0.106544 -0.139092 0.984531
vn 0.017971 -0.356638 0.934070
vn -0.197035 -0.096500 0.975636
vn 0.003957 -0.392170 0.919884
vn 0.357136 -0.039108 0.933233
vn -0.000490 -0.000677 1.000000
vn 0.111191 0.106725 0.988052
vn -0.020672 0.379293 0.925046
vn -0.378032 0.037844 0.925019
vn -0.148837 0.119080 0.981666
vn -0.328711 0.065455 0.942159
vn 0.071045 0.361090 0.929821
vn -0.358482 -0.056266 0.931840
vn -0.135290 -0.262723 0.955339
vn 0.265889 0.290152 0.919301
vn 0.254855 -0.173944 0.951206
vn -0.160025 0.274774 0.948099
vn 0.133276 0.270635 0.953412
vn -0.305859 -0.089529 0.947858
vn -0.274214 0.117802 0.954426
vn 0.176419 -0.008067 0.984282
vn -0.107942 0.070837 0.991630
vn 0.012310 0.248391 0.968582
vn 0.369787 -0.027435 0.928711
vn 0.019040 0.253393 0.967176
vn -0.373567 0.007809 0.927570
vn -0.262698 -0.028968 0.964443
vn 0.044252 0.355214 0.933737
vn -0.000596 -0.001012 0.999999
vn -0.406272 -0.005213 0.913737
vn -0.350410 -0.001954 0.936594
vn 0.001653 0.000036 0.999999
vn 0.013197 -0.432428 0.901572
vn 0.015932 -0.347965 0.937372
vn -0.000648 0.000275 1.000000
vn -0.291409 0.018844 0.956413
vn -0.012352 0.036275 0.999265
vn -0.078072 -0.028941 0.996528
vn 0.026443 0.203999 0.978614
vn 0.021284 -0.001170 0.999773
vn -0.072008 0.054420 0.995918
vn -0.001660 0.305632 0.952148
vn 0.287145 -0.001931 0.957885
vn -0.013327 -0.047078 0.998802
vn -0.017073 0.024215 0.999561
vn 0.397241 -0.017049 0.917556
vn 0.023883 -0.348290 0.937082
vn -0.043646 -0.138284 0.989430
vn 0.036194 0.034953 0.998733
vn -0.001515 -0.317985 0.948094
vn 0.177749 -0.255913 0.950218
vn -0.000926 0.000650 0.999999
vn 0.232685 -0.008783 0.972512
vn -0.278506 -0.036800 0.959729
vn -0.371219 -0.008737 0.928504
vn -0.372575 -0.102905 0.922279
vn -0.323942 -0.025607 0.945730
vn 0.057274 0.225530 0.972551
vn 0.140425 0.411670 0.900449
vn 0.029028 0.292401 0.955855
vn -0.257805 0.056820 0.964525
vn -0.349350 0.115309 0.929870
vn -0.322862 0.018217 0.946271
vn -0.086922 0.140470 0.986262
vn -0.238835 0.212307 0.947567
vn -0.049531 0.030823 0.998297
vn 0.000642 -0.000500 1.000000
vn 0.204450 0.227106 0.952168
vn 0.000000 0.105968 0.994370
vn -0.166147 0.381705 0.909228
vn 0.018767 0.325587 0.945326
vn 0.071430 0.116663 0.990600
vn 0.265576 0.302379 0.915443
vn -0.008323 -0.012783 0.999884
vn 0.000000 -0.043087 0.999071
vn -0.000879 -0.000814 0.999999
vn 0.283136 -0.014271 0.958974
vn 0.409911 -0.032985 0.911529
vn 0.410303 0.141627 0.900885
vn 0.348992 -0.032363 0.936567
vn 0.011908 0.262343 0.964901
vn -0.000323 -0.000035 1.000000
vn 0.000688 0.001114 0.999999
vn -0.090455 -0.238207 0.966993
vn -0.076390 -0.047661 0.995938
vn -0.248368 -0.170389 0.953562
vn -0.018651 -0.354546 0.934853
vn -0.117041 -0.285044 0.951342
vn 0.026580 -0.347874 0.937165
vn 0.105784 -0.094103 0.989926
vn -0.020819 0.016370 0.999649
vn 0.007368 -0.411106 0.911558
vn -0.000856 0.001513 0.999999
vn 0.043314 0.429267 0.902138
vn 0.012454 -0.390973 0.920318
vn 0.127644 -0.398498 0.908244
vn -0.005638 -0.325438 0.945547
vn 0.283304 -0.044296 0.958007
vn 0.406170 -0.132960 0.904073
vn 0.325951 -0.011711 0.945314
vn -0.054676 0.302737 0.951504
vn 0.047373 0.463213 0.884980
vn 0.252818 -0.281412 0.925683
vn 0.428819 -0.036322 0.902660
vn 0.068242 -0.263529 0.962235
vn -0.147799 -0.043141 0.988076
vn 0.117027 -0.112270 0.986763
vn 0.039583 -0.369811 0.928263
vn -0.186359 -0.056834 0.980837
vn 0.010477 0.442866 0.896527
vn 0.343804 0.090510 0.934669
vn 0.237767 -0.016225 0.971187
vn -0.147952 0.075397 0.986116
vn 0.070062 0.075419 0.994688
vn -0.351725 0.038145 0.935326
vn 0.450557 -0.023688 0.892433
vn -0.264844 0.011553 0.964222
vn 0.333646 -0.225888 0.915235
vn -0.287146 -0.274959 0.917576
vn 0.189696 0.267188 0.944789
vn -0.209331 0.192528 0.958704
vn -0.006487 -0.170822 0.985281
vn -0.172225 0.010019 0.985007
vn -0.355757 -0.173173 0.918394
vn -0.245342 0.013043 0.969349
vn 0.376887 -0.296729 0.877444
vn -0.013497 0.049748 0.998671
vn -0.000163 -0.000853 1.000000
vn -0.411516 0.052852 0.909869
vn 0.155914 -0.008090 0.987738
vn 0.011467 0.250135 0.968143
vn -0.156202 0.006466 0.987704
vn 0.004531 -0.217914 0.975957
vn -0.049799 -0.350977 0.935059
vn -0.004986 -0.217989 0.975938
vn -0.174883 0.010863 0.984529
vn 0.022435 -0.372401 0.927801
vn 0.049873 0.412181 0.909736
vn 0.433841 -0.018504 0.900799
vn -0.105874 -0.000000 0.994380
vn 0.001436 0.000467 0.999999
vn 0.469241 -0.026580 0.882670
vn -0.361290 0.016340 0.932311
vn -0.006930 -0.212852 0.977060
vn 0.055418 0.000000 0.998463
vn -0.000000 -0.051519 0.998672
f 56/56/56 99/99/99 166/166/166
f 112/112/112 31/31/31 113/113/113
f 170/170/170 132/132/132 167/167/167
f 26/26/26 167/167/167 132/132/132
f 38/38/38 141/141/141 93/93/93
f 160/160/160 54/54/54 151/151/151
f 83/83/83 41/41/41 58/58/58
f 36/36/36 166/166/166 99/99/99
f 84/84/84 47/47/47 12/12/12
f 152/152/152 12/12/12 162/162/162
f 11/11/11 25/25/25 148/148/148
f 80/80/80 110/110/110 104/104/104
f 115/115/115 112/112/112 15/15/15
f 163/163/163 172/172/172 28/28/28
f 114/114/114 42/42/42 12/12/12
f 76/76/76 112/112/112 113/113/113
f 58/58/58 151/151/151 54/54/54
f 15/15/15 112/112/112 76/76/76
f 115/115/115 15/15/15 75/75/75
f 20/20/20 137/137/137 82/82/82
f 88/88/88 56/56/56 40/40/40
f 148/148/148 25/25/25 49/49/49
f 22/22/22 30/30/30 136/136/136
f 47/47/47 82/82/82 137/137/137
f 47/47/47 84/84/84 82/82/82
f 165/165/165 22/22/22 136/136/136
f 21/21/21 64/64/64 89/89/89
f 83/83/83 58/58/58 54/54/54
f 57/57/57 95/95/95 104/104/104
f 116/116/116 30/30/30 22/22/22
f 42/42/42 112/112/112 115/115/115
f 117/117/117 62/62/62 30/30/30
f 140/140/140 105/105/105 28/28/28
f 155/155/155 100/100/100 73/73/73
f 129/129/129 70/70/70 18/18/18
f 63/63/63 28/28/28 121/121/121
f 165/165/165 162/162/162 22/22/22
f 114/114/114 31/31/31 42/42/42
f 150/150/150 165/165/165 32/32/32
f 37/37/37 153/153/153 157/157/157
f 164/164/164 153/153/153 37/37/37
f 149/149/149 138/138/138 98/98/98
f 61/61/61 172/172/172 120/120/120
f 139/139/139 16/16/16 43/43/43
f 32/32/32 165/165/165 136/136/136
f 143/143/143 39/39/39 59/59/59
f 51/51/51 159/159/159 23/23/23
f 142/142/142 46/46/46 35/35/35
f 78/78/78 125/125/125 9/9/9
f 121/121/121 80/80/80 5/5/5
f 60/60/60 95/95/95 153/153/153
f 144/144/144 107/107/107 148/148/148
f 9/9/9 125/125/125 117/117/117
f 130/130/130 53/53/53 109/109/109
f 162/162/162 165/165/165 161/161/161
f 64/64/64 91/91/91 89/89/89
f 60/60/60 169/169/169 111/111/111
f 50/50/50 92/92/92 69/69/69
f 63/63/63 161/161/161 150/150/150
f 25/25/25 159/159/159 34/34/34
f 81/81/81 170/170/170 167/167/167
f 25/25/25 34/34/34 49/49/49
f 84/84/84 152/152/152 58/58/58
f 51/51/51 109/109/109 57/57/57
f 34/34/34 159/159/159 51/51/51
f 11/11/11 148/148/148 107/107/107
f 5/5/5 104/104/104 95/95/95
f 23/23/23 87/87/87 40/40/40
f 38/38/38 94/94/94 141/141/141
f 29/29/29 119/119/119 135/135/135
f 72/72/72 135/135/135 119/119/119
f 84/84/84 12/12/12 152/152/152
f 100/100/100 43/43/43 16/16/16
f 13/13/13 154/154/154 124/124/124
f 14/14/14 118/118/118 133/133/133
f 56/56/56 122/122/122 40/40/40
f 65/65/65 141/141/141 94/94/94
f 20/20/20 66/66/66 137/137/137
f 55/55/55 20/20/20 82/82/82
f 59/59/59 91/91/91 85/85/85
f 65/65/65 21/21/21 141/141/141
f 6/6/6 85/85/85 91/91/91
f 114/114/114 12/12/12 47/47/47
f 173/173/173 73/73/73 100/100/100
f 3/3/3 65/65/65 94/94/94
f 55/55/55 82/82/82 85/85/85
f 92/92/92 18/18/18 69/69/69
f 124/124/124 154/154/154 61/61/61
f 127/127/127 44/44/44 26/26/26
f 167/167/167 106/106/106 158/158/158
f 126/126/126 26/26/26 44/44/44
f 106/106/106 167/167/167 52/52/52
f 157/157/157 90/90/90 37/37/37
f 124/124/124 79/79/79 13/13/13
f 101/101/101 11/11/11 43/43/43
f 81/81/81 167/167/167 158/158/158
f 58/58/58 152/152/152 151/151/151
f 164/164/164 171/171/171 160/160/160
f 155/155/155 35/35/35 100/100/100
f 156/156/156 145/145/145 153/153/153
f 162/162/162 12/12/12 22/22/22
f 116/116/116 22/22/22 12/12/12
f 118/118/118 29/29/29 79/79/79
f 40/40/40 86/86/86 88/88/88
f 149/149/149 98/98/98 10/10/10
f 131/131/131 79/79/79 29/29/29
f 26/26/26 128/128/128 52/52/52
f 23/23/23 11/11/11 87/87/87
f 97/97/97 119/119/119 77/77/77
f 145/145/145 53/53/53 149/149/149
f 16/16/16 173/173/173 100/100/100
f 169/169/169 151/151/151 147/147/147
f 168/168/168 72/72/72 119/119/119
f 169/169/169 60/60/60 160/160/160
f 45/45/45 98/98/98 129/129/129
f 36/36/36 129/129/129 98/98/98
f 164/164/164 160/160/160 60/60/60
f 122/122/122 130/130/130 51/51/51
f 163/163/163 120/120/120 172/172/172
f 169/169/169 147/147/147 161/161/161
f 23/23/23 25/25/25 11/11/11
f 96/96/96 100/100/100 35/35/35
f 1/1/1 174/174/174 113/113/113
f 25/25/25 23/23/23 159/159/159
f 48/48/48 141/141/141 89/89/89
f 21/21/21 89/89/89 141/141/141
f 49/49/49 144/144/144 148/148/148
f 109/109/109 51/51/51 130/130/130
f 6/6/6 91/91/91 64/64/64
f 63/63/63 111/111/111 161/161/161
f 32/32/32 136/136/136 123/123/123
f 6/6/6 55/55/55 85/85/85
f 154/154/154 127/127/127 132/132/132
f 155/155/155 102/102/102 35/35/35
f 143/143/143 90/90/90 39/39/39
f 102/102/102 155/155/155 73/73/73
f 110/110/110 49/49/49 34/34/34
f 160/160/160 151/151/151 169/169/169
f 107/107/107 144/144/144 106/106/106
f 111/111/111 169/169/169 161/161/161
f 87/87/87 46/46/46 40/40/40
f 144/144/144 49/49/49 106/106/106
f 111/111/111 63/63/63 5/5/5
f 150/150/150 161/161/161 165/165/165
f 125/125/125 27/27/27 62/62/62
f 84/84/84 58/58/58 41/41/41
f 37/37/37 90/90/90 143/143/143
f 37/37/37 143/143/143 171/171/171
f 97/97/97 2/2/2 119/119/119
f 157/157/157 10/10/10 90/90/90
f 92/92/92 38/38/38 45/45/45
f 49/49/49 158/158/158 106/106/106
f 145/145/145 157/157/157 153/153/153
f 34/34/34 51/51/51 57/57/57
f 119/119/119 29/29/29 118/118/118
f 90/90/90 48/48/48 39/39/39
f 105/105/105 170/170/170 81/81/81
f 110/110/110 80/80/80 158/158/158
f 156/156/156 57/57/57 109/109/109
f 156/156/156 53/53/53 145/145/145
f 44/44/44 127/127/127 131/131/131
f 93/93/93 45/45/45 38/38/38
f 123/123/123 62/62/62 27/27/27
f 5/5/5 95/95/95 111/111/111
f 95/95/95 57/57/57 156/156/156
f 163/163/163 150/150/150 32/32/32
f 60/60/60 111/111/111 95/95/95
f 133/133/133 79/79/79 27/27/27
f 124/124/124 27/27/27 79/79/79
f 146/146/146 172/172/172 61/61/61
f 34/34/34 57/57/57 104/104/104
f 145/145/145 149/149/149 157/157/157
f 9/9/9 117/117/117 75/75/75
f 78/78/78 133/133/133 125/125/125
f 42/42/42 115/115/115 116/116/116
f 95/95/95 156/156/156 153/153/153
f 30/30/30 115/115/115 117/117/117
f 10/10/10 98/98/98 93/93/93
f 83/83/83 54/54/54 171/171/171
f 96/96/96 43/43/43 100/100/100
f 37/37/37 171/171/171 164/164/164
f 77/77/77 119/119/119 118/118/118
f 94/94/94 69/69/69 3/3/3
f 45/45/45 93/93/93 98/98/98
f 91/91/91 59/59/59 39/39/39
f 75/75/75 117/117/117 115/115/115
f 138/138/138 149/149/149 53/53/53
f 112/112/112 42/42/42 31/31/31
f 63/63/63 163/163/163 28/28/28
f 163/163/163 63/63/63 150/150/150
f 167/167/167 26/26/26 52/52/52
f 136/136/136 30/30/30 62/62/62
f 99/99/99 70/70/70 36/36/36
f 154/154/154 132/132/132 140/140/140
f 80/80/80 104/104/104 5/5/5
f 27/27/27 124/124/124 123/123/123
f 30/30/30 116/116/116 115/115/115
f 53/53/53 130/130/130 138/138/138
f 120/120/120 123/123/123 61/61/61
f 43/43/43 107/107/107 139/139/139
f 81/81/81 158/158/158 80/80/80
f 61/61/61 123/123/123 124/124/124
f 33/33/33 52/52/52 108/108/108
f 166/166/166 36/36/36 138/138/138
f 139/139/139 33/33/33 108/108/108
f 99/99/99 56/56/56 7/7/7
f 33/33/33 106/106/106 52/52/52
f 83/83/83 59/59/59 41/41/41
f 98/98/98 138/138/138 36/36/36
f 103/103/103 68/68/68 102/102/102
f 107/107/107 106/106/106 33/33/33
f 88/88/88 7/7/7 56/56/56
f 158/158/158 49/49/49 110/110/110
f 46/46/46 87/87/87 101/101/101
f 89/89/89 39/39/39 48/48/48
f 166/166/166 138/138/138 130/130/130
f 116/116/116 12/12/12 42/42/42
f 140/140/140 170/170/170 105/105/105
f 149/149/149 10/10/10 157/157/157
f 54/54/54 160/160/160 171/171/171
f 154/154/154 140/140/140 146/146/146
f 140/140/140 132/132/132 170/170/170
f 135/135/135 44/44/44 29/29/29
f 74/74/74 139/139/139 108/108/108
f 4/4/4 103/103/103 102/102/102
f 7/7/7 70/70/70 99/99/99
f 131/131/131 29/29/29 44/44/44
f 90/90/90 10/10/10 48/48/48
f 68/68/68 142/142/142 102/102/102
f 19/19/19 86/86/86 142/142/142
f 142/142/142 35/35/35 102/102/102
f 92/92/92 50/50/50 38/38/38
f 31/31/31 134/134/134 113/113/113
f 46/46/46 142/142/142 86/86/86
f 107/107/107 43/43/43 11/11/11
f 56/56/56 166/166/166 122/122/122
f 11/11/11 101/101/101 87/87/87
f 129/129/129 36/36/36 70/70/70
f 105/105/105 81/81/81 80/80/80
f 152/152/152 162/162/162 147/147/147
f 48/48/48 93/93/93 141/141/141
f 122/122/122 51/51/51 23/23/23
f 66/66/66 1/1/1 113/113/113
f 113/113/113 134/134/134 66/66/66
f 2/2/2 168/168/168 119/119/119
f 131/131/131 13/13/13 79/79/79
f 47/47/47 137/137/137 114/114/114
f 31/31/31 114/114/114 137/137/137
f 67/67/67 7/7/7 88/88/88
f 19/19/19 67/67/67 86/86/86
f 68/68/68 19/19/19 142/142/142
f 93/93/93 48/48/48 10/10/10
f 161/161/161 147/147/147 162/162/162
f 24/24/24 4/4/4 102/102/102
f 73/73/73 24/24/24 102/102/102
f 41/41/41 85/85/85 82/82/82
f 74/74/74 16/16/16 139/139/139
f 8/8/8 74/74/74 108/108/108
f 33/33/33 139/139/139 107/107/107
f 8/8/8 108/108/108 128/128/128
f 86/86/86 40/40/40 46/46/46
f 146/146/146 28/28/28 172/172/172
f 96/96/96 35/35/35 101/101/101
f 121/121/121 5/5/5 63/63/63
f 52/52/52 128/128/128 108/108/108
f 128/128/128 71/71/71 8/8/8
f 85/85/85 41/41/41 59/59/59
f 50/50/50 94/94/94 38/38/38
f 126/126/126 17/17/17 71/71/71
f 62/62/62 117/117/117 125/125/125
f 26/26/26 126/126/126 128/128/128
f 39/39/39 89/89/89 91/91/91
f 71/71/71 128/128/128 126/126/126
f 132/132/132 127/127/127 26/26/26
f 44/44/44 135/135/135 126/126/126
f 174/174/174 76/76/76 113/113/113
f 171/171/171 143/143/143 83/83/83
f 43/43/43 96/96/96 101/101/101
f 27/27/27 125/125/125 133/133/133
f 101/101/101 35/35/35 46/46/46
f 62/62/62 123/123/123 136/136/136
f 146/146/146 61/61/61 154/154/154
f 66/66/66 134/134/134 137/137/137
f 17/17/17 126/126/126 135/135/135
f 79/79/79 133/133/133 118/118/118
f 67/67/67 88/88/88 86/86/86
f 34/34/34 104/104/104 110/110/110
f 120/120/120 163/163/163 32/32/32
f 134/134/134 31/31/31 137/137/137
f 77/77/77 118/118/118 14/14/14
f 60/60/60 153/153/153 164/164/164
f 18/18/18 92/92/92 129/129/129
f 59/59/59 83/83/83 143/143/143
f 14/14/14 133/133/133 78/78/78
f 13/13/13 131/131/131 127/127/127
f 154/154/154 13/13/13 127/127/127
f 45/45/45 129/129/129 92/92/92
f 121/121/121 28/28/28 80/80/80
f 28/28/28 105/105/105 80/80/80
f 94/94/94 50/50/50 69/69/69
f 109/109/109 53/53/53 156/156/156
f 140/140/140 28/28/28 146/146/146
f 147/147/147 151/151/151 152/152/152
f 130/130/130 122/122/122 166/166/166
f 123/123/123 120/120/120 32/32/32
f 122/122/122 23/23/23 40/40/40
f 41/41/41 82/82/82 84/84/84
f 72/72/72 17/17/17 135/135/135
