# frame 000728 
# time 0.364500 
# name Box 
v 0.719290 0.679274 -0.307221
v 0.719043 0.738060 0.088435
v 0.720706 0.342407 0.147221
v 0.719290 0.679274 -0.307221
v 0.720706 0.342407 0.147221
v 0.720953 0.283621 -0.248435
v 0.319294 0.677593 -0.307221
v 0.320957 0.281940 -0.248435
v 0.320710 0.340726 0.147221
v 0.319294 0.677593 -0.307221
v 0.320710 0.340726 0.147221
v 0.319047 0.736379 0.088435
v 0.719290 0.679274 -0.307221
v 0.319294 0.677593 -0.307221
v 0.319047 0.736379 0.088435
v 0.719290 0.679274 -0.307221
v 0.319047 0.736379 0.088435
v 0.719043 0.738060 0.088435
v 0.719043 0.738060 0.088435
v 0.319047 0.736379 0.088435
v 0.320710 0.340726 0.147221
v 0.719043 0.738060 0.088435
v 0.320710 0.340726 0.147221
v 0.720706 0.342407 0.147221
v 0.720706 0.342407 0.147221
v 0.320710 0.340726 0.147221
v 0.320957 0.281940 -0.248435
v 0.720706 0.342407 0.147221
v 0.320957 0.281940 -0.248435
v 0.720953 0.283621 -0.248435
v 0.319294 0.677593 -0.307221
v 0.719290 0.679274 -0.307221
v 0.720953 0.283621 -0.248435
v 0.319294 0.677593 -0.307221
v 0.720953 0.283621 -0.248435
v 0.320957 0.281940 -0.248435
vn 0.199998 0.000841 0.000000
vn 0.199998 0.000841 0.000000
vn 0.199998 0.000841 0.000000
vn 0.199998 0.000841 0.000000
vn 0.199998 0.000841 0.000000
vn 0.199998 0.000841 0.000000
vn -0.199998 -0.000841 0.000000
vn -0.199998 -0.000841 0.000000
vn -0.199998 -0.000841 0.000000
vn -0.199998 -0.000841 0.000000
vn -0.199998 -0.000841 0.000000
vn -0.199998 -0.000841 0.000000
vn -0.000832 0.197827 -0.029393
vn -0.000832 0.197827 -0.029393
vn -0.000832 0.197827 -0.029393
vn -0.000832 0.197827 -0.029393
vn -0.000832 0.197827 -0.029393
vn -0.000832 0.197827 -0.029393
vn -0.000124 0.029393 0.197828
vn -0.000124 0.029393 0.197828
vn -0.000124 0.029393 0.197828
vn -0.000124 0.029393 0.197828
vn -0.000124 0.029393 0.197828
vn -0.000124 0.029393 0.197828
vn 0.000832 -0.197827 0.029393
vn 0.000832 -0.197827 0.029393
vn 0.000832 -0.197827 0.029393
vn 0.000832 -0.197827 0.029393
vn 0.000832 -0.197827 0.029393
vn 0.000832 -0.197827 0.029393
vn 0.000124 -0.029393 -0.197828
vn 0.000124 -0.029393 -0.197828
vn 0.000124 -0.029393 -0.197828
vn 0.000124 -0.029393 -0.197828
vn 0.000124 -0.029393 -0.197828
vn 0.000124 -0.029393 -0.197828
f 1/1/1 2/2/2 3/3/3
f 4/4/4 5/5/5 6/6/6
f 7/7/7 8/8/8 9/9/9
f 10/10/10 11/11/11 12/12/12
f 13/13/13 14/14/14 15/15/15
f 16/16/16 17/17/17 18/18/18
f 19/19/19 20/20/20 21/21/21
f 22/22/22 23/23/23 24/24/24
f 25/25/25 26/26/26 27/27/27
f 28/28/28 29/29/29 30/30/30
f 31/31/31 32/32/32 33/33/33
f 34/34/34 35/35/35 36/36/36
