# frame 000718 
# time 0.359500 
# name Cloth3D 
v -0.000000 0.000000 -0.000000
v 1.000000 0.000000 -0.000000
v -0.000000 1.000000 0.000000
v 1.000000 1.000000 0.000000
v 0.499541 0.494782 0.125286
v -0.000000 0.500000 0.000000
v 0.500000 1.000000 0.000000
v 1.000000 0.500000 0.000000
v 0.500000 -0.000000 0.000000
v 0.246072 0.753149 0.072166
v 0.754517 0.754687 0.079635
v 0.245248 0.245213 0.073050
v 0.758509 0.244167 0.089935
v 0.750000 0.000000 0.000000
v 0.250000 0.000000 0.000000
v 1.000000 0.750000 0.000000
v 1.000000 0.250000 0.000000
v 0.250000 1.000000 0.000000
v 0.750000 1.000000 0.000000
v 0.000000 0.250000 0.000000
v 0.000000 0.750000 -0.000000
v 0.361549 0.214369 0.084284
v 0.631152 0.776101 0.084335
v 0.240459 0.512831 0.090046
v 0.821319 0.245493 0.074628
v 0.884001 0.372867 0.064227
v 0.626804 0.123257 0.047135
v 0.632638 0.365598 0.139239
v 0.878735 0.122609 0.033940
v 0.374418 0.123760 0.042654
v 0.124289 0.124499 0.020413
v 0.491789 0.246082 0.096990
v 0.880320 0.625062 0.054471
v 0.628759 0.625517 0.107220
v 0.877253 0.877494 0.032281
v 0.373819 0.878407 0.048082
v 0.257410 0.599494 0.089137
v 0.123199 0.876524 0.027257
v 0.120365 0.624856 0.049812
v 0.625798 0.881758 0.057195
v 0.122628 0.373697 0.043322
v 0.249491 0.123809 0.032142
v 0.878996 0.751775 0.045936
v 0.883170 0.246973 0.056246
v 0.248013 0.879025 0.045174
v 0.752160 0.881372 0.052449
v 0.124083 0.249565 0.030974
v 0.121631 0.750891 0.041657
v 0.319719 0.593133 0.111029
v 0.124052 0.939007 0.016720
v 0.246915 0.816481 0.060275
v 0.877659 0.498452 0.051067
v 0.426592 0.732421 0.094028
v 0.242105 0.451352 0.094408
v 0.000000 0.375000 0.000000
v 0.499522 0.880196 0.054275
v 0.499612 0.624500 0.107242
v 0.240910 0.368997 0.100894
v 0.121242 0.498834 0.049037
v 0.368884 0.495536 0.123640
v 0.630010 0.243775 0.100301
v 0.500425 0.125447 0.042259
v 0.499169 0.365068 0.139260
v 0.000000 0.625000 0.000000
v 0.000000 0.875000 0.000000
v 0.000000 0.125000 0.000000
v 0.625000 1.000000 0.000000
v 0.875000 1.000000 0.000000
v 0.125000 1.000000 0.000000
v 0.375000 1.000000 0.000000
v 1.000000 0.375000 0.000000
v 1.000000 0.125000 0.000000
v 1.000000 0.875000 0.000000
v 1.000000 0.625000 0.000000
v 0.375000 0.000000 0.000000
v 0.125000 0.000000 0.000000
v 0.875000 0.000000 0.000000
v 0.625000 0.000000 0.000000
v 0.753210 0.121317 0.046832
v 0.630597 0.495699 0.123859
v 0.767511 0.513569 0.099562
v 0.062054 0.312505 0.017402
v 0.182462 0.434542 0.072039
v 0.182641 0.309311 0.064695
v 0.060557 0.437031 0.024298
v 0.688105 0.943365 0.033316
v 0.690063 0.819245 0.074675
v 0.562534 0.940473 0.028139
v 0.059641 0.687547 0.025473
v 0.183484 0.688397 0.062493
v 0.059808 0.562133 0.026370
v 0.186772 0.939065 0.019335
v 0.184373 0.815160 0.049555
v 0.062266 0.937774 0.007334
v 0.434742 0.559669 0.115252
v 0.878043 0.814732 0.039438
v 0.550071 0.732959 0.094035
v 0.309676 0.817910 0.070285
v 0.437130 0.940362 0.027524
v 0.937737 0.812935 0.016069
v 0.815521 0.816124 0.053086
v 0.938289 0.938278 0.011531
v 0.881749 0.184121 0.048368
v 0.564590 0.559803 0.115254
v 0.720147 0.421660 0.132349
v 0.824936 0.590973 0.074146
v 0.817346 0.689270 0.068961
v 0.939755 0.561969 0.027304
v 0.753446 0.818343 0.067333
v 0.689012 0.583749 0.112434
v 0.433269 0.429793 0.131464
v 0.187416 0.062138 0.013164
v 0.062207 0.062259 0.008298
v 0.186324 0.186357 0.037899
v 0.312438 0.060946 0.021938
v 0.309563 0.182469 0.065916
v 0.437726 0.062116 0.022073
v 0.813732 0.062169 0.017085
v 0.938904 0.061234 0.014160
v 0.556581 0.243888 0.096945
v 0.565526 0.430056 0.131541
v 0.524904 0.809551 0.076986
v 0.564337 0.185748 0.069725
v 0.691983 0.183327 0.071502
v 0.562956 0.061631 0.024300
v 0.942538 0.311490 0.031874
v 0.823952 0.307884 0.088130
v 0.939388 0.436525 0.027099
v 0.311860 0.940081 0.025536
v 0.476698 0.766252 0.086148
v 0.818296 0.184184 0.056609
v 0.812498 0.367915 0.098308
v 0.688505 0.061495 0.022921
v 0.061650 0.124718 0.013252
v 0.942544 0.186025 0.028614
v 0.436356 0.184980 0.069573
v 0.061482 0.187442 0.015845
v 0.384201 0.770549 0.082608
v 0.940058 0.687723 0.026108
v 0.185415 0.877756 0.036824
v 0.060712 0.812917 0.019536
v 0.813399 0.940370 0.023657
v 0.182540 0.561428 0.070731
v 0.771797 0.650401 0.087905
v 0.320081 0.529450 0.118872
v 0.720670 0.336836 0.142875
v 0.320878 0.335154 0.142876
v 0.718950 0.733694 0.094045
v 0.319122 0.731947 0.094023
v 0.615527 0.336524 0.142853
v 0.320691 0.401603 0.134617
v 0.285417 0.322325 0.120003
v 0.719505 0.611446 0.108987
v 0.724622 0.292511 0.119018
v 0.672935 0.671794 0.101324
v 0.323243 0.267454 0.107108
v 0.276780 0.658569 0.090875
v 0.719405 0.537887 0.118023
v 0.613175 0.733234 0.094039
v 0.320444 0.465639 0.126729
v 0.418118 0.335732 0.142841
v 0.940144 0.750706 0.024698
v 0.549478 0.336281 0.142841
v 0.817388 0.753271 0.065273
v 0.414837 0.249879 0.101749
v 0.424437 0.818724 0.066711
v 0.818850 0.479056 0.080934
v 0.755627 0.182930 0.067371
v 0.367543 0.409730 0.133589
v 0.411922 0.662876 0.102591
v 0.631638 0.430740 0.131297
v 0.319448 0.656017 0.103313
v 0.589212 0.677835 0.100797
v 0.937500 0.000000 -0.000000
vt 0.000000 0.000000
vt 1.000000 0.000000
vt 0.000000 1.000000
vt 1.000000 1.000000
vt 0.500000 0.500000
vt 0.000000 0.500000
vt 0.500000 1.000000
vt 1.000000 0.500000
vt 0.500000 0.000000
vt 0.250000 0.750000
vt 0.750000 0.750000
vt 0.250000 0.250000
vt 0.750000 0.250000
vt 0.750000 0.000000
vt 0.250000 0.000000
vt 1.000000 0.750000
vt 1.000000 0.250000
vt 0.250000 1.000000
vt 0.750000 1.000000
vt 0.000000 0.250000
vt 0.000000 0.750000
vt 0.365347 0.220303
vt 0.629073 0.770824
vt 0.245672 0.515386
vt 0.812500 0.250000
vt 0.875000 0.375000
vt 0.625000 0.125000
vt 0.625000 0.375000
vt 0.875000 0.125000
vt 0.375000 0.125000
vt 0.125000 0.125000
vt 0.492214 0.250470
vt 0.875000 0.625000
vt 0.625000 0.625000
vt 0.875000 0.875000
vt 0.375000 0.875000
vt 0.262101 0.599801
vt 0.125000 0.875000
vt 0.125000 0.625000
vt 0.625000 0.875000
vt 0.125000 0.375000
vt 0.250000 0.125000
vt 0.875000 0.750000
vt 0.875000 0.250000
vt 0.250000 0.875000
vt 0.750000 0.875000
vt 0.125000 0.250000
vt 0.125000 0.750000
vt 0.325885 0.593082
vt 0.125000 0.937500
vt 0.250000 0.812500
vt 0.875000 0.500000
vt 0.428643 0.728800
vt 0.248222 0.455442
vt 0.000000 0.375000
vt 0.500000 0.875000
vt 0.500000 0.625000
vt 0.250000 0.375000
vt 0.125000 0.500000
vt 0.375000 0.500000
vt 0.625000 0.250000
vt 0.500000 0.125000
vt 0.500000 0.375000
vt 0.000000 0.625000
vt 0.000000 0.875000
vt 0.000000 0.125000
vt 0.625000 1.000000
vt 0.875000 1.000000
vt 0.125000 1.000000
vt 0.375000 1.000000
vt 1.000000 0.375000
vt 1.000000 0.125000
vt 1.000000 0.875000
vt 1.000000 0.625000
vt 0.375000 0.000000
vt 0.125000 0.000000
vt 0.875000 0.000000
vt 0.625000 0.000000
vt 0.750000 0.125000
vt 0.625000 0.500000
vt 0.760524 0.515669
vt 0.062500 0.312500
vt 0.187500 0.437500
vt 0.187500 0.312500
vt 0.062500 0.437500
vt 0.687500 0.937500
vt 0.687500 0.812500
vt 0.562500 0.937500
vt 0.062500 0.687500
vt 0.187500 0.687500
vt 0.062500 0.562500
vt 0.187500 0.937500
vt 0.187500 0.812500
vt 0.062500 0.937500
vt 0.437500 0.562500
vt 0.875000 0.812500
vt 0.549322 0.729168
vt 0.312500 0.812500
vt 0.437500 0.937500
vt 0.937500 0.812500
vt 0.812500 0.812500
vt 0.937500 0.937500
vt 0.875000 0.187500
vt 0.562500 0.562500
vt 0.708473 0.427267
vt 0.819332 0.591237
vt 0.812500 0.687500
vt 0.937500 0.562500
vt 0.750000 0.812500
vt 0.682510 0.583771
vt 0.437500 0.437500
vt 0.187500 0.062500
vt 0.062500 0.062500
vt 0.187500 0.187500
vt 0.312500 0.062500
vt 0.312500 0.187500
vt 0.437500 0.062500
vt 0.812500 0.062500
vt 0.937500 0.062500
vt 0.554454 0.248535
vt 0.562500 0.437500
vt 0.525016 0.804189
vt 0.562500 0.187500
vt 0.687500 0.187500
vt 0.562500 0.062500
vt 0.937500 0.312500
vt 0.812500 0.312500
vt 0.937500 0.437500
vt 0.312500 0.937500
vt 0.477574 0.762067
vt 0.812500 0.187500
vt 0.800716 0.372483
vt 0.687500 0.062500
vt 0.062500 0.125000
vt 0.937500 0.187500
vt 0.437500 0.187500
vt 0.062500 0.187500
vt 0.386728 0.766561
vt 0.937500 0.687500
vt 0.187500 0.875000
vt 0.062500 0.812500
vt 0.812500 0.937500
vt 0.187500 0.562500
vt 0.765906 0.648544
vt 0.327322 0.531609
vt 0.706109 0.347457
vt 0.334606 0.347295
vt 0.713672 0.728128
vt 0.323741 0.727195
vt 0.609105 0.346890
vt 0.331261 0.409103
vt 0.296906 0.332149
vt 0.712432 0.609977
vt 0.713437 0.300753
vt 0.668274 0.669022
vt 0.331126 0.276226
vt 0.281585 0.657008
vt 0.710705 0.538674
vt 0.610975 0.728929
vt 0.329250 0.470160
vt 0.424130 0.346841
vt 0.937500 0.750000
vt 0.547182 0.346994
vt 0.812500 0.750000
vt 0.418341 0.256674
vt 0.425703 0.815414
vt 0.812755 0.481587
vt 0.750000 0.187500
vt 0.375653 0.417988
vt 0.414679 0.661630
vt 0.625000 0.437500
vt 0.324815 0.653829
vt 0.587160 0.675778
vt 0.937500 0.000000
vn -0.065147 -0.065147 0.995747
vn 0.073732 -0.147464 0.986315
vn -0.056387 0.056387 0.996815
vn 0.090536 0.090536 0.991769
vn -0.000900 0.121212 0.992626
vn -0.385840 -0.008523 0.922526
vn -0.002097 0.421698 0.906734
vn 0.396184 -0.001594 0.918170
vn -0.009060 -0.351279 0.936227
vn -0.218051 0.156974 0.963230
vn 0.230403 0.180038 0.956295
vn -0.306481 -0.321492 0.895942
vn 0.201658 -0.330632 0.921963
vn 0.022607 -0.310187 0.950407
vn -0.034770 -0.266314 0.963259
vn 0.363817 0.054138 0.929896
vn 0.465135 -0.011325 0.885168
vn -0.024306 0.341793 0.939461
vn 0.040104 0.444109 0.895075
vn -0.257647 -0.004070 0.966231
vn -0.347080 0.023708 0.937536
vn -0.027157 -0.427705 0.903510
vn -0.002593 0.224692 0.974426
vn -0.341683 0.056763 0.938100
vn 0.235651 -0.235011 0.942994
vn 0.454150 0.025287 0.890566
vn -0.015123 -0.365264 0.930781
vn -0.000049 0.120146 0.992756
vn 0.150534 -0.237534 0.959644
vn -0.039005 -0.361240 0.931657
vn -0.104877 -0.115095 0.987803
vn 0.007253 -0.432996 0.901367
vn 0.347404 0.017423 0.937554
vn 0.000523 0.121029 0.992649
vn 0.229898 0.146373 0.962144
vn -0.017002 0.326668 0.944986
vn -0.306428 0.074250 0.948993
vn -0.160311 0.169484 0.972407
vn -0.314301 0.031466 0.948802
vn -0.011337 0.337122 0.941393
vn -0.376751 -0.046039 0.925170
vn -0.116137 -0.267706 0.956476
vn 0.320363 0.076878 0.944170
vn 0.332132 -0.113116 0.936426
vn -0.111819 0.277948 0.954066
vn 0.126469 0.276798 0.952569
vn -0.271887 -0.112534 0.955727
vn -0.265288 0.083118 0.960580
vn -0.197311 0.109482 0.974209
vn -0.094916 0.211013 0.972864
vn -0.168341 0.210359 0.963021
vn 0.416663 0.043324 0.908028
vn -0.012245 0.212791 0.977021
vn -0.383709 0.066578 0.921051
vn -0.318525 -0.028245 0.947493
vn -0.039875 0.340408 0.939432
vn -0.000102 0.119480 0.992837
vn -0.421311 -0.003305 0.906910
vn -0.350571 -0.016705 0.936387
vn -0.008612 0.120150 0.992718
vn -0.013599 -0.415234 0.909613
vn 0.002669 -0.348625 0.937258
vn -0.000854 0.118641 0.992937
vn -0.395785 0.002949 0.918338
vn -0.209038 0.048868 0.976686
vn -0.200506 -0.040829 0.978841
vn -0.025201 0.469197 0.882734
vn 0.050160 0.278110 0.959239
vn -0.062502 0.241469 0.968394
vn -0.008938 0.402120 0.915543
vn 0.443496 0.023163 0.895977
vn 0.336804 -0.060314 0.939641
vn 0.216988 0.018896 0.975991
vn 0.411397 0.000945 0.911456
vn -0.000824 -0.333237 0.942843
vn -0.017696 -0.164740 0.986178
vn 0.010019 -0.238534 0.971082
vn 0.004517 -0.359702 0.933056
vn 0.073623 -0.344424 0.935923
vn 0.003765 0.118152 0.992988
vn 0.384432 0.088232 0.918927
vn -0.300989 -0.038940 0.952832
vn -0.381766 0.020218 0.924038
vn -0.394042 -0.157164 0.905555
vn -0.351989 -0.031414 0.935477
vn 0.017002 0.426448 0.904352
vn 0.059636 0.240099 0.968915
vn -0.021774 0.428675 0.903196
vn -0.350682 0.029458 0.936031
vn -0.259200 0.078959 0.962591
vn -0.376815 -0.004224 0.926279
vn -0.069267 0.271117 0.960051
vn -0.188259 0.174850 0.966430
vn -0.125504 0.127150 0.983911
vn -0.003798 0.130237 0.991476
vn 0.297604 0.123276 0.946697
vn -0.001272 0.168964 0.985621
vn -0.086397 0.269718 0.959056
vn -0.018902 0.392213 0.919680
vn 0.330481 0.094316 0.939088
vn 0.213372 0.183791 0.959528
vn 0.135418 0.119250 0.983586
vn 0.234030 -0.200111 0.951412
vn 0.001894 0.131127 0.991364
vn 0.188854 0.118404 0.974841
vn 0.342197 0.037694 0.938872
vn 0.290619 0.076445 0.953780
vn 0.395751 -0.017665 0.918188
vn 0.173475 0.207274 0.962779
vn 0.001353 0.121021 0.992649
vn -0.004013 0.110895 0.993824
vn -0.049196 -0.204281 0.977675
vn -0.097514 -0.089246 0.991225
vn -0.201412 -0.203480 0.958138
vn -0.038974 -0.286694 0.957229
vn -0.126090 -0.402048 0.906895
vn -0.003228 -0.333693 0.942676
vn 0.042059 -0.314742 0.948245
vn 0.103845 -0.167292 0.980423
vn -0.024255 -0.432016 0.901540
vn 0.002501 0.110471 0.993876
vn -0.031167 0.256555 0.966027
vn -0.036090 -0.409761 0.911479
vn 0.043691 -0.371099 0.927565
vn -0.012914 -0.335986 0.941778
vn 0.459828 -0.008370 0.887969
vn 0.363988 -0.155454 0.918339
vn 0.434827 0.046360 0.899320
vn -0.022892 0.358310 0.933322
vn -0.028158 0.259954 0.965210
vn 0.146260 -0.287509 0.946544
vn 0.428599 0.008736 0.903453
vn 0.012975 -0.357472 0.933834
vn -0.160238 -0.061694 0.985149
vn 0.356257 -0.099930 0.929029
vn 0.008436 -0.411672 0.911293
vn -0.196827 -0.037073 0.979737
vn -0.001249 0.291260 0.956643
vn 0.378680 0.027425 0.925121
vn -0.145642 0.237799 0.960333
vn -0.267275 0.065579 0.961386
vn 0.087626 0.334525 0.938304
vn -0.296788 0.032788 0.954380
vn 0.313396 0.092547 0.945102
vn -0.166100 0.115035 0.979376
vn 0.180452 -0.212118 0.960439
vn -0.333857 -0.146346 0.931194
vn 0.171138 0.185688 0.967591
vn -0.128104 0.185024 0.974349
vn -0.000213 -0.046469 0.998920
vn -0.167099 0.106318 0.980191
vn -0.426396 -0.216419 0.878265
vn 0.113625 0.111681 0.987227
vn 0.181526 -0.419677 0.889337
vn -0.000556 0.119633 0.992818
vn -0.170216 -0.426670 0.888245
vn -0.280804 0.096593 0.954892
vn 0.198888 0.118339 0.972851
vn -0.000239 0.167081 0.985943
vn -0.155943 0.111664 0.981434
vn -0.000263 -0.121574 0.992582
vn 0.358330 0.077918 0.930338
vn -0.000653 -0.106320 0.994332
vn 0.254563 0.112168 0.960529
vn 0.002003 -0.433188 0.901301
vn -0.027400 0.299379 0.953741
vn 0.408713 0.080271 0.909126
vn 0.115669 -0.331354 0.936389
vn -0.001476 0.118082 0.993003
vn -0.000219 0.119444 0.992841
vn 0.000989 0.114221 0.993455
vn -0.186727 0.116272 0.975507
vn 0.000588 0.118958 0.992899
vn 0.000000 -0.218679 0.975797
f 1/1/1 113/113/113 66/66/66
f 155/155/155 34/34/34 153/153/153
f 112/112/112 31/31/31 113/113/113
f 76/76/76 112/112/112 113/113/113
f 169/169/169 147/147/147 161/161/161
f 57/57/57 53/53/53 170/170/170
f 114/114/114 31/31/31 42/42/42
f 31/31/31 134/134/134 113/113/113
f 134/134/134 137/137/137 66/66/66
f 134/134/134 66/66/66 113/113/113
f 115/115/115 112/112/112 15/15/15
f 31/31/31 137/137/137 134/134/134
f 73/73/73 102/102/102 100/100/100
f 114/114/114 137/137/137 31/31/31
f 76/76/76 113/113/113 1/1/1
f 57/57/57 170/170/170 95/95/95
f 15/15/15 112/112/112 76/76/76
f 115/115/115 15/15/15 75/75/75
f 45/45/45 51/51/51 98/98/98
f 136/136/136 62/62/62 32/32/32
f 136/136/136 30/30/30 117/117/117
f 22/22/22 30/30/30 136/136/136
f 22/22/22 156/156/156 116/116/116
f 62/62/62 136/136/136 117/117/117
f 165/165/165 136/136/136 32/32/32
f 115/115/115 30/30/30 42/42/42
f 152/152/152 156/156/156 147/147/147
f 42/42/42 116/116/116 114/114/114
f 116/116/116 30/30/30 22/22/22
f 42/42/42 112/112/112 115/115/115
f 123/123/123 32/32/32 62/62/62
f 84/84/84 152/152/152 58/58/58
f 12/12/12 114/114/114 116/116/116
f 116/116/116 42/42/42 30/30/30
f 54/54/54 151/151/151 160/160/160
f 75/75/75 117/117/117 115/115/115
f 111/111/111 169/169/169 161/161/161
f 165/165/165 22/22/22 136/136/136
f 161/161/161 165/165/165 32/32/32
f 83/83/83 58/58/58 54/54/54
f 47/47/47 137/137/137 114/114/114
f 63/63/63 121/121/121 111/111/111
f 30/30/30 115/115/115 117/117/117
f 60/60/60 169/169/169 111/111/111
f 151/151/151 147/147/147 169/169/169
f 72/72/72 135/135/135 119/119/119
f 10/10/10 51/51/51 93/93/93
f 54/54/54 58/58/58 151/151/151
f 129/129/129 45/45/45 36/36/36
f 151/151/151 152/152/152 147/147/147
f 151/151/151 169/169/169 160/160/160
f 148/148/148 155/155/155 153/153/153
f 58/58/58 152/152/152 151/151/151
f 149/149/149 98/98/98 10/10/10
f 9/9/9 125/125/125 117/117/117
f 147/147/147 156/156/156 161/161/161
f 157/157/157 10/10/10 90/90/90
f 82/82/82 137/137/137 47/47/47
f 84/84/84 12/12/12 152/152/152
f 112/112/112 42/42/42 31/31/31
f 172/172/172 49/49/49 170/170/170
f 20/20/20 137/137/137 82/82/82
f 159/159/159 173/173/173 155/155/155
f 20/20/20 66/66/66 137/137/137
f 55/55/55 20/20/20 82/82/82
f 34/34/34 155/155/155 173/173/173
f 23/23/23 40/40/40 122/122/122
f 92/92/92 45/45/45 129/129/129
f 149/149/149 172/172/172 170/170/170
f 94/94/94 50/50/50 69/69/69
f 52/52/52 108/108/108 106/106/106
f 107/107/107 33/33/33 43/43/43
f 139/139/139 43/43/43 33/33/33
f 79/79/79 29/29/29 131/131/131
f 49/49/49 37/37/37 145/145/145
f 6/6/6 85/85/85 91/91/91
f 45/45/45 98/98/98 36/36/36
f 94/94/94 69/69/69 3/3/3
f 110/110/110 153/153/153 34/34/34
f 166/166/166 138/138/138 130/130/130
f 122/122/122 166/166/166 130/130/130
f 33/33/33 106/106/106 108/108/108
f 93/93/93 38/38/38 48/48/48
f 62/62/62 117/117/117 125/125/125
f 37/37/37 90/90/90 143/143/143
f 143/143/143 90/90/90 39/39/39
f 29/29/29 79/79/79 118/118/118
f 79/79/79 131/131/131 168/168/168
f 129/129/129 70/70/70 18/18/18
f 149/149/149 170/170/170 53/53/53
f 92/92/92 18/18/18 69/69/69
f 38/38/38 92/92/92 50/50/50
f 53/53/53 130/130/130 138/138/138
f 92/92/92 69/69/69 50/50/50
f 38/38/38 140/140/140 92/92/92
f 93/93/93 45/45/45 140/140/140
f 94/94/94 38/38/38 50/50/50
f 48/48/48 38/38/38 141/141/141
f 65/65/65 94/94/94 3/3/3
f 47/47/47 84/84/84 82/82/82
f 21/21/21 141/141/141 65/65/65
f 38/38/38 94/94/94 141/141/141
f 41/41/41 82/82/82 84/84/84
f 65/65/65 141/141/141 94/94/94
f 39/39/39 90/90/90 48/48/48
f 51/51/51 45/45/45 93/93/93
f 23/23/23 122/122/122 97/97/97
f 93/93/93 140/140/140 38/38/38
f 145/145/145 160/160/160 60/60/60
f 92/92/92 129/129/129 18/18/18
f 140/140/140 45/45/45 92/92/92
f 89/89/89 39/39/39 48/48/48
f 48/48/48 141/141/141 89/89/89
f 28/28/28 121/121/121 163/163/163
f 89/89/89 21/21/21 64/64/64
f 21/21/21 89/89/89 141/141/141
f 165/165/165 161/161/161 156/156/156
f 149/149/149 10/10/10 157/157/157
f 6/6/6 91/91/91 64/64/64
f 59/59/59 91/91/91 85/85/85
f 6/6/6 55/55/55 85/85/85
f 24/24/24 83/83/83 54/54/54
f 59/59/59 39/39/39 91/91/91
f 143/143/143 39/39/39 59/59/59
f 63/63/63 163/163/163 121/121/121
f 24/24/24 54/54/54 160/160/160
f 34/34/34 173/173/173 57/57/57
f 123/123/123 62/62/62 27/27/27
f 27/27/27 125/125/125 133/133/133
f 119/119/119 29/29/29 118/118/118
f 56/56/56 88/88/88 99/99/99
f 39/39/39 89/89/89 91/91/91
f 166/166/166 56/56/56 36/36/36
f 99/99/99 36/36/36 56/56/56
f 108/108/108 74/74/74 33/33/33
f 37/37/37 157/157/157 90/90/90
f 37/37/37 143/143/143 24/24/24
f 149/149/149 138/138/138 98/98/98
f 138/138/138 166/166/166 98/98/98
f 135/135/135 72/72/72 17/17/17
f 155/155/155 148/148/148 159/159/159
f 51/51/51 10/10/10 98/98/98
f 78/78/78 133/133/133 125/125/125
f 17/17/17 126/126/126 135/135/135
f 104/104/104 95/95/95 5/5/5
f 60/60/60 160/160/160 169/169/169
f 44/44/44 135/135/135 126/126/126
f 105/105/105 158/158/158 80/80/80
f 57/57/57 95/95/95 104/104/104
f 84/84/84 58/58/58 41/41/41
f 34/34/34 57/57/57 104/104/104
f 156/156/156 152/152/152 12/12/12
f 122/122/122 130/130/130 97/97/97
f 53/53/53 138/138/138 149/149/149
f 123/123/123 27/27/27 61/61/61
f 132/132/132 146/146/146 127/127/127
f 11/11/11 144/144/144 107/107/107
f 103/103/103 44/44/44 25/25/25
f 87/87/87 11/11/11 109/109/109
f 128/128/128 8/8/8 52/52/52
f 80/80/80 110/110/110 104/104/104
f 124/124/124 154/154/154 61/61/61
f 12/12/12 116/116/116 156/156/156
f 11/11/11 148/148/148 144/144/144
f 37/37/37 49/49/49 157/157/157
f 144/144/144 153/153/153 106/106/106
f 53/53/53 97/97/97 130/130/130
f 106/106/106 153/153/153 81/81/81
f 110/110/110 34/34/34 104/104/104
f 77/77/77 119/119/119 118/118/118
f 80/80/80 104/104/104 5/5/5
f 158/158/158 153/153/153 110/110/110
f 121/121/121 171/171/171 80/80/80
f 105/105/105 146/146/146 132/132/132
f 81/81/81 153/153/153 158/158/158
f 158/158/158 110/110/110 80/80/80
f 28/28/28 146/146/146 105/105/105
f 167/167/167 106/106/106 81/81/81
f 36/36/36 99/99/99 129/129/129
f 107/107/107 106/106/106 33/33/33
f 127/127/127 44/44/44 26/26/26
f 96/96/96 164/164/164 43/43/43
f 85/85/85 41/41/41 59/59/59
f 83/83/83 41/41/41 58/58/58
f 74/74/74 108/108/108 8/8/8
f 126/126/126 26/26/26 44/44/44
f 164/164/164 11/11/11 107/107/107
f 35/35/35 100/100/100 102/102/102
f 144/144/144 148/148/148 153/153/153
f 144/144/144 106/106/106 107/107/107
f 111/111/111 5/5/5 60/60/60
f 87/87/87 148/148/148 11/11/11
f 95/95/95 60/60/60 5/5/5
f 88/88/88 56/56/56 40/40/40
f 108/108/108 52/52/52 8/8/8
f 83/83/83 59/59/59 41/41/41
f 96/96/96 162/162/162 100/100/100
f 43/43/43 164/164/164 107/107/107
f 43/43/43 139/139/139 162/162/162
f 56/56/56 166/166/166 122/122/122
f 24/24/24 143/143/143 83/83/83
f 16/16/16 162/162/162 139/139/139
f 35/35/35 101/101/101 96/96/96
f 35/35/35 96/96/96 100/100/100
f 96/96/96 101/101/101 164/164/164
f 96/96/96 43/43/43 162/162/162
f 86/86/86 46/46/46 142/142/142
f 16/16/16 100/100/100 162/162/162
f 55/55/55 82/82/82 85/85/85
f 68/68/68 142/142/142 102/102/102
f 142/142/142 46/46/46 35/35/35
f 142/142/142 35/35/35 102/102/102
f 87/87/87 46/46/46 40/40/40
f 46/46/46 109/109/109 101/101/101
f 19/19/19 86/86/86 142/142/142
f 88/88/88 40/40/40 86/86/86
f 23/23/23 87/87/87 40/40/40
f 86/86/86 40/40/40 46/46/46
f 23/23/23 148/148/148 87/87/87
f 87/87/87 109/109/109 46/46/46
f 59/59/59 83/83/83 143/143/143
f 23/23/23 159/159/159 148/148/148
f 24/24/24 145/145/145 37/37/37
f 56/56/56 122/122/122 40/40/40
f 67/67/67 88/88/88 86/86/86
f 101/101/101 35/35/35 46/46/46
f 7/7/7 70/70/70 99/99/99
f 67/67/67 7/7/7 88/88/88
f 19/19/19 67/67/67 86/86/86
f 68/68/68 19/19/19 142/142/142
f 41/41/41 85/85/85 82/82/82
f 4/4/4 68/68/68 102/102/102
f 73/73/73 4/4/4 102/102/102
f 16/16/16 73/73/73 100/100/100
f 74/74/74 16/16/16 139/139/139
f 154/154/154 150/150/150 61/61/61
f 26/26/26 128/128/128 52/52/52
f 126/126/126 17/17/17 71/71/71
f 97/97/97 53/53/53 57/57/57
f 77/77/77 118/118/118 14/14/14
f 60/60/60 95/95/95 145/145/145
f 167/167/167 132/132/132 26/26/26
f 49/49/49 145/145/145 95/95/95
f 128/128/128 71/71/71 8/8/8
f 70/70/70 129/129/129 99/99/99
f 164/164/164 101/101/101 11/11/11
f 109/109/109 11/11/11 101/101/101
f 25/25/25 44/44/44 127/127/127
f 64/64/64 91/91/91 89/89/89
f 25/25/25 127/127/127 13/13/13
f 22/22/22 165/165/165 156/156/156
f 132/132/132 127/127/127 26/26/26
f 154/154/154 127/127/127 146/146/146
f 131/131/131 13/13/13 168/168/168
f 131/131/131 25/25/25 13/13/13
f 167/167/167 26/26/26 52/52/52
f 105/105/105 132/132/132 167/167/167
f 167/167/167 52/52/52 106/106/106
f 105/105/105 167/167/167 81/81/81
f 105/105/105 81/81/81 158/158/158
f 171/171/171 28/28/28 105/105/105
f 171/171/171 105/105/105 80/80/80
f 29/29/29 119/119/119 135/135/135
f 121/121/121 80/80/80 5/5/5
f 121/121/121 28/28/28 171/171/171
f 121/121/121 5/5/5 111/111/111
f 63/63/63 111/111/111 161/161/161
f 163/163/163 161/161/161 32/32/32
f 163/163/163 150/150/150 28/28/28
f 120/120/120 150/150/150 163/163/163
f 150/150/150 146/146/146 28/28/28
f 163/163/163 63/63/63 161/161/161
f 120/120/120 123/123/123 61/61/61
f 124/124/124 27/27/27 79/79/79
f 23/23/23 97/97/97 159/159/159
f 119/119/119 2/2/2 72/72/72
f 154/154/154 13/13/13 127/127/127
f 154/154/154 146/146/146 150/150/150
f 124/124/124 13/13/13 154/154/154
f 160/160/160 145/145/145 24/24/24
f 174/174/174 2/2/2 119/119/119
f 133/133/133 78/78/78 14/14/14
f 120/120/120 61/61/61 150/150/150
f 133/133/133 79/79/79 27/27/27
f 120/120/120 163/163/163 32/32/32
f 120/120/120 32/32/32 123/123/123
f 124/124/124 61/61/61 27/27/27
f 77/77/77 174/174/174 119/119/119
f 9/9/9 117/117/117 75/75/75
f 26/26/26 126/126/126 128/128/128
f 78/78/78 125/125/125 9/9/9
f 71/71/71 128/128/128 126/126/126
f 118/118/118 133/133/133 14/14/14
f 84/84/84 47/47/47 12/12/12
f 135/135/135 44/44/44 103/103/103
f 103/103/103 131/131/131 29/29/29
f 114/114/114 12/12/12 47/47/47
f 79/79/79 133/133/133 118/118/118
f 168/168/168 13/13/13 124/124/124
f 168/168/168 124/124/124 79/79/79
f 95/95/95 170/170/170 49/49/49
f 103/103/103 25/25/25 131/131/131
f 7/7/7 99/99/99 88/88/88
f 135/135/135 103/103/103 29/29/29
f 36/36/36 98/98/98 166/166/166
f 125/125/125 27/27/27 62/62/62
f 49/49/49 172/172/172 157/157/157
f 172/172/172 149/149/149 157/157/157
f 97/97/97 173/173/173 159/159/159
f 173/173/173 97/97/97 57/57/57
f 139/139/139 33/33/33 74/74/74
f 93/93/93 48/48/48 10/10/10
f 90/90/90 10/10/10 48/48/48
