# frame 000740 
# time 0.370500 
# name Cloth3D 
v -0.000000 0.000000 -0.000000
v 1.000000 0.000000 -0.000000
v -0.000000 1.000000 0.000000
v 1.000000 1.000000 0.000000
v 0.502011 0.493833 0.125848
v -0.000000 0.500000 0.000000
v 0.500000 1.000000 0.000000
v 1.000000 0.500000 0.000000
v 0.500000 -0.000000 0.000000
v 0.246875 0.752503 0.068302
v 0.754773 0.752303 0.068997
v 0.244587 0.243415 0.085085
v 0.759901 0.242045 0.095878
v 0.750000 0.000000 0.000000
v 0.250000 0.000000 0.000000
v 1.000000 0.750000 0.000000
v 1.000000 0.250000 0.000000
v 0.250000 1.000000 0.000000
v 0.750000 1.000000 0.000000
v 0.000000 0.250000 0.000000
v 0.000000 0.750000 -0.000000
v 0.362913 0.215525 0.088103
v 0.632276 0.772480 0.071521
v 0.240053 0.512569 0.096507
v 0.821626 0.244054 0.076653
v 0.882854 0.372207 0.061287
v 0.627448 0.122350 0.051385
v 0.882081 0.435172 0.059379
v 0.878148 0.122733 0.030986
v 0.374888 0.120801 0.054002
v 0.124451 0.123251 0.024563
v 0.493347 0.245137 0.104227
v 0.878340 0.624219 0.044990
v 0.630704 0.623803 0.102705
v 0.876911 0.876362 0.025979
v 0.374724 0.878991 0.048366
v 0.257781 0.599052 0.090295
v 0.121770 0.878224 0.036211
v 0.120586 0.624639 0.050136
v 0.626365 0.875412 0.037446
v 0.119869 0.372411 0.055387
v 0.248569 0.119904 0.048777
v 0.878502 0.750616 0.039156
v 0.881924 0.246593 0.053323
v 0.248317 0.879238 0.045601
v 0.751802 0.875966 0.034289
v 0.124341 0.248232 0.037222
v 0.120689 0.751442 0.045666
v 0.319722 0.592596 0.108053
v 0.123753 0.939768 0.020165
v 0.247382 0.816306 0.059433
v 0.881453 0.498210 0.057349
v 0.428516 0.741662 0.081516
v 0.241240 0.451239 0.103809
v 0.000000 0.375000 0.000000
v 0.500703 0.876833 0.043300
v 0.501839 0.622927 0.102729
v 0.242686 0.368641 0.106047
v 0.121165 0.498148 0.052517
v 0.370795 0.495397 0.125584
v 0.631615 0.244642 0.102019
v 0.501210 0.123114 0.051051
v 0.501670 0.365118 0.149036
v 0.000000 0.625000 0.000000
v 0.000000 0.875000 0.000000
v 0.000000 0.125000 0.000000
v 0.625000 1.000000 0.000000
v 0.875000 1.000000 0.000000
v 0.125000 1.000000 0.000000
v 0.375000 1.000000 0.000000
v 1.000000 0.375000 0.000000
v 1.000000 0.125000 0.000000
v 1.000000 0.875000 0.000000
v 1.000000 0.625000 0.000000
v 0.375000 0.000000 0.000000
v 0.125000 0.000000 0.000000
v 0.875000 0.000000 0.000000
v 0.625000 0.000000 0.000000
v 0.753290 0.122475 0.044612
v 0.633362 0.494656 0.125926
v 0.770342 0.513189 0.102112
v 0.060953 0.311573 0.023816
v 0.181443 0.433960 0.081007
v 0.182840 0.308215 0.072109
v 0.060402 0.436401 0.027055
v 0.688119 0.936857 0.015003
v 0.690394 0.813788 0.055394
v 0.563086 0.939141 0.023780
v 0.059398 0.687662 0.026579
v 0.183237 0.688368 0.063737
v 0.060130 0.561817 0.026626
v 0.186349 0.940971 0.025501
v 0.184022 0.815796 0.052827
v 0.061568 0.938603 0.012334
v 0.436919 0.558861 0.114262
v 0.877817 0.813625 0.032981
v 0.551644 0.742198 0.081522
v 0.311039 0.815637 0.060209
v 0.437635 0.938955 0.023178
v 0.939184 0.812919 0.017719
v 0.815963 0.814402 0.046194
v 0.938495 0.938408 0.012215
v 0.880408 0.184166 0.044246
v 0.567011 0.558538 0.114401
v 0.720149 0.421104 0.139117
v 0.825060 0.590052 0.068964
v 0.817838 0.688105 0.063400
v 0.939885 0.561683 0.025816
v 0.753272 0.814239 0.051830
v 0.690975 0.582647 0.110175
v 0.435486 0.429689 0.137407
v 0.187075 0.059775 0.022295
v 0.062064 0.061962 0.009737
v 0.184941 0.183262 0.052402
v 0.312523 0.060707 0.024833
v 0.310403 0.182111 0.073418
v 0.437905 0.062350 0.023471
v 0.813740 0.061538 0.018518
v 0.938994 0.061128 0.014245
v 0.558181 0.243387 0.102666
v 0.568378 0.429503 0.137615
v 0.526403 0.805278 0.061794
v 0.565508 0.183412 0.078840
v 0.692937 0.182384 0.075584
v 0.563377 0.062462 0.023346
v 0.941686 0.311154 0.030015
v 0.822185 0.307449 0.083950
v 0.942666 0.436346 0.033095
v 0.312117 0.940855 0.027113
v 0.465043 0.677877 0.092903
v 0.819334 0.181732 0.062709
v 0.812969 0.367395 0.098330
v 0.688695 0.061433 0.023907
v 0.061884 0.124327 0.014202
v 0.940965 0.186171 0.024341
v 0.437498 0.183465 0.077919
v 0.063087 0.187088 0.012330
v 0.386014 0.769216 0.075253
v 0.939037 0.687249 0.020809
v 0.184958 0.879027 0.042291
v 0.060020 0.813514 0.022905
v 0.813285 0.938869 0.018369
v 0.182807 0.560985 0.072692
v 0.772309 0.649056 0.081209
v 0.320082 0.529247 0.119419
v 0.720618 0.349354 0.152103
v 0.320826 0.347672 0.152104
v 0.718911 0.742926 0.081531
v 0.319083 0.741176 0.081512
v 0.618653 0.349054 0.152073
v 0.320691 0.401571 0.142326
v 0.286996 0.323032 0.126244
v 0.719509 0.610432 0.105159
v 0.726322 0.291544 0.123635
v 0.674318 0.669924 0.094241
v 0.324686 0.267571 0.113918
v 0.278060 0.657720 0.086734
v 0.719407 0.537335 0.118251
v 0.614508 0.742472 0.081526
v 0.320444 0.465552 0.130845
v 0.420105 0.348257 0.152060
v 1.000000 0.062500 -0.000000
v 0.552298 0.348810 0.152060
v 0.062500 1.000000 0.000000
v 0.416717 0.251706 0.104052
v 0.425819 0.818780 0.065288
v 0.820596 0.478612 0.082214
v 0.756608 0.181014 0.072615
v 0.719225 0.672971 0.094001
v 0.413979 0.661349 0.095891
v 0.634766 0.430035 0.137587
v 0.319452 0.655024 0.096880
v 0.591060 0.675575 0.093427
v 0.937500 0.000000 -0.000000
v 0.457533 0.295543 0.126974
v 0.247151 0.182070 0.065319
vt 0.000000 0.000000
vt 1.000000 0.000000
vt 0.000000 1.000000
vt 1.000000 1.000000
vt 0.500000 0.500000
vt 0.000000 0.500000
vt 0.500000 1.000000
vt 1.000000 0.500000
vt 0.500000 0.000000
vt 0.250000 0.750000
vt 0.750000 0.750000
vt 0.250000 0.250000
vt 0.750000 0.250000
vt 0.750000 0.000000
vt 0.250000 0.000000
vt 1.000000 0.750000
vt 1.000000 0.250000
vt 0.250000 1.000000
vt 0.750000 1.000000
vt 0.000000 0.250000
vt 0.000000 0.750000
vt 0.365347 0.220303
vt 0.629073 0.770824
vt 0.245672 0.515386
vt 0.812500 0.250000
vt 0.875000 0.375000
vt 0.625000 0.125000
vt 0.875000 0.437500
vt 0.875000 0.125000
vt 0.375000 0.125000
vt 0.125000 0.125000
vt 0.492214 0.250470
vt 0.875000 0.625000
vt 0.625000 0.625000
vt 0.875000 0.875000
vt 0.375000 0.875000
vt 0.262101 0.599801
vt 0.125000 0.875000
vt 0.125000 0.625000
vt 0.625000 0.875000
vt 0.125000 0.375000
vt 0.250000 0.125000
vt 0.875000 0.750000
vt 0.875000 0.250000
vt 0.250000 0.875000
vt 0.750000 0.875000
vt 0.125000 0.250000
vt 0.125000 0.750000
vt 0.324117 0.593043
vt 0.125000 0.937500
vt 0.250000 0.812500
vt 0.875000 0.500000
vt 0.428528 0.739986
vt 0.248222 0.455442
vt 0.000000 0.375000
vt 0.500000 0.875000
vt 0.500000 0.625000
vt 0.250000 0.375000
vt 0.125000 0.500000
vt 0.375000 0.500000
vt 0.625000 0.250000
vt 0.500000 0.125000
vt 0.500000 0.375000
vt 0.000000 0.625000
vt 0.000000 0.875000
vt 0.000000 0.125000
vt 0.625000 1.000000
vt 0.875000 1.000000
vt 0.125000 1.000000
vt 0.375000 1.000000
vt 1.000000 0.375000
vt 1.000000 0.125000
vt 1.000000 0.875000
vt 1.000000 0.625000
vt 0.375000 0.000000
vt 0.125000 0.000000
vt 0.875000 0.000000
vt 0.625000 0.000000
vt 0.750000 0.125000
vt 0.625000 0.500000
vt 0.760524 0.515669
vt 0.062500 0.312500
vt 0.187500 0.437500
vt 0.187500 0.312500
vt 0.062500 0.437500
vt 0.687500 0.937500
vt 0.687500 0.812500
vt 0.562500 0.937500
vt 0.062500 0.687500
vt 0.187500 0.687500
vt 0.062500 0.562500
vt 0.187500 0.937500
vt 0.187500 0.812500
vt 0.062500 0.937500
vt 0.437500 0.562500
vt 0.875000 0.812500
vt 0.549308 0.740793
vt 0.312500 0.812500
vt 0.437500 0.937500
vt 0.937500 0.812500
vt 0.812500 0.812500
vt 0.937500 0.937500
vt 0.875000 0.187500
vt 0.562500 0.562500
vt 0.705279 0.427366
vt 0.819332 0.591237
vt 0.812500 0.687500
vt 0.937500 0.562500
vt 0.750000 0.812500
vt 0.682510 0.583771
vt 0.437500 0.437500
vt 0.187500 0.062500
vt 0.062500 0.062500
vt 0.187500 0.187500
vt 0.312500 0.062500
vt 0.312500 0.187500
vt 0.437500 0.062500
vt 0.812500 0.062500
vt 0.937500 0.062500
vt 0.554454 0.248535
vt 0.562500 0.437500
vt 0.525016 0.804189
vt 0.562500 0.187500
vt 0.687500 0.187500
vt 0.562500 0.062500
vt 0.937500 0.312500
vt 0.812500 0.312500
vt 0.937500 0.437500
vt 0.312500 0.937500
vt 0.464310 0.678183
vt 0.812500 0.187500
vt 0.800716 0.372483
vt 0.687500 0.062500
vt 0.062500 0.125000
vt 0.937500 0.187500
vt 0.437500 0.187500
vt 0.062500 0.187500
vt 0.386728 0.766561
vt 0.937500 0.687500
vt 0.187500 0.875000
vt 0.062500 0.812500
vt 0.812500 0.937500
vt 0.187500 0.562500
vt 0.765906 0.648544
vt 0.325676 0.531561
vt 0.702183 0.360284
vt 0.332749 0.358521
vt 0.713251 0.739267
vt 0.321509 0.737991
vt 0.609057 0.359178
vt 0.330365 0.409063
vt 0.296906 0.332149
vt 0.710952 0.610009
vt 0.713437 0.300753
vt 0.668274 0.669022
vt 0.331126 0.276226
vt 0.281585 0.657008
vt 0.708575 0.538730
vt 0.611048 0.740649
vt 0.327876 0.470114
vt 0.424125 0.358638
vt 1.000000 0.062500
vt 0.547170 0.359073
vt 0.062500 1.000000
vt 0.418341 0.256674
vt 0.425703 0.815414
vt 0.812755 0.481587
vt 0.750000 0.187500
vt 0.712157 0.670896
vt 0.414679 0.661630
vt 0.625000 0.437500
vt 0.322939 0.653795
vt 0.587160 0.675778
vt 0.937500 0.000000
vt 0.458173 0.302976
vt 0.250000 0.187500
vn -0.078341 -0.078341 0.993844
vn 0.118264 -0.118264 0.985914
vn -0.065438 0.130876 0.989237
vn 0.099815 0.099815 0.989987
vn -0.000858 0.174249 0.984701
vn -0.406401 -0.000399 0.913695
vn -0.003851 0.367404 0.930054
vn 0.441161 0.028176 0.896985
vn -0.000006 -0.346447 0.938070
vn -0.127880 0.148338 0.980634
vn 0.239059 0.211453 0.947702
vn -0.257099 -0.288543 0.922303
vn 0.222424 -0.291456 0.930366
vn 0.019913 -0.324903 0.945538
vn -0.009102 -0.361743 0.932233
vn 0.300801 0.012814 0.953601
vn 0.425571 -0.020842 0.904685
vn -0.006650 0.408532 0.912720
vn -0.012219 0.269476 0.962930
vn -0.280130 -0.043803 0.958962
vn -0.382723 0.014796 0.923745
vn -0.005896 -0.394288 0.918968
vn 0.006383 0.313978 0.949409
vn -0.327945 0.109598 0.938318
vn 0.318492 -0.156415 0.934932
vn 0.444450 -0.016785 0.895647
vn 0.013580 -0.403503 0.914877
vn 0.400964 0.045420 0.914967
vn 0.185255 -0.222296 0.957217
vn -0.006215 -0.390804 0.920453
vn -0.185671 -0.113447 0.976041
vn -0.012425 -0.404018 0.914666
vn 0.353173 0.067120 0.933147
vn 0.000354 0.175607 0.984460
vn 0.159094 0.131035 0.978529
vn 0.001493 0.291917 0.956442
vn -0.259102 0.130416 0.957005
vn -0.156142 0.183483 0.970543
vn -0.318030 0.022362 0.947817
vn 0.039233 0.292717 0.955394
vn -0.401981 -0.056751 0.913888
vn -0.111261 -0.305416 0.945697
vn 0.272236 0.081343 0.958786
vn 0.367467 -0.109113 0.923614
vn -0.045333 0.236270 0.970629
vn 0.035861 0.270926 0.961932
vn -0.337773 -0.120662 0.933461
vn -0.261123 0.056256 0.963665
vn -0.160085 0.167094 0.972858
vn -0.091938 0.271042 0.958167
vn -0.060033 0.178486 0.982109
vn 0.380577 0.058335 0.922908
vn 0.004766 0.199337 0.979919
vn -0.368778 0.078926 0.926160
vn -0.383622 -0.012525 0.923405
vn 0.036060 0.290366 0.956236
vn -0.000337 0.174061 0.984735
vn -0.438336 -0.018185 0.898627
vn -0.373811 0.031218 0.926979
vn -0.001288 0.174010 0.984743
vn 0.009855 -0.401479 0.915815
vn 0.002761 -0.412194 0.911092
vn -0.001132 0.174818 0.984600
vn -0.408229 -0.000624 0.912880
vn -0.277265 0.042092 0.959871
vn -0.209995 -0.013357 0.977611
vn 0.034293 0.311747 0.949546
vn 0.024723 0.246382 0.968857
vn -0.024909 0.328389 0.944214
vn 0.016541 0.390431 0.920483
vn 0.473138 -0.011079 0.880919
vn 0.297607 -0.032576 0.954133
vn 0.237718 0.020199 0.971124
vn 0.361696 0.019990 0.932082
vn 0.008755 -0.362405 0.931979
vn -0.049141 -0.223154 0.973544
vn 0.011282 -0.249714 0.968254
vn -0.003919 -0.353479 0.935434
vn 0.072432 -0.393977 0.916262
vn -0.000452 0.174578 0.984643
vn 0.394812 0.131011 0.909373
vn -0.351469 -0.066367 0.933844
vn -0.374963 0.040056 0.926174
vn -0.397486 -0.148474 0.905516
vn -0.406636 -0.001135 0.913590
vn 0.016730 0.283762 0.958749
vn 0.035807 0.322257 0.945975
vn 0.026851 0.314380 0.948917
vn -0.370642 0.016284 0.928633
vn -0.219388 0.079939 0.972357
vn -0.385692 0.002119 0.922625
vn -0.056421 0.307820 0.949770
vn -0.122478 0.142749 0.982152
vn -0.144116 0.155568 0.977256
vn -0.000448 0.173763 0.984787
vn 0.230351 0.106789 0.967230
vn 0.000526 0.234465 0.972125
vn -0.041302 0.221349 0.974320
vn 0.016489 0.352987 0.935483
vn 0.260268 0.055750 0.963926
vn 0.151097 0.185255 0.971005
vn 0.115358 0.112879 0.986890
vn 0.310090 -0.187130 0.932109
vn -0.001035 0.174153 0.984718
vn 0.212851 0.163100 0.963376
vn 0.353332 0.097042 0.930451
vn 0.284680 0.101776 0.953204
vn 0.390806 0.043850 0.919428
vn 0.089383 0.284185 0.954594
vn 0.000431 0.174400 0.984675
vn -0.000699 0.174602 0.984639
vn -0.090899 -0.287771 0.953376
vn -0.116687 -0.099845 0.988137
vn -0.262946 -0.210629 0.941539
vn -0.009472 -0.388416 0.921435
vn -0.082328 -0.346987 0.934250
vn 0.011437 -0.393683 0.919175
vn 0.046397 -0.296042 0.954047
vn 0.123189 -0.133895 0.983309
vn 0.010563 -0.390652 0.920478
vn -0.001254 0.174632 0.984633
vn 0.029352 0.279637 0.959657
vn 0.007727 -0.386194 0.922385
vn 0.032900 -0.400107 0.915878
vn -0.003587 -0.384254 0.923220
vn 0.438538 -0.025864 0.898340
vn 0.391939 -0.127306 0.911140
vn 0.438732 0.021221 0.898367
vn 0.000491 0.363307 0.931669
vn 0.000088 0.173475 0.984838
vn 0.223546 -0.294135 0.929253
vn 0.455019 -0.056547 0.888684
vn 0.020449 -0.365125 0.930734
vn -0.192187 -0.020705 0.981140
vn 0.335165 -0.096132 0.937242
vn -0.007361 -0.373478 0.927610
vn -0.228716 -0.023453 0.973211
vn -0.016719 0.227167 0.973712
vn 0.330942 0.026687 0.943274
vn -0.075605 0.213933 0.973918
vn -0.320387 0.047260 0.946107
vn 0.022899 0.249490 0.968107
vn -0.311414 0.061974 0.948251
vn 0.301340 0.130828 0.944499
vn -0.139695 0.166668 0.976067
vn 0.256304 -0.139919 0.956416
vn -0.296692 -0.110098 0.948605
vn 0.163680 0.234187 0.958314
vn -0.089240 0.213312 0.972900
vn 0.001746 -0.080619 0.996743
vn -0.241843 0.152558 0.958247
vn -0.408691 -0.263598 0.873778
vn 0.120948 0.168516 0.978251
vn 0.240674 -0.358674 0.901903
vn -0.002516 0.173958 0.984750
vn -0.118804 -0.411454 0.903655
vn -0.220743 0.150688 0.963621
vn 0.174785 0.171423 0.969569
vn -0.000781 0.254090 0.967180
vn -0.155485 0.166348 0.973731
vn -0.001359 -0.126873 0.991918
vn 0.233527 -0.000000 0.972350
vn -0.000586 -0.035247 0.999378
vn -0.031782 0.226312 0.973536
vn -0.013643 -0.409950 0.912006
vn 0.010532 0.245462 0.969349
vn 0.399617 0.084862 0.912746
vn 0.088073 -0.395395 0.914279
vn 0.126601 0.170942 0.977114
vn -0.000134 0.173736 0.984792
vn -0.000332 0.174689 0.984624
vn -0.158367 0.170629 0.972525
vn 0.000467 0.173325 0.984865
vn 0.000000 -0.233050 0.972465
vn -0.017031 -0.433605 0.900942
vn -0.161522 -0.286571 0.944345
f 1/1/1 113/113/113 66/66/66
f 155/155/155 34/34/34 153/153/153
f 4/4/4 68/68/68 102/102/102
f 96/96/96 101/101/101 43/43/43
f 144/144/144 11/11/11 169/169/169
f 10/10/10 93/93/93 90/90/90
f 164/164/164 3/3/3 94/94/94
f 31/31/31 134/134/134 113/113/113
f 134/134/134 137/137/137 66/66/66
f 134/134/134 66/66/66 113/113/113
f 115/115/115 112/112/112 15/15/15
f 31/31/31 137/137/137 134/134/134
f 73/73/73 102/102/102 100/100/100
f 127/127/127 132/132/132 154/154/154
f 76/76/76 113/113/113 1/1/1
f 57/57/57 170/170/170 95/95/95
f 15/15/15 112/112/112 76/76/76
f 115/115/115 15/15/15 75/75/75
f 45/45/45 51/51/51 98/98/98
f 137/137/137 31/31/31 47/47/47
f 32/32/32 136/136/136 123/123/123
f 22/22/22 30/30/30 136/136/136
f 22/22/22 156/156/156 116/116/116
f 62/62/62 123/123/123 136/136/136
f 165/165/165 136/136/136 32/32/32
f 115/115/115 30/30/30 42/42/42
f 152/152/152 156/156/156 147/147/147
f 143/143/143 59/59/59 24/24/24
f 116/116/116 30/30/30 22/22/22
f 42/42/42 112/112/112 115/115/115
f 114/114/114 47/47/47 31/31/31
f 84/84/84 152/152/152 58/58/58
f 83/83/83 24/24/24 59/59/59
f 116/116/116 42/42/42 30/30/30
f 54/54/54 151/151/151 160/160/160
f 75/75/75 117/117/117 115/115/115
f 148/148/148 169/169/169 11/11/11
f 165/165/165 22/22/22 136/136/136
f 26/26/26 127/127/127 126/126/126
f 83/83/83 58/58/58 54/54/54
f 146/146/146 154/154/154 132/132/132
f 63/63/63 121/121/121 111/111/111
f 30/30/30 115/115/115 117/117/117
f 169/169/169 148/148/148 155/155/155
f 153/153/153 169/169/169 155/155/155
f 72/72/72 135/135/135 119/119/119
f 10/10/10 51/51/51 93/93/93
f 54/54/54 58/58/58 151/151/151
f 129/129/129 45/45/45 36/36/36
f 112/112/112 31/31/31 76/76/76
f 57/57/57 173/173/173 130/130/130
f 84/84/84 58/58/58 41/41/41
f 113/113/113 76/76/76 31/31/31
f 149/149/149 98/98/98 10/10/10
f 9/9/9 125/125/125 117/117/117
f 147/147/147 156/156/156 161/161/161
f 157/157/157 10/10/10 90/90/90
f 82/82/82 137/137/137 47/47/47
f 84/84/84 12/12/12 152/152/152
f 12/12/12 176/176/176 116/116/116
f 172/172/172 49/49/49 170/170/170
f 20/20/20 137/137/137 82/82/82
f 159/159/159 173/173/173 155/155/155
f 20/20/20 66/66/66 137/137/137
f 55/55/55 20/20/20 82/82/82
f 34/34/34 155/155/155 173/173/173
f 23/23/23 40/40/40 122/122/122
f 92/92/92 45/45/45 129/129/129
f 149/149/149 172/172/172 170/170/170
f 176/176/176 42/42/42 116/116/116
f 128/128/128 8/8/8 52/52/52
f 107/107/107 33/33/33 43/43/43
f 139/139/139 43/43/43 33/33/33
f 79/79/79 29/29/29 131/131/131
f 49/49/49 37/37/37 145/145/145
f 6/6/6 85/85/85 91/91/91
f 45/45/45 98/98/98 36/36/36
f 122/122/122 53/53/53 97/97/97
f 110/110/110 153/153/153 34/34/34
f 162/162/162 72/72/72 119/119/119
f 16/16/16 100/100/100 139/139/139
f 108/108/108 52/52/52 8/8/8
f 93/93/93 38/38/38 48/48/48
f 62/62/62 117/117/117 125/125/125
f 37/37/37 90/90/90 143/143/143
f 143/143/143 90/90/90 39/39/39
f 29/29/29 79/79/79 118/118/118
f 79/79/79 131/131/131 168/168/168
f 129/129/129 70/70/70 18/18/18
f 149/149/149 170/170/170 53/53/53
f 92/92/92 18/18/18 69/69/69
f 128/128/128 26/26/26 71/71/71
f 2/2/2 162/162/162 119/119/119
f 92/92/92 69/69/69 50/50/50
f 126/126/126 71/71/71 26/26/26
f 93/93/93 45/45/45 140/140/140
f 94/94/94 38/38/38 50/50/50
f 48/48/48 38/38/38 141/141/141
f 65/65/65 94/94/94 3/3/3
f 35/35/35 142/142/142 101/101/101
f 21/21/21 141/141/141 65/65/65
f 38/38/38 94/94/94 141/141/141
f 46/46/46 101/101/101 142/142/142
f 65/65/65 141/141/141 94/94/94
f 39/39/39 90/90/90 48/48/48
f 51/51/51 45/45/45 93/93/93
f 23/23/23 122/122/122 97/97/97
f 93/93/93 140/140/140 38/38/38
f 145/145/145 160/160/160 60/60/60
f 92/92/92 129/129/129 18/18/18
f 140/140/140 45/45/45 92/92/92
f 89/89/89 39/39/39 48/48/48
f 48/48/48 141/141/141 89/89/89
f 42/42/42 176/176/176 114/114/114
f 89/89/89 21/21/21 64/64/64
f 21/21/21 89/89/89 141/141/141
f 165/165/165 161/161/161 156/156/156
f 149/149/149 10/10/10 157/157/157
f 6/6/6 91/91/91 64/64/64
f 59/59/59 91/91/91 85/85/85
f 6/6/6 55/55/55 85/85/85
f 24/24/24 83/83/83 54/54/54
f 152/152/152 147/147/147 58/58/58
f 151/151/151 58/58/58 147/147/147
f 63/63/63 163/163/163 121/121/121
f 24/24/24 54/54/54 160/160/160
f 34/34/34 173/173/173 57/57/57
f 123/123/123 62/62/62 27/27/27
f 27/27/27 125/125/125 133/133/133
f 43/43/43 101/101/101 107/107/107
f 56/56/56 88/88/88 99/99/99
f 39/39/39 89/89/89 91/91/91
f 169/169/169 153/153/153 144/144/144
f 59/59/59 85/85/85 83/83/83
f 106/106/106 52/52/52 33/33/33
f 37/37/37 157/157/157 90/90/90
f 37/37/37 143/143/143 24/24/24
f 149/149/149 138/138/138 98/98/98
f 26/26/26 28/28/28 132/132/132
f 135/135/135 72/72/72 17/17/17
f 155/155/155 148/148/148 159/159/159
f 51/51/51 10/10/10 98/98/98
f 78/78/78 133/133/133 125/125/125
f 17/17/17 126/126/126 135/135/135
f 104/104/104 95/95/95 5/5/5
f 130/130/130 53/53/53 170/170/170
f 44/44/44 135/135/135 126/126/126
f 105/105/105 158/158/158 80/80/80
f 57/57/57 95/95/95 104/104/104
f 39/39/39 91/91/91 143/143/143
f 34/34/34 57/57/57 104/104/104
f 156/156/156 152/152/152 12/12/12
f 43/43/43 139/139/139 100/100/100
f 53/53/53 138/138/138 149/149/149
f 123/123/123 27/27/27 61/61/61
f 60/60/60 160/160/160 111/111/111
f 11/11/11 144/144/144 107/107/107
f 103/103/103 44/44/44 25/25/25
f 92/92/92 50/50/50 140/140/140
f 119/119/119 29/29/29 77/77/77
f 80/80/80 110/110/110 104/104/104
f 124/124/124 154/154/154 61/61/61
f 12/12/12 116/116/116 156/156/156
f 41/41/41 83/83/83 85/85/85
f 37/37/37 49/49/49 157/157/157
f 144/144/144 153/153/153 106/106/106
f 96/96/96 43/43/43 100/100/100
f 106/106/106 153/153/153 81/81/81
f 110/110/110 34/34/34 104/104/104
f 101/101/101 11/11/11 107/107/107
f 80/80/80 104/104/104 5/5/5
f 158/158/158 153/153/153 110/110/110
f 121/121/121 171/171/171 80/80/80
f 105/105/105 146/146/146 132/132/132
f 81/81/81 153/153/153 158/158/158
f 158/158/158 110/110/110 80/80/80
f 99/99/99 36/36/36 56/56/56
f 167/167/167 106/106/106 81/81/81
f 36/36/36 99/99/99 129/129/129
f 107/107/107 106/106/106 33/33/33
f 11/11/11 109/109/109 148/148/148
f 82/82/82 47/47/47 41/41/41
f 175/175/175 32/32/32 163/163/163
f 59/59/59 143/143/143 91/91/91
f 74/74/74 108/108/108 8/8/8
f 87/87/87 148/148/148 109/109/109
f 84/84/84 41/41/41 47/47/47
f 35/35/35 100/100/100 102/102/102
f 138/138/138 53/53/53 166/166/166
f 144/144/144 106/106/106 107/107/107
f 111/111/111 5/5/5 60/60/60
f 38/38/38 140/140/140 50/50/50
f 95/95/95 60/60/60 5/5/5
f 88/88/88 56/56/56 40/40/40
f 118/118/118 77/77/77 29/29/29
f 161/161/161 175/175/175 163/163/163
f 12/12/12 84/84/84 114/114/114
f 108/108/108 33/33/33 52/52/52
f 47/47/47 114/114/114 84/84/84
f 56/56/56 166/166/166 122/122/122
f 74/74/74 139/139/139 108/108/108
f 111/111/111 151/151/151 161/161/161
f 35/35/35 101/101/101 96/96/96
f 35/35/35 96/96/96 100/100/100
f 122/122/122 166/166/166 53/53/53
f 151/151/151 147/147/147 161/161/161
f 86/86/86 46/46/46 142/142/142
f 53/53/53 130/130/130 97/97/97
f 55/55/55 82/82/82 85/85/85
f 68/68/68 142/142/142 102/102/102
f 42/42/42 114/114/114 112/112/112
f 142/142/142 35/35/35 102/102/102
f 87/87/87 46/46/46 40/40/40
f 46/46/46 109/109/109 101/101/101
f 19/19/19 86/86/86 142/142/142
f 88/88/88 40/40/40 86/86/86
f 23/23/23 87/87/87 40/40/40
f 86/86/86 40/40/40 46/46/46
f 23/23/23 148/148/148 87/87/87
f 87/87/87 109/109/109 46/46/46
f 33/33/33 108/108/108 139/139/139
f 23/23/23 159/159/159 148/148/148
f 24/24/24 145/145/145 37/37/37
f 56/56/56 122/122/122 40/40/40
f 67/67/67 88/88/88 86/86/86
f 31/31/31 112/112/112 114/114/114
f 7/7/7 70/70/70 99/99/99
f 67/67/67 7/7/7 88/88/88
f 19/19/19 67/67/67 86/86/86
f 68/68/68 19/19/19 142/142/142
f 41/41/41 85/85/85 82/82/82
f 83/83/83 41/41/41 58/58/58
f 73/73/73 4/4/4 102/102/102
f 16/16/16 73/73/73 100/100/100
f 74/74/74 16/16/16 139/139/139
f 154/154/154 150/150/150 61/61/61
f 138/138/138 166/166/166 98/98/98
f 126/126/126 17/17/17 71/71/71
f 48/48/48 90/90/90 93/93/93
f 77/77/77 118/118/118 14/14/14
f 60/60/60 95/95/95 145/145/145
f 28/28/28 52/52/52 167/167/167
f 49/49/49 145/145/145 95/95/95
f 128/128/128 71/71/71 8/8/8
f 70/70/70 129/129/129 99/99/99
f 57/57/57 130/130/130 170/170/170
f 109/109/109 11/11/11 101/101/101
f 25/25/25 44/44/44 127/127/127
f 64/64/64 91/91/91 89/89/89
f 25/25/25 127/127/127 13/13/13
f 22/22/22 165/165/165 156/156/156
f 132/132/132 127/127/127 26/26/26
f 151/151/151 111/111/111 160/160/160
f 131/131/131 13/13/13 168/168/168
f 131/131/131 25/25/25 13/13/13
f 36/36/36 98/98/98 166/166/166
f 105/105/105 132/132/132 167/167/167
f 167/167/167 52/52/52 106/106/106
f 105/105/105 167/167/167 81/81/81
f 105/105/105 81/81/81 158/158/158
f 166/166/166 56/56/56 36/36/36
f 171/171/171 105/105/105 80/80/80
f 29/29/29 119/119/119 135/135/135
f 121/121/121 80/80/80 5/5/5
f 52/52/52 28/28/28 128/128/128
f 121/121/121 5/5/5 111/111/111
f 63/63/63 111/111/111 161/161/161
f 44/44/44 126/126/126 127/127/127
f 176/176/176 12/12/12 114/114/114
f 120/120/120 150/150/150 163/163/163
f 28/28/28 26/26/26 128/128/128
f 163/163/163 63/63/63 161/161/161
f 120/120/120 123/123/123 61/61/61
f 124/124/124 27/27/27 79/79/79
f 23/23/23 97/97/97 159/159/159
f 97/97/97 130/130/130 173/173/173
f 154/154/154 13/13/13 127/127/127
f 154/154/154 146/146/146 150/150/150
f 124/124/124 13/13/13 154/154/154
f 160/160/160 145/145/145 24/24/24
f 174/174/174 2/2/2 119/119/119
f 133/133/133 78/78/78 14/14/14
f 120/120/120 61/61/61 150/150/150
f 133/133/133 79/79/79 27/27/27
f 120/120/120 163/163/163 32/32/32
f 120/120/120 32/32/32 123/123/123
f 124/124/124 61/61/61 27/27/27
f 77/77/77 174/174/174 119/119/119
f 9/9/9 117/117/117 75/75/75
f 94/94/94 50/50/50 164/164/164
f 78/78/78 125/125/125 9/9/9
f 69/69/69 164/164/164 50/50/50
f 118/118/118 133/133/133 14/14/14
f 136/136/136 30/30/30 62/62/62
f 135/135/135 44/44/44 103/103/103
f 103/103/103 131/131/131 29/29/29
f 117/117/117 62/62/62 30/30/30
f 79/79/79 133/133/133 118/118/118
f 168/168/168 13/13/13 124/124/124
f 168/168/168 124/124/124 79/79/79
f 95/95/95 170/170/170 49/49/49
f 103/103/103 25/25/25 131/131/131
f 7/7/7 99/99/99 88/88/88
f 135/135/135 103/103/103 29/29/29
f 167/167/167 132/132/132 28/28/28
f 125/125/125 27/27/27 62/62/62
f 49/49/49 172/172/172 157/157/157
f 172/172/172 149/149/149 157/157/157
f 97/97/97 173/173/173 159/159/159
f 32/32/32 175/175/175 165/165/165
f 175/175/175 161/161/161 165/165/165
f 171/171/171 146/146/146 105/105/105
f 150/150/150 146/146/146 171/171/171
f 171/171/171 121/121/121 150/150/150
f 163/163/163 150/150/150 121/121/121
