# frame 000701 
# time 0.351000 
# name Cloth3D 
v -0.000000 0.000000 -0.000000
v 1.000000 0.000000 -0.000000
v -0.000000 1.000000 0.000000
v 1.000000 1.000000 0.000000
v 0.498251 0.495800 0.122651
v -0.000000 0.500000 0.000000
v 0.500000 1.000000 0.000000
v 1.000000 0.500000 0.000000
v 0.500000 -0.000000 0.000000
v 0.245628 0.753912 0.070825
v 0.755445 0.756933 0.087081
v 0.246429 0.247941 0.063036
v 0.755797 0.245281 0.084028
v 0.750000 0.000000 0.000000
v 0.250000 0.000000 0.000000
v 1.000000 0.750000 0.000000
v 1.000000 0.250000 0.000000
v 0.250000 1.000000 0.000000
v 0.750000 1.000000 0.000000
v 0.000000 0.250000 0.000000
v 0.000000 0.750000 -0.000000
v 0.361703 0.217243 0.075607
v 0.631435 0.779072 0.094075
v 0.240028 0.513982 0.089327
v 0.818438 0.246710 0.067482
v 0.881036 0.372872 0.059268
v 0.625497 0.123466 0.045314
v 0.630292 0.366025 0.132139
v 0.877466 0.122914 0.030268
v 0.373928 0.123375 0.041633
v 0.124825 0.125295 0.014808
v 0.490682 0.245881 0.094668
v 0.878881 0.626052 0.052705
v 0.628297 0.627244 0.112561
v 0.876651 0.877506 0.029162
v 0.373703 0.878968 0.048577
v 0.256745 0.600959 0.090370
v 0.124636 0.875307 0.016742
v 0.122852 0.625173 0.042088
v 0.625927 0.884942 0.065273
v 0.124232 0.374011 0.037373
v 0.249697 0.125183 0.026117
v 0.878467 0.752601 0.046136
v 0.881690 0.247151 0.053655
v 0.248312 0.878206 0.039425
v 0.752991 0.883684 0.058522
v 0.122776 0.249286 0.032680
v 0.122871 0.750871 0.035438
v 0.319713 0.594606 0.113674
v 0.124927 0.937589 0.007756
v 0.246674 0.816726 0.057289
v 0.877818 0.499200 0.052471
v 0.425692 0.724820 0.103338
v 0.242047 0.452272 0.091822
v 0.000000 0.375000 0.000000
v 0.499709 0.879735 0.053210
v 0.498749 0.626745 0.115014
v 0.243346 0.369573 0.091325
v 0.122354 0.499216 0.045690
v 0.368025 0.496478 0.121492
v 0.627917 0.245200 0.094573
v 0.499592 0.125072 0.041610
v 0.497799 0.365858 0.132133
v 0.000000 0.625000 0.000000
v 0.000000 0.875000 0.000000
v 0.000000 0.125000 0.000000
v 0.625000 1.000000 0.000000
v 0.875000 1.000000 0.000000
v 0.125000 1.000000 0.000000
v 0.375000 1.000000 0.000000
v 1.000000 0.375000 0.000000
v 1.000000 0.125000 0.000000
v 1.000000 0.875000 0.000000
v 1.000000 0.625000 0.000000
v 0.375000 0.000000 0.000000
v 0.125000 0.000000 0.000000
v 0.875000 0.000000 0.000000
v 0.625000 0.000000 0.000000
v 0.751433 0.122910 0.041201
v 0.629109 0.496425 0.121975
v 0.767566 0.514414 0.101834
v 0.062741 0.312453 0.013891
v 0.184501 0.435357 0.065398
v 0.182441 0.309939 0.061923
v 0.061811 0.437134 0.020494
v 0.688300 0.943896 0.034772
v 0.690602 0.821783 0.081876
v 0.562735 0.941225 0.030123
v 0.061229 0.687544 0.020448
v 0.183083 0.689354 0.062501
v 0.061175 0.562285 0.022668
v 0.187322 0.937900 0.012747
v 0.185174 0.814757 0.042628
v 0.062632 0.937371 0.002408
v 0.433639 0.561436 0.118856
v 0.877252 0.815239 0.038380
v 0.549831 0.725361 0.103346
v 0.309368 0.817773 0.067036
v 0.437270 0.939496 0.025333
v 0.939283 0.813419 0.021643
v 0.816704 0.818329 0.059619
v 0.937513 0.937619 0.005934
v 0.878850 0.185470 0.039941
v 0.563570 0.561490 0.120378
v 0.720147 0.421724 0.127669
v 0.823756 0.592122 0.073618
v 0.818248 0.691015 0.075078
v 0.937886 0.562501 0.023615
v 0.753974 0.820222 0.072135
v 0.688379 0.584772 0.114827
v 0.432233 0.430687 0.126639
v 0.187739 0.063464 0.005129
v 0.062503 0.062551 0.004965
v 0.187306 0.188399 0.028020
v 0.312611 0.063243 0.012894
v 0.310437 0.186029 0.055221
v 0.437349 0.062032 0.021373
v 0.813204 0.060687 0.021129
v 0.937537 0.062493 0.005452
v 0.554922 0.243934 0.094169
v 0.563788 0.430792 0.126891
v 0.524796 0.811230 0.081982
v 0.562849 0.186193 0.066717
v 0.689901 0.184010 0.067919
v 0.562459 0.062583 0.020819
v 0.941630 0.311561 0.030560
v 0.821592 0.307998 0.084207
v 0.939581 0.436820 0.028047
v 0.312226 0.937818 0.018322
v 0.476248 0.767771 0.090486
v 0.816063 0.184951 0.051786
v 0.809712 0.367972 0.093371
v 0.687736 0.060616 0.024616
v 0.062298 0.125088 0.007872
v 0.940686 0.186406 0.024356
v 0.435717 0.184781 0.067804
v 0.061450 0.187331 0.014262
v 0.383313 0.771918 0.086289
v 0.941315 0.688266 0.030006
v 0.186237 0.876717 0.028787
v 0.061811 0.812597 0.013929
v 0.813524 0.941292 0.025502
v 0.184050 0.562231 0.065504
v 0.771528 0.651865 0.091209
v 0.320077 0.530434 0.118820
v 0.720710 0.327522 0.135281
v 0.320917 0.325839 0.135282
v 0.718982 0.726097 0.103356
v 0.319153 0.724352 0.103331
v 0.613223 0.327200 0.135264
v 0.320689 0.401910 0.129129
v 0.285449 0.322879 0.114478
v 0.719500 0.612503 0.112378
v 0.722278 0.292648 0.115058
v 0.672997 0.673806 0.109174
v 0.323133 0.268627 0.100946
v 0.276192 0.660185 0.092548
v 0.719403 0.538331 0.118303
v 0.613321 0.725637 0.103350
v 0.320442 0.466170 0.123973
v 0.417568 0.326416 0.135254
v 0.938747 0.750681 0.021824
v 0.547670 0.326960 0.135254
v 0.816440 0.754432 0.065166
v 0.414424 0.251705 0.095286
v 0.423874 0.820927 0.073131
v 0.818201 0.479781 0.080979
v 0.753182 0.184535 0.060843
v 0.367034 0.410340 0.128413
v 0.410689 0.665254 0.109715
v 0.629683 0.431250 0.126880
v 0.319439 0.658042 0.108614
vt 0.000000 0.000000
vt 1.000000 0.000000
vt 0.000000 1.000000
vt 1.000000 1.000000
vt 0.500000 0.500000
vt 0.000000 0.500000
vt 0.500000 1.000000
vt 1.000000 0.500000
vt 0.500000 0.000000
vt 0.250000 0.750000
vt 0.750000 0.750000
vt 0.250000 0.250000
vt 0.750000 0.250000
vt 0.750000 0.000000
vt 0.250000 0.000000
vt 1.000000 0.750000
vt 1.000000 0.250000
vt 0.250000 1.000000
vt 0.750000 1.000000
vt 0.000000 0.250000
vt 0.000000 0.750000
vt 0.365347 0.220303
vt 0.629073 0.770824
vt 0.245672 0.515386
vt 0.812500 0.250000
vt 0.875000 0.375000
vt 0.625000 0.125000
vt 0.625000 0.375000
vt 0.875000 0.125000
vt 0.375000 0.125000
vt 0.125000 0.125000
vt 0.492214 0.250470
vt 0.875000 0.625000
vt 0.625000 0.625000
vt 0.875000 0.875000
vt 0.375000 0.875000
vt 0.262101 0.599801
vt 0.125000 0.875000
vt 0.125000 0.625000
vt 0.625000 0.875000
vt 0.125000 0.375000
vt 0.250000 0.125000
vt 0.875000 0.750000
vt 0.875000 0.250000
vt 0.250000 0.875000
vt 0.750000 0.875000
vt 0.125000 0.250000
vt 0.125000 0.750000
vt 0.327062 0.593103
vt 0.125000 0.937500
vt 0.250000 0.812500
vt 0.875000 0.500000
vt 0.428746 0.719083
vt 0.248222 0.455442
vt 0.000000 0.375000
vt 0.500000 0.875000
vt 0.500000 0.625000
vt 0.250000 0.375000
vt 0.125000 0.500000
vt 0.375000 0.500000
vt 0.625000 0.250000
vt 0.500000 0.125000
vt 0.500000 0.375000
vt 0.000000 0.625000
vt 0.000000 0.875000
vt 0.000000 0.125000
vt 0.625000 1.000000
vt 0.875000 1.000000
vt 0.125000 1.000000
vt 0.375000 1.000000
vt 1.000000 0.375000
vt 1.000000 0.125000
vt 1.000000 0.875000
vt 1.000000 0.625000
vt 0.375000 0.000000
vt 0.125000 0.000000
vt 0.875000 0.000000
vt 0.625000 0.000000
vt 0.750000 0.125000
vt 0.625000 0.500000
vt 0.760524 0.515669
vt 0.062500 0.312500
vt 0.187500 0.437500
vt 0.187500 0.312500
vt 0.062500 0.437500
vt 0.687500 0.937500
vt 0.687500 0.812500
vt 0.562500 0.937500
vt 0.062500 0.687500
vt 0.187500 0.687500
vt 0.062500 0.562500
vt 0.187500 0.937500
vt 0.187500 0.812500
vt 0.062500 0.937500
vt 0.437500 0.562500
vt 0.875000 0.812500
vt 0.549314 0.719598
vt 0.312500 0.812500
vt 0.437500 0.937500
vt 0.937500 0.812500
vt 0.812500 0.812500
vt 0.937500 0.937500
vt 0.875000 0.187500
vt 0.562500 0.562500
vt 0.710596 0.427224
vt 0.819332 0.591237
vt 0.812500 0.687500
vt 0.937500 0.562500
vt 0.750000 0.812500
vt 0.682510 0.583771
vt 0.437500 0.437500
vt 0.187500 0.062500
vt 0.062500 0.062500
vt 0.187500 0.187500
vt 0.312500 0.062500
vt 0.312500 0.187500
vt 0.437500 0.062500
vt 0.812500 0.062500
vt 0.937500 0.062500
vt 0.554454 0.248535
vt 0.562500 0.437500
vt 0.525016 0.804189
vt 0.562500 0.187500
vt 0.687500 0.187500
vt 0.562500 0.062500
vt 0.937500 0.312500
vt 0.812500 0.312500
vt 0.937500 0.437500
vt 0.312500 0.937500
vt 0.477574 0.762067
vt 0.812500 0.187500
vt 0.800716 0.372483
vt 0.687500 0.062500
vt 0.062500 0.125000
vt 0.937500 0.187500
vt 0.437500 0.187500
vt 0.062500 0.187500
vt 0.386728 0.766561
vt 0.937500 0.687500
vt 0.187500 0.875000
vt 0.062500 0.812500
vt 0.812500 0.937500
vt 0.187500 0.562500
vt 0.765906 0.648544
vt 0.328157 0.531630
vt 0.708833 0.338436
vt 0.334430 0.338348
vt 0.712872 0.718727
vt 0.325997 0.717115
vt 0.609142 0.337429
vt 0.331410 0.409110
vt 0.296906 0.332149
vt 0.712700 0.609972
vt 0.713437 0.300753
vt 0.668274 0.669022
vt 0.331126 0.276226
vt 0.281585 0.657008
vt 0.711643 0.538657
vt 0.610915 0.719286
vt 0.329694 0.470174
vt 0.424091 0.337139
vt 0.937500 0.750000
vt 0.547182 0.337332
vt 0.812500 0.750000
vt 0.418341 0.256674
vt 0.425703 0.815414
vt 0.812755 0.481587
vt 0.750000 0.187500
vt 0.375653 0.417988
vt 0.414679 0.661630
vt 0.625000 0.437500
vt 0.326347 0.653847
vn -0.037696 -0.037696 0.998578
vn 0.039473 -0.039473 0.998441
vn -0.016896 0.016896 0.999714
vn 0.044409 0.044409 0.998026
vn -0.004396 0.051871 0.998644
vn -0.327312 -0.008776 0.944876
vn -0.021861 0.422855 0.905933
vn 0.392503 0.019382 0.919547
vn 0.004260 -0.317634 0.948204
vn -0.260900 0.199947 0.944432
vn 0.262723 0.175106 0.948849
vn -0.290348 -0.362424 0.885633
vn 0.219434 -0.344295 0.912858
vn 0.011732 -0.354377 0.935029
vn -0.030346 -0.134339 0.990471
vn 0.356225 0.041927 0.933459
vn 0.418621 -0.024870 0.907820
vn -0.021466 0.237869 0.971060
vn 0.036054 0.464118 0.885040
vn -0.219053 0.001976 0.975711
vn -0.262317 0.025201 0.964653
vn -0.077082 -0.418685 0.904854
vn -0.000434 0.215839 0.976429
vn -0.378968 0.034335 0.924773
vn 0.229197 -0.252282 0.940118
vn 0.424173 0.007145 0.905553
vn -0.024769 -0.349055 0.936775
vn -0.000366 0.077885 0.996962
vn 0.178967 -0.190821 0.965173
vn -0.085539 -0.350750 0.932554
vn -0.081899 -0.117605 0.989677
vn -0.009041 -0.428303 0.903590
vn 0.371904 -0.015815 0.928137
vn 0.010554 0.081994 0.996577
vn 0.247679 0.179288 0.952109
vn -0.057204 0.377699 0.924160
vn -0.336035 0.060580 0.939899
vn -0.151008 0.166764 0.974365
vn -0.328489 0.028932 0.944064
vn -0.021088 0.381408 0.924166
vn -0.353424 -0.029220 0.935007
vn -0.121468 -0.252592 0.959918
vn 0.336497 0.121054 0.933872
vn 0.282575 -0.172855 0.943543
vn -0.140898 0.295784 0.944807
vn 0.143416 0.302908 0.942167
vn -0.240677 -0.135703 0.961072
vn -0.278200 0.101553 0.955140
vn -0.222182 0.075460 0.972081
vn -0.082263 0.128131 0.988340
vn -0.192407 0.248059 0.949445
vn 0.409326 0.043070 0.911371
vn -0.009186 0.231850 0.972708
vn -0.409606 0.012424 0.912178
vn -0.274717 -0.024740 0.961207
vn -0.060538 0.383710 0.921467
vn -0.004599 0.089777 0.995951
vn -0.437908 0.007435 0.898989
vn -0.336956 -0.014208 0.941413
vn -0.003585 0.069519 0.997574
vn 0.005543 -0.418553 0.908176
vn 0.008810 -0.351893 0.935999
vn -0.000812 0.078491 0.996915
vn -0.326765 0.009008 0.945063
vn -0.124300 0.045534 0.991199
vn -0.129985 -0.049923 0.990258
vn -0.018644 0.493033 0.869811
vn 0.080980 0.248291 0.965295
vn -0.054754 0.113507 0.992027
vn -0.028430 0.331839 0.942908
vn 0.443569 0.010265 0.896182
vn 0.229737 -0.076484 0.970243
vn 0.217323 0.065165 0.973922
vn 0.399967 -0.026710 0.916140
vn -0.034988 -0.260391 0.964869
vn 0.000118 -0.075022 0.997182
vn 0.065547 -0.208297 0.975867
vn -0.017541 -0.343437 0.939012
vn 0.087423 -0.289247 0.953254
vn 0.007489 0.064857 0.997866
vn 0.379670 0.059034 0.923236
vn -0.282677 -0.024859 0.958893
vn -0.391893 -0.018306 0.919829
vn -0.362091 -0.136370 0.922113
vn -0.317214 -0.027517 0.947955
vn 0.021680 0.471255 0.881730
vn 0.086682 0.253946 0.963326
vn -0.046944 0.447318 0.893142
vn -0.298143 0.029893 0.954053
vn -0.314924 0.087455 0.945079
vn -0.334013 0.006984 0.942543
vn -0.096131 0.209220 0.973132
vn -0.227757 0.207511 0.951349
vn -0.064217 0.076438 0.995004
vn -0.015651 0.060892 0.998022
vn 0.307458 0.113028 0.944825
vn -0.012595 0.175540 0.984392
vn -0.123073 0.310195 0.942673
vn -0.034531 0.386951 0.921453
vn 0.278443 0.042539 0.959510
vn 0.287164 0.152513 0.945662
vn 0.120917 0.112967 0.986214
vn 0.218385 -0.190021 0.957183
vn 0.010267 0.059996 0.998146
vn 0.187152 0.073739 0.979559
vn 0.371783 0.017207 0.928160
vn 0.324745 0.078660 0.942525
vn 0.386658 -0.000718 0.922223
vn 0.176268 0.222694 0.958820
vn 0.014323 0.073974 0.997157
vn -0.001301 0.075326 0.997158
vn -0.037297 -0.157852 0.986758
vn -0.060643 -0.056080 0.996583
vn -0.159285 -0.207263 0.965231
vn -0.063943 -0.260828 0.963265
vn -0.170525 -0.369662 0.913384
vn -0.015811 -0.328175 0.944485
vn 0.060102 -0.276414 0.959157
vn 0.112434 -0.118003 0.986628
vn -0.000488 -0.434482 0.900680
vn 0.000251 0.074079 0.997252
vn -0.054205 0.287650 0.956200
vn -0.013718 -0.395284 0.918457
vn 0.072755 -0.356950 0.931286
vn -0.014679 -0.330561 0.943671
vn 0.426455 -0.016864 0.904352
vn 0.357957 -0.163902 0.919241
vn 0.418910 0.027463 0.907612
vn -0.043242 0.338899 0.939828
vn -0.032566 0.270645 0.962128
vn 0.168121 -0.258558 0.951253
vn 0.427566 -0.001353 0.903983
vn 0.005318 -0.341479 0.939874
vn -0.113668 -0.075096 0.990677
vn 0.301286 -0.115873 0.946467
vn -0.026587 -0.378574 0.925189
vn -0.163207 -0.070548 0.984066
vn -0.029348 0.323177 0.945884
vn 0.372814 0.051835 0.926457
vn -0.181802 0.234323 0.955008
vn -0.202445 0.073203 0.976554
vn 0.118250 0.343224 0.931780
vn -0.346526 0.024504 0.937720
vn 0.325317 0.045926 0.944489
vn -0.168471 0.070203 0.983203
vn 0.183405 -0.293880 0.938082
vn -0.337474 -0.242962 0.909440
vn 0.181020 0.150896 0.971834
vn -0.186969 0.189245 0.963965
vn 0.003459 -0.115572 0.993293
vn -0.171615 0.065357 0.982994
vn -0.447852 -0.222404 0.866005
vn 0.132125 0.069334 0.988805
vn 0.183290 -0.451496 0.873244
vn 0.008311 0.083997 0.996431
vn -0.191825 -0.469587 0.861796
vn -0.334335 0.078178 0.939206
vn 0.176083 0.075345 0.981488
vn -0.002883 0.138799 0.990316
vn -0.148373 0.072568 0.986265
vn -0.010166 -0.195495 0.980652
vn 0.340830 0.080474 0.936674
vn -0.000441 -0.158769 0.987316
vn 0.324144 0.123076 0.937967
vn -0.041744 -0.431989 0.900912
vn -0.045042 0.318987 0.946688
vn 0.410753 0.047673 0.910499
vn 0.121427 -0.332150 0.935378
vn 0.001085 0.078094 0.996945
vn -0.012681 0.095586 0.995340
vn -0.000404 0.075667 0.997133
vn -0.241922 0.073658 0.967496
f 1/1/1 113/113/113 66/66/66
f 155/155/155 34/34/34 153/153/153
f 112/112/112 31/31/31 113/113/113
f 76/76/76 112/112/112 113/113/113
f 169/169/169 147/147/147 161/161/161
f 57/57/57 53/53/53 170/170/170
f 114/114/114 31/31/31 42/42/42
f 31/31/31 134/134/134 113/113/113
f 134/134/134 137/137/137 66/66/66
f 134/134/134 66/66/66 113/113/113
f 115/115/115 112/112/112 15/15/15
f 31/31/31 137/137/137 134/134/134
f 58/58/58 83/83/83 84/84/84
f 114/114/114 137/137/137 31/31/31
f 76/76/76 113/113/113 1/1/1
f 57/57/57 170/170/170 95/95/95
f 15/15/15 112/112/112 76/76/76
f 115/115/115 15/15/15 75/75/75
f 45/45/45 51/51/51 98/98/98
f 47/47/47 114/114/114 84/84/84
f 136/136/136 30/30/30 117/117/117
f 22/22/22 30/30/30 136/136/136
f 22/22/22 156/156/156 116/116/116
f 62/62/62 136/136/136 117/117/117
f 165/165/165 136/136/136 32/32/32
f 115/115/115 30/30/30 42/42/42
f 152/152/152 156/156/156 147/147/147
f 42/42/42 116/116/116 114/114/114
f 116/116/116 30/30/30 22/22/22
f 42/42/42 112/112/112 115/115/115
f 12/12/12 84/84/84 114/114/114
f 84/84/84 152/152/152 58/58/58
f 12/12/12 114/114/114 116/116/116
f 116/116/116 42/42/42 30/30/30
f 54/54/54 151/151/151 160/160/160
f 75/75/75 117/117/117 115/115/115
f 111/111/111 169/169/169 161/161/161
f 165/165/165 22/22/22 136/136/136
f 161/161/161 165/165/165 32/32/32
f 83/83/83 58/58/58 54/54/54
f 47/47/47 137/137/137 114/114/114
f 63/63/63 121/121/121 111/111/111
f 30/30/30 115/115/115 117/117/117
f 60/60/60 169/169/169 111/111/111
f 151/151/151 147/147/147 169/169/169
f 72/72/72 135/135/135 119/119/119
f 10/10/10 51/51/51 93/93/93
f 54/54/54 58/58/58 151/151/151
f 129/129/129 45/45/45 36/36/36
f 151/151/151 152/152/152 147/147/147
f 151/151/151 169/169/169 160/160/160
f 148/148/148 155/155/155 153/153/153
f 58/58/58 152/152/152 151/151/151
f 149/149/149 98/98/98 10/10/10
f 27/27/27 123/123/123 125/125/125
f 147/147/147 156/156/156 161/161/161
f 157/157/157 10/10/10 90/90/90
f 82/82/82 137/137/137 47/47/47
f 84/84/84 12/12/12 152/152/152
f 112/112/112 42/42/42 31/31/31
f 172/172/172 49/49/49 170/170/170
f 20/20/20 137/137/137 82/82/82
f 55/55/55 82/82/82 41/41/41
f 20/20/20 66/66/66 137/137/137
f 55/55/55 20/20/20 82/82/82
f 85/85/85 55/55/55 41/41/41
f 23/23/23 40/40/40 122/122/122
f 92/92/92 45/45/45 129/129/129
f 149/149/149 172/172/172 170/170/170
f 94/94/94 50/50/50 69/69/69
f 52/52/52 108/108/108 106/106/106
f 139/139/139 33/33/33 74/74/74
f 108/108/108 74/74/74 33/33/33
f 79/79/79 29/29/29 131/131/131
f 49/49/49 37/37/37 145/145/145
f 6/6/6 85/85/85 91/91/91
f 45/45/45 98/98/98 36/36/36
f 94/94/94 69/69/69 3/3/3
f 110/110/110 153/153/153 34/34/34
f 166/166/166 138/138/138 130/130/130
f 122/122/122 166/166/166 130/130/130
f 33/33/33 106/106/106 108/108/108
f 93/93/93 38/38/38 48/48/48
f 62/62/62 125/125/125 123/123/123
f 37/37/37 90/90/90 143/143/143
f 143/143/143 90/90/90 39/39/39
f 29/29/29 79/79/79 118/118/118
f 79/79/79 131/131/131 168/168/168
f 129/129/129 70/70/70 18/18/18
f 149/149/149 170/170/170 53/53/53
f 92/92/92 18/18/18 69/69/69
f 38/38/38 92/92/92 50/50/50
f 53/53/53 130/130/130 138/138/138
f 92/92/92 69/69/69 50/50/50
f 38/38/38 140/140/140 92/92/92
f 93/93/93 45/45/45 140/140/140
f 94/94/94 38/38/38 50/50/50
f 48/48/48 38/38/38 141/141/141
f 65/65/65 94/94/94 3/3/3
f 47/47/47 84/84/84 82/82/82
f 21/21/21 141/141/141 65/65/65
f 38/38/38 94/94/94 141/141/141
f 41/41/41 82/82/82 84/84/84
f 65/65/65 141/141/141 94/94/94
f 39/39/39 90/90/90 48/48/48
f 51/51/51 45/45/45 93/93/93
f 23/23/23 122/122/122 97/97/97
f 93/93/93 140/140/140 38/38/38
f 145/145/145 160/160/160 60/60/60
f 92/92/92 129/129/129 18/18/18
f 140/140/140 45/45/45 92/92/92
f 89/89/89 39/39/39 48/48/48
f 48/48/48 141/141/141 89/89/89
f 28/28/28 121/121/121 163/163/163
f 89/89/89 21/21/21 64/64/64
f 21/21/21 89/89/89 141/141/141
f 165/165/165 161/161/161 156/156/156
f 149/149/149 10/10/10 157/157/157
f 6/6/6 91/91/91 64/64/64
f 59/59/59 91/91/91 85/85/85
f 6/6/6 55/55/55 85/85/85
f 24/24/24 83/83/83 54/54/54
f 59/59/59 39/39/39 91/91/91
f 143/143/143 39/39/39 59/59/59
f 63/63/63 163/163/163 121/121/121
f 24/24/24 54/54/54 160/160/160
f 34/34/34 155/155/155 159/159/159
f 90/90/90 10/10/10 93/93/93
f 57/57/57 34/34/34 97/97/97
f 119/119/119 29/29/29 118/118/118
f 56/56/56 88/88/88 99/99/99
f 39/39/39 89/89/89 91/91/91
f 166/166/166 56/56/56 36/36/36
f 99/99/99 36/36/36 56/56/56
f 77/77/77 2/2/2 119/119/119
f 37/37/37 157/157/157 90/90/90
f 37/37/37 143/143/143 24/24/24
f 149/149/149 138/138/138 98/98/98
f 138/138/138 166/166/166 98/98/98
f 135/135/135 72/72/72 17/17/17
f 155/155/155 148/148/148 159/159/159
f 51/51/51 10/10/10 98/98/98
f 159/159/159 97/97/97 34/34/34
f 17/17/17 126/126/126 135/135/135
f 104/104/104 95/95/95 5/5/5
f 60/60/60 160/160/160 169/169/169
f 44/44/44 135/135/135 126/126/126
f 105/105/105 158/158/158 80/80/80
f 57/57/57 95/95/95 104/104/104
f 133/133/133 27/27/27 78/78/78
f 34/34/34 57/57/57 104/104/104
f 156/156/156 152/152/152 12/12/12
f 122/122/122 130/130/130 97/97/97
f 53/53/53 138/138/138 149/149/149
f 123/123/123 27/27/27 61/61/61
f 132/132/132 146/146/146 127/127/127
f 11/11/11 144/144/144 107/107/107
f 103/103/103 44/44/44 25/25/25
f 87/87/87 11/11/11 109/109/109
f 128/128/128 8/8/8 52/52/52
f 80/80/80 110/110/110 104/104/104
f 124/124/124 154/154/154 61/61/61
f 12/12/12 116/116/116 156/156/156
f 11/11/11 148/148/148 144/144/144
f 37/37/37 49/49/49 157/157/157
f 144/144/144 153/153/153 106/106/106
f 53/53/53 97/97/97 130/130/130
f 106/106/106 153/153/153 81/81/81
f 110/110/110 34/34/34 104/104/104
f 77/77/77 119/119/119 118/118/118
f 80/80/80 104/104/104 5/5/5
f 158/158/158 153/153/153 110/110/110
f 121/121/121 171/171/171 80/80/80
f 105/105/105 146/146/146 132/132/132
f 81/81/81 153/153/153 158/158/158
f 158/158/158 110/110/110 80/80/80
f 28/28/28 146/146/146 105/105/105
f 167/167/167 106/106/106 81/81/81
f 36/36/36 99/99/99 129/129/129
f 107/107/107 106/106/106 33/33/33
f 127/127/127 44/44/44 26/26/26
f 96/96/96 164/164/164 43/43/43
f 85/85/85 41/41/41 59/59/59
f 125/125/125 78/78/78 27/27/27
f 74/74/74 108/108/108 8/8/8
f 126/126/126 26/26/26 44/44/44
f 164/164/164 11/11/11 107/107/107
f 41/41/41 84/84/84 83/83/83
f 144/144/144 148/148/148 153/153/153
f 144/144/144 106/106/106 107/107/107
f 111/111/111 5/5/5 60/60/60
f 87/87/87 148/148/148 11/11/11
f 95/95/95 60/60/60 5/5/5
f 88/88/88 56/56/56 40/40/40
f 108/108/108 52/52/52 8/8/8
f 83/83/83 59/59/59 41/41/41
f 96/96/96 162/162/162 100/100/100
f 43/43/43 164/164/164 107/107/107
f 43/43/43 139/139/139 162/162/162
f 56/56/56 166/166/166 122/122/122
f 24/24/24 143/143/143 83/83/83
f 16/16/16 162/162/162 139/139/139
f 35/35/35 101/101/101 96/96/96
f 35/35/35 96/96/96 100/100/100
f 96/96/96 101/101/101 164/164/164
f 96/96/96 43/43/43 162/162/162
f 86/86/86 46/46/46 142/142/142
f 16/16/16 100/100/100 162/162/162
f 102/102/102 35/35/35 100/100/100
f 68/68/68 142/142/142 102/102/102
f 142/142/142 46/46/46 35/35/35
f 142/142/142 35/35/35 102/102/102
f 87/87/87 46/46/46 40/40/40
f 46/46/46 109/109/109 101/101/101
f 19/19/19 86/86/86 142/142/142
f 88/88/88 40/40/40 86/86/86
f 23/23/23 87/87/87 40/40/40
f 86/86/86 40/40/40 46/46/46
f 23/23/23 148/148/148 87/87/87
f 87/87/87 109/109/109 46/46/46
f 59/59/59 83/83/83 143/143/143
f 23/23/23 159/159/159 148/148/148
f 24/24/24 145/145/145 37/37/37
f 56/56/56 122/122/122 40/40/40
f 67/67/67 88/88/88 86/86/86
f 101/101/101 35/35/35 46/46/46
f 7/7/7 70/70/70 99/99/99
f 67/67/67 7/7/7 88/88/88
f 19/19/19 67/67/67 86/86/86
f 68/68/68 19/19/19 142/142/142
f 73/73/73 102/102/102 100/100/100
f 4/4/4 68/68/68 102/102/102
f 73/73/73 4/4/4 102/102/102
f 16/16/16 73/73/73 100/100/100
f 74/74/74 16/16/16 139/139/139
f 154/154/154 150/150/150 61/61/61
f 26/26/26 128/128/128 52/52/52
f 126/126/126 17/17/17 71/71/71
f 97/97/97 53/53/53 57/57/57
f 77/77/77 118/118/118 14/14/14
f 60/60/60 95/95/95 145/145/145
f 167/167/167 132/132/132 26/26/26
f 49/49/49 145/145/145 95/95/95
f 128/128/128 71/71/71 8/8/8
f 70/70/70 129/129/129 99/99/99
f 164/164/164 101/101/101 11/11/11
f 109/109/109 11/11/11 101/101/101
f 25/25/25 44/44/44 127/127/127
f 64/64/64 91/91/91 89/89/89
f 25/25/25 127/127/127 13/13/13
f 22/22/22 165/165/165 156/156/156
f 132/132/132 127/127/127 26/26/26
f 154/154/154 127/127/127 146/146/146
f 131/131/131 13/13/13 168/168/168
f 131/131/131 25/25/25 13/13/13
f 167/167/167 26/26/26 52/52/52
f 105/105/105 132/132/132 167/167/167
f 167/167/167 52/52/52 106/106/106
f 105/105/105 167/167/167 81/81/81
f 105/105/105 81/81/81 158/158/158
f 171/171/171 28/28/28 105/105/105
f 171/171/171 105/105/105 80/80/80
f 29/29/29 119/119/119 135/135/135
f 121/121/121 80/80/80 5/5/5
f 121/121/121 28/28/28 171/171/171
f 121/121/121 5/5/5 111/111/111
f 63/63/63 111/111/111 161/161/161
f 163/163/163 161/161/161 32/32/32
f 163/163/163 150/150/150 28/28/28
f 120/120/120 150/150/150 163/163/163
f 150/150/150 146/146/146 28/28/28
f 163/163/163 63/63/63 161/161/161
f 120/120/120 123/123/123 61/61/61
f 62/62/62 123/123/123 136/136/136
f 23/23/23 97/97/97 159/159/159
f 119/119/119 2/2/2 72/72/72
f 154/154/154 13/13/13 127/127/127
f 154/154/154 146/146/146 150/150/150
f 124/124/124 13/13/13 154/154/154
f 160/160/160 145/145/145 24/24/24
f 117/117/117 9/9/9 62/62/62
f 133/133/133 78/78/78 14/14/14
f 120/120/120 61/61/61 150/150/150
f 123/123/123 32/32/32 136/136/136
f 120/120/120 163/163/163 32/32/32
f 120/120/120 32/32/32 123/123/123
f 124/124/124 61/61/61 27/27/27
f 125/125/125 62/62/62 9/9/9
f 9/9/9 117/117/117 75/75/75
f 26/26/26 126/126/126 128/128/128
f 78/78/78 125/125/125 9/9/9
f 71/71/71 128/128/128 126/126/126
f 118/118/118 133/133/133 14/14/14
f 133/133/133 124/124/124 27/27/27
f 135/135/135 44/44/44 103/103/103
f 103/103/103 131/131/131 29/29/29
f 79/79/79 124/124/124 133/133/133
f 79/79/79 133/133/133 118/118/118
f 168/168/168 13/13/13 124/124/124
f 168/168/168 124/124/124 79/79/79
f 95/95/95 170/170/170 49/49/49
f 103/103/103 25/25/25 131/131/131
f 7/7/7 99/99/99 88/88/88
f 135/135/135 103/103/103 29/29/29
f 36/36/36 98/98/98 166/166/166
f 90/90/90 93/93/93 48/48/48
f 49/49/49 172/172/172 157/157/157
f 172/172/172 149/149/149 157/157/157
f 139/139/139 43/43/43 33/33/33
f 107/107/107 33/33/33 43/43/43
