# frame 000798 
# time 0.399500 
# name Box 
v 0.719467 0.637141 -0.333077
v 0.718934 0.763915 0.046301
v 0.720529 0.384540 0.173077
v 0.719467 0.637141 -0.333077
v 0.720529 0.384540 0.173077
v 0.721062 0.257766 -0.206301
v 0.319471 0.635460 -0.333077
v 0.321066 0.256085 -0.206301
v 0.320533 0.382859 0.173077
v 0.319471 0.635460 -0.333077
v 0.320533 0.382859 0.173077
v 0.318938 0.762234 0.046301
v 0.719467 0.637141 -0.333077
v 0.319471 0.635460 -0.333077
v 0.318938 0.762234 0.046301
v 0.719467 0.637141 -0.333077
v 0.318938 0.762234 0.046301
v 0.718934 0.763915 0.046301
v 0.718934 0.763915 0.046301
v 0.318938 0.762234 0.046301
v 0.320533 0.382859 0.173077
v 0.718934 0.763915 0.046301
v 0.320533 0.382859 0.173077
v 0.720529 0.384540 0.173077
v 0.720529 0.384540 0.173077
v 0.320533 0.382859 0.173077
v 0.321066 0.256085 -0.206301
v 0.720529 0.384540 0.173077
v 0.321066 0.256085 -0.206301
v 0.721062 0.257766 -0.206301
v 0.319471 0.635460 -0.333077
v 0.719467 0.637141 -0.333077
v 0.721062 0.257766 -0.206301
v 0.319471 0.635460 -0.333077
v 0.721062 0.257766 -0.206301
v 0.321066 0.256085 -0.206301
vn 0.199998 0.000841 0.000000
vn 0.199998 0.000841 0.000000
vn 0.199998 0.000841 0.000000
vn 0.199998 0.000841 0.000000
vn 0.199998 0.000841 0.000000
vn 0.199998 0.000841 0.000000
vn -0.199998 -0.000841 0.000000
vn -0.199998 -0.000841 0.000000
vn -0.199998 -0.000841 0.000000
vn -0.199998 -0.000841 0.000000
vn -0.199998 -0.000841 0.000000
vn -0.199998 -0.000841 0.000000
vn -0.000797 0.189688 -0.063388
vn -0.000797 0.189688 -0.063388
vn -0.000797 0.189688 -0.063388
vn -0.000797 0.189688 -0.063388
vn -0.000797 0.189688 -0.063388
vn -0.000797 0.189688 -0.063388
vn -0.000266 0.063387 0.189689
vn -0.000266 0.063387 0.189689
vn -0.000266 0.063387 0.189689
vn -0.000266 0.063387 0.189689
vn -0.000266 0.063387 0.189689
vn -0.000266 0.063387 0.189689
vn 0.000797 -0.189688 0.063388
vn 0.000797 -0.189688 0.063388
vn 0.000797 -0.189688 0.063388
vn 0.000797 -0.189688 0.063388
vn 0.000797 -0.189688 0.063388
vn 0.000797 -0.189688 0.063388
vn 0.000266 -0.063387 -0.189689
vn 0.000266 -0.063387 -0.189689
vn 0.000266 -0.063387 -0.189689
vn 0.000266 -0.063387 -0.189689
vn 0.000266 -0.063387 -0.189689
vn 0.000266 -0.063387 -0.189689
f 1/1/1 2/2/2 3/3/3
f 4/4/4 5/5/5 6/6/6
f 7/7/7 8/8/8 9/9/9
f 10/10/10 11/11/11 12/12/12
f 13/13/13 14/14/14 15/15/15
f 16/16/16 17/17/17 18/18/18
f 19/19/19 20/20/20 21/21/21
f 22/22/22 23/23/23 24/24/24
f 25/25/25 26/26/26 27/27/27
f 28/28/28 29/29/29 30/30/30
f 31/31/31 32/32/32 33/33/33
f 34/34/34 35/35/35 36/36/36
