# frame 000737 
# time 0.369000 
# name Cloth3D 
v -0.000000 0.000000 -0.000000
v 1.000000 0.000000 -0.000000
v -0.000000 1.000000 0.000000
v 1.000000 1.000000 0.000000
v 0.501687 0.493983 0.125435
v -0.000000 0.500000 0.000000
v 0.500000 1.000000 0.000000
v 1.000000 0.500000 0.000000
v 0.500000 -0.000000 0.000000
v 0.246602 0.752659 0.069613
v 0.754838 0.752579 0.070695
v 0.244708 0.243424 0.083849
v 0.759779 0.242379 0.095200
v 0.750000 0.000000 0.000000
v 0.250000 0.000000 0.000000
v 1.000000 0.750000 0.000000
v 1.000000 0.250000 0.000000
v 0.250000 1.000000 0.000000
v 0.750000 1.000000 0.000000
v 0.000000 0.250000 0.000000
v 0.000000 0.750000 -0.000000
v 0.362806 0.214826 0.088923
v 0.632211 0.772997 0.073459
v 0.240231 0.512481 0.095127
v 0.821803 0.244097 0.076931
v 0.882868 0.372188 0.061444
v 0.627511 0.122373 0.051186
v 0.635636 0.365236 0.147831
v 0.878416 0.122716 0.031527
v 0.374908 0.121107 0.052788
v 0.124376 0.123306 0.023905
v 0.493240 0.245526 0.102680
v 0.878586 0.624417 0.046062
v 0.630491 0.623989 0.103286
v 0.877006 0.876610 0.027280
v 0.374590 0.878989 0.048330
v 0.257580 0.599151 0.090372
v 0.121790 0.878152 0.035974
v 0.120154 0.624673 0.051108
v 0.626343 0.876120 0.039735
v 0.120045 0.372435 0.054461
v 0.248823 0.120576 0.046200
v 0.878955 0.750922 0.041331
v 0.882327 0.246540 0.054212
v 0.248212 0.879388 0.046171
v 0.751884 0.876664 0.037005
v 0.124698 0.248406 0.035313
v 0.120647 0.751411 0.045653
v 0.319721 0.592702 0.108417
v 0.123653 0.939761 0.019851
v 0.247217 0.816370 0.059853
v 0.881008 0.498212 0.056493
v 0.428366 0.740443 0.083252
v 0.241329 0.451152 0.102740
v 0.000000 0.375000 0.000000
v 0.500646 0.877285 0.044456
v 0.501611 0.623138 0.103303
v 0.242847 0.368464 0.104614
v 0.121220 0.498190 0.051915
v 0.370561 0.495428 0.125208
v 0.631517 0.244887 0.101109
v 0.501159 0.123222 0.050468
v 0.501331 0.365134 0.147947
v 0.000000 0.625000 0.000000
v 0.000000 0.875000 0.000000
v 0.000000 0.125000 0.000000
v 0.625000 1.000000 0.000000
v 0.875000 1.000000 0.000000
v 0.125000 1.000000 0.000000
v 0.375000 1.000000 0.000000
v 1.000000 0.375000 0.000000
v 1.000000 0.125000 0.000000
v 1.000000 0.875000 0.000000
v 1.000000 0.625000 0.000000
v 0.375000 0.000000 0.000000
v 0.125000 0.000000 0.000000
v 0.875000 0.000000 0.000000
v 0.625000 0.000000 0.000000
v 0.753488 0.122555 0.044622
v 0.632967 0.494775 0.125520
v 0.770082 0.513238 0.101963
v 0.061079 0.311624 0.023087
v 0.181392 0.433957 0.080336
v 0.183183 0.308243 0.070623
v 0.060520 0.436442 0.026420
v 0.688156 0.937692 0.018009
v 0.690362 0.814652 0.058441
v 0.563061 0.939879 0.025731
v 0.059327 0.687663 0.026702
v 0.183279 0.688297 0.063100
v 0.059904 0.561869 0.027000
v 0.186329 0.940905 0.025348
v 0.183953 0.815759 0.052805
v 0.061638 0.938498 0.011905
v 0.436648 0.559038 0.114348
v 0.877891 0.813851 0.034032
v 0.551552 0.740979 0.083258
v 0.310842 0.815861 0.061501
v 0.437605 0.939373 0.024235
v 0.938879 0.812986 0.017097
v 0.816013 0.814675 0.047558
v 0.938560 0.938482 0.012731
v 0.880578 0.184200 0.044471
v 0.566705 0.558713 0.114481
v 0.720149 0.421127 0.138156
v 0.825303 0.590259 0.070113
v 0.817885 0.688329 0.064407
v 0.940156 0.561778 0.026587
v 0.753335 0.814779 0.054105
v 0.690749 0.582761 0.110448
v 0.435289 0.429700 0.136524
v 0.187179 0.060017 0.021339
v 0.062025 0.061932 0.009815
v 0.184987 0.183466 0.050848
v 0.312594 0.060544 0.024757
v 0.310396 0.182289 0.072251
v 0.437879 0.062685 0.022409
v 0.813855 0.061682 0.018250
v 0.939191 0.060958 0.015325
v 0.558141 0.243378 0.102208
v 0.568000 0.429580 0.136715
v 0.526371 0.806109 0.064505
v 0.565492 0.183590 0.078048
v 0.692973 0.182350 0.075643
v 0.563383 0.062685 0.022709
v 0.942048 0.311153 0.030713
v 0.822722 0.307445 0.085026
v 0.942562 0.436367 0.032980
v 0.312047 0.941115 0.027770
v 0.464847 0.678131 0.093896
v 0.819728 0.181510 0.063823
v 0.813153 0.367574 0.098546
v 0.688773 0.061579 0.023529
v 0.061667 0.124272 0.014807
v 0.941447 0.186097 0.025438
v 0.437441 0.184178 0.075580
v 0.062766 0.187025 0.013060
v 0.385823 0.769578 0.076973
v 0.939032 0.687386 0.021203
v 0.184958 0.878834 0.041309
v 0.060099 0.813478 0.022622
v 0.813331 0.939116 0.019360
v 0.182641 0.561030 0.072627
v 0.772152 0.649181 0.081574
v 0.320082 0.529283 0.119305
v 0.720625 0.347618 0.150885
v 0.320833 0.345936 0.150886
v 0.718916 0.741708 0.083267
v 0.319088 0.739958 0.083248
v 0.618285 0.347316 0.150857
v 0.320691 0.401522 0.141240
v 0.286320 0.322535 0.126609
v 0.719508 0.610539 0.105648
v 0.726117 0.291673 0.123149
v 0.674187 0.670135 0.095174
v 0.324651 0.267836 0.112615
v 0.277899 0.657799 0.087037
v 0.719407 0.537377 0.118186
v 0.614419 0.741253 0.083262
v 0.320444 0.465505 0.130253
v 0.419792 0.346520 0.150843
v 1.000000 0.062500 -0.000000
v 0.551909 0.347072 0.150844
v 0.062500 1.000000 0.000000
v 0.416502 0.251157 0.104224
v 0.425662 0.819012 0.065948
v 0.819975 0.478590 0.081129
v 0.756677 0.181369 0.072057
v 0.719225 0.673156 0.094959
v 0.413751 0.661566 0.096764
v 0.634335 0.430139 0.136684
v 0.319452 0.655165 0.097721
v 0.590890 0.675840 0.094396
v 0.937500 0.000000 -0.000000
v 0.457219 0.295382 0.126214
v 0.247011 0.182063 0.064571
vt 0.000000 0.000000
vt 1.000000 0.000000
vt 0.000000 1.000000
vt 1.000000 1.000000
vt 0.500000 0.500000
vt 0.000000 0.500000
vt 0.500000 1.000000
vt 1.000000 0.500000
vt 0.500000 0.000000
vt 0.250000 0.750000
vt 0.750000 0.750000
vt 0.250000 0.250000
vt 0.750000 0.250000
vt 0.750000 0.000000
vt 0.250000 0.000000
vt 1.000000 0.750000
vt 1.000000 0.250000
vt 0.250000 1.000000
vt 0.750000 1.000000
vt 0.000000 0.250000
vt 0.000000 0.750000
vt 0.365347 0.220303
vt 0.629073 0.770824
vt 0.245672 0.515386
vt 0.812500 0.250000
vt 0.875000 0.375000
vt 0.625000 0.125000
vt 0.625000 0.375000
vt 0.875000 0.125000
vt 0.375000 0.125000
vt 0.125000 0.125000
vt 0.492214 0.250470
vt 0.875000 0.625000
vt 0.625000 0.625000
vt 0.875000 0.875000
vt 0.375000 0.875000
vt 0.262101 0.599801
vt 0.125000 0.875000
vt 0.125000 0.625000
vt 0.625000 0.875000
vt 0.125000 0.375000
vt 0.250000 0.125000
vt 0.875000 0.750000
vt 0.875000 0.250000
vt 0.250000 0.875000
vt 0.750000 0.875000
vt 0.125000 0.250000
vt 0.125000 0.750000
vt 0.324384 0.593049
vt 0.125000 0.937500
vt 0.250000 0.812500
vt 0.875000 0.500000
vt 0.428546 0.738469
vt 0.248222 0.455442
vt 0.000000 0.375000
vt 0.500000 0.875000
vt 0.500000 0.625000
vt 0.250000 0.375000
vt 0.125000 0.500000
vt 0.375000 0.500000
vt 0.625000 0.250000
vt 0.500000 0.125000
vt 0.500000 0.375000
vt 0.000000 0.625000
vt 0.000000 0.875000
vt 0.000000 0.125000
vt 0.625000 1.000000
vt 0.875000 1.000000
vt 0.125000 1.000000
vt 0.375000 1.000000
vt 1.000000 0.375000
vt 1.000000 0.125000
vt 1.000000 0.875000
vt 1.000000 0.625000
vt 0.375000 0.000000
vt 0.125000 0.000000
vt 0.875000 0.000000
vt 0.625000 0.000000
vt 0.750000 0.125000
vt 0.625000 0.500000
vt 0.760524 0.515669
vt 0.062500 0.312500
vt 0.187500 0.437500
vt 0.187500 0.312500
vt 0.062500 0.437500
vt 0.687500 0.937500
vt 0.687500 0.812500
vt 0.562500 0.937500
vt 0.062500 0.687500
vt 0.187500 0.687500
vt 0.062500 0.562500
vt 0.187500 0.937500
vt 0.187500 0.812500
vt 0.062500 0.937500
vt 0.437500 0.562500
vt 0.875000 0.812500
vt 0.549311 0.739233
vt 0.312500 0.812500
vt 0.437500 0.937500
vt 0.937500 0.812500
vt 0.812500 0.812500
vt 0.937500 0.937500
vt 0.875000 0.187500
vt 0.562500 0.562500
vt 0.705670 0.427352
vt 0.819332 0.591237
vt 0.812500 0.687500
vt 0.937500 0.562500
vt 0.750000 0.812500
vt 0.682510 0.583771
vt 0.437500 0.437500
vt 0.187500 0.062500
vt 0.062500 0.062500
vt 0.187500 0.187500
vt 0.312500 0.062500
vt 0.312500 0.187500
vt 0.437500 0.062500
vt 0.812500 0.062500
vt 0.937500 0.062500
vt 0.554454 0.248535
vt 0.562500 0.437500
vt 0.525016 0.804189
vt 0.562500 0.187500
vt 0.687500 0.187500
vt 0.562500 0.062500
vt 0.937500 0.312500
vt 0.812500 0.312500
vt 0.937500 0.437500
vt 0.312500 0.937500
vt 0.464310 0.678183
vt 0.812500 0.187500
vt 0.800716 0.372483
vt 0.687500 0.062500
vt 0.062500 0.125000
vt 0.937500 0.187500
vt 0.437500 0.187500
vt 0.062500 0.187500
vt 0.386728 0.766561
vt 0.937500 0.687500
vt 0.187500 0.875000
vt 0.062500 0.812500
vt 0.812500 0.937500
vt 0.187500 0.562500
vt 0.765906 0.648544
vt 0.325907 0.531568
vt 0.702623 0.358531
vt 0.332798 0.356960
vt 0.713192 0.737747
vt 0.321778 0.736580
vt 0.609068 0.357495
vt 0.330313 0.409061
vt 0.296906 0.332149
vt 0.711089 0.610005
vt 0.713437 0.300753
vt 0.668274 0.669022
vt 0.331126 0.276226
vt 0.281585 0.657008
vt 0.708850 0.538722
vt 0.611036 0.739122
vt 0.327980 0.470118
vt 0.424128 0.357045
vt 1.000000 0.062500
vt 0.547174 0.357413
vt 0.062500 1.000000
vt 0.418341 0.256674
vt 0.425703 0.815414
vt 0.812755 0.481587
vt 0.750000 0.187500
vt 0.712228 0.670895
vt 0.414679 0.661630
vt 0.625000 0.437500
vt 0.323205 0.653800
vt 0.587160 0.675778
vt 0.937500 0.000000
vt 0.458173 0.302976
vt 0.250000 0.187500
vn -0.078712 -0.078712 0.993785
vn 0.126333 -0.126333 0.983910
vn -0.062922 0.125844 0.990053
vn 0.103526 0.103526 0.989224
vn -0.000828 0.166860 0.985980
vn -0.405134 -0.004152 0.914248
vn -0.007002 0.389126 0.921158
vn 0.452880 0.024785 0.891227
vn -0.001564 -0.335605 0.942001
vn -0.139385 0.148842 0.978988
vn 0.203454 0.238738 0.949532
vn -0.259625 -0.290859 0.920867
vn 0.214589 -0.294349 0.931295
vn 0.019618 -0.319666 0.947327
vn -0.013261 -0.354622 0.934916
vn 0.298500 0.016966 0.954259
vn 0.438742 -0.019082 0.898411
vn -0.010175 0.411066 0.911549
vn -0.003864 0.300440 0.953793
vn -0.280465 -0.037721 0.959123
vn -0.381206 0.016358 0.924346
vn -0.015298 -0.394702 0.918682
vn 0.005070 0.296907 0.954893
vn -0.329600 0.102585 0.938531
vn 0.308941 -0.160716 0.937404
vn 0.440236 -0.008873 0.897838
vn 0.010105 -0.403442 0.914950
vn -0.000582 0.165637 0.986187
vn 0.180662 -0.223564 0.957800
vn -0.005240 -0.389895 0.920845
vn -0.170625 -0.112032 0.978946
vn -0.008956 -0.412489 0.910919
vn 0.356122 0.061855 0.932390
vn 0.000387 0.168217 0.985750
vn 0.170224 0.130115 0.976777
vn 0.005145 0.293820 0.955847
vn -0.263672 0.124494 0.956545
vn -0.153727 0.184332 0.970768
vn -0.314029 0.023135 0.949132
vn 0.032610 0.292364 0.955751
vn -0.384862 -0.060845 0.920967
vn -0.111921 -0.307294 0.945010
vn 0.282997 0.087968 0.955078
vn 0.361186 -0.115498 0.925313
vn -0.057696 0.237443 0.969687
vn 0.049487 0.271201 0.961250
vn -0.326549 -0.117074 0.937901
vn -0.259459 0.058615 0.963974
vn -0.163540 0.160543 0.973386
vn -0.092899 0.267322 0.959119
vn -0.071466 0.184208 0.980286
vn 0.374001 0.058597 0.925575
vn 0.005701 0.197212 0.980344
vn -0.367838 0.079692 0.926469
vn -0.374279 -0.013169 0.927223
vn 0.021213 0.295062 0.955243
vn -0.000306 0.166672 0.986012
vn -0.450122 -0.010143 0.892909
vn -0.370397 0.024201 0.928558
vn -0.001264 0.166620 0.986020
vn 0.009594 -0.402141 0.915528
vn -0.003238 -0.406160 0.913796
vn 0.000483 0.163284 0.986579
vn -0.411559 0.000505 0.911383
vn -0.271316 0.042784 0.961539
vn -0.217990 -0.017172 0.975800
vn 0.029492 0.348603 0.936806
vn 0.026780 0.257554 0.965893
vn -0.025076 0.323867 0.945770
vn 0.014591 0.402800 0.915172
vn 0.475192 -0.007271 0.879852
vn 0.313750 -0.032995 0.948932
vn 0.236030 0.015703 0.971619
vn 0.370158 0.021695 0.928716
vn 0.012621 -0.355871 0.934450
vn -0.044932 -0.216920 0.975155
vn 0.007132 -0.256296 0.966572
vn -0.004515 -0.346614 0.937997
vn 0.068428 -0.392620 0.917152
vn -0.000424 0.167191 0.985924
vn 0.396869 0.119312 0.910088
vn -0.341149 -0.065068 0.937754
vn -0.372200 0.024460 0.927830
vn -0.402310 -0.134739 0.905534
vn -0.401276 -0.004038 0.915948
vn 0.017952 0.302933 0.952843
vn 0.048127 0.301090 0.952380
vn 0.020428 0.327816 0.944521
vn -0.373963 0.019664 0.927235
vn -0.219606 0.078711 0.972408
vn -0.387189 -0.002215 0.921998
vn -0.060663 0.303038 0.951046
vn -0.128860 0.149232 0.980370
vn -0.143847 0.151782 0.977891
vn -0.000419 0.166374 0.986063
vn 0.245603 0.113751 0.962673
vn 0.000796 0.219433 0.975627
vn -0.046374 0.228531 0.972432
vn 0.011070 0.353799 0.935256
vn 0.273750 0.058291 0.960033
vn 0.158908 0.184798 0.969844
vn 0.120872 0.115030 0.985981
vn 0.306423 -0.187079 0.933331
vn -0.001004 0.166765 0.985996
vn 0.199645 0.158228 0.967009
vn 0.353005 0.090025 0.931280
vn 0.278495 0.096773 0.955550
vn 0.391786 0.043278 0.919038
vn 0.088109 0.260376 0.961479
vn 0.000455 0.167011 0.985955
vn -0.001791 0.168115 0.985766
vn -0.086215 -0.276551 0.957124
vn -0.113581 -0.102323 0.988246
vn -0.264297 -0.212501 0.940739
vn -0.012299 -0.373921 0.927379
vn -0.095193 -0.356075 0.929596
vn 0.011178 -0.386579 0.922188
vn 0.043024 -0.298327 0.953493
vn 0.127332 -0.140080 0.981919
vn 0.003630 -0.396381 0.918079
vn -0.000397 0.167719 0.985835
vn 0.022359 0.277836 0.960368
vn 0.001904 -0.385843 0.922562
vn 0.035974 -0.396262 0.917432
vn -0.005459 -0.381146 0.924499
vn 0.443195 -0.021207 0.896174
vn 0.384412 -0.127097 0.914371
vn 0.445193 0.015212 0.895305
vn -0.001083 0.364860 0.931062
vn 0.000112 0.166101 0.986109
vn 0.218236 -0.288026 0.932424
vn 0.454571 -0.042792 0.889682
vn 0.019258 -0.364549 0.930985
vn -0.187407 -0.026644 0.981921
vn 0.335997 -0.096814 0.936874
vn 0.008118 -0.384074 0.923267
vn -0.220278 -0.020617 0.975219
vn -0.010905 0.231446 0.972787
vn 0.342982 0.027600 0.938936
vn -0.083367 0.215859 0.972859
vn -0.318751 0.049031 0.946569
vn 0.031134 0.261808 0.964618
vn -0.305734 0.051482 0.950724
vn 0.299780 0.127796 0.945410
vn -0.144311 0.158381 0.976775
vn 0.236913 -0.132474 0.962457
vn -0.288438 -0.119956 0.949955
vn 0.163994 0.252773 0.953526
vn -0.092826 0.206637 0.974004
vn 0.000996 0.015643 0.999877
vn -0.243017 0.145649 0.959025
vn -0.398646 -0.258789 0.879835
vn 0.121810 0.162206 0.979210
vn 0.235506 -0.362507 0.901735
vn -0.002467 0.166550 0.986030
vn -0.122048 -0.411388 0.903252
vn -0.230306 0.143936 0.962414
vn 0.176129 0.164113 0.970590
vn -0.000692 0.237800 0.971314
vn -0.159089 0.159856 0.974237
vn -0.001656 -0.138240 0.990397
vn 0.249027 -0.000000 0.968496
vn 0.001301 -0.051747 0.998659
vn -0.032482 0.219627 0.975043
vn 0.001958 -0.415543 0.909571
vn 0.007977 0.259250 0.965777
vn 0.406569 0.077895 0.910294
vn 0.081112 -0.388990 0.917664
vn 0.128703 0.162909 0.978211
vn -0.000110 0.166366 0.986064
vn -0.000145 0.167268 0.985911
vn -0.165768 0.163106 0.972583
vn 0.000490 0.165934 0.986137
vn 0.000000 -0.248430 0.968650
vn -0.001489 -0.434446 0.900697
vn -0.165515 -0.297905 0.940137
f 1/1/1 113/113/113 66/66/66
f 155/155/155 34/34/34 153/153/153
f 4/4/4 68/68/68 102/102/102
f 96/96/96 101/101/101 43/43/43
f 144/144/144 11/11/11 169/169/169
f 10/10/10 93/93/93 90/90/90
f 164/164/164 3/3/3 94/94/94
f 31/31/31 134/134/134 113/113/113
f 134/134/134 137/137/137 66/66/66
f 134/134/134 66/66/66 113/113/113
f 115/115/115 112/112/112 15/15/15
f 31/31/31 137/137/137 134/134/134
f 73/73/73 102/102/102 100/100/100
f 127/127/127 132/132/132 154/154/154
f 76/76/76 113/113/113 1/1/1
f 57/57/57 170/170/170 95/95/95
f 15/15/15 112/112/112 76/76/76
f 115/115/115 15/15/15 75/75/75
f 45/45/45 51/51/51 98/98/98
f 137/137/137 31/31/31 47/47/47
f 32/32/32 136/136/136 123/123/123
f 22/22/22 30/30/30 136/136/136
f 22/22/22 156/156/156 116/116/116
f 62/62/62 123/123/123 136/136/136
f 165/165/165 136/136/136 32/32/32
f 115/115/115 30/30/30 42/42/42
f 152/152/152 156/156/156 147/147/147
f 143/143/143 59/59/59 24/24/24
f 116/116/116 30/30/30 22/22/22
f 42/42/42 112/112/112 115/115/115
f 114/114/114 47/47/47 31/31/31
f 84/84/84 152/152/152 58/58/58
f 83/83/83 24/24/24 59/59/59
f 116/116/116 42/42/42 30/30/30
f 54/54/54 151/151/151 160/160/160
f 75/75/75 117/117/117 115/115/115
f 148/148/148 169/169/169 11/11/11
f 165/165/165 22/22/22 136/136/136
f 41/41/41 84/84/84 83/83/83
f 83/83/83 58/58/58 54/54/54
f 146/146/146 154/154/154 132/132/132
f 63/63/63 121/121/121 111/111/111
f 30/30/30 115/115/115 117/117/117
f 169/169/169 148/148/148 155/155/155
f 153/153/153 169/169/169 155/155/155
f 72/72/72 135/135/135 119/119/119
f 10/10/10 51/51/51 93/93/93
f 54/54/54 58/58/58 151/151/151
f 129/129/129 45/45/45 36/36/36
f 112/112/112 31/31/31 76/76/76
f 57/57/57 173/173/173 130/130/130
f 8/8/8 108/108/108 128/128/128
f 113/113/113 76/76/76 31/31/31
f 149/149/149 98/98/98 10/10/10
f 9/9/9 125/125/125 117/117/117
f 147/147/147 156/156/156 161/161/161
f 157/157/157 10/10/10 90/90/90
f 82/82/82 137/137/137 47/47/47
f 84/84/84 12/12/12 152/152/152
f 12/12/12 176/176/176 116/116/116
f 172/172/172 49/49/49 170/170/170
f 20/20/20 137/137/137 82/82/82
f 159/159/159 173/173/173 155/155/155
f 20/20/20 66/66/66 137/137/137
f 55/55/55 20/20/20 82/82/82
f 34/34/34 155/155/155 173/173/173
f 23/23/23 40/40/40 122/122/122
f 92/92/92 45/45/45 129/129/129
f 149/149/149 172/172/172 170/170/170
f 176/176/176 42/42/42 116/116/116
f 85/85/85 41/41/41 59/59/59
f 107/107/107 33/33/33 43/43/43
f 139/139/139 43/43/43 33/33/33
f 79/79/79 29/29/29 131/131/131
f 49/49/49 37/37/37 145/145/145
f 6/6/6 85/85/85 91/91/91
f 45/45/45 98/98/98 36/36/36
f 122/122/122 53/53/53 97/97/97
f 110/110/110 153/153/153 34/34/34
f 162/162/162 72/72/72 119/119/119
f 16/16/16 100/100/100 139/139/139
f 83/83/83 59/59/59 41/41/41
f 93/93/93 38/38/38 48/48/48
f 62/62/62 117/117/117 125/125/125
f 37/37/37 90/90/90 143/143/143
f 143/143/143 90/90/90 39/39/39
f 29/29/29 79/79/79 118/118/118
f 79/79/79 131/131/131 168/168/168
f 129/129/129 70/70/70 18/18/18
f 149/149/149 170/170/170 53/53/53
f 92/92/92 18/18/18 69/69/69
f 38/38/38 92/92/92 50/50/50
f 2/2/2 162/162/162 119/119/119
f 92/92/92 69/69/69 50/50/50
f 38/38/38 140/140/140 92/92/92
f 93/93/93 45/45/45 140/140/140
f 94/94/94 38/38/38 50/50/50
f 48/48/48 38/38/38 141/141/141
f 65/65/65 94/94/94 3/3/3
f 35/35/35 142/142/142 101/101/101
f 21/21/21 141/141/141 65/65/65
f 38/38/38 94/94/94 141/141/141
f 46/46/46 101/101/101 142/142/142
f 65/65/65 141/141/141 94/94/94
f 39/39/39 90/90/90 48/48/48
f 51/51/51 45/45/45 93/93/93
f 23/23/23 122/122/122 97/97/97
f 93/93/93 140/140/140 38/38/38
f 145/145/145 160/160/160 60/60/60
f 92/92/92 129/129/129 18/18/18
f 140/140/140 45/45/45 92/92/92
f 89/89/89 39/39/39 48/48/48
f 48/48/48 141/141/141 89/89/89
f 28/28/28 121/121/121 163/163/163
f 89/89/89 21/21/21 64/64/64
f 21/21/21 89/89/89 141/141/141
f 165/165/165 161/161/161 156/156/156
f 149/149/149 10/10/10 157/157/157
f 6/6/6 91/91/91 64/64/64
f 59/59/59 91/91/91 85/85/85
f 6/6/6 55/55/55 85/85/85
f 24/24/24 83/83/83 54/54/54
f 152/152/152 147/147/147 58/58/58
f 151/151/151 58/58/58 147/147/147
f 63/63/63 163/163/163 121/121/121
f 24/24/24 54/54/54 160/160/160
f 34/34/34 173/173/173 57/57/57
f 123/123/123 62/62/62 27/27/27
f 27/27/27 125/125/125 133/133/133
f 43/43/43 101/101/101 107/107/107
f 56/56/56 88/88/88 99/99/99
f 39/39/39 89/89/89 91/91/91
f 169/169/169 153/153/153 144/144/144
f 98/98/98 138/138/138 36/36/36
f 106/106/106 52/52/52 33/33/33
f 37/37/37 157/157/157 90/90/90
f 37/37/37 143/143/143 24/24/24
f 149/149/149 138/138/138 98/98/98
f 56/56/56 99/99/99 166/166/166
f 135/135/135 72/72/72 17/17/17
f 155/155/155 148/148/148 159/159/159
f 51/51/51 10/10/10 98/98/98
f 78/78/78 133/133/133 125/125/125
f 17/17/17 126/126/126 135/135/135
f 104/104/104 95/95/95 5/5/5
f 130/130/130 53/53/53 170/170/170
f 44/44/44 135/135/135 126/126/126
f 105/105/105 158/158/158 80/80/80
f 57/57/57 95/95/95 104/104/104
f 39/39/39 91/91/91 143/143/143
f 34/34/34 57/57/57 104/104/104
f 156/156/156 152/152/152 12/12/12
f 43/43/43 139/139/139 100/100/100
f 53/53/53 138/138/138 149/149/149
f 123/123/123 27/27/27 61/61/61
f 60/60/60 160/160/160 111/111/111
f 11/11/11 144/144/144 107/107/107
f 103/103/103 44/44/44 25/25/25
f 87/87/87 11/11/11 109/109/109
f 119/119/119 29/29/29 77/77/77
f 80/80/80 110/110/110 104/104/104
f 124/124/124 154/154/154 61/61/61
f 12/12/12 116/116/116 156/156/156
f 166/166/166 36/36/36 138/138/138
f 37/37/37 49/49/49 157/157/157
f 144/144/144 153/153/153 106/106/106
f 96/96/96 43/43/43 100/100/100
f 106/106/106 153/153/153 81/81/81
f 110/110/110 34/34/34 104/104/104
f 101/101/101 11/11/11 107/107/107
f 80/80/80 104/104/104 5/5/5
f 158/158/158 153/153/153 110/110/110
f 121/121/121 171/171/171 80/80/80
f 105/105/105 146/146/146 132/132/132
f 81/81/81 153/153/153 158/158/158
f 158/158/158 110/110/110 80/80/80
f 28/28/28 146/146/146 105/105/105
f 167/167/167 106/106/106 81/81/81
f 36/36/36 99/99/99 129/129/129
f 107/107/107 106/106/106 33/33/33
f 127/127/127 44/44/44 26/26/26
f 82/82/82 47/47/47 41/41/41
f 175/175/175 32/32/32 163/163/163
f 59/59/59 143/143/143 91/91/91
f 74/74/74 108/108/108 8/8/8
f 126/126/126 26/26/26 44/44/44
f 84/84/84 41/41/41 47/47/47
f 35/35/35 100/100/100 102/102/102
f 138/138/138 53/53/53 166/166/166
f 144/144/144 106/106/106 107/107/107
f 111/111/111 5/5/5 60/60/60
f 87/87/87 148/148/148 11/11/11
f 95/95/95 60/60/60 5/5/5
f 88/88/88 56/56/56 40/40/40
f 118/118/118 77/77/77 29/29/29
f 161/161/161 175/175/175 163/163/163
f 12/12/12 84/84/84 114/114/114
f 108/108/108 33/33/33 52/52/52
f 47/47/47 114/114/114 84/84/84
f 56/56/56 166/166/166 122/122/122
f 74/74/74 139/139/139 108/108/108
f 111/111/111 151/151/151 161/161/161
f 35/35/35 101/101/101 96/96/96
f 35/35/35 96/96/96 100/100/100
f 122/122/122 166/166/166 53/53/53
f 151/151/151 147/147/147 161/161/161
f 86/86/86 46/46/46 142/142/142
f 53/53/53 130/130/130 97/97/97
f 55/55/55 82/82/82 85/85/85
f 68/68/68 142/142/142 102/102/102
f 42/42/42 114/114/114 112/112/112
f 142/142/142 35/35/35 102/102/102
f 87/87/87 46/46/46 40/40/40
f 46/46/46 109/109/109 101/101/101
f 19/19/19 86/86/86 142/142/142
f 88/88/88 40/40/40 86/86/86
f 23/23/23 87/87/87 40/40/40
f 86/86/86 40/40/40 46/46/46
f 23/23/23 148/148/148 87/87/87
f 87/87/87 109/109/109 46/46/46
f 33/33/33 108/108/108 139/139/139
f 23/23/23 159/159/159 148/148/148
f 24/24/24 145/145/145 37/37/37
f 56/56/56 122/122/122 40/40/40
f 67/67/67 88/88/88 86/86/86
f 31/31/31 112/112/112 114/114/114
f 7/7/7 70/70/70 99/99/99
f 67/67/67 7/7/7 88/88/88
f 19/19/19 67/67/67 86/86/86
f 68/68/68 19/19/19 142/142/142
f 41/41/41 85/85/85 82/82/82
f 52/52/52 128/128/128 108/108/108
f 73/73/73 4/4/4 102/102/102
f 16/16/16 73/73/73 100/100/100
f 74/74/74 16/16/16 139/139/139
f 154/154/154 150/150/150 61/61/61
f 26/26/26 128/128/128 52/52/52
f 126/126/126 17/17/17 71/71/71
f 48/48/48 90/90/90 93/93/93
f 77/77/77 118/118/118 14/14/14
f 60/60/60 95/95/95 145/145/145
f 167/167/167 132/132/132 26/26/26
f 49/49/49 145/145/145 95/95/95
f 128/128/128 71/71/71 8/8/8
f 70/70/70 129/129/129 99/99/99
f 57/57/57 130/130/130 170/170/170
f 109/109/109 11/11/11 101/101/101
f 25/25/25 44/44/44 127/127/127
f 64/64/64 91/91/91 89/89/89
f 25/25/25 127/127/127 13/13/13
f 22/22/22 165/165/165 156/156/156
f 132/132/132 127/127/127 26/26/26
f 151/151/151 111/111/111 160/160/160
f 131/131/131 13/13/13 168/168/168
f 131/131/131 25/25/25 13/13/13
f 167/167/167 26/26/26 52/52/52
f 105/105/105 132/132/132 167/167/167
f 167/167/167 52/52/52 106/106/106
f 105/105/105 167/167/167 81/81/81
f 105/105/105 81/81/81 158/158/158
f 171/171/171 28/28/28 105/105/105
f 171/171/171 105/105/105 80/80/80
f 29/29/29 119/119/119 135/135/135
f 121/121/121 80/80/80 5/5/5
f 121/121/121 28/28/28 171/171/171
f 121/121/121 5/5/5 111/111/111
f 63/63/63 111/111/111 161/161/161
f 58/58/58 83/83/83 84/84/84
f 163/163/163 150/150/150 28/28/28
f 120/120/120 150/150/150 163/163/163
f 150/150/150 146/146/146 28/28/28
f 163/163/163 63/63/63 161/161/161
f 120/120/120 123/123/123 61/61/61
f 124/124/124 27/27/27 79/79/79
f 23/23/23 97/97/97 159/159/159
f 97/97/97 130/130/130 173/173/173
f 154/154/154 13/13/13 127/127/127
f 154/154/154 146/146/146 150/150/150
f 124/124/124 13/13/13 154/154/154
f 160/160/160 145/145/145 24/24/24
f 174/174/174 2/2/2 119/119/119
f 133/133/133 78/78/78 14/14/14
f 120/120/120 61/61/61 150/150/150
f 133/133/133 79/79/79 27/27/27
f 120/120/120 163/163/163 32/32/32
f 120/120/120 32/32/32 123/123/123
f 124/124/124 61/61/61 27/27/27
f 77/77/77 174/174/174 119/119/119
f 9/9/9 117/117/117 75/75/75
f 94/94/94 50/50/50 164/164/164
f 78/78/78 125/125/125 9/9/9
f 69/69/69 164/164/164 50/50/50
f 118/118/118 133/133/133 14/14/14
f 136/136/136 30/30/30 62/62/62
f 135/135/135 44/44/44 103/103/103
f 103/103/103 131/131/131 29/29/29
f 117/117/117 62/62/62 30/30/30
f 79/79/79 133/133/133 118/118/118
f 168/168/168 13/13/13 124/124/124
f 168/168/168 124/124/124 79/79/79
f 95/95/95 170/170/170 49/49/49
f 103/103/103 25/25/25 131/131/131
f 7/7/7 99/99/99 88/88/88
f 135/135/135 103/103/103 29/29/29
f 36/36/36 166/166/166 99/99/99
f 125/125/125 27/27/27 62/62/62
f 49/49/49 172/172/172 157/157/157
f 172/172/172 149/149/149 157/157/157
f 97/97/97 173/173/173 159/159/159
f 32/32/32 175/175/175 165/165/165
f 175/175/175 161/161/161 165/165/165
f 42/42/42 176/176/176 114/114/114
f 176/176/176 12/12/12 114/114/114
f 126/126/126 71/71/71 26/26/26
f 128/128/128 26/26/26 71/71/71
