# frame 000767 
# time 0.384000 
# name Cloth3D 
v -0.000000 0.000000 -0.000000
v 1.000000 0.000000 -0.000000
v -0.000000 1.000000 0.000000
v 1.000000 1.000000 0.000000
v 0.502216 0.492051 0.130349
v -0.000000 0.500000 0.000000
v 0.500000 1.000000 0.000000
v 1.000000 0.500000 0.000000
v 0.500000 -0.000000 0.000000
v 0.248150 0.750054 0.060973
v 0.752595 0.750353 0.055613
v 0.243929 0.244631 0.087284
v 0.757190 0.244898 0.087130
v 0.750000 0.000000 0.000000
v 0.250000 0.000000 0.000000
v 1.000000 0.750000 0.000000
v 1.000000 0.250000 0.000000
v 0.250000 1.000000 0.000000
v 0.750000 1.000000 0.000000
v 0.000000 0.250000 0.000000
v 0.000000 0.750000 -0.000000
v 0.362071 0.213103 0.097583
v 0.631258 0.769636 0.057384
v 0.239355 0.512193 0.099578
v 0.817561 0.246979 0.064242
v 0.882607 0.372668 0.060069
v 0.626635 0.122004 0.052422
v 0.883216 0.435290 0.061753
v 0.876138 0.123819 0.022840
v 0.374051 0.120228 0.057614
v 0.123748 0.122972 0.027503
v 0.492999 0.243669 0.111346
v 0.876674 0.622808 0.038823
v 0.630420 0.621802 0.098124
v 0.875450 0.874233 0.013904
v 0.375131 0.874523 0.035076
v 0.257484 0.598195 0.091941
v 0.123667 0.875868 0.026365
v 0.123287 0.623849 0.042597
v 0.625101 0.869984 0.014113
v 0.118828 0.372734 0.058474
v 0.247629 0.119539 0.052652
v 0.875505 0.748441 0.025293
v 0.877518 0.248670 0.040693
v 0.249436 0.875609 0.034484
v 0.750339 0.871318 0.010567
v 0.119354 0.247025 0.051273
v 0.122077 0.750224 0.040680
v 0.319729 0.590764 0.105541
v 0.588263 0.295550 0.133949
v 0.248828 0.812858 0.047933
v 0.882027 0.498002 0.058312
v 0.429393 0.752034 0.065496
v 0.239537 0.451232 0.109882
v 0.000000 0.375000 0.000000
v 0.500266 0.872195 0.026075
v 0.502122 0.620037 0.098391
v 0.237942 0.369032 0.118762
v 0.120305 0.498293 0.054634
v 0.370375 0.494214 0.129789
v 0.631173 0.243260 0.108187
v 0.500603 0.119725 0.060511
v 0.499424 0.364613 0.162411
v 0.000000 0.625000 0.000000
v 0.000000 0.875000 0.000000
v 0.000000 0.125000 0.000000
v 0.625000 1.000000 0.000000
v 0.875000 1.000000 0.000000
v 0.125000 1.000000 0.000000
v 0.375000 1.000000 0.000000
v 1.000000 0.375000 0.000000
v 1.000000 0.125000 0.000000
v 1.000000 0.875000 0.000000
v 1.000000 0.625000 0.000000
v 0.375000 0.000000 0.000000
v 0.125000 0.000000 0.000000
v 0.875000 0.000000 0.000000
v 0.625000 0.000000 0.000000
v 0.752252 0.120875 0.047175
v 0.634180 0.493250 0.130317
v 0.771320 0.512862 0.104115
v 0.059150 0.311494 0.028645
v 0.179438 0.434274 0.086639
v 0.178729 0.307976 0.083298
v 0.059096 0.436610 0.030133
v 0.687389 0.934847 0.001954
v 0.688847 0.809901 0.036416
v 0.562372 0.934675 0.005023
v 0.062261 0.687101 0.018423
v 0.184216 0.687124 0.060595
v 0.062084 0.561514 0.021633
v 0.187221 0.938477 0.018214
v 0.185465 0.813580 0.045676
v 0.061887 0.938057 0.011248
v 0.437160 0.556570 0.114281
v 1.000000 0.437500 0.000000
v 0.551205 0.752565 0.065502
v 0.311921 0.813220 0.054461
v 0.437728 0.937118 0.017334
v 0.938741 0.812012 0.016679
v 0.813445 0.811539 0.029565
v 0.937467 0.937287 0.003994
v 0.876706 0.186166 0.032096
v 0.567284 0.556359 0.114453
v 0.720151 0.420772 0.148459
v 0.823577 0.588541 0.063754
v 0.814382 0.685764 0.049393
v 0.939187 0.561147 0.023426
v 0.751207 0.810597 0.032640
v 0.690865 0.581565 0.108290
v 0.435034 0.428708 0.146220
v 0.186621 0.058635 0.026520
v 0.062627 0.062420 0.004970
v 0.182782 0.182601 0.059996
v 0.311976 0.058762 0.030579
v 0.309239 0.181434 0.079089
v 0.437522 0.059323 0.031226
v 0.813158 0.060689 0.019639
v 0.937050 0.062876 -0.001077
v 0.557948 0.242058 0.109000
v 0.569192 0.428430 0.146505
v 0.526162 0.802036 0.049273
v 0.564904 0.182327 0.083406
v 0.691626 0.181930 0.077012
v 0.562938 0.060036 0.029367
v 0.938026 0.312276 0.020883
v 0.821202 0.308868 0.080321
v 0.940365 0.436367 0.028423
v 0.312535 0.937426 0.017360
v 0.465445 0.674391 0.084824
v 0.815471 0.184697 0.049756
v 0.815849 0.367118 0.103437
v 0.688056 0.060514 0.025837
v 0.062939 0.124796 0.008473
v 0.937857 0.187340 0.014460
v 0.436746 0.181975 0.084515
v 0.061254 0.186719 0.018708
v 0.386787 0.765295 0.063396
v 0.937687 0.686284 0.014977
v 0.371059 0.310008 0.136766
v 0.060506 0.812727 0.020651
v 0.812338 0.936335 0.005154
v 0.183277 0.560441 0.071863
v 0.770183 0.647382 0.072174
v 0.320086 0.528241 0.121175
v 0.720550 0.365381 0.162465
v 0.320758 0.363699 0.162466
v 0.718867 0.753294 0.065508
v 0.319110 0.750837 0.065845
v 0.619747 0.365084 0.162427
v 0.320691 0.401501 0.152864
v 0.286268 0.324581 0.129404
v 0.719512 0.609614 0.101256
v 0.725275 0.293158 0.119833
v 0.673422 0.668168 0.086353
v 0.325197 0.269975 0.112185
v 0.278574 0.655878 0.083956
v 0.719408 0.536979 0.119394
v 0.613619 0.752837 0.065504
v 0.320446 0.465148 0.136949
v 0.419661 0.364280 0.162411
v 1.000000 0.062500 -0.000000
v 0.772174 0.450056 0.118102
v 0.062500 1.000000 0.000000
v 0.415910 0.248492 0.116234
v 0.426045 0.813424 0.047818
v 0.823734 0.478809 0.089681
v 0.754240 0.182948 0.066056
v 0.719230 0.671814 0.085767
v 0.414642 0.657965 0.088940
v 0.636246 0.428866 0.146484
v 0.319463 0.652344 0.090171
v 0.590731 0.672958 0.085332
v 0.937500 0.000000 -0.000000
v 0.457062 0.294167 0.134764
v 0.245311 0.181020 0.073604
v 0.657981 0.293489 0.131504
v 0.124693 0.061165 0.014391
vt 0.000000 0.000000
vt 1.000000 0.000000
vt 0.000000 1.000000
vt 1.000000 1.000000
vt 0.500000 0.500000
vt 0.000000 0.500000
vt 0.500000 1.000000
vt 1.000000 0.500000
vt 0.500000 0.000000
vt 0.250000 0.750000
vt 0.750000 0.750000
vt 0.250000 0.250000
vt 0.750000 0.250000
vt 0.750000 0.000000
vt 0.250000 0.000000
vt 1.000000 0.750000
vt 1.000000 0.250000
vt 0.250000 1.000000
vt 0.750000 1.000000
vt 0.000000 0.250000
vt 0.000000 0.750000
vt 0.365347 0.220303
vt 0.629073 0.770824
vt 0.245672 0.515386
vt 0.812500 0.250000
vt 0.875000 0.375000
vt 0.625000 0.125000
vt 0.875000 0.437500
vt 0.875000 0.125000
vt 0.375000 0.125000
vt 0.125000 0.125000
vt 0.492214 0.250470
vt 0.875000 0.625000
vt 0.625000 0.625000
vt 0.875000 0.875000
vt 0.375000 0.875000
vt 0.262101 0.599801
vt 0.125000 0.875000
vt 0.125000 0.625000
vt 0.625000 0.875000
vt 0.125000 0.375000
vt 0.250000 0.125000
vt 0.875000 0.750000
vt 0.875000 0.250000
vt 0.250000 0.875000
vt 0.750000 0.875000
vt 0.125000 0.250000
vt 0.125000 0.750000
vt 0.323557 0.593031
vt 0.581754 0.304126
vt 0.250000 0.812500
vt 0.875000 0.500000
vt 0.428859 0.754377
vt 0.248222 0.455442
vt 0.000000 0.375000
vt 0.500000 0.875000
vt 0.500000 0.625000
vt 0.250000 0.375000
vt 0.125000 0.500000
vt 0.375000 0.500000
vt 0.625000 0.250000
vt 0.500000 0.125000
vt 0.497762 0.374763
vt 0.000000 0.625000
vt 0.000000 0.875000
vt 0.000000 0.125000
vt 0.625000 1.000000
vt 0.875000 1.000000
vt 0.125000 1.000000
vt 0.375000 1.000000
vt 1.000000 0.375000
vt 1.000000 0.125000
vt 1.000000 0.875000
vt 1.000000 0.625000
vt 0.375000 0.000000
vt 0.125000 0.000000
vt 0.875000 0.000000
vt 0.625000 0.000000
vt 0.750000 0.125000
vt 0.625000 0.500000
vt 0.760524 0.515669
vt 0.062500 0.312500
vt 0.187500 0.437500
vt 0.187500 0.312500
vt 0.062500 0.437500
vt 0.687500 0.937500
vt 0.687500 0.812500
vt 0.562500 0.937500
vt 0.062500 0.687500
vt 0.187500 0.687500
vt 0.062500 0.562500
vt 0.187500 0.937500
vt 0.187500 0.812500
vt 0.062500 0.937500
vt 0.437500 0.562500
vt 1.000000 0.437500
vt 0.549330 0.754324
vt 0.312500 0.812500
vt 0.437500 0.937500
vt 0.937500 0.812500
vt 0.812500 0.812500
vt 0.937500 0.937500
vt 0.875000 0.187500
vt 0.562500 0.562500
vt 0.702947 0.427479
vt 0.819332 0.591237
vt 0.812500 0.687500
vt 0.937500 0.562500
vt 0.750000 0.812500
vt 0.682510 0.583771
vt 0.437500 0.437500
vt 0.187500 0.062500
vt 0.062500 0.062500
vt 0.187500 0.187500
vt 0.312500 0.062500
vt 0.312500 0.187500
vt 0.437500 0.062500
vt 0.812500 0.062500
vt 0.937500 0.062500
vt 0.554454 0.248535
vt 0.562500 0.437500
vt 0.525016 0.804189
vt 0.562500 0.187500
vt 0.687500 0.187500
vt 0.562500 0.062500
vt 0.937500 0.312500
vt 0.812500 0.312500
vt 0.937500 0.437500
vt 0.312500 0.937500
vt 0.464310 0.678183
vt 0.812500 0.187500
vt 0.800716 0.372483
vt 0.687500 0.062500
vt 0.062500 0.125000
vt 0.937500 0.187500
vt 0.437500 0.187500
vt 0.062500 0.187500
vt 0.386728 0.766561
vt 0.937500 0.687500
vt 0.377625 0.317694
vt 0.062500 0.812500
vt 0.812500 0.937500
vt 0.187500 0.562500
vt 0.765906 0.648544
vt 0.325773 0.531569
vt 0.698853 0.375960
vt 0.334678 0.373564
vt 0.715187 0.750947
vt 0.320032 0.751266
vt 0.608941 0.375386
vt 0.332267 0.409170
vt 0.296906 0.332149
vt 0.711499 0.609988
vt 0.713437 0.300753
vt 0.668274 0.669022
vt 0.331126 0.276226
vt 0.281585 0.657008
vt 0.708086 0.538745
vt 0.611210 0.753472
vt 0.328892 0.470166
vt 0.424052 0.374379
vt 1.000000 0.062500
vt 0.758105 0.454518
vt 0.062500 1.000000
vt 0.418341 0.256674
vt 0.425703 0.815414
vt 0.812755 0.481587
vt 0.750000 0.187500
vt 0.713346 0.670866
vt 0.414679 0.661630
vt 0.625000 0.437500
vt 0.321947 0.653776
vt 0.587160 0.675778
vt 0.937500 0.000000
vt 0.458173 0.302976
vt 0.250000 0.187500
vt 0.647595 0.302440
vt 0.125000 0.062500
vn -0.042124 -0.042124 0.998224
vn -0.004119 0.004119 0.999983
vn -0.061198 0.122396 0.990593
vn 0.034272 0.034272 0.998825
vn -0.001132 0.240253 0.970710
vn -0.392918 0.035216 0.918899
vn 0.048554 0.175946 0.983202
vn 0.419836 0.016081 0.907458
vn 0.008012 -0.453275 0.891335
vn -0.092894 0.182399 0.978826
vn 0.263027 0.280343 0.923160
vn -0.204574 -0.256067 0.944764
vn 0.303548 -0.316707 0.898641
vn 0.023156 -0.350840 0.936149
vn -0.013610 -0.438610 0.898575
vn 0.253554 -0.008393 0.967285
vn 0.277683 -0.024341 0.960364
vn 0.004707 0.281959 0.959415
vn -0.015280 0.060464 0.998053
vn -0.360145 -0.041492 0.931973
vn -0.308511 -0.010076 0.951167
vn -0.084544 -0.362640 0.928087
vn 0.010066 0.432141 0.901750
vn -0.334189 0.151547 0.930243
vn 0.346021 -0.224392 0.910998
vn 0.505327 -0.093000 0.857902
vn 0.035971 -0.395592 0.917722
vn 0.496869 0.024398 0.867482
vn 0.232716 -0.168902 0.957766
vn -0.023162 -0.391315 0.919965
vn -0.255154 -0.177796 0.950413
vn 0.022061 -0.408455 0.912512
vn 0.317195 0.118439 0.940935
vn 0.000033 0.241578 0.970381
vn 0.057208 0.132785 0.989492
vn 0.033340 0.261731 0.964565
vn -0.230386 0.176430 0.956972
vn -0.128504 0.148172 0.980577
vn -0.354272 0.044127 0.934101
vn 0.048598 0.279826 0.958820
vn -0.430767 -0.021377 0.902210
vn -0.100497 -0.332746 0.937646
vn 0.188736 0.082316 0.978572
vn 0.366020 -0.136960 0.920474
vn -0.032349 0.234210 0.971648
vn -0.007116 0.251725 0.967773
vn -0.371791 -0.126508 0.919656
vn -0.263903 0.054079 0.963032
vn -0.110077 0.230988 0.966710
vn 0.015621 -0.408591 0.912584
vn -0.065558 0.203276 0.976924
vn 0.443624 0.101977 0.890392
vn 0.025597 0.259415 0.965427
vn -0.376826 0.139969 0.915648
vn -0.445098 -0.006373 0.895459
vn 0.075654 0.273807 0.958804
vn -0.000620 0.240069 0.970756
vn -0.420902 -0.046287 0.905925
vn -0.398962 0.093806 0.912157
vn -0.001550 0.240021 0.970766
vn 0.045190 -0.422247 0.905354
vn 0.017316 -0.399415 0.916607
vn 0.001381 -0.071121 0.997467
vn -0.309649 0.010803 0.950789
vn -0.256251 0.037685 0.965875
vn -0.148904 -0.067730 0.986529
vn 0.013152 0.056232 0.998331
vn 0.005596 0.079498 0.996819
vn -0.022496 0.226480 0.973756
vn 0.001142 0.270925 0.962600
vn 0.418389 -0.022551 0.907988
vn 0.088039 -0.048529 0.994934
vn 0.169519 0.051042 0.984204
vn 0.298529 0.031673 0.953875
vn -0.001432 -0.464595 0.885522
vn -0.115054 -0.235606 0.965014
vn 0.064410 -0.132884 0.989036
vn 0.013215 -0.416277 0.909142
vn 0.143195 -0.318947 0.936893
vn -0.000738 0.240563 0.970633
vn 0.373928 0.214366 0.902344
vn -0.417420 -0.037727 0.907930
vn -0.404486 0.086351 0.910459
vn -0.379058 -0.143394 0.914195
vn -0.432599 0.022531 0.901305
vn 0.005852 0.099931 0.994977
vn 0.034493 0.417944 0.907818
vn 0.055906 0.159841 0.985558
vn -0.323159 0.002613 0.946341
vn -0.237051 0.102017 0.966126
vn -0.363076 0.047107 0.930568
vn -0.027414 0.248261 0.968305
vn -0.092179 0.170707 0.981001
vn -0.091226 0.131313 0.987135
vn -0.000719 0.239781 0.970827
vn 0.430732 0.000000 0.902480
vn 0.008071 0.294418 0.955643
vn -0.041078 0.217149 0.975274
vn 0.044128 0.240560 0.969631
vn 0.157853 0.043510 0.986504
vn 0.091055 0.230055 0.968909
vn 0.048229 0.071110 0.996302
vn 0.289512 -0.152791 0.944901
vn -0.001325 0.240154 0.970734
vn 0.245583 0.215201 0.945186
vn 0.357606 0.178763 0.916603
vn 0.296258 0.160639 0.941502
vn 0.365152 0.078477 0.927634
vn 0.067543 0.372290 0.925656
vn 0.000114 0.240396 0.970675
vn -0.001147 0.241133 0.970491
vn -0.125533 -0.305194 0.943980
vn -0.135862 -0.102449 0.985416
vn -0.247966 -0.232308 0.940503
vn -0.015410 -0.417061 0.908748
vn -0.091291 -0.327275 0.940509
vn -0.002382 -0.439765 0.898110
vn 0.091462 -0.277253 0.956434
vn 0.060604 -0.048302 0.996992
vn 0.019784 -0.411090 0.911380
vn -0.001411 0.241008 0.970522
vn 0.033299 0.325747 0.944870
vn 0.031985 -0.399149 0.916328
vn 0.111777 -0.367229 0.923390
vn 0.027506 -0.421731 0.906304
vn 0.386581 -0.086630 0.918178
vn 0.426588 -0.251685 0.868722
vn 0.461583 0.007302 0.887067
vn 0.002053 0.273514 0.961866
vn -0.000146 0.239381 0.970926
vn 0.264093 -0.242931 0.933402
vn 0.498899 -0.145904 0.854290
vn 0.026638 -0.384681 0.922665
vn -0.217263 -0.101456 0.970826
vn 0.262033 -0.089932 0.960860
vn -0.001145 -0.405870 0.913930
vn -0.289747 -0.117612 0.949849
vn 0.027179 0.246673 0.968718
vn 0.250371 0.039007 0.967364
vn -0.089392 -0.419222 0.903472
vn -0.266651 0.041781 0.962887
vn -0.012349 0.120093 0.992686
vn -0.348610 0.111986 0.930554
vn 0.340771 0.198240 0.919008
vn -0.123527 0.227459 0.965921
vn 0.255617 -0.067072 0.964449
vn -0.238475 -0.082448 0.967643
vn 0.183615 0.333105 0.924839
vn -0.043256 0.195116 0.979826
vn 0.003116 -0.052769 0.998602
vn -0.225927 0.225424 0.947703
vn -0.288456 -0.371154 0.882631
vn 0.133104 0.236003 0.962593
vn 0.272111 -0.417883 0.866792
vn -0.002712 0.240116 0.970740
vn -0.145209 -0.369120 0.917968
vn -0.146605 0.216184 0.965283
vn 0.180245 0.234425 0.955278
vn -0.001455 0.382313 0.924032
vn -0.149291 0.230286 0.961603
vn -0.009687 -0.095141 0.995417
vn -0.008234 -0.000000 0.999966
vn 0.412575 0.158217 0.897078
vn 0.000000 0.182181 0.983265
vn -0.031766 -0.387597 0.921282
vn 0.044551 0.271316 0.961459
vn 0.419435 0.148746 0.895516
vn 0.208227 -0.311405 0.927183
vn 0.150538 0.233343 0.960671
vn 0.000472 0.238523 0.971137
vn -0.000647 0.240898 0.970550
vn -0.089288 0.237731 0.967219
vn 0.000245 0.239370 0.970928
vn 0.000000 0.008242 0.999966
vn -0.001301 -0.378410 0.925637
vn -0.150791 -0.266216 0.952046
vn 0.067563 -0.440460 0.895227
vn -0.172053 -0.216870 0.960919
f 1/1/1 113/113/113 66/66/66
f 155/155/155 34/34/34 153/153/153
f 4/4/4 68/68/68 102/102/102
f 147/147/147 152/152/152 140/140/140
f 144/144/144 11/11/11 169/169/169
f 10/10/10 93/93/93 90/90/90
f 164/164/164 3/3/3 94/94/94
f 31/31/31 134/134/134 113/113/113
f 134/134/134 137/137/137 66/66/66
f 134/134/134 66/66/66 113/113/113
f 115/115/115 112/112/112 15/15/15
f 31/31/31 137/137/137 134/134/134
f 73/73/73 102/102/102 100/100/100
f 127/127/127 132/132/132 154/154/154
f 76/76/76 113/113/113 1/1/1
f 57/57/57 170/170/170 95/95/95
f 15/15/15 112/112/112 76/76/76
f 115/115/115 15/15/15 75/75/75
f 45/45/45 51/51/51 98/98/98
f 137/137/137 31/31/31 47/47/47
f 32/32/32 136/136/136 123/123/123
f 22/22/22 30/30/30 136/136/136
f 22/22/22 156/156/156 116/116/116
f 62/62/62 123/123/123 136/136/136
f 165/165/165 136/136/136 32/32/32
f 115/115/115 30/30/30 42/42/42
f 27/27/27 133/133/133 124/124/124
f 143/143/143 59/59/59 24/24/24
f 116/116/116 30/30/30 22/22/22
f 42/42/42 112/112/112 115/115/115
f 114/114/114 47/47/47 31/31/31
f 84/84/84 152/152/152 58/58/58
f 83/83/83 24/24/24 59/59/59
f 116/116/116 42/42/42 30/30/30
f 54/54/54 151/151/151 160/160/160
f 75/75/75 117/117/117 115/115/115
f 148/148/148 169/169/169 11/11/11
f 165/165/165 22/22/22 136/136/136
f 26/26/26 127/127/127 126/126/126
f 83/83/83 58/58/58 54/54/54
f 146/146/146 154/154/154 132/132/132
f 163/163/163 105/105/105 132/132/132
f 30/30/30 115/115/115 117/117/117
f 169/169/169 148/148/148 155/155/155
f 153/153/153 169/169/169 155/155/155
f 72/72/72 135/135/135 119/119/119
f 10/10/10 51/51/51 93/93/93
f 54/54/54 58/58/58 151/151/151
f 129/129/129 45/45/45 36/36/36
f 118/118/118 29/29/29 79/79/79
f 57/57/57 173/173/173 130/130/130
f 84/84/84 58/58/58 41/41/41
f 131/131/131 79/79/79 29/29/29
f 149/149/149 98/98/98 10/10/10
f 9/9/9 125/125/125 117/117/117
f 120/120/120 50/50/50 32/32/32
f 157/157/157 10/10/10 90/90/90
f 82/82/82 137/137/137 47/47/47
f 84/84/84 12/12/12 152/152/152
f 12/12/12 176/176/176 116/116/116
f 172/172/172 49/49/49 170/170/170
f 20/20/20 137/137/137 82/82/82
f 159/159/159 173/173/173 155/155/155
f 20/20/20 66/66/66 137/137/137
f 55/55/55 20/20/20 82/82/82
f 34/34/34 155/155/155 173/173/173
f 23/23/23 40/40/40 122/122/122
f 92/92/92 45/45/45 129/129/129
f 149/149/149 172/172/172 170/170/170
f 176/176/176 42/42/42 116/116/116
f 128/128/128 8/8/8 52/52/52
f 107/107/107 33/33/33 43/43/43
f 139/139/139 43/43/43 33/33/33
f 156/156/156 140/140/140 152/152/152
f 49/49/49 37/37/37 145/145/145
f 161/161/161 140/140/140 175/175/175
f 45/45/45 98/98/98 36/36/36
f 122/122/122 53/53/53 97/97/97
f 110/110/110 153/153/153 34/34/34
f 162/162/162 72/72/72 119/119/119
f 16/16/16 100/100/100 139/139/139
f 108/108/108 52/52/52 8/8/8
f 93/93/93 38/38/38 48/48/48
f 62/62/62 117/117/117 125/125/125
f 37/37/37 90/90/90 143/143/143
f 143/143/143 90/90/90 39/39/39
f 94/94/94 69/69/69 164/164/164
f 79/79/79 131/131/131 168/168/168
f 129/129/129 70/70/70 18/18/18
f 59/59/59 91/91/91 85/85/85
f 92/92/92 18/18/18 69/69/69
f 128/128/128 26/26/26 71/71/71
f 2/2/2 162/162/162 119/119/119
f 93/93/93 92/92/92 38/38/38
f 126/126/126 71/71/71 26/26/26
f 27/27/27 124/124/124 123/123/123
f 150/150/150 146/146/146 171/171/171
f 48/48/48 38/38/38 141/141/141
f 65/65/65 94/94/94 3/3/3
f 35/35/35 142/142/142 101/101/101
f 21/21/21 141/141/141 65/65/65
f 38/38/38 94/94/94 141/141/141
f 46/46/46 101/101/101 142/142/142
f 65/65/65 141/141/141 94/94/94
f 39/39/39 90/90/90 48/48/48
f 51/51/51 45/45/45 93/93/93
f 23/23/23 122/122/122 97/97/97
f 61/61/61 123/123/123 124/124/124
f 145/145/145 160/160/160 60/60/60
f 92/92/92 129/129/129 18/18/18
f 140/140/140 161/161/161 147/147/147
f 89/89/89 39/39/39 48/48/48
f 48/48/48 141/141/141 89/89/89
f 42/42/42 176/176/176 114/114/114
f 89/89/89 21/21/21 64/64/64
f 21/21/21 89/89/89 141/141/141
f 154/154/154 146/146/146 177/177/177
f 149/149/149 10/10/10 157/157/157
f 6/6/6 91/91/91 64/64/64
f 165/165/165 175/175/175 140/140/140
f 6/6/6 55/55/55 85/85/85
f 24/24/24 83/83/83 54/54/54
f 152/152/152 147/147/147 58/58/58
f 151/151/151 58/58/58 147/147/147
f 167/167/167 163/163/163 132/132/132
f 24/24/24 54/54/54 160/160/160
f 34/34/34 173/173/173 57/57/57
f 123/123/123 62/62/62 27/27/27
f 27/27/27 125/125/125 133/133/133
f 43/43/43 101/101/101 107/107/107
f 56/56/56 88/88/88 99/99/99
f 39/39/39 89/89/89 91/91/91
f 169/169/169 153/153/153 144/144/144
f 59/59/59 85/85/85 83/83/83
f 38/38/38 92/92/92 94/94/94
f 37/37/37 157/157/157 90/90/90
f 37/37/37 143/143/143 24/24/24
f 149/149/149 138/138/138 98/98/98
f 26/26/26 28/28/28 132/132/132
f 135/135/135 72/72/72 17/17/17
f 155/155/155 148/148/148 159/159/159
f 51/51/51 10/10/10 98/98/98
f 78/78/78 133/133/133 125/125/125
f 17/17/17 126/126/126 135/135/135
f 104/104/104 95/95/95 5/5/5
f 130/130/130 53/53/53 170/170/170
f 44/44/44 135/135/135 126/126/126
f 105/105/105 158/158/158 80/80/80
f 57/57/57 95/95/95 104/104/104
f 39/39/39 91/91/91 143/143/143
f 34/34/34 57/57/57 104/104/104
f 156/156/156 152/152/152 12/12/12
f 43/43/43 139/139/139 100/100/100
f 6/6/6 85/85/85 91/91/91
f 139/139/139 33/33/33 74/74/74
f 60/60/60 160/160/160 111/111/111
f 11/11/11 144/144/144 107/107/107
f 103/103/103 44/44/44 25/25/25
f 63/63/63 111/111/111 161/161/161
f 119/119/119 29/29/29 77/77/77
f 80/80/80 110/110/110 104/104/104
f 124/124/124 154/154/154 61/61/61
f 12/12/12 116/116/116 156/156/156
f 41/41/41 83/83/83 85/85/85
f 37/37/37 49/49/49 157/157/157
f 144/144/144 153/153/153 106/106/106
f 33/33/33 106/106/106 108/108/108
f 106/106/106 153/153/153 81/81/81
f 110/110/110 34/34/34 104/104/104
f 101/101/101 11/11/11 107/107/107
f 80/80/80 104/104/104 5/5/5
f 158/158/158 153/153/153 110/110/110
f 121/121/121 171/171/171 80/80/80
f 105/105/105 146/146/146 132/132/132
f 81/81/81 153/153/153 158/158/158
f 158/158/158 110/110/110 80/80/80
f 99/99/99 36/36/36 56/56/56
f 167/167/167 106/106/106 81/81/81
f 36/36/36 99/99/99 129/129/129
f 107/107/107 106/106/106 33/33/33
f 11/11/11 109/109/109 148/148/148
f 82/82/82 47/47/47 41/41/41
f 150/150/150 177/177/177 146/146/146
f 59/59/59 143/143/143 91/91/91
f 74/74/74 108/108/108 8/8/8
f 87/87/87 148/148/148 109/109/109
f 84/84/84 41/41/41 47/47/47
f 35/35/35 100/100/100 102/102/102
f 138/138/138 53/53/53 166/166/166
f 144/144/144 106/106/106 107/107/107
f 111/111/111 5/5/5 60/60/60
f 79/79/79 124/124/124 133/133/133
f 95/95/95 60/60/60 5/5/5
f 88/88/88 56/56/56 40/40/40
f 118/118/118 77/77/77 29/29/29
f 105/105/105 163/163/163 158/158/158
f 12/12/12 84/84/84 114/114/114
f 69/69/69 94/94/94 92/92/92
f 47/47/47 114/114/114 84/84/84
f 56/56/56 166/166/166 122/122/122
f 63/63/63 150/150/150 121/121/121
f 111/111/111 151/151/151 161/161/161
f 32/32/32 50/50/50 175/175/175
f 52/52/52 108/108/108 106/106/106
f 122/122/122 166/166/166 53/53/53
f 151/151/151 147/147/147 161/161/161
f 86/86/86 46/46/46 142/142/142
f 53/53/53 130/130/130 97/97/97
f 55/55/55 82/82/82 85/85/85
f 68/68/68 142/142/142 102/102/102
f 42/42/42 114/114/114 112/112/112
f 142/142/142 35/35/35 102/102/102
f 87/87/87 46/46/46 40/40/40
f 46/46/46 109/109/109 101/101/101
f 19/19/19 86/86/86 142/142/142
f 88/88/88 40/40/40 86/86/86
f 23/23/23 87/87/87 40/40/40
f 86/86/86 40/40/40 46/46/46
f 23/23/23 148/148/148 87/87/87
f 87/87/87 109/109/109 46/46/46
f 63/63/63 175/175/175 50/50/50
f 23/23/23 159/159/159 148/148/148
f 24/24/24 145/145/145 37/37/37
f 56/56/56 122/122/122 40/40/40
f 67/67/67 88/88/88 86/86/86
f 31/31/31 112/112/112 114/114/114
f 7/7/7 70/70/70 99/99/99
f 67/67/67 7/7/7 88/88/88
f 19/19/19 67/67/67 86/86/86
f 68/68/68 19/19/19 142/142/142
f 41/41/41 85/85/85 82/82/82
f 83/83/83 41/41/41 58/58/58
f 73/73/73 4/4/4 102/102/102
f 16/16/16 73/73/73 100/100/100
f 74/74/74 16/16/16 139/139/139
f 96/96/96 8/8/8 128/128/128
f 138/138/138 166/166/166 98/98/98
f 126/126/126 17/17/17 71/71/71
f 48/48/48 90/90/90 93/93/93
f 77/77/77 118/118/118 14/14/14
f 60/60/60 95/95/95 145/145/145
f 28/28/28 52/52/52 167/167/167
f 49/49/49 145/145/145 95/95/95
f 63/63/63 121/121/121 111/111/111
f 70/70/70 129/129/129 99/99/99
f 57/57/57 130/130/130 170/170/170
f 109/109/109 11/11/11 101/101/101
f 25/25/25 44/44/44 127/127/127
f 64/64/64 91/91/91 89/89/89
f 25/25/25 127/127/127 13/13/13
f 22/22/22 165/165/165 156/156/156
f 132/132/132 127/127/127 26/26/26
f 151/151/151 111/111/111 160/160/160
f 131/131/131 13/13/13 168/168/168
f 131/131/131 25/25/25 13/13/13
f 36/36/36 98/98/98 166/166/166
f 178/178/178 31/31/31 113/113/113
f 167/167/167 52/52/52 106/106/106
f 76/76/76 178/178/178 113/113/113
f 163/163/163 167/167/167 81/81/81
f 166/166/166 56/56/56 36/36/36
f 171/171/171 105/105/105 80/80/80
f 29/29/29 119/119/119 135/135/135
f 121/121/121 80/80/80 5/5/5
f 52/52/52 28/28/28 128/128/128
f 121/121/121 5/5/5 111/111/111
f 63/63/63 161/161/161 175/175/175
f 44/44/44 126/126/126 127/127/127
f 176/176/176 12/12/12 114/114/114
f 178/178/178 76/76/76 112/112/112
f 28/28/28 26/26/26 128/128/128
f 81/81/81 158/158/158 163/163/163
f 120/120/120 123/123/123 61/61/61
f 35/35/35 101/101/101 43/43/43
f 23/23/23 97/97/97 159/159/159
f 97/97/97 130/130/130 173/173/173
f 154/154/154 13/13/13 127/127/127
f 50/50/50 177/177/177 150/150/150
f 124/124/124 13/13/13 154/154/154
f 160/160/160 145/145/145 24/24/24
f 174/174/174 2/2/2 119/119/119
f 133/133/133 78/78/78 14/14/14
f 171/171/171 121/121/121 150/150/150
f 35/35/35 43/43/43 100/100/100
f 71/71/71 96/96/96 128/128/128
f 120/120/120 32/32/32 123/123/123
f 108/108/108 74/74/74 33/33/33
f 77/77/77 174/174/174 119/119/119
f 9/9/9 117/117/117 75/75/75
f 93/93/93 45/45/45 92/92/92
f 78/78/78 125/125/125 9/9/9
f 50/50/50 120/120/120 61/61/61
f 118/118/118 133/133/133 14/14/14
f 136/136/136 30/30/30 62/62/62
f 135/135/135 44/44/44 103/103/103
f 103/103/103 131/131/131 29/29/29
f 117/117/117 62/62/62 30/30/30
f 79/79/79 133/133/133 118/118/118
f 168/168/168 13/13/13 124/124/124
f 168/168/168 124/124/124 79/79/79
f 95/95/95 170/170/170 49/49/49
f 103/103/103 25/25/25 131/131/131
f 7/7/7 99/99/99 88/88/88
f 135/135/135 103/103/103 29/29/29
f 167/167/167 132/132/132 28/28/28
f 125/125/125 27/27/27 62/62/62
f 49/49/49 172/172/172 157/157/157
f 172/172/172 149/149/149 157/157/157
f 97/97/97 173/173/173 159/159/159
f 32/32/32 175/175/175 165/165/165
f 140/140/140 156/156/156 165/165/165
f 171/171/171 146/146/146 105/105/105
f 154/154/154 177/177/177 61/61/61
f 177/177/177 50/50/50 61/61/61
f 31/31/31 178/178/178 112/112/112
f 50/50/50 150/150/150 63/63/63
f 53/53/53 138/138/138 170/170/170
f 149/149/149 170/170/170 138/138/138
