# frame 000745 
# time 0.373000 
# name Cloth3D 
v -0.000000 0.000000 -0.000000
v 1.000000 0.000000 -0.000000
v -0.000000 1.000000 0.000000
v 1.000000 1.000000 0.000000
v 0.502425 0.493611 0.126564
v -0.000000 0.500000 0.000000
v 0.500000 1.000000 0.000000
v 1.000000 0.500000 0.000000
v 0.500000 -0.000000 0.000000
v 0.247311 0.752126 0.066140
v 0.754495 0.751783 0.066254
v 0.244597 0.243353 0.086923
v 0.760042 0.241605 0.096676
v 0.750000 0.000000 0.000000
v 0.250000 0.000000 0.000000
v 1.000000 0.750000 0.000000
v 1.000000 0.250000 0.000000
v 0.250000 1.000000 0.000000
v 0.750000 1.000000 0.000000
v 0.000000 0.250000 0.000000
v 0.000000 0.750000 -0.000000
v 0.363107 0.215934 0.087791
v 0.632253 0.771538 0.068055
v 0.239643 0.512851 0.098700
v 0.821171 0.244166 0.075471
v 0.882814 0.372238 0.061052
v 0.627306 0.122352 0.051396
v 0.882447 0.435105 0.060227
v 0.877674 0.122813 0.029948
v 0.374737 0.120702 0.054931
v 0.124463 0.123173 0.025655
v 0.493678 0.244545 0.106691
v 0.877981 0.623870 0.043416
v 0.630935 0.623470 0.101769
v 0.876698 0.875862 0.023711
v 0.374915 0.878757 0.047767
v 0.258104 0.598927 0.090169
v 0.122037 0.878106 0.035755
v 0.121427 0.624557 0.048270
v 0.626327 0.874313 0.033690
v 0.119815 0.372572 0.056248
v 0.248201 0.118922 0.052258
v 0.877689 0.750071 0.035491
v 0.881204 0.246740 0.051528
v 0.248533 0.878882 0.044440
v 0.751610 0.874819 0.029517
v 0.123335 0.247909 0.040806
v 0.120853 0.751413 0.045363
v 0.319723 0.592406 0.107477
v 0.588317 0.296697 0.128235
v 0.247732 0.815907 0.057554
v 0.882010 0.498133 0.058166
v 0.428711 0.743664 0.078603
v 0.241179 0.451464 0.105100
v 0.000000 0.375000 0.000000
v 0.500770 0.876052 0.041287
v 0.502169 0.622490 0.101817
v 0.241894 0.369014 0.109282
v 0.120996 0.498177 0.053406
v 0.371016 0.495300 0.126249
v 0.631638 0.244041 0.103932
v 0.501096 0.122952 0.052049
v 0.502127 0.365112 0.151398
v 0.000000 0.625000 0.000000
v 0.000000 0.875000 0.000000
v 0.000000 0.125000 0.000000
v 0.625000 1.000000 0.000000
v 0.875000 1.000000 0.000000
v 0.125000 1.000000 0.000000
v 0.375000 1.000000 0.000000
v 1.000000 0.375000 0.000000
v 1.000000 0.125000 0.000000
v 1.000000 0.875000 0.000000
v 1.000000 0.625000 0.000000
v 0.375000 0.000000 0.000000
v 0.125000 0.000000 0.000000
v 0.875000 0.000000 0.000000
v 0.625000 0.000000 0.000000
v 0.752985 0.121972 0.045185
v 0.633883 0.494457 0.126634
v 0.770536 0.513034 0.101959
v 0.060727 0.311569 0.024909
v 0.181454 0.434114 0.081723
v 0.182257 0.308310 0.074678
v 0.060042 0.436444 0.028306
v 0.688001 0.935782 0.010346
v 0.690262 0.812430 0.050626
v 0.563030 0.937781 0.019833
v 0.059678 0.687616 0.026018
v 0.183244 0.688388 0.064609
v 0.060581 0.561753 0.025759
v 0.186426 0.940790 0.025150
v 0.184192 0.815731 0.052736
v 0.061475 0.938634 0.012812
v 0.437302 0.558543 0.114152
v 0.877594 0.813184 0.031138
v 0.551699 0.744200 0.078609
v 0.311354 0.815355 0.058740
v 0.437676 0.938304 0.021495
v 0.939529 0.812726 0.018721
v 0.815732 0.813921 0.043766
v 0.938308 0.938175 0.011027
v 0.880237 0.184116 0.043866
v 0.567423 0.558202 0.114306
v 0.720149 0.421118 0.140740
v 0.824696 0.589648 0.067250
v 0.817556 0.687742 0.061378
v 0.939544 0.561510 0.024649
v 0.753058 0.813364 0.048052
v 0.691244 0.582483 0.109742
v 0.435795 0.429580 0.138928
v 0.186967 0.059373 0.023751
v 0.062154 0.062033 0.009382
v 0.184714 0.183018 0.054504
v 0.312341 0.060718 0.025431
v 0.310258 0.181511 0.075880
v 0.437873 0.061441 0.025889
v 0.813511 0.061288 0.018790
v 0.938582 0.061491 0.011940
v 0.558434 0.243089 0.104132
v 0.568865 0.429437 0.139137
v 0.526396 0.804022 0.057675
v 0.565488 0.183303 0.079612
v 0.692786 0.182497 0.075403
v 0.563302 0.061865 0.024895
v 0.941021 0.311275 0.028542
v 0.821370 0.307563 0.082309
v 0.942466 0.436332 0.032594
v 0.312232 0.940268 0.025626
v 0.465318 0.677348 0.091296
v 0.818520 0.182370 0.060006
v 0.812774 0.367185 0.098293
v 0.688512 0.061097 0.024456
v 0.062290 0.124420 0.012785
v 0.940163 0.186342 0.022308
v 0.437444 0.182430 0.081467
v 0.063513 0.187203 0.011365
v 0.386310 0.768470 0.072222
v 0.938940 0.687003 0.020075
v 0.371541 0.309098 0.134308
v 0.059914 0.813532 0.023261
v 0.813143 0.938395 0.016543
v 0.183055 0.560966 0.072743
v 0.772478 0.648888 0.080603
v 0.320082 0.529199 0.119634
v 0.720606 0.352269 0.154103
v 0.320813 0.350587 0.154104
v 0.718902 0.744927 0.078617
v 0.319074 0.743177 0.078600
v 0.619406 0.351972 0.154072
v 0.320690 0.401730 0.144152
v 0.288198 0.323828 0.125438
v 0.719509 0.610279 0.104367
v 0.726481 0.291358 0.124100
v 0.674379 0.669562 0.092717
v 0.325582 0.267379 0.114337
v 0.278315 0.657555 0.086375
v 0.719407 0.537325 0.118377
v 0.614507 0.744473 0.078612
v 0.320444 0.465616 0.131862
v 0.420760 0.351174 0.154058
v 1.000000 0.062500 -0.000000
v 0.552631 0.351726 0.154058
v 0.062500 1.000000 0.000000
v 0.416837 0.251941 0.104954
v 0.426044 0.818176 0.063442
v 0.821776 0.478682 0.084543
v 0.756385 0.180915 0.072336
v 0.719227 0.672693 0.092423
v 0.414316 0.660860 0.094488
v 0.635457 0.429819 0.139134
v 0.319453 0.654708 0.095521
v 0.591232 0.675140 0.091839
v 0.937500 0.000000 -0.000000
v 0.457837 0.295634 0.127897
v 0.247169 0.182036 0.066353
v 1.000000 0.437500 0.000000
vt 0.000000 0.000000
vt 1.000000 0.000000
vt 0.000000 1.000000
vt 1.000000 1.000000
vt 0.500000 0.500000
vt 0.000000 0.500000
vt 0.500000 1.000000
vt 1.000000 0.500000
vt 0.500000 0.000000
vt 0.250000 0.750000
vt 0.750000 0.750000
vt 0.250000 0.250000
vt 0.750000 0.250000
vt 0.750000 0.000000
vt 0.250000 0.000000
vt 1.000000 0.750000
vt 1.000000 0.250000
vt 0.250000 1.000000
vt 0.750000 1.000000
vt 0.000000 0.250000
vt 0.000000 0.750000
vt 0.365347 0.220303
vt 0.629073 0.770824
vt 0.245672 0.515386
vt 0.812500 0.250000
vt 0.875000 0.375000
vt 0.625000 0.125000
vt 0.875000 0.437500
vt 0.875000 0.125000
vt 0.375000 0.125000
vt 0.125000 0.125000
vt 0.492214 0.250470
vt 0.875000 0.625000
vt 0.625000 0.625000
vt 0.875000 0.875000
vt 0.375000 0.875000
vt 0.262101 0.599801
vt 0.125000 0.875000
vt 0.125000 0.625000
vt 0.625000 0.875000
vt 0.125000 0.375000
vt 0.250000 0.125000
vt 0.875000 0.750000
vt 0.875000 0.250000
vt 0.250000 0.875000
vt 0.750000 0.875000
vt 0.125000 0.250000
vt 0.125000 0.750000
vt 0.323721 0.593034
vt 0.581754 0.304126
vt 0.250000 0.812500
vt 0.875000 0.500000
vt 0.428494 0.742596
vt 0.248222 0.455442
vt 0.000000 0.375000
vt 0.500000 0.875000
vt 0.500000 0.625000
vt 0.250000 0.375000
vt 0.125000 0.500000
vt 0.375000 0.500000
vt 0.625000 0.250000
vt 0.500000 0.125000
vt 0.500000 0.375000
vt 0.000000 0.625000
vt 0.000000 0.875000
vt 0.000000 0.125000
vt 0.625000 1.000000
vt 0.875000 1.000000
vt 0.125000 1.000000
vt 0.375000 1.000000
vt 1.000000 0.375000
vt 1.000000 0.125000
vt 1.000000 0.875000
vt 1.000000 0.625000
vt 0.375000 0.000000
vt 0.125000 0.000000
vt 0.875000 0.000000
vt 0.625000 0.000000
vt 0.750000 0.125000
vt 0.625000 0.500000
vt 0.760524 0.515669
vt 0.062500 0.312500
vt 0.187500 0.437500
vt 0.187500 0.312500
vt 0.062500 0.437500
vt 0.687500 0.937500
vt 0.687500 0.812500
vt 0.562500 0.937500
vt 0.062500 0.687500
vt 0.187500 0.687500
vt 0.062500 0.562500
vt 0.187500 0.937500
vt 0.187500 0.812500
vt 0.062500 0.937500
vt 0.437500 0.562500
vt 0.875000 0.812500
vt 0.549303 0.743340
vt 0.312500 0.812500
vt 0.437500 0.937500
vt 0.937500 0.812500
vt 0.812500 0.812500
vt 0.937500 0.937500
vt 0.875000 0.187500
vt 0.562500 0.562500
vt 0.704790 0.427385
vt 0.819332 0.591237
vt 0.812500 0.687500
vt 0.937500 0.562500
vt 0.750000 0.812500
vt 0.682510 0.583771
vt 0.437500 0.437500
vt 0.187500 0.062500
vt 0.062500 0.062500
vt 0.187500 0.187500
vt 0.312500 0.062500
vt 0.312500 0.187500
vt 0.437500 0.062500
vt 0.812500 0.062500
vt 0.937500 0.062500
vt 0.554454 0.248535
vt 0.562500 0.437500
vt 0.525016 0.804189
vt 0.562500 0.187500
vt 0.687500 0.187500
vt 0.562500 0.062500
vt 0.937500 0.312500
vt 0.812500 0.312500
vt 0.937500 0.437500
vt 0.312500 0.937500
vt 0.464310 0.678183
vt 0.812500 0.187500
vt 0.800716 0.372483
vt 0.687500 0.062500
vt 0.062500 0.125000
vt 0.937500 0.187500
vt 0.437500 0.187500
vt 0.062500 0.187500
vt 0.386728 0.766561
vt 0.937500 0.687500
vt 0.377625 0.317694
vt 0.062500 0.812500
vt 0.812500 0.937500
vt 0.187500 0.562500
vt 0.765906 0.648544
vt 0.325421 0.531553
vt 0.701457 0.363273
vt 0.332993 0.360962
vt 0.713430 0.741635
vt 0.321071 0.740430
vt 0.609037 0.361916
vt 0.330368 0.409063
vt 0.296906 0.332149
vt 0.710814 0.610013
vt 0.713437 0.300753
vt 0.668274 0.669022
vt 0.331126 0.276226
vt 0.281585 0.657008
vt 0.708216 0.538742
vt 0.611068 0.743148
vt 0.327773 0.470110
vt 0.424116 0.361665
vt 1.000000 0.062500
vt 0.547164 0.361834
vt 0.062500 1.000000
vt 0.418341 0.256674
vt 0.425703 0.815414
vt 0.812755 0.481587
vt 0.750000 0.187500
vt 0.712163 0.670896
vt 0.414679 0.661630
vt 0.625000 0.437500
vt 0.322520 0.653787
vt 0.587160 0.675778
vt 0.937500 0.000000
vt 0.458173 0.302976
vt 0.250000 0.187500
vt 1.000000 0.437500
vn -0.075868 -0.075868 0.994227
vn 0.100336 -0.100336 0.989881
vn -0.068366 0.136731 0.988246
vn 0.090743 0.090743 0.991732
vn -0.000910 0.186544 0.982446
vn -0.405548 0.007715 0.914041
vn 0.004682 0.325285 0.945604
vn 0.450612 0.025326 0.892361
vn 0.003407 -0.374441 0.927245
vn -0.112042 0.152320 0.981960
vn 0.241949 0.225252 0.943781
vn -0.250495 -0.284562 0.925352
vn 0.238429 -0.293426 0.925771
vn 0.020953 -0.332196 0.942978
vn -0.004565 -0.375616 0.926764
vn 0.303798 0.005782 0.952719
vn 0.399541 -0.023426 0.916416
vn -0.001746 0.396118 0.918198
vn -0.024076 0.218510 0.975538
vn -0.280023 -0.052721 0.958545
vn -0.381886 0.011175 0.924142
vn 0.000742 -0.388954 0.921257
vn 0.007680 0.348275 0.937361
vn -0.325532 0.118088 0.938128
vn 0.333433 -0.156571 0.929682
vn 0.447356 -0.035159 0.893665
vn 0.018195 -0.400790 0.915989
vn 0.415439 0.033052 0.909020
vn 0.200412 -0.220162 0.954654
vn -0.007672 -0.390672 0.920498
vn -0.211589 -0.117418 0.970280
vn -0.013251 -0.389403 0.920972
vn 0.347178 0.076291 0.934691
vn 0.000299 0.187901 0.982188
vn 0.140494 0.133742 0.981007
vn 0.004540 0.290488 0.956868
vn -0.252674 0.139298 0.957471
vn -0.167721 0.165373 0.971865
vn -0.326338 0.022110 0.944995
vn 0.048222 0.295425 0.954148
vn -0.406393 -0.047844 0.912445
vn -0.112352 -0.300875 0.947022
vn 0.252676 0.070329 0.964992
vn 0.377055 -0.096074 0.921194
vn -0.042436 0.236936 0.970598
vn 0.015482 0.270770 0.962520
vn -0.354938 -0.125421 0.926439
vn -0.264591 0.052984 0.962904
vn -0.154330 0.177436 0.971956
vn 0.005107 -0.421169 0.906968
vn -0.047460 0.170199 0.984266
vn 0.393426 0.067481 0.916876
vn 0.001765 0.206188 0.978511
vn -0.370543 0.079617 0.925397
vn -0.400125 -0.012933 0.916369
vn 0.053261 0.284883 0.957082
vn -0.000389 0.186354 0.982483
vn -0.431555 -0.035087 0.901404
vn -0.380698 0.043270 0.923687
vn -0.001332 0.186304 0.982491
vn 0.011390 -0.405382 0.914076
vn 0.012300 -0.414699 0.909875
vn -0.001158 0.187170 0.982327
vn -0.398165 -0.002146 0.917311
vn -0.284504 0.041499 0.957776
vn -0.192090 -0.009281 0.981333
vn 0.037850 0.245751 0.968594
vn 0.022027 0.223439 0.974469
vn -0.039893 0.275192 0.960561
vn 0.017847 0.366682 0.930175
vn 0.472117 -0.012227 0.881451
vn 0.263967 -0.032970 0.963968
vn 0.237369 0.028967 0.970987
vn 0.347561 0.017793 0.937488
vn 0.000919 -0.382184 0.924086
vn -0.056412 -0.232054 0.971066
vn 0.019428 -0.234254 0.971981
vn -0.000470 -0.369065 0.929403
vn 0.074954 -0.386307 0.919320
vn -0.000501 0.186865 0.982385
vn 0.387879 0.153949 0.908763
vn -0.367827 -0.065955 0.927552
vn -0.382932 0.044861 0.922687
vn -0.390373 -0.144806 0.909197
vn -0.413516 0.004732 0.910485
vn 0.014232 0.251213 0.967827
vn 0.032489 0.340455 0.939699
vn 0.036633 0.292292 0.955627
vn -0.362542 0.010305 0.931910
vn -0.221756 0.082261 0.971626
vn -0.381557 0.009469 0.924297
vn -0.047745 0.311216 0.949139
vn -0.117799 0.144818 0.982421
vn -0.115251 0.156375 0.980951
vn -0.000496 0.186058 0.982539
vn 0.203716 0.095105 0.974400
vn 0.001338 0.260439 0.965490
vn -0.040017 0.210781 0.976714
vn 0.024865 0.343701 0.938750
vn 0.236719 0.051958 0.970188
vn 0.138504 0.186426 0.972657
vn 0.104865 0.108179 0.988585
vn 0.311631 -0.187245 0.931571
vn -0.001088 0.186445 0.982465
vn 0.214221 0.172945 0.961353
vn 0.353627 0.108986 0.929015
vn 0.296241 0.112625 0.948450
vn 0.388435 0.055252 0.919818
vn 0.071110 0.302360 0.950538
vn 0.000385 0.186693 0.982418
vn -0.000772 0.186969 0.982366
vn -0.097845 -0.304139 0.947589
vn -0.121949 -0.093635 0.988110
vn -0.256117 -0.210310 0.943490
vn -0.005919 -0.406006 0.913851
vn -0.067367 -0.334285 0.940061
vn 0.009486 -0.400979 0.916038
vn 0.052868 -0.302519 0.951676
vn 0.114422 -0.120874 0.986051
vn 0.017722 -0.396653 0.917798
vn -0.001280 0.186966 0.982365
vn 0.038763 0.284118 0.958005
vn 0.014488 -0.393611 0.919163
vn 0.035368 -0.403913 0.914113
vn 0.001730 -0.387813 0.921736
vn 0.428932 -0.036029 0.902618
vn 0.405152 -0.132957 0.904530
vn 0.453376 0.012548 0.891231
vn 0.002397 0.357449 0.933930
vn 0.000046 0.185744 0.982598
vn 0.226267 -0.297158 0.927631
vn 0.463078 -0.078244 0.882857
vn 0.021927 -0.367331 0.929832
vn -0.200453 -0.014086 0.979602
vn 0.334648 -0.094641 0.937578
vn -0.028090 -0.366366 0.930047
vn -0.244715 -0.032518 0.969050
vn -0.022437 0.223700 0.974400
vn 0.310949 0.026233 0.950064
vn 0.005255 -0.436170 0.899849
vn -0.318345 0.045272 0.946893
vn 0.010436 0.227456 0.973732
vn -0.321867 0.080544 0.943353
vn 0.305599 0.137669 0.942155
vn -0.131732 0.180598 0.974695
vn 0.260500 -0.119150 0.958094
vn -0.270234 -0.144046 0.951958
vn 0.168239 0.255574 0.952039
vn -0.082119 0.220868 0.971840
vn 0.001193 -0.132300 0.991209
vn -0.237287 0.166469 0.957070
vn -0.415324 -0.289839 0.862264
vn 0.119919 0.178662 0.976575
vn 0.248889 -0.354017 0.901514
vn -0.002578 0.186286 0.982492
vn -0.093953 -0.411272 0.906658
vn -0.204078 0.161387 0.965560
vn 0.176909 0.183455 0.966978
vn -0.000962 0.289219 0.957262
vn -0.150901 0.176336 0.972694
vn 0.000807 -0.170655 0.985331
vn 0.198811 -0.000000 0.980038
vn -0.000256 -0.082006 0.996632
vn 0.000000 0.203386 0.979099
vn -0.029596 -0.406933 0.912979
vn 0.016864 0.230092 0.973023
vn 0.399466 0.097408 0.911558
vn 0.106943 -0.399150 0.910628
vn 0.123134 0.184443 0.975099
vn -0.000176 0.186000 0.982550
vn -0.000381 0.187006 0.982359
vn -0.143401 0.183246 0.972552
vn 0.000429 0.185621 0.982621
vn 0.000000 -0.198553 0.980090
vn -0.018189 -0.428034 0.903580
vn -0.163493 -0.271369 0.948488
vn 0.495222 0.000000 0.868767
f 1/1/1 113/113/113 66/66/66
f 155/155/155 34/34/34 153/153/153
f 4/4/4 68/68/68 102/102/102
f 96/96/96 101/101/101 43/43/43
f 144/144/144 11/11/11 169/169/169
f 10/10/10 93/93/93 90/90/90
f 164/164/164 3/3/3 94/94/94
f 31/31/31 134/134/134 113/113/113
f 134/134/134 137/137/137 66/66/66
f 134/134/134 66/66/66 113/113/113
f 115/115/115 112/112/112 15/15/15
f 31/31/31 137/137/137 134/134/134
f 73/73/73 102/102/102 100/100/100
f 127/127/127 132/132/132 154/154/154
f 76/76/76 113/113/113 1/1/1
f 57/57/57 170/170/170 95/95/95
f 15/15/15 112/112/112 76/76/76
f 115/115/115 15/15/15 75/75/75
f 45/45/45 51/51/51 98/98/98
f 137/137/137 31/31/31 47/47/47
f 32/32/32 136/136/136 123/123/123
f 22/22/22 30/30/30 136/136/136
f 22/22/22 156/156/156 116/116/116
f 62/62/62 123/123/123 136/136/136
f 165/165/165 136/136/136 32/32/32
f 115/115/115 30/30/30 42/42/42
f 152/152/152 156/156/156 147/147/147
f 143/143/143 59/59/59 24/24/24
f 116/116/116 30/30/30 22/22/22
f 42/42/42 112/112/112 115/115/115
f 114/114/114 47/47/47 31/31/31
f 84/84/84 152/152/152 58/58/58
f 83/83/83 24/24/24 59/59/59
f 116/116/116 42/42/42 30/30/30
f 54/54/54 151/151/151 160/160/160
f 75/75/75 117/117/117 115/115/115
f 148/148/148 169/169/169 11/11/11
f 165/165/165 22/22/22 136/136/136
f 26/26/26 127/127/127 126/126/126
f 83/83/83 58/58/58 54/54/54
f 146/146/146 154/154/154 132/132/132
f 63/63/63 121/121/121 111/111/111
f 30/30/30 115/115/115 117/117/117
f 169/169/169 148/148/148 155/155/155
f 153/153/153 169/169/169 155/155/155
f 72/72/72 135/135/135 119/119/119
f 10/10/10 51/51/51 93/93/93
f 54/54/54 58/58/58 151/151/151
f 129/129/129 45/45/45 36/36/36
f 112/112/112 31/31/31 76/76/76
f 57/57/57 173/173/173 130/130/130
f 84/84/84 58/58/58 41/41/41
f 113/113/113 76/76/76 31/31/31
f 149/149/149 98/98/98 10/10/10
f 9/9/9 125/125/125 117/117/117
f 120/120/120 50/50/50 32/32/32
f 157/157/157 10/10/10 90/90/90
f 82/82/82 137/137/137 47/47/47
f 84/84/84 12/12/12 152/152/152
f 12/12/12 176/176/176 116/116/116
f 172/172/172 49/49/49 170/170/170
f 20/20/20 137/137/137 82/82/82
f 159/159/159 173/173/173 155/155/155
f 20/20/20 66/66/66 137/137/137
f 55/55/55 20/20/20 82/82/82
f 34/34/34 155/155/155 173/173/173
f 23/23/23 40/40/40 122/122/122
f 92/92/92 45/45/45 129/129/129
f 149/149/149 172/172/172 170/170/170
f 176/176/176 42/42/42 116/116/116
f 128/128/128 8/8/8 52/52/52
f 107/107/107 33/33/33 43/43/43
f 139/139/139 43/43/43 33/33/33
f 38/38/38 92/92/92 69/69/69
f 49/49/49 37/37/37 145/145/145
f 161/161/161 140/140/140 175/175/175
f 45/45/45 98/98/98 36/36/36
f 122/122/122 53/53/53 97/97/97
f 110/110/110 153/153/153 34/34/34
f 162/162/162 72/72/72 119/119/119
f 16/16/16 100/100/100 139/139/139
f 108/108/108 52/52/52 8/8/8
f 93/93/93 38/38/38 48/48/48
f 62/62/62 117/117/117 125/125/125
f 37/37/37 90/90/90 143/143/143
f 143/143/143 90/90/90 39/39/39
f 94/94/94 69/69/69 164/164/164
f 79/79/79 131/131/131 168/168/168
f 129/129/129 70/70/70 18/18/18
f 149/149/149 170/170/170 53/53/53
f 92/92/92 18/18/18 69/69/69
f 128/128/128 26/26/26 71/71/71
f 2/2/2 162/162/162 119/119/119
f 93/93/93 92/92/92 38/38/38
f 126/126/126 71/71/71 26/26/26
f 27/27/27 124/124/124 123/123/123
f 150/150/150 146/146/146 171/171/171
f 48/48/48 38/38/38 141/141/141
f 65/65/65 94/94/94 3/3/3
f 35/35/35 142/142/142 101/101/101
f 21/21/21 141/141/141 65/65/65
f 38/38/38 94/94/94 141/141/141
f 46/46/46 101/101/101 142/142/142
f 65/65/65 141/141/141 94/94/94
f 39/39/39 90/90/90 48/48/48
f 51/51/51 45/45/45 93/93/93
f 23/23/23 122/122/122 97/97/97
f 61/61/61 123/123/123 124/124/124
f 145/145/145 160/160/160 60/60/60
f 92/92/92 129/129/129 18/18/18
f 140/140/140 161/161/161 147/147/147
f 89/89/89 39/39/39 48/48/48
f 48/48/48 141/141/141 89/89/89
f 42/42/42 176/176/176 114/114/114
f 89/89/89 21/21/21 64/64/64
f 21/21/21 89/89/89 141/141/141
f 79/79/79 118/118/118 131/131/131
f 149/149/149 10/10/10 157/157/157
f 6/6/6 91/91/91 64/64/64
f 165/165/165 175/175/175 140/140/140
f 6/6/6 55/55/55 85/85/85
f 24/24/24 83/83/83 54/54/54
f 152/152/152 147/147/147 58/58/58
f 151/151/151 58/58/58 147/147/147
f 63/63/63 163/163/163 121/121/121
f 24/24/24 54/54/54 160/160/160
f 34/34/34 173/173/173 57/57/57
f 123/123/123 62/62/62 27/27/27
f 27/27/27 125/125/125 133/133/133
f 43/43/43 101/101/101 107/107/107
f 56/56/56 88/88/88 99/99/99
f 39/39/39 89/89/89 91/91/91
f 169/169/169 153/153/153 144/144/144
f 59/59/59 85/85/85 83/83/83
f 106/106/106 52/52/52 33/33/33
f 37/37/37 157/157/157 90/90/90
f 37/37/37 143/143/143 24/24/24
f 149/149/149 138/138/138 98/98/98
f 26/26/26 28/28/28 132/132/132
f 135/135/135 72/72/72 17/17/17
f 155/155/155 148/148/148 159/159/159
f 51/51/51 10/10/10 98/98/98
f 78/78/78 133/133/133 125/125/125
f 17/17/17 126/126/126 135/135/135
f 104/104/104 95/95/95 5/5/5
f 130/130/130 53/53/53 170/170/170
f 44/44/44 135/135/135 126/126/126
f 105/105/105 158/158/158 80/80/80
f 57/57/57 95/95/95 104/104/104
f 39/39/39 91/91/91 143/143/143
f 34/34/34 57/57/57 104/104/104
f 156/156/156 152/152/152 12/12/12
f 43/43/43 139/139/139 100/100/100
f 53/53/53 138/138/138 149/149/149
f 91/91/91 6/6/6 59/59/59
f 60/60/60 160/160/160 111/111/111
f 11/11/11 144/144/144 107/107/107
f 103/103/103 44/44/44 25/25/25
f 50/50/50 150/150/150 163/163/163
f 119/119/119 29/29/29 77/77/77
f 80/80/80 110/110/110 104/104/104
f 124/124/124 154/154/154 61/61/61
f 12/12/12 116/116/116 156/156/156
f 41/41/41 83/83/83 85/85/85
f 37/37/37 49/49/49 157/157/157
f 144/144/144 153/153/153 106/106/106
f 96/96/96 43/43/43 100/100/100
f 106/106/106 153/153/153 81/81/81
f 110/110/110 34/34/34 104/104/104
f 101/101/101 11/11/11 107/107/107
f 80/80/80 104/104/104 5/5/5
f 158/158/158 153/153/153 110/110/110
f 121/121/121 171/171/171 80/80/80
f 105/105/105 146/146/146 132/132/132
f 81/81/81 153/153/153 158/158/158
f 158/158/158 110/110/110 80/80/80
f 99/99/99 36/36/36 56/56/56
f 167/167/167 106/106/106 81/81/81
f 36/36/36 99/99/99 129/129/129
f 107/107/107 106/106/106 33/33/33
f 11/11/11 109/109/109 148/148/148
f 82/82/82 47/47/47 41/41/41
f 29/29/29 131/131/131 118/118/118
f 59/59/59 143/143/143 91/91/91
f 74/74/74 108/108/108 8/8/8
f 87/87/87 148/148/148 109/109/109
f 84/84/84 41/41/41 47/47/47
f 35/35/35 100/100/100 102/102/102
f 138/138/138 53/53/53 166/166/166
f 144/144/144 106/106/106 107/107/107
f 111/111/111 5/5/5 60/60/60
f 156/156/156 140/140/140 147/147/147
f 95/95/95 60/60/60 5/5/5
f 88/88/88 56/56/56 40/40/40
f 118/118/118 77/77/77 29/29/29
f 161/161/161 175/175/175 163/163/163
f 12/12/12 84/84/84 114/114/114
f 108/108/108 33/33/33 52/52/52
f 47/47/47 114/114/114 84/84/84
f 56/56/56 166/166/166 122/122/122
f 74/74/74 139/139/139 108/108/108
f 111/111/111 151/151/151 161/161/161
f 35/35/35 101/101/101 96/96/96
f 35/35/35 96/96/96 100/100/100
f 122/122/122 166/166/166 53/53/53
f 151/151/151 147/147/147 161/161/161
f 86/86/86 46/46/46 142/142/142
f 53/53/53 130/130/130 97/97/97
f 55/55/55 82/82/82 85/85/85
f 68/68/68 142/142/142 102/102/102
f 42/42/42 114/114/114 112/112/112
f 142/142/142 35/35/35 102/102/102
f 87/87/87 46/46/46 40/40/40
f 46/46/46 109/109/109 101/101/101
f 19/19/19 86/86/86 142/142/142
f 88/88/88 40/40/40 86/86/86
f 23/23/23 87/87/87 40/40/40
f 86/86/86 40/40/40 46/46/46
f 23/23/23 148/148/148 87/87/87
f 87/87/87 109/109/109 46/46/46
f 33/33/33 108/108/108 139/139/139
f 23/23/23 159/159/159 148/148/148
f 24/24/24 145/145/145 37/37/37
f 56/56/56 122/122/122 40/40/40
f 67/67/67 88/88/88 86/86/86
f 31/31/31 112/112/112 114/114/114
f 7/7/7 70/70/70 99/99/99
f 67/67/67 7/7/7 88/88/88
f 19/19/19 67/67/67 86/86/86
f 68/68/68 19/19/19 142/142/142
f 41/41/41 85/85/85 82/82/82
f 83/83/83 41/41/41 58/58/58
f 73/73/73 4/4/4 102/102/102
f 16/16/16 73/73/73 100/100/100
f 74/74/74 16/16/16 139/139/139
f 154/154/154 150/150/150 61/61/61
f 138/138/138 166/166/166 98/98/98
f 126/126/126 17/17/17 71/71/71
f 48/48/48 90/90/90 93/93/93
f 77/77/77 118/118/118 14/14/14
f 60/60/60 95/95/95 145/145/145
f 28/28/28 52/52/52 167/167/167
f 49/49/49 145/145/145 95/95/95
f 163/163/163 175/175/175 50/50/50
f 70/70/70 129/129/129 99/99/99
f 57/57/57 130/130/130 170/170/170
f 109/109/109 11/11/11 101/101/101
f 25/25/25 44/44/44 127/127/127
f 64/64/64 91/91/91 89/89/89
f 25/25/25 127/127/127 13/13/13
f 22/22/22 165/165/165 156/156/156
f 132/132/132 127/127/127 26/26/26
f 151/151/151 111/111/111 160/160/160
f 131/131/131 13/13/13 168/168/168
f 131/131/131 25/25/25 13/13/13
f 36/36/36 98/98/98 166/166/166
f 105/105/105 132/132/132 167/167/167
f 167/167/167 52/52/52 106/106/106
f 105/105/105 167/167/167 81/81/81
f 105/105/105 81/81/81 158/158/158
f 166/166/166 56/56/56 36/36/36
f 171/171/171 105/105/105 80/80/80
f 29/29/29 119/119/119 135/135/135
f 121/121/121 80/80/80 5/5/5
f 52/52/52 28/28/28 128/128/128
f 121/121/121 5/5/5 111/111/111
f 63/63/63 111/111/111 161/161/161
f 44/44/44 126/126/126 127/127/127
f 176/176/176 12/12/12 114/114/114
f 163/163/163 150/150/150 121/121/121
f 28/28/28 26/26/26 128/128/128
f 163/163/163 63/63/63 161/161/161
f 120/120/120 123/123/123 61/61/61
f 124/124/124 27/27/27 79/79/79
f 23/23/23 97/97/97 159/159/159
f 97/97/97 130/130/130 173/173/173
f 154/154/154 13/13/13 127/127/127
f 154/154/154 146/146/146 150/150/150
f 124/124/124 13/13/13 154/154/154
f 160/160/160 145/145/145 24/24/24
f 174/174/174 2/2/2 119/119/119
f 133/133/133 78/78/78 14/14/14
f 171/171/171 121/121/121 150/150/150
f 133/133/133 79/79/79 27/27/27
f 150/150/150 50/50/50 61/61/61
f 120/120/120 32/32/32 123/123/123
f 85/85/85 59/59/59 6/6/6
f 77/77/77 174/174/174 119/119/119
f 9/9/9 117/117/117 75/75/75
f 93/93/93 45/45/45 92/92/92
f 78/78/78 125/125/125 9/9/9
f 50/50/50 120/120/120 61/61/61
f 118/118/118 133/133/133 14/14/14
f 136/136/136 30/30/30 62/62/62
f 135/135/135 44/44/44 103/103/103
f 103/103/103 131/131/131 29/29/29
f 117/117/117 62/62/62 30/30/30
f 79/79/79 133/133/133 118/118/118
f 168/168/168 13/13/13 124/124/124
f 168/168/168 124/124/124 79/79/79
f 95/95/95 170/170/170 49/49/49
f 103/103/103 25/25/25 131/131/131
f 7/7/7 99/99/99 88/88/88
f 135/135/135 103/103/103 29/29/29
f 167/167/167 132/132/132 28/28/28
f 125/125/125 27/27/27 62/62/62
f 49/49/49 172/172/172 157/157/157
f 172/172/172 149/149/149 157/157/157
f 97/97/97 173/173/173 159/159/159
f 32/32/32 175/175/175 165/165/165
f 140/140/140 156/156/156 165/165/165
f 171/171/171 146/146/146 105/105/105
f 94/94/94 38/38/38 69/69/69
f 32/32/32 50/50/50 175/175/175
f 71/71/71 177/177/177 128/128/128
f 177/177/177 8/8/8 128/128/128
