# frame 000754 
# time 0.377500 
# name Cloth3D 
v -0.000000 0.000000 -0.000000
v 1.000000 0.000000 -0.000000
v -0.000000 1.000000 0.000000
v 1.000000 1.000000 0.000000
v 0.502781 0.493090 0.127981
v -0.000000 0.500000 0.000000
v 0.500000 1.000000 0.000000
v 1.000000 0.500000 0.000000
v 0.500000 -0.000000 0.000000
v 0.247875 0.751160 0.063236
v 0.753772 0.751026 0.061844
v 0.244825 0.243836 0.087824
v 0.759609 0.241956 0.095095
v 0.750000 0.000000 0.000000
v 0.250000 0.000000 0.000000
v 1.000000 0.750000 0.000000
v 1.000000 0.250000 0.000000
v 0.250000 1.000000 0.000000
v 0.750000 1.000000 0.000000
v 0.000000 0.250000 0.000000
v 0.000000 0.750000 -0.000000
v 0.363209 0.214582 0.092179
v 0.631877 0.769915 0.061963
v 0.239151 0.513264 0.100984
v 0.819865 0.244937 0.071665
v 0.882515 0.372280 0.060497
v 0.626967 0.122510 0.051103
v 0.883236 0.435164 0.061843
v 0.877009 0.123118 0.027445
v 0.374467 0.121014 0.054686
v 0.124164 0.122924 0.027042
v 0.493540 0.243909 0.109743
v 0.877428 0.623325 0.041129
v 0.630942 0.622845 0.100180
v 0.876155 0.874981 0.019597
v 0.375190 0.877537 0.044302
v 0.258186 0.598821 0.090571
v 0.122613 0.877299 0.032769
v 0.122713 0.624451 0.045219
v 0.625998 0.872514 0.026110
v 0.119854 0.372923 0.056783
v 0.247895 0.118387 0.054233
v 0.876432 0.749211 0.029817
v 0.879730 0.247239 0.047607
v 0.248889 0.877815 0.041347
v 0.751091 0.872834 0.020521
v 0.121235 0.247360 0.047101
v 0.121455 0.751027 0.044135
v 0.319724 0.591956 0.106547
v 0.588441 0.296591 0.130027
v 0.248333 0.814456 0.052011
v 0.882212 0.498061 0.058238
v 0.428974 0.747175 0.073297
v 0.240905 0.451727 0.106935
v 0.000000 0.375000 0.000000
v 0.500814 0.874615 0.036234
v 0.502442 0.621542 0.100306
v 0.239693 0.369417 0.115008
v 0.120590 0.498583 0.054493
v 0.371212 0.494971 0.127574
v 0.631576 0.243090 0.106931
v 0.500729 0.121810 0.055391
v 0.502367 0.365132 0.155849
v 0.000000 0.625000 0.000000
v 0.000000 0.875000 0.000000
v 0.000000 0.125000 0.000000
v 0.625000 1.000000 0.000000
v 0.875000 1.000000 0.000000
v 0.125000 1.000000 0.000000
v 0.375000 1.000000 0.000000
v 1.000000 0.375000 0.000000
v 1.000000 0.125000 0.000000
v 1.000000 0.875000 0.000000
v 1.000000 0.625000 0.000000
v 0.375000 0.000000 0.000000
v 0.125000 0.000000 0.000000
v 0.875000 0.000000 0.000000
v 0.625000 0.000000 0.000000
v 0.752779 0.120905 0.047051
v 0.634314 0.494134 0.128003
v 0.770485 0.512519 0.101587
v 0.060202 0.311656 0.026582
v 0.181221 0.434603 0.082949
v 0.181206 0.308374 0.078695
v 0.059143 0.436705 0.030255
v 0.687759 0.934918 0.004418
v 0.689722 0.810817 0.043740
v 0.562769 0.935818 0.012244
v 0.060708 0.687465 0.023657
v 0.183535 0.688110 0.064541
v 0.061402 0.561817 0.023767
v 0.186696 0.940028 0.023181
v 0.184642 0.815117 0.051644
v 0.061514 0.938459 0.012989
v 0.437635 0.557850 0.114079
v 1.000000 0.437500 0.000000
v 0.551581 0.747709 0.073303
v 0.311707 0.814665 0.057589
v 0.437760 0.937647 0.019288
v 0.939577 0.812373 0.019728
v 0.814841 0.812920 0.038792
v 0.937876 0.937698 0.008212
v 0.879474 0.184453 0.041334
v 0.567684 0.557575 0.114240
v 0.720150 0.420944 0.143803
v 0.824147 0.588956 0.065141
v 0.816525 0.686934 0.056755
v 0.939204 0.561215 0.023387
v 0.752330 0.811933 0.041360
v 0.691327 0.582157 0.109055
v 0.435964 0.429296 0.141788
v 0.186610 0.058646 0.025957
v 0.062207 0.062108 0.008144
v 0.184210 0.182731 0.057345
v 0.312111 0.059644 0.028092
v 0.310021 0.180320 0.080374
v 0.437617 0.059712 0.030093
v 0.813272 0.060972 0.019099
v 0.937875 0.062169 0.006826
v 0.558325 0.241840 0.108408
v 0.569392 0.429164 0.142012
v 0.526367 0.802563 0.052754
v 0.565134 0.183405 0.080357
v 0.692319 0.182412 0.075609
v 0.563010 0.060748 0.027802
v 0.939567 0.311513 0.025272
v 0.820547 0.308063 0.080423
v 0.941373 0.436260 0.030462
v 0.312373 0.939037 0.022284
v 0.465628 0.676158 0.088549
v 0.817089 0.183609 0.054800
v 0.813417 0.367131 0.099540
v 0.688266 0.060691 0.025240
v 0.062909 0.124480 0.009734
v 0.938933 0.186702 0.018614
v 0.437294 0.181699 0.084034
v 0.063521 0.187289 0.011873
v 0.386691 0.767054 0.068075
v 0.938505 0.686628 0.018224
v 0.372093 0.309406 0.135852
v 0.059945 0.813235 0.023197
v 0.812737 0.937425 0.012588
v 0.183242 0.561095 0.072619
v 0.772195 0.648434 0.078394
v 0.320083 0.528986 0.120134
v 0.720583 0.357577 0.157611
v 0.320791 0.355895 0.157612
v 0.718888 0.748437 0.073310
v 0.319060 0.746686 0.073294
v 0.619726 0.357281 0.157577
v 0.320691 0.401487 0.147645
v 0.287414 0.324512 0.127765
v 0.719511 0.610005 0.103020
v 0.726395 0.291231 0.124029
v 0.674153 0.669000 0.090037
v 0.326289 0.270188 0.109925
v 0.278602 0.657102 0.085694
v 0.719408 0.537171 0.118713
v 0.614194 0.747982 0.073305
v 0.320445 0.465450 0.133842
v 0.420773 0.356482 0.157562
v 1.000000 0.062500 -0.000000
v 0.552985 0.357035 0.157563
v 0.062500 1.000000 0.000000
v 0.416846 0.250066 0.110856
v 0.426287 0.816423 0.057817
v 0.823623 0.478979 0.088622
v 0.755591 0.181831 0.069402
v 0.719228 0.672288 0.089643
v 0.414753 0.659763 0.092103
v 0.636048 0.429573 0.142002
v 0.319457 0.653922 0.093203
v 0.591193 0.674253 0.089091
v 0.937500 0.000000 -0.000000
v 0.457821 0.295791 0.129525
v 0.246640 0.181052 0.070926
v 0.657847 0.294386 0.127363
vt 0.000000 0.000000
vt 1.000000 0.000000
vt 0.000000 1.000000
vt 1.000000 1.000000
vt 0.500000 0.500000
vt 0.000000 0.500000
vt 0.500000 1.000000
vt 1.000000 0.500000
vt 0.500000 0.000000
vt 0.250000 0.750000
vt 0.750000 0.750000
vt 0.250000 0.250000
vt 0.750000 0.250000
vt 0.750000 0.000000
vt 0.250000 0.000000
vt 1.000000 0.750000
vt 1.000000 0.250000
vt 0.250000 1.000000
vt 0.750000 1.000000
vt 0.000000 0.250000
vt 0.000000 0.750000
vt 0.365347 0.220303
vt 0.629073 0.770824
vt 0.245672 0.515386
vt 0.812500 0.250000
vt 0.875000 0.375000
vt 0.625000 0.125000
vt 0.875000 0.437500
vt 0.875000 0.125000
vt 0.375000 0.125000
vt 0.125000 0.125000
vt 0.492214 0.250470
vt 0.875000 0.625000
vt 0.625000 0.625000
vt 0.875000 0.875000
vt 0.375000 0.875000
vt 0.262101 0.599801
vt 0.125000 0.875000
vt 0.125000 0.625000
vt 0.625000 0.875000
vt 0.125000 0.375000
vt 0.250000 0.125000
vt 0.875000 0.750000
vt 0.875000 0.250000
vt 0.250000 0.875000
vt 0.750000 0.875000
vt 0.125000 0.250000
vt 0.125000 0.750000
vt 0.323328 0.593024
vt 0.581754 0.304126
vt 0.250000 0.812500
vt 0.875000 0.500000
vt 0.428431 0.747491
vt 0.248222 0.455442
vt 0.000000 0.375000
vt 0.500000 0.875000
vt 0.500000 0.625000
vt 0.250000 0.375000
vt 0.125000 0.500000
vt 0.375000 0.500000
vt 0.625000 0.250000
vt 0.500000 0.125000
vt 0.500000 0.375000
vt 0.000000 0.625000
vt 0.000000 0.875000
vt 0.000000 0.125000
vt 0.625000 1.000000
vt 0.875000 1.000000
vt 0.125000 1.000000
vt 0.375000 1.000000
vt 1.000000 0.375000
vt 1.000000 0.125000
vt 1.000000 0.875000
vt 1.000000 0.625000
vt 0.375000 0.000000
vt 0.125000 0.000000
vt 0.875000 0.000000
vt 0.625000 0.000000
vt 0.750000 0.125000
vt 0.625000 0.500000
vt 0.760524 0.515669
vt 0.062500 0.312500
vt 0.187500 0.437500
vt 0.187500 0.312500
vt 0.062500 0.437500
vt 0.687500 0.937500
vt 0.687500 0.812500
vt 0.562500 0.937500
vt 0.062500 0.687500
vt 0.187500 0.687500
vt 0.062500 0.562500
vt 0.187500 0.937500
vt 0.187500 0.812500
vt 0.062500 0.937500
vt 0.437500 0.562500
vt 1.000000 0.437500
vt 0.549302 0.747962
vt 0.312500 0.812500
vt 0.437500 0.937500
vt 0.937500 0.812500
vt 0.812500 0.812500
vt 0.937500 0.937500
vt 0.875000 0.187500
vt 0.562500 0.562500
vt 0.703983 0.427421
vt 0.819332 0.591237
vt 0.812500 0.687500
vt 0.937500 0.562500
vt 0.750000 0.812500
vt 0.682510 0.583771
vt 0.437500 0.437500
vt 0.187500 0.062500
vt 0.062500 0.062500
vt 0.187500 0.187500
vt 0.312500 0.062500
vt 0.312500 0.187500
vt 0.437500 0.062500
vt 0.812500 0.062500
vt 0.937500 0.062500
vt 0.554454 0.248535
vt 0.562500 0.437500
vt 0.525016 0.804189
vt 0.562500 0.187500
vt 0.687500 0.187500
vt 0.562500 0.062500
vt 0.937500 0.312500
vt 0.812500 0.312500
vt 0.937500 0.437500
vt 0.312500 0.937500
vt 0.464310 0.678183
vt 0.812500 0.187500
vt 0.800716 0.372483
vt 0.687500 0.062500
vt 0.062500 0.125000
vt 0.937500 0.187500
vt 0.437500 0.187500
vt 0.062500 0.187500
vt 0.386728 0.766561
vt 0.937500 0.687500
vt 0.377625 0.317694
vt 0.062500 0.812500
vt 0.812500 0.937500
vt 0.187500 0.562500
vt 0.765906 0.648544
vt 0.325225 0.531547
vt 0.700275 0.368360
vt 0.333317 0.366291
vt 0.714076 0.745602
vt 0.320393 0.745243
vt 0.608992 0.367429
vt 0.330787 0.409085
vt 0.296906 0.332149
vt 0.710891 0.610010
vt 0.713437 0.300753
vt 0.668274 0.669022
vt 0.331126 0.276226
vt 0.281585 0.657008
vt 0.707937 0.538752
vt 0.611114 0.747480
vt 0.327802 0.470112
vt 0.424098 0.366675
vt 1.000000 0.062500
vt 0.547153 0.367042
vt 0.062500 1.000000
vt 0.418341 0.256674
vt 0.425703 0.815414
vt 0.812755 0.481587
vt 0.750000 0.187500
vt 0.712477 0.670889
vt 0.414679 0.661630
vt 0.625000 0.437500
vt 0.321996 0.653778
vt 0.587160 0.675778
vt 0.937500 0.000000
vt 0.458173 0.302976
vt 0.250000 0.187500
vt 0.647595 0.302440
vn -0.066601 -0.066601 0.995554
vn 0.059657 -0.059657 0.996435
vn -0.069684 0.139368 0.987786
vn 0.068420 0.068420 0.995308
vn -0.001003 0.208594 0.978002
vn -0.409494 0.024252 0.911990
vn 0.026018 0.249322 0.968071
vn 0.434564 0.023058 0.900346
vn 0.009308 -0.428687 0.903405
vn -0.095364 0.170034 0.980813
vn 0.247424 0.251127 0.935797
vn -0.229366 -0.263254 0.937064
vn 0.272100 -0.310125 0.910925
vn 0.022830 -0.341671 0.939542
vn -0.005333 -0.411466 0.911409
vn 0.299120 -0.005921 0.954197
vn 0.345934 -0.025508 0.937912
vn 0.004246 0.357037 0.934080
vn -0.033320 0.139450 0.989668
vn -0.293362 -0.059312 0.954160
vn -0.365179 0.001771 0.930936
vn -0.035501 -0.357671 0.933173
vn 0.007469 0.418786 0.908054
vn -0.325086 0.128983 0.936847
vn 0.348266 -0.174375 0.921034
vn 0.468004 -0.070402 0.880918
vn 0.020826 -0.389175 0.920928
vn 0.461644 0.023913 0.886743
vn 0.209583 -0.210438 0.954877
vn -0.008875 -0.389592 0.920945
vn -0.253291 -0.131965 0.958347
vn -0.002185 -0.380746 0.924677
vn 0.335507 0.081798 0.938480
vn 0.000192 0.209945 0.977713
vn 0.095757 0.131356 0.986700
vn 0.016121 0.284776 0.958458
vn -0.241663 0.154854 0.957925
vn -0.154963 0.157690 0.975254
vn -0.342234 0.026437 0.939243
vn 0.055418 0.297584 0.953086
vn -0.412983 -0.034301 0.910093
vn -0.113160 -0.314771 0.942398
vn 0.230613 0.073586 0.970259
vn 0.383416 -0.088805 0.919296
vn -0.033445 0.225312 0.973712
vn -0.008818 0.268980 0.963105
vn -0.374062 -0.128714 0.918428
vn -0.269790 0.049197 0.961662
vn -0.138685 0.197412 0.970461
vn 0.013882 -0.398103 0.917236
vn -0.044555 0.169139 0.984585
vn 0.428955 0.096246 0.898184
vn 0.003238 0.223776 0.974635
vn -0.374686 0.093299 0.922445
vn -0.427733 -0.014701 0.903786
vn 0.072574 0.280913 0.956985
vn -0.000484 0.208409 0.978042
vn -0.425189 -0.040489 0.904199
vn -0.386519 0.065884 0.919925
vn -0.001412 0.208354 0.978052
vn 0.026865 -0.399942 0.916147
vn 0.020441 -0.401086 0.915812
vn -0.000762 0.207984 0.978132
vn -0.366436 -0.001083 0.930443
vn -0.286711 0.040604 0.957156
vn -0.157533 -0.016016 0.987384
vn 0.032120 0.137687 0.989955
vn 0.017560 0.170842 0.985142
vn -0.033225 0.272278 0.961645
vn 0.013704 0.323826 0.946017
vn 0.447999 -0.015715 0.893896
vn 0.192183 -0.036851 0.980667
vn 0.224411 0.044653 0.973471
vn 0.323793 0.019426 0.945929
vn -0.006830 -0.432970 0.901383
vn -0.070580 -0.242679 0.967536
vn 0.036818 -0.196447 0.979823
vn 0.008217 -0.397750 0.917457
vn 0.110114 -0.352458 0.929327
vn -0.000594 0.208910 0.977935
vn 0.372620 0.194594 0.907352
vn -0.393577 -0.057819 0.917472
vn -0.397138 0.059858 0.915805
vn -0.384756 -0.142825 0.911901
vn -0.422511 0.008977 0.906313
vn 0.009623 0.187698 0.982180
vn 0.027285 0.373094 0.927392
vn 0.049909 0.245546 0.968099
vn -0.345502 0.001852 0.938416
vn -0.229164 0.087434 0.969453
vn -0.372892 0.029668 0.927400
vn -0.035427 0.294377 0.955033
vn -0.088840 0.150203 0.984656
vn -0.112124 0.153038 0.981839
vn -0.000584 0.208115 0.978104
vn 0.464960 0.000000 0.885332
vn 0.006975 0.296223 0.955093
vn -0.051943 0.202603 0.977882
vn 0.037150 0.313531 0.948851
vn 0.200013 0.039916 0.978980
vn 0.112208 0.215518 0.970032
vn 0.082994 0.096531 0.991864
vn 0.306220 -0.181789 0.934442
vn -0.001186 0.208497 0.978022
vn 0.214715 0.193106 0.957396
vn 0.362019 0.130654 0.922969
vn 0.310467 0.134277 0.941053
vn 0.372219 0.067195 0.925709
vn 0.054012 0.339419 0.939083
vn 0.000287 0.208743 0.977970
vn -0.001192 0.209389 0.977832
vn -0.107069 -0.321908 0.940697
vn -0.129159 -0.079485 0.988433
vn -0.253858 -0.216114 0.942789
vn -0.005152 -0.414387 0.910086
vn -0.061657 -0.318915 0.945776
vn 0.001671 -0.411270 0.911512
vn 0.069362 -0.292777 0.953662
vn 0.094257 -0.092121 0.991277
vn 0.015318 -0.403533 0.914837
vn -0.001110 0.209178 0.977877
vn 0.046150 0.299695 0.952918
vn 0.024929 -0.417411 0.908376
vn 0.058569 -0.396296 0.916253
vn 0.016418 -0.398025 0.917228
vn 0.410169 -0.056524 0.910256
vn 0.424496 -0.166150 0.890055
vn 0.461344 0.009056 0.887175
vn 0.003785 0.334108 0.942527
vn -0.000030 0.207760 0.978180
vn 0.226328 -0.295441 0.928165
vn 0.479864 -0.118616 0.869288
vn 0.022606 -0.378120 0.925481
vn -0.212232 -0.023438 0.976938
vn 0.322642 -0.092095 0.942030
vn -0.026886 -0.389767 0.920521
vn -0.271967 -0.063333 0.960220
vn -0.010690 0.225078 0.974282
vn 0.279309 0.028289 0.959785
vn -0.066174 -0.440968 0.895080
vn -0.303315 0.043161 0.951912
vn -0.006317 0.184026 0.982901
vn -0.338777 0.105768 0.934903
vn 0.317962 0.157337 0.934957
vn -0.121214 0.202970 0.971653
vn 0.244333 -0.116038 0.962723
vn -0.248602 -0.166256 0.954231
vn 0.172462 0.292317 0.940642
vn -0.067147 0.215620 0.974166
vn 0.003569 -0.139723 0.990184
vn -0.226471 0.193421 0.954620
vn -0.313316 -0.362019 0.877938
vn 0.121944 0.198672 0.972450
vn 0.222944 -0.374139 0.900175
vn -0.002652 0.208390 0.978042
vn -0.113773 -0.376656 0.919340
vn -0.174993 0.182151 0.967574
vn 0.186224 0.204808 0.960924
vn -0.001343 0.367235 0.930127
vn -0.147196 0.195336 0.969627
vn 0.000321 -0.136883 0.990587
vn 0.118939 -0.000000 0.992902
vn 0.000168 -0.050524 0.998723
vn 0.000000 0.207010 0.978339
vn -0.041380 -0.383774 0.922499
vn 0.031244 0.227411 0.973298
vn 0.404533 0.129002 0.905379
vn 0.151328 -0.376276 0.914066
vn 0.123818 0.206698 0.970538
vn -0.000251 0.208008 0.978127
vn -0.000483 0.209116 0.977891
vn -0.115599 0.205931 0.971715
vn 0.000355 0.207686 0.978196
vn 0.000000 -0.118843 0.992913
vn -0.005713 -0.391845 0.920014
vn -0.177939 -0.258875 0.949380
vn 0.018261 -0.406684 0.913387
f 1/1/1 113/113/113 66/66/66
f 155/155/155 34/34/34 153/153/153
f 4/4/4 68/68/68 102/102/102
f 147/147/147 152/152/152 140/140/140
f 144/144/144 11/11/11 169/169/169
f 10/10/10 93/93/93 90/90/90
f 164/164/164 3/3/3 94/94/94
f 31/31/31 134/134/134 113/113/113
f 134/134/134 137/137/137 66/66/66
f 134/134/134 66/66/66 113/113/113
f 115/115/115 112/112/112 15/15/15
f 31/31/31 137/137/137 134/134/134
f 73/73/73 102/102/102 100/100/100
f 127/127/127 132/132/132 154/154/154
f 76/76/76 113/113/113 1/1/1
f 57/57/57 170/170/170 95/95/95
f 15/15/15 112/112/112 76/76/76
f 115/115/115 15/15/15 75/75/75
f 45/45/45 51/51/51 98/98/98
f 137/137/137 31/31/31 47/47/47
f 32/32/32 136/136/136 123/123/123
f 22/22/22 30/30/30 136/136/136
f 22/22/22 156/156/156 116/116/116
f 62/62/62 123/123/123 136/136/136
f 165/165/165 136/136/136 32/32/32
f 115/115/115 30/30/30 42/42/42
f 27/27/27 133/133/133 124/124/124
f 143/143/143 59/59/59 24/24/24
f 116/116/116 30/30/30 22/22/22
f 42/42/42 112/112/112 115/115/115
f 114/114/114 47/47/47 31/31/31
f 84/84/84 152/152/152 58/58/58
f 83/83/83 24/24/24 59/59/59
f 116/116/116 42/42/42 30/30/30
f 54/54/54 151/151/151 160/160/160
f 75/75/75 117/117/117 115/115/115
f 148/148/148 169/169/169 11/11/11
f 165/165/165 22/22/22 136/136/136
f 26/26/26 127/127/127 126/126/126
f 83/83/83 58/58/58 54/54/54
f 146/146/146 154/154/154 132/132/132
f 63/63/63 121/121/121 111/111/111
f 30/30/30 115/115/115 117/117/117
f 169/169/169 148/148/148 155/155/155
f 153/153/153 169/169/169 155/155/155
f 72/72/72 135/135/135 119/119/119
f 10/10/10 51/51/51 93/93/93
f 54/54/54 58/58/58 151/151/151
f 129/129/129 45/45/45 36/36/36
f 112/112/112 31/31/31 76/76/76
f 57/57/57 173/173/173 130/130/130
f 84/84/84 58/58/58 41/41/41
f 113/113/113 76/76/76 31/31/31
f 149/149/149 98/98/98 10/10/10
f 9/9/9 125/125/125 117/117/117
f 120/120/120 50/50/50 32/32/32
f 157/157/157 10/10/10 90/90/90
f 82/82/82 137/137/137 47/47/47
f 84/84/84 12/12/12 152/152/152
f 12/12/12 176/176/176 116/116/116
f 172/172/172 49/49/49 170/170/170
f 20/20/20 137/137/137 82/82/82
f 159/159/159 173/173/173 155/155/155
f 20/20/20 66/66/66 137/137/137
f 55/55/55 20/20/20 82/82/82
f 34/34/34 155/155/155 173/173/173
f 23/23/23 40/40/40 122/122/122
f 92/92/92 45/45/45 129/129/129
f 149/149/149 172/172/172 170/170/170
f 176/176/176 42/42/42 116/116/116
f 128/128/128 8/8/8 52/52/52
f 107/107/107 33/33/33 43/43/43
f 139/139/139 43/43/43 33/33/33
f 156/156/156 140/140/140 152/152/152
f 49/49/49 37/37/37 145/145/145
f 161/161/161 140/140/140 175/175/175
f 45/45/45 98/98/98 36/36/36
f 122/122/122 53/53/53 97/97/97
f 110/110/110 153/153/153 34/34/34
f 162/162/162 72/72/72 119/119/119
f 16/16/16 100/100/100 139/139/139
f 108/108/108 52/52/52 8/8/8
f 93/93/93 38/38/38 48/48/48
f 62/62/62 117/117/117 125/125/125
f 37/37/37 90/90/90 143/143/143
f 143/143/143 90/90/90 39/39/39
f 94/94/94 69/69/69 164/164/164
f 79/79/79 131/131/131 168/168/168
f 129/129/129 70/70/70 18/18/18
f 149/149/149 170/170/170 53/53/53
f 92/92/92 18/18/18 69/69/69
f 128/128/128 26/26/26 71/71/71
f 2/2/2 162/162/162 119/119/119
f 93/93/93 92/92/92 38/38/38
f 126/126/126 71/71/71 26/26/26
f 27/27/27 124/124/124 123/123/123
f 150/150/150 146/146/146 171/171/171
f 48/48/48 38/38/38 141/141/141
f 65/65/65 94/94/94 3/3/3
f 35/35/35 142/142/142 101/101/101
f 21/21/21 141/141/141 65/65/65
f 38/38/38 94/94/94 141/141/141
f 46/46/46 101/101/101 142/142/142
f 65/65/65 141/141/141 94/94/94
f 39/39/39 90/90/90 48/48/48
f 51/51/51 45/45/45 93/93/93
f 23/23/23 122/122/122 97/97/97
f 61/61/61 123/123/123 124/124/124
f 145/145/145 160/160/160 60/60/60
f 92/92/92 129/129/129 18/18/18
f 140/140/140 161/161/161 147/147/147
f 89/89/89 39/39/39 48/48/48
f 48/48/48 141/141/141 89/89/89
f 42/42/42 176/176/176 114/114/114
f 89/89/89 21/21/21 64/64/64
f 21/21/21 89/89/89 141/141/141
f 79/79/79 118/118/118 131/131/131
f 149/149/149 10/10/10 157/157/157
f 6/6/6 91/91/91 64/64/64
f 165/165/165 175/175/175 140/140/140
f 6/6/6 55/55/55 85/85/85
f 24/24/24 83/83/83 54/54/54
f 152/152/152 147/147/147 58/58/58
f 151/151/151 58/58/58 147/147/147
f 63/63/63 163/163/163 121/121/121
f 24/24/24 54/54/54 160/160/160
f 34/34/34 173/173/173 57/57/57
f 123/123/123 62/62/62 27/27/27
f 27/27/27 125/125/125 133/133/133
f 43/43/43 101/101/101 107/107/107
f 56/56/56 88/88/88 99/99/99
f 39/39/39 89/89/89 91/91/91
f 169/169/169 153/153/153 144/144/144
f 59/59/59 85/85/85 83/83/83
f 38/38/38 92/92/92 94/94/94
f 37/37/37 157/157/157 90/90/90
f 37/37/37 143/143/143 24/24/24
f 149/149/149 138/138/138 98/98/98
f 26/26/26 28/28/28 132/132/132
f 135/135/135 72/72/72 17/17/17
f 155/155/155 148/148/148 159/159/159
f 51/51/51 10/10/10 98/98/98
f 78/78/78 133/133/133 125/125/125
f 17/17/17 126/126/126 135/135/135
f 104/104/104 95/95/95 5/5/5
f 130/130/130 53/53/53 170/170/170
f 44/44/44 135/135/135 126/126/126
f 105/105/105 158/158/158 80/80/80
f 57/57/57 95/95/95 104/104/104
f 39/39/39 91/91/91 143/143/143
f 34/34/34 57/57/57 104/104/104
f 156/156/156 152/152/152 12/12/12
f 43/43/43 139/139/139 100/100/100
f 53/53/53 138/138/138 149/149/149
f 91/91/91 6/6/6 59/59/59
f 60/60/60 160/160/160 111/111/111
f 11/11/11 144/144/144 107/107/107
f 103/103/103 44/44/44 25/25/25
f 50/50/50 150/150/150 163/163/163
f 119/119/119 29/29/29 77/77/77
f 80/80/80 110/110/110 104/104/104
f 124/124/124 154/154/154 61/61/61
f 12/12/12 116/116/116 156/156/156
f 41/41/41 83/83/83 85/85/85
f 37/37/37 49/49/49 157/157/157
f 144/144/144 153/153/153 106/106/106
f 33/33/33 106/106/106 108/108/108
f 106/106/106 153/153/153 81/81/81
f 110/110/110 34/34/34 104/104/104
f 101/101/101 11/11/11 107/107/107
f 80/80/80 104/104/104 5/5/5
f 158/158/158 153/153/153 110/110/110
f 121/121/121 171/171/171 80/80/80
f 105/105/105 146/146/146 132/132/132
f 81/81/81 153/153/153 158/158/158
f 158/158/158 110/110/110 80/80/80
f 99/99/99 36/36/36 56/56/56
f 167/167/167 106/106/106 81/81/81
f 36/36/36 99/99/99 129/129/129
f 107/107/107 106/106/106 33/33/33
f 11/11/11 109/109/109 148/148/148
f 82/82/82 47/47/47 41/41/41
f 29/29/29 131/131/131 118/118/118
f 59/59/59 143/143/143 91/91/91
f 74/74/74 108/108/108 8/8/8
f 87/87/87 148/148/148 109/109/109
f 84/84/84 41/41/41 47/47/47
f 35/35/35 100/100/100 102/102/102
f 138/138/138 53/53/53 166/166/166
f 144/144/144 106/106/106 107/107/107
f 111/111/111 5/5/5 60/60/60
f 79/79/79 124/124/124 133/133/133
f 95/95/95 60/60/60 5/5/5
f 88/88/88 56/56/56 40/40/40
f 118/118/118 77/77/77 29/29/29
f 161/161/161 175/175/175 163/163/163
f 12/12/12 84/84/84 114/114/114
f 69/69/69 94/94/94 92/92/92
f 47/47/47 114/114/114 84/84/84
f 56/56/56 166/166/166 122/122/122
f 74/74/74 139/139/139 108/108/108
f 111/111/111 151/151/151 161/161/161
f 32/32/32 50/50/50 175/175/175
f 52/52/52 108/108/108 106/106/106
f 122/122/122 166/166/166 53/53/53
f 151/151/151 147/147/147 161/161/161
f 86/86/86 46/46/46 142/142/142
f 53/53/53 130/130/130 97/97/97
f 55/55/55 82/82/82 85/85/85
f 68/68/68 142/142/142 102/102/102
f 42/42/42 114/114/114 112/112/112
f 142/142/142 35/35/35 102/102/102
f 87/87/87 46/46/46 40/40/40
f 46/46/46 109/109/109 101/101/101
f 19/19/19 86/86/86 142/142/142
f 88/88/88 40/40/40 86/86/86
f 23/23/23 87/87/87 40/40/40
f 86/86/86 40/40/40 46/46/46
f 23/23/23 148/148/148 87/87/87
f 87/87/87 109/109/109 46/46/46
f 33/33/33 108/108/108 139/139/139
f 23/23/23 159/159/159 148/148/148
f 24/24/24 145/145/145 37/37/37
f 56/56/56 122/122/122 40/40/40
f 67/67/67 88/88/88 86/86/86
f 31/31/31 112/112/112 114/114/114
f 7/7/7 70/70/70 99/99/99
f 67/67/67 7/7/7 88/88/88
f 19/19/19 67/67/67 86/86/86
f 68/68/68 19/19/19 142/142/142
f 41/41/41 85/85/85 82/82/82
f 83/83/83 41/41/41 58/58/58
f 73/73/73 4/4/4 102/102/102
f 16/16/16 73/73/73 100/100/100
f 74/74/74 16/16/16 139/139/139
f 96/96/96 8/8/8 128/128/128
f 138/138/138 166/166/166 98/98/98
f 126/126/126 17/17/17 71/71/71
f 48/48/48 90/90/90 93/93/93
f 77/77/77 118/118/118 14/14/14
f 60/60/60 95/95/95 145/145/145
f 28/28/28 52/52/52 167/167/167
f 49/49/49 145/145/145 95/95/95
f 163/163/163 175/175/175 50/50/50
f 70/70/70 129/129/129 99/99/99
f 57/57/57 130/130/130 170/170/170
f 109/109/109 11/11/11 101/101/101
f 25/25/25 44/44/44 127/127/127
f 64/64/64 91/91/91 89/89/89
f 25/25/25 127/127/127 13/13/13
f 22/22/22 165/165/165 156/156/156
f 132/132/132 127/127/127 26/26/26
f 151/151/151 111/111/111 160/160/160
f 131/131/131 13/13/13 168/168/168
f 131/131/131 25/25/25 13/13/13
f 36/36/36 98/98/98 166/166/166
f 105/105/105 132/132/132 167/167/167
f 167/167/167 52/52/52 106/106/106
f 105/105/105 167/167/167 81/81/81
f 105/105/105 81/81/81 158/158/158
f 166/166/166 56/56/56 36/36/36
f 171/171/171 105/105/105 80/80/80
f 29/29/29 119/119/119 135/135/135
f 121/121/121 80/80/80 5/5/5
f 52/52/52 28/28/28 128/128/128
f 121/121/121 5/5/5 111/111/111
f 63/63/63 111/111/111 161/161/161
f 44/44/44 126/126/126 127/127/127
f 176/176/176 12/12/12 114/114/114
f 163/163/163 150/150/150 121/121/121
f 28/28/28 26/26/26 128/128/128
f 163/163/163 63/63/63 161/161/161
f 120/120/120 123/123/123 61/61/61
f 35/35/35 101/101/101 43/43/43
f 23/23/23 97/97/97 159/159/159
f 97/97/97 130/130/130 173/173/173
f 154/154/154 13/13/13 127/127/127
f 50/50/50 177/177/177 150/150/150
f 124/124/124 13/13/13 154/154/154
f 160/160/160 145/145/145 24/24/24
f 174/174/174 2/2/2 119/119/119
f 133/133/133 78/78/78 14/14/14
f 171/171/171 121/121/121 150/150/150
f 35/35/35 43/43/43 100/100/100
f 71/71/71 96/96/96 128/128/128
f 120/120/120 32/32/32 123/123/123
f 85/85/85 59/59/59 6/6/6
f 77/77/77 174/174/174 119/119/119
f 9/9/9 117/117/117 75/75/75
f 93/93/93 45/45/45 92/92/92
f 78/78/78 125/125/125 9/9/9
f 50/50/50 120/120/120 61/61/61
f 118/118/118 133/133/133 14/14/14
f 136/136/136 30/30/30 62/62/62
f 135/135/135 44/44/44 103/103/103
f 103/103/103 131/131/131 29/29/29
f 117/117/117 62/62/62 30/30/30
f 79/79/79 133/133/133 118/118/118
f 168/168/168 13/13/13 124/124/124
f 168/168/168 124/124/124 79/79/79
f 95/95/95 170/170/170 49/49/49
f 103/103/103 25/25/25 131/131/131
f 7/7/7 99/99/99 88/88/88
f 135/135/135 103/103/103 29/29/29
f 167/167/167 132/132/132 28/28/28
f 125/125/125 27/27/27 62/62/62
f 49/49/49 172/172/172 157/157/157
f 172/172/172 149/149/149 157/157/157
f 97/97/97 173/173/173 159/159/159
f 32/32/32 175/175/175 165/165/165
f 140/140/140 156/156/156 165/165/165
f 171/171/171 146/146/146 105/105/105
f 154/154/154 177/177/177 61/61/61
f 177/177/177 50/50/50 61/61/61
f 154/154/154 146/146/146 177/177/177
f 150/150/150 177/177/177 146/146/146
