# frame 000715 
# time 0.358000 
# name Cloth3D 
v -0.000000 0.000000 -0.000000
v 1.000000 0.000000 -0.000000
v -0.000000 1.000000 0.000000
v 1.000000 1.000000 0.000000
v 0.499266 0.495002 0.125438
v -0.000000 0.500000 0.000000
v 0.500000 1.000000 0.000000
v 1.000000 0.500000 0.000000
v 0.500000 -0.000000 0.000000
v 0.246106 0.753231 0.071770
v 0.754509 0.755053 0.080913
v 0.245589 0.245821 0.070792
v 0.758054 0.244429 0.088850
v 0.750000 0.000000 0.000000
v 0.250000 0.000000 0.000000
v 1.000000 0.750000 0.000000
v 1.000000 0.250000 0.000000
v 0.250000 1.000000 0.000000
v 0.750000 1.000000 0.000000
v 0.000000 0.250000 0.000000
v 0.000000 0.750000 -0.000000
v 0.361362 0.215374 0.081618
v 0.631057 0.776618 0.086155
v 0.240365 0.513012 0.089941
v 0.820880 0.245724 0.073573
v 0.883859 0.372889 0.064215
v 0.626569 0.123397 0.046502
v 0.632197 0.365652 0.137955
v 0.878542 0.122634 0.033901
v 0.374344 0.123893 0.042275
v 0.124373 0.124737 0.019720
v 0.491518 0.245879 0.096743
v 0.880416 0.625198 0.055156
v 0.628532 0.625715 0.107896
v 0.877245 0.877580 0.032157
v 0.373696 0.878473 0.048344
v 0.257438 0.599624 0.088986
v 0.123532 0.876265 0.025359
v 0.120833 0.624905 0.048494
v 0.625749 0.882704 0.059867
v 0.122903 0.373857 0.041794
v 0.249527 0.124237 0.030831
v 0.878691 0.751842 0.045419
v 0.883026 0.246991 0.056158
v 0.248024 0.878897 0.044325
v 0.752307 0.882076 0.054503
v 0.123748 0.249652 0.031245
v 0.121916 0.750879 0.040597
v 0.319719 0.593287 0.111474
v 0.124209 0.938779 0.015617
v 0.246757 0.816692 0.060595
v 0.877474 0.498577 0.051078
v 0.426287 0.731108 0.095694
v 0.242100 0.451485 0.093708
v 0.000000 0.375000 0.000000
v 0.499377 0.880486 0.055300
v 0.499342 0.624737 0.107910
v 0.240795 0.369050 0.099870
v 0.121293 0.498943 0.048759
v 0.368700 0.495652 0.123242
v 0.629620 0.243603 0.100089
v 0.500289 0.125743 0.041326
v 0.498893 0.365099 0.137978
v 0.000000 0.625000 0.000000
v 0.000000 0.875000 0.000000
v 0.000000 0.125000 0.000000
v 0.625000 1.000000 0.000000
v 0.875000 1.000000 0.000000
v 0.125000 1.000000 0.000000
v 0.375000 1.000000 0.000000
v 1.000000 0.375000 0.000000
v 1.000000 0.125000 0.000000
v 1.000000 0.875000 0.000000
v 1.000000 0.625000 0.000000
v 0.375000 0.000000 0.000000
v 0.125000 0.000000 0.000000
v 0.875000 0.000000 0.000000
v 0.625000 0.000000 0.000000
v 0.752917 0.121544 0.046405
v 0.630258 0.495874 0.123808
v 0.767330 0.513714 0.099764
v 0.062149 0.312579 0.016491
v 0.182903 0.434709 0.070337
v 0.182452 0.309462 0.064109
v 0.060654 0.437114 0.023802
v 0.688142 0.943802 0.034360
v 0.690017 0.819776 0.076244
v 0.562572 0.940157 0.027880
v 0.059829 0.687566 0.024967
v 0.183431 0.688518 0.062908
v 0.060002 0.562192 0.025874
v 0.186896 0.938775 0.018033
v 0.184571 0.815071 0.048423
v 0.062373 0.937675 0.006468
v 0.434477 0.559962 0.116023
v 0.878033 0.814884 0.039712
v 0.549859 0.731646 0.095702
v 0.309477 0.818115 0.070611
v 0.437089 0.940211 0.027285
v 0.937927 0.813053 0.016758
v 0.815504 0.816418 0.053881
v 0.938173 0.938192 0.010720
v 0.881494 0.184180 0.048168
v 0.564294 0.560013 0.115421
v 0.720147 0.421674 0.131493
v 0.824660 0.591173 0.074094
v 0.817389 0.689543 0.069964
v 0.939319 0.562047 0.026519
v 0.753438 0.818788 0.068628
v 0.688766 0.583880 0.112798
v 0.433060 0.429860 0.130433
v 0.187512 0.062532 0.011654
v 0.062286 0.062340 0.007826
v 0.186504 0.186921 0.035853
v 0.312469 0.061443 0.020497
v 0.309529 0.182976 0.064225
v 0.437681 0.062140 0.022019
v 0.813585 0.062078 0.017521
v 0.938636 0.061488 0.012836
v 0.556283 0.244071 0.095911
v 0.565203 0.430163 0.130555
v 0.524753 0.809775 0.077841
v 0.564078 0.186091 0.068538
v 0.691632 0.183563 0.070638
v 0.562810 0.061561 0.024377
v 0.942411 0.311496 0.031732
v 0.823732 0.307849 0.088009
v 0.938918 0.436529 0.026338
v 0.311881 0.939630 0.024247
v 0.476433 0.766683 0.087926
v 0.817790 0.184697 0.054808
v 0.812017 0.367903 0.097672
v 0.688417 0.061318 0.023360
v 0.061786 0.124823 0.012372
v 0.942347 0.186050 0.028386
v 0.436156 0.184775 0.069743
v 0.061391 0.187466 0.015830
v 0.383915 0.770545 0.082813
v 0.940518 0.687779 0.027320
v 0.185486 0.877702 0.036052
v 0.060912 0.812862 0.018754
v 0.813420 0.940527 0.024086
v 0.182747 0.561556 0.069980
v 0.771774 0.650660 0.088952
v 0.320081 0.529560 0.118837
v 0.720677 0.335169 0.141563
v 0.320885 0.333487 0.141564
v 0.718955 0.732382 0.095711
v 0.319127 0.730635 0.095689
v 0.615104 0.334855 0.141542
v 0.320691 0.401573 0.133626
v 0.285359 0.322280 0.118897
v 0.719504 0.611578 0.109560
v 0.724147 0.292610 0.118140
v 0.672793 0.672040 0.102343
v 0.322823 0.266888 0.107277
v 0.276641 0.658745 0.091406
v 0.719404 0.537948 0.118045
v 0.613071 0.731922 0.095705
v 0.320444 0.465683 0.126217
v 0.417884 0.334064 0.141531
v 0.940057 0.750739 0.024594
v 0.549155 0.334613 0.141531
v 0.817625 0.753637 0.066856
v 0.414531 0.250360 0.100110
v 0.424243 0.818816 0.067258
v 0.818732 0.479208 0.081183
v 0.755334 0.183012 0.067033
v 0.367377 0.409759 0.132647
v 0.411612 0.663132 0.103551
v 0.631246 0.430831 0.130424
v 0.319447 0.656239 0.104228
v 0.589091 0.678121 0.101862
v 0.937500 0.000000 -0.000000
vt 0.000000 0.000000
vt 1.000000 0.000000
vt 0.000000 1.000000
vt 1.000000 1.000000
vt 0.500000 0.500000
vt 0.000000 0.500000
vt 0.500000 1.000000
vt 1.000000 0.500000
vt 0.500000 0.000000
vt 0.250000 0.750000
vt 0.750000 0.750000
vt 0.250000 0.250000
vt 0.750000 0.250000
vt 0.750000 0.000000
vt 0.250000 0.000000
vt 1.000000 0.750000
vt 1.000000 0.250000
vt 0.250000 1.000000
vt 0.750000 1.000000
vt 0.000000 0.250000
vt 0.000000 0.750000
vt 0.365347 0.220303
vt 0.629073 0.770824
vt 0.245672 0.515386
vt 0.812500 0.250000
vt 0.875000 0.375000
vt 0.625000 0.125000
vt 0.625000 0.375000
vt 0.875000 0.125000
vt 0.375000 0.125000
vt 0.125000 0.125000
vt 0.492214 0.250470
vt 0.875000 0.625000
vt 0.625000 0.625000
vt 0.875000 0.875000
vt 0.375000 0.875000
vt 0.262101 0.599801
vt 0.125000 0.875000
vt 0.125000 0.625000
vt 0.625000 0.875000
vt 0.125000 0.375000
vt 0.250000 0.125000
vt 0.875000 0.750000
vt 0.875000 0.250000
vt 0.250000 0.875000
vt 0.750000 0.875000
vt 0.125000 0.250000
vt 0.125000 0.750000
vt 0.326100 0.593086
vt 0.125000 0.937500
vt 0.250000 0.812500
vt 0.875000 0.500000
vt 0.428658 0.727230
vt 0.248222 0.455442
vt 0.000000 0.375000
vt 0.500000 0.875000
vt 0.500000 0.625000
vt 0.250000 0.375000
vt 0.125000 0.500000
vt 0.375000 0.500000
vt 0.625000 0.250000
vt 0.500000 0.125000
vt 0.500000 0.375000
vt 0.000000 0.625000
vt 0.000000 0.875000
vt 0.000000 0.125000
vt 0.625000 1.000000
vt 0.875000 1.000000
vt 0.125000 1.000000
vt 0.375000 1.000000
vt 1.000000 0.375000
vt 1.000000 0.125000
vt 1.000000 0.875000
vt 1.000000 0.625000
vt 0.375000 0.000000
vt 0.125000 0.000000
vt 0.875000 0.000000
vt 0.625000 0.000000
vt 0.750000 0.125000
vt 0.625000 0.500000
vt 0.760524 0.515669
vt 0.062500 0.312500
vt 0.187500 0.437500
vt 0.187500 0.312500
vt 0.062500 0.437500
vt 0.687500 0.937500
vt 0.687500 0.812500
vt 0.562500 0.937500
vt 0.062500 0.687500
vt 0.187500 0.687500
vt 0.062500 0.562500
vt 0.187500 0.937500
vt 0.187500 0.812500
vt 0.062500 0.937500
vt 0.437500 0.562500
vt 0.875000 0.812500
vt 0.549321 0.727609
vt 0.312500 0.812500
vt 0.437500 0.937500
vt 0.937500 0.812500
vt 0.812500 0.812500
vt 0.937500 0.937500
vt 0.875000 0.187500
vt 0.562500 0.562500
vt 0.708936 0.427256
vt 0.819332 0.591237
vt 0.812500 0.687500
vt 0.937500 0.562500
vt 0.750000 0.812500
vt 0.682510 0.583771
vt 0.437500 0.437500
vt 0.187500 0.062500
vt 0.062500 0.062500
vt 0.187500 0.187500
vt 0.312500 0.062500
vt 0.312500 0.187500
vt 0.437500 0.062500
vt 0.812500 0.062500
vt 0.937500 0.062500
vt 0.554454 0.248535
vt 0.562500 0.437500
vt 0.525016 0.804189
vt 0.562500 0.187500
vt 0.687500 0.187500
vt 0.562500 0.062500
vt 0.937500 0.312500
vt 0.812500 0.312500
vt 0.937500 0.437500
vt 0.312500 0.937500
vt 0.477574 0.762067
vt 0.812500 0.187500
vt 0.800716 0.372483
vt 0.687500 0.062500
vt 0.062500 0.125000
vt 0.937500 0.187500
vt 0.437500 0.187500
vt 0.062500 0.187500
vt 0.386728 0.766561
vt 0.937500 0.687500
vt 0.187500 0.875000
vt 0.062500 0.812500
vt 0.812500 0.937500
vt 0.187500 0.562500
vt 0.765906 0.648544
vt 0.327491 0.531613
vt 0.706653 0.345877
vt 0.334700 0.345786
vt 0.713688 0.726518
vt 0.324135 0.725570
vt 0.609109 0.345244
vt 0.331420 0.409110
vt 0.296906 0.332149
vt 0.712617 0.609974
vt 0.713437 0.300753
vt 0.668274 0.669022
vt 0.331126 0.276226
vt 0.281585 0.657008
vt 0.710987 0.538668
vt 0.610965 0.727302
vt 0.329380 0.470164
vt 0.424126 0.345278
vt 0.937500 0.750000
vt 0.547181 0.345351
vt 0.812500 0.750000
vt 0.418341 0.256674
vt 0.425703 0.815414
vt 0.812755 0.481587
vt 0.750000 0.187500
vt 0.375653 0.417988
vt 0.414679 0.661630
vt 0.625000 0.437500
vt 0.325080 0.653833
vt 0.587160 0.675778
vt 0.937500 0.000000
vn -0.061186 -0.061186 0.996249
vn 0.066181 -0.132361 0.988990
vn -0.049395 0.049395 0.997557
vn 0.083679 0.083679 0.992973
vn -0.000730 0.107792 0.994173
vn -0.377944 -0.008470 0.925790
vn -0.002189 0.417427 0.908708
vn 0.390125 -0.000832 0.920762
vn -0.009014 -0.331694 0.943344
vn -0.230012 0.158407 0.960209
vn 0.231572 0.179201 0.956170
vn -0.310336 -0.329438 0.891719
vn 0.203367 -0.333083 0.920705
vn 0.022512 -0.317568 0.947968
vn -0.034744 -0.242421 0.969549
vn 0.366856 0.056524 0.928559
vn 0.461247 -0.012010 0.887190
vn -0.024061 0.321788 0.946506
vn 0.042060 0.453836 0.890092
vn -0.250754 -0.000759 0.968050
vn -0.336633 0.024747 0.941311
vn -0.023378 -0.436171 0.899560
vn -0.002237 0.217637 0.976027
vn -0.348896 0.052095 0.935713
vn 0.226705 -0.246648 0.942215
vn 0.453572 0.025906 0.890843
vn -0.006433 -0.358731 0.933419
vn -0.000320 0.112991 0.993596
vn 0.150667 -0.234806 0.960294
vn -0.049928 -0.356852 0.932826
vn -0.100267 -0.115653 0.988216
vn 0.007147 -0.432246 0.901728
vn 0.346925 0.006006 0.937874
vn 0.001084 0.114733 0.993396
vn 0.235068 0.152109 0.960003
vn -0.023501 0.336098 0.941534
vn -0.312809 0.068759 0.947324
vn -0.161520 0.167264 0.972591
vn -0.316918 0.030778 0.947954
vn -0.015837 0.348629 0.937127
vn -0.373235 -0.043641 0.926710
vn -0.117758 -0.264898 0.957059
vn 0.329754 0.074155 0.941150
vn 0.324108 -0.118584 0.938558
vn -0.116508 0.287431 0.950689
vn 0.133895 0.277334 0.951398
vn -0.266936 -0.115433 0.956776
vn -0.264755 0.087740 0.960316
vn -0.204074 0.102489 0.973576
vn -0.091404 0.196038 0.976327
vn -0.179260 0.213945 0.960257
vn 0.419832 0.044929 0.906489
vn -0.017503 0.214804 0.976500
vn -0.391568 0.058720 0.918274
vn -0.307999 -0.029550 0.950928
vn -0.045881 0.348635 0.936135
vn 0.001835 0.117149 0.993113
vn -0.423417 -0.002002 0.905933
vn -0.345452 -0.018403 0.938256
vn -0.008271 0.109841 0.993915
vn -0.016264 -0.416137 0.909157
vn -0.001547 -0.356070 0.934458
vn -0.000793 0.112559 0.993645
vn -0.387642 0.003062 0.921805
vn -0.195648 0.049076 0.979445
vn -0.189603 -0.043305 0.980905
vn -0.030102 0.473482 0.880289
vn 0.055339 0.275018 0.959845
vn -0.060323 0.223307 0.972880
vn -0.013214 0.390009 0.920716
vn 0.437037 0.025233 0.899089
vn 0.323368 -0.064623 0.944064
vn 0.216633 0.025509 0.975920
vn 0.414406 -0.007366 0.910063
vn -0.006745 -0.320855 0.947104
vn -0.013530 -0.148680 0.988793
vn 0.016186 -0.228766 0.973347
vn 0.002462 -0.363038 0.931771
vn 0.075660 -0.336808 0.938528
vn 0.004467 0.108566 0.994079
vn 0.382590 0.084431 0.920052
vn -0.296384 -0.034360 0.954451
vn -0.385772 0.015653 0.922461
vn -0.389482 -0.155351 0.907838
vn -0.345777 -0.034296 0.937690
vn 0.016603 0.442878 0.896428
vn 0.065896 0.234307 0.969927
vn -0.027969 0.440791 0.897174
vn -0.341395 0.029442 0.939459
vn -0.269478 0.083529 0.959377
vn -0.370622 -0.001873 0.928782
vn -0.071324 0.264156 0.961839
vn -0.200656 0.175301 0.963850
vn -0.117469 0.118341 0.986000
vn -0.004742 0.121782 0.992545
vn 0.301118 0.122295 0.945712
vn -0.001407 0.164193 0.986427
vn -0.089568 0.275134 0.957224
vn -0.022303 0.396209 0.917890
vn 0.327059 0.089312 0.940774
vn 0.221519 0.185842 0.957284
vn 0.134139 0.118743 0.983823
vn 0.223464 -0.200742 0.953817
vn 0.003729 0.125354 0.992105
vn 0.188072 0.110550 0.975914
vn 0.344323 0.029745 0.938380
vn 0.298365 0.072264 0.951712
vn 0.394486 -0.019703 0.918691
vn 0.178204 0.201930 0.963051
vn 0.001755 0.113877 0.993493
vn -0.003691 0.103343 0.994639
vn -0.045999 -0.196368 0.979451
vn -0.091890 -0.083801 0.992237
vn -0.191816 -0.203786 0.960041
vn -0.043947 -0.280771 0.958768
vn -0.124626 -0.399238 0.908338
vn 0.005823 -0.332096 0.943228
vn 0.045050 -0.312017 0.949008
vn 0.102226 -0.159868 0.981831
vn -0.021737 -0.434747 0.900290
vn 0.002156 0.101448 0.994839
vn -0.033822 0.260942 0.964762
vn -0.036741 -0.404097 0.913978
vn 0.043728 -0.369725 0.928111
vn -0.025291 -0.340551 0.939886
vn 0.458479 -0.007504 0.888674
vn 0.358465 -0.158935 0.919914
vn 0.434134 0.044127 0.899767
vn -0.027105 0.356206 0.934014
vn -0.030260 0.266089 0.963473
vn 0.142847 -0.286334 0.947421
vn 0.422994 0.010124 0.906076
vn 0.011993 -0.353202 0.935470
vn -0.154344 -0.065322 0.985855
vn 0.353833 -0.102016 0.929729
vn -0.005363 -0.401854 0.915688
vn -0.191845 -0.043076 0.980479
vn -0.005928 0.299967 0.953931
vn 0.377874 0.035758 0.925166
vn -0.153946 0.238858 0.958774
vn -0.255674 0.067902 0.964375
vn 0.095622 0.341348 0.935060
vn -0.303160 0.031085 0.952432
vn 0.316077 0.083304 0.945069
vn -0.167467 0.107186 0.980034
vn 0.178767 -0.228738 0.956933
vn -0.335363 -0.152414 0.929678
vn 0.171499 0.178931 0.968799
vn -0.136483 0.187174 0.972799
vn -0.000446 -0.058165 0.998307
vn -0.166265 0.099613 0.981037
vn -0.433871 -0.211263 0.875856
vn 0.114310 0.103953 0.987991
vn 0.179507 -0.427230 0.886144
vn -0.000537 0.112144 0.993692
vn -0.174715 -0.437408 0.882127
vn -0.289109 0.091156 0.952946
vn 0.196898 0.111356 0.974079
vn -0.000154 0.156137 0.987735
vn -0.154339 0.104619 0.982463
vn 0.000261 -0.132973 0.991120
vn 0.353771 0.082318 0.931703
vn 0.000447 -0.116572 0.993182
vn 0.266254 0.111191 0.957468
vn -0.009708 -0.436060 0.899865
vn -0.034226 0.302243 0.952616
vn 0.408393 0.078123 0.909457
vn 0.122665 -0.327596 0.936821
vn -0.000397 0.111331 0.993783
vn -0.000169 0.114499 0.993423
vn -0.000077 0.105497 0.994420
vn -0.192479 0.108818 0.975249
vn 0.000627 0.111521 0.993762
vn 0.000000 -0.196701 0.980463
f 1/1/1 113/113/113 66/66/66
f 155/155/155 34/34/34 153/153/153
f 112/112/112 31/31/31 113/113/113
f 76/76/76 112/112/112 113/113/113
f 169/169/169 147/147/147 161/161/161
f 57/57/57 53/53/53 170/170/170
f 114/114/114 31/31/31 42/42/42
f 31/31/31 134/134/134 113/113/113
f 134/134/134 137/137/137 66/66/66
f 134/134/134 66/66/66 113/113/113
f 115/115/115 112/112/112 15/15/15
f 31/31/31 137/137/137 134/134/134
f 73/73/73 102/102/102 100/100/100
f 114/114/114 137/137/137 31/31/31
f 76/76/76 113/113/113 1/1/1
f 57/57/57 170/170/170 95/95/95
f 15/15/15 112/112/112 76/76/76
f 115/115/115 15/15/15 75/75/75
f 45/45/45 51/51/51 98/98/98
f 136/136/136 62/62/62 32/32/32
f 136/136/136 30/30/30 117/117/117
f 22/22/22 30/30/30 136/136/136
f 22/22/22 156/156/156 116/116/116
f 62/62/62 136/136/136 117/117/117
f 165/165/165 136/136/136 32/32/32
f 115/115/115 30/30/30 42/42/42
f 152/152/152 156/156/156 147/147/147
f 42/42/42 116/116/116 114/114/114
f 116/116/116 30/30/30 22/22/22
f 42/42/42 112/112/112 115/115/115
f 123/123/123 32/32/32 62/62/62
f 84/84/84 152/152/152 58/58/58
f 12/12/12 114/114/114 116/116/116
f 116/116/116 42/42/42 30/30/30
f 54/54/54 151/151/151 160/160/160
f 75/75/75 117/117/117 115/115/115
f 111/111/111 169/169/169 161/161/161
f 165/165/165 22/22/22 136/136/136
f 161/161/161 165/165/165 32/32/32
f 83/83/83 58/58/58 54/54/54
f 47/47/47 137/137/137 114/114/114
f 63/63/63 121/121/121 111/111/111
f 30/30/30 115/115/115 117/117/117
f 60/60/60 169/169/169 111/111/111
f 151/151/151 147/147/147 169/169/169
f 72/72/72 135/135/135 119/119/119
f 10/10/10 51/51/51 93/93/93
f 54/54/54 58/58/58 151/151/151
f 129/129/129 45/45/45 36/36/36
f 151/151/151 152/152/152 147/147/147
f 151/151/151 169/169/169 160/160/160
f 148/148/148 155/155/155 153/153/153
f 58/58/58 152/152/152 151/151/151
f 149/149/149 98/98/98 10/10/10
f 27/27/27 123/123/123 125/125/125
f 147/147/147 156/156/156 161/161/161
f 157/157/157 10/10/10 90/90/90
f 82/82/82 137/137/137 47/47/47
f 84/84/84 12/12/12 152/152/152
f 112/112/112 42/42/42 31/31/31
f 172/172/172 49/49/49 170/170/170
f 20/20/20 137/137/137 82/82/82
f 159/159/159 173/173/173 155/155/155
f 20/20/20 66/66/66 137/137/137
f 55/55/55 20/20/20 82/82/82
f 34/34/34 155/155/155 173/173/173
f 23/23/23 40/40/40 122/122/122
f 92/92/92 45/45/45 129/129/129
f 149/149/149 172/172/172 170/170/170
f 94/94/94 50/50/50 69/69/69
f 52/52/52 108/108/108 106/106/106
f 107/107/107 33/33/33 43/43/43
f 139/139/139 43/43/43 33/33/33
f 79/79/79 29/29/29 131/131/131
f 49/49/49 37/37/37 145/145/145
f 6/6/6 85/85/85 91/91/91
f 45/45/45 98/98/98 36/36/36
f 94/94/94 69/69/69 3/3/3
f 110/110/110 153/153/153 34/34/34
f 166/166/166 138/138/138 130/130/130
f 122/122/122 166/166/166 130/130/130
f 33/33/33 106/106/106 108/108/108
f 93/93/93 38/38/38 48/48/48
f 62/62/62 125/125/125 123/123/123
f 37/37/37 90/90/90 143/143/143
f 143/143/143 90/90/90 39/39/39
f 29/29/29 79/79/79 118/118/118
f 79/79/79 131/131/131 168/168/168
f 129/129/129 70/70/70 18/18/18
f 149/149/149 170/170/170 53/53/53
f 92/92/92 18/18/18 69/69/69
f 38/38/38 92/92/92 50/50/50
f 53/53/53 130/130/130 138/138/138
f 92/92/92 69/69/69 50/50/50
f 38/38/38 140/140/140 92/92/92
f 93/93/93 45/45/45 140/140/140
f 94/94/94 38/38/38 50/50/50
f 48/48/48 38/38/38 141/141/141
f 65/65/65 94/94/94 3/3/3
f 47/47/47 84/84/84 82/82/82
f 21/21/21 141/141/141 65/65/65
f 38/38/38 94/94/94 141/141/141
f 41/41/41 82/82/82 84/84/84
f 65/65/65 141/141/141 94/94/94
f 39/39/39 90/90/90 48/48/48
f 51/51/51 45/45/45 93/93/93
f 23/23/23 122/122/122 97/97/97
f 93/93/93 140/140/140 38/38/38
f 145/145/145 160/160/160 60/60/60
f 92/92/92 129/129/129 18/18/18
f 140/140/140 45/45/45 92/92/92
f 89/89/89 39/39/39 48/48/48
f 48/48/48 141/141/141 89/89/89
f 28/28/28 121/121/121 163/163/163
f 89/89/89 21/21/21 64/64/64
f 21/21/21 89/89/89 141/141/141
f 165/165/165 161/161/161 156/156/156
f 149/149/149 10/10/10 157/157/157
f 6/6/6 91/91/91 64/64/64
f 59/59/59 91/91/91 85/85/85
f 6/6/6 55/55/55 85/85/85
f 24/24/24 83/83/83 54/54/54
f 59/59/59 39/39/39 91/91/91
f 143/143/143 39/39/39 59/59/59
f 63/63/63 163/163/163 121/121/121
f 24/24/24 54/54/54 160/160/160
f 34/34/34 173/173/173 57/57/57
f 90/90/90 10/10/10 93/93/93
f 27/27/27 125/125/125 133/133/133
f 119/119/119 29/29/29 118/118/118
f 56/56/56 88/88/88 99/99/99
f 39/39/39 89/89/89 91/91/91
f 166/166/166 56/56/56 36/36/36
f 99/99/99 36/36/36 56/56/56
f 108/108/108 74/74/74 33/33/33
f 37/37/37 157/157/157 90/90/90
f 37/37/37 143/143/143 24/24/24
f 149/149/149 138/138/138 98/98/98
f 138/138/138 166/166/166 98/98/98
f 135/135/135 72/72/72 17/17/17
f 155/155/155 148/148/148 159/159/159
f 51/51/51 10/10/10 98/98/98
f 78/78/78 133/133/133 125/125/125
f 17/17/17 126/126/126 135/135/135
f 104/104/104 95/95/95 5/5/5
f 60/60/60 160/160/160 169/169/169
f 44/44/44 135/135/135 126/126/126
f 105/105/105 158/158/158 80/80/80
f 57/57/57 95/95/95 104/104/104
f 84/84/84 58/58/58 41/41/41
f 34/34/34 57/57/57 104/104/104
f 156/156/156 152/152/152 12/12/12
f 122/122/122 130/130/130 97/97/97
f 53/53/53 138/138/138 149/149/149
f 123/123/123 27/27/27 61/61/61
f 132/132/132 146/146/146 127/127/127
f 11/11/11 144/144/144 107/107/107
f 103/103/103 44/44/44 25/25/25
f 87/87/87 11/11/11 109/109/109
f 128/128/128 8/8/8 52/52/52
f 80/80/80 110/110/110 104/104/104
f 124/124/124 154/154/154 61/61/61
f 12/12/12 116/116/116 156/156/156
f 11/11/11 148/148/148 144/144/144
f 37/37/37 49/49/49 157/157/157
f 144/144/144 153/153/153 106/106/106
f 53/53/53 97/97/97 130/130/130
f 106/106/106 153/153/153 81/81/81
f 110/110/110 34/34/34 104/104/104
f 77/77/77 119/119/119 118/118/118
f 80/80/80 104/104/104 5/5/5
f 158/158/158 153/153/153 110/110/110
f 121/121/121 171/171/171 80/80/80
f 105/105/105 146/146/146 132/132/132
f 81/81/81 153/153/153 158/158/158
f 158/158/158 110/110/110 80/80/80
f 28/28/28 146/146/146 105/105/105
f 167/167/167 106/106/106 81/81/81
f 36/36/36 99/99/99 129/129/129
f 107/107/107 106/106/106 33/33/33
f 127/127/127 44/44/44 26/26/26
f 96/96/96 164/164/164 43/43/43
f 85/85/85 41/41/41 59/59/59
f 83/83/83 41/41/41 58/58/58
f 74/74/74 108/108/108 8/8/8
f 126/126/126 26/26/26 44/44/44
f 164/164/164 11/11/11 107/107/107
f 35/35/35 100/100/100 102/102/102
f 144/144/144 148/148/148 153/153/153
f 144/144/144 106/106/106 107/107/107
f 111/111/111 5/5/5 60/60/60
f 87/87/87 148/148/148 11/11/11
f 95/95/95 60/60/60 5/5/5
f 88/88/88 56/56/56 40/40/40
f 108/108/108 52/52/52 8/8/8
f 83/83/83 59/59/59 41/41/41
f 96/96/96 162/162/162 100/100/100
f 43/43/43 164/164/164 107/107/107
f 43/43/43 139/139/139 162/162/162
f 56/56/56 166/166/166 122/122/122
f 24/24/24 143/143/143 83/83/83
f 16/16/16 162/162/162 139/139/139
f 35/35/35 101/101/101 96/96/96
f 35/35/35 96/96/96 100/100/100
f 96/96/96 101/101/101 164/164/164
f 96/96/96 43/43/43 162/162/162
f 86/86/86 46/46/46 142/142/142
f 16/16/16 100/100/100 162/162/162
f 55/55/55 82/82/82 85/85/85
f 68/68/68 142/142/142 102/102/102
f 142/142/142 46/46/46 35/35/35
f 142/142/142 35/35/35 102/102/102
f 87/87/87 46/46/46 40/40/40
f 46/46/46 109/109/109 101/101/101
f 19/19/19 86/86/86 142/142/142
f 88/88/88 40/40/40 86/86/86
f 23/23/23 87/87/87 40/40/40
f 86/86/86 40/40/40 46/46/46
f 23/23/23 148/148/148 87/87/87
f 87/87/87 109/109/109 46/46/46
f 59/59/59 83/83/83 143/143/143
f 23/23/23 159/159/159 148/148/148
f 24/24/24 145/145/145 37/37/37
f 56/56/56 122/122/122 40/40/40
f 67/67/67 88/88/88 86/86/86
f 101/101/101 35/35/35 46/46/46
f 7/7/7 70/70/70 99/99/99
f 67/67/67 7/7/7 88/88/88
f 19/19/19 67/67/67 86/86/86
f 68/68/68 19/19/19 142/142/142
f 41/41/41 85/85/85 82/82/82
f 4/4/4 68/68/68 102/102/102
f 73/73/73 4/4/4 102/102/102
f 16/16/16 73/73/73 100/100/100
f 74/74/74 16/16/16 139/139/139
f 154/154/154 150/150/150 61/61/61
f 26/26/26 128/128/128 52/52/52
f 126/126/126 17/17/17 71/71/71
f 97/97/97 53/53/53 57/57/57
f 77/77/77 118/118/118 14/14/14
f 60/60/60 95/95/95 145/145/145
f 167/167/167 132/132/132 26/26/26
f 49/49/49 145/145/145 95/95/95
f 128/128/128 71/71/71 8/8/8
f 70/70/70 129/129/129 99/99/99
f 164/164/164 101/101/101 11/11/11
f 109/109/109 11/11/11 101/101/101
f 25/25/25 44/44/44 127/127/127
f 64/64/64 91/91/91 89/89/89
f 25/25/25 127/127/127 13/13/13
f 22/22/22 165/165/165 156/156/156
f 132/132/132 127/127/127 26/26/26
f 154/154/154 127/127/127 146/146/146
f 131/131/131 13/13/13 168/168/168
f 131/131/131 25/25/25 13/13/13
f 167/167/167 26/26/26 52/52/52
f 105/105/105 132/132/132 167/167/167
f 167/167/167 52/52/52 106/106/106
f 105/105/105 167/167/167 81/81/81
f 105/105/105 81/81/81 158/158/158
f 171/171/171 28/28/28 105/105/105
f 171/171/171 105/105/105 80/80/80
f 29/29/29 119/119/119 135/135/135
f 121/121/121 80/80/80 5/5/5
f 121/121/121 28/28/28 171/171/171
f 121/121/121 5/5/5 111/111/111
f 63/63/63 111/111/111 161/161/161
f 163/163/163 161/161/161 32/32/32
f 163/163/163 150/150/150 28/28/28
f 120/120/120 150/150/150 163/163/163
f 150/150/150 146/146/146 28/28/28
f 163/163/163 63/63/63 161/161/161
f 120/120/120 123/123/123 61/61/61
f 124/124/124 27/27/27 79/79/79
f 23/23/23 97/97/97 159/159/159
f 119/119/119 2/2/2 72/72/72
f 154/154/154 13/13/13 127/127/127
f 154/154/154 146/146/146 150/150/150
f 124/124/124 13/13/13 154/154/154
f 160/160/160 145/145/145 24/24/24
f 117/117/117 9/9/9 62/62/62
f 133/133/133 78/78/78 14/14/14
f 120/120/120 61/61/61 150/150/150
f 133/133/133 79/79/79 27/27/27
f 120/120/120 163/163/163 32/32/32
f 120/120/120 32/32/32 123/123/123
f 124/124/124 61/61/61 27/27/27
f 125/125/125 62/62/62 9/9/9
f 9/9/9 117/117/117 75/75/75
f 26/26/26 126/126/126 128/128/128
f 78/78/78 125/125/125 9/9/9
f 71/71/71 128/128/128 126/126/126
f 118/118/118 133/133/133 14/14/14
f 84/84/84 47/47/47 12/12/12
f 135/135/135 44/44/44 103/103/103
f 103/103/103 131/131/131 29/29/29
f 114/114/114 12/12/12 47/47/47
f 79/79/79 133/133/133 118/118/118
f 168/168/168 13/13/13 124/124/124
f 168/168/168 124/124/124 79/79/79
f 95/95/95 170/170/170 49/49/49
f 103/103/103 25/25/25 131/131/131
f 7/7/7 99/99/99 88/88/88
f 135/135/135 103/103/103 29/29/29
f 36/36/36 98/98/98 166/166/166
f 90/90/90 93/93/93 48/48/48
f 49/49/49 172/172/172 157/157/157
f 172/172/172 149/149/149 157/157/157
f 97/97/97 173/173/173 159/159/159
f 173/173/173 97/97/97 57/57/57
f 139/139/139 33/33/33 74/74/74
f 77/77/77 174/174/174 119/119/119
f 174/174/174 2/2/2 119/119/119
