# frame 000741 
# time 0.371000 
# name Box 
v 0.719322 0.671802 -0.312575
v 0.719021 0.743413 0.080963
v 0.720675 0.349879 0.152575
v 0.719322 0.671802 -0.312575
v 0.720675 0.349879 0.152575
v 0.720976 0.278268 -0.240963
v 0.319325 0.670121 -0.312575
v 0.320979 0.276587 -0.240963
v 0.320678 0.348198 0.152575
v 0.319325 0.670121 -0.312575
v 0.320678 0.348198 0.152575
v 0.319024 0.741732 0.080963
v 0.719322 0.671802 -0.312575
v 0.319325 0.670121 -0.312575
v 0.319024 0.741732 0.080963
v 0.719322 0.671802 -0.312575
v 0.319024 0.741732 0.080963
v 0.719021 0.743413 0.080963
v 0.719021 0.743413 0.080963
v 0.319024 0.741732 0.080963
v 0.320678 0.348198 0.152575
v 0.719021 0.743413 0.080963
v 0.320678 0.348198 0.152575
v 0.720675 0.349879 0.152575
v 0.720675 0.349879 0.152575
v 0.320678 0.348198 0.152575
v 0.320979 0.276587 -0.240963
v 0.720675 0.349879 0.152575
v 0.320979 0.276587 -0.240963
v 0.720976 0.278268 -0.240963
v 0.319325 0.670121 -0.312575
v 0.719322 0.671802 -0.312575
v 0.720976 0.278268 -0.240963
v 0.319325 0.670121 -0.312575
v 0.720976 0.278268 -0.240963
v 0.320979 0.276587 -0.240963
vn 0.199998 0.000841 0.000000
vn 0.199998 0.000841 0.000000
vn 0.199998 0.000841 0.000000
vn 0.199998 0.000841 0.000000
vn 0.199998 0.000841 0.000000
vn 0.199998 0.000841 0.000000
vn -0.199998 -0.000841 0.000000
vn -0.199998 -0.000841 0.000000
vn -0.199998 -0.000841 0.000000
vn -0.199998 -0.000841 0.000000
vn -0.199998 -0.000841 0.000000
vn -0.199998 -0.000841 0.000000
vn -0.000827 0.196767 -0.035806
vn -0.000827 0.196767 -0.035806
vn -0.000827 0.196767 -0.035806
vn -0.000827 0.196767 -0.035806
vn -0.000827 0.196767 -0.035806
vn -0.000827 0.196767 -0.035806
vn -0.000151 0.035806 0.196769
vn -0.000151 0.035806 0.196769
vn -0.000151 0.035806 0.196769
vn -0.000151 0.035806 0.196769
vn -0.000151 0.035806 0.196769
vn -0.000151 0.035806 0.196769
vn 0.000827 -0.196767 0.035806
vn 0.000827 -0.196767 0.035806
vn 0.000827 -0.196767 0.035806
vn 0.000827 -0.196767 0.035806
vn 0.000827 -0.196767 0.035806
vn 0.000827 -0.196767 0.035806
vn 0.000151 -0.035806 -0.196769
vn 0.000151 -0.035806 -0.196769
vn 0.000151 -0.035806 -0.196769
vn 0.000151 -0.035806 -0.196769
vn 0.000151 -0.035806 -0.196769
vn 0.000151 -0.035806 -0.196769
f 1/1/1 2/2/2 3/3/3
f 4/4/4 5/5/5 6/6/6
f 7/7/7 8/8/8 9/9/9
f 10/10/10 11/11/11 12/12/12
f 13/13/13 14/14/14 15/15/15
f 16/16/16 17/17/17 18/18/18
f 19/19/19 20/20/20 21/21/21
f 22/22/22 23/23/23 24/24/24
f 25/25/25 26/26/26 27/27/27
f 28/28/28 29/29/29 30/30/30
f 31/31/31 32/32/32 33/33/33
f 34/34/34 35/35/35 36/36/36
