# frame 000726 
# time 0.363500 
# name Box 
v 0.719285 0.680408 -0.306376
v 0.719047 0.737215 0.089569
v 0.720711 0.341273 0.146376
v 0.719285 0.680408 -0.306376
v 0.720711 0.341273 0.146376
v 0.720950 0.284466 -0.249569
v 0.319289 0.678727 -0.306376
v 0.320953 0.282785 -0.249569
v 0.320715 0.339592 0.146376
v 0.319289 0.678727 -0.306376
v 0.320715 0.339592 0.146376
v 0.319050 0.735534 0.089569
v 0.719285 0.680408 -0.306376
v 0.319289 0.678727 -0.306376
v 0.319050 0.735534 0.089569
v 0.719285 0.680408 -0.306376
v 0.319050 0.735534 0.089569
v 0.719047 0.737215 0.089569
v 0.719047 0.737215 0.089569
v 0.319050 0.735534 0.089569
v 0.320715 0.339592 0.146376
v 0.719047 0.737215 0.089569
v 0.320715 0.339592 0.146376
v 0.720711 0.341273 0.146376
v 0.720711 0.341273 0.146376
v 0.320715 0.339592 0.146376
v 0.320953 0.282785 -0.249569
v 0.720711 0.341273 0.146376
v 0.320953 0.282785 -0.249569
v 0.720950 0.284466 -0.249569
v 0.319289 0.678727 -0.306376
v 0.719285 0.680408 -0.306376
v 0.720950 0.284466 -0.249569
v 0.319289 0.678727 -0.306376
v 0.720950 0.284466 -0.249569
v 0.320953 0.282785 -0.249569
vn 0.199998 0.000841 0.000000
vn 0.199998 0.000841 0.000000
vn 0.199998 0.000841 0.000000
vn 0.199998 0.000841 0.000000
vn 0.199998 0.000841 0.000000
vn 0.199998 0.000841 0.000000
vn -0.199998 -0.000841 0.000000
vn -0.199998 -0.000841 0.000000
vn -0.199998 -0.000841 0.000000
vn -0.199998 -0.000841 0.000000
vn -0.199998 -0.000841 0.000000
vn -0.199998 -0.000841 0.000000
vn -0.000832 0.197971 -0.028404
vn -0.000832 0.197971 -0.028404
vn -0.000832 0.197971 -0.028404
vn -0.000832 0.197971 -0.028404
vn -0.000832 0.197971 -0.028404
vn -0.000832 0.197971 -0.028404
vn -0.000119 0.028403 0.197973
vn -0.000119 0.028403 0.197973
vn -0.000119 0.028403 0.197973
vn -0.000119 0.028403 0.197973
vn -0.000119 0.028403 0.197973
vn -0.000119 0.028403 0.197973
vn 0.000832 -0.197971 0.028404
vn 0.000832 -0.197971 0.028404
vn 0.000832 -0.197971 0.028404
vn 0.000832 -0.197971 0.028404
vn 0.000832 -0.197971 0.028404
vn 0.000832 -0.197971 0.028404
vn 0.000119 -0.028403 -0.197973
vn 0.000119 -0.028403 -0.197973
vn 0.000119 -0.028403 -0.197973
vn 0.000119 -0.028403 -0.197973
vn 0.000119 -0.028403 -0.197973
vn 0.000119 -0.028403 -0.197973
f 1/1/1 2/2/2 3/3/3
f 4/4/4 5/5/5 6/6/6
f 7/7/7 8/8/8 9/9/9
f 10/10/10 11/11/11 12/12/12
f 13/13/13 14/14/14 15/15/15
f 16/16/16 17/17/17 18/18/18
f 19/19/19 20/20/20 21/21/21
f 22/22/22 23/23/23 24/24/24
f 25/25/25 26/26/26 27/27/27
f 28/28/28 29/29/29 30/30/30
f 31/31/31 32/32/32 33/33/33
f 34/34/34 35/35/35 36/36/36
