# frame 000707 
# time 0.354000 
# name Cloth3D 
v -0.000000 0.000000 -0.000000
v 1.000000 0.000000 -0.000000
v -0.000000 1.000000 0.000000
v 1.000000 1.000000 0.000000
v 0.498580 0.495436 0.124121
v -0.000000 0.500000 0.000000
v 0.500000 1.000000 0.000000
v 1.000000 0.500000 0.000000
v 0.500000 -0.000000 0.000000
v 0.245961 0.753518 0.070932
v 0.754911 0.756176 0.084819
v 0.246162 0.247386 0.065499
v 0.756672 0.245051 0.086029
v 0.750000 0.000000 0.000000
v 0.250000 0.000000 0.000000
v 1.000000 0.750000 0.000000
v 1.000000 0.250000 0.000000
v 0.250000 1.000000 0.000000
v 0.750000 1.000000 0.000000
v 0.000000 0.250000 0.000000
v 0.000000 0.750000 -0.000000
v 0.361397 0.217301 0.076363
v 0.631129 0.777993 0.090899
v 0.240032 0.513430 0.089814
v 0.819451 0.246436 0.069984
v 0.882498 0.372789 0.062187
v 0.625914 0.123601 0.045597
v 0.631012 0.365784 0.134601
v 0.878001 0.122720 0.032531
v 0.374104 0.123760 0.042148
v 0.124626 0.125114 0.017258
v 0.491000 0.245684 0.095819
v 0.879815 0.625764 0.054603
v 0.628201 0.626417 0.109707
v 0.876889 0.877506 0.030649
v 0.373541 0.878804 0.048813
v 0.257236 0.600237 0.089424
v 0.124300 0.875657 0.020373
v 0.122114 0.625124 0.044673
v 0.625784 0.884576 0.064696
v 0.123581 0.374020 0.038891
v 0.249648 0.125002 0.028089
v 0.878310 0.752190 0.045195
v 0.882466 0.247057 0.055389
v 0.248145 0.878590 0.041739
v 0.752817 0.883406 0.058156
v 0.122985 0.249511 0.032151
v 0.122581 0.750887 0.037613
v 0.319716 0.593880 0.112707
v 0.124660 0.938085 0.011545
v 0.246466 0.816994 0.059953
v 0.877526 0.498973 0.051734
v 0.425809 0.727547 0.100089
v 0.241905 0.451881 0.092620
v 0.000000 0.375000 0.000000
v 0.499365 0.880420 0.055188
v 0.498881 0.625825 0.112056
v 0.241770 0.369265 0.095474
v 0.121726 0.499155 0.047576
v 0.368225 0.496015 0.122140
v 0.628571 0.244130 0.097697
v 0.499861 0.125664 0.040679
v 0.498255 0.365405 0.134608
v 0.000000 0.625000 0.000000
v 0.000000 0.875000 0.000000
v 0.000000 0.125000 0.000000
v 0.625000 1.000000 0.000000
v 0.875000 1.000000 0.000000
v 0.125000 1.000000 0.000000
v 0.375000 1.000000 0.000000
v 1.000000 0.375000 0.000000
v 1.000000 0.125000 0.000000
v 1.000000 0.875000 0.000000
v 1.000000 0.625000 0.000000
v 0.375000 0.000000 0.000000
v 0.125000 0.000000 0.000000
v 0.875000 0.000000 0.000000
v 0.625000 0.000000 0.000000
v 0.752020 0.122446 0.043745
v 0.629451 0.496119 0.122824
v 0.767370 0.514134 0.101044
v 0.062542 0.312572 0.014623
v 0.184033 0.435091 0.066707
v 0.182210 0.309893 0.062713
v 0.061306 0.437219 0.022006
v 0.688288 0.944087 0.035293
v 0.690218 0.820991 0.079727
v 0.562723 0.940250 0.028416
v 0.060534 0.687609 0.022829
v 0.183128 0.689042 0.063353
v 0.060671 0.562296 0.024189
v 0.187202 0.938233 0.014798
v 0.185026 0.814873 0.045103
v 0.062580 0.937464 0.004146
v 0.433871 0.560775 0.118023
v 0.877672 0.815132 0.039333
v 0.549682 0.728087 0.100097
v 0.309157 0.818124 0.069334
v 0.437109 0.939807 0.026252
v 0.938814 0.813418 0.019541
v 0.816022 0.817595 0.057357
v 0.937847 0.937981 0.008118
v 0.880187 0.184809 0.044545
v 0.563740 0.560908 0.118750
v 0.720147 0.421578 0.129286
v 0.824041 0.591848 0.073809
v 0.817923 0.690464 0.073394
v 0.938292 0.562412 0.024485
v 0.753510 0.819605 0.070387
v 0.688375 0.584320 0.113794
v 0.432579 0.430240 0.128132
v 0.187665 0.063250 0.007691
v 0.062371 0.062415 0.006309
v 0.187032 0.188060 0.030983
v 0.312562 0.062771 0.015972
v 0.309876 0.184758 0.059075
v 0.437472 0.062180 0.021568
v 0.813328 0.061365 0.019495
v 0.937991 0.062096 0.008651
v 0.555506 0.244137 0.094382
v 0.564325 0.430486 0.128376
v 0.524641 0.810482 0.080214
v 0.563400 0.186409 0.066653
v 0.690488 0.184034 0.068946
v 0.562597 0.061942 0.023015
v 0.941973 0.311479 0.031201
v 0.822677 0.307826 0.086543
v 0.938804 0.436626 0.026402
v 0.312046 0.938471 0.020529
v 0.476139 0.767363 0.090224
v 0.816632 0.185201 0.052271
v 0.810683 0.367832 0.095560
v 0.687967 0.060899 0.024522
v 0.062087 0.124933 0.009793
v 0.941542 0.186189 0.026655
v 0.435803 0.184593 0.069389
v 0.061323 0.187311 0.015220
v 0.383371 0.770926 0.084076
v 0.941400 0.688111 0.029866
v 0.185852 0.877314 0.032606
v 0.061459 0.812721 0.016200
v 0.813468 0.940986 0.025069
v 0.183524 0.561927 0.067461
v 0.771551 0.651388 0.090437
v 0.320080 0.529890 0.118805
v 0.720696 0.330772 0.138006
v 0.320904 0.329090 0.138007
v 0.718970 0.728823 0.100107
v 0.319142 0.727077 0.100083
v 0.613971 0.330453 0.137987
v 0.320690 0.401740 0.131022
v 0.285141 0.322364 0.116678
v 0.719502 0.612076 0.111137
v 0.722902 0.292725 0.116152
v 0.672687 0.672865 0.105108
v 0.322414 0.266746 0.105457
v 0.276371 0.659465 0.092194
v 0.719404 0.538117 0.118164
v 0.613053 0.728363 0.100101
v 0.320443 0.465886 0.124905
v 0.417569 0.329666 0.137977
v 0.939361 0.750723 0.023092
v 0.548326 0.330213 0.137977
v 0.817172 0.754240 0.066796
v 0.414246 0.251507 0.096442
v 0.423839 0.819764 0.070403
v 0.818404 0.479544 0.081272
v 0.754115 0.183732 0.064403
v 0.367134 0.410047 0.130193
v 0.411023 0.664154 0.106146
v 0.630227 0.430990 0.128358
v 0.319443 0.657159 0.106703
vt 0.000000 0.000000
vt 1.000000 0.000000
vt 0.000000 1.000000
vt 1.000000 1.000000
vt 0.500000 0.500000
vt 0.000000 0.500000
vt 0.500000 1.000000
vt 1.000000 0.500000
vt 0.500000 0.000000
vt 0.250000 0.750000
vt 0.750000 0.750000
vt 0.250000 0.250000
vt 0.750000 0.250000
vt 0.750000 0.000000
vt 0.250000 0.000000
vt 1.000000 0.750000
vt 1.000000 0.250000
vt 0.250000 1.000000
vt 0.750000 1.000000
vt 0.000000 0.250000
vt 0.000000 0.750000
vt 0.365347 0.220303
vt 0.629073 0.770824
vt 0.245672 0.515386
vt 0.812500 0.250000
vt 0.875000 0.375000
vt 0.625000 0.125000
vt 0.625000 0.375000
vt 0.875000 0.125000
vt 0.375000 0.125000
vt 0.125000 0.125000
vt 0.492214 0.250470
vt 0.875000 0.625000
vt 0.625000 0.625000
vt 0.875000 0.875000
vt 0.375000 0.875000
vt 0.262101 0.599801
vt 0.125000 0.875000
vt 0.125000 0.625000
vt 0.625000 0.875000
vt 0.125000 0.375000
vt 0.250000 0.125000
vt 0.875000 0.750000
vt 0.875000 0.250000
vt 0.250000 0.875000
vt 0.750000 0.875000
vt 0.125000 0.250000
vt 0.125000 0.750000
vt 0.326645 0.593096
vt 0.125000 0.937500
vt 0.250000 0.812500
vt 0.875000 0.500000
vt 0.428704 0.722742
vt 0.248222 0.455442
vt 0.000000 0.375000
vt 0.500000 0.875000
vt 0.500000 0.625000
vt 0.250000 0.375000
vt 0.125000 0.500000
vt 0.375000 0.500000
vt 0.625000 0.250000
vt 0.500000 0.125000
vt 0.500000 0.375000
vt 0.000000 0.625000
vt 0.000000 0.875000
vt 0.000000 0.125000
vt 0.625000 1.000000
vt 0.875000 1.000000
vt 0.125000 1.000000
vt 0.375000 1.000000
vt 1.000000 0.375000
vt 1.000000 0.125000
vt 1.000000 0.875000
vt 1.000000 0.625000
vt 0.375000 0.000000
vt 0.125000 0.000000
vt 0.875000 0.000000
vt 0.625000 0.000000
vt 0.750000 0.125000
vt 0.625000 0.500000
vt 0.760524 0.515669
vt 0.062500 0.312500
vt 0.187500 0.437500
vt 0.187500 0.312500
vt 0.062500 0.437500
vt 0.687500 0.937500
vt 0.687500 0.812500
vt 0.562500 0.937500
vt 0.062500 0.687500
vt 0.187500 0.687500
vt 0.062500 0.562500
vt 0.187500 0.937500
vt 0.187500 0.812500
vt 0.062500 0.937500
vt 0.437500 0.562500
vt 0.875000 0.812500
vt 0.549316 0.723230
vt 0.312500 0.812500
vt 0.437500 0.937500
vt 0.937500 0.812500
vt 0.812500 0.812500
vt 0.937500 0.937500
vt 0.875000 0.187500
vt 0.562500 0.562500
vt 0.710040 0.427233
vt 0.819332 0.591237
vt 0.812500 0.687500
vt 0.937500 0.562500
vt 0.750000 0.812500
vt 0.682510 0.583771
vt 0.437500 0.437500
vt 0.187500 0.062500
vt 0.062500 0.062500
vt 0.187500 0.187500
vt 0.312500 0.062500
vt 0.312500 0.187500
vt 0.437500 0.062500
vt 0.812500 0.062500
vt 0.937500 0.062500
vt 0.554454 0.248535
vt 0.562500 0.437500
vt 0.525016 0.804189
vt 0.562500 0.187500
vt 0.687500 0.187500
vt 0.562500 0.062500
vt 0.937500 0.312500
vt 0.812500 0.312500
vt 0.937500 0.437500
vt 0.312500 0.937500
vt 0.477574 0.762067
vt 0.812500 0.187500
vt 0.800716 0.372483
vt 0.687500 0.062500
vt 0.062500 0.125000
vt 0.937500 0.187500
vt 0.437500 0.187500
vt 0.062500 0.187500
vt 0.386728 0.766561
vt 0.937500 0.687500
vt 0.187500 0.875000
vt 0.062500 0.812500
vt 0.812500 0.937500
vt 0.187500 0.562500
vt 0.765906 0.648544
vt 0.327935 0.531625
vt 0.708054 0.341700
vt 0.334620 0.341609
vt 0.713435 0.722147
vt 0.325252 0.720900
vt 0.609124 0.340841
vt 0.331514 0.409114
vt 0.296906 0.332149
vt 0.712825 0.609971
vt 0.713437 0.300753
vt 0.668274 0.669022
vt 0.331126 0.276226
vt 0.281585 0.657008
vt 0.711522 0.538659
vt 0.610935 0.722865
vt 0.329664 0.470173
vt 0.424110 0.340835
vt 0.937500 0.750000
vt 0.547179 0.340828
vt 0.812500 0.750000
vt 0.418341 0.256674
vt 0.425703 0.815414
vt 0.812755 0.481587
vt 0.750000 0.187500
vt 0.375653 0.417988
vt 0.414679 0.661630
vt 0.625000 0.437500
vt 0.325797 0.653842
vn -0.048732 -0.048732 0.997622
vn 0.064962 -0.064962 0.995771
vn -0.030786 0.030786 0.999052
vn 0.062257 0.062257 0.996117
vn -0.003454 0.071458 0.997438
vn -0.350465 -0.008894 0.936534
vn -0.009911 0.415394 0.909588
vn 0.385961 0.009059 0.922470
vn -0.004360 -0.322781 0.946464
vn -0.249509 0.174380 0.952542
vn 0.244450 0.178661 0.953061
vn -0.303634 -0.351973 0.885394
vn 0.212050 -0.339716 0.916312
vn 0.018176 -0.341642 0.939654
vn -0.032057 -0.176085 0.983853
vn 0.363730 0.053635 0.929959
vn 0.442003 -0.017655 0.896840
vn -0.021742 0.269275 0.962818
vn 0.040407 0.465526 0.884112
vn -0.231976 0.003579 0.972715
vn -0.299038 0.026015 0.953887
vn -0.038639 -0.438623 0.897840
vn -0.000543 0.209231 0.977866
vn -0.368670 0.042381 0.928594
vn 0.219776 -0.259887 0.940296
vn 0.441590 0.019651 0.897002
vn -0.020146 -0.351933 0.935808
vn -0.000428 0.092995 0.995666
vn 0.163330 -0.213306 0.963236
vn -0.073552 -0.351137 0.933431
vn -0.089640 -0.117139 0.989062
vn -0.001086 -0.428972 0.903317
vn 0.359391 -0.015080 0.933065
vn 0.008095 0.101555 0.994797
vn 0.240852 0.169350 0.955673
vn -0.043372 0.362753 0.930875
vn -0.326491 0.062199 0.943152
vn -0.158334 0.165381 0.973437
vn -0.323964 0.029116 0.945621
vn -0.021984 0.373082 0.927538
vn -0.357719 -0.036465 0.933117
vn -0.120634 -0.258370 0.958485
vn 0.336798 0.097183 0.936548
vn 0.295752 -0.150323 0.943363
vn -0.129867 0.300631 0.944857
vn 0.142797 0.283543 0.948268
vn -0.256731 -0.125422 0.958310
vn -0.272572 0.097436 0.957189
vn -0.215409 0.087303 0.972614
vn -0.084469 0.156754 0.984019
vn -0.193021 0.228866 0.954130
vn 0.417587 0.045876 0.907478
vn -0.020523 0.224323 0.974299
vn -0.408207 0.032094 0.912325
vn -0.280175 -0.028909 0.959514
vn -0.056522 0.371421 0.926742
vn -0.004596 0.105590 0.994399
vn -0.439339 0.006287 0.898299
vn -0.336904 -0.017829 0.941370
vn -0.005463 0.085269 0.996343
vn -0.009413 -0.417848 0.908468
vn 0.007647 -0.354481 0.935032
vn -0.000870 0.093555 0.995614
vn -0.357129 0.005216 0.934041
vn -0.156340 0.047812 0.986546
vn -0.156559 -0.048069 0.986498
vn -0.029312 0.483308 0.874960
vn 0.070161 0.262425 0.962398
vn -0.056105 0.164146 0.984839
vn -0.023909 0.354482 0.934757
vn 0.435424 0.020784 0.899986
vn 0.274553 -0.073724 0.958742
vn 0.229821 0.047735 0.972062
vn 0.411147 -0.025356 0.911216
vn -0.023737 -0.282915 0.958851
vn -0.004097 -0.105349 0.994427
vn 0.046074 -0.220454 0.974309
vn -0.008271 -0.352724 0.935691
vn 0.085135 -0.311092 0.946559
vn 0.007499 0.082252 0.996583
vn 0.379779 0.070425 0.922392
vn -0.287437 -0.024194 0.957494
vn -0.392935 -0.009774 0.919514
vn -0.375445 -0.132256 0.917360
vn -0.330391 -0.036902 0.943123
vn 0.018180 0.470192 0.882377
vn 0.084043 0.235609 0.968207
vn -0.041653 0.454026 0.890014
vn -0.315633 0.029358 0.948427
vn -0.296727 0.086489 0.951038
vn -0.351157 0.004083 0.936308
vn -0.082822 0.237091 0.967951
vn -0.224010 0.189353 0.956015
vn -0.089319 0.094488 0.991511
vn -0.014322 0.089345 0.995898
vn 0.307108 0.114944 0.944708
vn -0.006398 0.174229 0.984684
vn -0.103440 0.292067 0.950787
vn -0.029653 0.395628 0.917932
vn 0.301259 0.057905 0.951783
vn 0.257068 0.165770 0.952070
vn 0.126842 0.121746 0.984423
vn 0.211880 -0.196484 0.957341
vn 0.010942 0.090942 0.995796
vn 0.186600 0.089596 0.978342
vn 0.357887 0.017467 0.933602
vn 0.313545 0.074948 0.946611
vn 0.389977 -0.012761 0.920736
vn 0.176075 0.206554 0.962462
vn 0.004275 0.093584 0.995602
vn -0.002527 0.087025 0.996203
vn -0.039326 -0.175571 0.983681
vn -0.074844 -0.067919 0.994880
vn -0.169838 -0.208510 0.963161
vn -0.056369 -0.270323 0.961118
vn -0.140468 -0.383179 0.912931
vn -0.003878 -0.329909 0.944005
vn 0.053549 -0.294899 0.954027
vn 0.120194 -0.134356 0.983617
vn -0.010136 -0.438438 0.898704
vn 0.001084 0.084754 0.996401
vn -0.045764 0.272887 0.960957
vn -0.026778 -0.402092 0.915208
vn 0.056484 -0.361704 0.930580
vn -0.020344 -0.332654 0.942830
vn 0.445195 -0.009637 0.895382
vn 0.353227 -0.165877 0.920715
vn 0.427318 0.035152 0.903418
vn -0.037072 0.348649 0.936520
vn -0.033631 0.271369 0.961887
vn 0.152831 -0.270983 0.950374
vn 0.421584 0.007052 0.906762
vn 0.004852 -0.347995 0.937484
vn -0.133830 -0.072314 0.988362
vn 0.329808 -0.110420 0.937568
vn -0.029484 -0.380836 0.924172
vn -0.176558 -0.059433 0.982494
vn -0.019351 0.314047 0.949210
vn 0.374793 0.051516 0.925676
vn -0.172698 0.237643 0.955877
vn -0.224734 0.071911 0.971763
vn 0.112119 0.348095 0.930730
vn -0.326673 0.027497 0.944737
vn 0.316966 0.058048 0.946659
vn -0.167811 0.086067 0.982055
vn 0.178582 -0.268989 0.946443
vn -0.328992 -0.188273 0.925374
vn 0.170637 0.157925 0.972596
vn -0.162254 0.190769 0.968133
vn 0.000781 -0.090292 0.995915
vn -0.166827 0.080923 0.982660
vn -0.441565 -0.207443 0.872919
vn 0.118972 0.085622 0.989199
vn 0.178475 -0.443982 0.878081
vn 0.000535 0.092376 0.995724
vn -0.182442 -0.461321 0.868273
vn -0.314113 0.082235 0.945817
vn 0.182528 0.091728 0.978912
vn -0.000716 0.144548 0.989498
vn -0.148889 0.086476 0.985065
vn -0.002688 -0.167839 0.985811
vn 0.343288 0.088337 0.935067
vn 0.001073 -0.141971 0.989870
vn 0.305210 0.118492 0.944885
vn -0.033953 -0.438000 0.898334
vn -0.044250 0.306227 0.950930
vn 0.410456 0.062832 0.909713
vn 0.126272 -0.328239 0.936117
vn 0.000898 0.092744 0.995690
vn -0.013047 0.098712 0.995030
vn -0.000577 0.087886 0.996130
vn -0.215866 0.088790 0.972378
f 1/1/1 113/113/113 66/66/66
f 155/155/155 34/34/34 153/153/153
f 112/112/112 31/31/31 113/113/113
f 76/76/76 112/112/112 113/113/113
f 169/169/169 147/147/147 161/161/161
f 57/57/57 53/53/53 170/170/170
f 114/114/114 31/31/31 42/42/42
f 31/31/31 134/134/134 113/113/113
f 134/134/134 137/137/137 66/66/66
f 134/134/134 66/66/66 113/113/113
f 115/115/115 112/112/112 15/15/15
f 31/31/31 137/137/137 134/134/134
f 58/58/58 83/83/83 84/84/84
f 114/114/114 137/137/137 31/31/31
f 76/76/76 113/113/113 1/1/1
f 57/57/57 170/170/170 95/95/95
f 15/15/15 112/112/112 76/76/76
f 115/115/115 15/15/15 75/75/75
f 45/45/45 51/51/51 98/98/98
f 136/136/136 62/62/62 32/32/32
f 136/136/136 30/30/30 117/117/117
f 22/22/22 30/30/30 136/136/136
f 22/22/22 156/156/156 116/116/116
f 62/62/62 136/136/136 117/117/117
f 165/165/165 136/136/136 32/32/32
f 115/115/115 30/30/30 42/42/42
f 152/152/152 156/156/156 147/147/147
f 42/42/42 116/116/116 114/114/114
f 116/116/116 30/30/30 22/22/22
f 42/42/42 112/112/112 115/115/115
f 123/123/123 32/32/32 62/62/62
f 84/84/84 152/152/152 58/58/58
f 12/12/12 114/114/114 116/116/116
f 116/116/116 42/42/42 30/30/30
f 54/54/54 151/151/151 160/160/160
f 75/75/75 117/117/117 115/115/115
f 111/111/111 169/169/169 161/161/161
f 165/165/165 22/22/22 136/136/136
f 161/161/161 165/165/165 32/32/32
f 83/83/83 58/58/58 54/54/54
f 47/47/47 137/137/137 114/114/114
f 63/63/63 121/121/121 111/111/111
f 30/30/30 115/115/115 117/117/117
f 60/60/60 169/169/169 111/111/111
f 151/151/151 147/147/147 169/169/169
f 72/72/72 135/135/135 119/119/119
f 10/10/10 51/51/51 93/93/93
f 54/54/54 58/58/58 151/151/151
f 129/129/129 45/45/45 36/36/36
f 151/151/151 152/152/152 147/147/147
f 151/151/151 169/169/169 160/160/160
f 148/148/148 155/155/155 153/153/153
f 58/58/58 152/152/152 151/151/151
f 149/149/149 98/98/98 10/10/10
f 27/27/27 123/123/123 125/125/125
f 147/147/147 156/156/156 161/161/161
f 157/157/157 10/10/10 90/90/90
f 82/82/82 137/137/137 47/47/47
f 84/84/84 12/12/12 152/152/152
f 112/112/112 42/42/42 31/31/31
f 172/172/172 49/49/49 170/170/170
f 20/20/20 137/137/137 82/82/82
f 74/74/74 139/139/139 108/108/108
f 20/20/20 66/66/66 137/137/137
f 55/55/55 20/20/20 82/82/82
f 33/33/33 108/108/108 139/139/139
f 23/23/23 40/40/40 122/122/122
f 92/92/92 45/45/45 129/129/129
f 149/149/149 172/172/172 170/170/170
f 94/94/94 50/50/50 69/69/69
f 52/52/52 108/108/108 106/106/106
f 107/107/107 33/33/33 43/43/43
f 139/139/139 43/43/43 33/33/33
f 79/79/79 29/29/29 131/131/131
f 49/49/49 37/37/37 145/145/145
f 6/6/6 85/85/85 91/91/91
f 45/45/45 98/98/98 36/36/36
f 94/94/94 69/69/69 3/3/3
f 110/110/110 153/153/153 34/34/34
f 166/166/166 138/138/138 130/130/130
f 122/122/122 166/166/166 130/130/130
f 33/33/33 106/106/106 108/108/108
f 93/93/93 38/38/38 48/48/48
f 62/62/62 125/125/125 123/123/123
f 37/37/37 90/90/90 143/143/143
f 143/143/143 90/90/90 39/39/39
f 29/29/29 79/79/79 118/118/118
f 79/79/79 131/131/131 168/168/168
f 129/129/129 70/70/70 18/18/18
f 149/149/149 170/170/170 53/53/53
f 92/92/92 18/18/18 69/69/69
f 38/38/38 92/92/92 50/50/50
f 53/53/53 130/130/130 138/138/138
f 92/92/92 69/69/69 50/50/50
f 38/38/38 140/140/140 92/92/92
f 93/93/93 45/45/45 140/140/140
f 94/94/94 38/38/38 50/50/50
f 48/48/48 38/38/38 141/141/141
f 65/65/65 94/94/94 3/3/3
f 47/47/47 84/84/84 82/82/82
f 21/21/21 141/141/141 65/65/65
f 38/38/38 94/94/94 141/141/141
f 41/41/41 82/82/82 84/84/84
f 65/65/65 141/141/141 94/94/94
f 39/39/39 90/90/90 48/48/48
f 51/51/51 45/45/45 93/93/93
f 23/23/23 122/122/122 97/97/97
f 93/93/93 140/140/140 38/38/38
f 145/145/145 160/160/160 60/60/60
f 92/92/92 129/129/129 18/18/18
f 140/140/140 45/45/45 92/92/92
f 89/89/89 39/39/39 48/48/48
f 48/48/48 141/141/141 89/89/89
f 28/28/28 121/121/121 163/163/163
f 89/89/89 21/21/21 64/64/64
f 21/21/21 89/89/89 141/141/141
f 165/165/165 161/161/161 156/156/156
f 149/149/149 10/10/10 157/157/157
f 6/6/6 91/91/91 64/64/64
f 59/59/59 91/91/91 85/85/85
f 6/6/6 55/55/55 85/85/85
f 24/24/24 83/83/83 54/54/54
f 59/59/59 39/39/39 91/91/91
f 143/143/143 39/39/39 59/59/59
f 63/63/63 163/163/163 121/121/121
f 24/24/24 54/54/54 160/160/160
f 34/34/34 155/155/155 159/159/159
f 90/90/90 10/10/10 93/93/93
f 57/57/57 34/34/34 97/97/97
f 119/119/119 29/29/29 118/118/118
f 56/56/56 88/88/88 99/99/99
f 39/39/39 89/89/89 91/91/91
f 166/166/166 56/56/56 36/36/36
f 99/99/99 36/36/36 56/56/56
f 77/77/77 2/2/2 119/119/119
f 37/37/37 157/157/157 90/90/90
f 37/37/37 143/143/143 24/24/24
f 149/149/149 138/138/138 98/98/98
f 138/138/138 166/166/166 98/98/98
f 135/135/135 72/72/72 17/17/17
f 155/155/155 148/148/148 159/159/159
f 51/51/51 10/10/10 98/98/98
f 159/159/159 97/97/97 34/34/34
f 17/17/17 126/126/126 135/135/135
f 104/104/104 95/95/95 5/5/5
f 60/60/60 160/160/160 169/169/169
f 44/44/44 135/135/135 126/126/126
f 105/105/105 158/158/158 80/80/80
f 57/57/57 95/95/95 104/104/104
f 133/133/133 27/27/27 78/78/78
f 34/34/34 57/57/57 104/104/104
f 156/156/156 152/152/152 12/12/12
f 122/122/122 130/130/130 97/97/97
f 53/53/53 138/138/138 149/149/149
f 123/123/123 27/27/27 61/61/61
f 132/132/132 146/146/146 127/127/127
f 11/11/11 144/144/144 107/107/107
f 103/103/103 44/44/44 25/25/25
f 87/87/87 11/11/11 109/109/109
f 128/128/128 8/8/8 52/52/52
f 80/80/80 110/110/110 104/104/104
f 124/124/124 154/154/154 61/61/61
f 12/12/12 116/116/116 156/156/156
f 11/11/11 148/148/148 144/144/144
f 37/37/37 49/49/49 157/157/157
f 144/144/144 153/153/153 106/106/106
f 53/53/53 97/97/97 130/130/130
f 106/106/106 153/153/153 81/81/81
f 110/110/110 34/34/34 104/104/104
f 77/77/77 119/119/119 118/118/118
f 80/80/80 104/104/104 5/5/5
f 158/158/158 153/153/153 110/110/110
f 121/121/121 171/171/171 80/80/80
f 105/105/105 146/146/146 132/132/132
f 81/81/81 153/153/153 158/158/158
f 158/158/158 110/110/110 80/80/80
f 28/28/28 146/146/146 105/105/105
f 167/167/167 106/106/106 81/81/81
f 36/36/36 99/99/99 129/129/129
f 107/107/107 106/106/106 33/33/33
f 127/127/127 44/44/44 26/26/26
f 96/96/96 164/164/164 43/43/43
f 85/85/85 41/41/41 59/59/59
f 125/125/125 78/78/78 27/27/27
f 74/74/74 108/108/108 8/8/8
f 126/126/126 26/26/26 44/44/44
f 164/164/164 11/11/11 107/107/107
f 41/41/41 84/84/84 83/83/83
f 144/144/144 148/148/148 153/153/153
f 144/144/144 106/106/106 107/107/107
f 111/111/111 5/5/5 60/60/60
f 87/87/87 148/148/148 11/11/11
f 95/95/95 60/60/60 5/5/5
f 88/88/88 56/56/56 40/40/40
f 108/108/108 52/52/52 8/8/8
f 83/83/83 59/59/59 41/41/41
f 96/96/96 162/162/162 100/100/100
f 43/43/43 164/164/164 107/107/107
f 43/43/43 139/139/139 162/162/162
f 56/56/56 166/166/166 122/122/122
f 24/24/24 143/143/143 83/83/83
f 16/16/16 162/162/162 139/139/139
f 35/35/35 101/101/101 96/96/96
f 35/35/35 96/96/96 100/100/100
f 96/96/96 101/101/101 164/164/164
f 96/96/96 43/43/43 162/162/162
f 86/86/86 46/46/46 142/142/142
f 16/16/16 100/100/100 162/162/162
f 55/55/55 82/82/82 85/85/85
f 68/68/68 142/142/142 102/102/102
f 142/142/142 46/46/46 35/35/35
f 142/142/142 35/35/35 102/102/102
f 87/87/87 46/46/46 40/40/40
f 46/46/46 109/109/109 101/101/101
f 19/19/19 86/86/86 142/142/142
f 88/88/88 40/40/40 86/86/86
f 23/23/23 87/87/87 40/40/40
f 86/86/86 40/40/40 46/46/46
f 23/23/23 148/148/148 87/87/87
f 87/87/87 109/109/109 46/46/46
f 59/59/59 83/83/83 143/143/143
f 23/23/23 159/159/159 148/148/148
f 24/24/24 145/145/145 37/37/37
f 56/56/56 122/122/122 40/40/40
f 67/67/67 88/88/88 86/86/86
f 101/101/101 35/35/35 46/46/46
f 7/7/7 70/70/70 99/99/99
f 67/67/67 7/7/7 88/88/88
f 19/19/19 67/67/67 86/86/86
f 68/68/68 19/19/19 142/142/142
f 41/41/41 85/85/85 82/82/82
f 4/4/4 68/68/68 102/102/102
f 73/73/73 4/4/4 102/102/102
f 16/16/16 73/73/73 100/100/100
f 74/74/74 16/16/16 139/139/139
f 154/154/154 150/150/150 61/61/61
f 26/26/26 128/128/128 52/52/52
f 126/126/126 17/17/17 71/71/71
f 97/97/97 53/53/53 57/57/57
f 77/77/77 118/118/118 14/14/14
f 60/60/60 95/95/95 145/145/145
f 167/167/167 132/132/132 26/26/26
f 49/49/49 145/145/145 95/95/95
f 128/128/128 71/71/71 8/8/8
f 70/70/70 129/129/129 99/99/99
f 164/164/164 101/101/101 11/11/11
f 109/109/109 11/11/11 101/101/101
f 25/25/25 44/44/44 127/127/127
f 64/64/64 91/91/91 89/89/89
f 25/25/25 127/127/127 13/13/13
f 22/22/22 165/165/165 156/156/156
f 132/132/132 127/127/127 26/26/26
f 154/154/154 127/127/127 146/146/146
f 131/131/131 13/13/13 168/168/168
f 131/131/131 25/25/25 13/13/13
f 167/167/167 26/26/26 52/52/52
f 105/105/105 132/132/132 167/167/167
f 167/167/167 52/52/52 106/106/106
f 105/105/105 167/167/167 81/81/81
f 105/105/105 81/81/81 158/158/158
f 171/171/171 28/28/28 105/105/105
f 171/171/171 105/105/105 80/80/80
f 29/29/29 119/119/119 135/135/135
f 121/121/121 80/80/80 5/5/5
f 121/121/121 28/28/28 171/171/171
f 121/121/121 5/5/5 111/111/111
f 63/63/63 111/111/111 161/161/161
f 163/163/163 161/161/161 32/32/32
f 163/163/163 150/150/150 28/28/28
f 120/120/120 150/150/150 163/163/163
f 150/150/150 146/146/146 28/28/28
f 163/163/163 63/63/63 161/161/161
f 120/120/120 123/123/123 61/61/61
f 102/102/102 35/35/35 73/73/73
f 23/23/23 97/97/97 159/159/159
f 119/119/119 2/2/2 72/72/72
f 154/154/154 13/13/13 127/127/127
f 154/154/154 146/146/146 150/150/150
f 124/124/124 13/13/13 154/154/154
f 160/160/160 145/145/145 24/24/24
f 117/117/117 9/9/9 62/62/62
f 133/133/133 78/78/78 14/14/14
f 120/120/120 61/61/61 150/150/150
f 100/100/100 73/73/73 35/35/35
f 120/120/120 163/163/163 32/32/32
f 120/120/120 32/32/32 123/123/123
f 124/124/124 61/61/61 27/27/27
f 125/125/125 62/62/62 9/9/9
f 9/9/9 117/117/117 75/75/75
f 26/26/26 126/126/126 128/128/128
f 78/78/78 125/125/125 9/9/9
f 71/71/71 128/128/128 126/126/126
f 118/118/118 133/133/133 14/14/14
f 133/133/133 124/124/124 27/27/27
f 135/135/135 44/44/44 103/103/103
f 103/103/103 131/131/131 29/29/29
f 79/79/79 124/124/124 133/133/133
f 79/79/79 133/133/133 118/118/118
f 168/168/168 13/13/13 124/124/124
f 168/168/168 124/124/124 79/79/79
f 95/95/95 170/170/170 49/49/49
f 103/103/103 25/25/25 131/131/131
f 7/7/7 99/99/99 88/88/88
f 135/135/135 103/103/103 29/29/29
f 36/36/36 98/98/98 166/166/166
f 90/90/90 93/93/93 48/48/48
f 49/49/49 172/172/172 157/157/157
f 172/172/172 149/149/149 157/157/157
f 114/114/114 12/12/12 47/47/47
f 84/84/84 47/47/47 12/12/12
