# frame 000755 
# time 0.378000 
# name Box 
v 0.719356 0.663565 -0.318065
v 0.718997 0.748903 0.072726
v 0.720640 0.358116 0.158065
v 0.719356 0.663565 -0.318065
v 0.720640 0.358116 0.158065
v 0.720999 0.272778 -0.232726
v 0.319360 0.661884 -0.318065
v 0.321003 0.271097 -0.232726
v 0.320644 0.356435 0.158065
v 0.319360 0.661884 -0.318065
v 0.320644 0.356435 0.158065
v 0.319001 0.747222 0.072726
v 0.719356 0.663565 -0.318065
v 0.319360 0.661884 -0.318065
v 0.319001 0.747222 0.072726
v 0.719356 0.663565 -0.318065
v 0.319001 0.747222 0.072726
v 0.718997 0.748903 0.072726
v 0.718997 0.748903 0.072726
v 0.319001 0.747222 0.072726
v 0.320644 0.356435 0.158065
v 0.718997 0.748903 0.072726
v 0.320644 0.356435 0.158065
v 0.720640 0.358116 0.158065
v 0.720640 0.358116 0.158065
v 0.320644 0.356435 0.158065
v 0.321003 0.271097 -0.232726
v 0.720640 0.358116 0.158065
v 0.321003 0.271097 -0.232726
v 0.720999 0.272778 -0.232726
v 0.319360 0.661884 -0.318065
v 0.719356 0.663565 -0.318065
v 0.720999 0.272778 -0.232726
v 0.319360 0.661884 -0.318065
v 0.720999 0.272778 -0.232726
v 0.321003 0.271097 -0.232726
vn 0.199998 0.000841 0.000000
vn 0.199998 0.000841 0.000000
vn 0.199998 0.000841 0.000000
vn 0.199998 0.000841 0.000000
vn 0.199998 0.000841 0.000000
vn 0.199998 0.000841 0.000000
vn -0.199998 -0.000841 0.000000
vn -0.199998 -0.000841 0.000000
vn -0.199998 -0.000841 0.000000
vn -0.199998 -0.000841 0.000000
vn -0.199998 -0.000841 0.000000
vn -0.199998 -0.000841 0.000000
vn -0.000821 0.195394 -0.042669
vn -0.000821 0.195394 -0.042669
vn -0.000821 0.195394 -0.042669
vn -0.000821 0.195394 -0.042669
vn -0.000821 0.195394 -0.042669
vn -0.000821 0.195394 -0.042669
vn -0.000179 0.042669 0.195395
vn -0.000179 0.042669 0.195395
vn -0.000179 0.042669 0.195395
vn -0.000179 0.042669 0.195395
vn -0.000179 0.042669 0.195395
vn -0.000179 0.042669 0.195395
vn 0.000821 -0.195394 0.042669
vn 0.000821 -0.195394 0.042669
vn 0.000821 -0.195394 0.042669
vn 0.000821 -0.195394 0.042669
vn 0.000821 -0.195394 0.042669
vn 0.000821 -0.195394 0.042669
vn 0.000179 -0.042669 -0.195395
vn 0.000179 -0.042669 -0.195395
vn 0.000179 -0.042669 -0.195395
vn 0.000179 -0.042669 -0.195395
vn 0.000179 -0.042669 -0.195395
vn 0.000179 -0.042669 -0.195395
f 1/1/1 2/2/2 3/3/3
f 4/4/4 5/5/5 6/6/6
f 7/7/7 8/8/8 9/9/9
f 10/10/10 11/11/11 12/12/12
f 13/13/13 14/14/14 15/15/15
f 16/16/16 17/17/17 18/18/18
f 19/19/19 20/20/20 21/21/21
f 22/22/22 23/23/23 24/24/24
f 25/25/25 26/26/26 27/27/27
f 28/28/28 29/29/29 30/30/30
f 31/31/31 32/32/32 33/33/33
f 34/34/34 35/35/35 36/36/36
