# frame 000765 
# time 0.383000 
# name Cloth3D 
v -0.000000 0.000000 -0.000000
v 1.000000 0.000000 -0.000000
v -0.000000 1.000000 0.000000
v 1.000000 1.000000 0.000000
v 0.502339 0.492224 0.129961
v -0.000000 0.500000 0.000000
v 0.500000 1.000000 0.000000
v 1.000000 0.500000 0.000000
v 0.500000 -0.000000 0.000000
v 0.248139 0.750125 0.061305
v 0.752785 0.750453 0.056673
v 0.244126 0.244603 0.087093
v 0.757593 0.244312 0.088419
v 0.750000 0.000000 0.000000
v 0.250000 0.000000 0.000000
v 1.000000 0.750000 0.000000
v 1.000000 0.250000 0.000000
v 0.250000 1.000000 0.000000
v 0.750000 1.000000 0.000000
v 0.000000 0.250000 0.000000
v 0.000000 0.750000 -0.000000
v 0.362249 0.213144 0.097557
v 0.631353 0.769520 0.057783
v 0.239304 0.512436 0.099989
v 0.817930 0.246568 0.065460
v 0.882460 0.372626 0.059968
v 0.626646 0.122234 0.051908
v 0.883331 0.435287 0.061991
v 0.876290 0.123693 0.023615
v 0.374125 0.120480 0.056843
v 0.123823 0.122918 0.027539
v 0.493150 0.243616 0.111188
v 0.876777 0.622866 0.039140
v 0.630539 0.621964 0.098423
v 0.875547 0.874318 0.014764
v 0.375167 0.874997 0.036663
v 0.257632 0.598330 0.091858
v 0.123540 0.876055 0.027376
v 0.123267 0.624008 0.042919
v 0.625246 0.870309 0.015732
v 0.119079 0.372836 0.058039
v 0.247698 0.119408 0.052879
v 0.875593 0.748514 0.025713
v 0.877855 0.248415 0.041799
v 0.249369 0.875932 0.035661
v 0.750464 0.871406 0.011618
v 0.119520 0.247040 0.051004
v 0.121969 0.750368 0.041400
v 0.319729 0.590940 0.105680
v 0.588364 0.295675 0.133424
v 0.248802 0.812960 0.048082
v 0.882031 0.498002 0.058239
v 0.428935 0.751302 0.066707
v 0.239777 0.451332 0.109494
v 0.000000 0.375000 0.000000
v 0.500394 0.872576 0.027616
v 0.502218 0.620276 0.098665
v 0.238113 0.369071 0.118591
v 0.120323 0.498452 0.054786
v 0.370570 0.494359 0.129422
v 0.631280 0.243259 0.108056
v 0.500654 0.119832 0.060099
v 0.499564 0.363403 0.161682
v 0.000000 0.625000 0.000000
v 0.000000 0.875000 0.000000
v 0.000000 0.125000 0.000000
v 0.625000 1.000000 0.000000
v 0.875000 1.000000 0.000000
v 0.125000 1.000000 0.000000
v 0.375000 1.000000 0.000000
v 1.000000 0.375000 0.000000
v 1.000000 0.125000 0.000000
v 1.000000 0.875000 0.000000
v 1.000000 0.625000 0.000000
v 0.375000 0.000000 0.000000
v 0.125000 0.000000 0.000000
v 0.875000 0.000000 0.000000
v 0.625000 0.000000 0.000000
v 0.752353 0.120775 0.047423
v 0.634207 0.493372 0.129945
v 0.771159 0.512740 0.103510
v 0.059328 0.311532 0.028382
v 0.179813 0.434367 0.085960
v 0.179049 0.308069 0.082729
v 0.058997 0.436697 0.030366
v 0.687457 0.934855 0.002037
v 0.688985 0.810008 0.037476
v 0.562429 0.934783 0.005742
v 0.062060 0.687183 0.019198
v 0.184113 0.687337 0.061355
v 0.062054 0.561612 0.021781
v 0.187157 0.938712 0.019117
v 0.185341 0.813847 0.046943
v 0.061818 0.938126 0.011679
v 0.437283 0.556774 0.114228
v 1.000000 0.437500 0.000000
v 0.551286 0.751835 0.066712
v 0.311874 0.813395 0.055291
v 0.437750 0.937250 0.017701
v 0.938914 0.812065 0.017532
v 0.813651 0.811743 0.031107
v 0.937505 0.937334 0.004603
v 0.877220 0.185855 0.033754
v 0.567400 0.556562 0.114397
v 0.720151 0.420834 0.147714
v 0.823623 0.588558 0.063872
v 0.814705 0.685933 0.050488
v 0.939125 0.561131 0.023263
v 0.751375 0.810732 0.033838
v 0.690961 0.581637 0.108397
v 0.435243 0.428816 0.145513
v 0.186638 0.058514 0.026733
v 0.062602 0.062342 0.005572
v 0.182988 0.182620 0.059701
v 0.312005 0.058708 0.030586
v 0.309302 0.181155 0.079859
v 0.437539 0.059184 0.031350
v 0.813187 0.060729 0.019547
v 0.937147 0.062796 0.000059
v 0.558079 0.241904 0.109114
v 0.569218 0.428512 0.145800
v 0.526242 0.802110 0.049876
v 0.564978 0.182532 0.082824
v 0.691683 0.181967 0.076893
v 0.562954 0.060031 0.029329
v 0.938161 0.312163 0.021401
v 0.820996 0.308736 0.080276
v 0.940406 0.436356 0.028510
v 0.312525 0.937632 0.018108
v 0.465517 0.674662 0.085379
v 0.815700 0.184512 0.050335
v 0.815489 0.367110 0.102938
v 0.688083 0.060560 0.025828
v 0.063086 0.124737 0.008180
v 0.938008 0.187238 0.015013
v 0.436875 0.182090 0.084070
v 0.061730 0.186840 0.017419
v 0.386795 0.765568 0.064499
v 0.937795 0.686304 0.015435
v 0.371238 0.310047 0.136479
v 0.060385 0.812802 0.021235
v 0.812372 0.936464 0.006407
v 0.183299 0.560631 0.072059
v 0.770538 0.647559 0.073219
v 0.320086 0.528367 0.120993
v 0.720556 0.364170 0.161735
v 0.320763 0.362488 0.161736
v 0.718870 0.752564 0.066719
v 0.319096 0.750870 0.066761
v 0.619764 0.363873 0.161698
v 0.320691 0.401572 0.152024
v 0.286277 0.324404 0.129782
v 0.719512 0.609642 0.101521
v 0.725486 0.292759 0.120587
v 0.673545 0.668285 0.086908
v 0.325590 0.270620 0.110588
v 0.278619 0.656054 0.084298
v 0.719408 0.536988 0.119278
v 0.613711 0.752107 0.066715
v 0.320446 0.465248 0.136439
v 0.419885 0.363070 0.161681
v 1.000000 0.062500 -0.000000
v 0.772284 0.450162 0.118092
v 0.062500 1.000000 0.000000
v 0.416090 0.248369 0.116392
v 0.426110 0.813872 0.049278
v 0.823872 0.478859 0.089890
v 0.754408 0.182760 0.066418
v 0.719230 0.671865 0.086356
v 0.414713 0.658256 0.089404
v 0.636216 0.428969 0.145774
v 0.319462 0.652573 0.090623
v 0.590833 0.673156 0.085894
v 0.937500 0.000000 -0.000000
v 0.457223 0.294421 0.133801
v 0.245308 0.180741 0.074391
v 0.658039 0.293646 0.131088
v 0.124771 0.061175 0.014256
vt 0.000000 0.000000
vt 1.000000 0.000000
vt 0.000000 1.000000
vt 1.000000 1.000000
vt 0.500000 0.500000
vt 0.000000 0.500000
vt 0.500000 1.000000
vt 1.000000 0.500000
vt 0.500000 0.000000
vt 0.250000 0.750000
vt 0.750000 0.750000
vt 0.250000 0.250000
vt 0.750000 0.250000
vt 0.750000 0.000000
vt 0.250000 0.000000
vt 1.000000 0.750000
vt 1.000000 0.250000
vt 0.250000 1.000000
vt 0.750000 1.000000
vt 0.000000 0.250000
vt 0.000000 0.750000
vt 0.365347 0.220303
vt 0.629073 0.770824
vt 0.245672 0.515386
vt 0.812500 0.250000
vt 0.875000 0.375000
vt 0.625000 0.125000
vt 0.875000 0.437500
vt 0.875000 0.125000
vt 0.375000 0.125000
vt 0.125000 0.125000
vt 0.492214 0.250470
vt 0.875000 0.625000
vt 0.625000 0.625000
vt 0.875000 0.875000
vt 0.375000 0.875000
vt 0.262101 0.599801
vt 0.125000 0.875000
vt 0.125000 0.625000
vt 0.625000 0.875000
vt 0.125000 0.375000
vt 0.250000 0.125000
vt 0.875000 0.750000
vt 0.875000 0.250000
vt 0.250000 0.875000
vt 0.750000 0.875000
vt 0.125000 0.250000
vt 0.125000 0.750000
vt 0.323454 0.593028
vt 0.581754 0.304126
vt 0.250000 0.812500
vt 0.875000 0.500000
vt 0.428365 0.753332
vt 0.248222 0.455442
vt 0.000000 0.375000
vt 0.500000 0.875000
vt 0.500000 0.625000
vt 0.250000 0.375000
vt 0.125000 0.500000
vt 0.375000 0.500000
vt 0.625000 0.250000
vt 0.500000 0.125000
vt 0.497769 0.373561
vt 0.000000 0.625000
vt 0.000000 0.875000
vt 0.000000 0.125000
vt 0.625000 1.000000
vt 0.875000 1.000000
vt 0.125000 1.000000
vt 0.375000 1.000000
vt 1.000000 0.375000
vt 1.000000 0.125000
vt 1.000000 0.875000
vt 1.000000 0.625000
vt 0.375000 0.000000
vt 0.125000 0.000000
vt 0.875000 0.000000
vt 0.625000 0.000000
vt 0.750000 0.125000
vt 0.625000 0.500000
vt 0.760524 0.515669
vt 0.062500 0.312500
vt 0.187500 0.437500
vt 0.187500 0.312500
vt 0.062500 0.437500
vt 0.687500 0.937500
vt 0.687500 0.812500
vt 0.562500 0.937500
vt 0.062500 0.687500
vt 0.187500 0.687500
vt 0.062500 0.562500
vt 0.187500 0.937500
vt 0.187500 0.812500
vt 0.062500 0.937500
vt 0.437500 0.562500
vt 1.000000 0.437500
vt 0.549324 0.753387
vt 0.312500 0.812500
vt 0.437500 0.937500
vt 0.937500 0.812500
vt 0.812500 0.812500
vt 0.937500 0.937500
vt 0.875000 0.187500
vt 0.562500 0.562500
vt 0.703114 0.427469
vt 0.819332 0.591237
vt 0.812500 0.687500
vt 0.937500 0.562500
vt 0.750000 0.812500
vt 0.682510 0.583771
vt 0.437500 0.437500
vt 0.187500 0.062500
vt 0.062500 0.062500
vt 0.187500 0.187500
vt 0.312500 0.062500
vt 0.312500 0.187500
vt 0.437500 0.062500
vt 0.812500 0.062500
vt 0.937500 0.062500
vt 0.554454 0.248535
vt 0.562500 0.437500
vt 0.525016 0.804189
vt 0.562500 0.187500
vt 0.687500 0.187500
vt 0.562500 0.062500
vt 0.937500 0.312500
vt 0.812500 0.312500
vt 0.937500 0.437500
vt 0.312500 0.937500
vt 0.464310 0.678183
vt 0.812500 0.187500
vt 0.800716 0.372483
vt 0.687500 0.062500
vt 0.062500 0.125000
vt 0.937500 0.187500
vt 0.437500 0.187500
vt 0.062500 0.187500
vt 0.386728 0.766561
vt 0.937500 0.687500
vt 0.377625 0.317694
vt 0.062500 0.812500
vt 0.812500 0.937500
vt 0.187500 0.562500
vt 0.765906 0.648544
vt 0.325630 0.531563
vt 0.699016 0.374733
vt 0.334373 0.372353
vt 0.715032 0.750156
vt 0.320032 0.751266
vt 0.608948 0.374149
vt 0.331946 0.409151
vt 0.296906 0.332149
vt 0.711387 0.609992
vt 0.713437 0.300753
vt 0.668274 0.669022
vt 0.331126 0.276226
vt 0.281585 0.657008
vt 0.708059 0.538746
vt 0.611193 0.752569
vt 0.328654 0.470153
vt 0.424060 0.373174
vt 1.000000 0.062500
vt 0.758105 0.454518
vt 0.062500 1.000000
vt 0.418341 0.256674
vt 0.425703 0.815414
vt 0.812755 0.481587
vt 0.750000 0.187500
vt 0.713212 0.670870
vt 0.414679 0.661630
vt 0.625000 0.437500
vt 0.321897 0.653776
vt 0.587160 0.675778
vt 0.937500 0.000000
vt 0.458173 0.302976
vt 0.250000 0.187500
vt 0.647595 0.302440
vt 0.125000 0.062500
vn -0.046833 -0.046833 0.997804
vn 0.005173 -0.005173 0.999973
vn -0.063379 0.126757 0.989907
vn 0.039221 0.039221 0.998460
vn -0.001112 0.235398 0.971898
vn -0.404265 0.034474 0.913992
vn 0.046832 0.184634 0.981691
vn 0.420079 0.016944 0.907329
vn 0.008793 -0.453737 0.891092
vn -0.092018 0.182324 0.978923
vn 0.258678 0.277625 0.925208
vn -0.205878 -0.250155 0.946064
vn 0.299747 -0.317129 0.899767
vn 0.023424 -0.349826 0.936522
vn -0.012672 -0.439507 0.898150
vn 0.263405 -0.009657 0.964637
vn 0.286400 -0.024277 0.957803
vn 0.005263 0.294470 0.955646
vn -0.019798 0.071011 0.997279
vn -0.347886 -0.045642 0.936425
vn -0.318679 -0.009084 0.947819
vn -0.084498 -0.354962 0.931054
vn 0.009226 0.441814 0.897059
vn -0.332371 0.147387 0.931562
vn 0.346280 -0.216352 0.912843
vn 0.501871 -0.093173 0.859909
vn 0.033447 -0.393234 0.918830
vn 0.496537 0.023421 0.867700
vn 0.229781 -0.176561 0.957093
vn -0.019398 -0.390565 0.920371
vn -0.256280 -0.172495 0.951087
vn 0.021359 -0.404151 0.914443
vn 0.320076 0.112278 0.940715
vn 0.000059 0.236729 0.971576
vn 0.062683 0.132693 0.989173
vn 0.031606 0.265794 0.963511
vn -0.230899 0.173510 0.957382
vn -0.133095 0.149926 0.979698
vn -0.353949 0.040510 0.934387
vn 0.050384 0.283885 0.957534
vn -0.427272 -0.022959 0.903831
vn -0.102757 -0.335645 0.936367
vn 0.194242 0.079785 0.977704
vn 0.370664 -0.126364 0.920130
vn -0.031874 0.229989 0.972671
vn -0.010252 0.255607 0.966726
vn -0.373927 -0.126918 0.918733
vn -0.266108 0.052272 0.962525
vn -0.113465 0.225843 0.967533
vn 0.015792 -0.404560 0.914375
vn -0.061942 0.196564 0.978533
vn 0.445252 0.104498 0.889287
vn 0.020461 0.248676 0.968370
vn -0.377275 0.132624 0.916556
vn -0.444436 -0.008539 0.895770
vn 0.076615 0.275938 0.958117
vn -0.000599 0.235214 0.971943
vn -0.422657 -0.041265 0.905350
vn -0.392658 0.090554 0.915216
vn -0.001527 0.235166 0.971954
vn 0.042891 -0.419250 0.906857
vn 0.017640 -0.395885 0.918131
vn 0.000791 -0.081221 0.996696
vn -0.317175 0.008353 0.948330
vn -0.263717 0.038257 0.963841
vn -0.144850 -0.057488 0.987782
vn 0.015792 0.063163 0.997878
vn 0.008023 0.094167 0.995524
vn -0.024042 0.235882 0.971484
vn 0.002807 0.279294 0.960201
vn 0.420649 -0.021228 0.906975
vn 0.102981 -0.046649 0.993589
vn 0.180723 0.051753 0.982171
vn 0.301219 0.029228 0.953107
vn -0.002159 -0.465150 0.885229
vn -0.112843 -0.236101 0.965154
vn 0.060301 -0.142537 0.987951
vn 0.013107 -0.415551 0.909475
vn 0.138827 -0.322001 0.936505
vn -0.000716 0.235709 0.971823
vn 0.373747 0.218803 0.901354
vn -0.414517 -0.040804 0.909126
vn -0.404868 0.082270 0.910667
vn -0.380842 -0.143456 0.913444
vn -0.431448 0.014638 0.902019
vn 0.005976 0.110977 0.993805
vn 0.032370 0.412215 0.910511
vn 0.056133 0.172566 0.983397
vn -0.326817 0.001191 0.945087
vn -0.235882 0.099074 0.966718
vn -0.363739 0.050058 0.930155
vn -0.028451 0.256631 0.966091
vn -0.086740 0.167258 0.982090
vn -0.094970 0.135790 0.986175
vn -0.000698 0.234925 0.972013
vn 0.432723 0.000000 0.901527
vn 0.009285 0.297462 0.954689
vn -0.047442 0.213387 0.975815
vn 0.044130 0.252741 0.966527
vn 0.163143 0.042478 0.985688
vn 0.093356 0.228968 0.968947
vn 0.053663 0.075685 0.995687
vn 0.292298 -0.158245 0.943144
vn -0.001303 0.235300 0.971922
vn 0.244025 0.208981 0.946984
vn 0.358607 0.170967 0.917699
vn 0.300815 0.156692 0.940722
vn 0.365611 0.076877 0.927588
vn 0.063373 0.370920 0.926500
vn 0.000143 0.235543 0.971864
vn -0.001122 0.236235 0.971695
vn -0.127534 -0.305430 0.943635
vn -0.133588 -0.099873 0.985992
vn -0.253596 -0.229087 0.939792
vn -0.013295 -0.415329 0.909574
vn -0.084908 -0.323139 0.942535
vn -0.002857 -0.435410 0.900228
vn 0.088515 -0.281062 0.955599
vn 0.065775 -0.054763 0.996331
vn 0.018983 -0.411555 0.911187
vn -0.001392 0.236129 0.971721
vn 0.036508 0.322696 0.945798
vn 0.031514 -0.404506 0.913992
vn 0.103549 -0.372335 0.922304
vn 0.027813 -0.418286 0.907889
vn 0.389542 -0.081683 0.917379
vn 0.428164 -0.237912 0.871822
vn 0.462412 0.007152 0.886637
vn 0.002381 0.284118 0.958786
vn -0.000127 0.234531 0.972109
vn 0.255447 -0.252467 0.933277
vn 0.497186 -0.143068 0.855768
vn 0.025376 -0.383846 0.923048
vn -0.217515 -0.086009 0.972260
vn 0.273674 -0.090047 0.957598
vn -0.000950 -0.409960 0.912103
vn -0.288824 -0.111354 0.950884
vn 0.025691 0.228382 0.973233
vn 0.253513 0.036841 0.966630
vn -0.089246 -0.426091 0.900268
vn -0.273119 0.041918 0.961066
vn -0.012891 0.129429 0.991505
vn -0.348201 0.112404 0.930657
vn 0.337472 0.191261 0.921700
vn -0.122006 0.223867 0.966953
vn 0.253999 -0.075119 0.964283
vn -0.235777 -0.093831 0.967267
vn 0.180073 0.328292 0.927253
vn -0.047354 0.193117 0.980032
vn 0.003256 -0.065191 0.997867
vn -0.224356 0.220931 0.949133
vn -0.286198 -0.374549 0.881932
vn 0.131231 0.229805 0.964348
vn 0.264393 -0.410846 0.872526
vn -0.002702 0.235252 0.971931
vn -0.143713 -0.374519 0.916014
vn -0.149323 0.211379 0.965930
vn 0.183402 0.231470 0.955398
vn -0.001497 0.393251 0.919430
vn -0.148445 0.224666 0.963063
vn -0.008190 -0.106660 0.994262
vn 0.010342 -0.000000 0.999947
vn 0.409417 0.157493 0.898651
vn 0.000000 0.188573 0.982059
vn -0.032363 -0.383247 0.923079
vn 0.045507 0.264679 0.963262
vn 0.415817 0.150685 0.896878
vn 0.201593 -0.320597 0.925515
vn 0.145076 0.229351 0.962471
vn -0.000321 0.234734 0.972060
vn -0.000622 0.236021 0.971748
vn -0.092055 0.233107 0.968084
vn 0.000263 0.234511 0.972113
vn 0.000000 -0.010351 0.999946
vn 0.002293 -0.373220 0.927740
vn -0.159425 -0.263264 0.951460
vn 0.058928 -0.434094 0.898938
vn -0.168734 -0.217105 0.961454
f 1/1/1 113/113/113 66/66/66
f 155/155/155 34/34/34 153/153/153
f 4/4/4 68/68/68 102/102/102
f 147/147/147 152/152/152 140/140/140
f 144/144/144 11/11/11 169/169/169
f 10/10/10 93/93/93 90/90/90
f 164/164/164 3/3/3 94/94/94
f 31/31/31 134/134/134 113/113/113
f 134/134/134 137/137/137 66/66/66
f 134/134/134 66/66/66 113/113/113
f 115/115/115 112/112/112 15/15/15
f 31/31/31 137/137/137 134/134/134
f 73/73/73 102/102/102 100/100/100
f 127/127/127 132/132/132 154/154/154
f 76/76/76 113/113/113 1/1/1
f 57/57/57 170/170/170 95/95/95
f 15/15/15 112/112/112 76/76/76
f 115/115/115 15/15/15 75/75/75
f 45/45/45 51/51/51 98/98/98
f 137/137/137 31/31/31 47/47/47
f 32/32/32 136/136/136 123/123/123
f 22/22/22 30/30/30 136/136/136
f 22/22/22 156/156/156 116/116/116
f 62/62/62 123/123/123 136/136/136
f 165/165/165 136/136/136 32/32/32
f 115/115/115 30/30/30 42/42/42
f 27/27/27 133/133/133 124/124/124
f 143/143/143 59/59/59 24/24/24
f 116/116/116 30/30/30 22/22/22
f 42/42/42 112/112/112 115/115/115
f 114/114/114 47/47/47 31/31/31
f 84/84/84 152/152/152 58/58/58
f 83/83/83 24/24/24 59/59/59
f 116/116/116 42/42/42 30/30/30
f 54/54/54 151/151/151 160/160/160
f 75/75/75 117/117/117 115/115/115
f 148/148/148 169/169/169 11/11/11
f 165/165/165 22/22/22 136/136/136
f 26/26/26 127/127/127 126/126/126
f 83/83/83 58/58/58 54/54/54
f 146/146/146 154/154/154 132/132/132
f 163/163/163 105/105/105 132/132/132
f 30/30/30 115/115/115 117/117/117
f 169/169/169 148/148/148 155/155/155
f 153/153/153 169/169/169 155/155/155
f 72/72/72 135/135/135 119/119/119
f 10/10/10 51/51/51 93/93/93
f 54/54/54 58/58/58 151/151/151
f 129/129/129 45/45/45 36/36/36
f 118/118/118 29/29/29 79/79/79
f 57/57/57 173/173/173 130/130/130
f 84/84/84 58/58/58 41/41/41
f 131/131/131 79/79/79 29/29/29
f 149/149/149 98/98/98 10/10/10
f 9/9/9 125/125/125 117/117/117
f 120/120/120 50/50/50 32/32/32
f 157/157/157 10/10/10 90/90/90
f 82/82/82 137/137/137 47/47/47
f 84/84/84 12/12/12 152/152/152
f 12/12/12 176/176/176 116/116/116
f 172/172/172 49/49/49 170/170/170
f 20/20/20 137/137/137 82/82/82
f 159/159/159 173/173/173 155/155/155
f 20/20/20 66/66/66 137/137/137
f 55/55/55 20/20/20 82/82/82
f 34/34/34 155/155/155 173/173/173
f 23/23/23 40/40/40 122/122/122
f 92/92/92 45/45/45 129/129/129
f 149/149/149 172/172/172 170/170/170
f 176/176/176 42/42/42 116/116/116
f 128/128/128 8/8/8 52/52/52
f 107/107/107 33/33/33 43/43/43
f 139/139/139 43/43/43 33/33/33
f 156/156/156 140/140/140 152/152/152
f 49/49/49 37/37/37 145/145/145
f 161/161/161 140/140/140 175/175/175
f 45/45/45 98/98/98 36/36/36
f 122/122/122 53/53/53 97/97/97
f 110/110/110 153/153/153 34/34/34
f 162/162/162 72/72/72 119/119/119
f 16/16/16 100/100/100 139/139/139
f 108/108/108 52/52/52 8/8/8
f 93/93/93 38/38/38 48/48/48
f 62/62/62 117/117/117 125/125/125
f 37/37/37 90/90/90 143/143/143
f 143/143/143 90/90/90 39/39/39
f 94/94/94 69/69/69 164/164/164
f 79/79/79 131/131/131 168/168/168
f 129/129/129 70/70/70 18/18/18
f 149/149/149 170/170/170 53/53/53
f 92/92/92 18/18/18 69/69/69
f 128/128/128 26/26/26 71/71/71
f 2/2/2 162/162/162 119/119/119
f 93/93/93 92/92/92 38/38/38
f 126/126/126 71/71/71 26/26/26
f 27/27/27 124/124/124 123/123/123
f 150/150/150 146/146/146 171/171/171
f 48/48/48 38/38/38 141/141/141
f 65/65/65 94/94/94 3/3/3
f 35/35/35 142/142/142 101/101/101
f 21/21/21 141/141/141 65/65/65
f 38/38/38 94/94/94 141/141/141
f 46/46/46 101/101/101 142/142/142
f 65/65/65 141/141/141 94/94/94
f 39/39/39 90/90/90 48/48/48
f 51/51/51 45/45/45 93/93/93
f 23/23/23 122/122/122 97/97/97
f 61/61/61 123/123/123 124/124/124
f 145/145/145 160/160/160 60/60/60
f 92/92/92 129/129/129 18/18/18
f 140/140/140 161/161/161 147/147/147
f 89/89/89 39/39/39 48/48/48
f 48/48/48 141/141/141 89/89/89
f 42/42/42 176/176/176 114/114/114
f 89/89/89 21/21/21 64/64/64
f 21/21/21 89/89/89 141/141/141
f 154/154/154 146/146/146 177/177/177
f 149/149/149 10/10/10 157/157/157
f 6/6/6 91/91/91 64/64/64
f 165/165/165 175/175/175 140/140/140
f 6/6/6 55/55/55 85/85/85
f 24/24/24 83/83/83 54/54/54
f 152/152/152 147/147/147 58/58/58
f 151/151/151 58/58/58 147/147/147
f 167/167/167 163/163/163 132/132/132
f 24/24/24 54/54/54 160/160/160
f 34/34/34 173/173/173 57/57/57
f 123/123/123 62/62/62 27/27/27
f 27/27/27 125/125/125 133/133/133
f 43/43/43 101/101/101 107/107/107
f 56/56/56 88/88/88 99/99/99
f 39/39/39 89/89/89 91/91/91
f 169/169/169 153/153/153 144/144/144
f 59/59/59 85/85/85 83/83/83
f 38/38/38 92/92/92 94/94/94
f 37/37/37 157/157/157 90/90/90
f 37/37/37 143/143/143 24/24/24
f 149/149/149 138/138/138 98/98/98
f 26/26/26 28/28/28 132/132/132
f 135/135/135 72/72/72 17/17/17
f 155/155/155 148/148/148 159/159/159
f 51/51/51 10/10/10 98/98/98
f 78/78/78 133/133/133 125/125/125
f 17/17/17 126/126/126 135/135/135
f 104/104/104 95/95/95 5/5/5
f 130/130/130 53/53/53 170/170/170
f 44/44/44 135/135/135 126/126/126
f 105/105/105 158/158/158 80/80/80
f 57/57/57 95/95/95 104/104/104
f 39/39/39 91/91/91 143/143/143
f 34/34/34 57/57/57 104/104/104
f 156/156/156 152/152/152 12/12/12
f 43/43/43 139/139/139 100/100/100
f 53/53/53 138/138/138 149/149/149
f 91/91/91 6/6/6 59/59/59
f 60/60/60 160/160/160 111/111/111
f 11/11/11 144/144/144 107/107/107
f 103/103/103 44/44/44 25/25/25
f 63/63/63 111/111/111 161/161/161
f 119/119/119 29/29/29 77/77/77
f 80/80/80 110/110/110 104/104/104
f 124/124/124 154/154/154 61/61/61
f 12/12/12 116/116/116 156/156/156
f 41/41/41 83/83/83 85/85/85
f 37/37/37 49/49/49 157/157/157
f 144/144/144 153/153/153 106/106/106
f 33/33/33 106/106/106 108/108/108
f 106/106/106 153/153/153 81/81/81
f 110/110/110 34/34/34 104/104/104
f 101/101/101 11/11/11 107/107/107
f 80/80/80 104/104/104 5/5/5
f 158/158/158 153/153/153 110/110/110
f 121/121/121 171/171/171 80/80/80
f 105/105/105 146/146/146 132/132/132
f 81/81/81 153/153/153 158/158/158
f 158/158/158 110/110/110 80/80/80
f 99/99/99 36/36/36 56/56/56
f 167/167/167 106/106/106 81/81/81
f 36/36/36 99/99/99 129/129/129
f 107/107/107 106/106/106 33/33/33
f 11/11/11 109/109/109 148/148/148
f 82/82/82 47/47/47 41/41/41
f 150/150/150 177/177/177 146/146/146
f 59/59/59 143/143/143 91/91/91
f 74/74/74 108/108/108 8/8/8
f 87/87/87 148/148/148 109/109/109
f 84/84/84 41/41/41 47/47/47
f 35/35/35 100/100/100 102/102/102
f 138/138/138 53/53/53 166/166/166
f 144/144/144 106/106/106 107/107/107
f 111/111/111 5/5/5 60/60/60
f 79/79/79 124/124/124 133/133/133
f 95/95/95 60/60/60 5/5/5
f 88/88/88 56/56/56 40/40/40
f 118/118/118 77/77/77 29/29/29
f 105/105/105 163/163/163 158/158/158
f 12/12/12 84/84/84 114/114/114
f 69/69/69 94/94/94 92/92/92
f 47/47/47 114/114/114 84/84/84
f 56/56/56 166/166/166 122/122/122
f 63/63/63 150/150/150 121/121/121
f 111/111/111 151/151/151 161/161/161
f 32/32/32 50/50/50 175/175/175
f 52/52/52 108/108/108 106/106/106
f 122/122/122 166/166/166 53/53/53
f 151/151/151 147/147/147 161/161/161
f 86/86/86 46/46/46 142/142/142
f 53/53/53 130/130/130 97/97/97
f 55/55/55 82/82/82 85/85/85
f 68/68/68 142/142/142 102/102/102
f 42/42/42 114/114/114 112/112/112
f 142/142/142 35/35/35 102/102/102
f 87/87/87 46/46/46 40/40/40
f 46/46/46 109/109/109 101/101/101
f 19/19/19 86/86/86 142/142/142
f 88/88/88 40/40/40 86/86/86
f 23/23/23 87/87/87 40/40/40
f 86/86/86 40/40/40 46/46/46
f 23/23/23 148/148/148 87/87/87
f 87/87/87 109/109/109 46/46/46
f 63/63/63 175/175/175 50/50/50
f 23/23/23 159/159/159 148/148/148
f 24/24/24 145/145/145 37/37/37
f 56/56/56 122/122/122 40/40/40
f 67/67/67 88/88/88 86/86/86
f 31/31/31 112/112/112 114/114/114
f 7/7/7 70/70/70 99/99/99
f 67/67/67 7/7/7 88/88/88
f 19/19/19 67/67/67 86/86/86
f 68/68/68 19/19/19 142/142/142
f 41/41/41 85/85/85 82/82/82
f 83/83/83 41/41/41 58/58/58
f 73/73/73 4/4/4 102/102/102
f 16/16/16 73/73/73 100/100/100
f 74/74/74 16/16/16 139/139/139
f 96/96/96 8/8/8 128/128/128
f 138/138/138 166/166/166 98/98/98
f 126/126/126 17/17/17 71/71/71
f 48/48/48 90/90/90 93/93/93
f 77/77/77 118/118/118 14/14/14
f 60/60/60 95/95/95 145/145/145
f 28/28/28 52/52/52 167/167/167
f 49/49/49 145/145/145 95/95/95
f 63/63/63 121/121/121 111/111/111
f 70/70/70 129/129/129 99/99/99
f 57/57/57 130/130/130 170/170/170
f 109/109/109 11/11/11 101/101/101
f 25/25/25 44/44/44 127/127/127
f 64/64/64 91/91/91 89/89/89
f 25/25/25 127/127/127 13/13/13
f 22/22/22 165/165/165 156/156/156
f 132/132/132 127/127/127 26/26/26
f 151/151/151 111/111/111 160/160/160
f 131/131/131 13/13/13 168/168/168
f 131/131/131 25/25/25 13/13/13
f 36/36/36 98/98/98 166/166/166
f 178/178/178 31/31/31 113/113/113
f 167/167/167 52/52/52 106/106/106
f 76/76/76 178/178/178 113/113/113
f 163/163/163 167/167/167 81/81/81
f 166/166/166 56/56/56 36/36/36
f 171/171/171 105/105/105 80/80/80
f 29/29/29 119/119/119 135/135/135
f 121/121/121 80/80/80 5/5/5
f 52/52/52 28/28/28 128/128/128
f 121/121/121 5/5/5 111/111/111
f 63/63/63 161/161/161 175/175/175
f 44/44/44 126/126/126 127/127/127
f 176/176/176 12/12/12 114/114/114
f 178/178/178 76/76/76 112/112/112
f 28/28/28 26/26/26 128/128/128
f 81/81/81 158/158/158 163/163/163
f 120/120/120 123/123/123 61/61/61
f 35/35/35 101/101/101 43/43/43
f 23/23/23 97/97/97 159/159/159
f 97/97/97 130/130/130 173/173/173
f 154/154/154 13/13/13 127/127/127
f 50/50/50 177/177/177 150/150/150
f 124/124/124 13/13/13 154/154/154
f 160/160/160 145/145/145 24/24/24
f 174/174/174 2/2/2 119/119/119
f 133/133/133 78/78/78 14/14/14
f 171/171/171 121/121/121 150/150/150
f 35/35/35 43/43/43 100/100/100
f 71/71/71 96/96/96 128/128/128
f 120/120/120 32/32/32 123/123/123
f 85/85/85 59/59/59 6/6/6
f 77/77/77 174/174/174 119/119/119
f 9/9/9 117/117/117 75/75/75
f 93/93/93 45/45/45 92/92/92
f 78/78/78 125/125/125 9/9/9
f 50/50/50 120/120/120 61/61/61
f 118/118/118 133/133/133 14/14/14
f 136/136/136 30/30/30 62/62/62
f 135/135/135 44/44/44 103/103/103
f 103/103/103 131/131/131 29/29/29
f 117/117/117 62/62/62 30/30/30
f 79/79/79 133/133/133 118/118/118
f 168/168/168 13/13/13 124/124/124
f 168/168/168 124/124/124 79/79/79
f 95/95/95 170/170/170 49/49/49
f 103/103/103 25/25/25 131/131/131
f 7/7/7 99/99/99 88/88/88
f 135/135/135 103/103/103 29/29/29
f 167/167/167 132/132/132 28/28/28
f 125/125/125 27/27/27 62/62/62
f 49/49/49 172/172/172 157/157/157
f 172/172/172 149/149/149 157/157/157
f 97/97/97 173/173/173 159/159/159
f 32/32/32 175/175/175 165/165/165
f 140/140/140 156/156/156 165/165/165
f 171/171/171 146/146/146 105/105/105
f 154/154/154 177/177/177 61/61/61
f 177/177/177 50/50/50 61/61/61
f 31/31/31 178/178/178 112/112/112
f 50/50/50 150/150/150 63/63/63
f 108/108/108 74/74/74 33/33/33
f 139/139/139 33/33/33 74/74/74
