# frame 000749 
# time 0.375000 
# name Cloth3D 
v -0.000000 0.000000 -0.000000
v 1.000000 0.000000 -0.000000
v -0.000000 1.000000 0.000000
v 1.000000 1.000000 0.000000
v 0.502638 0.493398 0.127173
v -0.000000 0.500000 0.000000
v 0.500000 1.000000 0.000000
v 1.000000 0.500000 0.000000
v 0.500000 -0.000000 0.000000
v 0.247604 0.751713 0.064653
v 0.754202 0.751403 0.064210
v 0.244829 0.243400 0.087751
v 0.759991 0.241534 0.096566
v 0.750000 0.000000 0.000000
v 0.250000 0.000000 0.000000
v 1.000000 0.750000 0.000000
v 1.000000 0.250000 0.000000
v 0.250000 1.000000 0.000000
v 0.750000 1.000000 0.000000
v 0.000000 0.250000 0.000000
v 0.000000 0.750000 -0.000000
v 0.363261 0.215494 0.089010
v 0.632117 0.770763 0.065214
v 0.239329 0.513090 0.100063
v 0.820634 0.244428 0.073977
v 0.882679 0.372222 0.060858
v 0.627181 0.122398 0.051260
v 0.882820 0.435106 0.061006
v 0.877368 0.122921 0.028931
v 0.374592 0.120845 0.054921
v 0.124345 0.123062 0.026385
v 0.493659 0.244162 0.108279
v 0.877733 0.623634 0.042303
v 0.630992 0.623189 0.101049
v 0.876459 0.875441 0.021873
v 0.375067 0.878347 0.046606
v 0.258224 0.598871 0.090213
v 0.122260 0.877848 0.034715
v 0.122069 0.624502 0.046793
v 0.626222 0.873499 0.030510
v 0.119858 0.372749 0.056548
v 0.247977 0.118481 0.053822
v 0.877053 0.749659 0.032764
v 0.880580 0.246931 0.049886
v 0.248677 0.878497 0.043238
v 0.751394 0.873899 0.025527
v 0.122359 0.247671 0.043767
v 0.121120 0.751283 0.044912
v 0.319723 0.592235 0.107043
v 0.588429 0.296872 0.128879
v 0.248023 0.815333 0.055212
v 0.882218 0.498113 0.058329
v 0.428844 0.745239 0.076254
v 0.241112 0.451651 0.105911
v 0.000000 0.375000 0.000000
v 0.500810 0.875429 0.039332
v 0.502356 0.622081 0.101127
v 0.240924 0.369275 0.112010
v 0.120835 0.498337 0.053975
v 0.371172 0.495185 0.126816
v 0.631590 0.243483 0.105462
v 0.500910 0.122642 0.053254
v 0.502326 0.365094 0.153356
v 0.000000 0.625000 0.000000
v 0.000000 0.875000 0.000000
v 0.000000 0.125000 0.000000
v 0.625000 1.000000 0.000000
v 0.875000 1.000000 0.000000
v 0.125000 1.000000 0.000000
v 0.375000 1.000000 0.000000
v 1.000000 0.375000 0.000000
v 1.000000 0.125000 0.000000
v 1.000000 0.875000 0.000000
v 1.000000 0.625000 0.000000
v 0.375000 0.000000 0.000000
v 0.125000 0.000000 0.000000
v 0.875000 0.000000 0.000000
v 0.625000 0.000000 0.000000
v 0.752874 0.121447 0.046005
v 0.634146 0.494344 0.127221
v 0.770501 0.512815 0.101696
v 0.060484 0.311620 0.025674
v 0.181435 0.434353 0.082201
v 0.181929 0.308314 0.076646
v 0.059590 0.436556 0.029286
v 0.687891 0.935230 0.007239
v 0.690048 0.811574 0.047271
v 0.562924 0.936772 0.016390
v 0.060061 0.687551 0.025186
v 0.183324 0.688314 0.064895
v 0.060960 0.561761 0.024915
v 0.186481 0.940510 0.024447
v 0.184401 0.815512 0.052473
v 0.061415 0.938523 0.013000
v 0.437501 0.558267 0.114097
v 0.877301 0.812806 0.029540
v 0.551667 0.745774 0.076260
v 0.311557 0.815100 0.058098
v 0.437715 0.937913 0.020359
v 0.939663 0.812557 0.019358
v 0.815392 0.813487 0.041669
v 0.938118 0.937951 0.009849
v 0.880022 0.184173 0.043161
v 0.567617 0.557934 0.114258
v 0.720150 0.421051 0.142082
v 0.824454 0.589313 0.066171
v 0.817173 0.687402 0.059452
v 0.939367 0.561337 0.023962
v 0.752773 0.812696 0.045056
v 0.691335 0.582346 0.109422
v 0.436013 0.429404 0.140191
v 0.186837 0.059039 0.024825
v 0.062188 0.062075 0.008919
v 0.184485 0.182890 0.055863
v 0.312218 0.060399 0.026437
v 0.310206 0.180823 0.078023
v 0.437747 0.060625 0.027982
v 0.813329 0.061109 0.018947
v 0.938255 0.061806 0.009780
v 0.558448 0.242560 0.106113
v 0.569189 0.429334 0.140394
v 0.526377 0.803230 0.055044
v 0.565393 0.183364 0.079920
v 0.692576 0.182505 0.075365
v 0.563162 0.061332 0.026282
v 0.940398 0.311376 0.027155
v 0.820876 0.307735 0.081259
v 0.942047 0.436272 0.031742
v 0.312303 0.939732 0.024199
v 0.465495 0.676839 0.090055
v 0.817829 0.182952 0.057633
v 0.812910 0.367138 0.098584
v 0.688400 0.060842 0.024816
v 0.062583 0.124453 0.011431
v 0.939577 0.186501 0.020616
v 0.437388 0.181912 0.083303
v 0.063642 0.187270 0.011119
v 0.386508 0.767810 0.070061
v 0.938774 0.686822 0.019343
v 0.371903 0.309504 0.135061
v 0.059929 0.813462 0.023383
v 0.812980 0.937971 0.014902
v 0.183177 0.561014 0.072722
v 0.772479 0.648717 0.079862
v 0.320083 0.529150 0.119833
v 0.720596 0.354618 0.155677
v 0.320803 0.352936 0.155678
v 0.718896 0.746502 0.076268
v 0.319068 0.744751 0.076251
v 0.619703 0.354322 0.155645
v 0.320690 0.401709 0.145669
v 0.288241 0.324529 0.125769
v 0.719510 0.610173 0.103752
v 0.726560 0.291332 0.124260
v 0.674324 0.669310 0.091513
v 0.325966 0.268258 0.112953
v 0.278477 0.657397 0.086109
v 0.719407 0.537274 0.118509
v 0.614400 0.746048 0.076263
v 0.320444 0.465676 0.132699
v 0.420772 0.353524 0.155630
v 1.000000 0.062500 -0.000000
v 0.552897 0.354076 0.155631
v 0.062500 1.000000 0.000000
v 0.416831 0.251452 0.107080
v 0.426183 0.817480 0.061266
v 0.822692 0.478795 0.086545
v 0.756064 0.181245 0.071202
v 0.719227 0.672508 0.091177
v 0.414552 0.660397 0.093407
v 0.635798 0.429764 0.140381
v 0.319455 0.654399 0.094468
v 0.591255 0.674745 0.090603
v 0.937500 0.000000 -0.000000
v 0.457709 0.295710 0.128542
v 0.247076 0.181651 0.068013
v 1.000000 0.437500 0.000000
vt 0.000000 0.000000
vt 1.000000 0.000000
vt 0.000000 1.000000
vt 1.000000 1.000000
vt 0.500000 0.500000
vt 0.000000 0.500000
vt 0.500000 1.000000
vt 1.000000 0.500000
vt 0.500000 0.000000
vt 0.250000 0.750000
vt 0.750000 0.750000
vt 0.250000 0.250000
vt 0.750000 0.250000
vt 0.750000 0.000000
vt 0.250000 0.000000
vt 1.000000 0.750000
vt 1.000000 0.250000
vt 0.250000 1.000000
vt 0.750000 1.000000
vt 0.000000 0.250000
vt 0.000000 0.750000
vt 0.365347 0.220303
vt 0.629073 0.770824
vt 0.245672 0.515386
vt 0.812500 0.250000
vt 0.875000 0.375000
vt 0.625000 0.125000
vt 0.875000 0.437500
vt 0.875000 0.125000
vt 0.375000 0.125000
vt 0.125000 0.125000
vt 0.492214 0.250470
vt 0.875000 0.625000
vt 0.625000 0.625000
vt 0.875000 0.875000
vt 0.375000 0.875000
vt 0.262101 0.599801
vt 0.125000 0.875000
vt 0.125000 0.625000
vt 0.625000 0.875000
vt 0.125000 0.375000
vt 0.250000 0.125000
vt 0.875000 0.750000
vt 0.875000 0.250000
vt 0.250000 0.875000
vt 0.750000 0.875000
vt 0.125000 0.250000
vt 0.125000 0.750000
vt 0.323494 0.593028
vt 0.581754 0.304126
vt 0.250000 0.812500
vt 0.875000 0.500000
vt 0.428466 0.744756
vt 0.248222 0.455442
vt 0.000000 0.375000
vt 0.500000 0.875000
vt 0.500000 0.625000
vt 0.250000 0.375000
vt 0.125000 0.500000
vt 0.375000 0.500000
vt 0.625000 0.250000
vt 0.500000 0.125000
vt 0.500000 0.375000
vt 0.000000 0.625000
vt 0.000000 0.875000
vt 0.000000 0.125000
vt 0.625000 1.000000
vt 0.875000 1.000000
vt 0.125000 1.000000
vt 0.375000 1.000000
vt 1.000000 0.375000
vt 1.000000 0.125000
vt 1.000000 0.875000
vt 1.000000 0.625000
vt 0.375000 0.000000
vt 0.125000 0.000000
vt 0.875000 0.000000
vt 0.625000 0.000000
vt 0.750000 0.125000
vt 0.625000 0.500000
vt 0.760524 0.515669
vt 0.062500 0.312500
vt 0.187500 0.437500
vt 0.187500 0.312500
vt 0.062500 0.437500
vt 0.687500 0.937500
vt 0.687500 0.812500
vt 0.562500 0.937500
vt 0.062500 0.687500
vt 0.187500 0.687500
vt 0.062500 0.562500
vt 0.187500 0.937500
vt 0.187500 0.812500
vt 0.062500 0.937500
vt 0.437500 0.562500
vt 0.875000 0.812500
vt 0.549301 0.745390
vt 0.312500 0.812500
vt 0.437500 0.937500
vt 0.937500 0.812500
vt 0.812500 0.812500
vt 0.937500 0.937500
vt 0.875000 0.187500
vt 0.562500 0.562500
vt 0.704389 0.427402
vt 0.819332 0.591237
vt 0.812500 0.687500
vt 0.937500 0.562500
vt 0.750000 0.812500
vt 0.682510 0.583771
vt 0.437500 0.437500
vt 0.187500 0.062500
vt 0.062500 0.062500
vt 0.187500 0.187500
vt 0.312500 0.062500
vt 0.312500 0.187500
vt 0.437500 0.062500
vt 0.812500 0.062500
vt 0.937500 0.062500
vt 0.554454 0.248535
vt 0.562500 0.437500
vt 0.525016 0.804189
vt 0.562500 0.187500
vt 0.687500 0.187500
vt 0.562500 0.062500
vt 0.937500 0.312500
vt 0.812500 0.312500
vt 0.937500 0.437500
vt 0.312500 0.937500
vt 0.464310 0.678183
vt 0.812500 0.187500
vt 0.800716 0.372483
vt 0.687500 0.062500
vt 0.062500 0.125000
vt 0.937500 0.187500
vt 0.437500 0.187500
vt 0.062500 0.187500
vt 0.386728 0.766561
vt 0.937500 0.687500
vt 0.377625 0.317694
vt 0.062500 0.812500
vt 0.812500 0.937500
vt 0.187500 0.562500
vt 0.765906 0.648544
vt 0.325299 0.531549
vt 0.700931 0.365617
vt 0.333221 0.363580
vt 0.713668 0.743425
vt 0.320744 0.742510
vt 0.609018 0.364258
vt 0.330472 0.409069
vt 0.296906 0.332149
vt 0.710797 0.610013
vt 0.713437 0.300753
vt 0.668274 0.669022
vt 0.331126 0.276226
vt 0.281585 0.657008
vt 0.708053 0.538747
vt 0.611087 0.745101
vt 0.327705 0.470108
vt 0.424106 0.363862
vt 1.000000 0.062500
vt 0.547160 0.364157
vt 0.062500 1.000000
vt 0.418341 0.256674
vt 0.425703 0.815414
vt 0.812755 0.481587
vt 0.750000 0.187500
vt 0.712257 0.670894
vt 0.414679 0.661630
vt 0.625000 0.437500
vt 0.322237 0.653782
vt 0.587160 0.675778
vt 0.937500 0.000000
vt 0.458173 0.302976
vt 0.250000 0.187500
vt 1.000000 0.437500
vn -0.072442 -0.072442 0.994738
vn 0.083219 -0.083219 0.993050
vn -0.069485 0.138970 0.987856
vn 0.081491 0.081491 0.993337
vn -0.000952 0.196355 0.980532
vn -0.408019 0.015246 0.912846
vn 0.013685 0.290091 0.956901
vn 0.444479 0.025186 0.895435
vn 0.006400 -0.400337 0.916346
vn -0.102756 0.159374 0.981856
vn 0.244637 0.236569 0.940313
vn -0.242358 -0.277124 0.929766
vn 0.253134 -0.300024 0.919733
vn 0.021835 -0.336902 0.941286
vn -0.003576 -0.390280 0.920689
vn 0.303834 0.000217 0.952725
vn 0.376168 -0.024848 0.926218
vn 0.001362 0.380699 0.924698
vn -0.030480 0.180677 0.983070
vn -0.282792 -0.057576 0.957452
vn -0.377101 0.007384 0.926143
vn -0.008191 -0.378054 0.925747
vn 0.007840 0.379930 0.924982
vn -0.324585 0.123020 0.937822
vn 0.342678 -0.162026 0.925375
vn 0.454340 -0.051170 0.889357
vn 0.021395 -0.394881 0.918483
vn 0.434658 0.027317 0.900181
vn 0.204043 -0.217673 0.954455
vn -0.008324 -0.389884 0.920826
vn -0.231526 -0.122488 0.965087
vn -0.010391 -0.381954 0.924123
vn 0.342128 0.071391 0.936937
vn 0.000251 0.197711 0.980260
vn 0.125697 0.136091 0.982690
vn 0.008879 0.288970 0.957297
vn -0.247857 0.146120 0.957714
vn -0.162390 0.160148 0.973644
vn -0.333577 0.023236 0.942436
vn 0.052948 0.297520 0.953246
vn -0.409335 -0.041217 0.911453
vn -0.113531 -0.302854 0.946251
vn 0.236240 0.063204 0.969637
vn 0.381745 -0.088928 0.919980
vn -0.037452 0.231804 0.972041
vn 0.002395 0.270518 0.962712
vn -0.365807 -0.127786 0.921876
vn -0.267380 0.050853 0.962248
vn -0.148472 0.185891 0.971288
vn 0.008823 -0.409982 0.912051
vn -0.043311 0.166907 0.985021
vn 0.409138 0.082092 0.908772
vn 0.000297 0.213723 0.976894
vn -0.372235 0.083323 0.924391
vn -0.413311 -0.013969 0.910483
vn 0.063860 0.282428 0.957161
vn -0.000431 0.196168 0.980570
vn -0.426606 -0.043607 0.903386
vn -0.383554 0.053198 0.921985
vn -0.001365 0.196117 0.980579
vn 0.017742 -0.403351 0.914874
vn 0.017742 -0.410390 0.911737
vn -0.001041 0.196631 0.980477
vn -0.386093 -0.002417 0.922457
vn -0.287426 0.041175 0.956917
vn -0.176027 -0.009458 0.984340
vn 0.036964 0.194016 0.980302
vn 0.020158 0.201646 0.979251
vn -0.037332 0.279847 0.959319
vn 0.016986 0.347001 0.937711
vn 0.462679 -0.013993 0.886415
vn 0.233092 -0.034167 0.971854
vn 0.233761 0.036331 0.971615
vn 0.336832 0.017631 0.941400
vn -0.004191 -0.404180 0.914670
vn -0.062642 -0.237791 0.969294
vn 0.026826 -0.218715 0.975420
vn 0.003489 -0.382642 0.923890
vn 0.088061 -0.372689 0.923768
vn -0.000541 0.196676 0.980468
vn 0.380578 0.173106 0.908402
vn -0.379983 -0.063388 0.922819
vn -0.389700 0.050866 0.919536
vn -0.386419 -0.143226 0.911135
vn -0.417829 0.006712 0.908501
vn 0.012108 0.223861 0.974546
vn 0.029650 0.354922 0.934426
vn 0.043333 0.273211 0.960978
vn -0.354931 0.005961 0.934873
vn -0.224999 0.084302 0.970705
vn -0.377732 0.018387 0.925732
vn -0.039572 0.305383 0.951407
vn -0.104290 0.145949 0.983780
vn -0.117043 0.156050 0.980790
vn -0.000535 0.195873 0.980629
vn 0.182058 0.087389 0.979397
vn 0.003372 0.279290 0.960201
vn -0.044287 0.205041 0.977751
vn 0.030866 0.332770 0.942503
vn 0.217509 0.049713 0.974792
vn 0.128857 0.188583 0.973567
vn 0.095532 0.103499 0.990031
vn 0.310276 -0.186059 0.932261
vn -0.001131 0.196258 0.980552
vn 0.214829 0.181558 0.959628
vn 0.361430 0.115737 0.925188
vn 0.304427 0.122417 0.944637
vn 0.377559 0.061337 0.923952
vn 0.060642 0.318529 0.945971
vn 0.000343 0.196506 0.980503
vn -0.000922 0.196918 0.980419
vn -0.102512 -0.314058 0.943853
vn -0.125717 -0.087422 0.988207
vn -0.252966 -0.212081 0.943944
vn -0.004578 -0.412895 0.910767
vn -0.061060 -0.326494 0.943225
vn 0.006304 -0.405009 0.914291
vn 0.059814 -0.298357 0.952578
vn 0.106055 -0.108686 0.988403
vn 0.017677 -0.398213 0.917122
vn -0.001232 0.196842 0.980435
vn 0.043738 0.289851 0.956072
vn 0.019979 -0.405252 0.913987
vn 0.042540 -0.404054 0.913745
vn 0.007816 -0.391270 0.920243
vn 0.420700 -0.045046 0.906081
vn 0.414828 -0.143969 0.898438
vn 0.457367 0.010355 0.889218
vn 0.003348 0.349248 0.937024
vn 0.000012 0.195540 0.980696
vn 0.225169 -0.300379 0.926861
vn 0.469969 -0.096508 0.877391
vn 0.022505 -0.370045 0.928741
vn -0.206479 -0.013966 0.978351
vn 0.332153 -0.093399 0.938590
vn -0.034153 -0.372316 0.927477
vn -0.257665 -0.043902 0.965236
vn -0.021250 0.223954 0.974368
vn 0.295874 0.026740 0.954853
vn -0.050868 -0.437140 0.897954
vn -0.313142 0.044179 0.948678
vn 0.001940 0.208630 0.977993
vn -0.330096 0.093839 0.939272
vn 0.310347 0.145357 0.939444
vn -0.126068 0.191176 0.973426
vn 0.262497 -0.103773 0.959336
vn -0.260186 -0.203787 0.943808
vn 0.170787 0.272366 0.946915
vn -0.075523 0.221722 0.972181
vn 0.001967 -0.116905 0.993141
vn -0.232138 0.178610 0.956143
vn -0.334354 -0.343803 0.877501
vn 0.120076 0.187074 0.974980
vn 0.255094 -0.353223 0.900090
vn -0.002617 0.196123 0.980576
vn -0.098011 -0.369233 0.924154
vn -0.190693 0.170155 0.966790
vn 0.181262 0.192962 0.964318
vn -0.001131 0.323625 0.946185
vn -0.148547 0.184341 0.971572
vn 0.000272 -0.156866 0.987620
vn 0.165375 -0.000000 0.986231
vn 0.000059 -0.069306 0.997595
vn 0.000000 0.206425 0.978462
vn -0.038718 -0.396232 0.917334
vn 0.022550 0.224033 0.974321
vn 0.400792 0.111208 0.909394
vn 0.125850 -0.393889 0.910501
vn 0.121832 0.194788 0.973250
vn -0.000209 0.195793 0.980645
vn -0.000424 0.196844 0.980435
vn -0.130570 0.193354 0.972402
vn 0.000397 0.195439 0.980716
vn 0.000000 -0.165219 0.986257
vn -0.017091 -0.414747 0.909776
vn -0.169915 -0.263570 0.949558
vn 0.483911 0.000000 0.875117
f 1/1/1 113/113/113 66/66/66
f 155/155/155 34/34/34 153/153/153
f 4/4/4 68/68/68 102/102/102
f 96/96/96 101/101/101 43/43/43
f 144/144/144 11/11/11 169/169/169
f 10/10/10 93/93/93 90/90/90
f 164/164/164 3/3/3 94/94/94
f 31/31/31 134/134/134 113/113/113
f 134/134/134 137/137/137 66/66/66
f 134/134/134 66/66/66 113/113/113
f 115/115/115 112/112/112 15/15/15
f 31/31/31 137/137/137 134/134/134
f 73/73/73 102/102/102 100/100/100
f 127/127/127 132/132/132 154/154/154
f 76/76/76 113/113/113 1/1/1
f 57/57/57 170/170/170 95/95/95
f 15/15/15 112/112/112 76/76/76
f 115/115/115 15/15/15 75/75/75
f 45/45/45 51/51/51 98/98/98
f 137/137/137 31/31/31 47/47/47
f 32/32/32 136/136/136 123/123/123
f 22/22/22 30/30/30 136/136/136
f 22/22/22 156/156/156 116/116/116
f 62/62/62 123/123/123 136/136/136
f 165/165/165 136/136/136 32/32/32
f 115/115/115 30/30/30 42/42/42
f 150/150/150 50/50/50 154/154/154
f 143/143/143 59/59/59 24/24/24
f 116/116/116 30/30/30 22/22/22
f 42/42/42 112/112/112 115/115/115
f 114/114/114 47/47/47 31/31/31
f 84/84/84 152/152/152 58/58/58
f 83/83/83 24/24/24 59/59/59
f 116/116/116 42/42/42 30/30/30
f 54/54/54 151/151/151 160/160/160
f 75/75/75 117/117/117 115/115/115
f 148/148/148 169/169/169 11/11/11
f 165/165/165 22/22/22 136/136/136
f 26/26/26 127/127/127 126/126/126
f 83/83/83 58/58/58 54/54/54
f 146/146/146 154/154/154 132/132/132
f 63/63/63 121/121/121 111/111/111
f 30/30/30 115/115/115 117/117/117
f 169/169/169 148/148/148 155/155/155
f 153/153/153 169/169/169 155/155/155
f 72/72/72 135/135/135 119/119/119
f 10/10/10 51/51/51 93/93/93
f 54/54/54 58/58/58 151/151/151
f 129/129/129 45/45/45 36/36/36
f 112/112/112 31/31/31 76/76/76
f 57/57/57 173/173/173 130/130/130
f 84/84/84 58/58/58 41/41/41
f 113/113/113 76/76/76 31/31/31
f 149/149/149 98/98/98 10/10/10
f 9/9/9 125/125/125 117/117/117
f 120/120/120 50/50/50 32/32/32
f 157/157/157 10/10/10 90/90/90
f 82/82/82 137/137/137 47/47/47
f 84/84/84 12/12/12 152/152/152
f 12/12/12 176/176/176 116/116/116
f 172/172/172 49/49/49 170/170/170
f 20/20/20 137/137/137 82/82/82
f 159/159/159 173/173/173 155/155/155
f 20/20/20 66/66/66 137/137/137
f 55/55/55 20/20/20 82/82/82
f 34/34/34 155/155/155 173/173/173
f 23/23/23 40/40/40 122/122/122
f 92/92/92 45/45/45 129/129/129
f 149/149/149 172/172/172 170/170/170
f 176/176/176 42/42/42 116/116/116
f 128/128/128 8/8/8 52/52/52
f 107/107/107 33/33/33 43/43/43
f 139/139/139 43/43/43 33/33/33
f 156/156/156 140/140/140 152/152/152
f 49/49/49 37/37/37 145/145/145
f 161/161/161 140/140/140 175/175/175
f 45/45/45 98/98/98 36/36/36
f 122/122/122 53/53/53 97/97/97
f 110/110/110 153/153/153 34/34/34
f 162/162/162 72/72/72 119/119/119
f 16/16/16 100/100/100 139/139/139
f 108/108/108 52/52/52 8/8/8
f 93/93/93 38/38/38 48/48/48
f 62/62/62 117/117/117 125/125/125
f 37/37/37 90/90/90 143/143/143
f 143/143/143 90/90/90 39/39/39
f 94/94/94 69/69/69 164/164/164
f 79/79/79 131/131/131 168/168/168
f 129/129/129 70/70/70 18/18/18
f 149/149/149 170/170/170 53/53/53
f 92/92/92 18/18/18 69/69/69
f 128/128/128 26/26/26 71/71/71
f 2/2/2 162/162/162 119/119/119
f 93/93/93 92/92/92 38/38/38
f 126/126/126 71/71/71 26/26/26
f 27/27/27 124/124/124 123/123/123
f 150/150/150 146/146/146 171/171/171
f 48/48/48 38/38/38 141/141/141
f 65/65/65 94/94/94 3/3/3
f 35/35/35 142/142/142 101/101/101
f 21/21/21 141/141/141 65/65/65
f 38/38/38 94/94/94 141/141/141
f 46/46/46 101/101/101 142/142/142
f 65/65/65 141/141/141 94/94/94
f 39/39/39 90/90/90 48/48/48
f 51/51/51 45/45/45 93/93/93
f 23/23/23 122/122/122 97/97/97
f 61/61/61 123/123/123 124/124/124
f 145/145/145 160/160/160 60/60/60
f 92/92/92 129/129/129 18/18/18
f 140/140/140 161/161/161 147/147/147
f 89/89/89 39/39/39 48/48/48
f 48/48/48 141/141/141 89/89/89
f 42/42/42 176/176/176 114/114/114
f 89/89/89 21/21/21 64/64/64
f 21/21/21 89/89/89 141/141/141
f 79/79/79 118/118/118 131/131/131
f 149/149/149 10/10/10 157/157/157
f 6/6/6 91/91/91 64/64/64
f 165/165/165 175/175/175 140/140/140
f 6/6/6 55/55/55 85/85/85
f 24/24/24 83/83/83 54/54/54
f 152/152/152 147/147/147 58/58/58
f 151/151/151 58/58/58 147/147/147
f 63/63/63 163/163/163 121/121/121
f 24/24/24 54/54/54 160/160/160
f 34/34/34 173/173/173 57/57/57
f 123/123/123 62/62/62 27/27/27
f 27/27/27 125/125/125 133/133/133
f 43/43/43 101/101/101 107/107/107
f 56/56/56 88/88/88 99/99/99
f 39/39/39 89/89/89 91/91/91
f 169/169/169 153/153/153 144/144/144
f 59/59/59 85/85/85 83/83/83
f 38/38/38 92/92/92 94/94/94
f 37/37/37 157/157/157 90/90/90
f 37/37/37 143/143/143 24/24/24
f 149/149/149 138/138/138 98/98/98
f 26/26/26 28/28/28 132/132/132
f 135/135/135 72/72/72 17/17/17
f 155/155/155 148/148/148 159/159/159
f 51/51/51 10/10/10 98/98/98
f 78/78/78 133/133/133 125/125/125
f 17/17/17 126/126/126 135/135/135
f 104/104/104 95/95/95 5/5/5
f 130/130/130 53/53/53 170/170/170
f 44/44/44 135/135/135 126/126/126
f 105/105/105 158/158/158 80/80/80
f 57/57/57 95/95/95 104/104/104
f 39/39/39 91/91/91 143/143/143
f 34/34/34 57/57/57 104/104/104
f 156/156/156 152/152/152 12/12/12
f 43/43/43 139/139/139 100/100/100
f 53/53/53 138/138/138 149/149/149
f 91/91/91 6/6/6 59/59/59
f 60/60/60 160/160/160 111/111/111
f 11/11/11 144/144/144 107/107/107
f 103/103/103 44/44/44 25/25/25
f 50/50/50 150/150/150 163/163/163
f 119/119/119 29/29/29 77/77/77
f 80/80/80 110/110/110 104/104/104
f 124/124/124 154/154/154 61/61/61
f 12/12/12 116/116/116 156/156/156
f 41/41/41 83/83/83 85/85/85
f 37/37/37 49/49/49 157/157/157
f 144/144/144 153/153/153 106/106/106
f 96/96/96 43/43/43 100/100/100
f 106/106/106 153/153/153 81/81/81
f 110/110/110 34/34/34 104/104/104
f 101/101/101 11/11/11 107/107/107
f 80/80/80 104/104/104 5/5/5
f 158/158/158 153/153/153 110/110/110
f 121/121/121 171/171/171 80/80/80
f 105/105/105 146/146/146 132/132/132
f 81/81/81 153/153/153 158/158/158
f 158/158/158 110/110/110 80/80/80
f 99/99/99 36/36/36 56/56/56
f 167/167/167 106/106/106 81/81/81
f 36/36/36 99/99/99 129/129/129
f 107/107/107 106/106/106 33/33/33
f 11/11/11 109/109/109 148/148/148
f 82/82/82 47/47/47 41/41/41
f 29/29/29 131/131/131 118/118/118
f 59/59/59 143/143/143 91/91/91
f 74/74/74 108/108/108 8/8/8
f 87/87/87 148/148/148 109/109/109
f 84/84/84 41/41/41 47/47/47
f 35/35/35 100/100/100 102/102/102
f 138/138/138 53/53/53 166/166/166
f 144/144/144 106/106/106 107/107/107
f 111/111/111 5/5/5 60/60/60
f 61/61/61 154/154/154 50/50/50
f 95/95/95 60/60/60 5/5/5
f 88/88/88 56/56/56 40/40/40
f 118/118/118 77/77/77 29/29/29
f 161/161/161 175/175/175 163/163/163
f 12/12/12 84/84/84 114/114/114
f 69/69/69 94/94/94 92/92/92
f 47/47/47 114/114/114 84/84/84
f 56/56/56 166/166/166 122/122/122
f 74/74/74 139/139/139 108/108/108
f 111/111/111 151/151/151 161/161/161
f 35/35/35 101/101/101 96/96/96
f 35/35/35 96/96/96 100/100/100
f 122/122/122 166/166/166 53/53/53
f 151/151/151 147/147/147 161/161/161
f 86/86/86 46/46/46 142/142/142
f 53/53/53 130/130/130 97/97/97
f 55/55/55 82/82/82 85/85/85
f 68/68/68 142/142/142 102/102/102
f 42/42/42 114/114/114 112/112/112
f 142/142/142 35/35/35 102/102/102
f 87/87/87 46/46/46 40/40/40
f 46/46/46 109/109/109 101/101/101
f 19/19/19 86/86/86 142/142/142
f 88/88/88 40/40/40 86/86/86
f 23/23/23 87/87/87 40/40/40
f 86/86/86 40/40/40 46/46/46
f 23/23/23 148/148/148 87/87/87
f 87/87/87 109/109/109 46/46/46
f 33/33/33 108/108/108 139/139/139
f 23/23/23 159/159/159 148/148/148
f 24/24/24 145/145/145 37/37/37
f 56/56/56 122/122/122 40/40/40
f 67/67/67 88/88/88 86/86/86
f 31/31/31 112/112/112 114/114/114
f 7/7/7 70/70/70 99/99/99
f 67/67/67 7/7/7 88/88/88
f 19/19/19 67/67/67 86/86/86
f 68/68/68 19/19/19 142/142/142
f 41/41/41 85/85/85 82/82/82
f 83/83/83 41/41/41 58/58/58
f 73/73/73 4/4/4 102/102/102
f 16/16/16 73/73/73 100/100/100
f 74/74/74 16/16/16 139/139/139
f 177/177/177 8/8/8 128/128/128
f 138/138/138 166/166/166 98/98/98
f 126/126/126 17/17/17 71/71/71
f 48/48/48 90/90/90 93/93/93
f 77/77/77 118/118/118 14/14/14
f 60/60/60 95/95/95 145/145/145
f 28/28/28 52/52/52 167/167/167
f 49/49/49 145/145/145 95/95/95
f 163/163/163 175/175/175 50/50/50
f 70/70/70 129/129/129 99/99/99
f 57/57/57 130/130/130 170/170/170
f 109/109/109 11/11/11 101/101/101
f 25/25/25 44/44/44 127/127/127
f 64/64/64 91/91/91 89/89/89
f 25/25/25 127/127/127 13/13/13
f 22/22/22 165/165/165 156/156/156
f 132/132/132 127/127/127 26/26/26
f 151/151/151 111/111/111 160/160/160
f 131/131/131 13/13/13 168/168/168
f 131/131/131 25/25/25 13/13/13
f 36/36/36 98/98/98 166/166/166
f 105/105/105 132/132/132 167/167/167
f 167/167/167 52/52/52 106/106/106
f 105/105/105 167/167/167 81/81/81
f 105/105/105 81/81/81 158/158/158
f 166/166/166 56/56/56 36/36/36
f 171/171/171 105/105/105 80/80/80
f 29/29/29 119/119/119 135/135/135
f 121/121/121 80/80/80 5/5/5
f 52/52/52 28/28/28 128/128/128
f 121/121/121 5/5/5 111/111/111
f 63/63/63 111/111/111 161/161/161
f 44/44/44 126/126/126 127/127/127
f 176/176/176 12/12/12 114/114/114
f 163/163/163 150/150/150 121/121/121
f 28/28/28 26/26/26 128/128/128
f 163/163/163 63/63/63 161/161/161
f 120/120/120 123/123/123 61/61/61
f 124/124/124 27/27/27 79/79/79
f 23/23/23 97/97/97 159/159/159
f 97/97/97 130/130/130 173/173/173
f 154/154/154 13/13/13 127/127/127
f 154/154/154 146/146/146 150/150/150
f 124/124/124 13/13/13 154/154/154
f 160/160/160 145/145/145 24/24/24
f 174/174/174 2/2/2 119/119/119
f 133/133/133 78/78/78 14/14/14
f 171/171/171 121/121/121 150/150/150
f 133/133/133 79/79/79 27/27/27
f 71/71/71 177/177/177 128/128/128
f 120/120/120 32/32/32 123/123/123
f 85/85/85 59/59/59 6/6/6
f 77/77/77 174/174/174 119/119/119
f 9/9/9 117/117/117 75/75/75
f 93/93/93 45/45/45 92/92/92
f 78/78/78 125/125/125 9/9/9
f 50/50/50 120/120/120 61/61/61
f 118/118/118 133/133/133 14/14/14
f 136/136/136 30/30/30 62/62/62
f 135/135/135 44/44/44 103/103/103
f 103/103/103 131/131/131 29/29/29
f 117/117/117 62/62/62 30/30/30
f 79/79/79 133/133/133 118/118/118
f 168/168/168 13/13/13 124/124/124
f 168/168/168 124/124/124 79/79/79
f 95/95/95 170/170/170 49/49/49
f 103/103/103 25/25/25 131/131/131
f 7/7/7 99/99/99 88/88/88
f 135/135/135 103/103/103 29/29/29
f 167/167/167 132/132/132 28/28/28
f 125/125/125 27/27/27 62/62/62
f 49/49/49 172/172/172 157/157/157
f 172/172/172 149/149/149 157/157/157
f 97/97/97 173/173/173 159/159/159
f 32/32/32 175/175/175 165/165/165
f 140/140/140 156/156/156 165/165/165
f 171/171/171 146/146/146 105/105/105
f 147/147/147 152/152/152 140/140/140
f 32/32/32 50/50/50 175/175/175
f 52/52/52 108/108/108 106/106/106
f 33/33/33 106/106/106 108/108/108
