# frame 000768 
# time 0.384500 
# name Cloth3D 
v -0.000000 0.000000 -0.000000
v 1.000000 0.000000 -0.000000
v -0.000000 1.000000 0.000000
v 1.000000 1.000000 0.000000
v 0.502152 0.491971 0.130544
v -0.000000 0.500000 0.000000
v 0.500000 1.000000 0.000000
v 1.000000 0.500000 0.000000
v 0.500000 -0.000000 0.000000
v 0.248148 0.750010 0.060805
v 0.752497 0.750298 0.055062
v 0.243826 0.244629 0.087432
v 0.756993 0.245176 0.086511
v 0.750000 0.000000 0.000000
v 0.250000 0.000000 0.000000
v 1.000000 0.750000 0.000000
v 1.000000 0.250000 0.000000
v 0.250000 1.000000 0.000000
v 0.750000 1.000000 0.000000
v 0.000000 0.250000 0.000000
v 0.000000 0.750000 -0.000000
v 0.361996 0.213112 0.097504
v 0.631208 0.769691 0.057185
v 0.239373 0.512069 0.099373
v 0.817376 0.247189 0.063635
v 0.882706 0.372683 0.060156
v 0.626626 0.121876 0.052730
v 0.883154 0.435294 0.061614
v 0.876057 0.123887 0.022441
v 0.374012 0.120087 0.058003
v 0.123701 0.123004 0.027477
v 0.492920 0.243697 0.111431
v 0.876628 0.622787 0.038665
v 0.630357 0.621726 0.097975
v 0.875399 0.874195 0.013472
v 0.375114 0.874300 0.034280
v 0.257415 0.598126 0.091944
v 0.123725 0.875779 0.025863
v 0.123293 0.623764 0.042438
v 0.625030 0.869843 0.013380
v 0.118690 0.372681 0.058713
v 0.247595 0.119590 0.052537
v 0.875466 0.748409 0.025111
v 0.877351 0.248801 0.040144
v 0.249465 0.875461 0.033891
v 0.750273 0.871292 0.010115
v 0.119289 0.247017 0.051380
v 0.122136 0.750143 0.040288
v 0.319730 0.590674 0.105475
v 0.588203 0.295490 0.134178
v 0.248832 0.812846 0.047887
v 0.882034 0.498008 0.058347
v 0.429856 0.752399 0.064890
v 0.239416 0.451182 0.110053
v 0.000000 0.375000 0.000000
v 0.500202 0.872010 0.025341
v 0.502068 0.619917 0.098256
v 0.237862 0.369017 0.118807
v 0.120304 0.498205 0.054523
v 0.370271 0.494137 0.129976
v 0.631115 0.243254 0.108277
v 0.500568 0.119703 0.060641
v 0.499341 0.365220 0.162774
v 0.000000 0.625000 0.000000
v 0.000000 0.875000 0.000000
v 0.000000 0.125000 0.000000
v 0.625000 1.000000 0.000000
v 0.875000 1.000000 0.000000
v 0.125000 1.000000 0.000000
v 0.375000 1.000000 0.000000
v 1.000000 0.375000 0.000000
v 1.000000 0.125000 0.000000
v 1.000000 0.875000 0.000000
v 1.000000 0.625000 0.000000
v 0.375000 0.000000 0.000000
v 0.125000 0.000000 0.000000
v 0.875000 0.000000 0.000000
v 0.625000 0.000000 0.000000
v 0.752207 0.120939 0.047025
v 0.634175 0.493193 0.130506
v 0.771389 0.512908 0.104404
v 0.059071 0.311471 0.028768
v 0.179243 0.434229 0.086973
v 0.178588 0.307936 0.083538
v 0.059152 0.436560 0.030005
v 0.687352 0.934844 0.001930
v 0.688774 0.809844 0.035895
v 0.562344 0.934626 0.004709
v 0.062351 0.687054 0.018056
v 0.184266 0.687021 0.060207
v 0.062084 0.561465 0.021594
v 0.187251 0.938361 0.017747
v 0.185528 0.813448 0.045007
v 0.061921 0.938022 0.011012
v 0.437093 0.556462 0.114311
v 1.000000 0.437500 0.000000
v 0.551161 0.752928 0.064895
v 0.311942 0.813132 0.053983
v 0.437714 0.937042 0.017120
v 0.938650 0.811988 0.016210
v 0.813343 0.811437 0.028788
v 0.937450 0.937265 0.003696
v 0.876450 0.186325 0.031263
v 0.567226 0.556264 0.114483
v 0.720151 0.420741 0.148834
v 0.823558 0.588538 0.063712
v 0.814228 0.685680 0.048858
v 0.939228 0.561153 0.023532
v 0.751123 0.810538 0.032069
v 0.690821 0.581533 0.108238
v 0.434929 0.428655 0.146576
v 0.186607 0.058703 0.026370
v 0.062637 0.062460 0.004659
v 0.182688 0.182591 0.060119
v 0.311960 0.058806 0.030518
v 0.309222 0.181565 0.078694
v 0.437509 0.059400 0.031145
v 0.813146 0.060671 0.019680
v 0.937003 0.062912 -0.001615
v 0.557876 0.242114 0.108989
v 0.569167 0.428387 0.146861
v 0.526115 0.801980 0.048929
v 0.564857 0.182240 0.083691
v 0.691597 0.181926 0.077043
v 0.562924 0.060051 0.029367
v 0.937979 0.312330 0.020657
v 0.821296 0.308926 0.080335
v 0.940363 0.436373 0.028411
v 0.312539 0.937327 0.016984
v 0.465403 0.674254 0.084549
v 0.815368 0.184799 0.049475
v 0.816004 0.367118 0.103648
v 0.688043 0.060497 0.025834
v 0.062845 0.124820 0.008686
v 0.937777 0.187389 0.014190
v 0.436683 0.181880 0.084806
v 0.061014 0.186662 0.019353
v 0.386783 0.765138 0.062827
v 0.937637 0.686271 0.014764
v 0.370965 0.309951 0.136975
v 0.060570 0.812688 0.020337
v 0.812323 0.936277 0.004520
v 0.183263 0.560337 0.071752
v 0.770011 0.647296 0.071663
v 0.320087 0.528172 0.121269
v 0.720548 0.365988 0.162828
v 0.320756 0.364305 0.162829
v 0.718866 0.753657 0.064902
v 0.319106 0.750744 0.065422
v 0.619741 0.365690 0.162790
v 0.320691 0.401460 0.153288
v 0.286270 0.324671 0.129191
v 0.719512 0.609604 0.101124
v 0.725168 0.293348 0.119468
v 0.673358 0.668113 0.086076
v 0.324985 0.269624 0.113043
v 0.278550 0.655802 0.083773
v 0.719409 0.536975 0.119453
v 0.613570 0.753200 0.064898
v 0.320446 0.465092 0.137208
v 0.419550 0.364886 0.162773
v 1.000000 0.062500 -0.000000
v 0.772120 0.449999 0.118103
v 0.062500 1.000000 0.000000
v 0.415825 0.248604 0.116039
v 0.426015 0.813215 0.047099
v 0.823639 0.478781 0.089548
v 0.754166 0.183044 0.065877
v 0.719230 0.671792 0.085473
v 0.414599 0.657839 0.088705
v 0.636267 0.428818 0.146841
v 0.319464 0.652275 0.089936
v 0.590676 0.672863 0.085051
v 0.937500 0.000000 -0.000000
v 0.456979 0.294056 0.135209
v 0.245342 0.181198 0.073044
v 0.657943 0.293455 0.131620
v 0.124644 0.061162 0.014451
vt 0.000000 0.000000
vt 1.000000 0.000000
vt 0.000000 1.000000
vt 1.000000 1.000000
vt 0.500000 0.500000
vt 0.000000 0.500000
vt 0.500000 1.000000
vt 1.000000 0.500000
vt 0.500000 0.000000
vt 0.250000 0.750000
vt 0.750000 0.750000
vt 0.250000 0.250000
vt 0.750000 0.250000
vt 0.750000 0.000000
vt 0.250000 0.000000
vt 1.000000 0.750000
vt 1.000000 0.250000
vt 0.250000 1.000000
vt 0.750000 1.000000
vt 0.000000 0.250000
vt 0.000000 0.750000
vt 0.365347 0.220303
vt 0.629073 0.770824
vt 0.245672 0.515386
vt 0.812500 0.250000
vt 0.875000 0.375000
vt 0.625000 0.125000
vt 0.875000 0.437500
vt 0.875000 0.125000
vt 0.375000 0.125000
vt 0.125000 0.125000
vt 0.492214 0.250470
vt 0.875000 0.625000
vt 0.625000 0.625000
vt 0.875000 0.875000
vt 0.375000 0.875000
vt 0.262101 0.599801
vt 0.125000 0.875000
vt 0.125000 0.625000
vt 0.625000 0.875000
vt 0.125000 0.375000
vt 0.250000 0.125000
vt 0.875000 0.750000
vt 0.875000 0.250000
vt 0.250000 0.875000
vt 0.750000 0.875000
vt 0.125000 0.250000
vt 0.125000 0.750000
vt 0.323616 0.593033
vt 0.581754 0.304126
vt 0.250000 0.812500
vt 0.875000 0.500000
vt 0.429343 0.754875
vt 0.248222 0.455442
vt 0.000000 0.375000
vt 0.500000 0.875000
vt 0.500000 0.625000
vt 0.250000 0.375000
vt 0.125000 0.500000
vt 0.375000 0.500000
vt 0.625000 0.250000
vt 0.500000 0.125000
vt 0.497759 0.375364
vt 0.000000 0.625000
vt 0.000000 0.875000
vt 0.000000 0.125000
vt 0.625000 1.000000
vt 0.875000 1.000000
vt 0.125000 1.000000
vt 0.375000 1.000000
vt 1.000000 0.375000
vt 1.000000 0.125000
vt 1.000000 0.875000
vt 1.000000 0.625000
vt 0.375000 0.000000
vt 0.125000 0.000000
vt 0.875000 0.000000
vt 0.625000 0.000000
vt 0.750000 0.125000
vt 0.625000 0.500000
vt 0.760524 0.515669
vt 0.062500 0.312500
vt 0.187500 0.437500
vt 0.187500 0.312500
vt 0.062500 0.437500
vt 0.687500 0.937500
vt 0.687500 0.812500
vt 0.562500 0.937500
vt 0.062500 0.687500
vt 0.187500 0.687500
vt 0.062500 0.562500
vt 0.187500 0.937500
vt 0.187500 0.812500
vt 0.062500 0.937500
vt 0.437500 0.562500
vt 1.000000 0.437500
vt 0.549334 0.754792
vt 0.312500 0.812500
vt 0.437500 0.937500
vt 0.937500 0.812500
vt 0.812500 0.812500
vt 0.937500 0.937500
vt 0.875000 0.187500
vt 0.562500 0.562500
vt 0.702872 0.427484
vt 0.819332 0.591237
vt 0.812500 0.687500
vt 0.937500 0.562500
vt 0.750000 0.812500
vt 0.682510 0.583771
vt 0.437500 0.437500
vt 0.187500 0.062500
vt 0.062500 0.062500
vt 0.187500 0.187500
vt 0.312500 0.062500
vt 0.312500 0.187500
vt 0.437500 0.062500
vt 0.812500 0.062500
vt 0.937500 0.062500
vt 0.554454 0.248535
vt 0.562500 0.437500
vt 0.525016 0.804189
vt 0.562500 0.187500
vt 0.687500 0.187500
vt 0.562500 0.062500
vt 0.937500 0.312500
vt 0.812500 0.312500
vt 0.937500 0.437500
vt 0.312500 0.937500
vt 0.464310 0.678183
vt 0.812500 0.187500
vt 0.800716 0.372483
vt 0.687500 0.062500
vt 0.062500 0.125000
vt 0.937500 0.187500
vt 0.437500 0.187500
vt 0.062500 0.187500
vt 0.386728 0.766561
vt 0.937500 0.687500
vt 0.377625 0.317694
vt 0.062500 0.812500
vt 0.812500 0.937500
vt 0.187500 0.562500
vt 0.765906 0.648544
vt 0.325852 0.531572
vt 0.698766 0.376568
vt 0.334835 0.374176
vt 0.715264 0.751341
vt 0.320032 0.751266
vt 0.608937 0.376007
vt 0.332432 0.409181
vt 0.296906 0.332149
vt 0.711553 0.609986
vt 0.713437 0.300753
vt 0.668274 0.669022
vt 0.331126 0.276226
vt 0.281585 0.657008
vt 0.708103 0.538744
vt 0.611218 0.753919
vt 0.329019 0.470172
vt 0.424047 0.374986
vt 1.000000 0.062500
vt 0.758105 0.454518
vt 0.062500 1.000000
vt 0.418341 0.256674
vt 0.425703 0.815414
vt 0.812755 0.481587
vt 0.750000 0.187500
vt 0.713411 0.670865
vt 0.414679 0.661630
vt 0.625000 0.437500
vt 0.321977 0.653776
vt 0.587160 0.675778
vt 0.937500 0.000000
vt 0.458173 0.302976
vt 0.250000 0.187500
vt 0.647595 0.302440
vt 0.125000 0.062500
vn -0.039679 -0.039679 0.998424
vn -0.008558 0.008558 0.999927
vn -0.059999 0.119998 0.990959
vn 0.031854 0.031854 0.998985
vn -0.001143 0.242678 0.970106
vn -0.391536 0.034949 0.919499
vn 0.049115 0.171764 0.983913
vn 0.420016 0.015677 0.907381
vn 0.007615 -0.452690 0.891636
vn -0.093470 0.182365 0.978778
vn 0.265588 0.281343 0.922122
vn -0.204325 -0.260132 0.943707
vn 0.305349 -0.316508 0.898101
vn 0.022999 -0.351255 0.935997
vn -0.014013 -0.437425 0.899146
vn 0.248380 -0.007520 0.968634
vn 0.273626 -0.024481 0.961524
vn 0.004361 0.275571 0.961271
vn -0.012901 0.055280 0.998388
vn -0.366231 -0.039340 0.929692
vn -0.303379 -0.010405 0.952813
vn -0.083599 -0.366742 0.926559
vn 0.010486 0.426197 0.904570
vn -0.335127 0.153677 0.929555
vn 0.346060 -0.228325 0.910006
vn 0.506498 -0.092416 0.857274
vn 0.037258 -0.396773 0.917161
vn 0.496344 0.025107 0.867763
vn 0.234031 -0.165059 0.958115
vn -0.025173 -0.391828 0.919694
vn -0.254010 -0.180460 0.950217
vn 0.021707 -0.410158 0.911756
vn 0.315795 0.121611 0.941002
vn 0.000020 0.244001 0.969775
vn 0.054555 0.132793 0.989641
vn 0.034031 0.259668 0.965098
vn -0.230392 0.177829 0.956711
vn -0.126167 0.147264 0.981017
vn -0.354160 0.046076 0.934049
vn 0.047661 0.277680 0.959490
vn -0.432518 -0.020671 0.901388
vn -0.099502 -0.330436 0.938569
vn 0.186106 0.083751 0.978954
vn 0.363490 -0.142432 0.920645
vn -0.032633 0.236513 0.971080
vn -0.005173 0.249693 0.968311
vn -0.370488 -0.126300 0.920210
vn -0.262648 0.055122 0.963316
vn -0.108715 0.233510 0.966258
vn 0.015919 -0.410234 0.911841
vn -0.067208 0.206627 0.976109
vn 0.442395 0.100381 0.891185
vn 0.024227 0.262815 0.964542
vn -0.376511 0.143389 0.915248
vn -0.445231 -0.005267 0.895400
vn 0.074985 0.272524 0.959222
vn -0.000631 0.242494 0.970153
vn -0.419987 -0.049066 0.906203
vn -0.399658 0.095348 0.911692
vn -0.001561 0.242447 0.970163
vn 0.046568 -0.423117 0.904877
vn 0.017236 -0.401608 0.915649
vn 0.001673 -0.066311 0.997798
vn -0.306282 0.012100 0.951864
vn -0.252176 0.037387 0.966959
vn -0.151657 -0.072965 0.985736
vn 0.011940 0.053313 0.998506
vn 0.004321 0.072145 0.997385
vn -0.021738 0.221488 0.974921
vn 0.000419 0.266537 0.963825
vn 0.417684 -0.023221 0.908296
vn 0.080854 -0.049409 0.995501
vn 0.163614 0.050480 0.985232
vn 0.297349 0.032937 0.954201
vn -0.001207 -0.463719 0.885981
vn -0.115988 -0.235181 0.965006
vn 0.066372 -0.128165 0.989529
vn 0.013206 -0.416399 0.909086
vn 0.145249 -0.317557 0.937049
vn -0.000749 0.242988 0.970029
vn 0.374222 0.211927 0.902798
vn -0.418833 -0.036264 0.907339
vn -0.404119 0.088388 0.910426
vn -0.378103 -0.143370 0.914594
vn -0.433266 0.023605 0.900957
vn 0.005894 0.094959 0.995464
vn 0.035538 0.420424 0.906631
vn 0.055615 0.153849 0.986528
vn -0.321230 0.003518 0.946995
vn -0.237670 0.103560 0.965810
vn -0.362361 0.047785 0.930812
vn -0.026926 0.243968 0.969409
vn -0.095396 0.172387 0.980399
vn -0.089297 0.128947 0.987623
vn -0.000729 0.242207 0.970224
vn 0.430246 0.000000 0.902712
vn 0.007323 0.293012 0.956081
vn -0.037398 0.219404 0.974917
vn 0.043966 0.234549 0.971110
vn 0.155320 0.044106 0.986879
vn 0.090109 0.230370 0.968922
vn 0.045509 0.068746 0.996596
vn 0.288114 -0.150106 0.945758
vn -0.001336 0.242579 0.970131
vn 0.246500 0.218280 0.944241
vn 0.357061 0.182614 0.916056
vn 0.293795 0.162679 0.941923
vn 0.365021 0.079295 0.927616
vn 0.069842 0.372372 0.925452
vn 0.000100 0.242821 0.970071
vn -0.001160 0.243581 0.969880
vn -0.124285 -0.304958 0.944221
vn -0.136973 -0.104133 0.985086
vn -0.244274 -0.234044 0.941039
vn -0.016514 -0.418030 0.908283
vn -0.094714 -0.329564 0.939371
vn -0.002030 -0.441725 0.897148
vn 0.092898 -0.275183 0.956893
vn 0.058065 -0.045173 0.997290
vn 0.019979 -0.410681 0.911560
vn -0.001420 0.243446 0.969913
vn 0.031602 0.327049 0.944479
vn 0.032111 -0.396777 0.917353
vn 0.115816 -0.364790 0.923859
vn 0.027052 -0.423355 0.905560
vn 0.385220 -0.089183 0.918505
vn 0.425599 -0.258402 0.867234
vn 0.461117 0.007524 0.887307
vn 0.001913 0.268172 0.963369
vn -0.000154 0.241801 0.970326
vn 0.268584 -0.238219 0.933335
vn 0.499455 -0.147023 0.853773
vn 0.027384 -0.385074 0.922479
vn -0.217050 -0.109327 0.970019
vn 0.256100 -0.089934 0.962458
vn -0.001964 -0.403065 0.915169
vn -0.290078 -0.120253 0.949418
vn 0.027389 0.249344 0.968028
vn 0.248933 0.040101 0.967690
vn -0.089003 -0.415863 0.905062
vn -0.263303 0.041721 0.963811
vn -0.011902 0.115535 0.993232
vn -0.348715 0.111742 0.930544
vn 0.342305 0.201813 0.917659
vn -0.124370 0.229302 0.965377
vn 0.256292 -0.063008 0.964544
vn -0.240225 -0.076420 0.967705
vn 0.185718 0.335242 0.923646
vn -0.040677 0.196056 0.979749
vn 0.003196 -0.046904 0.998894
vn -0.226913 0.227654 0.946934
vn -0.290313 -0.368739 0.883035
vn 0.134005 0.239097 0.961704
vn 0.275409 -0.421060 0.864210
vn -0.002717 0.242546 0.970136
vn -0.145469 -0.366549 0.918956
vn -0.145510 0.218430 0.964943
vn 0.178703 0.235877 0.955211
vn -0.001429 0.375657 0.926758
vn -0.149771 0.233067 0.960858
vn -0.010166 -0.089244 0.995958
vn -0.017104 -0.000000 0.999854
vn 0.414499 0.158460 0.896148
vn 0.000000 0.178662 0.983911
vn -0.031688 -0.389971 0.920282
vn 0.043640 0.274486 0.960600
vn 0.421273 0.147510 0.894858
vn 0.211213 -0.307179 0.927917
vn 0.153303 0.235373 0.959738
vn 0.000469 0.240933 0.970542
vn -0.000659 0.243334 0.969942
vn -0.088091 0.239974 0.966774
vn 0.000236 0.241797 0.970327
vn 0.000000 0.017124 0.999853
vn -0.003386 -0.381839 0.924222
vn -0.146407 -0.268036 0.952219
vn 0.071755 -0.442892 0.893699
vn -0.173455 -0.216685 0.960709
f 1/1/1 113/113/113 66/66/66
f 155/155/155 34/34/34 153/153/153
f 4/4/4 68/68/68 102/102/102
f 147/147/147 152/152/152 140/140/140
f 144/144/144 11/11/11 169/169/169
f 10/10/10 93/93/93 90/90/90
f 164/164/164 3/3/3 94/94/94
f 31/31/31 134/134/134 113/113/113
f 134/134/134 137/137/137 66/66/66
f 134/134/134 66/66/66 113/113/113
f 115/115/115 112/112/112 15/15/15
f 31/31/31 137/137/137 134/134/134
f 73/73/73 102/102/102 100/100/100
f 127/127/127 132/132/132 154/154/154
f 76/76/76 113/113/113 1/1/1
f 57/57/57 170/170/170 95/95/95
f 15/15/15 112/112/112 76/76/76
f 115/115/115 15/15/15 75/75/75
f 45/45/45 51/51/51 98/98/98
f 137/137/137 31/31/31 47/47/47
f 32/32/32 136/136/136 123/123/123
f 22/22/22 30/30/30 136/136/136
f 22/22/22 156/156/156 116/116/116
f 62/62/62 123/123/123 136/136/136
f 165/165/165 136/136/136 32/32/32
f 115/115/115 30/30/30 42/42/42
f 27/27/27 133/133/133 124/124/124
f 143/143/143 59/59/59 24/24/24
f 116/116/116 30/30/30 22/22/22
f 42/42/42 112/112/112 115/115/115
f 114/114/114 47/47/47 31/31/31
f 84/84/84 152/152/152 58/58/58
f 83/83/83 24/24/24 59/59/59
f 116/116/116 42/42/42 30/30/30
f 54/54/54 151/151/151 160/160/160
f 75/75/75 117/117/117 115/115/115
f 148/148/148 169/169/169 11/11/11
f 165/165/165 22/22/22 136/136/136
f 26/26/26 127/127/127 126/126/126
f 83/83/83 58/58/58 54/54/54
f 146/146/146 154/154/154 132/132/132
f 163/163/163 105/105/105 132/132/132
f 30/30/30 115/115/115 117/117/117
f 169/169/169 148/148/148 155/155/155
f 153/153/153 169/169/169 155/155/155
f 72/72/72 135/135/135 119/119/119
f 10/10/10 51/51/51 93/93/93
f 54/54/54 58/58/58 151/151/151
f 129/129/129 45/45/45 36/36/36
f 118/118/118 29/29/29 79/79/79
f 57/57/57 173/173/173 130/130/130
f 84/84/84 58/58/58 41/41/41
f 131/131/131 79/79/79 29/29/29
f 149/149/149 98/98/98 10/10/10
f 9/9/9 125/125/125 117/117/117
f 120/120/120 50/50/50 32/32/32
f 157/157/157 10/10/10 90/90/90
f 82/82/82 137/137/137 47/47/47
f 84/84/84 12/12/12 152/152/152
f 12/12/12 176/176/176 116/116/116
f 172/172/172 49/49/49 170/170/170
f 20/20/20 137/137/137 82/82/82
f 159/159/159 173/173/173 155/155/155
f 20/20/20 66/66/66 137/137/137
f 55/55/55 20/20/20 82/82/82
f 34/34/34 155/155/155 173/173/173
f 23/23/23 40/40/40 122/122/122
f 92/92/92 45/45/45 129/129/129
f 149/149/149 172/172/172 170/170/170
f 176/176/176 42/42/42 116/116/116
f 128/128/128 8/8/8 52/52/52
f 107/107/107 33/33/33 43/43/43
f 139/139/139 43/43/43 33/33/33
f 156/156/156 140/140/140 152/152/152
f 49/49/49 37/37/37 145/145/145
f 161/161/161 140/140/140 175/175/175
f 45/45/45 98/98/98 36/36/36
f 122/122/122 53/53/53 97/97/97
f 110/110/110 153/153/153 34/34/34
f 162/162/162 72/72/72 119/119/119
f 16/16/16 100/100/100 139/139/139
f 108/108/108 52/52/52 8/8/8
f 93/93/93 38/38/38 48/48/48
f 62/62/62 117/117/117 125/125/125
f 37/37/37 90/90/90 143/143/143
f 143/143/143 90/90/90 39/39/39
f 94/94/94 69/69/69 164/164/164
f 79/79/79 131/131/131 168/168/168
f 129/129/129 70/70/70 18/18/18
f 59/59/59 91/91/91 85/85/85
f 92/92/92 18/18/18 69/69/69
f 128/128/128 26/26/26 71/71/71
f 2/2/2 162/162/162 119/119/119
f 93/93/93 92/92/92 38/38/38
f 126/126/126 71/71/71 26/26/26
f 27/27/27 124/124/124 123/123/123
f 150/150/150 146/146/146 171/171/171
f 48/48/48 38/38/38 141/141/141
f 65/65/65 94/94/94 3/3/3
f 35/35/35 142/142/142 101/101/101
f 21/21/21 141/141/141 65/65/65
f 38/38/38 94/94/94 141/141/141
f 46/46/46 101/101/101 142/142/142
f 65/65/65 141/141/141 94/94/94
f 39/39/39 90/90/90 48/48/48
f 51/51/51 45/45/45 93/93/93
f 23/23/23 122/122/122 97/97/97
f 61/61/61 123/123/123 124/124/124
f 145/145/145 160/160/160 60/60/60
f 92/92/92 129/129/129 18/18/18
f 140/140/140 161/161/161 147/147/147
f 89/89/89 39/39/39 48/48/48
f 48/48/48 141/141/141 89/89/89
f 42/42/42 176/176/176 114/114/114
f 89/89/89 21/21/21 64/64/64
f 21/21/21 89/89/89 141/141/141
f 154/154/154 146/146/146 177/177/177
f 149/149/149 10/10/10 157/157/157
f 6/6/6 91/91/91 64/64/64
f 165/165/165 175/175/175 140/140/140
f 6/6/6 55/55/55 85/85/85
f 24/24/24 83/83/83 54/54/54
f 152/152/152 147/147/147 58/58/58
f 151/151/151 58/58/58 147/147/147
f 167/167/167 163/163/163 132/132/132
f 24/24/24 54/54/54 160/160/160
f 34/34/34 173/173/173 57/57/57
f 123/123/123 62/62/62 27/27/27
f 27/27/27 125/125/125 133/133/133
f 43/43/43 101/101/101 107/107/107
f 56/56/56 88/88/88 99/99/99
f 39/39/39 89/89/89 91/91/91
f 169/169/169 153/153/153 144/144/144
f 59/59/59 85/85/85 83/83/83
f 38/38/38 92/92/92 94/94/94
f 37/37/37 157/157/157 90/90/90
f 37/37/37 143/143/143 24/24/24
f 149/149/149 138/138/138 98/98/98
f 26/26/26 28/28/28 132/132/132
f 135/135/135 72/72/72 17/17/17
f 155/155/155 148/148/148 159/159/159
f 51/51/51 10/10/10 98/98/98
f 78/78/78 133/133/133 125/125/125
f 17/17/17 126/126/126 135/135/135
f 104/104/104 95/95/95 5/5/5
f 130/130/130 53/53/53 170/170/170
f 44/44/44 135/135/135 126/126/126
f 105/105/105 158/158/158 80/80/80
f 57/57/57 95/95/95 104/104/104
f 39/39/39 91/91/91 143/143/143
f 34/34/34 57/57/57 104/104/104
f 156/156/156 152/152/152 12/12/12
f 43/43/43 139/139/139 100/100/100
f 6/6/6 85/85/85 91/91/91
f 139/139/139 33/33/33 74/74/74
f 60/60/60 160/160/160 111/111/111
f 11/11/11 144/144/144 107/107/107
f 103/103/103 44/44/44 25/25/25
f 63/63/63 111/111/111 161/161/161
f 119/119/119 29/29/29 77/77/77
f 80/80/80 110/110/110 104/104/104
f 124/124/124 154/154/154 61/61/61
f 12/12/12 116/116/116 156/156/156
f 41/41/41 83/83/83 85/85/85
f 37/37/37 49/49/49 157/157/157
f 144/144/144 153/153/153 106/106/106
f 33/33/33 106/106/106 108/108/108
f 106/106/106 153/153/153 81/81/81
f 110/110/110 34/34/34 104/104/104
f 101/101/101 11/11/11 107/107/107
f 80/80/80 104/104/104 5/5/5
f 158/158/158 153/153/153 110/110/110
f 121/121/121 171/171/171 80/80/80
f 105/105/105 146/146/146 132/132/132
f 81/81/81 153/153/153 158/158/158
f 158/158/158 110/110/110 80/80/80
f 99/99/99 36/36/36 56/56/56
f 167/167/167 106/106/106 81/81/81
f 36/36/36 99/99/99 129/129/129
f 107/107/107 106/106/106 33/33/33
f 11/11/11 109/109/109 148/148/148
f 82/82/82 47/47/47 41/41/41
f 150/150/150 177/177/177 146/146/146
f 59/59/59 143/143/143 91/91/91
f 74/74/74 108/108/108 8/8/8
f 87/87/87 148/148/148 109/109/109
f 84/84/84 41/41/41 47/47/47
f 35/35/35 100/100/100 102/102/102
f 138/138/138 53/53/53 166/166/166
f 144/144/144 106/106/106 107/107/107
f 111/111/111 5/5/5 60/60/60
f 79/79/79 124/124/124 133/133/133
f 95/95/95 60/60/60 5/5/5
f 88/88/88 56/56/56 40/40/40
f 118/118/118 77/77/77 29/29/29
f 105/105/105 163/163/163 158/158/158
f 12/12/12 84/84/84 114/114/114
f 69/69/69 94/94/94 92/92/92
f 47/47/47 114/114/114 84/84/84
f 56/56/56 166/166/166 122/122/122
f 63/63/63 150/150/150 121/121/121
f 111/111/111 151/151/151 161/161/161
f 32/32/32 50/50/50 175/175/175
f 52/52/52 108/108/108 106/106/106
f 122/122/122 166/166/166 53/53/53
f 151/151/151 147/147/147 161/161/161
f 86/86/86 46/46/46 142/142/142
f 53/53/53 130/130/130 97/97/97
f 55/55/55 82/82/82 85/85/85
f 68/68/68 142/142/142 102/102/102
f 42/42/42 114/114/114 112/112/112
f 142/142/142 35/35/35 102/102/102
f 87/87/87 46/46/46 40/40/40
f 46/46/46 109/109/109 101/101/101
f 19/19/19 86/86/86 142/142/142
f 88/88/88 40/40/40 86/86/86
f 23/23/23 87/87/87 40/40/40
f 86/86/86 40/40/40 46/46/46
f 23/23/23 148/148/148 87/87/87
f 87/87/87 109/109/109 46/46/46
f 63/63/63 175/175/175 50/50/50
f 23/23/23 159/159/159 148/148/148
f 24/24/24 145/145/145 37/37/37
f 56/56/56 122/122/122 40/40/40
f 67/67/67 88/88/88 86/86/86
f 31/31/31 112/112/112 114/114/114
f 7/7/7 70/70/70 99/99/99
f 67/67/67 7/7/7 88/88/88
f 19/19/19 67/67/67 86/86/86
f 68/68/68 19/19/19 142/142/142
f 41/41/41 85/85/85 82/82/82
f 83/83/83 41/41/41 58/58/58
f 73/73/73 4/4/4 102/102/102
f 16/16/16 73/73/73 100/100/100
f 74/74/74 16/16/16 139/139/139
f 96/96/96 8/8/8 128/128/128
f 138/138/138 166/166/166 98/98/98
f 126/126/126 17/17/17 71/71/71
f 48/48/48 90/90/90 93/93/93
f 77/77/77 118/118/118 14/14/14
f 60/60/60 95/95/95 145/145/145
f 28/28/28 52/52/52 167/167/167
f 49/49/49 145/145/145 95/95/95
f 63/63/63 121/121/121 111/111/111
f 70/70/70 129/129/129 99/99/99
f 57/57/57 130/130/130 170/170/170
f 109/109/109 11/11/11 101/101/101
f 25/25/25 44/44/44 127/127/127
f 64/64/64 91/91/91 89/89/89
f 25/25/25 127/127/127 13/13/13
f 22/22/22 165/165/165 156/156/156
f 132/132/132 127/127/127 26/26/26
f 151/151/151 111/111/111 160/160/160
f 131/131/131 13/13/13 168/168/168
f 131/131/131 25/25/25 13/13/13
f 36/36/36 98/98/98 166/166/166
f 178/178/178 31/31/31 113/113/113
f 167/167/167 52/52/52 106/106/106
f 76/76/76 178/178/178 113/113/113
f 163/163/163 167/167/167 81/81/81
f 166/166/166 56/56/56 36/36/36
f 171/171/171 105/105/105 80/80/80
f 29/29/29 119/119/119 135/135/135
f 121/121/121 80/80/80 5/5/5
f 52/52/52 28/28/28 128/128/128
f 121/121/121 5/5/5 111/111/111
f 63/63/63 161/161/161 175/175/175
f 44/44/44 126/126/126 127/127/127
f 176/176/176 12/12/12 114/114/114
f 178/178/178 76/76/76 112/112/112
f 28/28/28 26/26/26 128/128/128
f 81/81/81 158/158/158 163/163/163
f 120/120/120 123/123/123 61/61/61
f 35/35/35 101/101/101 43/43/43
f 23/23/23 97/97/97 159/159/159
f 97/97/97 130/130/130 173/173/173
f 154/154/154 13/13/13 127/127/127
f 50/50/50 177/177/177 150/150/150
f 124/124/124 13/13/13 154/154/154
f 160/160/160 145/145/145 24/24/24
f 174/174/174 2/2/2 119/119/119
f 133/133/133 78/78/78 14/14/14
f 171/171/171 121/121/121 150/150/150
f 35/35/35 43/43/43 100/100/100
f 71/71/71 96/96/96 128/128/128
f 120/120/120 32/32/32 123/123/123
f 108/108/108 74/74/74 33/33/33
f 77/77/77 174/174/174 119/119/119
f 9/9/9 117/117/117 75/75/75
f 93/93/93 45/45/45 92/92/92
f 78/78/78 125/125/125 9/9/9
f 50/50/50 120/120/120 61/61/61
f 118/118/118 133/133/133 14/14/14
f 136/136/136 30/30/30 62/62/62
f 135/135/135 44/44/44 103/103/103
f 103/103/103 131/131/131 29/29/29
f 117/117/117 62/62/62 30/30/30
f 79/79/79 133/133/133 118/118/118
f 168/168/168 13/13/13 124/124/124
f 168/168/168 124/124/124 79/79/79
f 95/95/95 170/170/170 49/49/49
f 103/103/103 25/25/25 131/131/131
f 7/7/7 99/99/99 88/88/88
f 135/135/135 103/103/103 29/29/29
f 167/167/167 132/132/132 28/28/28
f 125/125/125 27/27/27 62/62/62
f 49/49/49 172/172/172 157/157/157
f 172/172/172 149/149/149 157/157/157
f 97/97/97 173/173/173 159/159/159
f 32/32/32 175/175/175 165/165/165
f 140/140/140 156/156/156 165/165/165
f 171/171/171 146/146/146 105/105/105
f 154/154/154 177/177/177 61/61/61
f 177/177/177 50/50/50 61/61/61
f 31/31/31 178/178/178 112/112/112
f 50/50/50 150/150/150 63/63/63
f 53/53/53 138/138/138 170/170/170
f 149/149/149 170/170/170 138/138/138
