# frame 000756 
# time 0.378500 
# name Cloth3D 
v -0.000000 0.000000 -0.000000
v 1.000000 0.000000 -0.000000
v -0.000000 1.000000 0.000000
v 1.000000 1.000000 0.000000
v 0.502768 0.492976 0.128315
v -0.000000 0.500000 0.000000
v 0.500000 1.000000 0.000000
v 1.000000 0.500000 0.000000
v 0.500000 -0.000000 0.000000
v 0.247947 0.750954 0.062796
v 0.753587 0.750898 0.060936
v 0.244751 0.244037 0.087649
v 0.759312 0.242187 0.094123
v 0.750000 0.000000 0.000000
v 0.250000 0.000000 0.000000
v 1.000000 0.750000 0.000000
v 1.000000 0.250000 0.000000
v 0.250000 1.000000 0.000000
v 0.750000 1.000000 0.000000
v 0.000000 0.250000 0.000000
v 0.000000 0.750000 -0.000000
v 0.363113 0.214190 0.093616
v 0.631776 0.769668 0.060864
v 0.239140 0.513222 0.101081
v 0.819541 0.245189 0.070634
v 0.882455 0.372344 0.060328
v 0.626892 0.122555 0.051076
v 0.883354 0.435192 0.062062
v 0.876865 0.123215 0.026801
v 0.374412 0.121038 0.054731
v 0.124092 0.122894 0.027233
v 0.493524 0.243795 0.110152
v 0.877308 0.623217 0.040715
v 0.630893 0.622699 0.099844
v 0.876032 0.874833 0.018694
v 0.375215 0.877130 0.043136
v 0.258133 0.598782 0.090802
v 0.122801 0.877055 0.031860
v 0.122901 0.624421 0.044695
v 0.625882 0.872110 0.024225
v 0.119787 0.372981 0.056891
v 0.247888 0.118504 0.054078
v 0.876233 0.749046 0.028819
v 0.879388 0.247410 0.046619
v 0.248982 0.877490 0.040462
v 0.750969 0.872464 0.018600
v 0.120839 0.247248 0.048189
v 0.121555 0.750909 0.043756
v 0.319725 0.591795 0.106369
v 0.588445 0.296373 0.130593
v 0.248442 0.814103 0.050869
v 0.882173 0.498042 0.058183
v 0.429003 0.747939 0.072107
v 0.240752 0.451690 0.107386
v 0.000000 0.375000 0.000000
v 0.500785 0.874272 0.034792
v 0.502441 0.621323 0.099990
v 0.239287 0.369373 0.116008
v 0.120506 0.498655 0.054642
v 0.371143 0.494844 0.127898
v 0.631586 0.243125 0.107365
v 0.500690 0.121367 0.056367
v 0.502335 0.365103 0.156859
v 0.000000 0.625000 0.000000
v 0.000000 0.875000 0.000000
v 0.000000 0.125000 0.000000
v 0.625000 1.000000 0.000000
v 0.875000 1.000000 0.000000
v 0.125000 1.000000 0.000000
v 0.375000 1.000000 0.000000
v 1.000000 0.375000 0.000000
v 1.000000 0.125000 0.000000
v 1.000000 0.875000 0.000000
v 1.000000 0.625000 0.000000
v 0.375000 0.000000 0.000000
v 0.125000 0.000000 0.000000
v 0.875000 0.000000 0.000000
v 0.625000 0.000000 0.000000
v 0.752748 0.120784 0.047353
v 0.634338 0.494006 0.128338
v 0.770512 0.512433 0.101704
v 0.060093 0.311646 0.026942
v 0.181061 0.434638 0.083347
v 0.180812 0.308381 0.079447
v 0.059030 0.436749 0.030501
v 0.687707 0.934881 0.003636
v 0.689583 0.810602 0.042499
v 0.562706 0.935541 0.010746
v 0.060974 0.687426 0.022910
v 0.183632 0.688008 0.064170
v 0.061561 0.561831 0.023315
v 0.186788 0.939804 0.022564
v 0.184760 0.814919 0.051104
v 0.061557 0.938428 0.012886
v 0.437637 0.557665 0.114088
v 1.000000 0.437500 0.000000
v 0.551541 0.748473 0.072113
v 0.311738 0.814457 0.057366
v 0.437769 0.937584 0.018961
v 0.939478 0.812311 0.019664
v 0.814623 0.812697 0.037530
v 0.937791 0.937613 0.007539
v 0.879159 0.184639 0.040275
v 0.567677 0.557418 0.114247
v 0.720150 0.420986 0.144485
v 0.824030 0.588845 0.064820
v 0.816222 0.686744 0.055622
v 0.939150 0.561187 0.023251
v 0.752143 0.811658 0.039913
v 0.691297 0.582062 0.108923
v 0.435892 0.429234 0.142443
v 0.186550 0.058518 0.026302
v 0.062234 0.062136 0.007774
v 0.184038 0.182688 0.057864
v 0.312089 0.059318 0.028759
v 0.309898 0.180303 0.080958
v 0.437592 0.059430 0.030662
v 0.813295 0.060913 0.019153
v 0.937725 0.062302 0.005596
v 0.558297 0.241642 0.108978
v 0.569393 0.429083 0.142675
v 0.526368 0.802400 0.052105
v 0.565052 0.183350 0.080638
v 0.692195 0.182355 0.075820
v 0.562980 0.060538 0.028272
v 0.939254 0.311599 0.024500
v 0.820510 0.308199 0.080272
v 0.941119 0.436270 0.029966
v 0.312409 0.938757 0.021512
v 0.465647 0.675883 0.087959
v 0.816854 0.183822 0.053777
v 0.813721 0.367125 0.100125
v 0.688199 0.060680 0.025407
v 0.063033 0.124504 0.009140
v 0.938715 0.186781 0.017877
v 0.437261 0.181749 0.083986
v 0.063370 0.187255 0.012543
v 0.386738 0.766790 0.067484
v 0.938385 0.686554 0.017730
v 0.371962 0.309485 0.136065
v 0.059981 0.813136 0.023005
v 0.812648 0.937219 0.011574
v 0.183263 0.561098 0.072560
v 0.771983 0.648301 0.077620
v 0.320084 0.528868 0.120277
v 0.720578 0.358767 0.158374
v 0.320786 0.357085 0.158375
v 0.718884 0.749201 0.072120
v 0.319056 0.747449 0.072105
v 0.619630 0.358470 0.158340
v 0.320691 0.401529 0.148420
v 0.287071 0.324385 0.128658
v 0.719511 0.609932 0.102737
v 0.726159 0.291183 0.123601
v 0.674058 0.668873 0.089456
v 0.326334 0.270795 0.108906
v 0.278637 0.656952 0.085489
v 0.719408 0.537112 0.118809
v 0.614106 0.748745 0.072116
v 0.320445 0.465400 0.134302
v 0.420740 0.357672 0.158325
v 1.000000 0.062500 -0.000000
v 0.552942 0.358225 0.158325
v 0.062500 1.000000 0.000000
v 0.416792 0.249522 0.112448
v 0.426296 0.815969 0.056286
v 0.823854 0.479016 0.089210
v 0.755395 0.182046 0.068715
v 0.719229 0.672201 0.089037
v 0.414795 0.659494 0.091596
v 0.636049 0.429406 0.142683
v 0.319458 0.653698 0.092715
v 0.591147 0.674061 0.088495
v 0.937500 0.000000 -0.000000
v 0.457834 0.295685 0.130053
v 0.246368 0.180856 0.072142
v 0.658103 0.294586 0.127923
v 0.124634 0.061401 0.013629
vt 0.000000 0.000000
vt 1.000000 0.000000
vt 0.000000 1.000000
vt 1.000000 1.000000
vt 0.500000 0.500000
vt 0.000000 0.500000
vt 0.500000 1.000000
vt 1.000000 0.500000
vt 0.500000 0.000000
vt 0.250000 0.750000
vt 0.750000 0.750000
vt 0.250000 0.250000
vt 0.750000 0.250000
vt 0.750000 0.000000
vt 0.250000 0.000000
vt 1.000000 0.750000
vt 1.000000 0.250000
vt 0.250000 1.000000
vt 0.750000 1.000000
vt 0.000000 0.250000
vt 0.000000 0.750000
vt 0.365347 0.220303
vt 0.629073 0.770824
vt 0.245672 0.515386
vt 0.812500 0.250000
vt 0.875000 0.375000
vt 0.625000 0.125000
vt 0.875000 0.437500
vt 0.875000 0.125000
vt 0.375000 0.125000
vt 0.125000 0.125000
vt 0.492214 0.250470
vt 0.875000 0.625000
vt 0.625000 0.625000
vt 0.875000 0.875000
vt 0.375000 0.875000
vt 0.262101 0.599801
vt 0.125000 0.875000
vt 0.125000 0.625000
vt 0.625000 0.875000
vt 0.125000 0.375000
vt 0.250000 0.125000
vt 0.875000 0.750000
vt 0.875000 0.250000
vt 0.250000 0.875000
vt 0.750000 0.875000
vt 0.125000 0.250000
vt 0.125000 0.750000
vt 0.323293 0.593023
vt 0.581754 0.304126
vt 0.250000 0.812500
vt 0.875000 0.500000
vt 0.428417 0.748579
vt 0.248222 0.455442
vt 0.000000 0.375000
vt 0.500000 0.875000
vt 0.500000 0.625000
vt 0.250000 0.375000
vt 0.125000 0.500000
vt 0.375000 0.500000
vt 0.625000 0.250000
vt 0.500000 0.125000
vt 0.500000 0.375000
vt 0.000000 0.625000
vt 0.000000 0.875000
vt 0.000000 0.125000
vt 0.625000 1.000000
vt 0.875000 1.000000
vt 0.125000 1.000000
vt 0.375000 1.000000
vt 1.000000 0.375000
vt 1.000000 0.125000
vt 1.000000 0.875000
vt 1.000000 0.625000
vt 0.375000 0.000000
vt 0.125000 0.000000
vt 0.875000 0.000000
vt 0.625000 0.000000
vt 0.750000 0.125000
vt 0.625000 0.500000
vt 0.760524 0.515669
vt 0.062500 0.312500
vt 0.187500 0.437500
vt 0.187500 0.312500
vt 0.062500 0.437500
vt 0.687500 0.937500
vt 0.687500 0.812500
vt 0.562500 0.937500
vt 0.062500 0.687500
vt 0.187500 0.687500
vt 0.062500 0.562500
vt 0.187500 0.937500
vt 0.187500 0.812500
vt 0.062500 0.937500
vt 0.437500 0.562500
vt 1.000000 0.437500
vt 0.549304 0.748981
vt 0.312500 0.812500
vt 0.437500 0.937500
vt 0.937500 0.812500
vt 0.812500 0.812500
vt 0.937500 0.937500
vt 0.875000 0.187500
vt 0.562500 0.562500
vt 0.703804 0.427430
vt 0.819332 0.591237
vt 0.812500 0.687500
vt 0.937500 0.562500
vt 0.750000 0.812500
vt 0.682510 0.583771
vt 0.437500 0.437500
vt 0.187500 0.062500
vt 0.062500 0.062500
vt 0.187500 0.187500
vt 0.312500 0.062500
vt 0.312500 0.187500
vt 0.437500 0.062500
vt 0.812500 0.062500
vt 0.937500 0.062500
vt 0.554454 0.248535
vt 0.562500 0.437500
vt 0.525016 0.804189
vt 0.562500 0.187500
vt 0.687500 0.187500
vt 0.562500 0.062500
vt 0.937500 0.312500
vt 0.812500 0.312500
vt 0.937500 0.437500
vt 0.312500 0.937500
vt 0.464310 0.678183
vt 0.812500 0.187500
vt 0.800716 0.372483
vt 0.687500 0.062500
vt 0.062500 0.125000
vt 0.937500 0.187500
vt 0.437500 0.187500
vt 0.062500 0.187500
vt 0.386728 0.766561
vt 0.937500 0.687500
vt 0.377625 0.317694
vt 0.062500 0.812500
vt 0.812500 0.937500
vt 0.187500 0.562500
vt 0.765906 0.648544
vt 0.325243 0.531547
vt 0.699907 0.369358
vt 0.333421 0.367337
vt 0.714260 0.746458
vt 0.320283 0.746352
vt 0.608981 0.368797
vt 0.330923 0.409093
vt 0.296906 0.332149
vt 0.710952 0.610008
vt 0.713437 0.300753
vt 0.668274 0.669022
vt 0.331126 0.276226
vt 0.281585 0.657008
vt 0.707920 0.538752
vt 0.611127 0.748414
vt 0.327898 0.470116
vt 0.424094 0.367833
vt 1.000000 0.062500
vt 0.547147 0.368269
vt 0.062500 1.000000
vt 0.418341 0.256674
vt 0.425703 0.815414
vt 0.812755 0.481587
vt 0.750000 0.187500
vt 0.712596 0.670886
vt 0.414679 0.661630
vt 0.625000 0.437500
vt 0.321931 0.653776
vt 0.587160 0.675778
vt 0.937500 0.000000
vt 0.458173 0.302976
vt 0.250000 0.187500
vt 0.647595 0.302440
vt 0.125000 0.062500
vn -0.063786 -0.063786 0.995923
vn 0.049809 -0.049809 0.997516
vn -0.069262 0.138525 0.987934
vn 0.062999 0.062999 0.996023
vn -0.001023 0.213480 0.976947
vn -0.409423 0.027324 0.911935
vn 0.030812 0.234873 0.971538
vn 0.430698 0.021902 0.902230
vn 0.009953 -0.437339 0.899242
vn -0.093583 0.173917 0.980304
vn 0.248577 0.256839 0.933940
vn -0.223831 -0.257808 0.939912
vn 0.278381 -0.313280 0.907942
vn 0.023190 -0.343347 0.938922
vn -0.006646 -0.419601 0.907684
vn 0.295281 -0.007772 0.955379
vn 0.334046 -0.025416 0.942214
vn 0.004991 0.346549 0.938019
vn -0.032748 0.125014 0.991614
vn -0.300375 -0.058481 0.952027
vn -0.358566 -0.000573 0.933504
vn -0.048288 -0.350738 0.935228
vn 0.007380 0.431549 0.902059
vn -0.325862 0.131680 0.936202
vn 0.348851 -0.181029 0.919528
vn 0.474721 -0.077044 0.876758
vn 0.023037 -0.388099 0.921330
vn 0.471559 0.023250 0.881528
vn 0.213566 -0.206136 0.954933
vn -0.009477 -0.389644 0.920917
vn -0.241558 -0.150133 0.958702
vn 0.002590 -0.383016 0.923738
vn 0.332829 0.086699 0.938993
vn 0.000169 0.214828 0.976652
vn 0.089450 0.131587 0.987261
vn 0.019285 0.282191 0.959164
vn -0.239176 0.158419 0.957966
vn -0.151504 0.156531 0.975984
vn -0.345320 0.028276 0.938059
vn 0.055404 0.296475 0.953432
vn -0.414798 -0.031894 0.909354
vn -0.112203 -0.320644 0.940531
vn 0.223272 0.073809 0.971958
vn 0.382824 -0.092038 0.919225
vn -0.032488 0.223656 0.974127
vn -0.011485 0.267688 0.963437
vn -0.375721 -0.128591 0.917768
vn -0.270183 0.048957 0.961563
vn -0.134102 0.202364 0.970085
vn 0.015576 -0.395202 0.918462
vn -0.046628 0.172096 0.983976
vn 0.435303 0.100554 0.894651
vn 0.006200 0.227734 0.973704
vn -0.375657 0.099121 0.921443
vn -0.432463 -0.014485 0.901535
vn 0.074697 0.280474 0.956951
vn -0.000505 0.213295 0.976988
vn -0.425352 -0.037857 0.904236
vn -0.387618 0.070856 0.919093
vn -0.001433 0.213240 0.976999
vn 0.030921 -0.401242 0.915450
vn 0.020392 -0.397557 0.917351
vn -0.000663 0.212527 0.977155
vn -0.357531 0.000007 0.933901
vn -0.284832 0.040299 0.957730
vn -0.151563 -0.020922 0.988226
vn 0.029383 0.118906 0.992471
vn 0.016295 0.157658 0.987359
vn -0.031502 0.267691 0.962990
vn 0.011879 0.315247 0.948935
vn 0.441915 -0.016466 0.896906
vn 0.175596 -0.038313 0.983717
vn 0.218879 0.047274 0.974606
vn 0.318804 0.020718 0.947594
vn -0.006668 -0.443019 0.896488
vn -0.098176 -0.234079 0.967248
vn 0.040972 -0.186899 0.981524
vn 0.009718 -0.402748 0.915259
vn 0.115382 -0.344837 0.931544
vn -0.000615 0.213794 0.976879
vn 0.370661 0.201563 0.906633
vn -0.398289 -0.055040 0.915607
vn -0.399627 0.063798 0.914455
vn -0.384597 -0.142923 0.911953
vn -0.424235 0.009861 0.905498
vn 0.008727 0.172867 0.984907
vn 0.027050 0.380446 0.924407
vn 0.051913 0.233127 0.971060
vn -0.341970 0.000768 0.939710
vn -0.230630 0.088984 0.968964
vn -0.371051 0.034015 0.927989
vn -0.033967 0.288815 0.956782
vn -0.084441 0.152683 0.984661
vn -0.109492 0.150978 0.982455
vn -0.000604 0.213002 0.977052
vn 0.457252 0.000000 0.889337
vn 0.008339 0.300122 0.953864
vn -0.054304 0.203138 0.977643
vn 0.039194 0.304074 0.951842
vn 0.192162 0.040037 0.980546
vn 0.108296 0.218435 0.969824
vn 0.077786 0.093316 0.992593
vn 0.303951 -0.178964 0.935727
vn -0.001207 0.213383 0.976968
vn 0.214341 0.197935 0.956493
vn 0.361802 0.137335 0.922084
vn 0.311093 0.138695 0.940205
vn 0.370363 0.069175 0.926308
vn 0.053502 0.347328 0.936216
vn 0.000263 0.213629 0.976915
vn -0.001288 0.214360 0.976754
vn -0.127592 -0.302124 0.944691
vn -0.123571 -0.100175 0.987266
vn -0.254912 -0.218090 0.942049
vn -0.006017 -0.413941 0.910284
vn -0.064504 -0.317135 0.946184
vn 0.000015 -0.414733 0.909943
vn 0.073435 -0.292092 0.953567
vn 0.089217 -0.085303 0.992353
vn 0.014881 -0.406059 0.913726
vn -0.001069 0.214100 0.976811
vn 0.045841 0.304152 0.951520
vn 0.026502 -0.419293 0.907464
vn 0.066195 -0.393361 0.916998
vn 0.019687 -0.401427 0.915679
vn 0.406038 -0.061026 0.911816
vn 0.426913 -0.177497 0.886702
vn 0.462355 0.008631 0.886653
vn 0.003723 0.326557 0.945170
vn -0.000047 0.212639 0.977131
vn 0.228610 -0.289704 0.929413
vn 0.483988 -0.126964 0.865815
vn 0.022786 -0.379298 0.924994
vn -0.213982 -0.030724 0.976354
vn 0.316414 -0.091649 0.944183
vn -0.021049 -0.397452 0.917382
vn -0.276716 -0.072375 0.958223
vn -0.004045 0.225166 0.974312
vn 0.273532 0.029248 0.961418
vn -0.072602 -0.441887 0.894128
vn -0.298590 0.042838 0.953420
vn -0.008747 0.173969 0.984712
vn -0.341509 0.108798 0.933560
vn 0.321375 0.162812 0.932851
vn -0.120168 0.207192 0.970892
vn 0.245273 -0.108834 0.963326
vn -0.243412 -0.150625 0.958156
vn 0.173016 0.299798 0.938183
vn -0.063907 0.211432 0.975301
vn 0.004025 -0.128703 0.991675
vn -0.224788 0.198947 0.953882
vn -0.304513 -0.367490 0.878762
vn 0.123222 0.203771 0.971233
vn 0.226693 -0.378772 0.897297
vn -0.002663 0.213287 0.976986
vn -0.120908 -0.380404 0.916883
vn -0.169272 0.187327 0.967603
vn 0.187205 0.209570 0.959706
vn -0.001414 0.381730 0.924273
vn -0.147013 0.200207 0.968661
vn -0.000438 -0.128043 0.991769
vn 0.099401 -0.000000 0.995048
vn 0.000186 -0.042078 0.999114
vn 0.000000 0.205802 0.978594
vn -0.040309 -0.380316 0.923978
vn 0.034998 0.232113 0.972059
vn 0.406736 0.135105 0.903500
vn 0.161708 -0.367009 0.916054
vn 0.126036 0.211113 0.969302
vn -0.000269 0.212885 0.977077
vn -0.000507 0.214016 0.976830
vn -0.110305 0.210933 0.971257
vn 0.000338 0.212575 0.977145
vn 0.000000 -0.099343 0.995053
vn -0.000827 -0.382937 0.923774
vn -0.179256 -0.258402 0.949261
vn 0.023367 -0.407026 0.913118
vn -0.146569 -0.214314 0.965705
f 1/1/1 113/113/113 66/66/66
f 155/155/155 34/34/34 153/153/153
f 4/4/4 68/68/68 102/102/102
f 147/147/147 152/152/152 140/140/140
f 144/144/144 11/11/11 169/169/169
f 10/10/10 93/93/93 90/90/90
f 164/164/164 3/3/3 94/94/94
f 31/31/31 134/134/134 113/113/113
f 134/134/134 137/137/137 66/66/66
f 134/134/134 66/66/66 113/113/113
f 115/115/115 112/112/112 15/15/15
f 31/31/31 137/137/137 134/134/134
f 73/73/73 102/102/102 100/100/100
f 127/127/127 132/132/132 154/154/154
f 76/76/76 113/113/113 1/1/1
f 57/57/57 170/170/170 95/95/95
f 15/15/15 112/112/112 76/76/76
f 115/115/115 15/15/15 75/75/75
f 45/45/45 51/51/51 98/98/98
f 137/137/137 31/31/31 47/47/47
f 32/32/32 136/136/136 123/123/123
f 22/22/22 30/30/30 136/136/136
f 22/22/22 156/156/156 116/116/116
f 62/62/62 123/123/123 136/136/136
f 165/165/165 136/136/136 32/32/32
f 115/115/115 30/30/30 42/42/42
f 27/27/27 133/133/133 124/124/124
f 143/143/143 59/59/59 24/24/24
f 116/116/116 30/30/30 22/22/22
f 42/42/42 112/112/112 115/115/115
f 114/114/114 47/47/47 31/31/31
f 84/84/84 152/152/152 58/58/58
f 83/83/83 24/24/24 59/59/59
f 116/116/116 42/42/42 30/30/30
f 54/54/54 151/151/151 160/160/160
f 75/75/75 117/117/117 115/115/115
f 148/148/148 169/169/169 11/11/11
f 165/165/165 22/22/22 136/136/136
f 26/26/26 127/127/127 126/126/126
f 83/83/83 58/58/58 54/54/54
f 146/146/146 154/154/154 132/132/132
f 63/63/63 121/121/121 111/111/111
f 30/30/30 115/115/115 117/117/117
f 169/169/169 148/148/148 155/155/155
f 153/153/153 169/169/169 155/155/155
f 72/72/72 135/135/135 119/119/119
f 10/10/10 51/51/51 93/93/93
f 54/54/54 58/58/58 151/151/151
f 129/129/129 45/45/45 36/36/36
f 118/118/118 29/29/29 79/79/79
f 57/57/57 173/173/173 130/130/130
f 84/84/84 58/58/58 41/41/41
f 131/131/131 79/79/79 29/29/29
f 149/149/149 98/98/98 10/10/10
f 9/9/9 125/125/125 117/117/117
f 120/120/120 50/50/50 32/32/32
f 157/157/157 10/10/10 90/90/90
f 82/82/82 137/137/137 47/47/47
f 84/84/84 12/12/12 152/152/152
f 12/12/12 176/176/176 116/116/116
f 172/172/172 49/49/49 170/170/170
f 20/20/20 137/137/137 82/82/82
f 159/159/159 173/173/173 155/155/155
f 20/20/20 66/66/66 137/137/137
f 55/55/55 20/20/20 82/82/82
f 34/34/34 155/155/155 173/173/173
f 23/23/23 40/40/40 122/122/122
f 92/92/92 45/45/45 129/129/129
f 149/149/149 172/172/172 170/170/170
f 176/176/176 42/42/42 116/116/116
f 128/128/128 8/8/8 52/52/52
f 107/107/107 33/33/33 43/43/43
f 139/139/139 43/43/43 33/33/33
f 156/156/156 140/140/140 152/152/152
f 49/49/49 37/37/37 145/145/145
f 161/161/161 140/140/140 175/175/175
f 45/45/45 98/98/98 36/36/36
f 122/122/122 53/53/53 97/97/97
f 110/110/110 153/153/153 34/34/34
f 162/162/162 72/72/72 119/119/119
f 16/16/16 100/100/100 139/139/139
f 108/108/108 52/52/52 8/8/8
f 93/93/93 38/38/38 48/48/48
f 62/62/62 117/117/117 125/125/125
f 37/37/37 90/90/90 143/143/143
f 143/143/143 90/90/90 39/39/39
f 94/94/94 69/69/69 164/164/164
f 79/79/79 131/131/131 168/168/168
f 129/129/129 70/70/70 18/18/18
f 149/149/149 170/170/170 53/53/53
f 92/92/92 18/18/18 69/69/69
f 128/128/128 26/26/26 71/71/71
f 2/2/2 162/162/162 119/119/119
f 93/93/93 92/92/92 38/38/38
f 126/126/126 71/71/71 26/26/26
f 27/27/27 124/124/124 123/123/123
f 150/150/150 146/146/146 171/171/171
f 48/48/48 38/38/38 141/141/141
f 65/65/65 94/94/94 3/3/3
f 35/35/35 142/142/142 101/101/101
f 21/21/21 141/141/141 65/65/65
f 38/38/38 94/94/94 141/141/141
f 46/46/46 101/101/101 142/142/142
f 65/65/65 141/141/141 94/94/94
f 39/39/39 90/90/90 48/48/48
f 51/51/51 45/45/45 93/93/93
f 23/23/23 122/122/122 97/97/97
f 61/61/61 123/123/123 124/124/124
f 145/145/145 160/160/160 60/60/60
f 92/92/92 129/129/129 18/18/18
f 140/140/140 161/161/161 147/147/147
f 89/89/89 39/39/39 48/48/48
f 48/48/48 141/141/141 89/89/89
f 42/42/42 176/176/176 114/114/114
f 89/89/89 21/21/21 64/64/64
f 21/21/21 89/89/89 141/141/141
f 154/154/154 146/146/146 177/177/177
f 149/149/149 10/10/10 157/157/157
f 6/6/6 91/91/91 64/64/64
f 165/165/165 175/175/175 140/140/140
f 6/6/6 55/55/55 85/85/85
f 24/24/24 83/83/83 54/54/54
f 152/152/152 147/147/147 58/58/58
f 151/151/151 58/58/58 147/147/147
f 63/63/63 163/163/163 121/121/121
f 24/24/24 54/54/54 160/160/160
f 34/34/34 173/173/173 57/57/57
f 123/123/123 62/62/62 27/27/27
f 27/27/27 125/125/125 133/133/133
f 43/43/43 101/101/101 107/107/107
f 56/56/56 88/88/88 99/99/99
f 39/39/39 89/89/89 91/91/91
f 169/169/169 153/153/153 144/144/144
f 59/59/59 85/85/85 83/83/83
f 38/38/38 92/92/92 94/94/94
f 37/37/37 157/157/157 90/90/90
f 37/37/37 143/143/143 24/24/24
f 149/149/149 138/138/138 98/98/98
f 26/26/26 28/28/28 132/132/132
f 135/135/135 72/72/72 17/17/17
f 155/155/155 148/148/148 159/159/159
f 51/51/51 10/10/10 98/98/98
f 78/78/78 133/133/133 125/125/125
f 17/17/17 126/126/126 135/135/135
f 104/104/104 95/95/95 5/5/5
f 130/130/130 53/53/53 170/170/170
f 44/44/44 135/135/135 126/126/126
f 105/105/105 158/158/158 80/80/80
f 57/57/57 95/95/95 104/104/104
f 39/39/39 91/91/91 143/143/143
f 34/34/34 57/57/57 104/104/104
f 156/156/156 152/152/152 12/12/12
f 43/43/43 139/139/139 100/100/100
f 53/53/53 138/138/138 149/149/149
f 91/91/91 6/6/6 59/59/59
f 60/60/60 160/160/160 111/111/111
f 11/11/11 144/144/144 107/107/107
f 103/103/103 44/44/44 25/25/25
f 50/50/50 150/150/150 163/163/163
f 119/119/119 29/29/29 77/77/77
f 80/80/80 110/110/110 104/104/104
f 124/124/124 154/154/154 61/61/61
f 12/12/12 116/116/116 156/156/156
f 41/41/41 83/83/83 85/85/85
f 37/37/37 49/49/49 157/157/157
f 144/144/144 153/153/153 106/106/106
f 33/33/33 106/106/106 108/108/108
f 106/106/106 153/153/153 81/81/81
f 110/110/110 34/34/34 104/104/104
f 101/101/101 11/11/11 107/107/107
f 80/80/80 104/104/104 5/5/5
f 158/158/158 153/153/153 110/110/110
f 121/121/121 171/171/171 80/80/80
f 105/105/105 146/146/146 132/132/132
f 81/81/81 153/153/153 158/158/158
f 158/158/158 110/110/110 80/80/80
f 99/99/99 36/36/36 56/56/56
f 167/167/167 106/106/106 81/81/81
f 36/36/36 99/99/99 129/129/129
f 107/107/107 106/106/106 33/33/33
f 11/11/11 109/109/109 148/148/148
f 82/82/82 47/47/47 41/41/41
f 150/150/150 177/177/177 146/146/146
f 59/59/59 143/143/143 91/91/91
f 74/74/74 108/108/108 8/8/8
f 87/87/87 148/148/148 109/109/109
f 84/84/84 41/41/41 47/47/47
f 35/35/35 100/100/100 102/102/102
f 138/138/138 53/53/53 166/166/166
f 144/144/144 106/106/106 107/107/107
f 111/111/111 5/5/5 60/60/60
f 79/79/79 124/124/124 133/133/133
f 95/95/95 60/60/60 5/5/5
f 88/88/88 56/56/56 40/40/40
f 118/118/118 77/77/77 29/29/29
f 161/161/161 175/175/175 163/163/163
f 12/12/12 84/84/84 114/114/114
f 69/69/69 94/94/94 92/92/92
f 47/47/47 114/114/114 84/84/84
f 56/56/56 166/166/166 122/122/122
f 74/74/74 139/139/139 108/108/108
f 111/111/111 151/151/151 161/161/161
f 32/32/32 50/50/50 175/175/175
f 52/52/52 108/108/108 106/106/106
f 122/122/122 166/166/166 53/53/53
f 151/151/151 147/147/147 161/161/161
f 86/86/86 46/46/46 142/142/142
f 53/53/53 130/130/130 97/97/97
f 55/55/55 82/82/82 85/85/85
f 68/68/68 142/142/142 102/102/102
f 42/42/42 114/114/114 112/112/112
f 142/142/142 35/35/35 102/102/102
f 87/87/87 46/46/46 40/40/40
f 46/46/46 109/109/109 101/101/101
f 19/19/19 86/86/86 142/142/142
f 88/88/88 40/40/40 86/86/86
f 23/23/23 87/87/87 40/40/40
f 86/86/86 40/40/40 46/46/46
f 23/23/23 148/148/148 87/87/87
f 87/87/87 109/109/109 46/46/46
f 33/33/33 108/108/108 139/139/139
f 23/23/23 159/159/159 148/148/148
f 24/24/24 145/145/145 37/37/37
f 56/56/56 122/122/122 40/40/40
f 67/67/67 88/88/88 86/86/86
f 31/31/31 112/112/112 114/114/114
f 7/7/7 70/70/70 99/99/99
f 67/67/67 7/7/7 88/88/88
f 19/19/19 67/67/67 86/86/86
f 68/68/68 19/19/19 142/142/142
f 41/41/41 85/85/85 82/82/82
f 83/83/83 41/41/41 58/58/58
f 73/73/73 4/4/4 102/102/102
f 16/16/16 73/73/73 100/100/100
f 74/74/74 16/16/16 139/139/139
f 96/96/96 8/8/8 128/128/128
f 138/138/138 166/166/166 98/98/98
f 126/126/126 17/17/17 71/71/71
f 48/48/48 90/90/90 93/93/93
f 77/77/77 118/118/118 14/14/14
f 60/60/60 95/95/95 145/145/145
f 28/28/28 52/52/52 167/167/167
f 49/49/49 145/145/145 95/95/95
f 163/163/163 175/175/175 50/50/50
f 70/70/70 129/129/129 99/99/99
f 57/57/57 130/130/130 170/170/170
f 109/109/109 11/11/11 101/101/101
f 25/25/25 44/44/44 127/127/127
f 64/64/64 91/91/91 89/89/89
f 25/25/25 127/127/127 13/13/13
f 22/22/22 165/165/165 156/156/156
f 132/132/132 127/127/127 26/26/26
f 151/151/151 111/111/111 160/160/160
f 131/131/131 13/13/13 168/168/168
f 131/131/131 25/25/25 13/13/13
f 36/36/36 98/98/98 166/166/166
f 105/105/105 132/132/132 167/167/167
f 167/167/167 52/52/52 106/106/106
f 105/105/105 167/167/167 81/81/81
f 105/105/105 81/81/81 158/158/158
f 166/166/166 56/56/56 36/36/36
f 171/171/171 105/105/105 80/80/80
f 29/29/29 119/119/119 135/135/135
f 121/121/121 80/80/80 5/5/5
f 52/52/52 28/28/28 128/128/128
f 121/121/121 5/5/5 111/111/111
f 63/63/63 111/111/111 161/161/161
f 44/44/44 126/126/126 127/127/127
f 176/176/176 12/12/12 114/114/114
f 163/163/163 150/150/150 121/121/121
f 28/28/28 26/26/26 128/128/128
f 163/163/163 63/63/63 161/161/161
f 120/120/120 123/123/123 61/61/61
f 35/35/35 101/101/101 43/43/43
f 23/23/23 97/97/97 159/159/159
f 97/97/97 130/130/130 173/173/173
f 154/154/154 13/13/13 127/127/127
f 50/50/50 177/177/177 150/150/150
f 124/124/124 13/13/13 154/154/154
f 160/160/160 145/145/145 24/24/24
f 174/174/174 2/2/2 119/119/119
f 133/133/133 78/78/78 14/14/14
f 171/171/171 121/121/121 150/150/150
f 35/35/35 43/43/43 100/100/100
f 71/71/71 96/96/96 128/128/128
f 120/120/120 32/32/32 123/123/123
f 85/85/85 59/59/59 6/6/6
f 77/77/77 174/174/174 119/119/119
f 9/9/9 117/117/117 75/75/75
f 93/93/93 45/45/45 92/92/92
f 78/78/78 125/125/125 9/9/9
f 50/50/50 120/120/120 61/61/61
f 118/118/118 133/133/133 14/14/14
f 136/136/136 30/30/30 62/62/62
f 135/135/135 44/44/44 103/103/103
f 103/103/103 131/131/131 29/29/29
f 117/117/117 62/62/62 30/30/30
f 79/79/79 133/133/133 118/118/118
f 168/168/168 13/13/13 124/124/124
f 168/168/168 124/124/124 79/79/79
f 95/95/95 170/170/170 49/49/49
f 103/103/103 25/25/25 131/131/131
f 7/7/7 99/99/99 88/88/88
f 135/135/135 103/103/103 29/29/29
f 167/167/167 132/132/132 28/28/28
f 125/125/125 27/27/27 62/62/62
f 49/49/49 172/172/172 157/157/157
f 172/172/172 149/149/149 157/157/157
f 97/97/97 173/173/173 159/159/159
f 32/32/32 175/175/175 165/165/165
f 140/140/140 156/156/156 165/165/165
f 171/171/171 146/146/146 105/105/105
f 154/154/154 177/177/177 61/61/61
f 177/177/177 50/50/50 61/61/61
f 31/31/31 178/178/178 112/112/112
f 178/178/178 76/76/76 112/112/112
f 76/76/76 178/178/178 113/113/113
f 178/178/178 31/31/31 113/113/113
