# frame 000732 
# time 0.366500 
# name Box 
v 0.719300 0.676994 -0.308894
v 0.719036 0.739733 0.086155
v 0.720697 0.344688 0.148894
v 0.719300 0.676994 -0.308894
v 0.720697 0.344688 0.148894
v 0.720960 0.281948 -0.246155
v 0.319303 0.675312 -0.308894
v 0.320964 0.280267 -0.246155
v 0.320700 0.343006 0.148894
v 0.319303 0.675312 -0.308894
v 0.320700 0.343006 0.148894
v 0.319040 0.738052 0.086155
v 0.719300 0.676994 -0.308894
v 0.319303 0.675312 -0.308894
v 0.319040 0.738052 0.086155
v 0.719300 0.676994 -0.308894
v 0.319040 0.738052 0.086155
v 0.719036 0.739733 0.086155
v 0.719036 0.739733 0.086155
v 0.319040 0.738052 0.086155
v 0.320700 0.343006 0.148894
v 0.719036 0.739733 0.086155
v 0.320700 0.343006 0.148894
v 0.720697 0.344688 0.148894
v 0.720697 0.344688 0.148894
v 0.320700 0.343006 0.148894
v 0.320964 0.280267 -0.246155
v 0.720697 0.344688 0.148894
v 0.320964 0.280267 -0.246155
v 0.720960 0.281948 -0.246155
v 0.319303 0.675312 -0.308894
v 0.719300 0.676994 -0.308894
v 0.720960 0.281948 -0.246155
v 0.319303 0.675312 -0.308894
v 0.720960 0.281948 -0.246155
v 0.320964 0.280267 -0.246155
vn 0.199998 0.000841 0.000000
vn 0.199998 0.000841 0.000000
vn 0.199998 0.000841 0.000000
vn 0.199998 0.000841 0.000000
vn 0.199998 0.000841 0.000000
vn 0.199998 0.000841 0.000000
vn -0.199998 -0.000841 0.000000
vn -0.199998 -0.000841 0.000000
vn -0.199998 -0.000841 0.000000
vn -0.199998 -0.000841 0.000000
vn -0.199998 -0.000841 0.000000
vn -0.199998 -0.000841 0.000000
vn -0.000830 0.197523 -0.031370
vn -0.000830 0.197523 -0.031370
vn -0.000830 0.197523 -0.031370
vn -0.000830 0.197523 -0.031370
vn -0.000830 0.197523 -0.031370
vn -0.000830 0.197523 -0.031370
vn -0.000132 0.031370 0.197524
vn -0.000132 0.031370 0.197524
vn -0.000132 0.031370 0.197524
vn -0.000132 0.031370 0.197524
vn -0.000132 0.031370 0.197524
vn -0.000132 0.031370 0.197524
vn 0.000830 -0.197523 0.031370
vn 0.000830 -0.197523 0.031370
vn 0.000830 -0.197523 0.031370
vn 0.000830 -0.197523 0.031370
vn 0.000830 -0.197523 0.031370
vn 0.000830 -0.197523 0.031370
vn 0.000132 -0.031370 -0.197524
vn 0.000132 -0.031370 -0.197524
vn 0.000132 -0.031370 -0.197524
vn 0.000132 -0.031370 -0.197524
vn 0.000132 -0.031370 -0.197524
vn 0.000132 -0.031370 -0.197524
f 1/1/1 2/2/2 3/3/3
f 4/4/4 5/5/5 6/6/6
f 7/7/7 8/8/8 9/9/9
f 10/10/10 11/11/11 12/12/12
f 13/13/13 14/14/14 15/15/15
f 16/16/16 17/17/17 18/18/18
f 19/19/19 20/20/20 21/21/21
f 22/22/22 23/23/23 24/24/24
f 25/25/25 26/26/26 27/27/27
f 28/28/28 29/29/29 30/30/30
f 31/31/31 32/32/32 33/33/33
f 34/34/34 35/35/35 36/36/36
