# frame 000716 
# time 0.358500 
# name Cloth3D 
v -0.000000 0.000000 -0.000000
v 1.000000 0.000000 -0.000000
v -0.000000 1.000000 0.000000
v 1.000000 1.000000 0.000000
v 0.499357 0.494932 0.125434
v -0.000000 0.500000 0.000000
v 0.500000 1.000000 0.000000
v 1.000000 0.500000 0.000000
v 0.500000 -0.000000 0.000000
v 0.246095 0.753206 0.071904
v 0.754504 0.754924 0.080471
v 0.245475 0.245614 0.071539
v 0.758214 0.244343 0.089214
v 0.750000 0.000000 0.000000
v 0.250000 0.000000 0.000000
v 1.000000 0.750000 0.000000
v 1.000000 0.250000 0.000000
v 0.250000 1.000000 0.000000
v 0.750000 1.000000 0.000000
v 0.000000 0.250000 0.000000
v 0.000000 0.750000 -0.000000
v 0.361418 0.215036 0.082500
v 0.631080 0.776446 0.085547
v 0.240403 0.512952 0.089963
v 0.821036 0.245644 0.073950
v 0.883929 0.372889 0.064261
v 0.626651 0.123349 0.046697
v 0.632344 0.365635 0.138381
v 0.878607 0.122626 0.033939
v 0.374369 0.123860 0.042362
v 0.124343 0.124663 0.019964
v 0.491602 0.245944 0.096824
v 0.880399 0.625145 0.054975
v 0.628607 0.625650 0.107669
v 0.877255 0.877558 0.032233
v 0.373736 0.878444 0.048256
v 0.257432 0.599580 0.089019
v 0.123421 0.876349 0.025992
v 0.120672 0.624886 0.048950
v 0.625760 0.882397 0.059012
v 0.122821 0.373816 0.042274
v 0.249515 0.124099 0.031242
v 0.878785 0.751819 0.045582
v 0.883076 0.246984 0.056195
v 0.248018 0.878939 0.044618
v 0.752255 0.881850 0.053847
v 0.123859 0.249629 0.031143
v 0.121819 0.750884 0.040955
v 0.319719 0.593233 0.111325
v 0.124154 0.938859 0.016012
v 0.246813 0.816621 0.060505
v 0.877521 0.498530 0.051055
v 0.426381 0.731547 0.095140
v 0.242108 0.451437 0.093916
v 0.000000 0.375000 0.000000
v 0.499419 0.880406 0.055018
v 0.499428 0.624656 0.107686
v 0.240816 0.369039 0.100254
v 0.121268 0.498908 0.048851
v 0.368761 0.495612 0.123400
v 0.629753 0.243641 0.100194
v 0.500339 0.125661 0.041588
v 0.498982 0.365085 0.138404
v 0.000000 0.625000 0.000000
v 0.000000 0.875000 0.000000
v 0.000000 0.125000 0.000000
v 0.625000 1.000000 0.000000
v 0.875000 1.000000 0.000000
v 0.125000 1.000000 0.000000
v 0.375000 1.000000 0.000000
v 1.000000 0.375000 0.000000
v 1.000000 0.125000 0.000000
v 1.000000 0.875000 0.000000
v 1.000000 0.625000 0.000000
v 0.375000 0.000000 0.000000
v 0.125000 0.000000 0.000000
v 0.875000 0.000000 0.000000
v 0.625000 0.000000 0.000000
v 0.753023 0.121451 0.046589
v 0.630370 0.495819 0.123833
v 0.767377 0.513664 0.099672
v 0.062116 0.312560 0.016786
v 0.182746 0.434643 0.070895
v 0.182508 0.309405 0.064300
v 0.060610 0.437087 0.023982
v 0.688126 0.943680 0.034060
v 0.690028 0.819602 0.075745
v 0.562555 0.940251 0.027948
v 0.059761 0.687558 0.025151
v 0.183457 0.688466 0.062776
v 0.059931 0.562172 0.026049
v 0.186854 0.938867 0.018465
v 0.184508 0.815093 0.048817
v 0.062338 0.937707 0.006757
v 0.434565 0.559849 0.115666
v 0.878042 0.814838 0.039647
v 0.549928 0.732085 0.095147
v 0.309543 0.818057 0.070555
v 0.437101 0.940263 0.027379
v 0.937849 0.813005 0.016500
v 0.815501 0.816310 0.053581
v 0.938212 0.938219 0.011004
v 0.881596 0.184150 0.048303
v 0.564388 0.559939 0.115361
v 0.720147 0.421675 0.131776
v 0.824751 0.591100 0.074119
v 0.817364 0.689447 0.069604
v 0.939466 0.562016 0.026789
v 0.753446 0.818648 0.068249
v 0.688843 0.583836 0.112675
v 0.433127 0.429832 0.130763
v 0.187480 0.062404 0.012159
v 0.062262 0.062317 0.007990
v 0.186447 0.186740 0.036524
v 0.312456 0.061269 0.021003
v 0.309530 0.182791 0.064812
v 0.437697 0.062125 0.022049
v 0.813633 0.062120 0.017352
v 0.938726 0.061403 0.013299
v 0.556381 0.244019 0.096233
v 0.565310 0.430126 0.130875
v 0.524794 0.809701 0.077564
v 0.564162 0.185993 0.068922
v 0.691754 0.183488 0.070913
v 0.562848 0.061573 0.024393
v 0.942455 0.311496 0.031784
v 0.823818 0.307863 0.088071
v 0.939052 0.436527 0.026549
v 0.311871 0.939782 0.024693
v 0.476513 0.766548 0.087380
v 0.817958 0.184543 0.055365
v 0.812183 0.367912 0.097895
v 0.688449 0.061379 0.023202
v 0.061739 0.124793 0.012674
v 0.942419 0.186040 0.028488
v 0.436223 0.184838 0.069690
v 0.061417 0.187465 0.015849
v 0.384008 0.770544 0.082742
v 0.940365 0.687758 0.026920
v 0.185459 0.877722 0.036335
v 0.060842 0.812879 0.019026
v 0.813412 0.940477 0.023945
v 0.182671 0.561516 0.070247
v 0.771787 0.650573 0.088633
v 0.320081 0.529521 0.118847
v 0.720675 0.335724 0.142002
v 0.320883 0.334042 0.142003
v 0.718953 0.732821 0.095157
v 0.319125 0.731074 0.095135
v 0.615245 0.335410 0.141980
v 0.320691 0.401579 0.133956
v 0.285382 0.322300 0.119242
v 0.719504 0.611532 0.109368
v 0.724310 0.292577 0.118432
v 0.672840 0.671957 0.102003
v 0.322954 0.267069 0.107243
v 0.276684 0.658683 0.091243
v 0.719404 0.537929 0.118036
v 0.613096 0.732361 0.095151
v 0.320444 0.465664 0.126387
v 0.417956 0.334619 0.141969
v 0.940095 0.750725 0.024664
v 0.549259 0.335168 0.141969
v 0.817565 0.753521 0.066421
v 0.414624 0.250193 0.100663
v 0.424309 0.818769 0.067034
v 0.818774 0.479158 0.081112
v 0.755440 0.182976 0.067168
v 0.367425 0.409743 0.132958
v 0.411712 0.663043 0.103230
v 0.631376 0.430803 0.130712
v 0.319447 0.656157 0.103922
v 0.589113 0.678025 0.101506
v 0.937500 0.000000 -0.000000
vt 0.000000 0.000000
vt 1.000000 0.000000
vt 0.000000 1.000000
vt 1.000000 1.000000
vt 0.500000 0.500000
vt 0.000000 0.500000
vt 0.500000 1.000000
vt 1.000000 0.500000
vt 0.500000 0.000000
vt 0.250000 0.750000
vt 0.750000 0.750000
vt 0.250000 0.250000
vt 0.750000 0.250000
vt 0.750000 0.000000
vt 0.250000 0.000000
vt 1.000000 0.750000
vt 1.000000 0.250000
vt 0.250000 1.000000
vt 0.750000 1.000000
vt 0.000000 0.250000
vt 0.000000 0.750000
vt 0.365347 0.220303
vt 0.629073 0.770824
vt 0.245672 0.515386
vt 0.812500 0.250000
vt 0.875000 0.375000
vt 0.625000 0.125000
vt 0.625000 0.375000
vt 0.875000 0.125000
vt 0.375000 0.125000
vt 0.125000 0.125000
vt 0.492214 0.250470
vt 0.875000 0.625000
vt 0.625000 0.625000
vt 0.875000 0.875000
vt 0.375000 0.875000
vt 0.262101 0.599801
vt 0.125000 0.875000
vt 0.125000 0.625000
vt 0.625000 0.875000
vt 0.125000 0.375000
vt 0.250000 0.125000
vt 0.875000 0.750000
vt 0.875000 0.250000
vt 0.250000 0.875000
vt 0.750000 0.875000
vt 0.125000 0.250000
vt 0.125000 0.750000
vt 0.326030 0.593085
vt 0.125000 0.937500
vt 0.250000 0.812500
vt 0.875000 0.500000
vt 0.428653 0.727758
vt 0.248222 0.455442
vt 0.000000 0.375000
vt 0.500000 0.875000
vt 0.500000 0.625000
vt 0.250000 0.375000
vt 0.125000 0.500000
vt 0.375000 0.500000
vt 0.625000 0.250000
vt 0.500000 0.125000
vt 0.500000 0.375000
vt 0.000000 0.625000
vt 0.000000 0.875000
vt 0.000000 0.125000
vt 0.625000 1.000000
vt 0.875000 1.000000
vt 0.125000 1.000000
vt 0.375000 1.000000
vt 1.000000 0.375000
vt 1.000000 0.125000
vt 1.000000 0.875000
vt 1.000000 0.625000
vt 0.375000 0.000000
vt 0.125000 0.000000
vt 0.875000 0.000000
vt 0.625000 0.000000
vt 0.750000 0.125000
vt 0.625000 0.500000
vt 0.760524 0.515669
vt 0.062500 0.312500
vt 0.187500 0.437500
vt 0.187500 0.312500
vt 0.062500 0.437500
vt 0.687500 0.937500
vt 0.687500 0.812500
vt 0.562500 0.937500
vt 0.062500 0.687500
vt 0.187500 0.687500
vt 0.062500 0.562500
vt 0.187500 0.937500
vt 0.187500 0.812500
vt 0.062500 0.937500
vt 0.437500 0.562500
vt 0.875000 0.812500
vt 0.549321 0.728130
vt 0.312500 0.812500
vt 0.437500 0.937500
vt 0.937500 0.812500
vt 0.812500 0.812500
vt 0.937500 0.937500
vt 0.875000 0.187500
vt 0.562500 0.562500
vt 0.708781 0.427260
vt 0.819332 0.591237
vt 0.812500 0.687500
vt 0.937500 0.562500
vt 0.750000 0.812500
vt 0.682510 0.583771
vt 0.437500 0.437500
vt 0.187500 0.062500
vt 0.062500 0.062500
vt 0.187500 0.187500
vt 0.312500 0.062500
vt 0.312500 0.187500
vt 0.437500 0.062500
vt 0.812500 0.062500
vt 0.937500 0.062500
vt 0.554454 0.248535
vt 0.562500 0.437500
vt 0.525016 0.804189
vt 0.562500 0.187500
vt 0.687500 0.187500
vt 0.562500 0.062500
vt 0.937500 0.312500
vt 0.812500 0.312500
vt 0.937500 0.437500
vt 0.312500 0.937500
vt 0.477574 0.762067
vt 0.812500 0.187500
vt 0.800716 0.372483
vt 0.687500 0.062500
vt 0.062500 0.125000
vt 0.937500 0.187500
vt 0.437500 0.187500
vt 0.062500 0.187500
vt 0.386728 0.766561
vt 0.937500 0.687500
vt 0.187500 0.875000
vt 0.062500 0.812500
vt 0.812500 0.937500
vt 0.187500 0.562500
vt 0.765906 0.648544
vt 0.327433 0.531612
vt 0.706470 0.346401
vt 0.334678 0.346289
vt 0.713686 0.727057
vt 0.324001 0.726119
vt 0.609107 0.345793
vt 0.331375 0.409108
vt 0.296906 0.332149
vt 0.712561 0.609975
vt 0.713437 0.300753
vt 0.668274 0.669022
vt 0.331126 0.276226
vt 0.281585 0.657008
vt 0.710896 0.538670
vt 0.610968 0.727843
vt 0.329339 0.470163
vt 0.424127 0.345802
vt 0.937500 0.750000
vt 0.547181 0.345900
vt 0.812500 0.750000
vt 0.418341 0.256674
vt 0.425703 0.815414
vt 0.812755 0.481587
vt 0.750000 0.187500
vt 0.375653 0.417988
vt 0.414679 0.661630
vt 0.625000 0.437500
vt 0.324992 0.653832
vt 0.587160 0.675778
vt 0.937500 0.000000
vn -0.062552 -0.062552 0.996080
vn 0.068801 -0.137602 0.988095
vn -0.051729 0.051729 0.997321
vn 0.086063 0.086063 0.992566
vn -0.000291 0.113044 0.993590
vn -0.380770 -0.008461 0.924631
vn -0.002008 0.418743 0.908103
vn 0.391912 -0.001301 0.920002
vn -0.009362 -0.351075 0.936301
vn -0.226895 0.157718 0.961064
vn 0.231058 0.179369 0.956263
vn -0.309305 -0.326672 0.893093
vn 0.202687 -0.332322 0.921130
vn 0.022614 -0.314873 0.948864
vn -0.034846 -0.250574 0.967470
vn 0.366115 0.055928 0.928887
vn 0.462751 -0.011698 0.886411
vn -0.024211 0.328537 0.944181
vn 0.041597 0.450972 0.891568
vn -0.253091 -0.001770 0.967441
vn -0.340326 0.024423 0.939990
vn -0.024292 -0.433643 0.900757
vn -0.002400 0.219792 0.975544
vn -0.346402 0.053563 0.936556
vn 0.229357 -0.243087 0.942499
vn 0.453994 0.025868 0.890629
vn -0.005844 -0.360893 0.932589
vn -0.000262 0.115437 0.993315
vn 0.150325 -0.236065 0.960039
vn -0.046392 -0.358181 0.932499
vn -0.101738 -0.115461 0.988088
vn 0.007403 -0.432563 0.901573
vn 0.346804 0.009732 0.937887
vn 0.000541 0.116043 0.993244
vn 0.233434 0.150108 0.960717
vn -0.021236 0.332852 0.942740
vn -0.310757 0.070389 0.947879
vn -0.161247 0.167912 0.972525
vn -0.316027 0.031013 0.948243
vn -0.014466 0.344848 0.938547
vn -0.374381 -0.044445 0.926209
vn -0.117244 -0.265789 0.956875
vn 0.327026 0.074373 0.942084
vn 0.327037 -0.116273 0.937831
vn -0.114957 0.284436 0.951778
vn 0.131685 0.277176 0.951752
vn -0.268527 -0.114431 0.956451
vn -0.263917 0.086260 0.960680
vn -0.201926 0.104788 0.973779
vn -0.092539 0.201027 0.975205
vn -0.175956 0.212680 0.961149
vn 0.419028 0.044431 0.906886
vn -0.016118 0.213823 0.976739
vn -0.388913 0.061528 0.919218
vn -0.311567 -0.029216 0.949775
vn -0.044017 0.345833 0.937263
vn 0.001743 0.117075 0.993122
vn -0.422527 -0.002565 0.906347
vn -0.347091 -0.017965 0.937659
vn -0.008418 0.113132 0.993544
vn -0.015655 -0.415860 0.909294
vn -0.003449 -0.346254 0.938134
vn -0.000779 0.114710 0.993399
vn -0.390552 0.002997 0.920576
vn -0.200205 0.049049 0.978526
vn -0.193364 -0.042524 0.980205
vn -0.028775 0.472219 0.881011
vn 0.053576 0.276159 0.959617
vn -0.061022 0.229644 0.971360
vn -0.011783 0.394228 0.918937
vn 0.438866 0.024763 0.898211
vn 0.328197 -0.063211 0.942492
vn 0.216617 0.023138 0.975982
vn 0.413637 -0.004611 0.910430
vn -0.004730 -0.325257 0.945614
vn -0.014895 -0.154077 0.987947
vn 0.013990 -0.232060 0.972601
vn 0.003332 -0.362160 0.932110
vn 0.075052 -0.339417 0.937637
vn 0.003846 0.112207 0.993677
vn 0.383154 0.085795 0.919691
vn -0.297824 -0.035849 0.953947
vn -0.384496 0.017300 0.922965
vn -0.391070 -0.156103 0.907026
vn -0.347759 -0.033445 0.936987
vn 0.016688 0.437690 0.898971
vn 0.063643 0.235926 0.969685
vn -0.025943 0.437131 0.899024
vn -0.344564 0.029461 0.938300
vn -0.266009 0.083026 0.960388
vn -0.372756 -0.002674 0.927925
vn -0.070510 0.266643 0.961213
vn -0.196658 0.174353 0.964845
vn -0.120323 0.121291 0.985297
vn -0.004053 0.124870 0.992165
vn 0.300023 0.122784 0.945997
vn -0.001239 0.165757 0.986166
vn -0.088490 0.273316 0.957845
vn -0.021219 0.395107 0.918390
vn 0.328679 0.091418 0.940007
vn 0.218489 0.185801 0.957988
vn 0.134671 0.118945 0.983725
vn 0.226659 -0.200681 0.953076
vn 0.003162 0.127743 0.991802
vn 0.188342 0.113120 0.975567
vn 0.343453 0.032253 0.938616
vn 0.295907 0.073317 0.952399
vn 0.394949 -0.019314 0.918500
vn 0.177096 0.203302 0.962967
vn 0.001551 0.116305 0.993212
vn -0.003854 0.105705 0.994390
vn -0.047032 -0.198960 0.978878
vn -0.093816 -0.085666 0.991897
vn -0.194981 -0.203656 0.959431
vn -0.042298 -0.282525 0.958327
vn -0.124793 -0.400432 0.907789
vn -0.004732 -0.332322 0.943154
vn 0.044030 -0.313183 0.948672
vn 0.102798 -0.162522 0.981335
vn -0.022726 -0.433854 0.900696
vn 0.002270 0.104016 0.994573
vn -0.032862 0.259480 0.965189
vn -0.036797 -0.403877 0.914073
vn 0.043480 -0.370097 0.927975
vn -0.013805 -0.341613 0.939739
vn 0.459131 -0.007710 0.888335
vn 0.360136 -0.157776 0.919461
vn 0.434459 0.044974 0.899568
vn -0.025721 0.356932 0.933776
vn -0.029630 0.264237 0.964002
vn 0.143481 -0.287037 0.947113
vn 0.424566 0.009783 0.905344
vn 0.012337 -0.354711 0.934895
vn -0.156412 -0.064175 0.985605
vn 0.355042 -0.101234 0.929353
vn -0.000805 -0.405222 0.914218
vn -0.193546 -0.041042 0.980232
vn -0.004298 0.297285 0.954779
vn 0.378206 0.032973 0.925134
vn -0.151252 0.238619 0.959262
vn -0.259562 0.067173 0.963387
vn 0.093032 0.339329 0.936056
vn -0.300842 0.031609 0.953150
vn 0.315401 0.086474 0.945010
vn -0.167120 0.109741 0.979810
vn 0.179255 -0.223205 0.958148
vn -0.335236 -0.150221 0.930081
vn 0.171561 0.181305 0.968347
vn -0.133548 0.186373 0.973360
vn -0.000402 -0.054246 0.998528
vn -0.166518 0.101858 0.980763
vn -0.431683 -0.212931 0.876533
vn 0.114116 0.106498 0.987743
vn 0.180127 -0.424718 0.887226
vn -0.000543 0.114639 0.993407
vn -0.173392 -0.433797 0.884169
vn -0.286277 0.092834 0.953639
vn 0.198036 0.113719 0.973576
vn -0.000185 0.159743 0.987159
vn -0.154875 0.106978 0.982125
vn 0.000150 -0.129058 0.991637
vn 0.355357 0.080952 0.931219
vn 0.000125 -0.113138 0.993579
vn 0.262011 0.111261 0.958630
vn -0.005845 -0.435173 0.900328
vn -0.032095 0.301494 0.952928
vn 0.408416 0.079087 0.909363
vn 0.120652 -0.328545 0.936750
vn -0.000701 0.113626 0.993523
vn -0.000299 0.116141 0.993233
vn 0.000153 0.107981 0.994153
vn -0.190215 0.111311 0.975412
vn 0.000609 0.114000 0.993481
vn 0.000000 -0.204344 0.978899
f 1/1/1 113/113/113 66/66/66
f 155/155/155 34/34/34 153/153/153
f 112/112/112 31/31/31 113/113/113
f 76/76/76 112/112/112 113/113/113
f 169/169/169 147/147/147 161/161/161
f 57/57/57 53/53/53 170/170/170
f 114/114/114 31/31/31 42/42/42
f 31/31/31 134/134/134 113/113/113
f 134/134/134 137/137/137 66/66/66
f 134/134/134 66/66/66 113/113/113
f 115/115/115 112/112/112 15/15/15
f 31/31/31 137/137/137 134/134/134
f 73/73/73 102/102/102 100/100/100
f 114/114/114 137/137/137 31/31/31
f 76/76/76 113/113/113 1/1/1
f 57/57/57 170/170/170 95/95/95
f 15/15/15 112/112/112 76/76/76
f 115/115/115 15/15/15 75/75/75
f 45/45/45 51/51/51 98/98/98
f 136/136/136 62/62/62 32/32/32
f 136/136/136 30/30/30 117/117/117
f 22/22/22 30/30/30 136/136/136
f 22/22/22 156/156/156 116/116/116
f 62/62/62 136/136/136 117/117/117
f 165/165/165 136/136/136 32/32/32
f 115/115/115 30/30/30 42/42/42
f 152/152/152 156/156/156 147/147/147
f 42/42/42 116/116/116 114/114/114
f 116/116/116 30/30/30 22/22/22
f 42/42/42 112/112/112 115/115/115
f 123/123/123 32/32/32 62/62/62
f 84/84/84 152/152/152 58/58/58
f 12/12/12 114/114/114 116/116/116
f 116/116/116 42/42/42 30/30/30
f 54/54/54 151/151/151 160/160/160
f 75/75/75 117/117/117 115/115/115
f 111/111/111 169/169/169 161/161/161
f 165/165/165 22/22/22 136/136/136
f 161/161/161 165/165/165 32/32/32
f 83/83/83 58/58/58 54/54/54
f 47/47/47 137/137/137 114/114/114
f 63/63/63 121/121/121 111/111/111
f 30/30/30 115/115/115 117/117/117
f 60/60/60 169/169/169 111/111/111
f 151/151/151 147/147/147 169/169/169
f 72/72/72 135/135/135 119/119/119
f 10/10/10 51/51/51 93/93/93
f 54/54/54 58/58/58 151/151/151
f 129/129/129 45/45/45 36/36/36
f 151/151/151 152/152/152 147/147/147
f 151/151/151 169/169/169 160/160/160
f 148/148/148 155/155/155 153/153/153
f 58/58/58 152/152/152 151/151/151
f 149/149/149 98/98/98 10/10/10
f 27/27/27 123/123/123 125/125/125
f 147/147/147 156/156/156 161/161/161
f 157/157/157 10/10/10 90/90/90
f 82/82/82 137/137/137 47/47/47
f 84/84/84 12/12/12 152/152/152
f 112/112/112 42/42/42 31/31/31
f 172/172/172 49/49/49 170/170/170
f 20/20/20 137/137/137 82/82/82
f 159/159/159 173/173/173 155/155/155
f 20/20/20 66/66/66 137/137/137
f 55/55/55 20/20/20 82/82/82
f 34/34/34 155/155/155 173/173/173
f 23/23/23 40/40/40 122/122/122
f 92/92/92 45/45/45 129/129/129
f 149/149/149 172/172/172 170/170/170
f 94/94/94 50/50/50 69/69/69
f 52/52/52 108/108/108 106/106/106
f 107/107/107 33/33/33 43/43/43
f 139/139/139 43/43/43 33/33/33
f 79/79/79 29/29/29 131/131/131
f 49/49/49 37/37/37 145/145/145
f 6/6/6 85/85/85 91/91/91
f 45/45/45 98/98/98 36/36/36
f 94/94/94 69/69/69 3/3/3
f 110/110/110 153/153/153 34/34/34
f 166/166/166 138/138/138 130/130/130
f 122/122/122 166/166/166 130/130/130
f 33/33/33 106/106/106 108/108/108
f 93/93/93 38/38/38 48/48/48
f 62/62/62 125/125/125 123/123/123
f 37/37/37 90/90/90 143/143/143
f 143/143/143 90/90/90 39/39/39
f 29/29/29 79/79/79 118/118/118
f 79/79/79 131/131/131 168/168/168
f 129/129/129 70/70/70 18/18/18
f 149/149/149 170/170/170 53/53/53
f 92/92/92 18/18/18 69/69/69
f 38/38/38 92/92/92 50/50/50
f 53/53/53 130/130/130 138/138/138
f 92/92/92 69/69/69 50/50/50
f 38/38/38 140/140/140 92/92/92
f 93/93/93 45/45/45 140/140/140
f 94/94/94 38/38/38 50/50/50
f 48/48/48 38/38/38 141/141/141
f 65/65/65 94/94/94 3/3/3
f 47/47/47 84/84/84 82/82/82
f 21/21/21 141/141/141 65/65/65
f 38/38/38 94/94/94 141/141/141
f 41/41/41 82/82/82 84/84/84
f 65/65/65 141/141/141 94/94/94
f 39/39/39 90/90/90 48/48/48
f 51/51/51 45/45/45 93/93/93
f 23/23/23 122/122/122 97/97/97
f 93/93/93 140/140/140 38/38/38
f 145/145/145 160/160/160 60/60/60
f 92/92/92 129/129/129 18/18/18
f 140/140/140 45/45/45 92/92/92
f 89/89/89 39/39/39 48/48/48
f 48/48/48 141/141/141 89/89/89
f 28/28/28 121/121/121 163/163/163
f 89/89/89 21/21/21 64/64/64
f 21/21/21 89/89/89 141/141/141
f 165/165/165 161/161/161 156/156/156
f 149/149/149 10/10/10 157/157/157
f 6/6/6 91/91/91 64/64/64
f 59/59/59 91/91/91 85/85/85
f 6/6/6 55/55/55 85/85/85
f 24/24/24 83/83/83 54/54/54
f 59/59/59 39/39/39 91/91/91
f 143/143/143 39/39/39 59/59/59
f 63/63/63 163/163/163 121/121/121
f 24/24/24 54/54/54 160/160/160
f 34/34/34 173/173/173 57/57/57
f 90/90/90 10/10/10 93/93/93
f 27/27/27 125/125/125 133/133/133
f 119/119/119 29/29/29 118/118/118
f 56/56/56 88/88/88 99/99/99
f 39/39/39 89/89/89 91/91/91
f 166/166/166 56/56/56 36/36/36
f 99/99/99 36/36/36 56/56/56
f 108/108/108 74/74/74 33/33/33
f 37/37/37 157/157/157 90/90/90
f 37/37/37 143/143/143 24/24/24
f 149/149/149 138/138/138 98/98/98
f 138/138/138 166/166/166 98/98/98
f 135/135/135 72/72/72 17/17/17
f 155/155/155 148/148/148 159/159/159
f 51/51/51 10/10/10 98/98/98
f 78/78/78 133/133/133 125/125/125
f 17/17/17 126/126/126 135/135/135
f 104/104/104 95/95/95 5/5/5
f 60/60/60 160/160/160 169/169/169
f 44/44/44 135/135/135 126/126/126
f 105/105/105 158/158/158 80/80/80
f 57/57/57 95/95/95 104/104/104
f 84/84/84 58/58/58 41/41/41
f 34/34/34 57/57/57 104/104/104
f 156/156/156 152/152/152 12/12/12
f 122/122/122 130/130/130 97/97/97
f 53/53/53 138/138/138 149/149/149
f 123/123/123 27/27/27 61/61/61
f 132/132/132 146/146/146 127/127/127
f 11/11/11 144/144/144 107/107/107
f 103/103/103 44/44/44 25/25/25
f 87/87/87 11/11/11 109/109/109
f 128/128/128 8/8/8 52/52/52
f 80/80/80 110/110/110 104/104/104
f 124/124/124 154/154/154 61/61/61
f 12/12/12 116/116/116 156/156/156
f 11/11/11 148/148/148 144/144/144
f 37/37/37 49/49/49 157/157/157
f 144/144/144 153/153/153 106/106/106
f 53/53/53 97/97/97 130/130/130
f 106/106/106 153/153/153 81/81/81
f 110/110/110 34/34/34 104/104/104
f 77/77/77 119/119/119 118/118/118
f 80/80/80 104/104/104 5/5/5
f 158/158/158 153/153/153 110/110/110
f 121/121/121 171/171/171 80/80/80
f 105/105/105 146/146/146 132/132/132
f 81/81/81 153/153/153 158/158/158
f 158/158/158 110/110/110 80/80/80
f 28/28/28 146/146/146 105/105/105
f 167/167/167 106/106/106 81/81/81
f 36/36/36 99/99/99 129/129/129
f 107/107/107 106/106/106 33/33/33
f 127/127/127 44/44/44 26/26/26
f 96/96/96 164/164/164 43/43/43
f 85/85/85 41/41/41 59/59/59
f 83/83/83 41/41/41 58/58/58
f 74/74/74 108/108/108 8/8/8
f 126/126/126 26/26/26 44/44/44
f 164/164/164 11/11/11 107/107/107
f 35/35/35 100/100/100 102/102/102
f 144/144/144 148/148/148 153/153/153
f 144/144/144 106/106/106 107/107/107
f 111/111/111 5/5/5 60/60/60
f 87/87/87 148/148/148 11/11/11
f 95/95/95 60/60/60 5/5/5
f 88/88/88 56/56/56 40/40/40
f 108/108/108 52/52/52 8/8/8
f 83/83/83 59/59/59 41/41/41
f 96/96/96 162/162/162 100/100/100
f 43/43/43 164/164/164 107/107/107
f 43/43/43 139/139/139 162/162/162
f 56/56/56 166/166/166 122/122/122
f 24/24/24 143/143/143 83/83/83
f 16/16/16 162/162/162 139/139/139
f 35/35/35 101/101/101 96/96/96
f 35/35/35 96/96/96 100/100/100
f 96/96/96 101/101/101 164/164/164
f 96/96/96 43/43/43 162/162/162
f 86/86/86 46/46/46 142/142/142
f 16/16/16 100/100/100 162/162/162
f 55/55/55 82/82/82 85/85/85
f 68/68/68 142/142/142 102/102/102
f 142/142/142 46/46/46 35/35/35
f 142/142/142 35/35/35 102/102/102
f 87/87/87 46/46/46 40/40/40
f 46/46/46 109/109/109 101/101/101
f 19/19/19 86/86/86 142/142/142
f 88/88/88 40/40/40 86/86/86
f 23/23/23 87/87/87 40/40/40
f 86/86/86 40/40/40 46/46/46
f 23/23/23 148/148/148 87/87/87
f 87/87/87 109/109/109 46/46/46
f 59/59/59 83/83/83 143/143/143
f 23/23/23 159/159/159 148/148/148
f 24/24/24 145/145/145 37/37/37
f 56/56/56 122/122/122 40/40/40
f 67/67/67 88/88/88 86/86/86
f 101/101/101 35/35/35 46/46/46
f 7/7/7 70/70/70 99/99/99
f 67/67/67 7/7/7 88/88/88
f 19/19/19 67/67/67 86/86/86
f 68/68/68 19/19/19 142/142/142
f 41/41/41 85/85/85 82/82/82
f 4/4/4 68/68/68 102/102/102
f 73/73/73 4/4/4 102/102/102
f 16/16/16 73/73/73 100/100/100
f 74/74/74 16/16/16 139/139/139
f 154/154/154 150/150/150 61/61/61
f 26/26/26 128/128/128 52/52/52
f 126/126/126 17/17/17 71/71/71
f 97/97/97 53/53/53 57/57/57
f 77/77/77 118/118/118 14/14/14
f 60/60/60 95/95/95 145/145/145
f 167/167/167 132/132/132 26/26/26
f 49/49/49 145/145/145 95/95/95
f 128/128/128 71/71/71 8/8/8
f 70/70/70 129/129/129 99/99/99
f 164/164/164 101/101/101 11/11/11
f 109/109/109 11/11/11 101/101/101
f 25/25/25 44/44/44 127/127/127
f 64/64/64 91/91/91 89/89/89
f 25/25/25 127/127/127 13/13/13
f 22/22/22 165/165/165 156/156/156
f 132/132/132 127/127/127 26/26/26
f 154/154/154 127/127/127 146/146/146
f 131/131/131 13/13/13 168/168/168
f 131/131/131 25/25/25 13/13/13
f 167/167/167 26/26/26 52/52/52
f 105/105/105 132/132/132 167/167/167
f 167/167/167 52/52/52 106/106/106
f 105/105/105 167/167/167 81/81/81
f 105/105/105 81/81/81 158/158/158
f 171/171/171 28/28/28 105/105/105
f 171/171/171 105/105/105 80/80/80
f 29/29/29 119/119/119 135/135/135
f 121/121/121 80/80/80 5/5/5
f 121/121/121 28/28/28 171/171/171
f 121/121/121 5/5/5 111/111/111
f 63/63/63 111/111/111 161/161/161
f 163/163/163 161/161/161 32/32/32
f 163/163/163 150/150/150 28/28/28
f 120/120/120 150/150/150 163/163/163
f 150/150/150 146/146/146 28/28/28
f 163/163/163 63/63/63 161/161/161
f 120/120/120 123/123/123 61/61/61
f 124/124/124 27/27/27 79/79/79
f 23/23/23 97/97/97 159/159/159
f 119/119/119 2/2/2 72/72/72
f 154/154/154 13/13/13 127/127/127
f 154/154/154 146/146/146 150/150/150
f 124/124/124 13/13/13 154/154/154
f 160/160/160 145/145/145 24/24/24
f 174/174/174 2/2/2 119/119/119
f 133/133/133 78/78/78 14/14/14
f 120/120/120 61/61/61 150/150/150
f 133/133/133 79/79/79 27/27/27
f 120/120/120 163/163/163 32/32/32
f 120/120/120 32/32/32 123/123/123
f 124/124/124 61/61/61 27/27/27
f 77/77/77 174/174/174 119/119/119
f 9/9/9 117/117/117 75/75/75
f 26/26/26 126/126/126 128/128/128
f 78/78/78 125/125/125 9/9/9
f 71/71/71 128/128/128 126/126/126
f 118/118/118 133/133/133 14/14/14
f 84/84/84 47/47/47 12/12/12
f 135/135/135 44/44/44 103/103/103
f 103/103/103 131/131/131 29/29/29
f 114/114/114 12/12/12 47/47/47
f 79/79/79 133/133/133 118/118/118
f 168/168/168 13/13/13 124/124/124
f 168/168/168 124/124/124 79/79/79
f 95/95/95 170/170/170 49/49/49
f 103/103/103 25/25/25 131/131/131
f 7/7/7 99/99/99 88/88/88
f 135/135/135 103/103/103 29/29/29
f 36/36/36 98/98/98 166/166/166
f 90/90/90 93/93/93 48/48/48
f 49/49/49 172/172/172 157/157/157
f 172/172/172 149/149/149 157/157/157
f 97/97/97 173/173/173 159/159/159
f 173/173/173 97/97/97 57/57/57
f 139/139/139 33/33/33 74/74/74
f 9/9/9 125/125/125 117/117/117
f 62/62/62 117/117/117 125/125/125
