# frame 000893 
# time 0.447000 
# name Cloth3D 
v -0.000000 0.000000 -0.000000
v 1.000000 0.000000 -0.000000
v -0.000000 1.000000 0.000000
v 1.000000 1.000000 0.000000
v 0.499907 0.493251 0.173874
v -0.000000 0.500000 0.000000
v 0.500000 1.000000 0.000000
v 1.000000 0.500000 0.000000
v 0.500000 -0.000000 0.000000
v 0.250855 0.742534 0.039833
v 0.753936 0.746511 0.067239
v 0.244887 0.248670 0.078288
v 0.757422 0.246511 0.091657
v 0.750000 0.000000 0.000000
v 0.250000 0.000000 0.000000
v 1.000000 0.750000 0.000000
v 1.000000 0.250000 0.000000
v 0.250000 1.000000 0.000000
v 0.750000 1.000000 0.000000
v 0.000000 0.250000 0.000000
v 0.000000 0.750000 -0.000000
v 0.362628 0.221144 0.082257
v 0.000000 0.687500 -0.000000
v 0.231991 0.511709 0.118079
v 0.820381 0.246507 0.076580
v 0.884593 0.373116 0.067443
v 0.626187 0.125941 0.047892
v 0.885488 0.435716 0.070905
v 0.878081 0.121871 0.037010
v 0.374653 0.125878 0.045900
v 0.126161 0.126482 0.011714
v 0.492168 0.253236 0.098175
v 0.879598 0.620470 0.050731
v 0.630677 0.616750 0.117370
v 0.876922 0.875001 0.029121
v 0.375592 0.871902 0.032923
v 0.255628 0.593551 0.093401
v 0.126307 0.872522 0.006801
v 0.118814 0.623067 0.052581
v 0.625487 0.870120 0.029868
v 0.117413 0.374420 0.059244
v 0.249881 0.125226 0.035685
v 0.879460 0.747902 0.044396
v 0.880698 0.247881 0.052680
v 0.251776 0.870665 0.014332
v 0.750837 0.871456 0.026871
v 0.122753 0.250430 0.038600
v 0.125012 0.746173 0.022516
v 0.319222 0.585463 0.111751
v 0.586084 0.306007 0.121945
v 0.751017 0.362294 0.132487
v 0.890603 0.497631 0.078814
v 0.436041 0.765913 0.066230
v 0.228077 0.452432 0.136268
v 0.000000 0.375000 0.000000
v 0.500512 0.871017 0.034514
v 0.500889 0.616256 0.120331
v 0.237236 0.372429 0.116951
v 0.115307 0.497908 0.064630
v 0.361836 0.494268 0.168797
v 0.629197 0.250998 0.098561
v 0.500395 0.127850 0.045330
v 0.496648 0.446874 0.195488
v 0.000000 0.625000 0.000000
v 0.000000 0.875000 0.000000
v 0.000000 0.125000 0.000000
v 0.625000 1.000000 0.000000
v 0.875000 1.000000 0.000000
v 0.125000 1.000000 0.000000
v 0.375000 1.000000 0.000000
v 1.000000 0.375000 0.000000
v 1.000000 0.125000 0.000000
v 1.000000 0.875000 0.000000
v 1.000000 0.625000 0.000000
v 0.375000 0.000000 0.000000
v 0.125000 0.000000 0.000000
v 0.875000 0.000000 0.000000
v 0.625000 0.000000 0.000000
v 0.752188 0.120574 0.053868
v 0.637961 0.492613 0.172343
v 0.778053 0.511386 0.131555
v 0.059626 0.312608 0.025887
v 0.170546 0.434549 0.104027
v 0.181521 0.312286 0.072081
v 0.056143 0.436814 0.035020
v 0.687566 0.935870 0.016427
v 0.689310 0.807669 0.049222
v 0.562654 0.935215 0.015876
v 0.059640 0.686356 0.023890
v 0.185408 0.682196 0.048120
v 0.057125 0.561413 0.032325
v 0.188569 0.935588 0.003550
v 0.189025 0.807416 0.018383
v 0.063136 0.936694 -0.001168
v 0.433596 0.553870 0.142697
v 0.683838 0.356898 0.144939
v 0.508053 0.718534 0.085722
v 0.314166 0.805980 0.034050
v 0.437910 0.935354 0.015516
v 0.940997 0.812253 0.025431
v 0.815149 0.810407 0.044210
v 0.938488 0.938300 0.014553
v 0.880038 0.184589 0.046694
v 0.567476 0.554081 0.146442
v 0.941560 0.623089 0.029364
v 0.827577 0.585568 0.080232
v 0.818422 0.683510 0.068625
v 0.943942 0.560782 0.035256
v 0.318462 0.692180 0.067564
v 0.692750 0.576594 0.127809
v 0.884762 0.558895 0.064938
v 0.188027 0.062746 0.013383
v 0.063266 0.063169 -0.000931
v 0.186159 0.187691 0.042204
v 0.312821 0.061578 0.024207
v 0.310224 0.186310 0.068672
v 0.437831 0.063600 0.022929
v 0.813534 0.059193 0.027149
v 0.938498 0.061409 0.013076
v -0.000000 0.562500 0.000000
v 0.568328 0.447157 0.195504
v 0.526005 0.799004 0.058490
v 0.563836 0.189885 0.072491
v 0.690821 0.186532 0.072767
v 0.562885 0.064640 0.020525
v 0.941610 0.311720 0.030943
v 0.822597 0.309794 0.088270
v 0.942438 0.436624 0.034742
v 0.313208 0.935876 0.013313
v 0.937500 0.000000 -0.000000
v 0.817307 0.184146 0.060601
v 0.816433 0.368633 0.109273
v 0.688047 0.062024 0.024943
v 0.391289 0.374225 0.157782
v 0.939155 0.186514 0.021548
v 0.436794 0.189846 0.071143
v 0.062267 0.188037 0.013699
v 0.380159 0.762228 0.060592
v 0.941407 0.685855 0.028240
v 0.370601 0.316503 0.128814
v 0.063240 0.810811 0.006033
v 0.812841 0.936608 0.014184
v 0.177525 0.559559 0.084675
v 0.772224 0.642773 0.085355
v 0.319992 0.527441 0.144489
v 0.720205 0.447672 0.195591
v 0.320412 0.445990 0.195593
v 0.721323 0.767966 0.063316
v 0.882057 0.310665 0.059282
v 0.621191 0.447367 0.195516
v 1.000000 0.062500 -0.000000
v 0.286610 0.329704 0.120725
v 0.721322 0.601604 0.115970
v 0.723189 0.297669 0.116352
v 0.673432 0.662885 0.100962
v 0.325283 0.275683 0.103037
v 0.278798 0.648967 0.076226
v 0.720156 0.535285 0.141302
v 0.613663 0.763677 0.063140
v 0.602441 0.366345 0.150379
v 0.413525 0.446526 0.195487
v 0.112360 0.435787 0.070429
v 0.781911 0.450452 0.149842
v 0.126010 0.063429 0.002894
v 0.415446 0.258132 0.100970
v 0.305066 0.385241 0.153974
v 0.831494 0.478351 0.113901
v 0.475437 0.361546 0.150798
v 0.000000 0.812500 -0.000000
v 0.413660 0.652434 0.098094
v 0.879574 0.684283 0.047444
v 1.000000 0.937500 0.000000
v 0.590437 0.667751 0.100290
v 0.176977 0.373524 0.088096
v 0.181845 0.620752 0.066788
v 0.247459 0.186442 0.057981
vt 0.000000 0.000000
vt 1.000000 0.000000
vt 0.000000 1.000000
vt 1.000000 1.000000
vt 0.500000 0.500000
vt 0.000000 0.500000
vt 0.500000 1.000000
vt 1.000000 0.500000
vt 0.500000 0.000000
vt 0.250000 0.750000
vt 0.750000 0.750000
vt 0.250000 0.250000
vt 0.750000 0.250000
vt 0.750000 0.000000
vt 0.250000 0.000000
vt 1.000000 0.750000
vt 1.000000 0.250000
vt 0.250000 1.000000
vt 0.750000 1.000000
vt 0.000000 0.250000
vt 0.000000 0.750000
vt 0.365347 0.220303
vt 0.000000 0.687500
vt 0.245672 0.515386
vt 0.812500 0.250000
vt 0.875000 0.375000
vt 0.625000 0.125000
vt 0.875000 0.437500
vt 0.875000 0.125000
vt 0.375000 0.125000
vt 0.125000 0.125000
vt 0.492214 0.250470
vt 0.875000 0.625000
vt 0.625000 0.625000
vt 0.875000 0.875000
vt 0.375000 0.875000
vt 0.262101 0.599801
vt 0.125000 0.875000
vt 0.125000 0.625000
vt 0.625000 0.875000
vt 0.125000 0.375000
vt 0.250000 0.125000
vt 0.875000 0.750000
vt 0.875000 0.250000
vt 0.250000 0.875000
vt 0.750000 0.875000
vt 0.125000 0.250000
vt 0.125000 0.750000
vt 0.325445 0.593646
vt 0.581754 0.304126
vt 0.736041 0.365469
vt 0.875000 0.500000
vt 0.435664 0.771773
vt 0.248222 0.455442
vt 0.000000 0.375000
vt 0.500000 0.875000
vt 0.500000 0.625000
vt 0.250000 0.375000
vt 0.125000 0.500000
vt 0.375000 0.500000
vt 0.625000 0.250000
vt 0.500000 0.125000
vt 0.497368 0.451839
vt 0.000000 0.625000
vt 0.000000 0.875000
vt 0.000000 0.125000
vt 0.625000 1.000000
vt 0.875000 1.000000
vt 0.125000 1.000000
vt 0.375000 1.000000
vt 1.000000 0.375000
vt 1.000000 0.125000
vt 1.000000 0.875000
vt 1.000000 0.625000
vt 0.375000 0.000000
vt 0.125000 0.000000
vt 0.875000 0.000000
vt 0.625000 0.000000
vt 0.750000 0.125000
vt 0.625000 0.500000
vt 0.760524 0.515669
vt 0.062500 0.312500
vt 0.187500 0.437500
vt 0.187500 0.312500
vt 0.062500 0.437500
vt 0.687500 0.937500
vt 0.687500 0.812500
vt 0.562500 0.937500
vt 0.062500 0.687500
vt 0.187500 0.687500
vt 0.062500 0.562500
vt 0.187500 0.937500
vt 0.187500 0.812500
vt 0.062500 0.937500
vt 0.437500 0.562500
vt 0.671367 0.358455
vt 0.506884 0.725192
vt 0.312500 0.812500
vt 0.437500 0.937500
vt 0.937500 0.812500
vt 0.812500 0.812500
vt 0.937500 0.937500
vt 0.875000 0.187500
vt 0.562500 0.562500
vt 0.937500 0.625000
vt 0.819332 0.591237
vt 0.812500 0.687500
vt 0.937500 0.562500
vt 0.319123 0.700934
vt 0.682510 0.583771
vt 0.875000 0.562500
vt 0.187500 0.062500
vt 0.062500 0.062500
vt 0.187500 0.187500
vt 0.312500 0.062500
vt 0.312500 0.187500
vt 0.437500 0.062500
vt 0.812500 0.062500
vt 0.937500 0.062500
vt 0.000000 0.562500
vt 0.561604 0.452168
vt 0.525016 0.804189
vt 0.562500 0.187500
vt 0.687500 0.187500
vt 0.562500 0.062500
vt 0.937500 0.312500
vt 0.812500 0.312500
vt 0.937500 0.437500
vt 0.312500 0.937500
vt 0.937500 0.000000
vt 0.812500 0.187500
vt 0.800716 0.372483
vt 0.687500 0.062500
vt 0.400647 0.375957
vt 0.937500 0.187500
vt 0.437500 0.187500
vt 0.062500 0.187500
vt 0.380019 0.768564
vt 0.937500 0.687500
vt 0.377625 0.317694
vt 0.062500 0.812500
vt 0.812500 0.937500
vt 0.187500 0.562500
vt 0.765906 0.648544
vt 0.331311 0.532927
vt 0.693285 0.452880
vt 0.344521 0.449529
vt 0.718294 0.771897
vt 0.875000 0.312500
vt 0.608555 0.452293
vt 1.000000 0.062500
vt 0.296906 0.332149
vt 0.711873 0.607167
vt 0.713437 0.300753
vt 0.668274 0.669022
vt 0.331126 0.276226
vt 0.281585 0.657008
vt 0.705472 0.541710
vt 0.611736 0.771102
vt 0.595175 0.366343
vt 0.423496 0.450952
vt 0.125000 0.437500
vt 0.758105 0.454518
vt 0.125000 0.062500
vt 0.418341 0.256674
vt 0.320334 0.388669
vt 0.812755 0.481587
vt 0.477835 0.361491
vt 0.000000 0.812500
vt 0.414679 0.661630
vt 0.875000 0.687500
vt 1.000000 0.937500
vt 0.587160 0.675778
vt 0.187500 0.375000
vt 0.187500 0.625000
vt 0.250000 0.187500
vn 0.010142 0.010142 0.999897
vn 0.103518 -0.103518 0.989226
vn 0.009922 -0.009922 0.999902
vn 0.152499 0.076249 0.985358
vn -0.009077 0.425235 0.905037
vn -0.498210 0.008557 0.867014
vn -0.002928 0.232710 0.972542
vn 0.554549 -0.004754 0.832137
vn 0.009119 -0.321193 0.946970
vn -0.149379 0.261221 0.953651
vn 0.110478 0.259029 0.959530
vn -0.244948 -0.304007 0.920641
vn 0.182332 -0.279836 0.942575
vn -0.013048 -0.395370 0.918429
vn -0.041625 -0.288136 0.956684
vn 0.412618 0.012078 0.910824
vn 0.406435 -0.037424 0.912913
vn -0.039053 0.125879 0.991277
vn 0.008295 0.230902 0.972942
vn -0.303355 -0.048475 0.951644
vn -0.228463 0.048206 0.972358
vn -0.021091 -0.378077 0.925534
vn -0.368531 0.000000 0.929616
vn -0.368483 0.288372 0.883777
vn 0.274634 -0.196677 0.941220
vn 0.495815 -0.098906 0.862778
vn -0.024192 -0.369184 0.929042
vn 0.538263 -0.108886 0.835713
vn 0.234963 -0.182201 0.954775
vn 0.005427 -0.345313 0.938472
vn -0.157641 -0.166852 0.973298
vn 0.001086 -0.409631 0.912251
vn 0.333763 0.154784 0.929862
vn 0.045860 0.341397 0.938800
vn 0.063490 0.166976 0.983915
vn -0.090229 0.235234 0.967742
vn -0.222418 0.368322 0.902701
vn -0.060724 0.092117 0.993895
vn -0.271951 0.202269 0.940813
vn 0.019816 0.254760 0.966801
vn -0.432368 -0.180235 0.883501
vn -0.158325 -0.297161 0.941610
vn 0.241510 0.085403 0.966633
vn 0.396254 -0.105841 0.912020
vn -0.103181 0.131068 0.985989
vn 0.012189 0.244410 0.969595
vn -0.284954 -0.178653 0.941745
vn -0.122576 0.187123 0.974659
vn -0.163102 0.436276 0.884907
vn 0.004404 -0.414115 0.910214
vn 0.295809 -0.358467 0.885437
vn 0.507635 0.031098 0.861011
vn -0.081930 0.282278 0.955828
vn -0.475737 0.054362 0.877906
vn -0.463081 -0.039625 0.885430
vn 0.003881 0.289732 0.957100
vn -0.040230 0.368125 0.928906
vn -0.400694 -0.302047 0.864992
vn -0.466863 0.097248 0.878966
vn -0.053894 0.497762 0.865638
vn 0.000163 -0.389205 0.921151
vn 0.002662 -0.367532 0.930007
vn -0.000677 0.136014 0.990707
vn -0.430194 0.023054 0.902442
vn -0.045169 0.022026 0.998737
vn -0.095236 -0.058656 0.993725
vn -0.002216 0.242405 0.970173
vn -0.002781 0.220271 0.975435
vn -0.017725 0.015052 0.999730
vn -0.006571 0.214680 0.976662
vn 0.498904 -0.012900 0.866561
vn 0.259450 -0.027777 0.965357
vn 0.293490 0.034614 0.955335
vn 0.461164 0.038307 0.886488
vn 0.007654 -0.351634 0.936106
vn -0.076968 -0.056974 0.995404
vn 0.045617 -0.294389 0.954596
vn -0.018645 -0.338144 0.940910
vn 0.022444 -0.332742 0.942751
vn 0.028015 0.449901 0.892639
vn 0.418621 0.338441 0.842742
vn -0.375305 -0.087745 0.922739
vn -0.474497 -0.096073 0.874998
vn -0.371019 -0.248171 0.894849
vn -0.503608 -0.023702 0.863607
vn 0.008377 0.211402 0.977363
vn -0.000423 0.320970 0.947089
vn 0.006580 0.238394 0.971146
vn -0.302833 0.094239 0.948373
vn -0.163293 0.289039 0.943288
vn -0.453756 0.034314 0.890465
vn -0.043454 0.075894 0.996169
vn -0.089505 0.159156 0.983188
vn -0.015573 0.020509 0.999668
vn -0.072622 0.428000 0.900856
vn 0.097906 -0.434625 0.895274
vn -0.013652 0.315231 0.948917
vn -0.175714 0.213098 0.961100
vn -0.007206 0.251505 0.967829
vn 0.285729 0.057766 0.956568
vn 0.078836 0.219677 0.972382
vn 0.135771 0.109619 0.984657
vn 0.324306 -0.145688 0.934666
vn 0.013336 0.399021 0.916845
vn 0.402434 0.077299 0.912179
vn 0.351673 0.241396 0.904463
vn 0.257675 0.133539 0.956959
vn 0.484774 0.100099 0.868893
vn -0.170825 0.318680 0.932342
vn 0.083782 0.354232 0.931397
vn 0.386124 0.232003 0.892795
vn -0.124861 -0.177711 0.976129
vn -0.038315 -0.055917 0.997700
vn -0.248303 -0.262274 0.932501
vn -0.034390 -0.329358 0.943579
vn -0.088466 -0.340616 0.936031
vn 0.010460 -0.341124 0.939960
vn 0.053851 -0.351995 0.934451
vn 0.138045 -0.130463 0.981796
vn -0.491788 0.000000 0.870715
vn 0.004357 0.016894 0.999848
vn 0.016552 0.311109 0.950230
vn -0.014375 -0.383582 0.923395
vn -0.011854 -0.349805 0.936748
vn -0.010412 -0.343958 0.938927
vn 0.448247 -0.067869 0.891330
vn 0.380362 -0.204810 0.901875
vn 0.536506 -0.062625 0.841570
vn -0.061125 0.175545 0.982572
vn 0.000000 -0.204993 0.978763
vn 0.196595 -0.242031 0.950143
vn 0.452171 -0.227701 0.862377
vn -0.031436 -0.372399 0.927540
vn -0.032204 -0.458604 0.888057
vn 0.363327 -0.078855 0.928319
vn -0.007434 -0.384179 0.923229
vn -0.195606 -0.107272 0.974798
vn -0.163917 0.256197 0.952625
vn 0.356474 0.027555 0.933899
vn -0.081506 -0.442026 0.893292
vn -0.104709 0.065380 0.992351
vn -0.003103 0.213438 0.976952
vn -0.301015 0.234362 0.924372
vn 0.241736 0.224703 0.943966
vn -0.188444 0.472080 0.861179
vn 0.298113 0.023991 0.954229
vn -0.228733 0.031220 0.972988
vn 0.039610 0.310331 0.949803
vn 0.431401 -0.113493 0.894993
vn -0.000485 0.094714 0.995504
vn 0.204714 -0.000000 0.978822
vn -0.262293 -0.397350 0.879384
vn 0.164359 0.340272 0.925851
vn 0.172470 -0.345402 0.922470
vn 0.075822 0.319532 0.944537
vn -0.111378 -0.396700 0.911166
vn -0.184358 0.354717 0.916618
vn 0.189072 0.411366 0.891644
vn 0.027267 0.320004 0.947024
vn 0.011963 -0.457075 0.889348
vn -0.007885 0.014372 0.999866
vn -0.505638 -0.054257 0.861038
vn 0.550417 0.036362 0.834098
vn -0.116875 -0.090670 0.988999
vn -0.023786 -0.421679 0.906433
vn -0.290106 -0.429417 0.855242
vn 0.512397 0.099940 0.852914
vn 0.006622 -0.453751 0.891104
vn -0.089995 -0.000000 0.995942
vn -0.118768 0.341292 0.932424
vn 0.306192 0.052683 0.950511
vn 0.226333 0.000000 0.974050
vn 0.026377 0.344353 0.938470
vn -0.432038 -0.256491 0.864613
vn -0.203132 0.300492 0.931902
vn -0.206261 -0.323104 0.923613
f 1/1/1 113/113/113 66/66/66
f 31/31/31 137/137/137 113/113/113
f 109/109/109 157/157/157 49/49/49
f 76/76/76 112/112/112 164/164/164
f 84/84/84 174/174/174 41/41/41
f 112/112/112 114/114/114 31/31/31
f 114/114/114 47/47/47 31/31/31
f 84/84/84 152/152/152 58/58/58
f 137/137/137 66/66/66 113/113/113
f 164/164/164 112/112/112 31/31/31
f 115/115/115 112/112/112 15/15/15
f 12/12/12 114/114/114 176/176/176
f 170/170/170 109/109/109 49/49/49
f 164/164/164 31/31/31 113/113/113
f 42/42/42 114/114/114 112/112/112
f 76/76/76 113/113/113 1/1/1
f 76/76/76 164/164/164 113/113/113
f 15/15/15 112/112/112 76/76/76
f 115/115/115 15/15/15 75/75/75
f 117/117/117 115/115/115 75/75/75
f 116/116/116 115/115/115 30/30/30
f 125/125/125 62/62/62 117/117/117
f 22/22/22 30/30/30 136/136/136
f 30/30/30 115/115/115 117/117/117
f 32/32/32 165/165/165 136/136/136
f 22/22/22 136/136/136 165/165/165
f 12/12/12 176/176/176 116/116/116
f 176/176/176 42/42/42 116/116/116
f 176/176/176 114/114/114 42/42/42
f 116/116/116 30/30/30 22/22/22
f 42/42/42 112/112/112 115/115/115
f 42/42/42 115/115/115 116/116/116
f 156/156/156 116/116/116 22/22/22
f 156/156/156 152/152/152 12/12/12
f 156/156/156 12/12/12 116/116/116
f 147/147/147 134/134/134 161/161/161
f 168/168/168 165/165/165 32/32/32
f 170/170/170 138/138/138 109/109/109
f 156/156/156 22/22/22 165/165/165
f 140/140/140 165/165/165 168/168/168
f 174/174/174 162/162/162 41/41/41
f 82/82/82 137/137/137 47/47/47
f 150/150/150 146/146/146 80/80/80
f 161/161/161 168/168/168 63/63/63
f 134/134/134 140/140/140 168/168/168
f 140/140/140 152/152/152 156/156/156
f 140/140/140 156/156/156 165/165/165
f 69/69/69 94/94/94 92/92/92
f 152/152/152 166/166/166 58/58/58
f 167/167/167 106/106/106 81/81/81
f 104/104/104 80/80/80 34/34/34
f 170/170/170 53/53/53 138/138/138
f 161/161/161 134/134/134 168/168/168
f 45/45/45 98/98/98 36/36/36
f 134/134/134 166/166/166 140/140/140
f 174/174/174 83/83/83 162/162/162
f 38/38/38 92/92/92 94/94/94
f 99/99/99 36/36/36 56/56/56
f 83/83/83 58/58/58 54/54/54
f 143/143/143 39/39/39 59/59/59
f 174/174/174 58/58/58 83/83/83
f 85/85/85 41/41/41 162/162/162
f 84/84/84 12/12/12 152/152/152
f 84/84/84 58/58/58 174/174/174
f 47/47/47 114/114/114 84/84/84
f 84/84/84 114/114/114 12/12/12
f 47/47/47 84/84/84 41/41/41
f 82/82/82 47/47/47 41/41/41
f 36/36/36 99/99/99 129/129/129
f 20/20/20 137/137/137 82/82/82
f 70/70/70 129/129/129 99/99/99
f 20/20/20 66/66/66 137/137/137
f 55/55/55 20/20/20 82/82/82
f 98/98/98 138/138/138 36/36/36
f 171/171/171 33/33/33 139/139/139
f 2/2/2 151/151/151 119/119/119
f 94/94/94 69/69/69 3/3/3
f 130/130/130 2/2/2 119/119/119
f 169/169/169 141/141/141 65/65/65
f 53/53/53 56/56/56 36/36/36
f 92/92/92 18/18/18 69/69/69
f 104/104/104 57/57/57 5/5/5
f 139/139/139 43/43/43 171/171/171
f 62/62/62 136/136/136 117/117/117
f 122/122/122 53/53/53 97/97/97
f 60/60/60 95/95/95 145/145/145
f 122/122/122 97/97/97 159/159/159
f 135/135/135 126/126/126 44/44/44
f 109/109/109 98/98/98 10/10/10
f 89/89/89 39/39/39 48/48/48
f 152/152/152 140/140/140 166/166/166
f 129/129/129 45/45/45 36/36/36
f 48/48/48 38/38/38 141/141/141
f 90/90/90 10/10/10 48/48/48
f 130/130/130 119/119/119 77/77/77
f 135/135/135 17/17/17 126/126/126
f 93/93/93 48/48/48 10/10/10
f 41/41/41 85/85/85 82/82/82
f 93/93/93 45/45/45 38/38/38
f 129/129/129 70/70/70 18/18/18
f 55/55/55 82/82/82 85/85/85
f 95/95/95 5/5/5 57/57/57
f 92/92/92 38/38/38 45/45/45
f 65/65/65 94/94/94 3/3/3
f 18/18/18 92/92/92 129/129/129
f 21/21/21 141/141/141 169/169/169
f 48/48/48 141/141/141 89/89/89
f 45/45/45 129/129/129 92/92/92
f 21/21/21 89/89/89 141/141/141
f 23/23/23 89/89/89 21/21/21
f 105/105/105 139/139/139 33/33/33
f 149/149/149 44/44/44 126/126/126
f 85/85/85 59/59/59 6/6/6
f 93/93/93 38/38/38 48/48/48
f 39/39/39 175/175/175 90/90/90
f 37/37/37 24/24/24 145/145/145
f 24/24/24 59/59/59 83/83/83
f 145/145/145 24/24/24 54/54/54
f 64/64/64 89/89/89 23/23/23
f 59/59/59 39/39/39 91/91/91
f 37/37/37 145/145/145 49/49/49
f 157/157/157 90/90/90 175/175/175
f 120/120/120 91/91/91 64/64/64
f 6/6/6 91/91/91 120/120/120
f 59/59/59 85/85/85 162/162/162
f 16/16/16 100/100/100 139/139/139
f 56/56/56 53/53/53 122/122/122
f 6/6/6 55/55/55 85/85/85
f 59/59/59 162/162/162 83/83/83
f 24/24/24 83/83/83 54/54/54
f 24/24/24 143/143/143 59/59/59
f 143/143/143 175/175/175 39/39/39
f 145/145/145 54/54/54 147/147/147
f 77/77/77 119/119/119 118/118/118
f 60/60/60 147/147/147 161/161/161
f 119/119/119 29/29/29 118/118/118
f 157/157/157 175/175/175 37/37/37
f 135/135/135 103/103/103 29/29/29
f 95/95/95 49/49/49 145/145/145
f 135/135/135 72/72/72 17/17/17
f 37/37/37 175/175/175 143/143/143
f 37/37/37 143/143/143 24/24/24
f 157/157/157 37/37/37 49/49/49
f 157/157/157 10/10/10 90/90/90
f 109/109/109 138/138/138 98/98/98
f 109/109/109 10/10/10 157/157/157
f 135/135/135 44/44/44 103/103/103
f 170/170/170 97/97/97 53/53/53
f 5/5/5 161/161/161 63/63/63
f 5/5/5 95/95/95 161/161/161
f 60/60/60 145/145/145 147/147/147
f 60/60/60 161/161/161 95/95/95
f 110/110/110 34/34/34 80/80/80
f 121/121/121 150/150/150 80/80/80
f 173/173/173 57/57/57 104/104/104
f 40/40/40 46/46/46 86/86/86
f 57/57/57 97/97/97 170/170/170
f 57/57/57 170/170/170 95/95/95
f 78/78/78 125/125/125 9/9/9
f 131/131/131 13/13/13 79/79/79
f 74/74/74 16/16/16 139/139/139
f 110/110/110 155/155/155 34/34/34
f 87/87/87 46/46/46 40/40/40
f 147/147/147 166/166/166 134/134/134
f 110/110/110 153/153/153 155/155/155
f 108/108/108 111/111/111 52/52/52
f 173/173/173 97/97/97 57/57/57
f 34/34/34 173/173/173 104/104/104
f 121/121/121 104/104/104 5/5/5
f 107/107/107 106/106/106 33/33/33
f 11/11/11 155/155/155 144/144/144
f 155/155/155 173/173/173 34/34/34
f 64/64/64 91/91/91 89/89/89
f 106/106/106 153/153/153 81/81/81
f 96/96/96 150/150/150 160/160/160
f 158/158/158 153/153/153 110/110/110
f 50/50/50 160/160/160 168/168/168
f 146/146/146 158/158/158 80/80/80
f 81/81/81 153/153/153 158/158/158
f 158/158/158 110/110/110 80/80/80
f 154/154/154 51/51/51 96/96/96
f 167/167/167 111/111/111 106/106/106
f 33/33/33 106/106/106 111/111/111
f 107/107/107 33/33/33 171/171/171
f 167/167/167 132/132/132 28/28/28
f 108/108/108 52/52/52 8/8/8
f 105/105/105 33/33/33 111/111/111
f 45/45/45 93/93/93 98/98/98
f 105/105/105 111/111/111 108/108/108
f 147/147/147 54/54/54 166/166/166
f 74/74/74 108/108/108 8/8/8
f 58/58/58 166/166/166 54/54/54
f 74/74/74 105/105/105 108/108/108
f 93/93/93 10/10/10 98/98/98
f 43/43/43 101/101/101 107/107/107
f 11/11/11 144/144/144 107/107/107
f 43/43/43 107/107/107 171/171/171
f 144/144/144 155/155/155 153/153/153
f 144/144/144 153/153/153 106/106/106
f 144/144/144 106/106/106 107/107/107
f 101/101/101 11/11/11 107/107/107
f 159/159/159 87/87/87 40/40/40
f 38/38/38 94/94/94 141/141/141
f 148/148/148 101/101/101 46/46/46
f 103/103/103 25/25/25 131/131/131
f 65/65/65 141/141/141 94/94/94
f 74/74/74 139/139/139 105/105/105
f 61/61/61 123/123/123 124/124/124
f 7/7/7 99/99/99 88/88/88
f 131/131/131 79/79/79 29/29/29
f 86/86/86 46/46/46 142/142/142
f 79/79/79 133/133/133 118/118/118
f 102/102/102 35/35/35 100/100/100
f 68/68/68 142/142/142 102/102/102
f 40/40/40 86/86/86 88/88/88
f 142/142/142 35/35/35 102/102/102
f 148/148/148 46/46/46 87/87/87
f 118/118/118 29/29/29 79/79/79
f 19/19/19 86/86/86 142/142/142
f 67/67/67 88/88/88 86/86/86
f 56/56/56 122/122/122 40/40/40
f 159/159/159 155/155/155 148/148/148
f 122/122/122 159/159/159 40/40/40
f 159/159/159 148/148/148 87/87/87
f 148/148/148 155/155/155 11/11/11
f 148/148/148 11/11/11 101/101/101
f 159/159/159 97/97/97 173/173/173
f 159/159/159 173/173/173 155/155/155
f 56/56/56 40/40/40 88/88/88
f 30/30/30 117/117/117 136/136/136
f 56/56/56 88/88/88 99/99/99
f 90/90/90 48/48/48 39/39/39
f 7/7/7 70/70/70 99/99/99
f 67/67/67 7/7/7 88/88/88
f 19/19/19 67/67/67 86/86/86
f 68/68/68 19/19/19 142/142/142
f 73/73/73 102/102/102 100/100/100
f 4/4/4 68/68/68 102/102/102
f 172/172/172 4/4/4 102/102/102
f 73/73/73 172/172/172 102/102/102
f 16/16/16 73/73/73 100/100/100
f 79/79/79 124/124/124 133/133/133
f 151/151/151 72/72/72 119/119/119
f 51/51/51 163/163/163 146/146/146
f 62/62/62 27/27/27 123/123/123
f 28/28/28 128/128/128 52/52/52
f 131/131/131 25/25/25 13/13/13
f 101/101/101 35/35/35 46/46/46
f 142/142/142 46/46/46 35/35/35
f 126/126/126 17/17/17 71/71/71
f 132/132/132 26/26/26 28/28/28
f 128/128/128 71/71/71 8/8/8
f 128/128/128 8/8/8 52/52/52
f 167/167/167 28/28/28 52/52/52
f 26/26/26 128/128/128 28/28/28
f 126/126/126 71/71/71 26/26/26
f 26/26/26 71/71/71 128/128/128
f 95/95/95 170/170/170 49/49/49
f 100/100/100 35/35/35 43/43/43
f 103/103/103 131/131/131 29/29/29
f 91/91/91 6/6/6 59/59/59
f 101/101/101 43/43/43 35/35/35
f 13/13/13 25/25/25 127/127/127
f 149/149/149 126/126/126 26/26/26
f 149/149/149 26/26/26 127/127/127
f 51/51/51 127/127/127 132/132/132
f 118/118/118 133/133/133 14/14/14
f 27/27/27 133/133/133 124/124/124
f 79/79/79 13/13/13 124/124/124
f 163/163/163 132/132/132 167/167/167
f 132/132/132 127/127/127 26/26/26
f 167/167/167 52/52/52 111/111/111
f 163/163/163 167/167/167 81/81/81
f 146/146/146 81/81/81 158/158/158
f 146/146/146 163/163/163 81/81/81
f 121/121/121 80/80/80 104/104/104
f 96/96/96 160/160/160 50/50/50
f 50/50/50 168/168/168 32/32/32
f 160/160/160 121/121/121 168/168/168
f 121/121/121 5/5/5 63/63/63
f 121/121/121 63/63/63 168/168/168
f 124/124/124 154/154/154 61/61/61
f 160/160/160 150/150/150 121/121/121
f 123/123/123 50/50/50 32/32/32
f 96/96/96 50/50/50 61/61/61
f 125/125/125 27/27/27 62/62/62
f 77/77/77 118/118/118 14/14/14
f 154/154/154 127/127/127 51/51/51
f 96/96/96 146/146/146 150/150/150
f 51/51/51 132/132/132 163/163/163
f 51/51/51 146/146/146 96/96/96
f 154/154/154 96/96/96 61/61/61
f 154/154/154 13/13/13 127/127/127
f 124/124/124 13/13/13 154/154/154
f 149/149/149 127/127/127 44/44/44
f 25/25/25 44/44/44 127/127/127
f 125/125/125 133/133/133 27/27/27
f 123/123/123 61/61/61 50/50/50
f 29/29/29 119/119/119 135/135/135
f 72/72/72 135/135/135 119/119/119
f 137/137/137 31/31/31 47/47/47
f 9/9/9 117/117/117 75/75/75
f 9/9/9 125/125/125 117/117/117
f 78/78/78 133/133/133 125/125/125
f 14/14/14 133/133/133 78/78/78
f 39/39/39 89/89/89 91/91/91
f 103/103/103 44/44/44 25/25/25
f 27/27/27 124/124/124 123/123/123
f 139/139/139 100/100/100 43/43/43
f 53/53/53 36/36/36 138/138/138
f 136/136/136 62/62/62 32/32/32
f 123/123/123 32/32/32 62/62/62
