# frame 000819 
# time 0.410000 
# name Box 
v 0.719524 0.623687 -0.339356
v 0.718908 0.770194 0.032847
v 0.720473 0.397995 0.179356
v 0.719524 0.623687 -0.339356
v 0.720473 0.397995 0.179356
v 0.721088 0.251487 -0.192847
v 0.319527 0.622005 -0.339356
v 0.321092 0.249806 -0.192847
v 0.320476 0.396313 0.179356
v 0.319527 0.622005 -0.339356
v 0.320476 0.396313 0.179356
v 0.318912 0.768513 0.032847
v 0.719524 0.623687 -0.339356
v 0.319527 0.622005 -0.339356
v 0.318912 0.768513 0.032847
v 0.719524 0.623687 -0.339356
v 0.318912 0.768513 0.032847
v 0.718908 0.770194 0.032847
v 0.718908 0.770194 0.032847
v 0.318912 0.768513 0.032847
v 0.320476 0.396313 0.179356
v 0.718908 0.770194 0.032847
v 0.320476 0.396313 0.179356
v 0.720473 0.397995 0.179356
v 0.720473 0.397995 0.179356
v 0.320476 0.396313 0.179356
v 0.321092 0.249806 -0.192847
v 0.720473 0.397995 0.179356
v 0.321092 0.249806 -0.192847
v 0.721088 0.251487 -0.192847
v 0.319527 0.622005 -0.339356
v 0.719524 0.623687 -0.339356
v 0.721088 0.251487 -0.192847
v 0.319527 0.622005 -0.339356
v 0.721088 0.251487 -0.192847
v 0.321092 0.249806 -0.192847
vn 0.199998 0.000841 0.000000
vn 0.199998 0.000841 0.000000
vn 0.199998 0.000841 0.000000
vn 0.199998 0.000841 0.000000
vn 0.199998 0.000841 0.000000
vn 0.199998 0.000841 0.000000
vn -0.199998 -0.000841 0.000000
vn -0.199998 -0.000841 0.000000
vn -0.199998 -0.000841 0.000000
vn -0.199998 -0.000841 0.000000
vn -0.199998 -0.000841 0.000000
vn -0.199998 -0.000841 0.000000
vn -0.000782 0.186100 -0.073255
vn -0.000782 0.186100 -0.073255
vn -0.000782 0.186100 -0.073255
vn -0.000782 0.186100 -0.073255
vn -0.000782 0.186100 -0.073255
vn -0.000782 0.186100 -0.073255
vn -0.000308 0.073254 0.186102
vn -0.000308 0.073254 0.186102
vn -0.000308 0.073254 0.186102
vn -0.000308 0.073254 0.186102
vn -0.000308 0.073254 0.186102
vn -0.000308 0.073254 0.186102
vn 0.000782 -0.186100 0.073255
vn 0.000782 -0.186100 0.073255
vn 0.000782 -0.186100 0.073255
vn 0.000782 -0.186100 0.073255
vn 0.000782 -0.186100 0.073255
vn 0.000782 -0.186100 0.073255
vn 0.000308 -0.073254 -0.186102
vn 0.000308 -0.073254 -0.186102
vn 0.000308 -0.073254 -0.186102
vn 0.000308 -0.073254 -0.186102
vn 0.000308 -0.073254 -0.186102
vn 0.000308 -0.073254 -0.186102
f 1/1/1 2/2/2 3/3/3
f 4/4/4 5/5/5 6/6/6
f 7/7/7 8/8/8 9/9/9
f 10/10/10 11/11/11 12/12/12
f 13/13/13 14/14/14 15/15/15
f 16/16/16 17/17/17 18/18/18
f 19/19/19 20/20/20 21/21/21
f 22/22/22 23/23/23 24/24/24
f 25/25/25 26/26/26 27/27/27
f 28/28/28 29/29/29 30/30/30
f 31/31/31 32/32/32 33/33/33
f 34/34/34 35/35/35 36/36/36
