# frame 000890 
# time 0.445500 
# name Cloth3D 
v -0.000000 0.000000 -0.000000
v 1.000000 0.000000 -0.000000
v -0.000000 1.000000 0.000000
v 1.000000 1.000000 0.000000
v 0.499985 0.492700 0.171472
v -0.000000 0.500000 0.000000
v 0.500000 1.000000 0.000000
v 1.000000 0.500000 0.000000
v 0.500000 -0.000000 0.000000
v 0.251026 0.742174 0.037053
v 0.753757 0.746598 0.066431
v 0.245163 0.248693 0.077605
v 0.757598 0.246694 0.091499
v 0.750000 0.000000 0.000000
v 0.250000 0.000000 0.000000
v 1.000000 0.750000 0.000000
v 1.000000 0.250000 0.000000
v 0.250000 1.000000 0.000000
v 0.750000 1.000000 0.000000
v 0.000000 0.250000 0.000000
v 0.000000 0.750000 -0.000000
v 0.362791 0.221149 0.081802
v 0.000000 0.687500 -0.000000
v 0.232398 0.511911 0.117142
v 0.820969 0.246359 0.078035
v 0.884373 0.373258 0.067157
v 0.626406 0.126333 0.047099
v 0.885848 0.435769 0.071391
v 0.878209 0.121950 0.037317
v 0.374745 0.126274 0.044695
v 0.126152 0.126282 0.011876
v 0.492322 0.253524 0.097300
v 0.880191 0.620677 0.051121
v 0.630711 0.616607 0.115887
v 0.876570 0.874994 0.028428
v 0.375524 0.871826 0.032144
v 0.255558 0.594069 0.093112
v 0.126421 0.872331 0.004666
v 0.118902 0.623202 0.052010
v 0.625197 0.870052 0.028618
v 0.117369 0.374254 0.059355
v 0.249843 0.124789 0.036606
v 0.879016 0.747935 0.042881
v 0.881391 0.247810 0.054164
v 0.251909 0.870491 0.012043
v 0.750469 0.871568 0.025843
v 0.123046 0.250359 0.038040
v 0.125128 0.745937 0.020419
v 0.319285 0.585358 0.110166
v 0.586172 0.305886 0.122277
v 0.751173 0.362282 0.133168
v 0.891057 0.497751 0.079325
v 0.435887 0.765853 0.065125
v 0.228780 0.452628 0.135011
v 0.000000 0.375000 0.000000
v 0.500364 0.870946 0.033444
v 0.500911 0.615872 0.118303
v 0.237150 0.372310 0.117082
v 0.115432 0.498074 0.064329
v 0.362117 0.494095 0.167242
v 0.629317 0.251008 0.098631
v 0.500560 0.127769 0.045507
v 0.496732 0.444809 0.195008
v 0.000000 0.625000 0.000000
v 0.000000 0.875000 0.000000
v 0.000000 0.125000 0.000000
v 0.625000 1.000000 0.000000
v 0.875000 1.000000 0.000000
v 0.125000 1.000000 0.000000
v 0.375000 1.000000 0.000000
v 1.000000 0.375000 0.000000
v 1.000000 0.125000 0.000000
v 1.000000 0.875000 0.000000
v 1.000000 0.625000 0.000000
v 0.375000 0.000000 0.000000
v 0.125000 0.000000 0.000000
v 0.875000 0.000000 0.000000
v 0.625000 0.000000 0.000000
v 0.752342 0.120887 0.053558
v 0.637850 0.492781 0.171029
v 0.778132 0.511541 0.130994
v 0.060078 0.312597 0.024898
v 0.171066 0.434674 0.103143
v 0.182061 0.312492 0.070710
v 0.056135 0.436819 0.035157
v 0.687397 0.935837 0.015955
v 0.689025 0.807950 0.048644
v 0.562572 0.935291 0.015865
v 0.059819 0.686362 0.023202
v 0.185698 0.681848 0.045661
v 0.057210 0.561503 0.032116
v 0.188604 0.935540 0.002693
v 0.189134 0.807151 0.015918
v 0.063161 0.936669 -0.001413
v 0.433659 0.553001 0.139761
v 0.683913 0.357304 0.144838
v 0.507919 0.718140 0.083560
v 0.314158 0.805852 0.032308
v 0.437843 0.935138 0.014346
v 0.940568 0.812260 0.024398
v 0.814673 0.810264 0.041941
v 0.938268 0.938112 0.013764
v 0.880046 0.184727 0.046552
v 0.567513 0.553506 0.143709
v 0.941810 0.623231 0.029404
v 0.827763 0.585329 0.079098
v 0.818048 0.683278 0.066763
v 0.944447 0.560936 0.035875
v 0.318620 0.691753 0.064777
v 0.692394 0.575621 0.124382
v 0.885692 0.559268 0.066088
v 0.187971 0.062614 0.013464
v 0.063285 0.063154 -0.001968
v 0.186667 0.187884 0.040671
v 0.312838 0.061555 0.024049
v 0.310360 0.186028 0.068974
v 0.437828 0.063629 0.022591
v 0.813626 0.059155 0.027609
v 0.938408 0.061531 0.012414
v -0.000000 0.562500 0.000000
v 0.568411 0.445093 0.195024
v 0.525793 0.799093 0.057793
v 0.564025 0.190069 0.072148
v 0.691023 0.186902 0.072104
v 0.562983 0.064462 0.020979
v 0.941927 0.311739 0.031511
v 0.822711 0.309911 0.088490
v 0.942423 0.436695 0.034779
v 0.313154 0.935901 0.013076
v 0.937500 0.000000 -0.000000
v 0.817712 0.184038 0.061760
v 0.816444 0.368803 0.109378
v 0.688191 0.062160 0.024820
v 0.391209 0.374492 0.157457
v 0.939441 0.186518 0.022217
v 0.436924 0.190228 0.069946
v 0.062459 0.188006 0.013073
v 0.380252 0.761719 0.057820
v 0.941516 0.686014 0.028174
v 0.370603 0.316654 0.128936
v 0.063250 0.810777 0.005106
v 0.812638 0.936525 0.013500
v 0.177973 0.559656 0.083360
v 0.772090 0.642359 0.083390
v 0.319994 0.527376 0.143625
v 0.720213 0.445607 0.195110
v 0.320421 0.443925 0.195112
v 0.721109 0.768097 0.062464
v 0.882291 0.310709 0.059745
v 0.621236 0.445302 0.195035
v 1.000000 0.062500 -0.000000
v 0.287073 0.330454 0.119420
v 0.721064 0.600986 0.113552
v 0.723262 0.297765 0.116436
v 0.673514 0.662502 0.099129
v 0.325458 0.275515 0.103176
v 0.278840 0.649002 0.074622
v 0.719566 0.534838 0.139867
v 0.613471 0.764006 0.062739
v 0.602557 0.366311 0.150987
v 0.413705 0.444462 0.195007
v 0.113104 0.435884 0.069252
v 0.781980 0.450546 0.149711
v 0.126102 0.063417 0.001924
v 0.415632 0.257956 0.101004
v 0.426149 0.810161 0.049821
v 0.831440 0.478390 0.113456
v 0.475414 0.361532 0.150883
v 0.000000 0.812500 -0.000000
v 0.413706 0.651888 0.095573
v 0.879292 0.684308 0.045895
v 1.000000 0.937500 0.000000
v 0.590489 0.667713 0.099087
v 0.177083 0.373433 0.087844
v 0.181751 0.621264 0.066850
v 0.247852 0.186619 0.056963
v 0.304669 0.384992 0.154932
vt 0.000000 0.000000
vt 1.000000 0.000000
vt 0.000000 1.000000
vt 1.000000 1.000000
vt 0.500000 0.500000
vt 0.000000 0.500000
vt 0.500000 1.000000
vt 1.000000 0.500000
vt 0.500000 0.000000
vt 0.250000 0.750000
vt 0.750000 0.750000
vt 0.250000 0.250000
vt 0.750000 0.250000
vt 0.750000 0.000000
vt 0.250000 0.000000
vt 1.000000 0.750000
vt 1.000000 0.250000
vt 0.250000 1.000000
vt 0.750000 1.000000
vt 0.000000 0.250000
vt 0.000000 0.750000
vt 0.365347 0.220303
vt 0.000000 0.687500
vt 0.245672 0.515386
vt 0.812500 0.250000
vt 0.875000 0.375000
vt 0.625000 0.125000
vt 0.875000 0.437500
vt 0.875000 0.125000
vt 0.375000 0.125000
vt 0.125000 0.125000
vt 0.492214 0.250470
vt 0.875000 0.625000
vt 0.625000 0.625000
vt 0.875000 0.875000
vt 0.375000 0.875000
vt 0.262101 0.599801
vt 0.125000 0.875000
vt 0.125000 0.625000
vt 0.625000 0.875000
vt 0.125000 0.375000
vt 0.250000 0.125000
vt 0.875000 0.750000
vt 0.875000 0.250000
vt 0.250000 0.875000
vt 0.750000 0.875000
vt 0.125000 0.250000
vt 0.125000 0.750000
vt 0.325445 0.593646
vt 0.581754 0.304126
vt 0.736041 0.365469
vt 0.875000 0.500000
vt 0.435664 0.771773
vt 0.248222 0.455442
vt 0.000000 0.375000
vt 0.500000 0.875000
vt 0.500000 0.625000
vt 0.250000 0.375000
vt 0.125000 0.500000
vt 0.375000 0.500000
vt 0.625000 0.250000
vt 0.500000 0.125000
vt 0.497383 0.449786
vt 0.000000 0.625000
vt 0.000000 0.875000
vt 0.000000 0.125000
vt 0.625000 1.000000
vt 0.875000 1.000000
vt 0.125000 1.000000
vt 0.375000 1.000000
vt 1.000000 0.375000
vt 1.000000 0.125000
vt 1.000000 0.875000
vt 1.000000 0.625000
vt 0.375000 0.000000
vt 0.125000 0.000000
vt 0.875000 0.000000
vt 0.625000 0.000000
vt 0.750000 0.125000
vt 0.625000 0.500000
vt 0.760524 0.515669
vt 0.062500 0.312500
vt 0.187500 0.437500
vt 0.187500 0.312500
vt 0.062500 0.437500
vt 0.687500 0.937500
vt 0.687500 0.812500
vt 0.562500 0.937500
vt 0.062500 0.687500
vt 0.187500 0.687500
vt 0.062500 0.562500
vt 0.187500 0.937500
vt 0.187500 0.812500
vt 0.062500 0.937500
vt 0.437500 0.562500
vt 0.671367 0.358455
vt 0.506884 0.725192
vt 0.312500 0.812500
vt 0.437500 0.937500
vt 0.937500 0.812500
vt 0.812500 0.812500
vt 0.937500 0.937500
vt 0.875000 0.187500
vt 0.562500 0.562500
vt 0.937500 0.625000
vt 0.819332 0.591237
vt 0.812500 0.687500
vt 0.937500 0.562500
vt 0.319123 0.700934
vt 0.682510 0.583771
vt 0.875000 0.562500
vt 0.187500 0.062500
vt 0.062500 0.062500
vt 0.187500 0.187500
vt 0.312500 0.062500
vt 0.312500 0.187500
vt 0.437500 0.062500
vt 0.812500 0.062500
vt 0.937500 0.062500
vt 0.000000 0.562500
vt 0.561610 0.449956
vt 0.525016 0.804189
vt 0.562500 0.187500
vt 0.687500 0.187500
vt 0.562500 0.062500
vt 0.937500 0.312500
vt 0.812500 0.312500
vt 0.937500 0.437500
vt 0.312500 0.937500
vt 0.937500 0.000000
vt 0.812500 0.187500
vt 0.800716 0.372483
vt 0.687500 0.062500
vt 0.400647 0.375957
vt 0.937500 0.187500
vt 0.437500 0.187500
vt 0.062500 0.187500
vt 0.380019 0.768564
vt 0.937500 0.687500
vt 0.377625 0.317694
vt 0.062500 0.812500
vt 0.812500 0.937500
vt 0.187500 0.562500
vt 0.765906 0.648544
vt 0.331138 0.532725
vt 0.693328 0.450731
vt 0.344384 0.447292
vt 0.718294 0.771897
vt 0.875000 0.312500
vt 0.608567 0.450027
vt 1.000000 0.062500
vt 0.296906 0.332149
vt 0.711873 0.607167
vt 0.713437 0.300753
vt 0.668274 0.669022
vt 0.331126 0.276226
vt 0.281585 0.657008
vt 0.705153 0.541430
vt 0.611736 0.771102
vt 0.595175 0.366343
vt 0.423527 0.448995
vt 0.125000 0.437500
vt 0.758105 0.454518
vt 0.125000 0.062500
vt 0.418341 0.256674
vt 0.425703 0.815414
vt 0.812755 0.481587
vt 0.477835 0.361491
vt 0.000000 0.812500
vt 0.414679 0.661630
vt 0.875000 0.687500
vt 1.000000 0.937500
vt 0.587160 0.675778
vt 0.187500 0.375000
vt 0.187500 0.625000
vt 0.250000 0.187500
vt 0.320334 0.388669
vn 0.018192 0.018192 0.999669
vn 0.097815 -0.097815 0.990386
vn 0.011732 -0.011732 0.999862
vn 0.143225 0.071613 0.987096
vn -0.010465 0.437393 0.899210
vn -0.505021 0.010257 0.863046
vn -0.007077 0.224317 0.974491
vn 0.558994 -0.007942 0.829134
vn 0.005538 -0.322797 0.946452
vn -0.150831 0.260249 0.953688
vn 0.116650 0.260356 0.958440
vn -0.256382 -0.302723 0.917947
vn 0.170540 -0.278850 0.945071
vn -0.015111 -0.396848 0.917760
vn -0.040507 -0.287395 0.956955
vn 0.403030 0.016292 0.915042
vn 0.415749 -0.036612 0.908742
vn -0.041461 0.117368 0.992223
vn 0.008657 0.221132 0.975206
vn -0.290510 -0.046788 0.955727
vn -0.216068 0.048691 0.975163
vn -0.012681 -0.386060 0.922387
vn -0.358086 0.000000 0.933689
vn -0.369258 0.283163 0.885137
vn 0.265651 -0.192642 0.944626
vn 0.496532 -0.099646 0.862280
vn -0.021799 -0.363881 0.931190
vn 0.539769 -0.113154 0.834174
vn 0.233495 -0.184140 0.954763
vn 0.015891 -0.343397 0.939056
vn -0.159807 -0.170412 0.972328
vn 0.001902 -0.415122 0.909764
vn 0.321370 0.168947 0.931761
vn 0.055508 0.337131 0.939820
vn 0.062504 0.162230 0.984771
vn -0.083129 0.226985 0.970344
vn -0.212505 0.373976 0.902764
vn -0.050129 0.081482 0.995413
vn -0.271472 0.209396 0.939392
vn 0.020272 0.252374 0.967417
vn -0.427752 -0.173557 0.887078
vn -0.166689 -0.284775 0.943990
vn 0.228962 0.086699 0.969567
vn 0.393599 -0.111187 0.912534
vn -0.108730 0.119459 0.986867
vn 0.015156 0.239864 0.970688
vn -0.280111 -0.178219 0.943279
vn -0.109727 0.190339 0.975567
vn -0.143793 0.445819 0.883498
vn 0.004591 -0.418222 0.908333
vn 0.295078 -0.361352 0.884508
vn 0.507419 0.026014 0.861306
vn -0.107323 0.295429 0.949317
vn -0.476077 0.060368 0.877329
vn -0.456337 -0.044387 0.888699
vn -0.003009 0.286256 0.958148
vn -0.045474 0.364238 0.930195
vn -0.403385 -0.310458 0.860753
vn -0.456559 0.090628 0.885065
vn -0.044862 0.498192 0.865905
vn 0.002609 -0.393701 0.919235
vn -0.006422 -0.361655 0.932290
vn -0.000672 0.135036 0.990840
vn -0.423119 0.024198 0.905751
vn -0.035308 0.019924 0.999178
vn -0.082212 -0.060152 0.994798
vn 0.000029 0.237641 0.971353
vn -0.002016 0.208372 0.978047
vn -0.015314 0.006678 0.999860
vn -0.003273 0.204715 0.978816
vn 0.500182 -0.010992 0.865851
vn 0.265875 -0.031995 0.963477
vn 0.278208 0.033671 0.959930
vn 0.462967 0.043468 0.885309
vn 0.008223 -0.347825 0.937523
vn -0.082707 -0.045052 0.995555
vn 0.049139 -0.290212 0.955700
vn -0.015830 -0.341160 0.939872
vn 0.016935 -0.331293 0.943376
vn 0.026549 0.451932 0.891657
vn 0.409912 0.345957 0.843970
vn -0.373313 -0.090777 0.923254
vn -0.475733 -0.090648 0.874906
vn -0.366099 -0.258067 0.894076
vn -0.495806 -0.028891 0.867953
vn 0.009268 0.204290 0.978867
vn 0.002874 0.322180 0.946674
vn 0.005780 0.230812 0.972981
vn -0.292511 0.097570 0.951272
vn -0.159544 0.309741 0.937340
vn -0.450855 0.041586 0.891628
vn -0.043465 0.058911 0.997317
vn -0.088455 0.157478 0.983553
vn -0.009305 0.014121 0.999857
vn -0.070157 0.429689 0.900247
vn 0.093379 -0.439856 0.893200
vn -0.018516 0.306557 0.951672
vn -0.177907 0.204812 0.962497
vn -0.007354 0.244939 0.969511
vn 0.276622 0.058007 0.959226
vn 0.079339 0.213328 0.973754
vn 0.129267 0.105154 0.986019
vn 0.324603 -0.152798 0.933427
vn 0.006324 0.398427 0.917178
vn 0.406966 0.084511 0.909526
vn 0.328135 0.249686 0.911035
vn 0.254517 0.141656 0.956637
vn 0.490013 0.102896 0.865621
vn -0.162840 0.325333 0.931473
vn 0.069836 0.364573 0.928552
vn 0.377825 0.232553 0.896196
vn -0.131763 -0.177855 0.975195
vn -0.036203 -0.053859 0.997892
vn -0.247215 -0.252809 0.935399
vn -0.029099 -0.329422 0.943734
vn -0.089320 -0.338232 0.936814
vn 0.005987 -0.333472 0.942741
vn 0.053652 -0.350528 0.935014
vn 0.135620 -0.132709 0.981833
vn -0.487912 0.000000 0.872893
vn 0.001625 0.013181 0.999912
vn 0.008724 0.307354 0.951555
vn -0.014331 -0.384592 0.922975
vn -0.012650 -0.352544 0.935710
vn -0.008635 -0.341495 0.939844
vn 0.451650 -0.059263 0.890225
vn 0.378387 -0.194562 0.904969
vn 0.539761 -0.065954 0.839231
vn -0.063431 0.163957 0.984426
vn 0.000000 -0.193855 0.981030
vn 0.200169 -0.244744 0.948700
vn 0.458857 -0.221317 0.860505
vn -0.031543 -0.368249 0.929192
vn -0.028936 -0.461515 0.886660
vn 0.362751 -0.080946 0.928364
vn -0.006619 -0.391044 0.920348
vn -0.194204 -0.105451 0.975277
vn -0.162542 0.261178 0.951507
vn 0.349549 0.035541 0.936244
vn -0.083780 -0.439529 0.894313
vn -0.088483 0.064645 0.993978
vn -0.002642 0.207481 0.978236
vn -0.303827 0.226211 0.925482
vn 0.238322 0.222321 0.945397
vn -0.177350 0.471787 0.863692
vn 0.296345 0.008444 0.955044
vn -0.230298 0.010488 0.973064
vn 0.044661 0.309241 0.949934
vn 0.430098 -0.098247 0.897421
vn 0.000633 0.075742 0.997127
vn 0.193716 -0.000000 0.981058
vn -0.269461 -0.409529 0.871595
vn 0.150545 0.340227 0.928214
vn 0.167669 -0.350784 0.921324
vn 0.083115 0.310499 0.946933
vn -0.117825 -0.388770 0.913770
vn -0.169693 0.370898 0.913039
vn 0.172504 0.428497 0.886923
vn 0.025350 0.317024 0.948079
vn 0.016497 -0.460582 0.887464
vn -0.006469 0.002921 0.999975
vn -0.496458 -0.052282 0.866485
vn 0.549080 0.040977 0.834765
vn -0.125436 -0.092309 0.987798
vn -0.018766 -0.429689 0.902782
vn -0.078501 0.280374 0.956675
vn 0.506175 0.101908 0.856389
vn 0.004042 -0.457316 0.889295
vn -0.075921 -0.000000 0.997114
vn -0.120066 0.340229 0.932646
vn 0.291263 0.070823 0.954018
vn 0.212837 0.000000 0.977088
vn 0.024460 0.339335 0.940347
vn -0.432905 -0.257352 0.863923
vn -0.208208 0.308566 0.928136
vn -0.221162 -0.308801 0.925056
vn -0.295128 -0.437942 0.849180
f 1/1/1 113/113/113 66/66/66
f 31/31/31 137/137/137 113/113/113
f 109/109/109 157/157/157 49/49/49
f 76/76/76 112/112/112 164/164/164
f 84/84/84 174/174/174 41/41/41
f 112/112/112 114/114/114 31/31/31
f 114/114/114 47/47/47 31/31/31
f 84/84/84 152/152/152 58/58/58
f 137/137/137 66/66/66 113/113/113
f 164/164/164 112/112/112 31/31/31
f 115/115/115 112/112/112 15/15/15
f 12/12/12 114/114/114 176/176/176
f 170/170/170 109/109/109 49/49/49
f 164/164/164 31/31/31 113/113/113
f 42/42/42 114/114/114 112/112/112
f 76/76/76 113/113/113 1/1/1
f 76/76/76 164/164/164 113/113/113
f 15/15/15 112/112/112 76/76/76
f 115/115/115 15/15/15 75/75/75
f 117/117/117 115/115/115 75/75/75
f 116/116/116 115/115/115 30/30/30
f 125/125/125 62/62/62 117/117/117
f 22/22/22 30/30/30 136/136/136
f 30/30/30 115/115/115 117/117/117
f 32/32/32 165/165/165 136/136/136
f 22/22/22 136/136/136 165/165/165
f 12/12/12 176/176/176 116/116/116
f 176/176/176 42/42/42 116/116/116
f 176/176/176 114/114/114 42/42/42
f 116/116/116 30/30/30 22/22/22
f 42/42/42 112/112/112 115/115/115
f 42/42/42 115/115/115 116/116/116
f 156/156/156 116/116/116 22/22/22
f 156/156/156 152/152/152 12/12/12
f 156/156/156 12/12/12 116/116/116
f 147/147/147 134/134/134 161/161/161
f 168/168/168 165/165/165 32/32/32
f 170/170/170 138/138/138 109/109/109
f 156/156/156 22/22/22 165/165/165
f 140/140/140 165/165/165 168/168/168
f 174/174/174 162/162/162 41/41/41
f 82/82/82 137/137/137 47/47/47
f 150/150/150 146/146/146 80/80/80
f 161/161/161 168/168/168 63/63/63
f 134/134/134 140/140/140 168/168/168
f 140/140/140 152/152/152 156/156/156
f 140/140/140 156/156/156 165/165/165
f 69/69/69 94/94/94 92/92/92
f 152/152/152 177/177/177 58/58/58
f 167/167/167 106/106/106 81/81/81
f 104/104/104 80/80/80 34/34/34
f 170/170/170 53/53/53 138/138/138
f 161/161/161 134/134/134 168/168/168
f 45/45/45 98/98/98 36/36/36
f 134/134/134 177/177/177 140/140/140
f 174/174/174 83/83/83 162/162/162
f 38/38/38 92/92/92 94/94/94
f 136/136/136 30/30/30 62/62/62
f 83/83/83 58/58/58 54/54/54
f 143/143/143 39/39/39 59/59/59
f 174/174/174 58/58/58 83/83/83
f 85/85/85 41/41/41 162/162/162
f 84/84/84 12/12/12 152/152/152
f 84/84/84 58/58/58 174/174/174
f 47/47/47 114/114/114 84/84/84
f 84/84/84 114/114/114 12/12/12
f 47/47/47 84/84/84 41/41/41
f 82/82/82 47/47/47 41/41/41
f 36/36/36 99/99/99 129/129/129
f 20/20/20 137/137/137 82/82/82
f 70/70/70 129/129/129 99/99/99
f 20/20/20 66/66/66 137/137/137
f 55/55/55 20/20/20 82/82/82
f 98/98/98 138/138/138 36/36/36
f 171/171/171 33/33/33 139/139/139
f 2/2/2 151/151/151 119/119/119
f 94/94/94 69/69/69 3/3/3
f 130/130/130 2/2/2 119/119/119
f 169/169/169 141/141/141 65/65/65
f 59/59/59 91/91/91 85/85/85
f 92/92/92 18/18/18 69/69/69
f 104/104/104 57/57/57 5/5/5
f 117/117/117 62/62/62 30/30/30
f 166/166/166 138/138/138 53/53/53
f 122/122/122 53/53/53 97/97/97
f 60/60/60 95/95/95 145/145/145
f 122/122/122 97/97/97 159/159/159
f 135/135/135 126/126/126 44/44/44
f 109/109/109 98/98/98 10/10/10
f 89/89/89 39/39/39 48/48/48
f 166/166/166 36/36/36 138/138/138
f 129/129/129 45/45/45 36/36/36
f 48/48/48 38/38/38 141/141/141
f 90/90/90 10/10/10 48/48/48
f 130/130/130 119/119/119 77/77/77
f 135/135/135 17/17/17 126/126/126
f 93/93/93 48/48/48 10/10/10
f 41/41/41 85/85/85 82/82/82
f 93/93/93 45/45/45 38/38/38
f 129/129/129 70/70/70 18/18/18
f 55/55/55 82/82/82 85/85/85
f 95/95/95 5/5/5 57/57/57
f 92/92/92 38/38/38 45/45/45
f 65/65/65 94/94/94 3/3/3
f 18/18/18 92/92/92 129/129/129
f 21/21/21 141/141/141 169/169/169
f 48/48/48 141/141/141 89/89/89
f 45/45/45 129/129/129 92/92/92
f 21/21/21 89/89/89 141/141/141
f 23/23/23 89/89/89 21/21/21
f 105/105/105 139/139/139 33/33/33
f 149/149/149 44/44/44 126/126/126
f 119/119/119 72/72/72 29/29/29
f 93/93/93 38/38/38 48/48/48
f 39/39/39 175/175/175 90/90/90
f 37/37/37 24/24/24 145/145/145
f 24/24/24 59/59/59 83/83/83
f 145/145/145 24/24/24 54/54/54
f 64/64/64 89/89/89 23/23/23
f 59/59/59 39/39/39 91/91/91
f 37/37/37 145/145/145 49/49/49
f 157/157/157 90/90/90 175/175/175
f 120/120/120 91/91/91 64/64/64
f 6/6/6 91/91/91 120/120/120
f 59/59/59 85/85/85 162/162/162
f 16/16/16 100/100/100 139/139/139
f 6/6/6 85/85/85 91/91/91
f 6/6/6 55/55/55 85/85/85
f 59/59/59 162/162/162 83/83/83
f 24/24/24 83/83/83 54/54/54
f 24/24/24 143/143/143 59/59/59
f 143/143/143 175/175/175 39/39/39
f 145/145/145 54/54/54 147/147/147
f 77/77/77 119/119/119 118/118/118
f 60/60/60 147/147/147 161/161/161
f 119/119/119 29/29/29 118/118/118
f 157/157/157 175/175/175 37/37/37
f 135/135/135 103/103/103 29/29/29
f 95/95/95 49/49/49 145/145/145
f 135/135/135 72/72/72 17/17/17
f 37/37/37 175/175/175 143/143/143
f 37/37/37 143/143/143 24/24/24
f 157/157/157 37/37/37 49/49/49
f 157/157/157 10/10/10 90/90/90
f 109/109/109 138/138/138 98/98/98
f 109/109/109 10/10/10 157/157/157
f 135/135/135 44/44/44 103/103/103
f 170/170/170 97/97/97 53/53/53
f 5/5/5 161/161/161 63/63/63
f 5/5/5 95/95/95 161/161/161
f 60/60/60 145/145/145 147/147/147
f 60/60/60 161/161/161 95/95/95
f 110/110/110 34/34/34 80/80/80
f 121/121/121 150/150/150 80/80/80
f 173/173/173 57/57/57 104/104/104
f 40/40/40 46/46/46 86/86/86
f 57/57/57 97/97/97 170/170/170
f 57/57/57 170/170/170 95/95/95
f 78/78/78 125/125/125 9/9/9
f 131/131/131 13/13/13 79/79/79
f 74/74/74 16/16/16 139/139/139
f 110/110/110 155/155/155 34/34/34
f 87/87/87 46/46/46 40/40/40
f 56/56/56 166/166/166 122/122/122
f 110/110/110 153/153/153 155/155/155
f 108/108/108 111/111/111 52/52/52
f 173/173/173 97/97/97 57/57/57
f 34/34/34 173/173/173 104/104/104
f 121/121/121 104/104/104 5/5/5
f 107/107/107 106/106/106 33/33/33
f 11/11/11 155/155/155 144/144/144
f 155/155/155 173/173/173 34/34/34
f 64/64/64 91/91/91 89/89/89
f 106/106/106 153/153/153 81/81/81
f 96/96/96 150/150/150 160/160/160
f 158/158/158 153/153/153 110/110/110
f 50/50/50 160/160/160 168/168/168
f 146/146/146 158/158/158 80/80/80
f 81/81/81 153/153/153 158/158/158
f 158/158/158 110/110/110 80/80/80
f 154/154/154 51/51/51 96/96/96
f 167/167/167 111/111/111 106/106/106
f 33/33/33 106/106/106 111/111/111
f 107/107/107 33/33/33 171/171/171
f 167/167/167 132/132/132 28/28/28
f 108/108/108 52/52/52 8/8/8
f 105/105/105 33/33/33 111/111/111
f 45/45/45 93/93/93 98/98/98
f 105/105/105 111/111/111 108/108/108
f 147/147/147 54/54/54 177/177/177
f 74/74/74 108/108/108 8/8/8
f 58/58/58 177/177/177 54/54/54
f 74/74/74 105/105/105 108/108/108
f 93/93/93 10/10/10 98/98/98
f 43/43/43 101/101/101 107/107/107
f 11/11/11 144/144/144 107/107/107
f 43/43/43 107/107/107 171/171/171
f 144/144/144 155/155/155 153/153/153
f 144/144/144 153/153/153 106/106/106
f 144/144/144 106/106/106 107/107/107
f 101/101/101 11/11/11 107/107/107
f 159/159/159 87/87/87 40/40/40
f 38/38/38 94/94/94 141/141/141
f 148/148/148 101/101/101 46/46/46
f 103/103/103 25/25/25 131/131/131
f 65/65/65 141/141/141 94/94/94
f 74/74/74 139/139/139 105/105/105
f 61/61/61 123/123/123 124/124/124
f 7/7/7 99/99/99 88/88/88
f 131/131/131 79/79/79 29/29/29
f 86/86/86 46/46/46 142/142/142
f 79/79/79 133/133/133 118/118/118
f 102/102/102 35/35/35 100/100/100
f 68/68/68 142/142/142 102/102/102
f 40/40/40 86/86/86 88/88/88
f 142/142/142 35/35/35 102/102/102
f 148/148/148 46/46/46 87/87/87
f 118/118/118 29/29/29 79/79/79
f 19/19/19 86/86/86 142/142/142
f 67/67/67 88/88/88 86/86/86
f 56/56/56 122/122/122 40/40/40
f 159/159/159 155/155/155 148/148/148
f 122/122/122 159/159/159 40/40/40
f 159/159/159 148/148/148 87/87/87
f 148/148/148 155/155/155 11/11/11
f 148/148/148 11/11/11 101/101/101
f 159/159/159 97/97/97 173/173/173
f 159/159/159 173/173/173 155/155/155
f 56/56/56 40/40/40 88/88/88
f 122/122/122 166/166/166 53/53/53
f 56/56/56 88/88/88 99/99/99
f 90/90/90 48/48/48 39/39/39
f 7/7/7 70/70/70 99/99/99
f 67/67/67 7/7/7 88/88/88
f 19/19/19 67/67/67 86/86/86
f 68/68/68 19/19/19 142/142/142
f 73/73/73 102/102/102 100/100/100
f 4/4/4 68/68/68 102/102/102
f 172/172/172 4/4/4 102/102/102
f 73/73/73 172/172/172 102/102/102
f 16/16/16 73/73/73 100/100/100
f 79/79/79 124/124/124 133/133/133
f 151/151/151 72/72/72 119/119/119
f 51/51/51 163/163/163 146/146/146
f 62/62/62 27/27/27 123/123/123
f 28/28/28 128/128/128 52/52/52
f 131/131/131 25/25/25 13/13/13
f 101/101/101 35/35/35 46/46/46
f 142/142/142 46/46/46 35/35/35
f 126/126/126 17/17/17 71/71/71
f 132/132/132 26/26/26 28/28/28
f 128/128/128 71/71/71 8/8/8
f 128/128/128 8/8/8 52/52/52
f 167/167/167 28/28/28 52/52/52
f 26/26/26 128/128/128 28/28/28
f 126/126/126 71/71/71 26/26/26
f 26/26/26 71/71/71 128/128/128
f 95/95/95 170/170/170 49/49/49
f 100/100/100 35/35/35 43/43/43
f 103/103/103 131/131/131 29/29/29
f 135/135/135 29/29/29 72/72/72
f 101/101/101 43/43/43 35/35/35
f 13/13/13 25/25/25 127/127/127
f 149/149/149 126/126/126 26/26/26
f 149/149/149 26/26/26 127/127/127
f 51/51/51 127/127/127 132/132/132
f 118/118/118 133/133/133 14/14/14
f 27/27/27 133/133/133 124/124/124
f 79/79/79 13/13/13 124/124/124
f 163/163/163 132/132/132 167/167/167
f 132/132/132 127/127/127 26/26/26
f 167/167/167 52/52/52 111/111/111
f 163/163/163 167/167/167 81/81/81
f 146/146/146 81/81/81 158/158/158
f 146/146/146 163/163/163 81/81/81
f 121/121/121 80/80/80 104/104/104
f 96/96/96 160/160/160 50/50/50
f 50/50/50 168/168/168 32/32/32
f 160/160/160 121/121/121 168/168/168
f 121/121/121 5/5/5 63/63/63
f 121/121/121 63/63/63 168/168/168
f 124/124/124 154/154/154 61/61/61
f 160/160/160 150/150/150 121/121/121
f 123/123/123 50/50/50 32/32/32
f 96/96/96 50/50/50 61/61/61
f 125/125/125 27/27/27 62/62/62
f 77/77/77 118/118/118 14/14/14
f 154/154/154 127/127/127 51/51/51
f 96/96/96 146/146/146 150/150/150
f 51/51/51 132/132/132 163/163/163
f 51/51/51 146/146/146 96/96/96
f 154/154/154 96/96/96 61/61/61
f 154/154/154 13/13/13 127/127/127
f 124/124/124 13/13/13 154/154/154
f 149/149/149 127/127/127 44/44/44
f 25/25/25 44/44/44 127/127/127
f 125/125/125 133/133/133 27/27/27
f 123/123/123 61/61/61 50/50/50
f 123/123/123 32/32/32 136/136/136
f 62/62/62 123/123/123 136/136/136
f 137/137/137 31/31/31 47/47/47
f 9/9/9 117/117/117 75/75/75
f 9/9/9 125/125/125 117/117/117
f 78/78/78 133/133/133 125/125/125
f 14/14/14 133/133/133 78/78/78
f 39/39/39 89/89/89 91/91/91
f 103/103/103 44/44/44 25/25/25
f 27/27/27 124/124/124 123/123/123
f 139/139/139 100/100/100 43/43/43
f 139/139/139 43/43/43 171/171/171
f 147/147/147 177/177/177 134/134/134
f 152/152/152 140/140/140 177/177/177
f 166/166/166 56/56/56 36/36/36
f 99/99/99 36/36/36 56/56/56
