# frame 000837 
# time 0.419000 
# name Cloth3D 
v -0.000000 0.000000 -0.000000
v 1.000000 0.000000 -0.000000
v -0.000000 1.000000 0.000000
v 1.000000 1.000000 0.000000
v 0.501039 0.492717 0.146317
v -0.000000 0.500000 0.000000
v 0.500000 1.000000 0.000000
v 1.000000 0.500000 0.000000
v 0.500000 -0.000000 0.000000
v 0.251059 0.744224 0.027145
v 0.751776 0.745207 0.038632
v 0.245666 0.249042 0.077769
v 0.756890 0.249452 0.083511
v 0.750000 0.000000 0.000000
v 0.250000 0.000000 0.000000
v 1.000000 0.750000 0.000000
v 1.000000 0.250000 0.000000
v 0.250000 1.000000 0.000000
v 0.750000 1.000000 0.000000
v 0.000000 0.250000 0.000000
v 0.000000 0.750000 -0.000000
v 0.363339 0.220864 0.085040
v 0.000000 0.687500 -0.000000
v 0.236417 0.514508 0.105560
v 0.818949 0.249553 0.065841
v 0.885653 0.373665 0.067600
v 0.626457 0.125395 0.049323
v 0.885897 0.436290 0.069178
v 0.875633 0.126117 0.018948
v 0.375485 0.126218 0.046236
v 0.125940 0.126031 0.014681
v 0.492841 0.251300 0.105569
v 0.881125 0.623727 0.048734
v 0.630485 0.616775 0.091259
v 0.874066 0.872912 -0.003066
v 0.376697 0.869557 0.011159
v 0.257946 0.597161 0.081253
v 0.126510 0.872441 -0.011064
v 0.122168 0.623655 0.040204
v 0.625602 0.872445 0.030198
v 0.119989 0.374752 0.054365
v 0.250730 0.126597 0.032933
v 0.875389 0.746527 0.015468
v 0.879873 0.249916 0.045672
v 0.251943 0.870667 0.001798
v 0.750073 0.872634 0.018833
v 0.123521 0.250543 0.036924
v 0.126125 0.746291 0.008327
v 0.319728 0.591047 0.102150
v 0.587409 0.303501 0.130128
v 0.252042 0.806486 0.009361
v 0.885000 0.498718 0.066312
v 0.437470 0.762086 0.035147
v 0.234899 0.454275 0.120277
v 0.000000 0.375000 0.000000
v 0.500915 0.870534 0.024336
v 0.501691 0.615137 0.091898
v 0.237030 0.372128 0.118670
v 0.120373 0.498960 0.052988
v 0.366319 0.496097 0.144686
v 0.630617 0.249640 0.104145
v 0.500843 0.126071 0.050646
v 0.497459 0.409042 0.184002
v 0.000000 0.625000 0.000000
v 0.000000 0.875000 0.000000
v 0.000000 0.125000 0.000000
v 0.625000 1.000000 0.000000
v 0.875000 1.000000 0.000000
v 0.125000 1.000000 0.000000
v 0.375000 1.000000 0.000000
v 1.000000 0.375000 0.000000
v 1.000000 0.125000 0.000000
v 1.000000 0.875000 0.000000
v 1.000000 0.625000 0.000000
v 0.375000 0.000000 0.000000
v 0.125000 0.000000 0.000000
v 0.875000 0.000000 0.000000
v 0.625000 0.000000 0.000000
v 0.750698 0.127175 0.033144
v 0.636390 0.493715 0.146263
v 0.775601 0.514334 0.117757
v 0.061185 0.312881 0.022174
v 0.177011 0.436437 0.090426
v 0.182171 0.312153 0.071676
v 0.060220 0.437209 0.026668
v 0.687703 0.937451 0.018671
v 0.688029 0.807438 0.029802
v 0.562832 0.935811 0.014280
v 0.061646 0.686491 0.015373
v 0.187653 0.682785 0.032342
v 0.061210 0.561610 0.022019
v 0.188464 0.935669 -0.002627
v 0.189438 0.807689 0.002696
v 0.062716 0.937107 -0.011399
v 0.435519 0.555120 0.118471
v 0.937808 0.748477 0.007651
v 0.508830 0.715291 0.055447
v 0.314298 0.806071 0.018354
v 0.438200 0.934983 0.009510
v 0.936894 0.810636 -0.003706
v 0.811968 0.808622 0.012549
v 0.937310 0.937076 -0.010022
v 0.877148 0.188461 0.030763
v 0.567428 0.553807 0.119284
v 0.720138 0.423727 0.177594
v 0.828687 0.590086 0.075791
v 0.815647 0.683506 0.044207
v 0.942000 0.561588 0.030068
v 0.319289 0.695246 0.055760
v 0.691645 0.579145 0.108217
v 0.431535 0.432433 0.173257
v 0.188118 0.062638 0.015438
v 0.062387 0.062436 0.011518
v 0.186564 0.187816 0.042360
v 0.313154 0.062829 0.021326
v 0.312276 0.190440 0.059099
v 0.438059 0.062355 0.026474
v 0.812122 0.064237 0.008836
v 0.937375 0.062856 0.004586
v -0.000000 0.562500 0.000000
v 0.569755 0.431925 0.173782
v 0.526552 0.796984 0.037233
v 0.564704 0.188169 0.078155
v 0.691050 0.187789 0.069127
v 0.563010 0.063450 0.023870
v 0.940288 0.312662 0.026462
v 0.824081 0.310187 0.087441
v 0.942007 0.436850 0.032806
v 0.313674 0.934958 0.000500
v 0.940707 0.249993 0.024833
v 0.815078 0.188911 0.044136
v 0.818047 0.369030 0.110573
v 0.687750 0.063159 0.020752
v 0.063063 0.125452 0.006964
v 0.939416 0.187760 0.019093
v 0.437442 0.188364 0.077116
v 0.063096 0.188275 0.010299
v 0.381429 0.759962 0.034110
v 0.940554 0.687069 0.021627
v 0.370496 0.317343 0.131812
v 0.063338 0.810673 -0.005001
v 0.812441 0.936412 0.006467
v 0.182290 0.561047 0.070527
v 0.772417 0.645862 0.071404
v 0.320077 0.530524 0.129175
v 0.720364 0.409827 0.184084
v 0.320571 0.408144 0.184085
v 0.719588 0.766726 0.037417
v 0.882822 0.311526 0.057717
v 0.621524 0.409530 0.184024
v 1.000000 0.687500 0.000000
v 0.286469 0.329614 0.123743
v 0.719531 0.606731 0.096139
v 0.724767 0.298034 0.117110
v 0.672836 0.661421 0.072223
v 0.325877 0.276321 0.103916
v 0.280079 0.652092 0.063257
v 0.719407 0.537299 0.126878
v 0.613611 0.764716 0.049119
v 0.320432 0.468511 0.156860
v 0.415411 0.408699 0.184001
v 0.543708 0.350614 0.153013
v 0.778007 0.452048 0.137382
v 0.125419 0.062720 0.010522
v 0.416327 0.258035 0.104772
v 0.427401 0.807487 0.026016
v 0.827655 0.480251 0.102017
v 0.942629 0.374493 0.033030
v 0.657295 0.300871 0.127066
v 0.414590 0.652797 0.074855
v -0.000000 0.937500 0.000000
v 1.000000 0.937500 0.000000
v 0.590544 0.666398 0.073133
v 0.178582 0.373663 0.085177
v 0.456611 0.302141 0.130970
v 0.248797 0.188165 0.054025
v 0.688439 0.354959 0.155190
v 0.753388 0.362584 0.133904
vt 0.000000 0.000000
vt 1.000000 0.000000
vt 0.000000 1.000000
vt 1.000000 1.000000
vt 0.500000 0.500000
vt 0.000000 0.500000
vt 0.500000 1.000000
vt 1.000000 0.500000
vt 0.500000 0.000000
vt 0.250000 0.750000
vt 0.750000 0.750000
vt 0.250000 0.250000
vt 0.750000 0.250000
vt 0.750000 0.000000
vt 0.250000 0.000000
vt 1.000000 0.750000
vt 1.000000 0.250000
vt 0.250000 1.000000
vt 0.750000 1.000000
vt 0.000000 0.250000
vt 0.000000 0.750000
vt 0.365347 0.220303
vt 0.000000 0.687500
vt 0.245672 0.515386
vt 0.812500 0.250000
vt 0.875000 0.375000
vt 0.625000 0.125000
vt 0.875000 0.437500
vt 0.875000 0.125000
vt 0.375000 0.125000
vt 0.125000 0.125000
vt 0.492214 0.250470
vt 0.875000 0.625000
vt 0.625000 0.625000
vt 0.875000 0.875000
vt 0.375000 0.875000
vt 0.262101 0.599801
vt 0.125000 0.875000
vt 0.125000 0.625000
vt 0.625000 0.875000
vt 0.125000 0.375000
vt 0.250000 0.125000
vt 0.875000 0.750000
vt 0.875000 0.250000
vt 0.250000 0.875000
vt 0.750000 0.875000
vt 0.125000 0.250000
vt 0.125000 0.750000
vt 0.324809 0.593074
vt 0.581754 0.304126
vt 0.250000 0.812500
vt 0.875000 0.500000
vt 0.435664 0.771773
vt 0.248222 0.455442
vt 0.000000 0.375000
vt 0.500000 0.875000
vt 0.500000 0.625000
vt 0.250000 0.375000
vt 0.125000 0.500000
vt 0.375000 0.500000
vt 0.625000 0.250000
vt 0.500000 0.125000
vt 0.497522 0.413751
vt 0.000000 0.625000
vt 0.000000 0.875000
vt 0.000000 0.125000
vt 0.625000 1.000000
vt 0.875000 1.000000
vt 0.125000 1.000000
vt 0.375000 1.000000
vt 1.000000 0.375000
vt 1.000000 0.125000
vt 1.000000 0.875000
vt 1.000000 0.625000
vt 0.375000 0.000000
vt 0.125000 0.000000
vt 0.875000 0.000000
vt 0.625000 0.000000
vt 0.750000 0.125000
vt 0.625000 0.500000
vt 0.760524 0.515669
vt 0.062500 0.312500
vt 0.187500 0.437500
vt 0.187500 0.312500
vt 0.062500 0.437500
vt 0.687500 0.937500
vt 0.687500 0.812500
vt 0.562500 0.937500
vt 0.062500 0.687500
vt 0.187500 0.687500
vt 0.062500 0.562500
vt 0.187500 0.937500
vt 0.187500 0.812500
vt 0.062500 0.937500
vt 0.437500 0.562500
vt 0.937500 0.750000
vt 0.506884 0.725192
vt 0.312500 0.812500
vt 0.437500 0.937500
vt 0.937500 0.812500
vt 0.812500 0.812500
vt 0.937500 0.937500
vt 0.875000 0.187500
vt 0.562500 0.562500
vt 0.696155 0.428042
vt 0.819332 0.591237
vt 0.812500 0.687500
vt 0.937500 0.562500
vt 0.319821 0.700672
vt 0.682510 0.583771
vt 0.437500 0.437500
vt 0.187500 0.062500
vt 0.062500 0.062500
vt 0.187500 0.187500
vt 0.312500 0.062500
vt 0.312500 0.187500
vt 0.437500 0.062500
vt 0.812500 0.062500
vt 0.937500 0.062500
vt 0.000000 0.562500
vt 0.562500 0.437500
vt 0.525016 0.804189
vt 0.562500 0.187500
vt 0.687500 0.187500
vt 0.562500 0.062500
vt 0.937500 0.312500
vt 0.812500 0.312500
vt 0.937500 0.437500
vt 0.312500 0.937500
vt 0.937500 0.250000
vt 0.812500 0.187500
vt 0.800716 0.372483
vt 0.687500 0.062500
vt 0.062500 0.125000
vt 0.937500 0.187500
vt 0.437500 0.187500
vt 0.062500 0.187500
vt 0.380019 0.768564
vt 0.937500 0.687500
vt 0.377625 0.317694
vt 0.062500 0.812500
vt 0.812500 0.937500
vt 0.187500 0.562500
vt 0.765906 0.648544
vt 0.328792 0.531735
vt 0.694864 0.415109
vt 0.340503 0.412602
vt 0.718294 0.771897
vt 0.875000 0.312500
vt 0.608655 0.414419
vt 1.000000 0.687500
vt 0.296906 0.332149
vt 0.711371 0.609829
vt 0.713437 0.300753
vt 0.668274 0.669022
vt 0.331126 0.276226
vt 0.281585 0.657008
vt 0.706177 0.538995
vt 0.611736 0.771102
vt 0.334602 0.470576
vt 0.423732 0.413415
vt 0.539693 0.352058
vt 0.758105 0.454518
vt 0.125000 0.062500
vt 0.418341 0.256674
vt 0.425703 0.815414
vt 0.812755 0.481587
vt 0.937500 0.375000
vt 0.647595 0.302440
vt 0.414679 0.661630
vt 0.000000 0.937500
vt 1.000000 0.937500
vt 0.587160 0.675778
vt 0.187500 0.375000
vt 0.458173 0.302976
vt 0.250000 0.187500
vt 0.671367 0.358455
vt 0.736041 0.365469
vn -0.093416 -0.093416 0.991235
vn 0.037256 -0.037256 0.998611
vn 0.119108 -0.059554 0.991094
vn -0.109378 -0.054689 0.992495
vn -0.001792 0.406125 0.913816
vn -0.376002 0.014006 0.926513
vn -0.020655 0.176499 0.984084
vn 0.473292 0.009828 0.880851
vn 0.009632 -0.375880 0.926618
vn -0.149890 0.278433 0.948688
vn 0.143542 0.280009 0.949205
vn -0.205399 -0.352508 0.912989
vn 0.255188 -0.388334 0.885480
vn 0.046936 -0.236371 0.970529
vn -0.023164 -0.276939 0.960608
vn 0.090714 0.052381 0.994498
vn 0.371343 -0.038117 0.927713
vn -0.011400 -0.001250 0.999934
vn 0.048790 0.193680 0.979851
vn -0.252722 -0.046229 0.966434
vn -0.106323 0.065160 0.992194
vn -0.129933 -0.398311 0.908001
vn -0.244050 0.000000 0.969763
vn -0.382567 0.269249 0.883825
vn 0.268715 -0.332108 0.904155
vn 0.511406 -0.095253 0.854044
vn 0.044796 -0.383257 0.922555
vn 0.528202 0.018768 0.848911
vn 0.135262 -0.187512 0.972905
vn -0.095916 -0.347316 0.932830
vn -0.136791 -0.107991 0.984696
vn -0.020490 -0.426166 0.904413
vn 0.296931 0.204720 0.932696
vn 0.014648 0.386428 0.922203
vn 0.122179 0.053540 0.991063
vn -0.067848 0.143365 0.987341
vn -0.260363 0.362249 0.894979
vn -0.047365 0.045264 0.997852
vn -0.241476 0.178146 0.953915
vn 0.024211 0.156410 0.987395
vn -0.437397 -0.107679 0.892798
vn -0.105403 -0.278521 0.954629
vn 0.138632 0.218655 0.965904
vn 0.309123 -0.224960 0.924033
vn -0.095639 0.088248 0.991497
vn 0.126781 0.088127 0.988008
vn -0.315634 -0.158801 0.935498
vn -0.097471 0.196365 0.975674
vn -0.165910 0.399707 0.901503
vn 0.010745 -0.434350 0.900680
vn -0.114383 0.198671 0.973369
vn 0.497782 0.082731 0.863347
vn -0.052150 0.238472 0.969748
vn -0.479576 0.143547 0.865679
vn -0.392683 -0.017104 0.919515
vn -0.069817 0.159504 0.984725
vn -0.011205 0.380237 0.924821
vn -0.476858 -0.202623 0.855307
vn -0.417525 0.100472 0.903094
vn -0.002364 0.405819 0.913951
vn 0.057165 -0.422850 0.904395
vn 0.006073 -0.385602 0.922645
vn 0.002703 0.066163 0.997805
vn -0.297396 0.016401 0.954613
vn 0.138597 0.020031 0.990146
vn -0.136113 0.007270 0.990667
vn -0.018571 0.251314 0.967727
vn 0.065892 -0.032542 0.997296
vn -0.035349 -0.107964 0.993526
vn -0.032649 0.077127 0.996487
vn 0.477835 -0.034493 0.877772
vn 0.164690 -0.055640 0.984775
vn -0.123789 0.020234 0.992102
vn 0.389720 0.024494 0.920608
vn -0.020055 -0.356700 0.934004
vn -0.016387 -0.181039 0.983339
vn 0.014436 -0.102853 0.994592
vn 0.011754 -0.350405 0.936525
vn 0.145920 -0.316920 0.937160
vn -0.001484 0.405996 0.913874
vn 0.346589 0.293175 0.891025
vn -0.351858 -0.079619 0.932661
vn -0.468211 0.019851 0.883393
vn -0.406665 -0.222146 0.886157
vn -0.424607 0.007380 0.905347
vn 0.038117 0.188111 0.981408
vn 0.074357 0.181838 0.980513
vn -0.032679 0.207048 0.977785
vn -0.197365 0.102138 0.974995
vn -0.169233 0.273831 0.946772
vn -0.351741 0.040476 0.935222
vn -0.056612 -0.036270 0.997737
vn -0.099958 0.179295 0.978704
vn 0.074139 -0.043303 0.996307
vn -0.001685 0.404837 0.914387
vn 0.143815 0.176831 0.973678
vn -0.052265 0.290711 0.955382
vn -0.101056 0.216883 0.970953
vn -0.050623 0.136341 0.989368
vn 0.058159 0.111555 0.992055
vn 0.162259 0.151424 0.975060
vn -0.044758 -0.028526 0.998590
vn 0.203168 -0.225080 0.952923
vn -0.001631 0.398851 0.917014
vn 0.202339 0.411874 0.888493
vn 0.311472 0.268408 0.911560
vn 0.229360 0.312426 0.921837
vn 0.437147 0.055790 0.897658
vn -0.124263 0.344502 0.930525
vn -0.003259 0.402589 0.915375
vn -0.000469 0.409680 0.912229
vn -0.065648 -0.171714 0.982957
vn -0.041564 -0.024257 0.998841
vn -0.208757 -0.278560 0.937456
vn -0.048411 -0.298616 0.953145
vn -0.133205 -0.374247 0.917712
vn -0.013618 -0.371243 0.928436
vn 0.065617 -0.199184 0.977763
vn 0.062113 -0.072903 0.995403
vn -0.338470 0.000000 0.940977
vn -0.002234 0.408283 0.912853
vn -0.076552 0.188582 0.979069
vn 0.006831 -0.404279 0.914610
vn 0.138742 -0.395680 0.907848
vn 0.005417 -0.374035 0.927399
vn 0.465579 -0.060583 0.882931
vn 0.382654 -0.291380 0.876740
vn 0.517006 0.013843 0.855870
vn -0.036143 0.059911 0.997549
vn 0.372278 -0.080972 0.924582
vn 0.200737 -0.309980 0.929310
vn 0.474235 -0.216294 0.853415
vn 0.063518 -0.323261 0.944176
vn -0.100789 -0.007189 0.994882
vn 0.249270 -0.129918 0.959680
vn -0.046057 -0.387168 0.920858
vn -0.186840 -0.073842 0.979611
vn -0.030664 0.268576 0.962770
vn 0.279839 0.171214 0.944656
vn -0.101117 -0.477999 0.872521
vn 0.011760 0.087168 0.996124
vn 0.102411 0.059000 0.992991
vn -0.327603 0.231890 0.915917
vn 0.203308 0.345072 0.916292
vn -0.139907 0.395102 0.907921
vn 0.222530 0.214531 0.951029
vn -0.239211 0.016540 0.970827
vn 0.104036 0.243285 0.964359
vn 0.442710 -0.156845 0.882841
vn -0.000627 0.056026 0.998429
vn 0.287229 0.058894 0.956050
vn -0.274339 -0.427908 0.861181
vn 0.071369 0.399052 0.914146
vn 0.232265 -0.424507 0.875127
vn 0.036472 0.358107 0.932968
vn -0.135514 -0.438134 0.888636
vn -0.220540 0.362612 0.905469
vn 0.143353 0.388139 0.910384
vn 0.028509 0.219817 0.975125
vn -0.161199 0.391328 0.906023
vn -0.003794 0.206823 0.978371
vn 0.003570 -0.447871 0.894091
vn 0.480076 0.208027 0.852204
vn -0.043313 -0.099955 0.994049
vn -0.068249 -0.425759 0.902259
vn -0.060533 0.181678 0.981493
vn 0.485034 0.148703 0.861759
vn 0.509936 -0.056520 0.858353
vn 0.069268 -0.464629 0.882792
vn -0.017464 0.376237 0.926359
vn 0.177570 0.000000 0.984108
vn -0.163299 0.000000 0.986577
vn 0.006166 0.322789 0.946451
vn -0.474914 -0.147427 0.867595
vn -0.034719 -0.458393 0.888071
vn -0.115848 -0.344411 0.931644
vn 0.169285 -0.487718 0.856431
vn 0.330086 -0.454483 0.827338
f 1/1/1 113/113/113 66/66/66
f 81/81/81 153/153/153 158/158/158
f 84/84/84 174/174/174 41/41/41
f 164/164/164 112/112/112 31/31/31
f 98/98/98 138/138/138 36/36/36
f 144/144/144 153/153/153 106/106/106
f 117/117/117 115/115/115 75/75/75
f 27/27/27 123/123/123 125/125/125
f 164/164/164 134/134/134 113/113/113
f 134/134/134 137/137/137 66/66/66
f 134/134/134 66/66/66 113/113/113
f 112/112/112 42/42/42 31/31/31
f 31/31/31 137/137/137 134/134/134
f 12/12/12 114/114/114 176/176/176
f 62/62/62 125/125/125 123/123/123
f 164/164/164 31/31/31 134/134/134
f 76/76/76 112/112/112 164/164/164
f 76/76/76 113/113/113 1/1/1
f 76/76/76 164/164/164 113/113/113
f 15/15/15 112/112/112 76/76/76
f 15/15/15 115/115/115 112/112/112
f 75/75/75 115/115/115 15/15/15
f 136/136/136 30/30/30 117/117/117
f 9/9/9 125/125/125 117/117/117
f 116/116/116 22/22/22 156/156/156
f 30/30/30 115/115/115 117/117/117
f 32/32/32 165/165/165 136/136/136
f 165/165/165 22/22/22 136/136/136
f 176/176/176 42/42/42 116/116/116
f 22/22/22 30/30/30 136/136/136
f 176/176/176 114/114/114 42/42/42
f 116/116/116 30/30/30 22/22/22
f 42/42/42 112/112/112 115/115/115
f 114/114/114 31/31/31 42/42/42
f 12/12/12 116/116/116 156/156/156
f 12/12/12 176/176/176 116/116/116
f 152/152/152 12/12/12 156/156/156
f 83/83/83 58/58/58 54/54/54
f 140/140/140 165/165/165 175/175/175
f 140/140/140 156/156/156 165/165/165
f 145/145/145 24/24/24 160/160/160
f 174/174/174 83/83/83 41/41/41
f 175/175/175 165/165/165 32/32/32
f 165/165/165 156/156/156 22/22/22
f 162/162/162 175/175/175 32/32/32
f 161/161/161 140/140/140 175/175/175
f 63/63/63 161/161/161 175/175/175
f 147/147/147 140/140/140 161/161/161
f 140/140/140 152/152/152 156/156/156
f 111/111/111 161/161/161 63/63/63
f 147/147/147 160/160/160 54/54/54
f 39/39/39 91/91/91 143/143/143
f 115/115/115 30/30/30 42/42/42
f 95/95/95 49/49/49 145/145/145
f 60/60/60 161/161/161 111/111/111
f 170/170/170 138/138/138 109/109/109
f 58/58/58 147/147/147 54/54/54
f 147/147/147 152/152/152 140/140/140
f 147/147/147 161/161/161 160/160/160
f 84/84/84 152/152/152 58/58/58
f 58/58/58 152/152/152 147/147/147
f 85/85/85 55/55/55 41/41/41
f 174/174/174 58/58/58 83/83/83
f 85/85/85 41/41/41 83/83/83
f 82/82/82 137/137/137 47/47/47
f 84/84/84 12/12/12 152/152/152
f 84/84/84 58/58/58 174/174/174
f 47/47/47 114/114/114 84/84/84
f 84/84/84 114/114/114 12/12/12
f 47/47/47 84/84/84 41/41/41
f 82/82/82 47/47/47 41/41/41
f 55/55/55 82/82/82 41/41/41
f 20/20/20 137/137/137 82/82/82
f 20/20/20 66/66/66 137/137/137
f 55/55/55 20/20/20 82/82/82
f 59/59/59 85/85/85 83/83/83
f 111/111/111 5/5/5 60/60/60
f 89/89/89 48/48/48 21/21/21
f 24/24/24 59/59/59 83/83/83
f 93/93/93 45/45/45 38/38/38
f 109/109/109 98/98/98 10/10/10
f 38/38/38 94/94/94 141/141/141
f 45/45/45 129/129/129 18/18/18
f 70/70/70 18/18/18 129/129/129
f 65/65/65 141/141/141 94/94/94
f 166/166/166 138/138/138 53/53/53
f 122/122/122 53/53/53 97/97/97
f 95/95/95 170/170/170 49/49/49
f 122/122/122 97/97/97 159/159/159
f 98/98/98 36/36/36 129/129/129
f 157/157/157 90/90/90 37/37/37
f 166/166/166 99/99/99 36/36/36
f 166/166/166 36/36/36 138/138/138
f 45/45/45 51/51/51 98/98/98
f 101/101/101 35/35/35 46/46/46
f 51/51/51 10/10/10 98/98/98
f 93/93/93 48/48/48 10/10/10
f 45/45/45 98/98/98 129/129/129
f 114/114/114 47/47/47 31/31/31
f 92/92/92 45/45/45 18/18/18
f 92/92/92 18/18/18 69/69/69
f 137/137/137 31/31/31 47/47/47
f 38/38/38 45/45/45 92/92/92
f 94/94/94 69/69/69 3/3/3
f 48/48/48 38/38/38 141/141/141
f 171/171/171 94/94/94 3/3/3
f 65/65/65 94/94/94 171/171/171
f 21/21/21 141/141/141 65/65/65
f 142/142/142 46/46/46 35/35/35
f 48/48/48 141/141/141 21/21/21
f 95/95/95 60/60/60 5/5/5
f 64/64/64 39/39/39 89/89/89
f 90/90/90 10/10/10 48/48/48
f 93/93/93 10/10/10 51/51/51
f 93/93/93 51/51/51 45/45/45
f 93/93/93 38/38/38 48/48/48
f 37/37/37 143/143/143 24/24/24
f 143/143/143 90/90/90 39/39/39
f 60/60/60 145/145/145 160/160/160
f 109/109/109 10/10/10 157/157/157
f 23/23/23 89/89/89 21/21/21
f 64/64/64 89/89/89 23/23/23
f 120/120/120 91/91/91 64/64/64
f 6/6/6 91/91/91 120/120/120
f 129/129/129 36/36/36 70/70/70
f 91/91/91 39/39/39 64/64/64
f 99/99/99 70/70/70 36/36/36
f 6/6/6 55/55/55 85/85/85
f 24/24/24 83/83/83 54/54/54
f 74/74/74 139/139/139 108/108/108
f 33/33/33 108/108/108 139/139/139
f 24/24/24 143/143/143 59/59/59
f 24/24/24 54/54/54 160/160/160
f 37/37/37 24/24/24 145/145/145
f 60/60/60 95/95/95 145/145/145
f 37/37/37 145/145/145 49/49/49
f 157/157/157 37/37/37 49/49/49
f 37/37/37 90/90/90 143/143/143
f 109/109/109 157/157/157 49/49/49
f 157/157/157 10/10/10 90/90/90
f 170/170/170 109/109/109 49/49/49
f 109/109/109 138/138/138 98/98/98
f 97/97/97 170/170/170 57/57/57
f 170/170/170 53/53/53 138/138/138
f 5/5/5 111/111/111 63/63/63
f 57/57/57 95/95/95 104/104/104
f 60/60/60 160/160/160 161/161/161
f 116/116/116 42/42/42 30/30/30
f 121/121/121 5/5/5 63/63/63
f 104/104/104 95/95/95 5/5/5
f 57/57/57 104/104/104 173/173/173
f 97/97/97 57/57/57 173/173/173
f 57/57/57 170/170/170 95/95/95
f 87/87/87 46/46/46 40/40/40
f 97/97/97 53/53/53 170/170/170
f 9/9/9 117/117/117 75/75/75
f 28/28/28 128/128/128 52/52/52
f 33/33/33 52/52/52 108/108/108
f 135/135/135 130/130/130 44/44/44
f 150/150/150 121/121/121 63/63/63
f 159/159/159 87/87/87 40/40/40
f 86/86/86 46/46/46 142/142/142
f 119/119/119 29/29/29 118/118/118
f 44/44/44 130/130/130 149/149/149
f 34/34/34 173/173/173 104/104/104
f 77/77/77 119/119/119 118/118/118
f 40/40/40 46/46/46 86/86/86
f 155/155/155 173/173/173 34/34/34
f 110/110/110 34/34/34 104/104/104
f 11/11/11 144/144/144 107/107/107
f 63/63/63 162/162/162 150/150/150
f 110/110/110 153/153/153 155/155/155
f 135/135/135 44/44/44 103/103/103
f 110/110/110 155/155/155 34/34/34
f 77/77/77 2/2/2 119/119/119
f 135/135/135 103/103/103 29/29/29
f 80/80/80 104/104/104 5/5/5
f 80/80/80 110/110/110 104/104/104
f 150/150/150 80/80/80 121/121/121
f 135/135/135 72/72/72 17/17/17
f 158/158/158 110/110/110 80/80/80
f 132/132/132 26/26/26 28/28/28
f 167/167/167 106/106/106 81/81/81
f 85/85/85 59/59/59 6/6/6
f 107/107/107 106/106/106 33/33/33
f 74/74/74 108/108/108 8/8/8
f 8/8/8 108/108/108 128/128/128
f 107/107/107 33/33/33 139/139/139
f 33/33/33 106/106/106 52/52/52
f 43/43/43 107/107/107 139/139/139
f 39/39/39 90/90/90 89/89/89
f 144/144/144 155/155/155 153/153/153
f 135/135/135 29/29/29 72/72/72
f 144/144/144 106/106/106 107/107/107
f 48/48/48 89/89/89 90/90/90
f 11/11/11 155/155/155 144/144/144
f 38/38/38 92/92/92 94/94/94
f 148/148/148 101/101/101 46/46/46
f 96/96/96 43/43/43 139/139/139
f 43/43/43 35/35/35 101/101/101
f 52/52/52 128/128/128 108/108/108
f 100/100/100 43/43/43 96/96/96
f 151/151/151 96/96/96 139/139/139
f 100/100/100 35/35/35 43/43/43
f 7/7/7 99/99/99 88/88/88
f 56/56/56 166/166/166 122/122/122
f 16/16/16 100/100/100 96/96/96
f 102/102/102 35/35/35 100/100/100
f 68/68/68 142/142/142 102/102/102
f 40/40/40 86/86/86 88/88/88
f 142/142/142 35/35/35 102/102/102
f 148/148/148 46/46/46 87/87/87
f 69/69/69 94/94/94 92/92/92
f 19/19/19 86/86/86 142/142/142
f 67/67/67 88/88/88 86/86/86
f 56/56/56 122/122/122 40/40/40
f 159/159/159 155/155/155 148/148/148
f 122/122/122 159/159/159 40/40/40
f 159/159/159 148/148/148 87/87/87
f 148/148/148 155/155/155 11/11/11
f 148/148/148 11/11/11 101/101/101
f 159/159/159 97/97/97 173/173/173
f 159/159/159 173/173/173 155/155/155
f 56/56/56 40/40/40 88/88/88
f 122/122/122 166/166/166 53/53/53
f 56/56/56 88/88/88 99/99/99
f 56/56/56 99/99/99 166/166/166
f 7/7/7 70/70/70 99/99/99
f 67/67/67 7/7/7 88/88/88
f 19/19/19 67/67/67 86/86/86
f 68/68/68 19/19/19 142/142/142
f 73/73/73 102/102/102 100/100/100
f 4/4/4 68/68/68 102/102/102
f 172/172/172 4/4/4 102/102/102
f 73/73/73 172/172/172 102/102/102
f 16/16/16 73/73/73 100/100/100
f 151/151/151 16/16/16 96/96/96
f 74/74/74 151/151/151 139/139/139
f 162/162/162 63/63/63 175/175/175
f 178/178/178 177/177/177 154/154/154
f 126/126/126 26/26/26 149/149/149
f 131/131/131 25/25/25 13/13/13
f 103/103/103 131/131/131 29/29/29
f 130/130/130 17/17/17 126/126/126
f 126/126/126 71/71/71 168/168/168
f 126/126/126 168/168/168 26/26/26
f 128/128/128 71/71/71 8/8/8
f 91/91/91 6/6/6 59/59/59
f 167/167/167 28/28/28 52/52/52
f 168/168/168 28/28/28 26/26/26
f 132/132/132 127/127/127 26/26/26
f 105/105/105 146/146/146 163/163/163
f 168/168/168 71/71/71 128/128/128
f 168/168/168 128/128/128 28/28/28
f 59/59/59 143/143/143 91/91/91
f 126/126/126 17/17/17 71/71/71
f 101/101/101 11/11/11 43/43/43
f 135/135/135 17/17/17 130/130/130
f 107/107/107 43/43/43 11/11/11
f 131/131/131 13/13/13 79/79/79
f 127/127/127 149/149/149 26/26/26
f 169/169/169 50/50/50 61/61/61
f 13/13/13 25/25/25 127/127/127
f 79/79/79 13/13/13 124/124/124
f 27/27/27 124/124/124 61/61/61
f 123/123/123 50/50/50 32/32/32
f 167/167/167 132/132/132 28/28/28
f 163/163/163 132/132/132 167/167/167
f 167/167/167 52/52/52 106/106/106
f 163/163/163 167/167/167 81/81/81
f 163/163/163 81/81/81 158/158/158
f 150/150/150 105/105/105 80/80/80
f 150/150/150 50/50/50 177/177/177
f 146/146/146 132/132/132 163/163/163
f 105/105/105 163/163/163 158/158/158
f 105/105/105 158/158/158 80/80/80
f 121/121/121 80/80/80 5/5/5
f 50/50/50 150/150/150 162/162/162
f 150/150/150 146/146/146 105/105/105
f 149/149/149 127/127/127 44/44/44
f 50/50/50 162/162/162 32/32/32
f 133/133/133 14/14/14 79/79/79
f 133/133/133 27/27/27 78/78/78
f 124/124/124 154/154/154 61/61/61
f 154/154/154 169/169/169 61/61/61
f 126/126/126 149/149/149 130/130/130
f 154/154/154 13/13/13 127/127/127
f 169/169/169 177/177/177 50/50/50
f 133/133/133 124/124/124 27/27/27
f 124/124/124 13/13/13 154/154/154
f 123/123/123 27/27/27 61/61/61
f 125/125/125 62/62/62 117/117/117
f 123/123/123 61/61/61 50/50/50
f 123/123/123 32/32/32 136/136/136
f 62/62/62 123/123/123 136/136/136
f 62/62/62 136/136/136 117/117/117
f 125/125/125 78/78/78 27/27/27
f 118/118/118 79/79/79 14/14/14
f 9/9/9 78/78/78 125/125/125
f 14/14/14 133/133/133 78/78/78
f 77/77/77 118/118/118 14/14/14
f 119/119/119 2/2/2 72/72/72
f 103/103/103 44/44/44 25/25/25
f 131/131/131 79/79/79 118/118/118
f 79/79/79 124/124/124 133/133/133
f 25/25/25 44/44/44 127/127/127
f 29/29/29 131/131/131 118/118/118
f 103/103/103 25/25/25 131/131/131
f 119/119/119 72/72/72 29/29/29
f 158/158/158 153/153/153 110/110/110
f 106/106/106 153/153/153 81/81/81
f 177/177/177 146/146/146 150/150/150
f 177/177/177 169/169/169 154/154/154
f 177/177/177 178/178/178 146/146/146
f 178/178/178 132/132/132 146/146/146
f 132/132/132 178/178/178 127/127/127
f 154/154/154 127/127/127 178/178/178
