# frame 000884 
# time 0.442500 
# name Box 
v 0.719706 0.580240 -0.354196
v 0.718846 0.785035 -0.010600
v 0.720290 0.441441 0.194196
v 0.719706 0.580240 -0.354196
v 0.720290 0.441441 0.194196
v 0.721151 0.236647 -0.149400
v 0.319710 0.578559 -0.354196
v 0.321154 0.234965 -0.149400
v 0.320294 0.439760 0.194196
v 0.319710 0.578559 -0.354196
v 0.320294 0.439760 0.194196
v 0.318849 0.783353 -0.010600
v 0.719706 0.580240 -0.354196
v 0.319710 0.578559 -0.354196
v 0.318849 0.783353 -0.010600
v 0.719706 0.580240 -0.354196
v 0.318849 0.783353 -0.010600
v 0.718846 0.785035 -0.010600
v 0.718846 0.785035 -0.010600
v 0.318849 0.783353 -0.010600
v 0.320294 0.439760 0.194196
v 0.718846 0.785035 -0.010600
v 0.320294 0.439760 0.194196
v 0.720290 0.441441 0.194196
v 0.720290 0.441441 0.194196
v 0.320294 0.439760 0.194196
v 0.321154 0.234965 -0.149400
v 0.720290 0.441441 0.194196
v 0.321154 0.234965 -0.149400
v 0.721151 0.236647 -0.149400
v 0.319710 0.578559 -0.354196
v 0.719706 0.580240 -0.354196
v 0.721151 0.236647 -0.149400
v 0.319710 0.578559 -0.354196
v 0.721151 0.236647 -0.149400
v 0.321154 0.234965 -0.149400
vn 0.199998 0.000841 0.000000
vn 0.199998 0.000841 0.000000
vn 0.199998 0.000841 0.000000
vn 0.199998 0.000841 0.000000
vn 0.199998 0.000841 0.000000
vn 0.199998 0.000841 0.000000
vn -0.199998 -0.000841 0.000000
vn -0.199998 -0.000841 0.000000
vn -0.199998 -0.000841 0.000000
vn -0.199998 -0.000841 0.000000
vn -0.199998 -0.000841 0.000000
vn -0.199998 -0.000841 0.000000
vn -0.000722 0.171797 -0.102398
vn -0.000722 0.171797 -0.102398
vn -0.000722 0.171797 -0.102398
vn -0.000722 0.171797 -0.102398
vn -0.000722 0.171797 -0.102398
vn -0.000722 0.171797 -0.102398
vn -0.000430 0.102397 0.171798
vn -0.000430 0.102397 0.171798
vn -0.000430 0.102397 0.171798
vn -0.000430 0.102397 0.171798
vn -0.000430 0.102397 0.171798
vn -0.000430 0.102397 0.171798
vn 0.000722 -0.171797 0.102398
vn 0.000722 -0.171797 0.102398
vn 0.000722 -0.171797 0.102398
vn 0.000722 -0.171797 0.102398
vn 0.000722 -0.171797 0.102398
vn 0.000722 -0.171797 0.102398
vn 0.000430 -0.102397 -0.171798
vn 0.000430 -0.102397 -0.171798
vn 0.000430 -0.102397 -0.171798
vn 0.000430 -0.102397 -0.171798
vn 0.000430 -0.102397 -0.171798
vn 0.000430 -0.102397 -0.171798
f 1/1/1 2/2/2 3/3/3
f 4/4/4 5/5/5 6/6/6
f 7/7/7 8/8/8 9/9/9
f 10/10/10 11/11/11 12/12/12
f 13/13/13 14/14/14 15/15/15
f 16/16/16 17/17/17 18/18/18
f 19/19/19 20/20/20 21/21/21
f 22/22/22 23/23/23 24/24/24
f 25/25/25 26/26/26 27/27/27
f 28/28/28 29/29/29 30/30/30
f 31/31/31 32/32/32 33/33/33
f 34/34/34 35/35/35 36/36/36
