# frame 000875 
# time 0.438000 
# name Box 
v 0.719681 0.586392 -0.352566
v 0.718852 0.783404 -0.004448
v 0.720316 0.435290 0.192566
v 0.719681 0.586392 -0.352566
v 0.720316 0.435290 0.192566
v 0.721144 0.238278 -0.155552
v 0.319684 0.584710 -0.352566
v 0.321148 0.236596 -0.155552
v 0.320319 0.433608 0.192566
v 0.319684 0.584710 -0.352566
v 0.320319 0.433608 0.192566
v 0.318856 0.781722 -0.004448
v 0.719681 0.586392 -0.352566
v 0.319684 0.584710 -0.352566
v 0.318856 0.781722 -0.004448
v 0.719681 0.586392 -0.352566
v 0.318856 0.781722 -0.004448
v 0.718852 0.783404 -0.004448
v 0.718852 0.783404 -0.004448
v 0.318856 0.781722 -0.004448
v 0.320319 0.433608 0.192566
v 0.718852 0.783404 -0.004448
v 0.320319 0.433608 0.192566
v 0.720316 0.435290 0.192566
v 0.720316 0.435290 0.192566
v 0.320319 0.433608 0.192566
v 0.321148 0.236596 -0.155552
v 0.720316 0.435290 0.192566
v 0.321148 0.236596 -0.155552
v 0.721144 0.238278 -0.155552
v 0.319684 0.584710 -0.352566
v 0.719681 0.586392 -0.352566
v 0.721144 0.238278 -0.155552
v 0.319684 0.584710 -0.352566
v 0.721144 0.238278 -0.155552
v 0.321148 0.236596 -0.155552
vn 0.199998 0.000841 0.000000
vn 0.199998 0.000841 0.000000
vn 0.199998 0.000841 0.000000
vn 0.199998 0.000841 0.000000
vn 0.199998 0.000841 0.000000
vn 0.199998 0.000841 0.000000
vn -0.199998 -0.000841 0.000000
vn -0.199998 -0.000841 0.000000
vn -0.199998 -0.000841 0.000000
vn -0.199998 -0.000841 0.000000
vn -0.199998 -0.000841 0.000000
vn -0.199998 -0.000841 0.000000
vn -0.000732 0.174057 -0.098507
vn -0.000732 0.174057 -0.098507
vn -0.000732 0.174057 -0.098507
vn -0.000732 0.174057 -0.098507
vn -0.000732 0.174057 -0.098507
vn -0.000732 0.174057 -0.098507
vn -0.000414 0.098506 0.174059
vn -0.000414 0.098506 0.174059
vn -0.000414 0.098506 0.174059
vn -0.000414 0.098506 0.174059
vn -0.000414 0.098506 0.174059
vn -0.000414 0.098506 0.174059
vn 0.000732 -0.174057 0.098507
vn 0.000732 -0.174057 0.098507
vn 0.000732 -0.174057 0.098507
vn 0.000732 -0.174057 0.098507
vn 0.000732 -0.174057 0.098507
vn 0.000732 -0.174057 0.098507
vn 0.000414 -0.098506 -0.174059
vn 0.000414 -0.098506 -0.174059
vn 0.000414 -0.098506 -0.174059
vn 0.000414 -0.098506 -0.174059
vn 0.000414 -0.098506 -0.174059
vn 0.000414 -0.098506 -0.174059
f 1/1/1 2/2/2 3/3/3
f 4/4/4 5/5/5 6/6/6
f 7/7/7 8/8/8 9/9/9
f 10/10/10 11/11/11 12/12/12
f 13/13/13 14/14/14 15/15/15
f 16/16/16 17/17/17 18/18/18
f 19/19/19 20/20/20 21/21/21
f 22/22/22 23/23/23 24/24/24
f 25/25/25 26/26/26 27/27/27
f 28/28/28 29/29/29 30/30/30
f 31/31/31 32/32/32 33/33/33
f 34/34/34 35/35/35 36/36/36
