# frame 000829 
# time 0.415000 
# name Box 
v 0.719551 0.617168 -0.342096
v 0.718896 0.772934 0.026329
v 0.720445 0.404513 0.182096
v 0.719551 0.617168 -0.342096
v 0.720445 0.404513 0.182096
v 0.721100 0.248747 -0.186329
v 0.319555 0.615487 -0.342096
v 0.321104 0.247066 -0.186329
v 0.320449 0.402832 0.182096
v 0.319555 0.615487 -0.342096
v 0.320449 0.402832 0.182096
v 0.318900 0.771253 0.026329
v 0.719551 0.617168 -0.342096
v 0.319555 0.615487 -0.342096
v 0.318900 0.771253 0.026329
v 0.719551 0.617168 -0.342096
v 0.318900 0.771253 0.026329
v 0.718896 0.772934 0.026329
v 0.718896 0.772934 0.026329
v 0.318900 0.771253 0.026329
v 0.320449 0.402832 0.182096
v 0.718896 0.772934 0.026329
v 0.320449 0.402832 0.182096
v 0.720445 0.404513 0.182096
v 0.720445 0.404513 0.182096
v 0.320449 0.402832 0.182096
v 0.321104 0.247066 -0.186329
v 0.720445 0.404513 0.182096
v 0.321104 0.247066 -0.186329
v 0.721100 0.248747 -0.186329
v 0.319555 0.615487 -0.342096
v 0.719551 0.617168 -0.342096
v 0.721100 0.248747 -0.186329
v 0.319555 0.615487 -0.342096
v 0.721100 0.248747 -0.186329
v 0.321104 0.247066 -0.186329
vn 0.199998 0.000841 0.000000
vn 0.199998 0.000841 0.000000
vn 0.199998 0.000841 0.000000
vn 0.199998 0.000841 0.000000
vn 0.199998 0.000841 0.000000
vn 0.199998 0.000841 0.000000
vn -0.199998 -0.000841 0.000000
vn -0.199998 -0.000841 0.000000
vn -0.199998 -0.000841 0.000000
vn -0.199998 -0.000841 0.000000
vn -0.199998 -0.000841 0.000000
vn -0.199998 -0.000841 0.000000
vn -0.000774 0.184211 -0.077884
vn -0.000774 0.184211 -0.077884
vn -0.000774 0.184211 -0.077884
vn -0.000774 0.184211 -0.077884
vn -0.000774 0.184211 -0.077884
vn -0.000774 0.184211 -0.077884
vn -0.000327 0.077883 0.184212
vn -0.000327 0.077883 0.184212
vn -0.000327 0.077883 0.184212
vn -0.000327 0.077883 0.184212
vn -0.000327 0.077883 0.184212
vn -0.000327 0.077883 0.184212
vn 0.000774 -0.184211 0.077884
vn 0.000774 -0.184211 0.077884
vn 0.000774 -0.184211 0.077884
vn 0.000774 -0.184211 0.077884
vn 0.000774 -0.184211 0.077884
vn 0.000774 -0.184211 0.077884
vn 0.000327 -0.077883 -0.184212
vn 0.000327 -0.077883 -0.184212
vn 0.000327 -0.077883 -0.184212
vn 0.000327 -0.077883 -0.184212
vn 0.000327 -0.077883 -0.184212
vn 0.000327 -0.077883 -0.184212
f 1/1/1 2/2/2 3/3/3
f 4/4/4 5/5/5 6/6/6
f 7/7/7 8/8/8 9/9/9
f 10/10/10 11/11/11 12/12/12
f 13/13/13 14/14/14 15/15/15
f 16/16/16 17/17/17 18/18/18
f 19/19/19 20/20/20 21/21/21
f 22/22/22 23/23/23 24/24/24
f 25/25/25 26/26/26 27/27/27
f 28/28/28 29/29/29 30/30/30
f 31/31/31 32/32/32 33/33/33
f 34/34/34 35/35/35 36/36/36
