# frame 000855 
# time 0.428000 
# name Box 
v 0.719624 0.599920 -0.348449
v 0.718870 0.779287 0.009080
v 0.720373 0.421762 0.188449
v 0.719624 0.599920 -0.348449
v 0.720373 0.421762 0.188449
v 0.721127 0.242394 -0.169080
v 0.319627 0.598238 -0.348449
v 0.321130 0.240713 -0.169080
v 0.320376 0.420080 0.188449
v 0.319627 0.598238 -0.348449
v 0.320376 0.420080 0.188449
v 0.318873 0.777606 0.009080
v 0.719624 0.599920 -0.348449
v 0.319627 0.598238 -0.348449
v 0.318873 0.777606 0.009080
v 0.719624 0.599920 -0.348449
v 0.318873 0.777606 0.009080
v 0.718870 0.779287 0.009080
v 0.718870 0.779287 0.009080
v 0.318873 0.777606 0.009080
v 0.320376 0.420080 0.188449
v 0.718870 0.779287 0.009080
v 0.320376 0.420080 0.188449
v 0.720373 0.421762 0.188449
v 0.720373 0.421762 0.188449
v 0.320376 0.420080 0.188449
v 0.321130 0.240713 -0.169080
v 0.720373 0.421762 0.188449
v 0.321130 0.240713 -0.169080
v 0.721127 0.242394 -0.169080
v 0.319627 0.598238 -0.348449
v 0.719624 0.599920 -0.348449
v 0.721127 0.242394 -0.169080
v 0.319627 0.598238 -0.348449
v 0.721127 0.242394 -0.169080
v 0.321130 0.240713 -0.169080
vn 0.199998 0.000841 0.000000
vn 0.199998 0.000841 0.000000
vn 0.199998 0.000841 0.000000
vn 0.199998 0.000841 0.000000
vn 0.199998 0.000841 0.000000
vn 0.199998 0.000841 0.000000
vn -0.199998 -0.000841 0.000000
vn -0.199998 -0.000841 0.000000
vn -0.199998 -0.000841 0.000000
vn -0.199998 -0.000841 0.000000
vn -0.199998 -0.000841 0.000000
vn -0.199998 -0.000841 0.000000
vn -0.000751 0.178763 -0.089685
vn -0.000751 0.178763 -0.089685
vn -0.000751 0.178763 -0.089685
vn -0.000751 0.178763 -0.089685
vn -0.000751 0.178763 -0.089685
vn -0.000751 0.178763 -0.089685
vn -0.000377 0.089684 0.178764
vn -0.000377 0.089684 0.178764
vn -0.000377 0.089684 0.178764
vn -0.000377 0.089684 0.178764
vn -0.000377 0.089684 0.178764
vn -0.000377 0.089684 0.178764
vn 0.000751 -0.178763 0.089685
vn 0.000751 -0.178763 0.089685
vn 0.000751 -0.178763 0.089685
vn 0.000751 -0.178763 0.089685
vn 0.000751 -0.178763 0.089685
vn 0.000751 -0.178763 0.089685
vn 0.000377 -0.089684 -0.178764
vn 0.000377 -0.089684 -0.178764
vn 0.000377 -0.089684 -0.178764
vn 0.000377 -0.089684 -0.178764
vn 0.000377 -0.089684 -0.178764
vn 0.000377 -0.089684 -0.178764
f 1/1/1 2/2/2 3/3/3
f 4/4/4 5/5/5 6/6/6
f 7/7/7 8/8/8 9/9/9
f 10/10/10 11/11/11 12/12/12
f 13/13/13 14/14/14 15/15/15
f 16/16/16 17/17/17 18/18/18
f 19/19/19 20/20/20 21/21/21
f 22/22/22 23/23/23 24/24/24
f 25/25/25 26/26/26 27/27/27
f 28/28/28 29/29/29 30/30/30
f 31/31/31 32/32/32 33/33/33
f 34/34/34 35/35/35 36/36/36
