# frame 000821 
# time 0.411000 
# name Box 
v 0.719529 0.622389 -0.339917
v 0.718906 0.770755 0.031549
v 0.720467 0.399293 0.179917
v 0.719529 0.622389 -0.339917
v 0.720467 0.399293 0.179917
v 0.721091 0.250926 -0.191549
v 0.319533 0.620707 -0.339917
v 0.321094 0.249245 -0.191549
v 0.320471 0.397611 0.179917
v 0.319533 0.620707 -0.339917
v 0.320471 0.397611 0.179917
v 0.318909 0.769074 0.031549
v 0.719529 0.622389 -0.339917
v 0.319533 0.620707 -0.339917
v 0.318909 0.769074 0.031549
v 0.719529 0.622389 -0.339917
v 0.318909 0.769074 0.031549
v 0.718906 0.770755 0.031549
v 0.718906 0.770755 0.031549
v 0.318909 0.769074 0.031549
v 0.320471 0.397611 0.179917
v 0.718906 0.770755 0.031549
v 0.320471 0.397611 0.179917
v 0.720467 0.399293 0.179917
v 0.720467 0.399293 0.179917
v 0.320471 0.397611 0.179917
v 0.321094 0.249245 -0.191549
v 0.720467 0.399293 0.179917
v 0.321094 0.249245 -0.191549
v 0.721091 0.250926 -0.191549
v 0.319533 0.620707 -0.339917
v 0.719529 0.622389 -0.339917
v 0.721091 0.250926 -0.191549
v 0.319533 0.620707 -0.339917
v 0.721091 0.250926 -0.191549
v 0.321094 0.249245 -0.191549
vn 0.199998 0.000841 0.000000
vn 0.199998 0.000841 0.000000
vn 0.199998 0.000841 0.000000
vn 0.199998 0.000841 0.000000
vn 0.199998 0.000841 0.000000
vn 0.199998 0.000841 0.000000
vn -0.199998 -0.000841 0.000000
vn -0.199998 -0.000841 0.000000
vn -0.199998 -0.000841 0.000000
vn -0.199998 -0.000841 0.000000
vn -0.199998 -0.000841 0.000000
vn -0.199998 -0.000841 0.000000
vn -0.000781 0.185731 -0.074184
vn -0.000781 0.185731 -0.074184
vn -0.000781 0.185731 -0.074184
vn -0.000781 0.185731 -0.074184
vn -0.000781 0.185731 -0.074184
vn -0.000781 0.185731 -0.074184
vn -0.000312 0.074183 0.185733
vn -0.000312 0.074183 0.185733
vn -0.000312 0.074183 0.185733
vn -0.000312 0.074183 0.185733
vn -0.000312 0.074183 0.185733
vn -0.000312 0.074183 0.185733
vn 0.000781 -0.185731 0.074184
vn 0.000781 -0.185731 0.074184
vn 0.000781 -0.185731 0.074184
vn 0.000781 -0.185731 0.074184
vn 0.000781 -0.185731 0.074184
vn 0.000781 -0.185731 0.074184
vn 0.000312 -0.074183 -0.185733
vn 0.000312 -0.074183 -0.185733
vn 0.000312 -0.074183 -0.185733
vn 0.000312 -0.074183 -0.185733
vn 0.000312 -0.074183 -0.185733
vn 0.000312 -0.074183 -0.185733
f 1/1/1 2/2/2 3/3/3
f 4/4/4 5/5/5 6/6/6
f 7/7/7 8/8/8 9/9/9
f 10/10/10 11/11/11 12/12/12
f 13/13/13 14/14/14 15/15/15
f 16/16/16 17/17/17 18/18/18
f 19/19/19 20/20/20 21/21/21
f 22/22/22 23/23/23 24/24/24
f 25/25/25 26/26/26 27/27/27
f 28/28/28 29/29/29 30/30/30
f 31/31/31 32/32/32 33/33/33
f 34/34/34 35/35/35 36/36/36
