# frame 000833 
# time 0.417000 
# name Box 
v 0.719562 0.614542 -0.343146
v 0.718892 0.773984 0.023702
v 0.720434 0.407139 0.183146
v 0.719562 0.614542 -0.343146
v 0.720434 0.407139 0.183146
v 0.721104 0.247697 -0.183702
v 0.319566 0.612861 -0.343146
v 0.321108 0.246016 -0.183702
v 0.320438 0.405458 0.183146
v 0.319566 0.612861 -0.343146
v 0.320438 0.405458 0.183146
v 0.318896 0.772303 0.023702
v 0.719562 0.614542 -0.343146
v 0.319566 0.612861 -0.343146
v 0.318896 0.772303 0.023702
v 0.719562 0.614542 -0.343146
v 0.318896 0.772303 0.023702
v 0.718892 0.773984 0.023702
v 0.718892 0.773984 0.023702
v 0.318896 0.772303 0.023702
v 0.320438 0.405458 0.183146
v 0.718892 0.773984 0.023702
v 0.320438 0.405458 0.183146
v 0.720434 0.407139 0.183146
v 0.720434 0.407139 0.183146
v 0.320438 0.405458 0.183146
v 0.321108 0.246016 -0.183702
v 0.720434 0.407139 0.183146
v 0.321108 0.246016 -0.183702
v 0.721104 0.247697 -0.183702
v 0.319566 0.612861 -0.343146
v 0.719562 0.614542 -0.343146
v 0.721104 0.247697 -0.183702
v 0.319566 0.612861 -0.343146
v 0.721104 0.247697 -0.183702
v 0.321108 0.246016 -0.183702
vn 0.199998 0.000841 0.000000
vn 0.199998 0.000841 0.000000
vn 0.199998 0.000841 0.000000
vn 0.199998 0.000841 0.000000
vn 0.199998 0.000841 0.000000
vn 0.199998 0.000841 0.000000
vn -0.199998 -0.000841 0.000000
vn -0.199998 -0.000841 0.000000
vn -0.199998 -0.000841 0.000000
vn -0.199998 -0.000841 0.000000
vn -0.199998 -0.000841 0.000000
vn -0.199998 -0.000841 0.000000
vn -0.000771 0.183423 -0.079722
vn -0.000771 0.183423 -0.079722
vn -0.000771 0.183423 -0.079722
vn -0.000771 0.183423 -0.079722
vn -0.000771 0.183423 -0.079722
vn -0.000771 0.183423 -0.079722
vn -0.000335 0.079721 0.183424
vn -0.000335 0.079721 0.183424
vn -0.000335 0.079721 0.183424
vn -0.000335 0.079721 0.183424
vn -0.000335 0.079721 0.183424
vn -0.000335 0.079721 0.183424
vn 0.000771 -0.183423 0.079722
vn 0.000771 -0.183423 0.079722
vn 0.000771 -0.183423 0.079722
vn 0.000771 -0.183423 0.079722
vn 0.000771 -0.183423 0.079722
vn 0.000771 -0.183423 0.079722
vn 0.000335 -0.079721 -0.183424
vn 0.000335 -0.079721 -0.183424
vn 0.000335 -0.079721 -0.183424
vn 0.000335 -0.079721 -0.183424
vn 0.000335 -0.079721 -0.183424
vn 0.000335 -0.079721 -0.183424
f 1/1/1 2/2/2 3/3/3
f 4/4/4 5/5/5 6/6/6
f 7/7/7 8/8/8 9/9/9
f 10/10/10 11/11/11 12/12/12
f 13/13/13 14/14/14 15/15/15
f 16/16/16 17/17/17 18/18/18
f 19/19/19 20/20/20 21/21/21
f 22/22/22 23/23/23 24/24/24
f 25/25/25 26/26/26 27/27/27
f 28/28/28 29/29/29 30/30/30
f 31/31/31 32/32/32 33/33/33
f 34/34/34 35/35/35 36/36/36
