# frame 000827 
# time 0.414000 
# name Box 
v 0.719546 0.618477 -0.341561
v 0.718899 0.772399 0.027638
v 0.720451 0.403204 0.181561
v 0.719546 0.618477 -0.341561
v 0.720451 0.403204 0.181561
v 0.721098 0.249282 -0.187638
v 0.319549 0.616796 -0.341561
v 0.321101 0.247601 -0.187638
v 0.320454 0.401523 0.181561
v 0.319549 0.616796 -0.341561
v 0.320454 0.401523 0.181561
v 0.318902 0.770718 0.027638
v 0.719546 0.618477 -0.341561
v 0.319549 0.616796 -0.341561
v 0.318902 0.770718 0.027638
v 0.719546 0.618477 -0.341561
v 0.318902 0.770718 0.027638
v 0.718899 0.772399 0.027638
v 0.718899 0.772399 0.027638
v 0.318902 0.770718 0.027638
v 0.320454 0.401523 0.181561
v 0.718899 0.772399 0.027638
v 0.320454 0.401523 0.181561
v 0.720451 0.403204 0.181561
v 0.720451 0.403204 0.181561
v 0.320454 0.401523 0.181561
v 0.321101 0.247601 -0.187638
v 0.720451 0.403204 0.181561
v 0.321101 0.247601 -0.187638
v 0.721098 0.249282 -0.187638
v 0.319549 0.616796 -0.341561
v 0.719546 0.618477 -0.341561
v 0.721098 0.249282 -0.187638
v 0.319549 0.616796 -0.341561
v 0.721098 0.249282 -0.187638
v 0.321101 0.247601 -0.187638
vn 0.199998 0.000841 0.000000
vn 0.199998 0.000841 0.000000
vn 0.199998 0.000841 0.000000
vn 0.199998 0.000841 0.000000
vn 0.199998 0.000841 0.000000
vn 0.199998 0.000841 0.000000
vn -0.199998 -0.000841 0.000000
vn -0.199998 -0.000841 0.000000
vn -0.199998 -0.000841 0.000000
vn -0.199998 -0.000841 0.000000
vn -0.199998 -0.000841 0.000000
vn -0.199998 -0.000841 0.000000
vn -0.000776 0.184598 -0.076962
vn -0.000776 0.184598 -0.076962
vn -0.000776 0.184598 -0.076962
vn -0.000776 0.184598 -0.076962
vn -0.000776 0.184598 -0.076962
vn -0.000776 0.184598 -0.076962
vn -0.000324 0.076961 0.184599
vn -0.000324 0.076961 0.184599
vn -0.000324 0.076961 0.184599
vn -0.000324 0.076961 0.184599
vn -0.000324 0.076961 0.184599
vn -0.000324 0.076961 0.184599
vn 0.000776 -0.184598 0.076962
vn 0.000776 -0.184598 0.076962
vn 0.000776 -0.184598 0.076962
vn 0.000776 -0.184598 0.076962
vn 0.000776 -0.184598 0.076962
vn 0.000776 -0.184598 0.076962
vn 0.000324 -0.076961 -0.184599
vn 0.000324 -0.076961 -0.184599
vn 0.000324 -0.076961 -0.184599
vn 0.000324 -0.076961 -0.184599
vn 0.000324 -0.076961 -0.184599
vn 0.000324 -0.076961 -0.184599
f 1/1/1 2/2/2 3/3/3
f 4/4/4 5/5/5 6/6/6
f 7/7/7 8/8/8 9/9/9
f 10/10/10 11/11/11 12/12/12
f 13/13/13 14/14/14 15/15/15
f 16/16/16 17/17/17 18/18/18
f 19/19/19 20/20/20 21/21/21
f 22/22/22 23/23/23 24/24/24
f 25/25/25 26/26/26 27/27/27
f 28/28/28 29/29/29 30/30/30
f 31/31/31 32/32/32 33/33/33
f 34/34/34 35/35/35 36/36/36
