# frame 000874 
# time 0.437500 
# name Box 
v 0.719678 0.587073 -0.352376
v 0.718853 0.783214 -0.003767
v 0.720319 0.434609 0.192376
v 0.719678 0.587073 -0.352376
v 0.720319 0.434609 0.192376
v 0.721143 0.238467 -0.156233
v 0.319681 0.585391 -0.352376
v 0.321147 0.236786 -0.156233
v 0.320322 0.432927 0.192376
v 0.319681 0.585391 -0.352376
v 0.320322 0.432927 0.192376
v 0.318857 0.781533 -0.003767
v 0.719678 0.587073 -0.352376
v 0.319681 0.585391 -0.352376
v 0.318857 0.781533 -0.003767
v 0.719678 0.587073 -0.352376
v 0.318857 0.781533 -0.003767
v 0.718853 0.783214 -0.003767
v 0.718853 0.783214 -0.003767
v 0.318857 0.781533 -0.003767
v 0.320322 0.432927 0.192376
v 0.718853 0.783214 -0.003767
v 0.320322 0.432927 0.192376
v 0.720319 0.434609 0.192376
v 0.720319 0.434609 0.192376
v 0.320322 0.432927 0.192376
v 0.321147 0.236786 -0.156233
v 0.720319 0.434609 0.192376
v 0.321147 0.236786 -0.156233
v 0.721143 0.238467 -0.156233
v 0.319681 0.585391 -0.352376
v 0.719678 0.587073 -0.352376
v 0.721143 0.238467 -0.156233
v 0.319681 0.585391 -0.352376
v 0.721143 0.238467 -0.156233
v 0.321147 0.236786 -0.156233
vn 0.199998 0.000841 0.000000
vn 0.199998 0.000841 0.000000
vn 0.199998 0.000841 0.000000
vn 0.199998 0.000841 0.000000
vn 0.199998 0.000841 0.000000
vn 0.199998 0.000841 0.000000
vn -0.199998 -0.000841 0.000000
vn -0.199998 -0.000841 0.000000
vn -0.199998 -0.000841 0.000000
vn -0.199998 -0.000841 0.000000
vn -0.199998 -0.000841 0.000000
vn -0.199998 -0.000841 0.000000
vn -0.000733 0.174303 -0.098072
vn -0.000733 0.174303 -0.098072
vn -0.000733 0.174303 -0.098072
vn -0.000733 0.174303 -0.098072
vn -0.000733 0.174303 -0.098072
vn -0.000733 0.174303 -0.098072
vn -0.000412 0.098071 0.174304
vn -0.000412 0.098071 0.174304
vn -0.000412 0.098071 0.174304
vn -0.000412 0.098071 0.174304
vn -0.000412 0.098071 0.174304
vn -0.000412 0.098071 0.174304
vn 0.000733 -0.174303 0.098072
vn 0.000733 -0.174303 0.098072
vn 0.000733 -0.174303 0.098072
vn 0.000733 -0.174303 0.098072
vn 0.000733 -0.174303 0.098072
vn 0.000733 -0.174303 0.098072
vn 0.000412 -0.098071 -0.174304
vn 0.000412 -0.098071 -0.174304
vn 0.000412 -0.098071 -0.174304
vn 0.000412 -0.098071 -0.174304
vn 0.000412 -0.098071 -0.174304
vn 0.000412 -0.098071 -0.174304
f 1/1/1 2/2/2 3/3/3
f 4/4/4 5/5/5 6/6/6
f 7/7/7 8/8/8 9/9/9
f 10/10/10 11/11/11 12/12/12
f 13/13/13 14/14/14 15/15/15
f 16/16/16 17/17/17 18/18/18
f 19/19/19 20/20/20 21/21/21
f 22/22/22 23/23/23 24/24/24
f 25/25/25 26/26/26 27/27/27
f 28/28/28 29/29/29 30/30/30
f 31/31/31 32/32/32 33/33/33
f 34/34/34 35/35/35 36/36/36
