# frame 000867 
# time 0.434000 
# name Box 
v 0.719658 0.591827 -0.351000
v 0.718859 0.781838 0.000987
v 0.720339 0.429854 0.191000
v 0.719658 0.591827 -0.351000
v 0.720339 0.429854 0.191000
v 0.721137 0.239843 -0.160987
v 0.319661 0.590146 -0.351000
v 0.321141 0.238162 -0.160987
v 0.320342 0.428173 0.191000
v 0.319661 0.590146 -0.351000
v 0.320342 0.428173 0.191000
v 0.318863 0.780157 0.000987
v 0.719658 0.591827 -0.351000
v 0.319661 0.590146 -0.351000
v 0.318863 0.780157 0.000987
v 0.719658 0.591827 -0.351000
v 0.318863 0.780157 0.000987
v 0.718859 0.781838 0.000987
v 0.718859 0.781838 0.000987
v 0.318863 0.780157 0.000987
v 0.320342 0.428173 0.191000
v 0.718859 0.781838 0.000987
v 0.320342 0.428173 0.191000
v 0.720339 0.429854 0.191000
v 0.720339 0.429854 0.191000
v 0.320342 0.428173 0.191000
v 0.321141 0.238162 -0.160987
v 0.720339 0.429854 0.191000
v 0.321141 0.238162 -0.160987
v 0.721137 0.239843 -0.160987
v 0.319661 0.590146 -0.351000
v 0.719658 0.591827 -0.351000
v 0.721137 0.239843 -0.160987
v 0.319661 0.590146 -0.351000
v 0.721137 0.239843 -0.160987
v 0.321141 0.238162 -0.160987
vn 0.199998 0.000841 0.000000
vn 0.199998 0.000841 0.000000
vn 0.199998 0.000841 0.000000
vn 0.199998 0.000841 0.000000
vn 0.199998 0.000841 0.000000
vn 0.199998 0.000841 0.000000
vn -0.199998 -0.000841 0.000000
vn -0.199998 -0.000841 0.000000
vn -0.199998 -0.000841 0.000000
vn -0.199998 -0.000841 0.000000
vn -0.199998 -0.000841 0.000000
vn -0.199998 -0.000841 0.000000
vn -0.000740 0.175992 -0.095006
vn -0.000740 0.175992 -0.095006
vn -0.000740 0.175992 -0.095006
vn -0.000740 0.175992 -0.095006
vn -0.000740 0.175992 -0.095006
vn -0.000740 0.175992 -0.095006
vn -0.000399 0.095005 0.175994
vn -0.000399 0.095005 0.175994
vn -0.000399 0.095005 0.175994
vn -0.000399 0.095005 0.175994
vn -0.000399 0.095005 0.175994
vn -0.000399 0.095005 0.175994
vn 0.000740 -0.175992 0.095006
vn 0.000740 -0.175992 0.095006
vn 0.000740 -0.175992 0.095006
vn 0.000740 -0.175992 0.095006
vn 0.000740 -0.175992 0.095006
vn 0.000740 -0.175992 0.095006
vn 0.000399 -0.095005 -0.175994
vn 0.000399 -0.095005 -0.175994
vn 0.000399 -0.095005 -0.175994
vn 0.000399 -0.095005 -0.175994
vn 0.000399 -0.095005 -0.175994
vn 0.000399 -0.095005 -0.175994
f 1/1/1 2/2/2 3/3/3
f 4/4/4 5/5/5 6/6/6
f 7/7/7 8/8/8 9/9/9
f 10/10/10 11/11/11 12/12/12
f 13/13/13 14/14/14 15/15/15
f 16/16/16 17/17/17 18/18/18
f 19/19/19 20/20/20 21/21/21
f 22/22/22 23/23/23 24/24/24
f 25/25/25 26/26/26 27/27/27
f 28/28/28 29/29/29 30/30/30
f 31/31/31 32/32/32 33/33/33
f 34/34/34 35/35/35 36/36/36
