# frame 000899 
# time 0.450000 
# name Box 
v 0.719750 0.569912 -0.356605
v 0.718835 0.787444 -0.020928
v 0.720247 0.451770 0.196605
v 0.719750 0.569912 -0.356605
v 0.720247 0.451770 0.196605
v 0.721161 0.234238 -0.139072
v 0.319753 0.568230 -0.356605
v 0.321165 0.232556 -0.139072
v 0.320250 0.450088 0.196605
v 0.319753 0.568230 -0.356605
v 0.320250 0.450088 0.196605
v 0.318839 0.785762 -0.020928
v 0.719750 0.569912 -0.356605
v 0.319753 0.568230 -0.356605
v 0.318839 0.785762 -0.020928
v 0.719750 0.569912 -0.356605
v 0.318839 0.785762 -0.020928
v 0.718835 0.787444 -0.020928
v 0.718835 0.787444 -0.020928
v 0.318839 0.785762 -0.020928
v 0.320250 0.450088 0.196605
v 0.718835 0.787444 -0.020928
v 0.320250 0.450088 0.196605
v 0.720247 0.451770 0.196605
v 0.720247 0.451770 0.196605
v 0.320250 0.450088 0.196605
v 0.321165 0.232556 -0.139072
v 0.720247 0.451770 0.196605
v 0.321165 0.232556 -0.139072
v 0.721161 0.234238 -0.139072
v 0.319753 0.568230 -0.356605
v 0.719750 0.569912 -0.356605
v 0.721161 0.234238 -0.139072
v 0.319753 0.568230 -0.356605
v 0.721161 0.234238 -0.139072
v 0.321165 0.232556 -0.139072
vn 0.199998 0.000841 0.000000
vn 0.199998 0.000841 0.000000
vn 0.199998 0.000841 0.000000
vn 0.199998 0.000841 0.000000
vn 0.199998 0.000841 0.000000
vn 0.199998 0.000841 0.000000
vn -0.199998 -0.000841 0.000000
vn -0.199998 -0.000841 0.000000
vn -0.199998 -0.000841 0.000000
vn -0.199998 -0.000841 0.000000
vn -0.199998 -0.000841 0.000000
vn -0.199998 -0.000841 0.000000
vn -0.000706 0.167837 -0.108767
vn -0.000706 0.167837 -0.108767
vn -0.000706 0.167837 -0.108767
vn -0.000706 0.167837 -0.108767
vn -0.000706 0.167837 -0.108767
vn -0.000706 0.167837 -0.108767
vn -0.000457 0.108766 0.167838
vn -0.000457 0.108766 0.167838
vn -0.000457 0.108766 0.167838
vn -0.000457 0.108766 0.167838
vn -0.000457 0.108766 0.167838
vn -0.000457 0.108766 0.167838
vn 0.000706 -0.167837 0.108767
vn 0.000706 -0.167837 0.108767
vn 0.000706 -0.167837 0.108767
vn 0.000706 -0.167837 0.108767
vn 0.000706 -0.167837 0.108767
vn 0.000706 -0.167837 0.108767
vn 0.000457 -0.108766 -0.167838
vn 0.000457 -0.108766 -0.167838
vn 0.000457 -0.108766 -0.167838
vn 0.000457 -0.108766 -0.167838
vn 0.000457 -0.108766 -0.167838
vn 0.000457 -0.108766 -0.167838
f 1/1/1 2/2/2 3/3/3
f 4/4/4 5/5/5 6/6/6
f 7/7/7 8/8/8 9/9/9
f 10/10/10 11/11/11 12/12/12
f 13/13/13 14/14/14 15/15/15
f 16/16/16 17/17/17 18/18/18
f 19/19/19 20/20/20 21/21/21
f 22/22/22 23/23/23 24/24/24
f 25/25/25 26/26/26 27/27/27
f 28/28/28 29/29/29 30/30/30
f 31/31/31 32/32/32 33/33/33
f 34/34/34 35/35/35 36/36/36
