# frame 000866 
# time 0.433500 
# name Box 
v 0.719655 0.592505 -0.350797
v 0.718860 0.781635 0.001665
v 0.720342 0.429177 0.190797
v 0.719655 0.592505 -0.350797
v 0.720342 0.429177 0.190797
v 0.721137 0.240046 -0.161665
v 0.319658 0.590823 -0.350797
v 0.321140 0.238365 -0.161665
v 0.320345 0.427495 0.190797
v 0.319658 0.590823 -0.350797
v 0.320345 0.427495 0.190797
v 0.318863 0.779954 0.001665
v 0.719655 0.592505 -0.350797
v 0.319658 0.590823 -0.350797
v 0.318863 0.779954 0.001665
v 0.719655 0.592505 -0.350797
v 0.318863 0.779954 0.001665
v 0.718860 0.781635 0.001665
v 0.718860 0.781635 0.001665
v 0.318863 0.779954 0.001665
v 0.320345 0.427495 0.190797
v 0.718860 0.781635 0.001665
v 0.320345 0.427495 0.190797
v 0.720342 0.429177 0.190797
v 0.720342 0.429177 0.190797
v 0.320345 0.427495 0.190797
v 0.321140 0.238365 -0.161665
v 0.720342 0.429177 0.190797
v 0.321140 0.238365 -0.161665
v 0.721137 0.240046 -0.161665
v 0.319658 0.590823 -0.350797
v 0.719655 0.592505 -0.350797
v 0.721137 0.240046 -0.161665
v 0.319658 0.590823 -0.350797
v 0.721137 0.240046 -0.161665
v 0.321140 0.238365 -0.161665
vn 0.199998 0.000841 0.000000
vn 0.199998 0.000841 0.000000
vn 0.199998 0.000841 0.000000
vn 0.199998 0.000841 0.000000
vn 0.199998 0.000841 0.000000
vn 0.199998 0.000841 0.000000
vn -0.199998 -0.000841 0.000000
vn -0.199998 -0.000841 0.000000
vn -0.199998 -0.000841 0.000000
vn -0.199998 -0.000841 0.000000
vn -0.199998 -0.000841 0.000000
vn -0.199998 -0.000841 0.000000
vn -0.000741 0.176229 -0.094566
vn -0.000741 0.176229 -0.094566
vn -0.000741 0.176229 -0.094566
vn -0.000741 0.176229 -0.094566
vn -0.000741 0.176229 -0.094566
vn -0.000741 0.176229 -0.094566
vn -0.000398 0.094565 0.176231
vn -0.000398 0.094565 0.176231
vn -0.000398 0.094565 0.176231
vn -0.000398 0.094565 0.176231
vn -0.000398 0.094565 0.176231
vn -0.000398 0.094565 0.176231
vn 0.000741 -0.176229 0.094566
vn 0.000741 -0.176229 0.094566
vn 0.000741 -0.176229 0.094566
vn 0.000741 -0.176229 0.094566
vn 0.000741 -0.176229 0.094566
vn 0.000741 -0.176229 0.094566
vn 0.000398 -0.094565 -0.176231
vn 0.000398 -0.094565 -0.176231
vn 0.000398 -0.094565 -0.176231
vn 0.000398 -0.094565 -0.176231
vn 0.000398 -0.094565 -0.176231
vn 0.000398 -0.094565 -0.176231
f 1/1/1 2/2/2 3/3/3
f 4/4/4 5/5/5 6/6/6
f 7/7/7 8/8/8 9/9/9
f 10/10/10 11/11/11 12/12/12
f 13/13/13 14/14/14 15/15/15
f 16/16/16 17/17/17 18/18/18
f 19/19/19 20/20/20 21/21/21
f 22/22/22 23/23/23 24/24/24
f 25/25/25 26/26/26 27/27/27
f 28/28/28 29/29/29 30/30/30
f 31/31/31 32/32/32 33/33/33
f 34/34/34 35/35/35 36/36/36
