# frame 000845 
# time 0.423000 
# name Box 
v 0.719596 0.606602 -0.346138
v 0.718879 0.776977 0.015762
v 0.720401 0.415079 0.186138
v 0.719596 0.606602 -0.346138
v 0.720401 0.415079 0.186138
v 0.721117 0.244705 -0.175762
v 0.319599 0.604921 -0.346138
v 0.321121 0.243023 -0.175762
v 0.320404 0.413398 0.186138
v 0.319599 0.604921 -0.346138
v 0.320404 0.413398 0.186138
v 0.318883 0.775295 0.015762
v 0.719596 0.606602 -0.346138
v 0.319599 0.604921 -0.346138
v 0.318883 0.775295 0.015762
v 0.719596 0.606602 -0.346138
v 0.318883 0.775295 0.015762
v 0.718879 0.776977 0.015762
v 0.718879 0.776977 0.015762
v 0.318883 0.775295 0.015762
v 0.320404 0.413398 0.186138
v 0.718879 0.776977 0.015762
v 0.320404 0.413398 0.186138
v 0.720401 0.415079 0.186138
v 0.720401 0.415079 0.186138
v 0.320404 0.413398 0.186138
v 0.321121 0.243023 -0.175762
v 0.720401 0.415079 0.186138
v 0.321121 0.243023 -0.175762
v 0.721117 0.244705 -0.175762
v 0.319599 0.604921 -0.346138
v 0.719596 0.606602 -0.346138
v 0.721117 0.244705 -0.175762
v 0.319599 0.604921 -0.346138
v 0.721117 0.244705 -0.175762
v 0.321121 0.243023 -0.175762
vn 0.199998 0.000841 0.000000
vn 0.199998 0.000841 0.000000
vn 0.199998 0.000841 0.000000
vn 0.199998 0.000841 0.000000
vn 0.199998 0.000841 0.000000
vn 0.199998 0.000841 0.000000
vn -0.199998 -0.000841 0.000000
vn -0.199998 -0.000841 0.000000
vn -0.199998 -0.000841 0.000000
vn -0.199998 -0.000841 0.000000
vn -0.199998 -0.000841 0.000000
vn -0.199998 -0.000841 0.000000
vn -0.000761 0.180949 -0.085188
vn -0.000761 0.180949 -0.085188
vn -0.000761 0.180949 -0.085188
vn -0.000761 0.180949 -0.085188
vn -0.000761 0.180949 -0.085188
vn -0.000761 0.180949 -0.085188
vn -0.000358 0.085187 0.180950
vn -0.000358 0.085187 0.180950
vn -0.000358 0.085187 0.180950
vn -0.000358 0.085187 0.180950
vn -0.000358 0.085187 0.180950
vn -0.000358 0.085187 0.180950
vn 0.000761 -0.180949 0.085188
vn 0.000761 -0.180949 0.085188
vn 0.000761 -0.180949 0.085188
vn 0.000761 -0.180949 0.085188
vn 0.000761 -0.180949 0.085188
vn 0.000761 -0.180949 0.085188
vn 0.000358 -0.085187 -0.180950
vn 0.000358 -0.085187 -0.180950
vn 0.000358 -0.085187 -0.180950
vn 0.000358 -0.085187 -0.180950
vn 0.000358 -0.085187 -0.180950
vn 0.000358 -0.085187 -0.180950
f 1/1/1 2/2/2 3/3/3
f 4/4/4 5/5/5 6/6/6
f 7/7/7 8/8/8 9/9/9
f 10/10/10 11/11/11 12/12/12
f 13/13/13 14/14/14 15/15/15
f 16/16/16 17/17/17 18/18/18
f 19/19/19 20/20/20 21/21/21
f 22/22/22 23/23/23 24/24/24
f 25/25/25 26/26/26 27/27/27
f 28/28/28 29/29/29 30/30/30
f 31/31/31 32/32/32 33/33/33
f 34/34/34 35/35/35 36/36/36
