# frame 000895 
# time 0.448000 
# name Box 
v 0.719738 0.572675 -0.356001
v 0.718838 0.786839 -0.018165
v 0.720258 0.449007 0.196001
v 0.719738 0.572675 -0.356001
v 0.720258 0.449007 0.196001
v 0.721158 0.234842 -0.141835
v 0.319742 0.570993 -0.356001
v 0.321162 0.233161 -0.141835
v 0.320262 0.447325 0.196001
v 0.319742 0.570993 -0.356001
v 0.320262 0.447325 0.196001
v 0.318842 0.785158 -0.018165
v 0.719738 0.572675 -0.356001
v 0.319742 0.570993 -0.356001
v 0.318842 0.785158 -0.018165
v 0.719738 0.572675 -0.356001
v 0.318842 0.785158 -0.018165
v 0.718838 0.786839 -0.018165
v 0.718838 0.786839 -0.018165
v 0.318842 0.785158 -0.018165
v 0.320262 0.447325 0.196001
v 0.718838 0.786839 -0.018165
v 0.320262 0.447325 0.196001
v 0.720258 0.449007 0.196001
v 0.720258 0.449007 0.196001
v 0.320262 0.447325 0.196001
v 0.321162 0.233161 -0.141835
v 0.720258 0.449007 0.196001
v 0.321162 0.233161 -0.141835
v 0.721158 0.234842 -0.141835
v 0.319742 0.570993 -0.356001
v 0.719738 0.572675 -0.356001
v 0.721158 0.234842 -0.141835
v 0.319742 0.570993 -0.356001
v 0.721158 0.234842 -0.141835
v 0.321162 0.233161 -0.141835
vn 0.199998 0.000841 0.000000
vn 0.199998 0.000841 0.000000
vn 0.199998 0.000841 0.000000
vn 0.199998 0.000841 0.000000
vn 0.199998 0.000841 0.000000
vn 0.199998 0.000841 0.000000
vn -0.199998 -0.000841 0.000000
vn -0.199998 -0.000841 0.000000
vn -0.199998 -0.000841 0.000000
vn -0.199998 -0.000841 0.000000
vn -0.199998 -0.000841 0.000000
vn -0.199998 -0.000841 0.000000
vn -0.000710 0.168916 -0.107083
vn -0.000710 0.168916 -0.107083
vn -0.000710 0.168916 -0.107083
vn -0.000710 0.168916 -0.107083
vn -0.000710 0.168916 -0.107083
vn -0.000710 0.168916 -0.107083
vn -0.000450 0.107082 0.168918
vn -0.000450 0.107082 0.168918
vn -0.000450 0.107082 0.168918
vn -0.000450 0.107082 0.168918
vn -0.000450 0.107082 0.168918
vn -0.000450 0.107082 0.168918
vn 0.000710 -0.168916 0.107083
vn 0.000710 -0.168916 0.107083
vn 0.000710 -0.168916 0.107083
vn 0.000710 -0.168916 0.107083
vn 0.000710 -0.168916 0.107083
vn 0.000710 -0.168916 0.107083
vn 0.000450 -0.107082 -0.168918
vn 0.000450 -0.107082 -0.168918
vn 0.000450 -0.107082 -0.168918
vn 0.000450 -0.107082 -0.168918
vn 0.000450 -0.107082 -0.168918
vn 0.000450 -0.107082 -0.168918
f 1/1/1 2/2/2 3/3/3
f 4/4/4 5/5/5 6/6/6
f 7/7/7 8/8/8 9/9/9
f 10/10/10 11/11/11 12/12/12
f 13/13/13 14/14/14 15/15/15
f 16/16/16 17/17/17 18/18/18
f 19/19/19 20/20/20 21/21/21
f 22/22/22 23/23/23 24/24/24
f 25/25/25 26/26/26 27/27/27
f 28/28/28 29/29/29 30/30/30
f 31/31/31 32/32/32 33/33/33
f 34/34/34 35/35/35 36/36/36
