# frame 000831 
# time 0.416000 
# name Cloth3D 
v -0.000000 0.000000 -0.000000
v 1.000000 0.000000 -0.000000
v -0.000000 1.000000 0.000000
v 1.000000 1.000000 0.000000
v 0.500894 0.492568 0.144652
v -0.000000 0.500000 0.000000
v 0.500000 1.000000 0.000000
v 1.000000 0.500000 0.000000
v 0.500000 -0.000000 0.000000
v 0.250853 0.745147 0.029488
v 0.751959 0.746065 0.040366
v 0.246021 0.249351 0.076662
v 0.756348 0.249263 0.082024
v 0.750000 0.000000 0.000000
v 0.250000 0.000000 0.000000
v 1.000000 0.750000 0.000000
v 1.000000 0.250000 0.000000
v 0.250000 1.000000 0.000000
v 0.750000 1.000000 0.000000
v 0.000000 0.250000 0.000000
v 0.000000 0.750000 -0.000000
v 0.363300 0.220615 0.084864
v 0.000000 0.687500 -0.000000
v 0.237778 0.514051 0.102005
v 0.818068 0.249879 0.062830
v 0.885529 0.373317 0.066875
v 0.626238 0.124881 0.049491
v 0.884555 0.435881 0.066534
v 0.875025 0.126563 0.015741
v 0.375231 0.125480 0.047362
v 0.125341 0.125685 0.017001
v 0.492505 0.249942 0.107063
v 0.879928 0.623199 0.045955
v 0.629978 0.617363 0.091476
v 0.873947 0.872693 -0.005564
v 0.376604 0.869658 0.010610
v 0.257705 0.598174 0.082390
v 0.126496 0.872641 -0.009780
v 0.122444 0.623714 0.039444
v 0.625668 0.872509 0.029856
v 0.119184 0.374462 0.056429
v 0.250359 0.126438 0.032937
v 0.875142 0.746421 0.013939
v 0.879139 0.250222 0.042846
v 0.251850 0.870940 0.002277
v 0.750233 0.872346 0.017863
v 0.122877 0.250133 0.039258
v 0.126059 0.746622 0.009378
v 0.319726 0.591496 0.102000
v 0.587120 0.301693 0.131939
v 0.251651 0.807357 0.012502
v 0.884403 0.498379 0.064940
v 0.437183 0.762824 0.035450
v 0.236035 0.454096 0.117852
v 0.000000 0.375000 0.000000
v 0.500774 0.870691 0.023463
v 0.501401 0.615746 0.091901
v 0.237871 0.371839 0.117984
v 0.120402 0.498986 0.052727
v 0.366605 0.496148 0.143006
v 0.630423 0.248557 0.104631
v 0.500640 0.124911 0.052675
v 0.497270 0.405092 0.182459
v 0.000000 0.625000 0.000000
v 0.000000 0.875000 0.000000
v 0.000000 0.125000 0.000000
v 0.625000 1.000000 0.000000
v 0.875000 1.000000 0.000000
v 0.125000 1.000000 0.000000
v 0.375000 1.000000 0.000000
v 1.000000 0.375000 0.000000
v 1.000000 0.125000 0.000000
v 1.000000 0.875000 0.000000
v 1.000000 0.625000 0.000000
v 0.375000 0.000000 0.000000
v 0.125000 0.000000 0.000000
v 0.875000 0.000000 0.000000
v 0.625000 0.000000 0.000000
v 0.750310 0.126937 0.032305
v 0.635940 0.493571 0.144602
v 0.774885 0.513970 0.115970
v 0.061364 0.312849 0.022245
v 0.177386 0.436405 0.089966
v 0.181511 0.311593 0.073836
v 0.060386 0.437151 0.026615
v 0.687882 0.937295 0.018203
v 0.687980 0.807278 0.028024
v 0.562834 0.935844 0.013999
v 0.061622 0.686727 0.016347
v 0.187802 0.683285 0.032644
v 0.061126 0.561666 0.022152
v 0.188432 0.935784 -0.001409
v 0.188991 0.808698 0.007286
v 0.062769 0.937081 -0.010556
v 0.435501 0.555404 0.117740
v 0.937855 0.748213 0.006654
v 0.508463 0.715818 0.054685
v 0.314172 0.806570 0.019234
v 0.438270 0.934721 0.006620
v 0.936934 0.810580 -0.004472
v 0.811515 0.808089 0.009009
v 0.937378 0.937137 -0.011696
v 0.875996 0.189172 0.026238
v 0.567097 0.554195 0.118475
v 0.720141 0.423118 0.174877
v 0.827564 0.589510 0.073107
v 0.815280 0.683743 0.043755
v 0.941363 0.561338 0.028683
v 0.319284 0.696794 0.056999
v 0.691180 0.579501 0.107864
v 0.431362 0.431901 0.170646
v 0.188073 0.063045 0.012855
v 0.062157 0.062245 0.012162
v 0.185931 0.187172 0.045014
v 0.313013 0.062878 0.020664
v 0.311750 0.189056 0.061847
v 0.437843 0.061902 0.026941
v 0.811856 0.064335 0.007210
v 0.937307 0.062856 0.005137
v -0.000000 0.562500 0.000000
v 0.569439 0.431288 0.171233
v 0.526343 0.797157 0.035292
v 0.564501 0.187099 0.079103
v 0.691064 0.186480 0.070457
v 0.562820 0.062189 0.026445
v 0.939462 0.312512 0.024626
v 0.823746 0.309863 0.086097
v 0.941806 0.436708 0.032246
v 0.313653 0.934971 0.000676
v 0.940423 0.249973 0.023661
v 0.814382 0.189035 0.041853
v 0.817777 0.368628 0.109800
v 0.687614 0.062668 0.021495
v 0.062610 0.125290 0.009572
v 0.938563 0.188056 0.016102
v 0.437144 0.187291 0.078235
v 0.062720 0.188164 0.011845
v 0.381270 0.760499 0.034210
v 0.940438 0.686941 0.022449
v 0.369946 0.316089 0.133848
v 0.063421 0.810826 -0.004225
v 0.812501 0.936182 0.005227
v 0.182781 0.561085 0.069161
v 0.772057 0.646247 0.071270
v 0.320076 0.530724 0.128050
v 0.720380 0.405876 0.182539
v 0.320588 0.404194 0.182541
v 0.719463 0.766570 0.036128
v 0.883013 0.311234 0.057690
v 0.621245 0.405579 0.182481
v 1.000000 0.687500 0.000000
v 0.285494 0.327680 0.127204
v 0.719551 0.607022 0.096096
v 0.724437 0.297678 0.116356
v 0.672538 0.662155 0.072221
v 0.325499 0.275249 0.105782
v 0.279988 0.652909 0.064202
v 0.719408 0.537202 0.125970
v 0.613289 0.764630 0.046353
v 0.320432 0.468554 0.154695
v 0.415587 0.404750 0.182459
v 0.543420 0.348919 0.154692
v 0.777196 0.451478 0.135191
v 0.125175 0.062578 0.010985
v 0.415851 0.256130 0.107844
v 0.427325 0.807615 0.023983
v 0.826954 0.479800 0.100270
v 0.942038 0.374332 0.031717
v 0.719327 0.667357 0.070354
v 0.414456 0.653710 0.075602
v -0.000000 0.937500 0.000000
v 1.000000 0.937500 0.000000
v 0.590135 0.666750 0.071672
v 0.178886 0.373508 0.085406
v 0.456205 0.301370 0.131368
v 0.248256 0.187107 0.056751
v 0.657076 0.299319 0.128242
vt 0.000000 0.000000
vt 1.000000 0.000000
vt 0.000000 1.000000
vt 1.000000 1.000000
vt 0.500000 0.500000
vt 0.000000 0.500000
vt 0.500000 1.000000
vt 1.000000 0.500000
vt 0.500000 0.000000
vt 0.250000 0.750000
vt 0.750000 0.750000
vt 0.250000 0.250000
vt 0.750000 0.250000
vt 0.750000 0.000000
vt 0.250000 0.000000
vt 1.000000 0.750000
vt 1.000000 0.250000
vt 0.250000 1.000000
vt 0.750000 1.000000
vt 0.000000 0.250000
vt 0.000000 0.750000
vt 0.365347 0.220303
vt 0.000000 0.687500
vt 0.245672 0.515386
vt 0.812500 0.250000
vt 0.875000 0.375000
vt 0.625000 0.125000
vt 0.875000 0.437500
vt 0.875000 0.125000
vt 0.375000 0.125000
vt 0.125000 0.125000
vt 0.492214 0.250470
vt 0.875000 0.625000
vt 0.625000 0.625000
vt 0.875000 0.875000
vt 0.375000 0.875000
vt 0.262101 0.599801
vt 0.125000 0.875000
vt 0.125000 0.625000
vt 0.625000 0.875000
vt 0.125000 0.375000
vt 0.250000 0.125000
vt 0.875000 0.750000
vt 0.875000 0.250000
vt 0.250000 0.875000
vt 0.750000 0.875000
vt 0.125000 0.250000
vt 0.125000 0.750000
vt 0.324702 0.593068
vt 0.581754 0.304126
vt 0.250000 0.812500
vt 0.875000 0.500000
vt 0.435664 0.771773
vt 0.248222 0.455442
vt 0.000000 0.375000
vt 0.500000 0.875000
vt 0.500000 0.625000
vt 0.250000 0.375000
vt 0.125000 0.500000
vt 0.375000 0.500000
vt 0.625000 0.250000
vt 0.500000 0.125000
vt 0.497547 0.410458
vt 0.000000 0.625000
vt 0.000000 0.875000
vt 0.000000 0.125000
vt 0.625000 1.000000
vt 0.875000 1.000000
vt 0.125000 1.000000
vt 0.375000 1.000000
vt 1.000000 0.375000
vt 1.000000 0.125000
vt 1.000000 0.875000
vt 1.000000 0.625000
vt 0.375000 0.000000
vt 0.125000 0.000000
vt 0.875000 0.000000
vt 0.625000 0.000000
vt 0.750000 0.125000
vt 0.625000 0.500000
vt 0.760524 0.515669
vt 0.062500 0.312500
vt 0.187500 0.437500
vt 0.187500 0.312500
vt 0.062500 0.437500
vt 0.687500 0.937500
vt 0.687500 0.812500
vt 0.562500 0.937500
vt 0.062500 0.687500
vt 0.187500 0.687500
vt 0.062500 0.562500
vt 0.187500 0.937500
vt 0.187500 0.812500
vt 0.062500 0.937500
vt 0.437500 0.562500
vt 0.937500 0.750000
vt 0.506884 0.725192
vt 0.312500 0.812500
vt 0.437500 0.937500
vt 0.937500 0.812500
vt 0.812500 0.812500
vt 0.937500 0.937500
vt 0.875000 0.187500
vt 0.562500 0.562500
vt 0.696858 0.427979
vt 0.819332 0.591237
vt 0.812500 0.687500
vt 0.937500 0.562500
vt 0.320124 0.701262
vt 0.682510 0.583771
vt 0.437500 0.437500
vt 0.187500 0.062500
vt 0.062500 0.062500
vt 0.187500 0.187500
vt 0.312500 0.062500
vt 0.312500 0.187500
vt 0.437500 0.062500
vt 0.812500 0.062500
vt 0.937500 0.062500
vt 0.000000 0.562500
vt 0.562500 0.437500
vt 0.525016 0.804189
vt 0.562500 0.187500
vt 0.687500 0.187500
vt 0.562500 0.062500
vt 0.937500 0.312500
vt 0.812500 0.312500
vt 0.937500 0.437500
vt 0.312500 0.937500
vt 0.937500 0.250000
vt 0.812500 0.187500
vt 0.800716 0.372483
vt 0.687500 0.062500
vt 0.062500 0.125000
vt 0.937500 0.187500
vt 0.437500 0.187500
vt 0.062500 0.187500
vt 0.380019 0.768564
vt 0.937500 0.687500
vt 0.377625 0.317694
vt 0.062500 0.812500
vt 0.812500 0.937500
vt 0.187500 0.562500
vt 0.765906 0.648544
vt 0.328509 0.531713
vt 0.695391 0.411939
vt 0.340464 0.409035
vt 0.718294 0.771897
vt 0.875000 0.312500
vt 0.608677 0.411290
vt 1.000000 0.687500
vt 0.296906 0.332149
vt 0.711856 0.609985
vt 0.713437 0.300753
vt 0.668274 0.669022
vt 0.331126 0.276226
vt 0.281585 0.657008
vt 0.706636 0.538865
vt 0.611736 0.771102
vt 0.334079 0.470524
vt 0.423762 0.409782
vt 0.539693 0.352058
vt 0.758105 0.454518
vt 0.125000 0.062500
vt 0.418341 0.256674
vt 0.425703 0.815414
vt 0.812755 0.481587
vt 0.937500 0.375000
vt 0.714523 0.671703
vt 0.414679 0.661630
vt 0.000000 0.937500
vt 1.000000 0.937500
vt 0.587160 0.675778
vt 0.187500 0.375000
vt 0.458173 0.302976
vt 0.250000 0.187500
vt 0.647595 0.302440
vn -0.096517 -0.096517 0.990641
vn 0.041467 -0.041467 0.998279
vn 0.108874 -0.054437 0.992564
vn -0.124885 -0.062443 0.990204
vn -0.001784 0.392247 0.919858
vn -0.376884 0.013509 0.926162
vn -0.030842 0.153258 0.987705
vn 0.460152 0.013880 0.887731
vn 0.000450 -0.398290 0.917260
vn -0.138317 0.265098 0.954249
vn 0.125107 0.336826 0.933218
vn -0.208704 -0.341233 0.916516
vn 0.278307 -0.387351 0.878922
vn 0.056293 -0.231644 0.971171
vn -0.030994 -0.251647 0.967323
vn 0.146341 0.124446 0.981375
vn 0.345634 -0.046126 0.937235
vn -0.007938 -0.003893 0.999961
vn 0.051066 0.177972 0.982710
vn -0.266709 -0.039956 0.962949
vn -0.128718 0.065803 0.989496
vn -0.120600 -0.415109 0.901743
vn -0.258881 0.000000 0.965909
vn -0.384239 0.254511 0.887460
vn 0.282740 -0.343166 0.895709
vn 0.511216 -0.079264 0.855789
vn 0.042989 -0.384654 0.922059
vn 0.515208 0.021047 0.856807
vn 0.125089 -0.163766 0.978536
vn -0.083840 -0.356906 0.930370
vn -0.103516 -0.106676 0.988891
vn -0.013870 -0.421925 0.906525
vn 0.290297 0.198918 0.936034
vn 0.002708 0.387636 0.921809
vn 0.114490 0.048892 0.992221
vn -0.041630 0.147482 0.988188
vn -0.261656 0.343734 0.901877
vn -0.055204 0.052499 0.997094
vn -0.238126 0.167880 0.956615
vn 0.024760 0.148003 0.988677
vn -0.443884 -0.089141 0.891640
vn -0.107636 -0.312718 0.943728
vn 0.130172 0.222727 0.966151
vn 0.291657 -0.257273 0.921275
vn -0.080538 0.117871 0.989758
vn 0.136351 0.081054 0.987339
vn -0.327975 -0.154200 0.932017
vn -0.105908 0.186160 0.976795
vn -0.155444 0.388182 0.908379
vn 0.019774 -0.434816 0.900302
vn -0.084710 0.213297 0.973308
vn 0.489549 0.075572 0.868695
vn -0.051358 0.273847 0.960401
vn -0.468538 0.161949 0.868473
vn -0.373502 -0.017370 0.927467
vn -0.081257 0.158000 0.984090
vn -0.002495 0.376562 0.926388
vn -0.483913 -0.160776 0.860221
vn -0.406795 0.102466 0.907754
vn -0.002213 0.391549 0.920154
vn 0.068141 -0.431304 0.899630
vn -0.005570 -0.383321 0.923598
vn -0.001590 0.046810 0.998903
vn -0.301618 0.014342 0.953321
vn 0.123858 0.019787 0.992103
vn -0.169370 0.000339 0.985552
vn -0.016415 0.243964 0.969645
vn 0.066611 -0.054229 0.996304
vn -0.036053 -0.091459 0.995156
vn -0.020786 0.065700 0.997623
vn 0.460624 -0.041058 0.886645
vn 0.164104 -0.041295 0.985578
vn -0.141465 0.022945 0.989677
vn 0.386282 0.018187 0.922202
vn -0.024575 -0.354837 0.934605
vn -0.000499 -0.179983 0.983670
vn 0.006536 -0.095611 0.995397
vn 0.019500 -0.362786 0.931668
vn 0.170443 -0.313782 0.934072
vn -0.001430 0.392189 0.919884
vn 0.354416 0.289978 0.888989
vn -0.369535 -0.063041 0.927076
vn -0.449081 0.038090 0.892679
vn -0.396878 -0.209269 0.893697
vn -0.426983 -0.000261 0.904260
vn 0.041581 0.182387 0.982347
vn 0.068537 0.172890 0.982554
vn -0.037983 0.201480 0.978756
vn -0.203064 0.091557 0.974876
vn -0.178672 0.256628 0.949852
vn -0.349140 0.042469 0.936108
vn -0.045843 -0.028015 0.998556
vn -0.103830 0.189312 0.976412
vn 0.065488 -0.038042 0.997128
vn -0.001338 0.391351 0.920241
vn 0.100229 0.214966 0.971465
vn -0.035891 0.297156 0.954154
vn -0.076952 0.226287 0.971016
vn -0.044500 0.124367 0.991238
vn 0.042854 0.112657 0.992709
vn 0.169039 0.160878 0.972391
vn -0.057506 -0.035836 0.997702
vn 0.203967 -0.224079 0.952988
vn -0.001954 0.391700 0.920091
vn 0.209045 0.394855 0.894645
vn 0.321426 0.259439 0.910701
vn 0.254956 0.299011 0.919560
vn 0.421458 0.056723 0.905072
vn -0.115252 0.340003 0.933335
vn -0.000715 0.391810 0.920046
vn -0.001721 0.395917 0.918285
vn -0.044598 -0.184290 0.981860
vn -0.072750 -0.067228 0.995082
vn -0.201745 -0.278517 0.939003
vn -0.056870 -0.304493 0.950815
vn -0.121379 -0.369732 0.921176
vn -0.023215 -0.373476 0.927349
vn 0.071417 -0.184445 0.980245
vn 0.053946 -0.071362 0.995991
vn -0.341604 0.000000 0.939844
vn -0.002147 0.394235 0.919007
vn -0.069281 0.190492 0.979241
vn 0.015328 -0.409505 0.912179
vn 0.150992 -0.393030 0.907044
vn 0.017105 -0.380501 0.924622
vn 0.466979 -0.059058 0.882294
vn 0.377224 -0.303626 0.874936
vn 0.499002 0.008210 0.866562
vn -0.037634 0.062485 0.997336
vn 0.357156 -0.098075 0.928881
vn 0.230265 -0.298159 0.926325
vn 0.496363 -0.185257 0.848118
vn 0.065019 -0.328259 0.942347
vn -0.138200 0.000084 0.990404
vn 0.222504 -0.129358 0.966312
vn -0.054514 -0.403558 0.913329
vn -0.206353 -0.064473 0.976351
vn -0.023295 0.286886 0.957681
vn 0.229631 0.137126 0.963569
vn -0.091720 -0.469291 0.878267
vn 0.001570 0.091138 0.995837
vn 0.106972 0.045152 0.993236
vn -0.325447 0.211688 0.921560
vn 0.216268 0.325699 0.920407
vn -0.148057 0.376887 0.914349
vn 0.217461 0.281372 0.934634
vn -0.246283 -0.011167 0.969134
vn 0.078676 0.285508 0.955141
vn 0.438696 -0.169509 0.882503
vn 0.001658 0.081026 0.996711
vn 0.353158 0.000000 0.935564
vn -0.288034 -0.417723 0.861710
vn 0.078820 0.378273 0.922332
vn 0.239788 -0.445032 0.862814
vn 0.005647 0.360779 0.932634
vn -0.140706 -0.454048 0.879797
vn -0.216904 0.354971 0.909367
vn 0.153547 0.376198 0.913728
vn 0.026811 0.219119 0.975330
vn -0.168499 0.378568 0.910107
vn -0.003772 0.167870 0.985802
vn -0.001446 -0.436175 0.899861
vn 0.477470 0.209221 0.853375
vn -0.001233 -0.137764 0.990464
vn -0.066960 -0.429022 0.900809
vn -0.052588 0.213562 0.975513
vn 0.483099 0.148470 0.862886
vn 0.503831 -0.063423 0.861471
vn 0.059075 0.360651 0.930828
vn -0.012064 0.371609 0.928311
vn 0.162466 0.000000 0.986714
vn -0.186109 0.000000 0.982529
vn -0.001020 0.331123 0.943587
vn -0.455951 -0.124197 0.881297
vn -0.024190 -0.433297 0.900927
vn -0.122839 -0.335293 0.934071
vn 0.084285 -0.465294 0.881134
f 129/129/129 36/36/36 70/70/70
f 134/134/134 137/137/137 66/66/66
f 99/99/99 70/70/70 36/36/36
f 76/76/76 164/164/164 113/113/113
f 147/147/147 140/140/140 161/161/161
f 101/101/101 43/43/43 35/35/35
f 29/29/29 131/131/131 118/118/118
f 103/103/103 25/25/25 131/131/131
f 84/84/84 174/174/174 41/41/41
f 170/170/170 138/138/138 109/109/109
f 2/2/2 72/72/72 119/119/119
f 31/31/31 137/137/137 134/134/134
f 162/162/162 63/63/63 175/175/175
f 115/115/115 112/112/112 15/15/15
f 12/12/12 114/114/114 176/176/176
f 170/170/170 53/53/53 138/138/138
f 164/164/164 112/112/112 31/31/31
f 100/100/100 35/35/35 43/43/43
f 76/76/76 113/113/113 1/1/1
f 76/76/76 112/112/112 164/164/164
f 76/76/76 15/15/15 112/112/112
f 117/117/117 115/115/115 75/75/75
f 75/75/75 115/115/115 15/15/15
f 175/175/175 32/32/32 162/162/162
f 125/125/125 62/62/62 117/117/117
f 116/116/116 22/22/22 156/156/156
f 30/30/30 115/115/115 117/117/117
f 32/32/32 165/165/165 136/136/136
f 165/165/165 22/22/22 136/136/136
f 176/176/176 42/42/42 116/116/116
f 22/22/22 30/30/30 136/136/136
f 176/176/176 114/114/114 42/42/42
f 116/116/116 30/30/30 22/22/22
f 42/42/42 112/112/112 115/115/115
f 79/79/79 118/118/118 131/131/131
f 12/12/12 116/116/116 156/156/156
f 12/12/12 176/176/176 116/116/116
f 152/152/152 12/12/12 156/156/156
f 174/174/174 58/58/58 83/83/83
f 140/140/140 165/165/165 175/175/175
f 166/166/166 138/138/138 53/53/53
f 168/168/168 71/71/71 128/128/128
f 174/174/174 83/83/83 41/41/41
f 175/175/175 165/165/165 32/32/32
f 165/165/165 156/156/156 22/22/22
f 63/63/63 161/161/161 175/175/175
f 161/161/161 140/140/140 175/175/175
f 140/140/140 156/156/156 165/165/165
f 147/147/147 111/111/111 160/160/160
f 140/140/140 152/152/152 156/156/156
f 162/162/162 50/50/50 150/150/150
f 54/54/54 58/58/58 147/147/147
f 77/77/77 2/2/2 119/119/119
f 95/95/95 170/170/170 49/49/49
f 111/111/111 161/161/161 63/63/63
f 111/111/111 5/5/5 60/60/60
f 54/54/54 147/147/147 160/160/160
f 147/147/147 152/152/152 140/140/140
f 147/147/147 161/161/161 111/111/111
f 84/84/84 152/152/152 58/58/58
f 58/58/58 152/152/152 147/147/147
f 38/38/38 94/94/94 141/141/141
f 54/54/54 83/83/83 58/58/58
f 85/85/85 41/41/41 83/83/83
f 82/82/82 137/137/137 47/47/47
f 84/84/84 12/12/12 152/152/152
f 84/84/84 58/58/58 174/174/174
f 49/49/49 170/170/170 109/109/109
f 49/49/49 109/109/109 157/157/157
f 47/47/47 84/84/84 41/41/41
f 82/82/82 47/47/47 41/41/41
f 128/128/128 71/71/71 8/8/8
f 20/20/20 137/137/137 82/82/82
f 20/20/20 66/66/66 137/137/137
f 55/55/55 20/20/20 82/82/82
f 157/157/157 10/10/10 90/90/90
f 37/37/37 90/90/90 143/143/143
f 64/64/64 39/39/39 89/89/89
f 134/134/134 113/113/113 31/31/31
f 136/136/136 30/30/30 62/62/62
f 24/24/24 59/59/59 83/83/83
f 92/92/92 18/18/18 69/69/69
f 164/164/164 31/31/31 113/113/113
f 38/38/38 92/92/92 94/94/94
f 95/95/95 60/60/60 5/5/5
f 98/98/98 138/138/138 36/36/36
f 122/122/122 53/53/53 97/97/97
f 135/135/135 44/44/44 103/103/103
f 88/88/88 99/99/99 56/56/56
f 45/45/45 51/51/51 98/98/98
f 109/109/109 98/98/98 10/10/10
f 41/41/41 85/85/85 82/82/82
f 166/166/166 36/36/36 138/138/138
f 130/130/130 17/17/17 126/126/126
f 51/51/51 10/10/10 98/98/98
f 126/126/126 17/17/17 71/71/71
f 143/143/143 90/90/90 39/39/39
f 38/38/38 45/45/45 92/92/92
f 93/93/93 45/45/45 38/38/38
f 114/114/114 47/47/47 31/31/31
f 137/137/137 31/31/31 47/47/47
f 129/129/129 70/70/70 18/18/18
f 69/69/69 94/94/94 92/92/92
f 94/94/94 69/69/69 3/3/3
f 48/48/48 38/38/38 141/141/141
f 171/171/171 94/94/94 3/3/3
f 65/65/65 94/94/94 171/171/171
f 21/21/21 141/141/141 65/65/65
f 21/21/21 89/89/89 141/141/141
f 48/48/48 141/141/141 89/89/89
f 117/117/117 62/62/62 30/30/30
f 23/23/23 89/89/89 21/21/21
f 90/90/90 48/48/48 89/89/89
f 93/93/93 10/10/10 51/51/51
f 93/93/93 51/51/51 45/45/45
f 93/93/93 38/38/38 48/48/48
f 39/39/39 90/90/90 89/89/89
f 37/37/37 24/24/24 145/145/145
f 64/64/64 89/89/89 23/23/23
f 59/59/59 85/85/85 83/83/83
f 37/37/37 145/145/145 49/49/49
f 65/65/65 141/141/141 94/94/94
f 120/120/120 91/91/91 64/64/64
f 6/6/6 91/91/91 120/120/120
f 18/18/18 92/92/92 129/129/129
f 91/91/91 39/39/39 64/64/64
f 45/45/45 129/129/129 92/92/92
f 6/6/6 55/55/55 85/85/85
f 24/24/24 83/83/83 54/54/54
f 48/48/48 90/90/90 93/93/93
f 10/10/10 93/93/93 90/90/90
f 24/24/24 143/143/143 59/59/59
f 24/24/24 54/54/54 160/160/160
f 145/145/145 24/24/24 160/160/160
f 60/60/60 95/95/95 145/145/145
f 60/60/60 145/145/145 160/160/160
f 135/135/135 72/72/72 17/17/17
f 37/37/37 49/49/49 157/157/157
f 37/37/37 157/157/157 90/90/90
f 37/37/37 143/143/143 24/24/24
f 109/109/109 138/138/138 98/98/98
f 109/109/109 10/10/10 157/157/157
f 135/135/135 130/130/130 44/44/44
f 139/139/139 43/43/43 33/33/33
f 135/135/135 103/103/103 29/29/29
f 77/77/77 119/119/119 118/118/118
f 116/116/116 42/42/42 30/30/30
f 107/107/107 33/33/33 43/43/43
f 95/95/95 49/49/49 145/145/145
f 170/170/170 97/97/97 53/53/53
f 5/5/5 111/111/111 63/63/63
f 57/57/57 95/95/95 104/104/104
f 60/60/60 160/160/160 111/111/111
f 131/131/131 13/13/13 79/79/79
f 121/121/121 5/5/5 63/63/63
f 104/104/104 95/95/95 5/5/5
f 105/105/105 158/158/158 80/80/80
f 85/85/85 59/59/59 6/6/6
f 158/158/158 153/153/153 110/110/110
f 57/57/57 97/97/97 170/170/170
f 57/57/57 170/170/170 95/95/95
f 9/9/9 125/125/125 117/117/117
f 115/115/115 30/30/30 42/42/42
f 150/150/150 121/121/121 63/63/63
f 40/40/40 46/46/46 86/86/86
f 79/79/79 13/13/13 124/124/124
f 159/159/159 155/155/155 148/148/148
f 155/155/155 173/173/173 34/34/34
f 173/173/173 97/97/97 57/57/57
f 91/91/91 6/6/6 59/59/59
f 96/96/96 43/43/43 139/139/139
f 153/153/153 169/169/169 155/155/155
f 16/16/16 96/96/96 139/139/139
f 122/122/122 159/159/159 40/40/40
f 107/107/107 106/106/106 33/33/33
f 148/148/148 169/169/169 11/11/11
f 110/110/110 34/34/34 104/104/104
f 106/106/106 153/153/153 81/81/81
f 80/80/80 104/104/104 5/5/5
f 80/80/80 110/110/110 104/104/104
f 8/8/8 108/108/108 128/128/128
f 154/154/154 132/132/132 146/146/146
f 81/81/81 153/153/153 158/158/158
f 158/158/158 110/110/110 80/80/80
f 132/132/132 26/26/26 28/28/28
f 167/167/167 106/106/106 81/81/81
f 33/33/33 106/106/106 52/52/52
f 11/11/11 144/144/144 107/107/107
f 126/126/126 26/26/26 149/149/149
f 33/33/33 52/52/52 108/108/108
f 19/19/19 86/86/86 142/142/142
f 45/45/45 98/98/98 129/129/129
f 149/149/149 127/127/127 44/44/44
f 101/101/101 11/11/11 107/107/107
f 39/39/39 91/91/91 143/143/143
f 144/144/144 169/169/169 153/153/153
f 144/144/144 153/153/153 106/106/106
f 144/144/144 106/106/106 107/107/107
f 159/159/159 148/148/148 87/87/87
f 11/11/11 169/169/169 144/144/144
f 43/43/43 101/101/101 107/107/107
f 36/36/36 129/129/129 98/98/98
f 173/173/173 57/57/57 34/34/34
f 56/56/56 99/99/99 166/166/166
f 46/46/46 142/142/142 86/86/86
f 36/36/36 166/166/166 99/99/99
f 59/59/59 143/143/143 91/91/91
f 104/104/104 34/34/34 57/57/57
f 102/102/102 35/35/35 100/100/100
f 102/102/102 142/142/142 35/35/35
f 68/68/68 142/142/142 102/102/102
f 7/7/7 99/99/99 88/88/88
f 148/148/148 101/101/101 46/46/46
f 72/72/72 135/135/135 119/119/119
f 88/88/88 40/40/40 86/86/86
f 56/56/56 166/166/166 122/122/122
f 122/122/122 97/97/97 159/159/159
f 159/159/159 87/87/87 40/40/40
f 148/148/148 46/46/46 87/87/87
f 87/87/87 46/46/46 40/40/40
f 148/148/148 155/155/155 169/169/169
f 148/148/148 11/11/11 101/101/101
f 159/159/159 97/97/97 173/173/173
f 159/159/159 173/173/173 155/155/155
f 56/56/56 122/122/122 40/40/40
f 122/122/122 166/166/166 53/53/53
f 88/88/88 56/56/56 40/40/40
f 55/55/55 82/82/82 85/85/85
f 67/67/67 86/86/86 19/19/19
f 67/67/67 88/88/88 86/86/86
f 7/7/7 70/70/70 99/99/99
f 67/67/67 7/7/7 88/88/88
f 68/68/68 19/19/19 142/142/142
f 73/73/73 102/102/102 100/100/100
f 4/4/4 68/68/68 102/102/102
f 172/172/172 4/4/4 102/102/102
f 73/73/73 172/172/172 102/102/102
f 16/16/16 73/73/73 100/100/100
f 151/151/151 16/16/16 139/139/139
f 74/74/74 151/151/151 139/139/139
f 8/8/8 74/74/74 108/108/108
f 131/131/131 25/25/25 13/13/13
f 103/103/103 131/131/131 29/29/29
f 27/27/27 124/124/124 61/61/61
f 110/110/110 153/153/153 34/34/34
f 27/27/27 125/125/125 133/133/133
f 28/28/28 128/128/128 52/52/52
f 126/126/126 168/168/168 26/26/26
f 118/118/118 79/79/79 14/14/14
f 133/133/133 14/14/14 79/79/79
f 25/25/25 44/44/44 127/127/127
f 78/78/78 133/133/133 125/125/125
f 126/126/126 71/71/71 168/168/168
f 167/167/167 28/28/28 52/52/52
f 74/74/74 139/139/139 108/108/108
f 132/132/132 127/127/127 26/26/26
f 105/105/105 146/146/146 163/163/163
f 96/96/96 16/16/16 100/100/100
f 33/33/33 108/108/108 139/139/139
f 155/155/155 34/34/34 153/153/153
f 63/63/63 162/162/162 150/150/150
f 142/142/142 46/46/46 35/35/35
f 135/135/135 17/17/17 130/130/130
f 101/101/101 35/35/35 46/46/46
f 77/77/77 118/118/118 14/14/14
f 154/154/154 127/127/127 132/132/132
f 127/127/127 149/149/149 26/26/26
f 13/13/13 25/25/25 127/127/127
f 12/12/12 84/84/84 114/114/114
f 123/123/123 50/50/50 32/32/32
f 123/123/123 27/27/27 61/61/61
f 167/167/167 132/132/132 28/28/28
f 163/163/163 132/132/132 167/167/167
f 167/167/167 52/52/52 106/106/106
f 163/163/163 167/167/167 81/81/81
f 163/163/163 81/81/81 158/158/158
f 150/150/150 105/105/105 80/80/80
f 124/124/124 154/154/154 61/61/61
f 146/146/146 132/132/132 163/163/163
f 105/105/105 163/163/163 158/158/158
f 150/150/150 80/80/80 121/121/121
f 121/121/121 80/80/80 5/5/5
f 52/52/52 128/128/128 108/108/108
f 177/177/177 150/150/150 50/50/50
f 150/150/150 146/146/146 105/105/105
f 119/119/119 29/29/29 118/118/118
f 154/154/154 177/177/177 61/61/61
f 62/62/62 27/27/27 123/123/123
f 177/177/177 146/146/146 150/150/150
f 177/177/177 50/50/50 61/61/61
f 154/154/154 13/13/13 127/127/127
f 154/154/154 146/146/146 177/177/177
f 47/47/47 114/114/114 84/84/84
f 124/124/124 13/13/13 154/154/154
f 125/125/125 27/27/27 62/62/62
f 133/133/133 78/78/78 14/14/14
f 123/123/123 61/61/61 50/50/50
f 123/123/123 32/32/32 136/136/136
f 62/62/62 123/123/123 136/136/136
f 50/50/50 162/162/162 32/32/32
f 9/9/9 117/117/117 75/75/75
f 114/114/114 31/31/31 42/42/42
f 78/78/78 125/125/125 9/9/9
f 112/112/112 42/42/42 31/31/31
f 28/28/28 26/26/26 128/128/128
f 133/133/133 124/124/124 27/27/27
f 103/103/103 44/44/44 25/25/25
f 44/44/44 130/130/130 149/149/149
f 79/79/79 124/124/124 133/133/133
f 168/168/168 128/128/128 26/26/26
f 43/43/43 96/96/96 100/100/100
f 29/29/29 119/119/119 135/135/135
f 126/126/126 149/149/149 130/130/130
f 1/1/1 113/113/113 66/66/66
f 134/134/134 66/66/66 113/113/113
