# frame 000944 
# time 0.472500 
# name Cloth3D 
v -0.000000 0.000000 -0.000000
v 1.000000 0.000000 -0.000000
v -0.000000 1.000000 0.000000
v 1.000000 1.000000 0.000000
v 0.654796 0.410043 0.167110
v -0.000000 0.500000 0.000000
v 0.500000 1.000000 0.000000
v 1.000000 0.500000 0.000000
v 0.500000 -0.000000 0.000000
v 0.243538 0.755236 0.091429
v 0.756797 0.752804 0.085606
v 0.246321 0.249251 0.079714
v 0.754353 0.251016 0.074552
v 0.750000 0.000000 0.000000
v 0.250000 0.000000 0.000000
v 1.000000 0.750000 0.000000
v 1.000000 0.250000 0.000000
v 0.250000 1.000000 0.000000
v 0.750000 1.000000 0.000000
v 0.000000 0.250000 0.000000
v 0.000000 0.750000 -0.000000
v 0.363962 0.219606 0.085341
v 0.874267 0.063879 0.002420
v 0.231412 0.515725 0.134958
v 0.815690 0.251948 0.055873
v 0.882732 0.375934 0.061815
v 0.626234 0.122760 0.052983
v 0.886048 0.438014 0.070888
v 0.874379 0.126716 0.014403
v 0.375014 0.124953 0.047941
v 0.122645 0.123159 0.033986
v 0.493531 0.248569 0.107139
v 0.886801 0.625816 0.070013
v 0.634365 0.624083 0.143769
v 0.876912 0.876526 0.028233
v 0.374055 0.876219 0.050164
v 0.250868 0.602300 0.128322
v 0.121678 0.877989 0.036300
v 0.122031 0.625508 0.055652
v 0.626105 0.876304 0.050426
v 0.118423 0.374976 0.062499
v 0.249289 0.124480 0.040925
v 0.878997 0.750189 0.044944
v 0.877871 0.251268 0.040119
v 0.247669 0.879641 0.051744
v 0.751623 0.876548 0.042820
v 0.120197 0.249288 0.050289
v 0.120636 0.751910 0.050240
v 0.313926 0.595574 0.153193
v 0.587156 0.302953 0.126508
v 0.749175 0.364537 0.123326
v 0.887790 0.500157 0.075186
v 0.434711 0.773051 0.092745
v 0.232522 0.454427 0.138127
v 0.000000 0.375000 0.000000
v 0.500250 0.874227 0.047714
v 0.501148 0.623447 0.147488
v 0.240786 0.374246 0.115614
v 0.118735 0.500139 0.065718
v 0.523303 0.410904 0.171881
v 0.629545 0.248431 0.101392
v 0.500597 0.122665 0.056310
v 0.498269 0.482429 0.201260
v 0.000000 0.625000 0.000000
v 0.000000 0.875000 0.000000
v 0.000000 0.125000 0.000000
v 0.625000 1.000000 0.000000
v 0.875000 1.000000 0.000000
v 0.125000 1.000000 0.000000
v 0.375000 1.000000 0.000000
v 1.000000 0.375000 0.000000
v 1.000000 0.125000 0.000000
v 1.000000 0.875000 0.000000
v 1.000000 0.625000 0.000000
v 0.375000 0.000000 0.000000
v 0.125000 0.000000 0.000000
v 0.875000 0.000000 0.000000
v 0.625000 0.000000 0.000000
v 0.750459 0.125839 0.035113
v 0.638140 0.560686 0.168208
v 0.784443 0.515644 0.147589
v 0.058336 0.312495 0.031273
v 0.175210 0.436992 0.103142
v 0.180575 0.311642 0.080922
v 0.058928 0.437682 0.033170
v 0.687928 0.938440 0.024119
v 0.690648 0.814101 0.069492
v 0.562726 0.937307 0.023966
v 0.061809 0.687740 0.024154
v 0.180061 0.690412 0.083267
v 0.060574 0.562532 0.029869
v 0.186466 0.939645 0.023193
v 0.182535 0.817084 0.062530
v 0.061531 0.938402 0.012271
v 0.432846 0.560515 0.170219
v 0.682876 0.357827 0.137425
v 0.507989 0.725952 0.112318
v 0.309521 0.816684 0.076372
v 0.437410 0.937003 0.023182
v 0.938063 0.812421 0.016299
v 0.816397 0.814597 0.054186
v 0.937203 0.937215 0.001937
v 0.876016 0.188737 0.028101
v 0.569791 0.560113 0.169618
v 0.943236 0.625177 0.034689
v 0.834234 0.591795 0.099609
v 0.820946 0.688112 0.079777
v 0.944509 0.562598 0.037927
v 0.312704 0.704926 0.115993
v 0.697698 0.583127 0.152517
v 0.886945 0.562797 0.072401
v 0.187152 0.061888 0.019285
v 0.061996 0.061959 0.010887
v 0.184685 0.186370 0.053219
v 0.312566 0.061815 0.023977
v 0.310917 0.185837 0.070815
v 0.437684 0.061166 0.028075
v 0.812004 0.063616 0.010353
v 0.936946 0.063158 0.001629
v -0.000000 0.937500 0.000000
v 0.937500 1.000000 0.000000
v 0.525886 0.804684 0.078960
v 0.564515 0.184358 0.083221
v 0.689691 0.187674 0.065475
v 0.562764 0.061390 0.027545
v 0.940372 0.313314 0.026684
v 0.818653 0.314209 0.073568
v 0.941464 0.438141 0.032815
v 0.311975 0.939180 0.026323
v 0.937500 0.000000 -0.000000
v 0.813060 0.190101 0.036941
v 0.811314 0.373275 0.095531
v 0.687462 0.062609 0.021310
v 0.395012 0.374709 0.154431
v 0.937217 0.188670 0.011277
v 0.437559 0.185926 0.079146
v 0.060237 0.187043 0.023076
v 0.377566 0.771219 0.094314
v 0.942743 0.687672 0.032035
v 0.373612 0.316366 0.127613
v 0.058953 0.813541 0.026630
v 0.813271 0.939433 0.022093
v 0.178215 0.563281 0.096750
v 0.776899 0.648865 0.104725
v 0.315394 0.533187 0.176751
v 0.720055 0.483233 0.201382
v 0.320263 0.481552 0.201384
v 0.723483 0.774159 0.082064
v 0.880964 0.313151 0.053504
v 0.623640 0.482928 0.201292
v 0.179483 0.374823 0.089034
v 0.289991 0.330823 0.118087
v 0.725507 0.606900 0.134621
v 0.721035 0.301182 0.102904
v 0.677007 0.669727 0.124082
v 0.327311 0.274620 0.105112
v 0.271795 0.661375 0.124491
v 0.501281 0.559955 0.168996
v 0.614828 0.771538 0.089187
v 0.603685 0.365947 0.149472
v 0.415021 0.482080 0.201259
v 0.732588 0.421846 0.154389
v 0.779931 0.453212 0.144005
v 0.124181 0.061290 0.017837
v 0.417443 0.256132 0.103812
v 0.310000 0.386737 0.147887
v 0.832938 0.481068 0.116566
v 0.478034 0.360625 0.151511
v 0.180099 0.626610 0.088675
v 0.411311 0.660773 0.130518
v 0.882820 0.688161 0.057962
v 1.000000 0.937500 0.000000
v 0.592406 0.674922 0.125834
v 0.447164 0.417980 0.173885
v 0.359143 0.426499 0.176159
vt 0.000000 0.000000
vt 1.000000 0.000000
vt 0.000000 1.000000
vt 1.000000 1.000000
vt 0.639940 0.411013
vt 0.000000 0.500000
vt 0.500000 1.000000
vt 1.000000 0.500000
vt 0.500000 0.000000
vt 0.250000 0.750000
vt 0.750000 0.750000
vt 0.250000 0.250000
vt 0.750000 0.250000
vt 0.750000 0.000000
vt 0.250000 0.000000
vt 1.000000 0.750000
vt 1.000000 0.250000
vt 0.250000 1.000000
vt 0.750000 1.000000
vt 0.000000 0.250000
vt 0.000000 0.750000
vt 0.365347 0.220303
vt 0.875000 0.062500
vt 0.245672 0.515386
vt 0.812500 0.250000
vt 0.875000 0.375000
vt 0.625000 0.125000
vt 0.875000 0.437500
vt 0.875000 0.125000
vt 0.375000 0.125000
vt 0.125000 0.125000
vt 0.492214 0.250470
vt 0.875000 0.625000
vt 0.625000 0.625000
vt 0.875000 0.875000
vt 0.375000 0.875000
vt 0.262101 0.599801
vt 0.125000 0.875000
vt 0.125000 0.625000
vt 0.625000 0.875000
vt 0.125000 0.375000
vt 0.250000 0.125000
vt 0.875000 0.750000
vt 0.875000 0.250000
vt 0.250000 0.875000
vt 0.750000 0.875000
vt 0.125000 0.250000
vt 0.125000 0.750000
vt 0.325445 0.593646
vt 0.581754 0.304126
vt 0.736041 0.365469
vt 0.875000 0.500000
vt 0.435664 0.771773
vt 0.248222 0.455442
vt 0.000000 0.375000
vt 0.500000 0.875000
vt 0.500000 0.625000
vt 0.250000 0.375000
vt 0.125000 0.500000
vt 0.519707 0.411902
vt 0.625000 0.250000
vt 0.500000 0.125000
vt 0.497202 0.484291
vt 0.000000 0.625000
vt 0.000000 0.875000
vt 0.000000 0.125000
vt 0.625000 1.000000
vt 0.875000 1.000000
vt 0.125000 1.000000
vt 0.375000 1.000000
vt 1.000000 0.375000
vt 1.000000 0.125000
vt 1.000000 0.875000
vt 1.000000 0.625000
vt 0.375000 0.000000
vt 0.125000 0.000000
vt 0.875000 0.000000
vt 0.625000 0.000000
vt 0.750000 0.125000
vt 0.625000 0.562500
vt 0.760524 0.515669
vt 0.062500 0.312500
vt 0.187500 0.437500
vt 0.187500 0.312500
vt 0.062500 0.437500
vt 0.687500 0.937500
vt 0.687500 0.812500
vt 0.562500 0.937500
vt 0.062500 0.687500
vt 0.187500 0.687500
vt 0.062500 0.562500
vt 0.187500 0.937500
vt 0.187500 0.812500
vt 0.062500 0.937500
vt 0.437500 0.562500
vt 0.671367 0.358455
vt 0.506884 0.725192
vt 0.312500 0.812500
vt 0.437500 0.937500
vt 0.937500 0.812500
vt 0.812500 0.812500
vt 0.937500 0.937500
vt 0.875000 0.187500
vt 0.562500 0.562500
vt 0.937500 0.625000
vt 0.819332 0.591237
vt 0.812500 0.687500
vt 0.937500 0.562500
vt 0.319123 0.700934
vt 0.682510 0.583771
vt 0.875000 0.562500
vt 0.187500 0.062500
vt 0.062500 0.062500
vt 0.187500 0.187500
vt 0.312500 0.062500
vt 0.312500 0.187500
vt 0.437500 0.062500
vt 0.812500 0.062500
vt 0.937500 0.062500
vt 0.000000 0.937500
vt 0.937500 1.000000
vt 0.525016 0.804189
vt 0.562500 0.187500
vt 0.687500 0.187500
vt 0.562500 0.062500
vt 0.937500 0.312500
vt 0.812500 0.312500
vt 0.937500 0.437500
vt 0.312500 0.937500
vt 0.937500 0.000000
vt 0.812500 0.187500
vt 0.800716 0.372483
vt 0.687500 0.062500
vt 0.400647 0.375957
vt 0.937500 0.187500
vt 0.437500 0.187500
vt 0.062500 0.187500
vt 0.380019 0.768564
vt 0.937500 0.687500
vt 0.377625 0.317694
vt 0.062500 0.812500
vt 0.812500 0.937500
vt 0.187500 0.562500
vt 0.765906 0.648544
vt 0.331404 0.533038
vt 0.690135 0.484878
vt 0.341288 0.483080
vt 0.718294 0.771897
vt 0.875000 0.312500
vt 0.608489 0.484645
vt 0.187500 0.375000
vt 0.296906 0.332149
vt 0.711873 0.607167
vt 0.713437 0.300753
vt 0.668274 0.669022
vt 0.331126 0.276226
vt 0.281585 0.657008
vt 0.500000 0.562500
vt 0.611736 0.771102
vt 0.595175 0.366343
vt 0.423137 0.484272
vt 0.713353 0.422290
vt 0.758105 0.454518
vt 0.125000 0.062500
vt 0.418341 0.256674
vt 0.320334 0.388669
vt 0.812755 0.481587
vt 0.477835 0.361491
vt 0.187500 0.625000
vt 0.414679 0.661630
vt 0.875000 0.687500
vt 1.000000 0.937500
vt 0.587160 0.675778
vt 0.450521 0.418925
vt 0.370877 0.428346
vn -0.087152 -0.087152 0.992375
vn 0.010744 -0.021489 0.999711
vn -0.128556 0.064278 0.989617
vn 0.017144 0.017144 0.999706
vn 0.105616 -0.445284 0.889139
vn -0.466093 0.014723 0.884613
vn -0.003955 0.349023 0.937106
vn 0.525088 -0.020660 0.850797
vn 0.002861 -0.414710 0.909949
vn -0.188745 0.269391 0.944354
vn 0.172708 0.295771 0.939517
vn -0.190396 -0.291308 0.937491
vn 0.265303 -0.306467 0.914162
vn 0.042956 -0.245867 0.968351
vn -0.017266 -0.326764 0.944948
vn 0.374872 0.061372 0.925043
vn 0.292997 -0.061242 0.954150
vn -0.009899 0.373330 0.927646
vn 0.005867 0.341025 0.940036
vn -0.412727 -0.032196 0.910286
vn -0.387206 -0.013393 0.921896
vn -0.053736 -0.363362 0.930097
vn 0.067083 -0.116283 0.990948
vn -0.516333 0.113753 0.848800
vn 0.250833 -0.271378 0.929213
vn 0.434445 -0.145885 0.888806
vn 0.090334 -0.383376 0.919164
vn 0.547211 -0.123409 0.827847
vn 0.137660 -0.181150 0.973773
vn -0.048128 -0.367157 0.928913
vn -0.133584 -0.203153 0.969992
vn -0.037450 -0.362562 0.931207
vn 0.452660 0.105271 0.885447
vn 0.059662 0.356954 0.932215
vn 0.227500 0.179767 0.957041
vn 0.020861 0.382077 0.923895
vn -0.403182 0.199975 0.893003
vn -0.186976 0.207164 0.960272
vn -0.468226 0.073018 0.880587
vn 0.018773 0.361313 0.932256
vn -0.429030 -0.106843 0.896949
vn -0.085629 -0.303457 0.948990
vn 0.337264 0.173439 0.925296
vn 0.290666 -0.196531 0.936423
vn -0.054877 0.342062 0.938074
vn 0.061324 0.311987 0.948105
vn -0.309162 -0.128846 0.942241
vn -0.362900 0.068127 0.929334
vn -0.203510 0.310789 0.928436
vn 0.060924 -0.356178 0.932430
vn 0.318785 -0.377605 0.869362
vn 0.583026 -0.013166 0.812346
vn 0.004068 0.362486 0.931980
vn -0.499032 -0.127521 0.857150
vn -0.480181 -0.006414 0.877146
vn -0.003953 0.381923 0.924186
vn 0.000508 0.334432 0.942420
vn -0.357880 -0.260440 0.896712
vn -0.509496 0.055374 0.858690
vn 0.006121 -0.387085 0.922024
vn 0.130345 -0.360794 0.923492
vn -0.012115 -0.395760 0.918274
vn -0.000567 -0.034712 0.999397
vn -0.402469 0.021862 0.915173
vn -0.283056 0.046725 0.957965
vn -0.265548 -0.047254 0.962939
vn -0.002375 0.360481 0.932764
vn 0.063416 0.174421 0.982627
vn -0.042960 0.275574 0.960319
vn 0.013575 0.366336 0.930384
vn 0.449542 -0.024036 0.892936
vn 0.104245 -0.036595 0.993878
vn 0.125352 0.045962 0.991047
vn 0.518157 0.029780 0.854767
vn -0.016064 -0.374385 0.927134
vn -0.041653 -0.259074 0.964959
vn 0.037496 -0.057156 0.997661
vn 0.022517 -0.367418 0.929783
vn 0.149621 -0.283174 0.947326
vn 0.046952 0.386810 0.920963
vn 0.532019 0.098156 0.841024
vn -0.428731 -0.043732 0.902373
vn -0.459834 -0.133487 0.877915
vn -0.329977 -0.170317 0.928497
vn -0.490023 -0.000554 0.871710
vn 0.022352 0.350798 0.936185
vn 0.050892 0.344996 0.937223
vn -0.008495 0.364334 0.931230
vn -0.397951 0.012361 0.917323
vn -0.401569 0.106448 0.909622
vn -0.450005 0.041367 0.892067
vn -0.056436 0.337793 0.939527
vn -0.210349 0.218080 0.952992
vn -0.151754 0.119728 0.981140
vn -0.007186 0.360592 0.932696
vn 0.177427 -0.409623 0.894835
vn 0.008830 0.354745 0.934921
vn -0.032477 0.351375 0.935671
vn 0.009838 0.363613 0.931498
vn 0.289544 0.092117 0.952722
vn 0.204356 0.231774 0.951062
vn 0.082121 0.068475 0.994267
vn 0.210724 -0.214330 0.953760
vn 0.005009 0.363843 0.931447
vn 0.522720 0.042797 0.851430
vn 0.425874 0.163310 0.889922
vn 0.322790 0.217567 0.921125
vn 0.527445 0.026895 0.849163
vn -0.079510 0.313735 0.946176
vn 0.205476 0.370990 0.905619
vn 0.515152 0.050524 0.855608
vn -0.026761 -0.280503 0.959480
vn -0.129567 -0.161920 0.978261
vn -0.136412 -0.229528 0.963695
vn -0.022050 -0.345705 0.938084
vn -0.081926 -0.343144 0.935703
vn -0.033519 -0.393433 0.918742
vn 0.099613 -0.179342 0.978731
vn 0.028297 -0.061831 0.997685
vn -0.191335 -0.000000 0.981525
vn 0.000000 0.034281 0.999412
vn 0.008107 0.387165 0.921975
vn 0.032060 -0.375127 0.926419
vn 0.170955 -0.338124 0.925444
vn 0.020943 -0.407663 0.912892
vn 0.400057 -0.103668 0.910608
vn 0.331264 -0.257729 0.907657
vn 0.527072 -0.059044 0.847767
vn 0.007245 0.381526 0.924330
vn 0.000000 -0.032209 0.999481
vn 0.184688 -0.265591 0.946230
vn 0.441119 -0.267259 0.856730
vn 0.067230 -0.332393 0.940742
vn -0.061535 -0.404299 0.912555
vn 0.227570 -0.119643 0.966384
vn -0.071786 -0.364979 0.928244
vn -0.327938 -0.072813 0.941889
vn 0.003550 0.348866 0.937166
vn 0.448895 0.100147 0.887955
vn -0.100118 -0.387213 0.916538
vn -0.334410 0.050366 0.941081
vn 0.053435 0.287453 0.956303
vn -0.489506 0.123324 0.863235
vn 0.294612 0.248772 0.922668
vn -0.249393 0.350875 0.902602
vn 0.337450 -0.113082 0.934527
vn -0.222001 0.005611 0.975030
vn 0.092826 0.337976 0.936566
vn 0.354917 -0.175489 0.918280
vn 0.006020 0.005621 0.999966
vn -0.392059 -0.173670 0.903399
vn -0.240217 -0.343068 0.908075
vn 0.274856 0.331523 0.902523
vn 0.252818 -0.372326 0.893004
vn 0.119877 0.336869 0.933889
vn -0.126200 -0.351775 0.927539
vn -0.270315 0.243622 0.931439
vn 0.005958 0.346358 0.938083
vn 0.042403 0.351195 0.935342
vn 0.062135 -0.397002 0.915712
vn -0.007777 -0.080038 0.996762
vn 0.342638 -0.436643 0.831830
vn 0.528820 -0.244756 0.812677
vn -0.063236 -0.266039 0.961886
vn -0.070254 -0.370476 0.926181
vn -0.246499 -0.398253 0.883534
vn 0.558838 -0.073246 0.826036
vn -0.013139 -0.379615 0.925051
vn -0.460451 0.113166 0.880442
vn -0.021483 0.337385 0.941122
vn 0.363911 0.203881 0.908846
vn 0.034275 0.000000 0.999412
vn 0.041130 0.349252 0.936126
vn -0.013709 -0.386506 0.922185
vn -0.063720 -0.439355 0.896051
f 1/1/1 113/113/113 66/66/66
f 31/31/31 137/137/137 113/113/113
f 109/109/109 157/157/157 49/49/49
f 76/76/76 112/112/112 164/164/164
f 84/84/84 151/151/151 41/41/41
f 112/112/112 114/114/114 31/31/31
f 114/114/114 47/47/47 31/31/31
f 84/84/84 152/152/152 58/58/58
f 137/137/137 66/66/66 113/113/113
f 164/164/164 112/112/112 31/31/31
f 150/150/150 104/104/104 63/63/63
f 161/161/161 145/145/145 147/147/147
f 170/170/170 109/109/109 49/49/49
f 164/164/164 31/31/31 113/113/113
f 42/42/42 114/114/114 112/112/112
f 76/76/76 113/113/113 1/1/1
f 76/76/76 164/164/164 113/113/113
f 15/15/15 112/112/112 76/76/76
f 115/115/115 15/15/15 75/75/75
f 146/146/146 162/162/162 163/163/163
f 60/60/60 150/150/150 63/63/63
f 150/150/150 80/80/80 104/104/104
f 22/22/22 30/30/30 136/136/136
f 162/162/162 51/51/51 163/163/163
f 32/32/32 165/165/165 136/136/136
f 22/22/22 136/136/136 165/165/165
f 161/161/161 95/95/95 145/145/145
f 52/52/52 128/128/128 108/108/108
f 103/103/103 44/44/44 25/25/25
f 116/116/116 30/30/30 22/22/22
f 160/160/160 5/5/5 60/60/60
f 12/12/12 114/114/114 42/42/42
f 156/156/156 116/116/116 22/22/22
f 156/156/156 152/152/152 12/12/12
f 156/156/156 12/12/12 116/116/116
f 86/86/86 46/46/46 19/19/19
f 168/168/168 165/165/165 32/32/32
f 170/170/170 138/138/138 109/109/109
f 156/156/156 22/22/22 165/165/165
f 140/140/140 165/165/165 168/168/168
f 146/146/146 81/81/81 110/110/110
f 82/82/82 137/137/137 47/47/47
f 174/174/174 168/168/168 60/60/60
f 51/51/51 162/162/162 96/96/96
f 134/134/134 140/140/140 168/168/168
f 140/140/140 152/152/152 156/156/156
f 140/140/140 156/156/156 165/165/165
f 69/69/69 94/94/94 92/92/92
f 152/152/152 166/166/166 58/58/58
f 167/167/167 106/106/106 81/81/81
f 118/118/118 29/29/29 79/79/79
f 170/170/170 53/53/53 138/138/138
f 27/27/27 125/125/125 133/133/133
f 45/45/45 98/98/98 36/36/36
f 134/134/134 166/166/166 140/140/140
f 81/81/81 153/153/153 110/110/110
f 38/38/38 92/92/92 94/94/94
f 99/99/99 36/36/36 56/56/56
f 83/83/83 58/58/58 54/54/54
f 23/23/23 29/29/29 118/118/118
f 151/151/151 58/58/58 83/83/83
f 34/34/34 80/80/80 110/110/110
f 84/84/84 12/12/12 152/152/152
f 84/84/84 58/58/58 151/151/151
f 47/47/47 114/114/114 84/84/84
f 84/84/84 114/114/114 12/12/12
f 47/47/47 84/84/84 41/41/41
f 82/82/82 47/47/47 41/41/41
f 36/36/36 99/99/99 129/129/129
f 20/20/20 137/137/137 82/82/82
f 70/70/70 129/129/129 99/99/99
f 20/20/20 66/66/66 137/137/137
f 55/55/55 20/20/20 82/82/82
f 98/98/98 138/138/138 36/36/36
f 171/171/171 33/33/33 139/139/139
f 102/102/102 68/68/68 35/35/35
f 94/94/94 69/69/69 3/3/3
f 130/130/130 2/2/2 119/119/119
f 2/2/2 72/72/72 119/119/119
f 53/53/53 56/56/56 36/36/36
f 92/92/92 18/18/18 69/69/69
f 21/21/21 141/141/141 65/65/65
f 139/139/139 43/43/43 171/171/171
f 62/62/62 136/136/136 117/117/117
f 122/122/122 53/53/53 97/97/97
f 42/42/42 115/115/115 116/116/116
f 122/122/122 97/97/97 159/159/159
f 135/135/135 126/126/126 44/44/44
f 109/109/109 98/98/98 10/10/10
f 89/89/89 39/39/39 48/48/48
f 152/152/152 140/140/140 166/166/166
f 129/129/129 45/45/45 36/36/36
f 48/48/48 38/38/38 141/141/141
f 123/123/123 32/32/32 62/62/62
f 130/130/130 119/119/119 77/77/77
f 135/135/135 17/17/17 126/126/126
f 136/136/136 62/62/62 32/32/32
f 41/41/41 85/85/85 82/82/82
f 93/93/93 45/45/45 38/38/38
f 129/129/129 70/70/70 18/18/18
f 55/55/55 82/82/82 85/85/85
f 53/53/53 36/36/36 138/138/138
f 92/92/92 38/38/38 45/45/45
f 145/145/145 24/24/24 147/147/147
f 18/18/18 92/92/92 129/129/129
f 29/29/29 23/23/23 119/119/119
f 48/48/48 141/141/141 89/89/89
f 45/45/45 129/129/129 92/92/92
f 21/21/21 89/89/89 141/141/141
f 6/6/6 91/91/91 64/64/64
f 105/105/105 139/139/139 33/33/33
f 149/149/149 44/44/44 126/126/126
f 46/46/46 101/101/101 142/142/142
f 93/93/93 38/38/38 48/48/48
f 39/39/39 169/169/169 90/90/90
f 37/37/37 24/24/24 145/145/145
f 24/24/24 59/59/59 83/83/83
f 120/120/120 65/65/65 94/94/94
f 54/54/54 147/147/147 24/24/24
f 77/77/77 23/23/23 118/118/118
f 37/37/37 145/145/145 49/49/49
f 157/157/157 90/90/90 169/169/169
f 123/123/123 27/27/27 61/61/61
f 124/124/124 61/61/61 27/27/27
f 60/60/60 168/168/168 160/160/160
f 16/16/16 100/100/100 139/139/139
f 56/56/56 53/53/53 122/122/122
f 6/6/6 55/55/55 85/85/85
f 5/5/5 96/96/96 162/162/162
f 24/24/24 83/83/83 54/54/54
f 24/24/24 143/143/143 59/59/59
f 143/143/143 169/169/169 39/39/39
f 3/3/3 120/120/120 94/94/94
f 101/101/101 107/107/107 43/43/43
f 30/30/30 116/116/116 115/115/115
f 107/107/107 101/101/101 11/11/11
f 157/157/157 169/169/169 37/37/37
f 135/135/135 103/103/103 29/29/29
f 95/95/95 49/49/49 145/145/145
f 135/135/135 72/72/72 17/17/17
f 37/37/37 169/169/169 143/143/143
f 37/37/37 143/143/143 24/24/24
f 157/157/157 37/37/37 49/49/49
f 157/157/157 10/10/10 90/90/90
f 109/109/109 138/138/138 98/98/98
f 109/109/109 10/10/10 157/157/157
f 135/135/135 44/44/44 103/103/103
f 170/170/170 97/97/97 53/53/53
f 27/27/27 123/123/123 125/125/125
f 62/62/62 125/125/125 123/123/123
f 151/151/151 83/83/83 41/41/41
f 139/139/139 100/100/100 43/43/43
f 131/131/131 79/79/79 29/29/29
f 121/121/121 68/68/68 102/102/102
f 173/173/173 57/57/57 104/104/104
f 40/40/40 46/46/46 86/86/86
f 57/57/57 97/97/97 170/170/170
f 57/57/57 170/170/170 95/95/95
f 78/78/78 125/125/125 9/9/9
f 131/131/131 13/13/13 79/79/79
f 74/74/74 16/16/16 139/139/139
f 110/110/110 155/155/155 34/34/34
f 87/87/87 46/46/46 40/40/40
f 142/142/142 19/19/19 46/46/46
f 110/110/110 153/153/153 155/155/155
f 108/108/108 111/111/111 52/52/52
f 173/173/173 97/97/97 57/57/57
f 34/34/34 173/173/173 104/104/104
f 4/4/4 121/121/121 102/102/102
f 107/107/107 106/106/106 33/33/33
f 11/11/11 155/155/155 144/144/144
f 155/155/155 173/173/173 34/34/34
f 64/64/64 91/91/91 89/89/89
f 106/106/106 153/153/153 81/81/81
f 143/143/143 39/39/39 59/59/59
f 158/158/158 104/104/104 57/57/57
f 50/50/50 160/160/160 168/168/168
f 95/95/95 158/158/158 57/57/57
f 158/158/158 95/95/95 63/63/63
f 104/104/104 158/158/158 63/63/63
f 154/154/154 51/51/51 96/96/96
f 167/167/167 111/111/111 106/106/106
f 33/33/33 106/106/106 111/111/111
f 107/107/107 33/33/33 171/171/171
f 167/167/167 132/132/132 28/28/28
f 64/64/64 89/89/89 21/21/21
f 105/105/105 33/33/33 111/111/111
f 45/45/45 93/93/93 98/98/98
f 105/105/105 111/111/111 108/108/108
f 147/147/147 54/54/54 166/166/166
f 74/74/74 108/108/108 8/8/8
f 58/58/58 166/166/166 54/54/54
f 74/74/74 105/105/105 108/108/108
f 93/93/93 10/10/10 98/98/98
f 134/134/134 175/175/175 166/166/166
f 11/11/11 144/144/144 107/107/107
f 43/43/43 107/107/107 171/171/171
f 144/144/144 155/155/155 153/153/153
f 144/144/144 153/153/153 106/106/106
f 144/144/144 106/106/106 107/107/107
f 78/78/78 133/133/133 125/125/125
f 159/159/159 87/87/87 40/40/40
f 38/38/38 94/94/94 141/141/141
f 148/148/148 101/101/101 46/46/46
f 103/103/103 25/25/25 131/131/131
f 65/65/65 141/141/141 94/94/94
f 74/74/74 139/139/139 105/105/105
f 8/8/8 108/108/108 128/128/128
f 7/7/7 99/99/99 88/88/88
f 6/6/6 85/85/85 91/91/91
f 125/125/125 62/62/62 9/9/9
f 79/79/79 133/133/133 118/118/118
f 102/102/102 35/35/35 100/100/100
f 80/80/80 34/34/34 104/104/104
f 40/40/40 86/86/86 88/88/88
f 150/150/150 60/60/60 5/5/5
f 148/148/148 46/46/46 87/87/87
f 59/59/59 91/91/91 85/85/85
f 117/117/117 9/9/9 62/62/62
f 67/67/67 88/88/88 86/86/86
f 56/56/56 122/122/122 40/40/40
f 159/159/159 155/155/155 148/148/148
f 122/122/122 159/159/159 40/40/40
f 159/159/159 148/148/148 87/87/87
f 148/148/148 155/155/155 11/11/11
f 148/148/148 11/11/11 101/101/101
f 159/159/159 97/97/97 173/173/173
f 159/159/159 173/173/173 155/155/155
f 56/56/56 40/40/40 88/88/88
f 30/30/30 117/117/117 136/136/136
f 56/56/56 88/88/88 99/99/99
f 90/90/90 48/48/48 39/39/39
f 7/7/7 70/70/70 99/99/99
f 67/67/67 7/7/7 88/88/88
f 19/19/19 67/67/67 86/86/86
f 68/68/68 19/19/19 142/142/142
f 73/73/73 102/102/102 100/100/100
f 59/59/59 85/85/85 83/83/83
f 172/172/172 4/4/4 102/102/102
f 73/73/73 172/172/172 102/102/102
f 16/16/16 73/73/73 100/100/100
f 79/79/79 124/124/124 133/133/133
f 142/142/142 35/35/35 68/68/68
f 91/91/91 59/59/59 39/39/39
f 42/42/42 112/112/112 115/115/115
f 28/28/28 128/128/128 52/52/52
f 131/131/131 25/25/25 13/13/13
f 60/60/60 63/63/63 174/174/174
f 161/161/161 174/174/174 63/63/63
f 126/126/126 17/17/17 71/71/71
f 132/132/132 26/26/26 28/28/28
f 128/128/128 71/71/71 8/8/8
f 23/23/23 77/77/77 119/119/119
f 167/167/167 28/28/28 52/52/52
f 26/26/26 128/128/128 28/28/28
f 115/115/115 75/75/75 30/30/30
f 117/117/117 30/30/30 75/75/75
f 95/95/95 170/170/170 49/49/49
f 100/100/100 35/35/35 43/43/43
f 103/103/103 131/131/131 29/29/29
f 35/35/35 142/142/142 101/101/101
f 101/101/101 43/43/43 35/35/35
f 13/13/13 25/25/25 127/127/127
f 149/149/149 126/126/126 26/26/26
f 149/149/149 26/26/26 127/127/127
f 51/51/51 127/127/127 132/132/132
f 118/118/118 133/133/133 14/14/14
f 27/27/27 133/133/133 124/124/124
f 79/79/79 13/13/13 124/124/124
f 163/163/163 132/132/132 167/167/167
f 132/132/132 127/127/127 26/26/26
f 167/167/167 52/52/52 111/111/111
f 163/163/163 167/167/167 81/81/81
f 63/63/63 95/95/95 161/161/161
f 146/146/146 163/163/163 81/81/81
f 150/150/150 5/5/5 146/146/146
f 96/96/96 160/160/160 50/50/50
f 50/50/50 168/168/168 32/32/32
f 161/161/161 175/175/175 174/174/174
f 96/96/96 5/5/5 160/160/160
f 134/134/134 174/174/174 175/175/175
f 124/124/124 154/154/154 61/61/61
f 12/12/12 42/42/42 116/116/116
f 123/123/123 50/50/50 32/32/32
f 96/96/96 50/50/50 61/61/61
f 15/15/15 115/115/115 112/112/112
f 77/77/77 118/118/118 14/14/14
f 154/154/154 127/127/127 51/51/51
f 162/162/162 146/146/146 5/5/5
f 51/51/51 132/132/132 163/163/163
f 85/85/85 41/41/41 83/83/83
f 154/154/154 96/96/96 61/61/61
f 154/154/154 13/13/13 127/127/127
f 124/124/124 13/13/13 154/154/154
f 149/149/149 127/127/127 44/44/44
f 25/25/25 44/44/44 127/127/127
f 10/10/10 93/93/93 90/90/90
f 123/123/123 61/61/61 50/50/50
f 29/29/29 119/119/119 135/135/135
f 72/72/72 135/135/135 119/119/119
f 137/137/137 31/31/31 47/47/47
f 9/9/9 117/117/117 75/75/75
f 146/146/146 110/110/110 80/80/80
f 48/48/48 90/90/90 93/93/93
f 14/14/14 133/133/133 78/78/78
f 39/39/39 89/89/89 91/91/91
f 168/168/168 174/174/174 134/134/134
f 150/150/150 146/146/146 80/80/80
f 147/147/147 175/175/175 161/161/161
f 175/175/175 147/147/147 166/166/166
f 26/26/26 126/126/126 128/128/128
f 71/71/71 128/128/128 126/126/126
