# frame 000957 
# time 0.479000 
# name Cloth3D 
v -0.000000 0.000000 -0.000000
v 1.000000 0.000000 -0.000000
v -0.000000 1.000000 0.000000
v 1.000000 1.000000 0.000000
v 0.653699 0.411870 0.160609
v -0.000000 0.500000 0.000000
v 0.500000 1.000000 0.000000
v 1.000000 0.500000 0.000000
v 0.500000 -0.000000 0.000000
v 0.242357 0.756801 0.097936
v 0.756200 0.751667 0.083578
v 0.246269 0.248981 0.081854
v 0.752937 0.252896 0.066912
v 0.750000 0.000000 0.000000
v 0.250000 0.000000 0.000000
v 1.000000 0.750000 0.000000
v 1.000000 0.250000 0.000000
v 0.250000 1.000000 0.000000
v 0.750000 1.000000 0.000000
v 0.000000 0.250000 0.000000
v 0.000000 0.750000 -0.000000
v 0.364369 0.219927 0.085211
v 0.874164 0.063909 0.000881
v 0.230216 0.516265 0.137331
v 0.815341 0.252698 0.051452
v 0.882295 0.375921 0.059616
v 0.626240 0.123171 0.051561
v 0.885774 0.438045 0.069859
v 0.874087 0.127445 0.008457
v 0.375278 0.124845 0.048794
v 0.123025 0.123980 0.031464
v 0.493643 0.248352 0.107881
v 0.885663 0.624768 0.067364
v 0.634834 0.624262 0.147928
v 0.875551 0.874865 0.021138
v 0.373714 0.878041 0.056386
v 0.249543 0.602896 0.132812
v 0.120823 0.879274 0.041287
v 0.119202 0.626548 0.062599
v 0.626336 0.877395 0.055004
v 0.119592 0.375999 0.059449
v 0.249156 0.123830 0.043992
v 0.878523 0.749277 0.042678
v 0.878160 0.251128 0.039015
v 0.247187 0.881267 0.056942
v 0.752027 0.876855 0.045324
v 0.121048 0.250192 0.048386
v 0.120305 0.752745 0.052510
v 0.313581 0.595183 0.154937
v 0.586853 0.302888 0.125679
v 0.747133 0.366458 0.115432
v 0.890588 0.499857 0.079323
v 0.434148 0.774040 0.097764
v 0.233041 0.455190 0.136568
v 0.000000 0.375000 0.000000
v 0.500149 0.874658 0.051273
v 0.501102 0.623176 0.148960
v 0.241493 0.375135 0.113533
v 0.120308 0.500832 0.063138
v 0.523124 0.411684 0.169382
v 0.628900 0.249494 0.097094
v 0.500921 0.122851 0.056184
v 0.498363 0.491585 0.202003
v 0.000000 0.625000 0.000000
v 0.000000 0.875000 0.000000
v 0.000000 0.125000 0.000000
v 0.625000 1.000000 0.000000
v 0.875000 1.000000 0.000000
v 0.125000 1.000000 0.000000
v 0.375000 1.000000 0.000000
v 1.000000 0.375000 0.000000
v 1.000000 0.125000 0.000000
v 1.000000 0.875000 0.000000
v 1.000000 0.625000 0.000000
v 0.375000 0.000000 0.000000
v 0.125000 0.000000 0.000000
v 0.875000 0.000000 0.000000
v 0.625000 0.000000 0.000000
v 0.749908 0.127251 0.029344
v 0.638797 0.560485 0.171711
v 0.784496 0.515145 0.148330
v 0.058749 0.313047 0.030352
v 0.176476 0.437874 0.100316
v 0.183133 0.313378 0.074102
v 0.058965 0.438238 0.032657
v 0.688025 0.938282 0.024847
v 0.691094 0.815324 0.074920
v 0.562767 0.937333 0.025466
v 0.060943 0.688181 0.027039
v 0.178847 0.691520 0.088080
v 0.060128 0.563032 0.031368
v 0.186110 0.940598 0.026456
v 0.182089 0.818076 0.066117
v 0.060870 0.939226 0.014576
v 0.432822 0.560736 0.172805
v 0.681521 0.359200 0.131261
v 0.507716 0.725805 0.114390
v 0.308731 0.818590 0.083176
v 0.437299 0.937595 0.026067
v 0.937339 0.811617 0.012522
v 0.816437 0.813803 0.052810
v 0.937076 0.936954 0.000631
v 0.875268 0.189920 0.021590
v 0.570177 0.560078 0.172551
v 0.945255 0.625086 0.037736
v 0.834969 0.591668 0.101409
v 0.819625 0.686705 0.076537
v 0.946907 0.562553 0.041598
v 0.311647 0.706284 0.122337
v 0.698413 0.582687 0.156151
v 0.890490 0.562802 0.078465
v 0.187103 0.061328 0.021566
v 0.061956 0.062107 0.011079
v 0.184634 0.186403 0.054550
v 0.312620 0.061570 0.025148
v 0.311527 0.187524 0.067138
v 0.437961 0.062210 0.025928
v 0.811945 0.063830 0.009046
v 0.936864 0.063356 -0.003391
v -0.000000 0.937500 0.000000
v 0.592671 0.676158 0.132235
v 0.525719 0.806077 0.084952
v 0.564700 0.184017 0.083905
v 0.689397 0.188218 0.062134
v 0.562992 0.060375 0.029779
v 0.940983 0.313224 0.027247
v 0.819819 0.312939 0.074697
v 0.942700 0.438097 0.034539
v 0.311780 0.940813 0.030818
v 0.937500 0.000000 -0.000000
v 0.813696 0.189650 0.037109
v 0.812469 0.372299 0.095848
v 0.687347 0.063249 0.018824
v 0.395796 0.376144 0.150896
v 0.937876 0.188514 0.012807
v 0.438128 0.187223 0.076484
v 0.059488 0.187331 0.025273
v 0.376799 0.771991 0.098522
v 0.943300 0.687511 0.033145
v 0.374146 0.317374 0.125547
v 0.060209 0.813988 0.024113
v 0.813065 0.938692 0.020142
v 0.178236 0.563934 0.098223
v 0.776737 0.648247 0.105290
v 0.315081 0.532776 0.178980
v 0.720017 0.492393 0.202129
v 0.320224 0.490711 0.202131
v 0.723876 0.774716 0.085584
v 0.879620 0.313622 0.048472
v 0.623661 0.492085 0.202036
v 0.180412 0.375742 0.086514
v 0.290417 0.331572 0.117441
v 0.726157 0.606883 0.138145
v 0.720614 0.301310 0.099375
v 0.677442 0.670174 0.128376
v 0.327923 0.275827 0.102934
v 0.270890 0.661984 0.128882
v 1.000000 0.062500 -0.000000
v 0.615064 0.773427 0.096787
v 0.603183 0.365960 0.148183
v 0.415112 0.491236 0.202002
v 0.731702 0.421842 0.149951
v 0.779270 0.452962 0.141703
v 0.360104 0.428537 0.171427
v 0.417630 0.255708 0.105356
v 0.311526 0.389156 0.142342
v 0.832197 0.480744 0.115205
v 0.478116 0.360844 0.150717
v 0.177754 0.627746 0.095249
v 0.410696 0.663291 0.139681
v 0.881776 0.687087 0.055171
v 0.447584 0.418311 0.172803
v 0.062500 1.000000 0.000000
v 0.000000 0.812500 -0.000000
vt 0.000000 0.000000
vt 1.000000 0.000000
vt 0.000000 1.000000
vt 1.000000 1.000000
vt 0.639940 0.411013
vt 0.000000 0.500000
vt 0.500000 1.000000
vt 1.000000 0.500000
vt 0.500000 0.000000
vt 0.250000 0.750000
vt 0.750000 0.750000
vt 0.250000 0.250000
vt 0.750000 0.250000
vt 0.750000 0.000000
vt 0.250000 0.000000
vt 1.000000 0.750000
vt 1.000000 0.250000
vt 0.250000 1.000000
vt 0.750000 1.000000
vt 0.000000 0.250000
vt 0.000000 0.750000
vt 0.365347 0.220303
vt 0.875000 0.062500
vt 0.245672 0.515386
vt 0.812500 0.250000
vt 0.875000 0.375000
vt 0.625000 0.125000
vt 0.875000 0.437500
vt 0.875000 0.125000
vt 0.375000 0.125000
vt 0.125000 0.125000
vt 0.492214 0.250470
vt 0.875000 0.625000
vt 0.625000 0.625000
vt 0.875000 0.875000
vt 0.375000 0.875000
vt 0.262101 0.599801
vt 0.125000 0.875000
vt 0.125000 0.625000
vt 0.625000 0.875000
vt 0.125000 0.375000
vt 0.250000 0.125000
vt 0.875000 0.750000
vt 0.875000 0.250000
vt 0.250000 0.875000
vt 0.750000 0.875000
vt 0.125000 0.250000
vt 0.125000 0.750000
vt 0.325445 0.593646
vt 0.581754 0.304126
vt 0.736041 0.365469
vt 0.875000 0.500000
vt 0.435664 0.771773
vt 0.248222 0.455442
vt 0.000000 0.375000
vt 0.500000 0.875000
vt 0.500000 0.625000
vt 0.250000 0.375000
vt 0.125000 0.500000
vt 0.519707 0.411902
vt 0.625000 0.250000
vt 0.500000 0.125000
vt 0.497176 0.492696
vt 0.000000 0.625000
vt 0.000000 0.875000
vt 0.000000 0.125000
vt 0.625000 1.000000
vt 0.875000 1.000000
vt 0.125000 1.000000
vt 0.375000 1.000000
vt 1.000000 0.375000
vt 1.000000 0.125000
vt 1.000000 0.875000
vt 1.000000 0.625000
vt 0.375000 0.000000
vt 0.125000 0.000000
vt 0.875000 0.000000
vt 0.625000 0.000000
vt 0.750000 0.125000
vt 0.625000 0.562500
vt 0.760524 0.515669
vt 0.062500 0.312500
vt 0.187500 0.437500
vt 0.187500 0.312500
vt 0.062500 0.437500
vt 0.687500 0.937500
vt 0.687500 0.812500
vt 0.562500 0.937500
vt 0.062500 0.687500
vt 0.187500 0.687500
vt 0.062500 0.562500
vt 0.187500 0.937500
vt 0.187500 0.812500
vt 0.062500 0.937500
vt 0.437500 0.562500
vt 0.671367 0.358455
vt 0.506884 0.725192
vt 0.312500 0.812500
vt 0.437500 0.937500
vt 0.937500 0.812500
vt 0.812500 0.812500
vt 0.937500 0.937500
vt 0.875000 0.187500
vt 0.562500 0.562500
vt 0.937500 0.625000
vt 0.819332 0.591237
vt 0.812500 0.687500
vt 0.937500 0.562500
vt 0.319123 0.700934
vt 0.682510 0.583771
vt 0.875000 0.562500
vt 0.187500 0.062500
vt 0.062500 0.062500
vt 0.187500 0.187500
vt 0.312500 0.062500
vt 0.312500 0.187500
vt 0.437500 0.062500
vt 0.812500 0.062500
vt 0.937500 0.062500
vt 0.000000 0.937500
vt 0.587160 0.675778
vt 0.525016 0.804189
vt 0.562500 0.187500
vt 0.687500 0.187500
vt 0.562500 0.062500
vt 0.937500 0.312500
vt 0.812500 0.312500
vt 0.937500 0.437500
vt 0.312500 0.937500
vt 0.937500 0.000000
vt 0.812500 0.187500
vt 0.800716 0.372483
vt 0.687500 0.062500
vt 0.400647 0.375957
vt 0.937500 0.187500
vt 0.437500 0.187500
vt 0.062500 0.187500
vt 0.380019 0.768564
vt 0.937500 0.687500
vt 0.377625 0.317694
vt 0.062500 0.812500
vt 0.812500 0.937500
vt 0.187500 0.562500
vt 0.765906 0.648544
vt 0.331404 0.533038
vt 0.689724 0.493803
vt 0.341064 0.491452
vt 0.718294 0.771897
vt 0.875000 0.312500
vt 0.608446 0.493328
vt 0.187500 0.375000
vt 0.296906 0.332149
vt 0.711873 0.607167
vt 0.713437 0.300753
vt 0.668274 0.669022
vt 0.331126 0.276226
vt 0.281585 0.657008
vt 1.000000 0.062500
vt 0.611736 0.771102
vt 0.595175 0.366343
vt 0.423080 0.492444
vt 0.713353 0.422290
vt 0.758105 0.454518
vt 0.370877 0.428346
vt 0.418341 0.256674
vt 0.320334 0.388669
vt 0.812755 0.481587
vt 0.477835 0.361491
vt 0.187500 0.625000
vt 0.414679 0.661630
vt 0.875000 0.687500
vt 0.450521 0.418925
vt 0.062500 1.000000
vt 0.000000 0.812500
vn -0.088528 -0.088528 0.992132
vn -0.024266 0.024266 0.999411
vn 0.000000 0.000000 1.000000
vn 0.005169 0.005169 0.999973
vn 0.126617 -0.428680 0.894540
vn -0.469309 0.007039 0.883006
vn 0.002413 0.378605 0.925555
vn 0.562690 -0.031996 0.826048
vn -0.014056 -0.415002 0.909712
vn -0.206270 0.259739 0.943392
vn 0.252786 0.250827 0.934444
vn -0.194540 -0.267489 0.943718
vn 0.256379 -0.341211 0.904348
vn 0.038158 -0.214368 0.976007
vn -0.013412 -0.354695 0.934886
vn 0.356444 0.084092 0.930525
vn 0.309501 -0.059125 0.949059
vn -0.015553 0.431596 0.901933
vn 0.015234 0.344266 0.938749
vn -0.427435 -0.020675 0.903810
vn -0.386238 0.005135 0.922385
vn -0.086045 -0.370814 0.924712
vn 0.089193 -0.060629 0.994167
vn -0.531146 0.075070 0.843948
vn 0.210321 -0.298880 0.930826
vn 0.438073 -0.162997 0.884038
vn 0.130530 -0.363684 0.922332
vn 0.520950 -0.178045 0.834812
vn 0.133125 -0.167944 0.976766
vn -0.039848 -0.355477 0.933835
vn -0.155227 -0.187014 0.970016
vn -0.040348 -0.370730 0.927864
vn 0.407591 0.192806 0.892578
vn 0.065169 0.332597 0.940815
vn 0.237305 0.169977 0.956449
vn 0.034515 0.395161 0.917963
vn -0.388109 0.176484 0.904558
vn -0.217380 0.202616 0.954826
vn -0.484112 0.057440 0.873119
vn 0.023042 0.399371 0.916500
vn -0.409492 -0.124119 0.903831
vn -0.061213 -0.294186 0.953786
vn 0.319674 0.187279 0.928836
vn 0.244420 -0.229116 0.942213
vn -0.065211 0.363470 0.929321
vn 0.101168 0.325359 0.940163
vn -0.280302 -0.103762 0.954287
vn -0.393617 0.084230 0.915407
vn -0.186179 0.294131 0.937456
vn 0.103370 -0.357283 0.928258
vn 0.289431 -0.371469 0.882179
vn 0.550789 -0.075220 0.831248
vn 0.004556 0.365863 0.930657
vn -0.494283 -0.171869 0.852141
vn -0.474687 -0.006358 0.880132
vn -0.004639 0.407691 0.913108
vn 0.010805 0.329292 0.944166
vn -0.356746 -0.262794 0.896477
vn -0.504909 0.019992 0.862941
vn 0.021146 -0.370933 0.928419
vn 0.170833 -0.354346 0.919378
vn -0.047354 -0.393887 0.917938
vn 0.002282 -0.024980 0.999685
vn -0.430980 0.017419 0.902193
vn -0.312433 0.025127 0.949607
vn -0.285614 -0.056286 0.956691
vn 0.000716 0.373004 0.927830
vn 0.078151 0.167984 0.982687
vn -0.036582 0.303681 0.952071
vn 0.021418 0.420532 0.907025
vn 0.465684 -0.026547 0.884553
vn 0.046100 -0.049361 0.997716
vn 0.104361 0.047604 0.993400
vn 0.565062 0.043675 0.823892
vn -0.002494 -0.374205 0.927343
vn -0.040286 -0.254400 0.966260
vn 0.036637 -0.031467 0.998833
vn 0.041069 -0.375560 0.925888
vn 0.151293 -0.266859 0.951786
vn 0.040684 0.386246 0.921498
vn 0.546071 0.059190 0.835645
vn -0.409883 -0.035250 0.911457
vn -0.471049 -0.148908 0.869448
vn -0.339229 -0.175503 0.924187
vn -0.473074 -0.002489 0.881019
vn 0.026020 0.376750 0.925949
vn 0.089150 0.341713 0.935566
vn -0.007861 0.391242 0.920254
vn -0.430450 0.029496 0.902133
vn -0.406892 0.126296 0.904703
vn -0.469189 0.011696 0.883020
vn -0.060647 0.378770 0.923502
vn -0.237236 0.209643 0.948562
vn -0.187036 0.188531 0.964092
vn -0.011256 0.361115 0.932453
vn 0.202480 -0.391060 0.897816
vn 0.010073 0.336109 0.941769
vn -0.014785 0.352463 0.935709
vn 0.024592 0.395272 0.918235
vn 0.252017 0.107727 0.961708
vn 0.256058 0.226797 0.939680
vn 0.085889 0.068861 0.993922
vn 0.180849 -0.233551 0.955378
vn 0.008064 0.370497 0.928798
vn 0.520038 0.083488 0.850053
vn 0.417803 0.219457 0.881634
vn 0.337966 0.235402 0.911244
vn 0.569324 0.020988 0.821845
vn -0.083542 0.301575 0.949775
vn 0.215689 0.367558 0.904643
vn 0.494058 0.097209 0.863978
vn -0.049866 -0.292922 0.954835
vn -0.127866 -0.135904 0.982436
vn -0.173962 -0.208592 0.962407
vn -0.011110 -0.348545 0.937226
vn -0.081010 -0.339364 0.937160
vn -0.030343 -0.385525 0.922198
vn 0.101449 -0.132887 0.985926
vn 0.022425 -0.013791 0.999653
vn -0.175001 0.058334 0.982839
vn 0.031878 0.330779 0.943170
vn -0.008284 0.387194 0.921961
vn 0.060057 -0.367039 0.928265
vn 0.204679 -0.327466 0.922428
vn 0.016502 -0.412247 0.910923
vn 0.368478 -0.099274 0.924321
vn 0.321991 -0.283870 0.903183
vn 0.520910 -0.089340 0.848924
vn 0.006921 0.423394 0.905919
vn 0.015322 0.033029 0.999337
vn 0.210207 -0.239779 0.947797
vn 0.393338 -0.278879 0.876077
vn 0.090988 -0.306382 0.947550
vn -0.097077 -0.391391 0.915090
vn 0.171911 -0.146557 0.974150
vn -0.070690 -0.385510 0.919992
vn -0.312863 -0.072130 0.947055
vn 0.006683 0.354278 0.935116
vn 0.424542 0.121094 0.897274
vn -0.115894 -0.361370 0.925192
vn -0.364996 0.031552 0.930474
vn 0.091425 0.272765 0.957727
vn -0.499688 0.062532 0.863945
vn 0.326965 0.287785 0.900152
vn -0.240279 0.378749 0.893765
vn 0.333984 -0.049989 0.941252
vn -0.222339 0.092269 0.970593
vn 0.169874 0.299497 0.938853
vn 0.358507 -0.162155 0.919336
vn 0.012334 0.059632 0.998144
vn -0.398575 -0.208027 0.893232
vn -0.228551 -0.307684 0.923631
vn 0.304522 0.331932 0.892798
vn 0.251614 -0.360967 0.897994
vn 0.146704 0.326205 0.933846
vn -0.123009 -0.353132 0.927452
vn -0.257632 0.223301 0.940086
vn -0.048588 -0.000000 0.998819
vn 0.045237 0.347768 0.936489
vn 0.104945 -0.365633 0.924824
vn -0.020522 -0.023349 0.999517
vn 0.327418 -0.459877 0.825416
vn 0.503048 -0.278093 0.818295
vn -0.089285 -0.442001 0.892560
vn -0.081168 -0.383546 0.919948
vn -0.232463 -0.369943 0.899502
vn 0.532725 -0.106377 0.839576
vn -0.017293 -0.369148 0.929210
vn -0.457183 0.081785 0.885604
vn -0.001085 0.319453 0.947601
vn 0.322517 0.202219 0.924711
vn -0.029327 -0.380446 0.924338
vn -0.058428 0.175283 0.982783
vn -0.376698 -0.000000 0.926336
f 1/1/1 113/113/113 66/66/66
f 31/31/31 137/137/137 113/113/113
f 109/109/109 157/157/157 49/49/49
f 98/98/98 45/45/45 10/10/10
f 84/84/84 151/151/151 41/41/41
f 112/112/112 114/114/114 31/31/31
f 114/114/114 47/47/47 31/31/31
f 84/84/84 152/152/152 58/58/58
f 137/137/137 66/66/66 113/113/113
f 93/93/93 10/10/10 45/45/45
f 150/150/150 104/104/104 63/63/63
f 161/161/161 145/145/145 147/147/147
f 170/170/170 109/109/109 49/49/49
f 164/164/164 147/147/147 166/166/166
f 42/42/42 114/114/114 112/112/112
f 76/76/76 113/113/113 1/1/1
f 147/147/147 164/164/164 161/161/161
f 15/15/15 112/112/112 76/76/76
f 115/115/115 15/15/15 75/75/75
f 146/146/146 162/162/162 163/163/163
f 60/60/60 150/150/150 63/63/63
f 150/150/150 80/80/80 104/104/104
f 22/22/22 30/30/30 136/136/136
f 162/162/162 51/51/51 163/163/163
f 32/32/32 165/165/165 136/136/136
f 22/22/22 136/136/136 165/165/165
f 161/161/161 95/95/95 145/145/145
f 52/52/52 128/128/128 108/108/108
f 103/103/103 44/44/44 25/25/25
f 116/116/116 30/30/30 22/22/22
f 160/160/160 5/5/5 60/60/60
f 12/12/12 114/114/114 42/42/42
f 156/156/156 116/116/116 22/22/22
f 156/156/156 152/152/152 12/12/12
f 156/156/156 12/12/12 116/116/116
f 158/158/158 72/72/72 119/119/119
f 168/168/168 165/165/165 32/32/32
f 170/170/170 138/138/138 109/109/109
f 156/156/156 22/22/22 165/165/165
f 140/140/140 165/165/165 168/168/168
f 146/146/146 81/81/81 110/110/110
f 82/82/82 137/137/137 47/47/47
f 172/172/172 168/168/168 60/60/60
f 51/51/51 162/162/162 96/96/96
f 134/134/134 140/140/140 168/168/168
f 140/140/140 152/152/152 156/156/156
f 140/140/140 156/156/156 165/165/165
f 69/69/69 94/94/94 92/92/92
f 152/152/152 166/166/166 58/58/58
f 167/167/167 106/106/106 81/81/81
f 118/118/118 29/29/29 79/79/79
f 170/170/170 53/53/53 138/138/138
f 76/76/76 112/112/112 113/113/113
f 45/45/45 98/98/98 36/36/36
f 134/134/134 166/166/166 140/140/140
f 81/81/81 153/153/153 110/110/110
f 38/38/38 92/92/92 94/94/94
f 99/99/99 36/36/36 56/56/56
f 83/83/83 58/58/58 54/54/54
f 23/23/23 29/29/29 118/118/118
f 151/151/151 58/58/58 83/83/83
f 34/34/34 80/80/80 110/110/110
f 84/84/84 12/12/12 152/152/152
f 84/84/84 58/58/58 151/151/151
f 47/47/47 114/114/114 84/84/84
f 84/84/84 114/114/114 12/12/12
f 47/47/47 84/84/84 41/41/41
f 82/82/82 47/47/47 41/41/41
f 36/36/36 99/99/99 129/129/129
f 20/20/20 137/137/137 82/82/82
f 70/70/70 129/129/129 99/99/99
f 20/20/20 66/66/66 137/137/137
f 55/55/55 20/20/20 82/82/82
f 98/98/98 138/138/138 36/36/36
f 171/171/171 33/33/33 139/139/139
f 102/102/102 68/68/68 35/35/35
f 141/141/141 38/38/38 65/65/65
f 130/130/130 2/2/2 119/119/119
f 174/174/174 21/21/21 141/141/141
f 53/53/53 56/56/56 36/36/36
f 92/92/92 18/18/18 69/69/69
f 48/48/48 89/89/89 90/90/90
f 139/139/139 43/43/43 171/171/171
f 62/62/62 136/136/136 117/117/117
f 122/122/122 53/53/53 97/97/97
f 42/42/42 115/115/115 116/116/116
f 122/122/122 97/97/97 159/159/159
f 135/135/135 126/126/126 44/44/44
f 109/109/109 98/98/98 10/10/10
f 94/94/94 173/173/173 120/120/120
f 152/152/152 140/140/140 166/166/166
f 129/129/129 45/45/45 36/36/36
f 48/48/48 38/38/38 141/141/141
f 123/123/123 32/32/32 62/62/62
f 133/133/133 27/27/27 78/78/78
f 135/135/135 17/17/17 126/126/126
f 136/136/136 62/62/62 32/32/32
f 41/41/41 85/85/85 82/82/82
f 93/93/93 45/45/45 38/38/38
f 129/129/129 70/70/70 18/18/18
f 55/55/55 82/82/82 85/85/85
f 53/53/53 36/36/36 138/138/138
f 92/92/92 38/38/38 45/45/45
f 145/145/145 24/24/24 147/147/147
f 18/18/18 92/92/92 129/129/129
f 29/29/29 23/23/23 119/119/119
f 48/48/48 141/141/141 89/89/89
f 45/45/45 129/129/129 92/92/92
f 21/21/21 89/89/89 141/141/141
f 6/6/6 91/91/91 64/64/64
f 105/105/105 139/139/139 33/33/33
f 149/149/149 44/44/44 126/126/126
f 46/46/46 101/101/101 142/142/142
f 93/93/93 38/38/38 48/48/48
f 39/39/39 169/169/169 90/90/90
f 37/37/37 24/24/24 145/145/145
f 24/24/24 59/59/59 83/83/83
f 120/120/120 65/65/65 94/94/94
f 54/54/54 147/147/147 24/24/24
f 77/77/77 23/23/23 118/118/118
f 37/37/37 145/145/145 49/49/49
f 157/157/157 90/90/90 169/169/169
f 123/123/123 27/27/27 61/61/61
f 124/124/124 61/61/61 27/27/27
f 60/60/60 168/168/168 160/160/160
f 16/16/16 100/100/100 139/139/139
f 56/56/56 53/53/53 122/122/122
f 6/6/6 55/55/55 85/85/85
f 5/5/5 96/96/96 162/162/162
f 24/24/24 83/83/83 54/54/54
f 24/24/24 143/143/143 59/59/59
f 143/143/143 169/169/169 39/39/39
f 69/69/69 173/173/173 94/94/94
f 101/101/101 107/107/107 43/43/43
f 30/30/30 116/116/116 115/115/115
f 107/107/107 101/101/101 11/11/11
f 157/157/157 169/169/169 37/37/37
f 135/135/135 103/103/103 29/29/29
f 95/95/95 49/49/49 145/145/145
f 135/135/135 72/72/72 17/17/17
f 37/37/37 169/169/169 143/143/143
f 37/37/37 143/143/143 24/24/24
f 157/157/157 37/37/37 49/49/49
f 157/157/157 10/10/10 90/90/90
f 109/109/109 138/138/138 98/98/98
f 109/109/109 10/10/10 157/157/157
f 135/135/135 44/44/44 103/103/103
f 170/170/170 97/97/97 53/53/53
f 27/27/27 123/123/123 125/125/125
f 62/62/62 125/125/125 123/123/123
f 151/151/151 83/83/83 41/41/41
f 139/139/139 100/100/100 43/43/43
f 131/131/131 79/79/79 29/29/29
f 73/73/73 4/4/4 102/102/102
f 121/121/121 57/57/57 104/104/104
f 40/40/40 46/46/46 86/86/86
f 57/57/57 97/97/97 170/170/170
f 57/57/57 170/170/170 95/95/95
f 78/78/78 125/125/125 9/9/9
f 131/131/131 13/13/13 79/79/79
f 74/74/74 16/16/16 139/139/139
f 110/110/110 155/155/155 34/34/34
f 87/87/87 46/46/46 40/40/40
f 2/2/2 158/158/158 119/119/119
f 110/110/110 153/153/153 155/155/155
f 108/108/108 111/111/111 52/52/52
f 121/121/121 97/97/97 57/57/57
f 34/34/34 121/121/121 104/104/104
f 39/39/39 91/91/91 143/143/143
f 107/107/107 106/106/106 33/33/33
f 11/11/11 155/155/155 144/144/144
f 155/155/155 121/121/121 34/34/34
f 64/64/64 91/91/91 89/89/89
f 106/106/106 153/153/153 81/81/81
f 77/77/77 130/130/130 23/23/23
f 39/39/39 90/90/90 89/89/89
f 50/50/50 160/160/160 168/168/168
f 65/65/65 174/174/174 141/141/141
f 85/85/85 59/59/59 6/6/6
f 91/91/91 6/6/6 59/59/59
f 154/154/154 51/51/51 96/96/96
f 167/167/167 111/111/111 106/106/106
f 33/33/33 106/106/106 111/111/111
f 107/107/107 33/33/33 171/171/171
f 167/167/167 132/132/132 28/28/28
f 64/64/64 89/89/89 21/21/21
f 105/105/105 33/33/33 111/111/111
f 71/71/71 128/128/128 126/126/126
f 105/105/105 111/111/111 108/108/108
f 147/147/147 54/54/54 166/166/166
f 74/74/74 108/108/108 8/8/8
f 58/58/58 166/166/166 54/54/54
f 74/74/74 105/105/105 108/108/108
f 26/26/26 126/126/126 128/128/128
f 134/134/134 164/164/164 166/166/166
f 11/11/11 144/144/144 107/107/107
f 43/43/43 107/107/107 171/171/171
f 144/144/144 155/155/155 153/153/153
f 144/144/144 153/153/153 106/106/106
f 144/144/144 106/106/106 107/107/107
f 113/113/113 112/112/112 31/31/31
f 159/159/159 87/87/87 40/40/40
f 4/4/4 68/68/68 102/102/102
f 148/148/148 101/101/101 46/46/46
f 103/103/103 25/25/25 131/131/131
f 168/168/168 172/172/172 134/134/134
f 74/74/74 139/139/139 105/105/105
f 8/8/8 108/108/108 128/128/128
f 7/7/7 99/99/99 88/88/88
f 19/19/19 86/86/86 142/142/142
f 125/125/125 62/62/62 9/9/9
f 79/79/79 133/133/133 118/118/118
f 102/102/102 35/35/35 100/100/100
f 80/80/80 34/34/34 104/104/104
f 40/40/40 86/86/86 88/88/88
f 150/150/150 60/60/60 5/5/5
f 148/148/148 46/46/46 87/87/87
f 46/46/46 142/142/142 86/86/86
f 117/117/117 9/9/9 62/62/62
f 67/67/67 88/88/88 86/86/86
f 56/56/56 122/122/122 40/40/40
f 159/159/159 155/155/155 148/148/148
f 122/122/122 159/159/159 40/40/40
f 159/159/159 148/148/148 87/87/87
f 148/148/148 155/155/155 11/11/11
f 148/148/148 11/11/11 101/101/101
f 159/159/159 97/97/97 121/121/121
f 159/159/159 121/121/121 155/155/155
f 56/56/56 40/40/40 88/88/88
f 30/30/30 117/117/117 136/136/136
f 56/56/56 88/88/88 99/99/99
f 3/3/3 120/120/120 173/173/173
f 7/7/7 70/70/70 99/99/99
f 67/67/67 7/7/7 88/88/88
f 19/19/19 67/67/67 86/86/86
f 68/68/68 19/19/19 142/142/142
f 73/73/73 102/102/102 100/100/100
f 59/59/59 85/85/85 83/83/83
f 59/59/59 143/143/143 91/91/91
f 135/135/135 29/29/29 72/72/72
f 16/16/16 73/73/73 100/100/100
f 79/79/79 124/124/124 133/133/133
f 142/142/142 35/35/35 68/68/68
f 119/119/119 23/23/23 130/130/130
f 42/42/42 112/112/112 115/115/115
f 28/28/28 128/128/128 52/52/52
f 131/131/131 25/25/25 13/13/13
f 60/60/60 63/63/63 172/172/172
f 161/161/161 172/172/172 63/63/63
f 126/126/126 17/17/17 71/71/71
f 132/132/132 26/26/26 28/28/28
f 128/128/128 71/71/71 8/8/8
f 125/125/125 78/78/78 27/27/27
f 167/167/167 28/28/28 52/52/52
f 26/26/26 128/128/128 28/28/28
f 115/115/115 75/75/75 30/30/30
f 117/117/117 30/30/30 75/75/75
f 95/95/95 170/170/170 49/49/49
f 100/100/100 35/35/35 43/43/43
f 103/103/103 131/131/131 29/29/29
f 35/35/35 142/142/142 101/101/101
f 101/101/101 43/43/43 35/35/35
f 13/13/13 25/25/25 127/127/127
f 149/149/149 126/126/126 26/26/26
f 149/149/149 26/26/26 127/127/127
f 51/51/51 127/127/127 132/132/132
f 118/118/118 133/133/133 14/14/14
f 27/27/27 133/133/133 124/124/124
f 79/79/79 13/13/13 124/124/124
f 163/163/163 132/132/132 167/167/167
f 132/132/132 127/127/127 26/26/26
f 167/167/167 52/52/52 111/111/111
f 163/163/163 167/167/167 81/81/81
f 63/63/63 95/95/95 161/161/161
f 146/146/146 163/163/163 81/81/81
f 150/150/150 5/5/5 146/146/146
f 96/96/96 160/160/160 50/50/50
f 50/50/50 168/168/168 32/32/32
f 161/161/161 164/164/164 172/172/172
f 96/96/96 5/5/5 160/160/160
f 134/134/134 172/172/172 164/164/164
f 124/124/124 154/154/154 61/61/61
f 12/12/12 42/42/42 116/116/116
f 123/123/123 50/50/50 32/32/32
f 96/96/96 50/50/50 61/61/61
f 15/15/15 115/115/115 112/112/112
f 77/77/77 118/118/118 14/14/14
f 154/154/154 127/127/127 51/51/51
f 162/162/162 146/146/146 5/5/5
f 51/51/51 132/132/132 163/163/163
f 85/85/85 41/41/41 83/83/83
f 154/154/154 96/96/96 61/61/61
f 154/154/154 13/13/13 127/127/127
f 124/124/124 13/13/13 154/154/154
f 149/149/149 127/127/127 44/44/44
f 25/25/25 44/44/44 127/127/127
f 10/10/10 93/93/93 90/90/90
f 123/123/123 61/61/61 50/50/50
f 150/150/150 146/146/146 80/80/80
f 119/119/119 72/72/72 29/29/29
f 137/137/137 31/31/31 47/47/47
f 9/9/9 117/117/117 75/75/75
f 146/146/146 110/110/110 80/80/80
f 48/48/48 90/90/90 93/93/93
f 14/14/14 133/133/133 78/78/78
f 39/39/39 89/89/89 91/91/91
f 94/94/94 65/65/65 38/38/38
f 104/104/104 95/95/95 63/63/63
f 95/95/95 104/104/104 57/57/57
