# frame 000998 
# time 0.499500 
# name Box 
v 0.720042 0.500349 -0.362648
v 0.718810 0.793486 -0.090492
v 0.719954 0.521332 0.202648
v 0.720042 0.500349 -0.362648
v 0.719954 0.521332 0.202648
v 0.721186 0.228195 -0.069508
v 0.320046 0.498668 -0.362648
v 0.321190 0.226514 -0.069508
v 0.319958 0.519651 0.202648
v 0.320046 0.498668 -0.362648
v 0.319958 0.519651 0.202648
v 0.318814 0.791805 -0.090492
v 0.720042 0.500349 -0.362648
v 0.320046 0.498668 -0.362648
v 0.318814 0.791805 -0.090492
v 0.720042 0.500349 -0.362648
v 0.318814 0.791805 -0.090492
v 0.718810 0.793486 -0.090492
v 0.718810 0.793486 -0.090492
v 0.318814 0.791805 -0.090492
v 0.319958 0.519651 0.202648
v 0.718810 0.793486 -0.090492
v 0.319958 0.519651 0.202648
v 0.719954 0.521332 0.202648
v 0.719954 0.521332 0.202648
v 0.319958 0.519651 0.202648
v 0.321190 0.226514 -0.069508
v 0.719954 0.521332 0.202648
v 0.321190 0.226514 -0.069508
v 0.721186 0.228195 -0.069508
v 0.320046 0.498668 -0.362648
v 0.720042 0.500349 -0.362648
v 0.721186 0.228195 -0.069508
v 0.320046 0.498668 -0.362648
v 0.721186 0.228195 -0.069508
v 0.321190 0.226514 -0.069508
vn 0.199998 0.000841 0.000000
vn 0.199998 0.000841 0.000000
vn 0.199998 0.000841 0.000000
vn 0.199998 0.000841 0.000000
vn 0.199998 0.000841 0.000000
vn 0.199998 0.000841 0.000000
vn -0.199998 -0.000841 0.000000
vn -0.199998 -0.000841 0.000000
vn -0.199998 -0.000841 0.000000
vn -0.199998 -0.000841 0.000000
vn -0.199998 -0.000841 0.000000
vn -0.199998 -0.000841 0.000000
vn -0.000572 0.136077 -0.146570
vn -0.000572 0.136077 -0.146570
vn -0.000572 0.136077 -0.146570
vn -0.000572 0.136077 -0.146570
vn -0.000572 0.136077 -0.146570
vn -0.000572 0.136077 -0.146570
vn -0.000616 0.146569 0.136078
vn -0.000616 0.146569 0.136078
vn -0.000616 0.146569 0.136078
vn -0.000616 0.146569 0.136078
vn -0.000616 0.146569 0.136078
vn -0.000616 0.146569 0.136078
vn 0.000572 -0.136077 0.146570
vn 0.000572 -0.136077 0.146570
vn 0.000572 -0.136077 0.146570
vn 0.000572 -0.136077 0.146570
vn 0.000572 -0.136077 0.146570
vn 0.000572 -0.136077 0.146570
vn 0.000616 -0.146569 -0.136078
vn 0.000616 -0.146569 -0.136078
vn 0.000616 -0.146569 -0.136078
vn 0.000616 -0.146569 -0.136078
vn 0.000616 -0.146569 -0.136078
vn 0.000616 -0.146569 -0.136078
f 1/1/1 2/2/2 3/3/3
f 4/4/4 5/5/5 6/6/6
f 7/7/7 8/8/8 9/9/9
f 10/10/10 11/11/11 12/12/12
f 13/13/13 14/14/14 15/15/15
f 16/16/16 17/17/17 18/18/18
f 19/19/19 20/20/20 21/21/21
f 22/22/22 23/23/23 24/24/24
f 25/25/25 26/26/26 27/27/27
f 28/28/28 29/29/29 30/30/30
f 31/31/31 32/32/32 33/33/33
f 34/34/34 35/35/35 36/36/36
