# frame 000974 
# time 0.487500 
# name Cloth3D 
v -0.000000 0.000000 -0.000000
v 1.000000 0.000000 -0.000000
v -0.000000 1.000000 0.000000
v 1.000000 1.000000 0.000000
v 0.652801 0.412177 0.156725
v -0.000000 0.500000 0.000000
v 0.500000 1.000000 0.000000
v 1.000000 0.500000 0.000000
v 0.500000 -0.000000 0.000000
v 0.242836 0.755603 0.095890
v 0.754839 0.750524 0.080241
v 0.246304 0.249025 0.078822
v 0.753211 0.251686 0.068225
v 0.750000 0.000000 0.000000
v 0.250000 0.000000 0.000000
v 1.000000 0.750000 0.000000
v 1.000000 0.250000 0.000000
v 0.250000 1.000000 0.000000
v 0.750000 1.000000 0.000000
v 0.000000 0.250000 0.000000
v 0.000000 0.750000 -0.000000
v 0.363937 0.219803 0.083329
v 0.060842 0.876319 0.018991
v 0.230216 0.516021 0.135469
v 0.815657 0.251301 0.053891
v 0.883361 0.375576 0.061576
v 0.625153 0.124729 0.046300
v 0.887672 0.437337 0.073219
v 0.873786 0.127856 0.005404
v 0.374651 0.124453 0.048340
v 0.124124 0.124485 0.025850
v 0.492896 0.248902 0.104583
v 0.884737 0.624656 0.066184
v 0.634972 0.624020 0.150221
v 0.873709 0.873379 0.013763
v 0.373734 0.879517 0.060883
v 0.250002 0.601873 0.130126
v 0.122096 0.878476 0.036625
v 0.115529 0.626646 0.068272
v 0.626160 0.877340 0.055742
v 0.120164 0.375727 0.056258
v 0.248937 0.122682 0.045735
v 0.877419 0.748853 0.041148
v 0.877075 0.251566 0.036437
v 0.247056 0.881812 0.059179
v 0.751799 0.877825 0.047404
v 0.122573 0.250059 0.043058
v 0.119218 0.752664 0.054018
v 0.313063 0.594732 0.156097
v 0.585891 0.304350 0.119560
v 0.746839 0.365851 0.114416
v 0.889296 0.499616 0.077792
v 0.434531 0.774628 0.101464
v 0.234082 0.455306 0.131526
v 0.000000 0.375000 0.000000
v 0.500254 0.877465 0.058748
v 0.501287 0.624798 0.157373
v 0.242842 0.376152 0.106125
v 0.116871 0.500870 0.067308
v 0.522601 0.412824 0.164192
v 0.628285 0.250068 0.093609
v 0.500143 0.123588 0.052928
v 0.498001 0.503584 0.202525
v 0.000000 0.625000 0.000000
v 0.000000 0.875000 0.000000
v 0.000000 0.125000 0.000000
v 0.625000 1.000000 0.000000
v 0.875000 1.000000 0.000000
v 0.125000 1.000000 0.000000
v 0.375000 1.000000 0.000000
v 1.000000 0.375000 0.000000
v 1.000000 0.125000 0.000000
v 1.000000 0.875000 0.000000
v 1.000000 0.625000 0.000000
v 0.375000 0.000000 0.000000
v 0.125000 0.000000 0.000000
v 0.875000 0.000000 0.000000
v 0.625000 0.000000 0.000000
v 0.749290 0.127541 0.026816
v 0.639815 0.561098 0.177239
v 0.784872 0.515196 0.150192
v 0.061676 0.313066 0.022759
v 0.177367 0.438036 0.095801
v 0.182645 0.312767 0.073025
v 0.059420 0.438098 0.030888
v 0.687806 0.939337 0.027540
v 0.690851 0.815884 0.077000
v 0.562698 0.939210 0.030071
v 0.056903 0.688586 0.034338
v 0.178161 0.690964 0.088069
v 0.058146 0.563164 0.034075
v 0.186168 0.941797 0.028798
v 0.181940 0.817903 0.066501
v 0.061035 0.938886 0.014300
v 0.432242 0.561748 0.179686
v 0.680218 0.360828 0.124925
v 0.508035 0.725791 0.117318
v 0.308820 0.818962 0.085636
v 0.437317 0.939568 0.030975
v 0.937347 0.811460 0.013113
v 0.813893 0.812248 0.045408
v 0.936809 0.936766 0.001105
v 0.874908 0.190326 0.019062
v 0.570662 0.561645 0.180406
v 0.942428 0.624398 0.032854
v 0.834741 0.591452 0.101597
v 0.819512 0.686746 0.077393
v 0.945919 0.562247 0.039948
v 0.312251 0.705478 0.121518
v 0.939001 0.250715 0.019904
v 0.887560 0.562214 0.073717
v 0.187180 0.060997 0.021204
v 0.062142 0.062194 0.010125
v 0.184996 0.186002 0.052343
v 0.312386 0.062647 0.021500
v 0.311034 0.186627 0.067647
v 0.437557 0.063232 0.022729
v 0.811734 0.064087 0.007515
v 0.936828 0.063519 -0.004744
v -0.000000 0.937500 0.000000
v 0.592846 0.676252 0.135234
v 0.525975 0.805463 0.085351
v 0.563711 0.185778 0.077723
v 0.688332 0.189501 0.056965
v 0.562432 0.060274 0.029566
v 0.939901 0.313329 0.024672
v 0.818539 0.313716 0.071067
v 0.945657 0.437463 0.039178
v 0.311713 0.940869 0.031513
v 0.937500 0.000000 -0.000000
v 0.812491 0.190805 0.031353
v 0.811066 0.373033 0.092660
v 0.687027 0.063125 0.018494
v 0.395513 0.376632 0.146953
v 0.938304 0.188058 0.016229
v 0.437226 0.186498 0.076508
v 0.060770 0.187481 0.021095
v 0.377197 0.773868 0.105421
v 0.939635 0.686455 0.025489
v 0.000000 0.812500 -0.000000
v 0.061583 0.813417 0.019875
v 0.812268 0.937755 0.016268
v 0.175170 0.563892 0.101779
v 0.776561 0.647738 0.105729
v 0.313169 0.533227 0.183531
v 0.719966 0.504398 0.202656
v 0.320174 0.502716 0.202659
v 0.722771 0.773742 0.083016
v 0.880167 0.313288 0.049868
v 0.623538 0.504086 0.202559
v 0.181148 0.375872 0.081905
v 0.291277 0.332843 0.109813
v 0.726792 0.606502 0.140791
v 0.718329 0.304165 0.090014
v 0.677143 0.669154 0.127391
v 0.328002 0.276456 0.097700
v 0.272236 0.660126 0.123536
v 1.000000 0.062500 -0.000000
v 0.615222 0.774790 0.102039
v 0.602217 0.367177 0.142453
v 0.414234 0.503233 0.202523
v 0.730901 0.421492 0.147857
v 0.778211 0.453292 0.139913
v 0.360065 0.429423 0.165801
v 0.417222 0.256215 0.102100
v 0.311736 0.389159 0.137199
v 0.832759 0.480577 0.116784
v 0.477477 0.362034 0.145450
v 0.176456 0.627325 0.096049
v 0.410894 0.663143 0.142603
v 0.879887 0.686422 0.051782
v 0.447270 0.420305 0.165459
v 0.062500 1.000000 0.000000
vt 0.000000 0.000000
vt 1.000000 0.000000
vt 0.000000 1.000000
vt 1.000000 1.000000
vt 0.639940 0.411013
vt 0.000000 0.500000
vt 0.500000 1.000000
vt 1.000000 0.500000
vt 0.500000 0.000000
vt 0.250000 0.750000
vt 0.750000 0.750000
vt 0.250000 0.250000
vt 0.750000 0.250000
vt 0.750000 0.000000
vt 0.250000 0.000000
vt 1.000000 0.750000
vt 1.000000 0.250000
vt 0.250000 1.000000
vt 0.750000 1.000000
vt 0.000000 0.250000
vt 0.000000 0.750000
vt 0.365347 0.220303
vt 0.062500 0.875000
vt 0.245672 0.515386
vt 0.812500 0.250000
vt 0.875000 0.375000
vt 0.625000 0.125000
vt 0.875000 0.437500
vt 0.875000 0.125000
vt 0.375000 0.125000
vt 0.125000 0.125000
vt 0.492214 0.250470
vt 0.875000 0.625000
vt 0.625000 0.625000
vt 0.875000 0.875000
vt 0.375000 0.875000
vt 0.262101 0.599801
vt 0.125000 0.875000
vt 0.125000 0.625000
vt 0.625000 0.875000
vt 0.125000 0.375000
vt 0.250000 0.125000
vt 0.875000 0.750000
vt 0.875000 0.250000
vt 0.250000 0.875000
vt 0.750000 0.875000
vt 0.125000 0.250000
vt 0.125000 0.750000
vt 0.325445 0.593646
vt 0.581754 0.304126
vt 0.736041 0.365469
vt 0.875000 0.500000
vt 0.435664 0.771773
vt 0.248222 0.455442
vt 0.000000 0.375000
vt 0.500000 0.875000
vt 0.500000 0.625000
vt 0.250000 0.375000
vt 0.125000 0.500000
vt 0.519707 0.411902
vt 0.625000 0.250000
vt 0.500000 0.125000
vt 0.497125 0.504208
vt 0.000000 0.625000
vt 0.000000 0.875000
vt 0.000000 0.125000
vt 0.625000 1.000000
vt 0.875000 1.000000
vt 0.125000 1.000000
vt 0.375000 1.000000
vt 1.000000 0.375000
vt 1.000000 0.125000
vt 1.000000 0.875000
vt 1.000000 0.625000
vt 0.375000 0.000000
vt 0.125000 0.000000
vt 0.875000 0.000000
vt 0.625000 0.000000
vt 0.750000 0.125000
vt 0.625000 0.562500
vt 0.760524 0.515669
vt 0.062500 0.312500
vt 0.187500 0.437500
vt 0.187500 0.312500
vt 0.062500 0.437500
vt 0.687500 0.937500
vt 0.687500 0.812500
vt 0.562500 0.937500
vt 0.062500 0.687500
vt 0.187500 0.687500
vt 0.062500 0.562500
vt 0.187500 0.937500
vt 0.187500 0.812500
vt 0.062500 0.937500
vt 0.437500 0.562500
vt 0.671367 0.358455
vt 0.506884 0.725192
vt 0.312500 0.812500
vt 0.437500 0.937500
vt 0.937500 0.812500
vt 0.812500 0.812500
vt 0.937500 0.937500
vt 0.875000 0.187500
vt 0.562500 0.562500
vt 0.937500 0.625000
vt 0.819332 0.591237
vt 0.812500 0.687500
vt 0.937500 0.562500
vt 0.319123 0.700934
vt 0.937500 0.250000
vt 0.875000 0.562500
vt 0.187500 0.062500
vt 0.062500 0.062500
vt 0.187500 0.187500
vt 0.312500 0.062500
vt 0.312500 0.187500
vt 0.437500 0.062500
vt 0.812500 0.062500
vt 0.937500 0.062500
vt 0.000000 0.937500
vt 0.587160 0.675778
vt 0.525016 0.804189
vt 0.562500 0.187500
vt 0.687500 0.187500
vt 0.562500 0.062500
vt 0.937500 0.312500
vt 0.812500 0.312500
vt 0.937500 0.437500
vt 0.312500 0.937500
vt 0.937500 0.000000
vt 0.812500 0.187500
vt 0.800716 0.372483
vt 0.687500 0.062500
vt 0.400647 0.375957
vt 0.937500 0.187500
vt 0.437500 0.187500
vt 0.062500 0.187500
vt 0.380019 0.768564
vt 0.937500 0.687500
vt 0.000000 0.812500
vt 0.062500 0.812500
vt 0.812500 0.937500
vt 0.187500 0.562500
vt 0.765906 0.648544
vt 0.331404 0.533038
vt 0.690039 0.504730
vt 0.341971 0.502710
vt 0.718294 0.771897
vt 0.875000 0.312500
vt 0.608396 0.504736
vt 0.187500 0.375000
vt 0.296906 0.332149
vt 0.711873 0.607167
vt 0.713437 0.300753
vt 0.668274 0.669022
vt 0.331126 0.276226
vt 0.281585 0.657008
vt 1.000000 0.062500
vt 0.611736 0.771102
vt 0.595175 0.366343
vt 0.422982 0.503982
vt 0.713353 0.422290
vt 0.758105 0.454518
vt 0.370877 0.428346
vt 0.418341 0.256674
vt 0.320334 0.388669
vt 0.812755 0.481587
vt 0.477835 0.361491
vt 0.187500 0.625000
vt 0.414679 0.661630
vt 0.875000 0.687500
vt 0.450521 0.418925
vt 0.062500 1.000000
vn -0.081921 -0.081921 0.993266
vn -0.038518 0.038518 0.998515
vn 0.000000 0.000000 1.000000
vn 0.008306 0.008306 0.999931
vn 0.122769 -0.456043 0.881449
vn -0.488513 -0.011396 0.872482
vn 0.003309 0.444973 0.895538
vn 0.585050 -0.005838 0.810976
vn -0.029714 -0.391640 0.919639
vn -0.210024 0.233386 0.949432
vn 0.285270 0.259442 0.922665
vn -0.182180 -0.235761 0.954582
vn 0.187551 -0.304242 0.933949
vn 0.042434 -0.199660 0.978946
vn 0.000639 -0.338954 0.940803
vn 0.299826 0.052265 0.952561
vn 0.313712 -0.045105 0.948446
vn -0.008247 0.458089 0.888868
vn 0.042628 0.334900 0.941289
vn -0.343763 -0.004407 0.939046
vn -0.392841 0.044480 0.918530
vn -0.090119 -0.333215 0.938534
vn -0.293347 0.039760 0.955179
vn -0.522421 0.036174 0.851920
vn 0.229891 -0.301724 0.925264
vn 0.406132 -0.190885 0.893655
vn 0.134171 -0.333689 0.933086
vn 0.494919 -0.152583 0.855438
vn 0.106030 -0.166460 0.980331
vn -0.038061 -0.370953 0.927871
vn -0.165682 -0.157712 0.973487
vn -0.018418 -0.357532 0.933719
vn 0.457875 0.184615 0.869636
vn 0.117910 0.364289 0.923791
vn 0.190132 0.160962 0.968473
vn 0.010557 0.409538 0.912232
vn -0.377111 0.214531 0.900979
vn -0.245540 0.145060 0.958472
vn -0.453112 0.060388 0.889406
vn 0.034529 0.393077 0.918857
vn -0.413458 -0.127617 0.901536
vn -0.055698 -0.299215 0.952559
vn 0.333155 0.177868 0.925943
vn 0.255288 -0.210339 0.943708
vn -0.084208 0.357989 0.929921
vn 0.163461 0.312321 0.935808
vn -0.311943 -0.101356 0.944679
vn -0.385671 0.141486 0.911723
vn -0.230434 0.336641 0.913002
vn 0.104278 -0.346342 0.932295
vn 0.246120 -0.413750 0.876491
vn 0.548849 -0.010854 0.835851
vn 0.046624 0.359923 0.931816
vn -0.484628 -0.211346 0.848804
vn -0.407261 -0.031014 0.912785
vn 0.021949 0.389696 0.920682
vn 0.006930 0.351498 0.936163
vn -0.345421 -0.261884 0.901167
vn -0.498198 -0.035545 0.866335
vn 0.008172 -0.370530 0.928785
vn 0.172890 -0.344257 0.922820
vn -0.038645 -0.384891 0.922153
vn -0.004286 -0.003773 0.999984
vn -0.506951 -0.003055 0.861970
vn -0.283512 0.017769 0.958804
vn -0.250668 -0.044863 0.967033
vn 0.007872 0.425607 0.904874
vn 0.060319 0.122485 0.990636
vn -0.045654 0.320228 0.946240
vn 0.006213 0.461284 0.887231
vn 0.475556 -0.058322 0.877750
vn 0.034637 -0.066408 0.997191
vn 0.108457 0.046762 0.993001
vn 0.499127 0.081020 0.862733
vn -0.002835 -0.333211 0.942848
vn -0.043637 -0.248175 0.967732
vn 0.039226 -0.000225 0.999230
vn 0.045168 -0.363558 0.930476
vn 0.152271 -0.239525 0.958875
vn 0.058756 0.410570 0.909934
vn 0.556174 0.015103 0.830929
vn -0.380368 -0.043771 0.923799
vn -0.440710 -0.183527 0.878688
vn -0.330559 -0.152735 0.931345
vn -0.465633 -0.047236 0.883717
vn 0.040729 0.388255 0.920651
vn 0.136439 0.319364 0.937759
vn 0.011537 0.422594 0.906245
vn -0.461827 0.055564 0.885228
vn -0.354390 0.140634 0.924462
vn -0.501890 -0.006610 0.864906
vn -0.076284 0.374255 0.924183
vn -0.259542 0.218622 0.940661
vn -0.201560 0.162806 0.965851
vn -0.029165 0.359499 0.932689
vn 0.174206 -0.434531 0.883649
vn 0.008832 0.357967 0.933692
vn -0.058928 0.338553 0.939100
vn 0.010270 0.440999 0.897449
vn 0.214951 0.104049 0.971066
vn 0.280301 0.228500 0.932319
vn 0.054968 0.054819 0.996982
vn 0.119976 -0.252998 0.959999
vn 0.024470 0.372384 0.927756
vn 0.494996 0.125823 0.859737
vn 0.454617 0.207348 0.866216
vn 0.353463 0.257724 0.899245
vn 0.527628 0.071158 0.846490
vn -0.155333 0.269213 0.950471
vn 0.283430 -0.069118 0.956499
vn 0.506820 0.102176 0.855976
vn -0.066071 -0.282526 0.956981
vn -0.114890 -0.115412 0.986651
vn -0.216245 -0.197696 0.956114
vn 0.000991 -0.346920 0.937894
vn -0.071030 -0.315038 0.946417
vn -0.026172 -0.374057 0.927036
vn 0.088575 -0.123980 0.988323
vn -0.002199 -0.001696 0.999996
vn -0.174587 0.058196 0.982921
vn 0.064548 0.339491 0.938392
vn 0.007432 0.372229 0.928111
vn 0.067734 -0.360338 0.930360
vn 0.187896 -0.323511 0.927381
vn 0.020343 -0.387605 0.921601
vn 0.360936 -0.108277 0.926284
vn 0.296792 -0.266688 0.916947
vn 0.525055 -0.080715 0.847232
vn -0.001722 0.449292 0.893384
vn 0.000000 0.076726 0.997052
vn 0.191115 -0.299784 0.934668
vn 0.380450 -0.283597 0.880244
vn 0.084754 -0.277996 0.956836
vn -0.087743 -0.371741 0.924181
vn 0.156078 -0.139222 0.977884
vn -0.059379 -0.372556 0.926108
vn -0.271175 -0.058895 0.960727
vn 0.004693 0.346872 0.937901
vn 0.415224 0.125040 0.901085
vn -0.306766 0.002147 0.951783
vn -0.331391 0.045425 0.942399
vn 0.125676 0.240510 0.962476
vn -0.448816 0.064631 0.891284
vn 0.323972 0.309153 0.894129
vn -0.276334 0.412734 0.867923
vn 0.325213 -0.009799 0.945590
vn -0.240167 0.206002 0.948622
vn 0.235311 0.267062 0.934509
vn 0.351036 -0.202394 0.914227
vn 0.015748 0.126949 0.991784
vn -0.370083 -0.184251 0.910544
vn -0.243970 -0.296737 0.923269
vn 0.272694 0.381926 0.883046
vn 0.199410 -0.365507 0.909198
vn 0.174622 0.332181 0.926911
vn -0.128529 -0.311779 0.941421
vn -0.291783 0.229164 0.928626
vn -0.077119 -0.000000 0.997022
vn 0.053347 0.355201 0.933267
vn 0.108928 -0.385980 0.916054
vn -0.019770 0.019831 0.999608
vn 0.294657 -0.452336 0.841766
vn 0.476065 -0.302941 0.825584
vn -0.083867 -0.432155 0.897891
vn -0.085141 -0.354731 0.931084
vn -0.248999 -0.384857 0.888754
vn 0.529099 -0.112701 0.841043
vn -0.015945 -0.344719 0.938570
vn -0.391480 0.114187 0.913075
vn -0.029110 0.328683 0.943992
vn 0.383744 0.204126 0.900596
vn -0.030435 -0.367248 0.929625
vn -0.058141 0.174422 0.982953
f 1/1/1 113/113/113 66/66/66
f 31/31/31 137/137/137 113/113/113
f 109/109/109 157/157/157 49/49/49
f 98/98/98 45/45/45 10/10/10
f 84/84/84 151/151/151 41/41/41
f 112/112/112 114/114/114 31/31/31
f 114/114/114 47/47/47 31/31/31
f 84/84/84 152/152/152 58/58/58
f 137/137/137 66/66/66 113/113/113
f 93/93/93 10/10/10 45/45/45
f 150/150/150 104/104/104 63/63/63
f 161/161/161 145/145/145 147/147/147
f 170/170/170 109/109/109 49/49/49
f 164/164/164 147/147/147 166/166/166
f 42/42/42 114/114/114 112/112/112
f 76/76/76 113/113/113 1/1/1
f 147/147/147 164/164/164 161/161/161
f 15/15/15 112/112/112 76/76/76
f 115/115/115 15/15/15 75/75/75
f 146/146/146 162/162/162 163/163/163
f 60/60/60 150/150/150 63/63/63
f 150/150/150 80/80/80 104/104/104
f 22/22/22 30/30/30 136/136/136
f 162/162/162 51/51/51 163/163/163
f 32/32/32 165/165/165 136/136/136
f 22/22/22 136/136/136 165/165/165
f 161/161/161 95/95/95 145/145/145
f 9/9/9 125/125/125 117/117/117
f 103/103/103 44/44/44 25/25/25
f 116/116/116 30/30/30 22/22/22
f 160/160/160 5/5/5 60/60/60
f 12/12/12 114/114/114 42/42/42
f 156/156/156 116/116/116 22/22/22
f 156/156/156 152/152/152 12/12/12
f 156/156/156 12/12/12 116/116/116
f 158/158/158 72/72/72 119/119/119
f 168/168/168 165/165/165 32/32/32
f 170/170/170 138/138/138 109/109/109
f 156/156/156 22/22/22 165/165/165
f 27/27/27 125/125/125 133/133/133
f 65/65/65 140/140/140 23/23/23
f 82/82/82 137/137/137 47/47/47
f 172/172/172 168/168/168 60/60/60
f 51/51/51 162/162/162 96/96/96
f 78/78/78 133/133/133 125/125/125
f 34/34/34 80/80/80 153/153/153
f 39/39/39 89/89/89 91/91/91
f 69/69/69 94/94/94 92/92/92
f 152/152/152 166/166/166 58/58/58
f 167/167/167 106/106/106 81/81/81
f 118/118/118 29/29/29 79/79/79
f 170/170/170 53/53/53 138/138/138
f 112/112/112 15/15/15 42/42/42
f 45/45/45 98/98/98 36/36/36
f 48/48/48 90/90/90 93/93/93
f 134/134/134 152/152/152 156/156/156
f 38/38/38 92/92/92 94/94/94
f 99/99/99 36/36/36 56/56/56
f 83/83/83 58/58/58 54/54/54
f 128/128/128 26/26/26 71/71/71
f 151/151/151 58/58/58 83/83/83
f 126/126/126 110/110/110 17/17/17
f 84/84/84 12/12/12 152/152/152
f 84/84/84 58/58/58 151/151/151
f 47/47/47 114/114/114 84/84/84
f 84/84/84 114/114/114 12/12/12
f 47/47/47 84/84/84 41/41/41
f 82/82/82 47/47/47 41/41/41
f 36/36/36 99/99/99 129/129/129
f 20/20/20 137/137/137 82/82/82
f 70/70/70 129/129/129 99/99/99
f 20/20/20 66/66/66 137/137/137
f 55/55/55 20/20/20 82/82/82
f 98/98/98 138/138/138 36/36/36
f 171/171/171 33/33/33 139/139/139
f 102/102/102 68/68/68 35/35/35
f 146/146/146 153/153/153 80/80/80
f 130/130/130 2/2/2 119/119/119
f 140/140/140 21/21/21 141/141/141
f 53/53/53 56/56/56 36/36/36
f 92/92/92 18/18/18 69/69/69
f 34/34/34 121/121/121 104/104/104
f 139/139/139 43/43/43 171/171/171
f 62/62/62 136/136/136 117/117/117
f 122/122/122 53/53/53 97/97/97
f 42/42/42 115/115/115 116/116/116
f 122/122/122 97/97/97 159/159/159
f 75/75/75 117/117/117 115/115/115
f 109/109/109 98/98/98 10/10/10
f 94/94/94 173/173/173 120/120/120
f 14/14/14 133/133/133 78/78/78
f 129/129/129 45/45/45 36/36/36
f 152/152/152 134/134/134 166/166/166
f 123/123/123 32/32/32 62/62/62
f 133/133/133 79/79/79 27/27/27
f 30/30/30 115/115/115 117/117/117
f 136/136/136 62/62/62 32/32/32
f 41/41/41 85/85/85 82/82/82
f 93/93/93 45/45/45 38/38/38
f 129/129/129 70/70/70 18/18/18
f 55/55/55 82/82/82 85/85/85
f 53/53/53 36/36/36 138/138/138
f 92/92/92 38/38/38 45/45/45
f 145/145/145 24/24/24 147/147/147
f 18/18/18 92/92/92 129/129/129
f 126/126/126 71/71/71 26/26/26
f 38/38/38 141/141/141 93/93/93
f 45/45/45 129/129/129 92/92/92
f 48/48/48 93/93/93 141/141/141
f 6/6/6 91/91/91 64/64/64
f 105/105/105 139/139/139 33/33/33
f 149/149/149 44/44/44 126/126/126
f 46/46/46 101/101/101 142/142/142
f 134/134/134 156/156/156 165/165/165
f 39/39/39 169/169/169 90/90/90
f 37/37/37 24/24/24 145/145/145
f 24/24/24 59/59/59 83/83/83
f 120/120/120 65/65/65 94/94/94
f 54/54/54 147/147/147 24/24/24
f 65/65/65 23/23/23 94/94/94
f 37/37/37 145/145/145 49/49/49
f 157/157/157 90/90/90 169/169/169
f 123/123/123 27/27/27 61/61/61
f 124/124/124 61/61/61 27/27/27
f 60/60/60 168/168/168 160/160/160
f 16/16/16 100/100/100 139/139/139
f 56/56/56 53/53/53 122/122/122
f 6/6/6 55/55/55 85/85/85
f 5/5/5 96/96/96 162/162/162
f 24/24/24 83/83/83 54/54/54
f 24/24/24 143/143/143 59/59/59
f 143/143/143 169/169/169 39/39/39
f 69/69/69 173/173/173 94/94/94
f 141/141/141 21/21/21 48/48/48
f 30/30/30 116/116/116 115/115/115
f 89/89/89 48/48/48 21/21/21
f 157/157/157 169/169/169 37/37/37
f 135/135/135 103/103/103 29/29/29
f 95/95/95 49/49/49 145/145/145
f 135/135/135 72/72/72 17/17/17
f 37/37/37 169/169/169 143/143/143
f 37/37/37 143/143/143 24/24/24
f 157/157/157 37/37/37 49/49/49
f 157/157/157 10/10/10 90/90/90
f 109/109/109 138/138/138 98/98/98
f 109/109/109 10/10/10 157/157/157
f 135/135/135 44/44/44 103/103/103
f 170/170/170 97/97/97 53/53/53
f 27/27/27 123/123/123 125/125/125
f 62/62/62 125/125/125 123/123/123
f 151/151/151 83/83/83 41/41/41
f 139/139/139 100/100/100 43/43/43
f 131/131/131 79/79/79 29/29/29
f 73/73/73 4/4/4 102/102/102
f 110/110/110 126/126/126 44/44/44
f 40/40/40 46/46/46 86/86/86
f 57/57/57 97/97/97 170/170/170
f 57/57/57 170/170/170 95/95/95
f 78/78/78 125/125/125 9/9/9
f 85/85/85 59/59/59 6/6/6
f 74/74/74 16/16/16 139/139/139
f 141/141/141 23/23/23 140/140/140
f 87/87/87 46/46/46 40/40/40
f 2/2/2 158/158/158 119/119/119
f 110/110/110 135/135/135 17/17/17
f 108/108/108 111/111/111 52/52/52
f 121/121/121 97/97/97 57/57/57
f 135/135/135 110/110/110 44/44/44
f 39/39/39 91/91/91 143/143/143
f 107/107/107 106/106/106 33/33/33
f 11/11/11 155/155/155 144/144/144
f 155/155/155 121/121/121 34/34/34
f 64/64/64 91/91/91 89/89/89
f 106/106/106 153/153/153 81/81/81
f 38/38/38 23/23/23 141/141/141
f 57/57/57 104/104/104 121/121/121
f 50/50/50 160/160/160 168/168/168
f 23/23/23 38/38/38 94/94/94
f 107/107/107 43/43/43 11/11/11
f 101/101/101 11/11/11 43/43/43
f 154/154/154 51/51/51 96/96/96
f 167/167/167 111/111/111 106/106/106
f 33/33/33 106/106/106 111/111/111
f 107/107/107 33/33/33 171/171/171
f 167/167/167 132/132/132 28/28/28
f 64/64/64 89/89/89 21/21/21
f 105/105/105 33/33/33 111/111/111
f 108/108/108 52/52/52 8/8/8
f 105/105/105 111/111/111 108/108/108
f 147/147/147 54/54/54 166/166/166
f 74/74/74 108/108/108 8/8/8
f 58/58/58 166/166/166 54/54/54
f 74/74/74 105/105/105 108/108/108
f 128/128/128 8/8/8 52/52/52
f 134/134/134 164/164/164 166/166/166
f 11/11/11 144/144/144 107/107/107
f 43/43/43 107/107/107 171/171/171
f 144/144/144 155/155/155 153/153/153
f 144/144/144 153/153/153 106/106/106
f 144/144/144 106/106/106 107/107/107
f 115/115/115 42/42/42 15/15/15
f 159/159/159 87/87/87 40/40/40
f 4/4/4 68/68/68 102/102/102
f 148/148/148 101/101/101 46/46/46
f 103/103/103 25/25/25 131/131/131
f 168/168/168 172/172/172 134/134/134
f 74/74/74 139/139/139 105/105/105
f 62/62/62 117/117/117 125/125/125
f 7/7/7 99/99/99 88/88/88
f 19/19/19 86/86/86 142/142/142
f 90/90/90 48/48/48 39/39/39
f 79/79/79 133/133/133 118/118/118
f 102/102/102 35/35/35 100/100/100
f 80/80/80 34/34/34 104/104/104
f 40/40/40 86/86/86 88/88/88
f 150/150/150 60/60/60 5/5/5
f 148/148/148 46/46/46 87/87/87
f 46/46/46 142/142/142 86/86/86
f 89/89/89 39/39/39 48/48/48
f 67/67/67 88/88/88 86/86/86
f 56/56/56 122/122/122 40/40/40
f 159/159/159 155/155/155 148/148/148
f 122/122/122 159/159/159 40/40/40
f 159/159/159 148/148/148 87/87/87
f 148/148/148 155/155/155 11/11/11
f 148/148/148 11/11/11 101/101/101
f 159/159/159 97/97/97 121/121/121
f 159/159/159 121/121/121 155/155/155
f 56/56/56 40/40/40 88/88/88
f 30/30/30 117/117/117 136/136/136
f 56/56/56 88/88/88 99/99/99
f 3/3/3 120/120/120 173/173/173
f 7/7/7 70/70/70 99/99/99
f 67/67/67 7/7/7 88/88/88
f 19/19/19 67/67/67 86/86/86
f 68/68/68 19/19/19 142/142/142
f 73/73/73 102/102/102 100/100/100
f 59/59/59 85/85/85 83/83/83
f 59/59/59 143/143/143 91/91/91
f 135/135/135 29/29/29 72/72/72
f 16/16/16 73/73/73 100/100/100
f 13/13/13 124/124/124 131/131/131
f 142/142/142 35/35/35 68/68/68
f 153/153/153 155/155/155 34/34/34
f 95/95/95 104/104/104 57/57/57
f 28/28/28 128/128/128 52/52/52
f 131/131/131 25/25/25 13/13/13
f 60/60/60 63/63/63 172/172/172
f 161/161/161 172/172/172 63/63/63
f 126/126/126 17/17/17 71/71/71
f 132/132/132 26/26/26 28/28/28
f 128/128/128 71/71/71 8/8/8
f 124/124/124 27/27/27 79/79/79
f 167/167/167 28/28/28 52/52/52
f 26/26/26 128/128/128 28/28/28
f 77/77/77 130/130/130 119/119/119
f 77/77/77 119/119/119 118/118/118
f 95/95/95 170/170/170 49/49/49
f 100/100/100 35/35/35 43/43/43
f 103/103/103 131/131/131 29/29/29
f 35/35/35 142/142/142 101/101/101
f 101/101/101 43/43/43 35/35/35
f 13/13/13 25/25/25 127/127/127
f 149/149/149 126/126/126 26/26/26
f 149/149/149 26/26/26 127/127/127
f 51/51/51 127/127/127 132/132/132
f 118/118/118 133/133/133 14/14/14
f 79/79/79 131/131/131 124/124/124
f 91/91/91 6/6/6 59/59/59
f 163/163/163 132/132/132 167/167/167
f 132/132/132 127/127/127 26/26/26
f 167/167/167 52/52/52 111/111/111
f 163/163/163 167/167/167 81/81/81
f 63/63/63 95/95/95 161/161/161
f 146/146/146 163/163/163 81/81/81
f 150/150/150 5/5/5 146/146/146
f 96/96/96 160/160/160 50/50/50
f 50/50/50 168/168/168 32/32/32
f 161/161/161 164/164/164 172/172/172
f 96/96/96 5/5/5 160/160/160
f 134/134/134 172/172/172 164/164/164
f 124/124/124 154/154/154 61/61/61
f 12/12/12 42/42/42 116/116/116
f 123/123/123 50/50/50 32/32/32
f 96/96/96 50/50/50 61/61/61
f 104/104/104 95/95/95 63/63/63
f 77/77/77 118/118/118 14/14/14
f 154/154/154 127/127/127 51/51/51
f 162/162/162 146/146/146 5/5/5
f 51/51/51 132/132/132 163/163/163
f 85/85/85 41/41/41 83/83/83
f 154/154/154 96/96/96 61/61/61
f 154/154/154 13/13/13 127/127/127
f 124/124/124 13/13/13 154/154/154
f 149/149/149 127/127/127 44/44/44
f 25/25/25 44/44/44 127/127/127
f 10/10/10 93/93/93 90/90/90
f 123/123/123 61/61/61 50/50/50
f 150/150/150 146/146/146 80/80/80
f 119/119/119 72/72/72 29/29/29
f 137/137/137 31/31/31 47/47/47
f 9/9/9 117/117/117 75/75/75
f 134/134/134 165/165/165 168/168/168
f 146/146/146 81/81/81 153/153/153
f 119/119/119 29/29/29 118/118/118
f 31/31/31 113/113/113 112/112/112
f 76/76/76 112/112/112 113/113/113
