# frame 000908 
# time 0.454500 
# name Cloth3D 
v -0.000000 0.000000 -0.000000
v 1.000000 0.000000 -0.000000
v -0.000000 1.000000 0.000000
v 1.000000 1.000000 0.000000
v 0.499668 0.495357 0.183330
v -0.000000 0.500000 0.000000
v 0.500000 1.000000 0.000000
v 1.000000 0.500000 0.000000
v 0.500000 -0.000000 0.000000
v 0.249375 0.744889 0.055951
v 0.754658 0.747179 0.070195
v 0.243641 0.247934 0.081873
v 0.756597 0.246262 0.089518
v 0.750000 0.000000 0.000000
v 0.250000 0.000000 0.000000
v 1.000000 0.750000 0.000000
v 1.000000 0.250000 0.000000
v 0.250000 1.000000 0.000000
v 0.750000 1.000000 0.000000
v 0.000000 0.250000 0.000000
v 0.000000 0.750000 -0.000000
v 0.362112 0.219847 0.085756
v 0.875910 0.060807 0.018569
v 0.230726 0.512017 0.124700
v 0.817349 0.247982 0.067586
v 0.884843 0.373085 0.068245
v 0.625845 0.124958 0.049165
v 0.886882 0.435621 0.073832
v 0.876986 0.123073 0.031392
v 0.374028 0.123763 0.051444
v 0.125119 0.126260 0.015162
v 0.491875 0.251300 0.101985
v 0.880716 0.622533 0.057104
v 0.631625 0.619927 0.128392
v 0.877730 0.875295 0.030873
v 0.376199 0.872083 0.036225
v 0.255845 0.593049 0.098382
v 0.125556 0.873426 0.016029
v 0.119084 0.622543 0.053712
v 0.626442 0.871537 0.036891
v 0.117117 0.374302 0.060602
v 0.248862 0.125159 0.037052
v 0.881405 0.749487 0.052600
v 0.878276 0.248912 0.045879
v 0.251099 0.871933 0.025987
v 0.751944 0.873616 0.036635
v 0.121397 0.249960 0.042423
v 0.123404 0.747504 0.034493
v 0.318083 0.587135 0.122668
v 0.585739 0.304920 0.122957
v 0.750981 0.361032 0.133150
v 0.885587 0.497879 0.071913
v 0.436437 0.766722 0.072321
v 0.228243 0.452527 0.138077
v 0.000000 0.375000 0.000000
v 0.501315 0.872010 0.040283
v 0.500707 0.619102 0.132144
v 0.237143 0.372958 0.117744
v 0.114760 0.497853 0.066897
v 0.360909 0.495272 0.177543
v 0.628760 0.249926 0.099275
v 0.499831 0.127159 0.046508
v 0.496451 0.457248 0.197656
v 0.000000 0.625000 0.000000
v 0.000000 0.875000 0.000000
v 0.000000 0.125000 0.000000
v 0.625000 1.000000 0.000000
v 0.875000 1.000000 0.000000
v 0.125000 1.000000 0.000000
v 0.375000 1.000000 0.000000
v 1.000000 0.375000 0.000000
v 1.000000 0.125000 0.000000
v 1.000000 0.875000 0.000000
v 1.000000 0.625000 0.000000
v 0.375000 0.000000 0.000000
v 0.125000 0.000000 0.000000
v 0.875000 0.000000 0.000000
v 0.625000 0.000000 0.000000
v 0.751748 0.121866 0.048242
v 0.638957 0.495516 0.182267
v 0.778629 0.512576 0.136405
v 0.058754 0.312482 0.028114
v 0.169818 0.434549 0.106251
v 0.178630 0.310795 0.079960
v 0.055891 0.436775 0.035714
v 0.688235 0.935382 0.015561
v 0.690014 0.808017 0.052040
v 0.563215 0.935206 0.017369
v 0.059404 0.686314 0.025816
v 0.184282 0.683309 0.059206
v 0.057763 0.561191 0.031717
v 0.188358 0.935994 0.009212
v 0.187740 0.809066 0.032515
v 0.063084 0.936782 0.001198
v 0.432649 0.557074 0.156060
v 0.683440 0.356667 0.143688
v 0.508332 0.719538 0.092124
v 0.313392 0.807797 0.047122
v 0.438339 0.936795 0.022076
v 0.941633 0.812431 0.026827
v 0.816630 0.812220 0.052329
v 0.938822 0.938387 0.014905
v 0.877640 0.185896 0.039022
v 0.567834 0.556514 0.156281
v 0.938340 0.623443 0.024298
v 0.828254 0.587898 0.086545
v 0.819680 0.685448 0.075428
v 0.941784 0.561268 0.032990
v 0.317501 0.694860 0.082169
v 0.694071 0.579382 0.138064
v 0.881496 0.559657 0.061747
v 0.187717 0.063065 0.012404
v 0.062757 0.062882 0.004455
v 0.184251 0.186503 0.048026
v 0.312344 0.062168 0.022850
v 0.310086 0.187704 0.065493
v 0.437380 0.062952 0.024455
v 0.813020 0.060466 0.022648
v 0.938419 0.061548 0.013128
v -0.000000 0.937500 0.000000
v 0.568410 0.457533 0.197672
v 0.526556 0.799095 0.061854
v 0.563497 0.188901 0.073256
v 0.690535 0.184107 0.076736
v 0.562530 0.063707 0.022581
v 0.939594 0.312247 0.026580
v 0.821940 0.309613 0.086364
v 0.943006 0.436571 0.036153
v 0.313465 0.935680 0.014676
v 0.937500 0.000000 -0.000000
v 0.816494 0.184387 0.057819
v 0.813083 0.369769 0.103643
v 0.687674 0.060969 0.026535
v 0.391617 0.375253 0.155061
v 0.938902 0.186983 0.020099
v 0.436299 0.187609 0.076446
v 0.061367 0.187922 0.016362
v 0.380118 0.764276 0.071399
v 0.939639 0.686352 0.025622
v 0.370587 0.317802 0.126267
v 0.062634 0.811261 0.011955
v 0.813465 0.937061 0.016703
v 0.177136 0.559328 0.088704
v 0.775391 0.646549 0.100164
v 0.319035 0.526864 0.150625
v 0.720161 0.458051 0.197765
v 0.320369 0.456369 0.197767
v 0.721962 0.768083 0.064792
v 0.881520 0.310814 0.057635
v 0.621446 0.457743 0.197685
v 0.246925 0.187298 0.057051
v 0.286108 0.329657 0.122117
v 0.722400 0.603553 0.124215
v 0.722398 0.297926 0.113057
v 0.674408 0.664297 0.106826
v 0.324642 0.274929 0.105342
v 0.278239 0.650237 0.086877
v 0.721880 0.537803 0.150944
v 0.614205 0.764776 0.069109
v 0.602185 0.365159 0.151795
v 0.413431 0.456900 0.197655
v 0.112070 0.435715 0.071495
v 0.780712 0.450586 0.149406
v 0.125163 0.063045 0.008246
v 0.415173 0.257389 0.102653
v 0.305369 0.385666 0.153217
v 0.830907 0.479131 0.114502
v 0.475287 0.361449 0.150545
v 0.182171 0.620082 0.069962
v 0.412863 0.656082 0.113186
v 0.880422 0.685941 0.052700
v 1.000000 0.937500 0.000000
v 0.590890 0.668942 0.106853
v 0.176636 0.373662 0.089612
vt 0.000000 0.000000
vt 1.000000 0.000000
vt 0.000000 1.000000
vt 1.000000 1.000000
vt 0.500000 0.500000
vt 0.000000 0.500000
vt 0.500000 1.000000
vt 1.000000 0.500000
vt 0.500000 0.000000
vt 0.250000 0.750000
vt 0.750000 0.750000
vt 0.250000 0.250000
vt 0.750000 0.250000
vt 0.750000 0.000000
vt 0.250000 0.000000
vt 1.000000 0.750000
vt 1.000000 0.250000
vt 0.250000 1.000000
vt 0.750000 1.000000
vt 0.000000 0.250000
vt 0.000000 0.750000
vt 0.365347 0.220303
vt 0.875000 0.062500
vt 0.245672 0.515386
vt 0.812500 0.250000
vt 0.875000 0.375000
vt 0.625000 0.125000
vt 0.875000 0.437500
vt 0.875000 0.125000
vt 0.375000 0.125000
vt 0.125000 0.125000
vt 0.492214 0.250470
vt 0.875000 0.625000
vt 0.625000 0.625000
vt 0.875000 0.875000
vt 0.375000 0.875000
vt 0.262101 0.599801
vt 0.125000 0.875000
vt 0.125000 0.625000
vt 0.625000 0.875000
vt 0.125000 0.375000
vt 0.250000 0.125000
vt 0.875000 0.750000
vt 0.875000 0.250000
vt 0.250000 0.875000
vt 0.750000 0.875000
vt 0.125000 0.250000
vt 0.125000 0.750000
vt 0.325445 0.593646
vt 0.581754 0.304126
vt 0.736041 0.365469
vt 0.875000 0.500000
vt 0.435664 0.771773
vt 0.248222 0.455442
vt 0.000000 0.375000
vt 0.500000 0.875000
vt 0.500000 0.625000
vt 0.250000 0.375000
vt 0.125000 0.500000
vt 0.375000 0.500000
vt 0.625000 0.250000
vt 0.500000 0.125000
vt 0.497288 0.461641
vt 0.000000 0.625000
vt 0.000000 0.875000
vt 0.000000 0.125000
vt 0.625000 1.000000
vt 0.875000 1.000000
vt 0.125000 1.000000
vt 0.375000 1.000000
vt 1.000000 0.375000
vt 1.000000 0.125000
vt 1.000000 0.875000
vt 1.000000 0.625000
vt 0.375000 0.000000
vt 0.125000 0.000000
vt 0.875000 0.000000
vt 0.625000 0.000000
vt 0.750000 0.125000
vt 0.625000 0.500000
vt 0.760524 0.515669
vt 0.062500 0.312500
vt 0.187500 0.437500
vt 0.187500 0.312500
vt 0.062500 0.437500
vt 0.687500 0.937500
vt 0.687500 0.812500
vt 0.562500 0.937500
vt 0.062500 0.687500
vt 0.187500 0.687500
vt 0.062500 0.562500
vt 0.187500 0.937500
vt 0.187500 0.812500
vt 0.062500 0.937500
vt 0.437500 0.562500
vt 0.671367 0.358455
vt 0.506884 0.725192
vt 0.312500 0.812500
vt 0.437500 0.937500
vt 0.937500 0.812500
vt 0.812500 0.812500
vt 0.937500 0.937500
vt 0.875000 0.187500
vt 0.562500 0.562500
vt 0.937500 0.625000
vt 0.819332 0.591237
vt 0.812500 0.687500
vt 0.937500 0.562500
vt 0.319123 0.700934
vt 0.682510 0.583771
vt 0.875000 0.562500
vt 0.187500 0.062500
vt 0.062500 0.062500
vt 0.187500 0.187500
vt 0.312500 0.062500
vt 0.312500 0.187500
vt 0.437500 0.062500
vt 0.812500 0.062500
vt 0.937500 0.062500
vt 0.000000 0.937500
vt 0.561580 0.461708
vt 0.525016 0.804189
vt 0.562500 0.187500
vt 0.687500 0.187500
vt 0.562500 0.062500
vt 0.937500 0.312500
vt 0.812500 0.312500
vt 0.937500 0.437500
vt 0.312500 0.937500
vt 0.937500 0.000000
vt 0.812500 0.187500
vt 0.800716 0.372483
vt 0.687500 0.062500
vt 0.400647 0.375957
vt 0.937500 0.187500
vt 0.437500 0.187500
vt 0.062500 0.187500
vt 0.380019 0.768564
vt 0.937500 0.687500
vt 0.377625 0.317694
vt 0.062500 0.812500
vt 0.812500 0.937500
vt 0.187500 0.562500
vt 0.765906 0.648544
vt 0.331404 0.533038
vt 0.693079 0.462431
vt 0.343549 0.459837
vt 0.718294 0.771897
vt 0.875000 0.312500
vt 0.608522 0.461751
vt 0.250000 0.187500
vt 0.296906 0.332149
vt 0.711873 0.607167
vt 0.713437 0.300753
vt 0.668274 0.669022
vt 0.331126 0.276226
vt 0.281585 0.657008
vt 0.705472 0.541710
vt 0.611736 0.771102
vt 0.595175 0.366343
vt 0.423352 0.460871
vt 0.125000 0.437500
vt 0.758105 0.454518
vt 0.125000 0.062500
vt 0.418341 0.256674
vt 0.320334 0.388669
vt 0.812755 0.481587
vt 0.477835 0.361491
vt 0.187500 0.625000
vt 0.414679 0.661630
vt 0.875000 0.687500
vt 1.000000 0.937500
vt 0.587160 0.675778
vt 0.187500 0.375000
vn -0.032632 -0.032632 0.998935
vn 0.071199 -0.142399 0.987245
vn -0.010254 0.005127 0.999934
vn 0.161660 0.080830 0.983531
vn -0.000623 0.369868 0.929084
vn -0.506057 0.015758 0.862356
vn 0.019096 0.290398 0.956716
vn 0.515580 0.010551 0.856776
vn 0.008270 -0.344858 0.938618
vn -0.153228 0.251780 0.955577
vn 0.071926 0.276863 0.958214
vn -0.187852 -0.343373 0.920221
vn 0.239915 -0.270286 0.932409
vn 0.011106 -0.377344 0.926006
vn -0.040866 -0.271393 0.961601
vn 0.406455 -0.006802 0.913645
vn 0.360587 -0.025328 0.932382
vn -0.022102 0.177432 0.983885
vn -0.005460 0.244083 0.969739
vn -0.345252 -0.047951 0.937284
vn -0.289016 0.057775 0.955579
vn -0.071027 -0.366882 0.927552
vn 0.077285 -0.251559 0.964751
vn -0.410623 0.295262 0.862676
vn 0.327847 -0.218281 0.919168
vn 0.473777 -0.124808 0.871756
vn -0.038316 -0.372864 0.927095
vn 0.545836 -0.043399 0.836767
vn 0.188789 -0.166819 0.967745
vn -0.044807 -0.364206 0.930240
vn -0.138704 -0.160496 0.977242
vn 0.002894 -0.392168 0.919889
vn 0.437526 0.071014 0.896397
vn 0.042706 0.393905 0.918158
vn 0.098713 0.195716 0.975680
vn -0.070732 0.268268 0.960744
vn -0.282734 0.331408 0.900128
vn -0.108469 0.142527 0.983830
vn -0.303190 0.159359 0.939511
vn 0.021038 0.289909 0.956823
vn -0.443983 -0.160467 0.881550
vn -0.111813 -0.303170 0.946354
vn 0.307281 0.066947 0.949261
vn 0.366226 -0.145005 0.919158
vn -0.078278 0.207487 0.975101
vn 0.003156 0.278409 0.960458
vn -0.320115 -0.177338 0.930633
vn -0.197378 0.158960 0.967354
vn -0.249420 0.373382 0.893519
vn 0.015063 -0.411232 0.911406
vn 0.311977 -0.363572 0.877773
vn 0.554645 0.090549 0.827146
vn -0.026021 0.331606 0.943059
vn -0.492942 -0.016301 0.869909
vn -0.486007 -0.030871 0.873409
vn 0.012742 0.292778 0.956096
vn -0.001013 0.377344 0.926072
vn -0.384952 -0.269669 0.882661
vn -0.488127 0.095922 0.867485
vn -0.085521 0.489474 0.867814
vn 0.003357 -0.372827 0.927895
vn 0.020110 -0.376059 0.926378
vn -0.000715 0.144028 0.989573
vn -0.440317 0.023935 0.897523
vn -0.080331 0.033031 0.996221
vn -0.160423 -0.048370 0.985863
vn 0.005480 0.244357 0.969670
vn 0.004279 0.243109 0.969990
vn -0.030278 0.074955 0.996727
vn -0.028069 0.272510 0.961743
vn 0.490164 -0.035766 0.870896
vn 0.263453 -0.026539 0.964307
vn 0.313300 0.037835 0.948900
vn 0.396947 0.038318 0.917041
vn -0.003494 -0.353536 0.935414
vn -0.043386 -0.126500 0.991017
vn 0.043442 -0.278870 0.959346
vn -0.018657 -0.363516 0.931401
vn 0.081029 -0.333954 0.939100
vn 0.021587 0.405267 0.913943
vn 0.467191 0.287065 0.836257
vn -0.393285 -0.077543 0.916141
vn -0.475672 -0.121172 0.871237
vn -0.380025 -0.197951 0.903547
vn -0.514715 -0.024922 0.856999
vn -0.000018 0.273679 0.961821
vn 0.001707 0.286803 0.957988
vn 0.019535 0.286145 0.957987
vn -0.336355 0.082190 0.938142
vn -0.205153 0.194399 0.959229
vn -0.455459 0.044636 0.889137
vn -0.045057 0.157798 0.986443
vn -0.111662 0.185517 0.976276
vn -0.042527 0.044042 0.998124
vn -0.069128 0.400482 0.913693
vn 0.099734 -0.434037 0.895357
vn 0.009477 0.356730 0.934160
vn -0.129572 0.263896 0.955808
vn -0.012102 0.284117 0.958713
vn 0.325394 0.062618 0.943503
vn 0.083049 0.225897 0.970605
vn 0.146822 0.115835 0.982357
vn 0.301881 -0.118022 0.946012
vn 0.010999 0.391813 0.919979
vn 0.417865 0.052899 0.906968
vn 0.431136 0.165066 0.887060
vn 0.300634 0.155025 0.941056
vn 0.442443 0.107285 0.890356
vn -0.188010 0.297075 0.936162
vn 0.139280 0.378130 0.915215
vn 0.462246 0.146518 0.874563
vn -0.079265 -0.196500 0.977295
vn -0.060755 -0.078826 0.995035
vn -0.209834 -0.287124 0.934628
vn -0.049698 -0.334045 0.941246
vn -0.122570 -0.355995 0.926415
vn 0.013496 -0.366498 0.930321
vn 0.058756 -0.302173 0.951441
vn 0.106221 -0.164788 0.980593
vn -0.015390 -0.000000 0.999882
vn 0.003836 0.032869 0.999452
vn 0.021046 0.315548 0.948676
vn -0.007519 -0.387014 0.922043
vn 0.026810 -0.346157 0.937793
vn -0.012322 -0.353679 0.935286
vn 0.440912 -0.105521 0.891326
vn 0.384340 -0.236270 0.892446
vn 0.537750 -0.011281 0.843029
vn -0.046650 0.232041 0.971587
vn 0.000000 -0.211534 0.977371
vn 0.250648 -0.194578 0.948322
vn 0.462440 -0.194416 0.865073
vn -0.005740 -0.377828 0.925858
vn -0.041016 -0.455661 0.889208
vn 0.307750 -0.065348 0.949220
vn -0.001607 -0.369420 0.929261
vn -0.222482 -0.103321 0.969446
vn -0.096810 0.311493 0.945304
vn 0.412174 -0.002608 0.911101
vn -0.064157 -0.408498 0.910501
vn -0.191667 0.085888 0.977695
vn 0.010061 0.256774 0.966419
vn -0.318943 0.256311 0.912458
vn 0.277339 0.217299 0.935876
vn -0.219316 0.474645 0.852416
vn 0.311662 0.074857 0.947240
vn -0.204874 0.122333 0.971113
vn 0.019893 0.303332 0.952677
vn 0.449442 -0.179395 0.875111
vn 0.001246 0.121911 0.992540
vn -0.129141 -0.344851 0.929731
vn -0.229634 -0.361748 0.903552
vn 0.197766 0.345790 0.917234
vn 0.174794 -0.352156 0.919475
vn 0.070646 0.367892 0.927181
vn -0.093334 -0.379058 0.920654
vn -0.248681 0.289394 0.924343
vn 0.254875 0.405135 0.878011
vn 0.038998 0.326802 0.944288
vn 0.023957 -0.444441 0.895488
vn -0.018049 0.045925 0.998782
vn -0.518342 -0.064417 0.852744
vn 0.573876 -0.014569 0.818813
vn -0.065903 -0.115199 0.991154
vn -0.036728 -0.376215 0.925804
vn -0.265379 -0.411452 0.871941
vn 0.543369 0.076054 0.836042
vn -0.008749 -0.433241 0.901235
vn -0.229668 0.248517 0.941006
vn -0.098967 0.357074 0.928818
vn 0.376748 0.029562 0.925844
vn 0.239955 0.000000 0.970784
vn 0.030134 0.382441 0.923488
vn -0.432248 -0.211260 0.876659
f 1/1/1 113/113/113 66/66/66
f 31/31/31 137/137/137 113/113/113
f 109/109/109 157/157/157 49/49/49
f 76/76/76 112/112/112 164/164/164
f 84/84/84 174/174/174 41/41/41
f 112/112/112 114/114/114 31/31/31
f 114/114/114 47/47/47 31/31/31
f 84/84/84 152/152/152 58/58/58
f 137/137/137 66/66/66 113/113/113
f 164/164/164 112/112/112 31/31/31
f 115/115/115 112/112/112 15/15/15
f 12/12/12 114/114/114 151/151/151
f 170/170/170 109/109/109 49/49/49
f 164/164/164 31/31/31 113/113/113
f 42/42/42 114/114/114 112/112/112
f 76/76/76 113/113/113 1/1/1
f 76/76/76 164/164/164 113/113/113
f 15/15/15 112/112/112 76/76/76
f 115/115/115 15/15/15 75/75/75
f 117/117/117 115/115/115 75/75/75
f 116/116/116 115/115/115 30/30/30
f 125/125/125 62/62/62 117/117/117
f 22/22/22 30/30/30 136/136/136
f 30/30/30 115/115/115 117/117/117
f 32/32/32 165/165/165 136/136/136
f 22/22/22 136/136/136 165/165/165
f 12/12/12 151/151/151 116/116/116
f 151/151/151 42/42/42 116/116/116
f 151/151/151 114/114/114 42/42/42
f 116/116/116 30/30/30 22/22/22
f 42/42/42 112/112/112 115/115/115
f 42/42/42 115/115/115 116/116/116
f 156/156/156 116/116/116 22/22/22
f 156/156/156 152/152/152 12/12/12
f 156/156/156 12/12/12 116/116/116
f 147/147/147 134/134/134 161/161/161
f 168/168/168 165/165/165 32/32/32
f 170/170/170 138/138/138 109/109/109
f 156/156/156 22/22/22 165/165/165
f 140/140/140 165/165/165 168/168/168
f 174/174/174 162/162/162 41/41/41
f 82/82/82 137/137/137 47/47/47
f 150/150/150 146/146/146 80/80/80
f 161/161/161 168/168/168 63/63/63
f 134/134/134 140/140/140 168/168/168
f 140/140/140 152/152/152 156/156/156
f 140/140/140 156/156/156 165/165/165
f 69/69/69 94/94/94 92/92/92
f 152/152/152 166/166/166 58/58/58
f 167/167/167 106/106/106 81/81/81
f 104/104/104 80/80/80 34/34/34
f 170/170/170 53/53/53 138/138/138
f 161/161/161 134/134/134 168/168/168
f 45/45/45 98/98/98 36/36/36
f 134/134/134 166/166/166 140/140/140
f 174/174/174 83/83/83 162/162/162
f 38/38/38 92/92/92 94/94/94
f 99/99/99 36/36/36 56/56/56
f 83/83/83 58/58/58 54/54/54
f 23/23/23 29/29/29 118/118/118
f 174/174/174 58/58/58 83/83/83
f 85/85/85 41/41/41 162/162/162
f 84/84/84 12/12/12 152/152/152
f 84/84/84 58/58/58 174/174/174
f 47/47/47 114/114/114 84/84/84
f 84/84/84 114/114/114 12/12/12
f 47/47/47 84/84/84 41/41/41
f 82/82/82 47/47/47 41/41/41
f 36/36/36 99/99/99 129/129/129
f 20/20/20 137/137/137 82/82/82
f 70/70/70 129/129/129 99/99/99
f 20/20/20 66/66/66 137/137/137
f 55/55/55 20/20/20 82/82/82
f 98/98/98 138/138/138 36/36/36
f 171/171/171 33/33/33 139/139/139
f 102/102/102 68/68/68 35/35/35
f 94/94/94 69/69/69 3/3/3
f 130/130/130 2/2/2 119/119/119
f 2/2/2 72/72/72 119/119/119
f 53/53/53 56/56/56 36/36/36
f 92/92/92 18/18/18 69/69/69
f 21/21/21 141/141/141 65/65/65
f 139/139/139 43/43/43 171/171/171
f 62/62/62 136/136/136 117/117/117
f 122/122/122 53/53/53 97/97/97
f 60/60/60 95/95/95 145/145/145
f 122/122/122 97/97/97 159/159/159
f 135/135/135 126/126/126 44/44/44
f 109/109/109 98/98/98 10/10/10
f 89/89/89 39/39/39 48/48/48
f 152/152/152 140/140/140 166/166/166
f 129/129/129 45/45/45 36/36/36
f 48/48/48 38/38/38 141/141/141
f 123/123/123 32/32/32 62/62/62
f 130/130/130 119/119/119 77/77/77
f 135/135/135 17/17/17 126/126/126
f 136/136/136 62/62/62 32/32/32
f 41/41/41 85/85/85 82/82/82
f 93/93/93 45/45/45 38/38/38
f 129/129/129 70/70/70 18/18/18
f 55/55/55 82/82/82 85/85/85
f 53/53/53 36/36/36 138/138/138
f 92/92/92 38/38/38 45/45/45
f 145/145/145 24/24/24 147/147/147
f 18/18/18 92/92/92 129/129/129
f 29/29/29 23/23/23 119/119/119
f 48/48/48 141/141/141 89/89/89
f 45/45/45 129/129/129 92/92/92
f 21/21/21 89/89/89 141/141/141
f 6/6/6 91/91/91 64/64/64
f 105/105/105 139/139/139 33/33/33
f 149/149/149 44/44/44 126/126/126
f 85/85/85 59/59/59 6/6/6
f 93/93/93 38/38/38 48/48/48
f 39/39/39 169/169/169 90/90/90
f 37/37/37 24/24/24 145/145/145
f 24/24/24 59/59/59 83/83/83
f 120/120/120 65/65/65 94/94/94
f 54/54/54 147/147/147 24/24/24
f 77/77/77 23/23/23 118/118/118
f 37/37/37 145/145/145 49/49/49
f 157/157/157 90/90/90 169/169/169
f 123/123/123 27/27/27 61/61/61
f 124/124/124 61/61/61 27/27/27
f 59/59/59 85/85/85 162/162/162
f 16/16/16 100/100/100 139/139/139
f 56/56/56 53/53/53 122/122/122
f 6/6/6 55/55/55 85/85/85
f 59/59/59 162/162/162 83/83/83
f 24/24/24 83/83/83 54/54/54
f 24/24/24 143/143/143 59/59/59
f 143/143/143 169/169/169 39/39/39
f 3/3/3 120/120/120 94/94/94
f 79/79/79 118/118/118 131/131/131
f 60/60/60 147/147/147 161/161/161
f 29/29/29 131/131/131 118/118/118
f 157/157/157 169/169/169 37/37/37
f 135/135/135 103/103/103 29/29/29
f 95/95/95 49/49/49 145/145/145
f 135/135/135 72/72/72 17/17/17
f 37/37/37 169/169/169 143/143/143
f 37/37/37 143/143/143 24/24/24
f 157/157/157 37/37/37 49/49/49
f 157/157/157 10/10/10 90/90/90
f 109/109/109 138/138/138 98/98/98
f 109/109/109 10/10/10 157/157/157
f 135/135/135 44/44/44 103/103/103
f 170/170/170 97/97/97 53/53/53
f 5/5/5 161/161/161 63/63/63
f 5/5/5 95/95/95 161/161/161
f 60/60/60 145/145/145 147/147/147
f 60/60/60 161/161/161 95/95/95
f 110/110/110 34/34/34 80/80/80
f 121/121/121 150/150/150 80/80/80
f 173/173/173 57/57/57 104/104/104
f 40/40/40 46/46/46 86/86/86
f 57/57/57 97/97/97 170/170/170
f 57/57/57 170/170/170 95/95/95
f 78/78/78 125/125/125 9/9/9
f 131/131/131 13/13/13 79/79/79
f 74/74/74 16/16/16 139/139/139
f 110/110/110 155/155/155 34/34/34
f 87/87/87 46/46/46 40/40/40
f 147/147/147 166/166/166 134/134/134
f 110/110/110 153/153/153 155/155/155
f 108/108/108 111/111/111 52/52/52
f 173/173/173 97/97/97 57/57/57
f 34/34/34 173/173/173 104/104/104
f 121/121/121 104/104/104 5/5/5
f 107/107/107 106/106/106 33/33/33
f 11/11/11 155/155/155 144/144/144
f 155/155/155 173/173/173 34/34/34
f 64/64/64 91/91/91 89/89/89
f 106/106/106 153/153/153 81/81/81
f 96/96/96 150/150/150 160/160/160
f 158/158/158 153/153/153 110/110/110
f 50/50/50 160/160/160 168/168/168
f 146/146/146 158/158/158 80/80/80
f 81/81/81 153/153/153 158/158/158
f 158/158/158 110/110/110 80/80/80
f 154/154/154 51/51/51 96/96/96
f 167/167/167 111/111/111 106/106/106
f 33/33/33 106/106/106 111/111/111
f 107/107/107 33/33/33 171/171/171
f 167/167/167 132/132/132 28/28/28
f 64/64/64 89/89/89 21/21/21
f 105/105/105 33/33/33 111/111/111
f 45/45/45 93/93/93 98/98/98
f 105/105/105 111/111/111 108/108/108
f 147/147/147 54/54/54 166/166/166
f 74/74/74 108/108/108 8/8/8
f 58/58/58 166/166/166 54/54/54
f 74/74/74 105/105/105 108/108/108
f 93/93/93 10/10/10 98/98/98
f 43/43/43 101/101/101 107/107/107
f 11/11/11 144/144/144 107/107/107
f 43/43/43 107/107/107 171/171/171
f 144/144/144 155/155/155 153/153/153
f 144/144/144 153/153/153 106/106/106
f 144/144/144 106/106/106 107/107/107
f 101/101/101 11/11/11 107/107/107
f 159/159/159 87/87/87 40/40/40
f 38/38/38 94/94/94 141/141/141
f 148/148/148 101/101/101 46/46/46
f 103/103/103 25/25/25 131/131/131
f 65/65/65 141/141/141 94/94/94
f 74/74/74 139/139/139 105/105/105
f 90/90/90 10/10/10 48/48/48
f 7/7/7 99/99/99 88/88/88
f 59/59/59 143/143/143 91/91/91
f 86/86/86 46/46/46 142/142/142
f 79/79/79 133/133/133 118/118/118
f 102/102/102 35/35/35 100/100/100
f 8/8/8 108/108/108 128/128/128
f 40/40/40 86/86/86 88/88/88
f 52/52/52 128/128/128 108/108/108
f 148/148/148 46/46/46 87/87/87
f 39/39/39 91/91/91 143/143/143
f 19/19/19 86/86/86 142/142/142
f 67/67/67 88/88/88 86/86/86
f 56/56/56 122/122/122 40/40/40
f 159/159/159 155/155/155 148/148/148
f 122/122/122 159/159/159 40/40/40
f 159/159/159 148/148/148 87/87/87
f 148/148/148 155/155/155 11/11/11
f 148/148/148 11/11/11 101/101/101
f 159/159/159 97/97/97 173/173/173
f 159/159/159 173/173/173 155/155/155
f 56/56/56 40/40/40 88/88/88
f 30/30/30 117/117/117 136/136/136
f 56/56/56 88/88/88 99/99/99
f 90/90/90 48/48/48 39/39/39
f 7/7/7 70/70/70 99/99/99
f 67/67/67 7/7/7 88/88/88
f 19/19/19 67/67/67 86/86/86
f 68/68/68 19/19/19 142/142/142
f 73/73/73 102/102/102 100/100/100
f 4/4/4 68/68/68 102/102/102
f 172/172/172 4/4/4 102/102/102
f 73/73/73 172/172/172 102/102/102
f 16/16/16 73/73/73 100/100/100
f 79/79/79 124/124/124 133/133/133
f 142/142/142 35/35/35 68/68/68
f 51/51/51 163/163/163 146/146/146
f 62/62/62 27/27/27 123/123/123
f 28/28/28 128/128/128 52/52/52
f 131/131/131 25/25/25 13/13/13
f 101/101/101 35/35/35 46/46/46
f 142/142/142 46/46/46 35/35/35
f 126/126/126 17/17/17 71/71/71
f 132/132/132 26/26/26 28/28/28
f 128/128/128 71/71/71 8/8/8
f 23/23/23 77/77/77 119/119/119
f 167/167/167 28/28/28 52/52/52
f 26/26/26 128/128/128 28/28/28
f 126/126/126 71/71/71 26/26/26
f 26/26/26 71/71/71 128/128/128
f 95/95/95 170/170/170 49/49/49
f 100/100/100 35/35/35 43/43/43
f 103/103/103 131/131/131 29/29/29
f 91/91/91 6/6/6 59/59/59
f 101/101/101 43/43/43 35/35/35
f 13/13/13 25/25/25 127/127/127
f 149/149/149 126/126/126 26/26/26
f 149/149/149 26/26/26 127/127/127
f 51/51/51 127/127/127 132/132/132
f 118/118/118 133/133/133 14/14/14
f 27/27/27 133/133/133 124/124/124
f 79/79/79 13/13/13 124/124/124
f 163/163/163 132/132/132 167/167/167
f 132/132/132 127/127/127 26/26/26
f 167/167/167 52/52/52 111/111/111
f 163/163/163 167/167/167 81/81/81
f 146/146/146 81/81/81 158/158/158
f 146/146/146 163/163/163 81/81/81
f 121/121/121 80/80/80 104/104/104
f 96/96/96 160/160/160 50/50/50
f 50/50/50 168/168/168 32/32/32
f 160/160/160 121/121/121 168/168/168
f 121/121/121 5/5/5 63/63/63
f 121/121/121 63/63/63 168/168/168
f 124/124/124 154/154/154 61/61/61
f 160/160/160 150/150/150 121/121/121
f 123/123/123 50/50/50 32/32/32
f 96/96/96 50/50/50 61/61/61
f 125/125/125 27/27/27 62/62/62
f 77/77/77 118/118/118 14/14/14
f 154/154/154 127/127/127 51/51/51
f 96/96/96 146/146/146 150/150/150
f 51/51/51 132/132/132 163/163/163
f 51/51/51 146/146/146 96/96/96
f 154/154/154 96/96/96 61/61/61
f 154/154/154 13/13/13 127/127/127
f 124/124/124 13/13/13 154/154/154
f 149/149/149 127/127/127 44/44/44
f 25/25/25 44/44/44 127/127/127
f 125/125/125 133/133/133 27/27/27
f 123/123/123 61/61/61 50/50/50
f 29/29/29 119/119/119 135/135/135
f 72/72/72 135/135/135 119/119/119
f 137/137/137 31/31/31 47/47/47
f 9/9/9 117/117/117 75/75/75
f 9/9/9 125/125/125 117/117/117
f 78/78/78 133/133/133 125/125/125
f 14/14/14 133/133/133 78/78/78
f 39/39/39 89/89/89 91/91/91
f 103/103/103 44/44/44 25/25/25
f 93/93/93 48/48/48 10/10/10
f 139/139/139 100/100/100 43/43/43
f 57/57/57 95/95/95 104/104/104
f 5/5/5 104/104/104 95/95/95
