# frame 000928 
# time 0.464500 
# name Cloth3D 
v -0.000000 0.000000 -0.000000
v 1.000000 0.000000 -0.000000
v -0.000000 1.000000 0.000000
v 1.000000 1.000000 0.000000
v 0.654871 0.409702 0.170702
v -0.000000 0.500000 0.000000
v 0.500000 1.000000 0.000000
v 1.000000 0.500000 0.000000
v 0.500000 -0.000000 0.000000
v 0.246344 0.750867 0.077549
v 0.755731 0.750361 0.076787
v 0.244995 0.248362 0.080262
v 0.754991 0.248788 0.081545
v 0.750000 0.000000 0.000000
v 0.250000 0.000000 0.000000
v 1.000000 0.750000 0.000000
v 1.000000 0.250000 0.000000
v 0.250000 1.000000 0.000000
v 0.750000 1.000000 0.000000
v 0.000000 0.250000 0.000000
v 0.000000 0.750000 -0.000000
v 0.362901 0.218679 0.087135
v 0.875000 0.062559 0.011840
v 0.230399 0.514328 0.131911
v 0.816705 0.249797 0.063077
v 0.883091 0.375017 0.064162
v 0.625633 0.124069 0.050766
v 0.885326 0.437390 0.071347
v 0.875310 0.125433 0.021842
v 0.374421 0.123924 0.050060
v 0.123392 0.123901 0.027648
v 0.492451 0.250088 0.103974
v 0.882571 0.625278 0.062481
v 0.633003 0.621998 0.135460
v 0.877775 0.877138 0.032495
v 0.374746 0.874091 0.043610
v 0.253016 0.598997 0.117122
v 0.123794 0.875330 0.026114
v 0.121341 0.623665 0.053155
v 0.625894 0.873102 0.040966
v 0.116233 0.373633 0.065015
v 0.249041 0.124718 0.038710
v 0.880877 0.751407 0.050727
v 0.877392 0.250781 0.041545
v 0.249102 0.875523 0.040205
v 0.751800 0.876025 0.041563
v 0.119303 0.248253 0.050605
v 0.121066 0.750169 0.047116
v 0.316376 0.591908 0.139767
v 0.586208 0.302998 0.127034
v 0.748808 0.363955 0.125576
v 0.885408 0.499898 0.072416
v 0.435477 0.770004 0.083037
v 0.231243 0.453361 0.136803
v 0.000000 0.375000 0.000000
v 0.500361 0.874204 0.046911
v 0.501288 0.622000 0.142317
v 0.237963 0.372182 0.119407
v 0.114827 0.499132 0.069885
v 0.522356 0.410657 0.172133
v 0.628885 0.247933 0.103356
v 0.500106 0.123791 0.054063
v 0.497502 0.471198 0.199938
v 0.000000 0.625000 0.000000
v 0.000000 0.875000 0.000000
v 0.000000 0.125000 0.000000
v 0.625000 1.000000 0.000000
v 0.875000 1.000000 0.000000
v 0.125000 1.000000 0.000000
v 0.375000 1.000000 0.000000
v 1.000000 0.375000 0.000000
v 1.000000 0.125000 0.000000
v 1.000000 0.875000 0.000000
v 1.000000 0.625000 0.000000
v 0.375000 0.000000 0.000000
v 0.125000 0.000000 0.000000
v 0.875000 0.000000 0.000000
v 0.625000 0.000000 0.000000
v 0.750700 0.124316 0.040315
v 0.641326 0.496416 0.188713
v 0.781210 0.514949 0.142883
v 0.060088 0.312219 0.026839
v 0.174467 0.435750 0.101675
v 0.178518 0.309916 0.083353
v 0.057024 0.436988 0.035363
v 0.687905 0.937576 0.021922
v 0.690241 0.812053 0.062821
v 0.562710 0.937184 0.023381
v 0.061030 0.686940 0.024373
v 0.182909 0.686984 0.071700
v 0.059839 0.561648 0.029499
v 0.187283 0.938121 0.018704
v 0.184476 0.813861 0.052862
v 0.062457 0.937431 0.007247
v 0.433187 0.559494 0.165726
v 0.682367 0.356516 0.141063
v 0.508150 0.722134 0.100583
v 0.310998 0.813230 0.066048
v 0.437615 0.936652 0.021757
v 0.940000 0.813187 0.022406
v 0.816730 0.814417 0.054009
v 0.937836 0.937729 0.007174
v 0.875655 0.188399 0.029535
v 0.569566 0.559782 0.167609
v 0.941934 0.624987 0.032489
v 0.833020 0.591884 0.097476
v 0.822710 0.689578 0.084810
v 0.939357 0.562225 0.029492
v 0.315147 0.700960 0.102671
v 0.696522 0.582793 0.148713
v 0.882450 0.562262 0.065472
v 0.187359 0.062507 0.015612
v 0.062035 0.062062 0.009919
v 0.184462 0.186116 0.050905
v 0.312444 0.062577 0.021226
v 0.310258 0.185741 0.069745
v 0.437478 0.061429 0.027576
v 0.812223 0.062763 0.014877
v 0.937506 0.062586 0.007469
v -0.000000 0.937500 0.000000
v 0.937500 1.000000 0.000000
v 0.525933 0.801892 0.070305
v 0.563593 0.187315 0.076857
v 0.690026 0.185623 0.071834
v 0.562550 0.062007 0.026442
v 0.939985 0.313047 0.026984
v 0.819832 0.312109 0.079768
v 0.944099 0.437562 0.037886
v 0.312484 0.936941 0.019888
v 0.937500 0.000000 -0.000000
v 0.814174 0.187736 0.046245
v 0.813223 0.371023 0.102045
v 0.687562 0.061030 0.025897
v 0.393631 0.374433 0.154515
v 0.937726 0.188202 0.014988
v 0.436763 0.186082 0.078970
v 0.060927 0.187171 0.019170
v 0.378857 0.767577 0.082715
v 0.939669 0.687402 0.026194
v 0.372265 0.316534 0.126840
v 0.060147 0.812597 0.022582
v 0.813393 0.938769 0.020477
v 0.178741 0.560850 0.091187
v 0.777574 0.649843 0.106525
v 0.317056 0.530531 0.166188
v 0.720102 0.472001 0.200054
v 0.320310 0.470320 0.200056
v 0.722766 0.772059 0.074769
v 0.878380 0.313497 0.049584
v 0.622726 0.471696 0.199969
v 0.246940 0.185525 0.062105
v 0.287953 0.329585 0.120358
v 0.724439 0.606521 0.130976
v 0.721430 0.299039 0.109066
v 0.675595 0.666921 0.113606
v 0.326226 0.274872 0.103584
v 0.275479 0.656452 0.107540
v 0.501209 0.559938 0.167751
v 0.614386 0.769205 0.081250
v 0.603179 0.364824 0.153179
v 0.414219 0.470849 0.199937
v 0.819577 0.752146 0.069486
v 0.779704 0.452424 0.146525
v 0.124599 0.062525 0.011358
v 0.416065 0.254980 0.106797
v 0.308067 0.386199 0.149072
v 0.829439 0.480772 0.112623
v 0.477080 0.361203 0.149912
v 0.181376 0.623721 0.080765
v 0.412374 0.660349 0.127257
v 0.881526 0.688417 0.056245
v 1.000000 0.937500 0.000000
v 0.591830 0.673557 0.120003
v 0.175899 0.372490 0.094533
vt 0.000000 0.000000
vt 1.000000 0.000000
vt 0.000000 1.000000
vt 1.000000 1.000000
vt 0.639940 0.411013
vt 0.000000 0.500000
vt 0.500000 1.000000
vt 1.000000 0.500000
vt 0.500000 0.000000
vt 0.250000 0.750000
vt 0.750000 0.750000
vt 0.250000 0.250000
vt 0.750000 0.250000
vt 0.750000 0.000000
vt 0.250000 0.000000
vt 1.000000 0.750000
vt 1.000000 0.250000
vt 0.250000 1.000000
vt 0.750000 1.000000
vt 0.000000 0.250000
vt 0.000000 0.750000
vt 0.365347 0.220303
vt 0.875000 0.062500
vt 0.245672 0.515386
vt 0.812500 0.250000
vt 0.875000 0.375000
vt 0.625000 0.125000
vt 0.875000 0.437500
vt 0.875000 0.125000
vt 0.375000 0.125000
vt 0.125000 0.125000
vt 0.492214 0.250470
vt 0.875000 0.625000
vt 0.625000 0.625000
vt 0.875000 0.875000
vt 0.375000 0.875000
vt 0.262101 0.599801
vt 0.125000 0.875000
vt 0.125000 0.625000
vt 0.625000 0.875000
vt 0.125000 0.375000
vt 0.250000 0.125000
vt 0.875000 0.750000
vt 0.875000 0.250000
vt 0.250000 0.875000
vt 0.750000 0.875000
vt 0.125000 0.250000
vt 0.125000 0.750000
vt 0.325445 0.593646
vt 0.581754 0.304126
vt 0.736041 0.365469
vt 0.875000 0.500000
vt 0.435664 0.771773
vt 0.248222 0.455442
vt 0.000000 0.375000
vt 0.500000 0.875000
vt 0.500000 0.625000
vt 0.250000 0.375000
vt 0.125000 0.500000
vt 0.519707 0.411902
vt 0.625000 0.250000
vt 0.500000 0.125000
vt 0.497212 0.474564
vt 0.000000 0.625000
vt 0.000000 0.875000
vt 0.000000 0.125000
vt 0.625000 1.000000
vt 0.875000 1.000000
vt 0.125000 1.000000
vt 0.375000 1.000000
vt 1.000000 0.375000
vt 1.000000 0.125000
vt 1.000000 0.875000
vt 1.000000 0.625000
vt 0.375000 0.000000
vt 0.125000 0.000000
vt 0.875000 0.000000
vt 0.625000 0.000000
vt 0.750000 0.125000
vt 0.625000 0.500000
vt 0.760524 0.515669
vt 0.062500 0.312500
vt 0.187500 0.437500
vt 0.187500 0.312500
vt 0.062500 0.437500
vt 0.687500 0.937500
vt 0.687500 0.812500
vt 0.562500 0.937500
vt 0.062500 0.687500
vt 0.187500 0.687500
vt 0.062500 0.562500
vt 0.187500 0.937500
vt 0.187500 0.812500
vt 0.062500 0.937500
vt 0.437500 0.562500
vt 0.671367 0.358455
vt 0.506884 0.725192
vt 0.312500 0.812500
vt 0.437500 0.937500
vt 0.937500 0.812500
vt 0.812500 0.812500
vt 0.937500 0.937500
vt 0.875000 0.187500
vt 0.562500 0.562500
vt 0.937500 0.625000
vt 0.819332 0.591237
vt 0.812500 0.687500
vt 0.937500 0.562500
vt 0.319123 0.700934
vt 0.682510 0.583771
vt 0.875000 0.562500
vt 0.187500 0.062500
vt 0.062500 0.062500
vt 0.187500 0.187500
vt 0.312500 0.062500
vt 0.312500 0.187500
vt 0.437500 0.062500
vt 0.812500 0.062500
vt 0.937500 0.062500
vt 0.000000 0.937500
vt 0.937500 1.000000
vt 0.525016 0.804189
vt 0.562500 0.187500
vt 0.687500 0.187500
vt 0.562500 0.062500
vt 0.937500 0.312500
vt 0.812500 0.312500
vt 0.937500 0.437500
vt 0.312500 0.937500
vt 0.937500 0.000000
vt 0.812500 0.187500
vt 0.800716 0.372483
vt 0.687500 0.062500
vt 0.400647 0.375957
vt 0.937500 0.187500
vt 0.437500 0.187500
vt 0.062500 0.187500
vt 0.380019 0.768564
vt 0.937500 0.687500
vt 0.377625 0.317694
vt 0.062500 0.812500
vt 0.812500 0.937500
vt 0.187500 0.562500
vt 0.765906 0.648544
vt 0.331404 0.533038
vt 0.691134 0.474810
vt 0.341967 0.472985
vt 0.718294 0.771897
vt 0.875000 0.312500
vt 0.608490 0.474548
vt 0.250000 0.187500
vt 0.296906 0.332149
vt 0.711873 0.607167
vt 0.713437 0.300753
vt 0.668274 0.669022
vt 0.331126 0.276226
vt 0.281585 0.657008
vt 0.500000 0.562500
vt 0.611736 0.771102
vt 0.595175 0.366343
vt 0.423230 0.474125
vt 0.812500 0.750000
vt 0.758105 0.454518
vt 0.125000 0.062500
vt 0.418341 0.256674
vt 0.320334 0.388669
vt 0.812755 0.481587
vt 0.477835 0.361491
vt 0.187500 0.625000
vt 0.414679 0.661630
vt 0.875000 0.687500
vt 1.000000 0.937500
vt 0.587160 0.675778
vt 0.187500 0.375000
vn -0.078107 -0.078107 0.993881
vn 0.041356 -0.082712 0.995715
vn -0.073375 0.036687 0.996629
vn 0.060861 0.060861 0.996289
vn 0.082041 -0.440453 0.894019
vn -0.502340 0.024715 0.864317
vn -0.005670 0.336972 0.941498
vn 0.515022 0.038371 0.856318
vn 0.004745 -0.399491 0.916725
vn -0.180531 0.236637 0.954679
vn 0.108090 0.269295 0.956973
vn -0.172595 -0.304068 0.936885
vn 0.257207 -0.301160 0.918230
vn 0.042603 -0.315883 0.947841
vn -0.021294 -0.287677 0.957491
vn 0.374594 0.010411 0.927131
vn 0.325370 -0.045564 0.944488
vn -0.003154 0.289541 0.957160
vn 0.003337 0.319845 0.947464
vn -0.352770 -0.029498 0.935245
vn -0.358238 0.007700 0.933599
vn -0.090774 -0.359668 0.928654
vn 0.058003 -0.175032 0.982853
vn -0.483304 0.182860 0.856142
vn 0.297383 -0.249072 0.921698
vn 0.457955 -0.171068 0.872361
vn 0.011918 -0.371446 0.928378
vn 0.510766 -0.074521 0.856484
vn 0.153948 -0.139840 0.978133
vn -0.060174 -0.372672 0.926010
vn -0.125876 -0.208431 0.969903
vn 0.008573 -0.380561 0.924716
vn 0.480737 0.082493 0.872976
vn 0.081949 0.377602 0.922335
vn 0.172171 0.198377 0.964885
vn -0.019339 0.342041 0.939486
vn -0.346550 0.275269 0.896733
vn -0.150675 0.189319 0.970286
vn -0.402854 0.101879 0.909576
vn 0.014941 0.313551 0.949454
vn -0.462720 -0.105804 0.880168
vn -0.100762 -0.330959 0.938250
vn 0.356484 0.134070 0.924632
vn 0.336336 -0.166757 0.926860
vn -0.058975 0.305555 0.950346
vn 0.029746 0.292517 0.955798
vn -0.341170 -0.155083 0.927121
vn -0.295717 0.094356 0.950604
vn -0.215915 0.345418 0.913273
vn 0.027164 -0.386989 0.921684
vn 0.308195 -0.351046 0.884185
vn 0.545260 0.057576 0.836287
vn -0.007833 0.354920 0.934864
vn -0.510522 -0.088632 0.855285
vn -0.469465 -0.036150 0.882211
vn 0.010204 0.332803 0.942941
vn -0.002332 0.378862 0.925450
vn -0.341976 -0.239032 0.908799
vn -0.485570 0.072592 0.871179
vn -0.003806 -0.410980 0.911636
vn 0.055455 -0.378444 0.923962
vn 0.015465 -0.379200 0.925186
vn -0.003105 -0.054673 0.998500
vn -0.408122 0.020106 0.912706
vn -0.204905 0.048398 0.977585
vn -0.227476 -0.036654 0.973094
vn 0.005839 0.336738 0.941580
vn 0.039345 0.214829 0.975859
vn -0.044831 0.197827 0.979211
vn -0.008457 0.311088 0.950344
vn 0.484413 -0.044505 0.873707
vn 0.182087 -0.029647 0.982835
vn 0.217477 0.048594 0.974855
vn 0.458492 0.014301 0.888584
vn -0.023370 -0.369931 0.928765
vn -0.028544 -0.183049 0.982689
vn 0.032633 -0.180886 0.982962
vn -0.000684 -0.385521 0.922699
vn 0.140849 -0.303124 0.942485
vn 0.031569 0.405140 0.913710
vn 0.535803 0.149390 0.831022
vn -0.439594 -0.061933 0.896059
vn -0.461928 -0.083260 0.883001
vn -0.337625 -0.210006 0.917555
vn -0.507149 -0.026279 0.861458
vn 0.001192 0.310723 0.950500
vn 0.024644 0.315636 0.948560
vn 0.012006 0.325640 0.945417
vn -0.381018 0.025933 0.924204
vn -0.314103 0.136360 0.939545
vn -0.453961 0.067572 0.888456
vn -0.050881 0.251880 0.966420
vn -0.170363 0.227213 0.958828
vn -0.102646 0.087172 0.990891
vn -0.047271 0.361322 0.931242
vn 0.176589 -0.386154 0.905374
vn 0.010983 0.367407 0.929995
vn -0.049924 0.322963 0.945094
vn -0.013742 0.335804 0.941832
vn 0.327741 0.072265 0.942000
vn 0.142804 0.234990 0.961450
vn 0.107339 0.103925 0.988776
vn 0.254251 -0.158996 0.953980
vn 0.031018 0.370654 0.928253
vn 0.477358 0.034428 0.878034
vn 0.481907 0.128446 0.866757
vn 0.303318 0.194056 0.932920
vn 0.509784 0.006969 0.860274
vn -0.140901 0.300047 0.943461
vn 0.191022 0.385210 0.902842
vn 0.538112 0.067179 0.840192
vn -0.055899 -0.247246 0.967339
vn -0.082348 -0.132159 0.987802
vn -0.167979 -0.273872 0.946983
vn -0.043958 -0.338832 0.939820
vn -0.105858 -0.343633 0.933119
vn -0.012640 -0.391071 0.920274
vn 0.062519 -0.229302 0.971345
vn 0.075167 -0.110041 0.991081
vn -0.109834 -0.000000 0.993950
vn 0.000000 0.121166 0.992632
vn 0.021372 0.335659 0.941741
vn 0.009854 -0.382539 0.923887
vn 0.117890 -0.350771 0.929011
vn 0.012042 -0.384964 0.922853
vn 0.379985 -0.107439 0.918732
vn 0.383345 -0.256354 0.887316
vn 0.513113 -0.039726 0.857401
vn -0.012252 0.312887 0.949711
vn 0.000000 -0.123591 0.992333
vn 0.242564 -0.241038 0.939715
vn 0.431171 -0.258961 0.864309
vn 0.036387 -0.357417 0.933236
vn -0.056076 -0.427147 0.902442
vn 0.235451 -0.090717 0.967643
vn -0.026179 -0.377399 0.925681
vn -0.303487 -0.079785 0.949489
vn -0.030221 0.346399 0.937600
vn 0.440149 0.065884 0.895505
vn -0.098541 -0.385142 0.917581
vn -0.282394 0.076349 0.956255
vn 0.033552 0.288056 0.957026
vn -0.431798 0.194782 0.880688
vn 0.233686 0.236286 0.943165
vn -0.226906 0.408330 0.884183
vn 0.309114 -0.014024 0.950921
vn -0.243056 0.071364 0.967384
vn 0.076216 0.288521 0.954435
vn 0.399148 -0.181359 0.898771
vn 0.024907 0.139865 0.989857
vn -0.138885 -0.321630 0.936624
vn -0.204274 -0.358825 0.910778
vn 0.233425 0.347915 0.908002
vn 0.239942 -0.344509 0.907602
vn 0.100009 0.364169 0.925948
vn -0.125804 -0.362030 0.923638
vn -0.266522 0.265134 0.926644
vn -0.015568 0.364428 0.931101
vn 0.033021 0.349563 0.936331
vn 0.045827 -0.412873 0.909635
vn -0.018595 0.013854 0.999731
vn 0.190623 0.243943 0.950870
vn 0.587901 -0.106059 0.801950
vn -0.042842 -0.213096 0.976091
vn -0.052691 -0.372191 0.926659
vn -0.246914 -0.384556 0.889466
vn 0.568142 -0.003256 0.822924
vn -0.012826 -0.402169 0.915475
vn -0.382865 0.168203 0.908363
vn -0.047565 0.356572 0.933056
vn 0.450257 0.080690 0.889245
vn 0.121382 0.000000 0.992606
vn 0.062651 0.369562 0.927091
vn -0.407474 -0.144526 0.901708
f 1/1/1 113/113/113 66/66/66
f 31/31/31 137/137/137 113/113/113
f 109/109/109 157/157/157 49/49/49
f 76/76/76 112/112/112 164/164/164
f 84/84/84 174/174/174 41/41/41
f 112/112/112 114/114/114 31/31/31
f 114/114/114 47/47/47 31/31/31
f 84/84/84 152/152/152 58/58/58
f 137/137/137 66/66/66 113/113/113
f 164/164/164 112/112/112 31/31/31
f 150/150/150 104/104/104 63/63/63
f 12/12/12 114/114/114 151/151/151
f 170/170/170 109/109/109 49/49/49
f 164/164/164 31/31/31 113/113/113
f 42/42/42 114/114/114 112/112/112
f 76/76/76 113/113/113 1/1/1
f 76/76/76 164/164/164 113/113/113
f 15/15/15 112/112/112 76/76/76
f 115/115/115 15/15/15 75/75/75
f 162/162/162 101/101/101 11/11/11
f 60/60/60 150/150/150 63/63/63
f 125/125/125 62/62/62 117/117/117
f 22/22/22 30/30/30 136/136/136
f 107/107/107 162/162/162 11/11/11
f 32/32/32 165/165/165 136/136/136
f 22/22/22 136/136/136 165/165/165
f 12/12/12 151/151/151 116/116/116
f 151/151/151 42/42/42 116/116/116
f 151/151/151 114/114/114 42/42/42
f 116/116/116 30/30/30 22/22/22
f 133/133/133 27/27/27 78/78/78
f 150/150/150 60/60/60 160/160/160
f 156/156/156 116/116/116 22/22/22
f 156/156/156 152/152/152 12/12/12
f 156/156/156 12/12/12 116/116/116
f 147/147/147 134/134/134 161/161/161
f 168/168/168 165/165/165 32/32/32
f 170/170/170 138/138/138 109/109/109
f 156/156/156 22/22/22 165/165/165
f 140/140/140 165/165/165 168/168/168
f 146/146/146 81/81/81 110/110/110
f 82/82/82 137/137/137 47/47/47
f 150/150/150 146/146/146 80/80/80
f 101/101/101 162/162/162 43/43/43
f 134/134/134 140/140/140 168/168/168
f 140/140/140 152/152/152 156/156/156
f 140/140/140 156/156/156 165/165/165
f 69/69/69 94/94/94 92/92/92
f 152/152/152 166/166/166 58/58/58
f 167/167/167 106/106/106 81/81/81
f 104/104/104 80/80/80 34/34/34
f 170/170/170 53/53/53 138/138/138
f 161/161/161 134/134/134 168/168/168
f 45/45/45 98/98/98 36/36/36
f 134/134/134 166/166/166 140/140/140
f 81/81/81 153/153/153 110/110/110
f 38/38/38 92/92/92 94/94/94
f 99/99/99 36/36/36 56/56/56
f 83/83/83 58/58/58 54/54/54
f 23/23/23 29/29/29 118/118/118
f 174/174/174 58/58/58 83/83/83
f 146/146/146 110/110/110 80/80/80
f 84/84/84 12/12/12 152/152/152
f 84/84/84 58/58/58 174/174/174
f 47/47/47 114/114/114 84/84/84
f 84/84/84 114/114/114 12/12/12
f 47/47/47 84/84/84 41/41/41
f 82/82/82 47/47/47 41/41/41
f 36/36/36 99/99/99 129/129/129
f 20/20/20 137/137/137 82/82/82
f 70/70/70 129/129/129 99/99/99
f 20/20/20 66/66/66 137/137/137
f 55/55/55 20/20/20 82/82/82
f 98/98/98 138/138/138 36/36/36
f 171/171/171 33/33/33 139/139/139
f 102/102/102 68/68/68 35/35/35
f 94/94/94 69/69/69 3/3/3
f 130/130/130 2/2/2 119/119/119
f 2/2/2 72/72/72 119/119/119
f 53/53/53 56/56/56 36/36/36
f 92/92/92 18/18/18 69/69/69
f 21/21/21 141/141/141 65/65/65
f 139/139/139 43/43/43 171/171/171
f 62/62/62 136/136/136 117/117/117
f 122/122/122 53/53/53 97/97/97
f 42/42/42 115/115/115 116/116/116
f 122/122/122 97/97/97 159/159/159
f 135/135/135 126/126/126 44/44/44
f 109/109/109 98/98/98 10/10/10
f 89/89/89 39/39/39 48/48/48
f 152/152/152 140/140/140 166/166/166
f 129/129/129 45/45/45 36/36/36
f 48/48/48 38/38/38 141/141/141
f 123/123/123 32/32/32 62/62/62
f 130/130/130 119/119/119 77/77/77
f 135/135/135 17/17/17 126/126/126
f 136/136/136 62/62/62 32/32/32
f 41/41/41 85/85/85 82/82/82
f 93/93/93 45/45/45 38/38/38
f 129/129/129 70/70/70 18/18/18
f 55/55/55 82/82/82 85/85/85
f 53/53/53 36/36/36 138/138/138
f 92/92/92 38/38/38 45/45/45
f 145/145/145 24/24/24 147/147/147
f 18/18/18 92/92/92 129/129/129
f 29/29/29 23/23/23 119/119/119
f 48/48/48 141/141/141 89/89/89
f 45/45/45 129/129/129 92/92/92
f 21/21/21 89/89/89 141/141/141
f 6/6/6 91/91/91 64/64/64
f 105/105/105 139/139/139 33/33/33
f 149/149/149 44/44/44 126/126/126
f 85/85/85 59/59/59 6/6/6
f 93/93/93 38/38/38 48/48/48
f 39/39/39 169/169/169 90/90/90
f 37/37/37 24/24/24 145/145/145
f 24/24/24 59/59/59 83/83/83
f 120/120/120 65/65/65 94/94/94
f 54/54/54 147/147/147 24/24/24
f 77/77/77 23/23/23 118/118/118
f 37/37/37 145/145/145 49/49/49
f 157/157/157 90/90/90 169/169/169
f 123/123/123 27/27/27 61/61/61
f 124/124/124 61/61/61 27/27/27
f 60/60/60 168/168/168 160/160/160
f 16/16/16 100/100/100 139/139/139
f 56/56/56 53/53/53 122/122/122
f 6/6/6 55/55/55 85/85/85
f 162/162/162 107/107/107 43/43/43
f 24/24/24 83/83/83 54/54/54
f 24/24/24 143/143/143 59/59/59
f 143/143/143 169/169/169 39/39/39
f 3/3/3 120/120/120 94/94/94
f 79/79/79 118/118/118 131/131/131
f 30/30/30 116/116/116 115/115/115
f 29/29/29 131/131/131 118/118/118
f 157/157/157 169/169/169 37/37/37
f 135/135/135 103/103/103 29/29/29
f 95/95/95 49/49/49 145/145/145
f 135/135/135 72/72/72 17/17/17
f 37/37/37 169/169/169 143/143/143
f 37/37/37 143/143/143 24/24/24
f 157/157/157 37/37/37 49/49/49
f 157/157/157 10/10/10 90/90/90
f 109/109/109 138/138/138 98/98/98
f 109/109/109 10/10/10 157/157/157
f 135/135/135 44/44/44 103/103/103
f 170/170/170 97/97/97 53/53/53
f 27/27/27 123/123/123 125/125/125
f 62/62/62 125/125/125 123/123/123
f 174/174/174 83/83/83 41/41/41
f 139/139/139 100/100/100 43/43/43
f 110/110/110 34/34/34 80/80/80
f 121/121/121 68/68/68 102/102/102
f 173/173/173 57/57/57 104/104/104
f 40/40/40 46/46/46 86/86/86
f 57/57/57 97/97/97 170/170/170
f 57/57/57 170/170/170 95/95/95
f 78/78/78 125/125/125 9/9/9
f 131/131/131 13/13/13 79/79/79
f 74/74/74 16/16/16 139/139/139
f 110/110/110 155/155/155 34/34/34
f 87/87/87 46/46/46 40/40/40
f 147/147/147 166/166/166 134/134/134
f 110/110/110 153/153/153 155/155/155
f 108/108/108 111/111/111 52/52/52
f 173/173/173 97/97/97 57/57/57
f 34/34/34 173/173/173 104/104/104
f 4/4/4 121/121/121 102/102/102
f 107/107/107 106/106/106 33/33/33
f 11/11/11 155/155/155 144/144/144
f 155/155/155 173/173/173 34/34/34
f 64/64/64 91/91/91 89/89/89
f 106/106/106 153/153/153 81/81/81
f 146/146/146 5/5/5 51/51/51
f 158/158/158 104/104/104 57/57/57
f 50/50/50 160/160/160 168/168/168
f 95/95/95 158/158/158 57/57/57
f 158/158/158 95/95/95 63/63/63
f 104/104/104 158/158/158 63/63/63
f 154/154/154 51/51/51 96/96/96
f 167/167/167 111/111/111 106/106/106
f 33/33/33 106/106/106 111/111/111
f 107/107/107 33/33/33 171/171/171
f 167/167/167 132/132/132 28/28/28
f 64/64/64 89/89/89 21/21/21
f 105/105/105 33/33/33 111/111/111
f 45/45/45 93/93/93 98/98/98
f 105/105/105 111/111/111 108/108/108
f 147/147/147 54/54/54 166/166/166
f 74/74/74 108/108/108 8/8/8
f 58/58/58 166/166/166 54/54/54
f 74/74/74 105/105/105 108/108/108
f 93/93/93 10/10/10 98/98/98
f 63/63/63 161/161/161 60/60/60
f 11/11/11 144/144/144 107/107/107
f 43/43/43 107/107/107 171/171/171
f 144/144/144 155/155/155 153/153/153
f 144/144/144 153/153/153 106/106/106
f 144/144/144 106/106/106 107/107/107
f 168/168/168 60/60/60 161/161/161
f 159/159/159 87/87/87 40/40/40
f 38/38/38 94/94/94 141/141/141
f 148/148/148 101/101/101 46/46/46
f 103/103/103 25/25/25 131/131/131
f 65/65/65 141/141/141 94/94/94
f 74/74/74 139/139/139 105/105/105
f 115/115/115 42/42/42 15/15/15
f 7/7/7 99/99/99 88/88/88
f 59/59/59 143/143/143 91/91/91
f 86/86/86 46/46/46 142/142/142
f 79/79/79 133/133/133 118/118/118
f 102/102/102 35/35/35 100/100/100
f 150/150/150 80/80/80 104/104/104
f 40/40/40 86/86/86 88/88/88
f 125/125/125 78/78/78 27/27/27
f 148/148/148 46/46/46 87/87/87
f 39/39/39 91/91/91 143/143/143
f 19/19/19 86/86/86 142/142/142
f 67/67/67 88/88/88 86/86/86
f 56/56/56 122/122/122 40/40/40
f 159/159/159 155/155/155 148/148/148
f 122/122/122 159/159/159 40/40/40
f 159/159/159 148/148/148 87/87/87
f 148/148/148 155/155/155 11/11/11
f 148/148/148 11/11/11 101/101/101
f 159/159/159 97/97/97 173/173/173
f 159/159/159 173/173/173 155/155/155
f 56/56/56 40/40/40 88/88/88
f 30/30/30 117/117/117 136/136/136
f 56/56/56 88/88/88 99/99/99
f 90/90/90 48/48/48 39/39/39
f 7/7/7 70/70/70 99/99/99
f 67/67/67 7/7/7 88/88/88
f 19/19/19 67/67/67 86/86/86
f 68/68/68 19/19/19 142/142/142
f 73/73/73 102/102/102 100/100/100
f 59/59/59 85/85/85 83/83/83
f 172/172/172 4/4/4 102/102/102
f 73/73/73 172/172/172 102/102/102
f 16/16/16 73/73/73 100/100/100
f 79/79/79 124/124/124 133/133/133
f 142/142/142 35/35/35 68/68/68
f 51/51/51 163/163/163 146/146/146
f 128/128/128 26/26/26 71/71/71
f 28/28/28 128/128/128 52/52/52
f 131/131/131 25/25/25 13/13/13
f 101/101/101 35/35/35 46/46/46
f 142/142/142 46/46/46 35/35/35
f 126/126/126 17/17/17 71/71/71
f 132/132/132 26/26/26 28/28/28
f 128/128/128 71/71/71 8/8/8
f 23/23/23 77/77/77 119/119/119
f 167/167/167 28/28/28 52/52/52
f 26/26/26 128/128/128 28/28/28
f 115/115/115 75/75/75 30/30/30
f 117/117/117 30/30/30 75/75/75
f 95/95/95 170/170/170 49/49/49
f 100/100/100 35/35/35 43/43/43
f 103/103/103 131/131/131 29/29/29
f 91/91/91 6/6/6 59/59/59
f 101/101/101 43/43/43 35/35/35
f 13/13/13 25/25/25 127/127/127
f 149/149/149 126/126/126 26/26/26
f 149/149/149 26/26/26 127/127/127
f 51/51/51 127/127/127 132/132/132
f 118/118/118 133/133/133 14/14/14
f 27/27/27 133/133/133 124/124/124
f 79/79/79 13/13/13 124/124/124
f 163/163/163 132/132/132 167/167/167
f 132/132/132 127/127/127 26/26/26
f 167/167/167 52/52/52 111/111/111
f 163/163/163 167/167/167 81/81/81
f 63/63/63 95/95/95 161/161/161
f 146/146/146 163/163/163 81/81/81
f 150/150/150 5/5/5 146/146/146
f 96/96/96 160/160/160 50/50/50
f 50/50/50 168/168/168 32/32/32
f 128/128/128 8/8/8 52/52/52
f 96/96/96 5/5/5 160/160/160
f 108/108/108 52/52/52 8/8/8
f 124/124/124 154/154/154 61/61/61
f 5/5/5 150/150/150 160/160/160
f 123/123/123 50/50/50 32/32/32
f 96/96/96 50/50/50 61/61/61
f 126/126/126 71/71/71 26/26/26
f 77/77/77 118/118/118 14/14/14
f 154/154/154 127/127/127 51/51/51
f 96/96/96 51/51/51 5/5/5
f 51/51/51 132/132/132 163/163/163
f 85/85/85 41/41/41 83/83/83
f 154/154/154 96/96/96 61/61/61
f 154/154/154 13/13/13 127/127/127
f 124/124/124 13/13/13 154/154/154
f 149/149/149 127/127/127 44/44/44
f 25/25/25 44/44/44 127/127/127
f 10/10/10 93/93/93 90/90/90
f 123/123/123 61/61/61 50/50/50
f 29/29/29 119/119/119 135/135/135
f 72/72/72 135/135/135 119/119/119
f 137/137/137 31/31/31 47/47/47
f 9/9/9 117/117/117 75/75/75
f 9/9/9 125/125/125 117/117/117
f 48/48/48 90/90/90 93/93/93
f 14/14/14 133/133/133 78/78/78
f 39/39/39 89/89/89 91/91/91
f 103/103/103 44/44/44 25/25/25
f 112/112/112 15/15/15 42/42/42
f 161/161/161 95/95/95 145/145/145
f 161/161/161 145/145/145 147/147/147
