# frame 000902 
# time 0.451500 
# name Box 
v 0.719759 0.567836 -0.357041
v 0.718834 0.787879 -0.023005
v 0.720238 0.453846 0.197041
v 0.719759 0.567836 -0.357041
v 0.720238 0.453846 0.197041
v 0.721163 0.233803 -0.136995
v 0.319762 0.566154 -0.357041
v 0.321166 0.232121 -0.136995
v 0.320241 0.452164 0.197041
v 0.319762 0.566154 -0.357041
v 0.320241 0.452164 0.197041
v 0.318837 0.786197 -0.023005
v 0.719759 0.567836 -0.357041
v 0.319762 0.566154 -0.357041
v 0.318837 0.786197 -0.023005
v 0.719759 0.567836 -0.357041
v 0.318837 0.786197 -0.023005
v 0.718834 0.787879 -0.023005
v 0.718834 0.787879 -0.023005
v 0.318837 0.786197 -0.023005
v 0.320241 0.452164 0.197041
v 0.718834 0.787879 -0.023005
v 0.320241 0.452164 0.197041
v 0.720238 0.453846 0.197041
v 0.720238 0.453846 0.197041
v 0.320241 0.452164 0.197041
v 0.321166 0.232121 -0.136995
v 0.720238 0.453846 0.197041
v 0.321166 0.232121 -0.136995
v 0.721163 0.233803 -0.136995
v 0.319762 0.566154 -0.357041
v 0.719759 0.567836 -0.357041
v 0.721163 0.233803 -0.136995
v 0.319762 0.566154 -0.357041
v 0.721163 0.233803 -0.136995
v 0.321166 0.232121 -0.136995
vn 0.199998 0.000841 0.000000
vn 0.199998 0.000841 0.000000
vn 0.199998 0.000841 0.000000
vn 0.199998 0.000841 0.000000
vn 0.199998 0.000841 0.000000
vn 0.199998 0.000841 0.000000
vn -0.199998 -0.000841 0.000000
vn -0.199998 -0.000841 0.000000
vn -0.199998 -0.000841 0.000000
vn -0.199998 -0.000841 0.000000
vn -0.199998 -0.000841 0.000000
vn -0.199998 -0.000841 0.000000
vn -0.000702 0.167017 -0.110023
vn -0.000702 0.167017 -0.110023
vn -0.000702 0.167017 -0.110023
vn -0.000702 0.167017 -0.110023
vn -0.000702 0.167017 -0.110023
vn -0.000702 0.167017 -0.110023
vn -0.000462 0.110022 0.167018
vn -0.000462 0.110022 0.167018
vn -0.000462 0.110022 0.167018
vn -0.000462 0.110022 0.167018
vn -0.000462 0.110022 0.167018
vn -0.000462 0.110022 0.167018
vn 0.000702 -0.167017 0.110023
vn 0.000702 -0.167017 0.110023
vn 0.000702 -0.167017 0.110023
vn 0.000702 -0.167017 0.110023
vn 0.000702 -0.167017 0.110023
vn 0.000702 -0.167017 0.110023
vn 0.000462 -0.110022 -0.167018
vn 0.000462 -0.110022 -0.167018
vn 0.000462 -0.110022 -0.167018
vn 0.000462 -0.110022 -0.167018
vn 0.000462 -0.110022 -0.167018
vn 0.000462 -0.110022 -0.167018
f 1/1/1 2/2/2 3/3/3
f 4/4/4 5/5/5 6/6/6
f 7/7/7 8/8/8 9/9/9
f 10/10/10 11/11/11 12/12/12
f 13/13/13 14/14/14 15/15/15
f 16/16/16 17/17/17 18/18/18
f 19/19/19 20/20/20 21/21/21
f 22/22/22 23/23/23 24/24/24
f 25/25/25 26/26/26 27/27/27
f 28/28/28 29/29/29 30/30/30
f 31/31/31 32/32/32 33/33/33
f 34/34/34 35/35/35 36/36/36
