# frame 000963 
# time 0.482000 
# name Cloth3D 
v -0.000000 0.000000 -0.000000
v 1.000000 0.000000 -0.000000
v -0.000000 1.000000 0.000000
v 1.000000 1.000000 0.000000
v 0.653544 0.411520 0.160083
v -0.000000 0.500000 0.000000
v 0.500000 1.000000 0.000000
v 1.000000 0.500000 0.000000
v 0.500000 -0.000000 0.000000
v 0.242204 0.756760 0.098997
v 0.755198 0.750870 0.080876
v 0.246145 0.248893 0.081912
v 0.753163 0.252324 0.067092
v 0.750000 0.000000 0.000000
v 0.250000 0.000000 0.000000
v 1.000000 0.750000 0.000000
v 1.000000 0.250000 0.000000
v 0.250000 1.000000 0.000000
v 0.750000 1.000000 0.000000
v 0.000000 0.250000 0.000000
v 0.000000 0.750000 -0.000000
v 0.364308 0.220041 0.084720
v 0.874235 0.063908 0.001396
v 0.230152 0.516384 0.136700
v 0.815419 0.252353 0.051438
v 0.882749 0.375603 0.060611
v 0.625830 0.123617 0.049799
v 0.885907 0.437906 0.070374
v 0.873984 0.127661 0.006768
v 0.375228 0.124638 0.049225
v 0.123459 0.124331 0.029302
v 0.493491 0.248507 0.107094
v 0.885563 0.624582 0.067280
v 0.635031 0.624554 0.150044
v 0.874794 0.874215 0.017911
v 0.373622 0.878842 0.058562
v 0.249471 0.602629 0.132538
v 0.120886 0.879415 0.041053
v 0.117570 0.626629 0.065312
v 0.626256 0.877357 0.055460
v 0.119700 0.375995 0.058631
v 0.249167 0.123404 0.045237
v 0.878440 0.749071 0.042503
v 0.877894 0.251059 0.038167
v 0.247060 0.881803 0.058391
v 0.752038 0.877322 0.046575
v 0.121532 0.250231 0.046865
v 0.119913 0.752841 0.053435
v 0.313558 0.594840 0.155062
v 0.586636 0.303017 0.124577
v 0.747244 0.365976 0.115638
v 0.889841 0.499847 0.078628
v 0.434168 0.774066 0.099005
v 0.233657 0.455549 0.134309
v 0.000000 0.375000 0.000000
v 0.500061 0.876166 0.055078
v 0.501234 0.623745 0.152190
v 0.241815 0.375535 0.111286
v 0.119532 0.500997 0.063858
v 0.523043 0.412173 0.167647
v 0.628687 0.249418 0.096419
v 0.500761 0.122923 0.055503
v 0.498353 0.495818 0.202246
v 0.000000 0.625000 0.000000
v 0.000000 0.875000 0.000000
v 0.000000 0.125000 0.000000
v 0.625000 1.000000 0.000000
v 0.875000 1.000000 0.000000
v 0.125000 1.000000 0.000000
v 0.375000 1.000000 0.000000
v 1.000000 0.375000 0.000000
v 1.000000 0.125000 0.000000
v 1.000000 0.875000 0.000000
v 1.000000 0.625000 0.000000
v 0.375000 0.000000 0.000000
v 0.125000 0.000000 0.000000
v 0.875000 0.000000 0.000000
v 0.625000 0.000000 0.000000
v 0.749495 0.127646 0.027242
v 0.639065 0.561204 0.174887
v 0.784946 0.514919 0.149300
v 0.059817 0.313104 0.027775
v 0.176756 0.438065 0.098799
v 0.183395 0.313443 0.072607
v 0.059162 0.438239 0.032043
v 0.687943 0.938617 0.025788
v 0.691053 0.815432 0.075836
v 0.562700 0.937805 0.026697
v 0.059659 0.688293 0.029658
v 0.178487 0.691411 0.088861
v 0.059568 0.563096 0.032084
v 0.186018 0.941204 0.027685
v 0.181964 0.818252 0.066796
v 0.060798 0.939300 0.015002
v 0.432783 0.560855 0.174650
v 0.680828 0.360125 0.128000
v 0.507818 0.725537 0.115208
v 0.308607 0.818875 0.084622
v 0.437234 0.938057 0.027244
v 0.937242 0.811437 0.011860
v 0.815822 0.813303 0.050931
v 0.937018 0.936908 0.000662
v 0.874949 0.190391 0.018972
v 0.570337 0.560170 0.174174
v 0.944559 0.624804 0.036515
v 0.834835 0.591361 0.101310
v 0.819600 0.686455 0.076581
v 0.947760 0.562500 0.042870
v 0.311717 0.706254 0.123644
v 0.698724 0.582624 0.157850
v 0.890204 0.562638 0.078178
v 0.187020 0.061102 0.021979
v 0.061905 0.062100 0.010998
v 0.184725 0.186269 0.054311
v 0.312602 0.061895 0.024281
v 0.311540 0.187746 0.066436
v 0.437948 0.062790 0.024341
v 0.811861 0.063934 0.008677
v 0.936833 0.063378 -0.004848
v -0.000000 0.937500 0.000000
v 0.592759 0.675986 0.133061
v 0.525784 0.805393 0.084406
v 0.564423 0.184448 0.082080
v 0.689003 0.188524 0.060530
v 0.562838 0.059920 0.030493
v 0.940621 0.313152 0.026563
v 0.819834 0.312665 0.074531
v 0.943948 0.437903 0.036891
v 0.311740 0.941231 0.031775
v 0.937500 0.000000 -0.000000
v 0.813534 0.189835 0.035654
v 0.811509 0.372677 0.093674
v 0.687216 0.063181 0.018456
v 0.395902 0.376994 0.148457
v 0.938151 0.188208 0.014414
v 0.438011 0.187279 0.076093
v 0.059607 0.187379 0.024914
v 0.376805 0.772564 0.101144
v 0.942488 0.687148 0.031428
v 0.000000 0.812500 -0.000000
v 0.060978 0.813944 0.022197
v 0.812806 0.938306 0.018583
v 0.177137 0.564088 0.099421
v 0.777212 0.648394 0.106748
v 0.314462 0.533038 0.180751
v 0.719999 0.496627 0.202373
v 0.320206 0.494945 0.202376
v 0.723811 0.774718 0.086275
v 0.878975 0.313724 0.046885
v 0.623735 0.496319 0.202279
v 0.180586 0.375868 0.085086
v 0.290707 0.332274 0.114902
v 0.726303 0.606560 0.138947
v 0.719424 0.302767 0.094685
v 0.677391 0.669629 0.128145
v 0.327939 0.276156 0.101478
v 0.271427 0.661184 0.127094
v 1.000000 0.062500 -0.000000
v 0.615243 0.774545 0.100931
v 0.602774 0.366772 0.145144
v 0.414895 0.495468 0.202244
v 0.731135 0.422306 0.148130
v 0.779532 0.452650 0.141902
v 0.360078 0.428748 0.170006
v 0.417538 0.255714 0.105184
v 0.311547 0.389231 0.140823
v 0.832170 0.480553 0.115501
v 0.477928 0.360924 0.150163
v 0.176579 0.627783 0.097138
v 0.410842 0.663584 0.142261
v 0.880565 0.686219 0.052011
v 0.447563 0.419155 0.170350
v 0.062500 1.000000 0.000000
vt 0.000000 0.000000
vt 1.000000 0.000000
vt 0.000000 1.000000
vt 1.000000 1.000000
vt 0.639940 0.411013
vt 0.000000 0.500000
vt 0.500000 1.000000
vt 1.000000 0.500000
vt 0.500000 0.000000
vt 0.250000 0.750000
vt 0.750000 0.750000
vt 0.250000 0.250000
vt 0.750000 0.250000
vt 0.750000 0.000000
vt 0.250000 0.000000
vt 1.000000 0.750000
vt 1.000000 0.250000
vt 0.250000 1.000000
vt 0.750000 1.000000
vt 0.000000 0.250000
vt 0.000000 0.750000
vt 0.365347 0.220303
vt 0.875000 0.062500
vt 0.245672 0.515386
vt 0.812500 0.250000
vt 0.875000 0.375000
vt 0.625000 0.125000
vt 0.875000 0.437500
vt 0.875000 0.125000
vt 0.375000 0.125000
vt 0.125000 0.125000
vt 0.492214 0.250470
vt 0.875000 0.625000
vt 0.625000 0.625000
vt 0.875000 0.875000
vt 0.375000 0.875000
vt 0.262101 0.599801
vt 0.125000 0.875000
vt 0.125000 0.625000
vt 0.625000 0.875000
vt 0.125000 0.375000
vt 0.250000 0.125000
vt 0.875000 0.750000
vt 0.875000 0.250000
vt 0.250000 0.875000
vt 0.750000 0.875000
vt 0.125000 0.250000
vt 0.125000 0.750000
vt 0.325445 0.593646
vt 0.581754 0.304126
vt 0.736041 0.365469
vt 0.875000 0.500000
vt 0.435664 0.771773
vt 0.248222 0.455442
vt 0.000000 0.375000
vt 0.500000 0.875000
vt 0.500000 0.625000
vt 0.250000 0.375000
vt 0.125000 0.500000
vt 0.519707 0.411902
vt 0.625000 0.250000
vt 0.500000 0.125000
vt 0.497157 0.496673
vt 0.000000 0.625000
vt 0.000000 0.875000
vt 0.000000 0.125000
vt 0.625000 1.000000
vt 0.875000 1.000000
vt 0.125000 1.000000
vt 0.375000 1.000000
vt 1.000000 0.375000
vt 1.000000 0.125000
vt 1.000000 0.875000
vt 1.000000 0.625000
vt 0.375000 0.000000
vt 0.125000 0.000000
vt 0.875000 0.000000
vt 0.625000 0.000000
vt 0.750000 0.125000
vt 0.625000 0.562500
vt 0.760524 0.515669
vt 0.062500 0.312500
vt 0.187500 0.437500
vt 0.187500 0.312500
vt 0.062500 0.437500
vt 0.687500 0.937500
vt 0.687500 0.812500
vt 0.562500 0.937500
vt 0.062500 0.687500
vt 0.187500 0.687500
vt 0.062500 0.562500
vt 0.187500 0.937500
vt 0.187500 0.812500
vt 0.062500 0.937500
vt 0.437500 0.562500
vt 0.671367 0.358455
vt 0.506884 0.725192
vt 0.312500 0.812500
vt 0.437500 0.937500
vt 0.937500 0.812500
vt 0.812500 0.812500
vt 0.937500 0.937500
vt 0.875000 0.187500
vt 0.562500 0.562500
vt 0.937500 0.625000
vt 0.819332 0.591237
vt 0.812500 0.687500
vt 0.937500 0.562500
vt 0.319123 0.700934
vt 0.682510 0.583771
vt 0.875000 0.562500
vt 0.187500 0.062500
vt 0.062500 0.062500
vt 0.187500 0.187500
vt 0.312500 0.062500
vt 0.312500 0.187500
vt 0.437500 0.062500
vt 0.812500 0.062500
vt 0.937500 0.062500
vt 0.000000 0.937500
vt 0.587160 0.675778
vt 0.525016 0.804189
vt 0.562500 0.187500
vt 0.687500 0.187500
vt 0.562500 0.062500
vt 0.937500 0.312500
vt 0.812500 0.312500
vt 0.937500 0.437500
vt 0.312500 0.937500
vt 0.937500 0.000000
vt 0.812500 0.187500
vt 0.800716 0.372483
vt 0.687500 0.062500
vt 0.400647 0.375957
vt 0.937500 0.187500
vt 0.437500 0.187500
vt 0.062500 0.187500
vt 0.380019 0.768564
vt 0.937500 0.687500
vt 0.000000 0.812500
vt 0.062500 0.812500
vt 0.812500 0.937500
vt 0.187500 0.562500
vt 0.765906 0.648544
vt 0.331404 0.533038
vt 0.689660 0.497671
vt 0.341381 0.495350
vt 0.718294 0.771897
vt 0.875000 0.312500
vt 0.608424 0.497343
vt 0.187500 0.375000
vt 0.296906 0.332149
vt 0.711873 0.607167
vt 0.713437 0.300753
vt 0.668274 0.669022
vt 0.331126 0.276226
vt 0.281585 0.657008
vt 1.000000 0.062500
vt 0.611736 0.771102
vt 0.595175 0.366343
vt 0.423048 0.496410
vt 0.713353 0.422290
vt 0.758105 0.454518
vt 0.370877 0.428346
vt 0.418341 0.256674
vt 0.320334 0.388669
vt 0.812755 0.481587
vt 0.477835 0.361491
vt 0.187500 0.625000
vt 0.414679 0.661630
vt 0.875000 0.687500
vt 0.450521 0.418925
vt 0.062500 1.000000
vn -0.088239 -0.088239 0.992183
vn -0.036864 0.036864 0.998640
vn 0.000000 0.000000 1.000000
vn 0.005088 0.005088 0.999974
vn 0.132551 -0.452168 0.882029
vn -0.472471 0.001643 0.881344
vn 0.002381 0.395039 0.918661
vn 0.588898 -0.028369 0.807709
vn -0.023787 -0.410357 0.911615
vn -0.211183 0.249459 0.945078
vn 0.296032 0.212816 0.931168
vn -0.192161 -0.253203 0.948136
vn 0.228954 -0.324600 0.917723
vn 0.037916 -0.208531 0.977281
vn -0.008053 -0.348293 0.937351
vn 0.338428 0.081061 0.937494
vn 0.317570 -0.050279 0.946901
vn -0.014564 0.449385 0.893219
vn 0.025081 0.339534 0.940259
vn -0.408097 -0.011237 0.912869
vn -0.384440 0.020170 0.922930
vn -0.096072 -0.365618 0.925794
vn 0.095217 -0.042176 0.994563
vn -0.529983 0.054912 0.846229
vn 0.216314 -0.311268 0.925376
vn 0.420192 -0.175285 0.890345
vn 0.138380 -0.357078 0.923767
vn 0.500502 -0.169219 0.849036
vn 0.125557 -0.154080 0.980048
vn -0.038266 -0.355497 0.933894
vn -0.157886 -0.183510 0.970256
vn -0.032608 -0.373484 0.927063
vn 0.413034 0.209593 0.886270
vn 0.074316 0.353485 0.932483
vn 0.227138 0.167473 0.959355
vn 0.029248 0.402332 0.915027
vn -0.375538 0.188921 0.907348
vn -0.227364 0.184614 0.956150
vn -0.482259 0.053633 0.874386
vn 0.027554 0.404190 0.914260
vn -0.408732 -0.128693 0.903535
vn -0.053135 -0.298474 0.952937
vn 0.324087 0.172476 0.930172
vn 0.236429 -0.235221 0.942747
vn -0.070968 0.363795 0.928772
vn 0.121886 0.328120 0.936739
vn -0.283730 -0.098449 0.953837
vn -0.397381 0.110549 0.910971
vn -0.192796 0.309345 0.931201
vn 0.113330 -0.344561 0.931898
vn 0.262320 -0.385113 0.884803
vn 0.542827 -0.072278 0.836728
vn 0.022753 0.365857 0.930393
vn -0.487092 -0.187052 0.853084
vn -0.452954 -0.014305 0.891419
vn 0.007552 0.404885 0.914337
vn 0.017663 0.328706 0.944267
vn -0.353676 -0.264918 0.897068
vn -0.503382 0.002546 0.864060
vn 0.022296 -0.365932 0.930375
vn 0.181349 -0.349755 0.919121
vn -0.053202 -0.389915 0.919313
vn 0.001284 -0.009509 0.999954
vn -0.455315 0.009871 0.890276
vn -0.304422 0.018368 0.952360
vn -0.284033 -0.055694 0.957196
vn 0.001705 0.387790 0.921746
vn 0.071957 0.148482 0.986294
vn -0.039341 0.316816 0.947671
vn 0.021465 0.436606 0.899397
vn 0.478509 -0.038987 0.877216
vn 0.034920 -0.059473 0.997619
vn 0.097739 0.044376 0.994222
vn 0.555522 0.060491 0.829299
vn 0.000789 -0.366835 0.930286
vn -0.042332 -0.245656 0.968432
vn 0.033122 -0.036594 0.998781
vn 0.047688 -0.368166 0.928536
vn 0.152022 -0.266145 0.951870
vn 0.037339 0.391962 0.919223
vn 0.553009 0.054315 0.831403
vn -0.401740 -0.035677 0.915059
vn -0.460831 -0.156558 0.873570
vn -0.336129 -0.172854 0.925818
vn -0.469656 -0.013748 0.882742
vn 0.030153 0.383409 0.923086
vn 0.101213 0.353457 0.929959
vn -0.000724 0.406874 0.913484
vn -0.444588 0.039569 0.894861
vn -0.391819 0.136662 0.909836
vn -0.479858 0.000969 0.877345
vn -0.064931 0.385194 0.920549
vn -0.254377 0.210988 0.943810
vn -0.192467 0.191408 0.962455
vn -0.015073 0.359754 0.932926
vn 0.193639 -0.411026 0.890821
vn 0.009026 0.345570 0.938350
vn -0.022788 0.350208 0.936395
vn 0.021636 0.417165 0.908573
vn 0.237748 0.110842 0.964982
vn 0.271015 0.225686 0.935744
vn 0.072490 0.060605 0.995526
vn 0.155960 -0.239537 0.958279
vn -0.003385 0.371262 0.928522
vn 0.513241 0.105183 0.851775
vn 0.422714 0.219356 0.879315
vn 0.354886 0.247747 0.901486
vn 0.559900 0.043012 0.827443
vn -0.112110 0.283771 0.952316
vn 0.228768 0.380628 0.895984
vn 0.487693 0.100294 0.867235
vn -0.059530 -0.291885 0.954599
vn -0.118013 -0.130627 0.984383
vn -0.194648 -0.203142 0.959607
vn -0.013566 -0.349113 0.936983
vn -0.078190 -0.333754 0.939412
vn -0.026012 -0.381515 0.923997
vn 0.095560 -0.117105 0.988511
vn 0.027146 0.000594 0.999631
vn -0.181052 0.060351 0.981620
vn 0.034929 0.332095 0.942599
vn -0.007204 0.379281 0.925253
vn 0.064020 -0.365418 0.928639
vn 0.198402 -0.327250 0.923874
vn 0.024561 -0.406802 0.913186
vn 0.357501 -0.106357 0.927837
vn 0.322439 -0.278903 0.904569
vn 0.517573 -0.088450 0.851055
vn 0.006016 0.437214 0.899337
vn 0.023266 0.050111 0.998473
vn 0.225665 -0.249207 0.941792
vn 0.393554 -0.261411 0.881351
vn 0.089487 -0.294117 0.951571
vn -0.098002 -0.397903 0.912178
vn 0.144451 -0.154275 0.977411
vn -0.066273 -0.387344 0.919550
vn -0.299267 -0.068419 0.951713
vn 0.011167 0.356258 0.934321
vn 0.411097 0.122523 0.903320
vn -0.346784 -0.000000 0.937945
vn -0.354403 0.034255 0.934465
vn 0.106290 0.262338 0.959105
vn -0.487589 0.046415 0.871839
vn 0.333647 0.296136 0.894977
vn -0.248874 0.392183 0.885581
vn 0.333110 -0.015966 0.942753
vn -0.229570 0.131452 0.964374
vn 0.219660 0.265781 0.938675
vn 0.363534 -0.175700 0.914862
vn 0.003063 0.081766 0.996647
vn -0.390016 -0.210281 0.896476
vn -0.237755 -0.299775 0.923909
vn 0.301534 0.337138 0.891860
vn 0.224683 -0.365220 0.903400
vn 0.160078 0.336430 0.928003
vn -0.122077 -0.339453 0.932668
vn -0.268657 0.218364 0.938158
vn -0.073752 -0.000000 0.997277
vn 0.041627 0.354521 0.934121
vn 0.110107 -0.372650 0.921416
vn -0.018268 -0.002781 0.999829
vn 0.299099 -0.461690 0.835094
vn 0.492212 -0.290133 0.820701
vn -0.085512 -0.449668 0.889093
vn -0.082956 -0.383755 0.919701
vn -0.235978 -0.379014 0.894798
vn 0.539853 -0.112796 0.834168
vn -0.021908 -0.351467 0.935944
vn -0.438945 0.086061 0.894383
vn -0.005946 0.318265 0.947983
vn 0.333243 0.201981 0.920952
vn -0.035409 -0.377139 0.925479
vn -0.060436 0.181307 0.981568
f 1/1/1 113/113/113 66/66/66
f 31/31/31 137/137/137 113/113/113
f 109/109/109 157/157/157 49/49/49
f 98/98/98 45/45/45 10/10/10
f 84/84/84 151/151/151 41/41/41
f 112/112/112 114/114/114 31/31/31
f 114/114/114 47/47/47 31/31/31
f 84/84/84 152/152/152 58/58/58
f 137/137/137 66/66/66 113/113/113
f 93/93/93 10/10/10 45/45/45
f 150/150/150 104/104/104 63/63/63
f 161/161/161 145/145/145 147/147/147
f 170/170/170 109/109/109 49/49/49
f 164/164/164 147/147/147 166/166/166
f 42/42/42 114/114/114 112/112/112
f 76/76/76 113/113/113 1/1/1
f 147/147/147 164/164/164 161/161/161
f 15/15/15 112/112/112 76/76/76
f 115/115/115 15/15/15 75/75/75
f 146/146/146 162/162/162 163/163/163
f 60/60/60 150/150/150 63/63/63
f 150/150/150 80/80/80 104/104/104
f 22/22/22 30/30/30 136/136/136
f 162/162/162 51/51/51 163/163/163
f 32/32/32 165/165/165 136/136/136
f 22/22/22 136/136/136 165/165/165
f 161/161/161 95/95/95 145/145/145
f 52/52/52 128/128/128 108/108/108
f 103/103/103 44/44/44 25/25/25
f 116/116/116 30/30/30 22/22/22
f 160/160/160 5/5/5 60/60/60
f 12/12/12 114/114/114 42/42/42
f 156/156/156 116/116/116 22/22/22
f 156/156/156 152/152/152 12/12/12
f 156/156/156 12/12/12 116/116/116
f 158/158/158 72/72/72 119/119/119
f 168/168/168 165/165/165 32/32/32
f 170/170/170 138/138/138 109/109/109
f 156/156/156 22/22/22 165/165/165
f 27/27/27 125/125/125 133/133/133
f 146/146/146 81/81/81 110/110/110
f 82/82/82 137/137/137 47/47/47
f 172/172/172 168/168/168 60/60/60
f 51/51/51 162/162/162 96/96/96
f 78/78/78 133/133/133 125/125/125
f 94/94/94 65/65/65 38/38/38
f 39/39/39 89/89/89 91/91/91
f 69/69/69 94/94/94 92/92/92
f 152/152/152 166/166/166 58/58/58
f 167/167/167 106/106/106 81/81/81
f 118/118/118 29/29/29 79/79/79
f 170/170/170 53/53/53 138/138/138
f 112/112/112 15/15/15 42/42/42
f 45/45/45 98/98/98 36/36/36
f 48/48/48 90/90/90 93/93/93
f 81/81/81 153/153/153 110/110/110
f 38/38/38 92/92/92 94/94/94
f 99/99/99 36/36/36 56/56/56
f 83/83/83 58/58/58 54/54/54
f 23/23/23 29/29/29 118/118/118
f 151/151/151 58/58/58 83/83/83
f 34/34/34 80/80/80 110/110/110
f 84/84/84 12/12/12 152/152/152
f 84/84/84 58/58/58 151/151/151
f 47/47/47 114/114/114 84/84/84
f 84/84/84 114/114/114 12/12/12
f 47/47/47 84/84/84 41/41/41
f 82/82/82 47/47/47 41/41/41
f 36/36/36 99/99/99 129/129/129
f 20/20/20 137/137/137 82/82/82
f 70/70/70 129/129/129 99/99/99
f 20/20/20 66/66/66 137/137/137
f 55/55/55 20/20/20 82/82/82
f 98/98/98 138/138/138 36/36/36
f 171/171/171 33/33/33 139/139/139
f 102/102/102 68/68/68 35/35/35
f 141/141/141 38/38/38 65/65/65
f 130/130/130 2/2/2 119/119/119
f 140/140/140 21/21/21 141/141/141
f 53/53/53 56/56/56 36/36/36
f 92/92/92 18/18/18 69/69/69
f 48/48/48 89/89/89 90/90/90
f 139/139/139 43/43/43 171/171/171
f 62/62/62 136/136/136 117/117/117
f 122/122/122 53/53/53 97/97/97
f 42/42/42 115/115/115 116/116/116
f 122/122/122 97/97/97 159/159/159
f 135/135/135 126/126/126 44/44/44
f 109/109/109 98/98/98 10/10/10
f 94/94/94 173/173/173 120/120/120
f 14/14/14 133/133/133 78/78/78
f 129/129/129 45/45/45 36/36/36
f 152/152/152 134/134/134 166/166/166
f 123/123/123 32/32/32 62/62/62
f 133/133/133 79/79/79 27/27/27
f 135/135/135 17/17/17 126/126/126
f 136/136/136 62/62/62 32/32/32
f 41/41/41 85/85/85 82/82/82
f 93/93/93 45/45/45 38/38/38
f 129/129/129 70/70/70 18/18/18
f 55/55/55 82/82/82 85/85/85
f 53/53/53 36/36/36 138/138/138
f 92/92/92 38/38/38 45/45/45
f 145/145/145 24/24/24 147/147/147
f 18/18/18 92/92/92 129/129/129
f 29/29/29 23/23/23 119/119/119
f 48/48/48 141/141/141 89/89/89
f 45/45/45 129/129/129 92/92/92
f 21/21/21 89/89/89 141/141/141
f 6/6/6 91/91/91 64/64/64
f 105/105/105 139/139/139 33/33/33
f 149/149/149 44/44/44 126/126/126
f 46/46/46 101/101/101 142/142/142
f 134/134/134 156/156/156 165/165/165
f 39/39/39 169/169/169 90/90/90
f 37/37/37 24/24/24 145/145/145
f 24/24/24 59/59/59 83/83/83
f 120/120/120 65/65/65 94/94/94
f 54/54/54 147/147/147 24/24/24
f 77/77/77 23/23/23 118/118/118
f 37/37/37 145/145/145 49/49/49
f 157/157/157 90/90/90 169/169/169
f 123/123/123 27/27/27 61/61/61
f 124/124/124 61/61/61 27/27/27
f 60/60/60 168/168/168 160/160/160
f 16/16/16 100/100/100 139/139/139
f 56/56/56 53/53/53 122/122/122
f 6/6/6 55/55/55 85/85/85
f 5/5/5 96/96/96 162/162/162
f 24/24/24 83/83/83 54/54/54
f 24/24/24 143/143/143 59/59/59
f 143/143/143 169/169/169 39/39/39
f 69/69/69 173/173/173 94/94/94
f 101/101/101 107/107/107 43/43/43
f 30/30/30 116/116/116 115/115/115
f 107/107/107 101/101/101 11/11/11
f 157/157/157 169/169/169 37/37/37
f 135/135/135 103/103/103 29/29/29
f 95/95/95 49/49/49 145/145/145
f 135/135/135 72/72/72 17/17/17
f 37/37/37 169/169/169 143/143/143
f 37/37/37 143/143/143 24/24/24
f 157/157/157 37/37/37 49/49/49
f 157/157/157 10/10/10 90/90/90
f 109/109/109 138/138/138 98/98/98
f 109/109/109 10/10/10 157/157/157
f 135/135/135 44/44/44 103/103/103
f 170/170/170 97/97/97 53/53/53
f 27/27/27 123/123/123 125/125/125
f 62/62/62 125/125/125 123/123/123
f 151/151/151 83/83/83 41/41/41
f 139/139/139 100/100/100 43/43/43
f 131/131/131 79/79/79 29/29/29
f 73/73/73 4/4/4 102/102/102
f 121/121/121 57/57/57 104/104/104
f 40/40/40 46/46/46 86/86/86
f 57/57/57 97/97/97 170/170/170
f 57/57/57 170/170/170 95/95/95
f 78/78/78 125/125/125 9/9/9
f 112/112/112 31/31/31 76/76/76
f 74/74/74 16/16/16 139/139/139
f 110/110/110 155/155/155 34/34/34
f 87/87/87 46/46/46 40/40/40
f 2/2/2 158/158/158 119/119/119
f 110/110/110 153/153/153 155/155/155
f 108/108/108 111/111/111 52/52/52
f 121/121/121 97/97/97 57/57/57
f 34/34/34 121/121/121 104/104/104
f 39/39/39 91/91/91 143/143/143
f 107/107/107 106/106/106 33/33/33
f 11/11/11 155/155/155 144/144/144
f 155/155/155 121/121/121 34/34/34
f 64/64/64 91/91/91 89/89/89
f 106/106/106 153/153/153 81/81/81
f 77/77/77 130/130/130 23/23/23
f 39/39/39 90/90/90 89/89/89
f 50/50/50 160/160/160 168/168/168
f 65/65/65 140/140/140 141/141/141
f 85/85/85 59/59/59 6/6/6
f 91/91/91 6/6/6 59/59/59
f 154/154/154 51/51/51 96/96/96
f 167/167/167 111/111/111 106/106/106
f 33/33/33 106/106/106 111/111/111
f 107/107/107 33/33/33 171/171/171
f 167/167/167 132/132/132 28/28/28
f 64/64/64 89/89/89 21/21/21
f 105/105/105 33/33/33 111/111/111
f 71/71/71 128/128/128 126/126/126
f 105/105/105 111/111/111 108/108/108
f 147/147/147 54/54/54 166/166/166
f 74/74/74 108/108/108 8/8/8
f 58/58/58 166/166/166 54/54/54
f 74/74/74 105/105/105 108/108/108
f 26/26/26 126/126/126 128/128/128
f 134/134/134 164/164/164 166/166/166
f 11/11/11 144/144/144 107/107/107
f 43/43/43 107/107/107 171/171/171
f 144/144/144 155/155/155 153/153/153
f 144/144/144 153/153/153 106/106/106
f 144/144/144 106/106/106 107/107/107
f 115/115/115 42/42/42 15/15/15
f 159/159/159 87/87/87 40/40/40
f 4/4/4 68/68/68 102/102/102
f 148/148/148 101/101/101 46/46/46
f 103/103/103 25/25/25 131/131/131
f 168/168/168 172/172/172 134/134/134
f 74/74/74 139/139/139 105/105/105
f 8/8/8 108/108/108 128/128/128
f 7/7/7 99/99/99 88/88/88
f 19/19/19 86/86/86 142/142/142
f 125/125/125 62/62/62 9/9/9
f 79/79/79 133/133/133 118/118/118
f 102/102/102 35/35/35 100/100/100
f 80/80/80 34/34/34 104/104/104
f 40/40/40 86/86/86 88/88/88
f 150/150/150 60/60/60 5/5/5
f 148/148/148 46/46/46 87/87/87
f 46/46/46 142/142/142 86/86/86
f 117/117/117 9/9/9 62/62/62
f 67/67/67 88/88/88 86/86/86
f 56/56/56 122/122/122 40/40/40
f 159/159/159 155/155/155 148/148/148
f 122/122/122 159/159/159 40/40/40
f 159/159/159 148/148/148 87/87/87
f 148/148/148 155/155/155 11/11/11
f 148/148/148 11/11/11 101/101/101
f 159/159/159 97/97/97 121/121/121
f 159/159/159 121/121/121 155/155/155
f 56/56/56 40/40/40 88/88/88
f 30/30/30 117/117/117 136/136/136
f 56/56/56 88/88/88 99/99/99
f 3/3/3 120/120/120 173/173/173
f 7/7/7 70/70/70 99/99/99
f 67/67/67 7/7/7 88/88/88
f 19/19/19 67/67/67 86/86/86
f 68/68/68 19/19/19 142/142/142
f 73/73/73 102/102/102 100/100/100
f 59/59/59 85/85/85 83/83/83
f 59/59/59 143/143/143 91/91/91
f 135/135/135 29/29/29 72/72/72
f 16/16/16 73/73/73 100/100/100
f 13/13/13 124/124/124 131/131/131
f 142/142/142 35/35/35 68/68/68
f 119/119/119 23/23/23 130/130/130
f 95/95/95 104/104/104 57/57/57
f 28/28/28 128/128/128 52/52/52
f 131/131/131 25/25/25 13/13/13
f 60/60/60 63/63/63 172/172/172
f 161/161/161 172/172/172 63/63/63
f 126/126/126 17/17/17 71/71/71
f 132/132/132 26/26/26 28/28/28
f 128/128/128 71/71/71 8/8/8
f 124/124/124 27/27/27 79/79/79
f 167/167/167 28/28/28 52/52/52
f 26/26/26 128/128/128 28/28/28
f 115/115/115 75/75/75 30/30/30
f 117/117/117 30/30/30 75/75/75
f 95/95/95 170/170/170 49/49/49
f 100/100/100 35/35/35 43/43/43
f 103/103/103 131/131/131 29/29/29
f 35/35/35 142/142/142 101/101/101
f 101/101/101 43/43/43 35/35/35
f 13/13/13 25/25/25 127/127/127
f 149/149/149 126/126/126 26/26/26
f 149/149/149 26/26/26 127/127/127
f 51/51/51 127/127/127 132/132/132
f 118/118/118 133/133/133 14/14/14
f 79/79/79 131/131/131 124/124/124
f 113/113/113 76/76/76 31/31/31
f 163/163/163 132/132/132 167/167/167
f 132/132/132 127/127/127 26/26/26
f 167/167/167 52/52/52 111/111/111
f 163/163/163 167/167/167 81/81/81
f 63/63/63 95/95/95 161/161/161
f 146/146/146 163/163/163 81/81/81
f 150/150/150 5/5/5 146/146/146
f 96/96/96 160/160/160 50/50/50
f 50/50/50 168/168/168 32/32/32
f 161/161/161 164/164/164 172/172/172
f 96/96/96 5/5/5 160/160/160
f 134/134/134 172/172/172 164/164/164
f 124/124/124 154/154/154 61/61/61
f 12/12/12 42/42/42 116/116/116
f 123/123/123 50/50/50 32/32/32
f 96/96/96 50/50/50 61/61/61
f 104/104/104 95/95/95 63/63/63
f 77/77/77 118/118/118 14/14/14
f 154/154/154 127/127/127 51/51/51
f 162/162/162 146/146/146 5/5/5
f 51/51/51 132/132/132 163/163/163
f 85/85/85 41/41/41 83/83/83
f 154/154/154 96/96/96 61/61/61
f 154/154/154 13/13/13 127/127/127
f 124/124/124 13/13/13 154/154/154
f 149/149/149 127/127/127 44/44/44
f 25/25/25 44/44/44 127/127/127
f 10/10/10 93/93/93 90/90/90
f 123/123/123 61/61/61 50/50/50
f 150/150/150 146/146/146 80/80/80
f 119/119/119 72/72/72 29/29/29
f 137/137/137 31/31/31 47/47/47
f 9/9/9 117/117/117 75/75/75
f 146/146/146 110/110/110 80/80/80
f 134/134/134 165/165/165 168/168/168
f 134/134/134 152/152/152 156/156/156
f 48/48/48 93/93/93 141/141/141
f 38/38/38 141/141/141 93/93/93
