# frame 000985 
# time 0.493000 
# name Cloth3D 
v -0.000000 0.000000 -0.000000
v 1.000000 0.000000 -0.000000
v -0.000000 1.000000 0.000000
v 1.000000 1.000000 0.000000
v 0.651767 0.412850 0.153648
v -0.000000 0.500000 0.000000
v 0.500000 1.000000 0.000000
v 1.000000 0.500000 0.000000
v 0.500000 -0.000000 0.000000
v 0.244204 0.753873 0.089309
v 0.754562 0.750547 0.079204
v 0.246698 0.249271 0.074081
v 0.752197 0.253598 0.062736
v 0.750000 0.000000 0.000000
v 0.250000 0.000000 0.000000
v 1.000000 0.750000 0.000000
v 1.000000 0.250000 0.000000
v 0.250000 1.000000 0.000000
v 0.750000 1.000000 0.000000
v 0.000000 0.250000 0.000000
v 0.000000 0.750000 -0.000000
v 0.363720 0.219626 0.080887
v 0.061469 0.875841 0.016129
v 0.228337 0.515912 0.137772
v 0.815300 0.252168 0.052118
v 0.883503 0.375947 0.061532
v 0.624979 0.125584 0.044055
v 0.889443 0.437110 0.076275
v 0.873829 0.127968 0.006520
v 0.374615 0.124781 0.045774
v 0.124414 0.124426 0.023673
v 0.492411 0.250429 0.098624
v 0.883213 0.624800 0.063638
v 0.634788 0.624702 0.152643
v 0.873580 0.873183 0.012328
v 0.373948 0.880073 0.061597
v 0.250067 0.601142 0.129077
v 0.123412 0.877165 0.030819
v 0.115157 0.626142 0.068591
v 0.626069 0.878505 0.057748
v 0.121626 0.375966 0.052020
v 0.248927 0.122728 0.043249
v 0.876642 0.748921 0.039411
v 0.877497 0.251515 0.037543
v 0.247606 0.880679 0.055965
v 0.751215 0.877019 0.044279
v 0.123199 0.250078 0.039369
v 0.118761 0.752215 0.054201
v 0.312704 0.594201 0.156136
v 0.585056 0.305771 0.114342
v 0.745961 0.367637 0.110303
v 0.889110 0.499846 0.077755
v 0.434556 0.775644 0.103713
v 0.234385 0.455414 0.127736
v 0.000000 0.375000 0.000000
v 0.500173 0.877602 0.058335
v 0.500823 0.625623 0.160107
v 0.242746 0.375824 0.104070
v 0.114851 0.500327 0.070305
v 0.522215 0.413554 0.159949
v 0.627044 0.252385 0.086554
v 0.499943 0.124423 0.049982
v 0.497142 0.511353 0.202591
v 0.000000 0.625000 0.000000
v 0.000000 0.875000 0.000000
v 0.000000 0.125000 0.000000
v 0.625000 1.000000 0.000000
v 0.875000 1.000000 0.000000
v 0.125000 1.000000 0.000000
v 0.375000 1.000000 0.000000
v 1.000000 0.375000 0.000000
v 1.000000 0.125000 0.000000
v 1.000000 0.875000 0.000000
v 1.000000 0.625000 0.000000
v 0.375000 0.000000 0.000000
v 0.125000 0.000000 0.000000
v 0.875000 0.000000 0.000000
v 0.625000 0.000000 0.000000
v 0.749462 0.127491 0.027649
v 0.639819 0.562178 0.180543
v 0.785184 0.515986 0.151076
v 0.062327 0.313198 0.020260
v 0.177729 0.437994 0.093513
v 0.182139 0.312252 0.072378
v 0.059231 0.438041 0.030978
v 0.687769 0.939721 0.027868
v 0.690096 0.814541 0.072396
v 0.562697 0.939847 0.030972
v 0.056610 0.688326 0.034648
v 0.179190 0.689770 0.084103
v 0.056285 0.562872 0.037070
v 0.186593 0.941120 0.026882
v 0.182855 0.816622 0.061938
v 0.061730 0.938266 0.011220
v 0.431427 0.563000 0.183949
v 0.680181 0.359986 0.125573
v 0.507870 0.727039 0.120478
v 0.309237 0.818500 0.083967
v 0.437412 0.940786 0.033032
v 0.937789 0.811769 0.015322
v 0.812403 0.811157 0.039870
v 0.936831 0.936821 0.001924
v 0.875476 0.189532 0.023203
v 0.570236 0.562776 0.183818
v 0.940658 0.624500 0.029830
v 0.833065 0.591455 0.099123
v 0.819430 0.687432 0.077783
v 0.940647 0.561905 0.031867
v 0.312954 0.703810 0.116148
v 0.938111 0.251072 0.016597
v 0.885027 0.562130 0.069941
v 0.187318 0.061238 0.019215
v 0.062319 0.062338 0.008084
v 0.185405 0.186158 0.048551
v 0.312471 0.062699 0.020231
v 0.310724 0.185460 0.068271
v 0.437470 0.062357 0.023979
v 0.811668 0.064289 0.006832
v 0.936819 0.063496 -0.002189
v -0.000000 0.937500 0.000000
v 0.592563 0.676611 0.136271
v 0.525801 0.807199 0.089100
v 0.563103 0.187373 0.072795
v 0.687887 0.190387 0.054517
v 0.562397 0.062065 0.024891
v 0.940332 0.313334 0.025703
v 0.818580 0.314264 0.069985
v 0.945191 0.437715 0.038661
v 0.312050 0.940229 0.029947
v 0.937500 0.000000 -0.000000
v 0.812377 0.191057 0.031404
v 0.811802 0.373174 0.093105
v 0.687139 0.063211 0.018699
v 0.395554 0.376918 0.142840
v 0.938313 0.188291 0.015451
v 0.436917 0.186134 0.075339
v 0.062380 0.187749 0.014478
v 0.377313 0.773350 0.103675
v 0.938015 0.686441 0.021708
v 0.297347 0.443754 0.149680
v 0.061280 0.813015 0.019858
v 0.812247 0.937622 0.015535
v 0.175156 0.563172 0.100829
v 0.776454 0.648527 0.106749
v 0.311536 0.533354 0.187116
v 0.719933 0.512173 0.202725
v 0.320141 0.510492 0.202728
v 0.722338 0.773225 0.080852
v 0.879899 0.313859 0.048956
v 0.623256 0.511858 0.202626
v 0.181785 0.375819 0.078839
v 0.291145 0.332435 0.107133
v 0.727085 0.607618 0.143544
v 0.719291 0.302572 0.093474
v 0.676534 0.668694 0.126363
v 0.327805 0.276160 0.095095
v 0.272380 0.659289 0.121529
v 1.000000 0.062500 -0.000000
v 0.614566 0.772554 0.095814
v 0.601461 0.368177 0.138318
v 0.413503 0.511002 0.202589
v 0.729329 0.423832 0.142419
v 0.778268 0.453955 0.139102
v 0.360557 0.428982 0.162501
v 0.416893 0.256363 0.098872
v 0.312409 0.389918 0.131393
v 0.832819 0.481064 0.116974
v 0.477130 0.363425 0.139072
v 0.177374 0.626270 0.092947
v 0.410774 0.662701 0.141479
v 0.879725 0.687047 0.051609
v 0.447025 0.420223 0.163028
v 0.062500 1.000000 0.000000
v 0.571490 0.459570 0.179367
vt 0.000000 0.000000
vt 1.000000 0.000000
vt 0.000000 1.000000
vt 1.000000 1.000000
vt 0.639940 0.411013
vt 0.000000 0.500000
vt 0.500000 1.000000
vt 1.000000 0.500000
vt 0.500000 0.000000
vt 0.250000 0.750000
vt 0.750000 0.750000
vt 0.250000 0.250000
vt 0.750000 0.250000
vt 0.750000 0.000000
vt 0.250000 0.000000
vt 1.000000 0.750000
vt 1.000000 0.250000
vt 0.250000 1.000000
vt 0.750000 1.000000
vt 0.000000 0.250000
vt 0.000000 0.750000
vt 0.365347 0.220303
vt 0.062500 0.875000
vt 0.245672 0.515386
vt 0.812500 0.250000
vt 0.875000 0.375000
vt 0.625000 0.125000
vt 0.875000 0.437500
vt 0.875000 0.125000
vt 0.375000 0.125000
vt 0.125000 0.125000
vt 0.492214 0.250470
vt 0.875000 0.625000
vt 0.625000 0.625000
vt 0.875000 0.875000
vt 0.375000 0.875000
vt 0.262101 0.599801
vt 0.125000 0.875000
vt 0.125000 0.625000
vt 0.625000 0.875000
vt 0.125000 0.375000
vt 0.250000 0.125000
vt 0.875000 0.750000
vt 0.875000 0.250000
vt 0.250000 0.875000
vt 0.750000 0.875000
vt 0.125000 0.250000
vt 0.125000 0.750000
vt 0.325445 0.593646
vt 0.581754 0.304126
vt 0.736041 0.365469
vt 0.875000 0.500000
vt 0.435664 0.771773
vt 0.248222 0.455442
vt 0.000000 0.375000
vt 0.500000 0.875000
vt 0.500000 0.625000
vt 0.250000 0.375000
vt 0.125000 0.500000
vt 0.519707 0.411902
vt 0.625000 0.250000
vt 0.500000 0.125000
vt 0.497102 0.511316
vt 0.000000 0.625000
vt 0.000000 0.875000
vt 0.000000 0.125000
vt 0.625000 1.000000
vt 0.875000 1.000000
vt 0.125000 1.000000
vt 0.375000 1.000000
vt 1.000000 0.375000
vt 1.000000 0.125000
vt 1.000000 0.875000
vt 1.000000 0.625000
vt 0.375000 0.000000
vt 0.125000 0.000000
vt 0.875000 0.000000
vt 0.625000 0.000000
vt 0.750000 0.125000
vt 0.625000 0.562500
vt 0.760524 0.515669
vt 0.062500 0.312500
vt 0.187500 0.437500
vt 0.187500 0.312500
vt 0.062500 0.437500
vt 0.687500 0.937500
vt 0.687500 0.812500
vt 0.562500 0.937500
vt 0.062500 0.687500
vt 0.187500 0.687500
vt 0.062500 0.562500
vt 0.187500 0.937500
vt 0.187500 0.812500
vt 0.062500 0.937500
vt 0.437500 0.562500
vt 0.671367 0.358455
vt 0.506884 0.725192
vt 0.312500 0.812500
vt 0.437500 0.937500
vt 0.937500 0.812500
vt 0.812500 0.812500
vt 0.937500 0.937500
vt 0.875000 0.187500
vt 0.562500 0.562500
vt 0.937500 0.625000
vt 0.819332 0.591237
vt 0.812500 0.687500
vt 0.937500 0.562500
vt 0.319123 0.700934
vt 0.937500 0.250000
vt 0.875000 0.562500
vt 0.187500 0.062500
vt 0.062500 0.062500
vt 0.187500 0.187500
vt 0.312500 0.062500
vt 0.312500 0.187500
vt 0.437500 0.062500
vt 0.812500 0.062500
vt 0.937500 0.062500
vt 0.000000 0.937500
vt 0.587160 0.675778
vt 0.525016 0.804189
vt 0.562500 0.187500
vt 0.687500 0.187500
vt 0.562500 0.062500
vt 0.937500 0.312500
vt 0.812500 0.312500
vt 0.937500 0.437500
vt 0.312500 0.937500
vt 0.937500 0.000000
vt 0.812500 0.187500
vt 0.800716 0.372483
vt 0.687500 0.062500
vt 0.400647 0.375957
vt 0.937500 0.187500
vt 0.437500 0.187500
vt 0.062500 0.187500
vt 0.380019 0.768564
vt 0.937500 0.687500
vt 0.309549 0.441894
vt 0.062500 0.812500
vt 0.812500 0.937500
vt 0.187500 0.562500
vt 0.765906 0.648544
vt 0.331404 0.533038
vt 0.690251 0.511383
vt 0.342623 0.510432
vt 0.718294 0.771897
vt 0.875000 0.312500
vt 0.608389 0.511683
vt 0.187500 0.375000
vt 0.296906 0.332149
vt 0.711873 0.607167
vt 0.713437 0.300753
vt 0.668274 0.669022
vt 0.331126 0.276226
vt 0.281585 0.657008
vt 1.000000 0.062500
vt 0.611736 0.771102
vt 0.595175 0.366343
vt 0.422919 0.511286
vt 0.713353 0.422290
vt 0.758105 0.454518
vt 0.370877 0.428346
vt 0.418341 0.256674
vt 0.320334 0.388669
vt 0.812755 0.481587
vt 0.477835 0.361491
vt 0.187500 0.625000
vt 0.414679 0.661630
vt 0.875000 0.687500
vt 0.450521 0.418925
vt 0.062500 1.000000
vt 0.564051 0.458319
vn -0.066400 -0.066400 0.995581
vn -0.019483 0.019483 0.999620
vn 0.000000 0.000000 1.000000
vn 0.014513 0.014513 0.999789
vn 0.114168 -0.423888 0.898490
vn -0.504536 -0.025082 0.863026
vn 0.008380 0.473468 0.880771
vn 0.550872 0.027707 0.834130
vn -0.006434 -0.370977 0.928620
vn -0.214009 0.233771 0.948447
vn 0.271500 0.307258 0.912075
vn -0.185736 -0.236656 0.953675
vn 0.203770 -0.338576 0.918610
vn 0.046368 -0.194751 0.979756
vn -0.001200 -0.304598 0.952480
vn 0.284135 0.025172 0.958454
vn 0.281712 -0.051939 0.958092
vn -0.008345 0.435320 0.900237
vn 0.048260 0.332788 0.941766
vn -0.273349 -0.019689 0.961713
vn -0.417960 0.060204 0.906468
vn -0.070843 -0.316297 0.946011
vn -0.246603 0.064011 0.967000
vn -0.479632 -0.015971 0.877325
vn 0.199799 -0.292907 0.935033
vn 0.413460 -0.221728 0.883113
vn 0.101570 -0.319817 0.942020
vn 0.520873 -0.147302 0.840829
vn 0.102877 -0.183690 0.977586
vn -0.039998 -0.362045 0.931302
vn -0.177767 -0.141044 0.973912
vn 0.004716 -0.339269 0.940678
vn 0.478232 0.156506 0.864176
vn 0.120453 0.391814 0.912126
vn 0.151485 0.151067 0.976848
vn -0.019520 0.405702 0.913797
vn -0.390709 0.244604 0.887421
vn -0.225784 0.150037 0.962554
vn -0.415667 0.079552 0.906031
vn 0.055344 0.371137 0.926927
vn -0.412429 -0.133122 0.901211
vn -0.075586 -0.300844 0.950673
vn 0.334908 0.192440 0.922390
vn 0.240796 -0.193030 0.951187
vn -0.097383 0.341726 0.934741
vn 0.182769 0.283637 0.941353
vn -0.332954 -0.110614 0.936433
vn -0.354114 0.155780 0.922136
vn -0.242204 0.376321 0.894271
vn 0.084778 -0.364215 0.927448
vn 0.261251 -0.378841 0.887821
vn 0.558353 0.057849 0.827584
vn 0.006096 0.351681 0.936100
vn -0.396215 -0.227629 0.889494
vn -0.387146 -0.042354 0.921045
vn 0.014720 0.394372 0.918833
vn 0.002979 0.367693 0.929943
vn -0.333417 -0.250736 0.908826
vn -0.494653 -0.059076 0.867080
vn 0.009485 -0.395842 0.918270
vn 0.142894 -0.355806 0.923571
vn 0.003173 -0.370145 0.928969
vn 0.001123 -0.015070 0.999886
vn -0.535640 0.006515 0.844422
vn -0.245188 0.036095 0.968803
vn -0.184481 -0.026467 0.982480
vn 0.011307 0.439728 0.898060
vn 0.053779 0.115854 0.991809
vn -0.050016 0.282615 0.957929
vn -0.011085 0.468905 0.883179
vn 0.476288 -0.052745 0.877706
vn 0.051110 -0.056770 0.997078
vn 0.132591 0.052770 0.989765
vn 0.435282 0.056682 0.898508
vn -0.012940 -0.338253 0.940966
vn -0.043888 -0.218592 0.974829
vn 0.029107 -0.018294 0.999409
vn 0.025509 -0.332115 0.942894
vn 0.146514 -0.229228 0.962283
vn 0.062225 0.416841 0.906847
vn 0.564028 0.003325 0.825749
vn -0.351522 -0.056398 0.934479
vn -0.434685 -0.217730 0.873867
vn -0.342102 -0.141847 0.928895
vn -0.461055 -0.070922 0.884533
vn 0.055402 0.385943 0.920858
vn 0.125157 0.303734 0.944500
vn 0.011276 0.428959 0.903254
vn -0.465749 0.064396 0.882570
vn -0.323261 0.152718 0.933905
vn -0.516710 -0.007429 0.856128
vn -0.085509 0.341242 0.936078
vn -0.242093 0.225675 0.943643
vn -0.168827 0.136886 0.976094
vn -0.032928 0.359091 0.932721
vn 0.181136 -0.394770 0.900748
vn 0.022474 0.354516 0.934780
vn -0.094438 0.322256 0.941930
vn 0.006184 0.443357 0.896324
vn 0.201201 0.093078 0.975118
vn 0.271765 0.240387 0.931857
vn 0.048410 0.057782 0.997155
vn 0.113978 -0.244941 0.962815
vn 0.030001 0.378385 0.925162
vn 0.485098 0.094722 0.869315
vn 0.481829 0.197337 0.853756
vn 0.359333 0.253842 0.898022
vn 0.531257 0.058310 0.845201
vn -0.161405 0.288668 0.943726
vn 0.289175 -0.080107 0.953918
vn 0.538977 0.110178 0.835083
vn -0.060964 -0.265162 0.962275
vn -0.102792 -0.093870 0.990264
vn -0.213185 -0.193457 0.957667
vn -0.014115 -0.337996 0.941042
vn -0.066586 -0.301520 0.951132
vn -0.016080 -0.365360 0.930727
vn 0.084199 -0.130441 0.987874
vn 0.007419 -0.010107 0.999921
vn -0.138907 0.046302 0.989222
vn 0.090233 0.362153 0.927741
vn 0.028595 0.372195 0.927714
vn 0.071550 -0.345780 0.935584
vn 0.167282 -0.306724 0.936983
vn 0.023629 -0.361063 0.932242
vn 0.358534 -0.126234 0.924942
vn 0.288494 -0.287515 0.913294
vn 0.545938 -0.080959 0.833905
vn -0.018604 0.436344 0.899588
vn 0.000000 0.038855 0.999245
vn 0.160564 -0.274214 0.948170
vn 0.341102 -0.316691 0.885074
vn 0.070072 -0.273897 0.959203
vn -0.085814 -0.386330 0.918360
vn 0.183076 -0.122073 0.975490
vn -0.044062 -0.353203 0.934508
vn -0.248121 -0.053904 0.967228
vn -0.043858 0.325019 0.944690
vn 0.417383 0.118772 0.900935
vn -0.336668 -0.374292 0.864037
vn -0.309880 0.080422 0.947368
vn 0.126600 0.218767 0.967530
vn -0.435663 0.109000 0.893485
vn 0.336883 0.311267 0.888607
vn -0.286191 0.434653 0.853915
vn 0.321051 0.029839 0.946592
vn -0.272276 0.214938 0.937906
vn 0.212901 0.300851 0.929603
vn 0.324089 -0.205935 0.923340
vn 0.021573 0.092003 0.995525
vn -0.386626 -0.164899 0.907375
vn -0.232144 -0.282978 0.930609
vn 0.281397 0.411595 0.866836
vn 0.223971 -0.365587 0.903429
vn 0.177745 0.375974 0.909423
vn -0.130292 -0.299347 0.945206
vn -0.287681 0.263876 0.920657
vn -0.039048 -0.000000 0.999237
vn 0.090963 0.341943 0.935308
vn 0.073821 -0.393098 0.916528
vn -0.022242 0.044736 0.998751
vn 0.277707 -0.446974 0.850349
vn 0.438554 -0.325385 0.837732
vn -0.168546 -0.432648 0.885668
vn -0.068186 -0.332445 0.940655
vn -0.256478 -0.351310 0.900445
vn 0.523879 -0.095158 0.846461
vn -0.001618 -0.374647 0.927166
vn -0.365162 0.140796 0.920235
vn -0.063443 0.345621 0.936227
vn 0.420029 0.196507 0.885980
vn -0.018233 -0.392571 0.919541
vn -0.046294 0.138882 0.989226
vn 0.021701 -0.407809 0.912809
f 1/1/1 113/113/113 66/66/66
f 31/31/31 137/137/137 113/113/113
f 109/109/109 157/157/157 49/49/49
f 98/98/98 45/45/45 10/10/10
f 84/84/84 151/151/151 41/41/41
f 112/112/112 114/114/114 31/31/31
f 114/114/114 47/47/47 31/31/31
f 84/84/84 152/152/152 58/58/58
f 137/137/137 66/66/66 113/113/113
f 93/93/93 10/10/10 45/45/45
f 150/150/150 104/104/104 63/63/63
f 161/161/161 145/145/145 147/147/147
f 170/170/170 109/109/109 49/49/49
f 104/104/104 34/34/34 57/57/57
f 42/42/42 114/114/114 112/112/112
f 76/76/76 113/113/113 1/1/1
f 147/147/147 164/164/164 161/161/161
f 15/15/15 112/112/112 76/76/76
f 115/115/115 15/15/15 75/75/75
f 146/146/146 162/162/162 163/163/163
f 91/91/91 59/59/59 39/39/39
f 150/150/150 80/80/80 104/104/104
f 22/22/22 30/30/30 136/136/136
f 162/162/162 51/51/51 163/163/163
f 32/32/32 165/165/165 136/136/136
f 22/22/22 136/136/136 165/165/165
f 161/161/161 95/95/95 145/145/145
f 76/76/76 112/112/112 113/113/113
f 44/44/44 149/149/149 25/25/25
f 116/116/116 30/30/30 22/22/22
f 174/174/174 150/150/150 63/63/63
f 12/12/12 114/114/114 42/42/42
f 156/156/156 116/116/116 22/22/22
f 156/156/156 152/152/152 12/12/12
f 156/156/156 12/12/12 116/116/116
f 158/158/158 72/72/72 119/119/119
f 168/168/168 165/165/165 32/32/32
f 170/170/170 138/138/138 109/109/109
f 156/156/156 22/22/22 165/165/165
f 6/6/6 85/85/85 91/91/91
f 140/140/140 164/164/164 147/147/147
f 82/82/82 137/137/137 47/47/47
f 172/172/172 168/168/168 60/60/60
f 51/51/51 162/162/162 96/96/96
f 59/59/59 91/91/91 85/85/85
f 34/34/34 80/80/80 153/153/153
f 39/39/39 89/89/89 91/91/91
f 69/69/69 94/94/94 92/92/92
f 152/152/152 166/166/166 58/58/58
f 167/167/167 106/106/106 81/81/81
f 118/118/118 29/29/29 79/79/79
f 170/170/170 53/53/53 138/138/138
f 125/125/125 78/78/78 27/27/27
f 117/117/117 9/9/9 62/62/62
f 48/48/48 90/90/90 93/93/93
f 134/134/134 152/152/152 156/156/156
f 38/38/38 92/92/92 94/94/94
f 99/99/99 36/36/36 56/56/56
f 83/83/83 58/58/58 54/54/54
f 128/128/128 26/26/26 71/71/71
f 151/151/151 58/58/58 83/83/83
f 126/126/126 110/110/110 17/17/17
f 84/84/84 12/12/12 152/152/152
f 84/84/84 58/58/58 151/151/151
f 47/47/47 114/114/114 84/84/84
f 84/84/84 114/114/114 12/12/12
f 47/47/47 84/84/84 41/41/41
f 82/82/82 47/47/47 41/41/41
f 36/36/36 99/99/99 129/129/129
f 20/20/20 137/137/137 82/82/82
f 70/70/70 129/129/129 99/99/99
f 20/20/20 66/66/66 137/137/137
f 55/55/55 20/20/20 82/82/82
f 98/98/98 138/138/138 36/36/36
f 171/171/171 33/33/33 139/139/139
f 102/102/102 68/68/68 35/35/35
f 146/146/146 153/153/153 80/80/80
f 130/130/130 2/2/2 119/119/119
f 166/166/166 140/140/140 58/58/58
f 53/53/53 56/56/56 36/36/36
f 92/92/92 18/18/18 69/69/69
f 103/103/103 44/44/44 131/131/131
f 139/139/139 43/43/43 171/171/171
f 62/62/62 136/136/136 117/117/117
f 122/122/122 53/53/53 97/97/97
f 42/42/42 115/115/115 116/116/116
f 122/122/122 97/97/97 159/159/159
f 5/5/5 174/174/174 160/160/160
f 109/109/109 98/98/98 10/10/10
f 94/94/94 173/173/173 120/120/120
f 14/14/14 133/133/133 78/78/78
f 125/125/125 62/62/62 9/9/9
f 152/152/152 134/134/134 166/166/166
f 123/123/123 32/32/32 62/62/62
f 27/27/27 133/133/133 124/124/124
f 60/60/60 160/160/160 174/174/174
f 136/136/136 62/62/62 32/32/32
f 41/41/41 85/85/85 82/82/82
f 93/93/93 45/45/45 38/38/38
f 129/129/129 70/70/70 18/18/18
f 55/55/55 82/82/82 85/85/85
f 53/53/53 36/36/36 138/138/138
f 92/92/92 38/38/38 45/45/45
f 145/145/145 24/24/24 147/147/147
f 18/18/18 92/92/92 129/129/129
f 126/126/126 71/71/71 26/26/26
f 38/38/38 141/141/141 93/93/93
f 45/45/45 129/129/129 92/92/92
f 48/48/48 93/93/93 141/141/141
f 6/6/6 91/91/91 64/64/64
f 105/105/105 139/139/139 33/33/33
f 149/149/149 44/44/44 126/126/126
f 46/46/46 101/101/101 142/142/142
f 134/134/134 156/156/156 165/165/165
f 39/39/39 169/169/169 90/90/90
f 37/37/37 24/24/24 145/145/145
f 24/24/24 59/59/59 83/83/83
f 120/120/120 65/65/65 94/94/94
f 65/65/65 21/21/21 141/141/141
f 65/65/65 23/23/23 94/94/94
f 37/37/37 145/145/145 49/49/49
f 157/157/157 90/90/90 169/169/169
f 123/123/123 27/27/27 61/61/61
f 124/124/124 61/61/61 27/27/27
f 60/60/60 168/168/168 160/160/160
f 16/16/16 100/100/100 139/139/139
f 56/56/56 53/53/53 122/122/122
f 6/6/6 55/55/55 85/85/85
f 5/5/5 96/96/96 162/162/162
f 24/24/24 83/83/83 54/54/54
f 24/24/24 143/143/143 59/59/59
f 143/143/143 169/169/169 39/39/39
f 69/69/69 173/173/173 94/94/94
f 141/141/141 21/21/21 48/48/48
f 30/30/30 116/116/116 115/115/115
f 89/89/89 48/48/48 21/21/21
f 157/157/157 169/169/169 37/37/37
f 135/135/135 103/103/103 29/29/29
f 95/95/95 49/49/49 145/145/145
f 135/135/135 72/72/72 17/17/17
f 37/37/37 169/169/169 143/143/143
f 37/37/37 143/143/143 24/24/24
f 157/157/157 37/37/37 49/49/49
f 157/157/157 10/10/10 90/90/90
f 109/109/109 138/138/138 98/98/98
f 109/109/109 10/10/10 157/157/157
f 135/135/135 44/44/44 103/103/103
f 170/170/170 97/97/97 53/53/53
f 27/27/27 123/123/123 125/125/125
f 62/62/62 125/125/125 123/123/123
f 151/151/151 83/83/83 41/41/41
f 139/139/139 100/100/100 43/43/43
f 131/131/131 79/79/79 29/29/29
f 73/73/73 4/4/4 102/102/102
f 110/110/110 126/126/126 44/44/44
f 40/40/40 46/46/46 86/86/86
f 57/57/57 97/97/97 170/170/170
f 57/57/57 170/170/170 95/95/95
f 78/78/78 125/125/125 9/9/9
f 117/117/117 30/30/30 75/75/75
f 74/74/74 16/16/16 139/139/139
f 54/54/54 58/58/58 140/140/140
f 87/87/87 46/46/46 40/40/40
f 2/2/2 158/158/158 119/119/119
f 110/110/110 135/135/135 17/17/17
f 108/108/108 111/111/111 52/52/52
f 121/121/121 97/97/97 57/57/57
f 135/135/135 110/110/110 44/44/44
f 45/45/45 98/98/98 129/129/129
f 107/107/107 106/106/106 33/33/33
f 11/11/11 155/155/155 144/144/144
f 155/155/155 121/121/121 34/34/34
f 64/64/64 91/91/91 89/89/89
f 106/106/106 153/153/153 81/81/81
f 38/38/38 23/23/23 141/141/141
f 25/25/25 131/131/131 44/44/44
f 50/50/50 160/160/160 168/168/168
f 23/23/23 38/38/38 94/94/94
f 107/107/107 43/43/43 11/11/11
f 101/101/101 11/11/11 43/43/43
f 154/154/154 51/51/51 96/96/96
f 167/167/167 111/111/111 106/106/106
f 33/33/33 106/106/106 111/111/111
f 107/107/107 33/33/33 171/171/171
f 167/167/167 132/132/132 28/28/28
f 64/64/64 89/89/89 21/21/21
f 105/105/105 33/33/33 111/111/111
f 108/108/108 52/52/52 8/8/8
f 105/105/105 111/111/111 108/108/108
f 121/121/121 57/57/57 34/34/34
f 74/74/74 108/108/108 8/8/8
f 141/141/141 23/23/23 65/65/65
f 74/74/74 105/105/105 108/108/108
f 128/128/128 8/8/8 52/52/52
f 134/134/134 164/164/164 166/166/166
f 11/11/11 144/144/144 107/107/107
f 43/43/43 107/107/107 171/171/171
f 144/144/144 155/155/155 153/153/153
f 144/144/144 153/153/153 106/106/106
f 144/144/144 106/106/106 107/107/107
f 133/133/133 27/27/27 78/78/78
f 159/159/159 87/87/87 40/40/40
f 4/4/4 68/68/68 102/102/102
f 148/148/148 101/101/101 46/46/46
f 127/127/127 25/25/25 149/149/149
f 168/168/168 172/172/172 134/134/134
f 74/74/74 139/139/139 105/105/105
f 31/31/31 113/113/113 112/112/112
f 7/7/7 99/99/99 88/88/88
f 19/19/19 86/86/86 142/142/142
f 90/90/90 48/48/48 39/39/39
f 79/79/79 133/133/133 118/118/118
f 102/102/102 35/35/35 100/100/100
f 80/80/80 34/34/34 104/104/104
f 40/40/40 86/86/86 88/88/88
f 143/143/143 39/39/39 59/59/59
f 148/148/148 46/46/46 87/87/87
f 46/46/46 142/142/142 86/86/86
f 89/89/89 39/39/39 48/48/48
f 67/67/67 88/88/88 86/86/86
f 56/56/56 122/122/122 40/40/40
f 159/159/159 155/155/155 148/148/148
f 122/122/122 159/159/159 40/40/40
f 159/159/159 148/148/148 87/87/87
f 148/148/148 155/155/155 11/11/11
f 148/148/148 11/11/11 101/101/101
f 159/159/159 97/97/97 121/121/121
f 159/159/159 121/121/121 155/155/155
f 56/56/56 40/40/40 88/88/88
f 30/30/30 117/117/117 136/136/136
f 56/56/56 88/88/88 99/99/99
f 3/3/3 120/120/120 173/173/173
f 7/7/7 70/70/70 99/99/99
f 67/67/67 7/7/7 88/88/88
f 19/19/19 67/67/67 86/86/86
f 68/68/68 19/19/19 142/142/142
f 73/73/73 102/102/102 100/100/100
f 59/59/59 85/85/85 83/83/83
f 36/36/36 129/129/129 98/98/98
f 135/135/135 29/29/29 72/72/72
f 16/16/16 73/73/73 100/100/100
f 13/13/13 124/124/124 131/131/131
f 142/142/142 35/35/35 68/68/68
f 153/153/153 155/155/155 34/34/34
f 147/147/147 24/24/24 140/140/140
f 28/28/28 128/128/128 52/52/52
f 131/131/131 25/25/25 13/13/13
f 60/60/60 63/63/63 172/172/172
f 161/161/161 172/172/172 63/63/63
f 126/126/126 17/17/17 71/71/71
f 132/132/132 26/26/26 28/28/28
f 128/128/128 71/71/71 8/8/8
f 79/79/79 124/124/124 133/133/133
f 167/167/167 28/28/28 52/52/52
f 26/26/26 128/128/128 28/28/28
f 77/77/77 130/130/130 119/119/119
f 77/77/77 119/119/119 118/118/118
f 95/95/95 170/170/170 49/49/49
f 100/100/100 35/35/35 43/43/43
f 103/103/103 131/131/131 29/29/29
f 35/35/35 142/142/142 101/101/101
f 101/101/101 43/43/43 35/35/35
f 13/13/13 25/25/25 127/127/127
f 149/149/149 126/126/126 26/26/26
f 149/149/149 26/26/26 127/127/127
f 51/51/51 127/127/127 132/132/132
f 118/118/118 133/133/133 14/14/14
f 79/79/79 131/131/131 124/124/124
f 115/115/115 75/75/75 30/30/30
f 163/163/163 132/132/132 167/167/167
f 132/132/132 127/127/127 26/26/26
f 167/167/167 52/52/52 111/111/111
f 163/163/163 167/167/167 81/81/81
f 63/63/63 95/95/95 161/161/161
f 146/146/146 163/163/163 81/81/81
f 150/150/150 5/5/5 146/146/146
f 96/96/96 160/160/160 50/50/50
f 50/50/50 168/168/168 32/32/32
f 161/161/161 164/164/164 172/172/172
f 96/96/96 5/5/5 160/160/160
f 134/134/134 172/172/172 164/164/164
f 124/124/124 154/154/154 61/61/61
f 12/12/12 42/42/42 116/116/116
f 123/123/123 50/50/50 32/32/32
f 96/96/96 50/50/50 61/61/61
f 54/54/54 140/140/140 24/24/24
f 77/77/77 118/118/118 14/14/14
f 154/154/154 127/127/127 51/51/51
f 162/162/162 146/146/146 5/5/5
f 51/51/51 132/132/132 163/163/163
f 85/85/85 41/41/41 83/83/83
f 154/154/154 96/96/96 61/61/61
f 154/154/154 13/13/13 127/127/127
f 124/124/124 13/13/13 154/154/154
f 15/15/15 115/115/115 112/112/112
f 42/42/42 112/112/112 115/115/115
f 10/10/10 93/93/93 90/90/90
f 123/123/123 61/61/61 50/50/50
f 150/150/150 146/146/146 80/80/80
f 119/119/119 72/72/72 29/29/29
f 137/137/137 31/31/31 47/47/47
f 9/9/9 117/117/117 75/75/75
f 134/134/134 165/165/165 168/168/168
f 146/146/146 81/81/81 153/153/153
f 119/119/119 29/29/29 118/118/118
f 150/150/150 174/174/174 5/5/5
f 60/60/60 174/174/174 63/63/63
f 164/164/164 140/140/140 166/166/166
f 104/104/104 57/57/57 63/63/63
f 95/95/95 63/63/63 57/57/57
