# frame 000997 
# time 0.499000 
# name Cloth3D 
v -0.000000 0.000000 -0.000000
v 1.000000 0.000000 -0.000000
v -0.000000 1.000000 0.000000
v 1.000000 1.000000 0.000000
v 0.651147 0.414663 0.149787
v -0.000000 0.500000 0.000000
v 0.500000 1.000000 0.000000
v 1.000000 0.500000 0.000000
v 0.500000 -0.000000 0.000000
v 0.245418 0.751670 0.082259
v 0.753642 0.749692 0.075233
v 0.247098 0.249949 0.071179
v 0.752578 0.254006 0.063062
v 0.750000 0.000000 0.000000
v 0.250000 0.000000 0.000000
v 1.000000 0.750000 0.000000
v 1.000000 0.250000 0.000000
v 0.250000 1.000000 0.000000
v 0.750000 1.000000 0.000000
v 0.000000 0.250000 0.000000
v 0.000000 0.750000 -0.000000
v 0.363765 0.220231 0.078158
v 0.062315 0.874834 0.011262
v 0.226206 0.515600 0.141205
v 0.814598 0.253859 0.047935
v 0.883947 0.376276 0.062066
v 0.625156 0.126713 0.040352
v 0.888218 0.438089 0.073606
v 0.874404 0.127170 0.011672
v 0.374913 0.125050 0.043994
v 0.124592 0.124798 0.021128
v 0.492463 0.252953 0.090520
v 0.881272 0.624453 0.060282
v 0.634488 0.625950 0.153849
v 0.874015 0.873306 0.013664
v 0.373973 0.879581 0.059463
v 0.248841 0.600809 0.130180
v 0.124038 0.875676 0.026200
v 0.116664 0.625155 0.064278
v 0.625725 0.877905 0.055712
v 0.122465 0.376649 0.049354
v 0.249527 0.124171 0.037735
v 0.876881 0.748844 0.038985
v 0.877428 0.252084 0.036537
v 0.248479 0.878151 0.048170
v 0.750148 0.875314 0.038131
v 0.123636 0.250602 0.035855
v 0.119790 0.751120 0.050950
v 0.311855 0.594322 0.156881
v 0.585009 0.308054 0.108029
v 0.746563 0.367527 0.111669
v 0.887650 0.500364 0.074417
v 0.434305 0.775604 0.102686
v 0.235116 0.456230 0.125580
v 0.000000 0.375000 0.000000
v 0.499997 0.878757 0.060485
v 0.500245 0.625934 0.160437
v 0.242010 0.375864 0.104592
v 0.113328 0.499968 0.071884
v 0.522035 0.415265 0.155111
v 0.627392 0.253782 0.082793
v 0.500092 0.125333 0.046592
v 0.496777 0.519828 0.202419
v 0.000000 0.625000 0.000000
v 0.000000 0.875000 0.000000
v 0.000000 0.125000 0.000000
v 0.625000 1.000000 0.000000
v 0.875000 1.000000 0.000000
v 0.125000 1.000000 0.000000
v 0.375000 1.000000 0.000000
v 1.000000 0.375000 0.000000
v 1.000000 0.125000 0.000000
v 1.000000 0.875000 0.000000
v 1.000000 0.625000 0.000000
v 0.375000 0.000000 0.000000
v 0.125000 0.000000 0.000000
v 0.875000 0.000000 0.000000
v 0.625000 0.000000 0.000000
v 0.749679 0.127587 0.027736
v 0.639774 0.564092 0.183741
v 0.785006 0.517152 0.150703
v 0.062162 0.313410 0.019970
v 0.179161 0.439296 0.089429
v 0.183435 0.313293 0.067261
v 0.058344 0.437962 0.031691
v 0.687451 0.939440 0.026917
v 0.688942 0.812894 0.066524
v 0.562522 0.938878 0.028791
v 0.058576 0.687588 0.030475
v 0.180410 0.688298 0.079342
v 0.055344 0.562613 0.037955
v 0.187135 0.938971 0.020878
v 0.184677 0.814054 0.052555
v 0.062455 0.937391 0.006551
v 0.430943 0.562492 0.183013
v 0.679865 0.361583 0.122485
v 0.507398 0.728511 0.123379
v 0.309990 0.816043 0.076305
v 0.437361 0.939358 0.029806
v 0.938160 0.811837 0.016033
v 0.812373 0.810609 0.038106
v 0.936993 0.936927 0.003094
v 0.875893 0.189058 0.027149
v 0.569844 0.563105 0.183873
v 0.939984 0.624450 0.028644
v 0.830843 0.591323 0.095715
v 0.819138 0.687636 0.077330
v 0.939543 0.562057 0.029598
v 0.313426 0.701972 0.111289
v 0.938565 0.251317 0.017650
v 0.881882 0.561871 0.064593
v 0.187532 0.061885 0.016654
v 0.062586 0.062628 0.004931
v 0.186153 0.187242 0.043269
v 0.312611 0.061985 0.021467
v 0.311065 0.186464 0.063930
v 0.437547 0.061263 0.026317
v 0.811834 0.064090 0.007850
v 0.937086 0.063208 0.001218
v -0.000000 0.937500 0.000000
v 0.591759 0.675999 0.133421
v 0.525422 0.807717 0.089438
v 0.563161 0.189789 0.065385
v 0.688421 0.190731 0.053627
v 0.562393 0.063947 0.019223
v 0.941310 0.313397 0.027551
v 0.818760 0.314913 0.069406
v 0.945450 0.437948 0.038806
v 0.312196 0.940129 0.028814
v 1.000000 0.187500 0.000000
v 0.812858 0.190764 0.033961
v 0.811538 0.374139 0.092097
v 0.687324 0.063138 0.018771
v 0.395581 0.379227 0.136254
v 0.937694 0.188631 0.012416
v 0.437148 0.187542 0.070470
v 0.063532 0.188202 0.008281
v 0.377658 0.771269 0.097167
v 0.939016 0.686616 0.023980
v 0.294963 0.441796 0.153885
v 0.060414 0.812788 0.021627
v 0.812134 0.937309 0.014713
v 0.174988 0.562368 0.100195
v 0.777191 0.650114 0.109784
v 0.310623 0.534672 0.190002
v 0.719898 0.520654 0.202557
v 0.320105 0.518973 0.202560
v 0.721451 0.772376 0.076763
v 0.880151 0.314439 0.048534
v 0.622948 0.520335 0.202455
v 0.181680 0.376266 0.078006
v 0.291162 0.333470 0.104332
v 0.727205 0.609102 0.146357
v 0.719350 0.303582 0.092143
v 0.676479 0.669640 0.127170
v 0.327551 0.276222 0.094615
v 0.272890 0.657562 0.117356
v 1.000000 0.062500 -0.000000
v 0.613567 0.771287 0.091170
v 0.601165 0.370282 0.133002
v 0.413138 0.519478 0.202417
v 0.729019 0.424657 0.140934
v 0.777228 0.455791 0.136085
v 0.360350 0.430975 0.157216
v 0.416943 0.257401 0.094896
v 0.311005 0.389341 0.132953
v 0.833532 0.481914 0.117208
v 0.477161 0.364643 0.134804
v 0.177229 0.625488 0.091849
v 0.410257 0.662780 0.141798
v 0.877671 0.686271 0.047160
v 0.446939 0.421702 0.158292
v 0.937132 0.126089 0.005481
v 0.571002 0.461336 0.175175
vt 0.000000 0.000000
vt 1.000000 0.000000
vt 0.000000 1.000000
vt 1.000000 1.000000
vt 0.639940 0.411013
vt 0.000000 0.500000
vt 0.500000 1.000000
vt 1.000000 0.500000
vt 0.500000 0.000000
vt 0.250000 0.750000
vt 0.750000 0.750000
vt 0.250000 0.250000
vt 0.750000 0.250000
vt 0.750000 0.000000
vt 0.250000 0.000000
vt 1.000000 0.750000
vt 1.000000 0.250000
vt 0.250000 1.000000
vt 0.750000 1.000000
vt 0.000000 0.250000
vt 0.000000 0.750000
vt 0.365347 0.220303
vt 0.062500 0.875000
vt 0.245672 0.515386
vt 0.812500 0.250000
vt 0.875000 0.375000
vt 0.625000 0.125000
vt 0.875000 0.437500
vt 0.875000 0.125000
vt 0.375000 0.125000
vt 0.125000 0.125000
vt 0.492214 0.250470
vt 0.875000 0.625000
vt 0.625000 0.625000
vt 0.875000 0.875000
vt 0.375000 0.875000
vt 0.262101 0.599801
vt 0.125000 0.875000
vt 0.125000 0.625000
vt 0.625000 0.875000
vt 0.125000 0.375000
vt 0.250000 0.125000
vt 0.875000 0.750000
vt 0.875000 0.250000
vt 0.250000 0.875000
vt 0.750000 0.875000
vt 0.125000 0.250000
vt 0.125000 0.750000
vt 0.325445 0.593646
vt 0.581754 0.304126
vt 0.736041 0.365469
vt 0.875000 0.500000
vt 0.435664 0.771773
vt 0.248222 0.455442
vt 0.000000 0.375000
vt 0.500000 0.875000
vt 0.500000 0.625000
vt 0.250000 0.375000
vt 0.125000 0.500000
vt 0.519707 0.411902
vt 0.625000 0.250000
vt 0.500000 0.125000
vt 0.497100 0.518714
vt 0.000000 0.625000
vt 0.000000 0.875000
vt 0.000000 0.125000
vt 0.625000 1.000000
vt 0.875000 1.000000
vt 0.125000 1.000000
vt 0.375000 1.000000
vt 1.000000 0.375000
vt 1.000000 0.125000
vt 1.000000 0.875000
vt 1.000000 0.625000
vt 0.375000 0.000000
vt 0.125000 0.000000
vt 0.875000 0.000000
vt 0.625000 0.000000
vt 0.750000 0.125000
vt 0.625000 0.562500
vt 0.760524 0.515669
vt 0.062500 0.312500
vt 0.187500 0.437500
vt 0.187500 0.312500
vt 0.062500 0.437500
vt 0.687500 0.937500
vt 0.687500 0.812500
vt 0.562500 0.937500
vt 0.062500 0.687500
vt 0.187500 0.687500
vt 0.062500 0.562500
vt 0.187500 0.937500
vt 0.187500 0.812500
vt 0.062500 0.937500
vt 0.437500 0.562500
vt 0.671367 0.358455
vt 0.506884 0.725192
vt 0.312500 0.812500
vt 0.437500 0.937500
vt 0.937500 0.812500
vt 0.812500 0.812500
vt 0.937500 0.937500
vt 0.875000 0.187500
vt 0.562500 0.562500
vt 0.937500 0.625000
vt 0.819332 0.591237
vt 0.812500 0.687500
vt 0.937500 0.562500
vt 0.319123 0.700934
vt 0.937500 0.250000
vt 0.875000 0.562500
vt 0.187500 0.062500
vt 0.062500 0.062500
vt 0.187500 0.187500
vt 0.312500 0.062500
vt 0.312500 0.187500
vt 0.437500 0.062500
vt 0.812500 0.062500
vt 0.937500 0.062500
vt 0.000000 0.937500
vt 0.587160 0.675778
vt 0.525016 0.804189
vt 0.562500 0.187500
vt 0.687500 0.187500
vt 0.562500 0.062500
vt 0.937500 0.312500
vt 0.812500 0.312500
vt 0.937500 0.437500
vt 0.312500 0.937500
vt 1.000000 0.187500
vt 0.812500 0.187500
vt 0.800716 0.372483
vt 0.687500 0.062500
vt 0.400647 0.375957
vt 0.937500 0.187500
vt 0.437500 0.187500
vt 0.062500 0.187500
vt 0.380019 0.768564
vt 0.937500 0.687500
vt 0.309549 0.441894
vt 0.062500 0.812500
vt 0.812500 0.937500
vt 0.187500 0.562500
vt 0.765906 0.648544
vt 0.331404 0.533038
vt 0.690383 0.518025
vt 0.342194 0.517016
vt 0.718294 0.771897
vt 0.875000 0.312500
vt 0.608401 0.518584
vt 0.187500 0.375000
vt 0.296906 0.332149
vt 0.711873 0.607167
vt 0.713437 0.300753
vt 0.668274 0.669022
vt 0.331126 0.276226
vt 0.281585 0.657008
vt 1.000000 0.062500
vt 0.611736 0.771102
vt 0.595175 0.366343
vt 0.422858 0.518655
vt 0.713353 0.422290
vt 0.758105 0.454518
vt 0.370877 0.428346
vt 0.418341 0.256674
vt 0.320334 0.388669
vt 0.812755 0.481587
vt 0.477835 0.361491
vt 0.187500 0.625000
vt 0.414679 0.661630
vt 0.875000 0.687500
vt 0.450521 0.418925
vt 0.937500 0.125000
vt 0.564051 0.458319
vn -0.041604 -0.041604 0.998268
vn 0.010005 -0.005003 0.999937
vn -0.074042 0.037021 0.996568
vn 0.023735 0.023735 0.999436
vn 0.093589 -0.424195 0.900722
vn -0.522296 -0.027471 0.852322
vn 0.005089 0.437170 0.899364
vn 0.509240 0.043172 0.859541
vn 0.026343 -0.346910 0.937528
vn -0.221394 0.254946 0.941269
vn 0.272228 0.318831 0.907876
vn -0.208987 -0.243304 0.947168
vn 0.222113 -0.323990 0.919618
vn 0.042528 -0.206884 0.977441
vn -0.016531 -0.294796 0.955417
vn 0.306100 0.029352 0.951547
vn 0.270180 -0.066801 0.960490
vn -0.028138 0.384977 0.922497
vn 0.048153 0.320872 0.945898
vn -0.220186 -0.044369 0.974448
vn -0.402547 0.037075 0.914648
vn -0.055914 -0.329594 0.942466
vn -0.199535 0.107030 0.974028
vn -0.506855 -0.047110 0.860743
vn 0.210546 -0.260936 0.942116
vn 0.395781 -0.203315 0.895556
vn 0.051067 -0.307904 0.950046
vn 0.512997 -0.123686 0.849433
vn 0.094077 -0.186690 0.977904
vn -0.048949 -0.334941 0.940967
vn -0.184975 -0.128150 0.974352
vn 0.034074 -0.340123 0.939764
vn 0.470577 0.131336 0.872530
vn 0.091913 0.429982 0.898147
vn 0.131672 0.147170 0.980308
vn -0.048231 0.392370 0.918542
vn -0.389590 0.303422 0.869572
vn -0.201813 0.174915 0.963678
vn -0.417681 0.112098 0.901652
vn 0.083039 0.356148 0.930733
vn -0.401113 -0.146157 0.904293
vn -0.089117 -0.272485 0.958024
vn 0.314133 0.164801 0.934966
vn 0.227488 -0.177838 0.957404
vn -0.119975 0.308656 0.943577
vn 0.163447 0.259086 0.951924
vn -0.319977 -0.121844 0.939558
vn -0.309950 0.147251 0.939281
vn -0.234061 0.419563 0.877030
vn 0.062022 -0.370372 0.926811
vn 0.242164 -0.362596 0.899934
vn 0.574628 0.086989 0.813779
vn -0.061255 0.354512 0.933043
vn -0.462135 -0.283630 0.840229
vn -0.391733 -0.047766 0.918838
vn 0.013715 0.417470 0.908587
vn 0.004690 0.365146 0.930938
vn -0.351541 -0.276932 0.894275
vn -0.486907 -0.073385 0.870366
vn 0.016723 -0.401434 0.915735
vn 0.097672 -0.353044 0.930495
vn 0.049257 -0.339158 0.939439
vn -0.000299 0.035190 0.999381
vn -0.518375 0.029931 0.854630
vn -0.206176 0.044775 0.977490
vn -0.108978 -0.013057 0.993958
vn 0.005602 0.418539 0.908181
vn 0.046126 0.122005 0.991457
vn -0.057624 0.224032 0.972877
vn -0.003227 0.440430 0.897781
vn 0.486982 -0.045159 0.872244
vn 0.112101 -0.029303 0.993265
vn 0.149138 0.051767 0.987460
vn 0.419028 0.028291 0.907533
vn -0.017935 -0.346655 0.937821
vn -0.046117 -0.174188 0.983632
vn 0.026292 -0.066854 0.997416
vn 0.002215 -0.297341 0.954769
vn 0.120829 -0.235355 0.964369
vn 0.026291 0.421087 0.906639
vn 0.558521 -0.011741 0.829407
vn -0.327195 -0.072379 0.942181
vn -0.433068 -0.227405 0.872204
vn -0.350473 -0.172316 0.920584
vn -0.454275 -0.086554 0.886647
vn 0.061309 0.357450 0.931918
vn 0.121040 0.318921 0.940021
vn 0.013275 0.432124 0.901717
vn -0.441189 0.061187 0.895326
vn -0.317391 0.190092 0.929047
vn -0.513096 0.015172 0.858197
vn -0.087771 0.293341 0.951970
vn -0.207652 0.226458 0.951629
vn -0.114155 0.090885 0.989297
vn -0.034656 0.396395 0.917426
vn 0.140051 -0.388580 0.910709
vn 0.037416 0.361815 0.931499
vn -0.119153 0.306501 0.944383
vn 0.001113 0.445333 0.895364
vn 0.203995 0.091585 0.974679
vn 0.235269 0.242212 0.941266
vn 0.052872 0.064076 0.996543
vn 0.155685 -0.177388 0.971749
vn 0.008075 0.395450 0.918452
vn 0.460736 0.049770 0.886141
vn 0.517374 0.179412 0.836741
vn 0.399432 0.257441 0.879874
vn 0.500064 0.046866 0.864719
vn -0.180425 0.322491 0.929218
vn 0.273703 -0.130801 0.952879
vn 0.536023 0.116159 0.836174
vn -0.064239 -0.234791 0.969921
vn -0.086472 -0.069633 0.993818
vn -0.202340 -0.191371 0.960435
vn -0.020974 -0.313368 0.949400
vn -0.081920 -0.313131 0.946170
vn -0.010461 -0.353123 0.935519
vn 0.069802 -0.154019 0.985599
vn 0.031077 -0.051040 0.998213
vn -0.129313 0.018554 0.991430
vn 0.088095 0.396111 0.913967
vn 0.050761 0.370549 0.927425
vn 0.056236 -0.333420 0.941100
vn 0.127282 -0.301549 0.944917
vn 0.024710 -0.324070 0.945710
vn 0.349165 -0.133431 0.927513
vn 0.298116 -0.316141 0.900656
vn 0.529985 -0.048220 0.846635
vn -0.036336 0.405570 0.913342
vn 0.200189 0.000000 0.979757
vn 0.148602 -0.219360 0.964261
vn 0.348368 -0.298534 0.888548
vn 0.050638 -0.266764 0.962431
vn -0.073851 -0.391822 0.917072
vn 0.204868 -0.072072 0.976133
vn -0.013839 -0.334133 0.942424
vn -0.225114 -0.057194 0.972652
vn -0.108068 0.322128 0.940508
vn 0.382105 0.092425 0.919485
vn -0.283720 -0.397930 0.872442
vn -0.284901 0.118414 0.951215
vn 0.106841 0.203438 0.973241
vn -0.460327 0.142958 0.876163
vn 0.375463 0.304959 0.875230
vn -0.278154 0.465519 0.840192
vn 0.327301 0.072064 0.942168
vn -0.244979 0.310323 0.918523
vn 0.206436 0.321444 0.924153
vn 0.295238 -0.223826 0.928836
vn -0.000569 0.142959 0.989729
vn -0.413709 -0.171963 0.894021
vn -0.224049 -0.312010 0.923283
vn 0.292195 0.413852 0.862177
vn 0.198111 -0.371163 0.907188
vn 0.155621 0.415569 0.896150
vn -0.129528 -0.297915 0.945764
vn -0.290168 0.320613 0.901670
vn 0.031836 -0.016889 0.999350
vn 0.119985 0.345064 0.930878
vn 0.054427 -0.399751 0.915006
vn -0.020247 0.122134 0.992307
vn 0.258345 -0.417381 0.871235
vn 0.409434 -0.329573 0.850732
vn -0.085047 -0.434816 0.896495
vn -0.028360 -0.335418 0.941643
vn -0.175644 -0.413199 0.893541
vn 0.524998 -0.093703 0.845930
vn -0.003817 -0.379783 0.925068
vn -0.390885 0.175087 0.903634
vn -0.090204 0.356261 0.930022
vn 0.404600 0.171159 0.898334
vn -0.028995 -0.405032 0.913843
vn 0.093434 -0.101393 0.990449
vn 0.018373 -0.418958 0.907820
f 1/1/1 113/113/113 66/66/66
f 31/31/31 137/137/137 113/113/113
f 109/109/109 157/157/157 49/49/49
f 98/98/98 45/45/45 10/10/10
f 84/84/84 151/151/151 41/41/41
f 112/112/112 114/114/114 31/31/31
f 114/114/114 47/47/47 31/31/31
f 84/84/84 152/152/152 58/58/58
f 137/137/137 66/66/66 113/113/113
f 93/93/93 10/10/10 45/45/45
f 150/150/150 104/104/104 63/63/63
f 161/161/161 145/145/145 147/147/147
f 170/170/170 109/109/109 49/49/49
f 95/95/95 63/63/63 57/57/57
f 42/42/42 114/114/114 112/112/112
f 76/76/76 113/113/113 1/1/1
f 147/147/147 164/164/164 161/161/161
f 15/15/15 112/112/112 76/76/76
f 115/115/115 15/15/15 75/75/75
f 146/146/146 162/162/162 163/163/163
f 40/40/40 87/87/87 86/86/86
f 150/150/150 80/80/80 104/104/104
f 22/22/22 30/30/30 136/136/136
f 162/162/162 51/51/51 163/163/163
f 32/32/32 165/165/165 136/136/136
f 22/22/22 136/136/136 165/165/165
f 161/161/161 95/95/95 145/145/145
f 76/76/76 112/112/112 113/113/113
f 44/44/44 149/149/149 25/25/25
f 116/116/116 30/30/30 22/22/22
f 174/174/174 150/150/150 63/63/63
f 12/12/12 114/114/114 42/42/42
f 156/156/156 116/116/116 22/22/22
f 156/156/156 152/152/152 12/12/12
f 156/156/156 12/12/12 116/116/116
f 135/135/135 103/103/103 173/173/173
f 168/168/168 165/165/165 32/32/32
f 170/170/170 138/138/138 109/109/109
f 156/156/156 22/22/22 165/165/165
f 6/6/6 85/85/85 91/91/91
f 140/140/140 164/164/164 147/147/147
f 82/82/82 137/137/137 47/47/47
f 172/172/172 168/168/168 60/60/60
f 51/51/51 162/162/162 96/96/96
f 59/59/59 91/91/91 85/85/85
f 34/34/34 80/80/80 153/153/153
f 39/39/39 89/89/89 91/91/91
f 69/69/69 94/94/94 92/92/92
f 152/152/152 166/166/166 58/58/58
f 167/167/167 106/106/106 81/81/81
f 44/44/44 103/103/103 110/110/110
f 170/170/170 53/53/53 138/138/138
f 125/125/125 78/78/78 27/27/27
f 117/117/117 9/9/9 62/62/62
f 48/48/48 90/90/90 93/93/93
f 134/134/134 152/152/152 156/156/156
f 38/38/38 92/92/92 94/94/94
f 99/99/99 36/36/36 56/56/56
f 83/83/83 58/58/58 54/54/54
f 128/128/128 26/26/26 71/71/71
f 151/151/151 58/58/58 83/83/83
f 126/126/126 110/110/110 17/17/17
f 84/84/84 12/12/12 152/152/152
f 84/84/84 58/58/58 151/151/151
f 47/47/47 114/114/114 84/84/84
f 84/84/84 114/114/114 12/12/12
f 47/47/47 84/84/84 41/41/41
f 82/82/82 47/47/47 41/41/41
f 36/36/36 99/99/99 129/129/129
f 20/20/20 137/137/137 82/82/82
f 70/70/70 129/129/129 99/99/99
f 20/20/20 66/66/66 137/137/137
f 55/55/55 20/20/20 82/82/82
f 98/98/98 138/138/138 36/36/36
f 171/171/171 33/33/33 139/139/139
f 102/102/102 68/68/68 35/35/35
f 146/146/146 153/153/153 80/80/80
f 8/8/8 108/108/108 128/128/128
f 166/166/166 140/140/140 58/58/58
f 53/53/53 56/56/56 36/36/36
f 92/92/92 18/18/18 69/69/69
f 103/103/103 44/44/44 131/131/131
f 139/139/139 43/43/43 171/171/171
f 62/62/62 136/136/136 117/117/117
f 122/122/122 53/53/53 97/97/97
f 85/85/85 41/41/41 59/59/59
f 122/122/122 97/97/97 159/159/159
f 5/5/5 174/174/174 160/160/160
f 109/109/109 98/98/98 10/10/10
f 173/173/173 72/72/72 135/135/135
f 14/14/14 133/133/133 78/78/78
f 125/125/125 62/62/62 9/9/9
f 152/152/152 134/134/134 166/166/166
f 123/123/123 32/32/32 62/62/62
f 27/27/27 133/133/133 124/124/124
f 60/60/60 160/160/160 174/174/174
f 136/136/136 62/62/62 32/32/32
f 41/41/41 85/85/85 82/82/82
f 93/93/93 45/45/45 38/38/38
f 129/129/129 70/70/70 18/18/18
f 55/55/55 82/82/82 85/85/85
f 53/53/53 36/36/36 138/138/138
f 92/92/92 38/38/38 45/45/45
f 145/145/145 24/24/24 147/147/147
f 18/18/18 92/92/92 129/129/129
f 126/126/126 71/71/71 26/26/26
f 124/124/124 79/79/79 13/13/13
f 45/45/45 129/129/129 92/92/92
f 131/131/131 13/13/13 79/79/79
f 6/6/6 91/91/91 64/64/64
f 105/105/105 139/139/139 33/33/33
f 149/149/149 44/44/44 126/126/126
f 46/46/46 101/101/101 142/142/142
f 134/134/134 156/156/156 165/165/165
f 39/39/39 169/169/169 90/90/90
f 37/37/37 24/24/24 145/145/145
f 24/24/24 59/59/59 83/83/83
f 94/94/94 3/3/3 120/120/120
f 65/65/65 21/21/21 141/141/141
f 69/69/69 3/3/3 94/94/94
f 37/37/37 145/145/145 49/49/49
f 157/157/157 90/90/90 169/169/169
f 123/123/123 27/27/27 61/61/61
f 124/124/124 61/61/61 27/27/27
f 60/60/60 168/168/168 160/160/160
f 16/16/16 100/100/100 139/139/139
f 56/56/56 53/53/53 122/122/122
f 6/6/6 55/55/55 85/85/85
f 5/5/5 96/96/96 162/162/162
f 24/24/24 83/83/83 54/54/54
f 24/24/24 143/143/143 59/59/59
f 143/143/143 169/169/169 39/39/39
f 59/59/59 143/143/143 91/91/91
f 141/141/141 48/48/48 38/38/38
f 83/83/83 59/59/59 41/41/41
f 93/93/93 38/38/38 48/48/48
f 157/157/157 169/169/169 37/37/37
f 173/173/173 29/29/29 119/119/119
f 95/95/95 49/49/49 145/145/145
f 119/119/119 158/158/158 173/173/173
f 37/37/37 169/169/169 143/143/143
f 37/37/37 143/143/143 24/24/24
f 157/157/157 37/37/37 49/49/49
f 157/157/157 10/10/10 90/90/90
f 109/109/109 138/138/138 98/98/98
f 109/109/109 10/10/10 157/157/157
f 57/57/57 104/104/104 121/121/121
f 170/170/170 97/97/97 53/53/53
f 27/27/27 123/123/123 125/125/125
f 62/62/62 125/125/125 123/123/123
f 151/151/151 83/83/83 41/41/41
f 139/139/139 100/100/100 43/43/43
f 135/135/135 110/110/110 103/103/103
f 73/73/73 4/4/4 102/102/102
f 110/110/110 126/126/126 44/44/44
f 77/77/77 2/2/2 119/119/119
f 57/57/57 97/97/97 170/170/170
f 57/57/57 170/170/170 95/95/95
f 78/78/78 125/125/125 9/9/9
f 117/117/117 30/30/30 75/75/75
f 74/74/74 16/16/16 139/139/139
f 54/54/54 58/58/58 140/140/140
f 72/72/72 173/173/173 158/158/158
f 2/2/2 158/158/158 119/119/119
f 110/110/110 135/135/135 17/17/17
f 108/108/108 111/111/111 52/52/52
f 121/121/121 97/97/97 57/57/57
f 34/34/34 121/121/121 104/104/104
f 45/45/45 98/98/98 129/129/129
f 107/107/107 106/106/106 33/33/33
f 11/11/11 155/155/155 144/144/144
f 155/155/155 121/121/121 34/34/34
f 64/64/64 91/91/91 89/89/89
f 106/106/106 153/153/153 81/81/81
f 38/38/38 23/23/23 141/141/141
f 25/25/25 131/131/131 44/44/44
f 50/50/50 160/160/160 168/168/168
f 23/23/23 38/38/38 94/94/94
f 48/48/48 141/141/141 89/89/89
f 21/21/21 89/89/89 141/141/141
f 154/154/154 51/51/51 96/96/96
f 167/167/167 111/111/111 106/106/106
f 33/33/33 106/106/106 111/111/111
f 107/107/107 33/33/33 171/171/171
f 167/167/167 132/132/132 28/28/28
f 64/64/64 89/89/89 21/21/21
f 105/105/105 33/33/33 111/111/111
f 116/116/116 42/42/42 30/30/30
f 105/105/105 111/111/111 108/108/108
f 104/104/104 57/57/57 63/63/63
f 74/74/74 108/108/108 8/8/8
f 141/141/141 23/23/23 65/65/65
f 74/74/74 105/105/105 108/108/108
f 115/115/115 30/30/30 42/42/42
f 134/134/134 164/164/164 166/166/166
f 11/11/11 144/144/144 107/107/107
f 43/43/43 107/107/107 171/171/171
f 144/144/144 155/155/155 153/153/153
f 144/144/144 153/153/153 106/106/106
f 144/144/144 106/106/106 107/107/107
f 133/133/133 27/27/27 78/78/78
f 159/159/159 87/87/87 40/40/40
f 4/4/4 68/68/68 102/102/102
f 148/148/148 101/101/101 46/46/46
f 127/127/127 25/25/25 149/149/149
f 168/168/168 172/172/172 134/134/134
f 74/74/74 139/139/139 105/105/105
f 31/31/31 113/113/113 112/112/112
f 7/7/7 99/99/99 88/88/88
f 19/19/19 86/86/86 142/142/142
f 90/90/90 48/48/48 39/39/39
f 29/29/29 131/131/131 118/118/118
f 102/102/102 35/35/35 100/100/100
f 80/80/80 34/34/34 104/104/104
f 40/40/40 86/86/86 88/88/88
f 46/46/46 86/86/86 87/87/87
f 148/148/148 46/46/46 87/87/87
f 46/46/46 142/142/142 86/86/86
f 89/89/89 39/39/39 48/48/48
f 67/67/67 88/88/88 86/86/86
f 56/56/56 122/122/122 40/40/40
f 159/159/159 155/155/155 148/148/148
f 122/122/122 159/159/159 40/40/40
f 159/159/159 148/148/148 87/87/87
f 148/148/148 155/155/155 11/11/11
f 148/148/148 11/11/11 101/101/101
f 159/159/159 97/97/97 121/121/121
f 159/159/159 121/121/121 155/155/155
f 56/56/56 40/40/40 88/88/88
f 30/30/30 117/117/117 136/136/136
f 56/56/56 88/88/88 99/99/99
f 39/39/39 91/91/91 143/143/143
f 7/7/7 70/70/70 99/99/99
f 67/67/67 7/7/7 88/88/88
f 19/19/19 67/67/67 86/86/86
f 68/68/68 19/19/19 142/142/142
f 73/73/73 102/102/102 100/100/100
f 72/72/72 130/130/130 135/135/135
f 36/36/36 129/129/129 98/98/98
f 43/43/43 101/101/101 107/107/107
f 16/16/16 73/73/73 100/100/100
f 118/118/118 79/79/79 14/14/14
f 142/142/142 35/35/35 68/68/68
f 153/153/153 155/155/155 34/34/34
f 147/147/147 24/24/24 140/140/140
f 28/28/28 128/128/128 52/52/52
f 131/131/131 25/25/25 13/13/13
f 60/60/60 63/63/63 172/172/172
f 161/161/161 172/172/172 63/63/63
f 126/126/126 17/17/17 71/71/71
f 132/132/132 26/26/26 28/28/28
f 128/128/128 71/71/71 8/8/8
f 79/79/79 124/124/124 133/133/133
f 167/167/167 28/28/28 52/52/52
f 26/26/26 128/128/128 28/28/28
f 52/52/52 128/128/128 108/108/108
f 77/77/77 119/119/119 118/118/118
f 95/95/95 170/170/170 49/49/49
f 100/100/100 35/35/35 43/43/43
f 103/103/103 131/131/131 29/29/29
f 35/35/35 142/142/142 101/101/101
f 101/101/101 43/43/43 35/35/35
f 13/13/13 25/25/25 127/127/127
f 149/149/149 126/126/126 26/26/26
f 149/149/149 26/26/26 127/127/127
f 51/51/51 127/127/127 132/132/132
f 79/79/79 118/118/118 131/131/131
f 133/133/133 14/14/14 79/79/79
f 115/115/115 75/75/75 30/30/30
f 163/163/163 132/132/132 167/167/167
f 132/132/132 127/127/127 26/26/26
f 167/167/167 52/52/52 111/111/111
f 163/163/163 167/167/167 81/81/81
f 63/63/63 95/95/95 161/161/161
f 146/146/146 163/163/163 81/81/81
f 150/150/150 5/5/5 146/146/146
f 96/96/96 160/160/160 50/50/50
f 50/50/50 168/168/168 32/32/32
f 161/161/161 164/164/164 172/172/172
f 96/96/96 5/5/5 160/160/160
f 134/134/134 172/172/172 164/164/164
f 124/124/124 154/154/154 61/61/61
f 12/12/12 42/42/42 116/116/116
f 123/123/123 50/50/50 32/32/32
f 96/96/96 50/50/50 61/61/61
f 54/54/54 140/140/140 24/24/24
f 77/77/77 118/118/118 14/14/14
f 154/154/154 127/127/127 51/51/51
f 162/162/162 146/146/146 5/5/5
f 51/51/51 132/132/132 163/163/163
f 130/130/130 17/17/17 135/135/135
f 154/154/154 96/96/96 61/61/61
f 154/154/154 13/13/13 127/127/127
f 124/124/124 13/13/13 154/154/154
f 15/15/15 115/115/115 112/112/112
f 42/42/42 112/112/112 115/115/115
f 10/10/10 93/93/93 90/90/90
f 123/123/123 61/61/61 50/50/50
f 150/150/150 146/146/146 80/80/80
f 11/11/11 107/107/107 101/101/101
f 137/137/137 31/31/31 47/47/47
f 9/9/9 117/117/117 75/75/75
f 134/134/134 165/165/165 168/168/168
f 146/146/146 81/81/81 153/153/153
f 119/119/119 29/29/29 118/118/118
f 150/150/150 174/174/174 5/5/5
f 60/60/60 174/174/174 63/63/63
f 164/164/164 140/140/140 166/166/166
f 29/29/29 173/173/173 103/103/103
f 65/65/65 23/23/23 120/120/120
f 94/94/94 120/120/120 23/23/23
