# frame 000954 
# time 0.477500 
# name Box 
v 0.719912 0.531441 -0.362092
v 0.718812 0.792930 -0.059400
v 0.720085 0.490240 0.202092
v 0.719912 0.531441 -0.362092
v 0.720085 0.490240 0.202092
v 0.721184 0.228752 -0.100600
v 0.319915 0.529760 -0.362092
v 0.321188 0.227070 -0.100600
v 0.320088 0.488559 0.202092
v 0.319915 0.529760 -0.362092
v 0.320088 0.488559 0.202092
v 0.318816 0.791248 -0.059400
v 0.719912 0.531441 -0.362092
v 0.319915 0.529760 -0.362092
v 0.318816 0.791248 -0.059400
v 0.719912 0.531441 -0.362092
v 0.318816 0.791248 -0.059400
v 0.718812 0.792930 -0.059400
v 0.718812 0.792930 -0.059400
v 0.318816 0.791248 -0.059400
v 0.320088 0.488559 0.202092
v 0.718812 0.792930 -0.059400
v 0.320088 0.488559 0.202092
v 0.720085 0.490240 0.202092
v 0.720085 0.490240 0.202092
v 0.320088 0.488559 0.202092
v 0.321188 0.227070 -0.100600
v 0.720085 0.490240 0.202092
v 0.321188 0.227070 -0.100600
v 0.721184 0.228752 -0.100600
v 0.319915 0.529760 -0.362092
v 0.719912 0.531441 -0.362092
v 0.721184 0.228752 -0.100600
v 0.319915 0.529760 -0.362092
v 0.721184 0.228752 -0.100600
v 0.321188 0.227070 -0.100600
vn 0.199998 0.000841 0.000000
vn 0.199998 0.000841 0.000000
vn 0.199998 0.000841 0.000000
vn 0.199998 0.000841 0.000000
vn 0.199998 0.000841 0.000000
vn 0.199998 0.000841 0.000000
vn -0.199998 -0.000841 0.000000
vn -0.199998 -0.000841 0.000000
vn -0.199998 -0.000841 0.000000
vn -0.199998 -0.000841 0.000000
vn -0.199998 -0.000841 0.000000
vn -0.199998 -0.000841 0.000000
vn -0.000636 0.151345 -0.130746
vn -0.000636 0.151345 -0.130746
vn -0.000636 0.151345 -0.130746
vn -0.000636 0.151345 -0.130746
vn -0.000636 0.151345 -0.130746
vn -0.000636 0.151345 -0.130746
vn -0.000550 0.130744 0.151346
vn -0.000550 0.130744 0.151346
vn -0.000550 0.130744 0.151346
vn -0.000550 0.130744 0.151346
vn -0.000550 0.130744 0.151346
vn -0.000550 0.130744 0.151346
vn 0.000636 -0.151345 0.130746
vn 0.000636 -0.151345 0.130746
vn 0.000636 -0.151345 0.130746
vn 0.000636 -0.151345 0.130746
vn 0.000636 -0.151345 0.130746
vn 0.000636 -0.151345 0.130746
vn 0.000550 -0.130744 -0.151346
vn 0.000550 -0.130744 -0.151346
vn 0.000550 -0.130744 -0.151346
vn 0.000550 -0.130744 -0.151346
vn 0.000550 -0.130744 -0.151346
vn 0.000550 -0.130744 -0.151346
f 1/1/1 2/2/2 3/3/3
f 4/4/4 5/5/5 6/6/6
f 7/7/7 8/8/8 9/9/9
f 10/10/10 11/11/11 12/12/12
f 13/13/13 14/14/14 15/15/15
f 16/16/16 17/17/17 18/18/18
f 19/19/19 20/20/20 21/21/21
f 22/22/22 23/23/23 24/24/24
f 25/25/25 26/26/26 27/27/27
f 28/28/28 29/29/29 30/30/30
f 31/31/31 32/32/32 33/33/33
f 34/34/34 35/35/35 36/36/36
