# frame 000926 
# time 0.463500 
# name Cloth3D 
v -0.000000 0.000000 -0.000000
v 1.000000 0.000000 -0.000000
v -0.000000 1.000000 0.000000
v 1.000000 1.000000 0.000000
v 0.654796 0.409402 0.171071
v -0.000000 0.500000 0.000000
v 0.500000 1.000000 0.000000
v 1.000000 0.500000 0.000000
v 0.500000 -0.000000 0.000000
v 0.246709 0.750162 0.075420
v 0.755737 0.750064 0.076226
v 0.244761 0.248210 0.080634
v 0.754969 0.248682 0.081917
v 0.750000 0.000000 0.000000
v 0.250000 0.000000 0.000000
v 1.000000 0.750000 0.000000
v 1.000000 0.250000 0.000000
v 0.250000 1.000000 0.000000
v 0.750000 1.000000 0.000000
v 0.000000 0.250000 0.000000
v 0.000000 0.750000 -0.000000
v 0.362676 0.218563 0.087489
v 0.875134 0.062293 0.013139
v 0.230247 0.514216 0.131648
v 0.816913 0.249486 0.064080
v 0.883000 0.374857 0.064124
v 0.625645 0.124208 0.050506
v 0.885297 0.437212 0.071485
v 0.875487 0.125213 0.022749
v 0.374292 0.123824 0.050445
v 0.123551 0.124152 0.026351
v 0.492316 0.250270 0.103587
v 0.881984 0.625052 0.061443
v 0.632826 0.621662 0.134505
v 0.877745 0.877060 0.032575
v 0.374879 0.873815 0.042831
v 0.253422 0.598291 0.115120
v 0.124057 0.875041 0.024972
v 0.121056 0.623468 0.053207
v 0.625934 0.872793 0.040058
v 0.116180 0.373576 0.064865
v 0.249017 0.124766 0.038611
v 0.881167 0.751410 0.051454
v 0.877321 0.250643 0.041626
v 0.249337 0.874997 0.038593
v 0.751798 0.875968 0.041581
v 0.119329 0.248280 0.050143
v 0.121217 0.749903 0.046403
v 0.316773 0.591267 0.137671
v 0.586124 0.302975 0.127237
v 0.748819 0.363699 0.125918
v 0.885392 0.499735 0.072448
v 0.435584 0.769599 0.081869
v 0.230857 0.453281 0.137144
v 0.000000 0.375000 0.000000
v 0.500443 0.873978 0.046294
v 0.501223 0.621784 0.141386
v 0.237649 0.372041 0.119846
v 0.114624 0.499029 0.069900
v 0.360602 0.496971 0.187489
v 0.628807 0.248198 0.102878
v 0.500010 0.124080 0.053427
v 0.497330 0.469798 0.199741
v 0.000000 0.625000 0.000000
v 0.000000 0.875000 0.000000
v 0.000000 0.125000 0.000000
v 0.625000 1.000000 0.000000
v 0.875000 1.000000 0.000000
v 0.125000 1.000000 0.000000
v 0.375000 1.000000 0.000000
v 1.000000 0.375000 0.000000
v 1.000000 0.125000 0.000000
v 1.000000 0.875000 0.000000
v 1.000000 0.625000 0.000000
v 0.375000 0.000000 0.000000
v 0.125000 0.000000 0.000000
v 0.875000 0.000000 0.000000
v 0.625000 0.000000 0.000000
v 0.750828 0.124157 0.041004
v 0.641032 0.496031 0.187508
v 0.780767 0.514785 0.142012
v 0.060097 0.312238 0.026598
v 0.174360 0.435643 0.101578
v 0.178422 0.309866 0.083192
v 0.056755 0.436951 0.035711
v 0.687905 0.937313 0.021191
v 0.690249 0.811842 0.062267
v 0.562751 0.937097 0.023155
v 0.060854 0.686833 0.024539
v 0.183176 0.686470 0.070156
v 0.059595 0.561589 0.029688
v 0.187411 0.937879 0.017949
v 0.184827 0.813336 0.051187
v 0.062571 0.937311 0.006570
v 0.432939 0.559147 0.165100
v 0.682327 0.356570 0.141296
v 0.508158 0.721556 0.098886
v 0.311204 0.812713 0.064628
v 0.437665 0.936749 0.022013
v 0.940249 0.813231 0.023091
v 0.816777 0.814302 0.053993
v 0.937922 0.937804 0.008024
v 0.875574 0.188276 0.029520
v 0.569391 0.559781 0.167339
v 0.941581 0.624874 0.031878
v 0.832739 0.591681 0.096883
v 0.822648 0.689386 0.084833
v 0.938948 0.562051 0.028760
v 0.315430 0.700237 0.100671
v 0.696257 0.582654 0.148200
v 0.882211 0.562047 0.065025
v 0.187408 0.062610 0.015131
v 0.062101 0.062137 0.009581
v 0.184401 0.186111 0.050658
v 0.312367 0.062604 0.021150
v 0.310185 0.186056 0.068916
v 0.437408 0.061554 0.027356
v 0.812321 0.062615 0.015536
v 0.937594 0.062486 0.008105
v -0.000000 0.937500 0.000000
v 0.937500 1.000000 0.000000
v 0.526011 0.801710 0.069761
v 0.563505 0.187628 0.076106
v 0.690117 0.185313 0.072729
v 0.562541 0.062108 0.026286
v 0.939904 0.313031 0.026865
v 0.819927 0.311861 0.080378
v 0.944310 0.437509 0.038367
v 0.312586 0.936723 0.019187
v 0.937500 0.000000 -0.000000
v 0.814516 0.187295 0.047874
v 0.813761 0.370479 0.103459
v 0.687628 0.060916 0.026298
v 0.393479 0.374638 0.154286
v 0.937894 0.188056 0.015773
v 0.436612 0.186212 0.078730
v 0.060945 0.187244 0.018803
v 0.379029 0.767001 0.081118
v 0.939374 0.687367 0.025599
v 0.372067 0.316643 0.126678
v 0.060458 0.812424 0.021587
v 0.813350 0.938584 0.020012
v 0.178687 0.560554 0.090577
v 0.777358 0.649568 0.105870
v 0.317582 0.530291 0.164439
v 0.720108 0.470601 0.199857
v 0.320316 0.468920 0.199859
v 0.722701 0.771472 0.073073
v 0.878551 0.313243 0.050233
v 0.622468 0.470295 0.199772
v 0.246870 0.185616 0.061774
v 0.287690 0.329496 0.120697
v 0.724416 0.606588 0.130983
v 0.721606 0.298626 0.110256
v 0.675485 0.666545 0.112640
v 0.326016 0.274895 0.103560
v 0.275846 0.655718 0.105437
v 0.501051 0.559691 0.166837
v 0.614411 0.768802 0.080046
v 0.603024 0.364875 0.153016
v 0.414309 0.469450 0.199740
v 0.819578 0.751920 0.069236
v 0.779348 0.452403 0.146248
v 0.124660 0.062579 0.010973
v 0.415876 0.254953 0.106929
v 0.307867 0.386292 0.149128
v 0.829099 0.480623 0.112163
v 0.476896 0.361241 0.149795
v 0.181463 0.623313 0.079775
v 0.412417 0.660308 0.126891
v 0.881351 0.688301 0.055991
v 1.000000 0.937500 0.000000
v 0.591773 0.673289 0.119076
v 0.175714 0.372377 0.094595
v 0.522148 0.410476 0.172360
vt 0.000000 0.000000
vt 1.000000 0.000000
vt 0.000000 1.000000
vt 1.000000 1.000000
vt 0.639940 0.411013
vt 0.000000 0.500000
vt 0.500000 1.000000
vt 1.000000 0.500000
vt 0.500000 0.000000
vt 0.250000 0.750000
vt 0.750000 0.750000
vt 0.250000 0.250000
vt 0.750000 0.250000
vt 0.750000 0.000000
vt 0.250000 0.000000
vt 1.000000 0.750000
vt 1.000000 0.250000
vt 0.250000 1.000000
vt 0.750000 1.000000
vt 0.000000 0.250000
vt 0.000000 0.750000
vt 0.365347 0.220303
vt 0.875000 0.062500
vt 0.245672 0.515386
vt 0.812500 0.250000
vt 0.875000 0.375000
vt 0.625000 0.125000
vt 0.875000 0.437500
vt 0.875000 0.125000
vt 0.375000 0.125000
vt 0.125000 0.125000
vt 0.492214 0.250470
vt 0.875000 0.625000
vt 0.625000 0.625000
vt 0.875000 0.875000
vt 0.375000 0.875000
vt 0.262101 0.599801
vt 0.125000 0.875000
vt 0.125000 0.625000
vt 0.625000 0.875000
vt 0.125000 0.375000
vt 0.250000 0.125000
vt 0.875000 0.750000
vt 0.875000 0.250000
vt 0.250000 0.875000
vt 0.750000 0.875000
vt 0.125000 0.250000
vt 0.125000 0.750000
vt 0.325445 0.593646
vt 0.581754 0.304126
vt 0.736041 0.365469
vt 0.875000 0.500000
vt 0.435664 0.771773
vt 0.248222 0.455442
vt 0.000000 0.375000
vt 0.500000 0.875000
vt 0.500000 0.625000
vt 0.250000 0.375000
vt 0.125000 0.500000
vt 0.375000 0.500000
vt 0.625000 0.250000
vt 0.500000 0.125000
vt 0.497218 0.473305
vt 0.000000 0.625000
vt 0.000000 0.875000
vt 0.000000 0.125000
vt 0.625000 1.000000
vt 0.875000 1.000000
vt 0.125000 1.000000
vt 0.375000 1.000000
vt 1.000000 0.375000
vt 1.000000 0.125000
vt 1.000000 0.875000
vt 1.000000 0.625000
vt 0.375000 0.000000
vt 0.125000 0.000000
vt 0.875000 0.000000
vt 0.625000 0.000000
vt 0.750000 0.125000
vt 0.625000 0.500000
vt 0.760524 0.515669
vt 0.062500 0.312500
vt 0.187500 0.437500
vt 0.187500 0.312500
vt 0.062500 0.437500
vt 0.687500 0.937500
vt 0.687500 0.812500
vt 0.562500 0.937500
vt 0.062500 0.687500
vt 0.187500 0.687500
vt 0.062500 0.562500
vt 0.187500 0.937500
vt 0.187500 0.812500
vt 0.062500 0.937500
vt 0.437500 0.562500
vt 0.671367 0.358455
vt 0.506884 0.725192
vt 0.312500 0.812500
vt 0.437500 0.937500
vt 0.937500 0.812500
vt 0.812500 0.812500
vt 0.937500 0.937500
vt 0.875000 0.187500
vt 0.562500 0.562500
vt 0.937500 0.625000
vt 0.819332 0.591237
vt 0.812500 0.687500
vt 0.937500 0.562500
vt 0.319123 0.700934
vt 0.682510 0.583771
vt 0.875000 0.562500
vt 0.187500 0.062500
vt 0.062500 0.062500
vt 0.187500 0.187500
vt 0.312500 0.062500
vt 0.312500 0.187500
vt 0.437500 0.062500
vt 0.812500 0.062500
vt 0.937500 0.062500
vt 0.000000 0.937500
vt 0.937500 1.000000
vt 0.525016 0.804189
vt 0.562500 0.187500
vt 0.687500 0.187500
vt 0.562500 0.062500
vt 0.937500 0.312500
vt 0.812500 0.312500
vt 0.937500 0.437500
vt 0.312500 0.937500
vt 0.937500 0.000000
vt 0.812500 0.187500
vt 0.800716 0.372483
vt 0.687500 0.062500
vt 0.400647 0.375957
vt 0.937500 0.187500
vt 0.437500 0.187500
vt 0.062500 0.187500
vt 0.380019 0.768564
vt 0.937500 0.687500
vt 0.377625 0.317694
vt 0.062500 0.812500
vt 0.812500 0.937500
vt 0.187500 0.562500
vt 0.765906 0.648544
vt 0.331404 0.533038
vt 0.691302 0.473399
vt 0.342475 0.472144
vt 0.718294 0.771897
vt 0.875000 0.312500
vt 0.608491 0.473372
vt 0.250000 0.187500
vt 0.296906 0.332149
vt 0.711873 0.607167
vt 0.713437 0.300753
vt 0.668274 0.669022
vt 0.331126 0.276226
vt 0.281585 0.657008
vt 0.500000 0.562500
vt 0.611736 0.771102
vt 0.595175 0.366343
vt 0.423243 0.472525
vt 0.812500 0.750000
vt 0.758105 0.454518
vt 0.125000 0.062500
vt 0.418341 0.256674
vt 0.320334 0.388669
vt 0.812755 0.481587
vt 0.477835 0.361491
vt 0.187500 0.625000
vt 0.414679 0.661630
vt 0.875000 0.687500
vt 1.000000 0.937500
vt 0.587160 0.675778
vt 0.187500 0.375000
vt 0.519707 0.411902
vn -0.075105 -0.075105 0.994343
vn 0.044731 -0.089462 0.994985
vn -0.066127 0.033063 0.997263
vn 0.067780 0.067780 0.995395
vn 0.076283 -0.444338 0.892605
vn -0.504869 0.025109 0.862830
vn -0.003373 0.337015 0.941493
vn 0.513922 0.042433 0.856787
vn 0.004496 -0.396268 0.918124
vn -0.179363 0.234333 0.955467
vn 0.091662 0.278469 0.956061
vn -0.170867 -0.310512 0.935087
vn 0.257681 -0.301564 0.917965
vn 0.041315 -0.323733 0.945246
vn -0.023007 -0.285299 0.958162
vn 0.375402 0.005325 0.926847
vn 0.330194 -0.041632 0.942995
vn -0.003646 0.278237 0.960506
vn 0.002195 0.310199 0.950669
vn -0.349203 -0.030272 0.936558
vn -0.352017 0.012826 0.935906
vn -0.096652 -0.360129 0.927882
vn 0.058378 -0.182308 0.981507
vn -0.477669 0.196711 0.856234
vn 0.301184 -0.242179 0.922300
vn 0.465219 -0.169861 0.868746
vn 0.002837 -0.370359 0.928884
vn 0.510287 -0.072548 0.856939
vn 0.157570 -0.134782 0.978267
vn -0.063283 -0.371745 0.926175
vn -0.125740 -0.203953 0.970872
vn 0.011098 -0.383522 0.923465
vn 0.481424 0.082408 0.872605
vn 0.082463 0.379493 0.921512
vn 0.164990 0.200432 0.965715
vn -0.024676 0.334116 0.942209
vn -0.338731 0.280700 0.898036
vn -0.146888 0.185763 0.971553
vn -0.392625 0.106140 0.913553
vn 0.014108 0.311051 0.950289
vn -0.462255 -0.108996 0.880023
vn -0.098520 -0.328109 0.939488
vn 0.353317 0.127175 0.926819
vn 0.341451 -0.168550 0.924663
vn -0.060514 0.298773 0.952404
vn 0.026237 0.292168 0.956007
vn -0.341705 -0.157807 0.926463
vn -0.286341 0.100118 0.952883
vn -0.220512 0.348379 0.911047
vn 0.028030 -0.388800 0.920896
vn 0.303663 -0.346642 0.887484
vn 0.540886 0.062968 0.838736
vn -0.011008 0.353362 0.935422
vn -0.513205 -0.082523 0.854290
vn -0.471128 -0.038252 0.881235
vn 0.010538 0.327171 0.944906
vn -0.001968 0.380695 0.924699
vn -0.343580 -0.240338 0.907849
vn -0.483354 0.075204 0.872189
vn -0.055539 0.443329 0.894637
vn 0.048861 -0.380937 0.923309
vn 0.017177 -0.376914 0.926089
vn -0.003433 -0.061482 0.998102
vn -0.411668 0.020310 0.911108
vn -0.191718 0.047189 0.980315
vn -0.221873 -0.036808 0.974380
vn 0.007889 0.328853 0.944348
vn 0.034999 0.218632 0.975180
vn -0.044359 0.186088 0.981531
vn -0.012398 0.308044 0.951291
vn 0.485019 -0.046720 0.873255
vn 0.193356 -0.030291 0.980661
vn 0.229908 0.048034 0.972026
vn 0.447962 0.014072 0.893942
vn -0.022581 -0.370021 0.928749
vn -0.027950 -0.177174 0.983783
vn 0.032794 -0.196580 0.979939
vn -0.002841 -0.385242 0.922811
vn 0.136488 -0.306204 0.942131
vn 0.035201 0.408481 0.912088
vn 0.534836 0.152439 0.831091
vn -0.437243 -0.064114 0.897055
vn -0.465077 -0.082145 0.881451
vn -0.342260 -0.211091 0.915587
vn -0.507752 -0.026335 0.861101
vn -0.000040 0.307504 0.951547
vn 0.027537 0.301603 0.953036
vn 0.014684 0.320086 0.947275
vn -0.378773 0.030558 0.924985
vn -0.301726 0.142770 0.942644
vn -0.454140 0.066365 0.888455
vn -0.049956 0.241213 0.969185
vn -0.163917 0.225740 0.960298
vn -0.096279 0.082558 0.991925
vn -0.044767 0.367389 0.928989
vn 0.170133 -0.387085 0.906212
vn 0.012291 0.365754 0.930631
vn -0.054189 0.317740 0.946628
vn -0.014908 0.330401 0.943723
vn 0.330627 0.070789 0.941103
vn 0.134184 0.232906 0.963197
vn 0.109750 0.108354 0.988036
vn 0.259729 -0.150708 0.953849
vn 0.029964 0.371951 0.927769
vn 0.471126 0.034610 0.881386
vn 0.482255 0.129712 0.866375
vn 0.299530 0.188885 0.935203
vn 0.507799 0.011556 0.861398
vn -0.147267 0.299399 0.942694
vn 0.178907 0.379875 0.907572
vn 0.536926 0.074126 0.840367
vn -0.058474 -0.241872 0.968545
vn -0.079250 -0.126760 0.988763
vn -0.171960 -0.277150 0.945314
vn -0.046316 -0.337363 0.940234
vn -0.110848 -0.347041 0.931276
vn -0.008853 -0.389467 0.920998
vn 0.057754 -0.236866 0.969824
vn 0.081565 -0.116077 0.989885
vn -0.099038 -0.000000 0.995084
vn 0.000000 0.134813 0.990871
vn 0.020967 0.329831 0.943807
vn 0.008673 -0.383339 0.923567
vn 0.110219 -0.350922 0.929896
vn 0.010820 -0.381497 0.924307
vn 0.385443 -0.105913 0.916633
vn 0.384786 -0.258324 0.886120
vn 0.513086 -0.040040 0.857403
vn -0.016289 0.303847 0.952582
vn 0.000000 -0.133606 0.991035
vn 0.250791 -0.234238 0.939274
vn 0.430422 -0.262200 0.863706
vn 0.031775 -0.360528 0.932207
vn -0.055389 -0.428027 0.902067
vn 0.234964 -0.086740 0.968126
vn -0.019008 -0.378375 0.925457
vn -0.296530 -0.081895 0.951506
vn -0.037042 0.345000 0.937871
vn 0.438360 0.057998 0.896926
vn -0.096497 -0.383617 0.918437
vn -0.274924 0.078895 0.958223
vn 0.030794 0.288021 0.957129
vn -0.421323 0.203351 0.883818
vn 0.232066 0.237840 0.943174
vn -0.211596 0.434697 0.875366
vn 0.311469 -0.017391 0.950097
vn -0.194702 0.191136 0.962059
vn 0.065293 0.289667 0.954898
vn 0.404654 -0.180396 0.896500
vn 0.026702 0.132397 0.990837
vn -0.133386 -0.325545 0.936071
vn -0.201267 -0.359164 0.911314
vn 0.222230 0.346663 0.911284
vn 0.237101 -0.342343 0.909167
vn 0.096640 0.368001 0.924790
vn -0.124373 -0.363271 0.923345
vn -0.263976 0.265227 0.927346
vn -0.017947 0.365109 0.930792
vn 0.033929 0.345518 0.937798
vn 0.042834 -0.413673 0.909417
vn -0.009740 0.074125 0.997201
vn 0.180884 0.243072 0.952994
vn 0.588491 -0.096441 0.802731
vn -0.042032 -0.202719 0.978334
vn -0.048933 -0.371834 0.927008
vn -0.243139 -0.385671 0.890023
vn 0.564452 0.005363 0.825449
vn -0.014081 -0.404967 0.914223
vn -0.367994 0.175616 0.913093
vn -0.051877 0.358273 0.932175
vn 0.453689 0.066397 0.888683
vn 0.135072 0.000000 0.990836
vn 0.061215 0.373204 0.925728
vn -0.411920 -0.145744 0.899489
vn -0.003358 -0.415493 0.909590
f 1/1/1 113/113/113 66/66/66
f 31/31/31 137/137/137 113/113/113
f 109/109/109 157/157/157 49/49/49
f 76/76/76 112/112/112 164/164/164
f 84/84/84 174/174/174 41/41/41
f 112/112/112 114/114/114 31/31/31
f 114/114/114 47/47/47 31/31/31
f 84/84/84 152/152/152 58/58/58
f 137/137/137 66/66/66 113/113/113
f 164/164/164 112/112/112 31/31/31
f 150/150/150 104/104/104 63/63/63
f 12/12/12 114/114/114 151/151/151
f 170/170/170 109/109/109 49/49/49
f 164/164/164 31/31/31 113/113/113
f 42/42/42 114/114/114 112/112/112
f 76/76/76 113/113/113 1/1/1
f 76/76/76 164/164/164 113/113/113
f 15/15/15 112/112/112 76/76/76
f 115/115/115 15/15/15 75/75/75
f 162/162/162 101/101/101 11/11/11
f 175/175/175 150/150/150 63/63/63
f 125/125/125 62/62/62 117/117/117
f 22/22/22 30/30/30 136/136/136
f 107/107/107 162/162/162 11/11/11
f 32/32/32 165/165/165 136/136/136
f 22/22/22 136/136/136 165/165/165
f 12/12/12 151/151/151 116/116/116
f 151/151/151 42/42/42 116/116/116
f 151/151/151 114/114/114 42/42/42
f 116/116/116 30/30/30 22/22/22
f 133/133/133 27/27/27 78/78/78
f 150/150/150 175/175/175 160/160/160
f 156/156/156 116/116/116 22/22/22
f 156/156/156 152/152/152 12/12/12
f 156/156/156 12/12/12 116/116/116
f 147/147/147 134/134/134 161/161/161
f 168/168/168 165/165/165 32/32/32
f 170/170/170 138/138/138 109/109/109
f 156/156/156 22/22/22 165/165/165
f 140/140/140 165/165/165 168/168/168
f 146/146/146 81/81/81 110/110/110
f 82/82/82 137/137/137 47/47/47
f 150/150/150 146/146/146 80/80/80
f 101/101/101 162/162/162 43/43/43
f 134/134/134 140/140/140 168/168/168
f 140/140/140 152/152/152 156/156/156
f 140/140/140 156/156/156 165/165/165
f 69/69/69 94/94/94 92/92/92
f 152/152/152 166/166/166 58/58/58
f 167/167/167 106/106/106 81/81/81
f 104/104/104 80/80/80 34/34/34
f 170/170/170 53/53/53 138/138/138
f 161/161/161 134/134/134 168/168/168
f 45/45/45 98/98/98 36/36/36
f 134/134/134 166/166/166 140/140/140
f 81/81/81 153/153/153 110/110/110
f 38/38/38 92/92/92 94/94/94
f 99/99/99 36/36/36 56/56/56
f 83/83/83 58/58/58 54/54/54
f 23/23/23 29/29/29 118/118/118
f 174/174/174 58/58/58 83/83/83
f 146/146/146 110/110/110 80/80/80
f 84/84/84 12/12/12 152/152/152
f 84/84/84 58/58/58 174/174/174
f 47/47/47 114/114/114 84/84/84
f 84/84/84 114/114/114 12/12/12
f 47/47/47 84/84/84 41/41/41
f 82/82/82 47/47/47 41/41/41
f 36/36/36 99/99/99 129/129/129
f 20/20/20 137/137/137 82/82/82
f 70/70/70 129/129/129 99/99/99
f 20/20/20 66/66/66 137/137/137
f 55/55/55 20/20/20 82/82/82
f 98/98/98 138/138/138 36/36/36
f 171/171/171 33/33/33 139/139/139
f 102/102/102 68/68/68 35/35/35
f 94/94/94 69/69/69 3/3/3
f 130/130/130 2/2/2 119/119/119
f 2/2/2 72/72/72 119/119/119
f 53/53/53 56/56/56 36/36/36
f 92/92/92 18/18/18 69/69/69
f 21/21/21 141/141/141 65/65/65
f 139/139/139 43/43/43 171/171/171
f 62/62/62 136/136/136 117/117/117
f 122/122/122 53/53/53 97/97/97
f 60/60/60 95/95/95 145/145/145
f 122/122/122 97/97/97 159/159/159
f 135/135/135 126/126/126 44/44/44
f 109/109/109 98/98/98 10/10/10
f 89/89/89 39/39/39 48/48/48
f 152/152/152 140/140/140 166/166/166
f 129/129/129 45/45/45 36/36/36
f 48/48/48 38/38/38 141/141/141
f 123/123/123 32/32/32 62/62/62
f 130/130/130 119/119/119 77/77/77
f 135/135/135 17/17/17 126/126/126
f 136/136/136 62/62/62 32/32/32
f 41/41/41 85/85/85 82/82/82
f 93/93/93 45/45/45 38/38/38
f 129/129/129 70/70/70 18/18/18
f 55/55/55 82/82/82 85/85/85
f 53/53/53 36/36/36 138/138/138
f 92/92/92 38/38/38 45/45/45
f 145/145/145 24/24/24 147/147/147
f 18/18/18 92/92/92 129/129/129
f 29/29/29 23/23/23 119/119/119
f 48/48/48 141/141/141 89/89/89
f 45/45/45 129/129/129 92/92/92
f 21/21/21 89/89/89 141/141/141
f 6/6/6 91/91/91 64/64/64
f 105/105/105 139/139/139 33/33/33
f 149/149/149 44/44/44 126/126/126
f 85/85/85 59/59/59 6/6/6
f 93/93/93 38/38/38 48/48/48
f 39/39/39 169/169/169 90/90/90
f 37/37/37 24/24/24 145/145/145
f 24/24/24 59/59/59 83/83/83
f 120/120/120 65/65/65 94/94/94
f 54/54/54 147/147/147 24/24/24
f 77/77/77 23/23/23 118/118/118
f 37/37/37 145/145/145 49/49/49
f 157/157/157 90/90/90 169/169/169
f 123/123/123 27/27/27 61/61/61
f 124/124/124 61/61/61 27/27/27
f 175/175/175 168/168/168 160/160/160
f 16/16/16 100/100/100 139/139/139
f 56/56/56 53/53/53 122/122/122
f 6/6/6 55/55/55 85/85/85
f 162/162/162 107/107/107 43/43/43
f 24/24/24 83/83/83 54/54/54
f 24/24/24 143/143/143 59/59/59
f 143/143/143 169/169/169 39/39/39
f 3/3/3 120/120/120 94/94/94
f 79/79/79 118/118/118 131/131/131
f 60/60/60 147/147/147 161/161/161
f 29/29/29 131/131/131 118/118/118
f 157/157/157 169/169/169 37/37/37
f 135/135/135 103/103/103 29/29/29
f 95/95/95 49/49/49 145/145/145
f 135/135/135 72/72/72 17/17/17
f 37/37/37 169/169/169 143/143/143
f 37/37/37 143/143/143 24/24/24
f 157/157/157 37/37/37 49/49/49
f 157/157/157 10/10/10 90/90/90
f 109/109/109 138/138/138 98/98/98
f 109/109/109 10/10/10 157/157/157
f 135/135/135 44/44/44 103/103/103
f 170/170/170 97/97/97 53/53/53
f 27/27/27 123/123/123 125/125/125
f 62/62/62 125/125/125 123/123/123
f 60/60/60 145/145/145 147/147/147
f 60/60/60 161/161/161 95/95/95
f 110/110/110 34/34/34 80/80/80
f 121/121/121 68/68/68 102/102/102
f 173/173/173 57/57/57 104/104/104
f 40/40/40 46/46/46 86/86/86
f 57/57/57 97/97/97 170/170/170
f 57/57/57 170/170/170 95/95/95
f 78/78/78 125/125/125 9/9/9
f 131/131/131 13/13/13 79/79/79
f 74/74/74 16/16/16 139/139/139
f 110/110/110 155/155/155 34/34/34
f 87/87/87 46/46/46 40/40/40
f 147/147/147 166/166/166 134/134/134
f 110/110/110 153/153/153 155/155/155
f 108/108/108 111/111/111 52/52/52
f 173/173/173 97/97/97 57/57/57
f 34/34/34 173/173/173 104/104/104
f 4/4/4 121/121/121 102/102/102
f 107/107/107 106/106/106 33/33/33
f 11/11/11 155/155/155 144/144/144
f 155/155/155 173/173/173 34/34/34
f 64/64/64 91/91/91 89/89/89
f 106/106/106 153/153/153 81/81/81
f 146/146/146 5/5/5 51/51/51
f 158/158/158 104/104/104 57/57/57
f 50/50/50 160/160/160 168/168/168
f 95/95/95 158/158/158 57/57/57
f 158/158/158 95/95/95 63/63/63
f 104/104/104 158/158/158 63/63/63
f 154/154/154 51/51/51 96/96/96
f 167/167/167 111/111/111 106/106/106
f 33/33/33 106/106/106 111/111/111
f 107/107/107 33/33/33 171/171/171
f 167/167/167 132/132/132 28/28/28
f 64/64/64 89/89/89 21/21/21
f 105/105/105 33/33/33 111/111/111
f 45/45/45 93/93/93 98/98/98
f 105/105/105 111/111/111 108/108/108
f 147/147/147 54/54/54 166/166/166
f 74/74/74 108/108/108 8/8/8
f 58/58/58 166/166/166 54/54/54
f 74/74/74 105/105/105 108/108/108
f 93/93/93 10/10/10 98/98/98
f 63/63/63 161/161/161 175/175/175
f 11/11/11 144/144/144 107/107/107
f 43/43/43 107/107/107 171/171/171
f 144/144/144 155/155/155 153/153/153
f 144/144/144 153/153/153 106/106/106
f 144/144/144 106/106/106 107/107/107
f 168/168/168 175/175/175 161/161/161
f 159/159/159 87/87/87 40/40/40
f 38/38/38 94/94/94 141/141/141
f 148/148/148 101/101/101 46/46/46
f 103/103/103 25/25/25 131/131/131
f 65/65/65 141/141/141 94/94/94
f 74/74/74 139/139/139 105/105/105
f 115/115/115 42/42/42 15/15/15
f 7/7/7 99/99/99 88/88/88
f 59/59/59 143/143/143 91/91/91
f 86/86/86 46/46/46 142/142/142
f 79/79/79 133/133/133 118/118/118
f 102/102/102 35/35/35 100/100/100
f 150/150/150 80/80/80 104/104/104
f 40/40/40 86/86/86 88/88/88
f 125/125/125 78/78/78 27/27/27
f 148/148/148 46/46/46 87/87/87
f 39/39/39 91/91/91 143/143/143
f 19/19/19 86/86/86 142/142/142
f 67/67/67 88/88/88 86/86/86
f 56/56/56 122/122/122 40/40/40
f 159/159/159 155/155/155 148/148/148
f 122/122/122 159/159/159 40/40/40
f 159/159/159 148/148/148 87/87/87
f 148/148/148 155/155/155 11/11/11
f 148/148/148 11/11/11 101/101/101
f 159/159/159 97/97/97 173/173/173
f 159/159/159 173/173/173 155/155/155
f 56/56/56 40/40/40 88/88/88
f 30/30/30 117/117/117 136/136/136
f 56/56/56 88/88/88 99/99/99
f 90/90/90 48/48/48 39/39/39
f 7/7/7 70/70/70 99/99/99
f 67/67/67 7/7/7 88/88/88
f 19/19/19 67/67/67 86/86/86
f 68/68/68 19/19/19 142/142/142
f 73/73/73 102/102/102 100/100/100
f 59/59/59 85/85/85 83/83/83
f 172/172/172 4/4/4 102/102/102
f 73/73/73 172/172/172 102/102/102
f 16/16/16 73/73/73 100/100/100
f 79/79/79 124/124/124 133/133/133
f 142/142/142 35/35/35 68/68/68
f 51/51/51 163/163/163 146/146/146
f 115/115/115 30/30/30 42/42/42
f 28/28/28 128/128/128 52/52/52
f 131/131/131 25/25/25 13/13/13
f 101/101/101 35/35/35 46/46/46
f 142/142/142 46/46/46 35/35/35
f 126/126/126 17/17/17 71/71/71
f 132/132/132 26/26/26 28/28/28
f 128/128/128 71/71/71 8/8/8
f 23/23/23 77/77/77 119/119/119
f 167/167/167 28/28/28 52/52/52
f 26/26/26 128/128/128 28/28/28
f 115/115/115 75/75/75 30/30/30
f 117/117/117 30/30/30 75/75/75
f 95/95/95 170/170/170 49/49/49
f 100/100/100 35/35/35 43/43/43
f 103/103/103 131/131/131 29/29/29
f 91/91/91 6/6/6 59/59/59
f 101/101/101 43/43/43 35/35/35
f 13/13/13 25/25/25 127/127/127
f 149/149/149 126/126/126 26/26/26
f 149/149/149 26/26/26 127/127/127
f 51/51/51 127/127/127 132/132/132
f 118/118/118 133/133/133 14/14/14
f 27/27/27 133/133/133 124/124/124
f 79/79/79 13/13/13 124/124/124
f 163/163/163 132/132/132 167/167/167
f 132/132/132 127/127/127 26/26/26
f 167/167/167 52/52/52 111/111/111
f 163/163/163 167/167/167 81/81/81
f 63/63/63 95/95/95 161/161/161
f 146/146/146 163/163/163 81/81/81
f 150/150/150 5/5/5 146/146/146
f 96/96/96 160/160/160 50/50/50
f 50/50/50 168/168/168 32/32/32
f 128/128/128 8/8/8 52/52/52
f 96/96/96 5/5/5 160/160/160
f 108/108/108 52/52/52 8/8/8
f 124/124/124 154/154/154 61/61/61
f 5/5/5 150/150/150 160/160/160
f 123/123/123 50/50/50 32/32/32
f 96/96/96 50/50/50 61/61/61
f 116/116/116 42/42/42 30/30/30
f 77/77/77 118/118/118 14/14/14
f 154/154/154 127/127/127 51/51/51
f 96/96/96 51/51/51 5/5/5
f 51/51/51 132/132/132 163/163/163
f 85/85/85 41/41/41 83/83/83
f 154/154/154 96/96/96 61/61/61
f 154/154/154 13/13/13 127/127/127
f 124/124/124 13/13/13 154/154/154
f 149/149/149 127/127/127 44/44/44
f 25/25/25 44/44/44 127/127/127
f 10/10/10 93/93/93 90/90/90
f 123/123/123 61/61/61 50/50/50
f 29/29/29 119/119/119 135/135/135
f 72/72/72 135/135/135 119/119/119
f 137/137/137 31/31/31 47/47/47
f 9/9/9 117/117/117 75/75/75
f 9/9/9 125/125/125 117/117/117
f 48/48/48 90/90/90 93/93/93
f 14/14/14 133/133/133 78/78/78
f 39/39/39 89/89/89 91/91/91
f 103/103/103 44/44/44 25/25/25
f 112/112/112 15/15/15 42/42/42
f 139/139/139 100/100/100 43/43/43
f 174/174/174 83/83/83 41/41/41
f 126/126/126 71/71/71 26/26/26
f 128/128/128 26/26/26 71/71/71
