# frame 000927 
# time 0.464000 
# name Cloth3D 
v -0.000000 0.000000 -0.000000
v 1.000000 0.000000 -0.000000
v -0.000000 1.000000 0.000000
v 1.000000 1.000000 0.000000
v 0.654838 0.409589 0.170893
v -0.000000 0.500000 0.000000
v 0.500000 1.000000 0.000000
v 1.000000 0.500000 0.000000
v 0.500000 -0.000000 0.000000
v 0.246530 0.750515 0.076490
v 0.755733 0.750207 0.076491
v 0.244882 0.248289 0.080437
v 0.754978 0.248737 0.081728
v 0.750000 0.000000 0.000000
v 0.250000 0.000000 0.000000
v 1.000000 0.750000 0.000000
v 1.000000 0.250000 0.000000
v 0.250000 1.000000 0.000000
v 0.750000 1.000000 0.000000
v 0.000000 0.250000 0.000000
v 0.000000 0.750000 -0.000000
v 0.362789 0.218618 0.087317
v 0.875067 0.062426 0.012498
v 0.230322 0.514277 0.131792
v 0.816809 0.249639 0.063588
v 0.883041 0.374940 0.064143
v 0.625636 0.124139 0.050634
v 0.885300 0.437304 0.071399
v 0.875397 0.125324 0.022295
v 0.374357 0.123872 0.050254
v 0.123469 0.124024 0.027005
v 0.492382 0.250182 0.103776
v 0.882255 0.625166 0.061930
v 0.632907 0.621818 0.134959
v 0.877765 0.877104 0.032546
v 0.374809 0.873952 0.043223
v 0.253218 0.598655 0.116139
v 0.123928 0.875183 0.025537
v 0.121199 0.623565 0.053177
v 0.625912 0.872940 0.040493
v 0.116202 0.373601 0.064955
v 0.249031 0.124744 0.038649
v 0.881022 0.751414 0.051095
v 0.877352 0.250716 0.041585
v 0.249219 0.875255 0.039395
v 0.751801 0.875998 0.041574
v 0.119309 0.248260 0.050393
v 0.121138 0.750038 0.046774
v 0.316584 0.591597 0.138710
v 0.586164 0.302985 0.127142
v 0.748812 0.363849 0.125734
v 0.885401 0.499824 0.072432
v 0.435530 0.769802 0.082449
v 0.231039 0.453312 0.136966
v 0.000000 0.375000 0.000000
v 0.500399 0.874093 0.046614
v 0.501253 0.621885 0.141844
v 0.237804 0.372110 0.119640
v 0.114718 0.499079 0.069907
v 0.522250 0.410564 0.172238
v 0.628847 0.248069 0.103130
v 0.500057 0.123933 0.053757
v 0.497422 0.470498 0.199841
v 0.000000 0.625000 0.000000
v 0.000000 0.875000 0.000000
v 0.000000 0.125000 0.000000
v 0.625000 1.000000 0.000000
v 0.875000 1.000000 0.000000
v 0.125000 1.000000 0.000000
v 0.375000 1.000000 0.000000
v 1.000000 0.375000 0.000000
v 1.000000 0.125000 0.000000
v 1.000000 0.875000 0.000000
v 1.000000 0.625000 0.000000
v 0.375000 0.000000 0.000000
v 0.125000 0.000000 0.000000
v 0.875000 0.000000 0.000000
v 0.625000 0.000000 0.000000
v 0.750763 0.124236 0.040657
v 0.641179 0.496193 0.188053
v 0.780970 0.514861 0.142429
v 0.060102 0.312227 0.026701
v 0.174424 0.435697 0.101609
v 0.178469 0.309887 0.083277
v 0.056883 0.436966 0.035543
v 0.687905 0.937446 0.021568
v 0.690243 0.811954 0.062553
v 0.562730 0.937142 0.023281
v 0.060943 0.686888 0.024453
v 0.183048 0.686726 0.070921
v 0.059718 0.561618 0.029590
v 0.187347 0.938000 0.018335
v 0.184650 0.813600 0.052039
v 0.062515 0.937370 0.006908
v 0.433050 0.559312 0.165428
v 0.682340 0.356509 0.141181
v 0.508156 0.721843 0.099719
v 0.311100 0.812974 0.065350
v 0.437639 0.936698 0.021878
v 0.940127 0.813212 0.022754
v 0.816754 0.814362 0.054001
v 0.937880 0.937767 0.007596
v 0.875611 0.188343 0.029514
v 0.569485 0.559794 0.167513
v 0.941773 0.624933 0.032222
v 0.832904 0.591793 0.097212
v 0.822688 0.689495 0.084846
v 0.939130 0.562143 0.029093
v 0.315291 0.700602 0.101676
v 0.696395 0.582758 0.148506
v 0.882320 0.562159 0.065234
v 0.187384 0.062558 0.015373
v 0.062066 0.062099 0.009758
v 0.184434 0.186113 0.050779
v 0.312405 0.062590 0.021182
v 0.310219 0.185893 0.069336
v 0.437443 0.061490 0.027470
v 0.812271 0.062690 0.015203
v 0.937549 0.062535 0.007788
v -0.000000 0.937500 0.000000
v 0.937500 1.000000 0.000000
v 0.525969 0.801802 0.070032
v 0.563546 0.187478 0.076474
v 0.690072 0.185467 0.072284
v 0.562545 0.062055 0.026368
v 0.939944 0.313041 0.026936
v 0.819879 0.311979 0.080080
v 0.944216 0.437535 0.038149
v 0.312534 0.936829 0.019534
v 0.937500 0.000000 -0.000000
v 0.814342 0.187516 0.047061
v 0.813502 0.370742 0.102773
v 0.687596 0.060968 0.026106
v 0.393561 0.374528 0.154418
v 0.937809 0.188130 0.015378
v 0.436687 0.186148 0.078849
v 0.060936 0.187207 0.018982
v 0.378943 0.767286 0.081904
v 0.939511 0.687383 0.025884
v 0.372170 0.316594 0.126751
v 0.060300 0.812512 0.022093
v 0.813374 0.938678 0.020247
v 0.178721 0.560697 0.090871
v 0.777480 0.649726 0.106213
v 0.317338 0.530409 0.165295
v 0.720105 0.471301 0.199956
v 0.320313 0.469619 0.199958
v 0.722731 0.771767 0.073928
v 0.878439 0.313380 0.049865
v 0.622608 0.470995 0.199871
v 0.246902 0.185557 0.061973
v 0.287818 0.329534 0.120546
v 0.724414 0.606554 0.130959
v 0.721519 0.298830 0.109670
v 0.675539 0.666732 0.113109
v 0.326123 0.274887 0.103559
v 0.275666 0.656085 0.106486
v 0.501121 0.559812 0.167316
v 0.614397 0.769006 0.080651
v 0.603096 0.364838 0.153111
v 0.414275 0.470150 0.199839
v 0.819581 0.752041 0.069387
v 0.779520 0.452414 0.146382
v 0.124629 0.062554 0.011155
v 0.415969 0.254955 0.106888
v 0.307965 0.386239 0.149074
v 0.829264 0.480695 0.112383
v 0.476988 0.361222 0.149843
v 0.181420 0.623515 0.080271
v 0.412397 0.660338 0.127097
v 0.881439 0.688364 0.056133
v 1.000000 0.937500 0.000000
v 0.591803 0.673430 0.119558
v 0.175791 0.372423 0.094597
vt 0.000000 0.000000
vt 1.000000 0.000000
vt 0.000000 1.000000
vt 1.000000 1.000000
vt 0.639940 0.411013
vt 0.000000 0.500000
vt 0.500000 1.000000
vt 1.000000 0.500000
vt 0.500000 0.000000
vt 0.250000 0.750000
vt 0.750000 0.750000
vt 0.250000 0.250000
vt 0.750000 0.250000
vt 0.750000 0.000000
vt 0.250000 0.000000
vt 1.000000 0.750000
vt 1.000000 0.250000
vt 0.250000 1.000000
vt 0.750000 1.000000
vt 0.000000 0.250000
vt 0.000000 0.750000
vt 0.365347 0.220303
vt 0.875000 0.062500
vt 0.245672 0.515386
vt 0.812500 0.250000
vt 0.875000 0.375000
vt 0.625000 0.125000
vt 0.875000 0.437500
vt 0.875000 0.125000
vt 0.375000 0.125000
vt 0.125000 0.125000
vt 0.492214 0.250470
vt 0.875000 0.625000
vt 0.625000 0.625000
vt 0.875000 0.875000
vt 0.375000 0.875000
vt 0.262101 0.599801
vt 0.125000 0.875000
vt 0.125000 0.625000
vt 0.625000 0.875000
vt 0.125000 0.375000
vt 0.250000 0.125000
vt 0.875000 0.750000
vt 0.875000 0.250000
vt 0.250000 0.875000
vt 0.750000 0.875000
vt 0.125000 0.250000
vt 0.125000 0.750000
vt 0.325445 0.593646
vt 0.581754 0.304126
vt 0.736041 0.365469
vt 0.875000 0.500000
vt 0.435664 0.771773
vt 0.248222 0.455442
vt 0.000000 0.375000
vt 0.500000 0.875000
vt 0.500000 0.625000
vt 0.250000 0.375000
vt 0.125000 0.500000
vt 0.519707 0.411902
vt 0.625000 0.250000
vt 0.500000 0.125000
vt 0.497214 0.473930
vt 0.000000 0.625000
vt 0.000000 0.875000
vt 0.000000 0.125000
vt 0.625000 1.000000
vt 0.875000 1.000000
vt 0.125000 1.000000
vt 0.375000 1.000000
vt 1.000000 0.375000
vt 1.000000 0.125000
vt 1.000000 0.875000
vt 1.000000 0.625000
vt 0.375000 0.000000
vt 0.125000 0.000000
vt 0.875000 0.000000
vt 0.625000 0.000000
vt 0.750000 0.125000
vt 0.625000 0.500000
vt 0.760524 0.515669
vt 0.062500 0.312500
vt 0.187500 0.437500
vt 0.187500 0.312500
vt 0.062500 0.437500
vt 0.687500 0.937500
vt 0.687500 0.812500
vt 0.562500 0.937500
vt 0.062500 0.687500
vt 0.187500 0.687500
vt 0.062500 0.562500
vt 0.187500 0.937500
vt 0.187500 0.812500
vt 0.062500 0.937500
vt 0.437500 0.562500
vt 0.671367 0.358455
vt 0.506884 0.725192
vt 0.312500 0.812500
vt 0.437500 0.937500
vt 0.937500 0.812500
vt 0.812500 0.812500
vt 0.937500 0.937500
vt 0.875000 0.187500
vt 0.562500 0.562500
vt 0.937500 0.625000
vt 0.819332 0.591237
vt 0.812500 0.687500
vt 0.937500 0.562500
vt 0.319123 0.700934
vt 0.682510 0.583771
vt 0.875000 0.562500
vt 0.187500 0.062500
vt 0.062500 0.062500
vt 0.187500 0.187500
vt 0.312500 0.062500
vt 0.312500 0.187500
vt 0.437500 0.062500
vt 0.812500 0.062500
vt 0.937500 0.062500
vt 0.000000 0.937500
vt 0.937500 1.000000
vt 0.525016 0.804189
vt 0.562500 0.187500
vt 0.687500 0.187500
vt 0.562500 0.062500
vt 0.937500 0.312500
vt 0.812500 0.312500
vt 0.937500 0.437500
vt 0.312500 0.937500
vt 0.937500 0.000000
vt 0.812500 0.187500
vt 0.800716 0.372483
vt 0.687500 0.062500
vt 0.400647 0.375957
vt 0.937500 0.187500
vt 0.437500 0.187500
vt 0.062500 0.187500
vt 0.380019 0.768564
vt 0.937500 0.687500
vt 0.377625 0.317694
vt 0.062500 0.812500
vt 0.812500 0.937500
vt 0.187500 0.562500
vt 0.765906 0.648544
vt 0.331404 0.533038
vt 0.691219 0.474118
vt 0.342243 0.472588
vt 0.718294 0.771897
vt 0.875000 0.312500
vt 0.608491 0.473962
vt 0.250000 0.187500
vt 0.296906 0.332149
vt 0.711873 0.607167
vt 0.713437 0.300753
vt 0.668274 0.669022
vt 0.331126 0.276226
vt 0.281585 0.657008
vt 0.500000 0.562500
vt 0.611736 0.771102
vt 0.595175 0.366343
vt 0.423237 0.473300
vt 0.812500 0.750000
vt 0.758105 0.454518
vt 0.125000 0.062500
vt 0.418341 0.256674
vt 0.320334 0.388669
vt 0.812755 0.481587
vt 0.477835 0.361491
vt 0.187500 0.625000
vt 0.414679 0.661630
vt 0.875000 0.687500
vt 1.000000 0.937500
vt 0.587160 0.675778
vt 0.187500 0.375000
vn -0.076666 -0.076666 0.994105
vn 0.043052 -0.086104 0.995355
vn -0.069743 0.034872 0.996955
vn 0.064303 0.064303 0.995857
vn 0.079282 -0.442283 0.893365
vn -0.503676 0.024961 0.863532
vn -0.004597 0.337053 0.941474
vn 0.514428 0.040663 0.856569
vn 0.004615 -0.397947 0.917397
vn -0.179997 0.235363 0.955094
vn 0.099780 0.273816 0.956592
vn -0.171720 -0.307140 0.936044
vn 0.257438 -0.301474 0.918063
vn 0.042013 -0.319852 0.946535
vn -0.022126 -0.286437 0.957844
vn 0.374923 0.007778 0.927024
vn 0.327851 -0.043637 0.943721
vn -0.003350 0.283919 0.958843
vn 0.002796 0.315109 0.949051
vn -0.350821 -0.029827 0.935968
vn -0.355167 0.010223 0.934747
vn -0.093880 -0.359908 0.928253
vn 0.058145 -0.178666 0.982190
vn -0.480507 0.189800 0.856206
vn 0.299267 -0.245658 0.922004
vn 0.461639 -0.170623 0.870504
vn 0.007302 -0.370878 0.928653
vn 0.510271 -0.073568 0.856861
vn 0.155751 -0.137166 0.978227
vn -0.061227 -0.372321 0.926082
vn -0.125784 -0.206281 0.970374
vn 0.010012 -0.382090 0.924071
vn 0.481149 0.082547 0.872744
vn 0.082217 0.378464 0.921957
vn 0.168603 0.199436 0.965297
vn -0.022001 0.338126 0.940844
vn -0.342530 0.278063 0.897415
vn -0.148772 0.187573 0.970919
vn -0.397746 0.103939 0.911589
vn 0.014492 0.312215 0.949901
vn -0.462660 -0.107286 0.880020
vn -0.099948 -0.329620 0.938808
vn 0.355110 0.130695 0.925643
vn 0.338949 -0.167559 0.925763
vn -0.059733 0.302257 0.951353
vn 0.027969 0.292331 0.955908
vn -0.341527 -0.156447 0.926760
vn -0.291047 0.097186 0.951760
vn -0.218085 0.346768 0.912245
vn 0.027521 -0.387935 0.921276
vn 0.305845 -0.348677 0.885936
vn 0.542935 0.060306 0.837607
vn -0.009471 0.354156 0.935138
vn -0.512044 -0.085632 0.854680
vn -0.470236 -0.037315 0.881752
vn 0.010391 0.329965 0.943936
vn -0.002238 0.379964 0.924999
vn -0.342633 -0.239506 0.908427
vn -0.484407 0.073912 0.871715
vn -0.003653 -0.413254 0.910608
vn 0.052096 -0.379774 0.923611
vn 0.016350 -0.378010 0.925657
vn -0.003324 -0.058190 0.998300
vn -0.409855 0.020208 0.911927
vn -0.198350 0.047819 0.978964
vn -0.224702 -0.036685 0.973737
vn 0.006881 0.332966 0.942914
vn 0.037183 0.216759 0.975517
vn -0.044629 0.192015 0.980377
vn -0.010424 0.309496 0.950844
vn 0.484820 -0.045678 0.873420
vn 0.187733 -0.029961 0.981763
vn 0.223719 0.048341 0.973454
vn 0.453444 0.014062 0.891174
vn -0.023012 -0.369982 0.928754
vn -0.028212 -0.180036 0.983255
vn 0.032691 -0.188831 0.981465
vn -0.001778 -0.385432 0.922734
vn 0.138725 -0.304639 0.942311
vn 0.034143 0.407988 0.912348
vn 0.535337 0.150850 0.831059
vn -0.438536 -0.063036 0.896500
vn -0.463583 -0.082430 0.882211
vn -0.339858 -0.210819 0.916544
vn -0.507481 -0.026364 0.861260
vn 0.000553 0.309051 0.951045
vn 0.026099 0.308609 0.950831
vn 0.013373 0.322820 0.946366
vn -0.379948 0.028189 0.924578
vn -0.307889 0.139558 0.941131
vn -0.454038 0.067041 0.888456
vn -0.050415 0.246499 0.967831
vn -0.167153 0.226578 0.959543
vn -0.099461 0.084864 0.991416
vn -0.048201 0.361448 0.931145
vn 0.173602 -0.386321 0.905880
vn 0.011636 0.366576 0.930315
vn -0.051939 0.320375 0.945866
vn -0.014379 0.333142 0.942767
vn 0.329248 0.071489 0.941534
vn 0.138411 0.234023 0.962328
vn 0.108570 0.106153 0.988405
vn 0.257014 -0.154816 0.953926
vn 0.030770 0.371327 0.927992
vn 0.474168 0.034527 0.879757
vn 0.482510 0.129030 0.866334
vn 0.301398 0.191482 0.934074
vn 0.508971 0.008736 0.860739
vn -0.144135 0.299699 0.943083
vn 0.185387 0.383008 0.904951
vn 0.537801 0.070662 0.840105
vn -0.057212 -0.244558 0.967945
vn -0.080722 -0.129479 0.988291
vn -0.170074 -0.275542 0.946124
vn -0.044897 -0.338252 0.939984
vn -0.108339 -0.345067 0.932304
vn -0.010777 -0.390300 0.920625
vn 0.060062 -0.233080 0.970601
vn 0.078417 -0.113066 0.990488
vn -0.104426 -0.000000 0.994533
vn 0.000000 0.127959 0.991779
vn 0.021196 0.332650 0.942812
vn 0.009256 -0.382932 0.923730
vn 0.114112 -0.350874 0.929444
vn 0.011478 -0.383241 0.923577
vn 0.382441 -0.106659 0.917803
vn 0.384229 -0.257432 0.886621
vn 0.512920 -0.039929 0.857507
vn -0.014258 0.308354 0.951165
vn 0.000000 -0.128627 0.991693
vn 0.246775 -0.237676 0.939475
vn 0.430601 -0.260783 0.864046
vn 0.034071 -0.358991 0.932719
vn -0.055757 -0.427772 0.902165
vn 0.235086 -0.088729 0.967916
vn -0.022524 -0.378001 0.925531
vn -0.300108 -0.080814 0.950476
vn -0.033613 0.345747 0.937725
vn 0.439262 0.062114 0.896209
vn -0.097596 -0.384355 0.918012
vn -0.278695 0.077663 0.957234
vn 0.032159 0.288095 0.957062
vn -0.426738 0.199103 0.882186
vn 0.232481 0.237090 0.943261
vn -0.225220 0.412724 0.882573
vn 0.310251 -0.015709 0.950525
vn -0.241774 0.068295 0.967926
vn 0.070914 0.288871 0.954738
vn 0.401875 -0.180868 0.897654
vn 0.026639 0.137207 0.990184
vn -0.136190 -0.323600 0.936342
vn -0.202555 -0.358930 0.911121
vn 0.228556 0.347727 0.909312
vn 0.238674 -0.343328 0.908383
vn 0.098319 0.366147 0.925348
vn -0.125120 -0.362705 0.923466
vn -0.265188 0.265248 0.926995
vn -0.016998 0.364921 0.930883
vn 0.033432 0.347579 0.937055
vn 0.044303 -0.413170 0.909575
vn -0.019495 0.010941 0.999750
vn 0.185594 0.243729 0.951920
vn 0.588153 -0.101031 0.802415
vn -0.042383 -0.207947 0.977221
vn -0.050825 -0.372054 0.926818
vn -0.244947 -0.384992 0.889822
vn 0.566207 0.001085 0.824262
vn -0.013425 -0.403574 0.914849
vn -0.375548 0.171889 0.910724
vn -0.049632 0.357476 0.932603
vn 0.452305 0.073165 0.888857
vn 0.128197 0.000000 0.991749
vn 0.062115 0.371337 0.926418
vn -0.409694 -0.144924 0.900637
f 1/1/1 113/113/113 66/66/66
f 31/31/31 137/137/137 113/113/113
f 109/109/109 157/157/157 49/49/49
f 76/76/76 112/112/112 164/164/164
f 84/84/84 174/174/174 41/41/41
f 112/112/112 114/114/114 31/31/31
f 114/114/114 47/47/47 31/31/31
f 84/84/84 152/152/152 58/58/58
f 137/137/137 66/66/66 113/113/113
f 164/164/164 112/112/112 31/31/31
f 150/150/150 104/104/104 63/63/63
f 12/12/12 114/114/114 151/151/151
f 170/170/170 109/109/109 49/49/49
f 164/164/164 31/31/31 113/113/113
f 42/42/42 114/114/114 112/112/112
f 76/76/76 113/113/113 1/1/1
f 76/76/76 164/164/164 113/113/113
f 15/15/15 112/112/112 76/76/76
f 115/115/115 15/15/15 75/75/75
f 162/162/162 101/101/101 11/11/11
f 60/60/60 150/150/150 63/63/63
f 125/125/125 62/62/62 117/117/117
f 22/22/22 30/30/30 136/136/136
f 107/107/107 162/162/162 11/11/11
f 32/32/32 165/165/165 136/136/136
f 22/22/22 136/136/136 165/165/165
f 12/12/12 151/151/151 116/116/116
f 151/151/151 42/42/42 116/116/116
f 151/151/151 114/114/114 42/42/42
f 116/116/116 30/30/30 22/22/22
f 133/133/133 27/27/27 78/78/78
f 150/150/150 60/60/60 160/160/160
f 156/156/156 116/116/116 22/22/22
f 156/156/156 152/152/152 12/12/12
f 156/156/156 12/12/12 116/116/116
f 147/147/147 134/134/134 161/161/161
f 168/168/168 165/165/165 32/32/32
f 170/170/170 138/138/138 109/109/109
f 156/156/156 22/22/22 165/165/165
f 140/140/140 165/165/165 168/168/168
f 146/146/146 81/81/81 110/110/110
f 82/82/82 137/137/137 47/47/47
f 150/150/150 146/146/146 80/80/80
f 101/101/101 162/162/162 43/43/43
f 134/134/134 140/140/140 168/168/168
f 140/140/140 152/152/152 156/156/156
f 140/140/140 156/156/156 165/165/165
f 69/69/69 94/94/94 92/92/92
f 152/152/152 166/166/166 58/58/58
f 167/167/167 106/106/106 81/81/81
f 104/104/104 80/80/80 34/34/34
f 170/170/170 53/53/53 138/138/138
f 161/161/161 134/134/134 168/168/168
f 45/45/45 98/98/98 36/36/36
f 134/134/134 166/166/166 140/140/140
f 81/81/81 153/153/153 110/110/110
f 38/38/38 92/92/92 94/94/94
f 99/99/99 36/36/36 56/56/56
f 83/83/83 58/58/58 54/54/54
f 23/23/23 29/29/29 118/118/118
f 174/174/174 58/58/58 83/83/83
f 146/146/146 110/110/110 80/80/80
f 84/84/84 12/12/12 152/152/152
f 84/84/84 58/58/58 174/174/174
f 47/47/47 114/114/114 84/84/84
f 84/84/84 114/114/114 12/12/12
f 47/47/47 84/84/84 41/41/41
f 82/82/82 47/47/47 41/41/41
f 36/36/36 99/99/99 129/129/129
f 20/20/20 137/137/137 82/82/82
f 70/70/70 129/129/129 99/99/99
f 20/20/20 66/66/66 137/137/137
f 55/55/55 20/20/20 82/82/82
f 98/98/98 138/138/138 36/36/36
f 171/171/171 33/33/33 139/139/139
f 102/102/102 68/68/68 35/35/35
f 94/94/94 69/69/69 3/3/3
f 130/130/130 2/2/2 119/119/119
f 2/2/2 72/72/72 119/119/119
f 53/53/53 56/56/56 36/36/36
f 92/92/92 18/18/18 69/69/69
f 21/21/21 141/141/141 65/65/65
f 139/139/139 43/43/43 171/171/171
f 62/62/62 136/136/136 117/117/117
f 122/122/122 53/53/53 97/97/97
f 42/42/42 115/115/115 116/116/116
f 122/122/122 97/97/97 159/159/159
f 135/135/135 126/126/126 44/44/44
f 109/109/109 98/98/98 10/10/10
f 89/89/89 39/39/39 48/48/48
f 152/152/152 140/140/140 166/166/166
f 129/129/129 45/45/45 36/36/36
f 48/48/48 38/38/38 141/141/141
f 123/123/123 32/32/32 62/62/62
f 130/130/130 119/119/119 77/77/77
f 135/135/135 17/17/17 126/126/126
f 136/136/136 62/62/62 32/32/32
f 41/41/41 85/85/85 82/82/82
f 93/93/93 45/45/45 38/38/38
f 129/129/129 70/70/70 18/18/18
f 55/55/55 82/82/82 85/85/85
f 53/53/53 36/36/36 138/138/138
f 92/92/92 38/38/38 45/45/45
f 145/145/145 24/24/24 147/147/147
f 18/18/18 92/92/92 129/129/129
f 29/29/29 23/23/23 119/119/119
f 48/48/48 141/141/141 89/89/89
f 45/45/45 129/129/129 92/92/92
f 21/21/21 89/89/89 141/141/141
f 6/6/6 91/91/91 64/64/64
f 105/105/105 139/139/139 33/33/33
f 149/149/149 44/44/44 126/126/126
f 85/85/85 59/59/59 6/6/6
f 93/93/93 38/38/38 48/48/48
f 39/39/39 169/169/169 90/90/90
f 37/37/37 24/24/24 145/145/145
f 24/24/24 59/59/59 83/83/83
f 120/120/120 65/65/65 94/94/94
f 54/54/54 147/147/147 24/24/24
f 77/77/77 23/23/23 118/118/118
f 37/37/37 145/145/145 49/49/49
f 157/157/157 90/90/90 169/169/169
f 123/123/123 27/27/27 61/61/61
f 124/124/124 61/61/61 27/27/27
f 60/60/60 168/168/168 160/160/160
f 16/16/16 100/100/100 139/139/139
f 56/56/56 53/53/53 122/122/122
f 6/6/6 55/55/55 85/85/85
f 162/162/162 107/107/107 43/43/43
f 24/24/24 83/83/83 54/54/54
f 24/24/24 143/143/143 59/59/59
f 143/143/143 169/169/169 39/39/39
f 3/3/3 120/120/120 94/94/94
f 79/79/79 118/118/118 131/131/131
f 30/30/30 116/116/116 115/115/115
f 29/29/29 131/131/131 118/118/118
f 157/157/157 169/169/169 37/37/37
f 135/135/135 103/103/103 29/29/29
f 95/95/95 49/49/49 145/145/145
f 135/135/135 72/72/72 17/17/17
f 37/37/37 169/169/169 143/143/143
f 37/37/37 143/143/143 24/24/24
f 157/157/157 37/37/37 49/49/49
f 157/157/157 10/10/10 90/90/90
f 109/109/109 138/138/138 98/98/98
f 109/109/109 10/10/10 157/157/157
f 135/135/135 44/44/44 103/103/103
f 170/170/170 97/97/97 53/53/53
f 27/27/27 123/123/123 125/125/125
f 62/62/62 125/125/125 123/123/123
f 174/174/174 83/83/83 41/41/41
f 139/139/139 100/100/100 43/43/43
f 110/110/110 34/34/34 80/80/80
f 121/121/121 68/68/68 102/102/102
f 173/173/173 57/57/57 104/104/104
f 40/40/40 46/46/46 86/86/86
f 57/57/57 97/97/97 170/170/170
f 57/57/57 170/170/170 95/95/95
f 78/78/78 125/125/125 9/9/9
f 131/131/131 13/13/13 79/79/79
f 74/74/74 16/16/16 139/139/139
f 110/110/110 155/155/155 34/34/34
f 87/87/87 46/46/46 40/40/40
f 147/147/147 166/166/166 134/134/134
f 110/110/110 153/153/153 155/155/155
f 108/108/108 111/111/111 52/52/52
f 173/173/173 97/97/97 57/57/57
f 34/34/34 173/173/173 104/104/104
f 4/4/4 121/121/121 102/102/102
f 107/107/107 106/106/106 33/33/33
f 11/11/11 155/155/155 144/144/144
f 155/155/155 173/173/173 34/34/34
f 64/64/64 91/91/91 89/89/89
f 106/106/106 153/153/153 81/81/81
f 146/146/146 5/5/5 51/51/51
f 158/158/158 104/104/104 57/57/57
f 50/50/50 160/160/160 168/168/168
f 95/95/95 158/158/158 57/57/57
f 158/158/158 95/95/95 63/63/63
f 104/104/104 158/158/158 63/63/63
f 154/154/154 51/51/51 96/96/96
f 167/167/167 111/111/111 106/106/106
f 33/33/33 106/106/106 111/111/111
f 107/107/107 33/33/33 171/171/171
f 167/167/167 132/132/132 28/28/28
f 64/64/64 89/89/89 21/21/21
f 105/105/105 33/33/33 111/111/111
f 45/45/45 93/93/93 98/98/98
f 105/105/105 111/111/111 108/108/108
f 147/147/147 54/54/54 166/166/166
f 74/74/74 108/108/108 8/8/8
f 58/58/58 166/166/166 54/54/54
f 74/74/74 105/105/105 108/108/108
f 93/93/93 10/10/10 98/98/98
f 63/63/63 161/161/161 60/60/60
f 11/11/11 144/144/144 107/107/107
f 43/43/43 107/107/107 171/171/171
f 144/144/144 155/155/155 153/153/153
f 144/144/144 153/153/153 106/106/106
f 144/144/144 106/106/106 107/107/107
f 168/168/168 60/60/60 161/161/161
f 159/159/159 87/87/87 40/40/40
f 38/38/38 94/94/94 141/141/141
f 148/148/148 101/101/101 46/46/46
f 103/103/103 25/25/25 131/131/131
f 65/65/65 141/141/141 94/94/94
f 74/74/74 139/139/139 105/105/105
f 115/115/115 42/42/42 15/15/15
f 7/7/7 99/99/99 88/88/88
f 59/59/59 143/143/143 91/91/91
f 86/86/86 46/46/46 142/142/142
f 79/79/79 133/133/133 118/118/118
f 102/102/102 35/35/35 100/100/100
f 150/150/150 80/80/80 104/104/104
f 40/40/40 86/86/86 88/88/88
f 125/125/125 78/78/78 27/27/27
f 148/148/148 46/46/46 87/87/87
f 39/39/39 91/91/91 143/143/143
f 19/19/19 86/86/86 142/142/142
f 67/67/67 88/88/88 86/86/86
f 56/56/56 122/122/122 40/40/40
f 159/159/159 155/155/155 148/148/148
f 122/122/122 159/159/159 40/40/40
f 159/159/159 148/148/148 87/87/87
f 148/148/148 155/155/155 11/11/11
f 148/148/148 11/11/11 101/101/101
f 159/159/159 97/97/97 173/173/173
f 159/159/159 173/173/173 155/155/155
f 56/56/56 40/40/40 88/88/88
f 30/30/30 117/117/117 136/136/136
f 56/56/56 88/88/88 99/99/99
f 90/90/90 48/48/48 39/39/39
f 7/7/7 70/70/70 99/99/99
f 67/67/67 7/7/7 88/88/88
f 19/19/19 67/67/67 86/86/86
f 68/68/68 19/19/19 142/142/142
f 73/73/73 102/102/102 100/100/100
f 59/59/59 85/85/85 83/83/83
f 172/172/172 4/4/4 102/102/102
f 73/73/73 172/172/172 102/102/102
f 16/16/16 73/73/73 100/100/100
f 79/79/79 124/124/124 133/133/133
f 142/142/142 35/35/35 68/68/68
f 51/51/51 163/163/163 146/146/146
f 128/128/128 26/26/26 71/71/71
f 28/28/28 128/128/128 52/52/52
f 131/131/131 25/25/25 13/13/13
f 101/101/101 35/35/35 46/46/46
f 142/142/142 46/46/46 35/35/35
f 126/126/126 17/17/17 71/71/71
f 132/132/132 26/26/26 28/28/28
f 128/128/128 71/71/71 8/8/8
f 23/23/23 77/77/77 119/119/119
f 167/167/167 28/28/28 52/52/52
f 26/26/26 128/128/128 28/28/28
f 115/115/115 75/75/75 30/30/30
f 117/117/117 30/30/30 75/75/75
f 95/95/95 170/170/170 49/49/49
f 100/100/100 35/35/35 43/43/43
f 103/103/103 131/131/131 29/29/29
f 91/91/91 6/6/6 59/59/59
f 101/101/101 43/43/43 35/35/35
f 13/13/13 25/25/25 127/127/127
f 149/149/149 126/126/126 26/26/26
f 149/149/149 26/26/26 127/127/127
f 51/51/51 127/127/127 132/132/132
f 118/118/118 133/133/133 14/14/14
f 27/27/27 133/133/133 124/124/124
f 79/79/79 13/13/13 124/124/124
f 163/163/163 132/132/132 167/167/167
f 132/132/132 127/127/127 26/26/26
f 167/167/167 52/52/52 111/111/111
f 163/163/163 167/167/167 81/81/81
f 63/63/63 95/95/95 161/161/161
f 146/146/146 163/163/163 81/81/81
f 150/150/150 5/5/5 146/146/146
f 96/96/96 160/160/160 50/50/50
f 50/50/50 168/168/168 32/32/32
f 128/128/128 8/8/8 52/52/52
f 96/96/96 5/5/5 160/160/160
f 108/108/108 52/52/52 8/8/8
f 124/124/124 154/154/154 61/61/61
f 5/5/5 150/150/150 160/160/160
f 123/123/123 50/50/50 32/32/32
f 96/96/96 50/50/50 61/61/61
f 126/126/126 71/71/71 26/26/26
f 77/77/77 118/118/118 14/14/14
f 154/154/154 127/127/127 51/51/51
f 96/96/96 51/51/51 5/5/5
f 51/51/51 132/132/132 163/163/163
f 85/85/85 41/41/41 83/83/83
f 154/154/154 96/96/96 61/61/61
f 154/154/154 13/13/13 127/127/127
f 124/124/124 13/13/13 154/154/154
f 149/149/149 127/127/127 44/44/44
f 25/25/25 44/44/44 127/127/127
f 10/10/10 93/93/93 90/90/90
f 123/123/123 61/61/61 50/50/50
f 29/29/29 119/119/119 135/135/135
f 72/72/72 135/135/135 119/119/119
f 137/137/137 31/31/31 47/47/47
f 9/9/9 117/117/117 75/75/75
f 9/9/9 125/125/125 117/117/117
f 48/48/48 90/90/90 93/93/93
f 14/14/14 133/133/133 78/78/78
f 39/39/39 89/89/89 91/91/91
f 103/103/103 44/44/44 25/25/25
f 112/112/112 15/15/15 42/42/42
f 161/161/161 95/95/95 145/145/145
f 161/161/161 145/145/145 147/147/147
