# frame 000991 
# time 0.496000 
# name Box 
v 0.720022 0.505297 -0.362788
v 0.718809 0.793627 -0.085544
v 0.719975 0.516385 0.202788
v 0.720022 0.505297 -0.362788
v 0.719975 0.516385 0.202788
v 0.721187 0.228055 -0.074456
v 0.320025 0.503615 -0.362788
v 0.321191 0.226373 -0.074456
v 0.319978 0.514703 0.202788
v 0.320025 0.503615 -0.362788
v 0.319978 0.514703 0.202788
v 0.318813 0.791945 -0.085544
v 0.720022 0.505297 -0.362788
v 0.320025 0.503615 -0.362788
v 0.318813 0.791945 -0.085544
v 0.720022 0.505297 -0.362788
v 0.318813 0.791945 -0.085544
v 0.718809 0.793627 -0.085544
v 0.718809 0.793627 -0.085544
v 0.318813 0.791945 -0.085544
v 0.319978 0.514703 0.202788
v 0.718809 0.793627 -0.085544
v 0.319978 0.514703 0.202788
v 0.719975 0.516385 0.202788
v 0.719975 0.516385 0.202788
v 0.319978 0.514703 0.202788
v 0.321191 0.226373 -0.074456
v 0.719975 0.516385 0.202788
v 0.321191 0.226373 -0.074456
v 0.721187 0.228055 -0.074456
v 0.320025 0.503615 -0.362788
v 0.720022 0.505297 -0.362788
v 0.721187 0.228055 -0.074456
v 0.320025 0.503615 -0.362788
v 0.721187 0.228055 -0.074456
v 0.321191 0.226373 -0.074456
vn 0.199998 0.000841 0.000000
vn 0.199998 0.000841 0.000000
vn 0.199998 0.000841 0.000000
vn 0.199998 0.000841 0.000000
vn 0.199998 0.000841 0.000000
vn 0.199998 0.000841 0.000000
vn -0.199998 -0.000841 0.000000
vn -0.199998 -0.000841 0.000000
vn -0.199998 -0.000841 0.000000
vn -0.199998 -0.000841 0.000000
vn -0.199998 -0.000841 0.000000
vn -0.199998 -0.000841 0.000000
vn -0.000583 0.138621 -0.144166
vn -0.000583 0.138621 -0.144166
vn -0.000583 0.138621 -0.144166
vn -0.000583 0.138621 -0.144166
vn -0.000583 0.138621 -0.144166
vn -0.000583 0.138621 -0.144166
vn -0.000606 0.144165 0.138622
vn -0.000606 0.144165 0.138622
vn -0.000606 0.144165 0.138622
vn -0.000606 0.144165 0.138622
vn -0.000606 0.144165 0.138622
vn -0.000606 0.144165 0.138622
vn 0.000583 -0.138621 0.144166
vn 0.000583 -0.138621 0.144166
vn 0.000583 -0.138621 0.144166
vn 0.000583 -0.138621 0.144166
vn 0.000583 -0.138621 0.144166
vn 0.000583 -0.138621 0.144166
vn 0.000606 -0.144165 -0.138622
vn 0.000606 -0.144165 -0.138622
vn 0.000606 -0.144165 -0.138622
vn 0.000606 -0.144165 -0.138622
vn 0.000606 -0.144165 -0.138622
vn 0.000606 -0.144165 -0.138622
f 1/1/1 2/2/2 3/3/3
f 4/4/4 5/5/5 6/6/6
f 7/7/7 8/8/8 9/9/9
f 10/10/10 11/11/11 12/12/12
f 13/13/13 14/14/14 15/15/15
f 16/16/16 17/17/17 18/18/18
f 19/19/19 20/20/20 21/21/21
f 22/22/22 23/23/23 24/24/24
f 25/25/25 26/26/26 27/27/27
f 28/28/28 29/29/29 30/30/30
f 31/31/31 32/32/32 33/33/33
f 34/34/34 35/35/35 36/36/36
