# frame 000946 
# time 0.473500 
# name Cloth3D 
v -0.000000 0.000000 -0.000000
v 1.000000 0.000000 -0.000000
v -0.000000 1.000000 0.000000
v 1.000000 1.000000 0.000000
v 0.654589 0.410399 0.165930
v -0.000000 0.500000 0.000000
v 0.500000 1.000000 0.000000
v 1.000000 0.500000 0.000000
v 0.500000 -0.000000 0.000000
v 0.243313 0.755560 0.092654
v 0.756970 0.752876 0.086220
v 0.246374 0.249246 0.079994
v 0.754113 0.251461 0.073014
v 0.750000 0.000000 0.000000
v 0.250000 0.000000 0.000000
v 1.000000 0.750000 0.000000
v 1.000000 0.250000 0.000000
v 0.250000 1.000000 0.000000
v 0.750000 1.000000 0.000000
v 0.000000 0.250000 0.000000
v 0.000000 0.750000 -0.000000
v 0.364061 0.219680 0.085323
v 0.874232 0.063902 0.001842
v 0.231196 0.515884 0.135508
v 0.815621 0.252138 0.055079
v 0.882531 0.375956 0.061172
v 0.626311 0.122777 0.053008
v 0.885994 0.438014 0.070607
v 0.874329 0.126823 0.013381
v 0.375034 0.124985 0.047938
v 0.122668 0.123226 0.034008
v 0.493607 0.248475 0.107459
v 0.886675 0.625689 0.069707
v 0.634395 0.624085 0.144247
v 0.876715 0.876297 0.027266
v 0.373976 0.876473 0.051134
v 0.250643 0.602547 0.129320
v 0.121467 0.878282 0.037450
v 0.121779 0.625742 0.056589
v 0.626162 0.876618 0.051435
v 0.118729 0.375196 0.061909
v 0.249244 0.124428 0.041343
v 0.878827 0.749988 0.044388
v 0.877874 0.251315 0.039942
v 0.247564 0.879942 0.052753
v 0.751652 0.876570 0.043172
v 0.120356 0.249490 0.050055
v 0.120621 0.752088 0.050539
v 0.313794 0.595713 0.153899
v 0.587181 0.302913 0.126435
v 0.748918 0.364886 0.122268
v 0.888530 0.500086 0.076053
v 0.434632 0.773317 0.093784
v 0.232378 0.454510 0.138371
v 0.000000 0.375000 0.000000
v 0.500248 0.874066 0.047699
v 0.501039 0.623363 0.147386
v 0.241001 0.374442 0.115328
v 0.119308 0.500246 0.065014
v 0.523254 0.410979 0.171768
v 0.629516 0.248663 0.100547
v 0.500637 0.122673 0.056361
v 0.498272 0.483836 0.201394
v 0.000000 0.625000 0.000000
v 0.000000 0.875000 0.000000
v 0.000000 0.125000 0.000000
v 0.625000 1.000000 0.000000
v 0.875000 1.000000 0.000000
v 0.125000 1.000000 0.000000
v 0.375000 1.000000 0.000000
v 1.000000 0.375000 0.000000
v 1.000000 0.125000 0.000000
v 1.000000 0.875000 0.000000
v 1.000000 0.625000 0.000000
v 0.375000 0.000000 0.000000
v 0.125000 0.000000 0.000000
v 0.875000 0.000000 0.000000
v 0.625000 0.000000 0.000000
v 0.750437 0.126064 0.034312
v 0.638250 0.560316 0.168054
v 0.784319 0.515536 0.147521
v 0.058217 0.312592 0.031636
v 0.175415 0.437148 0.102852
v 0.181015 0.311981 0.079898
v 0.058965 0.437803 0.033142
v 0.687954 0.938406 0.024124
v 0.690772 0.814385 0.070704
v 0.562741 0.937303 0.024123
v 0.061799 0.687838 0.024336
v 0.179795 0.690708 0.084312
v 0.060583 0.562626 0.030098
v 0.186400 0.939775 0.023700
v 0.182397 0.817324 0.063344
v 0.061439 0.938514 0.012776
v 0.432801 0.560593 0.170584
v 0.682791 0.357917 0.136789
v 0.507945 0.726033 0.112969
v 0.309355 0.817073 0.077695
v 0.437381 0.937110 0.023689
v 0.937871 0.812270 0.015596
v 0.816421 0.814503 0.054154
v 0.937163 0.937169 0.001558
v 0.875928 0.188881 0.027304
v 0.569758 0.560211 0.170232
v 0.943712 0.625164 0.035428
v 0.834532 0.591807 0.100229
v 0.820639 0.687815 0.078907
v 0.944957 0.562598 0.038590
v 0.312452 0.705225 0.117203
v 0.697971 0.583326 0.153735
v 0.887666 0.562765 0.073498
v 0.187131 0.061827 0.019706
v 0.061988 0.061998 0.010900
v 0.184689 0.186417 0.053538
v 0.312569 0.061703 0.024386
v 0.311028 0.186112 0.070278
v 0.437696 0.061246 0.027920
v 0.812025 0.063660 0.009997
v 0.936931 0.063201 0.000809
v -0.000000 0.937500 0.000000
v 0.937500 1.000000 0.000000
v 0.525881 0.805152 0.080486
v 0.564615 0.184133 0.083766
v 0.689695 0.187858 0.064921
v 0.562820 0.061278 0.027843
v 0.940404 0.313323 0.026839
v 0.818742 0.314206 0.073297
v 0.941378 0.438185 0.032661
v 0.311930 0.939456 0.027156
v 0.937500 0.000000 -0.000000
v 0.813149 0.190101 0.036805
v 0.811699 0.373114 0.095806
v 0.687486 0.062786 0.020789
v 0.395202 0.374570 0.154497
v 0.937258 0.188689 0.011259
v 0.437640 0.186116 0.078753
v 0.060111 0.187091 0.023581
v 0.377427 0.771396 0.095093
v 0.943002 0.687665 0.032547
v 0.373752 0.316551 0.127286
v 0.059037 0.813629 0.026535
v 0.813240 0.939376 0.021963
v 0.178303 0.563445 0.097049
v 0.776743 0.648708 0.104319
v 0.315361 0.533178 0.177173
v 0.720049 0.484641 0.201516
v 0.320257 0.482959 0.201518
v 0.723610 0.774138 0.082465
v 0.881014 0.313134 0.053504
v 0.623677 0.484336 0.201426
v 0.179758 0.375055 0.088550
v 0.290083 0.330864 0.118245
v 0.725492 0.606900 0.134926
v 0.721154 0.301084 0.102692
v 0.677125 0.670081 0.125232
v 0.327436 0.274740 0.105019
v 0.271434 0.661765 0.126091
v 0.501204 0.560183 0.169807
v 0.614881 0.771706 0.090080
v 0.603642 0.365908 0.149408
v 0.415111 0.483488 0.201393
v 0.732243 0.422144 0.153027
v 0.779685 0.453327 0.143186
v 0.359408 0.426913 0.175243
v 0.417535 0.256156 0.103964
v 0.310399 0.387138 0.147032
v 0.833075 0.480976 0.116592
v 0.478039 0.360722 0.151436
v 0.179858 0.626888 0.089723
v 0.411131 0.661174 0.131770
v 0.882926 0.688137 0.058207
v 1.000000 0.937500 0.000000
v 0.592441 0.675210 0.127015
v 0.447336 0.417970 0.173791
vt 0.000000 0.000000
vt 1.000000 0.000000
vt 0.000000 1.000000
vt 1.000000 1.000000
vt 0.639940 0.411013
vt 0.000000 0.500000
vt 0.500000 1.000000
vt 1.000000 0.500000
vt 0.500000 0.000000
vt 0.250000 0.750000
vt 0.750000 0.750000
vt 0.250000 0.250000
vt 0.750000 0.250000
vt 0.750000 0.000000
vt 0.250000 0.000000
vt 1.000000 0.750000
vt 1.000000 0.250000
vt 0.250000 1.000000
vt 0.750000 1.000000
vt 0.000000 0.250000
vt 0.000000 0.750000
vt 0.365347 0.220303
vt 0.875000 0.062500
vt 0.245672 0.515386
vt 0.812500 0.250000
vt 0.875000 0.375000
vt 0.625000 0.125000
vt 0.875000 0.437500
vt 0.875000 0.125000
vt 0.375000 0.125000
vt 0.125000 0.125000
vt 0.492214 0.250470
vt 0.875000 0.625000
vt 0.625000 0.625000
vt 0.875000 0.875000
vt 0.375000 0.875000
vt 0.262101 0.599801
vt 0.125000 0.875000
vt 0.125000 0.625000
vt 0.625000 0.875000
vt 0.125000 0.375000
vt 0.250000 0.125000
vt 0.875000 0.750000
vt 0.875000 0.250000
vt 0.250000 0.875000
vt 0.750000 0.875000
vt 0.125000 0.250000
vt 0.125000 0.750000
vt 0.325445 0.593646
vt 0.581754 0.304126
vt 0.736041 0.365469
vt 0.875000 0.500000
vt 0.435664 0.771773
vt 0.248222 0.455442
vt 0.000000 0.375000
vt 0.500000 0.875000
vt 0.500000 0.625000
vt 0.250000 0.375000
vt 0.125000 0.500000
vt 0.519707 0.411902
vt 0.625000 0.250000
vt 0.500000 0.125000
vt 0.497199 0.485559
vt 0.000000 0.625000
vt 0.000000 0.875000
vt 0.000000 0.125000
vt 0.625000 1.000000
vt 0.875000 1.000000
vt 0.125000 1.000000
vt 0.375000 1.000000
vt 1.000000 0.375000
vt 1.000000 0.125000
vt 1.000000 0.875000
vt 1.000000 0.625000
vt 0.375000 0.000000
vt 0.125000 0.000000
vt 0.875000 0.000000
vt 0.625000 0.000000
vt 0.750000 0.125000
vt 0.625000 0.562500
vt 0.760524 0.515669
vt 0.062500 0.312500
vt 0.187500 0.437500
vt 0.187500 0.312500
vt 0.062500 0.437500
vt 0.687500 0.937500
vt 0.687500 0.812500
vt 0.562500 0.937500
vt 0.062500 0.687500
vt 0.187500 0.687500
vt 0.062500 0.562500
vt 0.187500 0.937500
vt 0.187500 0.812500
vt 0.062500 0.937500
vt 0.437500 0.562500
vt 0.671367 0.358455
vt 0.506884 0.725192
vt 0.312500 0.812500
vt 0.437500 0.937500
vt 0.937500 0.812500
vt 0.812500 0.812500
vt 0.937500 0.937500
vt 0.875000 0.187500
vt 0.562500 0.562500
vt 0.937500 0.625000
vt 0.819332 0.591237
vt 0.812500 0.687500
vt 0.937500 0.562500
vt 0.319123 0.700934
vt 0.682510 0.583771
vt 0.875000 0.562500
vt 0.187500 0.062500
vt 0.062500 0.062500
vt 0.187500 0.187500
vt 0.312500 0.062500
vt 0.312500 0.187500
vt 0.437500 0.062500
vt 0.812500 0.062500
vt 0.937500 0.062500
vt 0.000000 0.937500
vt 0.937500 1.000000
vt 0.525016 0.804189
vt 0.562500 0.187500
vt 0.687500 0.187500
vt 0.562500 0.062500
vt 0.937500 0.312500
vt 0.812500 0.312500
vt 0.937500 0.437500
vt 0.312500 0.937500
vt 0.937500 0.000000
vt 0.812500 0.187500
vt 0.800716 0.372483
vt 0.687500 0.062500
vt 0.400647 0.375957
vt 0.937500 0.187500
vt 0.437500 0.187500
vt 0.062500 0.187500
vt 0.380019 0.768564
vt 0.937500 0.687500
vt 0.377625 0.317694
vt 0.062500 0.812500
vt 0.812500 0.937500
vt 0.187500 0.562500
vt 0.765906 0.648544
vt 0.331404 0.533038
vt 0.689987 0.486326
vt 0.341108 0.484442
vt 0.718294 0.771897
vt 0.875000 0.312500
vt 0.608484 0.485983
vt 0.187500 0.375000
vt 0.296906 0.332149
vt 0.711873 0.607167
vt 0.713437 0.300753
vt 0.668274 0.669022
vt 0.331126 0.276226
vt 0.281585 0.657008
vt 0.500000 0.562500
vt 0.611736 0.771102
vt 0.595175 0.366343
vt 0.423128 0.485526
vt 0.713353 0.422290
vt 0.758105 0.454518
vt 0.370877 0.428346
vt 0.418341 0.256674
vt 0.320334 0.388669
vt 0.812755 0.481587
vt 0.477835 0.361491
vt 0.187500 0.625000
vt 0.414679 0.661630
vt 0.875000 0.687500
vt 1.000000 0.937500
vt 0.587160 0.675778
vt 0.450521 0.418925
vn -0.087188 -0.087188 0.992369
vn 0.006442 -0.012884 0.999896
vn -0.134264 0.067132 0.988669
vn 0.013839 0.013839 0.999808
vn 0.112151 -0.440640 0.890651
vn -0.467081 0.013675 0.884109
vn -0.002515 0.353474 0.935441
vn 0.528659 -0.025036 0.848465
vn 0.001260 -0.415450 0.909615
vn -0.191620 0.263665 0.945390
vn 0.176204 0.301498 0.937044
vn -0.191826 -0.288540 0.938055
vn 0.266994 -0.312298 0.911693
vn 0.042306 -0.238735 0.970163
vn -0.017329 -0.333032 0.942756
vn 0.373698 0.066784 0.925143
vn 0.293463 -0.061984 0.953959
vn -0.011252 0.383310 0.923551
vn 0.006227 0.341776 0.939761
vn -0.419511 -0.031865 0.907191
vn -0.387760 -0.012688 0.921673
vn -0.056303 -0.365492 0.929110
vn 0.069106 -0.106878 0.991868
vn -0.519906 0.109544 0.847171
vn 0.242313 -0.272639 0.931103
vn 0.436582 -0.144633 0.887963
vn 0.099668 -0.374791 0.921736
vn 0.547766 -0.135687 0.825555
vn 0.136891 -0.181788 0.973763
vn -0.046720 -0.364990 0.929838
vn -0.151214 -0.197768 0.968515
vn -0.040763 -0.362717 0.931007
vn 0.445099 0.117138 0.887787
vn 0.055203 0.348311 0.935752
vn 0.231525 0.177839 0.956436
vn 0.024962 0.384309 0.922867
vn -0.404737 0.190685 0.894331
vn -0.192336 0.207704 0.959096
vn -0.472535 0.068634 0.878635
vn 0.018649 0.368944 0.929264
vn -0.424237 -0.109350 0.898925
vn -0.082523 -0.300988 0.950051
vn 0.332000 0.180771 0.925796
vn 0.283454 -0.203320 0.937184
vn -0.055433 0.353534 0.933778
vn 0.067307 0.314383 0.946907
vn -0.302903 -0.124600 0.944841
vn -0.369774 0.068137 0.926620
vn -0.200953 0.304353 0.931121
vn 0.067803 -0.355965 0.932036
vn 0.314801 -0.371507 0.873432
vn 0.581031 -0.025125 0.813493
vn 0.002131 0.363123 0.931739
vn -0.500362 -0.133564 0.855452
vn -0.482745 -0.004397 0.875750
vn -0.006351 0.387888 0.921685
vn 0.000311 0.335265 0.942124
vn -0.359027 -0.261727 0.895878
vn -0.508377 0.052915 0.859507
vn 0.007175 -0.385048 0.922869
vn 0.138771 -0.360052 0.922554
vn -0.017999 -0.396557 0.917834
vn -0.000937 -0.024067 0.999710
vn -0.404880 0.022156 0.914102
vn -0.287762 0.044880 0.956650
vn -0.269531 -0.049287 0.961729
vn -0.001851 0.361361 0.932424
vn 0.064449 0.168421 0.983606
vn -0.042837 0.283662 0.957967
vn 0.015079 0.376002 0.926496
vn 0.448604 -0.022473 0.893448
vn 0.097206 -0.039582 0.994477
vn 0.116639 0.044912 0.992158
vn 0.528382 0.030870 0.848445
vn -0.013863 -0.375392 0.926763
vn -0.033108 -0.238132 0.970668
vn 0.035798 -0.050907 0.998062
vn 0.024967 -0.379991 0.924653
vn 0.149893 -0.280787 0.947993
vn 0.044552 0.382881 0.922723
vn 0.531513 0.089740 0.842283
vn -0.425440 -0.041889 0.904017
vn -0.463881 -0.137573 0.875151
vn -0.332106 -0.169220 0.927939
vn -0.486681 0.000406 0.873580
vn 0.023401 0.355897 0.934232
vn 0.059495 0.339333 0.938783
vn -0.009825 0.367698 0.929893
vn -0.401925 0.013972 0.915566
vn -0.407203 0.107466 0.906993
vn -0.449901 0.037534 0.892289
vn -0.056737 0.346308 0.936404
vn -0.222637 0.215456 0.950795
vn -0.157105 0.122505 0.979954
vn -0.006637 0.361736 0.932257
vn 0.181982 -0.401270 0.897700
vn 0.009239 0.349336 0.936952
vn -0.021776 0.352586 0.935526
vn 0.013523 0.366542 0.930303
vn 0.283551 0.094882 0.954252
vn 0.213146 0.231579 0.949179
vn 0.078462 0.064568 0.994824
vn 0.206966 -0.218509 0.953635
vn 0.009374 0.364976 0.930970
vn 0.523926 0.047355 0.850446
vn 0.423046 0.174506 0.889145
vn 0.322065 0.219583 0.920900
vn 0.535004 0.024941 0.844481
vn -0.074086 0.315127 0.946153
vn 0.210081 0.371381 0.904402
vn 0.513084 0.057609 0.856403
vn -0.038421 -0.286514 0.957305
vn -0.127919 -0.136425 0.982357
vn -0.139797 -0.225584 0.964141
vn -0.019391 -0.346262 0.937938
vn -0.081375 -0.343314 0.935689
vn -0.033956 -0.392533 0.919111
vn 0.101489 -0.172111 0.979836
vn 0.028074 -0.053664 0.998164
vn -0.199664 -0.000000 0.979864
vn 0.000000 0.027674 0.999617
vn 0.004727 0.390295 0.920678
vn 0.037185 -0.373777 0.926773
vn 0.177416 -0.335940 0.925023
vn 0.012074 -0.409709 0.912136
vn 0.399886 -0.102039 0.910867
vn 0.326150 -0.262742 0.908071
vn 0.526977 -0.065525 0.847350
vn 0.007557 0.388745 0.921314
vn 0.003422 -0.022742 0.999736
vn 0.184681 -0.262751 0.947024
vn 0.436264 -0.273549 0.857231
vn 0.079591 -0.327502 0.941492
vn -0.067174 -0.400801 0.913699
vn 0.221258 -0.123804 0.967325
vn -0.073475 -0.367333 0.927183
vn -0.327343 -0.072995 0.942082
vn 0.004357 0.349130 0.937064
vn 0.447790 0.104353 0.888028
vn -0.101182 -0.385283 0.917235
vn -0.339864 0.047661 0.939266
vn 0.058605 0.285969 0.956445
vn -0.494863 0.113494 0.861528
vn 0.300256 0.254369 0.919316
vn -0.248326 0.351032 0.902835
vn 0.338196 -0.108325 0.934820
vn -0.221546 0.015861 0.975021
vn 0.095571 0.340867 0.935241
vn 0.351673 -0.171857 0.920213
vn 0.009770 0.015496 0.999832
vn -0.393652 -0.179638 0.901537
vn -0.238943 -0.336129 0.911002
vn 0.293127 0.335597 0.895238
vn 0.255905 -0.373472 0.891645
vn 0.122838 0.333664 0.934655
vn -0.124394 -0.352171 0.927632
vn -0.266674 0.239971 0.933434
vn 0.004285 0.352332 0.935865
vn 0.044408 0.348794 0.936147
vn 0.067323 -0.391315 0.917791
vn -0.009955 -0.072572 0.997313
vn 0.338280 -0.436452 0.833712
vn 0.518807 -0.251950 0.816921
vn -0.068245 -0.436388 0.897167
vn -0.071970 -0.371782 0.925526
vn -0.244834 -0.393481 0.886132
vn 0.550819 -0.080361 0.830747
vn -0.012821 -0.378867 0.925362
vn -0.463754 0.106172 0.879579
vn -0.016894 0.334054 0.942403
vn 0.352239 0.207455 0.912628
vn 0.027669 0.000000 0.999617
vn 0.038640 0.345227 0.937723
vn -0.015658 -0.382763 0.923714
f 1/1/1 113/113/113 66/66/66
f 31/31/31 137/137/137 113/113/113
f 109/109/109 157/157/157 49/49/49
f 98/98/98 45/45/45 10/10/10
f 84/84/84 151/151/151 41/41/41
f 112/112/112 114/114/114 31/31/31
f 114/114/114 47/47/47 31/31/31
f 84/84/84 152/152/152 58/58/58
f 137/137/137 66/66/66 113/113/113
f 93/93/93 10/10/10 45/45/45
f 150/150/150 104/104/104 63/63/63
f 161/161/161 145/145/145 147/147/147
f 170/170/170 109/109/109 49/49/49
f 164/164/164 147/147/147 166/166/166
f 42/42/42 114/114/114 112/112/112
f 76/76/76 113/113/113 1/1/1
f 147/147/147 164/164/164 161/161/161
f 15/15/15 112/112/112 76/76/76
f 115/115/115 15/15/15 75/75/75
f 146/146/146 162/162/162 163/163/163
f 60/60/60 150/150/150 63/63/63
f 150/150/150 80/80/80 104/104/104
f 22/22/22 30/30/30 136/136/136
f 162/162/162 51/51/51 163/163/163
f 32/32/32 165/165/165 136/136/136
f 22/22/22 136/136/136 165/165/165
f 161/161/161 95/95/95 145/145/145
f 52/52/52 128/128/128 108/108/108
f 103/103/103 44/44/44 25/25/25
f 116/116/116 30/30/30 22/22/22
f 160/160/160 5/5/5 60/60/60
f 12/12/12 114/114/114 42/42/42
f 156/156/156 116/116/116 22/22/22
f 156/156/156 152/152/152 12/12/12
f 156/156/156 12/12/12 116/116/116
f 86/86/86 46/46/46 19/19/19
f 168/168/168 165/165/165 32/32/32
f 170/170/170 138/138/138 109/109/109
f 156/156/156 22/22/22 165/165/165
f 140/140/140 165/165/165 168/168/168
f 146/146/146 81/81/81 110/110/110
f 82/82/82 137/137/137 47/47/47
f 174/174/174 168/168/168 60/60/60
f 51/51/51 162/162/162 96/96/96
f 134/134/134 140/140/140 168/168/168
f 140/140/140 152/152/152 156/156/156
f 140/140/140 156/156/156 165/165/165
f 69/69/69 94/94/94 92/92/92
f 152/152/152 166/166/166 58/58/58
f 167/167/167 106/106/106 81/81/81
f 118/118/118 29/29/29 79/79/79
f 170/170/170 53/53/53 138/138/138
f 76/76/76 112/112/112 113/113/113
f 45/45/45 98/98/98 36/36/36
f 134/134/134 166/166/166 140/140/140
f 81/81/81 153/153/153 110/110/110
f 38/38/38 92/92/92 94/94/94
f 99/99/99 36/36/36 56/56/56
f 83/83/83 58/58/58 54/54/54
f 23/23/23 29/29/29 118/118/118
f 151/151/151 58/58/58 83/83/83
f 34/34/34 80/80/80 110/110/110
f 84/84/84 12/12/12 152/152/152
f 84/84/84 58/58/58 151/151/151
f 47/47/47 114/114/114 84/84/84
f 84/84/84 114/114/114 12/12/12
f 47/47/47 84/84/84 41/41/41
f 82/82/82 47/47/47 41/41/41
f 36/36/36 99/99/99 129/129/129
f 20/20/20 137/137/137 82/82/82
f 70/70/70 129/129/129 99/99/99
f 20/20/20 66/66/66 137/137/137
f 55/55/55 20/20/20 82/82/82
f 98/98/98 138/138/138 36/36/36
f 171/171/171 33/33/33 139/139/139
f 102/102/102 68/68/68 35/35/35
f 94/94/94 69/69/69 3/3/3
f 130/130/130 2/2/2 119/119/119
f 2/2/2 72/72/72 119/119/119
f 53/53/53 56/56/56 36/36/36
f 92/92/92 18/18/18 69/69/69
f 21/21/21 141/141/141 65/65/65
f 139/139/139 43/43/43 171/171/171
f 62/62/62 136/136/136 117/117/117
f 122/122/122 53/53/53 97/97/97
f 42/42/42 115/115/115 116/116/116
f 122/122/122 97/97/97 159/159/159
f 135/135/135 126/126/126 44/44/44
f 109/109/109 98/98/98 10/10/10
f 89/89/89 39/39/39 48/48/48
f 152/152/152 140/140/140 166/166/166
f 129/129/129 45/45/45 36/36/36
f 48/48/48 38/38/38 141/141/141
f 123/123/123 32/32/32 62/62/62
f 133/133/133 27/27/27 78/78/78
f 135/135/135 17/17/17 126/126/126
f 136/136/136 62/62/62 32/32/32
f 41/41/41 85/85/85 82/82/82
f 93/93/93 45/45/45 38/38/38
f 129/129/129 70/70/70 18/18/18
f 55/55/55 82/82/82 85/85/85
f 53/53/53 36/36/36 138/138/138
f 92/92/92 38/38/38 45/45/45
f 145/145/145 24/24/24 147/147/147
f 18/18/18 92/92/92 129/129/129
f 29/29/29 23/23/23 119/119/119
f 48/48/48 141/141/141 89/89/89
f 45/45/45 129/129/129 92/92/92
f 21/21/21 89/89/89 141/141/141
f 6/6/6 91/91/91 64/64/64
f 105/105/105 139/139/139 33/33/33
f 149/149/149 44/44/44 126/126/126
f 46/46/46 101/101/101 142/142/142
f 93/93/93 38/38/38 48/48/48
f 39/39/39 169/169/169 90/90/90
f 37/37/37 24/24/24 145/145/145
f 24/24/24 59/59/59 83/83/83
f 120/120/120 65/65/65 94/94/94
f 54/54/54 147/147/147 24/24/24
f 77/77/77 23/23/23 118/118/118
f 37/37/37 145/145/145 49/49/49
f 157/157/157 90/90/90 169/169/169
f 123/123/123 27/27/27 61/61/61
f 124/124/124 61/61/61 27/27/27
f 60/60/60 168/168/168 160/160/160
f 16/16/16 100/100/100 139/139/139
f 56/56/56 53/53/53 122/122/122
f 6/6/6 55/55/55 85/85/85
f 5/5/5 96/96/96 162/162/162
f 24/24/24 83/83/83 54/54/54
f 24/24/24 143/143/143 59/59/59
f 143/143/143 169/169/169 39/39/39
f 3/3/3 120/120/120 94/94/94
f 101/101/101 107/107/107 43/43/43
f 30/30/30 116/116/116 115/115/115
f 107/107/107 101/101/101 11/11/11
f 157/157/157 169/169/169 37/37/37
f 135/135/135 103/103/103 29/29/29
f 95/95/95 49/49/49 145/145/145
f 135/135/135 72/72/72 17/17/17
f 37/37/37 169/169/169 143/143/143
f 37/37/37 143/143/143 24/24/24
f 157/157/157 37/37/37 49/49/49
f 157/157/157 10/10/10 90/90/90
f 109/109/109 138/138/138 98/98/98
f 109/109/109 10/10/10 157/157/157
f 135/135/135 44/44/44 103/103/103
f 170/170/170 97/97/97 53/53/53
f 27/27/27 123/123/123 125/125/125
f 62/62/62 125/125/125 123/123/123
f 151/151/151 83/83/83 41/41/41
f 139/139/139 100/100/100 43/43/43
f 131/131/131 79/79/79 29/29/29
f 121/121/121 68/68/68 102/102/102
f 173/173/173 57/57/57 104/104/104
f 40/40/40 46/46/46 86/86/86
f 57/57/57 97/97/97 170/170/170
f 57/57/57 170/170/170 95/95/95
f 78/78/78 125/125/125 9/9/9
f 131/131/131 13/13/13 79/79/79
f 74/74/74 16/16/16 139/139/139
f 110/110/110 155/155/155 34/34/34
f 87/87/87 46/46/46 40/40/40
f 142/142/142 19/19/19 46/46/46
f 110/110/110 153/153/153 155/155/155
f 108/108/108 111/111/111 52/52/52
f 173/173/173 97/97/97 57/57/57
f 34/34/34 173/173/173 104/104/104
f 4/4/4 121/121/121 102/102/102
f 107/107/107 106/106/106 33/33/33
f 11/11/11 155/155/155 144/144/144
f 155/155/155 173/173/173 34/34/34
f 64/64/64 91/91/91 89/89/89
f 106/106/106 153/153/153 81/81/81
f 143/143/143 39/39/39 59/59/59
f 158/158/158 104/104/104 57/57/57
f 50/50/50 160/160/160 168/168/168
f 95/95/95 158/158/158 57/57/57
f 158/158/158 95/95/95 63/63/63
f 104/104/104 158/158/158 63/63/63
f 154/154/154 51/51/51 96/96/96
f 167/167/167 111/111/111 106/106/106
f 33/33/33 106/106/106 111/111/111
f 107/107/107 33/33/33 171/171/171
f 167/167/167 132/132/132 28/28/28
f 64/64/64 89/89/89 21/21/21
f 105/105/105 33/33/33 111/111/111
f 71/71/71 128/128/128 126/126/126
f 105/105/105 111/111/111 108/108/108
f 147/147/147 54/54/54 166/166/166
f 74/74/74 108/108/108 8/8/8
f 58/58/58 166/166/166 54/54/54
f 74/74/74 105/105/105 108/108/108
f 26/26/26 126/126/126 128/128/128
f 134/134/134 164/164/164 166/166/166
f 11/11/11 144/144/144 107/107/107
f 43/43/43 107/107/107 171/171/171
f 144/144/144 155/155/155 153/153/153
f 144/144/144 153/153/153 106/106/106
f 144/144/144 106/106/106 107/107/107
f 113/113/113 112/112/112 31/31/31
f 159/159/159 87/87/87 40/40/40
f 38/38/38 94/94/94 141/141/141
f 148/148/148 101/101/101 46/46/46
f 103/103/103 25/25/25 131/131/131
f 65/65/65 141/141/141 94/94/94
f 74/74/74 139/139/139 105/105/105
f 8/8/8 108/108/108 128/128/128
f 7/7/7 99/99/99 88/88/88
f 6/6/6 85/85/85 91/91/91
f 125/125/125 62/62/62 9/9/9
f 79/79/79 133/133/133 118/118/118
f 102/102/102 35/35/35 100/100/100
f 80/80/80 34/34/34 104/104/104
f 40/40/40 86/86/86 88/88/88
f 150/150/150 60/60/60 5/5/5
f 148/148/148 46/46/46 87/87/87
f 59/59/59 91/91/91 85/85/85
f 117/117/117 9/9/9 62/62/62
f 67/67/67 88/88/88 86/86/86
f 56/56/56 122/122/122 40/40/40
f 159/159/159 155/155/155 148/148/148
f 122/122/122 159/159/159 40/40/40
f 159/159/159 148/148/148 87/87/87
f 148/148/148 155/155/155 11/11/11
f 148/148/148 11/11/11 101/101/101
f 159/159/159 97/97/97 173/173/173
f 159/159/159 173/173/173 155/155/155
f 56/56/56 40/40/40 88/88/88
f 30/30/30 117/117/117 136/136/136
f 56/56/56 88/88/88 99/99/99
f 90/90/90 48/48/48 39/39/39
f 7/7/7 70/70/70 99/99/99
f 67/67/67 7/7/7 88/88/88
f 19/19/19 67/67/67 86/86/86
f 68/68/68 19/19/19 142/142/142
f 73/73/73 102/102/102 100/100/100
f 59/59/59 85/85/85 83/83/83
f 172/172/172 4/4/4 102/102/102
f 73/73/73 172/172/172 102/102/102
f 16/16/16 73/73/73 100/100/100
f 79/79/79 124/124/124 133/133/133
f 142/142/142 35/35/35 68/68/68
f 91/91/91 59/59/59 39/39/39
f 42/42/42 112/112/112 115/115/115
f 28/28/28 128/128/128 52/52/52
f 131/131/131 25/25/25 13/13/13
f 60/60/60 63/63/63 174/174/174
f 161/161/161 174/174/174 63/63/63
f 126/126/126 17/17/17 71/71/71
f 132/132/132 26/26/26 28/28/28
f 128/128/128 71/71/71 8/8/8
f 125/125/125 78/78/78 27/27/27
f 167/167/167 28/28/28 52/52/52
f 26/26/26 128/128/128 28/28/28
f 115/115/115 75/75/75 30/30/30
f 117/117/117 30/30/30 75/75/75
f 95/95/95 170/170/170 49/49/49
f 100/100/100 35/35/35 43/43/43
f 103/103/103 131/131/131 29/29/29
f 35/35/35 142/142/142 101/101/101
f 101/101/101 43/43/43 35/35/35
f 13/13/13 25/25/25 127/127/127
f 149/149/149 126/126/126 26/26/26
f 149/149/149 26/26/26 127/127/127
f 51/51/51 127/127/127 132/132/132
f 118/118/118 133/133/133 14/14/14
f 27/27/27 133/133/133 124/124/124
f 79/79/79 13/13/13 124/124/124
f 163/163/163 132/132/132 167/167/167
f 132/132/132 127/127/127 26/26/26
f 167/167/167 52/52/52 111/111/111
f 163/163/163 167/167/167 81/81/81
f 63/63/63 95/95/95 161/161/161
f 146/146/146 163/163/163 81/81/81
f 150/150/150 5/5/5 146/146/146
f 96/96/96 160/160/160 50/50/50
f 50/50/50 168/168/168 32/32/32
f 161/161/161 164/164/164 174/174/174
f 96/96/96 5/5/5 160/160/160
f 134/134/134 174/174/174 164/164/164
f 124/124/124 154/154/154 61/61/61
f 12/12/12 42/42/42 116/116/116
f 123/123/123 50/50/50 32/32/32
f 96/96/96 50/50/50 61/61/61
f 15/15/15 115/115/115 112/112/112
f 77/77/77 118/118/118 14/14/14
f 154/154/154 127/127/127 51/51/51
f 162/162/162 146/146/146 5/5/5
f 51/51/51 132/132/132 163/163/163
f 85/85/85 41/41/41 83/83/83
f 154/154/154 96/96/96 61/61/61
f 154/154/154 13/13/13 127/127/127
f 124/124/124 13/13/13 154/154/154
f 149/149/149 127/127/127 44/44/44
f 25/25/25 44/44/44 127/127/127
f 10/10/10 93/93/93 90/90/90
f 123/123/123 61/61/61 50/50/50
f 29/29/29 119/119/119 135/135/135
f 72/72/72 135/135/135 119/119/119
f 137/137/137 31/31/31 47/47/47
f 9/9/9 117/117/117 75/75/75
f 146/146/146 110/110/110 80/80/80
f 48/48/48 90/90/90 93/93/93
f 14/14/14 133/133/133 78/78/78
f 39/39/39 89/89/89 91/91/91
f 168/168/168 174/174/174 134/134/134
f 150/150/150 146/146/146 80/80/80
f 77/77/77 130/130/130 23/23/23
f 119/119/119 23/23/23 130/130/130
