# frame 000973 
# time 0.487000 
# name Box 
v 0.719968 0.518024 -0.362751
v 0.718810 0.793590 -0.072817
v 0.720028 0.503658 0.202751
v 0.719968 0.518024 -0.362751
v 0.720028 0.503658 0.202751
v 0.721187 0.228092 -0.087183
v 0.319972 0.516342 -0.362751
v 0.321190 0.226410 -0.087183
v 0.320032 0.501976 0.202751
v 0.319972 0.516342 -0.362751
v 0.320032 0.501976 0.202751
v 0.318813 0.791908 -0.072817
v 0.719968 0.518024 -0.362751
v 0.319972 0.516342 -0.362751
v 0.318813 0.791908 -0.072817
v 0.719968 0.518024 -0.362751
v 0.318813 0.791908 -0.072817
v 0.718810 0.793590 -0.072817
v 0.718810 0.793590 -0.072817
v 0.318813 0.791908 -0.072817
v 0.320032 0.501976 0.202751
v 0.718810 0.793590 -0.072817
v 0.320032 0.501976 0.202751
v 0.720028 0.503658 0.202751
v 0.720028 0.503658 0.202751
v 0.320032 0.501976 0.202751
v 0.321190 0.226410 -0.087183
v 0.720028 0.503658 0.202751
v 0.321190 0.226410 -0.087183
v 0.721187 0.228092 -0.087183
v 0.319972 0.516342 -0.362751
v 0.719968 0.518024 -0.362751
v 0.721187 0.228092 -0.087183
v 0.319972 0.516342 -0.362751
v 0.721187 0.228092 -0.087183
v 0.321190 0.226410 -0.087183
vn 0.199998 0.000841 0.000000
vn 0.199998 0.000841 0.000000
vn 0.199998 0.000841 0.000000
vn 0.199998 0.000841 0.000000
vn 0.199998 0.000841 0.000000
vn 0.199998 0.000841 0.000000
vn -0.199998 -0.000841 0.000000
vn -0.199998 -0.000841 0.000000
vn -0.199998 -0.000841 0.000000
vn -0.199998 -0.000841 0.000000
vn -0.199998 -0.000841 0.000000
vn -0.199998 -0.000841 0.000000
vn -0.000609 0.144966 -0.137784
vn -0.000609 0.144966 -0.137784
vn -0.000609 0.144966 -0.137784
vn -0.000609 0.144966 -0.137784
vn -0.000609 0.144966 -0.137784
vn -0.000609 0.144966 -0.137784
vn -0.000579 0.137783 0.144967
vn -0.000579 0.137783 0.144967
vn -0.000579 0.137783 0.144967
vn -0.000579 0.137783 0.144967
vn -0.000579 0.137783 0.144967
vn -0.000579 0.137783 0.144967
vn 0.000609 -0.144966 0.137784
vn 0.000609 -0.144966 0.137784
vn 0.000609 -0.144966 0.137784
vn 0.000609 -0.144966 0.137784
vn 0.000609 -0.144966 0.137784
vn 0.000609 -0.144966 0.137784
vn 0.000579 -0.137783 -0.144967
vn 0.000579 -0.137783 -0.144967
vn 0.000579 -0.137783 -0.144967
vn 0.000579 -0.137783 -0.144967
vn 0.000579 -0.137783 -0.144967
vn 0.000579 -0.137783 -0.144967
f 1/1/1 2/2/2 3/3/3
f 4/4/4 5/5/5 6/6/6
f 7/7/7 8/8/8 9/9/9
f 10/10/10 11/11/11 12/12/12
f 13/13/13 14/14/14 15/15/15
f 16/16/16 17/17/17 18/18/18
f 19/19/19 20/20/20 21/21/21
f 22/22/22 23/23/23 24/24/24
f 25/25/25 26/26/26 27/27/27
f 28/28/28 29/29/29 30/30/30
f 31/31/31 32/32/32 33/33/33
f 34/34/34 35/35/35 36/36/36
