# frame 000919 
# time 0.460000 
# name Cloth3D 
v -0.000000 0.000000 -0.000000
v 1.000000 0.000000 -0.000000
v -0.000000 1.000000 0.000000
v 1.000000 1.000000 0.000000
v 0.654588 0.408789 0.171869
v -0.000000 0.500000 0.000000
v 0.500000 1.000000 0.000000
v 1.000000 0.500000 0.000000
v 0.500000 -0.000000 0.000000
v 0.247854 0.747748 0.067839
v 0.755644 0.749127 0.074522
v 0.243822 0.247727 0.082187
v 0.755220 0.248058 0.083927
v 0.750000 0.000000 0.000000
v 0.250000 0.000000 0.000000
v 1.000000 0.750000 0.000000
v 1.000000 0.250000 0.000000
v 0.250000 1.000000 0.000000
v 0.750000 1.000000 0.000000
v 0.000000 0.250000 0.000000
v 0.000000 0.750000 -0.000000
v 0.362026 0.218522 0.088101
v 0.875606 0.061444 0.016809
v 0.229954 0.513639 0.129872
v 0.817454 0.248615 0.066447
v 0.883298 0.374199 0.064770
v 0.625821 0.124633 0.049679
v 0.886041 0.436422 0.072979
v 0.876161 0.124428 0.025969
v 0.373937 0.123581 0.051517
v 0.124172 0.125025 0.021657
v 0.491951 0.250700 0.102673
v 0.881344 0.624225 0.059728
v 0.632435 0.621175 0.132491
v 0.877523 0.876522 0.032265
v 0.375501 0.872974 0.040017
v 0.254831 0.595722 0.107604
v 0.124806 0.874213 0.021355
v 0.120139 0.622885 0.053508
v 0.626130 0.872226 0.038140
v 0.116309 0.373699 0.063573
v 0.248785 0.124813 0.038603
v 0.881932 0.750993 0.053459
v 0.877344 0.250019 0.042320
v 0.250157 0.873517 0.033336
v 0.751751 0.875585 0.041157
v 0.119911 0.248769 0.047509
v 0.121994 0.748864 0.042867
v 0.317654 0.589084 0.131125
v 0.585869 0.303190 0.126839
v 0.749277 0.362498 0.128608
v 0.885183 0.498931 0.072313
v 0.436039 0.768224 0.078015
v 0.229743 0.452966 0.137859
v 0.000000 0.375000 0.000000
v 0.500873 0.873185 0.043769
v 0.500954 0.621113 0.138509
v 0.236835 0.371900 0.120385
v 0.114391 0.498628 0.069178
v 0.360813 0.495858 0.182948
v 0.628637 0.249020 0.100963
v 0.499802 0.125259 0.050630
v 0.496728 0.464905 0.198997
v 0.000000 0.625000 0.000000
v 0.000000 0.875000 0.000000
v 0.000000 0.125000 0.000000
v 0.625000 1.000000 0.000000
v 0.875000 1.000000 0.000000
v 0.125000 1.000000 0.000000
v 0.375000 1.000000 0.000000
v 1.000000 0.375000 0.000000
v 1.000000 0.125000 0.000000
v 1.000000 0.875000 0.000000
v 1.000000 0.625000 0.000000
v 0.375000 0.000000 0.000000
v 0.125000 0.000000 0.000000
v 0.875000 0.000000 0.000000
v 0.625000 0.000000 0.000000
v 0.751238 0.123487 0.043515
v 0.639742 0.496144 0.186862
v 0.780159 0.514595 0.140529
v 0.059683 0.312360 0.026770
v 0.173194 0.435275 0.102624
v 0.178122 0.309947 0.082481
v 0.056161 0.436913 0.036324
v 0.687957 0.936387 0.018241
v 0.690291 0.810591 0.059222
v 0.562934 0.936621 0.021443
v 0.060229 0.686443 0.025245
v 0.183801 0.684860 0.065325
v 0.058777 0.561380 0.030513
v 0.187843 0.937040 0.014813
v 0.186088 0.811477 0.044451
v 0.062863 0.936989 0.004260
v 0.432911 0.558556 0.162374
v 0.682272 0.356753 0.141844
v 0.508196 0.719946 0.094441
v 0.312003 0.810765 0.058731
v 0.437936 0.937141 0.022978
v 0.940927 0.813127 0.025115
v 0.816829 0.813667 0.053806
v 0.938222 0.938085 0.011070
v 0.875690 0.187571 0.030961
v 0.568606 0.558910 0.163694
v 0.939592 0.624378 0.027751
v 0.830667 0.590356 0.092963
v 0.821991 0.688139 0.082889
v 0.939039 0.561457 0.028585
v 0.316251 0.697731 0.093450
v 0.695376 0.581095 0.143626
v 0.881868 0.561155 0.063999
v 0.187613 0.062943 0.013506
v 0.062338 0.062387 0.007949
v 0.184180 0.186166 0.049861
v 0.312312 0.062644 0.021328
v 0.310056 0.187255 0.066173
v 0.437255 0.062016 0.026336
v 0.812679 0.061968 0.018093
v 0.937958 0.062138 0.010243
v -0.000000 0.937500 0.000000
v 0.937500 1.000000 0.000000
v 0.526378 0.800866 0.067389
v 0.563429 0.188399 0.074185
v 0.690391 0.184449 0.075524
v 0.562508 0.062523 0.025333
v 0.939595 0.312738 0.026087
v 0.820556 0.311053 0.082356
v 0.944339 0.437136 0.038469
v 0.313005 0.936160 0.017005
v 0.937500 0.000000 -0.000000
v 0.815672 0.185809 0.053126
v 0.814528 0.369505 0.105726
v 0.687695 0.060698 0.027104
v 0.392783 0.375594 0.152986
v 0.938480 0.187629 0.018314
v 0.436211 0.186627 0.078021
v 0.061039 0.187491 0.017759
v 0.379616 0.765406 0.076530
v 0.938950 0.687188 0.024492
v 0.371387 0.316996 0.126600
v 0.061533 0.811803 0.017778
v 0.813212 0.937939 0.018386
v 0.178143 0.559827 0.089223
v 0.776339 0.648244 0.103412
v 0.318292 0.528721 0.158813
v 0.720129 0.465710 0.199110
v 0.320336 0.464028 0.199112
v 0.722574 0.769460 0.067715
v 0.880181 0.311990 0.053981
v 0.621535 0.465401 0.199027
v 0.246778 0.186573 0.059180
v 0.286961 0.329594 0.120910
v 0.723975 0.605921 0.130879
v 0.721970 0.297632 0.113073
v 0.675154 0.665439 0.109980
v 0.325226 0.274859 0.104260
v 0.276886 0.653187 0.098079
v 0.723414 0.539389 0.156409
v 0.614511 0.767216 0.075724
v 0.602811 0.365335 0.152326
v 0.413890 0.464558 0.198996
v 0.114107 0.436104 0.069930
v 0.778909 0.451941 0.146401
v 0.124880 0.062688 0.010070
v 0.415357 0.255566 0.105864
v 0.306878 0.386037 0.150507
v 0.828340 0.479989 0.111466
v 0.476237 0.361344 0.149987
v 0.181755 0.621928 0.076110
v 0.412362 0.659249 0.123720
v 0.880750 0.687597 0.054408
v 1.000000 0.937500 0.000000
v 0.591487 0.671863 0.114734
v 0.175980 0.372639 0.092903
v 0.521550 0.410141 0.173415
v 0.819368 0.750749 0.067455
vt 0.000000 0.000000
vt 1.000000 0.000000
vt 0.000000 1.000000
vt 1.000000 1.000000
vt 0.639940 0.411013
vt 0.000000 0.500000
vt 0.500000 1.000000
vt 1.000000 0.500000
vt 0.500000 0.000000
vt 0.250000 0.750000
vt 0.750000 0.750000
vt 0.250000 0.250000
vt 0.750000 0.250000
vt 0.750000 0.000000
vt 0.250000 0.000000
vt 1.000000 0.750000
vt 1.000000 0.250000
vt 0.250000 1.000000
vt 0.750000 1.000000
vt 0.000000 0.250000
vt 0.000000 0.750000
vt 0.365347 0.220303
vt 0.875000 0.062500
vt 0.245672 0.515386
vt 0.812500 0.250000
vt 0.875000 0.375000
vt 0.625000 0.125000
vt 0.875000 0.437500
vt 0.875000 0.125000
vt 0.375000 0.125000
vt 0.125000 0.125000
vt 0.492214 0.250470
vt 0.875000 0.625000
vt 0.625000 0.625000
vt 0.875000 0.875000
vt 0.375000 0.875000
vt 0.262101 0.599801
vt 0.125000 0.875000
vt 0.125000 0.625000
vt 0.625000 0.875000
vt 0.125000 0.375000
vt 0.250000 0.125000
vt 0.875000 0.750000
vt 0.875000 0.250000
vt 0.250000 0.875000
vt 0.750000 0.875000
vt 0.125000 0.250000
vt 0.125000 0.750000
vt 0.325445 0.593646
vt 0.581754 0.304126
vt 0.736041 0.365469
vt 0.875000 0.500000
vt 0.435664 0.771773
vt 0.248222 0.455442
vt 0.000000 0.375000
vt 0.500000 0.875000
vt 0.500000 0.625000
vt 0.250000 0.375000
vt 0.125000 0.500000
vt 0.375000 0.500000
vt 0.625000 0.250000
vt 0.500000 0.125000
vt 0.497246 0.468724
vt 0.000000 0.625000
vt 0.000000 0.875000
vt 0.000000 0.125000
vt 0.625000 1.000000
vt 0.875000 1.000000
vt 0.125000 1.000000
vt 0.375000 1.000000
vt 1.000000 0.375000
vt 1.000000 0.125000
vt 1.000000 0.875000
vt 1.000000 0.625000
vt 0.375000 0.000000
vt 0.125000 0.000000
vt 0.875000 0.000000
vt 0.625000 0.000000
vt 0.750000 0.125000
vt 0.625000 0.500000
vt 0.760524 0.515669
vt 0.062500 0.312500
vt 0.187500 0.437500
vt 0.187500 0.312500
vt 0.062500 0.437500
vt 0.687500 0.937500
vt 0.687500 0.812500
vt 0.562500 0.937500
vt 0.062500 0.687500
vt 0.187500 0.687500
vt 0.062500 0.562500
vt 0.187500 0.937500
vt 0.187500 0.812500
vt 0.062500 0.937500
vt 0.437500 0.562500
vt 0.671367 0.358455
vt 0.506884 0.725192
vt 0.312500 0.812500
vt 0.437500 0.937500
vt 0.937500 0.812500
vt 0.812500 0.812500
vt 0.937500 0.937500
vt 0.875000 0.187500
vt 0.562500 0.562500
vt 0.937500 0.625000
vt 0.819332 0.591237
vt 0.812500 0.687500
vt 0.937500 0.562500
vt 0.319123 0.700934
vt 0.682510 0.583771
vt 0.875000 0.562500
vt 0.187500 0.062500
vt 0.062500 0.062500
vt 0.187500 0.187500
vt 0.312500 0.062500
vt 0.312500 0.187500
vt 0.437500 0.062500
vt 0.812500 0.062500
vt 0.937500 0.062500
vt 0.000000 0.937500
vt 0.937500 1.000000
vt 0.525016 0.804189
vt 0.562500 0.187500
vt 0.687500 0.187500
vt 0.562500 0.062500
vt 0.937500 0.312500
vt 0.812500 0.312500
vt 0.937500 0.437500
vt 0.312500 0.937500
vt 0.937500 0.000000
vt 0.812500 0.187500
vt 0.800716 0.372483
vt 0.687500 0.062500
vt 0.400647 0.375957
vt 0.937500 0.187500
vt 0.437500 0.187500
vt 0.062500 0.187500
vt 0.380019 0.768564
vt 0.937500 0.687500
vt 0.377625 0.317694
vt 0.062500 0.812500
vt 0.812500 0.937500
vt 0.187500 0.562500
vt 0.765906 0.648544
vt 0.331404 0.533038
vt 0.691837 0.469014
vt 0.342890 0.467406
vt 0.718294 0.771897
vt 0.875000 0.312500
vt 0.608493 0.469109
vt 0.250000 0.187500
vt 0.296906 0.332149
vt 0.711873 0.607167
vt 0.713437 0.300753
vt 0.668274 0.669022
vt 0.331126 0.276226
vt 0.281585 0.657008
vt 0.705472 0.541710
vt 0.611736 0.771102
vt 0.595175 0.366343
vt 0.423281 0.468008
vt 0.125000 0.437500
vt 0.758105 0.454518
vt 0.125000 0.062500
vt 0.418341 0.256674
vt 0.320334 0.388669
vt 0.812755 0.481587
vt 0.477835 0.361491
vt 0.187500 0.625000
vt 0.414679 0.661630
vt 0.875000 0.687500
vt 1.000000 0.937500
vt 0.587160 0.675778
vt 0.187500 0.375000
vt 0.519707 0.411902
vt 0.812500 0.750000
vn -0.061207 -0.061207 0.996247
vn 0.056168 -0.112336 0.992081
vn -0.041745 0.020873 0.998910
vn 0.092199 0.092199 0.991463
vn 0.033703 -0.453141 0.890802
vn -0.509055 0.023389 0.860416
vn 0.008024 0.330094 0.943914
vn 0.513453 0.039756 0.857196
vn 0.004409 -0.380495 0.924773
vn -0.169895 0.234358 0.957190
vn 0.052175 0.299697 0.952607
vn -0.168379 -0.336254 0.926597
vn 0.257422 -0.293715 0.920579
vn 0.033192 -0.348477 0.936729
vn -0.030328 -0.280051 0.959506
vn 0.383339 -0.006220 0.923587
vn 0.343006 -0.028551 0.938899
vn -0.008410 0.237302 0.971399
vn -0.002993 0.275055 0.961424
vn -0.345522 -0.036221 0.937711
vn -0.328521 0.032035 0.943953
vn -0.102666 -0.361995 0.926509
vn 0.062507 -0.208184 0.976090
vn -0.451695 0.242385 0.858616
vn 0.316382 -0.222147 0.922254
vn 0.480391 -0.157882 0.862727
vn -0.022869 -0.363600 0.931274
vn 0.521340 -0.058741 0.851325
vn 0.170717 -0.129977 0.976710
vn -0.060469 -0.367370 0.928107
vn -0.127216 -0.184769 0.974514
vn 0.010795 -0.389719 0.920871
vn 0.478166 0.075327 0.875033
vn 0.079245 0.391000 0.916973
vn 0.138870 0.204442 0.968978
vn -0.043640 0.305282 0.951262
vn -0.316130 0.297451 0.900880
vn -0.133622 0.171309 0.976114
vn -0.356197 0.124548 0.926073
vn 0.014268 0.305540 0.952073
vn -0.453008 -0.118397 0.883609
vn -0.101442 -0.307962 0.945975
vn 0.331874 0.101253 0.937874
vn 0.354213 -0.173541 0.918921
vn -0.066454 0.268862 0.960884
vn 0.014966 0.290578 0.956734
vn -0.338459 -0.167171 0.926013
vn -0.254420 0.122892 0.959254
vn -0.242796 0.354774 0.902876
vn 0.029647 -0.396980 0.917348
vn 0.304063 -0.350940 0.885656
vn 0.535644 0.081875 0.840466
vn -0.017835 0.346906 0.937730
vn -0.510355 -0.059247 0.857920
vn -0.479130 -0.038785 0.876886
vn 0.011402 0.309316 0.950891
vn 0.008326 0.383623 0.923452
vn -0.357919 -0.253495 0.898685
vn -0.483234 0.071770 0.872544
vn -0.065347 0.469775 0.880364
vn 0.028105 -0.382733 0.923431
vn 0.021334 -0.372745 0.927688
vn -0.000463 -0.109881 0.993945
vn -0.425351 0.021098 0.904783
vn -0.144936 0.041907 0.988553
vn -0.200439 -0.039808 0.978897
vn 0.012332 0.292675 0.956133
vn 0.020037 0.230456 0.972876
vn -0.040528 0.142187 0.989010
vn -0.024643 0.298991 0.953938
vn 0.483113 -0.050611 0.874094
vn 0.229479 -0.031467 0.972805
vn 0.270376 0.044532 0.961724
vn 0.404504 0.021061 0.914294
vn -0.017209 -0.370012 0.928867
vn -0.028817 -0.159419 0.986790
vn 0.034866 -0.242926 0.969418
vn -0.009975 -0.390383 0.920598
vn 0.117928 -0.318234 0.940649
vn 0.022359 0.381104 0.924262
vn 0.520194 0.203592 0.829427
vn -0.422539 -0.070716 0.903582
vn -0.475935 -0.094928 0.874343
vn -0.361027 -0.201728 0.910475
vn -0.509546 -0.028108 0.859984
vn -0.002586 0.298636 0.954364
vn 0.029729 0.266478 0.963382
vn 0.021349 0.304560 0.952254
vn -0.366918 0.049647 0.928927
vn -0.260209 0.161816 0.951896
vn -0.455070 0.058507 0.888532
vn -0.047230 0.207141 0.977170
vn -0.141477 0.216259 0.966031
vn -0.074281 0.066713 0.995003
vn -0.061948 0.372679 0.925890
vn 0.119620 -0.421856 0.898737
vn 0.015366 0.362011 0.932047
vn -0.077148 0.298377 0.951325
vn -0.015957 0.310567 0.950417
vn 0.336001 0.067470 0.939442
vn 0.109687 0.224604 0.968257
vn 0.116575 0.122517 0.985596
vn 0.277614 -0.127022 0.952258
vn 0.020383 0.379272 0.925061
vn 0.452513 0.036479 0.891011
vn 0.463139 0.135620 0.875848
vn 0.289844 0.172284 0.941439
vn 0.486886 0.055333 0.871711
vn -0.167389 0.297553 0.939916
vn 0.095162 0.369348 0.924406
vn 0.515906 0.096957 0.851141
vn -0.066501 -0.223285 0.972482
vn -0.071929 -0.107174 0.991635
vn -0.181942 -0.286012 0.940795
vn -0.050365 -0.340948 0.938732
vn -0.128810 -0.352911 0.926748
vn 0.005321 -0.381993 0.924150
vn 0.047828 -0.263205 0.963554
vn 0.098957 -0.136527 0.985682
vn -0.062613 -0.000000 0.998038
vn 0.000000 0.182644 0.983179
vn 0.019397 0.316605 0.948359
vn 0.004367 -0.386089 0.922451
vn 0.079404 -0.349965 0.933391
vn -0.002440 -0.369064 0.929401
vn 0.414703 -0.104043 0.903989
vn 0.383725 -0.256256 0.887180
vn 0.523424 -0.035387 0.851337
vn -0.030145 0.273675 0.961350
vn 0.000000 -0.167365 0.985895
vn 0.269945 -0.209248 0.939864
vn 0.441197 -0.249195 0.862118
vn 0.021393 -0.369826 0.928855
vn -0.049399 -0.427193 0.902810
vn 0.246025 -0.074293 0.966412
vn -0.001665 -0.375545 0.926803
vn -0.267466 -0.090354 0.959322
vn -0.060580 0.336570 0.939708
vn 0.431671 0.023822 0.901717
vn -0.084042 -0.382845 0.919982
vn -0.246084 0.084849 0.965528
vn 0.021989 0.283181 0.958815
vn -0.379168 0.230857 0.896067
vn 0.248130 0.234776 0.939847
vn -0.209577 0.455984 0.864960
vn 0.303114 0.049174 0.951685
vn -0.189797 0.176895 0.965756
vn 0.028360 0.300291 0.953426
vn 0.425502 -0.181599 0.886549
vn 0.001001 0.060924 0.998142
vn -0.116728 -0.337410 0.934093
vn -0.205234 -0.364397 0.908347
vn 0.154454 0.354234 0.922313
vn 0.216029 -0.343468 0.913981
vn 0.086419 0.375803 0.922661
vn -0.116212 -0.364653 0.923863
vn -0.259120 0.267019 0.928201
vn 0.244190 0.394254 0.885966
vn 0.038309 0.332470 0.942335
vn 0.036553 -0.421344 0.906164
vn -0.021296 0.060989 0.997911
vn -0.489379 -0.053613 0.870422
vn 0.594030 -0.074314 0.801003
vn -0.043605 -0.165555 0.985236
vn -0.037747 -0.369009 0.928659
vn -0.239284 -0.397610 0.885804
vn 0.560314 0.032017 0.827661
vn -0.018442 -0.414592 0.909820
vn -0.311228 0.202836 0.928437
vn -0.071069 0.362772 0.929164
vn 0.442837 0.040197 0.895700
vn 0.183058 0.000000 0.983102
vn 0.047538 0.385882 0.921322
vn -0.430528 -0.157431 0.888741
vn -0.000266 -0.427747 0.903898
vn 0.153334 0.225077 0.962200
f 1/1/1 113/113/113 66/66/66
f 31/31/31 137/137/137 113/113/113
f 109/109/109 157/157/157 49/49/49
f 76/76/76 112/112/112 164/164/164
f 84/84/84 174/174/174 41/41/41
f 112/112/112 114/114/114 31/31/31
f 114/114/114 47/47/47 31/31/31
f 84/84/84 152/152/152 58/58/58
f 137/137/137 66/66/66 113/113/113
f 164/164/164 112/112/112 31/31/31
f 150/150/150 104/104/104 63/63/63
f 12/12/12 114/114/114 151/151/151
f 170/170/170 109/109/109 49/49/49
f 164/164/164 31/31/31 113/113/113
f 42/42/42 114/114/114 112/112/112
f 76/76/76 113/113/113 1/1/1
f 76/76/76 164/164/164 113/113/113
f 15/15/15 112/112/112 76/76/76
f 115/115/115 15/15/15 75/75/75
f 176/176/176 101/101/101 11/11/11
f 175/175/175 150/150/150 63/63/63
f 125/125/125 62/62/62 117/117/117
f 22/22/22 30/30/30 136/136/136
f 107/107/107 176/176/176 11/11/11
f 32/32/32 165/165/165 136/136/136
f 22/22/22 136/136/136 165/165/165
f 12/12/12 151/151/151 116/116/116
f 151/151/151 42/42/42 116/116/116
f 151/151/151 114/114/114 42/42/42
f 116/116/116 30/30/30 22/22/22
f 63/63/63 104/104/104 95/95/95
f 150/150/150 175/175/175 160/160/160
f 156/156/156 116/116/116 22/22/22
f 156/156/156 152/152/152 12/12/12
f 156/156/156 12/12/12 116/116/116
f 147/147/147 134/134/134 161/161/161
f 168/168/168 165/165/165 32/32/32
f 170/170/170 138/138/138 109/109/109
f 156/156/156 22/22/22 165/165/165
f 140/140/140 165/165/165 168/168/168
f 174/174/174 162/162/162 41/41/41
f 82/82/82 137/137/137 47/47/47
f 150/150/150 146/146/146 80/80/80
f 101/101/101 176/176/176 43/43/43
f 134/134/134 140/140/140 168/168/168
f 140/140/140 152/152/152 156/156/156
f 140/140/140 156/156/156 165/165/165
f 69/69/69 94/94/94 92/92/92
f 152/152/152 166/166/166 58/58/58
f 167/167/167 106/106/106 81/81/81
f 104/104/104 80/80/80 34/34/34
f 170/170/170 53/53/53 138/138/138
f 161/161/161 134/134/134 168/168/168
f 45/45/45 98/98/98 36/36/36
f 134/134/134 166/166/166 140/140/140
f 174/174/174 83/83/83 162/162/162
f 38/38/38 92/92/92 94/94/94
f 99/99/99 36/36/36 56/56/56
f 83/83/83 58/58/58 54/54/54
f 23/23/23 29/29/29 118/118/118
f 174/174/174 58/58/58 83/83/83
f 85/85/85 41/41/41 162/162/162
f 84/84/84 12/12/12 152/152/152
f 84/84/84 58/58/58 174/174/174
f 47/47/47 114/114/114 84/84/84
f 84/84/84 114/114/114 12/12/12
f 47/47/47 84/84/84 41/41/41
f 82/82/82 47/47/47 41/41/41
f 36/36/36 99/99/99 129/129/129
f 20/20/20 137/137/137 82/82/82
f 70/70/70 129/129/129 99/99/99
f 20/20/20 66/66/66 137/137/137
f 55/55/55 20/20/20 82/82/82
f 98/98/98 138/138/138 36/36/36
f 171/171/171 33/33/33 139/139/139
f 102/102/102 68/68/68 35/35/35
f 94/94/94 69/69/69 3/3/3
f 130/130/130 2/2/2 119/119/119
f 2/2/2 72/72/72 119/119/119
f 53/53/53 56/56/56 36/36/36
f 92/92/92 18/18/18 69/69/69
f 21/21/21 141/141/141 65/65/65
f 139/139/139 43/43/43 171/171/171
f 62/62/62 136/136/136 117/117/117
f 122/122/122 53/53/53 97/97/97
f 60/60/60 95/95/95 145/145/145
f 122/122/122 97/97/97 159/159/159
f 135/135/135 126/126/126 44/44/44
f 109/109/109 98/98/98 10/10/10
f 89/89/89 39/39/39 48/48/48
f 152/152/152 140/140/140 166/166/166
f 129/129/129 45/45/45 36/36/36
f 48/48/48 38/38/38 141/141/141
f 123/123/123 32/32/32 62/62/62
f 130/130/130 119/119/119 77/77/77
f 135/135/135 17/17/17 126/126/126
f 136/136/136 62/62/62 32/32/32
f 41/41/41 85/85/85 82/82/82
f 93/93/93 45/45/45 38/38/38
f 129/129/129 70/70/70 18/18/18
f 55/55/55 82/82/82 85/85/85
f 53/53/53 36/36/36 138/138/138
f 92/92/92 38/38/38 45/45/45
f 145/145/145 24/24/24 147/147/147
f 18/18/18 92/92/92 129/129/129
f 29/29/29 23/23/23 119/119/119
f 48/48/48 141/141/141 89/89/89
f 45/45/45 129/129/129 92/92/92
f 21/21/21 89/89/89 141/141/141
f 6/6/6 91/91/91 64/64/64
f 105/105/105 139/139/139 33/33/33
f 149/149/149 44/44/44 126/126/126
f 85/85/85 59/59/59 6/6/6
f 93/93/93 38/38/38 48/48/48
f 39/39/39 169/169/169 90/90/90
f 37/37/37 24/24/24 145/145/145
f 24/24/24 59/59/59 83/83/83
f 120/120/120 65/65/65 94/94/94
f 54/54/54 147/147/147 24/24/24
f 77/77/77 23/23/23 118/118/118
f 37/37/37 145/145/145 49/49/49
f 157/157/157 90/90/90 169/169/169
f 123/123/123 27/27/27 61/61/61
f 124/124/124 61/61/61 27/27/27
f 59/59/59 85/85/85 162/162/162
f 16/16/16 100/100/100 139/139/139
f 56/56/56 53/53/53 122/122/122
f 6/6/6 55/55/55 85/85/85
f 59/59/59 162/162/162 83/83/83
f 24/24/24 83/83/83 54/54/54
f 24/24/24 143/143/143 59/59/59
f 143/143/143 169/169/169 39/39/39
f 3/3/3 120/120/120 94/94/94
f 79/79/79 118/118/118 131/131/131
f 60/60/60 147/147/147 161/161/161
f 29/29/29 131/131/131 118/118/118
f 157/157/157 169/169/169 37/37/37
f 135/135/135 103/103/103 29/29/29
f 95/95/95 49/49/49 145/145/145
f 135/135/135 72/72/72 17/17/17
f 37/37/37 169/169/169 143/143/143
f 37/37/37 143/143/143 24/24/24
f 157/157/157 37/37/37 49/49/49
f 157/157/157 10/10/10 90/90/90
f 109/109/109 138/138/138 98/98/98
f 109/109/109 10/10/10 157/157/157
f 135/135/135 44/44/44 103/103/103
f 170/170/170 97/97/97 53/53/53
f 27/27/27 123/123/123 125/125/125
f 62/62/62 125/125/125 123/123/123
f 60/60/60 145/145/145 147/147/147
f 60/60/60 161/161/161 95/95/95
f 110/110/110 34/34/34 80/80/80
f 121/121/121 68/68/68 102/102/102
f 173/173/173 57/57/57 104/104/104
f 40/40/40 46/46/46 86/86/86
f 57/57/57 97/97/97 170/170/170
f 57/57/57 170/170/170 95/95/95
f 78/78/78 125/125/125 9/9/9
f 131/131/131 13/13/13 79/79/79
f 74/74/74 16/16/16 139/139/139
f 110/110/110 155/155/155 34/34/34
f 87/87/87 46/46/46 40/40/40
f 147/147/147 166/166/166 134/134/134
f 110/110/110 153/153/153 155/155/155
f 108/108/108 111/111/111 52/52/52
f 173/173/173 97/97/97 57/57/57
f 34/34/34 173/173/173 104/104/104
f 4/4/4 121/121/121 102/102/102
f 107/107/107 106/106/106 33/33/33
f 11/11/11 155/155/155 144/144/144
f 155/155/155 173/173/173 34/34/34
f 64/64/64 91/91/91 89/89/89
f 106/106/106 153/153/153 81/81/81
f 26/26/26 126/126/126 128/128/128
f 158/158/158 153/153/153 110/110/110
f 50/50/50 160/160/160 168/168/168
f 146/146/146 158/158/158 80/80/80
f 81/81/81 153/153/153 158/158/158
f 158/158/158 110/110/110 80/80/80
f 154/154/154 51/51/51 96/96/96
f 167/167/167 111/111/111 106/106/106
f 33/33/33 106/106/106 111/111/111
f 107/107/107 33/33/33 171/171/171
f 167/167/167 132/132/132 28/28/28
f 64/64/64 89/89/89 21/21/21
f 105/105/105 33/33/33 111/111/111
f 45/45/45 93/93/93 98/98/98
f 105/105/105 111/111/111 108/108/108
f 147/147/147 54/54/54 166/166/166
f 74/74/74 108/108/108 8/8/8
f 58/58/58 166/166/166 54/54/54
f 74/74/74 105/105/105 108/108/108
f 93/93/93 10/10/10 98/98/98
f 63/63/63 161/161/161 175/175/175
f 11/11/11 144/144/144 107/107/107
f 43/43/43 107/107/107 171/171/171
f 144/144/144 155/155/155 153/153/153
f 144/144/144 153/153/153 106/106/106
f 144/144/144 106/106/106 107/107/107
f 168/168/168 175/175/175 161/161/161
f 159/159/159 87/87/87 40/40/40
f 38/38/38 94/94/94 141/141/141
f 148/148/148 101/101/101 46/46/46
f 103/103/103 25/25/25 131/131/131
f 65/65/65 141/141/141 94/94/94
f 74/74/74 139/139/139 105/105/105
f 90/90/90 10/10/10 48/48/48
f 7/7/7 99/99/99 88/88/88
f 59/59/59 143/143/143 91/91/91
f 86/86/86 46/46/46 142/142/142
f 79/79/79 133/133/133 118/118/118
f 102/102/102 35/35/35 100/100/100
f 150/150/150 80/80/80 104/104/104
f 40/40/40 86/86/86 88/88/88
f 57/57/57 95/95/95 104/104/104
f 148/148/148 46/46/46 87/87/87
f 39/39/39 91/91/91 143/143/143
f 19/19/19 86/86/86 142/142/142
f 67/67/67 88/88/88 86/86/86
f 56/56/56 122/122/122 40/40/40
f 159/159/159 155/155/155 148/148/148
f 122/122/122 159/159/159 40/40/40
f 159/159/159 148/148/148 87/87/87
f 148/148/148 155/155/155 11/11/11
f 148/148/148 11/11/11 101/101/101
f 159/159/159 97/97/97 173/173/173
f 159/159/159 173/173/173 155/155/155
f 56/56/56 40/40/40 88/88/88
f 30/30/30 117/117/117 136/136/136
f 56/56/56 88/88/88 99/99/99
f 90/90/90 48/48/48 39/39/39
f 7/7/7 70/70/70 99/99/99
f 67/67/67 7/7/7 88/88/88
f 19/19/19 67/67/67 86/86/86
f 68/68/68 19/19/19 142/142/142
f 73/73/73 102/102/102 100/100/100
f 5/5/5 96/96/96 146/146/146
f 172/172/172 4/4/4 102/102/102
f 73/73/73 172/172/172 102/102/102
f 16/16/16 73/73/73 100/100/100
f 79/79/79 124/124/124 133/133/133
f 142/142/142 35/35/35 68/68/68
f 51/51/51 163/163/163 146/146/146
f 115/115/115 30/30/30 42/42/42
f 28/28/28 128/128/128 52/52/52
f 131/131/131 25/25/25 13/13/13
f 101/101/101 35/35/35 46/46/46
f 142/142/142 46/46/46 35/35/35
f 126/126/126 17/17/17 71/71/71
f 132/132/132 26/26/26 28/28/28
f 128/128/128 71/71/71 8/8/8
f 23/23/23 77/77/77 119/119/119
f 167/167/167 28/28/28 52/52/52
f 26/26/26 128/128/128 28/28/28
f 115/115/115 75/75/75 30/30/30
f 117/117/117 30/30/30 75/75/75
f 95/95/95 170/170/170 49/49/49
f 100/100/100 35/35/35 43/43/43
f 103/103/103 131/131/131 29/29/29
f 91/91/91 6/6/6 59/59/59
f 101/101/101 43/43/43 35/35/35
f 13/13/13 25/25/25 127/127/127
f 149/149/149 126/126/126 26/26/26
f 149/149/149 26/26/26 127/127/127
f 51/51/51 127/127/127 132/132/132
f 118/118/118 133/133/133 14/14/14
f 27/27/27 133/133/133 124/124/124
f 79/79/79 13/13/13 124/124/124
f 163/163/163 132/132/132 167/167/167
f 132/132/132 127/127/127 26/26/26
f 167/167/167 52/52/52 111/111/111
f 163/163/163 167/167/167 81/81/81
f 146/146/146 81/81/81 158/158/158
f 146/146/146 163/163/163 81/81/81
f 150/150/150 5/5/5 146/146/146
f 96/96/96 160/160/160 50/50/50
f 50/50/50 168/168/168 32/32/32
f 128/128/128 8/8/8 52/52/52
f 96/96/96 5/5/5 160/160/160
f 108/108/108 52/52/52 8/8/8
f 124/124/124 154/154/154 61/61/61
f 5/5/5 150/150/150 160/160/160
f 123/123/123 50/50/50 32/32/32
f 96/96/96 50/50/50 61/61/61
f 116/116/116 42/42/42 30/30/30
f 77/77/77 118/118/118 14/14/14
f 154/154/154 127/127/127 51/51/51
f 71/71/71 128/128/128 126/126/126
f 51/51/51 132/132/132 163/163/163
f 51/51/51 146/146/146 96/96/96
f 154/154/154 96/96/96 61/61/61
f 154/154/154 13/13/13 127/127/127
f 124/124/124 13/13/13 154/154/154
f 149/149/149 127/127/127 44/44/44
f 25/25/25 44/44/44 127/127/127
f 125/125/125 133/133/133 27/27/27
f 123/123/123 61/61/61 50/50/50
f 29/29/29 119/119/119 135/135/135
f 72/72/72 135/135/135 119/119/119
f 137/137/137 31/31/31 47/47/47
f 9/9/9 117/117/117 75/75/75
f 9/9/9 125/125/125 117/117/117
f 78/78/78 133/133/133 125/125/125
f 14/14/14 133/133/133 78/78/78
f 39/39/39 89/89/89 91/91/91
f 103/103/103 44/44/44 25/25/25
f 93/93/93 48/48/48 10/10/10
f 139/139/139 100/100/100 43/43/43
f 176/176/176 107/107/107 43/43/43
f 175/175/175 168/168/168 160/160/160
f 63/63/63 95/95/95 161/161/161
f 115/115/115 42/42/42 15/15/15
f 112/112/112 15/15/15 42/42/42
