# frame 000988 
# time 0.494500 
# name Cloth3D 
v -0.000000 0.000000 -0.000000
v 1.000000 0.000000 -0.000000
v -0.000000 1.000000 0.000000
v 1.000000 1.000000 0.000000
v 0.651547 0.413035 0.153064
v -0.000000 0.500000 0.000000
v 0.500000 1.000000 0.000000
v 1.000000 0.500000 0.000000
v 0.500000 -0.000000 0.000000
v 0.244557 0.753352 0.087521
v 0.754313 0.750333 0.078140
v 0.246782 0.249306 0.073066
v 0.752046 0.254017 0.061919
v 0.750000 0.000000 0.000000
v 0.250000 0.000000 0.000000
v 1.000000 0.750000 0.000000
v 1.000000 0.250000 0.000000
v 0.250000 1.000000 0.000000
v 0.750000 1.000000 0.000000
v 0.000000 0.250000 0.000000
v 0.000000 0.750000 -0.000000
v 0.363724 0.219714 0.080117
v 0.061695 0.875663 0.014998
v 0.227294 0.516076 0.139099
v 0.815006 0.252755 0.050568
v 0.883621 0.375996 0.061707
v 0.624994 0.125799 0.043330
v 0.889259 0.437339 0.075815
v 0.873934 0.127853 0.007404
v 0.374690 0.124877 0.045171
v 0.124449 0.124464 0.023128
v 0.492319 0.251021 0.096509
v 0.882805 0.624813 0.062921
v 0.634809 0.625385 0.153923
v 0.873667 0.873198 0.012387
v 0.373941 0.880178 0.061469
v 0.249893 0.600923 0.129117
v 0.123648 0.876834 0.029474
v 0.115371 0.625919 0.067976
v 0.626007 0.878687 0.058032
v 0.122005 0.376113 0.050851
v 0.249042 0.122993 0.042019
v 0.876645 0.748950 0.039180
v 0.877792 0.251385 0.038119
v 0.247803 0.880191 0.054366
v 0.750947 0.876596 0.042842
v 0.123287 0.250143 0.038504
v 0.118834 0.752031 0.053927
v 0.312439 0.593944 0.156305
v 0.584935 0.306186 0.112969
v 0.745968 0.367767 0.110257
v 0.888894 0.500001 0.077226
v 0.434522 0.775802 0.103789
v 0.236036 0.456579 0.124308
v 0.000000 0.375000 0.000000
v 0.500135 0.877840 0.058666
v 0.500686 0.625923 0.160708
v 0.242731 0.375915 0.104249
v 0.114508 0.500200 0.070651
v 0.522087 0.413993 0.158668
v 0.626969 0.252959 0.084938
v 0.499940 0.124585 0.049200
v 0.496977 0.513472 0.202572
v 0.000000 0.625000 0.000000
v 0.000000 0.875000 0.000000
v 0.000000 0.125000 0.000000
v 0.625000 1.000000 0.000000
v 0.875000 1.000000 0.000000
v 0.125000 1.000000 0.000000
v 0.375000 1.000000 0.000000
v 1.000000 0.375000 0.000000
v 1.000000 0.125000 0.000000
v 1.000000 0.875000 0.000000
v 1.000000 0.625000 0.000000
v 0.375000 0.000000 0.000000
v 0.125000 0.000000 0.000000
v 0.875000 0.000000 0.000000
v 0.625000 0.000000 0.000000
v 0.749514 0.127469 0.027757
v 0.639799 0.562820 0.181947
v 0.785076 0.516209 0.150976
v 0.062340 0.313251 0.020061
v 0.177505 0.437979 0.093147
v 0.182256 0.312281 0.071451
v 0.059046 0.437993 0.031177
v 0.687712 0.939719 0.027772
v 0.689786 0.813994 0.070451
v 0.562660 0.939664 0.030506
v 0.056997 0.688184 0.033865
v 0.179549 0.689382 0.082782
v 0.055805 0.562776 0.037736
v 0.186736 0.940709 0.025692
v 0.183304 0.816076 0.059870
v 0.061918 0.938090 0.010120
v 0.431100 0.562865 0.184189
v 0.680201 0.360049 0.125451
v 0.507766 0.727551 0.121552
v 0.309373 0.818107 0.082622
v 0.437387 0.940660 0.032596
v 0.937914 0.811826 0.015685
v 0.812288 0.810952 0.038955
v 0.936869 0.936850 0.002206
v 0.875526 0.189364 0.024111
v 0.570070 0.562647 0.183471
v 0.940368 0.624482 0.029292
v 0.832453 0.591448 0.098151
v 0.819397 0.687599 0.077749
v 0.939774 0.561839 0.030335
v 0.313139 0.703272 0.114749
v 0.937991 0.251322 0.015992
v 0.884203 0.562098 0.068553
v 0.187357 0.061358 0.018609
v 0.062384 0.062408 0.007365
v 0.185554 0.186332 0.047290
v 0.312523 0.062545 0.020391
v 0.310762 0.185464 0.067719
v 0.437488 0.062029 0.024620
v 0.811702 0.064255 0.006889
v 0.936848 0.063470 -0.001324
v -0.000000 0.937500 0.000000
v 0.592351 0.676367 0.135468
v 0.525720 0.807485 0.089494
v 0.563057 0.187838 0.071162
v 0.687949 0.190547 0.054123
v 0.562368 0.062611 0.023330
v 0.940591 0.313313 0.026233
v 0.818686 0.314323 0.070131
v 0.945226 0.437776 0.038637
v 0.312095 0.940188 0.029582
v 0.937500 0.000000 -0.000000
v 0.812528 0.190954 0.032031
v 0.811755 0.373404 0.092914
v 0.687149 0.063226 0.018754
v 0.395670 0.377112 0.141146
v 0.938222 0.188433 0.014963
v 0.436939 0.186319 0.074433
v 0.062772 0.187854 0.012639
v 0.377388 0.772926 0.102206
v 0.938087 0.686493 0.021777
v 0.296444 0.442767 0.153012
v 0.061113 0.812955 0.020202
v 0.812246 0.937574 0.015426
v 0.175313 0.563011 0.100225
v 0.776789 0.649095 0.107953
v 0.311057 0.533763 0.188002
v 0.719924 0.514294 0.202707
v 0.320132 0.512612 0.202710
v 0.722269 0.773187 0.080405
v 0.879735 0.314111 0.048247
v 0.623116 0.513978 0.202607
v 0.181859 0.375854 0.078269
v 0.291124 0.332561 0.106535
v 0.726988 0.607780 0.144005
v 0.719510 0.302442 0.093915
v 0.676453 0.668699 0.126268
v 0.327725 0.275993 0.094870
v 0.272502 0.658887 0.120675
v 1.000000 0.062500 -0.000000
v 0.614286 0.772081 0.094172
v 0.601260 0.368749 0.136698
v 0.413179 0.513120 0.202570
v 0.728846 0.424699 0.140766
v 0.778173 0.454315 0.138624
v 0.360871 0.429247 0.160839
v 0.416843 0.256464 0.098035
v 0.312567 0.390736 0.130224
v 0.833289 0.481222 0.117550
v 0.477046 0.363764 0.137764
v 0.177441 0.626058 0.092594
v 0.410691 0.662636 0.141392
v 0.879184 0.686912 0.050432
v 0.447057 0.420146 0.162395
v 0.062500 1.000000 0.000000
v 0.571280 0.459959 0.178360
vt 0.000000 0.000000
vt 1.000000 0.000000
vt 0.000000 1.000000
vt 1.000000 1.000000
vt 0.639940 0.411013
vt 0.000000 0.500000
vt 0.500000 1.000000
vt 1.000000 0.500000
vt 0.500000 0.000000
vt 0.250000 0.750000
vt 0.750000 0.750000
vt 0.250000 0.250000
vt 0.750000 0.250000
vt 0.750000 0.000000
vt 0.250000 0.000000
vt 1.000000 0.750000
vt 1.000000 0.250000
vt 0.250000 1.000000
vt 0.750000 1.000000
vt 0.000000 0.250000
vt 0.000000 0.750000
vt 0.365347 0.220303
vt 0.062500 0.875000
vt 0.245672 0.515386
vt 0.812500 0.250000
vt 0.875000 0.375000
vt 0.625000 0.125000
vt 0.875000 0.437500
vt 0.875000 0.125000
vt 0.375000 0.125000
vt 0.125000 0.125000
vt 0.492214 0.250470
vt 0.875000 0.625000
vt 0.625000 0.625000
vt 0.875000 0.875000
vt 0.375000 0.875000
vt 0.262101 0.599801
vt 0.125000 0.875000
vt 0.125000 0.625000
vt 0.625000 0.875000
vt 0.125000 0.375000
vt 0.250000 0.125000
vt 0.875000 0.750000
vt 0.875000 0.250000
vt 0.250000 0.875000
vt 0.750000 0.875000
vt 0.125000 0.250000
vt 0.125000 0.750000
vt 0.325445 0.593646
vt 0.581754 0.304126
vt 0.736041 0.365469
vt 0.875000 0.500000
vt 0.435664 0.771773
vt 0.248222 0.455442
vt 0.000000 0.375000
vt 0.500000 0.875000
vt 0.500000 0.625000
vt 0.250000 0.375000
vt 0.125000 0.500000
vt 0.519707 0.411902
vt 0.625000 0.250000
vt 0.500000 0.125000
vt 0.497100 0.513160
vt 0.000000 0.625000
vt 0.000000 0.875000
vt 0.000000 0.125000
vt 0.625000 1.000000
vt 0.875000 1.000000
vt 0.125000 1.000000
vt 0.375000 1.000000
vt 1.000000 0.375000
vt 1.000000 0.125000
vt 1.000000 0.875000
vt 1.000000 0.625000
vt 0.375000 0.000000
vt 0.125000 0.000000
vt 0.875000 0.000000
vt 0.625000 0.000000
vt 0.750000 0.125000
vt 0.625000 0.562500
vt 0.760524 0.515669
vt 0.062500 0.312500
vt 0.187500 0.437500
vt 0.187500 0.312500
vt 0.062500 0.437500
vt 0.687500 0.937500
vt 0.687500 0.812500
vt 0.562500 0.937500
vt 0.062500 0.687500
vt 0.187500 0.687500
vt 0.062500 0.562500
vt 0.187500 0.937500
vt 0.187500 0.812500
vt 0.062500 0.937500
vt 0.437500 0.562500
vt 0.671367 0.358455
vt 0.506884 0.725192
vt 0.312500 0.812500
vt 0.437500 0.937500
vt 0.937500 0.812500
vt 0.812500 0.812500
vt 0.937500 0.937500
vt 0.875000 0.187500
vt 0.562500 0.562500
vt 0.937500 0.625000
vt 0.819332 0.591237
vt 0.812500 0.687500
vt 0.937500 0.562500
vt 0.319123 0.700934
vt 0.937500 0.250000
vt 0.875000 0.562500
vt 0.187500 0.062500
vt 0.062500 0.062500
vt 0.187500 0.187500
vt 0.312500 0.062500
vt 0.312500 0.187500
vt 0.437500 0.062500
vt 0.812500 0.062500
vt 0.937500 0.062500
vt 0.000000 0.937500
vt 0.587160 0.675778
vt 0.525016 0.804189
vt 0.562500 0.187500
vt 0.687500 0.187500
vt 0.562500 0.062500
vt 0.937500 0.312500
vt 0.812500 0.312500
vt 0.937500 0.437500
vt 0.312500 0.937500
vt 0.937500 0.000000
vt 0.812500 0.187500
vt 0.800716 0.372483
vt 0.687500 0.062500
vt 0.400647 0.375957
vt 0.937500 0.187500
vt 0.437500 0.187500
vt 0.062500 0.187500
vt 0.380019 0.768564
vt 0.937500 0.687500
vt 0.309549 0.441894
vt 0.062500 0.812500
vt 0.812500 0.937500
vt 0.187500 0.562500
vt 0.765906 0.648544
vt 0.331404 0.533038
vt 0.690320 0.513121
vt 0.342475 0.511979
vt 0.718294 0.771897
vt 0.875000 0.312500
vt 0.608390 0.513469
vt 0.187500 0.375000
vt 0.296906 0.332149
vt 0.711873 0.607167
vt 0.713437 0.300753
vt 0.668274 0.669022
vt 0.331126 0.276226
vt 0.281585 0.657008
vt 1.000000 0.062500
vt 0.611736 0.771102
vt 0.595175 0.366343
vt 0.422906 0.513354
vt 0.713353 0.422290
vt 0.758105 0.454518
vt 0.370877 0.428346
vt 0.418341 0.256674
vt 0.320334 0.388669
vt 0.812755 0.481587
vt 0.477835 0.361491
vt 0.187500 0.625000
vt 0.414679 0.661630
vt 0.875000 0.687500
vt 0.450521 0.418925
vt 0.062500 1.000000
vt 0.564051 0.458319
vn -0.060784 -0.060784 0.996298
vn -0.012754 0.012754 0.999837
vn 0.000000 0.000000 1.000000
vn 0.016702 0.016702 0.999721
vn 0.111623 -0.422014 0.899691
vn -0.511704 -0.027560 0.858720
vn 0.008882 0.468949 0.883180
vn 0.542562 0.034928 0.839289
vn 0.002321 -0.364892 0.931047
vn -0.216500 0.236823 0.947123
vn 0.278963 0.306125 0.910202
vn -0.190638 -0.238515 0.952244
vn 0.213124 -0.339864 0.916008
vn 0.045576 -0.203066 0.978104
vn -0.004090 -0.301067 0.953594
vn 0.286796 0.023142 0.957712
vn 0.273826 -0.057105 0.960082
vn -0.011495 0.424776 0.905226
vn 0.048409 0.331488 0.942217
vn -0.257018 -0.026292 0.966049
vn -0.415725 0.055988 0.907765
vn -0.065757 -0.318327 0.945698
vn -0.235700 0.075458 0.968892
vn -0.489517 -0.031009 0.871442
vn 0.192384 -0.283440 0.939495
vn 0.410634 -0.222114 0.884333
vn 0.090144 -0.315994 0.944469
vn 0.522396 -0.143751 0.840499
vn 0.111054 -0.184506 0.976537
vn -0.040327 -0.357227 0.933147
vn -0.180826 -0.137208 0.973897
vn 0.012564 -0.337742 0.941155
vn 0.478588 0.149822 0.865163
vn 0.121009 0.407265 0.905258
vn 0.144185 0.149141 0.978247
vn -0.026558 0.403695 0.914508
vn -0.392660 0.257772 0.882820
vn -0.219895 0.153921 0.963304
vn -0.411352 0.085667 0.907442
vn 0.063093 0.366121 0.928426
vn -0.410843 -0.138883 0.901066
vn -0.081852 -0.295391 0.951864
vn 0.330716 0.187196 0.924978
vn 0.256566 -0.205308 0.944469
vn -0.103323 0.335039 0.936522
vn 0.181397 0.276438 0.943757
vn -0.333318 -0.113162 0.935999
vn -0.342836 0.157089 0.926168
vn -0.241507 0.389541 0.888781
vn 0.079421 -0.365807 0.927296
vn 0.259323 -0.365165 0.894095
vn 0.564415 0.068714 0.822627
vn -0.011807 0.351130 0.936252
vn -0.417658 -0.256038 0.871783
vn -0.386979 -0.044238 0.921027
vn 0.013148 0.399932 0.916451
vn 0.000379 0.367360 0.930079
vn -0.333644 -0.250725 0.908745
vn -0.492931 -0.059557 0.868028
vn 0.014564 -0.400771 0.916062
vn 0.133961 -0.358433 0.923894
vn 0.015802 -0.363752 0.931362
vn 0.003363 -0.004238 0.999985
vn -0.536413 0.012833 0.843858
vn -0.231373 0.042672 0.971929
vn -0.164209 -0.021781 0.986185
vn 0.009987 0.436524 0.899637
vn 0.052262 0.116612 0.991802
vn -0.049879 0.265402 0.962847
vn -0.011453 0.464612 0.885440
vn 0.478871 -0.050256 0.876446
vn 0.057853 -0.052694 0.996934
vn 0.138124 0.053350 0.988977
vn 0.424730 0.047119 0.904093
vn -0.015059 -0.339244 0.940578
vn -0.044326 -0.208453 0.977028
vn 0.026480 -0.026578 0.999296
vn 0.019169 -0.323796 0.945933
vn 0.134040 -0.233089 0.963173
vn 0.050045 0.413247 0.909243
vn 0.561494 0.004547 0.827468
vn -0.343858 -0.060025 0.937101
vn -0.421773 -0.225334 0.878255
vn -0.346479 -0.144495 0.926862
vn -0.459605 -0.076731 0.884802
vn 0.058494 0.382446 0.922125
vn 0.117342 0.310290 0.943372
vn 0.010461 0.431487 0.902059
vn -0.463251 0.064482 0.883878
vn -0.318484 0.161280 0.934107
vn -0.516764 -0.003350 0.856122
vn -0.086803 0.330177 0.939919
vn -0.235338 0.226539 0.945143
vn -0.158062 0.127837 0.979119
vn -0.033682 0.363102 0.931140
vn 0.177552 -0.384817 0.905755
vn 0.028052 0.355740 0.934164
vn -0.101475 0.316576 0.943124
vn 0.005704 0.444354 0.895833
vn 0.200312 0.091866 0.975416
vn 0.265563 0.240854 0.933523
vn 0.048433 0.059186 0.997071
vn 0.150422 -0.217970 0.964294
vn 0.021152 0.375335 0.926648
vn 0.481430 0.080697 0.872762
vn 0.489673 0.192369 0.850420
vn 0.370493 0.256469 0.892726
vn 0.527956 0.054829 0.847500
vn -0.163230 0.296575 0.940957
vn 0.267562 -0.114616 0.956699
vn 0.543768 0.111684 0.831771
vn -0.061463 -0.258422 0.964075
vn -0.099127 -0.087597 0.991212
vn -0.209936 -0.192732 0.958531
vn -0.015030 -0.334265 0.942359
vn -0.067901 -0.301194 0.951142
vn -0.015516 -0.362854 0.931717
vn 0.084877 -0.140370 0.986454
vn 0.011881 -0.014437 0.999825
vn -0.125867 0.041956 0.991159
vn 0.094048 0.383879 0.918581
vn 0.034622 0.372220 0.927499
vn 0.070105 -0.341739 0.937176
vn 0.151575 -0.304063 0.940516
vn 0.023323 -0.352559 0.935499
vn 0.355361 -0.130962 0.925509
vn 0.294309 -0.299893 0.907439
vn 0.544426 -0.077837 0.835190
vn -0.023362 0.431024 0.902038
vn 0.000000 0.025440 0.999676
vn 0.157446 -0.257403 0.953391
vn 0.338917 -0.313697 0.886978
vn 0.062318 -0.272954 0.960007
vn -0.090355 -0.389332 0.916655
vn 0.158465 -0.082767 0.983889
vn -0.037464 -0.348221 0.936664
vn -0.242696 -0.054092 0.968593
vn -0.060540 0.320834 0.945199
vn 0.410443 0.113480 0.904798
vn -0.322440 -0.402100 0.856941
vn -0.302770 0.090463 0.948761
vn 0.123490 0.213852 0.969029
vn -0.440602 0.119463 0.889718
vn 0.346340 0.307347 0.886333
vn -0.284634 0.437205 0.853132
vn 0.323685 0.039515 0.945339
vn -0.261544 0.232356 0.936806
vn 0.212038 0.305865 0.928163
vn 0.314699 -0.207977 0.926126
vn 0.012929 0.103156 0.994581
vn -0.395756 -0.168754 0.902718
vn -0.226671 -0.279230 0.933087
vn 0.285793 0.411419 0.865481
vn 0.223688 -0.369042 0.902093
vn 0.175870 0.392950 0.902585
vn -0.130139 -0.298810 0.945397
vn -0.286604 0.276434 0.917302
vn -0.025568 -0.000000 0.999673
vn 0.100400 0.339994 0.935053
vn 0.061885 -0.392931 0.917483
vn -0.022622 0.057581 0.998085
vn 0.265934 -0.438518 0.858476
vn 0.421139 -0.329656 0.844967
vn -0.148977 -0.444135 0.883487
vn -0.059273 -0.331984 0.941421
vn -0.226632 -0.382163 0.895874
vn 0.523276 -0.092379 0.847141
vn 0.001220 -0.381355 0.924428
vn -0.367131 0.146921 0.918493
vn -0.073409 0.349229 0.934158
vn 0.420748 0.192184 0.886587
vn -0.019446 -0.400033 0.916294
vn -0.041960 0.125881 0.991157
vn 0.019464 -0.411162 0.911354
f 1/1/1 113/113/113 66/66/66
f 31/31/31 137/137/137 113/113/113
f 109/109/109 157/157/157 49/49/49
f 98/98/98 45/45/45 10/10/10
f 84/84/84 151/151/151 41/41/41
f 112/112/112 114/114/114 31/31/31
f 114/114/114 47/47/47 31/31/31
f 84/84/84 152/152/152 58/58/58
f 137/137/137 66/66/66 113/113/113
f 93/93/93 10/10/10 45/45/45
f 150/150/150 104/104/104 63/63/63
f 161/161/161 145/145/145 147/147/147
f 170/170/170 109/109/109 49/49/49
f 95/95/95 63/63/63 57/57/57
f 42/42/42 114/114/114 112/112/112
f 76/76/76 113/113/113 1/1/1
f 147/147/147 164/164/164 161/161/161
f 15/15/15 112/112/112 76/76/76
f 115/115/115 15/15/15 75/75/75
f 146/146/146 162/162/162 163/163/163
f 91/91/91 59/59/59 39/39/39
f 150/150/150 80/80/80 104/104/104
f 22/22/22 30/30/30 136/136/136
f 162/162/162 51/51/51 163/163/163
f 32/32/32 165/165/165 136/136/136
f 22/22/22 136/136/136 165/165/165
f 161/161/161 95/95/95 145/145/145
f 76/76/76 112/112/112 113/113/113
f 44/44/44 149/149/149 25/25/25
f 116/116/116 30/30/30 22/22/22
f 174/174/174 150/150/150 63/63/63
f 12/12/12 114/114/114 42/42/42
f 156/156/156 116/116/116 22/22/22
f 156/156/156 152/152/152 12/12/12
f 156/156/156 12/12/12 116/116/116
f 158/158/158 72/72/72 119/119/119
f 168/168/168 165/165/165 32/32/32
f 170/170/170 138/138/138 109/109/109
f 156/156/156 22/22/22 165/165/165
f 6/6/6 85/85/85 91/91/91
f 140/140/140 164/164/164 147/147/147
f 82/82/82 137/137/137 47/47/47
f 172/172/172 168/168/168 60/60/60
f 51/51/51 162/162/162 96/96/96
f 59/59/59 91/91/91 85/85/85
f 34/34/34 80/80/80 153/153/153
f 39/39/39 89/89/89 91/91/91
f 69/69/69 94/94/94 92/92/92
f 152/152/152 166/166/166 58/58/58
f 167/167/167 106/106/106 81/81/81
f 44/44/44 103/103/103 110/110/110
f 170/170/170 53/53/53 138/138/138
f 125/125/125 78/78/78 27/27/27
f 117/117/117 9/9/9 62/62/62
f 48/48/48 90/90/90 93/93/93
f 134/134/134 152/152/152 156/156/156
f 38/38/38 92/92/92 94/94/94
f 99/99/99 36/36/36 56/56/56
f 83/83/83 58/58/58 54/54/54
f 128/128/128 26/26/26 71/71/71
f 151/151/151 58/58/58 83/83/83
f 126/126/126 110/110/110 17/17/17
f 84/84/84 12/12/12 152/152/152
f 84/84/84 58/58/58 151/151/151
f 47/47/47 114/114/114 84/84/84
f 84/84/84 114/114/114 12/12/12
f 47/47/47 84/84/84 41/41/41
f 82/82/82 47/47/47 41/41/41
f 36/36/36 99/99/99 129/129/129
f 20/20/20 137/137/137 82/82/82
f 70/70/70 129/129/129 99/99/99
f 20/20/20 66/66/66 137/137/137
f 55/55/55 20/20/20 82/82/82
f 98/98/98 138/138/138 36/36/36
f 171/171/171 33/33/33 139/139/139
f 102/102/102 68/68/68 35/35/35
f 146/146/146 153/153/153 80/80/80
f 130/130/130 2/2/2 119/119/119
f 166/166/166 140/140/140 58/58/58
f 53/53/53 56/56/56 36/36/36
f 92/92/92 18/18/18 69/69/69
f 103/103/103 44/44/44 131/131/131
f 139/139/139 43/43/43 171/171/171
f 62/62/62 136/136/136 117/117/117
f 122/122/122 53/53/53 97/97/97
f 42/42/42 115/115/115 116/116/116
f 122/122/122 97/97/97 159/159/159
f 5/5/5 174/174/174 160/160/160
f 109/109/109 98/98/98 10/10/10
f 94/94/94 173/173/173 120/120/120
f 14/14/14 133/133/133 78/78/78
f 125/125/125 62/62/62 9/9/9
f 152/152/152 134/134/134 166/166/166
f 123/123/123 32/32/32 62/62/62
f 27/27/27 133/133/133 124/124/124
f 60/60/60 160/160/160 174/174/174
f 136/136/136 62/62/62 32/32/32
f 41/41/41 85/85/85 82/82/82
f 93/93/93 45/45/45 38/38/38
f 129/129/129 70/70/70 18/18/18
f 55/55/55 82/82/82 85/85/85
f 53/53/53 36/36/36 138/138/138
f 92/92/92 38/38/38 45/45/45
f 145/145/145 24/24/24 147/147/147
f 18/18/18 92/92/92 129/129/129
f 126/126/126 71/71/71 26/26/26
f 38/38/38 141/141/141 93/93/93
f 45/45/45 129/129/129 92/92/92
f 48/48/48 93/93/93 141/141/141
f 6/6/6 91/91/91 64/64/64
f 105/105/105 139/139/139 33/33/33
f 149/149/149 44/44/44 126/126/126
f 46/46/46 101/101/101 142/142/142
f 134/134/134 156/156/156 165/165/165
f 39/39/39 169/169/169 90/90/90
f 37/37/37 24/24/24 145/145/145
f 24/24/24 59/59/59 83/83/83
f 120/120/120 65/65/65 94/94/94
f 65/65/65 21/21/21 141/141/141
f 65/65/65 23/23/23 94/94/94
f 37/37/37 145/145/145 49/49/49
f 157/157/157 90/90/90 169/169/169
f 123/123/123 27/27/27 61/61/61
f 124/124/124 61/61/61 27/27/27
f 60/60/60 168/168/168 160/160/160
f 16/16/16 100/100/100 139/139/139
f 56/56/56 53/53/53 122/122/122
f 6/6/6 55/55/55 85/85/85
f 5/5/5 96/96/96 162/162/162
f 24/24/24 83/83/83 54/54/54
f 24/24/24 143/143/143 59/59/59
f 143/143/143 169/169/169 39/39/39
f 69/69/69 173/173/173 94/94/94
f 141/141/141 21/21/21 48/48/48
f 30/30/30 116/116/116 115/115/115
f 89/89/89 48/48/48 21/21/21
f 157/157/157 169/169/169 37/37/37
f 135/135/135 103/103/103 29/29/29
f 95/95/95 49/49/49 145/145/145
f 135/135/135 72/72/72 17/17/17
f 37/37/37 169/169/169 143/143/143
f 37/37/37 143/143/143 24/24/24
f 157/157/157 37/37/37 49/49/49
f 157/157/157 10/10/10 90/90/90
f 109/109/109 138/138/138 98/98/98
f 109/109/109 10/10/10 157/157/157
f 57/57/57 104/104/104 121/121/121
f 170/170/170 97/97/97 53/53/53
f 27/27/27 123/123/123 125/125/125
f 62/62/62 125/125/125 123/123/123
f 151/151/151 83/83/83 41/41/41
f 139/139/139 100/100/100 43/43/43
f 135/135/135 110/110/110 103/103/103
f 73/73/73 4/4/4 102/102/102
f 110/110/110 126/126/126 44/44/44
f 40/40/40 46/46/46 86/86/86
f 57/57/57 97/97/97 170/170/170
f 57/57/57 170/170/170 95/95/95
f 78/78/78 125/125/125 9/9/9
f 117/117/117 30/30/30 75/75/75
f 74/74/74 16/16/16 139/139/139
f 54/54/54 58/58/58 140/140/140
f 87/87/87 46/46/46 40/40/40
f 2/2/2 158/158/158 119/119/119
f 110/110/110 135/135/135 17/17/17
f 108/108/108 111/111/111 52/52/52
f 121/121/121 97/97/97 57/57/57
f 34/34/34 121/121/121 104/104/104
f 45/45/45 98/98/98 129/129/129
f 107/107/107 106/106/106 33/33/33
f 11/11/11 155/155/155 144/144/144
f 155/155/155 121/121/121 34/34/34
f 64/64/64 91/91/91 89/89/89
f 106/106/106 153/153/153 81/81/81
f 38/38/38 23/23/23 141/141/141
f 25/25/25 131/131/131 44/44/44
f 50/50/50 160/160/160 168/168/168
f 23/23/23 38/38/38 94/94/94
f 107/107/107 43/43/43 11/11/11
f 101/101/101 11/11/11 43/43/43
f 154/154/154 51/51/51 96/96/96
f 167/167/167 111/111/111 106/106/106
f 33/33/33 106/106/106 111/111/111
f 107/107/107 33/33/33 171/171/171
f 167/167/167 132/132/132 28/28/28
f 64/64/64 89/89/89 21/21/21
f 105/105/105 33/33/33 111/111/111
f 108/108/108 52/52/52 8/8/8
f 105/105/105 111/111/111 108/108/108
f 104/104/104 57/57/57 63/63/63
f 74/74/74 108/108/108 8/8/8
f 141/141/141 23/23/23 65/65/65
f 74/74/74 105/105/105 108/108/108
f 128/128/128 8/8/8 52/52/52
f 134/134/134 164/164/164 166/166/166
f 11/11/11 144/144/144 107/107/107
f 43/43/43 107/107/107 171/171/171
f 144/144/144 155/155/155 153/153/153
f 144/144/144 153/153/153 106/106/106
f 144/144/144 106/106/106 107/107/107
f 133/133/133 27/27/27 78/78/78
f 159/159/159 87/87/87 40/40/40
f 4/4/4 68/68/68 102/102/102
f 148/148/148 101/101/101 46/46/46
f 127/127/127 25/25/25 149/149/149
f 168/168/168 172/172/172 134/134/134
f 74/74/74 139/139/139 105/105/105
f 31/31/31 113/113/113 112/112/112
f 7/7/7 99/99/99 88/88/88
f 19/19/19 86/86/86 142/142/142
f 90/90/90 48/48/48 39/39/39
f 29/29/29 131/131/131 118/118/118
f 102/102/102 35/35/35 100/100/100
f 80/80/80 34/34/34 104/104/104
f 40/40/40 86/86/86 88/88/88
f 143/143/143 39/39/39 59/59/59
f 148/148/148 46/46/46 87/87/87
f 46/46/46 142/142/142 86/86/86
f 89/89/89 39/39/39 48/48/48
f 67/67/67 88/88/88 86/86/86
f 56/56/56 122/122/122 40/40/40
f 159/159/159 155/155/155 148/148/148
f 122/122/122 159/159/159 40/40/40
f 159/159/159 148/148/148 87/87/87
f 148/148/148 155/155/155 11/11/11
f 148/148/148 11/11/11 101/101/101
f 159/159/159 97/97/97 121/121/121
f 159/159/159 121/121/121 155/155/155
f 56/56/56 40/40/40 88/88/88
f 30/30/30 117/117/117 136/136/136
f 56/56/56 88/88/88 99/99/99
f 3/3/3 120/120/120 173/173/173
f 7/7/7 70/70/70 99/99/99
f 67/67/67 7/7/7 88/88/88
f 19/19/19 67/67/67 86/86/86
f 68/68/68 19/19/19 142/142/142
f 73/73/73 102/102/102 100/100/100
f 59/59/59 85/85/85 83/83/83
f 36/36/36 129/129/129 98/98/98
f 135/135/135 29/29/29 72/72/72
f 16/16/16 73/73/73 100/100/100
f 118/118/118 79/79/79 14/14/14
f 142/142/142 35/35/35 68/68/68
f 153/153/153 155/155/155 34/34/34
f 147/147/147 24/24/24 140/140/140
f 28/28/28 128/128/128 52/52/52
f 131/131/131 25/25/25 13/13/13
f 60/60/60 63/63/63 172/172/172
f 161/161/161 172/172/172 63/63/63
f 126/126/126 17/17/17 71/71/71
f 132/132/132 26/26/26 28/28/28
f 128/128/128 71/71/71 8/8/8
f 79/79/79 124/124/124 133/133/133
f 167/167/167 28/28/28 52/52/52
f 26/26/26 128/128/128 28/28/28
f 77/77/77 130/130/130 119/119/119
f 77/77/77 119/119/119 118/118/118
f 95/95/95 170/170/170 49/49/49
f 100/100/100 35/35/35 43/43/43
f 103/103/103 131/131/131 29/29/29
f 35/35/35 142/142/142 101/101/101
f 101/101/101 43/43/43 35/35/35
f 13/13/13 25/25/25 127/127/127
f 149/149/149 126/126/126 26/26/26
f 149/149/149 26/26/26 127/127/127
f 51/51/51 127/127/127 132/132/132
f 79/79/79 118/118/118 131/131/131
f 133/133/133 14/14/14 79/79/79
f 115/115/115 75/75/75 30/30/30
f 163/163/163 132/132/132 167/167/167
f 132/132/132 127/127/127 26/26/26
f 167/167/167 52/52/52 111/111/111
f 163/163/163 167/167/167 81/81/81
f 63/63/63 95/95/95 161/161/161
f 146/146/146 163/163/163 81/81/81
f 150/150/150 5/5/5 146/146/146
f 96/96/96 160/160/160 50/50/50
f 50/50/50 168/168/168 32/32/32
f 161/161/161 164/164/164 172/172/172
f 96/96/96 5/5/5 160/160/160
f 134/134/134 172/172/172 164/164/164
f 124/124/124 154/154/154 61/61/61
f 12/12/12 42/42/42 116/116/116
f 123/123/123 50/50/50 32/32/32
f 96/96/96 50/50/50 61/61/61
f 54/54/54 140/140/140 24/24/24
f 77/77/77 118/118/118 14/14/14
f 154/154/154 127/127/127 51/51/51
f 162/162/162 146/146/146 5/5/5
f 51/51/51 132/132/132 163/163/163
f 85/85/85 41/41/41 83/83/83
f 154/154/154 96/96/96 61/61/61
f 154/154/154 13/13/13 127/127/127
f 124/124/124 13/13/13 154/154/154
f 15/15/15 115/115/115 112/112/112
f 42/42/42 112/112/112 115/115/115
f 10/10/10 93/93/93 90/90/90
f 123/123/123 61/61/61 50/50/50
f 150/150/150 146/146/146 80/80/80
f 119/119/119 72/72/72 29/29/29
f 137/137/137 31/31/31 47/47/47
f 9/9/9 117/117/117 75/75/75
f 134/134/134 165/165/165 168/168/168
f 146/146/146 81/81/81 153/153/153
f 119/119/119 29/29/29 118/118/118
f 150/150/150 174/174/174 5/5/5
f 60/60/60 174/174/174 63/63/63
f 164/164/164 140/140/140 166/166/166
f 131/131/131 13/13/13 79/79/79
f 124/124/124 79/79/79 13/13/13
