# frame 000939 
# time 0.470000 
# name Cloth3D 
v -0.000000 0.000000 -0.000000
v 1.000000 0.000000 -0.000000
v -0.000000 1.000000 0.000000
v 1.000000 1.000000 0.000000
v 0.655052 0.409552 0.169057
v -0.000000 0.500000 0.000000
v 0.500000 1.000000 0.000000
v 1.000000 0.500000 0.000000
v 0.500000 -0.000000 0.000000
v 0.244269 0.754217 0.087919
v 0.756200 0.752280 0.082832
v 0.246058 0.249103 0.079309
v 0.754820 0.249898 0.077897
v 0.750000 0.000000 0.000000
v 0.250000 0.000000 0.000000
v 1.000000 0.750000 0.000000
v 1.000000 0.250000 0.000000
v 0.250000 1.000000 0.000000
v 0.750000 1.000000 0.000000
v 0.000000 0.250000 0.000000
v 0.000000 0.750000 -0.000000
v 0.363721 0.219364 0.085531
v 0.874377 0.063691 0.004640
v 0.231488 0.515315 0.133599
v 0.815882 0.251409 0.057817
v 0.883239 0.375715 0.063160
v 0.625973 0.123022 0.052499
v 0.886036 0.437953 0.071359
v 0.874584 0.126352 0.016836
v 0.374962 0.124737 0.048260
v 0.122749 0.123089 0.033098
v 0.493295 0.248978 0.106239
v 0.886424 0.625960 0.069397
v 0.634062 0.623941 0.142042
v 0.877354 0.876939 0.030283
v 0.374270 0.875600 0.047906
v 0.251296 0.601568 0.125550
v 0.122281 0.877163 0.033129
v 0.122321 0.624892 0.054028
v 0.625970 0.875348 0.047547
v 0.117511 0.374421 0.063859
v 0.249310 0.124552 0.040015
v 0.879515 0.750765 0.046571
v 0.877862 0.251151 0.040654
v 0.248001 0.878640 0.048744
v 0.751676 0.876409 0.042057
v 0.119767 0.248793 0.050820
v 0.120683 0.751428 0.049510
v 0.314427 0.594939 0.150331
v 0.586902 0.303121 0.126562
v 0.749023 0.364404 0.124599
v 0.886267 0.500228 0.073431
v 0.434930 0.772200 0.089842
v 0.232738 0.454194 0.137139
v 0.000000 0.375000 0.000000
v 0.500246 0.874599 0.048042
v 0.501413 0.623470 0.147031
v 0.240136 0.373698 0.116596
v 0.117125 0.499831 0.067642
v 0.523217 0.410876 0.171830
v 0.629436 0.247730 0.103163
v 0.500516 0.122740 0.056035
v 0.498190 0.478914 0.200895
v 0.000000 0.625000 0.000000
v 0.000000 0.875000 0.000000
v 0.000000 0.125000 0.000000
v 0.625000 1.000000 0.000000
v 0.875000 1.000000 0.000000
v 0.125000 1.000000 0.000000
v 0.375000 1.000000 0.000000
v 1.000000 0.375000 0.000000
v 1.000000 0.125000 0.000000
v 1.000000 0.875000 0.000000
v 1.000000 0.625000 0.000000
v 0.375000 0.000000 0.000000
v 0.125000 0.000000 0.000000
v 0.875000 0.000000 0.000000
v 0.625000 0.000000 0.000000
v 0.750464 0.125301 0.036857
v 0.642127 0.498409 0.194560
v 0.784282 0.515802 0.147355
v 0.058858 0.312322 0.029853
v 0.174829 0.436572 0.103277
v 0.179610 0.310820 0.082784
v 0.058613 0.437412 0.033431
v 0.687860 0.938444 0.024014
v 0.690417 0.813280 0.066596
v 0.562687 0.937343 0.023703
v 0.061719 0.687473 0.023978
v 0.180913 0.689539 0.080153
v 0.060557 0.562250 0.029306
v 0.186657 0.939275 0.021932
v 0.182965 0.816338 0.060106
v 0.061796 0.938104 0.010850
v 0.433056 0.560205 0.169003
v 0.682918 0.357781 0.138673
v 0.508071 0.725304 0.109742
v 0.309946 0.815705 0.073031
v 0.437477 0.936738 0.022074
v 0.938619 0.812746 0.018177
v 0.816467 0.814708 0.054150
v 0.937329 0.937314 0.003188
v 0.876103 0.188573 0.029442
v 0.570062 0.559642 0.168126
v 0.942451 0.625201 0.033349
v 0.833468 0.591908 0.098368
v 0.821742 0.688887 0.082044
v 0.943101 0.562548 0.035756
v 0.313394 0.703994 0.112518
v 0.697347 0.582030 0.149928
v 0.885199 0.562825 0.069807
v 0.187228 0.062075 0.018198
v 0.061954 0.061907 0.010828
v 0.184615 0.186229 0.052402
v 0.312600 0.062138 0.022841
v 0.310649 0.185289 0.071654
v 0.437659 0.061101 0.028204
v 0.811915 0.063492 0.011570
v 0.937065 0.063039 0.003612
v -0.000000 0.937500 0.000000
v 0.937500 1.000000 0.000000
v 0.525829 0.803455 0.075225
v 0.564259 0.185120 0.081413
v 0.689705 0.187110 0.067089
v 0.562642 0.061625 0.027036
v 0.940331 0.313292 0.026582
v 0.818897 0.313708 0.075176
v 0.942052 0.438006 0.033958
v 0.312093 0.938462 0.024201
v 0.937500 0.000000 -0.000000
v 0.812988 0.189877 0.038491
v 0.810931 0.373312 0.095770
v 0.687396 0.062109 0.022800
v 0.394849 0.374510 0.154303
v 0.937211 0.188621 0.011770
v 0.437412 0.185653 0.079712
v 0.060565 0.186986 0.021759
v 0.377937 0.770485 0.091601
v 0.941920 0.687681 0.030372
v 0.373208 0.316063 0.127944
v 0.058989 0.813294 0.026277
v 0.813303 0.939417 0.022098
v 0.178222 0.562663 0.095284
v 0.777336 0.649448 0.106114
v 0.315696 0.532835 0.174810
v 0.720070 0.479718 0.201015
v 0.320278 0.478036 0.201017
v 0.723186 0.774131 0.080969
v 0.880284 0.313385 0.052001
v 0.623368 0.479413 0.200927
v 0.178490 0.374058 0.090762
v 0.289612 0.330715 0.118127
v 0.725456 0.606542 0.133743
v 0.720793 0.300928 0.103832
v 0.676584 0.668848 0.120691
v 0.327003 0.274553 0.104883
v 0.272893 0.660039 0.119534
v 0.501512 0.559897 0.168541
v 0.614632 0.771029 0.087041
v 0.603622 0.365764 0.150670
v 0.414523 0.478564 0.200894
v 0.734135 0.420002 0.158865
v 0.780482 0.452787 0.145881
v 0.124345 0.061860 0.015264
v 0.417075 0.255901 0.104206
v 0.309132 0.386128 0.149364
v 0.832050 0.481266 0.115780
v 0.477746 0.360574 0.151260
v 0.180575 0.625794 0.086138
v 0.411782 0.660178 0.128423
v 0.882347 0.688276 0.057088
v 1.000000 0.937500 0.000000
v 0.592239 0.674444 0.123423
v 0.447265 0.417600 0.174356
vt 0.000000 0.000000
vt 1.000000 0.000000
vt 0.000000 1.000000
vt 1.000000 1.000000
vt 0.639940 0.411013
vt 0.000000 0.500000
vt 0.500000 1.000000
vt 1.000000 0.500000
vt 0.500000 0.000000
vt 0.250000 0.750000
vt 0.750000 0.750000
vt 0.250000 0.250000
vt 0.750000 0.250000
vt 0.750000 0.000000
vt 0.250000 0.000000
vt 1.000000 0.750000
vt 1.000000 0.250000
vt 0.250000 1.000000
vt 0.750000 1.000000
vt 0.000000 0.250000
vt 0.000000 0.750000
vt 0.365347 0.220303
vt 0.875000 0.062500
vt 0.245672 0.515386
vt 0.812500 0.250000
vt 0.875000 0.375000
vt 0.625000 0.125000
vt 0.875000 0.437500
vt 0.875000 0.125000
vt 0.375000 0.125000
vt 0.125000 0.125000
vt 0.492214 0.250470
vt 0.875000 0.625000
vt 0.625000 0.625000
vt 0.875000 0.875000
vt 0.375000 0.875000
vt 0.262101 0.599801
vt 0.125000 0.875000
vt 0.125000 0.625000
vt 0.625000 0.875000
vt 0.125000 0.375000
vt 0.250000 0.125000
vt 0.875000 0.750000
vt 0.875000 0.250000
vt 0.250000 0.875000
vt 0.750000 0.875000
vt 0.125000 0.250000
vt 0.125000 0.750000
vt 0.325445 0.593646
vt 0.581754 0.304126
vt 0.736041 0.365469
vt 0.875000 0.500000
vt 0.435664 0.771773
vt 0.248222 0.455442
vt 0.000000 0.375000
vt 0.500000 0.875000
vt 0.500000 0.625000
vt 0.250000 0.375000
vt 0.125000 0.500000
vt 0.519707 0.411902
vt 0.625000 0.250000
vt 0.500000 0.125000
vt 0.497206 0.481282
vt 0.000000 0.625000
vt 0.000000 0.875000
vt 0.000000 0.125000
vt 0.625000 1.000000
vt 0.875000 1.000000
vt 0.125000 1.000000
vt 0.375000 1.000000
vt 1.000000 0.375000
vt 1.000000 0.125000
vt 1.000000 0.875000
vt 1.000000 0.625000
vt 0.375000 0.000000
vt 0.125000 0.000000
vt 0.875000 0.000000
vt 0.625000 0.000000
vt 0.750000 0.125000
vt 0.625000 0.500000
vt 0.760524 0.515669
vt 0.062500 0.312500
vt 0.187500 0.437500
vt 0.187500 0.312500
vt 0.062500 0.437500
vt 0.687500 0.937500
vt 0.687500 0.812500
vt 0.562500 0.937500
vt 0.062500 0.687500
vt 0.187500 0.687500
vt 0.062500 0.562500
vt 0.187500 0.937500
vt 0.187500 0.812500
vt 0.062500 0.937500
vt 0.437500 0.562500
vt 0.671367 0.358455
vt 0.506884 0.725192
vt 0.312500 0.812500
vt 0.437500 0.937500
vt 0.937500 0.812500
vt 0.812500 0.812500
vt 0.937500 0.937500
vt 0.875000 0.187500
vt 0.562500 0.562500
vt 0.937500 0.625000
vt 0.819332 0.591237
vt 0.812500 0.687500
vt 0.937500 0.562500
vt 0.319123 0.700934
vt 0.682510 0.583771
vt 0.875000 0.562500
vt 0.187500 0.062500
vt 0.062500 0.062500
vt 0.187500 0.187500
vt 0.312500 0.062500
vt 0.312500 0.187500
vt 0.437500 0.062500
vt 0.812500 0.062500
vt 0.937500 0.062500
vt 0.000000 0.937500
vt 0.937500 1.000000
vt 0.525016 0.804189
vt 0.562500 0.187500
vt 0.687500 0.187500
vt 0.562500 0.062500
vt 0.937500 0.312500
vt 0.812500 0.312500
vt 0.937500 0.437500
vt 0.312500 0.937500
vt 0.937500 0.000000
vt 0.812500 0.187500
vt 0.800716 0.372483
vt 0.687500 0.062500
vt 0.400647 0.375957
vt 0.937500 0.187500
vt 0.437500 0.187500
vt 0.062500 0.187500
vt 0.380019 0.768564
vt 0.937500 0.687500
vt 0.377625 0.317694
vt 0.062500 0.812500
vt 0.812500 0.937500
vt 0.187500 0.562500
vt 0.765906 0.648544
vt 0.331404 0.533038
vt 0.690647 0.480774
vt 0.341185 0.480084
vt 0.718294 0.771897
vt 0.875000 0.312500
vt 0.608487 0.481352
vt 0.187500 0.375000
vt 0.296906 0.332149
vt 0.711873 0.607167
vt 0.713437 0.300753
vt 0.668274 0.669022
vt 0.331126 0.276226
vt 0.281585 0.657008
vt 0.500000 0.562500
vt 0.611736 0.771102
vt 0.595175 0.366343
vt 0.423160 0.481175
vt 0.713353 0.422290
vt 0.758105 0.454518
vt 0.125000 0.062500
vt 0.418341 0.256674
vt 0.320334 0.388669
vt 0.812755 0.481587
vt 0.477835 0.361491
vt 0.187500 0.625000
vt 0.414679 0.661630
vt 0.875000 0.687500
vt 1.000000 0.937500
vt 0.587160 0.675778
vt 0.450521 0.418925
vn -0.086534 -0.086534 0.992484
vn 0.021116 -0.042231 0.998885
vn -0.112666 0.056333 0.992035
vn 0.027805 0.027805 0.999227
vn 0.086320 -0.447833 0.889941
vn -0.466118 0.018344 0.884533
vn -0.007259 0.340253 0.940306
vn 0.527928 -0.004019 0.849280
vn 0.005173 -0.409842 0.912142
vn -0.184713 0.260202 0.947721
vn 0.169513 0.272025 0.947242
vn -0.186480 -0.298319 0.936072
vn 0.260673 -0.298314 0.918182
vn 0.043985 -0.267321 0.962603
vn -0.016751 -0.307563 0.951380
vn 0.375754 0.045892 0.925583
vn 0.297584 -0.058730 0.952887
vn -0.006502 0.347961 0.937486
vn 0.005644 0.352278 0.935878
vn -0.392090 -0.031324 0.919393
vn -0.383168 -0.011546 0.923606
vn -0.055870 -0.359675 0.931404
vn 0.061601 -0.135284 0.988890
vn -0.507264 0.126279 0.852488
vn 0.270383 -0.270016 0.924113
vn 0.430013 -0.155523 0.889326
vn 0.066733 -0.380895 0.922207
vn 0.537744 -0.097407 0.837463
vn 0.136396 -0.173386 0.975363
vn -0.051285 -0.371429 0.927044
vn -0.130033 -0.213780 0.968189
vn -0.023838 -0.364836 0.930767
vn 0.467189 0.086195 0.879946
vn 0.069786 0.370383 0.926254
vn 0.214231 0.185116 0.959081
vn 0.009095 0.374457 0.927200
vn -0.392311 0.227125 0.891351
vn -0.174264 0.203940 0.963349
vn -0.453354 0.083541 0.887407
vn 0.019049 0.342226 0.939424
vn -0.442989 -0.102113 0.890693
vn -0.091577 -0.311345 0.945874
vn 0.351330 0.153140 0.923642
vn 0.306249 -0.180149 0.934750
vn -0.053869 0.332787 0.941462
vn 0.047742 0.298813 0.953117
vn -0.323989 -0.138542 0.935862
vn -0.343776 0.071793 0.936303
vn -0.206782 0.326344 0.922356
vn 0.044699 -0.363934 0.930351
vn 0.328985 -0.394129 0.858156
vn 0.576175 0.014907 0.817191
vn 0.006150 0.360821 0.932615
vn -0.497163 -0.114596 0.860056
vn -0.472746 -0.014539 0.881079
vn 0.002614 0.366174 0.930543
vn 0.001400 0.344308 0.938856
vn -0.352234 -0.253761 0.900854
vn -0.509592 0.059832 0.858333
vn 0.005179 -0.392277 0.919833
vn 0.105651 -0.363550 0.925564
vn 0.000404 -0.393554 0.919302
vn 0.001253 -0.064777 0.997899
vn -0.398753 0.020310 0.916834
vn -0.265812 0.049798 0.962738
vn -0.254807 -0.042288 0.966067
vn -0.002483 0.357955 0.933735
vn 0.058724 0.188813 0.980256
vn -0.043823 0.253999 0.966211
vn 0.008948 0.343316 0.939177
vn 0.467306 -0.029055 0.883618
vn 0.124766 -0.031224 0.991695
vn 0.150671 0.047994 0.987418
vn 0.496339 0.025816 0.867745
vn -0.020754 -0.371731 0.928108
vn -0.036452 -0.230086 0.972487
vn 0.034522 -0.090660 0.995283
vn 0.014325 -0.375203 0.926832
vn 0.155690 -0.289236 0.944512
vn -0.011464 0.345442 0.938370
vn 0.535514 0.118989 0.836102
vn -0.436286 -0.048959 0.898475
vn -0.452202 -0.118229 0.884045
vn -0.326517 -0.179985 0.927897
vn -0.498001 -0.004464 0.867165
vn 0.010156 0.336842 0.941506
vn 0.031046 0.355911 0.934004
vn -0.003461 0.354999 0.934860
vn -0.390690 0.011313 0.920453
vn -0.380080 0.109211 0.918484
vn -0.453195 0.049663 0.890027
vn -0.055382 0.313196 0.948072
vn -0.200819 0.223194 0.953864
vn -0.137228 0.111130 0.984286
vn -0.019704 0.359452 0.932955
vn 0.170853 -0.427212 0.887862
vn 0.007961 0.365955 0.930598
vn -0.037324 0.346003 0.937491
vn 0.000443 0.357188 0.934032
vn 0.303896 0.085126 0.948895
vn 0.181781 0.231321 0.955744
vn 0.091063 0.079087 0.992700
vn 0.222728 -0.201026 0.953929
vn 0.006898 0.361584 0.932314
vn 0.514307 0.035701 0.856863
vn 0.440146 0.140491 0.886867
vn 0.325998 0.212239 0.921238
vn 0.514294 0.028846 0.857129
vn -0.098568 0.308344 0.946155
vn 0.203145 0.364436 0.908801
vn 0.521421 0.042096 0.852261
vn -0.035246 -0.272993 0.961370
vn -0.111460 -0.156365 0.981390
vn -0.133410 -0.239803 0.961611
vn -0.031405 -0.344485 0.938266
vn -0.086148 -0.342391 0.935600
vn -0.028078 -0.395045 0.918233
vn 0.091222 -0.190165 0.977505
vn 0.039245 -0.076831 0.996271
vn -0.168027 -0.000000 0.985782
vn 0.000000 0.055558 0.998455
vn 0.015659 0.374152 0.927235
vn 0.021455 -0.378161 0.925491
vn 0.154896 -0.344113 0.926063
vn 0.016837 -0.401948 0.915508
vn 0.390452 -0.112162 0.913765
vn 0.348963 -0.249476 0.903320
vn 0.524845 -0.046530 0.849925
vn 0.004508 0.361823 0.932236
vn 0.000000 -0.063253 0.997998
vn 0.195176 -0.269894 0.942902
vn 0.441746 -0.253841 0.860480
vn 0.058913 -0.340474 0.938407
vn -0.053683 -0.403666 0.913330
vn 0.237319 -0.110436 0.965134
vn -0.063273 -0.364543 0.929034
vn -0.326219 -0.073043 0.942468
vn -0.001449 0.348785 0.937202
vn 0.448249 0.090476 0.889318
vn -0.099810 -0.390285 0.915268
vn -0.319528 0.058430 0.945774
vn 0.050761 0.289911 0.955707
vn -0.473905 0.146322 0.868334
vn 0.276424 0.238057 0.931085
vn -0.246993 0.359982 0.899670
vn 0.318790 -0.086663 0.943855
vn -0.254715 0.086916 0.963102
vn 0.095171 0.319925 0.942651
vn 0.367930 -0.181662 0.911935
vn -0.019760 0.139975 0.989958
vn -0.390831 -0.159841 0.906478
vn -0.235944 -0.356051 0.904189
vn 0.238678 0.325820 0.914808
vn 0.246799 -0.361875 0.898964
vn 0.114322 0.344656 0.931742
vn -0.129267 -0.352534 0.926828
vn -0.276163 0.253397 0.927105
vn 0.007072 0.343288 0.939204
vn 0.036848 0.356679 0.933500
vn 0.056264 -0.405130 0.912526
vn -0.008949 -0.042292 0.999065
vn 0.362453 -0.440058 0.821570
vn 0.559604 -0.218644 0.799399
vn -0.054851 -0.257831 0.964632
vn -0.066466 -0.369709 0.926767
vn -0.267421 -0.390688 0.880823
vn 0.574861 -0.053017 0.816531
vn -0.011247 -0.386140 0.922372
vn -0.445613 0.129696 0.885781
vn -0.031138 0.344516 0.938264
vn 0.396246 0.179814 0.900364
vn 0.055577 0.000000 0.998454
vn 0.049152 0.357131 0.932760
vn -0.010955 -0.395302 0.918486
f 1/1/1 113/113/113 66/66/66
f 31/31/31 137/137/137 113/113/113
f 109/109/109 157/157/157 49/49/49
f 76/76/76 112/112/112 164/164/164
f 84/84/84 151/151/151 41/41/41
f 112/112/112 114/114/114 31/31/31
f 114/114/114 47/47/47 31/31/31
f 84/84/84 152/152/152 58/58/58
f 137/137/137 66/66/66 113/113/113
f 164/164/164 112/112/112 31/31/31
f 150/150/150 104/104/104 63/63/63
f 161/161/161 145/145/145 147/147/147
f 170/170/170 109/109/109 49/49/49
f 164/164/164 31/31/31 113/113/113
f 42/42/42 114/114/114 112/112/112
f 76/76/76 113/113/113 1/1/1
f 76/76/76 164/164/164 113/113/113
f 15/15/15 112/112/112 76/76/76
f 115/115/115 15/15/15 75/75/75
f 146/146/146 162/162/162 163/163/163
f 60/60/60 150/150/150 63/63/63
f 125/125/125 62/62/62 117/117/117
f 22/22/22 30/30/30 136/136/136
f 162/162/162 51/51/51 163/163/163
f 32/32/32 165/165/165 136/136/136
f 22/22/22 136/136/136 165/165/165
f 161/161/161 95/95/95 145/145/145
f 112/112/112 15/15/15 42/42/42
f 103/103/103 44/44/44 25/25/25
f 116/116/116 30/30/30 22/22/22
f 160/160/160 5/5/5 60/60/60
f 12/12/12 114/114/114 42/42/42
f 156/156/156 116/116/116 22/22/22
f 156/156/156 152/152/152 12/12/12
f 156/156/156 12/12/12 116/116/116
f 147/147/147 134/134/134 161/161/161
f 168/168/168 165/165/165 32/32/32
f 170/170/170 138/138/138 109/109/109
f 156/156/156 22/22/22 165/165/165
f 140/140/140 165/165/165 168/168/168
f 146/146/146 81/81/81 110/110/110
f 82/82/82 137/137/137 47/47/47
f 150/150/150 146/146/146 80/80/80
f 51/51/51 162/162/162 96/96/96
f 134/134/134 140/140/140 168/168/168
f 140/140/140 152/152/152 156/156/156
f 140/140/140 156/156/156 165/165/165
f 69/69/69 94/94/94 92/92/92
f 152/152/152 166/166/166 58/58/58
f 167/167/167 106/106/106 81/81/81
f 104/104/104 80/80/80 34/34/34
f 170/170/170 53/53/53 138/138/138
f 27/27/27 125/125/125 133/133/133
f 45/45/45 98/98/98 36/36/36
f 134/134/134 166/166/166 140/140/140
f 81/81/81 153/153/153 110/110/110
f 38/38/38 92/92/92 94/94/94
f 99/99/99 36/36/36 56/56/56
f 83/83/83 58/58/58 54/54/54
f 23/23/23 29/29/29 118/118/118
f 151/151/151 58/58/58 83/83/83
f 146/146/146 110/110/110 80/80/80
f 84/84/84 12/12/12 152/152/152
f 84/84/84 58/58/58 151/151/151
f 47/47/47 114/114/114 84/84/84
f 84/84/84 114/114/114 12/12/12
f 47/47/47 84/84/84 41/41/41
f 82/82/82 47/47/47 41/41/41
f 36/36/36 99/99/99 129/129/129
f 20/20/20 137/137/137 82/82/82
f 70/70/70 129/129/129 99/99/99
f 20/20/20 66/66/66 137/137/137
f 55/55/55 20/20/20 82/82/82
f 98/98/98 138/138/138 36/36/36
f 171/171/171 33/33/33 139/139/139
f 102/102/102 68/68/68 35/35/35
f 94/94/94 69/69/69 3/3/3
f 130/130/130 2/2/2 119/119/119
f 2/2/2 72/72/72 119/119/119
f 53/53/53 56/56/56 36/36/36
f 92/92/92 18/18/18 69/69/69
f 21/21/21 141/141/141 65/65/65
f 139/139/139 43/43/43 171/171/171
f 62/62/62 136/136/136 117/117/117
f 122/122/122 53/53/53 97/97/97
f 42/42/42 115/115/115 116/116/116
f 122/122/122 97/97/97 159/159/159
f 135/135/135 126/126/126 44/44/44
f 109/109/109 98/98/98 10/10/10
f 89/89/89 39/39/39 48/48/48
f 152/152/152 140/140/140 166/166/166
f 129/129/129 45/45/45 36/36/36
f 48/48/48 38/38/38 141/141/141
f 123/123/123 32/32/32 62/62/62
f 130/130/130 119/119/119 77/77/77
f 135/135/135 17/17/17 126/126/126
f 136/136/136 62/62/62 32/32/32
f 41/41/41 85/85/85 82/82/82
f 93/93/93 45/45/45 38/38/38
f 129/129/129 70/70/70 18/18/18
f 55/55/55 82/82/82 85/85/85
f 53/53/53 36/36/36 138/138/138
f 92/92/92 38/38/38 45/45/45
f 145/145/145 24/24/24 147/147/147
f 18/18/18 92/92/92 129/129/129
f 29/29/29 23/23/23 119/119/119
f 48/48/48 141/141/141 89/89/89
f 45/45/45 129/129/129 92/92/92
f 21/21/21 89/89/89 141/141/141
f 6/6/6 91/91/91 64/64/64
f 105/105/105 139/139/139 33/33/33
f 149/149/149 44/44/44 126/126/126
f 46/46/46 101/101/101 142/142/142
f 93/93/93 38/38/38 48/48/48
f 39/39/39 169/169/169 90/90/90
f 37/37/37 24/24/24 145/145/145
f 24/24/24 59/59/59 83/83/83
f 120/120/120 65/65/65 94/94/94
f 54/54/54 147/147/147 24/24/24
f 77/77/77 23/23/23 118/118/118
f 37/37/37 145/145/145 49/49/49
f 157/157/157 90/90/90 169/169/169
f 123/123/123 27/27/27 61/61/61
f 124/124/124 61/61/61 27/27/27
f 60/60/60 168/168/168 160/160/160
f 16/16/16 100/100/100 139/139/139
f 56/56/56 53/53/53 122/122/122
f 6/6/6 55/55/55 85/85/85
f 5/5/5 96/96/96 162/162/162
f 24/24/24 83/83/83 54/54/54
f 24/24/24 143/143/143 59/59/59
f 143/143/143 169/169/169 39/39/39
f 3/3/3 120/120/120 94/94/94
f 79/79/79 118/118/118 131/131/131
f 30/30/30 116/116/116 115/115/115
f 29/29/29 131/131/131 118/118/118
f 157/157/157 169/169/169 37/37/37
f 135/135/135 103/103/103 29/29/29
f 95/95/95 49/49/49 145/145/145
f 135/135/135 72/72/72 17/17/17
f 37/37/37 169/169/169 143/143/143
f 37/37/37 143/143/143 24/24/24
f 157/157/157 37/37/37 49/49/49
f 157/157/157 10/10/10 90/90/90
f 109/109/109 138/138/138 98/98/98
f 109/109/109 10/10/10 157/157/157
f 135/135/135 44/44/44 103/103/103
f 170/170/170 97/97/97 53/53/53
f 27/27/27 123/123/123 125/125/125
f 62/62/62 125/125/125 123/123/123
f 151/151/151 83/83/83 41/41/41
f 139/139/139 100/100/100 43/43/43
f 110/110/110 34/34/34 80/80/80
f 121/121/121 68/68/68 102/102/102
f 173/173/173 57/57/57 104/104/104
f 40/40/40 46/46/46 86/86/86
f 57/57/57 97/97/97 170/170/170
f 57/57/57 170/170/170 95/95/95
f 78/78/78 125/125/125 9/9/9
f 131/131/131 13/13/13 79/79/79
f 74/74/74 16/16/16 139/139/139
f 110/110/110 155/155/155 34/34/34
f 87/87/87 46/46/46 40/40/40
f 147/147/147 166/166/166 134/134/134
f 110/110/110 153/153/153 155/155/155
f 108/108/108 111/111/111 52/52/52
f 173/173/173 97/97/97 57/57/57
f 34/34/34 173/173/173 104/104/104
f 4/4/4 121/121/121 102/102/102
f 107/107/107 106/106/106 33/33/33
f 11/11/11 155/155/155 144/144/144
f 155/155/155 173/173/173 34/34/34
f 64/64/64 91/91/91 89/89/89
f 106/106/106 153/153/153 81/81/81
f 143/143/143 39/39/39 59/59/59
f 158/158/158 104/104/104 57/57/57
f 50/50/50 160/160/160 168/168/168
f 95/95/95 158/158/158 57/57/57
f 158/158/158 95/95/95 63/63/63
f 104/104/104 158/158/158 63/63/63
f 154/154/154 51/51/51 96/96/96
f 167/167/167 111/111/111 106/106/106
f 33/33/33 106/106/106 111/111/111
f 107/107/107 33/33/33 171/171/171
f 167/167/167 132/132/132 28/28/28
f 64/64/64 89/89/89 21/21/21
f 105/105/105 33/33/33 111/111/111
f 45/45/45 93/93/93 98/98/98
f 105/105/105 111/111/111 108/108/108
f 147/147/147 54/54/54 166/166/166
f 74/74/74 108/108/108 8/8/8
f 58/58/58 166/166/166 54/54/54
f 74/74/74 105/105/105 108/108/108
f 93/93/93 10/10/10 98/98/98
f 174/174/174 161/161/161 134/134/134
f 11/11/11 144/144/144 107/107/107
f 43/43/43 107/107/107 171/171/171
f 144/144/144 155/155/155 153/153/153
f 144/144/144 153/153/153 106/106/106
f 144/144/144 106/106/106 107/107/107
f 78/78/78 133/133/133 125/125/125
f 159/159/159 87/87/87 40/40/40
f 38/38/38 94/94/94 141/141/141
f 148/148/148 101/101/101 46/46/46
f 103/103/103 25/25/25 131/131/131
f 65/65/65 141/141/141 94/94/94
f 74/74/74 139/139/139 105/105/105
f 115/115/115 42/42/42 15/15/15
f 7/7/7 99/99/99 88/88/88
f 6/6/6 85/85/85 91/91/91
f 86/86/86 46/46/46 142/142/142
f 79/79/79 133/133/133 118/118/118
f 102/102/102 35/35/35 100/100/100
f 150/150/150 80/80/80 104/104/104
f 40/40/40 86/86/86 88/88/88
f 150/150/150 60/60/60 5/5/5
f 148/148/148 46/46/46 87/87/87
f 59/59/59 91/91/91 85/85/85
f 19/19/19 86/86/86 142/142/142
f 67/67/67 88/88/88 86/86/86
f 56/56/56 122/122/122 40/40/40
f 159/159/159 155/155/155 148/148/148
f 122/122/122 159/159/159 40/40/40
f 159/159/159 148/148/148 87/87/87
f 148/148/148 155/155/155 11/11/11
f 148/148/148 11/11/11 101/101/101
f 159/159/159 97/97/97 173/173/173
f 159/159/159 173/173/173 155/155/155
f 56/56/56 40/40/40 88/88/88
f 30/30/30 117/117/117 136/136/136
f 56/56/56 88/88/88 99/99/99
f 90/90/90 48/48/48 39/39/39
f 7/7/7 70/70/70 99/99/99
f 67/67/67 7/7/7 88/88/88
f 19/19/19 67/67/67 86/86/86
f 68/68/68 19/19/19 142/142/142
f 73/73/73 102/102/102 100/100/100
f 59/59/59 85/85/85 83/83/83
f 172/172/172 4/4/4 102/102/102
f 73/73/73 172/172/172 102/102/102
f 16/16/16 73/73/73 100/100/100
f 79/79/79 124/124/124 133/133/133
f 142/142/142 35/35/35 68/68/68
f 91/91/91 59/59/59 39/39/39
f 128/128/128 26/26/26 71/71/71
f 28/28/28 128/128/128 52/52/52
f 131/131/131 25/25/25 13/13/13
f 60/60/60 63/63/63 174/174/174
f 161/161/161 174/174/174 63/63/63
f 126/126/126 17/17/17 71/71/71
f 132/132/132 26/26/26 28/28/28
f 128/128/128 71/71/71 8/8/8
f 23/23/23 77/77/77 119/119/119
f 167/167/167 28/28/28 52/52/52
f 26/26/26 128/128/128 28/28/28
f 115/115/115 75/75/75 30/30/30
f 117/117/117 30/30/30 75/75/75
f 95/95/95 170/170/170 49/49/49
f 100/100/100 35/35/35 43/43/43
f 103/103/103 131/131/131 29/29/29
f 35/35/35 142/142/142 101/101/101
f 101/101/101 43/43/43 35/35/35
f 13/13/13 25/25/25 127/127/127
f 149/149/149 126/126/126 26/26/26
f 149/149/149 26/26/26 127/127/127
f 51/51/51 127/127/127 132/132/132
f 118/118/118 133/133/133 14/14/14
f 27/27/27 133/133/133 124/124/124
f 79/79/79 13/13/13 124/124/124
f 163/163/163 132/132/132 167/167/167
f 132/132/132 127/127/127 26/26/26
f 167/167/167 52/52/52 111/111/111
f 163/163/163 167/167/167 81/81/81
f 63/63/63 95/95/95 161/161/161
f 146/146/146 163/163/163 81/81/81
f 150/150/150 5/5/5 146/146/146
f 96/96/96 160/160/160 50/50/50
f 50/50/50 168/168/168 32/32/32
f 128/128/128 8/8/8 52/52/52
f 96/96/96 5/5/5 160/160/160
f 108/108/108 52/52/52 8/8/8
f 124/124/124 154/154/154 61/61/61
f 12/12/12 42/42/42 116/116/116
f 123/123/123 50/50/50 32/32/32
f 96/96/96 50/50/50 61/61/61
f 126/126/126 71/71/71 26/26/26
f 77/77/77 118/118/118 14/14/14
f 154/154/154 127/127/127 51/51/51
f 162/162/162 146/146/146 5/5/5
f 51/51/51 132/132/132 163/163/163
f 85/85/85 41/41/41 83/83/83
f 154/154/154 96/96/96 61/61/61
f 154/154/154 13/13/13 127/127/127
f 124/124/124 13/13/13 154/154/154
f 149/149/149 127/127/127 44/44/44
f 25/25/25 44/44/44 127/127/127
f 10/10/10 93/93/93 90/90/90
f 123/123/123 61/61/61 50/50/50
f 29/29/29 119/119/119 135/135/135
f 72/72/72 135/135/135 119/119/119
f 137/137/137 31/31/31 47/47/47
f 9/9/9 117/117/117 75/75/75
f 9/9/9 125/125/125 117/117/117
f 48/48/48 90/90/90 93/93/93
f 14/14/14 133/133/133 78/78/78
f 39/39/39 89/89/89 91/91/91
f 168/168/168 174/174/174 134/134/134
f 174/174/174 168/168/168 60/60/60
f 101/101/101 107/107/107 43/43/43
f 107/107/107 101/101/101 11/11/11
