# frame 000936 
# time 0.468500 
# name Cloth3D 
v -0.000000 0.000000 -0.000000
v 1.000000 0.000000 -0.000000
v -0.000000 1.000000 0.000000
v 1.000000 1.000000 0.000000
v 0.655158 0.409826 0.169674
v -0.000000 0.500000 0.000000
v 0.500000 1.000000 0.000000
v 1.000000 0.500000 0.000000
v 0.500000 -0.000000 0.000000
v 0.244805 0.753457 0.085402
v 0.755931 0.751773 0.080821
v 0.245831 0.248913 0.079322
v 0.754965 0.249456 0.079381
v 0.750000 0.000000 0.000000
v 0.250000 0.000000 0.000000
v 1.000000 0.750000 0.000000
v 1.000000 0.250000 0.000000
v 0.250000 1.000000 0.000000
v 0.750000 1.000000 0.000000
v 0.000000 0.250000 0.000000
v 0.000000 0.750000 -0.000000
v 0.363559 0.219189 0.085805
v 0.874508 0.063478 0.006426
v 0.231279 0.515002 0.132978
v 0.816022 0.251065 0.059075
v 0.883378 0.375530 0.063722
v 0.625833 0.123293 0.052010
v 0.885881 0.437866 0.071432
v 0.874733 0.126153 0.018214
v 0.374876 0.124531 0.048644
v 0.122864 0.123180 0.032019
v 0.493116 0.249275 0.105650
v 0.885617 0.625909 0.067934
v 0.633856 0.623610 0.140469
v 0.877551 0.877081 0.031215
v 0.374389 0.875210 0.046678
v 0.251571 0.600988 0.123645
v 0.122683 0.876640 0.031148
v 0.122230 0.624541 0.053504
v 0.625908 0.874719 0.045660
v 0.116978 0.374123 0.064475
v 0.249287 0.124585 0.039550
v 0.879866 0.751060 0.047667
v 0.877779 0.251104 0.040985
v 0.248251 0.877849 0.046596
v 0.751709 0.876290 0.041753
v 0.119559 0.248561 0.051044
v 0.120735 0.751111 0.049023
v 0.314824 0.594265 0.147900
v 0.586751 0.303194 0.126559
v 0.748948 0.364262 0.124576
v 0.885769 0.500193 0.072796
v 0.435078 0.771605 0.087980
v 0.232689 0.454032 0.136698
v 0.000000 0.375000 0.000000
v 0.500246 0.874686 0.048123
v 0.501542 0.623273 0.146087
v 0.239627 0.373316 0.117333
v 0.116240 0.499629 0.068645
v 0.522964 0.410848 0.171730
v 0.629299 0.247510 0.103799
v 0.500431 0.122902 0.055723
v 0.497969 0.476807 0.200655
v 0.000000 0.625000 0.000000
v 0.000000 0.875000 0.000000
v 0.000000 0.125000 0.000000
v 0.625000 1.000000 0.000000
v 0.875000 1.000000 0.000000
v 0.125000 1.000000 0.000000
v 0.375000 1.000000 0.000000
v 1.000000 0.375000 0.000000
v 1.000000 0.125000 0.000000
v 1.000000 0.875000 0.000000
v 1.000000 0.625000 0.000000
v 0.375000 0.000000 0.000000
v 0.125000 0.000000 0.000000
v 0.875000 0.000000 0.000000
v 0.625000 0.000000 0.000000
v 0.750439 0.125014 0.037772
v 0.642078 0.498350 0.194318
v 0.783697 0.515636 0.146589
v 0.059302 0.312261 0.028882
v 0.174694 0.436299 0.102934
v 0.179147 0.310401 0.083334
v 0.058247 0.437296 0.033800
v 0.687870 0.938337 0.023761
v 0.690345 0.812839 0.065208
v 0.562661 0.937359 0.023634
v 0.061584 0.687321 0.023998
v 0.181504 0.688937 0.077989
v 0.060516 0.562042 0.029130
v 0.186801 0.939006 0.021158
v 0.183293 0.815761 0.058426
v 0.061970 0.937924 0.009911
v 0.433249 0.559990 0.168124
v 0.682653 0.357318 0.139283
v 0.508083 0.724562 0.107579
v 0.310220 0.815096 0.071129
v 0.437506 0.936621 0.021649
v 0.938970 0.812883 0.019360
v 0.816543 0.814713 0.054087
v 0.937437 0.937399 0.004128
v 0.876052 0.188547 0.029745
v 0.570011 0.559539 0.167555
v 0.942335 0.625189 0.033043
v 0.833214 0.592010 0.098081
v 0.822138 0.689276 0.083194
v 0.942053 0.562493 0.034041
v 0.313857 0.703313 0.110102
v 0.697153 0.581924 0.149030
v 0.884250 0.562756 0.068392
v 0.187257 0.062173 0.017514
v 0.061945 0.061898 0.010715
v 0.184550 0.186190 0.051953
v 0.312602 0.062309 0.022215
v 0.310501 0.185170 0.071680
v 0.437657 0.061124 0.028134
v 0.811946 0.063307 0.012447
v 0.937167 0.062957 0.004737
v -0.000000 0.937500 0.000000
v 0.937500 1.000000 0.000000
v 0.525800 0.802839 0.073383
v 0.564061 0.185687 0.080166
v 0.689748 0.186759 0.068264
v 0.562603 0.061748 0.026862
v 0.940283 0.313230 0.026725
v 0.819218 0.313261 0.076547
v 0.942607 0.437896 0.035000
v 0.312175 0.938020 0.022959
v 0.937500 0.000000 -0.000000
v 0.813163 0.189400 0.040218
v 0.811250 0.372898 0.096743
v 0.687380 0.061795 0.023742
v 0.394502 0.374355 0.154468
v 0.937281 0.188559 0.012380
v 0.437295 0.185650 0.079719
v 0.060748 0.186994 0.020990
v 0.378182 0.769832 0.089421
v 0.941339 0.687644 0.029195
v 0.372911 0.316102 0.127772
v 0.059179 0.813133 0.025642
v 0.813355 0.939306 0.021863
v 0.178417 0.562177 0.094122
v 0.777558 0.649781 0.106858
v 0.315964 0.532449 0.172908
v 0.720079 0.477611 0.200774
v 0.320286 0.475929 0.200776
v 0.723085 0.773855 0.079932
v 0.879549 0.313609 0.050684
v 0.623265 0.477306 0.200687
v 0.177668 0.373517 0.092035
v 0.289243 0.330505 0.118552
v 0.725233 0.606514 0.132846
v 0.720834 0.300470 0.104833
v 0.676277 0.668348 0.118553
v 0.326832 0.274585 0.104493
v 0.273624 0.659095 0.116245
v 0.501586 0.560101 0.168892
v 0.614495 0.770619 0.085649
v 0.603589 0.365438 0.151803
v 0.414381 0.476457 0.200654
v 0.819033 0.752069 0.068092
v 0.780517 0.452769 0.146699
v 0.124412 0.062120 0.013891
v 0.416840 0.255636 0.104916
v 0.308813 0.386088 0.149697
v 0.831278 0.481303 0.114956
v 0.477506 0.360749 0.150881
v 0.180842 0.625270 0.084664
v 0.412025 0.660148 0.127856
v 0.882082 0.688407 0.056724
v 1.000000 0.937500 0.000000
v 0.592118 0.674203 0.122449
v 0.447075 0.417260 0.174744
v 0.734591 0.420190 0.161838
vt 0.000000 0.000000
vt 1.000000 0.000000
vt 0.000000 1.000000
vt 1.000000 1.000000
vt 0.639940 0.411013
vt 0.000000 0.500000
vt 0.500000 1.000000
vt 1.000000 0.500000
vt 0.500000 0.000000
vt 0.250000 0.750000
vt 0.750000 0.750000
vt 0.250000 0.250000
vt 0.750000 0.250000
vt 0.750000 0.000000
vt 0.250000 0.000000
vt 1.000000 0.750000
vt 1.000000 0.250000
vt 0.250000 1.000000
vt 0.750000 1.000000
vt 0.000000 0.250000
vt 0.000000 0.750000
vt 0.365347 0.220303
vt 0.875000 0.062500
vt 0.245672 0.515386
vt 0.812500 0.250000
vt 0.875000 0.375000
vt 0.625000 0.125000
vt 0.875000 0.437500
vt 0.875000 0.125000
vt 0.375000 0.125000
vt 0.125000 0.125000
vt 0.492214 0.250470
vt 0.875000 0.625000
vt 0.625000 0.625000
vt 0.875000 0.875000
vt 0.375000 0.875000
vt 0.262101 0.599801
vt 0.125000 0.875000
vt 0.125000 0.625000
vt 0.625000 0.875000
vt 0.125000 0.375000
vt 0.250000 0.125000
vt 0.875000 0.750000
vt 0.875000 0.250000
vt 0.250000 0.875000
vt 0.750000 0.875000
vt 0.125000 0.250000
vt 0.125000 0.750000
vt 0.325445 0.593646
vt 0.581754 0.304126
vt 0.736041 0.365469
vt 0.875000 0.500000
vt 0.435664 0.771773
vt 0.248222 0.455442
vt 0.000000 0.375000
vt 0.500000 0.875000
vt 0.500000 0.625000
vt 0.250000 0.375000
vt 0.125000 0.500000
vt 0.519707 0.411902
vt 0.625000 0.250000
vt 0.500000 0.125000
vt 0.497207 0.479545
vt 0.000000 0.625000
vt 0.000000 0.875000
vt 0.000000 0.125000
vt 0.625000 1.000000
vt 0.875000 1.000000
vt 0.125000 1.000000
vt 0.375000 1.000000
vt 1.000000 0.375000
vt 1.000000 0.125000
vt 1.000000 0.875000
vt 1.000000 0.625000
vt 0.375000 0.000000
vt 0.125000 0.000000
vt 0.875000 0.000000
vt 0.625000 0.000000
vt 0.750000 0.125000
vt 0.625000 0.500000
vt 0.760524 0.515669
vt 0.062500 0.312500
vt 0.187500 0.437500
vt 0.187500 0.312500
vt 0.062500 0.437500
vt 0.687500 0.937500
vt 0.687500 0.812500
vt 0.562500 0.937500
vt 0.062500 0.687500
vt 0.187500 0.687500
vt 0.062500 0.562500
vt 0.187500 0.937500
vt 0.187500 0.812500
vt 0.062500 0.937500
vt 0.437500 0.562500
vt 0.671367 0.358455
vt 0.506884 0.725192
vt 0.312500 0.812500
vt 0.437500 0.937500
vt 0.937500 0.812500
vt 0.812500 0.812500
vt 0.937500 0.937500
vt 0.875000 0.187500
vt 0.562500 0.562500
vt 0.937500 0.625000
vt 0.819332 0.591237
vt 0.812500 0.687500
vt 0.937500 0.562500
vt 0.319123 0.700934
vt 0.682510 0.583771
vt 0.875000 0.562500
vt 0.187500 0.062500
vt 0.062500 0.062500
vt 0.187500 0.187500
vt 0.312500 0.062500
vt 0.312500 0.187500
vt 0.437500 0.062500
vt 0.812500 0.062500
vt 0.937500 0.062500
vt 0.000000 0.937500
vt 0.937500 1.000000
vt 0.525016 0.804189
vt 0.562500 0.187500
vt 0.687500 0.187500
vt 0.562500 0.062500
vt 0.937500 0.312500
vt 0.812500 0.312500
vt 0.937500 0.437500
vt 0.312500 0.937500
vt 0.937500 0.000000
vt 0.812500 0.187500
vt 0.800716 0.372483
vt 0.687500 0.062500
vt 0.400647 0.375957
vt 0.937500 0.187500
vt 0.437500 0.187500
vt 0.062500 0.187500
vt 0.380019 0.768564
vt 0.937500 0.687500
vt 0.377625 0.317694
vt 0.062500 0.812500
vt 0.812500 0.937500
vt 0.187500 0.562500
vt 0.765906 0.648544
vt 0.331404 0.533038
vt 0.690684 0.479438
vt 0.341378 0.478129
vt 0.718294 0.771897
vt 0.875000 0.312500
vt 0.608483 0.479424
vt 0.187500 0.375000
vt 0.296906 0.332149
vt 0.711873 0.607167
vt 0.713437 0.300753
vt 0.668274 0.669022
vt 0.331126 0.276226
vt 0.281585 0.657008
vt 0.500000 0.562500
vt 0.611736 0.771102
vt 0.595175 0.366343
vt 0.423175 0.479356
vt 0.812500 0.750000
vt 0.758105 0.454518
vt 0.125000 0.062500
vt 0.418341 0.256674
vt 0.320334 0.388669
vt 0.812755 0.481587
vt 0.477835 0.361491
vt 0.187500 0.625000
vt 0.414679 0.661630
vt 0.875000 0.687500
vt 1.000000 0.937500
vt 0.587160 0.675778
vt 0.450521 0.418925
vt 0.713353 0.422290
vn -0.085428 -0.085428 0.992675
vn 0.026978 -0.053956 0.998179
vn -0.102303 0.051151 0.993437
vn 0.035676 0.035676 0.998726
vn 0.078529 -0.443881 0.892638
vn -0.469307 0.020813 0.882790
vn -0.008458 0.337402 0.941323
vn 0.523166 0.008289 0.852191
vn 0.005494 -0.407851 0.913032
vn -0.183264 0.253115 0.949920
vn 0.166219 0.256694 0.952092
vn -0.184180 -0.303067 0.935002
vn 0.258566 -0.297498 0.919042
vn 0.044222 -0.281211 0.958627
vn -0.017119 -0.301113 0.953435
vn 0.375285 0.035791 0.926218
vn 0.303902 -0.056544 0.951024
vn -0.004787 0.332513 0.943087
vn 0.005553 0.347465 0.937677
vn -0.379150 -0.030287 0.924839
vn -0.378447 -0.008156 0.925587
vn -0.062867 -0.358839 0.931280
vn 0.059797 -0.146144 0.987454
vn -0.501758 0.136986 0.854092
vn 0.279856 -0.267897 0.921907
vn 0.433756 -0.162368 0.886280
vn 0.051569 -0.377696 0.924493
vn 0.528814 -0.086966 0.844271
vn 0.140464 -0.165311 0.976188
vn -0.053184 -0.372865 0.926360
vn -0.128369 -0.216208 0.967872
vn -0.013545 -0.368025 0.929717
vn 0.472841 0.081924 0.877331
vn 0.075944 0.374308 0.924190
vn 0.204228 0.188609 0.960582
vn 0.001518 0.367875 0.929874
vn -0.381727 0.243210 0.891702
vn -0.167234 0.200876 0.965237
vn -0.441540 0.089751 0.892742
vn 0.018571 0.331962 0.943110
vn -0.451261 -0.100930 0.886666
vn -0.093064 -0.313149 0.945133
vn 0.350721 0.156524 0.923307
vn 0.314534 -0.172444 0.933451
vn -0.054430 0.326560 0.943608
vn 0.041360 0.296129 0.954252
vn -0.331165 -0.143604 0.932581
vn -0.331361 0.076197 0.940422
vn -0.207821 0.333797 0.919451
vn 0.036408 -0.371790 0.927603
vn 0.331818 -0.394892 0.856713
vn 0.568912 0.029254 0.821878
vn 0.004404 0.359651 0.933077
vn -0.498731 -0.108057 0.859995
vn -0.469459 -0.020877 0.882707
vn 0.005899 0.356734 0.934187
vn 0.000979 0.355743 0.934583
vn -0.347803 -0.248070 0.904154
vn -0.507041 0.061696 0.859711
vn 0.004657 -0.396302 0.918108
vn 0.089961 -0.366518 0.926052
vn 0.005844 -0.390062 0.920770
vn 0.001738 -0.083207 0.996531
vn -0.398855 0.019655 0.916803
vn -0.251913 0.050485 0.966432
vn -0.247871 -0.039808 0.967975
vn -0.001295 0.355159 0.934805
vn 0.054517 0.196783 0.978930
vn -0.044461 0.240009 0.969752
vn 0.005254 0.331570 0.943416
vn 0.473495 -0.033126 0.880173
vn 0.138976 -0.029522 0.989856
vn 0.167857 0.048739 0.984606
vn 0.486571 0.022237 0.873358
vn -0.022679 -0.370594 0.928518
vn -0.033651 -0.214535 0.976136
vn 0.033589 -0.114386 0.992868
vn 0.009755 -0.380792 0.924609
vn 0.153233 -0.292598 0.943878
vn -0.011053 0.340975 0.940007
vn 0.537142 0.130244 0.833375
vn -0.439550 -0.052480 0.896684
vn -0.451368 -0.106559 0.885953
vn -0.326754 -0.189369 0.925943
vn -0.501849 -0.007395 0.864924
vn 0.007481 0.328675 0.944413
vn 0.023449 0.354668 0.934698
vn 0.000446 0.348075 0.937467
vn -0.387768 0.013071 0.921664
vn -0.363429 0.114299 0.924584
vn -0.455919 0.053530 0.888410
vn -0.054404 0.296779 0.953395
vn -0.193735 0.225825 0.954709
vn -0.127992 0.105070 0.986194
vn -0.030579 0.359884 0.932496
vn 0.169715 -0.428520 0.887450
vn 0.007917 0.369437 0.929222
vn -0.039893 0.341052 0.939198
vn -0.004623 0.352835 0.935674
vn 0.311661 0.081059 0.946730
vn 0.183276 0.229258 0.955955
vn 0.096008 0.085784 0.991677
vn 0.231192 -0.190996 0.953976
vn 0.014689 0.363716 0.931394
vn 0.505565 0.034049 0.862116
vn 0.453471 0.132397 0.881382
vn 0.315462 0.212874 0.924753
vn 0.511467 0.020523 0.859058
vn -0.111183 0.305183 0.945781
vn 0.201255 0.371574 0.906327
vn 0.527018 0.044333 0.848697
vn -0.042047 -0.267058 0.962763
vn -0.101542 -0.151139 0.983283
vn -0.135832 -0.246031 0.959697
vn -0.034874 -0.343219 0.938608
vn -0.091375 -0.342455 0.935080
vn -0.024878 -0.394840 0.918413
vn 0.084195 -0.200214 0.976128
vn 0.048195 -0.085820 0.995144
vn -0.152743 -0.000000 0.988266
vn 0.000000 0.071234 0.997460
vn 0.018871 0.363842 0.931269
vn 0.016909 -0.379567 0.925010
vn 0.145313 -0.347157 0.926480
vn 0.014884 -0.397660 0.917412
vn 0.382867 -0.112305 0.916951
vn 0.361334 -0.248724 0.898651
vn 0.521610 -0.041382 0.852180
vn 0.001283 0.348985 0.937128
vn 0.000000 -0.080762 0.996733
vn 0.206646 -0.264232 0.942061
vn 0.438285 -0.250009 0.863367
vn 0.053772 -0.345137 0.937011
vn -0.051447 -0.410928 0.910215
vn 0.239038 -0.105367 0.965276
vn -0.055093 -0.367591 0.928354
vn -0.322697 -0.073991 0.943606
vn -0.007052 0.348751 0.937189
vn 0.446517 0.085325 0.890698
vn -0.100341 -0.390341 0.915186
vn -0.309954 0.063645 0.948619
vn 0.045531 0.290233 0.955872
vn -0.463210 0.159501 0.871778
vn 0.262976 0.234690 0.935823
vn -0.242526 0.370933 0.896432
vn 0.319267 -0.097974 0.942587
vn -0.253152 0.081747 0.963967
vn 0.096898 0.306494 0.946928
vn 0.377028 -0.183269 0.907889
vn -0.019834 0.121699 0.992369
vn -0.392869 -0.152851 0.906802
vn -0.228245 -0.359388 0.904845
vn 0.232183 0.329136 0.915293
vn 0.244914 -0.355296 0.902099
vn 0.111221 0.349066 0.930475
vn -0.129470 -0.354472 0.926060
vn -0.276143 0.258593 0.925675
vn 0.003333 0.348970 0.937128
vn 0.034205 0.357933 0.933120
vn 0.054546 -0.405558 0.912440
vn -0.010700 -0.052443 0.998567
vn 0.244750 0.232273 0.941354
vn 0.572827 -0.199810 0.794949
vn -0.050467 -0.248677 0.967271
vn -0.063959 -0.370487 0.926633
vn -0.264159 -0.389644 0.882268
vn 0.578423 -0.039384 0.814785
vn -0.009558 -0.392389 0.919750
vn -0.432209 0.139546 0.890911
vn -0.035467 0.348051 0.936804
vn 0.415003 0.155237 0.896479
vn 0.071287 0.000000 0.997456
vn 0.054671 0.360131 0.931298
vn -0.007796 -0.402346 0.915455
vn 0.371554 -0.440926 0.817026
f 1/1/1 113/113/113 66/66/66
f 31/31/31 137/137/137 113/113/113
f 109/109/109 157/157/157 49/49/49
f 76/76/76 112/112/112 164/164/164
f 84/84/84 151/151/151 41/41/41
f 112/112/112 114/114/114 31/31/31
f 114/114/114 47/47/47 31/31/31
f 84/84/84 152/152/152 58/58/58
f 137/137/137 66/66/66 113/113/113
f 164/164/164 112/112/112 31/31/31
f 150/150/150 104/104/104 63/63/63
f 161/161/161 145/145/145 147/147/147
f 170/170/170 109/109/109 49/49/49
f 164/164/164 31/31/31 113/113/113
f 42/42/42 114/114/114 112/112/112
f 76/76/76 113/113/113 1/1/1
f 76/76/76 164/164/164 113/113/113
f 15/15/15 112/112/112 76/76/76
f 115/115/115 15/15/15 75/75/75
f 162/162/162 101/101/101 11/11/11
f 60/60/60 150/150/150 63/63/63
f 125/125/125 62/62/62 117/117/117
f 22/22/22 30/30/30 136/136/136
f 107/107/107 162/162/162 11/11/11
f 32/32/32 165/165/165 136/136/136
f 22/22/22 136/136/136 165/165/165
f 161/161/161 95/95/95 145/145/145
f 112/112/112 15/15/15 42/42/42
f 103/103/103 44/44/44 25/25/25
f 116/116/116 30/30/30 22/22/22
f 160/160/160 5/5/5 60/60/60
f 12/12/12 114/114/114 42/42/42
f 156/156/156 116/116/116 22/22/22
f 156/156/156 152/152/152 12/12/12
f 156/156/156 12/12/12 116/116/116
f 147/147/147 134/134/134 161/161/161
f 168/168/168 165/165/165 32/32/32
f 170/170/170 138/138/138 109/109/109
f 156/156/156 22/22/22 165/165/165
f 140/140/140 165/165/165 168/168/168
f 146/146/146 81/81/81 110/110/110
f 82/82/82 137/137/137 47/47/47
f 150/150/150 146/146/146 80/80/80
f 101/101/101 162/162/162 43/43/43
f 134/134/134 140/140/140 168/168/168
f 140/140/140 152/152/152 156/156/156
f 140/140/140 156/156/156 165/165/165
f 69/69/69 94/94/94 92/92/92
f 152/152/152 166/166/166 58/58/58
f 167/167/167 106/106/106 81/81/81
f 104/104/104 80/80/80 34/34/34
f 170/170/170 53/53/53 138/138/138
f 27/27/27 125/125/125 133/133/133
f 45/45/45 98/98/98 36/36/36
f 134/134/134 166/166/166 140/140/140
f 81/81/81 153/153/153 110/110/110
f 38/38/38 92/92/92 94/94/94
f 99/99/99 36/36/36 56/56/56
f 83/83/83 58/58/58 54/54/54
f 23/23/23 29/29/29 118/118/118
f 151/151/151 58/58/58 83/83/83
f 146/146/146 110/110/110 80/80/80
f 84/84/84 12/12/12 152/152/152
f 84/84/84 58/58/58 151/151/151
f 47/47/47 114/114/114 84/84/84
f 84/84/84 114/114/114 12/12/12
f 47/47/47 84/84/84 41/41/41
f 82/82/82 47/47/47 41/41/41
f 36/36/36 99/99/99 129/129/129
f 20/20/20 137/137/137 82/82/82
f 70/70/70 129/129/129 99/99/99
f 20/20/20 66/66/66 137/137/137
f 55/55/55 20/20/20 82/82/82
f 98/98/98 138/138/138 36/36/36
f 171/171/171 33/33/33 139/139/139
f 102/102/102 68/68/68 35/35/35
f 94/94/94 69/69/69 3/3/3
f 130/130/130 2/2/2 119/119/119
f 2/2/2 72/72/72 119/119/119
f 53/53/53 56/56/56 36/36/36
f 92/92/92 18/18/18 69/69/69
f 21/21/21 141/141/141 65/65/65
f 139/139/139 43/43/43 171/171/171
f 62/62/62 136/136/136 117/117/117
f 122/122/122 53/53/53 97/97/97
f 42/42/42 115/115/115 116/116/116
f 122/122/122 97/97/97 159/159/159
f 135/135/135 126/126/126 44/44/44
f 109/109/109 98/98/98 10/10/10
f 89/89/89 39/39/39 48/48/48
f 152/152/152 140/140/140 166/166/166
f 129/129/129 45/45/45 36/36/36
f 48/48/48 38/38/38 141/141/141
f 123/123/123 32/32/32 62/62/62
f 130/130/130 119/119/119 77/77/77
f 135/135/135 17/17/17 126/126/126
f 136/136/136 62/62/62 32/32/32
f 41/41/41 85/85/85 82/82/82
f 93/93/93 45/45/45 38/38/38
f 129/129/129 70/70/70 18/18/18
f 55/55/55 82/82/82 85/85/85
f 53/53/53 36/36/36 138/138/138
f 92/92/92 38/38/38 45/45/45
f 145/145/145 24/24/24 147/147/147
f 18/18/18 92/92/92 129/129/129
f 29/29/29 23/23/23 119/119/119
f 48/48/48 141/141/141 89/89/89
f 45/45/45 129/129/129 92/92/92
f 21/21/21 89/89/89 141/141/141
f 6/6/6 91/91/91 64/64/64
f 105/105/105 139/139/139 33/33/33
f 149/149/149 44/44/44 126/126/126
f 46/46/46 101/101/101 142/142/142
f 93/93/93 38/38/38 48/48/48
f 39/39/39 169/169/169 90/90/90
f 37/37/37 24/24/24 145/145/145
f 24/24/24 59/59/59 83/83/83
f 120/120/120 65/65/65 94/94/94
f 54/54/54 147/147/147 24/24/24
f 77/77/77 23/23/23 118/118/118
f 37/37/37 145/145/145 49/49/49
f 157/157/157 90/90/90 169/169/169
f 123/123/123 27/27/27 61/61/61
f 124/124/124 61/61/61 27/27/27
f 60/60/60 168/168/168 160/160/160
f 16/16/16 100/100/100 139/139/139
f 56/56/56 53/53/53 122/122/122
f 6/6/6 55/55/55 85/85/85
f 162/162/162 107/107/107 43/43/43
f 24/24/24 83/83/83 54/54/54
f 24/24/24 143/143/143 59/59/59
f 143/143/143 169/169/169 39/39/39
f 3/3/3 120/120/120 94/94/94
f 79/79/79 118/118/118 131/131/131
f 30/30/30 116/116/116 115/115/115
f 29/29/29 131/131/131 118/118/118
f 157/157/157 169/169/169 37/37/37
f 135/135/135 103/103/103 29/29/29
f 95/95/95 49/49/49 145/145/145
f 135/135/135 72/72/72 17/17/17
f 37/37/37 169/169/169 143/143/143
f 37/37/37 143/143/143 24/24/24
f 157/157/157 37/37/37 49/49/49
f 157/157/157 10/10/10 90/90/90
f 109/109/109 138/138/138 98/98/98
f 109/109/109 10/10/10 157/157/157
f 135/135/135 44/44/44 103/103/103
f 170/170/170 97/97/97 53/53/53
f 27/27/27 123/123/123 125/125/125
f 62/62/62 125/125/125 123/123/123
f 151/151/151 83/83/83 41/41/41
f 139/139/139 100/100/100 43/43/43
f 110/110/110 34/34/34 80/80/80
f 121/121/121 68/68/68 102/102/102
f 173/173/173 57/57/57 104/104/104
f 40/40/40 46/46/46 86/86/86
f 57/57/57 97/97/97 170/170/170
f 57/57/57 170/170/170 95/95/95
f 78/78/78 125/125/125 9/9/9
f 131/131/131 13/13/13 79/79/79
f 74/74/74 16/16/16 139/139/139
f 110/110/110 155/155/155 34/34/34
f 87/87/87 46/46/46 40/40/40
f 147/147/147 166/166/166 134/134/134
f 110/110/110 153/153/153 155/155/155
f 108/108/108 111/111/111 52/52/52
f 173/173/173 97/97/97 57/57/57
f 34/34/34 173/173/173 104/104/104
f 4/4/4 121/121/121 102/102/102
f 107/107/107 106/106/106 33/33/33
f 11/11/11 155/155/155 144/144/144
f 155/155/155 173/173/173 34/34/34
f 64/64/64 91/91/91 89/89/89
f 106/106/106 153/153/153 81/81/81
f 143/143/143 39/39/39 59/59/59
f 158/158/158 104/104/104 57/57/57
f 50/50/50 160/160/160 168/168/168
f 95/95/95 158/158/158 57/57/57
f 158/158/158 95/95/95 63/63/63
f 104/104/104 158/158/158 63/63/63
f 154/154/154 51/51/51 96/96/96
f 167/167/167 111/111/111 106/106/106
f 33/33/33 106/106/106 111/111/111
f 107/107/107 33/33/33 171/171/171
f 167/167/167 132/132/132 28/28/28
f 64/64/64 89/89/89 21/21/21
f 105/105/105 33/33/33 111/111/111
f 45/45/45 93/93/93 98/98/98
f 105/105/105 111/111/111 108/108/108
f 147/147/147 54/54/54 166/166/166
f 74/74/74 108/108/108 8/8/8
f 58/58/58 166/166/166 54/54/54
f 74/74/74 105/105/105 108/108/108
f 93/93/93 10/10/10 98/98/98
f 174/174/174 161/161/161 134/134/134
f 11/11/11 144/144/144 107/107/107
f 43/43/43 107/107/107 171/171/171
f 144/144/144 155/155/155 153/153/153
f 144/144/144 153/153/153 106/106/106
f 144/144/144 106/106/106 107/107/107
f 78/78/78 133/133/133 125/125/125
f 159/159/159 87/87/87 40/40/40
f 38/38/38 94/94/94 141/141/141
f 148/148/148 101/101/101 46/46/46
f 103/103/103 25/25/25 131/131/131
f 65/65/65 141/141/141 94/94/94
f 74/74/74 139/139/139 105/105/105
f 115/115/115 42/42/42 15/15/15
f 7/7/7 99/99/99 88/88/88
f 6/6/6 85/85/85 91/91/91
f 86/86/86 46/46/46 142/142/142
f 79/79/79 133/133/133 118/118/118
f 102/102/102 35/35/35 100/100/100
f 150/150/150 80/80/80 104/104/104
f 40/40/40 86/86/86 88/88/88
f 150/150/150 60/60/60 5/5/5
f 148/148/148 46/46/46 87/87/87
f 59/59/59 91/91/91 85/85/85
f 19/19/19 86/86/86 142/142/142
f 67/67/67 88/88/88 86/86/86
f 56/56/56 122/122/122 40/40/40
f 159/159/159 155/155/155 148/148/148
f 122/122/122 159/159/159 40/40/40
f 159/159/159 148/148/148 87/87/87
f 148/148/148 155/155/155 11/11/11
f 148/148/148 11/11/11 101/101/101
f 159/159/159 97/97/97 173/173/173
f 159/159/159 173/173/173 155/155/155
f 56/56/56 40/40/40 88/88/88
f 30/30/30 117/117/117 136/136/136
f 56/56/56 88/88/88 99/99/99
f 90/90/90 48/48/48 39/39/39
f 7/7/7 70/70/70 99/99/99
f 67/67/67 7/7/7 88/88/88
f 19/19/19 67/67/67 86/86/86
f 68/68/68 19/19/19 142/142/142
f 73/73/73 102/102/102 100/100/100
f 59/59/59 85/85/85 83/83/83
f 172/172/172 4/4/4 102/102/102
f 73/73/73 172/172/172 102/102/102
f 16/16/16 73/73/73 100/100/100
f 79/79/79 124/124/124 133/133/133
f 142/142/142 35/35/35 68/68/68
f 91/91/91 59/59/59 39/39/39
f 128/128/128 26/26/26 71/71/71
f 28/28/28 128/128/128 52/52/52
f 131/131/131 25/25/25 13/13/13
f 60/60/60 63/63/63 174/174/174
f 161/161/161 174/174/174 63/63/63
f 126/126/126 17/17/17 71/71/71
f 132/132/132 26/26/26 28/28/28
f 128/128/128 71/71/71 8/8/8
f 23/23/23 77/77/77 119/119/119
f 167/167/167 28/28/28 52/52/52
f 26/26/26 128/128/128 28/28/28
f 115/115/115 75/75/75 30/30/30
f 117/117/117 30/30/30 75/75/75
f 95/95/95 170/170/170 49/49/49
f 100/100/100 35/35/35 43/43/43
f 103/103/103 131/131/131 29/29/29
f 35/35/35 142/142/142 101/101/101
f 101/101/101 43/43/43 35/35/35
f 13/13/13 25/25/25 127/127/127
f 149/149/149 126/126/126 26/26/26
f 149/149/149 26/26/26 127/127/127
f 51/51/51 127/127/127 132/132/132
f 118/118/118 133/133/133 14/14/14
f 27/27/27 133/133/133 124/124/124
f 79/79/79 13/13/13 124/124/124
f 163/163/163 132/132/132 167/167/167
f 132/132/132 127/127/127 26/26/26
f 167/167/167 52/52/52 111/111/111
f 163/163/163 167/167/167 81/81/81
f 63/63/63 95/95/95 161/161/161
f 146/146/146 163/163/163 81/81/81
f 150/150/150 5/5/5 146/146/146
f 96/96/96 160/160/160 50/50/50
f 50/50/50 168/168/168 32/32/32
f 128/128/128 8/8/8 52/52/52
f 96/96/96 5/5/5 160/160/160
f 108/108/108 52/52/52 8/8/8
f 124/124/124 154/154/154 61/61/61
f 12/12/12 42/42/42 116/116/116
f 123/123/123 50/50/50 32/32/32
f 96/96/96 50/50/50 61/61/61
f 126/126/126 71/71/71 26/26/26
f 77/77/77 118/118/118 14/14/14
f 154/154/154 127/127/127 51/51/51
f 175/175/175 146/146/146 5/5/5
f 51/51/51 132/132/132 163/163/163
f 85/85/85 41/41/41 83/83/83
f 154/154/154 96/96/96 61/61/61
f 154/154/154 13/13/13 127/127/127
f 124/124/124 13/13/13 154/154/154
f 149/149/149 127/127/127 44/44/44
f 25/25/25 44/44/44 127/127/127
f 10/10/10 93/93/93 90/90/90
f 123/123/123 61/61/61 50/50/50
f 29/29/29 119/119/119 135/135/135
f 72/72/72 135/135/135 119/119/119
f 137/137/137 31/31/31 47/47/47
f 9/9/9 117/117/117 75/75/75
f 9/9/9 125/125/125 117/117/117
f 48/48/48 90/90/90 93/93/93
f 14/14/14 133/133/133 78/78/78
f 39/39/39 89/89/89 91/91/91
f 168/168/168 174/174/174 134/134/134
f 174/174/174 168/168/168 60/60/60
f 146/146/146 175/175/175 163/163/163
f 175/175/175 51/51/51 163/163/163
f 5/5/5 96/96/96 175/175/175
f 51/51/51 175/175/175 96/96/96
