# frame 000951 
# time 0.476000 
# name Box 
v 0.719903 0.533556 -0.361929
v 0.718813 0.792767 -0.057284
v 0.720094 0.488125 0.201929
v 0.719903 0.533556 -0.361929
v 0.720094 0.488125 0.201929
v 0.721183 0.228914 -0.102716
v 0.319906 0.531875 -0.361929
v 0.321187 0.227233 -0.102716
v 0.320097 0.486444 0.201929
v 0.319906 0.531875 -0.361929
v 0.320097 0.486444 0.201929
v 0.318817 0.791086 -0.057284
v 0.719903 0.533556 -0.361929
v 0.319906 0.531875 -0.361929
v 0.318817 0.791086 -0.057284
v 0.719903 0.533556 -0.361929
v 0.318817 0.791086 -0.057284
v 0.718813 0.792767 -0.057284
v 0.718813 0.792767 -0.057284
v 0.318817 0.791086 -0.057284
v 0.320097 0.486444 0.201929
v 0.718813 0.792767 -0.057284
v 0.320097 0.486444 0.201929
v 0.720094 0.488125 0.201929
v 0.720094 0.488125 0.201929
v 0.320097 0.486444 0.201929
v 0.321187 0.227233 -0.102716
v 0.720094 0.488125 0.201929
v 0.321187 0.227233 -0.102716
v 0.721183 0.228914 -0.102716
v 0.319906 0.531875 -0.361929
v 0.719903 0.533556 -0.361929
v 0.721183 0.228914 -0.102716
v 0.319906 0.531875 -0.361929
v 0.721183 0.228914 -0.102716
v 0.321187 0.227233 -0.102716
vn 0.199998 0.000841 0.000000
vn 0.199998 0.000841 0.000000
vn 0.199998 0.000841 0.000000
vn 0.199998 0.000841 0.000000
vn 0.199998 0.000841 0.000000
vn 0.199998 0.000841 0.000000
vn -0.199998 -0.000841 0.000000
vn -0.199998 -0.000841 0.000000
vn -0.199998 -0.000841 0.000000
vn -0.199998 -0.000841 0.000000
vn -0.199998 -0.000841 0.000000
vn -0.199998 -0.000841 0.000000
vn -0.000640 0.152321 -0.129607
vn -0.000640 0.152321 -0.129607
vn -0.000640 0.152321 -0.129607
vn -0.000640 0.152321 -0.129607
vn -0.000640 0.152321 -0.129607
vn -0.000640 0.152321 -0.129607
vn -0.000545 0.129606 0.152322
vn -0.000545 0.129606 0.152322
vn -0.000545 0.129606 0.152322
vn -0.000545 0.129606 0.152322
vn -0.000545 0.129606 0.152322
vn -0.000545 0.129606 0.152322
vn 0.000640 -0.152321 0.129607
vn 0.000640 -0.152321 0.129607
vn 0.000640 -0.152321 0.129607
vn 0.000640 -0.152321 0.129607
vn 0.000640 -0.152321 0.129607
vn 0.000640 -0.152321 0.129607
vn 0.000545 -0.129606 -0.152322
vn 0.000545 -0.129606 -0.152322
vn 0.000545 -0.129606 -0.152322
vn 0.000545 -0.129606 -0.152322
vn 0.000545 -0.129606 -0.152322
vn 0.000545 -0.129606 -0.152322
f 1/1/1 2/2/2 3/3/3
f 4/4/4 5/5/5 6/6/6
f 7/7/7 8/8/8 9/9/9
f 10/10/10 11/11/11 12/12/12
f 13/13/13 14/14/14 15/15/15
f 16/16/16 17/17/17 18/18/18
f 19/19/19 20/20/20 21/21/21
f 22/22/22 23/23/23 24/24/24
f 25/25/25 26/26/26 27/27/27
f 28/28/28 29/29/29 30/30/30
f 31/31/31 32/32/32 33/33/33
f 34/34/34 35/35/35 36/36/36
