# frame 000917 
# time 0.459000 
# name Box 
v 0.719802 0.557409 -0.358983
v 0.718825 0.789821 -0.033431
v 0.720194 0.464272 0.198983
v 0.719802 0.557409 -0.358983
v 0.720194 0.464272 0.198983
v 0.721171 0.231860 -0.126569
v 0.319806 0.555728 -0.358983
v 0.321175 0.230179 -0.126569
v 0.320198 0.462591 0.198983
v 0.319806 0.555728 -0.358983
v 0.320198 0.462591 0.198983
v 0.318829 0.788140 -0.033431
v 0.719802 0.557409 -0.358983
v 0.319806 0.555728 -0.358983
v 0.318829 0.788140 -0.033431
v 0.719802 0.557409 -0.358983
v 0.318829 0.788140 -0.033431
v 0.718825 0.789821 -0.033431
v 0.718825 0.789821 -0.033431
v 0.318829 0.788140 -0.033431
v 0.320198 0.462591 0.198983
v 0.718825 0.789821 -0.033431
v 0.320198 0.462591 0.198983
v 0.720194 0.464272 0.198983
v 0.720194 0.464272 0.198983
v 0.320198 0.462591 0.198983
v 0.321175 0.230179 -0.126569
v 0.720194 0.464272 0.198983
v 0.321175 0.230179 -0.126569
v 0.721171 0.231860 -0.126569
v 0.319806 0.555728 -0.358983
v 0.719802 0.557409 -0.358983
v 0.721171 0.231860 -0.126569
v 0.319806 0.555728 -0.358983
v 0.721171 0.231860 -0.126569
v 0.321175 0.230179 -0.126569
vn 0.199998 0.000841 0.000000
vn 0.199998 0.000841 0.000000
vn 0.199998 0.000841 0.000000
vn 0.199998 0.000841 0.000000
vn 0.199998 0.000841 0.000000
vn 0.199998 0.000841 0.000000
vn -0.199998 -0.000841 0.000000
vn -0.199998 -0.000841 0.000000
vn -0.199998 -0.000841 0.000000
vn -0.199998 -0.000841 0.000000
vn -0.199998 -0.000841 0.000000
vn -0.199998 -0.000841 0.000000
vn -0.000684 0.162774 -0.116207
vn -0.000684 0.162774 -0.116207
vn -0.000684 0.162774 -0.116207
vn -0.000684 0.162774 -0.116207
vn -0.000684 0.162774 -0.116207
vn -0.000684 0.162774 -0.116207
vn -0.000488 0.116206 0.162776
vn -0.000488 0.116206 0.162776
vn -0.000488 0.116206 0.162776
vn -0.000488 0.116206 0.162776
vn -0.000488 0.116206 0.162776
vn -0.000488 0.116206 0.162776
vn 0.000684 -0.162774 0.116207
vn 0.000684 -0.162774 0.116207
vn 0.000684 -0.162774 0.116207
vn 0.000684 -0.162774 0.116207
vn 0.000684 -0.162774 0.116207
vn 0.000684 -0.162774 0.116207
vn 0.000488 -0.116206 -0.162776
vn 0.000488 -0.116206 -0.162776
vn 0.000488 -0.116206 -0.162776
vn 0.000488 -0.116206 -0.162776
vn 0.000488 -0.116206 -0.162776
vn 0.000488 -0.116206 -0.162776
f 1/1/1 2/2/2 3/3/3
f 4/4/4 5/5/5 6/6/6
f 7/7/7 8/8/8 9/9/9
f 10/10/10 11/11/11 12/12/12
f 13/13/13 14/14/14 15/15/15
f 16/16/16 17/17/17 18/18/18
f 19/19/19 20/20/20 21/21/21
f 22/22/22 23/23/23 24/24/24
f 25/25/25 26/26/26 27/27/27
f 28/28/28 29/29/29 30/30/30
f 31/31/31 32/32/32 33/33/33
f 34/34/34 35/35/35 36/36/36
