# frame 000944 
# time 0.472500 
# name Box 
v 0.719882 0.538486 -0.361488
v 0.718815 0.792327 -0.052354
v 0.720114 0.483195 0.201488
v 0.719882 0.538486 -0.361488
v 0.720114 0.483195 0.201488
v 0.721182 0.229355 -0.107646
v 0.319886 0.536805 -0.361488
v 0.321185 0.227673 -0.107646
v 0.320118 0.481514 0.201488
v 0.319886 0.536805 -0.361488
v 0.320118 0.481514 0.201488
v 0.318818 0.790645 -0.052354
v 0.719882 0.538486 -0.361488
v 0.319886 0.536805 -0.361488
v 0.318818 0.790645 -0.052354
v 0.719882 0.538486 -0.361488
v 0.318818 0.790645 -0.052354
v 0.718815 0.792327 -0.052354
v 0.718815 0.792327 -0.052354
v 0.318818 0.790645 -0.052354
v 0.320118 0.481514 0.201488
v 0.718815 0.792327 -0.052354
v 0.320118 0.481514 0.201488
v 0.720114 0.483195 0.201488
v 0.720114 0.483195 0.201488
v 0.320118 0.481514 0.201488
v 0.321185 0.227673 -0.107646
v 0.720114 0.483195 0.201488
v 0.321185 0.227673 -0.107646
v 0.721182 0.229355 -0.107646
v 0.319886 0.536805 -0.361488
v 0.719882 0.538486 -0.361488
v 0.721182 0.229355 -0.107646
v 0.319886 0.536805 -0.361488
v 0.721182 0.229355 -0.107646
v 0.321185 0.227673 -0.107646
vn 0.199998 0.000841 0.000000
vn 0.199998 0.000841 0.000000
vn 0.199998 0.000841 0.000000
vn 0.199998 0.000841 0.000000
vn 0.199998 0.000841 0.000000
vn 0.199998 0.000841 0.000000
vn -0.199998 -0.000841 0.000000
vn -0.199998 -0.000841 0.000000
vn -0.199998 -0.000841 0.000000
vn -0.199998 -0.000841 0.000000
vn -0.199998 -0.000841 0.000000
vn -0.199998 -0.000841 0.000000
vn -0.000650 0.154566 -0.126921
vn -0.000650 0.154566 -0.126921
vn -0.000650 0.154566 -0.126921
vn -0.000650 0.154566 -0.126921
vn -0.000650 0.154566 -0.126921
vn -0.000650 0.154566 -0.126921
vn -0.000534 0.126920 0.154567
vn -0.000534 0.126920 0.154567
vn -0.000534 0.126920 0.154567
vn -0.000534 0.126920 0.154567
vn -0.000534 0.126920 0.154567
vn -0.000534 0.126920 0.154567
vn 0.000650 -0.154566 0.126921
vn 0.000650 -0.154566 0.126921
vn 0.000650 -0.154566 0.126921
vn 0.000650 -0.154566 0.126921
vn 0.000650 -0.154566 0.126921
vn 0.000650 -0.154566 0.126921
vn 0.000534 -0.126920 -0.154567
vn 0.000534 -0.126920 -0.154567
vn 0.000534 -0.126920 -0.154567
vn 0.000534 -0.126920 -0.154567
vn 0.000534 -0.126920 -0.154567
vn 0.000534 -0.126920 -0.154567
f 1/1/1 2/2/2 3/3/3
f 4/4/4 5/5/5 6/6/6
f 7/7/7 8/8/8 9/9/9
f 10/10/10 11/11/11 12/12/12
f 13/13/13 14/14/14 15/15/15
f 16/16/16 17/17/17 18/18/18
f 19/19/19 20/20/20 21/21/21
f 22/22/22 23/23/23 24/24/24
f 25/25/25 26/26/26 27/27/27
f 28/28/28 29/29/29 30/30/30
f 31/31/31 32/32/32 33/33/33
f 34/34/34 35/35/35 36/36/36
