# frame 001041 
# time 0.521000 
# name Cloth3D 
v -0.000000 0.000000 -0.000000
v 1.000000 0.000000 -0.000000
v -0.000000 1.000000 0.000000
v 1.000000 1.000000 0.000000
v 0.938664 0.124847 0.016714
v -0.000000 0.500000 0.000000
v 0.500000 1.000000 0.000000
v 1.000000 0.500000 0.000000
v 0.500000 -0.000000 0.000000
v 0.248597 0.748363 0.060806
v 0.755451 0.749058 0.074002
v 0.248340 0.254505 0.058393
v 0.754110 0.252719 0.071582
v 0.750000 0.000000 0.000000
v 0.250000 0.000000 0.000000
v 1.000000 0.750000 0.000000
v 1.000000 0.250000 0.000000
v 0.250000 1.000000 0.000000
v 0.750000 1.000000 0.000000
v 0.000000 0.250000 0.000000
v 0.000000 0.750000 -0.000000
v 0.365077 0.225366 0.065829
v 0.063200 0.874114 0.006601
v 0.227171 0.519626 0.135319
v 0.816787 0.251618 0.059756
v 0.882513 0.377049 0.058334
v 0.625496 0.129972 0.032391
v 0.887226 0.439071 0.069561
v 0.876129 0.124885 0.025886
v 0.375774 0.129101 0.032745
v 0.126527 0.128038 0.004409
v 0.493250 0.260451 0.072381
v 0.884971 0.625588 0.065170
v 0.637247 0.627879 0.156071
v 0.876464 0.875244 0.025327
v 0.375841 0.872989 0.037219
v 0.248153 0.604620 0.127167
v 0.126591 0.872643 0.004623
v 0.120026 0.625109 0.053489
v 0.626406 0.873483 0.041930
v 0.117204 0.376346 0.058723
v 0.250940 0.128099 0.024396
v 0.879608 0.749855 0.044706
v 0.877549 0.251469 0.039711
v 0.252355 0.870451 0.014172
v 0.751001 0.872340 0.029212
v 0.123938 0.252798 0.030955
v 0.124750 0.748444 0.029038
v 0.309673 0.599276 0.159863
v 0.584931 0.314866 0.092893
v 0.745985 0.370142 0.106330
v 0.889827 0.501176 0.075824
v 0.436219 0.768159 0.078288
v 0.235209 0.459960 0.119433
v 0.000000 0.375000 0.000000
v 0.501102 0.872986 0.043590
v 0.500793 0.628097 0.157494
v 0.242393 0.379705 0.096542
v 0.114441 0.501433 0.068106
v 0.522163 0.423197 0.139378
v 0.627517 0.258436 0.072579
v 0.500724 0.131241 0.030012
v 0.497189 0.550779 0.199616
v 0.000000 0.625000 0.000000
v 0.000000 0.875000 0.000000
v 0.000000 0.125000 0.000000
v 0.625000 1.000000 0.000000
v 0.875000 1.000000 0.000000
v 0.125000 1.000000 0.000000
v 0.375000 1.000000 0.000000
v 1.000000 0.375000 0.000000
v 0.571066 0.468723 0.160111
v 1.000000 0.875000 0.000000
v 1.000000 0.625000 0.000000
v 0.375000 0.000000 0.000000
v 0.125000 0.000000 0.000000
v 0.875000 0.000000 0.000000
v 0.625000 0.000000 0.000000
v 0.750775 0.125786 0.037579
v 0.471626 0.485510 0.168121
v 0.786950 0.517944 0.148609
v 0.059948 0.313683 0.023806
v 0.176336 0.440239 0.091877
v 0.183304 0.316146 0.061346
v 0.057593 0.438265 0.032710
v 0.687744 0.935207 0.013442
v 0.690394 0.811011 0.060142
v 0.563058 0.936640 0.021639
v 0.061960 0.686649 0.018743
v 0.184023 0.686871 0.062762
v 0.058439 0.562743 0.031044
v 0.188895 0.935450 0.001726
v 0.188886 0.809212 0.024958
v 0.063099 0.936747 -0.000476
v 0.430322 0.568486 0.188502
v 0.678977 0.366399 0.111270
v 0.508621 0.723064 0.105126
v 0.313181 0.809236 0.047825
v 0.438216 0.936532 0.020718
v 0.938743 0.812210 0.017157
v 0.815363 0.811788 0.044924
v 0.937779 0.937581 0.007918
v 0.877484 0.187760 0.036516
v 0.571129 0.568396 0.188679
v 0.945170 0.500626 0.037971
v 0.835852 0.593376 0.101827
v 0.821282 0.687749 0.078955
v 0.942639 0.562763 0.033945
v 0.314411 0.701046 0.098763
v 0.938956 0.250641 0.020553
v 0.885387 0.563302 0.068768
v 0.188487 0.064351 0.005941
v 0.063276 0.063442 -0.001703
v 0.188286 0.191737 0.027122
v 0.313227 0.064077 0.015278
v 0.312517 0.191559 0.050540
v 0.438057 0.065786 0.012873
v 0.812640 0.061646 0.019959
v 0.938316 0.061803 0.013400
v -0.000000 0.937500 0.000000
v 0.593754 0.676176 0.130316
v 0.526712 0.802052 0.071850
v 0.563624 0.195006 0.052573
v 0.689127 0.192286 0.052302
v 0.562742 0.065342 0.015583
v 0.939311 0.313559 0.023754
v 0.819336 0.315094 0.072523
v 0.941876 0.438722 0.031861
v 0.313926 0.934789 0.008052
v 1.000000 0.187500 0.000000
v 0.815299 0.187700 0.049863
v 0.809619 0.376682 0.084862
v 0.687500 0.064331 0.016358
v 0.397003 0.385241 0.122872
v 0.937769 0.187832 0.015392
v 0.438111 0.194709 0.051744
v 0.062479 0.188737 0.012054
v 0.379643 0.765234 0.074503
v 0.940575 0.687163 0.026486
v 0.297375 0.447903 0.140220
v 0.063275 0.811314 0.006718
v 0.812676 0.936393 0.011611
v 0.177844 0.564080 0.091445
v 0.779349 0.650524 0.110978
v 0.681300 0.476012 0.155957
v 0.719768 0.551617 0.199767
v 0.319975 0.549936 0.199769
v 0.722540 0.770265 0.070515
v 0.880908 0.313854 0.052113
v 0.623968 0.551291 0.199655
v 0.180334 0.378552 0.075420
v 0.292678 0.339409 0.090181
v 0.731513 0.612099 0.153341
v 0.719076 0.306078 0.088507
v 0.678729 0.670134 0.127074
v 0.329092 0.282372 0.079387
v 0.273051 0.659290 0.110360
v 1.000000 0.062500 -0.000000
v 0.615206 0.768946 0.082978
v 0.600440 0.376999 0.118614
v 0.412716 0.550424 0.199614
v 0.727111 0.429143 0.127321
v 0.775475 0.459852 0.123313
v 0.362901 0.437048 0.142132
v 0.418249 0.264571 0.077564
v 0.313064 0.395957 0.117861
v 0.834245 0.482767 0.114070
v 0.477920 0.372067 0.119199
v 0.178971 0.626709 0.082998
v 0.410526 0.662248 0.132333
v 0.447963 0.429062 0.143774
v 0.385518 0.493752 0.171861
v 0.720150 0.492590 0.155979
vt 0.000000 0.000000
vt 1.000000 0.000000
vt 0.000000 1.000000
vt 1.000000 1.000000
vt 0.937500 0.125000
vt 0.000000 0.500000
vt 0.500000 1.000000
vt 1.000000 0.500000
vt 0.500000 0.000000
vt 0.250000 0.750000
vt 0.750000 0.750000
vt 0.250000 0.250000
vt 0.750000 0.250000
vt 0.750000 0.000000
vt 0.250000 0.000000
vt 1.000000 0.750000
vt 1.000000 0.250000
vt 0.250000 1.000000
vt 0.750000 1.000000
vt 0.000000 0.250000
vt 0.000000 0.750000
vt 0.365347 0.220303
vt 0.062500 0.875000
vt 0.245672 0.515386
vt 0.812500 0.250000
vt 0.875000 0.375000
vt 0.625000 0.125000
vt 0.875000 0.437500
vt 0.875000 0.125000
vt 0.375000 0.125000
vt 0.125000 0.125000
vt 0.492214 0.250470
vt 0.875000 0.625000
vt 0.625000 0.625000
vt 0.875000 0.875000
vt 0.375000 0.875000
vt 0.262101 0.599801
vt 0.125000 0.875000
vt 0.125000 0.625000
vt 0.625000 0.875000
vt 0.125000 0.375000
vt 0.250000 0.125000
vt 0.875000 0.750000
vt 0.875000 0.250000
vt 0.250000 0.875000
vt 0.750000 0.875000
vt 0.125000 0.250000
vt 0.125000 0.750000
vt 0.325445 0.593646
vt 0.581754 0.304126
vt 0.736041 0.365469
vt 0.875000 0.500000
vt 0.435664 0.771773
vt 0.248222 0.455442
vt 0.000000 0.375000
vt 0.500000 0.875000
vt 0.500000 0.625000
vt 0.250000 0.375000
vt 0.125000 0.500000
vt 0.519707 0.411902
vt 0.625000 0.250000
vt 0.500000 0.125000
vt 0.497062 0.542804
vt 0.000000 0.625000
vt 0.000000 0.875000
vt 0.000000 0.125000
vt 0.625000 1.000000
vt 0.875000 1.000000
vt 0.125000 1.000000
vt 0.375000 1.000000
vt 1.000000 0.375000
vt 0.564051 0.458319
vt 1.000000 0.875000
vt 1.000000 0.625000
vt 0.375000 0.000000
vt 0.125000 0.000000
vt 0.875000 0.000000
vt 0.625000 0.000000
vt 0.750000 0.125000
vt 0.473805 0.475426
vt 0.760524 0.515669
vt 0.062500 0.312500
vt 0.187500 0.437500
vt 0.187500 0.312500
vt 0.062500 0.437500
vt 0.687500 0.937500
vt 0.687500 0.812500
vt 0.562500 0.937500
vt 0.062500 0.687500
vt 0.187500 0.687500
vt 0.062500 0.562500
vt 0.187500 0.937500
vt 0.187500 0.812500
vt 0.062500 0.937500
vt 0.437500 0.562500
vt 0.671367 0.358455
vt 0.506884 0.725192
vt 0.312500 0.812500
vt 0.437500 0.937500
vt 0.937500 0.812500
vt 0.812500 0.812500
vt 0.937500 0.937500
vt 0.875000 0.187500
vt 0.562500 0.562500
vt 0.937500 0.500000
vt 0.819332 0.591237
vt 0.812500 0.687500
vt 0.937500 0.562500
vt 0.319123 0.700934
vt 0.937500 0.250000
vt 0.875000 0.562500
vt 0.187500 0.062500
vt 0.062500 0.062500
vt 0.187500 0.187500
vt 0.312500 0.062500
vt 0.312500 0.187500
vt 0.437500 0.062500
vt 0.812500 0.062500
vt 0.937500 0.062500
vt 0.000000 0.937500
vt 0.587160 0.675778
vt 0.525016 0.804189
vt 0.562500 0.187500
vt 0.687500 0.187500
vt 0.562500 0.062500
vt 0.937500 0.312500
vt 0.812500 0.312500
vt 0.937500 0.437500
vt 0.312500 0.937500
vt 1.000000 0.187500
vt 0.812500 0.187500
vt 0.800716 0.372483
vt 0.687500 0.062500
vt 0.400647 0.375957
vt 0.937500 0.187500
vt 0.437500 0.187500
vt 0.062500 0.187500
vt 0.380019 0.768564
vt 0.937500 0.687500
vt 0.309549 0.441894
vt 0.062500 0.812500
vt 0.812500 0.937500
vt 0.187500 0.562500
vt 0.765906 0.648544
vt 0.665088 0.466564
vt 0.688363 0.545034
vt 0.342880 0.540691
vt 0.718294 0.771897
vt 0.875000 0.312500
vt 0.608415 0.543602
vt 0.187500 0.375000
vt 0.296906 0.332149
vt 0.711873 0.607167
vt 0.713437 0.300753
vt 0.668274 0.669022
vt 0.331126 0.276226
vt 0.281585 0.657008
vt 1.000000 0.062500
vt 0.611736 0.771102
vt 0.595175 0.366343
vt 0.422652 0.542843
vt 0.713353 0.422290
vt 0.758105 0.454518
vt 0.370877 0.428346
vt 0.418341 0.256674
vt 0.320334 0.388669
vt 0.812755 0.481587
vt 0.477835 0.361491
vt 0.187500 0.625000
vt 0.414679 0.661630
vt 0.450521 0.418925
vt 0.396781 0.484194
vt 0.699881 0.484613
vn 0.013756 0.013756 0.999811
vn 0.143129 -0.071564 0.987113
vn 0.006853 -0.003426 0.999971
vn 0.062351 0.062351 0.996105
vn 0.211435 -0.037953 0.976655
vn -0.495535 0.006402 0.868564
vn -0.002031 0.320173 0.947357
vn 0.540331 -0.013633 0.841342
vn -0.011150 -0.213516 0.976876
vn -0.230009 0.373923 0.898486
vn 0.171084 0.353453 0.919675
vn -0.181102 -0.276321 0.943848
vn 0.109463 -0.228392 0.967396
vn -0.015754 -0.274118 0.961567
vn -0.036025 -0.163194 0.985936
vn 0.337594 0.037433 0.940547
vn 0.300716 -0.037846 0.952962
vn -0.023561 0.076075 0.996824
vn 0.004617 0.186306 0.982481
vn -0.277416 -0.046516 0.959623
vn -0.199941 0.044876 0.978780
vn -0.030607 -0.297481 0.954237
vn -0.023071 0.047386 0.998610
vn -0.484752 -0.058675 0.872681
vn 0.230810 -0.166099 0.958717
vn 0.401932 -0.136349 0.905461
vn -0.018795 -0.271973 0.962121
vn 0.522804 -0.169657 0.835400
vn 0.139557 -0.150600 0.978695
vn 0.010386 -0.285384 0.958357
vn -0.087745 -0.128255 0.987852
vn 0.018872 -0.336298 0.941567
vn 0.496678 0.127056 0.858585
vn 0.054903 0.502190 0.863012
vn 0.118279 0.184438 0.975701
vn -0.119690 0.320659 0.939602
vn -0.451628 0.351452 0.820069
vn -0.032279 0.110258 0.993379
vn -0.415130 0.179225 0.891933
vn 0.064133 0.357199 0.931824
vn -0.331095 -0.172134 0.927764
vn -0.126649 -0.214453 0.968489
vn 0.308839 0.155978 0.938237
vn 0.304856 -0.132852 0.943087
vn -0.118244 0.242805 0.962842
vn 0.061877 0.306027 0.950010
vn -0.200030 -0.198502 0.959471
vn -0.241596 0.193670 0.950854
vn -0.244376 0.529239 0.812519
vn 0.014019 -0.360750 0.932557
vn 0.186759 -0.284312 0.940366
vn 0.565487 0.013714 0.824643
vn -0.070462 0.400065 0.913774
vn -0.341578 -0.288293 0.894545
vn -0.437577 -0.035178 0.898493
vn -0.018488 0.338982 0.940611
vn -0.018157 0.482057 0.875952
vn -0.251321 -0.319320 0.913713
vn -0.481253 0.011051 0.876512
vn 0.013526 -0.400743 0.916091
vn 0.005766 -0.318503 0.947904
vn -0.002701 -0.283709 0.958907
vn -0.002759 0.091358 0.995814
vn -0.392594 0.049592 0.918374
vn -0.111708 0.000655 0.993741
vn -0.079667 -0.054693 0.995320
vn 0.034430 0.260484 0.964864
vn 0.013606 0.150994 0.988441
vn -0.010304 0.010035 0.999897
vn -0.051243 0.219246 0.974323
vn 0.432723 -0.030435 0.901013
vn 0.019100 -0.422948 0.905952
vn 0.196393 0.036507 0.979845
vn 0.474149 0.028981 0.879968
vn 0.010112 -0.231217 0.972850
vn -0.030693 -0.032733 0.998993
vn 0.023833 -0.258890 0.965613
vn -0.002561 -0.240085 0.970748
vn -0.009176 -0.264524 0.964335
vn 0.005530 -0.418633 0.908139
vn 0.430374 -0.233662 0.871883
vn -0.341181 -0.104129 0.934213
vn -0.352176 -0.229102 0.907461
vn -0.241044 -0.245936 0.938836
vn -0.474851 -0.037952 0.879247
vn 0.045052 0.270755 0.961594
vn 0.108858 0.345019 0.932262
vn 0.020434 0.323019 0.946172
vn -0.313964 0.103943 0.943728
vn -0.345497 0.300049 0.889158
vn -0.460178 0.061181 0.885716
vn -0.035206 0.074838 0.996574
vn -0.152492 0.276183 0.948931
vn 0.007975 0.065944 0.997791
vn -0.024985 0.530297 0.847444
vn 0.071151 -0.340060 0.937708
vn -0.030747 0.440249 0.897349
vn -0.165858 0.358424 0.918708
vn -0.039985 0.306838 0.950922
vn 0.274479 0.075528 0.958622
vn 0.125039 0.262418 0.956819
vn 0.088150 0.099702 0.991105
vn 0.258556 -0.097452 0.961068
vn 0.000271 0.493295 0.869862
vn 0.560304 -0.012891 0.828187
vn 0.520714 0.173030 0.836013
vn 0.346223 0.286806 0.893237
vn 0.520131 0.049305 0.852662
vn -0.176780 0.456675 0.871892
vn 0.322836 -0.085781 0.942560
vn 0.547935 0.079831 0.832703
vn -0.072763 -0.120049 0.990098
vn -0.017474 -0.029397 0.999415
vn -0.173151 -0.223332 0.959240
vn -0.040550 -0.233818 0.971434
vn -0.107229 -0.288208 0.951545
vn 0.017877 -0.236525 0.971461
vn 0.025073 -0.256496 0.966220
vn 0.139812 -0.094943 0.985616
vn -0.019922 0.030275 0.999343
vn 0.032846 0.473727 0.880059
vn -0.020587 0.373817 0.927274
vn -0.006026 -0.312914 0.949762
vn -0.025018 -0.282601 0.958911
vn -0.012861 -0.231061 0.972854
vn 0.405185 -0.058999 0.912329
vn 0.276431 -0.180745 0.943884
vn 0.530607 -0.092363 0.842571
vn -0.084295 0.197346 0.976703
vn 0.243806 0.005809 0.969807
vn 0.162206 -0.186770 0.968920
vn 0.337395 -0.199831 0.919909
vn -0.021087 -0.260894 0.965137
vn -0.062669 -0.387104 0.919904
vn 0.287345 -0.016478 0.957685
vn 0.031214 -0.318422 0.947435
vn -0.135624 -0.102027 0.985493
vn -0.100763 0.397342 0.912122
vn 0.410451 0.084282 0.907980
vn -0.212740 -0.398784 0.892027
vn -0.111211 0.057442 0.992135
vn 0.015231 0.211207 0.977323
vn -0.497052 0.163326 0.852211
vn 0.357067 0.373175 0.856297
vn 0.158834 -0.452203 0.877659
vn 0.334393 -0.041591 0.941516
vn -0.201012 0.134743 0.970278
vn 0.131099 0.364996 0.921733
vn 0.352084 -0.136163 0.926011
vn 0.004144 0.134303 0.990932
vn -0.277303 -0.247203 0.928436
vn -0.166126 -0.327985 0.929961
vn 0.324463 0.483025 0.813271
vn 0.090996 -0.297459 0.950388
vn 0.128092 0.483273 0.866048
vn -0.110011 -0.288472 0.951147
vn -0.319710 0.438281 0.840056
vn 0.219752 -0.014133 0.975453
vn 0.055470 0.396131 0.916517
vn 0.027212 -0.391465 0.919791
vn -0.015679 0.217111 0.976021
vn 0.213489 -0.332013 0.918798
vn 0.281601 -0.363723 0.887922
vn -0.088494 -0.421354 0.902568
vn 0.015568 -0.328329 0.944435
vn -0.134187 -0.413856 0.900398
vn 0.468237 -0.186656 0.863663
vn 0.008621 -0.387046 0.922020
vn -0.439646 0.238128 0.866029
vn -0.073222 0.485212 0.871326
vn -0.006259 -0.401506 0.915835
vn -0.029143 -0.440549 0.897255
vn 0.248924 -0.473687 0.844783
f 1/1/1 113/113/113 66/66/66
f 31/31/31 137/137/137 113/113/113
f 150/150/150 104/104/104 63/63/63
f 76/76/76 112/112/112 113/113/113
f 151/151/151 58/58/58 83/83/83
f 112/112/112 114/114/114 31/31/31
f 137/137/137 66/66/66 113/113/113
f 84/84/84 151/151/151 41/41/41
f 112/112/112 31/31/31 113/113/113
f 115/115/115 112/112/112 15/15/15
f 156/156/156 152/152/152 12/12/12
f 63/63/63 72/72/72 150/150/150
f 76/76/76 113/113/113 1/1/1
f 42/42/42 114/114/114 112/112/112
f 15/15/15 112/112/112 76/76/76
f 115/115/115 15/15/15 75/75/75
f 114/114/114 47/47/47 31/31/31
f 116/116/116 115/115/115 30/30/30
f 149/149/149 127/127/127 44/44/44
f 22/22/22 30/30/30 136/136/136
f 137/137/137 31/31/31 47/47/47
f 125/125/125 62/62/62 117/117/117
f 165/165/165 136/136/136 32/32/32
f 134/134/134 156/156/156 165/165/165
f 156/156/156 116/116/116 22/22/22
f 42/42/42 116/116/116 114/114/114
f 116/116/116 30/30/30 22/22/22
f 42/42/42 112/112/112 115/115/115
f 42/42/42 115/115/115 116/116/116
f 156/156/156 12/12/12 116/116/116
f 12/12/12 114/114/114 116/116/116
f 56/56/56 53/53/53 122/122/122
f 171/171/171 134/134/134 168/168/168
f 165/165/165 156/156/156 22/22/22
f 134/134/134 165/165/165 168/168/168
f 165/165/165 22/22/22 136/136/136
f 168/168/168 165/165/165 32/32/32
f 85/85/85 55/55/55 41/41/41
f 151/151/151 83/83/83 41/41/41
f 50/50/50 160/160/160 168/168/168
f 172/172/172 171/171/171 80/80/80
f 140/140/140 164/164/164 172/172/172
f 134/134/134 152/152/152 156/156/156
f 60/60/60 72/72/72 80/80/80
f 57/57/57 95/95/95 63/63/63
f 164/164/164 171/171/171 172/172/172
f 115/115/115 75/75/75 30/30/30
f 140/140/140 166/166/166 164/164/164
f 166/166/166 134/134/134 164/164/164
f 164/164/164 134/134/134 171/171/171
f 140/140/140 58/58/58 166/166/166
f 166/166/166 152/152/152 134/134/134
f 84/84/84 152/152/152 58/58/58
f 58/58/58 152/152/152 166/166/166
f 147/147/147 24/24/24 140/140/140
f 54/54/54 58/58/58 140/140/140
f 94/94/94 69/69/69 3/3/3
f 54/54/54 83/83/83 58/58/58
f 85/85/85 41/41/41 83/83/83
f 82/82/82 137/137/137 47/47/47
f 84/84/84 12/12/12 152/152/152
f 84/84/84 58/58/58 151/151/151
f 47/47/47 114/114/114 84/84/84
f 84/84/84 114/114/114 12/12/12
f 47/47/47 84/84/84 41/41/41
f 82/82/82 47/47/47 41/41/41
f 55/55/55 82/82/82 41/41/41
f 20/20/20 137/137/137 82/82/82
f 20/20/20 66/66/66 137/137/137
f 55/55/55 20/20/20 82/82/82
f 157/157/157 90/90/90 169/169/169
f 36/36/36 99/99/99 129/129/129
f 69/69/69 94/94/94 92/92/92
f 141/141/141 38/38/38 23/23/23
f 59/59/59 85/85/85 83/83/83
f 24/24/24 59/59/59 83/83/83
f 18/18/18 92/92/92 129/129/129
f 92/92/92 18/18/18 69/69/69
f 45/45/45 98/98/98 36/36/36
f 117/117/117 30/30/30 75/75/75
f 161/161/161 95/95/95 49/49/49
f 138/138/138 53/53/53 36/36/36
f 161/161/161 49/49/49 147/147/147
f 122/122/122 97/97/97 159/159/159
f 98/98/98 138/138/138 36/36/36
f 157/157/157 10/10/10 90/90/90
f 129/129/129 45/45/45 36/36/36
f 109/109/109 98/98/98 10/10/10
f 21/21/21 89/89/89 141/141/141
f 28/28/28 128/128/128 52/52/52
f 136/136/136 30/30/30 62/62/62
f 93/93/93 45/45/45 38/38/38
f 129/129/129 70/70/70 18/18/18
f 117/117/117 62/62/62 30/30/30
f 70/70/70 129/129/129 99/99/99
f 92/92/92 38/38/38 45/45/45
f 120/120/120 94/94/94 3/3/3
f 23/23/23 120/120/120 65/65/65
f 141/141/141 23/23/23 65/65/65
f 45/45/45 129/129/129 92/92/92
f 23/23/23 38/38/38 94/94/94
f 23/23/23 94/94/94 120/120/120
f 21/21/21 141/141/141 65/65/65
f 38/38/38 92/92/92 94/94/94
f 6/6/6 91/91/91 64/64/64
f 90/90/90 10/10/10 48/48/48
f 105/105/105 52/52/52 128/128/128
f 93/93/93 48/48/48 10/10/10
f 48/48/48 141/141/141 89/89/89
f 169/169/169 90/90/90 39/39/39
f 37/37/37 169/169/169 143/143/143
f 10/10/10 98/98/98 93/93/93
f 147/147/147 140/140/140 172/172/172
f 170/170/170 138/138/138 109/109/109
f 109/109/109 157/157/157 49/49/49
f 64/64/64 89/89/89 21/21/21
f 64/64/64 39/39/39 89/89/89
f 59/59/59 143/143/143 91/91/91
f 39/39/39 91/91/91 143/143/143
f 91/91/91 39/39/39 64/64/64
f 6/6/6 55/55/55 85/85/85
f 24/24/24 83/83/83 54/54/54
f 45/45/45 93/93/93 98/98/98
f 24/24/24 143/143/143 59/59/59
f 143/143/143 169/169/169 39/39/39
f 24/24/24 54/54/54 140/140/140
f 37/37/37 24/24/24 147/147/147
f 95/95/95 170/170/170 49/49/49
f 37/37/37 147/147/147 49/49/49
f 170/170/170 109/109/109 49/49/49
f 37/37/37 49/49/49 157/157/157
f 37/37/37 157/157/157 169/169/169
f 37/37/37 143/143/143 24/24/24
f 109/109/109 138/138/138 98/98/98
f 109/109/109 10/10/10 157/157/157
f 97/97/97 170/170/170 57/57/57
f 170/170/170 53/53/53 138/138/138
f 63/63/63 161/161/161 80/80/80
f 63/63/63 95/95/95 161/161/161
f 161/161/161 147/147/147 172/172/172
f 161/161/161 172/172/172 80/80/80
f 160/160/160 145/145/145 72/72/72
f 57/57/57 63/63/63 104/104/104
f 131/131/131 25/25/25 13/13/13
f 34/34/34 104/104/104 150/150/150
f 57/57/57 104/104/104 121/121/121
f 72/72/72 63/63/63 80/80/80
f 97/97/97 57/57/57 121/121/121
f 57/57/57 170/170/170 95/95/95
f 159/159/159 148/148/148 87/87/87
f 97/97/97 53/53/53 170/170/170
f 9/9/9 125/125/125 117/117/117
f 149/149/149 126/126/126 26/26/26
f 81/81/81 153/153/153 146/146/146
f 146/146/146 34/34/34 150/150/150
f 159/159/159 155/155/155 148/148/148
f 91/91/91 6/6/6 59/59/59
f 155/155/155 121/121/121 34/34/34
f 34/34/34 121/121/121 104/104/104
f 153/153/153 155/155/155 34/34/34
f 144/144/144 155/155/155 153/153/153
f 122/122/122 159/159/159 40/40/40
f 146/146/146 153/153/153 34/34/34
f 11/11/11 144/144/144 107/107/107
f 72/72/72 145/145/145 150/150/150
f 145/145/145 173/173/173 146/146/146
f 111/111/111 33/33/33 106/106/106
f 167/167/167 106/106/106 81/81/81
f 107/107/107 106/106/106 33/33/33
f 106/106/106 153/153/153 81/81/81
f 163/163/163 132/132/132 167/167/167
f 26/26/26 128/128/128 28/28/28
f 111/111/111 105/105/105 108/108/108
f 128/128/128 8/8/8 105/105/105
f 167/167/167 111/111/111 106/106/106
f 46/46/46 142/142/142 86/86/86
f 111/111/111 52/52/52 105/105/105
f 111/111/111 108/108/108 33/33/33
f 8/8/8 108/108/108 105/105/105
f 43/43/43 107/107/107 139/139/139
f 107/107/107 33/33/33 139/139/139
f 101/101/101 11/11/11 107/107/107
f 144/144/144 153/153/153 106/106/106
f 144/144/144 106/106/106 107/107/107
f 40/40/40 46/46/46 86/86/86
f 11/11/11 155/155/155 144/144/144
f 148/148/148 101/101/101 46/46/46
f 43/43/43 101/101/101 107/107/107
f 19/19/19 86/86/86 142/142/142
f 100/100/100 43/43/43 139/139/139
f 139/139/139 33/33/33 74/74/74
f 108/108/108 74/74/74 33/33/33
f 35/35/35 46/46/46 101/101/101
f 142/142/142 35/35/35 102/102/102
f 16/16/16 100/100/100 139/139/139
f 102/102/102 35/35/35 100/100/100
f 68/68/68 142/142/142 102/102/102
f 88/88/88 40/40/40 86/86/86
f 142/142/142 46/46/46 35/35/35
f 7/7/7 99/99/99 88/88/88
f 88/88/88 99/99/99 56/56/56
f 85/85/85 59/59/59 6/6/6
f 56/56/56 36/36/36 53/53/53
f 159/159/159 87/87/87 40/40/40
f 148/148/148 46/46/46 87/87/87
f 87/87/87 46/46/46 40/40/40
f 148/148/148 155/155/155 11/11/11
f 148/148/148 11/11/11 101/101/101
f 159/159/159 97/97/97 121/121/121
f 159/159/159 121/121/121 155/155/155
f 56/56/56 122/122/122 40/40/40
f 122/122/122 53/53/53 97/97/97
f 88/88/88 56/56/56 40/40/40
f 56/56/56 99/99/99 36/36/36
f 67/67/67 86/86/86 19/19/19
f 67/67/67 88/88/88 86/86/86
f 7/7/7 70/70/70 99/99/99
f 67/67/67 7/7/7 88/88/88
f 68/68/68 19/19/19 142/142/142
f 73/73/73 102/102/102 100/100/100
f 4/4/4 68/68/68 102/102/102
f 73/73/73 4/4/4 102/102/102
f 16/16/16 73/73/73 100/100/100
f 74/74/74 16/16/16 139/139/139
f 8/8/8 74/74/74 108/108/108
f 103/103/103 44/44/44 25/25/25
f 103/103/103 131/131/131 29/29/29
f 110/110/110 17/17/17 126/126/126
f 154/154/154 127/127/127 51/51/51
f 173/173/173 163/163/163 81/81/81
f 149/149/149 110/110/110 126/126/126
f 39/39/39 90/90/90 89/89/89
f 167/167/167 132/132/132 28/28/28
f 128/128/128 71/71/71 8/8/8
f 48/48/48 89/89/89 90/90/90
f 167/167/167 28/28/28 52/52/52
f 26/26/26 28/28/28 132/132/132
f 149/149/149 44/44/44 110/110/110
f 26/26/26 71/71/71 128/128/128
f 126/126/126 17/17/17 71/71/71
f 126/126/126 71/71/71 26/26/26
f 101/101/101 43/43/43 35/35/35
f 135/135/135 17/17/17 110/110/110
f 100/100/100 35/35/35 43/43/43
f 77/77/77 118/118/118 14/14/14
f 127/127/127 26/26/26 132/132/132
f 127/127/127 149/149/149 26/26/26
f 51/51/51 127/127/127 132/132/132
f 61/61/61 96/96/96 50/50/50
f 13/13/13 25/25/25 127/127/127
f 79/79/79 13/13/13 124/124/124
f 124/124/124 154/154/154 61/61/61
f 131/131/131 13/13/13 79/79/79
f 167/167/167 52/52/52 111/111/111
f 163/163/163 167/167/167 81/81/81
f 173/173/173 81/81/81 146/146/146
f 51/51/51 163/163/163 162/162/162
f 145/145/145 146/146/146 150/150/150
f 145/145/145 162/162/162 173/173/173
f 51/51/51 162/162/162 96/96/96
f 162/162/162 163/163/163 173/173/173
f 145/145/145 96/96/96 162/162/162
f 60/60/60 80/80/80 171/171/171
f 160/160/160 72/72/72 60/60/60
f 60/60/60 171/171/171 168/168/168
f 160/160/160 60/60/60 168/168/168
f 50/50/50 168/168/168 32/32/32
f 160/160/160 96/96/96 145/145/145
f 50/50/50 96/96/96 160/160/160
f 123/123/123 50/50/50 32/32/32
f 62/62/62 27/27/27 123/123/123
f 27/27/27 124/124/124 61/61/61
f 119/119/119 29/29/29 118/118/118
f 154/154/154 51/51/51 96/96/96
f 51/51/51 132/132/132 163/163/163
f 154/154/154 96/96/96 61/61/61
f 154/154/154 13/13/13 127/127/127
f 124/124/124 13/13/13 154/154/154
f 123/123/123 27/27/27 61/61/61
f 125/125/125 27/27/27 62/62/62
f 133/133/133 78/78/78 14/14/14
f 123/123/123 61/61/61 50/50/50
f 123/123/123 32/32/32 136/136/136
f 62/62/62 123/123/123 136/136/136
f 25/25/25 44/44/44 127/127/127
f 9/9/9 117/117/117 75/75/75
f 78/78/78 27/27/27 125/125/125
f 78/78/78 125/125/125 9/9/9
f 133/133/133 27/27/27 78/78/78
f 118/118/118 133/133/133 14/14/14
f 133/133/133 124/124/124 27/27/27
f 135/135/135 130/130/130 17/17/17
f 131/131/131 79/79/79 118/118/118
f 79/79/79 124/124/124 133/133/133
f 79/79/79 133/133/133 118/118/118
f 29/29/29 131/131/131 118/118/118
f 103/103/103 25/25/25 131/131/131
f 119/119/119 158/158/158 5/5/5
f 5/5/5 130/130/130 135/135/135
f 135/135/135 110/110/110 44/44/44
f 135/135/135 44/44/44 103/103/103
f 5/5/5 103/103/103 29/29/29
f 5/5/5 135/135/135 103/103/103
f 119/119/119 5/5/5 29/29/29
f 5/5/5 158/158/158 130/130/130
f 77/77/77 119/119/119 118/118/118
f 119/119/119 2/2/2 158/158/158
f 77/77/77 2/2/2 119/119/119
f 48/48/48 93/93/93 141/141/141
f 38/38/38 141/141/141 93/93/93
