# frame 001096 
# time 0.548500 
# name Box 
v 0.720329 0.432105 -0.351663
v 0.718856 0.782501 -0.158736
v 0.719667 0.589576 0.191663
v 0.720329 0.432105 -0.351663
v 0.719667 0.589576 0.191663
v 0.721140 0.239180 -0.001264
v 0.320333 0.430424 -0.351663
v 0.321144 0.237499 -0.001264
v 0.319671 0.587895 0.191663
v 0.320333 0.430424 -0.351663
v 0.319671 0.587895 0.191663
v 0.318860 0.780820 -0.158736
v 0.720329 0.432105 -0.351663
v 0.320333 0.430424 -0.351663
v 0.318860 0.780820 -0.158736
v 0.720329 0.432105 -0.351663
v 0.318860 0.780820 -0.158736
v 0.718856 0.782501 -0.158736
v 0.718856 0.782501 -0.158736
v 0.318860 0.780820 -0.158736
v 0.319671 0.587895 0.191663
v 0.718856 0.782501 -0.158736
v 0.319671 0.587895 0.191663
v 0.719667 0.589576 0.191663
v 0.719667 0.589576 0.191663
v 0.319671 0.587895 0.191663
v 0.321144 0.237499 -0.001264
v 0.719667 0.589576 0.191663
v 0.321144 0.237499 -0.001264
v 0.721140 0.239180 -0.001264
v 0.320333 0.430424 -0.351663
v 0.720329 0.432105 -0.351663
v 0.721140 0.239180 -0.001264
v 0.320333 0.430424 -0.351663
v 0.721140 0.239180 -0.001264
v 0.321144 0.237499 -0.001264
vn 0.199998 0.000841 0.000000
vn 0.199998 0.000841 0.000000
vn 0.199998 0.000841 0.000000
vn 0.199998 0.000841 0.000000
vn 0.199998 0.000841 0.000000
vn 0.199998 0.000841 0.000000
vn -0.199998 -0.000841 0.000000
vn -0.199998 -0.000841 0.000000
vn -0.199998 -0.000841 0.000000
vn -0.199998 -0.000841 0.000000
vn -0.199998 -0.000841 0.000000
vn -0.199998 -0.000841 0.000000
vn -0.000405 0.096462 -0.175199
vn -0.000405 0.096462 -0.175199
vn -0.000405 0.096462 -0.175199
vn -0.000405 0.096462 -0.175199
vn -0.000405 0.096462 -0.175199
vn -0.000405 0.096462 -0.175199
vn -0.000736 0.175198 0.096463
vn -0.000736 0.175198 0.096463
vn -0.000736 0.175198 0.096463
vn -0.000736 0.175198 0.096463
vn -0.000736 0.175198 0.096463
vn -0.000736 0.175198 0.096463
vn 0.000405 -0.096462 0.175199
vn 0.000405 -0.096462 0.175199
vn 0.000405 -0.096462 0.175199
vn 0.000405 -0.096462 0.175199
vn 0.000405 -0.096462 0.175199
vn 0.000405 -0.096462 0.175199
vn 0.000736 -0.175198 -0.096463
vn 0.000736 -0.175198 -0.096463
vn 0.000736 -0.175198 -0.096463
vn 0.000736 -0.175198 -0.096463
vn 0.000736 -0.175198 -0.096463
vn 0.000736 -0.175198 -0.096463
f 1/1/1 2/2/2 3/3/3
f 4/4/4 5/5/5 6/6/6
f 7/7/7 8/8/8 9/9/9
f 10/10/10 11/11/11 12/12/12
f 13/13/13 14/14/14 15/15/15
f 16/16/16 17/17/17 18/18/18
f 19/19/19 20/20/20 21/21/21
f 22/22/22 23/23/23 24/24/24
f 25/25/25 26/26/26 27/27/27
f 28/28/28 29/29/29 30/30/30
f 31/31/31 32/32/32 33/33/33
f 34/34/34 35/35/35 36/36/36
