# frame 001037 
# time 0.519000 
# name Cloth3D 
v -0.000000 0.000000 -0.000000
v 1.000000 0.000000 -0.000000
v -0.000000 1.000000 0.000000
v 1.000000 1.000000 0.000000
v 0.938492 0.124904 0.016049
v -0.000000 0.500000 0.000000
v 0.500000 1.000000 0.000000
v 1.000000 0.500000 0.000000
v 0.500000 -0.000000 0.000000
v 0.248651 0.748136 0.061461
v 0.754891 0.748847 0.072902
v 0.248340 0.254014 0.060046
v 0.753966 0.253004 0.069945
v 0.750000 0.000000 0.000000
v 0.250000 0.000000 0.000000
v 1.000000 0.750000 0.000000
v 1.000000 0.250000 0.000000
v 0.250000 1.000000 0.000000
v 0.750000 1.000000 0.000000
v 0.000000 0.250000 0.000000
v 0.000000 0.750000 -0.000000
v 0.365141 0.225424 0.066247
v 0.063033 0.874361 0.008280
v 0.226554 0.519239 0.136599
v 0.816774 0.251611 0.059358
v 0.882839 0.376828 0.059207
v 0.625402 0.130177 0.031940
v 0.886659 0.439138 0.068990
v 0.876090 0.124838 0.025899
v 0.375799 0.128355 0.035855
v 0.126551 0.127919 0.005516
v 0.493230 0.260535 0.073288
v 0.884592 0.625470 0.064425
v 0.636679 0.627552 0.154925
v 0.876333 0.875219 0.024986
v 0.375724 0.873417 0.038961
v 0.248078 0.604270 0.127660
v 0.126439 0.872793 0.006235
v 0.119832 0.625134 0.053803
v 0.626310 0.874061 0.043007
v 0.117458 0.376280 0.058215
v 0.251088 0.127987 0.025254
v 0.879304 0.749808 0.044259
v 0.877611 0.251421 0.039168
v 0.252280 0.870587 0.015640
v 0.750775 0.872518 0.029411
v 0.124592 0.253190 0.028850
v 0.124603 0.748569 0.030304
v 0.309709 0.598932 0.160123
v 0.585017 0.314894 0.093675
v 0.745751 0.370461 0.105869
v 0.889699 0.501113 0.075756
v 0.435885 0.768896 0.080708
v 0.235661 0.460210 0.118606
v 0.000000 0.375000 0.000000
v 0.500937 0.873847 0.045992
v 0.500627 0.627472 0.157105
v 0.242354 0.379302 0.097831
v 0.114413 0.501292 0.068025
v 0.522305 0.422773 0.141193
v 0.627541 0.258612 0.072594
v 0.500630 0.131604 0.029879
v 0.497083 0.547980 0.200011
v 0.000000 0.625000 0.000000
v 0.000000 0.875000 0.000000
v 0.000000 0.125000 0.000000
v 0.625000 1.000000 0.000000
v 0.875000 1.000000 0.000000
v 0.125000 1.000000 0.000000
v 0.375000 1.000000 0.000000
v 1.000000 0.375000 0.000000
v 0.571250 0.468928 0.160780
v 1.000000 0.875000 0.000000
v 1.000000 0.625000 0.000000
v 0.375000 0.000000 0.000000
v 0.125000 0.000000 0.000000
v 0.875000 0.000000 0.000000
v 0.625000 0.000000 0.000000
v 0.750696 0.125970 0.036602
v 0.471749 0.485187 0.169826
v 0.787190 0.518563 0.149533
v 0.060135 0.313750 0.023200
v 0.175861 0.439875 0.093079
v 0.183594 0.316058 0.061274
v 0.057669 0.438219 0.032390
v 0.687608 0.934787 0.011683
v 0.689896 0.810677 0.058782
v 0.562947 0.936743 0.021853
v 0.062181 0.686646 0.018212
v 0.183912 0.686785 0.063532
v 0.058408 0.562740 0.031106
v 0.188857 0.935530 0.002761
v 0.188755 0.809433 0.026777
v 0.063045 0.936740 -0.001128
v 0.429917 0.567785 0.186999
v 0.679078 0.366226 0.112775
v 0.508301 0.723630 0.106839
v 0.313210 0.809216 0.048803
v 0.438076 0.937117 0.022362
v 0.938510 0.812164 0.016615
v 0.815022 0.811742 0.044327
v 0.937720 0.937528 0.007452
v 0.876879 0.187979 0.033822
v 0.570905 0.568742 0.189243
v 0.944702 0.500547 0.037258
v 0.834763 0.593084 0.100023
v 0.820897 0.687714 0.078378
v 0.942651 0.562678 0.033923
v 0.314310 0.700916 0.099725
v 0.938791 0.250719 0.019700
v 0.885278 0.563134 0.068382
v 0.188584 0.064313 0.006536
v 0.063283 0.063482 -0.001861
v 0.188440 0.191487 0.027978
v 0.313373 0.064119 0.015651
v 0.312685 0.191586 0.050694
v 0.438063 0.065922 0.013195
v 0.812581 0.061931 0.018793
v 0.938276 0.061833 0.013294
v -0.000000 0.937500 0.000000
v 0.593373 0.676456 0.130915
v 0.526467 0.802545 0.073201
v 0.563559 0.195115 0.053133
v 0.688993 0.191907 0.053558
v 0.562613 0.065315 0.016187
v 0.939734 0.313479 0.024526
v 0.819314 0.314993 0.072051
v 0.941394 0.438630 0.031113
v 0.313940 0.934835 0.008534
v 1.000000 0.187500 0.000000
v 0.815119 0.187797 0.048884
v 0.810113 0.376309 0.086452
v 0.687444 0.064436 0.015888
v 0.396959 0.384652 0.124978
v 0.938001 0.187894 0.015694
v 0.438185 0.194202 0.054392
v 0.062594 0.188816 0.012066
v 0.379342 0.765977 0.077189
v 0.940438 0.687129 0.026376
v 0.296945 0.446928 0.142048
v 0.063043 0.811545 0.008897
v 0.812592 0.936333 0.011075
v 0.177432 0.563970 0.092374
v 0.778120 0.649835 0.108344
v 0.681706 0.475936 0.158860
v 0.719779 0.548817 0.200161
v 0.319987 0.547136 0.200164
v 0.722168 0.770483 0.070572
v 0.880946 0.313758 0.052131
v 0.623922 0.548492 0.200050
v 0.180777 0.378687 0.074746
v 0.292465 0.338398 0.093467
v 0.730720 0.611881 0.151362
v 0.719159 0.305835 0.089234
v 0.678188 0.670212 0.126595
v 0.329094 0.281895 0.081001
v 0.272986 0.659028 0.111050
v 1.000000 0.062500 -0.000000
v 0.614935 0.769733 0.084675
v 0.600662 0.376983 0.119839
v 0.412212 0.547623 0.200009
v 0.726975 0.429595 0.127756
v 0.775818 0.459580 0.125470
v 0.362163 0.436302 0.145953
v 0.418248 0.264529 0.078464
v 0.313462 0.396721 0.116781
v 0.833637 0.483056 0.113742
v 0.477972 0.372114 0.119758
v 0.178781 0.626569 0.083552
v 0.410330 0.662064 0.133110
v 0.448159 0.428530 0.144798
v 0.720112 0.491877 0.156986
vt 0.000000 0.000000
vt 1.000000 0.000000
vt 0.000000 1.000000
vt 1.000000 1.000000
vt 0.937500 0.125000
vt 0.000000 0.500000
vt 0.500000 1.000000
vt 1.000000 0.500000
vt 0.500000 0.000000
vt 0.250000 0.750000
vt 0.750000 0.750000
vt 0.250000 0.250000
vt 0.750000 0.250000
vt 0.750000 0.000000
vt 0.250000 0.000000
vt 1.000000 0.750000
vt 1.000000 0.250000
vt 0.250000 1.000000
vt 0.750000 1.000000
vt 0.000000 0.250000
vt 0.000000 0.750000
vt 0.365347 0.220303
vt 0.062500 0.875000
vt 0.245672 0.515386
vt 0.812500 0.250000
vt 0.875000 0.375000
vt 0.625000 0.125000
vt 0.875000 0.437500
vt 0.875000 0.125000
vt 0.375000 0.125000
vt 0.125000 0.125000
vt 0.492214 0.250470
vt 0.875000 0.625000
vt 0.625000 0.625000
vt 0.875000 0.875000
vt 0.375000 0.875000
vt 0.262101 0.599801
vt 0.125000 0.875000
vt 0.125000 0.625000
vt 0.625000 0.875000
vt 0.125000 0.375000
vt 0.250000 0.125000
vt 0.875000 0.750000
vt 0.875000 0.250000
vt 0.250000 0.875000
vt 0.750000 0.875000
vt 0.125000 0.250000
vt 0.125000 0.750000
vt 0.325445 0.593646
vt 0.581754 0.304126
vt 0.736041 0.365469
vt 0.875000 0.500000
vt 0.435664 0.771773
vt 0.248222 0.455442
vt 0.000000 0.375000
vt 0.500000 0.875000
vt 0.500000 0.625000
vt 0.250000 0.375000
vt 0.125000 0.500000
vt 0.519707 0.411902
vt 0.625000 0.250000
vt 0.500000 0.125000
vt 0.497070 0.540437
vt 0.000000 0.625000
vt 0.000000 0.875000
vt 0.000000 0.125000
vt 0.625000 1.000000
vt 0.875000 1.000000
vt 0.125000 1.000000
vt 0.375000 1.000000
vt 1.000000 0.375000
vt 0.564051 0.458319
vt 1.000000 0.875000
vt 1.000000 0.625000
vt 0.375000 0.000000
vt 0.125000 0.000000
vt 0.875000 0.000000
vt 0.625000 0.000000
vt 0.750000 0.125000
vt 0.473805 0.475426
vt 0.760524 0.515669
vt 0.062500 0.312500
vt 0.187500 0.437500
vt 0.187500 0.312500
vt 0.062500 0.437500
vt 0.687500 0.937500
vt 0.687500 0.812500
vt 0.562500 0.937500
vt 0.062500 0.687500
vt 0.187500 0.687500
vt 0.062500 0.562500
vt 0.187500 0.937500
vt 0.187500 0.812500
vt 0.062500 0.937500
vt 0.437500 0.562500
vt 0.671367 0.358455
vt 0.506884 0.725192
vt 0.312500 0.812500
vt 0.437500 0.937500
vt 0.937500 0.812500
vt 0.812500 0.812500
vt 0.937500 0.937500
vt 0.875000 0.187500
vt 0.562500 0.562500
vt 0.937500 0.500000
vt 0.819332 0.591237
vt 0.812500 0.687500
vt 0.937500 0.562500
vt 0.319123 0.700934
vt 0.937500 0.250000
vt 0.875000 0.562500
vt 0.187500 0.062500
vt 0.062500 0.062500
vt 0.187500 0.187500
vt 0.312500 0.062500
vt 0.312500 0.187500
vt 0.437500 0.062500
vt 0.812500 0.062500
vt 0.937500 0.062500
vt 0.000000 0.937500
vt 0.587160 0.675778
vt 0.525016 0.804189
vt 0.562500 0.187500
vt 0.687500 0.187500
vt 0.562500 0.062500
vt 0.937500 0.312500
vt 0.812500 0.312500
vt 0.937500 0.437500
vt 0.312500 0.937500
vt 1.000000 0.187500
vt 0.812500 0.187500
vt 0.800716 0.372483
vt 0.687500 0.062500
vt 0.400647 0.375957
vt 0.937500 0.187500
vt 0.437500 0.187500
vt 0.062500 0.187500
vt 0.380019 0.768564
vt 0.937500 0.687500
vt 0.309549 0.441894
vt 0.062500 0.812500
vt 0.812500 0.937500
vt 0.187500 0.562500
vt 0.765906 0.648544
vt 0.665088 0.466564
vt 0.688280 0.542039
vt 0.342838 0.538738
vt 0.718294 0.771897
vt 0.875000 0.312500
vt 0.608444 0.540876
vt 0.187500 0.375000
vt 0.296906 0.332149
vt 0.711873 0.607167
vt 0.713437 0.300753
vt 0.668274 0.669022
vt 0.331126 0.276226
vt 0.281585 0.657008
vt 1.000000 0.062500
vt 0.611736 0.771102
vt 0.595175 0.366343
vt 0.422685 0.540043
vt 0.713353 0.422290
vt 0.758105 0.454518
vt 0.370877 0.428346
vt 0.418341 0.256674
vt 0.320334 0.388669
vt 0.812755 0.481587
vt 0.477835 0.361491
vt 0.187500 0.625000
vt 0.414679 0.661630
vt 0.450521 0.418925
vt 0.699638 0.484423
vn 0.014933 0.014933 0.999777
vn 0.140488 -0.070244 0.987587
vn 0.013409 -0.006704 0.999888
vn 0.058566 0.058566 0.996564
vn 0.208425 -0.033390 0.977468
vn -0.494348 0.005351 0.869247
vn 0.003700 0.334523 0.942380
vn 0.531596 -0.016201 0.846843
vn -0.011692 -0.220221 0.975380
vn -0.228725 0.369691 0.900563
vn 0.185573 0.335800 0.923472
vn -0.187225 -0.285920 0.939786
vn 0.121992 -0.239505 0.963201
vn -0.012626 -0.261693 0.965069
vn -0.035090 -0.170874 0.984668
vn 0.332542 0.039203 0.942273
vn 0.297598 -0.040371 0.953837
vn -0.022358 0.089755 0.995713
vn 0.000693 0.170995 0.985272
vn -0.272863 -0.044696 0.961014
vn -0.214074 0.033915 0.976228
vn -0.037071 -0.297455 0.954016
vn -0.031908 0.066065 0.997305
vn -0.485206 -0.064185 0.872041
vn 0.223129 -0.176118 0.958747
vn 0.403991 -0.133179 0.905017
vn -0.005339 -0.275145 0.961388
vn 0.525358 -0.158542 0.835980
vn 0.146668 -0.128797 0.980765
vn -0.003533 -0.299316 0.954147
vn -0.094881 -0.126475 0.987422
vn 0.023741 -0.328575 0.944180
vn 0.489510 0.127218 0.862667
vn 0.070843 0.491300 0.868105
vn 0.122017 0.183717 0.975377
vn -0.126713 0.325820 0.936902
vn -0.448296 0.351119 0.822038
vn -0.034992 0.126464 0.991354
vn -0.419397 0.182011 0.889370
vn 0.078481 0.366438 0.927127
vn -0.339053 -0.181638 0.923066
vn -0.122821 -0.215116 0.968834
vn 0.306372 0.157496 0.938792
vn 0.301329 -0.147336 0.942069
vn -0.115821 0.247050 0.962056
vn 0.059775 0.311202 0.948462
vn -0.205685 -0.191754 0.959648
vn -0.244395 0.178937 0.953023
vn -0.245516 0.516289 0.820468
vn 0.014392 -0.365295 0.930781
vn 0.190926 -0.290969 0.937488
vn 0.566440 0.007678 0.824067
vn -0.065387 0.395807 0.916003
vn -0.344496 -0.296796 0.890637
vn -0.423856 -0.036889 0.904978
vn -0.010604 0.345408 0.938393
vn -0.024544 0.472984 0.880729
vn -0.260092 -0.306287 0.915718
vn -0.487996 0.009950 0.872789
vn 0.014695 -0.404440 0.914447
vn 0.004965 -0.322682 0.946494
vn -0.003871 -0.291320 0.956618
vn -0.007255 0.073370 0.997278
vn -0.392013 0.051458 0.918519
vn -0.137160 0.003945 0.990541
vn -0.077922 -0.055028 0.995440
vn 0.041450 0.251052 0.967086
vn 0.013525 0.143374 0.989576
vn -0.016778 0.013016 0.999775
vn -0.055109 0.237444 0.969837
vn 0.437455 -0.024240 0.898913
vn 0.021666 -0.420239 0.907155
vn 0.188367 0.036223 0.981430
vn 0.457501 0.030094 0.888700
vn 0.010748 -0.218786 0.975714
vn -0.033703 -0.036295 0.998773
vn 0.020033 -0.247647 0.968643
vn 0.001108 -0.239001 0.971019
vn 0.003072 -0.266398 0.963858
vn 0.005281 -0.421146 0.906978
vn 0.450977 -0.210238 0.867421
vn -0.331712 -0.101390 0.937916
vn -0.351939 -0.236756 0.905586
vn -0.262369 -0.244337 0.933521
vn -0.474280 -0.046307 0.879155
vn 0.048095 0.275715 0.960036
vn 0.110501 0.357943 0.927182
vn 0.029954 0.336145 0.941334
vn -0.317826 0.099227 0.942943
vn -0.346447 0.296535 0.889967
vn -0.462737 0.059429 0.884501
vn -0.037726 0.087964 0.995409
vn -0.149008 0.270847 0.951020
vn 0.010512 0.083394 0.996461
vn -0.022364 0.530063 0.847663
vn 0.088588 -0.343635 0.934916
vn -0.027626 0.430772 0.902038
vn -0.175154 0.355987 0.917929
vn -0.040745 0.321953 0.945878
vn 0.270743 0.076111 0.959638
vn 0.128798 0.255953 0.958071
vn 0.085345 0.096810 0.991637
vn 0.251343 -0.098222 0.962901
vn 0.006276 0.473980 0.880513
vn 0.556344 -0.017581 0.830766
vn 0.507512 0.178972 0.842853
vn 0.331155 0.276363 0.902197
vn 0.516407 0.050902 0.854829
vn -0.183842 0.451102 0.873332
vn 0.316895 -0.087108 0.944452
vn 0.538388 0.085767 0.838321
vn -0.073058 -0.127178 0.989186
vn -0.020721 -0.031364 0.999293
vn -0.183837 -0.216729 0.958766
vn -0.032712 -0.242887 0.969503
vn -0.111848 -0.287450 0.951243
vn 0.013008 -0.250354 0.968067
vn 0.022580 -0.250323 0.967899
vn 0.138687 -0.090587 0.986185
vn -0.018529 0.038767 0.999076
vn 0.042312 0.460278 0.886766
vn -0.012971 0.372700 0.927861
vn 0.003941 -0.305848 0.952072
vn -0.015659 -0.285331 0.958301
vn -0.009408 -0.242833 0.970022
vn 0.397147 -0.075410 0.914652
vn 0.270709 -0.194616 0.942784
vn 0.527938 -0.083656 0.845152
vn -0.085644 0.209864 0.973972
vn 0.247620 0.000613 0.968857
vn 0.170926 -0.183487 0.968048
vn 0.327025 -0.220358 0.918965
vn -0.017234 -0.259575 0.965569
vn -0.056020 -0.395503 0.916755
vn 0.270554 -0.025503 0.962367
vn 0.030411 -0.308084 0.950873
vn -0.132495 -0.094807 0.986639
vn -0.109357 0.394190 0.912499
vn 0.408138 0.075051 0.909830
vn -0.236662 -0.422490 0.874925
vn -0.125089 0.057113 0.990500
vn 0.014203 0.211923 0.977183
vn -0.497670 0.167041 0.851129
vn 0.351793 0.365828 0.861633
vn 0.181510 -0.458781 0.869813
vn 0.336913 -0.068273 0.939057
vn -0.221138 0.190126 0.956530
vn 0.142182 0.362400 0.921114
vn 0.344857 -0.148249 0.926874
vn 0.013315 0.109090 0.993943
vn -0.289536 -0.257229 0.921956
vn -0.170291 -0.305123 0.936964
vn 0.327270 0.485862 0.810452
vn 0.108838 -0.299874 0.947750
vn 0.140060 0.468644 0.872213
vn -0.100230 -0.307400 0.946287
vn -0.320555 0.434734 0.841576
vn 0.214798 -0.011926 0.976586
vn 0.067548 0.398699 0.914591
vn 0.023474 -0.395115 0.918332
vn -0.013102 0.311018 0.950314
vn 0.218689 -0.347198 0.911937
vn 0.286671 -0.360169 0.887749
vn -0.098622 -0.450874 0.887122
vn 0.011405 -0.323924 0.946014
vn -0.142509 -0.415877 0.898186
vn 0.485422 -0.174326 0.856724
vn 0.011237 -0.395032 0.918599
vn -0.438825 0.240606 0.865760
vn -0.071363 0.470358 0.879586
vn -0.001801 -0.403500 0.914978
vn 0.268512 -0.476568 0.837129
f 1/1/1 113/113/113 66/66/66
f 31/31/31 137/137/137 113/113/113
f 156/156/156 152/152/152 12/12/12
f 76/76/76 112/112/112 113/113/113
f 84/84/84 151/151/151 41/41/41
f 112/112/112 114/114/114 31/31/31
f 150/150/150 104/104/104 63/63/63
f 137/137/137 66/66/66 113/113/113
f 112/112/112 31/31/31 113/113/113
f 115/115/115 112/112/112 15/15/15
f 12/12/12 114/114/114 116/116/116
f 63/63/63 72/72/72 150/150/150
f 76/76/76 113/113/113 1/1/1
f 42/42/42 114/114/114 112/112/112
f 15/15/15 112/112/112 76/76/76
f 115/115/115 15/15/15 75/75/75
f 117/117/117 115/115/115 75/75/75
f 116/116/116 115/115/115 30/30/30
f 136/136/136 30/30/30 117/117/117
f 131/131/131 25/25/25 13/13/13
f 22/22/22 30/30/30 136/136/136
f 30/30/30 115/115/115 117/117/117
f 125/125/125 62/62/62 117/117/117
f 165/165/165 136/136/136 32/32/32
f 134/134/134 156/156/156 165/165/165
f 156/156/156 116/116/116 22/22/22
f 42/42/42 116/116/116 114/114/114
f 116/116/116 30/30/30 22/22/22
f 42/42/42 112/112/112 115/115/115
f 42/42/42 115/115/115 116/116/116
f 156/156/156 12/12/12 116/116/116
f 84/84/84 152/152/152 58/58/58
f 164/164/164 171/171/171 80/80/80
f 164/164/164 134/134/134 171/171/171
f 165/165/165 156/156/156 22/22/22
f 134/134/134 165/165/165 168/168/168
f 165/165/165 22/22/22 136/136/136
f 168/168/168 165/165/165 32/32/32
f 85/85/85 41/41/41 83/83/83
f 82/82/82 137/137/137 47/47/47
f 50/50/50 160/160/160 168/168/168
f 171/171/171 134/134/134 168/168/168
f 114/114/114 47/47/47 31/31/31
f 134/134/134 152/152/152 156/156/156
f 160/160/160 145/145/145 72/72/72
f 60/60/60 72/72/72 80/80/80
f 56/56/56 53/53/53 122/122/122
f 161/161/161 164/164/164 80/80/80
f 140/140/140 58/58/58 166/166/166
f 166/166/166 134/134/134 164/164/164
f 140/140/140 166/166/166 164/164/164
f 166/166/166 152/152/152 134/134/134
f 151/151/151 83/83/83 41/41/41
f 58/58/58 152/152/152 166/166/166
f 138/138/138 53/53/53 36/36/36
f 54/54/54 58/58/58 140/140/140
f 45/45/45 98/98/98 36/36/36
f 83/83/83 58/58/58 54/54/54
f 36/36/36 99/99/99 129/129/129
f 151/151/151 58/58/58 83/83/83
f 84/84/84 12/12/12 152/152/152
f 84/84/84 58/58/58 151/151/151
f 47/47/47 114/114/114 84/84/84
f 84/84/84 114/114/114 12/12/12
f 47/47/47 84/84/84 41/41/41
f 82/82/82 47/47/47 41/41/41
f 20/20/20 137/137/137 82/82/82
f 70/70/70 129/129/129 99/99/99
f 20/20/20 66/66/66 137/137/137
f 55/55/55 20/20/20 82/82/82
f 170/170/170 138/138/138 109/109/109
f 41/41/41 85/85/85 82/82/82
f 6/6/6 91/91/91 64/64/64
f 59/59/59 143/143/143 91/91/91
f 92/92/92 18/18/18 69/69/69
f 21/21/21 141/141/141 65/65/65
f 39/39/39 90/90/90 89/89/89
f 94/94/94 69/69/69 3/3/3
f 120/120/120 94/94/94 3/3/3
f 137/137/137 31/31/31 47/47/47
f 157/157/157 10/10/10 90/90/90
f 170/170/170 109/109/109 49/49/49
f 97/97/97 170/170/170 57/57/57
f 97/97/97 53/53/53 170/170/170
f 98/98/98 138/138/138 36/36/36
f 109/109/109 98/98/98 10/10/10
f 129/129/129 45/45/45 36/36/36
f 38/38/38 45/45/45 92/92/92
f 90/90/90 10/10/10 48/48/48
f 157/157/157 169/169/169 37/37/37
f 27/27/27 123/123/123 125/125/125
f 93/93/93 45/45/45 38/38/38
f 129/129/129 70/70/70 18/18/18
f 62/62/62 125/125/125 123/123/123
f 92/92/92 69/69/69 94/94/94
f 38/38/38 92/92/92 94/94/94
f 23/23/23 120/120/120 65/65/65
f 10/10/10 98/98/98 93/93/93
f 141/141/141 23/23/23 65/65/65
f 21/21/21 89/89/89 141/141/141
f 23/23/23 38/38/38 94/94/94
f 23/23/23 94/94/94 120/120/120
f 48/48/48 141/141/141 89/89/89
f 141/141/141 38/38/38 23/23/23
f 64/64/64 89/89/89 21/21/21
f 90/90/90 48/48/48 89/89/89
f 45/45/45 93/93/93 98/98/98
f 93/93/93 48/48/48 10/10/10
f 39/39/39 91/91/91 143/143/143
f 39/39/39 169/169/169 90/90/90
f 37/37/37 24/24/24 147/147/147
f 24/24/24 59/59/59 83/83/83
f 24/24/24 143/143/143 59/59/59
f 64/64/64 39/39/39 89/89/89
f 59/59/59 85/85/85 83/83/83
f 147/147/147 24/24/24 140/140/140
f 109/109/109 138/138/138 98/98/98
f 38/38/38 141/141/141 93/93/93
f 48/48/48 93/93/93 141/141/141
f 91/91/91 39/39/39 64/64/64
f 6/6/6 55/55/55 85/85/85
f 24/24/24 83/83/83 54/54/54
f 55/55/55 82/82/82 85/85/85
f 24/24/24 54/54/54 140/140/140
f 143/143/143 169/169/169 39/39/39
f 147/147/147 140/140/140 164/164/164
f 37/37/37 147/147/147 49/49/49
f 161/161/161 49/49/49 147/147/147
f 95/95/95 170/170/170 49/49/49
f 157/157/157 37/37/37 49/49/49
f 157/157/157 49/49/49 109/109/109
f 37/37/37 169/169/169 143/143/143
f 37/37/37 143/143/143 24/24/24
f 157/157/157 109/109/109 10/10/10
f 157/157/157 90/90/90 169/169/169
f 57/57/57 95/95/95 63/63/63
f 170/170/170 53/53/53 138/138/138
f 161/161/161 95/95/95 49/49/49
f 63/63/63 95/95/95 161/161/161
f 161/161/161 147/147/147 164/164/164
f 63/63/63 161/161/161 80/80/80
f 72/72/72 63/63/63 80/80/80
f 57/57/57 63/63/63 104/104/104
f 104/104/104 150/150/150 34/34/34
f 121/121/121 104/104/104 34/34/34
f 121/121/121 57/57/57 104/104/104
f 57/57/57 170/170/170 95/95/95
f 121/121/121 97/97/97 57/57/57
f 122/122/122 97/97/97 159/159/159
f 153/153/153 155/155/155 34/34/34
f 159/159/159 155/155/155 148/148/148
f 9/9/9 125/125/125 117/117/117
f 149/149/149 126/126/126 26/26/26
f 81/81/81 153/153/153 146/146/146
f 155/155/155 121/121/121 34/34/34
f 88/88/88 99/99/99 56/56/56
f 88/88/88 40/40/40 86/86/86
f 144/144/144 155/155/155 153/153/153
f 122/122/122 159/159/159 40/40/40
f 146/146/146 34/34/34 150/150/150
f 146/146/146 153/153/153 34/34/34
f 11/11/11 144/144/144 107/107/107
f 72/72/72 145/145/145 150/150/150
f 145/145/145 172/172/172 146/146/146
f 111/111/111 105/105/105 108/108/108
f 167/167/167 106/106/106 81/81/81
f 107/107/107 106/106/106 33/33/33
f 106/106/106 153/153/153 81/81/81
f 163/163/163 132/132/132 167/167/167
f 26/26/26 128/128/128 28/28/28
f 128/128/128 8/8/8 105/105/105
f 8/8/8 108/108/108 105/105/105
f 33/33/33 111/111/111 108/108/108
f 33/33/33 108/108/108 139/139/139
f 167/167/167 111/111/111 106/106/106
f 111/111/111 52/52/52 105/105/105
f 107/107/107 33/33/33 139/139/139
f 33/33/33 106/106/106 111/111/111
f 101/101/101 11/11/11 107/107/107
f 43/43/43 107/107/107 139/139/139
f 144/144/144 153/153/153 106/106/106
f 144/144/144 106/106/106 107/107/107
f 159/159/159 148/148/148 87/87/87
f 11/11/11 155/155/155 144/144/144
f 40/40/40 46/46/46 86/86/86
f 43/43/43 101/101/101 107/107/107
f 74/74/74 139/139/139 108/108/108
f 100/100/100 43/43/43 139/139/139
f 91/91/91 6/6/6 59/59/59
f 85/85/85 59/59/59 6/6/6
f 142/142/142 101/101/101 35/35/35
f 16/16/16 100/100/100 139/139/139
f 102/102/102 35/35/35 100/100/100
f 19/19/19 142/142/142 68/68/68
f 68/68/68 142/142/142 102/102/102
f 148/148/148 101/101/101 46/46/46
f 142/142/142 35/35/35 102/102/102
f 46/46/46 101/101/101 142/142/142
f 46/46/46 142/142/142 86/86/86
f 19/19/19 86/86/86 142/142/142
f 56/56/56 36/36/36 53/53/53
f 159/159/159 87/87/87 40/40/40
f 148/148/148 46/46/46 87/87/87
f 87/87/87 46/46/46 40/40/40
f 148/148/148 155/155/155 11/11/11
f 148/148/148 11/11/11 101/101/101
f 159/159/159 97/97/97 121/121/121
f 159/159/159 121/121/121 155/155/155
f 56/56/56 122/122/122 40/40/40
f 122/122/122 53/53/53 97/97/97
f 88/88/88 56/56/56 40/40/40
f 56/56/56 99/99/99 36/36/36
f 67/67/67 88/88/88 86/86/86
f 7/7/7 99/99/99 88/88/88
f 7/7/7 70/70/70 99/99/99
f 67/67/67 7/7/7 88/88/88
f 19/19/19 67/67/67 86/86/86
f 73/73/73 102/102/102 100/100/100
f 4/4/4 68/68/68 102/102/102
f 73/73/73 4/4/4 102/102/102
f 16/16/16 73/73/73 100/100/100
f 74/74/74 16/16/16 139/139/139
f 8/8/8 74/74/74 108/108/108
f 103/103/103 44/44/44 25/25/25
f 103/103/103 131/131/131 29/29/29
f 110/110/110 17/17/17 126/126/126
f 154/154/154 127/127/127 51/51/51
f 172/172/172 163/163/163 81/81/81
f 149/149/149 110/110/110 126/126/126
f 28/28/28 128/128/128 105/105/105
f 167/167/167 132/132/132 28/28/28
f 128/128/128 71/71/71 8/8/8
f 28/28/28 105/105/105 52/52/52
f 167/167/167 28/28/28 52/52/52
f 26/26/26 28/28/28 132/132/132
f 149/149/149 44/44/44 110/110/110
f 26/26/26 71/71/71 128/128/128
f 126/126/126 17/17/17 71/71/71
f 126/126/126 71/71/71 26/26/26
f 25/25/25 149/149/149 127/127/127
f 135/135/135 17/17/17 110/110/110
f 25/25/25 44/44/44 149/149/149
f 77/77/77 118/118/118 14/14/14
f 127/127/127 26/26/26 132/132/132
f 127/127/127 149/149/149 26/26/26
f 51/51/51 127/127/127 132/132/132
f 61/61/61 96/96/96 50/50/50
f 13/13/13 25/25/25 127/127/127
f 79/79/79 13/13/13 124/124/124
f 124/124/124 154/154/154 61/61/61
f 131/131/131 13/13/13 79/79/79
f 167/167/167 52/52/52 111/111/111
f 163/163/163 167/167/167 81/81/81
f 172/172/172 81/81/81 146/146/146
f 51/51/51 163/163/163 162/162/162
f 145/145/145 146/146/146 150/150/150
f 145/145/145 162/162/162 172/172/172
f 51/51/51 162/162/162 96/96/96
f 162/162/162 163/163/163 172/172/172
f 145/145/145 96/96/96 162/162/162
f 60/60/60 80/80/80 171/171/171
f 160/160/160 72/72/72 60/60/60
f 60/60/60 171/171/171 168/168/168
f 160/160/160 60/60/60 168/168/168
f 50/50/50 168/168/168 32/32/32
f 160/160/160 96/96/96 145/145/145
f 50/50/50 96/96/96 160/160/160
f 123/123/123 50/50/50 32/32/32
f 101/101/101 43/43/43 35/35/35
f 27/27/27 124/124/124 61/61/61
f 119/119/119 29/29/29 118/118/118
f 154/154/154 51/51/51 96/96/96
f 51/51/51 132/132/132 163/163/163
f 154/154/154 96/96/96 61/61/61
f 154/154/154 13/13/13 127/127/127
f 124/124/124 13/13/13 154/154/154
f 123/123/123 27/27/27 61/61/61
f 100/100/100 35/35/35 43/43/43
f 133/133/133 78/78/78 14/14/14
f 123/123/123 61/61/61 50/50/50
f 123/123/123 32/32/32 136/136/136
f 62/62/62 123/123/123 136/136/136
f 62/62/62 136/136/136 117/117/117
f 9/9/9 117/117/117 75/75/75
f 78/78/78 27/27/27 125/125/125
f 78/78/78 125/125/125 9/9/9
f 133/133/133 27/27/27 78/78/78
f 118/118/118 133/133/133 14/14/14
f 133/133/133 124/124/124 27/27/27
f 135/135/135 130/130/130 17/17/17
f 131/131/131 79/79/79 118/118/118
f 79/79/79 124/124/124 133/133/133
f 79/79/79 133/133/133 118/118/118
f 29/29/29 131/131/131 118/118/118
f 103/103/103 25/25/25 131/131/131
f 119/119/119 158/158/158 5/5/5
f 5/5/5 130/130/130 135/135/135
f 135/135/135 110/110/110 44/44/44
f 135/135/135 44/44/44 103/103/103
f 5/5/5 103/103/103 29/29/29
f 5/5/5 135/135/135 103/103/103
f 119/119/119 5/5/5 29/29/29
f 5/5/5 158/158/158 130/130/130
f 77/77/77 119/119/119 118/118/118
f 119/119/119 2/2/2 158/158/158
f 77/77/77 2/2/2 119/119/119
f 45/45/45 129/129/129 92/92/92
f 18/18/18 92/92/92 129/129/129
