# frame 001040 
# time 0.520500 
# name Box 
v 0.720167 0.470784 -0.359992
v 0.718821 0.790830 -0.120057
v 0.719830 0.550898 0.199992
v 0.720167 0.470784 -0.359992
v 0.719830 0.550898 0.199992
v 0.721175 0.230851 -0.039943
v 0.320170 0.469102 -0.359992
v 0.321179 0.229170 -0.039943
v 0.319833 0.549216 0.199992
v 0.320170 0.469102 -0.359992
v 0.319833 0.549216 0.199992
v 0.318825 0.789149 -0.120057
v 0.720167 0.470784 -0.359992
v 0.320170 0.469102 -0.359992
v 0.318825 0.789149 -0.120057
v 0.720167 0.470784 -0.359992
v 0.318825 0.789149 -0.120057
v 0.718821 0.790830 -0.120057
v 0.718821 0.790830 -0.120057
v 0.318825 0.789149 -0.120057
v 0.319833 0.549216 0.199992
v 0.718821 0.790830 -0.120057
v 0.319833 0.549216 0.199992
v 0.719830 0.550898 0.199992
v 0.719830 0.550898 0.199992
v 0.319833 0.549216 0.199992
v 0.321179 0.229170 -0.039943
v 0.719830 0.550898 0.199992
v 0.321179 0.229170 -0.039943
v 0.721175 0.230851 -0.039943
v 0.320170 0.469102 -0.359992
v 0.720167 0.470784 -0.359992
v 0.721175 0.230851 -0.039943
v 0.320170 0.469102 -0.359992
v 0.721175 0.230851 -0.039943
v 0.321179 0.229170 -0.039943
vn 0.199998 0.000841 0.000000
vn 0.199998 0.000841 0.000000
vn 0.199998 0.000841 0.000000
vn 0.199998 0.000841 0.000000
vn 0.199998 0.000841 0.000000
vn 0.199998 0.000841 0.000000
vn -0.199998 -0.000841 0.000000
vn -0.199998 -0.000841 0.000000
vn -0.199998 -0.000841 0.000000
vn -0.199998 -0.000841 0.000000
vn -0.199998 -0.000841 0.000000
vn -0.199998 -0.000841 0.000000
vn -0.000504 0.119966 -0.160025
vn -0.000504 0.119966 -0.160025
vn -0.000504 0.119966 -0.160025
vn -0.000504 0.119966 -0.160025
vn -0.000504 0.119966 -0.160025
vn -0.000504 0.119966 -0.160025
vn -0.000673 0.160023 0.119967
vn -0.000673 0.160023 0.119967
vn -0.000673 0.160023 0.119967
vn -0.000673 0.160023 0.119967
vn -0.000673 0.160023 0.119967
vn -0.000673 0.160023 0.119967
vn 0.000504 -0.119966 0.160025
vn 0.000504 -0.119966 0.160025
vn 0.000504 -0.119966 0.160025
vn 0.000504 -0.119966 0.160025
vn 0.000504 -0.119966 0.160025
vn 0.000504 -0.119966 0.160025
vn 0.000673 -0.160023 -0.119967
vn 0.000673 -0.160023 -0.119967
vn 0.000673 -0.160023 -0.119967
vn 0.000673 -0.160023 -0.119967
vn 0.000673 -0.160023 -0.119967
vn 0.000673 -0.160023 -0.119967
f 1/1/1 2/2/2 3/3/3
f 4/4/4 5/5/5 6/6/6
f 7/7/7 8/8/8 9/9/9
f 10/10/10 11/11/11 12/12/12
f 13/13/13 14/14/14 15/15/15
f 16/16/16 17/17/17 18/18/18
f 19/19/19 20/20/20 21/21/21
f 22/22/22 23/23/23 24/24/24
f 25/25/25 26/26/26 27/27/27
f 28/28/28 29/29/29 30/30/30
f 31/31/31 32/32/32 33/33/33
f 34/34/34 35/35/35 36/36/36
