# frame 001082 
# time 0.541500 
# name Box 
v 0.720289 0.441659 -0.354251
v 0.718845 0.785090 -0.149182
v 0.719707 0.580022 0.194251
v 0.720289 0.441659 -0.354251
v 0.719707 0.580022 0.194251
v 0.721151 0.236592 -0.010818
v 0.320293 0.439978 -0.354251
v 0.321155 0.234910 -0.010818
v 0.319711 0.578341 0.194251
v 0.320293 0.439978 -0.354251
v 0.319711 0.578341 0.194251
v 0.318849 0.783408 -0.149182
v 0.720289 0.441659 -0.354251
v 0.320293 0.439978 -0.354251
v 0.318849 0.783408 -0.149182
v 0.720289 0.441659 -0.354251
v 0.318849 0.783408 -0.149182
v 0.718845 0.785090 -0.149182
v 0.718845 0.785090 -0.149182
v 0.318849 0.783408 -0.149182
v 0.319711 0.578341 0.194251
v 0.718845 0.785090 -0.149182
v 0.319711 0.578341 0.194251
v 0.719707 0.580022 0.194251
v 0.719707 0.580022 0.194251
v 0.319711 0.578341 0.194251
v 0.321155 0.234910 -0.010818
v 0.719707 0.580022 0.194251
v 0.321155 0.234910 -0.010818
v 0.721151 0.236592 -0.010818
v 0.320293 0.439978 -0.354251
v 0.720289 0.441659 -0.354251
v 0.721151 0.236592 -0.010818
v 0.320293 0.439978 -0.354251
v 0.721151 0.236592 -0.010818
v 0.321155 0.234910 -0.010818
vn 0.199998 0.000841 0.000000
vn 0.199998 0.000841 0.000000
vn 0.199998 0.000841 0.000000
vn 0.199998 0.000841 0.000000
vn 0.199998 0.000841 0.000000
vn 0.199998 0.000841 0.000000
vn -0.199998 -0.000841 0.000000
vn -0.199998 -0.000841 0.000000
vn -0.199998 -0.000841 0.000000
vn -0.199998 -0.000841 0.000000
vn -0.199998 -0.000841 0.000000
vn -0.199998 -0.000841 0.000000
vn -0.000431 0.102534 -0.171717
vn -0.000431 0.102534 -0.171717
vn -0.000431 0.102534 -0.171717
vn -0.000431 0.102534 -0.171717
vn -0.000431 0.102534 -0.171717
vn -0.000431 0.102534 -0.171717
vn -0.000722 0.171715 0.102535
vn -0.000722 0.171715 0.102535
vn -0.000722 0.171715 0.102535
vn -0.000722 0.171715 0.102535
vn -0.000722 0.171715 0.102535
vn -0.000722 0.171715 0.102535
vn 0.000431 -0.102534 0.171717
vn 0.000431 -0.102534 0.171717
vn 0.000431 -0.102534 0.171717
vn 0.000431 -0.102534 0.171717
vn 0.000431 -0.102534 0.171717
vn 0.000431 -0.102534 0.171717
vn 0.000722 -0.171715 -0.102535
vn 0.000722 -0.171715 -0.102535
vn 0.000722 -0.171715 -0.102535
vn 0.000722 -0.171715 -0.102535
vn 0.000722 -0.171715 -0.102535
vn 0.000722 -0.171715 -0.102535
f 1/1/1 2/2/2 3/3/3
f 4/4/4 5/5/5 6/6/6
f 7/7/7 8/8/8 9/9/9
f 10/10/10 11/11/11 12/12/12
f 13/13/13 14/14/14 15/15/15
f 16/16/16 17/17/17 18/18/18
f 19/19/19 20/20/20 21/21/21
f 22/22/22 23/23/23 24/24/24
f 25/25/25 26/26/26 27/27/27
f 28/28/28 29/29/29 30/30/30
f 31/31/31 32/32/32 33/33/33
f 34/34/34 35/35/35 36/36/36
