# frame 001011 
# time 0.506000 
# name Cloth3D 
v -0.000000 0.000000 -0.000000
v 1.000000 0.000000 -0.000000
v -0.000000 1.000000 0.000000
v 1.000000 1.000000 0.000000
v 0.651521 0.417103 0.146002
v -0.000000 0.500000 0.000000
v 0.500000 1.000000 0.000000
v 1.000000 0.500000 0.000000
v 0.500000 -0.000000 0.000000
v 0.246822 0.748746 0.073012
v 0.753169 0.749380 0.073574
v 0.247531 0.251363 0.067265
v 0.753955 0.253119 0.067341
v 0.750000 0.000000 0.000000
v 0.250000 0.000000 0.000000
v 1.000000 0.750000 0.000000
v 1.000000 0.250000 0.000000
v 0.250000 1.000000 0.000000
v 0.750000 1.000000 0.000000
v 0.000000 0.250000 0.000000
v 0.000000 0.750000 -0.000000
v 0.364293 0.222408 0.074389
v 0.062487 0.873885 0.008087
v 0.226785 0.516787 0.139465
v 0.815928 0.252973 0.052052
v 0.883663 0.376517 0.061453
v 0.625457 0.128892 0.035152
v 0.887287 0.438385 0.072537
v 0.875598 0.125913 0.021266
v 0.375275 0.125686 0.044139
v 0.125325 0.126032 0.016368
v 0.492879 0.256322 0.084329
v 0.880095 0.624438 0.058041
v 0.634942 0.625842 0.152127
v 0.874645 0.873772 0.017788
v 0.374540 0.876035 0.050913
v 0.248385 0.601582 0.129495
v 0.124426 0.874112 0.020735
v 0.118985 0.624329 0.057975
v 0.624639 0.874335 0.046092
v 0.121333 0.377025 0.050546
v 0.250367 0.126196 0.031932
v 0.877314 0.748946 0.040259
v 0.877277 0.252697 0.034375
v 0.249791 0.874221 0.035926
v 0.749423 0.873340 0.032469
v 0.124808 0.252211 0.030349
v 0.122095 0.749024 0.041926
v 0.311289 0.595290 0.157232
v 0.585180 0.311352 0.101956
v 0.746686 0.368217 0.109746
v 0.885201 0.500586 0.071128
v 0.434262 0.774486 0.099368
v 0.236074 0.457587 0.122580
v 0.000000 0.375000 0.000000
v 0.499843 0.878054 0.058510
v 0.500353 0.625440 0.157206
v 0.240967 0.375711 0.105582
v 0.113717 0.500513 0.070770
v 0.522605 0.418632 0.149737
v 0.627733 0.255097 0.081101
v 0.500357 0.128215 0.040342
v 0.497077 0.529708 0.201896
v 0.000000 0.625000 0.000000
v 0.000000 0.875000 0.000000
v 0.000000 0.125000 0.000000
v 0.625000 1.000000 0.000000
v 0.875000 1.000000 0.000000
v 0.125000 1.000000 0.000000
v 0.375000 1.000000 0.000000
v 1.000000 0.375000 0.000000
v 0.571647 0.464181 0.170689
v 1.000000 0.875000 0.000000
v 1.000000 0.625000 0.000000
v 0.375000 0.000000 0.000000
v 0.125000 0.000000 0.000000
v 0.875000 0.000000 0.000000
v 0.625000 0.000000 0.000000
v 0.750186 0.127704 0.028691
v 0.640642 0.564631 0.183089
v 0.783827 0.518245 0.147568
v 0.061370 0.313771 0.021018
v 0.177441 0.438912 0.092022
v 0.184954 0.315129 0.060853
v 0.058211 0.438222 0.031634
v 0.686976 0.937480 0.021958
v 0.688285 0.811563 0.062844
v 0.562248 0.938707 0.027847
v 0.060967 0.686539 0.023778
v 0.181442 0.686964 0.074289
v 0.057321 0.562392 0.033962
v 0.187831 0.936425 0.012379
v 0.186263 0.811015 0.042366
v 0.062813 0.936664 0.001076
v 0.430749 0.564109 0.184636
v 0.679754 0.364499 0.116791
v 0.507236 0.726803 0.118224
v 0.311387 0.811640 0.063654
v 0.437439 0.938555 0.027697
v 0.938055 0.811705 0.015588
v 0.813003 0.810862 0.040311
v 0.937181 0.937029 0.004502
v 0.876172 0.189429 0.027360
v 0.570261 0.564508 0.184470
v 0.939890 0.624490 0.028459
v 0.830213 0.592182 0.094469
v 0.818163 0.687395 0.075052
v 0.942035 0.562452 0.034035
v 0.313650 0.700858 0.107441
v 0.939609 0.251048 0.020436
v 0.882182 0.562534 0.065011
v 0.187973 0.063017 0.013058
v 0.062986 0.063124 0.000981
v 0.187051 0.189008 0.037541
v 0.312903 0.062417 0.021268
v 0.312064 0.189436 0.056677
v 0.437853 0.062332 0.024868
v 0.812283 0.063780 0.010953
v 0.937394 0.062926 0.005114
v -0.000000 0.937500 0.000000
v 0.592143 0.676504 0.133476
v 0.525275 0.807284 0.087857
v 0.563393 0.193632 0.056269
v 0.689229 0.190869 0.055185
v 0.562573 0.064925 0.016862
v 0.942231 0.313347 0.029506
v 0.818902 0.315302 0.068664
v 0.944656 0.438150 0.037752
v 0.312451 0.938689 0.025324
v 1.000000 0.187500 0.000000
v 0.813761 0.190330 0.037210
v 0.811137 0.374650 0.090278
v 0.687417 0.063751 0.017597
v 0.395753 0.380694 0.134361
v 0.937700 0.188659 0.012061
v 0.437644 0.190753 0.064303
v 0.063516 0.188870 0.007261
v 0.377945 0.769431 0.092036
v 0.940317 0.686800 0.027216
v 0.295652 0.443468 0.151131
v 0.060089 0.812249 0.022098
v 0.811880 0.936595 0.012399
v 0.172385 0.563711 0.103781
v 0.776448 0.650435 0.107726
v 0.683806 0.471680 0.172024
v 0.719856 0.530537 0.202039
v 0.320064 0.528856 0.202042
v 0.720023 0.770142 0.070203
v 0.880593 0.314406 0.049107
v 0.622860 0.530214 0.201933
v 0.182583 0.377485 0.074425
v 0.290102 0.333073 0.107059
v 0.728415 0.611196 0.148141
v 0.719128 0.305625 0.087871
v 0.676632 0.670273 0.126867
v 0.327919 0.278603 0.089483
v 0.272732 0.657439 0.115631
v 1.000000 0.062500 -0.000000
v 0.613618 0.771960 0.092293
v 0.601510 0.373641 0.127344
v 0.413060 0.529356 0.201895
v 0.728834 0.425208 0.138608
v 0.777784 0.455484 0.136570
v 0.360944 0.432829 0.154268
v 0.417455 0.260883 0.088095
v 0.311615 0.391987 0.128076
v 0.829748 0.482964 0.111206
v 0.477422 0.368295 0.128581
v 0.177827 0.625057 0.088672
v 0.410103 0.662519 0.139861
v 0.879325 0.687019 0.051150
v 0.447384 0.425650 0.151127
v 0.937454 0.125796 0.009306
vt 0.000000 0.000000
vt 1.000000 0.000000
vt 0.000000 1.000000
vt 1.000000 1.000000
vt 0.639940 0.411013
vt 0.000000 0.500000
vt 0.500000 1.000000
vt 1.000000 0.500000
vt 0.500000 0.000000
vt 0.250000 0.750000
vt 0.750000 0.750000
vt 0.250000 0.250000
vt 0.750000 0.250000
vt 0.750000 0.000000
vt 0.250000 0.000000
vt 1.000000 0.750000
vt 1.000000 0.250000
vt 0.250000 1.000000
vt 0.750000 1.000000
vt 0.000000 0.250000
vt 0.000000 0.750000
vt 0.365347 0.220303
vt 0.062500 0.875000
vt 0.245672 0.515386
vt 0.812500 0.250000
vt 0.875000 0.375000
vt 0.625000 0.125000
vt 0.875000 0.437500
vt 0.875000 0.125000
vt 0.375000 0.125000
vt 0.125000 0.125000
vt 0.492214 0.250470
vt 0.875000 0.625000
vt 0.625000 0.625000
vt 0.875000 0.875000
vt 0.375000 0.875000
vt 0.262101 0.599801
vt 0.125000 0.875000
vt 0.125000 0.625000
vt 0.625000 0.875000
vt 0.125000 0.375000
vt 0.250000 0.125000
vt 0.875000 0.750000
vt 0.875000 0.250000
vt 0.250000 0.875000
vt 0.750000 0.875000
vt 0.125000 0.250000
vt 0.125000 0.750000
vt 0.325445 0.593646
vt 0.581754 0.304126
vt 0.736041 0.365469
vt 0.875000 0.500000
vt 0.435664 0.771773
vt 0.248222 0.455442
vt 0.000000 0.375000
vt 0.500000 0.875000
vt 0.500000 0.625000
vt 0.250000 0.375000
vt 0.125000 0.500000
vt 0.519707 0.411902
vt 0.625000 0.250000
vt 0.500000 0.125000
vt 0.497103 0.526247
vt 0.000000 0.625000
vt 0.000000 0.875000
vt 0.000000 0.125000
vt 0.625000 1.000000
vt 0.875000 1.000000
vt 0.125000 1.000000
vt 0.375000 1.000000
vt 1.000000 0.375000
vt 0.564051 0.458319
vt 1.000000 0.875000
vt 1.000000 0.625000
vt 0.375000 0.000000
vt 0.125000 0.000000
vt 0.875000 0.000000
vt 0.625000 0.000000
vt 0.750000 0.125000
vt 0.625000 0.562500
vt 0.760524 0.515669
vt 0.062500 0.312500
vt 0.187500 0.437500
vt 0.187500 0.312500
vt 0.062500 0.437500
vt 0.687500 0.937500
vt 0.687500 0.812500
vt 0.562500 0.937500
vt 0.062500 0.687500
vt 0.187500 0.687500
vt 0.062500 0.562500
vt 0.187500 0.937500
vt 0.187500 0.812500
vt 0.062500 0.937500
vt 0.437500 0.562500
vt 0.671367 0.358455
vt 0.506884 0.725192
vt 0.312500 0.812500
vt 0.437500 0.937500
vt 0.937500 0.812500
vt 0.812500 0.812500
vt 0.937500 0.937500
vt 0.875000 0.187500
vt 0.562500 0.562500
vt 0.937500 0.625000
vt 0.819332 0.591237
vt 0.812500 0.687500
vt 0.937500 0.562500
vt 0.319123 0.700934
vt 0.937500 0.250000
vt 0.875000 0.562500
vt 0.187500 0.062500
vt 0.062500 0.062500
vt 0.187500 0.187500
vt 0.312500 0.062500
vt 0.312500 0.187500
vt 0.437500 0.062500
vt 0.812500 0.062500
vt 0.937500 0.062500
vt 0.000000 0.937500
vt 0.587160 0.675778
vt 0.525016 0.804189
vt 0.562500 0.187500
vt 0.687500 0.187500
vt 0.562500 0.062500
vt 0.937500 0.312500
vt 0.812500 0.312500
vt 0.937500 0.437500
vt 0.312500 0.937500
vt 1.000000 0.187500
vt 0.812500 0.187500
vt 0.800716 0.372483
vt 0.687500 0.062500
vt 0.400647 0.375957
vt 0.937500 0.187500
vt 0.437500 0.187500
vt 0.062500 0.187500
vt 0.380019 0.768564
vt 0.937500 0.687500
vt 0.309549 0.441894
vt 0.062500 0.812500
vt 0.812500 0.937500
vt 0.187500 0.562500
vt 0.765906 0.648544
vt 0.665088 0.466564
vt 0.689261 0.525523
vt 0.342773 0.524161
vt 0.718294 0.771897
vt 0.875000 0.312500
vt 0.608441 0.526173
vt 0.187500 0.375000
vt 0.296906 0.332149
vt 0.711873 0.607167
vt 0.713437 0.300753
vt 0.668274 0.669022
vt 0.331126 0.276226
vt 0.281585 0.657008
vt 1.000000 0.062500
vt 0.611736 0.771102
vt 0.595175 0.366343
vt 0.422772 0.526112
vt 0.713353 0.422290
vt 0.758105 0.454518
vt 0.370877 0.428346
vt 0.418341 0.256674
vt 0.320334 0.388669
vt 0.812755 0.481587
vt 0.477835 0.361491
vt 0.187500 0.625000
vt 0.414679 0.661630
vt 0.875000 0.687500
vt 0.450521 0.418925
vt 0.937500 0.125000
vn -0.009836 -0.009836 0.999903
vn 0.050995 -0.025497 0.998373
vn -0.015022 0.007511 0.999859
vn 0.034900 0.034900 0.998781
vn 0.076388 -0.448345 0.890591
vn -0.512052 -0.010555 0.858890
vn -0.001159 0.412869 0.910790
vn 0.531307 0.018566 0.846976
vn 0.034088 -0.314163 0.948757
vn -0.221125 0.313420 0.923511
vn 0.193819 0.371150 0.908120
vn -0.216639 -0.272384 0.937483
vn 0.183174 -0.266229 0.946345
vn 0.026323 -0.217419 0.975723
vn -0.031056 -0.266333 0.963381
vn 0.329273 0.045306 0.943147
vn 0.299328 -0.081177 0.950691
vn -0.050676 0.295865 0.953885
vn 0.038292 0.267317 0.962847
vn -0.215594 -0.054590 0.974956
vn -0.359110 0.006251 0.933274
vn -0.062305 -0.310180 0.948634
vn -0.152408 0.153943 0.976255
vn -0.481305 -0.072708 0.873532
vn 0.253423 -0.244933 0.935834
vn 0.383083 -0.186165 0.904760
vn 0.005563 -0.297359 0.954750
vn 0.496540 -0.090318 0.863302
vn 0.130967 -0.133896 0.982303
vn -0.043130 -0.301109 0.952614
vn -0.164413 -0.123628 0.978614
vn 0.039755 -0.343386 0.938353
vn 0.448313 0.120103 0.885771
vn 0.086067 0.424302 0.901421
vn 0.127015 0.154649 0.979771
vn -0.085189 0.353196 0.931663
vn -0.388189 0.333090 0.859279
vn -0.152598 0.191311 0.969595
vn -0.446623 0.174567 0.877528
vn 0.084392 0.349886 0.932983
vn -0.366151 -0.182495 0.912485
vn -0.109670 -0.239981 0.964563
vn 0.294530 0.176813 0.939143
vn 0.233608 -0.178439 0.955817
vn -0.130861 0.262350 0.956059
vn 0.128949 0.261459 0.956562
vn -0.272937 -0.137993 0.952084
vn -0.270677 0.135418 0.953098
vn -0.232191 0.455123 0.859622
vn 0.035618 -0.364902 0.930364
vn 0.201895 -0.384797 0.900650
vn 0.538082 0.073242 0.839704
vn -0.086985 0.361557 0.928283
vn -0.428442 -0.262207 0.864688
vn -0.391492 -0.042693 0.919191
vn 0.015984 0.410871 0.911553
vn 0.000045 0.395835 0.918321
vn -0.359303 -0.281510 0.889749
vn -0.498381 -0.064819 0.864531
vn 0.000660 -0.408410 0.912798
vn 0.035593 -0.336950 0.940849
vn 0.061828 -0.300354 0.951822
vn -0.003734 0.092528 0.995703
vn -0.443559 0.041553 0.895281
vn -0.159553 0.064567 0.985076
vn -0.065064 -0.023007 0.997616
vn 0.021146 0.377163 0.925906
vn 0.031588 0.134234 0.990446
vn -0.045152 0.111567 0.992731
vn -0.006179 0.399930 0.916525
vn 0.489243 -0.032512 0.871542
vn 0.014255 -0.428278 0.903535
vn 0.157104 0.044441 0.986582
vn 0.438878 0.034269 0.897893
vn -0.013593 -0.341319 0.939849
vn -0.047638 -0.113643 0.992379
vn 0.022739 -0.121061 0.992385
vn -0.004647 -0.259630 0.965697
vn 0.096722 -0.249288 0.963587
vn 0.029029 0.476450 0.878722
vn 0.602517 -0.000213 0.798106
vn -0.310398 -0.084192 0.946871
vn -0.425679 -0.240460 0.872340
vn -0.351922 -0.208576 0.912495
vn -0.458203 -0.086166 0.884661
vn 0.057400 0.311349 0.948561
vn 0.163346 0.319120 0.933531
vn 0.035121 0.392210 0.919205
vn -0.381479 0.055195 0.922728
vn -0.344413 0.231474 0.909835
vn -0.498477 0.053129 0.865273
vn -0.078826 0.220630 0.972167
vn -0.173046 0.230207 0.957632
vn -0.060190 0.084610 0.994595
vn -0.016198 0.439860 0.897920
vn 0.103036 -0.408021 0.907140
vn 0.022043 0.354835 0.934669
vn -0.158744 0.323475 0.932826
vn -0.018125 0.410392 0.911729
vn 0.224320 0.090366 0.970317
vn 0.178238 0.247662 0.952310
vn 0.068849 0.073820 0.994892
vn 0.183082 -0.103575 0.977626
vn 0.017481 0.439504 0.898070
vn 0.436202 0.056608 0.898066
vn 0.522566 0.182808 0.832770
vn 0.373326 0.245132 0.894728
vn 0.471316 0.069482 0.879223
vn -0.197716 0.375104 0.905652
vn 0.266765 -0.139168 0.953661
vn 0.498975 0.112486 0.859285
vn -0.070292 -0.190586 0.979151
vn -0.061740 -0.049243 0.996877
vn -0.203122 -0.191815 0.960182
vn -0.040492 -0.293393 0.955134
vn -0.116580 -0.300247 0.946710
vn 0.012993 -0.326637 0.945060
vn 0.039772 -0.186657 0.981620
vn 0.075928 -0.073174 0.994425
vn -0.048712 0.026344 0.998465
vn 0.074202 0.390297 0.917694
vn 0.049751 0.372608 0.926654
vn 0.029004 -0.324141 0.945564
vn 0.077081 -0.305165 0.949175
vn 0.026143 -0.285307 0.958079
vn 0.341661 -0.126054 0.931331
vn 0.282739 -0.270479 0.920272
vn 0.519569 -0.044775 0.853255
vn -0.058472 0.334071 0.940732
vn 0.178996 -0.012496 0.983770
vn 0.170803 -0.195390 0.965738
vn 0.351875 -0.286809 0.891024
vn 0.023552 -0.258252 0.965791
vn -0.035914 -0.368684 0.928861
vn 0.233454 -0.075618 0.969423
vn 0.017488 -0.312116 0.949883
vn -0.185745 -0.066223 0.980364
vn -0.157559 0.354982 0.921500
vn 0.386196 0.066780 0.919996
vn -0.262789 -0.391637 0.881795
vn -0.232579 0.127929 0.964127
vn 0.064220 0.199169 0.977859
vn -0.462458 0.175000 0.869199
vn 0.392418 0.330098 0.858513
vn 0.105555 -0.470448 0.876092
vn 0.286745 0.012486 0.957926
vn -0.231711 0.049524 0.971523
vn 0.170868 0.360033 0.917159
vn 0.289156 -0.223991 0.930708
vn 0.012710 0.210017 0.977615
vn -0.409946 -0.239055 0.880226
vn -0.202323 -0.313083 0.927925
vn 0.297825 0.438857 0.847764
vn 0.153249 -0.338360 0.928454
vn 0.146181 0.420039 0.895655
vn -0.099787 -0.337876 0.935886
vn -0.298051 0.365382 0.881851
vn 0.085821 -0.018867 0.996132
vn 0.128310 0.376522 0.917479
vn 0.051348 -0.415146 0.908304
vn -0.000362 0.179970 0.983672
vn 0.207821 -0.404826 0.890464
vn 0.429730 -0.297663 0.852484
vn -0.076823 -0.428564 0.900240
vn -0.005948 -0.327510 0.944829
vn -0.155315 -0.379766 0.911951
vn 0.551299 -0.076589 0.830785
vn 0.005056 -0.370129 0.928966
vn -0.420119 0.247246 0.873138
vn -0.081431 0.381846 0.920632
vn 0.363632 0.139911 0.920976
vn -0.006596 -0.385449 0.922705
vn 0.171795 -0.056425 0.983516
f 1/1/1 113/113/113 66/66/66
f 31/31/31 137/137/137 113/113/113
f 109/109/109 157/157/157 49/49/49
f 94/94/94 120/120/120 23/23/23
f 84/84/84 151/151/151 41/41/41
f 39/39/39 90/90/90 89/89/89
f 114/114/114 47/47/47 31/31/31
f 84/84/84 152/152/152 58/58/58
f 137/137/137 66/66/66 113/113/113
f 65/65/65 23/23/23 120/120/120
f 150/150/150 104/104/104 63/63/63
f 128/128/128 8/8/8 52/52/52
f 170/170/170 109/109/109 49/49/49
f 95/95/95 63/63/63 57/57/57
f 48/48/48 89/89/89 90/90/90
f 76/76/76 113/113/113 1/1/1
f 147/147/147 164/164/164 161/161/161
f 15/15/15 112/112/112 76/76/76
f 115/115/115 15/15/15 75/75/75
f 145/145/145 146/146/146 150/150/150
f 40/40/40 87/87/87 86/86/86
f 150/150/150 80/80/80 104/104/104
f 22/22/22 30/30/30 136/136/136
f 162/162/162 51/51/51 163/163/163
f 32/32/32 165/165/165 136/136/136
f 22/22/22 136/136/136 165/165/165
f 164/164/164 140/140/140 166/166/166
f 76/76/76 112/112/112 113/113/113
f 44/44/44 149/149/149 25/25/25
f 116/116/116 30/30/30 22/22/22
f 72/72/72 150/150/150 63/63/63
f 12/12/12 114/114/114 42/42/42
f 156/156/156 116/116/116 22/22/22
f 156/156/156 152/152/152 12/12/12
f 156/156/156 12/12/12 116/116/116
f 135/135/135 103/103/103 173/173/173
f 168/168/168 165/165/165 32/32/32
f 170/170/170 138/138/138 109/109/109
f 156/156/156 22/22/22 165/165/165
f 30/30/30 116/116/116 115/115/115
f 140/140/140 164/164/164 147/147/147
f 82/82/82 137/137/137 47/47/47
f 172/172/172 168/168/168 60/60/60
f 51/51/51 162/162/162 96/96/96
f 42/42/42 115/115/115 116/116/116
f 34/34/34 80/80/80 153/153/153
f 39/39/39 89/89/89 91/91/91
f 69/69/69 94/94/94 92/92/92
f 152/152/152 166/166/166 58/58/58
f 167/167/167 106/106/106 81/81/81
f 44/44/44 103/103/103 110/110/110
f 170/170/170 53/53/53 138/138/138
f 85/85/85 59/59/59 6/6/6
f 10/10/10 98/98/98 93/93/93
f 9/9/9 125/125/125 117/117/117
f 134/134/134 152/152/152 156/156/156
f 38/38/38 92/92/92 94/94/94
f 99/99/99 36/36/36 56/56/56
f 83/83/83 58/58/58 54/54/54
f 128/128/128 26/26/26 71/71/71
f 151/151/151 58/58/58 83/83/83
f 126/126/126 110/110/110 17/17/17
f 84/84/84 12/12/12 152/152/152
f 84/84/84 58/58/58 151/151/151
f 47/47/47 114/114/114 84/84/84
f 84/84/84 114/114/114 12/12/12
f 47/47/47 84/84/84 41/41/41
f 82/82/82 47/47/47 41/41/41
f 36/36/36 99/99/99 129/129/129
f 20/20/20 137/137/137 82/82/82
f 70/70/70 129/129/129 99/99/99
f 20/20/20 66/66/66 137/137/137
f 55/55/55 20/20/20 82/82/82
f 98/98/98 138/138/138 36/36/36
f 171/171/171 33/33/33 139/139/139
f 102/102/102 68/68/68 35/35/35
f 146/146/146 153/153/153 80/80/80
f 60/60/60 72/72/72 63/63/63
f 166/166/166 140/140/140 58/58/58
f 53/53/53 56/56/56 36/36/36
f 92/92/92 18/18/18 69/69/69
f 103/103/103 44/44/44 131/131/131
f 139/139/139 43/43/43 171/171/171
f 62/62/62 136/136/136 117/117/117
f 122/122/122 53/53/53 97/97/97
f 173/173/173 130/130/130 135/135/135
f 122/122/122 97/97/97 159/159/159
f 5/5/5 72/72/72 160/160/160
f 109/109/109 98/98/98 10/10/10
f 98/98/98 36/36/36 45/45/45
f 14/14/14 133/133/133 78/78/78
f 45/45/45 93/93/93 98/98/98
f 152/152/152 134/134/134 166/166/166
f 123/123/123 32/32/32 62/62/62
f 27/27/27 133/133/133 124/124/124
f 60/60/60 160/160/160 72/72/72
f 136/136/136 62/62/62 32/32/32
f 78/78/78 133/133/133 125/125/125
f 150/150/150 72/72/72 145/145/145
f 129/129/129 70/70/70 18/18/18
f 27/27/27 125/125/125 133/133/133
f 53/53/53 36/36/36 138/138/138
f 5/5/5 145/145/145 72/72/72
f 114/114/114 31/31/31 42/42/42
f 18/18/18 92/92/92 129/129/129
f 126/126/126 71/71/71 26/26/26
f 124/124/124 79/79/79 13/13/13
f 45/45/45 129/129/129 92/92/92
f 131/131/131 13/13/13 79/79/79
f 6/6/6 91/91/91 64/64/64
f 105/105/105 139/139/139 33/33/33
f 149/149/149 44/44/44 126/126/126
f 46/46/46 101/101/101 142/142/142
f 134/134/134 156/156/156 165/165/165
f 39/39/39 169/169/169 90/90/90
f 108/108/108 52/52/52 8/8/8
f 24/24/24 59/59/59 83/83/83
f 94/94/94 3/3/3 120/120/120
f 65/65/65 21/21/21 141/141/141
f 69/69/69 3/3/3 94/94/94
f 145/145/145 5/5/5 162/162/162
f 157/157/157 90/90/90 169/169/169
f 123/123/123 27/27/27 61/61/61
f 124/124/124 61/61/61 27/27/27
f 60/60/60 168/168/168 160/160/160
f 16/16/16 100/100/100 139/139/139
f 56/56/56 53/53/53 122/122/122
f 6/6/6 55/55/55 85/85/85
f 5/5/5 96/96/96 162/162/162
f 24/24/24 83/83/83 54/54/54
f 24/24/24 143/143/143 59/59/59
f 143/143/143 169/169/169 39/39/39
f 59/59/59 143/143/143 91/91/91
f 141/141/141 48/48/48 38/38/38
f 130/130/130 173/173/173 158/158/158
f 93/93/93 38/38/38 48/48/48
f 157/157/157 169/169/169 37/37/37
f 173/173/173 29/29/29 119/119/119
f 146/146/146 145/145/145 163/163/163
f 119/119/119 158/158/158 173/173/173
f 37/37/37 169/169/169 143/143/143
f 37/37/37 143/143/143 24/24/24
f 157/157/157 37/37/37 49/49/49
f 157/157/157 10/10/10 90/90/90
f 109/109/109 138/138/138 98/98/98
f 109/109/109 10/10/10 157/157/157
f 57/57/57 104/104/104 121/121/121
f 170/170/170 97/97/97 53/53/53
f 82/82/82 41/41/41 55/55/55
f 85/85/85 55/55/55 41/41/41
f 151/151/151 83/83/83 41/41/41
f 139/139/139 100/100/100 43/43/43
f 135/135/135 110/110/110 103/103/103
f 73/73/73 4/4/4 102/102/102
f 110/110/110 126/126/126 44/44/44
f 77/77/77 2/2/2 119/119/119
f 57/57/57 97/97/97 170/170/170
f 57/57/57 170/170/170 95/95/95
f 78/78/78 125/125/125 9/9/9
f 117/117/117 30/30/30 75/75/75
f 74/74/74 16/16/16 139/139/139
f 54/54/54 58/58/58 140/140/140
f 129/129/129 45/45/45 36/36/36
f 2/2/2 158/158/158 119/119/119
f 110/110/110 135/135/135 17/17/17
f 108/108/108 111/111/111 52/52/52
f 121/121/121 97/97/97 57/57/57
f 34/34/34 121/121/121 104/104/104
f 90/90/90 10/10/10 48/48/48
f 107/107/107 106/106/106 33/33/33
f 11/11/11 155/155/155 144/144/144
f 155/155/155 121/121/121 34/34/34
f 64/64/64 91/91/91 89/89/89
f 106/106/106 153/153/153 81/81/81
f 38/38/38 23/23/23 141/141/141
f 25/25/25 131/131/131 44/44/44
f 50/50/50 160/160/160 168/168/168
f 23/23/23 38/38/38 94/94/94
f 48/48/48 141/141/141 89/89/89
f 21/21/21 89/89/89 141/141/141
f 154/154/154 51/51/51 96/96/96
f 167/167/167 111/111/111 106/106/106
f 33/33/33 106/106/106 111/111/111
f 107/107/107 33/33/33 171/171/171
f 167/167/167 132/132/132 28/28/28
f 64/64/64 89/89/89 21/21/21
f 105/105/105 33/33/33 111/111/111
f 59/59/59 85/85/85 83/83/83
f 105/105/105 111/111/111 108/108/108
f 104/104/104 57/57/57 63/63/63
f 74/74/74 108/108/108 8/8/8
f 141/141/141 23/23/23 65/65/65
f 74/74/74 105/105/105 108/108/108
f 41/41/41 83/83/83 85/85/85
f 134/134/134 164/164/164 166/166/166
f 11/11/11 144/144/144 107/107/107
f 43/43/43 107/107/107 171/171/171
f 144/144/144 155/155/155 153/153/153
f 144/144/144 153/153/153 106/106/106
f 144/144/144 106/106/106 107/107/107
f 91/91/91 6/6/6 59/59/59
f 159/159/159 87/87/87 40/40/40
f 4/4/4 68/68/68 102/102/102
f 148/148/148 101/101/101 46/46/46
f 127/127/127 25/25/25 149/149/149
f 168/168/168 172/172/172 134/134/134
f 74/74/74 139/139/139 105/105/105
f 31/31/31 113/113/113 112/112/112
f 7/7/7 99/99/99 88/88/88
f 19/19/19 86/86/86 142/142/142
f 38/38/38 93/93/93 92/92/92
f 29/29/29 131/131/131 118/118/118
f 102/102/102 35/35/35 100/100/100
f 80/80/80 34/34/34 104/104/104
f 40/40/40 86/86/86 88/88/88
f 46/46/46 86/86/86 87/87/87
f 148/148/148 46/46/46 87/87/87
f 46/46/46 142/142/142 86/86/86
f 45/45/45 92/92/92 93/93/93
f 67/67/67 88/88/88 86/86/86
f 56/56/56 122/122/122 40/40/40
f 159/159/159 155/155/155 148/148/148
f 122/122/122 159/159/159 40/40/40
f 159/159/159 148/148/148 87/87/87
f 148/148/148 155/155/155 11/11/11
f 148/148/148 11/11/11 101/101/101
f 159/159/159 97/97/97 121/121/121
f 159/159/159 121/121/121 155/155/155
f 56/56/56 40/40/40 88/88/88
f 30/30/30 117/117/117 136/136/136
f 56/56/56 88/88/88 99/99/99
f 39/39/39 91/91/91 143/143/143
f 7/7/7 70/70/70 99/99/99
f 67/67/67 7/7/7 88/88/88
f 19/19/19 67/67/67 86/86/86
f 68/68/68 19/19/19 142/142/142
f 73/73/73 102/102/102 100/100/100
f 29/29/29 173/173/173 103/103/103
f 93/93/93 48/48/48 10/10/10
f 43/43/43 101/101/101 107/107/107
f 16/16/16 73/73/73 100/100/100
f 118/118/118 79/79/79 14/14/14
f 142/142/142 35/35/35 68/68/68
f 153/153/153 155/155/155 34/34/34
f 112/112/112 42/42/42 31/31/31
f 28/28/28 128/128/128 52/52/52
f 131/131/131 25/25/25 13/13/13
f 60/60/60 63/63/63 172/172/172
f 161/161/161 172/172/172 63/63/63
f 126/126/126 17/17/17 71/71/71
f 132/132/132 26/26/26 28/28/28
f 128/128/128 71/71/71 8/8/8
f 79/79/79 124/124/124 133/133/133
f 167/167/167 28/28/28 52/52/52
f 26/26/26 128/128/128 28/28/28
f 161/161/161 95/95/95 147/147/147
f 77/77/77 119/119/119 118/118/118
f 95/95/95 170/170/170 49/49/49
f 100/100/100 35/35/35 43/43/43
f 103/103/103 131/131/131 29/29/29
f 35/35/35 142/142/142 101/101/101
f 101/101/101 43/43/43 35/35/35
f 13/13/13 25/25/25 127/127/127
f 149/149/149 126/126/126 26/26/26
f 149/149/149 26/26/26 127/127/127
f 51/51/51 127/127/127 132/132/132
f 79/79/79 118/118/118 131/131/131
f 133/133/133 14/14/14 79/79/79
f 115/115/115 75/75/75 30/30/30
f 163/163/163 132/132/132 167/167/167
f 132/132/132 127/127/127 26/26/26
f 167/167/167 52/52/52 111/111/111
f 163/163/163 167/167/167 81/81/81
f 63/63/63 95/95/95 161/161/161
f 146/146/146 163/163/163 81/81/81
f 123/123/123 62/62/62 27/27/27
f 96/96/96 160/160/160 50/50/50
f 50/50/50 168/168/168 32/32/32
f 161/161/161 164/164/164 172/172/172
f 96/96/96 5/5/5 160/160/160
f 134/134/134 172/172/172 164/164/164
f 124/124/124 154/154/154 61/61/61
f 12/12/12 42/42/42 116/116/116
f 123/123/123 50/50/50 32/32/32
f 96/96/96 50/50/50 61/61/61
f 54/54/54 140/140/140 24/24/24
f 77/77/77 118/118/118 14/14/14
f 154/154/154 127/127/127 51/51/51
f 125/125/125 27/27/27 62/62/62
f 51/51/51 132/132/132 163/163/163
f 130/130/130 17/17/17 135/135/135
f 154/154/154 96/96/96 61/61/61
f 154/154/154 13/13/13 127/127/127
f 124/124/124 13/13/13 154/154/154
f 15/15/15 115/115/115 112/112/112
f 42/42/42 112/112/112 115/115/115
f 62/62/62 117/117/117 125/125/125
f 123/123/123 61/61/61 50/50/50
f 150/150/150 146/146/146 80/80/80
f 11/11/11 107/107/107 101/101/101
f 137/137/137 31/31/31 47/47/47
f 9/9/9 117/117/117 75/75/75
f 134/134/134 165/165/165 168/168/168
f 146/146/146 81/81/81 153/153/153
f 119/119/119 29/29/29 118/118/118
f 162/162/162 163/163/163 145/145/145
f 37/37/37 24/24/24 147/147/147
f 37/37/37 147/147/147 49/49/49
f 95/95/95 49/49/49 147/147/147
f 24/24/24 140/140/140 147/147/147
