# frame 001043 
# time 0.522000 
# name Box 
v 0.720175 0.468685 -0.359684
v 0.718823 0.790522 -0.122156
v 0.719821 0.552996 0.199684
v 0.720175 0.468685 -0.359684
v 0.719821 0.552996 0.199684
v 0.721174 0.231160 -0.037844
v 0.320179 0.467004 -0.359684
v 0.321177 0.229478 -0.037844
v 0.319825 0.551315 0.199684
v 0.320179 0.467004 -0.359684
v 0.319825 0.551315 0.199684
v 0.318826 0.788840 -0.122156
v 0.720175 0.468685 -0.359684
v 0.320179 0.467004 -0.359684
v 0.318826 0.788840 -0.122156
v 0.720175 0.468685 -0.359684
v 0.318826 0.788840 -0.122156
v 0.718823 0.790522 -0.122156
v 0.718823 0.790522 -0.122156
v 0.318826 0.788840 -0.122156
v 0.319825 0.551315 0.199684
v 0.718823 0.790522 -0.122156
v 0.319825 0.551315 0.199684
v 0.719821 0.552996 0.199684
v 0.719821 0.552996 0.199684
v 0.319825 0.551315 0.199684
v 0.321177 0.229478 -0.037844
v 0.719821 0.552996 0.199684
v 0.321177 0.229478 -0.037844
v 0.721174 0.231160 -0.037844
v 0.320179 0.467004 -0.359684
v 0.720175 0.468685 -0.359684
v 0.721174 0.231160 -0.037844
v 0.320179 0.467004 -0.359684
v 0.721174 0.231160 -0.037844
v 0.321177 0.229478 -0.037844
vn 0.199998 0.000841 0.000000
vn 0.199998 0.000841 0.000000
vn 0.199998 0.000841 0.000000
vn 0.199998 0.000841 0.000000
vn 0.199998 0.000841 0.000000
vn 0.199998 0.000841 0.000000
vn -0.199998 -0.000841 0.000000
vn -0.199998 -0.000841 0.000000
vn -0.199998 -0.000841 0.000000
vn -0.199998 -0.000841 0.000000
vn -0.199998 -0.000841 0.000000
vn -0.199998 -0.000841 0.000000
vn -0.000499 0.118763 -0.160920
vn -0.000499 0.118763 -0.160920
vn -0.000499 0.118763 -0.160920
vn -0.000499 0.118763 -0.160920
vn -0.000499 0.118763 -0.160920
vn -0.000499 0.118763 -0.160920
vn -0.000676 0.160918 0.118764
vn -0.000676 0.160918 0.118764
vn -0.000676 0.160918 0.118764
vn -0.000676 0.160918 0.118764
vn -0.000676 0.160918 0.118764
vn -0.000676 0.160918 0.118764
vn 0.000499 -0.118763 0.160920
vn 0.000499 -0.118763 0.160920
vn 0.000499 -0.118763 0.160920
vn 0.000499 -0.118763 0.160920
vn 0.000499 -0.118763 0.160920
vn 0.000499 -0.118763 0.160920
vn 0.000676 -0.160918 -0.118764
vn 0.000676 -0.160918 -0.118764
vn 0.000676 -0.160918 -0.118764
vn 0.000676 -0.160918 -0.118764
vn 0.000676 -0.160918 -0.118764
vn 0.000676 -0.160918 -0.118764
f 1/1/1 2/2/2 3/3/3
f 4/4/4 5/5/5 6/6/6
f 7/7/7 8/8/8 9/9/9
f 10/10/10 11/11/11 12/12/12
f 13/13/13 14/14/14 15/15/15
f 16/16/16 17/17/17 18/18/18
f 19/19/19 20/20/20 21/21/21
f 22/22/22 23/23/23 24/24/24
f 25/25/25 26/26/26 27/27/27
f 28/28/28 29/29/29 30/30/30
f 31/31/31 32/32/32 33/33/33
f 34/34/34 35/35/35 36/36/36
