# frame 001068 
# time 0.534500 
# name Cloth3D 
v -0.000000 0.000000 -0.000000
v 1.000000 0.000000 -0.000000
v -0.000000 1.000000 0.000000
v 1.000000 1.000000 0.000000
v 0.938663 0.124791 0.015580
v -0.000000 0.500000 0.000000
v 0.500000 1.000000 0.000000
v 1.000000 0.500000 0.000000
v 0.500000 -0.000000 0.000000
v 0.248717 0.747507 0.058841
v 0.758496 0.751333 0.084270
v 0.248592 0.256853 0.049307
v 0.754370 0.251843 0.069758
v 0.750000 0.000000 0.000000
v 0.250000 0.000000 0.000000
v 1.000000 0.750000 0.000000
v 1.000000 0.250000 0.000000
v 0.250000 1.000000 0.000000
v 0.750000 1.000000 0.000000
v 0.000000 0.250000 0.000000
v 0.000000 0.750000 -0.000000
v 0.365061 0.229471 0.050115
v 0.063611 0.873684 -0.007125
v 0.228021 0.520415 0.131702
v 0.817923 0.250392 0.062942
v 0.881431 0.377259 0.054240
v 0.625657 0.128496 0.034636
v 0.886906 0.438661 0.068990
v 0.877463 0.123495 0.031220
v 0.375442 0.131031 0.024425
v 0.125452 0.127288 0.009971
v 0.492699 0.259133 0.071243
v 0.886115 0.626455 0.068742
v 0.639026 0.627143 0.160066
v 0.876385 0.874649 0.022682
v 0.377042 0.869124 0.028653
v 0.247148 0.606310 0.129451
v 0.126829 0.872372 0.000307
v 0.119341 0.626011 0.055016
v 0.627278 0.871593 0.041365
v 0.119120 0.377268 0.053295
v 0.250217 0.128398 0.024251
v 0.881060 0.750605 0.048464
v 0.880156 0.250225 0.047565
v 0.251432 0.871964 0.022373
v 0.752168 0.875072 0.040481
v 0.121697 0.251310 0.038957
v 0.125308 0.747590 0.023653
v 0.308427 0.601605 0.165179
v 0.584163 0.312991 0.090429
v 0.743530 0.371056 0.094552
v 0.887438 0.501337 0.072288
v 0.437286 0.764953 0.074511
v 0.236100 0.460885 0.114695
v 0.000000 0.375000 0.000000
v 0.502318 0.868731 0.035251
v 0.501777 0.625596 0.156046
v 0.242610 0.379905 0.094230
v 0.114935 0.502096 0.066203
v 0.521349 0.423860 0.129638
v 0.627226 0.256601 0.071658
v 0.500443 0.130520 0.029988
v 0.497638 0.569550 0.196218
v 0.000000 0.625000 0.000000
v 0.000000 0.875000 0.000000
v 0.000000 0.125000 0.000000
v 0.625000 1.000000 0.000000
v 0.875000 1.000000 0.000000
v 0.125000 1.000000 0.000000
v 0.375000 1.000000 0.000000
v 1.000000 0.375000 0.000000
v 0.569867 0.469208 0.149421
v 1.000000 0.875000 0.000000
v 1.000000 0.625000 0.000000
v 0.375000 0.000000 0.000000
v 0.125000 0.000000 0.000000
v 0.875000 0.000000 0.000000
v 0.625000 0.000000 0.000000
v 0.751420 0.125209 0.037747
v 0.471668 0.487380 0.156633
v 0.782754 0.518042 0.141090
v 0.058321 0.313365 0.028288
v 0.177596 0.441250 0.087183
v 0.182569 0.315774 0.062633
v 0.058109 0.438664 0.030929
v 0.688132 0.937660 0.023905
v 0.691900 0.809639 0.061943
v 0.563648 0.934436 0.017474
v 0.059397 0.687574 0.025290
v 0.182434 0.688453 0.065215
v 0.059936 0.562995 0.027884
v 0.188948 0.935623 0.001215
v 0.188670 0.809205 0.024098
v 0.063084 0.936556 0.000850
v 0.386961 0.495409 0.161203
v 0.677513 0.365578 0.104052
v 0.510062 0.718671 0.100159
v 0.313933 0.806912 0.044507
v 0.438872 0.933738 0.013351
v 0.940013 0.812504 0.020624
v 0.816176 0.812008 0.047083
v 0.937905 0.937701 0.009451
v 0.878208 0.187151 0.037465
v 0.571425 0.569850 0.196242
v 0.944958 0.500776 0.037980
v 0.836580 0.594279 0.105131
v 0.826547 0.691473 0.092958
v 0.946171 0.563235 0.040121
v 0.314615 0.699948 0.097730
v 0.820691 0.751502 0.068852
v 0.888037 0.564195 0.073967
v 0.188189 0.064396 0.005624
v 0.063068 0.063283 -0.001348
v 0.187374 0.192371 0.025285
v 0.312914 0.064515 0.013967
v 0.312385 0.193515 0.042835
v 0.437753 0.065152 0.014720
v 0.813133 0.061430 0.020374
v 0.937667 0.062715 0.005797
v -0.000000 0.937500 0.000000
v 0.595694 0.673316 0.129827
v 0.528125 0.797163 0.064430
v 0.563342 0.193460 0.053068
v 0.689442 0.190526 0.054103
v 0.562649 0.064406 0.017802
v 0.939736 0.313301 0.024247
v 0.818630 0.314655 0.068744
v 0.945896 0.438121 0.038486
v 0.313787 0.935767 0.015273
v 1.000000 0.187500 0.000000
v 0.816208 0.186742 0.051824
v 0.809451 0.375698 0.082468
v 0.687758 0.063606 0.017847
v 0.397314 0.386800 0.113120
v 0.940698 0.187091 0.024093
v 0.437621 0.194749 0.048552
v 0.061591 0.188379 0.014530
v 0.380467 0.762826 0.071702
v 0.942118 0.687647 0.030541
v 0.299486 0.450185 0.129794
v 0.063318 0.811211 0.003206
v 0.812869 0.937420 0.016134
v 0.176221 0.565639 0.093454
v 0.783745 0.653526 0.123592
v 0.678735 0.475373 0.146414
v 0.719689 0.570396 0.196376
v 0.319896 0.568715 0.196379
v 0.724964 0.771481 0.078831
v 0.879322 0.313977 0.046911
v 0.623321 0.570061 0.196259
v 0.180573 0.378638 0.074524
v 0.292349 0.339050 0.087286
v 0.734447 0.613945 0.164123
v 0.718548 0.305075 0.084335
v 0.681350 0.671039 0.135140
v 0.329183 0.284327 0.070168
v 0.272176 0.660745 0.113026
v 1.000000 0.062500 -0.000000
v 0.616926 0.766527 0.083021
v 0.599338 0.375635 0.113180
v 0.413099 0.569195 0.196216
v 0.724517 0.429021 0.118070
v 0.772719 0.459127 0.117186
v 0.119648 0.314103 0.048767
v 0.418037 0.266823 0.066831
v 0.060098 0.250735 0.021705
v 0.830031 0.483251 0.106681
v 0.477381 0.372602 0.111477
v 0.178961 0.627540 0.082841
v 0.410966 0.659915 0.131128
v 0.447683 0.430337 0.134254
v 0.000000 0.812500 -0.000000
v 0.884121 0.689080 0.060763
v 0.250988 0.935982 0.010667
vt 0.000000 0.000000
vt 1.000000 0.000000
vt 0.000000 1.000000
vt 1.000000 1.000000
vt 0.937500 0.125000
vt 0.000000 0.500000
vt 0.500000 1.000000
vt 1.000000 0.500000
vt 0.500000 0.000000
vt 0.250000 0.750000
vt 0.750000 0.750000
vt 0.250000 0.250000
vt 0.750000 0.250000
vt 0.750000 0.000000
vt 0.250000 0.000000
vt 1.000000 0.750000
vt 1.000000 0.250000
vt 0.250000 1.000000
vt 0.750000 1.000000
vt 0.000000 0.250000
vt 0.000000 0.750000
vt 0.365347 0.220303
vt 0.062500 0.875000
vt 0.245672 0.515386
vt 0.812500 0.250000
vt 0.875000 0.375000
vt 0.625000 0.125000
vt 0.875000 0.437500
vt 0.875000 0.125000
vt 0.375000 0.125000
vt 0.125000 0.125000
vt 0.492214 0.250470
vt 0.875000 0.625000
vt 0.625000 0.625000
vt 0.875000 0.875000
vt 0.375000 0.875000
vt 0.262101 0.599801
vt 0.125000 0.875000
vt 0.125000 0.625000
vt 0.625000 0.875000
vt 0.125000 0.375000
vt 0.250000 0.125000
vt 0.875000 0.750000
vt 0.875000 0.250000
vt 0.250000 0.875000
vt 0.750000 0.875000
vt 0.125000 0.250000
vt 0.125000 0.750000
vt 0.325445 0.593646
vt 0.581754 0.304126
vt 0.736041 0.365469
vt 0.875000 0.500000
vt 0.435664 0.771773
vt 0.248222 0.455442
vt 0.000000 0.375000
vt 0.500000 0.875000
vt 0.500000 0.625000
vt 0.250000 0.375000
vt 0.125000 0.500000
vt 0.519707 0.411902
vt 0.625000 0.250000
vt 0.500000 0.125000
vt 0.496897 0.560443
vt 0.000000 0.625000
vt 0.000000 0.875000
vt 0.000000 0.125000
vt 0.625000 1.000000
vt 0.875000 1.000000
vt 0.125000 1.000000
vt 0.375000 1.000000
vt 1.000000 0.375000
vt 0.564051 0.458319
vt 1.000000 0.875000
vt 1.000000 0.625000
vt 0.375000 0.000000
vt 0.125000 0.000000
vt 0.875000 0.000000
vt 0.625000 0.000000
vt 0.750000 0.125000
vt 0.473805 0.475426
vt 0.760524 0.515669
vt 0.062500 0.312500
vt 0.187500 0.437500
vt 0.187500 0.312500
vt 0.062500 0.437500
vt 0.687500 0.937500
vt 0.687500 0.812500
vt 0.562500 0.937500
vt 0.062500 0.687500
vt 0.187500 0.687500
vt 0.062500 0.562500
vt 0.187500 0.937500
vt 0.187500 0.812500
vt 0.062500 0.937500
vt 0.396781 0.484194
vt 0.671367 0.358455
vt 0.506884 0.725192
vt 0.312500 0.812500
vt 0.437500 0.937500
vt 0.937500 0.812500
vt 0.812500 0.812500
vt 0.937500 0.937500
vt 0.875000 0.187500
vt 0.562516 0.561791
vt 0.937500 0.500000
vt 0.819332 0.591237
vt 0.812500 0.687500
vt 0.937500 0.562500
vt 0.319123 0.700934
vt 0.812500 0.750000
vt 0.875000 0.562500
vt 0.187500 0.062500
vt 0.062500 0.062500
vt 0.187500 0.187500
vt 0.312500 0.062500
vt 0.312500 0.187500
vt 0.437500 0.062500
vt 0.812500 0.062500
vt 0.937500 0.062500
vt 0.000000 0.937500
vt 0.587160 0.675778
vt 0.525016 0.804189
vt 0.562500 0.187500
vt 0.687500 0.187500
vt 0.562500 0.062500
vt 0.937500 0.312500
vt 0.812500 0.312500
vt 0.937500 0.437500
vt 0.312500 0.937500
vt 1.000000 0.187500
vt 0.812500 0.187500
vt 0.800716 0.372483
vt 0.687500 0.062500
vt 0.400647 0.375957
vt 0.937500 0.187500
vt 0.437500 0.187500
vt 0.062500 0.187500
vt 0.380019 0.768564
vt 0.937500 0.687500
vt 0.309549 0.441894
vt 0.062500 0.812500
vt 0.812500 0.937500
vt 0.187500 0.562500
vt 0.765906 0.648544
vt 0.665088 0.466564
vt 0.689501 0.563637
vt 0.342285 0.556882
vt 0.718294 0.771897
vt 0.875000 0.312500
vt 0.608133 0.561928
vt 0.187500 0.375000
vt 0.296906 0.332149
vt 0.711873 0.607167
vt 0.713437 0.300753
vt 0.668274 0.669022
vt 0.331126 0.276226
vt 0.281585 0.657008
vt 1.000000 0.062500
vt 0.611736 0.771102
vt 0.595175 0.366343
vt 0.422308 0.559883
vt 0.713353 0.422290
vt 0.758105 0.454518
vt 0.125000 0.312500
vt 0.418341 0.256674
vt 0.062500 0.250000
vt 0.812755 0.481587
vt 0.477835 0.361491
vt 0.187500 0.625000
vt 0.414679 0.661630
vt 0.450521 0.418925
vt 0.000000 0.812500
vt 0.875000 0.687500
vt 0.250000 0.937500
vn 0.010861 0.010861 0.999882
vn 0.064674 -0.032337 0.997382
vn -0.011326 0.005663 0.999920
vn 0.075815 0.075815 0.994236
vn 0.239193 -0.117350 0.963855
vn -0.472345 0.013474 0.881311
vn -0.016224 0.228176 0.973485
vn 0.576984 -0.003247 0.816749
vn -0.011083 -0.242686 0.970042
vn -0.216557 0.406123 0.887788
vn 0.162460 0.413426 0.895927
vn -0.125325 -0.286121 0.949962
vn 0.079078 -0.189537 0.978684
vn -0.012478 -0.293479 0.955884
vn -0.032451 -0.165676 0.985646
vn 0.395941 0.038418 0.917472
vn 0.371379 -0.000439 0.928481
vn -0.075164 0.145628 0.986480
vn 0.030426 0.304736 0.951951
vn -0.333393 -0.076423 0.939685
vn -0.170415 0.070099 0.982876
vn -0.015384 -0.301708 0.953276
vn -0.039753 0.013268 0.999121
vn -0.448514 -0.106969 0.887352
vn 0.170920 -0.132430 0.976345
vn 0.377709 -0.181319 0.907997
vn -0.020625 -0.266029 0.963744
vn 0.452019 -0.153280 0.878740
vn 0.193800 -0.161721 0.967620
vn -0.003526 -0.231573 0.972811
vn -0.067128 -0.156897 0.985331
vn -0.049608 -0.309735 0.949528
vn 0.509681 0.115348 0.852596
vn -0.004635 0.524865 0.851173
vn 0.127623 0.165949 0.977841
vn -0.026125 0.280026 0.959637
vn -0.477799 0.338009 0.810838
vn -0.116346 0.080741 0.989922
vn -0.407976 0.165208 0.897921
vn -0.031027 0.318265 0.947494
vn -0.344911 -0.088609 0.934444
vn -0.104363 -0.187291 0.976745
vn 0.354978 0.238735 0.903878
vn 0.287257 -0.077130 0.954743
vn -0.130281 0.185216 0.974024
vn 0.084188 0.287263 0.954145
vn -0.193961 -0.185186 0.963372
vn -0.224327 0.234675 0.945836
vn -0.246463 0.579803 0.776586
vn 0.018145 -0.322966 0.946236
vn 0.173110 -0.261158 0.949647
vn 0.517405 -0.039680 0.854820
vn -0.046980 0.428102 0.902508
vn -0.297768 -0.282912 0.911754
vn -0.455190 -0.009489 0.890344
vn -0.043020 0.326456 0.944233
vn -0.018487 0.555845 0.831081
vn -0.233770 -0.273133 0.933140
vn -0.477809 -0.009485 0.878413
vn 0.002070 -0.366280 0.930502
vn 0.010038 -0.287507 0.957726
vn -0.036587 -0.256617 0.965820
vn -0.002306 0.175213 0.984528
vn -0.411706 0.008611 0.911276
vn 0.113051 -0.000000 0.993589
vn -0.100373 -0.062047 0.993013
vn -0.027590 0.308985 0.950667
vn 0.024837 0.199509 0.979581
vn 0.001122 0.008918 0.999960
vn 0.008553 0.213668 0.976869
vn 0.448712 -0.060334 0.891637
vn 0.004864 -0.396501 0.918021
vn 0.239069 0.044901 0.969964
vn 0.531342 0.039782 0.846223
vn -0.002330 -0.200623 0.979666
vn -0.026882 -0.031272 0.999149
vn 0.057092 -0.209246 0.976195
vn -0.001804 -0.266886 0.963726
vn -0.009515 -0.261750 0.965089
vn 0.006577 -0.400356 0.916336
vn 0.423310 -0.242788 0.872847
vn -0.354295 -0.072337 0.932332
vn -0.355762 -0.207548 0.911239
vn -0.183868 -0.232843 0.954975
vn -0.450920 -0.038786 0.891721
vn 0.001805 0.312289 0.949986
vn -0.003419 0.370080 0.928994
vn -0.035913 0.282566 0.958575
vn -0.300798 0.127836 0.945081
vn -0.354520 0.315601 0.880177
vn -0.457388 0.048219 0.887959
vn -0.097205 0.104649 0.989747
vn -0.190440 0.227732 0.954919
vn -0.026666 -0.062348 0.997698
vn -0.025867 -0.426726 0.904011
vn 0.112065 -0.301797 0.946763
vn -0.037337 0.465287 0.884372
vn -0.117767 0.339423 0.933232
vn -0.018586 0.236263 0.971511
vn 0.272688 0.092937 0.957603
vn 0.207262 0.295918 0.932457
vn 0.095950 0.105750 0.989753
vn 0.224853 -0.134854 0.965016
vn -0.006011 0.120544 0.992690
vn 0.532798 -0.013722 0.846131
vn 0.525837 0.093650 0.845415
vn 0.383115 0.277965 0.880885
vn 0.535400 0.012461 0.844507
vn -0.142508 0.498821 0.854909
vn 0.263433 0.361119 0.894537
vn 0.522176 0.034108 0.852155
vn -0.067613 -0.123614 0.990024
vn -0.026421 -0.044038 0.998680
vn -0.088007 -0.217074 0.972180
vn 0.001419 -0.200375 0.979718
vn -0.018660 -0.243726 0.969665
vn -0.027820 -0.202741 0.978837
vn 0.034146 -0.274922 0.960860
vn 0.108659 -0.134729 0.984907
vn 0.015072 -0.032259 0.999366
vn -0.035163 0.502581 0.863815
vn -0.044158 0.391153 0.919266
vn -0.023639 -0.297841 0.954323
vn -0.014772 -0.263828 0.964457
vn -0.016769 -0.241592 0.970233
vn 0.369380 -0.030083 0.928791
vn 0.256905 -0.117581 0.959257
vn 0.489433 -0.064841 0.869627
vn -0.036110 0.198582 0.979419
vn 0.354686 -0.037254 0.934243
vn 0.143539 -0.186781 0.971859
vn 0.277756 -0.219388 0.935265
vn -0.015246 -0.273020 0.961888
vn -0.057164 -0.381293 0.922685
vn 0.303049 -0.098698 0.947850
vn -0.073078 -0.289588 0.954358
vn -0.213907 -0.119565 0.969509
vn -0.079575 0.429362 0.899620
vn 0.454674 0.095917 0.885478
vn -0.211538 -0.348631 0.913076
vn -0.095073 0.135328 0.986229
vn 0.060788 0.243543 0.967983
vn -0.491235 0.147452 0.858456
vn 0.371807 0.323451 0.870138
vn 0.143443 -0.408703 0.901325
vn 0.343206 0.172255 0.923330
vn -0.204113 0.308047 0.929217
vn 0.069210 0.419610 0.905062
vn 0.345767 -0.051330 0.936916
vn 0.003079 0.169388 0.985545
vn -0.292054 -0.185010 0.938337
vn -0.116980 -0.349953 0.929434
vn 0.326675 0.437309 0.837881
vn 0.102274 -0.226392 0.968652
vn 0.042669 0.491139 0.870036
vn -0.066975 -0.335725 0.939576
vn -0.311876 0.468689 0.826477
vn 0.118726 -0.044068 0.991949
vn -0.016938 0.422132 0.906376
vn 0.030549 -0.352421 0.935343
vn -0.008514 0.027486 0.999586
vn 0.200624 -0.332781 0.921416
vn 0.254629 -0.344291 0.903675
vn -0.269327 -0.123490 0.955099
vn -0.073839 -0.318562 0.945022
vn -0.308024 -0.120821 0.943675
vn 0.436236 -0.190630 0.879408
vn -0.016501 -0.357889 0.933618
vn -0.431028 0.238558 0.870233
vn -0.045074 0.534203 0.844154
vn -0.005885 -0.380564 0.924736
vn -0.007069 0.041143 0.999128
vn 0.471293 0.160757 0.867203
vn -0.113949 0.165067 0.979678
f 1/1/1 113/113/113 66/66/66
f 31/31/31 137/137/137 113/113/113
f 41/41/41 151/151/151 83/83/83
f 76/76/76 112/112/112 113/113/113
f 84/84/84 152/152/152 58/58/58
f 112/112/112 114/114/114 31/31/31
f 137/137/137 66/66/66 113/113/113
f 164/164/164 47/47/47 84/84/84
f 112/112/112 31/31/31 113/113/113
f 34/34/34 121/121/121 104/104/104
f 156/156/156 152/152/152 12/12/12
f 136/136/136 30/30/30 62/62/62
f 76/76/76 113/113/113 1/1/1
f 42/42/42 114/114/114 112/112/112
f 15/15/15 112/112/112 76/76/76
f 115/115/115 15/15/15 75/75/75
f 25/25/25 44/44/44 127/127/127
f 116/116/116 115/115/115 30/30/30
f 10/10/10 98/98/98 93/93/93
f 22/22/22 30/30/30 136/136/136
f 149/149/149 127/127/127 44/44/44
f 125/125/125 62/62/62 117/117/117
f 165/165/165 136/136/136 32/32/32
f 134/134/134 156/156/156 165/165/165
f 156/156/156 116/116/116 22/22/22
f 137/137/137 31/31/31 47/47/47
f 116/116/116 30/30/30 22/22/22
f 57/57/57 104/104/104 121/121/121
f 42/42/42 115/115/115 116/116/116
f 156/156/156 12/12/12 116/116/116
f 114/114/114 47/47/47 31/31/31
f 161/161/161 147/147/147 95/95/95
f 140/140/140 134/134/134 95/95/95
f 165/165/165 156/156/156 22/22/22
f 134/134/134 165/165/165 168/168/168
f 165/165/165 22/22/22 136/136/136
f 168/168/168 165/165/165 32/32/32
f 83/83/83 151/151/151 58/58/58
f 164/164/164 151/151/151 41/41/41
f 50/50/50 160/160/160 168/168/168
f 171/171/171 134/134/134 168/168/168
f 95/95/95 171/171/171 80/80/80
f 134/134/134 152/152/152 156/156/156
f 160/160/160 72/72/72 60/60/60
f 60/60/60 72/72/72 80/80/80
f 98/98/98 138/138/138 36/36/36
f 95/95/95 134/134/134 171/171/171
f 138/138/138 53/53/53 36/36/36
f 140/140/140 58/58/58 152/152/152
f 84/84/84 58/58/58 151/151/151
f 140/140/140 152/152/152 134/134/134
f 37/37/37 147/147/147 49/49/49
f 54/54/54 58/58/58 140/140/140
f 36/36/36 99/99/99 70/70/70
f 83/83/83 58/58/58 54/54/54
f 114/114/114 42/42/42 12/12/12
f 164/164/164 84/84/84 151/151/151
f 85/85/85 41/41/41 83/83/83
f 166/166/166 137/137/137 47/47/47
f 84/84/84 114/114/114 12/12/12
f 84/84/84 12/12/12 152/152/152
f 117/117/117 62/62/62 30/30/30
f 47/47/47 114/114/114 84/84/84
f 82/82/82 164/164/164 41/41/41
f 166/166/166 164/164/164 82/82/82
f 116/116/116 12/12/12 42/42/42
f 166/166/166 47/47/47 164/164/164
f 20/20/20 166/166/166 82/82/82
f 20/20/20 137/137/137 166/166/166
f 20/20/20 66/66/66 137/137/137
f 55/55/55 20/20/20 82/82/82
f 38/38/38 92/92/92 69/69/69
f 37/37/37 143/143/143 24/24/24
f 89/89/89 39/39/39 48/48/48
f 141/141/141 38/38/38 23/23/23
f 24/24/24 59/59/59 83/83/83
f 147/147/147 24/24/24 140/140/140
f 92/92/92 18/18/18 69/69/69
f 94/94/94 38/38/38 69/69/69
f 174/174/174 129/129/129 18/18/18
f 129/129/129 36/36/36 70/70/70
f 170/170/170 138/138/138 109/109/109
f 56/56/56 53/53/53 122/122/122
f 161/161/161 49/49/49 147/147/147
f 122/122/122 97/97/97 159/159/159
f 112/112/112 15/15/15 42/42/42
f 109/109/109 157/157/157 49/49/49
f 109/109/109 98/98/98 10/10/10
f 157/157/157 90/90/90 169/169/169
f 115/115/115 42/42/42 15/15/15
f 115/115/115 75/75/75 30/30/30
f 117/117/117 30/30/30 75/75/75
f 38/38/38 93/93/93 92/92/92
f 129/129/129 70/70/70 18/18/18
f 174/174/174 45/45/45 129/129/129
f 174/174/174 18/18/18 92/92/92
f 174/174/174 92/92/92 45/45/45
f 94/94/94 69/69/69 3/3/3
f 93/93/93 38/38/38 48/48/48
f 120/120/120 94/94/94 3/3/3
f 23/23/23 120/120/120 65/65/65
f 172/172/172 23/23/23 65/65/65
f 48/48/48 141/141/141 21/21/21
f 23/23/23 38/38/38 94/94/94
f 23/23/23 94/94/94 120/120/120
f 172/172/172 141/141/141 23/23/23
f 21/21/21 141/141/141 172/172/172
f 39/39/39 169/169/169 90/90/90
f 6/6/6 91/91/91 64/64/64
f 48/48/48 90/90/90 10/10/10
f 48/48/48 38/38/38 141/141/141
f 93/93/93 48/48/48 10/10/10
f 45/45/45 92/92/92 93/93/93
f 157/157/157 169/169/169 37/37/37
f 57/57/57 161/161/161 63/63/63
f 39/39/39 90/90/90 48/48/48
f 45/45/45 98/98/98 129/129/129
f 89/89/89 48/48/48 21/21/21
f 59/59/59 85/85/85 83/83/83
f 64/64/64 89/89/89 21/21/21
f 64/64/64 39/39/39 89/89/89
f 59/59/59 143/143/143 91/91/91
f 39/39/39 91/91/91 143/143/143
f 91/91/91 39/39/39 64/64/64
f 6/6/6 55/55/55 85/85/85
f 24/24/24 83/83/83 54/54/54
f 36/36/36 129/129/129 98/98/98
f 24/24/24 143/143/143 59/59/59
f 143/143/143 169/169/169 39/39/39
f 24/24/24 54/54/54 140/140/140
f 37/37/37 24/24/24 147/147/147
f 147/147/147 140/140/140 95/95/95
f 161/161/161 170/170/170 49/49/49
f 157/157/157 37/37/37 49/49/49
f 37/37/37 169/169/169 143/143/143
f 170/170/170 109/109/109 49/49/49
f 157/157/157 10/10/10 90/90/90
f 109/109/109 138/138/138 98/98/98
f 109/109/109 10/10/10 157/157/157
f 97/97/97 170/170/170 57/57/57
f 170/170/170 53/53/53 138/138/138
f 161/161/161 95/95/95 80/80/80
f 63/63/63 161/161/161 80/80/80
f 119/119/119 2/2/2 158/158/158
f 118/118/118 133/133/133 14/14/14
f 77/77/77 2/2/2 119/119/119
f 104/104/104 63/63/63 72/72/72
f 72/72/72 63/63/63 80/80/80
f 97/97/97 57/57/57 121/121/121
f 57/57/57 170/170/170 161/161/161
f 91/91/91 6/6/6 59/59/59
f 97/97/97 53/53/53 170/170/170
f 78/78/78 125/125/125 9/9/9
f 51/51/51 163/163/163 162/162/162
f 173/173/173 33/33/33 139/139/139
f 146/146/146 34/34/34 150/150/150
f 85/85/85 59/59/59 6/6/6
f 88/88/88 56/56/56 40/40/40
f 81/81/81 153/153/153 146/146/146
f 111/111/111 105/105/105 108/108/108
f 150/150/150 104/104/104 72/72/72
f 153/153/153 155/155/155 34/34/34
f 148/148/148 46/46/46 87/87/87
f 155/155/155 121/121/121 34/34/34
f 146/146/146 153/153/153 34/34/34
f 107/107/107 106/106/106 33/33/33
f 41/41/41 85/85/85 82/82/82
f 145/145/145 146/146/146 150/150/150
f 51/51/51 127/127/127 132/132/132
f 167/167/167 106/106/106 81/81/81
f 107/107/107 33/33/33 173/173/173
f 106/106/106 153/153/153 81/81/81
f 26/26/26 71/71/71 128/128/128
f 111/111/111 108/108/108 33/33/33
f 111/111/111 52/52/52 105/105/105
f 43/43/43 173/173/173 139/139/139
f 28/28/28 105/105/105 52/52/52
f 139/139/139 33/33/33 108/108/108
f 111/111/111 33/33/33 106/106/106
f 167/167/167 111/111/111 106/106/106
f 8/8/8 108/108/108 105/105/105
f 100/100/100 43/43/43 139/139/139
f 110/110/110 101/101/101 11/11/11
f 11/11/11 144/144/144 107/107/107
f 110/110/110 11/11/11 107/107/107
f 144/144/144 155/155/155 153/153/153
f 144/144/144 153/153/153 106/106/106
f 144/144/144 106/106/106 107/107/107
f 43/43/43 101/101/101 110/110/110
f 11/11/11 155/155/155 144/144/144
f 35/35/35 100/100/100 102/102/102
f 46/46/46 101/101/101 142/142/142
f 43/43/43 107/107/107 173/173/173
f 43/43/43 110/110/110 107/107/107
f 35/35/35 101/101/101 100/100/100
f 100/100/100 101/101/101 43/43/43
f 74/74/74 139/139/139 108/108/108
f 16/16/16 100/100/100 139/139/139
f 86/86/86 46/46/46 142/142/142
f 142/142/142 101/101/101 35/35/35
f 7/7/7 70/70/70 99/99/99
f 142/142/142 35/35/35 102/102/102
f 68/68/68 142/142/142 102/102/102
f 159/159/159 155/155/155 148/148/148
f 148/148/148 101/101/101 46/46/46
f 19/19/19 86/86/86 142/142/142
f 40/40/40 87/87/87 86/86/86
f 56/56/56 36/36/36 53/53/53
f 159/159/159 87/87/87 40/40/40
f 122/122/122 159/159/159 40/40/40
f 159/159/159 148/148/148 87/87/87
f 148/148/148 155/155/155 11/11/11
f 148/148/148 11/11/11 101/101/101
f 159/159/159 97/97/97 121/121/121
f 159/159/159 121/121/121 155/155/155
f 56/56/56 122/122/122 40/40/40
f 122/122/122 53/53/53 97/97/97
f 46/46/46 86/86/86 87/87/87
f 56/56/56 99/99/99 36/36/36
f 88/88/88 40/40/40 86/86/86
f 67/67/67 88/88/88 86/86/86
f 67/67/67 7/7/7 88/88/88
f 19/19/19 67/67/67 86/86/86
f 68/68/68 19/19/19 142/142/142
f 73/73/73 102/102/102 100/100/100
f 4/4/4 68/68/68 102/102/102
f 73/73/73 4/4/4 102/102/102
f 16/16/16 73/73/73 100/100/100
f 74/74/74 16/16/16 139/139/139
f 8/8/8 74/74/74 108/108/108
f 131/131/131 13/13/13 79/79/79
f 103/103/103 44/44/44 25/25/25
f 62/62/62 27/27/27 123/123/123
f 27/27/27 133/133/133 124/124/124
f 44/44/44 17/17/17 126/126/126
f 127/127/127 149/149/149 26/26/26
f 128/128/128 71/71/71 8/8/8
f 128/128/128 8/8/8 105/105/105
f 28/28/28 128/128/128 105/105/105
f 26/26/26 128/128/128 28/28/28
f 167/167/167 28/28/28 52/52/52
f 132/132/132 127/127/127 26/26/26
f 126/126/126 71/71/71 26/26/26
f 126/126/126 17/17/17 71/71/71
f 149/149/149 126/126/126 26/26/26
f 149/149/149 44/44/44 126/126/126
f 25/25/25 127/127/127 13/13/13
f 135/135/135 44/44/44 103/103/103
f 7/7/7 99/99/99 88/88/88
f 56/56/56 88/88/88 99/99/99
f 132/132/132 26/26/26 28/28/28
f 154/154/154 51/51/51 96/96/96
f 79/79/79 13/13/13 124/124/124
f 131/131/131 25/25/25 13/13/13
f 167/167/167 132/132/132 28/28/28
f 163/163/163 132/132/132 167/167/167
f 167/167/167 52/52/52 111/111/111
f 163/163/163 167/167/167 81/81/81
f 55/55/55 82/82/82 85/85/85
f 34/34/34 104/104/104 150/150/150
f 160/160/160 145/145/145 72/72/72
f 154/154/154 127/127/127 51/51/51
f 57/57/57 63/63/63 104/104/104
f 77/77/77 119/119/119 118/118/118
f 72/72/72 145/145/145 150/150/150
f 60/60/60 80/80/80 171/171/171
f 160/160/160 60/60/60 168/168/168
f 60/60/60 171/171/171 168/168/168
f 50/50/50 168/168/168 32/32/32
f 96/96/96 160/160/160 50/50/50
f 96/96/96 145/145/145 160/160/160
f 123/123/123 50/50/50 32/32/32
f 96/96/96 50/50/50 61/61/61
f 125/125/125 27/27/27 62/62/62
f 77/77/77 118/118/118 14/14/14
f 124/124/124 154/154/154 61/61/61
f 96/96/96 162/162/162 145/145/145
f 51/51/51 132/132/132 163/163/163
f 51/51/51 162/162/162 96/96/96
f 154/154/154 96/96/96 61/61/61
f 154/154/154 13/13/13 127/127/127
f 124/124/124 13/13/13 154/154/154
f 27/27/27 124/124/124 61/61/61
f 123/123/123 27/27/27 61/61/61
f 125/125/125 133/133/133 27/27/27
f 123/123/123 61/61/61 50/50/50
f 123/123/123 32/32/32 136/136/136
f 62/62/62 123/123/123 136/136/136
f 45/45/45 93/93/93 98/98/98
f 9/9/9 117/117/117 75/75/75
f 9/9/9 125/125/125 117/117/117
f 78/78/78 133/133/133 125/125/125
f 14/14/14 133/133/133 78/78/78
f 119/119/119 29/29/29 118/118/118
f 103/103/103 131/131/131 29/29/29
f 131/131/131 79/79/79 118/118/118
f 79/79/79 124/124/124 133/133/133
f 79/79/79 133/133/133 118/118/118
f 29/29/29 131/131/131 118/118/118
f 103/103/103 25/25/25 131/131/131
f 119/119/119 158/158/158 5/5/5
f 5/5/5 130/130/130 135/135/135
f 135/135/135 17/17/17 44/44/44
f 135/135/135 130/130/130 17/17/17
f 5/5/5 103/103/103 29/29/29
f 5/5/5 135/135/135 103/103/103
f 119/119/119 5/5/5 29/29/29
f 5/5/5 158/158/158 130/130/130
f 145/145/145 81/81/81 146/146/146
f 145/145/145 163/163/163 81/81/81
f 162/162/162 163/163/163 145/145/145
