# frame 001066 
# time 0.533500 
# name Box 
v 0.720243 0.452682 -0.356799
v 0.718835 0.787637 -0.138159
v 0.719754 0.569000 0.196799
v 0.720243 0.452682 -0.356799
v 0.719754 0.569000 0.196799
v 0.721162 0.234045 -0.021841
v 0.320246 0.451000 -0.356799
v 0.321165 0.232363 -0.021841
v 0.319757 0.567318 0.196799
v 0.320246 0.451000 -0.356799
v 0.319757 0.567318 0.196799
v 0.318838 0.785955 -0.138159
v 0.720243 0.452682 -0.356799
v 0.320246 0.451000 -0.356799
v 0.318838 0.785955 -0.138159
v 0.720243 0.452682 -0.356799
v 0.318838 0.785955 -0.138159
v 0.718835 0.787637 -0.138159
v 0.718835 0.787637 -0.138159
v 0.318838 0.785955 -0.138159
v 0.319757 0.567318 0.196799
v 0.718835 0.787637 -0.138159
v 0.319757 0.567318 0.196799
v 0.719754 0.569000 0.196799
v 0.719754 0.569000 0.196799
v 0.319757 0.567318 0.196799
v 0.321165 0.232363 -0.021841
v 0.719754 0.569000 0.196799
v 0.321165 0.232363 -0.021841
v 0.721162 0.234045 -0.021841
v 0.320246 0.451000 -0.356799
v 0.720243 0.452682 -0.356799
v 0.721162 0.234045 -0.021841
v 0.320246 0.451000 -0.356799
v 0.721162 0.234045 -0.021841
v 0.321165 0.232363 -0.021841
vn 0.199998 0.000841 0.000000
vn 0.199998 0.000841 0.000000
vn 0.199998 0.000841 0.000000
vn 0.199998 0.000841 0.000000
vn 0.199998 0.000841 0.000000
vn 0.199998 0.000841 0.000000
vn -0.199998 -0.000841 0.000000
vn -0.199998 -0.000841 0.000000
vn -0.199998 -0.000841 0.000000
vn -0.199998 -0.000841 0.000000
vn -0.199998 -0.000841 0.000000
vn -0.199998 -0.000841 0.000000
vn -0.000460 0.109319 -0.167479
vn -0.000460 0.109319 -0.167479
vn -0.000460 0.109319 -0.167479
vn -0.000460 0.109319 -0.167479
vn -0.000460 0.109319 -0.167479
vn -0.000460 0.109319 -0.167479
vn -0.000704 0.167478 0.109320
vn -0.000704 0.167478 0.109320
vn -0.000704 0.167478 0.109320
vn -0.000704 0.167478 0.109320
vn -0.000704 0.167478 0.109320
vn -0.000704 0.167478 0.109320
vn 0.000460 -0.109319 0.167479
vn 0.000460 -0.109319 0.167479
vn 0.000460 -0.109319 0.167479
vn 0.000460 -0.109319 0.167479
vn 0.000460 -0.109319 0.167479
vn 0.000460 -0.109319 0.167479
vn 0.000704 -0.167478 -0.109320
vn 0.000704 -0.167478 -0.109320
vn 0.000704 -0.167478 -0.109320
vn 0.000704 -0.167478 -0.109320
vn 0.000704 -0.167478 -0.109320
vn 0.000704 -0.167478 -0.109320
f 1/1/1 2/2/2 3/3/3
f 4/4/4 5/5/5 6/6/6
f 7/7/7 8/8/8 9/9/9
f 10/10/10 11/11/11 12/12/12
f 13/13/13 14/14/14 15/15/15
f 16/16/16 17/17/17 18/18/18
f 19/19/19 20/20/20 21/21/21
f 22/22/22 23/23/23 24/24/24
f 25/25/25 26/26/26 27/27/27
f 28/28/28 29/29/29 30/30/30
f 31/31/31 32/32/32 33/33/33
f 34/34/34 35/35/35 36/36/36
