# frame 001052 
# time 0.526500 
# name Box 
v 0.720202 0.462403 -0.358664
v 0.718827 0.789503 -0.128438
v 0.719795 0.559278 0.198664
v 0.720202 0.462403 -0.358664
v 0.719795 0.559278 0.198664
v 0.721170 0.232179 -0.031562
v 0.320205 0.460722 -0.358664
v 0.321173 0.230497 -0.031562
v 0.319798 0.557597 0.198664
v 0.320205 0.460722 -0.358664
v 0.319798 0.557597 0.198664
v 0.318830 0.787821 -0.128438
v 0.720202 0.462403 -0.358664
v 0.320205 0.460722 -0.358664
v 0.318830 0.787821 -0.128438
v 0.720202 0.462403 -0.358664
v 0.318830 0.787821 -0.128438
v 0.718827 0.789503 -0.128438
v 0.718827 0.789503 -0.128438
v 0.318830 0.787821 -0.128438
v 0.319798 0.557597 0.198664
v 0.718827 0.789503 -0.128438
v 0.319798 0.557597 0.198664
v 0.719795 0.559278 0.198664
v 0.719795 0.559278 0.198664
v 0.319798 0.557597 0.198664
v 0.321173 0.230497 -0.031562
v 0.719795 0.559278 0.198664
v 0.321173 0.230497 -0.031562
v 0.721170 0.232179 -0.031562
v 0.320205 0.460722 -0.358664
v 0.720202 0.462403 -0.358664
v 0.721170 0.232179 -0.031562
v 0.320205 0.460722 -0.358664
v 0.721170 0.232179 -0.031562
v 0.321173 0.230497 -0.031562
vn 0.199998 0.000841 0.000000
vn 0.199998 0.000841 0.000000
vn 0.199998 0.000841 0.000000
vn 0.199998 0.000841 0.000000
vn 0.199998 0.000841 0.000000
vn 0.199998 0.000841 0.000000
vn -0.199998 -0.000841 0.000000
vn -0.199998 -0.000841 0.000000
vn -0.199998 -0.000841 0.000000
vn -0.199998 -0.000841 0.000000
vn -0.199998 -0.000841 0.000000
vn -0.199998 -0.000841 0.000000
vn -0.000484 0.115112 -0.163551
vn -0.000484 0.115112 -0.163551
vn -0.000484 0.115112 -0.163551
vn -0.000484 0.115112 -0.163551
vn -0.000484 0.115112 -0.163551
vn -0.000484 0.115112 -0.163551
vn -0.000688 0.163550 0.115113
vn -0.000688 0.163550 0.115113
vn -0.000688 0.163550 0.115113
vn -0.000688 0.163550 0.115113
vn -0.000688 0.163550 0.115113
vn -0.000688 0.163550 0.115113
vn 0.000484 -0.115112 0.163551
vn 0.000484 -0.115112 0.163551
vn 0.000484 -0.115112 0.163551
vn 0.000484 -0.115112 0.163551
vn 0.000484 -0.115112 0.163551
vn 0.000484 -0.115112 0.163551
vn 0.000688 -0.163550 -0.115113
vn 0.000688 -0.163550 -0.115113
vn 0.000688 -0.163550 -0.115113
vn 0.000688 -0.163550 -0.115113
vn 0.000688 -0.163550 -0.115113
vn 0.000688 -0.163550 -0.115113
f 1/1/1 2/2/2 3/3/3
f 4/4/4 5/5/5 6/6/6
f 7/7/7 8/8/8 9/9/9
f 10/10/10 11/11/11 12/12/12
f 13/13/13 14/14/14 15/15/15
f 16/16/16 17/17/17 18/18/18
f 19/19/19 20/20/20 21/21/21
f 22/22/22 23/23/23 24/24/24
f 25/25/25 26/26/26 27/27/27
f 28/28/28 29/29/29 30/30/30
f 31/31/31 32/32/32 33/33/33
f 34/34/34 35/35/35 36/36/36
