# frame 001023 
# time 0.512000 
# name Box 
v 0.720116 0.482716 -0.361441
v 0.718815 0.792279 -0.108125
v 0.719880 0.538966 0.201441
v 0.720116 0.482716 -0.361441
v 0.719880 0.538966 0.201441
v 0.721181 0.229402 -0.051875
v 0.320120 0.481034 -0.361441
v 0.321185 0.227721 -0.051875
v 0.319884 0.537284 0.201441
v 0.320120 0.481034 -0.361441
v 0.319884 0.537284 0.201441
v 0.318819 0.790598 -0.108125
v 0.720116 0.482716 -0.361441
v 0.320120 0.481034 -0.361441
v 0.318819 0.790598 -0.108125
v 0.720116 0.482716 -0.361441
v 0.318819 0.790598 -0.108125
v 0.718815 0.792279 -0.108125
v 0.718815 0.792279 -0.108125
v 0.318819 0.790598 -0.108125
v 0.319884 0.537284 0.201441
v 0.718815 0.792279 -0.108125
v 0.319884 0.537284 0.201441
v 0.719880 0.538966 0.201441
v 0.719880 0.538966 0.201441
v 0.319884 0.537284 0.201441
v 0.321185 0.227721 -0.051875
v 0.719880 0.538966 0.201441
v 0.321185 0.227721 -0.051875
v 0.721181 0.229402 -0.051875
v 0.320120 0.481034 -0.361441
v 0.720116 0.482716 -0.361441
v 0.721181 0.229402 -0.051875
v 0.320120 0.481034 -0.361441
v 0.721181 0.229402 -0.051875
v 0.321185 0.227721 -0.051875
vn 0.199998 0.000841 0.000000
vn 0.199998 0.000841 0.000000
vn 0.199998 0.000841 0.000000
vn 0.199998 0.000841 0.000000
vn 0.199998 0.000841 0.000000
vn 0.199998 0.000841 0.000000
vn -0.199998 -0.000841 0.000000
vn -0.199998 -0.000841 0.000000
vn -0.199998 -0.000841 0.000000
vn -0.199998 -0.000841 0.000000
vn -0.199998 -0.000841 0.000000
vn -0.199998 -0.000841 0.000000
vn -0.000532 0.126657 -0.154783
vn -0.000532 0.126657 -0.154783
vn -0.000532 0.126657 -0.154783
vn -0.000532 0.126657 -0.154783
vn -0.000532 0.126657 -0.154783
vn -0.000532 0.126657 -0.154783
vn -0.000651 0.154782 0.126658
vn -0.000651 0.154782 0.126658
vn -0.000651 0.154782 0.126658
vn -0.000651 0.154782 0.126658
vn -0.000651 0.154782 0.126658
vn -0.000651 0.154782 0.126658
vn 0.000532 -0.126657 0.154783
vn 0.000532 -0.126657 0.154783
vn 0.000532 -0.126657 0.154783
vn 0.000532 -0.126657 0.154783
vn 0.000532 -0.126657 0.154783
vn 0.000532 -0.126657 0.154783
vn 0.000651 -0.154782 -0.126658
vn 0.000651 -0.154782 -0.126658
vn 0.000651 -0.154782 -0.126658
vn 0.000651 -0.154782 -0.126658
vn 0.000651 -0.154782 -0.126658
vn 0.000651 -0.154782 -0.126658
f 1/1/1 2/2/2 3/3/3
f 4/4/4 5/5/5 6/6/6
f 7/7/7 8/8/8 9/9/9
f 10/10/10 11/11/11 12/12/12
f 13/13/13 14/14/14 15/15/15
f 16/16/16 17/17/17 18/18/18
f 19/19/19 20/20/20 21/21/21
f 22/22/22 23/23/23 24/24/24
f 25/25/25 26/26/26 27/27/27
f 28/28/28 29/29/29 30/30/30
f 31/31/31 32/32/32 33/33/33
f 34/34/34 35/35/35 36/36/36
