# frame 001069 
# time 0.535000 
# name Cloth3D 
v -0.000000 0.000000 -0.000000
v 1.000000 0.000000 -0.000000
v -0.000000 1.000000 0.000000
v 1.000000 1.000000 0.000000
v 0.938630 0.124830 0.015462
v -0.000000 0.500000 0.000000
v 0.500000 1.000000 0.000000
v 1.000000 0.500000 0.000000
v 0.500000 -0.000000 0.000000
v 0.248709 0.747362 0.058960
v 0.758560 0.751420 0.084639
v 0.248535 0.256761 0.049673
v 0.754282 0.251855 0.069478
v 0.750000 0.000000 0.000000
v 0.250000 0.000000 0.000000
v 1.000000 0.750000 0.000000
v 1.000000 0.250000 0.000000
v 0.250000 1.000000 0.000000
v 0.750000 1.000000 0.000000
v 0.000000 0.250000 0.000000
v 0.000000 0.750000 -0.000000
v 0.365126 0.229503 0.049867
v 0.063601 0.873668 -0.006929
v 0.228034 0.520397 0.131655
v 0.817793 0.250435 0.062606
v 0.881516 0.377175 0.054470
v 0.625635 0.128446 0.034620
v 0.886850 0.438656 0.068893
v 0.877427 0.123542 0.031087
v 0.375483 0.130961 0.024627
v 0.125414 0.127220 0.010396
v 0.492678 0.259075 0.071184
v 0.886291 0.626540 0.069129
v 0.638997 0.627283 0.160408
v 0.876372 0.874651 0.022512
v 0.377035 0.869192 0.029026
v 0.246945 0.606408 0.129903
v 0.126865 0.872360 0.000277
v 0.119289 0.625993 0.055224
v 0.627297 0.871641 0.041529
v 0.119159 0.377302 0.053159
v 0.250229 0.128399 0.024329
v 0.881171 0.750698 0.048820
v 0.880148 0.250209 0.047582
v 0.251411 0.872043 0.023009
v 0.752241 0.875251 0.041079
v 0.121733 0.251401 0.038704
v 0.125299 0.747599 0.023785
v 0.308336 0.601675 0.165525
v 0.584133 0.312908 0.090336
v 0.743486 0.371035 0.094451
v 0.887389 0.501343 0.072184
v 0.437294 0.764881 0.074565
v 0.235927 0.460674 0.115199
v 0.000000 0.375000 0.000000
v 0.502337 0.868641 0.035107
v 0.501764 0.625618 0.156240
v 0.242669 0.379916 0.094025
v 0.114966 0.502094 0.066158
v 0.521330 0.423838 0.129351
v 0.627179 0.256494 0.071647
v 0.500447 0.130422 0.030161
v 0.497605 0.570240 0.196068
v 0.000000 0.625000 0.000000
v 0.000000 0.875000 0.000000
v 0.000000 0.125000 0.000000
v 0.625000 1.000000 0.000000
v 0.875000 1.000000 0.000000
v 0.125000 1.000000 0.000000
v 0.375000 1.000000 0.000000
v 1.000000 0.375000 0.000000
v 0.569831 0.469191 0.149083
v 1.000000 0.875000 0.000000
v 1.000000 0.625000 0.000000
v 0.375000 0.000000 0.000000
v 0.125000 0.000000 0.000000
v 0.875000 0.000000 0.000000
v 0.625000 0.000000 0.000000
v 0.751390 0.125280 0.037492
v 0.471677 0.487442 0.156140
v 0.782704 0.518010 0.140961
v 0.058396 0.313383 0.028099
v 0.177731 0.441286 0.086849
v 0.182533 0.315734 0.062780
v 0.058181 0.438687 0.030778
v 0.688163 0.937611 0.023734
v 0.691965 0.809927 0.062711
v 0.563652 0.934410 0.017391
v 0.059403 0.687553 0.025340
v 0.182378 0.688413 0.065338
v 0.059968 0.562988 0.027882
v 0.188953 0.935644 0.001654
v 0.188667 0.809229 0.024444
v 0.063091 0.936570 0.000602
v 0.387008 0.495354 0.160983
v 0.677489 0.365522 0.103973
v 0.510074 0.718519 0.100060
v 0.313904 0.806886 0.044735
v 0.438866 0.933727 0.013323
v 0.940017 0.812529 0.020616
v 0.816217 0.812081 0.047331
v 0.937911 0.937708 0.009406
v 0.878227 0.187154 0.037590
v 0.571374 0.570540 0.196092
v 0.944900 0.500809 0.037874
v 0.836475 0.594288 0.105033
v 0.826643 0.691554 0.093331
v 0.946258 0.563265 0.040277
v 0.314587 0.699904 0.097957
v 0.820723 0.751517 0.069037
v 0.887908 0.564202 0.073770
v 0.188172 0.064376 0.005786
v 0.063053 0.063272 -0.001316
v 0.187342 0.192354 0.025340
v 0.312921 0.064539 0.013912
v 0.312437 0.193680 0.042123
v 0.437779 0.065154 0.014608
v 0.813107 0.061500 0.020227
v 0.937637 0.062765 0.005538
v -0.000000 0.937500 0.000000
v 0.595679 0.673312 0.129997
v 0.528134 0.797177 0.064603
v 0.563314 0.193317 0.053267
v 0.689389 0.190352 0.054496
v 0.562643 0.064341 0.017951
v 0.939704 0.313271 0.024157
v 0.818547 0.314672 0.068406
v 0.945575 0.438173 0.037947
v 0.313796 0.935755 0.015208
v 1.000000 0.187500 0.000000
v 0.816164 0.186766 0.051765
v 0.809347 0.375739 0.082179
v 0.687737 0.063600 0.017837
v 0.397318 0.386742 0.113024
v 0.940760 0.187076 0.024305
v 0.437633 0.194670 0.048693
v 0.061501 0.188336 0.014861
v 0.380478 0.762735 0.071791
v 0.942175 0.687692 0.030725
v 0.299554 0.450222 0.129441
v 0.063327 0.811205 0.003262
v 0.812888 0.937478 0.016303
v 0.176231 0.565640 0.093511
v 0.783794 0.653589 0.123884
v 0.678666 0.475407 0.146031
v 0.719686 0.571087 0.196226
v 0.319893 0.569406 0.196229
v 0.725018 0.771579 0.079223
v 0.879441 0.313940 0.047251
v 0.623248 0.570751 0.196109
v 0.180631 0.378653 0.074344
v 0.292404 0.339090 0.087018
v 0.734481 0.614015 0.164378
v 0.718466 0.305100 0.083893
v 0.681352 0.671104 0.135391
v 0.329224 0.284363 0.069896
v 0.272085 0.660752 0.113304
v 1.000000 0.062500 -0.000000
v 0.616924 0.766552 0.083216
v 0.599318 0.375570 0.113057
v 0.413115 0.569886 0.196066
v 0.724501 0.428863 0.118048
v 0.772591 0.459215 0.116646
v 0.119640 0.314125 0.048772
v 0.418083 0.266953 0.066269
v 0.060019 0.250724 0.021885
v 0.829965 0.483275 0.106521
v 0.477362 0.372643 0.111106
v 0.178739 0.627628 0.083351
v 0.410943 0.659910 0.131316
v 0.447689 0.430364 0.133909
v 0.000000 0.812500 -0.000000
v 0.884221 0.689159 0.061077
v 0.251011 0.936000 0.010853
v 0.720031 0.492258 0.145695
v 0.250146 0.809698 0.040754
vt 0.000000 0.000000
vt 1.000000 0.000000
vt 0.000000 1.000000
vt 1.000000 1.000000
vt 0.937500 0.125000
vt 0.000000 0.500000
vt 0.500000 1.000000
vt 1.000000 0.500000
vt 0.500000 0.000000
vt 0.250000 0.750000
vt 0.750000 0.750000
vt 0.250000 0.250000
vt 0.750000 0.250000
vt 0.750000 0.000000
vt 0.250000 0.000000
vt 1.000000 0.750000
vt 1.000000 0.250000
vt 0.250000 1.000000
vt 0.750000 1.000000
vt 0.000000 0.250000
vt 0.000000 0.750000
vt 0.365347 0.220303
vt 0.062500 0.875000
vt 0.245672 0.515386
vt 0.812500 0.250000
vt 0.875000 0.375000
vt 0.625000 0.125000
vt 0.875000 0.437500
vt 0.875000 0.125000
vt 0.375000 0.125000
vt 0.125000 0.125000
vt 0.492214 0.250470
vt 0.875000 0.625000
vt 0.625000 0.625000
vt 0.875000 0.875000
vt 0.375000 0.875000
vt 0.262101 0.599801
vt 0.125000 0.875000
vt 0.125000 0.625000
vt 0.625000 0.875000
vt 0.125000 0.375000
vt 0.250000 0.125000
vt 0.875000 0.750000
vt 0.875000 0.250000
vt 0.250000 0.875000
vt 0.750000 0.875000
vt 0.125000 0.250000
vt 0.125000 0.750000
vt 0.325445 0.593646
vt 0.581754 0.304126
vt 0.736041 0.365469
vt 0.875000 0.500000
vt 0.435664 0.771773
vt 0.248222 0.455442
vt 0.000000 0.375000
vt 0.500000 0.875000
vt 0.500000 0.625000
vt 0.250000 0.375000
vt 0.125000 0.500000
vt 0.519707 0.411902
vt 0.625000 0.250000
vt 0.500000 0.125000
vt 0.496887 0.561156
vt 0.000000 0.625000
vt 0.000000 0.875000
vt 0.000000 0.125000
vt 0.625000 1.000000
vt 0.875000 1.000000
vt 0.125000 1.000000
vt 0.375000 1.000000
vt 1.000000 0.375000
vt 0.564051 0.458319
vt 1.000000 0.875000
vt 1.000000 0.625000
vt 0.375000 0.000000
vt 0.125000 0.000000
vt 0.875000 0.000000
vt 0.625000 0.000000
vt 0.750000 0.125000
vt 0.473805 0.475426
vt 0.760524 0.515669
vt 0.062500 0.312500
vt 0.187500 0.437500
vt 0.187500 0.312500
vt 0.062500 0.437500
vt 0.687500 0.937500
vt 0.687500 0.812500
vt 0.562500 0.937500
vt 0.062500 0.687500
vt 0.187500 0.687500
vt 0.062500 0.562500
vt 0.187500 0.937500
vt 0.187500 0.812500
vt 0.062500 0.937500
vt 0.396781 0.484194
vt 0.671367 0.358455
vt 0.506884 0.725192
vt 0.312500 0.812500
vt 0.437500 0.937500
vt 0.937500 0.812500
vt 0.812500 0.812500
vt 0.937500 0.937500
vt 0.875000 0.187500
vt 0.562507 0.562525
vt 0.937500 0.500000
vt 0.819332 0.591237
vt 0.812500 0.687500
vt 0.937500 0.562500
vt 0.319123 0.700934
vt 0.812500 0.750000
vt 0.875000 0.562500
vt 0.187500 0.062500
vt 0.062500 0.062500
vt 0.187500 0.187500
vt 0.312500 0.062500
vt 0.312500 0.187500
vt 0.437500 0.062500
vt 0.812500 0.062500
vt 0.937500 0.062500
vt 0.000000 0.937500
vt 0.587160 0.675778
vt 0.525016 0.804189
vt 0.562500 0.187500
vt 0.687500 0.187500
vt 0.562500 0.062500
vt 0.937500 0.312500
vt 0.812500 0.312500
vt 0.937500 0.437500
vt 0.312500 0.937500
vt 1.000000 0.187500
vt 0.812500 0.187500
vt 0.800716 0.372483
vt 0.687500 0.062500
vt 0.400647 0.375957
vt 0.937500 0.187500
vt 0.437500 0.187500
vt 0.062500 0.187500
vt 0.380019 0.768564
vt 0.937500 0.687500
vt 0.309549 0.441894
vt 0.062500 0.812500
vt 0.812500 0.937500
vt 0.187500 0.562500
vt 0.765906 0.648544
vt 0.665088 0.466564
vt 0.689547 0.564338
vt 0.342229 0.557548
vt 0.718294 0.771897
vt 0.875000 0.312500
vt 0.608125 0.562580
vt 0.187500 0.375000
vt 0.296906 0.332149
vt 0.711873 0.607167
vt 0.713437 0.300753
vt 0.668274 0.669022
vt 0.331126 0.276226
vt 0.281585 0.657008
vt 1.000000 0.062500
vt 0.611736 0.771102
vt 0.595175 0.366343
vt 0.422293 0.560550
vt 0.713353 0.422290
vt 0.758105 0.454518
vt 0.125000 0.312500
vt 0.418341 0.256674
vt 0.062500 0.250000
vt 0.812755 0.481587
vt 0.477835 0.361491
vt 0.187500 0.625000
vt 0.414679 0.661630
vt 0.450521 0.418925
vt 0.000000 0.812500
vt 0.875000 0.687500
vt 0.250000 0.937500
vt 0.702764 0.486010
vt 0.250000 0.812500
vn 0.010668 0.010668 0.999886
vn 0.061727 -0.030864 0.997616
vn -0.008967 0.004484 0.999950
vn 0.075545 0.075545 0.994277
vn 0.238713 -0.120546 0.963579
vn -0.471502 0.012993 0.881769
vn -0.015639 0.241624 0.970244
vn 0.575393 -0.007366 0.817844
vn -0.012257 -0.243373 0.969855
vn -0.205086 0.366143 0.907678
vn 0.163120 0.414249 0.895427
vn -0.121396 -0.286772 0.950276
vn 0.080790 -0.186854 0.979060
vn -0.011894 -0.292276 0.956260
vn -0.031667 -0.166399 0.985550
vn 0.397385 0.039140 0.916817
vn 0.372858 0.000677 0.927888
vn -0.072992 0.148584 0.986202
vn 0.029176 0.305043 0.951891
vn -0.335880 -0.073795 0.939010
vn -0.171295 0.070167 0.982718
vn -0.018350 -0.299300 0.953983
vn -0.038613 0.014946 0.999142
vn -0.447998 -0.106468 0.887672
vn 0.182255 -0.117411 0.976216
vn 0.376247 -0.178381 0.909186
vn -0.021179 -0.266573 0.963582
vn 0.453362 -0.152106 0.878252
vn 0.193923 -0.163846 0.967238
vn -0.024182 -0.229811 0.972935
vn -0.066488 -0.157326 0.985306
vn -0.053377 -0.305634 0.950652
vn 0.508434 0.110776 0.853946
vn -0.005383 0.525659 0.850678
vn 0.129291 0.166305 0.977561
vn -0.044760 0.280174 0.958905
vn -0.477204 0.337177 0.811534
vn -0.113784 0.081871 0.990126
vn -0.410268 0.164338 0.897036
vn -0.025016 0.321055 0.946730
vn -0.345016 -0.086419 0.934610
vn -0.100591 -0.186486 0.977294
vn 0.355512 0.239917 0.903355
vn 0.270029 -0.063025 0.960787
vn -0.123452 0.219055 0.967871
vn 0.075891 0.290150 0.953967
vn -0.191373 -0.186112 0.963711
vn -0.224980 0.234835 0.945641
vn -0.244115 0.581860 0.775788
vn 0.017360 -0.321819 0.946642
vn 0.175231 -0.262653 0.948845
vn 0.516852 -0.038578 0.855205
vn -0.046231 0.427609 0.902781
vn -0.297560 -0.281012 0.912409
vn -0.452985 -0.009558 0.891467
vn -0.043340 0.321072 0.946062
vn -0.018354 0.557800 0.829773
vn -0.232696 -0.273450 0.933316
vn -0.477350 -0.011731 0.878635
vn 0.000980 -0.364970 0.931019
vn 0.010647 -0.285418 0.958344
vn -0.019145 -0.258039 0.965945
vn -0.002566 0.181523 0.983383
vn -0.412539 0.008183 0.910903
vn 0.111312 -0.000000 0.993786
vn -0.103181 -0.063258 0.992649
vn -0.027447 0.307234 0.951238
vn 0.025671 0.200628 0.979331
vn -0.001254 0.009357 0.999955
vn 0.008621 0.214488 0.976689
vn 0.447242 -0.058579 0.892493
vn 0.003684 -0.395125 0.918620
vn 0.238883 0.045066 0.970002
vn 0.534140 0.039957 0.844451
vn -0.002150 -0.200656 0.979659
vn -0.027364 -0.032624 0.999093
vn 0.057601 -0.205857 0.976885
vn -0.000999 -0.268273 0.963343
vn -0.007113 -0.262143 0.965003
vn 0.007970 -0.398726 0.917035
vn 0.399636 -0.280456 0.872717
vn -0.355659 -0.068916 0.932071
vn -0.359738 -0.208204 0.909527
vn -0.185334 -0.230233 0.955324
vn -0.449630 -0.039516 0.892340
vn 0.000411 0.307337 0.951601
vn -0.004060 0.371030 0.928612
vn -0.027845 0.283039 0.958704
vn -0.301880 0.128192 0.944688
vn -0.355054 0.318681 0.878851
vn -0.457676 0.047256 0.887862
vn -0.098418 0.103612 0.989737
vn -0.224875 0.240262 0.944301
vn -0.025011 -0.060325 0.997865
vn -0.024759 -0.424996 0.904857
vn 0.112815 -0.302987 0.946294
vn -0.037643 0.464945 0.884539
vn -0.083233 0.338056 0.937438
vn -0.025033 0.236262 0.971367
vn 0.273467 0.094430 0.957235
vn 0.209360 0.295995 0.931963
vn 0.095904 0.105351 0.989800
vn 0.222397 -0.136018 0.965421
vn -0.006437 0.124492 0.992200
vn 0.532007 -0.018429 0.846539
vn 0.525487 0.088557 0.846180
vn 0.383031 0.277645 0.881022
vn 0.533065 0.008188 0.846035
vn -0.142363 0.500066 0.854206
vn 0.263527 0.362713 0.893864
vn 0.519399 0.028859 0.854044
vn -0.066749 -0.125024 0.989906
vn -0.027585 -0.045567 0.998580
vn -0.088952 -0.216254 0.972277
vn 0.001051 -0.199505 0.979896
vn -0.018280 -0.243839 0.969643
vn -0.027300 -0.219537 0.975222
vn 0.034375 -0.273891 0.961146
vn 0.106680 -0.135064 0.985077
vn 0.017312 -0.030942 0.999371
vn -0.037287 0.504039 0.862876
vn -0.045765 0.391125 0.919199
vn -0.022566 -0.297724 0.954385
vn -0.012649 -0.263051 0.964699
vn -0.016691 -0.241971 0.970140
vn 0.371853 -0.030899 0.927777
vn 0.265456 -0.131828 0.955068
vn 0.491132 -0.065904 0.868589
vn -0.034711 0.188369 0.981485
vn 0.357743 -0.039041 0.933004
vn 0.141869 -0.185320 0.972384
vn 0.275688 -0.218998 0.935968
vn -0.014066 -0.273245 0.961842
vn -0.055652 -0.381695 0.922611
vn 0.303515 -0.101802 0.947373
vn -0.076173 -0.273037 0.958983
vn -0.214227 -0.118118 0.969616
vn -0.078903 0.428986 0.899859
vn 0.456880 0.096356 0.884294
vn -0.205332 -0.348386 0.914585
vn -0.095168 0.135057 0.986257
vn 0.062082 0.245222 0.967477
vn -0.493265 0.142448 0.858137
vn 0.372379 0.320305 0.871056
vn 0.148436 -0.420857 0.894900
vn 0.343003 0.142143 0.928517
vn -0.203134 0.315026 0.927090
vn 0.070040 0.417483 0.905982
vn 0.331078 -0.065528 0.941325
vn 0.003043 0.172607 0.984986
vn -0.292389 -0.181256 0.938965
vn -0.115079 -0.348257 0.930309
vn 0.328683 0.436267 0.837639
vn 0.103999 -0.226654 0.968407
vn 0.042312 0.491531 0.869832
vn -0.063815 -0.336727 0.939437
vn -0.310632 0.471053 0.825601
vn 0.114641 -0.044734 0.992399
vn -0.019771 0.420820 0.906929
vn 0.029699 -0.351557 0.935695
vn -0.007707 0.033124 0.999422
vn 0.206119 -0.345931 0.915340
vn 0.259373 -0.355372 0.898018
vn -0.270342 -0.122519 0.954937
vn -0.075743 -0.314050 0.946380
vn -0.307617 -0.118057 0.944158
vn 0.434195 -0.192367 0.880040
vn -0.016128 -0.357926 0.933611
vn -0.433802 0.237746 0.869076
vn -0.043975 0.535549 0.843358
vn -0.003443 -0.379287 0.925273
vn -0.008170 0.040927 0.999129
vn 0.473003 0.160944 0.866236
vn -0.110597 0.169852 0.979244
vn 0.221544 -0.438353 0.871071
vn -0.150046 0.281027 0.947898
f 1/1/1 113/113/113 66/66/66
f 31/31/31 137/137/137 113/113/113
f 41/41/41 151/151/151 83/83/83
f 76/76/76 112/112/112 113/113/113
f 84/84/84 152/152/152 58/58/58
f 112/112/112 114/114/114 31/31/31
f 137/137/137 66/66/66 113/113/113
f 164/164/164 47/47/47 84/84/84
f 112/112/112 31/31/31 113/113/113
f 77/77/77 2/2/2 119/119/119
f 156/156/156 152/152/152 12/12/12
f 112/112/112 15/15/15 42/42/42
f 76/76/76 113/113/113 1/1/1
f 42/42/42 114/114/114 112/112/112
f 15/15/15 112/112/112 76/76/76
f 115/115/115 15/15/15 75/75/75
f 91/91/91 6/6/6 59/59/59
f 116/116/116 115/115/115 30/30/30
f 136/136/136 30/30/30 117/117/117
f 22/22/22 30/30/30 136/136/136
f 85/85/85 59/59/59 6/6/6
f 125/125/125 62/62/62 117/117/117
f 165/165/165 136/136/136 32/32/32
f 134/134/134 156/156/156 165/165/165
f 156/156/156 116/116/116 22/22/22
f 115/115/115 75/75/75 30/30/30
f 116/116/116 30/30/30 22/22/22
f 119/119/119 2/2/2 158/158/158
f 42/42/42 115/115/115 116/116/116
f 156/156/156 12/12/12 116/116/116
f 117/117/117 30/30/30 75/75/75
f 161/161/161 147/147/147 95/95/95
f 140/140/140 134/134/134 95/95/95
f 165/165/165 156/156/156 22/22/22
f 134/134/134 165/165/165 168/168/168
f 165/165/165 22/22/22 136/136/136
f 168/168/168 165/165/165 32/32/32
f 83/83/83 151/151/151 58/58/58
f 164/164/164 151/151/151 41/41/41
f 50/50/50 160/160/160 168/168/168
f 171/171/171 134/134/134 168/168/168
f 95/95/95 171/171/171 80/80/80
f 134/134/134 152/152/152 156/156/156
f 160/160/160 72/72/72 60/60/60
f 60/60/60 72/72/72 80/80/80
f 98/98/98 138/138/138 36/36/36
f 95/95/95 134/134/134 171/171/171
f 138/138/138 53/53/53 36/36/36
f 140/140/140 58/58/58 152/152/152
f 84/84/84 58/58/58 151/151/151
f 140/140/140 152/152/152 134/134/134
f 37/37/37 147/147/147 49/49/49
f 54/54/54 58/58/58 140/140/140
f 36/36/36 99/99/99 70/70/70
f 83/83/83 58/58/58 54/54/54
f 137/137/137 31/31/31 47/47/47
f 164/164/164 84/84/84 151/151/151
f 85/85/85 41/41/41 83/83/83
f 166/166/166 137/137/137 47/47/47
f 84/84/84 114/114/114 12/12/12
f 84/84/84 12/12/12 152/152/152
f 115/115/115 42/42/42 15/15/15
f 47/47/47 114/114/114 84/84/84
f 82/82/82 164/164/164 41/41/41
f 166/166/166 164/164/164 82/82/82
f 114/114/114 47/47/47 31/31/31
f 166/166/166 47/47/47 164/164/164
f 20/20/20 166/166/166 82/82/82
f 20/20/20 137/137/137 166/166/166
f 20/20/20 66/66/66 137/137/137
f 55/55/55 20/20/20 82/82/82
f 38/38/38 92/92/92 69/69/69
f 37/37/37 143/143/143 24/24/24
f 89/89/89 39/39/39 48/48/48
f 141/141/141 38/38/38 23/23/23
f 24/24/24 59/59/59 83/83/83
f 147/147/147 24/24/24 140/140/140
f 92/92/92 18/18/18 69/69/69
f 94/94/94 38/38/38 69/69/69
f 174/174/174 129/129/129 18/18/18
f 129/129/129 36/36/36 70/70/70
f 170/170/170 138/138/138 109/109/109
f 56/56/56 53/53/53 122/122/122
f 161/161/161 49/49/49 147/147/147
f 122/122/122 97/97/97 159/159/159
f 45/45/45 98/98/98 36/36/36
f 109/109/109 157/157/157 49/49/49
f 109/109/109 98/98/98 10/10/10
f 157/157/157 90/90/90 169/169/169
f 129/129/129 45/45/45 36/36/36
f 93/93/93 45/45/45 38/38/38
f 38/38/38 45/45/45 92/92/92
f 114/114/114 42/42/42 12/12/12
f 129/129/129 70/70/70 18/18/18
f 174/174/174 45/45/45 129/129/129
f 174/174/174 18/18/18 92/92/92
f 174/174/174 92/92/92 45/45/45
f 94/94/94 69/69/69 3/3/3
f 93/93/93 38/38/38 48/48/48
f 120/120/120 94/94/94 3/3/3
f 23/23/23 120/120/120 65/65/65
f 172/172/172 23/23/23 65/65/65
f 48/48/48 141/141/141 21/21/21
f 23/23/23 38/38/38 94/94/94
f 23/23/23 94/94/94 120/120/120
f 172/172/172 141/141/141 23/23/23
f 21/21/21 141/141/141 172/172/172
f 39/39/39 169/169/169 90/90/90
f 6/6/6 91/91/91 64/64/64
f 48/48/48 90/90/90 10/10/10
f 48/48/48 38/38/38 141/141/141
f 93/93/93 48/48/48 10/10/10
f 116/116/116 12/12/12 42/42/42
f 157/157/157 169/169/169 37/37/37
f 57/57/57 161/161/161 63/63/63
f 39/39/39 90/90/90 48/48/48
f 41/41/41 85/85/85 82/82/82
f 89/89/89 48/48/48 21/21/21
f 59/59/59 85/85/85 83/83/83
f 64/64/64 89/89/89 21/21/21
f 64/64/64 39/39/39 89/89/89
f 59/59/59 143/143/143 91/91/91
f 39/39/39 91/91/91 143/143/143
f 91/91/91 39/39/39 64/64/64
f 6/6/6 55/55/55 85/85/85
f 24/24/24 83/83/83 54/54/54
f 55/55/55 82/82/82 85/85/85
f 24/24/24 143/143/143 59/59/59
f 143/143/143 169/169/169 39/39/39
f 24/24/24 54/54/54 140/140/140
f 37/37/37 24/24/24 147/147/147
f 147/147/147 140/140/140 95/95/95
f 161/161/161 170/170/170 49/49/49
f 157/157/157 37/37/37 49/49/49
f 37/37/37 169/169/169 143/143/143
f 170/170/170 109/109/109 49/49/49
f 157/157/157 10/10/10 90/90/90
f 109/109/109 138/138/138 98/98/98
f 109/109/109 10/10/10 157/157/157
f 97/97/97 170/170/170 57/57/57
f 170/170/170 53/53/53 138/138/138
f 161/161/161 95/95/95 80/80/80
f 63/63/63 161/161/161 80/80/80
f 72/72/72 104/104/104 63/63/63
f 57/57/57 63/63/63 104/104/104
f 118/118/118 133/133/133 14/14/14
f 34/34/34 104/104/104 150/150/150
f 57/57/57 104/104/104 121/121/121
f 72/72/72 63/63/63 80/80/80
f 97/97/97 57/57/57 121/121/121
f 57/57/57 170/170/170 161/161/161
f 87/87/87 46/46/46 40/40/40
f 97/97/97 53/53/53 170/170/170
f 78/78/78 125/125/125 9/9/9
f 175/175/175 163/163/163 81/81/81
f 173/173/173 33/33/33 139/139/139
f 146/146/146 34/34/34 150/150/150
f 40/40/40 46/46/46 86/86/86
f 88/88/88 56/56/56 40/40/40
f 81/81/81 153/153/153 146/146/146
f 111/111/111 105/105/105 108/108/108
f 34/34/34 121/121/121 104/104/104
f 153/153/153 34/34/34 146/146/146
f 148/148/148 46/46/46 87/87/87
f 155/155/155 121/121/121 34/34/34
f 145/145/145 162/162/162 175/175/175
f 145/145/145 146/146/146 150/150/150
f 107/107/107 106/106/106 33/33/33
f 153/153/153 155/155/155 34/34/34
f 51/51/51 127/127/127 132/132/132
f 167/167/167 106/106/106 81/81/81
f 107/107/107 33/33/33 173/173/173
f 106/106/106 153/153/153 81/81/81
f 26/26/26 71/71/71 128/128/128
f 111/111/111 108/108/108 33/33/33
f 111/111/111 52/52/52 105/105/105
f 43/43/43 173/173/173 139/139/139
f 28/28/28 105/105/105 52/52/52
f 139/139/139 33/33/33 108/108/108
f 111/111/111 33/33/33 106/106/106
f 167/167/167 111/111/111 106/106/106
f 8/8/8 108/108/108 105/105/105
f 100/100/100 43/43/43 139/139/139
f 110/110/110 101/101/101 11/11/11
f 11/11/11 144/144/144 107/107/107
f 110/110/110 11/11/11 107/107/107
f 144/144/144 155/155/155 153/153/153
f 144/144/144 153/153/153 106/106/106
f 144/144/144 106/106/106 107/107/107
f 43/43/43 101/101/101 110/110/110
f 11/11/11 155/155/155 144/144/144
f 35/35/35 100/100/100 102/102/102
f 46/46/46 101/101/101 142/142/142
f 43/43/43 107/107/107 173/173/173
f 43/43/43 110/110/110 107/107/107
f 35/35/35 101/101/101 100/100/100
f 100/100/100 101/101/101 43/43/43
f 74/74/74 139/139/139 108/108/108
f 16/16/16 100/100/100 139/139/139
f 86/86/86 46/46/46 142/142/142
f 142/142/142 101/101/101 35/35/35
f 7/7/7 70/70/70 99/99/99
f 142/142/142 35/35/35 102/102/102
f 68/68/68 142/142/142 102/102/102
f 159/159/159 155/155/155 148/148/148
f 148/148/148 101/101/101 46/46/46
f 19/19/19 86/86/86 142/142/142
f 56/56/56 7/7/7 99/99/99
f 56/56/56 36/36/36 53/53/53
f 159/159/159 87/87/87 40/40/40
f 122/122/122 159/159/159 40/40/40
f 159/159/159 148/148/148 87/87/87
f 148/148/148 155/155/155 11/11/11
f 148/148/148 11/11/11 101/101/101
f 159/159/159 97/97/97 121/121/121
f 159/159/159 121/121/121 155/155/155
f 56/56/56 122/122/122 40/40/40
f 122/122/122 53/53/53 97/97/97
f 88/88/88 7/7/7 56/56/56
f 56/56/56 99/99/99 36/36/36
f 88/88/88 40/40/40 86/86/86
f 67/67/67 88/88/88 86/86/86
f 67/67/67 7/7/7 88/88/88
f 19/19/19 67/67/67 86/86/86
f 68/68/68 19/19/19 142/142/142
f 73/73/73 102/102/102 100/100/100
f 4/4/4 68/68/68 102/102/102
f 73/73/73 4/4/4 102/102/102
f 16/16/16 73/73/73 100/100/100
f 74/74/74 16/16/16 139/139/139
f 8/8/8 74/74/74 108/108/108
f 131/131/131 13/13/13 79/79/79
f 103/103/103 44/44/44 25/25/25
f 62/62/62 27/27/27 123/123/123
f 27/27/27 133/133/133 124/124/124
f 44/44/44 17/17/17 126/126/126
f 127/127/127 149/149/149 26/26/26
f 128/128/128 71/71/71 8/8/8
f 128/128/128 8/8/8 105/105/105
f 28/28/28 128/128/128 105/105/105
f 26/26/26 128/128/128 28/28/28
f 167/167/167 28/28/28 52/52/52
f 132/132/132 127/127/127 26/26/26
f 126/126/126 71/71/71 26/26/26
f 126/126/126 17/17/17 71/71/71
f 149/149/149 126/126/126 26/26/26
f 149/149/149 44/44/44 126/126/126
f 25/25/25 127/127/127 13/13/13
f 135/135/135 44/44/44 103/103/103
f 25/25/25 44/44/44 149/149/149
f 25/25/25 149/149/149 127/127/127
f 132/132/132 26/26/26 28/28/28
f 154/154/154 51/51/51 96/96/96
f 79/79/79 13/13/13 124/124/124
f 131/131/131 25/25/25 13/13/13
f 167/167/167 132/132/132 28/28/28
f 163/163/163 132/132/132 167/167/167
f 167/167/167 52/52/52 111/111/111
f 163/163/163 167/167/167 81/81/81
f 175/175/175 81/81/81 146/146/146
f 51/51/51 163/163/163 162/162/162
f 72/72/72 150/150/150 104/104/104
f 160/160/160 145/145/145 72/72/72
f 154/154/154 127/127/127 51/51/51
f 162/162/162 163/163/163 175/175/175
f 145/145/145 175/175/175 146/146/146
f 72/72/72 145/145/145 150/150/150
f 60/60/60 80/80/80 171/171/171
f 160/160/160 60/60/60 168/168/168
f 60/60/60 171/171/171 168/168/168
f 50/50/50 168/168/168 32/32/32
f 96/96/96 160/160/160 50/50/50
f 96/96/96 145/145/145 160/160/160
f 123/123/123 50/50/50 32/32/32
f 96/96/96 50/50/50 61/61/61
f 125/125/125 27/27/27 62/62/62
f 77/77/77 118/118/118 14/14/14
f 124/124/124 154/154/154 61/61/61
f 96/96/96 162/162/162 145/145/145
f 51/51/51 132/132/132 163/163/163
f 51/51/51 162/162/162 96/96/96
f 154/154/154 96/96/96 61/61/61
f 154/154/154 13/13/13 127/127/127
f 124/124/124 13/13/13 154/154/154
f 27/27/27 124/124/124 61/61/61
f 123/123/123 27/27/27 61/61/61
f 125/125/125 133/133/133 27/27/27
f 123/123/123 61/61/61 50/50/50
f 123/123/123 32/32/32 136/136/136
f 62/62/62 123/123/123 136/136/136
f 62/62/62 136/136/136 117/117/117
f 9/9/9 117/117/117 75/75/75
f 9/9/9 125/125/125 117/117/117
f 78/78/78 133/133/133 125/125/125
f 14/14/14 133/133/133 78/78/78
f 119/119/119 29/29/29 118/118/118
f 103/103/103 131/131/131 29/29/29
f 131/131/131 79/79/79 118/118/118
f 79/79/79 124/124/124 133/133/133
f 79/79/79 133/133/133 118/118/118
f 29/29/29 131/131/131 118/118/118
f 103/103/103 25/25/25 131/131/131
f 119/119/119 158/158/158 5/5/5
f 5/5/5 130/130/130 135/135/135
f 135/135/135 17/17/17 44/44/44
f 135/135/135 130/130/130 17/17/17
f 5/5/5 103/103/103 29/29/29
f 5/5/5 135/135/135 103/103/103
f 119/119/119 5/5/5 29/29/29
f 5/5/5 158/158/158 130/130/130
f 77/77/77 119/119/119 118/118/118
f 45/45/45 176/176/176 98/98/98
f 176/176/176 10/10/10 98/98/98
f 10/10/10 176/176/176 93/93/93
f 176/176/176 45/45/45 93/93/93
