# frame 001022 
# time 0.511500 
# name Cloth3D 
v -0.000000 0.000000 -0.000000
v 1.000000 0.000000 -0.000000
v -0.000000 1.000000 0.000000
v 1.000000 1.000000 0.000000
v 0.937845 0.125349 0.012329
v -0.000000 0.500000 0.000000
v 0.500000 1.000000 0.000000
v 1.000000 0.500000 0.000000
v 0.500000 -0.000000 0.000000
v 0.247951 0.747812 0.066445
v 0.753270 0.748677 0.071441
v 0.248099 0.252721 0.064113
v 0.753767 0.253524 0.066959
v 0.750000 0.000000 0.000000
v 0.250000 0.000000 0.000000
v 1.000000 0.750000 0.000000
v 1.000000 0.250000 0.000000
v 0.250000 1.000000 0.000000
v 0.750000 1.000000 0.000000
v 0.000000 0.250000 0.000000
v 0.000000 0.750000 -0.000000
v 0.364965 0.225196 0.068340
v 0.062467 0.874315 0.009061
v 0.226593 0.517854 0.137710
v 0.816638 0.252100 0.055841
v 0.883424 0.376412 0.060497
v 0.625514 0.130278 0.032407
v 0.885650 0.438765 0.068499
v 0.876257 0.125181 0.026101
v 0.375437 0.126396 0.043545
v 0.126004 0.126728 0.011798
v 0.493166 0.258958 0.079651
v 0.882119 0.625073 0.060841
v 0.635508 0.627384 0.154263
v 0.875224 0.874575 0.021496
v 0.375209 0.874019 0.044215
v 0.248338 0.602536 0.128426
v 0.125421 0.873345 0.014627
v 0.119078 0.624792 0.055988
v 0.624868 0.873654 0.043427
v 0.120552 0.377099 0.052352
v 0.250848 0.127174 0.028535
v 0.878138 0.749601 0.042064
v 0.878233 0.251485 0.038693
v 0.251000 0.871956 0.026370
v 0.749676 0.872810 0.030386
v 0.125814 0.253239 0.026248
v 0.123499 0.748638 0.036026
v 0.310511 0.596533 0.159320
v 0.585177 0.313274 0.098640
v 0.745412 0.370681 0.103570
v 0.886256 0.500933 0.071633
v 0.434763 0.772614 0.092968
v 0.233773 0.457543 0.124903
v 0.000000 0.375000 0.000000
v 0.500103 0.876387 0.054135
v 0.500551 0.625837 0.156107
v 0.243155 0.378443 0.099174
v 0.114144 0.500990 0.069376
v 0.522573 0.421706 0.144493
v 0.627721 0.257486 0.076163
v 0.500408 0.130691 0.034346
v 0.496922 0.537452 0.201244
v 0.000000 0.625000 0.000000
v 0.000000 0.875000 0.000000
v 0.000000 0.125000 0.000000
v 0.625000 1.000000 0.000000
v 0.875000 1.000000 0.000000
v 0.125000 1.000000 0.000000
v 0.375000 1.000000 0.000000
v 1.000000 0.375000 0.000000
v 0.571726 0.466648 0.166244
v 1.000000 0.875000 0.000000
v 1.000000 0.625000 0.000000
v 0.375000 0.000000 0.000000
v 0.125000 0.000000 0.000000
v 0.875000 0.000000 0.000000
v 0.625000 0.000000 0.000000
v 0.750540 0.127263 0.031766
v 0.641393 0.567004 0.186697
v 0.784372 0.518394 0.146811
v 0.060847 0.313781 0.022699
v 0.175925 0.439104 0.093917
v 0.184719 0.315774 0.060705
v 0.058140 0.438358 0.031877
v 0.686796 0.935585 0.015494
v 0.688237 0.810325 0.058547
v 0.562344 0.937720 0.025270
v 0.062113 0.686559 0.019331
v 0.182486 0.686841 0.068981
v 0.058917 0.562460 0.030766
v 0.188381 0.935653 0.007103
v 0.187497 0.809988 0.035155
v 0.062957 0.936574 -0.001531
v 0.430169 0.566604 0.187365
v 0.679553 0.364834 0.115670
v 0.507735 0.725470 0.113346
v 0.312652 0.809476 0.055026
v 0.437582 0.938499 0.027239
v 0.938020 0.811984 0.015463
v 0.813665 0.811431 0.042260
v 0.937355 0.937249 0.005705
v 0.875559 0.189070 0.025659
v 0.570677 0.565682 0.185166
v 0.940497 0.624836 0.028984
v 0.830881 0.592082 0.094300
v 0.819092 0.687538 0.075482
v 0.942705 0.562716 0.034336
v 0.313857 0.700708 0.104135
v 0.938866 0.251231 0.018417
v 0.885055 0.563209 0.068701
v 0.188286 0.063619 0.009862
v 0.063132 0.063258 -0.001263
v 0.187916 0.190118 0.032990
v 0.313124 0.063265 0.018860
v 0.312577 0.191039 0.052964
v 0.437820 0.064456 0.019151
v 0.812586 0.063345 0.013935
v 0.937808 0.062446 0.009024
v -0.000000 0.937500 0.000000
v 0.592566 0.676690 0.132557
v 0.525559 0.805019 0.081373
v 0.563573 0.195273 0.053840
v 0.689187 0.191035 0.056287
v 0.562661 0.065155 0.017389
v 0.942160 0.313198 0.029466
v 0.819462 0.314672 0.070843
v 0.943363 0.438304 0.034924
v 0.313059 0.936332 0.017764
v 1.000000 0.187500 0.000000
v 0.814469 0.189351 0.042174
v 0.811919 0.374135 0.091566
v 0.687425 0.064423 0.015985
v 0.396307 0.383013 0.130587
v 0.938387 0.188220 0.015892
v 0.438011 0.192592 0.061153
v 0.063151 0.188876 0.009756
v 0.378133 0.768902 0.088282
v 0.940698 0.687177 0.027360
v 0.297181 0.446260 0.143797
v 0.061272 0.811939 0.017981
v 0.811964 0.936313 0.010809
v 0.173395 0.564331 0.100485
v 0.776793 0.650080 0.106958
v 0.683293 0.473842 0.167097
v 0.719824 0.538286 0.201389
v 0.320031 0.536604 0.201392
v 0.720672 0.770577 0.070614
v 0.880113 0.314424 0.047993
v 0.623388 0.537962 0.201282
v 0.180221 0.376893 0.079148
v 0.291038 0.334857 0.103157
v 0.728393 0.610780 0.147416
v 0.719480 0.305290 0.089749
v 0.676775 0.669707 0.125109
v 0.328531 0.280175 0.086890
v 0.272466 0.658451 0.114685
v 1.000000 0.062500 -0.000000
v 0.614309 0.772360 0.091855
v 0.601056 0.375613 0.123670
v 0.412768 0.537099 0.201242
v 0.727754 0.427462 0.132934
v 0.776508 0.456791 0.132010
v 0.361701 0.434547 0.150624
v 0.417984 0.263366 0.084011
v 0.311485 0.391315 0.130452
v 0.830977 0.482768 0.111382
v 0.477673 0.371472 0.123246
v 0.178489 0.625529 0.085429
v 0.410330 0.661622 0.135533
v 0.114963 0.563450 0.066825
v 0.447680 0.426701 0.150665
v 0.943176 0.500482 0.035746
vt 0.000000 0.000000
vt 1.000000 0.000000
vt 0.000000 1.000000
vt 1.000000 1.000000
vt 0.937500 0.125000
vt 0.000000 0.500000
vt 0.500000 1.000000
vt 1.000000 0.500000
vt 0.500000 0.000000
vt 0.250000 0.750000
vt 0.750000 0.750000
vt 0.250000 0.250000
vt 0.750000 0.250000
vt 0.750000 0.000000
vt 0.250000 0.000000
vt 1.000000 0.750000
vt 1.000000 0.250000
vt 0.250000 1.000000
vt 0.750000 1.000000
vt 0.000000 0.250000
vt 0.000000 0.750000
vt 0.365347 0.220303
vt 0.062500 0.875000
vt 0.245672 0.515386
vt 0.812500 0.250000
vt 0.875000 0.375000
vt 0.625000 0.125000
vt 0.875000 0.437500
vt 0.875000 0.125000
vt 0.375000 0.125000
vt 0.125000 0.125000
vt 0.492214 0.250470
vt 0.875000 0.625000
vt 0.625000 0.625000
vt 0.875000 0.875000
vt 0.375000 0.875000
vt 0.262101 0.599801
vt 0.125000 0.875000
vt 0.125000 0.625000
vt 0.625000 0.875000
vt 0.125000 0.375000
vt 0.250000 0.125000
vt 0.875000 0.750000
vt 0.875000 0.250000
vt 0.250000 0.875000
vt 0.750000 0.875000
vt 0.125000 0.250000
vt 0.125000 0.750000
vt 0.325445 0.593646
vt 0.581754 0.304126
vt 0.736041 0.365469
vt 0.875000 0.500000
vt 0.435664 0.771773
vt 0.248222 0.455442
vt 0.000000 0.375000
vt 0.500000 0.875000
vt 0.500000 0.625000
vt 0.250000 0.375000
vt 0.125000 0.500000
vt 0.519707 0.411902
vt 0.625000 0.250000
vt 0.500000 0.125000
vt 0.497090 0.531927
vt 0.000000 0.625000
vt 0.000000 0.875000
vt 0.000000 0.125000
vt 0.625000 1.000000
vt 0.875000 1.000000
vt 0.125000 1.000000
vt 0.375000 1.000000
vt 1.000000 0.375000
vt 0.564051 0.458319
vt 1.000000 0.875000
vt 1.000000 0.625000
vt 0.375000 0.000000
vt 0.125000 0.000000
vt 0.875000 0.000000
vt 0.625000 0.000000
vt 0.750000 0.125000
vt 0.625000 0.562500
vt 0.760524 0.515669
vt 0.062500 0.312500
vt 0.187500 0.437500
vt 0.187500 0.312500
vt 0.062500 0.437500
vt 0.687500 0.937500
vt 0.687500 0.812500
vt 0.562500 0.937500
vt 0.062500 0.687500
vt 0.187500 0.687500
vt 0.062500 0.562500
vt 0.187500 0.937500
vt 0.187500 0.812500
vt 0.062500 0.937500
vt 0.437500 0.562500
vt 0.671367 0.358455
vt 0.506884 0.725192
vt 0.312500 0.812500
vt 0.437500 0.937500
vt 0.937500 0.812500
vt 0.812500 0.812500
vt 0.937500 0.937500
vt 0.875000 0.187500
vt 0.562500 0.562500
vt 0.937500 0.625000
vt 0.819332 0.591237
vt 0.812500 0.687500
vt 0.937500 0.562500
vt 0.319123 0.700934
vt 0.937500 0.250000
vt 0.875000 0.562500
vt 0.187500 0.062500
vt 0.062500 0.062500
vt 0.187500 0.187500
vt 0.312500 0.062500
vt 0.312500 0.187500
vt 0.437500 0.062500
vt 0.812500 0.062500
vt 0.937500 0.062500
vt 0.000000 0.937500
vt 0.587160 0.675778
vt 0.525016 0.804189
vt 0.562500 0.187500
vt 0.687500 0.187500
vt 0.562500 0.062500
vt 0.937500 0.312500
vt 0.812500 0.312500
vt 0.937500 0.437500
vt 0.312500 0.937500
vt 1.000000 0.187500
vt 0.812500 0.187500
vt 0.800716 0.372483
vt 0.687500 0.062500
vt 0.400647 0.375957
vt 0.937500 0.187500
vt 0.437500 0.187500
vt 0.062500 0.187500
vt 0.380019 0.768564
vt 0.937500 0.687500
vt 0.309549 0.441894
vt 0.062500 0.812500
vt 0.812500 0.937500
vt 0.187500 0.562500
vt 0.765906 0.648544
vt 0.665088 0.466564
vt 0.688791 0.531582
vt 0.342964 0.531410
vt 0.718294 0.771897
vt 0.875000 0.312500
vt 0.608463 0.532269
vt 0.187500 0.375000
vt 0.296906 0.332149
vt 0.711873 0.607167
vt 0.713437 0.300753
vt 0.668274 0.669022
vt 0.331126 0.276226
vt 0.281585 0.657008
vt 1.000000 0.062500
vt 0.611736 0.771102
vt 0.595175 0.366343
vt 0.422735 0.531841
vt 0.713353 0.422290
vt 0.758105 0.454518
vt 0.370877 0.428346
vt 0.418341 0.256674
vt 0.320334 0.388669
vt 0.812755 0.481587
vt 0.477835 0.361491
vt 0.187500 0.625000
vt 0.414679 0.661630
vt 0.125000 0.562500
vt 0.450521 0.418925
vt 0.937500 0.500000
vn 0.008833 0.008833 0.999922
vn 0.091934 -0.045967 0.994704
vn 0.014759 -0.007379 0.999864
vn 0.044489 0.044489 0.998019
vn 0.198399 -0.038252 0.979375
vn -0.494878 0.003927 0.868953
vn 0.007395 0.393914 0.919118
vn 0.527981 0.005773 0.849237
vn 0.009244 -0.267539 0.963503
vn -0.223065 0.350048 0.909785
vn 0.204648 0.328773 0.921969
vn -0.208899 -0.284436 0.935659
vn 0.161901 -0.266906 0.950026
vn 0.008577 -0.226493 0.973975
vn -0.034591 -0.223665 0.974052
vn 0.331747 0.048034 0.942145
vn 0.300164 -0.064118 0.951730
vn -0.043118 0.198305 0.979192
vn 0.019316 0.205731 0.978418
vn -0.247614 -0.052178 0.967453
vn -0.295453 0.003062 0.955352
vn -0.052537 -0.312570 0.948441
vn -0.097566 0.138413 0.985557
vn -0.463823 -0.057091 0.884087
vn 0.226979 -0.217784 0.949237
vn 0.395797 -0.159898 0.904311
vn -0.010043 -0.285836 0.958226
vn 0.500181 -0.103458 0.859718
vn 0.165424 -0.081673 0.982835
vn -0.033514 -0.284327 0.958141
vn -0.132123 -0.123609 0.983496
vn 0.036598 -0.337408 0.940647
vn 0.452911 0.137547 0.880882
vn 0.088674 0.463700 0.881544
vn 0.124527 0.163352 0.978677
vn -0.117796 0.332691 0.935650
vn -0.418080 0.332899 0.845214
vn -0.096246 0.183071 0.978377
vn -0.459518 0.193420 0.866851
vn 0.100525 0.360883 0.927178
vn -0.385901 -0.200683 0.900448
vn -0.116051 -0.230917 0.966028
vn 0.285319 0.168210 0.943556
vn 0.281786 -0.179533 0.942531
vn -0.116627 0.249444 0.961341
vn 0.082204 0.289819 0.953545
vn -0.236340 -0.157908 0.958754
vn -0.254542 0.137298 0.957266
vn -0.246042 0.477772 0.843325
vn 0.024144 -0.364986 0.930700
vn 0.199572 -0.341359 0.918502
vn 0.549441 0.007195 0.835502
vn -0.065722 0.373562 0.925274
vn -0.356790 -0.274765 0.892863
vn -0.404687 -0.036036 0.913745
vn 0.013340 0.378504 0.925503
vn -0.002599 0.432162 0.901792
vn -0.328744 -0.289055 0.899097
vn -0.509530 -0.016438 0.860296
vn 0.017840 -0.421644 0.906586
vn 0.012634 -0.336512 0.941594
vn 0.041796 -0.291651 0.955611
vn 0.011965 0.134264 0.990873
vn -0.384137 0.045787 0.922140
vn -0.162579 0.043253 0.985747
vn -0.064517 -0.041770 0.997042
vn 0.037598 0.312152 0.949288
vn 0.020271 0.147179 0.988902
vn -0.034781 0.046582 0.998309
vn -0.034775 0.344424 0.938170
vn 0.477760 -0.020763 0.878245
vn 0.003866 -0.436420 0.899735
vn 0.165446 0.038898 0.985451
vn 0.446313 0.036524 0.894131
vn -0.001155 -0.308275 0.951297
vn -0.044278 -0.069590 0.996593
vn 0.018733 -0.173923 0.984581
vn 0.003921 -0.246735 0.969075
vn 0.058407 -0.260902 0.963597
vn 0.005457 0.473397 0.880832
vn 0.582941 -0.024828 0.812135
vn -0.299152 -0.091996 0.949760
vn -0.397597 -0.230832 0.888050
vn -0.325331 -0.253115 0.911094
vn -0.464276 -0.073317 0.882651
vn 0.053840 0.280671 0.958293
vn 0.141194 0.374910 0.916246
vn 0.046135 0.364657 0.929998
vn -0.348048 0.063320 0.935336
vn -0.349385 0.263674 0.899114
vn -0.497352 0.076642 0.864157
vn -0.062385 0.164223 0.984448
vn -0.149896 0.237781 0.959683
vn -0.015630 0.097969 0.995067
vn -0.009575 0.443144 0.896399
vn 0.130115 -0.371228 0.919380
vn -0.003329 0.376159 0.926549
vn -0.183893 0.346165 0.919975
vn -0.034118 0.369429 0.928633
vn 0.246484 0.085159 0.965398
vn 0.150659 0.248763 0.956775
vn 0.083863 0.083270 0.992992
vn 0.231145 -0.087896 0.968941
vn -0.006333 0.465945 0.884791
vn 0.459213 0.061195 0.886216
vn 0.484347 0.188619 0.854301
vn 0.350077 0.264783 0.898519
vn 0.504220 0.054621 0.861846
vn -0.194058 0.416199 0.888324
vn 0.273086 -0.130919 0.953039
vn 0.500791 0.099568 0.859823
vn -0.072404 -0.158842 0.984646
vn -0.041513 -0.040248 0.998327
vn -0.210757 -0.197620 0.957355
vn -0.056875 -0.273151 0.960289
vn -0.107019 -0.287912 0.951658
vn 0.038331 -0.296824 0.954163
vn 0.023435 -0.221490 0.974881
vn 0.111622 -0.084109 0.990185
vn -0.018308 0.040767 0.999001
vn 0.059264 0.415472 0.907673
vn 0.026608 0.377144 0.925772
vn 0.017471 -0.322738 0.946327
vn 0.033719 -0.299388 0.953536
vn 0.008324 -0.257008 0.966373
vn 0.339431 -0.127929 0.931891
vn 0.287422 -0.252765 0.923850
vn 0.509594 -0.041645 0.859406
vn -0.074953 0.271530 0.959507
vn 0.237537 -0.016289 0.971242
vn 0.182895 -0.185712 0.965433
vn 0.308103 -0.278632 0.909636
vn 0.005206 -0.256108 0.966634
vn -0.021191 -0.387886 0.921464
vn 0.206480 -0.046229 0.977358
vn 0.024337 -0.300474 0.953479
vn -0.150619 -0.075261 0.985723
vn -0.151149 0.379084 0.912935
vn 0.405037 0.055543 0.912612
vn -0.269006 -0.337486 0.902075
vn -0.189407 0.096478 0.977147
vn 0.027471 0.202729 0.978849
vn -0.471139 0.173827 0.864762
vn 0.378756 0.333141 0.863458
vn 0.118988 -0.465756 0.876877
vn 0.300467 0.066340 0.951482
vn -0.240621 0.090653 0.966376
vn 0.171449 0.356498 0.918430
vn 0.302314 -0.194137 0.933229
vn -0.013773 0.241307 0.970351
vn -0.348137 -0.268035 0.898308
vn -0.224857 -0.328719 0.917269
vn 0.314741 0.456377 0.832261
vn 0.150788 -0.303412 0.940853
vn 0.165944 0.447088 0.878962
vn -0.088211 -0.350477 0.932408
vn -0.310363 0.395664 0.864364
vn 0.145088 -0.015254 0.989301
vn 0.109618 0.399309 0.910240
vn 0.023624 -0.398399 0.916908
vn -0.002823 0.198112 0.980175
vn 0.234781 -0.401967 0.885043
vn 0.375218 -0.322829 0.868904
vn -0.078858 -0.385439 0.919357
vn -0.008586 -0.331097 0.943558
vn -0.196615 -0.335246 0.921386
vn 0.531193 -0.103590 0.840894
vn 0.028987 -0.400103 0.916012
vn -0.421178 0.265751 0.867171
vn -0.073383 0.420245 0.904439
vn -0.521231 0.112109 0.846020
vn 0.011636 -0.419443 0.907707
vn 0.531157 0.009190 0.847223
f 1/1/1 113/113/113 66/66/66
f 31/31/31 137/137/137 113/113/113
f 109/109/109 157/157/157 49/49/49
f 94/94/94 120/120/120 23/23/23
f 84/84/84 151/151/151 41/41/41
f 62/62/62 125/125/125 123/123/123
f 114/114/114 47/47/47 31/31/31
f 84/84/84 152/152/152 58/58/58
f 137/137/137 66/66/66 113/113/113
f 65/65/65 23/23/23 120/120/120
f 150/150/150 104/104/104 63/63/63
f 48/48/48 93/93/93 141/141/141
f 170/170/170 109/109/109 49/49/49
f 95/95/95 63/63/63 57/57/57
f 27/27/27 123/123/123 125/125/125
f 76/76/76 113/113/113 1/1/1
f 147/147/147 164/164/164 161/161/161
f 15/15/15 112/112/112 76/76/76
f 115/115/115 15/15/15 75/75/75
f 145/145/145 146/146/146 150/150/150
f 40/40/40 87/87/87 86/86/86
f 150/150/150 80/80/80 104/104/104
f 22/22/22 30/30/30 136/136/136
f 162/162/162 51/51/51 163/163/163
f 32/32/32 165/165/165 136/136/136
f 22/22/22 136/136/136 165/165/165
f 164/164/164 140/140/140 166/166/166
f 76/76/76 112/112/112 113/113/113
f 44/44/44 149/149/149 25/25/25
f 116/116/116 30/30/30 22/22/22
f 72/72/72 150/150/150 63/63/63
f 12/12/12 114/114/114 42/42/42
f 156/156/156 116/116/116 22/22/22
f 156/156/156 152/152/152 12/12/12
f 156/156/156 12/12/12 116/116/116
f 135/135/135 103/103/103 5/5/5
f 168/168/168 165/165/165 32/32/32
f 170/170/170 138/138/138 109/109/109
f 156/156/156 22/22/22 165/165/165
f 30/30/30 116/116/116 115/115/115
f 140/140/140 164/164/164 147/147/147
f 82/82/82 137/137/137 47/47/47
f 172/172/172 168/168/168 60/60/60
f 51/51/51 162/162/162 96/96/96
f 42/42/42 115/115/115 116/116/116
f 34/34/34 80/80/80 153/153/153
f 39/39/39 89/89/89 91/91/91
f 69/69/69 94/94/94 92/92/92
f 152/152/152 166/166/166 58/58/58
f 167/167/167 106/106/106 81/81/81
f 44/44/44 103/103/103 110/110/110
f 170/170/170 53/53/53 138/138/138
f 85/85/85 59/59/59 6/6/6
f 10/10/10 98/98/98 93/93/93
f 93/93/93 45/45/45 38/38/38
f 134/134/134 152/152/152 156/156/156
f 38/38/38 92/92/92 94/94/94
f 99/99/99 36/36/36 56/56/56
f 83/83/83 58/58/58 54/54/54
f 128/128/128 26/26/26 71/71/71
f 151/151/151 58/58/58 83/83/83
f 126/126/126 110/110/110 17/17/17
f 84/84/84 12/12/12 152/152/152
f 84/84/84 58/58/58 151/151/151
f 47/47/47 114/114/114 84/84/84
f 84/84/84 114/114/114 12/12/12
f 47/47/47 84/84/84 41/41/41
f 82/82/82 47/47/47 41/41/41
f 36/36/36 99/99/99 129/129/129
f 20/20/20 137/137/137 82/82/82
f 70/70/70 129/129/129 99/99/99
f 20/20/20 66/66/66 137/137/137
f 55/55/55 20/20/20 82/82/82
f 98/98/98 138/138/138 36/36/36
f 143/143/143 171/171/171 59/59/59
f 102/102/102 68/68/68 35/35/35
f 146/146/146 153/153/153 80/80/80
f 60/60/60 72/72/72 63/63/63
f 166/166/166 140/140/140 58/58/58
f 53/53/53 56/56/56 36/36/36
f 92/92/92 18/18/18 69/69/69
f 103/103/103 44/44/44 131/131/131
f 91/91/91 171/171/171 39/39/39
f 62/62/62 136/136/136 117/117/117
f 122/122/122 53/53/53 97/97/97
f 5/5/5 130/130/130 135/135/135
f 122/122/122 97/97/97 159/159/159
f 37/37/37 24/24/24 147/147/147
f 109/109/109 98/98/98 10/10/10
f 98/98/98 36/36/36 45/45/45
f 14/14/14 133/133/133 78/78/78
f 45/45/45 93/93/93 98/98/98
f 152/152/152 134/134/134 166/166/166
f 123/123/123 32/32/32 62/62/62
f 27/27/27 133/133/133 124/124/124
f 60/60/60 160/160/160 72/72/72
f 136/136/136 62/62/62 32/32/32
f 125/125/125 62/62/62 9/9/9
f 150/150/150 72/72/72 145/145/145
f 129/129/129 70/70/70 18/18/18
f 117/117/117 9/9/9 62/62/62
f 53/53/53 36/36/36 138/138/138
f 162/162/162 163/163/163 145/145/145
f 114/114/114 31/31/31 42/42/42
f 18/18/18 92/92/92 129/129/129
f 126/126/126 71/71/71 26/26/26
f 124/124/124 79/79/79 13/13/13
f 45/45/45 129/129/129 92/92/92
f 131/131/131 13/13/13 79/79/79
f 6/6/6 91/91/91 64/64/64
f 105/105/105 139/139/139 33/33/33
f 39/39/39 90/90/90 89/89/89
f 46/46/46 101/101/101 142/142/142
f 134/134/134 156/156/156 165/165/165
f 39/39/39 169/169/169 90/90/90
f 38/38/38 141/141/141 93/93/93
f 24/24/24 59/59/59 83/83/83
f 94/94/94 3/3/3 120/120/120
f 65/65/65 21/21/21 141/141/141
f 69/69/69 3/3/3 94/94/94
f 14/14/14 118/118/118 133/133/133
f 157/157/157 90/90/90 169/169/169
f 123/123/123 27/27/27 61/61/61
f 124/124/124 61/61/61 27/27/27
f 60/60/60 168/168/168 160/160/160
f 16/16/16 100/100/100 139/139/139
f 56/56/56 53/53/53 122/122/122
f 6/6/6 55/55/55 85/85/85
f 37/37/37 147/147/147 49/49/49
f 24/24/24 83/83/83 54/54/54
f 24/24/24 143/143/143 59/59/59
f 143/143/143 169/169/169 39/39/39
f 24/24/24 140/140/140 147/147/147
f 126/126/126 149/149/149 110/110/110
f 130/130/130 5/5/5 158/158/158
f 44/44/44 110/110/110 149/149/149
f 157/157/157 169/169/169 37/37/37
f 5/5/5 29/29/29 119/119/119
f 146/146/146 145/145/145 163/163/163
f 119/119/119 158/158/158 5/5/5
f 37/37/37 169/169/169 143/143/143
f 37/37/37 143/143/143 24/24/24
f 157/157/157 37/37/37 49/49/49
f 157/157/157 10/10/10 90/90/90
f 109/109/109 138/138/138 98/98/98
f 109/109/109 10/10/10 157/157/157
f 57/57/57 104/104/104 121/121/121
f 170/170/170 97/97/97 53/53/53
f 82/82/82 41/41/41 55/55/55
f 85/85/85 55/55/55 41/41/41
f 151/151/151 83/83/83 41/41/41
f 139/139/139 100/100/100 43/43/43
f 135/135/135 110/110/110 103/103/103
f 73/73/73 4/4/4 102/102/102
f 48/48/48 89/89/89 90/90/90
f 77/77/77 2/2/2 119/119/119
f 57/57/57 97/97/97 170/170/170
f 57/57/57 170/170/170 95/95/95
f 78/78/78 125/125/125 9/9/9
f 117/117/117 30/30/30 75/75/75
f 74/74/74 16/16/16 139/139/139
f 54/54/54 58/58/58 140/140/140
f 129/129/129 45/45/45 36/36/36
f 2/2/2 158/158/158 119/119/119
f 110/110/110 135/135/135 17/17/17
f 108/108/108 111/111/111 52/52/52
f 121/121/121 97/97/97 57/57/57
f 34/34/34 121/121/121 104/104/104
f 90/90/90 10/10/10 48/48/48
f 107/107/107 106/106/106 33/33/33
f 11/11/11 155/155/155 144/144/144
f 155/155/155 121/121/121 34/34/34
f 64/64/64 91/91/91 89/89/89
f 106/106/106 153/153/153 81/81/81
f 38/38/38 23/23/23 141/141/141
f 25/25/25 131/131/131 44/44/44
f 50/50/50 160/160/160 168/168/168
f 23/23/23 38/38/38 94/94/94
f 48/48/48 141/141/141 89/89/89
f 21/21/21 89/89/89 141/141/141
f 154/154/154 51/51/51 96/96/96
f 167/167/167 111/111/111 106/106/106
f 33/33/33 106/106/106 111/111/111
f 171/171/171 143/143/143 39/39/39
f 167/167/167 132/132/132 28/28/28
f 64/64/64 89/89/89 21/21/21
f 105/105/105 33/33/33 111/111/111
f 59/59/59 85/85/85 83/83/83
f 105/105/105 111/111/111 108/108/108
f 104/104/104 57/57/57 63/63/63
f 74/74/74 108/108/108 8/8/8
f 141/141/141 23/23/23 65/65/65
f 74/74/74 105/105/105 108/108/108
f 41/41/41 83/83/83 85/85/85
f 134/134/134 164/164/164 166/166/166
f 11/11/11 144/144/144 107/107/107
f 171/171/171 91/91/91 59/59/59
f 144/144/144 155/155/155 153/153/153
f 144/144/144 153/153/153 106/106/106
f 144/144/144 106/106/106 107/107/107
f 91/91/91 6/6/6 59/59/59
f 159/159/159 87/87/87 40/40/40
f 4/4/4 68/68/68 102/102/102
f 148/148/148 101/101/101 46/46/46
f 127/127/127 25/25/25 149/149/149
f 168/168/168 172/172/172 134/134/134
f 74/74/74 139/139/139 105/105/105
f 31/31/31 113/113/113 112/112/112
f 7/7/7 99/99/99 88/88/88
f 19/19/19 86/86/86 142/142/142
f 145/145/145 72/72/72 160/160/160
f 133/133/133 27/27/27 78/78/78
f 102/102/102 35/35/35 100/100/100
f 80/80/80 34/34/34 104/104/104
f 40/40/40 86/86/86 88/88/88
f 46/46/46 86/86/86 87/87/87
f 148/148/148 46/46/46 87/87/87
f 46/46/46 142/142/142 86/86/86
f 145/145/145 96/96/96 162/162/162
f 67/67/67 88/88/88 86/86/86
f 56/56/56 122/122/122 40/40/40
f 159/159/159 155/155/155 148/148/148
f 122/122/122 159/159/159 40/40/40
f 159/159/159 148/148/148 87/87/87
f 148/148/148 155/155/155 11/11/11
f 148/148/148 11/11/11 101/101/101
f 159/159/159 97/97/97 121/121/121
f 159/159/159 121/121/121 155/155/155
f 56/56/56 40/40/40 88/88/88
f 30/30/30 117/117/117 136/136/136
f 56/56/56 88/88/88 99/99/99
f 95/95/95 49/49/49 147/147/147
f 7/7/7 70/70/70 99/99/99
f 67/67/67 7/7/7 88/88/88
f 19/19/19 67/67/67 86/86/86
f 68/68/68 19/19/19 142/142/142
f 73/73/73 102/102/102 100/100/100
f 29/29/29 5/5/5 103/103/103
f 93/93/93 48/48/48 10/10/10
f 43/43/43 101/101/101 107/107/107
f 16/16/16 73/73/73 100/100/100
f 118/118/118 29/29/29 79/79/79
f 142/142/142 35/35/35 68/68/68
f 153/153/153 155/155/155 34/34/34
f 112/112/112 42/42/42 31/31/31
f 28/28/28 128/128/128 52/52/52
f 131/131/131 25/25/25 13/13/13
f 60/60/60 63/63/63 172/172/172
f 161/161/161 172/172/172 63/63/63
f 126/126/126 17/17/17 71/71/71
f 132/132/132 26/26/26 28/28/28
f 128/128/128 71/71/71 8/8/8
f 79/79/79 124/124/124 133/133/133
f 167/167/167 28/28/28 52/52/52
f 26/26/26 128/128/128 28/28/28
f 161/161/161 95/95/95 147/147/147
f 77/77/77 119/119/119 118/118/118
f 95/95/95 170/170/170 49/49/49
f 100/100/100 35/35/35 43/43/43
f 103/103/103 131/131/131 29/29/29
f 35/35/35 142/142/142 101/101/101
f 101/101/101 43/43/43 35/35/35
f 13/13/13 25/25/25 127/127/127
f 149/149/149 126/126/126 26/26/26
f 149/149/149 26/26/26 127/127/127
f 51/51/51 127/127/127 132/132/132
f 125/125/125 78/78/78 27/27/27
f 131/131/131 79/79/79 29/29/29
f 115/115/115 75/75/75 30/30/30
f 163/163/163 132/132/132 167/167/167
f 132/132/132 127/127/127 26/26/26
f 167/167/167 52/52/52 111/111/111
f 163/163/163 167/167/167 81/81/81
f 63/63/63 95/95/95 161/161/161
f 146/146/146 163/163/163 81/81/81
f 107/107/107 33/33/33 43/43/43
f 96/96/96 160/160/160 50/50/50
f 50/50/50 168/168/168 32/32/32
f 161/161/161 164/164/164 172/172/172
f 79/79/79 133/133/133 118/118/118
f 134/134/134 172/172/172 164/164/164
f 124/124/124 154/154/154 61/61/61
f 12/12/12 42/42/42 116/116/116
f 123/123/123 50/50/50 32/32/32
f 96/96/96 50/50/50 61/61/61
f 54/54/54 140/140/140 24/24/24
f 77/77/77 118/118/118 14/14/14
f 154/154/154 127/127/127 51/51/51
f 43/43/43 33/33/33 139/139/139
f 51/51/51 132/132/132 163/163/163
f 130/130/130 17/17/17 135/135/135
f 154/154/154 96/96/96 61/61/61
f 154/154/154 13/13/13 127/127/127
f 124/124/124 13/13/13 154/154/154
f 15/15/15 115/115/115 112/112/112
f 42/42/42 112/112/112 115/115/115
f 92/92/92 38/38/38 45/45/45
f 123/123/123 61/61/61 50/50/50
f 150/150/150 146/146/146 80/80/80
f 11/11/11 107/107/107 101/101/101
f 137/137/137 31/31/31 47/47/47
f 9/9/9 117/117/117 75/75/75
f 134/134/134 165/165/165 168/168/168
f 146/146/146 81/81/81 153/153/153
f 119/119/119 29/29/29 118/118/118
f 96/96/96 145/145/145 160/160/160
f 8/8/8 173/173/173 128/128/128
f 173/173/173 52/52/52 128/128/128
f 52/52/52 173/173/173 108/108/108
f 173/173/173 8/8/8 108/108/108
