# frame 001043 
# time 0.522000 
# name Cloth3D 
v -0.000000 0.000000 -0.000000
v 1.000000 0.000000 -0.000000
v -0.000000 1.000000 0.000000
v 1.000000 1.000000 0.000000
v 0.938725 0.124851 0.016964
v -0.000000 0.500000 0.000000
v 0.500000 1.000000 0.000000
v 1.000000 0.500000 0.000000
v 0.500000 -0.000000 0.000000
v 0.248535 0.748468 0.060556
v 0.755724 0.749145 0.074568
v 0.248386 0.254810 0.057340
v 0.754223 0.252583 0.072293
v 0.750000 0.000000 0.000000
v 0.250000 0.000000 0.000000
v 1.000000 0.750000 0.000000
v 1.000000 0.250000 0.000000
v 0.250000 1.000000 0.000000
v 0.750000 1.000000 0.000000
v 0.000000 0.250000 0.000000
v 0.000000 0.750000 -0.000000
v 0.365028 0.225462 0.065330
v 0.063262 0.874004 0.005543
v 0.227476 0.519813 0.134606
v 0.816809 0.251620 0.059942
v 0.882339 0.377106 0.057720
v 0.625588 0.129845 0.032748
v 0.887490 0.438930 0.069797
v 0.876171 0.124937 0.026027
v 0.375736 0.129516 0.031277
v 0.126485 0.128065 0.004050
v 0.493212 0.260345 0.072205
v 0.885202 0.625666 0.065574
v 0.637488 0.627937 0.156523
v 0.876501 0.875250 0.025399
v 0.375938 0.872660 0.036199
v 0.248266 0.604758 0.126872
v 0.126630 0.872576 0.003935
v 0.120035 0.625132 0.053369
v 0.626422 0.873122 0.041367
v 0.117206 0.376464 0.058722
v 0.250866 0.128168 0.023977
v 0.879764 0.749877 0.044913
v 0.877625 0.251431 0.040173
v 0.252347 0.870429 0.013763
v 0.751058 0.872268 0.029230
v 0.123604 0.252575 0.032080
v 0.124793 0.748361 0.028415
v 0.309698 0.599465 0.159922
v 0.584854 0.314721 0.092674
v 0.745991 0.370063 0.106003
v 0.889820 0.501174 0.075726
v 0.436351 0.767860 0.077284
v 0.234909 0.459742 0.120214
v 0.000000 0.375000 0.000000
v 0.501185 0.872571 0.042496
v 0.500982 0.628169 0.157449
v 0.242576 0.379944 0.095760
v 0.114401 0.501524 0.068137
v 0.522023 0.423260 0.138704
v 0.627528 0.258301 0.072604
v 0.500724 0.131044 0.030362
v 0.497359 0.552177 0.199408
v 0.000000 0.625000 0.000000
v 0.000000 0.875000 0.000000
v 0.000000 0.125000 0.000000
v 0.625000 1.000000 0.000000
v 0.875000 1.000000 0.000000
v 0.125000 1.000000 0.000000
v 0.375000 1.000000 0.000000
v 1.000000 0.375000 0.000000
v 0.570982 0.468550 0.159612
v 1.000000 0.875000 0.000000
v 1.000000 0.625000 0.000000
v 0.375000 0.000000 0.000000
v 0.125000 0.000000 0.000000
v 0.875000 0.000000 0.000000
v 0.625000 0.000000 0.000000
v 0.750833 0.125729 0.038018
v 0.471447 0.485729 0.167398
v 0.786719 0.517914 0.148200
v 0.059793 0.313634 0.024230
v 0.176557 0.440454 0.091217
v 0.183200 0.316172 0.061354
v 0.057486 0.438301 0.032818
v 0.687769 0.935469 0.014628
v 0.690600 0.811061 0.060602
v 0.563085 0.936554 0.021552
v 0.061821 0.686670 0.019104
v 0.184018 0.686948 0.062534
v 0.058520 0.562751 0.030898
v 0.188909 0.935423 0.001209
v 0.188930 0.809093 0.024155
v 0.063120 0.936762 -0.000122
v 0.430428 0.569049 0.189456
v 0.678923 0.366392 0.110424
v 0.508781 0.722866 0.104448
v 0.313165 0.809202 0.047361
v 0.438281 0.936258 0.019911
v 0.938864 0.812252 0.017462
v 0.815528 0.811815 0.045184
v 0.937808 0.937617 0.008143
v 0.877752 0.187680 0.037623
v 0.571292 0.568329 0.188821
v 0.945350 0.500661 0.038191
v 0.836208 0.593397 0.102473
v 0.821466 0.687775 0.079339
v 0.942613 0.562801 0.033895
v 0.314469 0.701078 0.098294
v 0.939035 0.250606 0.020945
v 0.885749 0.563403 0.069344
v 0.188426 0.064354 0.005690
v 0.063258 0.063420 -0.001628
v 0.188176 0.191819 0.026803
v 0.313154 0.064090 0.015137
v 0.312404 0.191538 0.050532
v 0.437981 0.065716 0.012845
v 0.812693 0.061554 0.020478
v 0.938305 0.061842 0.013253
v -0.000000 0.937500 0.000000
v 0.593985 0.675960 0.129974
v 0.526820 0.801753 0.071091
v 0.563663 0.195002 0.052085
v 0.689240 0.192486 0.051687
v 0.562815 0.065362 0.015167
v 0.939222 0.313572 0.023552
v 0.819414 0.315068 0.072737
v 0.942332 0.438738 0.032546
v 0.313892 0.934833 0.008178
v 1.000000 0.187500 0.000000
v 0.815392 0.187691 0.050245
v 0.809501 0.376706 0.084333
v 0.687556 0.064269 0.016611
v 0.397046 0.385459 0.121725
v 0.937691 0.187820 0.015409
v 0.438055 0.195032 0.050398
v 0.062423 0.188697 0.011983
v 0.379752 0.764956 0.073437
v 0.940634 0.687163 0.026570
v 0.297701 0.448334 0.139062
v 0.063358 0.811200 0.005746
v 0.812720 0.936439 0.011916
v 0.177901 0.564210 0.091240
v 0.780051 0.650935 0.112555
v 0.681105 0.476296 0.154753
v 0.719762 0.553016 0.199559
v 0.319969 0.551334 0.199562
v 0.722748 0.770197 0.070674
v 0.880767 0.313937 0.051746
v 0.623968 0.552689 0.199447
v 0.180041 0.378373 0.076224
v 0.292774 0.339712 0.088887
v 0.731912 0.612280 0.154466
v 0.719101 0.306065 0.088258
v 0.679034 0.670014 0.127359
v 0.329070 0.282580 0.078553
v 0.273092 0.659423 0.110105
v 1.000000 0.062500 -0.000000
v 0.615357 0.768589 0.082344
v 0.600335 0.376940 0.117882
v 0.412789 0.551822 0.199406
v 0.727185 0.429093 0.127282
v 0.775249 0.460012 0.122470
v 0.362946 0.437824 0.140440
v 0.418210 0.264550 0.077220
v 0.312965 0.395418 0.118467
v 0.834240 0.482617 0.113850
v 0.477821 0.372120 0.118806
v 0.179078 0.626759 0.082649
v 0.410676 0.662182 0.131912
v 0.447734 0.429397 0.143069
v 0.385348 0.494194 0.171209
vt 0.000000 0.000000
vt 1.000000 0.000000
vt 0.000000 1.000000
vt 1.000000 1.000000
vt 0.937500 0.125000
vt 0.000000 0.500000
vt 0.500000 1.000000
vt 1.000000 0.500000
vt 0.500000 0.000000
vt 0.250000 0.750000
vt 0.750000 0.750000
vt 0.250000 0.250000
vt 0.750000 0.250000
vt 0.750000 0.000000
vt 0.250000 0.000000
vt 1.000000 0.750000
vt 1.000000 0.250000
vt 0.250000 1.000000
vt 0.750000 1.000000
vt 0.000000 0.250000
vt 0.000000 0.750000
vt 0.365347 0.220303
vt 0.062500 0.875000
vt 0.245672 0.515386
vt 0.812500 0.250000
vt 0.875000 0.375000
vt 0.625000 0.125000
vt 0.875000 0.437500
vt 0.875000 0.125000
vt 0.375000 0.125000
vt 0.125000 0.125000
vt 0.492214 0.250470
vt 0.875000 0.625000
vt 0.625000 0.625000
vt 0.875000 0.875000
vt 0.375000 0.875000
vt 0.262101 0.599801
vt 0.125000 0.875000
vt 0.125000 0.625000
vt 0.625000 0.875000
vt 0.125000 0.375000
vt 0.250000 0.125000
vt 0.875000 0.750000
vt 0.875000 0.250000
vt 0.250000 0.875000
vt 0.750000 0.875000
vt 0.125000 0.250000
vt 0.125000 0.750000
vt 0.325445 0.593646
vt 0.581754 0.304126
vt 0.736041 0.365469
vt 0.875000 0.500000
vt 0.435664 0.771773
vt 0.248222 0.455442
vt 0.000000 0.375000
vt 0.500000 0.875000
vt 0.500000 0.625000
vt 0.250000 0.375000
vt 0.125000 0.500000
vt 0.519707 0.411902
vt 0.625000 0.250000
vt 0.500000 0.125000
vt 0.497057 0.544105
vt 0.000000 0.625000
vt 0.000000 0.875000
vt 0.000000 0.125000
vt 0.625000 1.000000
vt 0.875000 1.000000
vt 0.125000 1.000000
vt 0.375000 1.000000
vt 1.000000 0.375000
vt 0.564051 0.458319
vt 1.000000 0.875000
vt 1.000000 0.625000
vt 0.375000 0.000000
vt 0.125000 0.000000
vt 0.875000 0.000000
vt 0.625000 0.000000
vt 0.750000 0.125000
vt 0.473805 0.475426
vt 0.760524 0.515669
vt 0.062500 0.312500
vt 0.187500 0.437500
vt 0.187500 0.312500
vt 0.062500 0.437500
vt 0.687500 0.937500
vt 0.687500 0.812500
vt 0.562500 0.937500
vt 0.062500 0.687500
vt 0.187500 0.687500
vt 0.062500 0.562500
vt 0.187500 0.937500
vt 0.187500 0.812500
vt 0.062500 0.937500
vt 0.437500 0.562500
vt 0.671367 0.358455
vt 0.506884 0.725192
vt 0.312500 0.812500
vt 0.437500 0.937500
vt 0.937500 0.812500
vt 0.812500 0.812500
vt 0.937500 0.937500
vt 0.875000 0.187500
vt 0.562500 0.562500
vt 0.937500 0.500000
vt 0.819332 0.591237
vt 0.812500 0.687500
vt 0.937500 0.562500
vt 0.319123 0.700934
vt 0.937500 0.250000
vt 0.875000 0.562500
vt 0.187500 0.062500
vt 0.062500 0.062500
vt 0.187500 0.187500
vt 0.312500 0.062500
vt 0.312500 0.187500
vt 0.437500 0.062500
vt 0.812500 0.062500
vt 0.937500 0.062500
vt 0.000000 0.937500
vt 0.587160 0.675778
vt 0.525016 0.804189
vt 0.562500 0.187500
vt 0.687500 0.187500
vt 0.562500 0.062500
vt 0.937500 0.312500
vt 0.812500 0.312500
vt 0.937500 0.437500
vt 0.312500 0.937500
vt 1.000000 0.187500
vt 0.812500 0.187500
vt 0.800716 0.372483
vt 0.687500 0.062500
vt 0.400647 0.375957
vt 0.937500 0.187500
vt 0.437500 0.187500
vt 0.062500 0.187500
vt 0.380019 0.768564
vt 0.937500 0.687500
vt 0.309549 0.441894
vt 0.062500 0.812500
vt 0.812500 0.937500
vt 0.187500 0.562500
vt 0.765906 0.648544
vt 0.665088 0.466564
vt 0.688473 0.546340
vt 0.343103 0.541592
vt 0.718294 0.771897
vt 0.875000 0.312500
vt 0.608398 0.545011
vt 0.187500 0.375000
vt 0.296906 0.332149
vt 0.711873 0.607167
vt 0.713437 0.300753
vt 0.668274 0.669022
vt 0.331126 0.276226
vt 0.281585 0.657008
vt 1.000000 0.062500
vt 0.611736 0.771102
vt 0.595175 0.366343
vt 0.422637 0.543965
vt 0.713353 0.422290
vt 0.758105 0.454518
vt 0.370877 0.428346
vt 0.418341 0.256674
vt 0.320334 0.388669
vt 0.812755 0.481587
vt 0.477835 0.361491
vt 0.187500 0.625000
vt 0.414679 0.661630
vt 0.450521 0.418925
vt 0.396781 0.484194
vn 0.013133 0.013133 0.999828
vn 0.142264 -0.071132 0.987270
vn 0.003166 -0.001583 0.999994
vn 0.064187 0.064187 0.995871
vn 0.213272 -0.041349 0.976117
vn -0.495817 0.007463 0.868395
vn -0.004967 0.313254 0.949656
vn 0.544741 -0.009777 0.838547
vn -0.009880 -0.210359 0.977574
vn -0.230022 0.376374 0.897459
vn 0.165634 0.361221 0.917652
vn -0.178124 -0.271491 0.945814
vn 0.104086 -0.224165 0.968977
vn -0.016942 -0.280039 0.959839
vn -0.036493 -0.160110 0.986424
vn 0.340671 0.036542 0.939472
vn 0.303251 -0.037001 0.952192
vn -0.025662 0.072067 0.997070
vn 0.007811 0.197014 0.980370
vn -0.280152 -0.048263 0.958742
vn -0.208155 0.049993 0.976817
vn -0.026577 -0.299028 0.953874
vn -0.020135 0.039185 0.999029
vn -0.482638 -0.053169 0.874205
vn 0.232854 -0.163451 0.958678
vn 0.404010 -0.140030 0.903973
vn -0.017329 -0.270400 0.962592
vn 0.519101 -0.173313 0.836957
vn 0.137568 -0.159883 0.977503
vn 0.015170 -0.283533 0.958842
vn -0.085122 -0.129548 0.987913
vn 0.016170 -0.341914 0.939592
vn 0.500947 0.128898 0.855825
vn 0.047230 0.507768 0.860198
vn 0.117382 0.184222 0.975850
vn -0.115015 0.317011 0.941422
vn -0.453791 0.350813 0.819148
vn -0.033328 0.102861 0.994137
vn -0.412946 0.177564 0.893278
vn 0.056584 0.350989 0.934668
vn -0.333732 -0.166661 0.927818
vn -0.128396 -0.214500 0.968248
vn 0.309909 0.155780 0.937917
vn 0.307240 -0.125032 0.943383
vn -0.119508 0.239698 0.963464
vn 0.062605 0.302417 0.951118
vn -0.197344 -0.201013 0.959505
vn -0.233191 0.201726 0.951277
vn -0.245163 0.534968 0.808520
vn 0.014495 -0.357446 0.933821
vn 0.185416 -0.282194 0.941269
vn 0.563523 0.012501 0.826006
vn -0.072222 0.402469 0.912580
vn -0.338513 -0.281825 0.897766
vn -0.439927 -0.034154 0.897384
vn -0.021983 0.335676 0.941721
vn -0.014643 0.487745 0.872863
vn -0.247000 -0.324926 0.912915
vn -0.478124 0.010497 0.878230
vn 0.012251 -0.399642 0.916589
vn 0.005846 -0.317238 0.948328
vn -0.007924 -0.278888 0.960291
vn 0.000657 0.099773 0.995010
vn -0.393058 0.047740 0.918274
vn -0.096110 0.000555 0.995371
vn -0.080018 -0.054211 0.995318
vn 0.029632 0.267980 0.962969
vn 0.013848 0.155098 0.987802
vn -0.006897 0.008838 0.999937
vn -0.047852 0.213137 0.975850
vn 0.424096 -0.034759 0.904950
vn 0.019077 -0.423595 0.905651
vn 0.200647 0.036828 0.978971
vn 0.475792 0.028456 0.879097
vn 0.009822 -0.225060 0.974295
vn -0.029350 -0.031362 0.999077
vn 0.026322 -0.262435 0.964591
vn -0.004943 -0.240737 0.970578
vn -0.014476 -0.263223 0.964626
vn 0.004490 -0.417964 0.908452
vn 0.440549 -0.200411 0.875072
vn -0.345949 -0.101327 0.932766
vn -0.355546 -0.222742 0.907730
vn -0.230658 -0.249583 0.940481
vn -0.474213 -0.037797 0.879599
vn 0.043221 0.268319 0.962360
vn 0.106309 0.341630 0.933803
vn 0.015288 0.316411 0.948499
vn -0.313363 0.098836 0.944476
vn -0.344783 0.300590 0.889253
vn -0.459329 0.061956 0.886103
vn -0.035012 0.069954 0.996936
vn -0.154688 0.277487 0.948194
vn 0.005521 0.055307 0.998454
vn -0.026809 0.520597 0.853382
vn 0.065164 -0.337773 0.938969
vn -0.032053 0.443985 0.895461
vn -0.160846 0.360014 0.918977
vn -0.039408 0.298890 0.953474
vn 0.275838 0.075501 0.958234
vn 0.124623 0.264943 0.956177
vn 0.089413 0.101005 0.990860
vn 0.260605 -0.098162 0.960442
vn -0.002468 0.502080 0.864818
vn 0.561648 -0.008653 0.827331
vn 0.524522 0.169656 0.834322
vn 0.355622 0.292013 0.887841
vn 0.524669 0.051823 0.849728
vn -0.172886 0.459287 0.871301
vn 0.325840 -0.084290 0.941660
vn 0.551705 0.077596 0.830422
vn -0.072310 -0.117139 0.990480
vn -0.016293 -0.028620 0.999458
vn -0.166675 -0.225914 0.959782
vn -0.036237 -0.229829 0.972556
vn -0.103014 -0.287290 0.952288
vn 0.012058 -0.232051 0.972629
vn 0.026485 -0.259323 0.965427
vn 0.139485 -0.097716 0.985391
vn -0.020192 0.024989 0.999484
vn 0.028171 0.479467 0.877108
vn -0.023503 0.375425 0.926555
vn -0.011016 -0.308962 0.951011
vn -0.028403 -0.281390 0.959173
vn -0.014362 -0.233399 0.972275
vn 0.405358 -0.049611 0.912811
vn 0.279629 -0.173552 0.944292
vn 0.529235 -0.097399 0.842867
vn -0.082683 0.191656 0.977973
vn 0.243533 0.007413 0.969864
vn 0.158354 -0.188081 0.969304
vn 0.339171 -0.192315 0.920857
vn -0.022299 -0.261719 0.964886
vn -0.063706 -0.381110 0.922332
vn 0.295034 -0.013898 0.955386
vn 0.029591 -0.322697 0.946040
vn -0.138305 -0.105717 0.984731
vn -0.097013 0.399244 0.911698
vn 0.412502 0.084637 0.907016
vn -0.203731 -0.385587 0.899898
vn -0.104443 0.065216 0.992390
vn 0.016805 0.211442 0.977246
vn -0.495090 0.162599 0.853492
vn 0.362454 0.375350 0.853077
vn 0.145720 -0.434797 0.888661
vn 0.334767 0.046653 0.941145
vn -0.202371 0.145573 0.968429
vn 0.126075 0.366674 0.921767
vn 0.356204 -0.128546 0.925524
vn 0.000906 0.146267 0.989245
vn -0.271485 -0.241364 0.931686
vn -0.166623 -0.340191 0.925477
vn 0.322489 0.480290 0.815673
vn 0.083911 -0.293378 0.952307
vn 0.120448 0.490508 0.863073
vn -0.114513 -0.281233 0.952783
vn -0.319657 0.439471 0.839455
vn 0.219340 -0.015792 0.975521
vn 0.049488 0.396022 0.916907
vn 0.029501 -0.388117 0.921138
vn -0.019771 0.216358 0.976114
vn 0.208671 -0.299807 0.930899
vn 0.269698 -0.351804 0.896380
vn -0.082257 -0.413491 0.906785
vn 0.015002 -0.332774 0.942887
vn -0.133034 -0.407081 0.903652
vn 0.460418 -0.190883 0.866936
vn 0.005849 -0.383248 0.923627
vn -0.438507 0.237896 0.866670
vn -0.073263 0.492697 0.867112
vn -0.011385 -0.400078 0.916410
vn -0.031925 -0.445413 0.894756
f 1/1/1 113/113/113 66/66/66
f 31/31/31 137/137/137 113/113/113
f 150/150/150 104/104/104 63/63/63
f 76/76/76 112/112/112 113/113/113
f 151/151/151 58/58/58 83/83/83
f 112/112/112 114/114/114 31/31/31
f 137/137/137 66/66/66 113/113/113
f 84/84/84 151/151/151 41/41/41
f 112/112/112 31/31/31 113/113/113
f 115/115/115 112/112/112 15/15/15
f 156/156/156 152/152/152 12/12/12
f 63/63/63 72/72/72 150/150/150
f 76/76/76 113/113/113 1/1/1
f 42/42/42 114/114/114 112/112/112
f 15/15/15 112/112/112 76/76/76
f 115/115/115 15/15/15 75/75/75
f 114/114/114 47/47/47 31/31/31
f 116/116/116 115/115/115 30/30/30
f 149/149/149 127/127/127 44/44/44
f 22/22/22 30/30/30 136/136/136
f 137/137/137 31/31/31 47/47/47
f 125/125/125 62/62/62 117/117/117
f 165/165/165 136/136/136 32/32/32
f 134/134/134 156/156/156 165/165/165
f 156/156/156 116/116/116 22/22/22
f 42/42/42 116/116/116 114/114/114
f 116/116/116 30/30/30 22/22/22
f 42/42/42 112/112/112 115/115/115
f 42/42/42 115/115/115 116/116/116
f 156/156/156 12/12/12 116/116/116
f 12/12/12 114/114/114 116/116/116
f 56/56/56 53/53/53 122/122/122
f 171/171/171 134/134/134 168/168/168
f 165/165/165 156/156/156 22/22/22
f 134/134/134 165/165/165 168/168/168
f 165/165/165 22/22/22 136/136/136
f 168/168/168 165/165/165 32/32/32
f 85/85/85 55/55/55 41/41/41
f 151/151/151 83/83/83 41/41/41
f 50/50/50 160/160/160 168/168/168
f 172/172/172 171/171/171 80/80/80
f 140/140/140 164/164/164 172/172/172
f 134/134/134 152/152/152 156/156/156
f 60/60/60 72/72/72 80/80/80
f 57/57/57 95/95/95 63/63/63
f 164/164/164 171/171/171 172/172/172
f 115/115/115 75/75/75 30/30/30
f 140/140/140 166/166/166 164/164/164
f 166/166/166 134/134/134 164/164/164
f 164/164/164 134/134/134 171/171/171
f 140/140/140 58/58/58 166/166/166
f 166/166/166 152/152/152 134/134/134
f 84/84/84 152/152/152 58/58/58
f 58/58/58 152/152/152 166/166/166
f 147/147/147 24/24/24 140/140/140
f 54/54/54 58/58/58 140/140/140
f 94/94/94 69/69/69 3/3/3
f 54/54/54 83/83/83 58/58/58
f 85/85/85 41/41/41 83/83/83
f 82/82/82 137/137/137 47/47/47
f 84/84/84 12/12/12 152/152/152
f 84/84/84 58/58/58 151/151/151
f 47/47/47 114/114/114 84/84/84
f 84/84/84 114/114/114 12/12/12
f 47/47/47 84/84/84 41/41/41
f 82/82/82 47/47/47 41/41/41
f 55/55/55 82/82/82 41/41/41
f 20/20/20 137/137/137 82/82/82
f 20/20/20 66/66/66 137/137/137
f 55/55/55 20/20/20 82/82/82
f 157/157/157 90/90/90 169/169/169
f 36/36/36 99/99/99 129/129/129
f 69/69/69 94/94/94 92/92/92
f 141/141/141 38/38/38 23/23/23
f 59/59/59 85/85/85 83/83/83
f 24/24/24 59/59/59 83/83/83
f 18/18/18 92/92/92 129/129/129
f 92/92/92 18/18/18 69/69/69
f 45/45/45 98/98/98 36/36/36
f 117/117/117 30/30/30 75/75/75
f 161/161/161 95/95/95 49/49/49
f 138/138/138 53/53/53 36/36/36
f 161/161/161 49/49/49 147/147/147
f 122/122/122 97/97/97 159/159/159
f 98/98/98 138/138/138 36/36/36
f 157/157/157 10/10/10 90/90/90
f 129/129/129 45/45/45 36/36/36
f 109/109/109 98/98/98 10/10/10
f 38/38/38 141/141/141 93/93/93
f 28/28/28 128/128/128 52/52/52
f 136/136/136 30/30/30 62/62/62
f 93/93/93 45/45/45 38/38/38
f 129/129/129 70/70/70 18/18/18
f 117/117/117 62/62/62 30/30/30
f 70/70/70 129/129/129 99/99/99
f 92/92/92 38/38/38 45/45/45
f 120/120/120 94/94/94 3/3/3
f 23/23/23 120/120/120 65/65/65
f 141/141/141 23/23/23 65/65/65
f 45/45/45 129/129/129 92/92/92
f 23/23/23 38/38/38 94/94/94
f 23/23/23 94/94/94 120/120/120
f 21/21/21 141/141/141 65/65/65
f 38/38/38 92/92/92 94/94/94
f 6/6/6 91/91/91 64/64/64
f 90/90/90 10/10/10 48/48/48
f 105/105/105 52/52/52 128/128/128
f 93/93/93 48/48/48 10/10/10
f 48/48/48 93/93/93 141/141/141
f 169/169/169 90/90/90 39/39/39
f 37/37/37 169/169/169 143/143/143
f 10/10/10 98/98/98 93/93/93
f 147/147/147 140/140/140 172/172/172
f 170/170/170 138/138/138 109/109/109
f 109/109/109 157/157/157 49/49/49
f 64/64/64 89/89/89 21/21/21
f 64/64/64 39/39/39 89/89/89
f 59/59/59 143/143/143 91/91/91
f 39/39/39 91/91/91 143/143/143
f 91/91/91 39/39/39 64/64/64
f 6/6/6 55/55/55 85/85/85
f 24/24/24 83/83/83 54/54/54
f 45/45/45 93/93/93 98/98/98
f 24/24/24 143/143/143 59/59/59
f 143/143/143 169/169/169 39/39/39
f 24/24/24 54/54/54 140/140/140
f 37/37/37 24/24/24 147/147/147
f 95/95/95 170/170/170 49/49/49
f 37/37/37 147/147/147 49/49/49
f 170/170/170 109/109/109 49/49/49
f 37/37/37 49/49/49 157/157/157
f 37/37/37 157/157/157 169/169/169
f 37/37/37 143/143/143 24/24/24
f 109/109/109 138/138/138 98/98/98
f 109/109/109 10/10/10 157/157/157
f 97/97/97 170/170/170 57/57/57
f 170/170/170 53/53/53 138/138/138
f 63/63/63 161/161/161 80/80/80
f 63/63/63 95/95/95 161/161/161
f 161/161/161 147/147/147 172/172/172
f 161/161/161 172/172/172 80/80/80
f 160/160/160 145/145/145 72/72/72
f 57/57/57 63/63/63 104/104/104
f 131/131/131 25/25/25 13/13/13
f 34/34/34 104/104/104 150/150/150
f 57/57/57 104/104/104 121/121/121
f 72/72/72 63/63/63 80/80/80
f 97/97/97 57/57/57 121/121/121
f 57/57/57 170/170/170 95/95/95
f 159/159/159 148/148/148 87/87/87
f 97/97/97 53/53/53 170/170/170
f 9/9/9 125/125/125 117/117/117
f 149/149/149 126/126/126 26/26/26
f 81/81/81 153/153/153 146/146/146
f 146/146/146 34/34/34 150/150/150
f 159/159/159 155/155/155 148/148/148
f 91/91/91 6/6/6 59/59/59
f 155/155/155 121/121/121 34/34/34
f 34/34/34 121/121/121 104/104/104
f 153/153/153 155/155/155 34/34/34
f 144/144/144 155/155/155 153/153/153
f 122/122/122 159/159/159 40/40/40
f 146/146/146 153/153/153 34/34/34
f 11/11/11 144/144/144 107/107/107
f 72/72/72 145/145/145 150/150/150
f 71/71/71 128/128/128 126/126/126
f 111/111/111 33/33/33 106/106/106
f 167/167/167 106/106/106 81/81/81
f 107/107/107 106/106/106 33/33/33
f 106/106/106 153/153/153 81/81/81
f 163/163/163 132/132/132 167/167/167
f 26/26/26 128/128/128 28/28/28
f 111/111/111 105/105/105 108/108/108
f 128/128/128 8/8/8 105/105/105
f 167/167/167 111/111/111 106/106/106
f 46/46/46 142/142/142 86/86/86
f 111/111/111 52/52/52 105/105/105
f 111/111/111 108/108/108 33/33/33
f 8/8/8 108/108/108 105/105/105
f 43/43/43 107/107/107 139/139/139
f 107/107/107 33/33/33 139/139/139
f 101/101/101 11/11/11 107/107/107
f 144/144/144 153/153/153 106/106/106
f 144/144/144 106/106/106 107/107/107
f 40/40/40 46/46/46 86/86/86
f 11/11/11 155/155/155 144/144/144
f 148/148/148 101/101/101 46/46/46
f 43/43/43 101/101/101 107/107/107
f 19/19/19 86/86/86 142/142/142
f 100/100/100 43/43/43 139/139/139
f 139/139/139 33/33/33 74/74/74
f 108/108/108 74/74/74 33/33/33
f 35/35/35 46/46/46 101/101/101
f 142/142/142 35/35/35 102/102/102
f 16/16/16 100/100/100 139/139/139
f 102/102/102 35/35/35 100/100/100
f 68/68/68 142/142/142 102/102/102
f 88/88/88 40/40/40 86/86/86
f 142/142/142 46/46/46 35/35/35
f 7/7/7 99/99/99 88/88/88
f 88/88/88 99/99/99 56/56/56
f 85/85/85 59/59/59 6/6/6
f 56/56/56 36/36/36 53/53/53
f 159/159/159 87/87/87 40/40/40
f 148/148/148 46/46/46 87/87/87
f 87/87/87 46/46/46 40/40/40
f 148/148/148 155/155/155 11/11/11
f 148/148/148 11/11/11 101/101/101
f 159/159/159 97/97/97 121/121/121
f 159/159/159 121/121/121 155/155/155
f 56/56/56 122/122/122 40/40/40
f 122/122/122 53/53/53 97/97/97
f 88/88/88 56/56/56 40/40/40
f 56/56/56 99/99/99 36/36/36
f 67/67/67 86/86/86 19/19/19
f 67/67/67 88/88/88 86/86/86
f 7/7/7 70/70/70 99/99/99
f 67/67/67 7/7/7 88/88/88
f 68/68/68 19/19/19 142/142/142
f 73/73/73 102/102/102 100/100/100
f 4/4/4 68/68/68 102/102/102
f 73/73/73 4/4/4 102/102/102
f 16/16/16 73/73/73 100/100/100
f 74/74/74 16/16/16 139/139/139
f 8/8/8 74/74/74 108/108/108
f 103/103/103 44/44/44 25/25/25
f 103/103/103 131/131/131 29/29/29
f 110/110/110 17/17/17 126/126/126
f 154/154/154 127/127/127 51/51/51
f 26/26/26 126/126/126 128/128/128
f 149/149/149 110/110/110 126/126/126
f 39/39/39 90/90/90 89/89/89
f 167/167/167 132/132/132 28/28/28
f 128/128/128 71/71/71 8/8/8
f 48/48/48 89/89/89 90/90/90
f 167/167/167 28/28/28 52/52/52
f 26/26/26 28/28/28 132/132/132
f 149/149/149 44/44/44 110/110/110
f 141/141/141 21/21/21 48/48/48
f 126/126/126 17/17/17 71/71/71
f 89/89/89 48/48/48 21/21/21
f 101/101/101 43/43/43 35/35/35
f 135/135/135 17/17/17 110/110/110
f 100/100/100 35/35/35 43/43/43
f 77/77/77 118/118/118 14/14/14
f 127/127/127 26/26/26 132/132/132
f 127/127/127 149/149/149 26/26/26
f 51/51/51 127/127/127 132/132/132
f 61/61/61 96/96/96 50/50/50
f 13/13/13 25/25/25 127/127/127
f 79/79/79 13/13/13 124/124/124
f 124/124/124 154/154/154 61/61/61
f 131/131/131 13/13/13 79/79/79
f 167/167/167 52/52/52 111/111/111
f 163/163/163 167/167/167 81/81/81
f 77/77/77 2/2/2 119/119/119
f 51/51/51 163/163/163 162/162/162
f 145/145/145 146/146/146 150/150/150
f 119/119/119 2/2/2 158/158/158
f 51/51/51 162/162/162 96/96/96
f 77/77/77 119/119/119 118/118/118
f 145/145/145 96/96/96 162/162/162
f 60/60/60 80/80/80 171/171/171
f 160/160/160 72/72/72 60/60/60
f 60/60/60 171/171/171 168/168/168
f 160/160/160 60/60/60 168/168/168
f 50/50/50 168/168/168 32/32/32
f 160/160/160 96/96/96 145/145/145
f 50/50/50 96/96/96 160/160/160
f 123/123/123 50/50/50 32/32/32
f 62/62/62 27/27/27 123/123/123
f 27/27/27 124/124/124 61/61/61
f 119/119/119 29/29/29 118/118/118
f 154/154/154 51/51/51 96/96/96
f 51/51/51 132/132/132 163/163/163
f 154/154/154 96/96/96 61/61/61
f 154/154/154 13/13/13 127/127/127
f 124/124/124 13/13/13 154/154/154
f 123/123/123 27/27/27 61/61/61
f 125/125/125 27/27/27 62/62/62
f 133/133/133 78/78/78 14/14/14
f 123/123/123 61/61/61 50/50/50
f 123/123/123 32/32/32 136/136/136
f 62/62/62 123/123/123 136/136/136
f 25/25/25 44/44/44 127/127/127
f 9/9/9 117/117/117 75/75/75
f 78/78/78 27/27/27 125/125/125
f 78/78/78 125/125/125 9/9/9
f 133/133/133 27/27/27 78/78/78
f 118/118/118 133/133/133 14/14/14
f 133/133/133 124/124/124 27/27/27
f 135/135/135 130/130/130 17/17/17
f 131/131/131 79/79/79 118/118/118
f 79/79/79 124/124/124 133/133/133
f 79/79/79 133/133/133 118/118/118
f 29/29/29 131/131/131 118/118/118
f 103/103/103 25/25/25 131/131/131
f 119/119/119 158/158/158 5/5/5
f 5/5/5 130/130/130 135/135/135
f 135/135/135 110/110/110 44/44/44
f 135/135/135 44/44/44 103/103/103
f 5/5/5 103/103/103 29/29/29
f 5/5/5 135/135/135 103/103/103
f 119/119/119 5/5/5 29/29/29
f 5/5/5 158/158/158 130/130/130
f 145/145/145 163/163/163 81/81/81
f 145/145/145 81/81/81 146/146/146
f 162/162/162 163/163/163 145/145/145
