# frame 001142 
# time 0.571500 
# name Cloth3D 
v -0.000000 0.000000 -0.000000
v 1.000000 0.000000 -0.000000
v -0.000000 1.000000 0.000000
v 1.000000 1.000000 0.000000
v 0.936880 0.125832 -0.001351
v -0.000000 0.500000 0.000000
v 0.500000 1.000000 0.000000
v 1.000000 0.500000 0.000000
v 0.500000 -0.000000 0.000000
v 0.240821 0.758605 0.102335
v 0.757042 0.755127 0.092436
v 0.248212 0.251801 0.058268
v 0.750711 0.253424 0.046113
v 0.750000 0.000000 0.000000
v 0.250000 0.000000 0.000000
v 1.000000 0.750000 0.000000
v 1.000000 0.250000 0.000000
v 0.250000 1.000000 0.000000
v 0.750000 1.000000 0.000000
v 0.000000 0.250000 0.000000
v 0.000000 0.750000 -0.000000
v 0.364681 0.222872 0.059656
v 0.059640 0.876751 0.021573
v 0.235407 0.519743 0.112174
v 0.812785 0.253412 0.032797
v 0.879674 0.376899 0.046838
v 0.624822 0.126646 0.031534
v 0.881368 0.439774 0.055126
v 0.874128 0.126806 0.004601
v 0.374821 0.126698 0.033410
v 0.124054 0.124768 0.024917
v 0.492483 0.253752 0.071946
v 0.884122 0.627391 0.064888
v 0.122860 0.940527 0.022567
v 0.876629 0.876534 0.028805
v 0.372505 0.883408 0.069194
v 0.248162 0.605992 0.133362
v 0.120391 0.879213 0.039801
v 0.117932 0.628099 0.063275
v 0.626193 0.880568 0.062797
v 0.122583 0.377775 0.041954
v 0.249606 0.125108 0.032727
v 0.878157 0.751177 0.045836
v 0.875138 0.252331 0.022073
v 0.246649 0.879318 0.052645
v 0.751663 0.878061 0.048036
v 0.124380 0.251776 0.029179
v 0.116429 0.754136 0.060645
v 0.308512 0.600912 0.169631
v 0.583560 0.308395 0.084513
v 0.062500 1.000000 0.000000
v 0.883036 0.502489 0.061393
v 0.432713 0.784465 0.124202
v 0.242051 0.460617 0.094668
v 0.000000 0.375000 0.000000
v 0.499809 0.883606 0.072006
v 0.500614 0.635062 0.175470
v 0.247183 0.379934 0.074987
v 0.117297 0.502471 0.061455
v 0.521508 0.419645 0.115212
v 0.626142 0.253245 0.065089
v 0.499852 0.126709 0.034889
v 0.496891 0.619344 0.180522
v 0.000000 0.625000 0.000000
v 0.648463 0.531572 0.150150
v 0.444752 0.539724 0.152309
v 0.625000 1.000000 0.000000
v 0.875000 1.000000 0.000000
v 0.125000 1.000000 0.000000
v 0.375000 1.000000 0.000000
v 1.000000 0.375000 0.000000
v 0.568627 0.466930 0.128846
v 1.000000 0.875000 0.000000
v 1.000000 0.625000 0.000000
v 0.375000 0.000000 0.000000
v 0.125000 0.000000 0.000000
v 0.875000 0.000000 0.000000
v 0.625000 0.000000 0.000000
v 0.749383 0.127197 0.018856
v 0.473431 0.485129 0.132461
v 0.774340 0.520566 0.117852
v 0.061088 0.313679 0.020492
v 0.182269 0.441640 0.072022
v 0.185742 0.315680 0.050710
v 0.058596 0.438807 0.029312
v 0.687496 0.938744 0.026344
v 0.691444 0.819166 0.084634
v 0.562579 0.942156 0.036291
v 0.057914 0.689101 0.032671
v 0.176534 0.693298 0.092663
v 0.060027 0.564050 0.029092
v 0.185929 0.939393 0.023021
v 0.180348 0.818865 0.068959
v 0.060903 0.938995 0.013570
v 0.392124 0.492286 0.134808
v 0.675971 0.362291 0.093421
v 0.507483 0.737488 0.143706
v 0.306841 0.822720 0.093453
v 0.436857 0.943418 0.038634
v 0.938723 0.812813 0.019542
v 0.815882 0.815201 0.055766
v 0.937303 0.937337 0.004694
v 0.874261 0.189759 0.011447
v 0.576463 0.848272 0.086231
v 0.942614 0.501251 0.032800
v 0.835326 0.595256 0.101069
v 0.822183 0.691129 0.087375
v 0.941602 0.625972 0.031426
v 0.309193 0.710293 0.134712
v 0.817910 0.752811 0.069514
v 0.885348 0.565064 0.067607
v 0.187311 0.062327 0.015296
v 0.061876 0.062054 0.011472
v 0.186469 0.188302 0.038349
v 0.312499 0.062543 0.018319
v 0.311747 0.188672 0.051078
v 0.437408 0.064321 0.013763
v 0.811906 0.063693 0.004379
v 0.937198 0.063017 0.004208
v -0.000000 0.937500 0.000000
v 0.594764 0.686518 0.157642
v 0.525576 0.815308 0.107460
v 0.562837 0.188929 0.055420
v 0.688026 0.189437 0.044055
v 0.562313 0.063042 0.017880
v 0.938500 0.313775 0.017184
v 0.814810 0.315829 0.048315
v 0.942141 0.438640 0.030814
v 0.311370 0.940348 0.030301
v 0.719867 0.525358 0.141917
v 0.811929 0.190376 0.021548
v 0.806211 0.375137 0.068928
v 0.687165 0.063324 0.013465
v 0.398860 0.381684 0.103864
v 0.936862 0.188654 0.004010
v 0.437307 0.190416 0.051583
v 0.061945 0.187961 0.014864
v 0.374606 0.781080 0.121975
v 0.939819 0.688038 0.026589
v 0.320416 0.455718 0.115038
v 0.059643 0.814095 0.024396
v 0.812719 0.938619 0.019974
v 0.175618 0.566263 0.096549
v 0.781238 0.654054 0.121156
v 0.674605 0.473147 0.127049
v 0.719479 0.620222 0.180695
v 0.319687 0.618541 0.180698
v 0.724217 0.777853 0.093583
v 0.359126 0.546227 0.153785
v 0.619808 0.619850 0.180566
v 0.184061 0.378580 0.061722
v 0.294276 0.336087 0.079416
v 0.736320 0.616823 0.168589
v 0.716460 0.303595 0.070344
v 0.682191 0.677719 0.151320
v 0.329829 0.279917 0.069057
v 0.268575 0.665182 0.136449
v 0.533833 0.522573 0.145319
v 0.616246 0.780606 0.115394
v 0.598362 0.372205 0.100324
v 0.414560 0.618998 0.180519
v 0.720775 0.427182 0.103027
v -0.000000 0.062500 -0.000000
v 0.122580 0.314375 0.039024
v 0.417837 0.259772 0.073402
v 0.062407 0.125064 0.011104
v 0.822634 0.485305 0.087452
v 0.478182 0.367349 0.103211
v 0.178299 0.629559 0.092050
v 0.407558 0.672321 0.165059
v -0.000000 0.875000 -0.000000
v 0.000000 0.812500 -0.000000
v 0.880491 0.689257 0.055473
v 1.000000 0.562500 0.000000
v 1.000000 0.125000 -0.000000
v -0.000000 0.562500 0.000000
v 0.320085 0.506149 0.134731
v 0.000000 0.187500 0.000000
vt 0.000000 0.000000
vt 1.000000 0.000000
vt 0.000000 1.000000
vt 1.000000 1.000000
vt 0.937500 0.125000
vt 0.000000 0.500000
vt 0.500000 1.000000
vt 1.000000 0.500000
vt 0.500000 0.000000
vt 0.250000 0.750000
vt 0.750000 0.750000
vt 0.250000 0.250000
vt 0.750000 0.250000
vt 0.750000 0.000000
vt 0.250000 0.000000
vt 1.000000 0.750000
vt 1.000000 0.250000
vt 0.250000 1.000000
vt 0.750000 1.000000
vt 0.000000 0.250000
vt 0.000000 0.750000
vt 0.365347 0.220303
vt 0.062500 0.875000
vt 0.245672 0.515386
vt 0.812500 0.250000
vt 0.875000 0.375000
vt 0.625000 0.125000
vt 0.875000 0.437500
vt 0.875000 0.125000
vt 0.375000 0.125000
vt 0.125000 0.125000
vt 0.492214 0.250470
vt 0.875000 0.625000
vt 0.125000 0.937500
vt 0.875000 0.875000
vt 0.375000 0.875000
vt 0.262101 0.599801
vt 0.125000 0.875000
vt 0.125000 0.625000
vt 0.625000 0.875000
vt 0.125000 0.375000
vt 0.250000 0.125000
vt 0.875000 0.750000
vt 0.875000 0.250000
vt 0.250000 0.875000
vt 0.750000 0.875000
vt 0.125000 0.250000
vt 0.125000 0.750000
vt 0.325445 0.593646
vt 0.581754 0.304126
vt 0.062500 1.000000
vt 0.875000 0.500000
vt 0.435664 0.771773
vt 0.248222 0.455442
vt 0.000000 0.375000
vt 0.500000 0.875000
vt 0.500000 0.625000
vt 0.250000 0.375000
vt 0.125000 0.500000
vt 0.519707 0.411902
vt 0.625000 0.250000
vt 0.500000 0.125000
vt 0.496514 0.609429
vt 0.000000 0.625000
vt 0.636517 0.523144
vt 0.447814 0.530275
vt 0.625000 1.000000
vt 0.875000 1.000000
vt 0.125000 1.000000
vt 0.375000 1.000000
vt 1.000000 0.375000
vt 0.564051 0.458319
vt 1.000000 0.875000
vt 1.000000 0.625000
vt 0.375000 0.000000
vt 0.125000 0.000000
vt 0.875000 0.000000
vt 0.625000 0.000000
vt 0.750000 0.125000
vt 0.473805 0.475426
vt 0.760524 0.515669
vt 0.062500 0.312500
vt 0.187500 0.437500
vt 0.187500 0.312500
vt 0.062500 0.437500
vt 0.687500 0.937500
vt 0.687500 0.812500
vt 0.562500 0.937500
vt 0.062500 0.687500
vt 0.187500 0.687500
vt 0.062500 0.562500
vt 0.187500 0.937500
vt 0.187500 0.812500
vt 0.062500 0.937500
vt 0.396781 0.484194
vt 0.671367 0.358455
vt 0.506884 0.725192
vt 0.312500 0.812500
vt 0.437500 0.937500
vt 0.937500 0.812500
vt 0.812500 0.812500
vt 0.937500 0.937500
vt 0.875000 0.187500
vt 0.575008 0.839595
vt 0.937500 0.500000
vt 0.819332 0.591237
vt 0.812500 0.687500
vt 0.937500 0.625000
vt 0.319123 0.700934
vt 0.812500 0.750000
vt 0.875000 0.562500
vt 0.187500 0.062500
vt 0.062500 0.062500
vt 0.187500 0.187500
vt 0.312500 0.062500
vt 0.312500 0.187500
vt 0.437500 0.062500
vt 0.812500 0.062500
vt 0.937500 0.062500
vt 0.000000 0.937500
vt 0.587160 0.675778
vt 0.525016 0.804189
vt 0.562500 0.187500
vt 0.687500 0.187500
vt 0.562500 0.062500
vt 0.937500 0.312500
vt 0.812500 0.312500
vt 0.937500 0.437500
vt 0.312500 0.937500
vt 0.704327 0.519874
vt 0.812500 0.187500
vt 0.800716 0.372483
vt 0.687500 0.062500
vt 0.400647 0.375957
vt 0.937500 0.187500
vt 0.437500 0.187500
vt 0.062500 0.187500
vt 0.380019 0.768564
vt 0.937500 0.687500
vt 0.326037 0.449751
vt 0.062500 0.812500
vt 0.812500 0.937500
vt 0.187500 0.562500
vt 0.765906 0.648544
vt 0.665088 0.466564
vt 0.693749 0.608588
vt 0.338033 0.610125
vt 0.718294 0.771897
vt 0.368720 0.538399
vt 0.607778 0.609853
vt 0.187500 0.375000
vt 0.296906 0.332149
vt 0.711873 0.607167
vt 0.713437 0.300753
vt 0.668274 0.669022
vt 0.331126 0.276226
vt 0.281585 0.657008
vt 0.530429 0.512451
vt 0.611736 0.771102
vt 0.595175 0.366343
vt 0.421834 0.609501
vt 0.713353 0.422290
vt 0.000000 0.062500
vt 0.125000 0.312500
vt 0.418341 0.256674
vt 0.062500 0.125000
vt 0.812755 0.481587
vt 0.477835 0.361491
vt 0.187500 0.625000
vt 0.414679 0.661630
vt 0.000000 0.875000
vt 0.000000 0.812500
vt 0.875000 0.687500
vt 1.000000 0.562500
vt 1.000000 0.125000
vt 0.000000 0.562500
vt 0.328643 0.500633
vt 0.000000 0.187500
vn -0.124321 -0.062160 0.990293
vn 0.036781 -0.036781 0.998646
vn 0.000000 0.000000 1.000000
vn 0.034034 0.034034 0.998841
vn 0.039892 0.000607 0.999204
vn -0.442186 0.002497 0.896920
vn 0.009030 0.545097 0.838324
vn 0.494313 -0.008451 0.869243
vn -0.017634 -0.241165 0.970324
vn -0.261957 0.270874 0.926286
vn 0.304010 0.315269 0.898990
vn -0.136545 -0.160114 0.977609
vn 0.220111 -0.241534 0.945099
vn 0.036333 -0.140511 0.989412
vn -0.010029 -0.254367 0.967056
vn 0.352035 0.025349 0.935643
vn 0.170670 -0.050586 0.984029
vn -0.028270 0.400862 0.915702
vn 0.022516 0.354319 0.934853
vn -0.264704 -0.017408 0.964173
vn -0.433643 0.025043 0.900737
vn -0.041583 -0.242264 0.969319
vn -0.303694 0.063817 0.950630
vn -0.334819 -0.247459 0.909208
vn 0.184034 -0.208624 0.960525
vn 0.306180 -0.168221 0.936993
vn 0.061537 -0.260412 0.963535
vn 0.362568 -0.127700 0.923167
vn 0.092856 -0.060227 0.993856
vn 0.015701 -0.263966 0.964404
vn -0.139614 -0.092054 0.985918
vn -0.006956 -0.273646 0.961805
vn 0.514685 0.107557 0.850606
vn -0.069476 0.312194 0.947474
vn 0.206029 0.200539 0.957777
vn -0.075564 0.477209 0.875535
vn -0.484825 0.028115 0.874159
vn -0.197186 0.206810 0.958304
vn -0.460887 0.007160 0.887430
vn 0.105080 0.458642 0.882386
vn -0.307507 -0.085674 0.947681
vn -0.057474 -0.220649 0.973658
vn 0.385149 0.165781 0.907842
vn 0.168494 -0.171371 0.970691
vn -0.116682 0.418146 0.900855
vn 0.135805 0.363429 0.921670
vn -0.218252 -0.098315 0.970927
vn -0.395362 0.111426 0.911742
vn -0.546869 -0.124792 0.827866
vn 0.054483 -0.259608 0.964176
vn -0.054874 0.164622 0.984829
vn 0.415927 -0.092640 0.904667
vn -0.030997 0.411073 0.911075
vn -0.265789 -0.283168 0.921505
vn -0.353980 -0.035491 0.934579
vn 0.023480 0.479252 0.877363
vn 0.000937 0.303777 0.952743
vn -0.237350 -0.189977 0.952667
vn -0.423118 -0.094404 0.901143
vn 0.011830 -0.258816 0.965854
vn 0.092076 -0.257251 0.961948
vn -0.021055 -0.286024 0.957991
vn -0.000721 0.194689 0.980865
vn -0.462151 -0.012038 0.886720
vn 0.039090 -0.342286 0.938782
vn -0.000878 -0.340485 0.940249
vn 0.039654 0.464097 0.884896
vn 0.062946 0.192169 0.979341
vn -0.038192 0.316994 0.947658
vn -0.032122 0.507843 0.860851
vn 0.366407 -0.055141 0.928819
vn -0.002333 -0.291695 0.956509
vn 0.188145 0.060897 0.980252
vn 0.462953 0.024327 0.886049
vn 0.017760 -0.247886 0.968626
vn -0.013596 -0.205734 0.978514
vn -0.000924 -0.071506 0.997440
vn 0.016610 -0.242956 0.969895
vn 0.115732 -0.185460 0.975813
vn -0.002314 -0.306308 0.951930
vn 0.393141 -0.276350 0.876967
vn -0.290347 -0.052458 0.955482
vn -0.283208 -0.207399 0.936365
vn -0.200058 -0.147955 0.968548
vn -0.392493 -0.071483 0.916973
vn 0.059580 0.416658 0.907109
vn 0.169027 0.387385 0.906291
vn 0.045012 0.497173 0.866483
vn -0.469078 0.009595 0.883104
vn -0.405686 0.072503 0.911132
vn -0.464814 -0.009198 0.885360
vn -0.026705 0.346273 0.937754
vn -0.225663 0.276116 0.934257
vn -0.183577 0.206545 0.961061
vn -0.040548 -0.332951 0.942072
vn 0.115042 -0.276369 0.954141
vn 0.029830 0.366807 0.929819
vn -0.150762 0.411805 0.898714
vn -0.017442 0.514912 0.857066
vn 0.293344 0.076245 0.952962
vn 0.277315 0.239787 0.930376
vn 0.106748 0.105708 0.988651
vn 0.132932 -0.135959 0.981756
vn 0.086971 0.461561 0.882835
vn 0.471152 -0.032971 0.881436
vn 0.531074 0.026756 0.846903
vn 0.436595 0.236595 0.867991
vn 0.482808 0.072805 0.872695
vn -0.237259 0.337792 0.910826
vn 0.353470 0.248701 0.901780
vn 0.499455 -0.032925 0.865714
vn -0.027068 -0.217905 0.975594
vn -0.134055 -0.058980 0.989217
vn -0.141858 -0.127219 0.981678
vn -0.001675 -0.258265 0.966073
vn -0.032767 -0.222737 0.974328
vn -0.000446 -0.254287 0.967129
vn 0.045819 -0.092553 0.994653
vn 0.029856 0.014886 0.999443
vn -0.196201 0.085671 0.976814
vn 0.066539 0.355635 0.932253
vn 0.052591 0.446976 0.892999
vn 0.033695 -0.278132 0.959952
vn 0.127217 -0.252349 0.959237
vn 0.005640 -0.256171 0.966615
vn 0.261231 -0.099210 0.960164
vn 0.230984 -0.255060 0.938931
vn 0.418650 -0.068857 0.905533
vn -0.064572 0.454776 0.888262
vn 0.223535 -0.347452 0.910664
vn 0.163045 -0.165959 0.972560
vn 0.271925 -0.241162 0.931610
vn 0.052629 -0.195979 0.979195
vn -0.070586 -0.256429 0.963982
vn 0.091945 -0.090971 0.991600
vn -0.020852 -0.287659 0.957506
vn -0.224498 -0.041657 0.973584
vn -0.106012 0.390655 0.914412
vn 0.429643 0.079570 0.899486
vn -0.173939 -0.321439 0.930818
vn -0.380836 0.066132 0.922275
vn 0.079487 0.298717 0.951026
vn -0.435396 -0.035949 0.899521
vn 0.470473 0.310006 0.826167
vn 0.091535 -0.333632 0.938249
vn 0.500254 0.233129 0.833904
vn -0.452822 -0.063196 0.889358
vn 0.236050 0.355881 0.904229
vn -0.038534 -0.360169 0.932091
vn 0.026145 0.099937 0.994650
vn -0.234505 -0.151347 0.960261
vn -0.167229 -0.202778 0.964840
vn 0.561662 0.200410 0.802727
vn 0.187516 -0.276980 0.942401
vn 0.186531 0.445522 0.875623
vn -0.078076 -0.218388 0.972734
vn -0.421248 0.210546 0.882168
vn -0.009055 -0.318567 0.947857
vn 0.120293 0.418246 0.900333
vn 0.037896 -0.261938 0.964340
vn 0.000673 0.011020 0.999939
vn 0.219290 -0.288958 0.931888
vn -0.183656 0.003110 0.982986
vn -0.252751 -0.117943 0.960316
vn -0.043619 -0.275962 0.960178
vn -0.214030 -0.020416 0.976614
vn 0.386947 -0.178552 0.904650
vn -0.000321 -0.247925 0.968779
vn -0.448041 0.041516 0.893048
vn -0.032825 0.317301 0.947756
vn -0.334469 -0.000000 0.942407
vn -0.366705 0.011221 0.930269
vn 0.469814 0.146839 0.870467
vn 0.492913 0.004368 0.870067
vn 0.010885 0.002149 0.999938
vn -0.437733 0.000000 0.899105
vn -0.150309 -0.363755 0.919288
vn -0.223158 -0.016634 0.974640
f 1/1/1 113/113/113 163/163/163
f 127/127/127 126/126/126 26/26/26
f 140/140/140 152/152/152 134/134/134
f 166/166/166 163/163/163 113/113/113
f 84/84/84 152/152/152 58/58/58
f 166/166/166 178/178/178 163/163/163
f 166/166/166 137/137/137 178/178/178
f 112/112/112 114/114/114 31/31/31
f 147/147/147 49/49/49 177/177/177
f 42/42/42 114/114/114 112/112/112
f 31/31/31 166/166/166 113/113/113
f 116/116/116 115/115/115 30/30/30
f 31/31/31 137/137/137 166/166/166
f 134/134/134 156/156/156 165/165/165
f 128/128/128 8/8/8 105/105/105
f 76/76/76 113/113/113 1/1/1
f 127/127/127 44/44/44 126/126/126
f 15/15/15 112/112/112 76/76/76
f 177/177/177 54/54/54 140/140/140
f 75/75/75 115/115/115 15/15/15
f 116/116/116 12/12/12 42/42/42
f 136/136/136 30/30/30 117/117/117
f 125/125/125 133/133/133 27/27/27
f 22/22/22 30/30/30 136/136/136
f 114/114/114 42/42/42 12/12/12
f 32/32/32 165/165/165 136/136/136
f 22/22/22 136/136/136 165/165/165
f 156/156/156 152/152/152 12/12/12
f 156/156/156 116/116/116 22/22/22
f 177/177/177 149/149/149 147/147/147
f 116/116/116 30/30/30 22/22/22
f 54/54/54 58/58/58 140/140/140
f 42/42/42 115/115/115 116/116/116
f 156/156/156 12/12/12 116/116/116
f 164/164/164 151/151/151 41/41/41
f 66/66/66 158/158/158 63/63/63
f 140/140/140 134/134/134 95/95/95
f 156/156/156 22/22/22 165/165/165
f 134/134/134 165/165/165 168/168/168
f 41/41/41 151/151/151 83/83/83
f 128/128/128 71/71/71 8/8/8
f 26/26/26 128/128/128 28/28/28
f 60/60/60 160/160/160 72/72/72
f 168/168/168 165/165/165 32/32/32
f 80/80/80 134/134/134 168/168/168
f 134/134/134 152/152/152 156/156/156
f 157/157/157 169/169/169 37/37/37
f 95/95/95 134/134/134 80/80/80
f 138/138/138 53/53/53 36/36/36
f 131/131/131 79/79/79 29/29/29
f 49/49/49 24/24/24 177/177/177
f 118/118/118 29/29/29 79/79/79
f 84/84/84 58/58/58 151/151/151
f 77/77/77 2/2/2 119/119/119
f 77/77/77 119/119/119 118/118/118
f 119/119/119 29/29/29 118/118/118
f 24/24/24 59/59/59 83/83/83
f 83/83/83 58/58/58 54/54/54
f 85/85/85 55/55/55 41/41/41
f 83/83/83 151/151/151 58/58/58
f 85/85/85 41/41/41 83/83/83
f 82/82/82 137/137/137 47/47/47
f 113/113/113 76/76/76 31/31/31
f 84/84/84 12/12/12 152/152/152
f 25/25/25 44/44/44 127/127/127
f 112/112/112 31/31/31 76/76/76
f 164/164/164 47/47/47 84/84/84
f 164/164/164 84/84/84 151/151/151
f 82/82/82 164/164/164 41/41/41
f 82/82/82 47/47/47 164/164/164
f 55/55/55 82/82/82 41/41/41
f 20/20/20 137/137/137 82/82/82
f 20/20/20 178/178/178 137/137/137
f 55/55/55 20/20/20 82/82/82
f 37/37/37 24/24/24 49/49/49
f 120/120/120 51/51/51 3/3/3
f 115/115/115 75/75/75 30/30/30
f 141/141/141 38/38/38 23/23/23
f 119/119/119 175/175/175 5/5/5
f 45/45/45 98/98/98 36/36/36
f 34/34/34 92/92/92 69/69/69
f 48/48/48 89/89/89 90/90/90
f 92/92/92 18/18/18 69/69/69
f 34/34/34 94/94/94 38/38/38
f 23/23/23 38/38/38 94/94/94
f 109/109/109 157/157/157 147/147/147
f 161/161/161 147/147/147 149/149/149
f 121/121/121 97/97/97 57/57/57
f 56/56/56 53/53/53 122/122/122
f 98/98/98 138/138/138 36/36/36
f 129/129/129 45/45/45 36/36/36
f 109/109/109 98/98/98 10/10/10
f 105/105/105 174/174/174 111/111/111
f 93/93/93 38/38/38 48/48/48
f 92/92/92 45/45/45 18/18/18
f 36/36/36 99/99/99 129/129/129
f 129/129/129 70/70/70 18/18/18
f 129/129/129 18/18/18 45/45/45
f 34/34/34 38/38/38 92/92/92
f 70/70/70 129/129/129 99/99/99
f 94/94/94 69/69/69 51/51/51
f 94/94/94 34/34/34 69/69/69
f 120/120/120 94/94/94 51/51/51
f 23/23/23 120/120/120 171/171/171
f 172/172/172 23/23/23 171/171/171
f 48/48/48 141/141/141 21/21/21
f 39/39/39 90/90/90 89/89/89
f 23/23/23 94/94/94 120/120/120
f 172/172/172 141/141/141 23/23/23
f 21/21/21 141/141/141 172/172/172
f 39/39/39 169/169/169 90/90/90
f 84/84/84 114/114/114 12/12/12
f 48/48/48 90/90/90 10/10/10
f 48/48/48 38/38/38 141/141/141
f 93/93/93 48/48/48 10/10/10
f 108/108/108 111/111/111 174/174/174
f 177/177/177 140/140/140 95/95/95
f 149/149/149 177/177/177 95/95/95
f 117/117/117 30/30/30 75/75/75
f 143/143/143 39/39/39 59/59/59
f 89/89/89 48/48/48 21/21/21
f 59/59/59 85/85/85 83/83/83
f 64/64/64 89/89/89 21/21/21
f 47/47/47 114/114/114 84/84/84
f 6/6/6 91/91/91 176/176/176
f 135/135/135 44/44/44 103/103/103
f 5/5/5 175/175/175 135/135/135
f 59/59/59 91/91/91 85/85/85
f 5/5/5 103/103/103 29/29/29
f 6/6/6 85/85/85 91/91/91
f 6/6/6 55/55/55 85/85/85
f 24/24/24 83/83/83 54/54/54
f 59/59/59 39/39/39 91/91/91
f 24/24/24 143/143/143 59/59/59
f 143/143/143 169/169/169 39/39/39
f 24/24/24 54/54/54 177/177/177
f 66/66/66 161/161/161 149/149/149
f 157/157/157 37/37/37 49/49/49
f 157/157/157 90/90/90 169/169/169
f 157/157/157 49/49/49 147/147/147
f 66/66/66 63/63/63 161/161/161
f 170/170/170 138/138/138 109/109/109
f 37/37/37 169/169/169 143/143/143
f 37/37/37 143/143/143 24/24/24
f 170/170/170 109/109/109 147/147/147
f 157/157/157 10/10/10 90/90/90
f 109/109/109 138/138/138 98/98/98
f 109/109/109 10/10/10 157/157/157
f 57/57/57 161/161/161 63/63/63
f 170/170/170 53/53/53 138/138/138
f 153/153/153 155/155/155 146/146/146
f 57/57/57 170/170/170 161/161/161
f 161/161/161 170/170/170 147/147/147
f 66/66/66 149/149/149 95/95/95
f 66/66/66 95/95/95 80/80/80
f 66/66/66 80/80/80 158/158/158
f 154/154/154 132/132/132 162/162/162
f 50/50/50 168/168/168 32/32/32
f 121/121/121 57/57/57 150/150/150
f 122/122/122 159/159/159 104/104/104
f 88/88/88 99/99/99 56/56/56
f 33/33/33 106/106/106 111/111/111
f 150/150/150 63/63/63 158/158/158
f 65/65/65 146/146/146 150/150/150
f 97/97/97 170/170/170 57/57/57
f 57/57/57 63/63/63 150/150/150
f 159/159/159 121/121/121 155/155/155
f 97/97/97 53/53/53 170/170/170
f 155/155/155 121/121/121 150/150/150
f 148/148/148 87/87/87 159/159/159
f 146/146/146 155/155/155 150/150/150
f 11/11/11 155/155/155 144/144/144
f 65/65/65 150/150/150 158/158/158
f 130/130/130 146/146/146 65/65/65
f 106/106/106 153/153/153 81/81/81
f 144/144/144 155/155/155 153/153/153
f 60/60/60 72/72/72 80/80/80
f 72/72/72 145/145/145 65/65/65
f 154/154/154 162/162/162 96/96/96
f 130/130/130 153/153/153 146/146/146
f 167/167/167 106/106/106 81/81/81
f 81/81/81 153/153/153 130/130/130
f 111/111/111 52/52/52 105/105/105
f 107/107/107 106/106/106 33/33/33
f 78/78/78 125/125/125 9/9/9
f 38/38/38 93/93/93 92/92/92
f 112/112/112 15/15/15 42/42/42
f 108/108/108 33/33/33 111/111/111
f 167/167/167 111/111/111 106/106/106
f 115/115/115 42/42/42 15/15/15
f 107/107/107 33/33/33 173/173/173
f 139/139/139 108/108/108 74/74/74
f 173/173/173 108/108/108 139/139/139
f 43/43/43 173/173/173 139/139/139
f 43/43/43 110/110/110 107/107/107
f 43/43/43 107/107/107 173/173/173
f 173/173/173 33/33/33 108/108/108
f 11/11/11 144/144/144 107/107/107
f 11/11/11 107/107/107 110/110/110
f 144/144/144 153/153/153 106/106/106
f 144/144/144 106/106/106 107/107/107
f 101/101/101 11/11/11 110/110/110
f 148/148/148 101/101/101 46/46/46
f 142/142/142 101/101/101 35/35/35
f 88/88/88 56/56/56 104/104/104
f 159/159/159 97/97/97 121/121/121
f 43/43/43 101/101/101 110/110/110
f 16/16/16 139/139/139 74/74/74
f 100/100/100 43/43/43 139/139/139
f 28/28/28 128/128/128 52/52/52
f 105/105/105 52/52/52 128/128/128
f 86/86/86 46/46/46 142/142/142
f 16/16/16 100/100/100 139/139/139
f 102/102/102 35/35/35 100/100/100
f 68/68/68 142/142/142 102/102/102
f 91/91/91 39/39/39 64/64/64
f 142/142/142 35/35/35 102/102/102
f 64/64/64 39/39/39 89/89/89
f 46/46/46 101/101/101 142/142/142
f 19/19/19 86/86/86 142/142/142
f 88/88/88 40/40/40 86/86/86
f 56/56/56 36/36/36 53/53/53
f 87/87/87 40/40/40 159/159/159
f 148/148/148 159/159/159 155/155/155
f 148/148/148 46/46/46 87/87/87
f 148/148/148 155/155/155 11/11/11
f 148/148/148 11/11/11 101/101/101
f 56/56/56 122/122/122 104/104/104
f 104/104/104 159/159/159 40/40/40
f 122/122/122 53/53/53 97/97/97
f 122/122/122 97/97/97 159/159/159
f 88/88/88 104/104/104 40/40/40
f 56/56/56 99/99/99 36/36/36
f 67/67/67 88/88/88 86/86/86
f 7/7/7 99/99/99 88/88/88
f 7/7/7 70/70/70 99/99/99
f 67/67/67 7/7/7 88/88/88
f 19/19/19 67/67/67 86/86/86
f 68/68/68 19/19/19 142/142/142
f 73/73/73 102/102/102 100/100/100
f 4/4/4 68/68/68 102/102/102
f 73/73/73 4/4/4 102/102/102
f 16/16/16 73/73/73 100/100/100
f 145/145/145 162/162/162 130/130/130
f 137/137/137 31/31/31 47/47/47
f 45/45/45 92/92/92 93/93/93
f 101/101/101 43/43/43 35/35/35
f 174/174/174 74/74/74 108/108/108
f 8/8/8 174/174/174 105/105/105
f 118/118/118 133/133/133 14/14/14
f 131/131/131 25/25/25 13/13/13
f 103/103/103 131/131/131 29/29/29
f 135/135/135 175/175/175 17/17/17
f 10/10/10 98/98/98 93/93/93
f 45/45/45 93/93/93 98/98/98
f 114/114/114 47/47/47 31/31/31
f 26/26/26 71/71/71 128/128/128
f 167/167/167 28/28/28 52/52/52
f 162/162/162 132/132/132 167/167/167
f 132/132/132 127/127/127 26/26/26
f 140/140/140 58/58/58 152/152/152
f 126/126/126 17/17/17 71/71/71
f 126/126/126 71/71/71 26/26/26
f 132/132/132 26/26/26 28/28/28
f 119/119/119 2/2/2 175/175/175
f 96/96/96 50/50/50 61/61/61
f 100/100/100 35/35/35 43/43/43
f 13/13/13 25/25/25 127/127/127
f 46/46/46 86/86/86 87/87/87
f 13/13/13 124/124/124 131/131/131
f 123/123/123 50/50/50 32/32/32
f 167/167/167 132/132/132 28/28/28
f 162/162/162 81/81/81 130/130/130
f 167/167/167 52/52/52 111/111/111
f 162/162/162 167/167/167 81/81/81
f 145/145/145 130/130/130 65/65/65
f 124/124/124 154/154/154 61/61/61
f 72/72/72 65/65/65 158/158/158
f 96/96/96 145/145/145 160/160/160
f 72/72/72 158/158/158 80/80/80
f 72/72/72 160/160/160 145/145/145
f 60/60/60 80/80/80 168/168/168
f 60/60/60 168/168/168 160/160/160
f 125/125/125 27/27/27 62/62/62
f 77/77/77 118/118/118 14/14/14
f 50/50/50 160/160/160 168/168/168
f 62/62/62 27/27/27 123/123/123
f 79/79/79 131/131/131 124/124/124
f 154/154/154 96/96/96 61/61/61
f 96/96/96 162/162/162 145/145/145
f 96/96/96 160/160/160 50/50/50
f 154/154/154 13/13/13 127/127/127
f 154/154/154 127/127/127 132/132/132
f 40/40/40 87/87/87 86/86/86
f 124/124/124 13/13/13 154/154/154
f 125/125/125 62/62/62 117/117/117
f 61/61/61 123/123/123 124/124/124
f 123/123/123 61/61/61 50/50/50
f 123/123/123 32/32/32 136/136/136
f 62/62/62 123/123/123 136/136/136
f 62/62/62 136/136/136 117/117/117
f 9/9/9 117/117/117 75/75/75
f 9/9/9 125/125/125 117/117/117
f 78/78/78 133/133/133 125/125/125
f 14/14/14 133/133/133 78/78/78
f 5/5/5 135/135/135 103/103/103
f 124/124/124 27/27/27 79/79/79
f 103/103/103 44/44/44 131/131/131
f 27/27/27 124/124/124 123/123/123
f 79/79/79 133/133/133 118/118/118
f 25/25/25 131/131/131 44/44/44
f 133/133/133 79/79/79 27/27/27
f 119/119/119 5/5/5 29/29/29
f 176/176/176 91/91/91 64/64/64
f 126/126/126 44/44/44 17/17/17
f 135/135/135 17/17/17 44/44/44
