# frame 001138 
# time 0.569500 
# name Cloth3D 
v -0.000000 0.000000 -0.000000
v 1.000000 0.000000 -0.000000
v -0.000000 1.000000 0.000000
v 1.000000 1.000000 0.000000
v 0.936894 0.125811 -0.000796
v -0.000000 0.500000 0.000000
v 0.500000 1.000000 0.000000
v 1.000000 0.500000 0.000000
v 0.500000 -0.000000 0.000000
v 0.240884 0.758153 0.100662
v 0.757228 0.755053 0.092219
v 0.248270 0.252123 0.057812
v 0.750898 0.253499 0.047446
v 0.750000 0.000000 0.000000
v 0.250000 0.000000 0.000000
v 1.000000 0.750000 0.000000
v 1.000000 0.250000 0.000000
v 0.250000 1.000000 0.000000
v 0.750000 1.000000 0.000000
v 0.000000 0.250000 0.000000
v 0.000000 0.750000 -0.000000
v 0.364788 0.223346 0.059135
v 0.060051 0.876660 0.019982
v 0.234980 0.519756 0.112989
v 0.813007 0.253368 0.034269
v 0.879919 0.377046 0.047606
v 0.625066 0.126426 0.033214
v 0.881638 0.439946 0.055885
v 0.874209 0.126839 0.005533
v 0.375023 0.127009 0.033014
v 0.123849 0.124525 0.026706
v 0.492453 0.253950 0.072767
v 0.883882 0.627669 0.064509
v 0.122920 0.940582 0.022667
v 0.877099 0.877103 0.029989
v 0.372557 0.882456 0.067026
v 0.248169 0.606026 0.133218
v 0.120588 0.878945 0.038345
v 0.117260 0.628035 0.063992
v 0.626148 0.880205 0.062176
v 0.122073 0.377855 0.043106
v 0.249669 0.125480 0.031767
v 0.878539 0.751636 0.046592
v 0.875262 0.252397 0.022969
v 0.246556 0.879227 0.051825
v 0.751740 0.878122 0.048406
v 0.124328 0.251708 0.029625
v 0.117058 0.753937 0.058434
v 0.308050 0.601006 0.170832
v 0.583502 0.308505 0.086003
v 0.062500 1.000000 0.000000
v 0.883166 0.502643 0.061911
v 0.432798 0.783948 0.122915
v 0.241528 0.460605 0.095820
v 0.000000 0.375000 0.000000
v 0.499810 0.882677 0.070148
v 0.500642 0.635060 0.176044
v 0.246902 0.380163 0.075492
v 0.116500 0.502443 0.062938
v 0.521373 0.420246 0.114997
v 0.626081 0.253733 0.065285
v 0.499969 0.126530 0.036199
v 0.496918 0.616733 0.181604
v 0.000000 0.625000 0.000000
v 0.648444 0.531556 0.151218
v 0.444570 0.540227 0.152811
v 0.625000 1.000000 0.000000
v 0.875000 1.000000 0.000000
v 0.125000 1.000000 0.000000
v 0.375000 1.000000 0.000000
v 1.000000 0.375000 0.000000
v 0.568528 0.467308 0.129149
v 1.000000 0.875000 0.000000
v 1.000000 0.625000 0.000000
v 0.375000 0.000000 0.000000
v 0.125000 0.000000 0.000000
v 0.875000 0.000000 0.000000
v 0.625000 0.000000 0.000000
v 0.749422 0.127285 0.019319
v 0.473257 0.485544 0.133174
v 0.774027 0.520695 0.118005
v 0.061310 0.313726 0.019751
v 0.181786 0.441788 0.072881
v 0.185157 0.315579 0.052937
v 0.058418 0.438901 0.029536
v 0.687651 0.938799 0.026421
v 0.691676 0.819069 0.084402
v 0.562558 0.941929 0.035832
v 0.057643 0.689060 0.032635
v 0.176676 0.693132 0.091226
v 0.059601 0.564086 0.029659
v 0.185996 0.938918 0.021370
v 0.180214 0.818960 0.068628
v 0.060943 0.939033 0.013557
v 0.391925 0.492590 0.135714
v 0.675958 0.362432 0.094562
v 0.507589 0.737073 0.142812
v 0.306974 0.821696 0.090851
v 0.436859 0.942630 0.037103
v 0.938823 0.813047 0.019689
v 0.816316 0.815692 0.056825
v 0.937222 0.937304 0.003086
v 0.874279 0.189927 0.011599
v 0.576447 0.847562 0.084848
v 0.942796 0.501348 0.033222
v 0.834801 0.595551 0.100526
v 0.823082 0.691752 0.088883
v 0.941673 0.626147 0.031471
v 0.309012 0.710123 0.134149
v 0.818862 0.753545 0.071498
v 0.885068 0.565301 0.067327
v 0.187289 0.062425 0.015158
v 0.061810 0.061930 0.012065
v 0.186345 0.188294 0.039113
v 0.312576 0.062966 0.017141
v 0.311914 0.189284 0.049505
v 0.437571 0.064499 0.013494
v 0.811936 0.063729 0.004689
v 0.937266 0.062980 0.005770
v -0.000000 0.937500 0.000000
v 0.594804 0.685993 0.156734
v 0.525643 0.814689 0.106166
v 0.562868 0.189367 0.054994
v 0.688188 0.189475 0.045071
v 0.562447 0.063012 0.018250
v 0.938432 0.313870 0.017115
v 0.814981 0.315925 0.049214
v 0.942443 0.438732 0.031454
v 0.311275 0.940431 0.030111
v 0.719867 0.525278 0.142957
v 0.812077 0.190389 0.022501
v 0.806321 0.375349 0.069532
v 0.687279 0.063242 0.014280
v 0.398713 0.382167 0.104132
v 0.937017 0.188578 0.005608
v 0.437438 0.190774 0.051594
v 0.062104 0.187879 0.014308
v 0.374702 0.780270 0.119910
v 0.939145 0.688114 0.024953
v 0.320207 0.456143 0.114973
v 0.059591 0.814086 0.024003
v 0.812877 0.938861 0.020720
v 0.175591 0.566346 0.096318
v 0.782329 0.654785 0.123182
v 0.674600 0.472965 0.128523
v 0.719490 0.617609 0.181776
v 0.319698 0.615929 0.181779
v 0.724471 0.777809 0.093588
v 0.358766 0.546555 0.154646
v 0.619950 0.617239 0.181648
v 0.183761 0.378800 0.062147
v 0.294240 0.336493 0.079291
v 0.736470 0.616653 0.169326
v 0.716508 0.303829 0.071221
v 0.682257 0.677034 0.150382
v 0.329756 0.280092 0.069985
v 0.268214 0.665196 0.136332
v 0.533754 0.522654 0.146719
v 0.616337 0.779971 0.114142
v 0.598286 0.372357 0.101612
v 0.414404 0.616386 0.181601
v 0.720958 0.426933 0.104928
v -0.000000 0.062500 -0.000000
v 0.122406 0.314435 0.039404
v 0.417862 0.260432 0.072632
v 0.062527 0.124931 0.011065
v 0.822703 0.485399 0.088144
v 0.478086 0.367747 0.103786
v 0.176765 0.629632 0.094500
v 0.407559 0.672158 0.164669
v -0.000000 0.875000 -0.000000
v 0.000000 0.812500 -0.000000
v 0.881561 0.689911 0.057203
v 1.000000 0.562500 0.000000
v 1.000000 0.125000 -0.000000
v -0.000000 0.562500 0.000000
v 0.320083 0.506576 0.135781
v 0.000000 0.187500 0.000000
vt 0.000000 0.000000
vt 1.000000 0.000000
vt 0.000000 1.000000
vt 1.000000 1.000000
vt 0.937500 0.125000
vt 0.000000 0.500000
vt 0.500000 1.000000
vt 1.000000 0.500000
vt 0.500000 0.000000
vt 0.250000 0.750000
vt 0.750000 0.750000
vt 0.250000 0.250000
vt 0.750000 0.250000
vt 0.750000 0.000000
vt 0.250000 0.000000
vt 1.000000 0.750000
vt 1.000000 0.250000
vt 0.250000 1.000000
vt 0.750000 1.000000
vt 0.000000 0.250000
vt 0.000000 0.750000
vt 0.365347 0.220303
vt 0.062500 0.875000
vt 0.245672 0.515386
vt 0.812500 0.250000
vt 0.875000 0.375000
vt 0.625000 0.125000
vt 0.875000 0.437500
vt 0.875000 0.125000
vt 0.375000 0.125000
vt 0.125000 0.125000
vt 0.492214 0.250470
vt 0.875000 0.625000
vt 0.125000 0.937500
vt 0.875000 0.875000
vt 0.375000 0.875000
vt 0.262101 0.599801
vt 0.125000 0.875000
vt 0.125000 0.625000
vt 0.625000 0.875000
vt 0.125000 0.375000
vt 0.250000 0.125000
vt 0.875000 0.750000
vt 0.875000 0.250000
vt 0.250000 0.875000
vt 0.750000 0.875000
vt 0.125000 0.250000
vt 0.125000 0.750000
vt 0.325445 0.593646
vt 0.581754 0.304126
vt 0.062500 1.000000
vt 0.875000 0.500000
vt 0.435664 0.771773
vt 0.248222 0.455442
vt 0.000000 0.375000
vt 0.500000 0.875000
vt 0.500000 0.625000
vt 0.250000 0.375000
vt 0.125000 0.500000
vt 0.519707 0.411902
vt 0.625000 0.250000
vt 0.500000 0.125000
vt 0.496519 0.606932
vt 0.000000 0.625000
vt 0.636517 0.523144
vt 0.447814 0.530275
vt 0.625000 1.000000
vt 0.875000 1.000000
vt 0.125000 1.000000
vt 0.375000 1.000000
vt 1.000000 0.375000
vt 0.564051 0.458319
vt 1.000000 0.875000
vt 1.000000 0.625000
vt 0.375000 0.000000
vt 0.125000 0.000000
vt 0.875000 0.000000
vt 0.625000 0.000000
vt 0.750000 0.125000
vt 0.473805 0.475426
vt 0.760524 0.515669
vt 0.062500 0.312500
vt 0.187500 0.437500
vt 0.187500 0.312500
vt 0.062500 0.437500
vt 0.687500 0.937500
vt 0.687500 0.812500
vt 0.562500 0.937500
vt 0.062500 0.687500
vt 0.187500 0.687500
vt 0.062500 0.562500
vt 0.187500 0.937500
vt 0.187500 0.812500
vt 0.062500 0.937500
vt 0.396781 0.484194
vt 0.671367 0.358455
vt 0.506884 0.725192
vt 0.312500 0.812500
vt 0.437500 0.937500
vt 0.937500 0.812500
vt 0.812500 0.812500
vt 0.937500 0.937500
vt 0.875000 0.187500
vt 0.575008 0.839595
vt 0.937500 0.500000
vt 0.819332 0.591237
vt 0.812500 0.687500
vt 0.937500 0.625000
vt 0.319123 0.700934
vt 0.812500 0.750000
vt 0.875000 0.562500
vt 0.187500 0.062500
vt 0.062500 0.062500
vt 0.187500 0.187500
vt 0.312500 0.062500
vt 0.312500 0.187500
vt 0.437500 0.062500
vt 0.812500 0.062500
vt 0.937500 0.062500
vt 0.000000 0.937500
vt 0.587160 0.675778
vt 0.525016 0.804189
vt 0.562500 0.187500
vt 0.687500 0.187500
vt 0.562500 0.062500
vt 0.937500 0.312500
vt 0.812500 0.312500
vt 0.937500 0.437500
vt 0.312500 0.937500
vt 0.704352 0.519902
vt 0.812500 0.187500
vt 0.800716 0.372483
vt 0.687500 0.062500
vt 0.400647 0.375957
vt 0.937500 0.187500
vt 0.437500 0.187500
vt 0.062500 0.187500
vt 0.380019 0.768564
vt 0.937500 0.687500
vt 0.326037 0.449751
vt 0.062500 0.812500
vt 0.812500 0.937500
vt 0.187500 0.562500
vt 0.765906 0.648544
vt 0.665088 0.466564
vt 0.693651 0.606662
vt 0.338436 0.607549
vt 0.718294 0.771897
vt 0.368720 0.538399
vt 0.607770 0.607461
vt 0.187500 0.375000
vt 0.296906 0.332149
vt 0.711873 0.607167
vt 0.713437 0.300753
vt 0.668274 0.669022
vt 0.331126 0.276226
vt 0.281585 0.657008
vt 0.530429 0.512451
vt 0.611736 0.771102
vt 0.595175 0.366343
vt 0.421824 0.606943
vt 0.713353 0.422290
vt 0.000000 0.062500
vt 0.125000 0.312500
vt 0.418341 0.256674
vt 0.062500 0.125000
vt 0.812755 0.481587
vt 0.477835 0.361491
vt 0.187500 0.625000
vt 0.414679 0.661630
vt 0.000000 0.875000
vt 0.000000 0.812500
vt 0.875000 0.687500
vt 1.000000 0.562500
vt 1.000000 0.125000
vt 0.000000 0.562500
vt 0.328975 0.500937
vt 0.000000 0.187500
vn -0.129597 -0.064799 0.989447
vn 0.048410 -0.048410 0.997654
vn 0.000000 0.000000 1.000000
vn 0.021684 0.021684 0.999530
vn 0.044286 0.002765 0.999015
vn -0.450174 0.000604 0.892941
vn 0.004207 0.529319 0.848412
vn 0.499207 -0.007141 0.866453
vn -0.019743 -0.241966 0.970084
vn -0.262031 0.277601 0.924272
vn 0.290465 0.312082 0.904563
vn -0.124602 -0.171822 0.977216
vn 0.216098 -0.240532 0.946280
vn 0.038070 -0.148922 0.988116
vn -0.005817 -0.245074 0.969487
vn 0.341082 0.018269 0.939856
vn 0.180717 -0.044201 0.982541
vn -0.034096 0.391981 0.919341
vn 0.020214 0.361234 0.932256
vn -0.254225 -0.017046 0.966995
vn -0.425835 0.026422 0.904415
vn -0.041970 -0.251600 0.966921
vn -0.297537 0.062191 0.952682
vn -0.339259 -0.238660 0.909915
vn 0.188615 -0.208738 0.959611
vn 0.307601 -0.169915 0.936221
vn 0.045700 -0.255359 0.965766
vn 0.364232 -0.126161 0.922724
vn 0.095321 -0.052826 0.994044
vn 0.004635 -0.262582 0.964898
vn -0.146945 -0.090772 0.984971
vn -0.016783 -0.278016 0.960430
vn 0.511720 0.089863 0.854440
vn -0.056926 0.300170 0.952186
vn 0.218561 0.210076 0.952942
vn -0.071569 0.467534 0.881073
vn -0.483998 0.025152 0.874708
vn -0.195135 0.198479 0.960484
vn -0.469086 0.017486 0.882979
vn 0.095544 0.452425 0.886670
vn -0.305467 -0.095087 0.947443
vn -0.043299 -0.220502 0.974425
vn 0.404425 0.169958 0.898640
vn 0.172627 -0.172059 0.969843
vn -0.112918 0.410698 0.904752
vn 0.126518 0.363955 0.922784
vn -0.236507 -0.096348 0.966841
vn -0.389422 0.114727 0.913886
vn -0.555169 -0.123355 0.822539
vn 0.056090 -0.264856 0.962655
vn -0.054616 0.163847 0.984973
vn 0.418107 -0.083414 0.904560
vn -0.039567 0.416333 0.908351
vn -0.263639 -0.284790 0.921623
vn -0.356171 -0.039466 0.933587
vn 0.017489 0.476573 0.878961
vn 0.001415 0.291337 0.956619
vn -0.230128 -0.188697 0.954691
vn -0.424976 -0.095503 0.900153
vn 0.011351 -0.257083 0.966323
vn 0.091041 -0.266463 0.959536
vn -0.027590 -0.282943 0.958740
vn -0.001479 0.158427 0.987370
vn -0.469392 -0.009752 0.882936
vn 0.036396 -0.344423 0.938109
vn -0.003614 -0.344446 0.938799
vn 0.036419 0.461244 0.886526
vn 0.072156 0.186045 0.979888
vn -0.030899 0.312473 0.949424
vn -0.025430 0.494610 0.868743
vn 0.370896 -0.057587 0.926887
vn -0.005778 -0.298612 0.954357
vn 0.177324 0.067711 0.981820
vn 0.460319 0.031857 0.887182
vn 0.013657 -0.240530 0.970546
vn -0.010906 -0.213493 0.976884
vn -0.005462 -0.085629 0.996312
vn 0.014894 -0.251154 0.967832
vn 0.130948 -0.186016 0.973782
vn -0.003942 -0.309414 0.950919
vn 0.401273 -0.266476 0.876339
vn -0.296560 -0.058796 0.953203
vn -0.282809 -0.212430 0.935357
vn -0.211223 -0.135907 0.967943
vn -0.399767 -0.071502 0.913824
vn 0.055284 0.415746 0.907799
vn 0.157047 0.386910 0.908646
vn 0.037912 0.488669 0.871645
vn -0.464505 0.022413 0.885287
vn -0.410175 0.112721 0.905014
vn -0.473714 -0.007781 0.880644
vn -0.021790 0.337442 0.941094
vn -0.229998 0.268666 0.935371
vn -0.183391 0.193421 0.963824
vn -0.040129 -0.334042 0.941703
vn 0.111896 -0.282289 0.952781
vn 0.030887 0.374837 0.926576
vn -0.144320 0.410528 0.900355
vn -0.017020 0.501182 0.865175
vn 0.301265 0.075125 0.950577
vn 0.270383 0.245606 0.930898
vn 0.107400 0.105131 0.988642
vn 0.131081 -0.138926 0.981589
vn 0.079583 0.459112 0.884807
vn 0.473897 -0.027479 0.880152
vn 0.534579 0.018682 0.844912
vn 0.437372 0.230861 0.869143
vn 0.488774 0.079563 0.868775
vn -0.235704 0.349718 0.906720
vn 0.344434 0.253708 0.903879
vn 0.496831 -0.026261 0.867450
vn -0.016167 -0.220271 0.975305
vn -0.143314 -0.058708 0.987934
vn -0.126781 -0.130769 0.983273
vn -0.003888 -0.249848 0.968277
vn -0.037898 -0.232147 0.971942
vn -0.005049 -0.255357 0.966834
vn 0.043575 -0.098485 0.994184
vn 0.035899 0.013480 0.999264
vn -0.188751 0.078699 0.978866
vn 0.068702 0.367372 0.927533
vn 0.051097 0.450733 0.891195
vn 0.033610 -0.270223 0.962211
vn 0.123956 -0.237333 0.963487
vn 0.002594 -0.267471 0.963562
vn 0.265870 -0.098437 0.958970
vn 0.232256 -0.247880 0.940538
vn 0.423518 -0.067301 0.903384
vn -0.058582 0.444724 0.893750
vn 0.230961 -0.344187 0.910051
vn 0.167016 -0.170091 0.971172
vn 0.272586 -0.239389 0.931874
vn 0.054619 -0.216822 0.974682
vn -0.073091 -0.259765 0.962902
vn 0.087571 -0.097242 0.991401
vn -0.029004 -0.283412 0.958559
vn -0.229233 -0.034731 0.972752
vn -0.112355 0.398940 0.910068
vn 0.451416 0.093242 0.887429
vn -0.168254 -0.333316 0.927680
vn -0.372139 0.073987 0.925224
vn 0.081114 0.305294 0.948797
vn -0.433824 -0.049066 0.899661
vn 0.472242 0.298701 0.829316
vn 0.085580 -0.328581 0.940590
vn 0.491276 0.213382 0.844462
vn -0.457853 -0.074782 0.885877
vn 0.229820 0.349690 0.908240
vn -0.032633 -0.365801 0.930121
vn 0.025962 0.093937 0.995240
vn -0.236106 -0.146609 0.960604
vn -0.164788 -0.200302 0.965776
vn 0.555129 0.201928 0.806881
vn 0.183133 -0.275981 0.943556
vn 0.176144 0.450207 0.875378
vn -0.080947 -0.226072 0.970741
vn -0.418405 0.220159 0.881174
vn -0.011034 -0.330510 0.943738
vn 0.114137 0.417965 0.901265
vn 0.034354 -0.258772 0.965327
vn -0.001147 -0.003126 0.999994
vn 0.217207 -0.289807 0.932112
vn -0.190228 0.005273 0.981726
vn -0.270247 -0.117478 0.955597
vn -0.047540 -0.275198 0.960212
vn -0.228488 -0.012553 0.973466
vn 0.388182 -0.169723 0.905819
vn -0.004060 -0.246926 0.969026
vn -0.456705 0.045029 0.888478
vn -0.036062 0.330799 0.943012
vn -0.309000 -0.000000 0.951062
vn -0.356935 0.016595 0.933982
vn 0.485763 0.143742 0.862191
vn 0.494184 0.005031 0.869343
vn 0.026378 0.001397 0.999651
vn -0.449100 0.000000 0.893482
vn -0.145264 -0.372150 0.916735
vn -0.214762 -0.013641 0.976571
f 1/1/1 113/113/113 163/163/163
f 127/127/127 126/126/126 26/26/26
f 140/140/140 152/152/152 134/134/134
f 166/166/166 163/163/163 113/113/113
f 84/84/84 152/152/152 58/58/58
f 166/166/166 178/178/178 163/163/163
f 166/166/166 137/137/137 178/178/178
f 112/112/112 114/114/114 31/31/31
f 147/147/147 49/49/49 177/177/177
f 42/42/42 114/114/114 112/112/112
f 31/31/31 166/166/166 113/113/113
f 116/116/116 115/115/115 30/30/30
f 31/31/31 137/137/137 166/166/166
f 134/134/134 156/156/156 165/165/165
f 128/128/128 8/8/8 105/105/105
f 76/76/76 113/113/113 1/1/1
f 127/127/127 44/44/44 126/126/126
f 15/15/15 112/112/112 76/76/76
f 177/177/177 54/54/54 140/140/140
f 75/75/75 115/115/115 15/15/15
f 116/116/116 12/12/12 42/42/42
f 136/136/136 30/30/30 117/117/117
f 125/125/125 133/133/133 27/27/27
f 22/22/22 30/30/30 136/136/136
f 114/114/114 42/42/42 12/12/12
f 32/32/32 165/165/165 136/136/136
f 22/22/22 136/136/136 165/165/165
f 156/156/156 152/152/152 12/12/12
f 156/156/156 116/116/116 22/22/22
f 177/177/177 149/149/149 147/147/147
f 116/116/116 30/30/30 22/22/22
f 54/54/54 58/58/58 140/140/140
f 42/42/42 115/115/115 116/116/116
f 156/156/156 12/12/12 116/116/116
f 164/164/164 151/151/151 41/41/41
f 66/66/66 158/158/158 63/63/63
f 140/140/140 134/134/134 95/95/95
f 156/156/156 22/22/22 165/165/165
f 134/134/134 165/165/165 168/168/168
f 41/41/41 151/151/151 83/83/83
f 128/128/128 71/71/71 8/8/8
f 26/26/26 128/128/128 28/28/28
f 60/60/60 160/160/160 72/72/72
f 168/168/168 165/165/165 32/32/32
f 80/80/80 134/134/134 168/168/168
f 134/134/134 152/152/152 156/156/156
f 157/157/157 169/169/169 37/37/37
f 95/95/95 134/134/134 80/80/80
f 138/138/138 53/53/53 36/36/36
f 131/131/131 79/79/79 29/29/29
f 49/49/49 24/24/24 177/177/177
f 118/118/118 29/29/29 79/79/79
f 84/84/84 58/58/58 151/151/151
f 77/77/77 2/2/2 119/119/119
f 77/77/77 119/119/119 118/118/118
f 119/119/119 29/29/29 118/118/118
f 24/24/24 59/59/59 83/83/83
f 83/83/83 58/58/58 54/54/54
f 85/85/85 55/55/55 41/41/41
f 83/83/83 151/151/151 58/58/58
f 85/85/85 41/41/41 83/83/83
f 82/82/82 137/137/137 47/47/47
f 113/113/113 76/76/76 31/31/31
f 84/84/84 12/12/12 152/152/152
f 25/25/25 44/44/44 127/127/127
f 112/112/112 31/31/31 76/76/76
f 164/164/164 47/47/47 84/84/84
f 164/164/164 84/84/84 151/151/151
f 82/82/82 164/164/164 41/41/41
f 82/82/82 47/47/47 164/164/164
f 55/55/55 82/82/82 41/41/41
f 20/20/20 137/137/137 82/82/82
f 20/20/20 178/178/178 137/137/137
f 55/55/55 20/20/20 82/82/82
f 37/37/37 24/24/24 49/49/49
f 120/120/120 51/51/51 3/3/3
f 115/115/115 75/75/75 30/30/30
f 141/141/141 38/38/38 23/23/23
f 119/119/119 175/175/175 5/5/5
f 45/45/45 98/98/98 36/36/36
f 34/34/34 92/92/92 69/69/69
f 48/48/48 89/89/89 90/90/90
f 92/92/92 18/18/18 69/69/69
f 34/34/34 94/94/94 38/38/38
f 23/23/23 38/38/38 94/94/94
f 109/109/109 157/157/157 147/147/147
f 161/161/161 147/147/147 149/149/149
f 121/121/121 97/97/97 57/57/57
f 56/56/56 53/53/53 122/122/122
f 98/98/98 138/138/138 36/36/36
f 129/129/129 45/45/45 36/36/36
f 109/109/109 98/98/98 10/10/10
f 105/105/105 174/174/174 111/111/111
f 93/93/93 38/38/38 48/48/48
f 92/92/92 45/45/45 18/18/18
f 36/36/36 99/99/99 129/129/129
f 129/129/129 70/70/70 18/18/18
f 129/129/129 18/18/18 45/45/45
f 34/34/34 38/38/38 92/92/92
f 70/70/70 129/129/129 99/99/99
f 94/94/94 69/69/69 51/51/51
f 94/94/94 34/34/34 69/69/69
f 120/120/120 94/94/94 51/51/51
f 23/23/23 120/120/120 171/171/171
f 172/172/172 23/23/23 171/171/171
f 48/48/48 141/141/141 21/21/21
f 39/39/39 90/90/90 89/89/89
f 23/23/23 94/94/94 120/120/120
f 172/172/172 141/141/141 23/23/23
f 21/21/21 141/141/141 172/172/172
f 39/39/39 169/169/169 90/90/90
f 84/84/84 114/114/114 12/12/12
f 48/48/48 90/90/90 10/10/10
f 48/48/48 38/38/38 141/141/141
f 93/93/93 48/48/48 10/10/10
f 108/108/108 111/111/111 174/174/174
f 177/177/177 140/140/140 95/95/95
f 149/149/149 177/177/177 95/95/95
f 117/117/117 30/30/30 75/75/75
f 143/143/143 39/39/39 59/59/59
f 89/89/89 48/48/48 21/21/21
f 59/59/59 85/85/85 83/83/83
f 64/64/64 89/89/89 21/21/21
f 47/47/47 114/114/114 84/84/84
f 6/6/6 91/91/91 176/176/176
f 135/135/135 44/44/44 103/103/103
f 5/5/5 175/175/175 135/135/135
f 59/59/59 91/91/91 85/85/85
f 5/5/5 103/103/103 29/29/29
f 6/6/6 85/85/85 91/91/91
f 6/6/6 55/55/55 85/85/85
f 24/24/24 83/83/83 54/54/54
f 59/59/59 39/39/39 91/91/91
f 24/24/24 143/143/143 59/59/59
f 143/143/143 169/169/169 39/39/39
f 24/24/24 54/54/54 177/177/177
f 66/66/66 161/161/161 149/149/149
f 157/157/157 37/37/37 49/49/49
f 157/157/157 90/90/90 169/169/169
f 157/157/157 49/49/49 147/147/147
f 66/66/66 63/63/63 161/161/161
f 170/170/170 138/138/138 109/109/109
f 37/37/37 169/169/169 143/143/143
f 37/37/37 143/143/143 24/24/24
f 170/170/170 109/109/109 147/147/147
f 157/157/157 10/10/10 90/90/90
f 109/109/109 138/138/138 98/98/98
f 109/109/109 10/10/10 157/157/157
f 57/57/57 161/161/161 63/63/63
f 170/170/170 53/53/53 138/138/138
f 153/153/153 155/155/155 146/146/146
f 57/57/57 170/170/170 161/161/161
f 161/161/161 170/170/170 147/147/147
f 66/66/66 149/149/149 95/95/95
f 66/66/66 95/95/95 80/80/80
f 66/66/66 80/80/80 158/158/158
f 154/154/154 132/132/132 162/162/162
f 50/50/50 168/168/168 32/32/32
f 121/121/121 57/57/57 150/150/150
f 122/122/122 159/159/159 104/104/104
f 88/88/88 99/99/99 56/56/56
f 33/33/33 106/106/106 111/111/111
f 150/150/150 63/63/63 158/158/158
f 65/65/65 146/146/146 150/150/150
f 97/97/97 170/170/170 57/57/57
f 57/57/57 63/63/63 150/150/150
f 159/159/159 121/121/121 155/155/155
f 97/97/97 53/53/53 170/170/170
f 155/155/155 121/121/121 150/150/150
f 148/148/148 87/87/87 159/159/159
f 146/146/146 155/155/155 150/150/150
f 11/11/11 155/155/155 144/144/144
f 65/65/65 150/150/150 158/158/158
f 130/130/130 146/146/146 65/65/65
f 106/106/106 153/153/153 81/81/81
f 144/144/144 155/155/155 153/153/153
f 60/60/60 72/72/72 80/80/80
f 72/72/72 145/145/145 65/65/65
f 154/154/154 162/162/162 96/96/96
f 130/130/130 153/153/153 146/146/146
f 167/167/167 106/106/106 81/81/81
f 81/81/81 153/153/153 130/130/130
f 111/111/111 52/52/52 105/105/105
f 107/107/107 106/106/106 33/33/33
f 78/78/78 125/125/125 9/9/9
f 38/38/38 93/93/93 92/92/92
f 112/112/112 15/15/15 42/42/42
f 108/108/108 33/33/33 111/111/111
f 167/167/167 111/111/111 106/106/106
f 115/115/115 42/42/42 15/15/15
f 107/107/107 33/33/33 173/173/173
f 139/139/139 108/108/108 74/74/74
f 173/173/173 108/108/108 139/139/139
f 43/43/43 173/173/173 139/139/139
f 43/43/43 110/110/110 107/107/107
f 43/43/43 107/107/107 173/173/173
f 173/173/173 33/33/33 108/108/108
f 11/11/11 144/144/144 107/107/107
f 11/11/11 107/107/107 110/110/110
f 144/144/144 153/153/153 106/106/106
f 144/144/144 106/106/106 107/107/107
f 101/101/101 11/11/11 110/110/110
f 148/148/148 101/101/101 46/46/46
f 142/142/142 101/101/101 35/35/35
f 88/88/88 56/56/56 104/104/104
f 159/159/159 97/97/97 121/121/121
f 43/43/43 101/101/101 110/110/110
f 16/16/16 139/139/139 74/74/74
f 100/100/100 43/43/43 139/139/139
f 28/28/28 128/128/128 52/52/52
f 105/105/105 52/52/52 128/128/128
f 86/86/86 46/46/46 142/142/142
f 16/16/16 100/100/100 139/139/139
f 102/102/102 35/35/35 100/100/100
f 68/68/68 142/142/142 102/102/102
f 40/40/40 46/46/46 86/86/86
f 142/142/142 35/35/35 102/102/102
f 87/87/87 46/46/46 40/40/40
f 46/46/46 101/101/101 142/142/142
f 19/19/19 86/86/86 142/142/142
f 88/88/88 40/40/40 86/86/86
f 56/56/56 36/36/36 53/53/53
f 87/87/87 40/40/40 159/159/159
f 148/148/148 159/159/159 155/155/155
f 148/148/148 46/46/46 87/87/87
f 148/148/148 155/155/155 11/11/11
f 148/148/148 11/11/11 101/101/101
f 56/56/56 122/122/122 104/104/104
f 104/104/104 159/159/159 40/40/40
f 122/122/122 53/53/53 97/97/97
f 122/122/122 97/97/97 159/159/159
f 88/88/88 104/104/104 40/40/40
f 56/56/56 99/99/99 36/36/36
f 67/67/67 88/88/88 86/86/86
f 7/7/7 99/99/99 88/88/88
f 7/7/7 70/70/70 99/99/99
f 67/67/67 7/7/7 88/88/88
f 19/19/19 67/67/67 86/86/86
f 68/68/68 19/19/19 142/142/142
f 73/73/73 102/102/102 100/100/100
f 4/4/4 68/68/68 102/102/102
f 73/73/73 4/4/4 102/102/102
f 16/16/16 73/73/73 100/100/100
f 145/145/145 162/162/162 130/130/130
f 137/137/137 31/31/31 47/47/47
f 45/45/45 92/92/92 93/93/93
f 101/101/101 43/43/43 35/35/35
f 174/174/174 74/74/74 108/108/108
f 8/8/8 174/174/174 105/105/105
f 118/118/118 133/133/133 14/14/14
f 131/131/131 25/25/25 13/13/13
f 103/103/103 131/131/131 29/29/29
f 135/135/135 175/175/175 17/17/17
f 10/10/10 98/98/98 93/93/93
f 45/45/45 93/93/93 98/98/98
f 114/114/114 47/47/47 31/31/31
f 26/26/26 71/71/71 128/128/128
f 167/167/167 28/28/28 52/52/52
f 162/162/162 132/132/132 167/167/167
f 132/132/132 127/127/127 26/26/26
f 140/140/140 58/58/58 152/152/152
f 126/126/126 17/17/17 71/71/71
f 126/126/126 71/71/71 26/26/26
f 132/132/132 26/26/26 28/28/28
f 119/119/119 2/2/2 175/175/175
f 96/96/96 50/50/50 61/61/61
f 100/100/100 35/35/35 43/43/43
f 13/13/13 25/25/25 127/127/127
f 79/79/79 13/13/13 124/124/124
f 123/123/123 27/27/27 61/61/61
f 123/123/123 50/50/50 32/32/32
f 167/167/167 132/132/132 28/28/28
f 162/162/162 81/81/81 130/130/130
f 167/167/167 52/52/52 111/111/111
f 162/162/162 167/167/167 81/81/81
f 145/145/145 130/130/130 65/65/65
f 124/124/124 154/154/154 61/61/61
f 72/72/72 65/65/65 158/158/158
f 96/96/96 145/145/145 160/160/160
f 72/72/72 158/158/158 80/80/80
f 72/72/72 160/160/160 145/145/145
f 60/60/60 80/80/80 168/168/168
f 60/60/60 168/168/168 160/160/160
f 125/125/125 27/27/27 62/62/62
f 77/77/77 118/118/118 14/14/14
f 50/50/50 160/160/160 168/168/168
f 62/62/62 27/27/27 123/123/123
f 27/27/27 124/124/124 61/61/61
f 154/154/154 96/96/96 61/61/61
f 96/96/96 162/162/162 145/145/145
f 96/96/96 160/160/160 50/50/50
f 154/154/154 13/13/13 127/127/127
f 154/154/154 127/127/127 132/132/132
f 131/131/131 13/13/13 79/79/79
f 124/124/124 13/13/13 154/154/154
f 125/125/125 62/62/62 117/117/117
f 27/27/27 133/133/133 124/124/124
f 123/123/123 61/61/61 50/50/50
f 123/123/123 32/32/32 136/136/136
f 62/62/62 123/123/123 136/136/136
f 62/62/62 136/136/136 117/117/117
f 9/9/9 117/117/117 75/75/75
f 9/9/9 125/125/125 117/117/117
f 78/78/78 133/133/133 125/125/125
f 14/14/14 133/133/133 78/78/78
f 5/5/5 135/135/135 103/103/103
f 17/17/17 126/126/126 135/135/135
f 103/103/103 44/44/44 131/131/131
f 79/79/79 124/124/124 133/133/133
f 79/79/79 133/133/133 118/118/118
f 25/25/25 131/131/131 44/44/44
f 44/44/44 135/135/135 126/126/126
f 119/119/119 5/5/5 29/29/29
f 176/176/176 91/91/91 64/64/64
f 64/64/64 39/39/39 89/89/89
f 91/91/91 39/39/39 64/64/64
