# frame 001164 
# time 0.582500 
# name Cloth3D 
v -0.000000 0.000000 -0.000000
v 1.000000 0.000000 -0.000000
v -0.000000 1.000000 0.000000
v 1.000000 1.000000 0.000000
v 0.936833 0.125964 0.000263
v -0.000000 0.500000 0.000000
v 0.500000 1.000000 0.000000
v 1.000000 0.500000 0.000000
v 0.500000 -0.000000 0.000000
v 0.241360 0.759515 0.102099
v 0.755353 0.754787 0.087397
v 0.249287 0.250959 0.054473
v 0.751060 0.253669 0.044438
v 0.750000 0.000000 0.000000
v 0.250000 0.000000 0.000000
v 1.000000 0.750000 0.000000
v 1.000000 0.250000 0.000000
v 0.250000 1.000000 0.000000
v 0.750000 1.000000 0.000000
v 0.000000 0.250000 0.000000
v 0.000000 0.750000 -0.000000
v 0.365222 0.221119 0.061018
v 0.059505 0.876714 0.021970
v 0.237617 0.519802 0.106230
v 0.812918 0.253635 0.031038
v 0.878396 0.377856 0.042024
v 0.625090 0.126792 0.028748
v 0.881311 0.440191 0.053279
v 0.873974 0.126845 0.003128
v 0.375165 0.124897 0.036485
v 0.125470 0.125680 0.013252
v 0.493054 0.253863 0.067171
v 0.883534 0.626725 0.063107
v 0.123894 0.939291 0.018328
v 0.874964 0.874792 0.021023
v 0.372857 0.886134 0.072451
v 0.250601 0.606888 0.126645
v 0.121186 0.878913 0.037523
v 0.120054 0.628591 0.057856
v 0.626392 0.882648 0.064389
v 0.123333 0.377259 0.040502
v 0.249468 0.123287 0.036747
v 0.877753 0.750599 0.043819
v 0.874733 0.253145 0.017959
v 0.246607 0.882976 0.059639
v 0.751011 0.878076 0.045108
v 0.124439 0.251277 0.030192
v 0.116753 0.754381 0.060520
v 0.319866 0.567058 0.151542
v 0.583941 0.308980 0.079414
v 0.062500 1.000000 0.000000
v 0.882990 0.502793 0.059700
v 0.433339 0.784670 0.120518
v 0.242621 0.459103 0.094134
v 0.000000 0.375000 0.000000
v 0.500163 0.886085 0.073895
v 0.000000 0.687500 -0.000000
v 0.247257 0.377951 0.076314
v 0.120588 0.502873 0.053992
v 0.522133 0.419174 0.112414
v 0.626703 0.252824 0.064773
v 0.500250 0.127015 0.030883
v 0.497510 0.633504 0.174108
v 0.000000 0.625000 0.000000
v 0.647626 0.533352 0.139507
v 0.445900 0.539770 0.146143
v 0.625000 1.000000 0.000000
v 0.875000 1.000000 0.000000
v 0.125000 1.000000 0.000000
v 0.375000 1.000000 0.000000
v 1.000000 0.375000 0.000000
v 0.569089 0.466791 0.125272
v 1.000000 0.875000 0.000000
v 1.000000 0.625000 0.000000
v 0.375000 0.000000 0.000000
v 0.125000 0.000000 0.000000
v 0.875000 0.000000 0.000000
v 0.625000 0.000000 0.000000
v 0.749551 0.127183 0.018615
v 0.474233 0.483212 0.133608
v 0.774665 0.520337 0.116137
v 0.061389 0.313490 0.020126
v 0.183811 0.440934 0.068735
v 0.187283 0.315169 0.045947
v 0.061019 0.439024 0.023811
v 0.687772 0.940913 0.029358
v 0.690848 0.819080 0.080159
v 0.562660 0.942508 0.035459
v 0.058188 0.689325 0.031813
v 0.178675 0.693535 0.087611
v 0.059581 0.564224 0.029524
v 0.186071 0.941476 0.027498
v 0.181385 0.819063 0.066946
v 0.061470 0.938512 0.011408
v 0.393251 0.491447 0.130929
v 0.675646 0.364642 0.083928
v 0.508049 0.736880 0.136162
v 0.307520 0.823485 0.092914
v 0.437090 0.944235 0.038867
v 0.938339 0.812340 0.017410
v 0.813909 0.813643 0.048163
v 0.937977 0.937980 0.012586
v 1.000000 0.187500 -0.000000
v 0.000000 0.187500 0.000000
v 0.940984 0.501645 0.028935
v 0.835644 0.595562 0.101007
v 0.819300 0.689973 0.080627
v 0.942716 0.625872 0.033034
v 0.308396 0.712165 0.137650
v 0.815902 0.751707 0.063778
v 0.887550 0.564866 0.070463
v 0.187592 0.061976 0.014599
v 0.062640 0.062883 0.003804
v 0.187633 0.188095 0.032444
v 0.312587 0.061085 0.021783
v 0.312082 0.186723 0.053878
v 0.437663 0.062857 0.017422
v 0.811928 0.063719 0.004088
v 0.937141 0.063166 -0.007273
v -0.000000 0.937500 0.000000
v 0.595498 0.687978 0.154811
v 0.526180 0.816847 0.106407
v 0.563201 0.189956 0.048646
v 0.687570 0.190936 0.036621
v 0.562457 0.063643 0.014295
v 0.939309 0.313705 0.019810
v 0.814577 0.316395 0.045149
v 0.939966 0.439231 0.025113
v 0.311321 0.943045 0.034789
v 0.719866 0.525395 0.136546
v 0.811523 0.191033 0.017238
v 0.804565 0.377233 0.060346
v 0.687106 0.064108 0.008955
v 0.399791 0.380978 0.100200
v 0.936728 0.189017 0.001395
v 0.437934 0.188817 0.052664
v 0.062092 0.188073 0.013975
v 0.375289 0.780664 0.117705
v 0.940689 0.687923 0.028287
v 0.321318 0.454537 0.112836
v 0.057974 0.814449 0.028454
v 0.812187 0.937789 0.015858
v 0.181078 0.567225 0.084353
v 0.781351 0.655611 0.120143
v 0.674444 0.474427 0.119424
v 0.719420 0.634388 0.174284
v 0.319627 0.632708 0.174288
v 0.723766 0.778611 0.091153
v 0.361026 0.546426 0.145051
v 0.619740 0.634010 0.174153
v 0.186294 0.378439 0.055012
v 0.295208 0.334744 0.077605
v 0.732878 0.617764 0.159300
v 0.715564 0.305568 0.061794
v 0.683672 0.681158 0.155449
v 0.330191 0.277478 0.072908
v 0.267598 0.666574 0.138234
v 0.534501 0.521784 0.143325
v 0.616786 0.782728 0.115068
v 0.598684 0.372907 0.095197
v 0.415757 0.633160 0.174106
v 0.720288 0.425156 0.101899
v -0.000000 0.062500 -0.000000
v 0.124901 0.314668 0.030486
v 0.418587 0.259035 0.070754
v 0.062196 0.125214 0.012308
v 0.823568 0.485323 0.087091
v 0.478924 0.367147 0.098607
v 0.177700 0.630239 0.091661
v 0.408205 0.672541 0.160148
v -0.000000 0.875000 -0.000000
v 0.000000 0.812500 -0.000000
v 0.880426 0.688779 0.054991
v 1.000000 0.562500 0.000000
v 1.000000 0.062500 -0.000000
v -0.000000 0.562500 0.000000
v 0.320087 0.505701 0.130294
v 0.576371 0.572883 0.155983
vt 0.000000 0.000000
vt 1.000000 0.000000
vt 0.000000 1.000000
vt 1.000000 1.000000
vt 0.937500 0.125000
vt 0.000000 0.500000
vt 0.500000 1.000000
vt 1.000000 0.500000
vt 0.500000 0.000000
vt 0.250000 0.750000
vt 0.750000 0.750000
vt 0.250000 0.250000
vt 0.750000 0.250000
vt 0.750000 0.000000
vt 0.250000 0.000000
vt 1.000000 0.750000
vt 1.000000 0.250000
vt 0.250000 1.000000
vt 0.750000 1.000000
vt 0.000000 0.250000
vt 0.000000 0.750000
vt 0.365347 0.220303
vt 0.062500 0.875000
vt 0.245672 0.515386
vt 0.812500 0.250000
vt 0.875000 0.375000
vt 0.625000 0.125000
vt 0.875000 0.437500
vt 0.875000 0.125000
vt 0.375000 0.125000
vt 0.125000 0.125000
vt 0.492214 0.250470
vt 0.875000 0.625000
vt 0.125000 0.937500
vt 0.875000 0.875000
vt 0.375000 0.875000
vt 0.262101 0.599801
vt 0.125000 0.875000
vt 0.125000 0.625000
vt 0.625000 0.875000
vt 0.125000 0.375000
vt 0.250000 0.125000
vt 0.875000 0.750000
vt 0.875000 0.250000
vt 0.250000 0.875000
vt 0.750000 0.875000
vt 0.125000 0.250000
vt 0.125000 0.750000
vt 0.331348 0.561039
vt 0.581754 0.304126
vt 0.062500 1.000000
vt 0.875000 0.500000
vt 0.435664 0.771773
vt 0.248222 0.455442
vt 0.000000 0.375000
vt 0.500000 0.875000
vt 0.000000 0.687500
vt 0.250000 0.375000
vt 0.125000 0.500000
vt 0.519707 0.411902
vt 0.625000 0.250000
vt 0.500000 0.125000
vt 0.496525 0.621762
vt 0.000000 0.625000
vt 0.636517 0.523144
vt 0.447814 0.530275
vt 0.625000 1.000000
vt 0.875000 1.000000
vt 0.125000 1.000000
vt 0.375000 1.000000
vt 1.000000 0.375000
vt 0.564051 0.458319
vt 1.000000 0.875000
vt 1.000000 0.625000
vt 0.375000 0.000000
vt 0.125000 0.000000
vt 0.875000 0.000000
vt 0.625000 0.000000
vt 0.750000 0.125000
vt 0.473805 0.475426
vt 0.760524 0.515669
vt 0.062500 0.312500
vt 0.187500 0.437500
vt 0.187500 0.312500
vt 0.062500 0.437500
vt 0.687500 0.937500
vt 0.687500 0.812500
vt 0.562500 0.937500
vt 0.062500 0.687500
vt 0.187500 0.687500
vt 0.062500 0.562500
vt 0.187500 0.937500
vt 0.187500 0.812500
vt 0.062500 0.937500
vt 0.396781 0.484194
vt 0.671367 0.358455
vt 0.506884 0.725192
vt 0.312500 0.812500
vt 0.437500 0.937500
vt 0.937500 0.812500
vt 0.812500 0.812500
vt 0.937500 0.937500
vt 1.000000 0.187500
vt 0.000000 0.187500
vt 0.937500 0.500000
vt 0.819332 0.591237
vt 0.812500 0.687500
vt 0.937500 0.625000
vt 0.319123 0.700934
vt 0.812500 0.750000
vt 0.875000 0.562500
vt 0.187500 0.062500
vt 0.062500 0.062500
vt 0.187500 0.187500
vt 0.312500 0.062500
vt 0.312500 0.187500
vt 0.437500 0.062500
vt 0.812500 0.062500
vt 0.937500 0.062500
vt 0.000000 0.937500
vt 0.587160 0.675778
vt 0.525016 0.804189
vt 0.562500 0.187500
vt 0.687500 0.187500
vt 0.562500 0.062500
vt 0.937500 0.312500
vt 0.812500 0.312500
vt 0.937500 0.437500
vt 0.312500 0.937500
vt 0.705159 0.520018
vt 0.812500 0.187500
vt 0.800716 0.372483
vt 0.687500 0.062500
vt 0.400647 0.375957
vt 0.937500 0.187500
vt 0.437500 0.187500
vt 0.062500 0.187500
vt 0.380019 0.768564
vt 0.937500 0.687500
vt 0.326037 0.449751
vt 0.062500 0.812500
vt 0.812500 0.937500
vt 0.187500 0.562500
vt 0.765906 0.648544
vt 0.665088 0.466564
vt 0.695284 0.621802
vt 0.336011 0.622983
vt 0.718294 0.771897
vt 0.368720 0.538399
vt 0.607853 0.621975
vt 0.187500 0.375000
vt 0.296906 0.332149
vt 0.711873 0.607167
vt 0.713437 0.300753
vt 0.668274 0.669022
vt 0.331126 0.276226
vt 0.281585 0.657008
vt 0.530429 0.512451
vt 0.611736 0.771102
vt 0.595175 0.366343
vt 0.421908 0.622214
vt 0.712032 0.420608
vt 0.000000 0.062500
vt 0.125000 0.312500
vt 0.418341 0.256674
vt 0.062500 0.125000
vt 0.812755 0.481587
vt 0.477835 0.361491
vt 0.187500 0.625000
vt 0.414679 0.661630
vt 0.000000 0.875000
vt 0.000000 0.812500
vt 0.875000 0.687500
vt 1.000000 0.562500
vt 1.000000 0.062500
vt 0.000000 0.562500
vt 0.327474 0.500669
vt 0.569109 0.562013
vn -0.044933 -0.022467 0.998737
vn -0.072330 0.036165 0.996725
vn 0.000000 0.000000 1.000000
vn 0.099332 0.099332 0.990084
vn 0.013886 -0.054419 0.998422
vn -0.415698 -0.016902 0.909346
vn 0.015057 0.548552 0.835981
vn 0.431714 -0.016719 0.901856
vn 0.011346 -0.239984 0.970711
vn -0.289526 0.273064 0.917393
vn 0.370834 0.310914 0.875108
vn -0.188194 -0.138304 0.972345
vn 0.173953 -0.217727 0.960383
vn 0.019525 -0.101736 0.994620
vn -0.027755 -0.283528 0.958562
vn 0.355820 0.043928 0.933522
vn 0.123903 -0.058722 0.990555
vn -0.025578 0.463342 0.885810
vn 0.052850 0.348122 0.935958
vn -0.258679 -0.019696 0.965763
vn -0.462322 0.008001 0.886676
vn -0.002873 -0.229136 0.973390
vn -0.295677 0.141108 0.944809
vn -0.366505 -0.186019 0.911631
vn 0.203241 -0.219505 0.954207
vn 0.279687 -0.163092 0.946137
vn 0.069594 -0.254110 0.964668
vn 0.396285 -0.152152 0.905432
vn 0.084241 -0.083058 0.992978
vn 0.025675 -0.255071 0.966581
vn -0.085541 -0.103337 0.990961
vn 0.029429 -0.259240 0.965364
vn 0.474244 0.158294 0.866046
vn -0.132017 0.270861 0.953523
vn 0.135682 0.146131 0.979917
vn -0.059409 0.463510 0.884098
vn -0.472229 -0.105721 0.875113
vn -0.223161 0.254106 0.941079
vn -0.456696 -0.028098 0.889179
vn 0.113713 0.443792 0.888886
vn -0.245073 -0.134907 0.960073
vn -0.112259 -0.204457 0.972417
vn 0.313959 0.174886 0.933191
vn 0.169605 -0.179816 0.968969
vn -0.139992 0.385011 0.912233
vn 0.180848 0.334839 0.924758
vn -0.187291 -0.054618 0.980785
vn -0.377167 0.088109 0.921944
vn -0.172738 -0.310279 0.934820
vn 0.051237 -0.242134 0.968889
vn -0.074503 0.167641 0.983029
vn 0.454976 -0.141870 0.879130
vn -0.031132 0.368009 0.929301
vn -0.297912 -0.228557 0.926828
vn -0.327190 -0.013559 0.944861
vn 0.032344 0.483136 0.874948
vn -0.482330 0.000000 0.875989
vn -0.277776 -0.211235 0.937134
vn -0.387639 -0.086209 0.917771
vn 0.036391 -0.290082 0.956310
vn 0.087476 -0.245623 0.965411
vn 0.026288 -0.261924 0.964730
vn -0.000473 0.023710 0.999719
vn -0.454345 -0.006464 0.890803
vn 0.032477 -0.309190 0.950446
vn -0.032247 -0.260394 0.964964
vn 0.023866 0.484259 0.874599
vn 0.013527 0.223193 0.974680
vn -0.041608 0.313039 0.948829
vn -0.017552 0.544833 0.838361
vn 0.348331 -0.021017 0.937136
vn 0.048356 -0.287629 0.956521
vn 0.235663 0.019927 0.971631
vn 0.488669 0.020551 0.872227
vn 0.018867 -0.300412 0.953623
vn -0.041544 -0.149322 0.987915
vn 0.043167 0.022777 0.998808
vn 0.020959 -0.180527 0.983347
vn 0.096392 -0.175885 0.979680
vn -0.013984 -0.259124 0.965743
vn 0.356457 -0.254097 0.899096
vn -0.237646 -0.041299 0.970474
vn -0.318000 -0.193452 0.928145
vn -0.245068 -0.110660 0.963170
vn -0.357249 -0.054624 0.932411
vn 0.077960 0.416530 0.905773
vn 0.182468 0.402698 0.896961
vn 0.040460 0.514783 0.856365
vn -0.456505 -0.014196 0.889608
vn -0.435542 0.073582 0.897156
vn -0.429710 -0.010849 0.902902
vn -0.099526 0.358931 0.928043
vn -0.243899 0.264076 0.933155
vn -0.170010 0.158480 0.972615
vn -0.059333 -0.275347 0.959512
vn 0.092036 -0.283953 0.954411
vn 0.017427 0.346083 0.938042
vn -0.137080 0.373767 0.917337
vn -0.003565 0.543494 0.839405
vn 0.253792 0.077461 0.964152
vn 0.283248 0.247496 0.926562
vn 0.098683 0.101901 0.989888
vn 0.016793 -0.004553 0.999849
vn -0.217384 -0.007443 0.976058
vn 0.457012 -0.080810 0.885782
vn 0.508914 0.074659 0.857574
vn 0.436882 0.271181 0.857668
vn 0.476549 0.077585 0.875718
vn -0.225447 0.338577 0.913531
vn 0.342533 0.237398 0.909018
vn 0.495601 -0.027906 0.868102
vn -0.080614 -0.191979 0.978083
vn -0.050507 -0.094412 0.994251
vn -0.181833 -0.140180 0.973286
vn -0.002964 -0.287422 0.957799
vn -0.040198 -0.205778 0.977773
vn 0.028462 -0.262694 0.964459
vn 0.061907 -0.083928 0.994547
vn -0.032622 -0.041596 0.998602
vn -0.139416 0.046472 0.989143
vn 0.010516 0.354511 0.934993
vn 0.039698 0.397082 0.916924
vn 0.015944 -0.267251 0.963495
vn 0.120570 -0.235643 0.964332
vn 0.019336 -0.235591 0.971660
vn 0.233978 -0.102186 0.966857
vn 0.210012 -0.208710 0.955163
vn 0.408208 -0.067666 0.910378
vn -0.054266 0.498109 0.865415
vn 0.160931 -0.311702 0.936453
vn 0.171800 -0.168342 0.970642
vn 0.246378 -0.229883 0.941516
vn 0.040058 -0.179951 0.982859
vn -0.060339 -0.255069 0.965038
vn 0.064618 -0.047970 0.996756
vn 0.026932 -0.258631 0.965601
vn -0.177805 -0.043441 0.983106
vn -0.082714 0.369207 0.925659
vn 0.411586 0.082295 0.907648
vn -0.160496 -0.293244 0.942470
vn -0.394597 0.085364 0.914881
vn 0.081394 0.255369 0.963411
vn -0.448796 -0.095674 0.888498
vn 0.519103 0.299653 0.800463
vn 0.036094 -0.311903 0.949428
vn 0.491678 0.030431 0.870245
vn -0.285980 0.004668 0.958224
vn 0.284704 0.369978 0.884342
vn -0.029360 -0.306958 0.951270
vn 0.010859 0.079784 0.996753
vn -0.273996 -0.181734 0.944404
vn -0.186134 -0.197736 0.962421
vn 0.606184 -0.147833 0.781464
vn 0.166649 -0.245472 0.954972
vn 0.160016 0.428731 0.889148
vn -0.091912 -0.194340 0.976619
vn -0.442017 0.161608 0.882329
vn 0.025874 -0.272561 0.961790
vn 0.115151 0.416224 0.901941
vn 0.076407 -0.276557 0.957955
vn -0.003102 0.119118 0.992875
vn 0.139652 -0.312025 0.939754
vn -0.085686 -0.036992 0.995635
vn -0.194819 -0.080010 0.977570
vn 0.000177 -0.244795 0.969575
vn -0.081032 -0.067259 0.994440
vn 0.386594 -0.205663 0.899026
vn 0.011362 -0.271343 0.962416
vn -0.489837 -0.035712 0.871082
vn -0.012670 0.340685 0.940092
vn -0.311208 0.042778 0.949379
vn -0.417361 0.023293 0.908442
vn 0.386875 0.162700 0.907665
vn 0.488005 -0.011120 0.872770
vn -0.092711 -0.031648 0.995190
vn -0.445502 0.000000 0.895281
vn -0.146238 -0.309517 0.939582
vn 0.035347 -0.288540 0.956815
f 1/1/1 113/113/113 163/163/163
f 112/112/112 31/31/31 113/113/113
f 135/135/135 44/44/44 29/29/29
f 166/166/166 163/163/163 113/113/113
f 84/84/84 12/12/12 152/152/152
f 166/166/166 104/104/104 163/163/163
f 166/166/166 137/137/137 104/104/104
f 112/112/112 114/114/114 31/31/31
f 162/162/162 81/81/81 130/130/130
f 42/42/42 114/114/114 112/112/112
f 31/31/31 166/166/166 113/113/113
f 116/116/116 115/115/115 30/30/30
f 31/31/31 137/137/137 166/166/166
f 134/134/134 156/156/156 165/165/165
f 114/114/114 137/137/137 31/31/31
f 76/76/76 113/113/113 1/1/1
f 76/76/76 112/112/112 113/113/113
f 15/15/15 112/112/112 76/76/76
f 15/15/15 115/115/115 112/112/112
f 75/75/75 115/115/115 15/15/15
f 117/117/117 115/115/115 75/75/75
f 136/136/136 30/30/30 117/117/117
f 125/125/125 133/133/133 27/27/27
f 22/22/22 30/30/30 136/136/136
f 30/30/30 115/115/115 117/117/117
f 32/32/32 165/165/165 136/136/136
f 22/22/22 136/136/136 165/165/165
f 156/156/156 152/152/152 12/12/12
f 156/156/156 116/116/116 22/22/22
f 145/145/145 162/162/162 130/130/130
f 116/116/116 30/30/30 22/22/22
f 42/42/42 112/112/112 115/115/115
f 42/42/42 115/115/115 116/116/116
f 156/156/156 12/12/12 116/116/116
f 164/164/164 84/84/84 151/151/151
f 95/95/95 134/134/134 80/80/80
f 140/140/140 134/134/134 95/95/95
f 156/156/156 22/22/22 165/165/165
f 134/134/134 165/165/165 168/168/168
f 151/151/151 84/84/84 58/58/58
f 164/164/164 47/47/47 84/84/84
f 33/33/33 106/106/106 111/111/111
f 60/60/60 72/72/72 80/80/80
f 168/168/168 165/165/165 32/32/32
f 80/80/80 134/134/134 168/168/168
f 134/134/134 152/152/152 156/156/156
f 56/56/56 36/36/36 53/53/53
f 158/158/158 63/63/63 66/66/66
f 116/116/116 12/12/12 42/42/42
f 140/140/140 152/152/152 134/134/134
f 119/119/119 5/5/5 29/29/29
f 58/58/58 152/152/152 140/140/140
f 54/54/54 58/58/58 140/140/140
f 58/58/58 84/84/84 152/152/152
f 45/45/45 98/98/98 36/36/36
f 83/83/83 58/58/58 54/54/54
f 85/85/85 55/55/55 41/41/41
f 151/151/151 58/58/58 83/83/83
f 85/85/85 41/41/41 83/83/83
f 82/82/82 137/137/137 47/47/47
f 151/151/151 83/83/83 41/41/41
f 164/164/164 151/151/151 41/41/41
f 47/47/47 137/137/137 114/114/114
f 131/131/131 29/29/29 44/44/44
f 82/82/82 164/164/164 41/41/41
f 82/82/82 47/47/47 164/164/164
f 55/55/55 82/82/82 41/41/41
f 20/20/20 137/137/137 82/82/82
f 20/20/20 104/104/104 137/137/137
f 55/55/55 20/20/20 82/82/82
f 177/177/177 49/49/49 24/24/24
f 34/34/34 51/51/51 94/94/94
f 117/117/117 9/9/9 62/62/62
f 141/141/141 38/38/38 23/23/23
f 125/125/125 62/62/62 9/9/9
f 92/92/92 18/18/18 69/69/69
f 59/59/59 85/85/85 83/83/83
f 24/24/24 59/59/59 83/83/83
f 120/120/120 51/51/51 3/3/3
f 120/120/120 94/94/94 51/51/51
f 114/114/114 42/42/42 12/12/12
f 138/138/138 53/53/53 36/36/36
f 161/161/161 147/147/147 149/149/149
f 121/121/121 63/63/63 150/150/150
f 98/98/98 138/138/138 36/36/36
f 66/66/66 63/63/63 161/161/161
f 129/129/129 45/45/45 36/36/36
f 109/109/109 98/98/98 10/10/10
f 45/45/45 10/10/10 98/98/98
f 36/36/36 99/99/99 129/129/129
f 92/92/92 45/45/45 18/18/18
f 70/70/70 129/129/129 99/99/99
f 129/129/129 70/70/70 18/18/18
f 129/129/129 18/18/18 45/45/45
f 34/34/34 38/38/38 92/92/92
f 23/23/23 34/34/34 94/94/94
f 48/48/48 89/89/89 90/90/90
f 48/48/48 38/38/38 141/141/141
f 34/34/34 92/92/92 69/69/69
f 34/34/34 69/69/69 51/51/51
f 172/172/172 23/23/23 171/171/171
f 21/21/21 141/141/141 172/172/172
f 23/23/23 38/38/38 34/34/34
f 39/39/39 90/90/90 89/89/89
f 172/172/172 141/141/141 23/23/23
f 48/48/48 141/141/141 21/21/21
f 89/89/89 48/48/48 21/21/21
f 64/64/64 39/39/39 89/89/89
f 90/90/90 10/10/10 48/48/48
f 93/93/93 38/38/38 48/48/48
f 93/93/93 48/48/48 10/10/10
f 93/93/93 10/10/10 45/45/45
f 169/169/169 90/90/90 39/39/39
f 177/177/177 95/95/95 149/149/149
f 123/123/123 32/32/32 62/62/62
f 177/177/177 24/24/24 54/54/54
f 66/66/66 95/95/95 80/80/80
f 157/157/157 90/90/90 169/169/169
f 57/57/57 89/89/89 21/21/21
f 64/64/64 89/89/89 57/57/57
f 176/176/176 91/91/91 64/64/64
f 6/6/6 91/91/91 176/176/176
f 120/120/120 171/171/171 94/94/94
f 91/91/91 39/39/39 64/64/64
f 23/23/23 94/94/94 171/171/171
f 6/6/6 55/55/55 85/85/85
f 24/24/24 83/83/83 54/54/54
f 5/5/5 135/135/135 29/29/29
f 24/24/24 143/143/143 59/59/59
f 143/143/143 169/169/169 39/39/39
f 177/177/177 54/54/54 140/140/140
f 49/49/49 177/177/177 149/149/149
f 177/177/177 140/140/140 95/95/95
f 157/157/157 169/169/169 37/37/37
f 147/147/147 49/49/49 149/149/149
f 170/170/170 138/138/138 109/109/109
f 109/109/109 157/157/157 147/147/147
f 37/37/37 169/169/169 143/143/143
f 37/37/37 143/143/143 24/24/24
f 170/170/170 109/109/109 147/147/147
f 157/157/157 10/10/10 90/90/90
f 109/109/109 138/138/138 98/98/98
f 109/109/109 10/10/10 157/157/157
f 161/161/161 63/63/63 170/170/170
f 170/170/170 53/53/53 138/138/138
f 121/121/121 97/97/97 63/63/63
f 97/97/97 170/170/170 63/63/63
f 161/161/161 170/170/170 147/147/147
f 66/66/66 161/161/161 149/149/149
f 66/66/66 149/149/149 95/95/95
f 158/158/158 66/66/66 80/80/80
f 13/13/13 25/25/25 127/127/127
f 158/158/158 178/178/178 63/63/63
f 78/78/78 125/125/125 9/9/9
f 28/28/28 105/105/105 52/52/52
f 160/160/160 72/72/72 60/60/60
f 11/11/11 144/144/144 107/107/107
f 122/122/122 53/53/53 97/97/97
f 142/142/142 101/101/101 35/35/35
f 101/101/101 43/43/43 35/35/35
f 154/154/154 132/132/132 162/162/162
f 150/150/150 63/63/63 178/178/178
f 65/65/65 178/178/178 158/158/158
f 87/87/87 46/46/46 40/40/40
f 97/97/97 53/53/53 170/170/170
f 155/155/155 121/121/121 150/150/150
f 159/159/159 155/155/155 148/148/148
f 144/144/144 146/146/146 153/153/153
f 11/11/11 155/155/155 144/144/144
f 65/65/65 146/146/146 150/150/150
f 106/106/106 153/153/153 81/81/81
f 146/146/146 155/155/155 150/150/150
f 65/65/65 150/150/150 178/178/178
f 50/50/50 168/168/168 32/32/32
f 72/72/72 145/145/145 65/65/65
f 162/162/162 167/167/167 81/81/81
f 100/100/100 35/35/35 43/43/43
f 167/167/167 106/106/106 81/81/81
f 81/81/81 153/153/153 130/130/130
f 167/167/167 111/111/111 106/106/106
f 107/107/107 106/106/106 33/33/33
f 154/154/154 162/162/162 96/96/96
f 111/111/111 52/52/52 105/105/105
f 174/174/174 105/105/105 8/8/8
f 173/173/173 139/139/139 43/43/43
f 59/59/59 143/143/143 91/91/91
f 108/108/108 33/33/33 111/111/111
f 173/173/173 108/108/108 139/139/139
f 39/39/39 91/91/91 143/143/143
f 173/173/173 33/33/33 108/108/108
f 110/110/110 173/173/173 43/43/43
f 107/107/107 33/33/33 173/173/173
f 110/110/110 101/101/101 11/11/11
f 144/144/144 155/155/155 146/146/146
f 144/144/144 153/153/153 106/106/106
f 144/144/144 106/106/106 107/107/107
f 110/110/110 43/43/43 101/101/101
f 46/46/46 101/101/101 142/142/142
f 86/86/86 46/46/46 142/142/142
f 110/110/110 11/11/11 107/107/107
f 110/110/110 107/107/107 173/173/173
f 56/56/56 99/99/99 36/36/36
f 159/159/159 87/87/87 40/40/40
f 74/74/74 139/139/139 108/108/108
f 100/100/100 43/43/43 139/139/139
f 108/108/108 111/111/111 174/174/174
f 105/105/105 174/174/174 111/111/111
f 40/40/40 46/46/46 86/86/86
f 16/16/16 100/100/100 139/139/139
f 102/102/102 35/35/35 100/100/100
f 68/68/68 142/142/142 102/102/102
f 88/88/88 99/99/99 56/56/56
f 142/142/142 35/35/35 102/102/102
f 88/88/88 40/40/40 86/86/86
f 148/148/148 101/101/101 46/46/46
f 19/19/19 86/86/86 142/142/142
f 88/88/88 56/56/56 40/40/40
f 122/122/122 159/159/159 40/40/40
f 148/148/148 46/46/46 87/87/87
f 122/122/122 40/40/40 56/56/56
f 159/159/159 148/148/148 87/87/87
f 148/148/148 155/155/155 11/11/11
f 148/148/148 11/11/11 101/101/101
f 159/159/159 97/97/97 121/121/121
f 159/159/159 121/121/121 155/155/155
f 122/122/122 56/56/56 53/53/53
f 122/122/122 97/97/97 159/159/159
f 67/67/67 88/88/88 86/86/86
f 7/7/7 99/99/99 88/88/88
f 7/7/7 70/70/70 99/99/99
f 67/67/67 7/7/7 88/88/88
f 19/19/19 67/67/67 86/86/86
f 68/68/68 19/19/19 142/142/142
f 73/73/73 102/102/102 100/100/100
f 4/4/4 68/68/68 102/102/102
f 73/73/73 4/4/4 102/102/102
f 16/16/16 73/73/73 100/100/100
f 74/74/74 16/16/16 139/139/139
f 174/174/174 74/74/74 108/108/108
f 123/123/123 27/27/27 61/61/61
f 132/132/132 26/26/26 28/28/28
f 44/44/44 126/126/126 26/26/26
f 79/79/79 13/13/13 124/124/124
f 118/118/118 133/133/133 14/14/14
f 37/37/37 24/24/24 49/49/49
f 126/126/126 17/17/17 71/71/71
f 128/128/128 71/71/71 8/8/8
f 128/128/128 8/8/8 105/105/105
f 28/28/28 128/128/128 105/105/105
f 26/26/26 128/128/128 28/28/28
f 167/167/167 28/28/28 52/52/52
f 132/132/132 127/127/127 26/26/26
f 45/45/45 92/92/92 93/93/93
f 38/38/38 93/93/93 92/92/92
f 127/127/127 44/44/44 26/26/26
f 44/44/44 17/17/17 126/126/126
f 131/131/131 25/25/25 13/13/13
f 157/157/157 37/37/37 147/147/147
f 130/130/130 153/153/153 146/146/146
f 127/127/127 25/25/25 44/44/44
f 26/26/26 126/126/126 128/128/128
f 27/27/27 124/124/124 61/61/61
f 167/167/167 132/132/132 28/28/28
f 145/145/145 130/130/130 65/65/65
f 167/167/167 52/52/52 111/111/111
f 146/146/146 65/65/65 130/130/130
f 77/77/77 2/2/2 119/119/119
f 124/124/124 154/154/154 61/61/61
f 119/119/119 2/2/2 175/175/175
f 162/162/162 132/132/132 167/167/167
f 5/5/5 175/175/175 103/103/103
f 77/77/77 119/119/119 118/118/118
f 72/72/72 65/65/65 158/158/158
f 96/96/96 145/145/145 160/160/160
f 72/72/72 158/158/158 80/80/80
f 160/160/160 60/60/60 168/168/168
f 60/60/60 80/80/80 168/168/168
f 160/160/160 168/168/168 50/50/50
f 96/96/96 50/50/50 61/61/61
f 160/160/160 145/145/145 72/72/72
f 71/71/71 128/128/128 126/126/126
f 77/77/77 118/118/118 14/14/14
f 154/154/154 96/96/96 61/61/61
f 123/123/123 50/50/50 32/32/32
f 96/96/96 162/162/162 145/145/145
f 96/96/96 160/160/160 50/50/50
f 154/154/154 13/13/13 127/127/127
f 154/154/154 127/127/127 132/132/132
f 131/131/131 13/13/13 79/79/79
f 124/124/124 13/13/13 154/154/154
f 85/85/85 59/59/59 6/6/6
f 27/27/27 133/133/133 124/124/124
f 123/123/123 61/61/61 50/50/50
f 27/27/27 123/123/123 125/125/125
f 62/62/62 125/125/125 123/123/123
f 62/62/62 136/136/136 117/117/117
f 9/9/9 117/117/117 75/75/75
f 91/91/91 6/6/6 59/59/59
f 78/78/78 133/133/133 125/125/125
f 14/14/14 133/133/133 78/78/78
f 119/119/119 29/29/29 118/118/118
f 49/49/49 147/147/147 37/37/37
f 131/131/131 79/79/79 118/118/118
f 79/79/79 124/124/124 133/133/133
f 79/79/79 133/133/133 118/118/118
f 29/29/29 131/131/131 118/118/118
f 136/136/136 62/62/62 32/32/32
f 119/119/119 175/175/175 5/5/5
f 5/5/5 103/103/103 135/135/135
f 135/135/135 17/17/17 44/44/44
f 135/135/135 103/103/103 17/17/17
f 131/131/131 44/44/44 25/25/25
f 84/84/84 47/47/47 12/12/12
f 114/114/114 12/12/12 47/47/47
