# frame 001143 
# time 0.572000 
# name Cloth3D 
v -0.000000 0.000000 -0.000000
v 1.000000 0.000000 -0.000000
v -0.000000 1.000000 0.000000
v 1.000000 1.000000 0.000000
v 0.936874 0.125844 -0.001411
v -0.000000 0.500000 0.000000
v 0.500000 1.000000 0.000000
v 1.000000 0.500000 0.000000
v 0.500000 -0.000000 0.000000
v 0.240811 0.758696 0.102697
v 0.756964 0.755117 0.092413
v 0.248198 0.251726 0.058341
v 0.750684 0.253401 0.045883
v 0.750000 0.000000 0.000000
v 0.250000 0.000000 0.000000
v 1.000000 0.750000 0.000000
v 1.000000 0.250000 0.000000
v 0.250000 1.000000 0.000000
v 0.750000 1.000000 0.000000
v 0.000000 0.250000 0.000000
v 0.000000 0.750000 -0.000000
v 0.364669 0.222745 0.059768
v 0.059564 0.876763 0.021929
v 0.235498 0.519761 0.111968
v 0.812709 0.253434 0.032457
v 0.879592 0.376891 0.046614
v 0.624771 0.126688 0.031194
v 0.881329 0.439738 0.055006
v 0.874096 0.126808 0.004398
v 0.374783 0.126607 0.033500
v 0.124114 0.124836 0.024420
v 0.492491 0.253702 0.071752
v 0.884201 0.627334 0.065001
v 0.122875 0.940484 0.022469
v 0.876520 0.876395 0.028452
v 0.372507 0.883674 0.069738
v 0.248131 0.605997 0.133424
v 0.120379 0.879264 0.040097
v 0.118101 0.628114 0.063048
v 0.626191 0.880678 0.062978
v 0.122686 0.377740 0.041709
v 0.249590 0.125016 0.032960
v 0.878076 0.751073 0.045673
v 0.875106 0.252335 0.021853
v 0.246703 0.879380 0.052905
v 0.751629 0.878047 0.047944
v 0.124383 0.251773 0.029138
v 0.116292 0.754175 0.061130
v 0.308615 0.600903 0.169334
v 0.583579 0.308386 0.084124
v 0.062500 1.000000 0.000000
v 0.883005 0.502457 0.061246
v 0.432697 0.784563 0.124406
v 0.242181 0.460625 0.094402
v 0.000000 0.375000 0.000000
v 0.499819 0.883871 0.072477
v 0.500612 0.635109 0.175413
v 0.247242 0.379859 0.074964
v 0.117517 0.502483 0.061071
v 0.521548 0.419493 0.115311
v 0.626170 0.253110 0.065142
v 0.499834 0.126753 0.034563
v 0.496889 0.619995 0.180247
v 0.000000 0.625000 0.000000
v 0.648466 0.531623 0.149787
v 0.444794 0.539625 0.152153
v 0.625000 1.000000 0.000000
v 0.875000 1.000000 0.000000
v 0.125000 1.000000 0.000000
v 0.375000 1.000000 0.000000
v 1.000000 0.375000 0.000000
v 0.568664 0.466853 0.128763
v 1.000000 0.875000 0.000000
v 1.000000 0.625000 0.000000
v 0.375000 0.000000 0.000000
v 0.125000 0.000000 0.000000
v 0.875000 0.000000 0.000000
v 0.625000 0.000000 0.000000
v 0.749365 0.127178 0.018793
v 0.473466 0.485010 0.132377
v 0.774408 0.520515 0.117812
v 0.061044 0.313660 0.020669
v 0.182377 0.441593 0.071829
v 0.185880 0.315692 0.050174
v 0.058668 0.438789 0.029219
v 0.687473 0.938772 0.026372
v 0.691389 0.819142 0.084550
v 0.562581 0.942187 0.036328
v 0.057968 0.689119 0.032660
v 0.176531 0.693309 0.092915
v 0.060073 0.564046 0.029023
v 0.185946 0.939525 0.023441
v 0.180407 0.818827 0.068961
v 0.060911 0.938968 0.013539
v 0.392181 0.492224 0.134581
v 0.675978 0.362309 0.093051
v 0.507458 0.737562 0.143802
v 0.306828 0.822920 0.093961
v 0.436871 0.943567 0.038888
v 0.938707 0.812762 0.019484
v 0.815775 0.815085 0.055492
v 0.937341 0.937356 0.005125
v 0.874238 0.189740 0.011416
v 0.576476 0.848442 0.086524
v 0.942536 0.501229 0.032624
v 0.835426 0.595197 0.101178
v 0.821949 0.690979 0.086981
v 0.941591 0.625921 0.031406
v 0.309206 0.710369 0.134935
v 0.817680 0.752644 0.069049
v 0.885458 0.565008 0.067733
v 0.187322 0.062304 0.015321
v 0.061907 0.062089 0.011263
v 0.186495 0.188306 0.038139
v 0.312483 0.062433 0.018595
v 0.311714 0.188525 0.051433
v 0.437379 0.064254 0.013877
v 0.811890 0.063686 0.004314
v 0.937177 0.063024 0.003762
v -0.000000 0.937500 0.000000
v 0.594740 0.686605 0.157719
v 0.525567 0.815436 0.107684
v 0.562833 0.188838 0.055443
v 0.687980 0.189439 0.043727
v 0.562283 0.063058 0.017757
v 0.938517 0.313746 0.017249
v 0.814774 0.315787 0.048135
v 0.942044 0.438620 0.030608
v 0.311414 0.940333 0.030343
v 0.719866 0.525370 0.141658
v 0.811890 0.190384 0.021312
v 0.806160 0.375129 0.068688
v 0.687129 0.063359 0.013235
v 0.398898 0.381573 0.103767
v 0.936827 0.188682 0.003638
v 0.437291 0.190317 0.051591
v 0.061913 0.187979 0.014957
v 0.374598 0.781209 0.122289
v 0.939994 0.688017 0.027024
v 0.320469 0.455614 0.115057
v 0.059655 0.814095 0.024515
v 0.812695 0.938569 0.019773
v 0.175691 0.566270 0.096431
v 0.780984 0.653912 0.120706
v 0.674610 0.473205 0.126685
v 0.719476 0.620873 0.180420
v 0.319684 0.619193 0.180424
v 0.724152 0.777859 0.093582
v 0.359203 0.546185 0.153509
v 0.619783 0.620501 0.180292
v 0.184153 0.378527 0.061545
v 0.294307 0.335993 0.079414
v 0.736300 0.616870 0.168398
v 0.716450 0.303566 0.070074
v 0.682195 0.677957 0.151677
v 0.329851 0.279847 0.068891
v 0.268671 0.665173 0.136451
v 0.533856 0.522542 0.145038
v 0.616230 0.780751 0.115658
v 0.598390 0.372181 0.100036
v 0.414603 0.619649 0.180245
v 0.720759 0.427248 0.102634
v -0.000000 0.062500 -0.000000
v 0.122660 0.314367 0.038826
v 0.417840 0.259609 0.073547
v 0.062371 0.125098 0.011156
v 0.822644 0.485283 0.087319
v 0.478214 0.367265 0.103007
v 0.178598 0.629555 0.091561
v 0.407566 0.672348 0.165060
v -0.000000 0.875000 -0.000000
v 0.000000 0.812500 -0.000000
v 0.880247 0.689102 0.055053
v 1.000000 0.562500 0.000000
v 1.000000 0.125000 -0.000000
v -0.000000 0.562500 0.000000
v 0.320085 0.506065 0.134484
v 0.000000 0.187500 0.000000
vt 0.000000 0.000000
vt 1.000000 0.000000
vt 0.000000 1.000000
vt 1.000000 1.000000
vt 0.937500 0.125000
vt 0.000000 0.500000
vt 0.500000 1.000000
vt 1.000000 0.500000
vt 0.500000 0.000000
vt 0.250000 0.750000
vt 0.750000 0.750000
vt 0.250000 0.250000
vt 0.750000 0.250000
vt 0.750000 0.000000
vt 0.250000 0.000000
vt 1.000000 0.750000
vt 1.000000 0.250000
vt 0.250000 1.000000
vt 0.750000 1.000000
vt 0.000000 0.250000
vt 0.000000 0.750000
vt 0.365347 0.220303
vt 0.062500 0.875000
vt 0.245672 0.515386
vt 0.812500 0.250000
vt 0.875000 0.375000
vt 0.625000 0.125000
vt 0.875000 0.437500
vt 0.875000 0.125000
vt 0.375000 0.125000
vt 0.125000 0.125000
vt 0.492214 0.250470
vt 0.875000 0.625000
vt 0.125000 0.937500
vt 0.875000 0.875000
vt 0.375000 0.875000
vt 0.262101 0.599801
vt 0.125000 0.875000
vt 0.125000 0.625000
vt 0.625000 0.875000
vt 0.125000 0.375000
vt 0.250000 0.125000
vt 0.875000 0.750000
vt 0.875000 0.250000
vt 0.250000 0.875000
vt 0.750000 0.875000
vt 0.125000 0.250000
vt 0.125000 0.750000
vt 0.325445 0.593646
vt 0.581754 0.304126
vt 0.062500 1.000000
vt 0.875000 0.500000
vt 0.435664 0.771773
vt 0.248222 0.455442
vt 0.000000 0.375000
vt 0.500000 0.875000
vt 0.500000 0.625000
vt 0.250000 0.375000
vt 0.125000 0.500000
vt 0.519707 0.411902
vt 0.625000 0.250000
vt 0.500000 0.125000
vt 0.496513 0.610036
vt 0.000000 0.625000
vt 0.636517 0.523144
vt 0.447814 0.530275
vt 0.625000 1.000000
vt 0.875000 1.000000
vt 0.125000 1.000000
vt 0.375000 1.000000
vt 1.000000 0.375000
vt 0.564051 0.458319
vt 1.000000 0.875000
vt 1.000000 0.625000
vt 0.375000 0.000000
vt 0.125000 0.000000
vt 0.875000 0.000000
vt 0.625000 0.000000
vt 0.750000 0.125000
vt 0.473805 0.475426
vt 0.760524 0.515669
vt 0.062500 0.312500
vt 0.187500 0.437500
vt 0.187500 0.312500
vt 0.062500 0.437500
vt 0.687500 0.937500
vt 0.687500 0.812500
vt 0.562500 0.937500
vt 0.062500 0.687500
vt 0.187500 0.687500
vt 0.062500 0.562500
vt 0.187500 0.937500
vt 0.187500 0.812500
vt 0.062500 0.937500
vt 0.396781 0.484194
vt 0.671367 0.358455
vt 0.506884 0.725192
vt 0.312500 0.812500
vt 0.437500 0.937500
vt 0.937500 0.812500
vt 0.812500 0.812500
vt 0.937500 0.937500
vt 0.875000 0.187500
vt 0.575008 0.839595
vt 0.937500 0.500000
vt 0.819332 0.591237
vt 0.812500 0.687500
vt 0.937500 0.625000
vt 0.319123 0.700934
vt 0.812500 0.750000
vt 0.875000 0.562500
vt 0.187500 0.062500
vt 0.062500 0.062500
vt 0.187500 0.187500
vt 0.312500 0.062500
vt 0.312500 0.187500
vt 0.437500 0.062500
vt 0.812500 0.062500
vt 0.937500 0.062500
vt 0.000000 0.937500
vt 0.587160 0.675778
vt 0.525016 0.804189
vt 0.562500 0.187500
vt 0.687500 0.187500
vt 0.562500 0.062500
vt 0.937500 0.312500
vt 0.812500 0.312500
vt 0.937500 0.437500
vt 0.312500 0.937500
vt 0.704330 0.519877
vt 0.812500 0.187500
vt 0.800716 0.372483
vt 0.687500 0.062500
vt 0.400647 0.375957
vt 0.937500 0.187500
vt 0.437500 0.187500
vt 0.062500 0.187500
vt 0.380019 0.768564
vt 0.937500 0.687500
vt 0.326037 0.449751
vt 0.062500 0.812500
vt 0.812500 0.937500
vt 0.187500 0.562500
vt 0.765906 0.648544
vt 0.665088 0.466564
vt 0.693752 0.609069
vt 0.337938 0.610751
vt 0.718294 0.771897
vt 0.368720 0.538399
vt 0.607781 0.610435
vt 0.187500 0.375000
vt 0.296906 0.332149
vt 0.711873 0.607167
vt 0.713437 0.300753
vt 0.668274 0.669022
vt 0.331126 0.276226
vt 0.281585 0.657008
vt 0.530429 0.512451
vt 0.611736 0.771102
vt 0.595175 0.366343
vt 0.421836 0.610125
vt 0.713353 0.422290
vt 0.000000 0.062500
vt 0.125000 0.312500
vt 0.418341 0.256674
vt 0.062500 0.125000
vt 0.812755 0.481587
vt 0.477835 0.361491
vt 0.187500 0.625000
vt 0.414679 0.661630
vt 0.000000 0.875000
vt 0.000000 0.812500
vt 0.875000 0.687500
vt 1.000000 0.562500
vt 1.000000 0.125000
vt 0.000000 0.562500
vt 0.328578 0.500574
vt 0.000000 0.187500
vn -0.122325 -0.061163 0.990604
vn 0.033407 -0.033407 0.998883
vn 0.000000 0.000000 1.000000
vn 0.037393 0.037393 0.998601
vn 0.039104 -0.000643 0.999235
vn -0.440712 0.002570 0.897645
vn 0.010052 0.547688 0.836622
vn 0.492085 -0.008659 0.870504
vn -0.016792 -0.241180 0.970335
vn -0.262374 0.269748 0.926497
vn 0.307889 0.315767 0.897494
vn -0.139666 -0.157289 0.977627
vn 0.220446 -0.241987 0.944905
vn 0.035733 -0.138262 0.989751
vn -0.011058 -0.256571 0.966462
vn 0.354961 0.027375 0.934480
vn 0.168396 -0.052329 0.984329
vn -0.026708 0.403305 0.914676
vn 0.023366 0.352927 0.935359
vn -0.266906 -0.017645 0.963561
vn -0.435438 0.024603 0.899883
vn -0.041237 -0.240242 0.969837
vn -0.304825 0.064551 0.950218
vn -0.334345 -0.249241 0.908896
vn 0.182870 -0.208234 0.960832
vn 0.305850 -0.167992 0.937142
vn 0.061937 -0.260861 0.963387
vn 0.362968 -0.128321 0.922924
vn 0.091924 -0.062424 0.993807
vn 0.018006 -0.264182 0.964305
vn -0.137391 -0.092533 0.986185
vn -0.004483 -0.272401 0.962173
vn 0.515293 0.112438 0.849607
vn -0.073060 0.314701 0.946375
vn 0.202749 0.197946 0.959015
vn -0.076404 0.479444 0.874240
vn -0.484822 0.028890 0.874136
vn -0.197594 0.209055 0.957733
vn -0.459019 0.004566 0.888415
vn 0.107121 0.459839 0.881517
vn -0.296877 -0.087697 0.950880
vn -0.060925 -0.220566 0.973467
vn 0.380086 0.164711 0.910168
vn 0.169023 -0.170045 0.970833
vn -0.117841 0.419085 0.900267
vn 0.137702 0.363170 0.921491
vn -0.213836 -0.097966 0.971945
vn -0.396407 0.110573 0.911392
vn -0.544494 -0.124872 0.829417
vn 0.053705 -0.258123 0.964618
vn -0.054786 0.164357 0.984878
vn 0.416305 -0.094985 0.904250
vn -0.029493 0.409233 0.911953
vn -0.266366 -0.282190 0.921639
vn -0.382399 -0.035625 0.923310
vn 0.025234 0.480056 0.876875
vn 0.000819 0.304414 0.952540
vn -0.239416 -0.190777 0.951990
vn -0.421323 -0.090075 0.902427
vn 0.011958 -0.259796 0.965590
vn 0.091966 -0.255765 0.962355
vn -0.019072 -0.286465 0.957901
vn -0.000610 0.200266 0.979741
vn -0.460728 -0.012275 0.887456
vn 0.039427 -0.341439 0.939077
vn -0.000869 -0.338943 0.940807
vn 0.039908 0.464670 0.884584
vn 0.060457 0.193896 0.979157
vn -0.040306 0.317217 0.947496
vn -0.033332 0.510206 0.859406
vn 0.365123 -0.054156 0.929383
vn -0.000626 -0.289795 0.957089
vn 0.190989 0.058978 0.979819
vn 0.463635 0.022212 0.885748
vn 0.018517 -0.249856 0.968106
vn -0.014482 -0.203293 0.979011
vn 0.000493 -0.067600 0.997712
vn 0.017061 -0.240481 0.970504
vn 0.115000 -0.184558 0.976070
vn -0.002320 -0.304973 0.952358
vn 0.391059 -0.278295 0.877283
vn -0.288356 -0.064228 0.955367
vn -0.281002 -0.205830 0.937375
vn -0.198379 -0.150139 0.968558
vn -0.393687 -0.055902 0.917543
vn 0.060703 0.416827 0.906957
vn 0.171115 0.388363 0.905480
vn 0.046386 0.499238 0.865222
vn -0.469849 0.006491 0.882723
vn -0.404799 0.063739 0.912182
vn -0.462613 -0.009408 0.886510
vn -0.028908 0.348302 0.936936
vn -0.224623 0.277709 0.934035
vn -0.183039 0.209448 0.960535
vn -0.040923 -0.332131 0.942345
vn 0.115480 -0.275174 0.954434
vn 0.029525 0.365180 0.930469
vn -0.152046 0.411443 0.898664
vn -0.017405 0.518477 0.854915
vn 0.291253 0.076716 0.953565
vn 0.278884 0.238408 0.930261
vn 0.106503 0.105745 0.988673
vn 0.134003 -0.135739 0.981641
vn 0.088278 0.461696 0.882635
vn 0.470432 -0.034521 0.881761
vn 0.529671 0.028945 0.847709
vn 0.436299 0.238180 0.867706
vn 0.481378 0.070977 0.873635
vn -0.237949 0.335030 0.911666
vn 0.354976 0.247448 0.901533
vn 0.500018 -0.034661 0.865321
vn -0.029993 -0.217137 0.975680
vn -0.131038 -0.059694 0.989579
vn -0.145389 -0.126555 0.981247
vn -0.001122 -0.260252 0.965540
vn -0.031613 -0.220624 0.974847
vn 0.000652 -0.254106 0.967176
vn 0.046493 -0.091394 0.994729
vn 0.028356 0.014480 0.999493
vn -0.197555 0.087240 0.976402
vn 0.064863 0.353397 0.933222
vn 0.052772 0.445208 0.893871
vn 0.033990 -0.279961 0.959409
vn 0.127840 -0.252825 0.959029
vn 0.006408 -0.253556 0.967300
vn 0.260124 -0.099247 0.960461
vn 0.230465 -0.255899 0.938830
vn 0.417776 -0.069096 0.905919
vn -0.065557 0.457559 0.886759
vn 0.220968 -0.347821 0.911149
vn 0.160572 -0.166190 0.972932
vn 0.271430 -0.241131 0.931763
vn 0.051951 -0.194276 0.979570
vn -0.069816 -0.255846 0.964193
vn 0.093267 -0.088833 0.991670
vn -0.018857 -0.288434 0.957314
vn -0.222926 -0.042897 0.973891
vn -0.104362 0.388545 0.915501
vn 0.423911 0.075682 0.902536
vn -0.175062 -0.318366 0.931663
vn -0.382767 0.064540 0.921588
vn 0.079233 0.296909 0.951613
vn -0.436570 -0.033910 0.899031
vn 0.470505 0.312455 0.825225
vn 0.092174 -0.334343 0.937933
vn 0.503717 0.237138 0.830684
vn -0.451418 -0.060331 0.890271
vn 0.237680 0.357854 0.903022
vn -0.039573 -0.358600 0.932652
vn 0.025733 0.101089 0.994545
vn -0.235059 -0.153022 0.959860
vn -0.167649 -0.203612 0.964591
vn 0.564029 0.199281 0.801348
vn 0.188074 -0.276505 0.942429
vn 0.188385 0.443843 0.876079
vn -0.077562 -0.216490 0.973199
vn -0.422353 0.208382 0.882154
vn -0.008109 -0.315489 0.948895
vn 0.121316 0.418361 0.900143
vn 0.039326 -0.263377 0.963891
vn 0.000704 0.014534 0.999894
vn 0.218923 -0.289251 0.931883
vn -0.181260 0.002069 0.983433
vn -0.248045 -0.117295 0.961621
vn -0.042524 -0.275882 0.960250
vn -0.209350 -0.022516 0.977582
vn 0.386718 -0.180634 0.904334
vn 0.000311 -0.248914 0.968526
vn -0.446983 0.040014 0.893647
vn -0.032130 0.314908 0.948578
vn -0.340143 -0.000000 0.940374
vn -0.369128 0.010105 0.929323
vn 0.465612 0.147456 0.872618
vn 0.492328 0.004015 0.870401
vn 0.007771 0.001916 0.999968
vn -0.436127 0.000000 0.899885
vn -0.151200 -0.361360 0.920086
vn -0.224764 -0.016969 0.974266
f 1/1/1 113/113/113 163/163/163
f 127/127/127 126/126/126 26/26/26
f 140/140/140 152/152/152 134/134/134
f 166/166/166 163/163/163 113/113/113
f 84/84/84 152/152/152 58/58/58
f 166/166/166 178/178/178 163/163/163
f 166/166/166 137/137/137 178/178/178
f 112/112/112 114/114/114 31/31/31
f 147/147/147 49/49/49 177/177/177
f 42/42/42 114/114/114 112/112/112
f 31/31/31 166/166/166 113/113/113
f 116/116/116 115/115/115 30/30/30
f 31/31/31 137/137/137 166/166/166
f 134/134/134 156/156/156 165/165/165
f 128/128/128 8/8/8 105/105/105
f 76/76/76 113/113/113 1/1/1
f 127/127/127 44/44/44 126/126/126
f 15/15/15 112/112/112 76/76/76
f 177/177/177 54/54/54 140/140/140
f 75/75/75 115/115/115 15/15/15
f 116/116/116 12/12/12 42/42/42
f 136/136/136 30/30/30 117/117/117
f 125/125/125 133/133/133 27/27/27
f 22/22/22 30/30/30 136/136/136
f 114/114/114 42/42/42 12/12/12
f 32/32/32 165/165/165 136/136/136
f 22/22/22 136/136/136 165/165/165
f 156/156/156 152/152/152 12/12/12
f 156/156/156 116/116/116 22/22/22
f 177/177/177 149/149/149 147/147/147
f 116/116/116 30/30/30 22/22/22
f 54/54/54 58/58/58 140/140/140
f 42/42/42 115/115/115 116/116/116
f 156/156/156 12/12/12 116/116/116
f 164/164/164 151/151/151 41/41/41
f 66/66/66 158/158/158 63/63/63
f 140/140/140 134/134/134 95/95/95
f 156/156/156 22/22/22 165/165/165
f 134/134/134 165/165/165 168/168/168
f 41/41/41 151/151/151 83/83/83
f 128/128/128 71/71/71 8/8/8
f 26/26/26 128/128/128 28/28/28
f 60/60/60 160/160/160 72/72/72
f 168/168/168 165/165/165 32/32/32
f 80/80/80 134/134/134 168/168/168
f 134/134/134 152/152/152 156/156/156
f 157/157/157 169/169/169 37/37/37
f 95/95/95 134/134/134 80/80/80
f 138/138/138 53/53/53 36/36/36
f 131/131/131 79/79/79 29/29/29
f 49/49/49 24/24/24 177/177/177
f 118/118/118 29/29/29 79/79/79
f 84/84/84 58/58/58 151/151/151
f 77/77/77 2/2/2 119/119/119
f 77/77/77 119/119/119 118/118/118
f 119/119/119 29/29/29 118/118/118
f 24/24/24 59/59/59 83/83/83
f 83/83/83 58/58/58 54/54/54
f 135/135/135 17/17/17 44/44/44
f 83/83/83 151/151/151 58/58/58
f 41/41/41 85/85/85 82/82/82
f 82/82/82 137/137/137 47/47/47
f 113/113/113 76/76/76 31/31/31
f 84/84/84 12/12/12 152/152/152
f 25/25/25 44/44/44 127/127/127
f 112/112/112 31/31/31 76/76/76
f 164/164/164 47/47/47 84/84/84
f 164/164/164 84/84/84 151/151/151
f 82/82/82 164/164/164 41/41/41
f 82/82/82 47/47/47 164/164/164
f 126/126/126 44/44/44 17/17/17
f 20/20/20 137/137/137 82/82/82
f 20/20/20 178/178/178 137/137/137
f 55/55/55 20/20/20 82/82/82
f 37/37/37 24/24/24 49/49/49
f 120/120/120 51/51/51 3/3/3
f 115/115/115 75/75/75 30/30/30
f 141/141/141 38/38/38 23/23/23
f 119/119/119 175/175/175 5/5/5
f 45/45/45 98/98/98 36/36/36
f 34/34/34 92/92/92 69/69/69
f 48/48/48 89/89/89 90/90/90
f 92/92/92 18/18/18 69/69/69
f 34/34/34 94/94/94 38/38/38
f 23/23/23 38/38/38 94/94/94
f 109/109/109 157/157/157 147/147/147
f 161/161/161 147/147/147 149/149/149
f 121/121/121 97/97/97 57/57/57
f 56/56/56 53/53/53 122/122/122
f 98/98/98 138/138/138 36/36/36
f 129/129/129 45/45/45 36/36/36
f 109/109/109 98/98/98 10/10/10
f 105/105/105 174/174/174 111/111/111
f 93/93/93 38/38/38 48/48/48
f 92/92/92 45/45/45 18/18/18
f 36/36/36 99/99/99 129/129/129
f 129/129/129 70/70/70 18/18/18
f 129/129/129 18/18/18 45/45/45
f 34/34/34 38/38/38 92/92/92
f 70/70/70 129/129/129 99/99/99
f 94/94/94 69/69/69 51/51/51
f 94/94/94 34/34/34 69/69/69
f 120/120/120 94/94/94 51/51/51
f 23/23/23 120/120/120 171/171/171
f 172/172/172 23/23/23 171/171/171
f 48/48/48 141/141/141 21/21/21
f 39/39/39 90/90/90 89/89/89
f 23/23/23 94/94/94 120/120/120
f 172/172/172 141/141/141 23/23/23
f 21/21/21 141/141/141 172/172/172
f 39/39/39 169/169/169 90/90/90
f 84/84/84 114/114/114 12/12/12
f 48/48/48 90/90/90 10/10/10
f 48/48/48 38/38/38 141/141/141
f 93/93/93 48/48/48 10/10/10
f 108/108/108 111/111/111 174/174/174
f 177/177/177 140/140/140 95/95/95
f 149/149/149 177/177/177 95/95/95
f 117/117/117 30/30/30 75/75/75
f 143/143/143 39/39/39 59/59/59
f 89/89/89 48/48/48 21/21/21
f 55/55/55 82/82/82 85/85/85
f 64/64/64 89/89/89 21/21/21
f 47/47/47 114/114/114 84/84/84
f 6/6/6 91/91/91 176/176/176
f 135/135/135 44/44/44 103/103/103
f 5/5/5 175/175/175 135/135/135
f 59/59/59 91/91/91 85/85/85
f 5/5/5 103/103/103 29/29/29
f 6/6/6 85/85/85 91/91/91
f 6/6/6 55/55/55 85/85/85
f 24/24/24 83/83/83 54/54/54
f 59/59/59 39/39/39 91/91/91
f 24/24/24 143/143/143 59/59/59
f 143/143/143 169/169/169 39/39/39
f 24/24/24 54/54/54 177/177/177
f 66/66/66 161/161/161 149/149/149
f 157/157/157 37/37/37 49/49/49
f 157/157/157 90/90/90 169/169/169
f 157/157/157 49/49/49 147/147/147
f 66/66/66 63/63/63 161/161/161
f 170/170/170 138/138/138 109/109/109
f 37/37/37 169/169/169 143/143/143
f 37/37/37 143/143/143 24/24/24
f 170/170/170 109/109/109 147/147/147
f 157/157/157 10/10/10 90/90/90
f 109/109/109 138/138/138 98/98/98
f 109/109/109 10/10/10 157/157/157
f 57/57/57 161/161/161 63/63/63
f 170/170/170 53/53/53 138/138/138
f 153/153/153 155/155/155 146/146/146
f 57/57/57 170/170/170 161/161/161
f 161/161/161 170/170/170 147/147/147
f 66/66/66 149/149/149 95/95/95
f 66/66/66 95/95/95 80/80/80
f 66/66/66 80/80/80 158/158/158
f 154/154/154 132/132/132 162/162/162
f 50/50/50 168/168/168 32/32/32
f 121/121/121 57/57/57 150/150/150
f 122/122/122 159/159/159 104/104/104
f 88/88/88 99/99/99 56/56/56
f 33/33/33 106/106/106 111/111/111
f 150/150/150 63/63/63 158/158/158
f 65/65/65 146/146/146 150/150/150
f 97/97/97 170/170/170 57/57/57
f 57/57/57 63/63/63 150/150/150
f 159/159/159 121/121/121 155/155/155
f 97/97/97 53/53/53 170/170/170
f 155/155/155 121/121/121 150/150/150
f 148/148/148 87/87/87 159/159/159
f 146/146/146 155/155/155 150/150/150
f 11/11/11 155/155/155 144/144/144
f 65/65/65 150/150/150 158/158/158
f 130/130/130 146/146/146 65/65/65
f 106/106/106 153/153/153 81/81/81
f 144/144/144 155/155/155 153/153/153
f 60/60/60 72/72/72 80/80/80
f 72/72/72 145/145/145 65/65/65
f 154/154/154 162/162/162 96/96/96
f 130/130/130 153/153/153 146/146/146
f 167/167/167 106/106/106 81/81/81
f 81/81/81 153/153/153 130/130/130
f 111/111/111 52/52/52 105/105/105
f 107/107/107 106/106/106 33/33/33
f 78/78/78 125/125/125 9/9/9
f 38/38/38 93/93/93 92/92/92
f 112/112/112 15/15/15 42/42/42
f 108/108/108 33/33/33 111/111/111
f 167/167/167 111/111/111 106/106/106
f 115/115/115 42/42/42 15/15/15
f 107/107/107 33/33/33 173/173/173
f 139/139/139 108/108/108 74/74/74
f 173/173/173 108/108/108 139/139/139
f 43/43/43 173/173/173 139/139/139
f 43/43/43 110/110/110 107/107/107
f 43/43/43 107/107/107 173/173/173
f 173/173/173 33/33/33 108/108/108
f 11/11/11 144/144/144 107/107/107
f 11/11/11 107/107/107 110/110/110
f 144/144/144 153/153/153 106/106/106
f 144/144/144 106/106/106 107/107/107
f 101/101/101 11/11/11 110/110/110
f 148/148/148 101/101/101 46/46/46
f 142/142/142 101/101/101 35/35/35
f 88/88/88 56/56/56 104/104/104
f 159/159/159 97/97/97 121/121/121
f 43/43/43 101/101/101 110/110/110
f 16/16/16 139/139/139 74/74/74
f 100/100/100 43/43/43 139/139/139
f 28/28/28 128/128/128 52/52/52
f 105/105/105 52/52/52 128/128/128
f 86/86/86 46/46/46 142/142/142
f 16/16/16 100/100/100 139/139/139
f 102/102/102 35/35/35 100/100/100
f 68/68/68 142/142/142 102/102/102
f 91/91/91 39/39/39 64/64/64
f 142/142/142 35/35/35 102/102/102
f 64/64/64 39/39/39 89/89/89
f 46/46/46 101/101/101 142/142/142
f 19/19/19 86/86/86 142/142/142
f 88/88/88 40/40/40 86/86/86
f 56/56/56 36/36/36 53/53/53
f 87/87/87 40/40/40 159/159/159
f 148/148/148 159/159/159 155/155/155
f 148/148/148 46/46/46 87/87/87
f 148/148/148 155/155/155 11/11/11
f 148/148/148 11/11/11 101/101/101
f 56/56/56 122/122/122 104/104/104
f 104/104/104 159/159/159 40/40/40
f 122/122/122 53/53/53 97/97/97
f 122/122/122 97/97/97 159/159/159
f 88/88/88 104/104/104 40/40/40
f 56/56/56 99/99/99 36/36/36
f 67/67/67 88/88/88 86/86/86
f 7/7/7 99/99/99 88/88/88
f 7/7/7 70/70/70 99/99/99
f 67/67/67 7/7/7 88/88/88
f 19/19/19 67/67/67 86/86/86
f 68/68/68 19/19/19 142/142/142
f 73/73/73 102/102/102 100/100/100
f 4/4/4 68/68/68 102/102/102
f 73/73/73 4/4/4 102/102/102
f 16/16/16 73/73/73 100/100/100
f 145/145/145 162/162/162 130/130/130
f 137/137/137 31/31/31 47/47/47
f 45/45/45 92/92/92 93/93/93
f 101/101/101 43/43/43 35/35/35
f 174/174/174 74/74/74 108/108/108
f 8/8/8 174/174/174 105/105/105
f 118/118/118 133/133/133 14/14/14
f 131/131/131 25/25/25 13/13/13
f 103/103/103 131/131/131 29/29/29
f 135/135/135 175/175/175 17/17/17
f 10/10/10 98/98/98 93/93/93
f 45/45/45 93/93/93 98/98/98
f 114/114/114 47/47/47 31/31/31
f 26/26/26 71/71/71 128/128/128
f 167/167/167 28/28/28 52/52/52
f 162/162/162 132/132/132 167/167/167
f 132/132/132 127/127/127 26/26/26
f 140/140/140 58/58/58 152/152/152
f 126/126/126 17/17/17 71/71/71
f 126/126/126 71/71/71 26/26/26
f 132/132/132 26/26/26 28/28/28
f 119/119/119 2/2/2 175/175/175
f 96/96/96 50/50/50 61/61/61
f 100/100/100 35/35/35 43/43/43
f 13/13/13 25/25/25 127/127/127
f 46/46/46 86/86/86 87/87/87
f 13/13/13 124/124/124 131/131/131
f 123/123/123 50/50/50 32/32/32
f 167/167/167 132/132/132 28/28/28
f 162/162/162 81/81/81 130/130/130
f 167/167/167 52/52/52 111/111/111
f 162/162/162 167/167/167 81/81/81
f 145/145/145 130/130/130 65/65/65
f 124/124/124 154/154/154 61/61/61
f 72/72/72 65/65/65 158/158/158
f 96/96/96 145/145/145 160/160/160
f 72/72/72 158/158/158 80/80/80
f 72/72/72 160/160/160 145/145/145
f 60/60/60 80/80/80 168/168/168
f 60/60/60 168/168/168 160/160/160
f 125/125/125 27/27/27 62/62/62
f 77/77/77 118/118/118 14/14/14
f 50/50/50 160/160/160 168/168/168
f 62/62/62 27/27/27 123/123/123
f 79/79/79 131/131/131 124/124/124
f 154/154/154 96/96/96 61/61/61
f 96/96/96 162/162/162 145/145/145
f 96/96/96 160/160/160 50/50/50
f 154/154/154 13/13/13 127/127/127
f 154/154/154 127/127/127 132/132/132
f 40/40/40 87/87/87 86/86/86
f 124/124/124 13/13/13 154/154/154
f 125/125/125 62/62/62 117/117/117
f 61/61/61 123/123/123 124/124/124
f 123/123/123 61/61/61 50/50/50
f 123/123/123 32/32/32 136/136/136
f 62/62/62 123/123/123 136/136/136
f 62/62/62 136/136/136 117/117/117
f 9/9/9 117/117/117 75/75/75
f 9/9/9 125/125/125 117/117/117
f 78/78/78 133/133/133 125/125/125
f 14/14/14 133/133/133 78/78/78
f 5/5/5 135/135/135 103/103/103
f 124/124/124 27/27/27 79/79/79
f 85/85/85 41/41/41 59/59/59
f 27/27/27 124/124/124 123/123/123
f 79/79/79 133/133/133 118/118/118
f 83/83/83 59/59/59 41/41/41
f 133/133/133 79/79/79 27/27/27
f 119/119/119 5/5/5 29/29/29
f 176/176/176 91/91/91 64/64/64
f 44/44/44 25/25/25 103/103/103
f 131/131/131 103/103/103 25/25/25
