# frame 001166 
# time 0.583500 
# name Box 
v 0.720523 0.386009 -0.333805
v 0.718931 0.764643 -0.204832
v 0.719473 0.635672 0.173805
v 0.720523 0.386009 -0.333805
v 0.719473 0.635672 0.173805
v 0.721065 0.257038 0.044832
v 0.320527 0.384328 -0.333805
v 0.321069 0.255357 0.044832
v 0.319477 0.633991 0.173805
v 0.320527 0.384328 -0.333805
v 0.319477 0.633991 0.173805
v 0.318935 0.762962 -0.204832
v 0.720523 0.386009 -0.333805
v 0.320527 0.384328 -0.333805
v 0.318935 0.762962 -0.204832
v 0.720523 0.386009 -0.333805
v 0.318935 0.762962 -0.204832
v 0.718931 0.764643 -0.204832
v 0.718931 0.764643 -0.204832
v 0.318935 0.762962 -0.204832
v 0.319477 0.633991 0.173805
v 0.718931 0.764643 -0.204832
v 0.319477 0.633991 0.173805
v 0.719473 0.635672 0.173805
v 0.719473 0.635672 0.173805
v 0.319477 0.633991 0.173805
v 0.321069 0.255357 0.044832
v 0.719473 0.635672 0.173805
v 0.321069 0.255357 0.044832
v 0.721065 0.257038 0.044832
v 0.320527 0.384328 -0.333805
v 0.720523 0.386009 -0.333805
v 0.721065 0.257038 0.044832
v 0.320527 0.384328 -0.333805
v 0.721065 0.257038 0.044832
v 0.321069 0.255357 0.044832
vn 0.199998 0.000841 0.000000
vn 0.199998 0.000841 0.000000
vn 0.199998 0.000841 0.000000
vn 0.199998 0.000841 0.000000
vn 0.199998 0.000841 0.000000
vn 0.199998 0.000841 0.000000
vn -0.199998 -0.000841 0.000000
vn -0.199998 -0.000841 0.000000
vn -0.199998 -0.000841 0.000000
vn -0.199998 -0.000841 0.000000
vn -0.199998 -0.000841 0.000000
vn -0.199998 -0.000841 0.000000
vn -0.000271 0.064486 -0.189319
vn -0.000271 0.064486 -0.189319
vn -0.000271 0.064486 -0.189319
vn -0.000271 0.064486 -0.189319
vn -0.000271 0.064486 -0.189319
vn -0.000271 0.064486 -0.189319
vn -0.000796 0.189317 0.064486
vn -0.000796 0.189317 0.064486
vn -0.000796 0.189317 0.064486
vn -0.000796 0.189317 0.064486
vn -0.000796 0.189317 0.064486
vn -0.000796 0.189317 0.064486
vn 0.000271 -0.064486 0.189319
vn 0.000271 -0.064486 0.189319
vn 0.000271 -0.064486 0.189319
vn 0.000271 -0.064486 0.189319
vn 0.000271 -0.064486 0.189319
vn 0.000271 -0.064486 0.189319
vn 0.000796 -0.189317 -0.064486
vn 0.000796 -0.189317 -0.064486
vn 0.000796 -0.189317 -0.064486
vn 0.000796 -0.189317 -0.064486
vn 0.000796 -0.189317 -0.064486
vn 0.000796 -0.189317 -0.064486
f 1/1/1 2/2/2 3/3/3
f 4/4/4 5/5/5 6/6/6
f 7/7/7 8/8/8 9/9/9
f 10/10/10 11/11/11 12/12/12
f 13/13/13 14/14/14 15/15/15
f 16/16/16 17/17/17 18/18/18
f 19/19/19 20/20/20 21/21/21
f 22/22/22 23/23/23 24/24/24
f 25/25/25 26/26/26 27/27/27
f 28/28/28 29/29/29 30/30/30
f 31/31/31 32/32/32 33/33/33
f 34/34/34 35/35/35 36/36/36
