# frame 001119 
# time 0.560000 
# name Box 
v 0.720394 0.416623 -0.346689
v 0.718877 0.777527 -0.174218
v 0.719602 0.605058 0.186689
v 0.720394 0.416623 -0.346689
v 0.719602 0.605058 0.186689
v 0.721119 0.244154 0.014218
v 0.320398 0.414942 -0.346689
v 0.321123 0.242473 0.014218
v 0.319606 0.603377 0.186689
v 0.320398 0.414942 -0.346689
v 0.319606 0.603377 0.186689
v 0.318881 0.775846 -0.174218
v 0.720394 0.416623 -0.346689
v 0.320398 0.414942 -0.346689
v 0.318881 0.775846 -0.174218
v 0.720394 0.416623 -0.346689
v 0.318881 0.775846 -0.174218
v 0.718877 0.777527 -0.174218
v 0.718877 0.777527 -0.174218
v 0.318881 0.775846 -0.174218
v 0.319606 0.603377 0.186689
v 0.718877 0.777527 -0.174218
v 0.319606 0.603377 0.186689
v 0.719602 0.605058 0.186689
v 0.719602 0.605058 0.186689
v 0.319606 0.603377 0.186689
v 0.321123 0.242473 0.014218
v 0.719602 0.605058 0.186689
v 0.321123 0.242473 0.014218
v 0.721119 0.244154 0.014218
v 0.320398 0.414942 -0.346689
v 0.720394 0.416623 -0.346689
v 0.721119 0.244154 0.014218
v 0.320398 0.414942 -0.346689
v 0.721119 0.244154 0.014218
v 0.321123 0.242473 0.014218
vn 0.199998 0.000841 0.000000
vn 0.199998 0.000841 0.000000
vn 0.199998 0.000841 0.000000
vn 0.199998 0.000841 0.000000
vn 0.199998 0.000841 0.000000
vn 0.199998 0.000841 0.000000
vn -0.199998 -0.000841 0.000000
vn -0.199998 -0.000841 0.000000
vn -0.199998 -0.000841 0.000000
vn -0.199998 -0.000841 0.000000
vn -0.199998 -0.000841 0.000000
vn -0.199998 -0.000841 0.000000
vn -0.000363 0.086235 -0.180454
vn -0.000363 0.086235 -0.180454
vn -0.000363 0.086235 -0.180454
vn -0.000363 0.086235 -0.180454
vn -0.000363 0.086235 -0.180454
vn -0.000363 0.086235 -0.180454
vn -0.000759 0.180452 0.086235
vn -0.000759 0.180452 0.086235
vn -0.000759 0.180452 0.086235
vn -0.000759 0.180452 0.086235
vn -0.000759 0.180452 0.086235
vn -0.000759 0.180452 0.086235
vn 0.000363 -0.086235 0.180454
vn 0.000363 -0.086235 0.180454
vn 0.000363 -0.086235 0.180454
vn 0.000363 -0.086235 0.180454
vn 0.000363 -0.086235 0.180454
vn 0.000363 -0.086235 0.180454
vn 0.000759 -0.180452 -0.086235
vn 0.000759 -0.180452 -0.086235
vn 0.000759 -0.180452 -0.086235
vn 0.000759 -0.180452 -0.086235
vn 0.000759 -0.180452 -0.086235
vn 0.000759 -0.180452 -0.086235
f 1/1/1 2/2/2 3/3/3
f 4/4/4 5/5/5 6/6/6
f 7/7/7 8/8/8 9/9/9
f 10/10/10 11/11/11 12/12/12
f 13/13/13 14/14/14 15/15/15
f 16/16/16 17/17/17 18/18/18
f 19/19/19 20/20/20 21/21/21
f 22/22/22 23/23/23 24/24/24
f 25/25/25 26/26/26 27/27/27
f 28/28/28 29/29/29 30/30/30
f 31/31/31 32/32/32 33/33/33
f 34/34/34 35/35/35 36/36/36
