# frame 001140 
# time 0.570500 
# name Cloth3D 
v -0.000000 0.000000 -0.000000
v 1.000000 0.000000 -0.000000
v -0.000000 1.000000 0.000000
v 1.000000 1.000000 0.000000
v 0.936891 0.125815 -0.001140
v -0.000000 0.500000 0.000000
v 0.500000 1.000000 0.000000
v 1.000000 0.500000 0.000000
v 0.500000 -0.000000 0.000000
v 0.240843 0.758395 0.101540
v 0.757159 0.755112 0.092375
v 0.248242 0.251958 0.058068
v 0.750788 0.253466 0.046696
v 0.750000 0.000000 0.000000
v 0.250000 0.000000 0.000000
v 1.000000 0.750000 0.000000
v 1.000000 0.250000 0.000000
v 0.250000 1.000000 0.000000
v 0.750000 1.000000 0.000000
v 0.000000 0.250000 0.000000
v 0.000000 0.750000 -0.000000
v 0.364724 0.223117 0.059410
v 0.059824 0.876718 0.020807
v 0.235206 0.519731 0.112583
v 0.812911 0.253376 0.033514
v 0.879815 0.376945 0.047248
v 0.624941 0.126545 0.032316
v 0.881483 0.439861 0.055448
v 0.874179 0.126816 0.005044
v 0.374915 0.126867 0.033221
v 0.123943 0.124638 0.025856
v 0.492467 0.253846 0.072350
v 0.883984 0.627525 0.064676
v 0.122865 0.940580 0.022685
v 0.876860 0.876819 0.029447
v 0.372516 0.882909 0.068104
v 0.248196 0.605999 0.133245
v 0.120459 0.879088 0.039122
v 0.117595 0.628068 0.063668
v 0.626175 0.880367 0.062466
v 0.122333 0.377830 0.042506
v 0.249635 0.125293 0.032253
v 0.878338 0.751397 0.046191
v 0.875202 0.252342 0.022514
v 0.246573 0.879246 0.052189
v 0.751705 0.878084 0.048224
v 0.124360 0.251758 0.029343
v 0.116727 0.754044 0.059587
v 0.308286 0.600947 0.170234
v 0.583527 0.308436 0.085277
v 0.062500 1.000000 0.000000
v 0.883101 0.502562 0.061665
v 0.432754 0.784234 0.123657
v 0.241786 0.460604 0.095231
v 0.000000 0.375000 0.000000
v 0.499804 0.883112 0.071065
v 0.500627 0.635024 0.175700
v 0.247052 0.380062 0.075155
v 0.116880 0.502456 0.062212
v 0.521434 0.419953 0.115054
v 0.626098 0.253512 0.065104
v 0.499901 0.126617 0.035554
v 0.496901 0.618040 0.181066
v 0.000000 0.625000 0.000000
v 0.648457 0.531526 0.150759
v 0.444664 0.539960 0.152576
v 0.625000 1.000000 0.000000
v 0.875000 1.000000 0.000000
v 0.125000 1.000000 0.000000
v 0.375000 1.000000 0.000000
v 1.000000 0.375000 0.000000
v 0.568563 0.467105 0.128999
v 1.000000 0.875000 0.000000
v 1.000000 0.625000 0.000000
v 0.375000 0.000000 0.000000
v 0.125000 0.000000 0.000000
v 0.875000 0.000000 0.000000
v 0.625000 0.000000 0.000000
v 0.749407 0.127237 0.019041
v 0.473354 0.485351 0.132744
v 0.774184 0.520651 0.117916
v 0.061196 0.313706 0.020120
v 0.182038 0.441720 0.072435
v 0.185459 0.315641 0.051816
v 0.058486 0.438861 0.029447
v 0.687568 0.938739 0.026344
v 0.691562 0.819162 0.084630
v 0.562568 0.942064 0.036127
v 0.057785 0.689072 0.032674
v 0.176583 0.693239 0.092019
v 0.059862 0.564067 0.029317
v 0.185931 0.939143 0.022184
v 0.180259 0.818926 0.068867
v 0.060907 0.939030 0.013591
v 0.392019 0.492424 0.135269
v 0.675958 0.362320 0.094059
v 0.507535 0.737303 0.143358
v 0.306889 0.822248 0.092259
v 0.436845 0.943062 0.037970
v 0.938763 0.812924 0.019634
v 0.816096 0.815444 0.056301
v 0.937248 0.937313 0.003863
v 0.874278 0.189830 0.011516
v 0.576440 0.847920 0.085579
v 0.942734 0.501298 0.033069
v 0.835084 0.595392 0.100811
v 0.822638 0.691436 0.088135
v 0.941634 0.626068 0.031456
v 0.309126 0.710183 0.134372
v 0.818390 0.753170 0.070502
v 0.885175 0.565179 0.067424
v 0.187295 0.062375 0.015234
v 0.061832 0.061988 0.011819
v 0.186412 0.188295 0.038745
v 0.312535 0.062761 0.017744
v 0.311826 0.188974 0.050318
v 0.437482 0.064430 0.013587
v 0.811929 0.063710 0.004524
v 0.937236 0.063000 0.005036
v -0.000000 0.937500 0.000000
v 0.594796 0.686292 0.157305
v 0.525606 0.815023 0.106896
v 0.562850 0.189133 0.055264
v 0.688113 0.189446 0.044626
v 0.562380 0.063018 0.018084
v 0.938471 0.313830 0.017114
v 0.814891 0.315898 0.048729
v 0.942312 0.438690 0.031171
v 0.311302 0.940392 0.030213
v 0.719867 0.525325 0.142436
v 0.812014 0.190371 0.022022
v 0.806287 0.375207 0.069295
v 0.687231 0.063273 0.013895
v 0.398786 0.381920 0.104022
v 0.936941 0.188608 0.004797
v 0.437358 0.190607 0.051580
v 0.062018 0.187920 0.014623
v 0.374643 0.780732 0.121099
v 0.939473 0.688078 0.025734
v 0.320302 0.455929 0.114995
v 0.059615 0.814097 0.024186
v 0.812784 0.938730 0.020361
v 0.175557 0.566279 0.096565
v 0.781774 0.654391 0.122137
v 0.674598 0.473039 0.127783
v 0.719485 0.618917 0.181239
v 0.319692 0.617236 0.181242
v 0.724350 0.777839 0.093589
v 0.358962 0.546359 0.154258
v 0.619874 0.618546 0.181110
v 0.183900 0.378694 0.061987
v 0.294241 0.336285 0.079379
v 0.736399 0.616739 0.168993
v 0.716482 0.303692 0.070823
v 0.682210 0.677320 0.150746
v 0.329791 0.280025 0.069476
v 0.268387 0.665197 0.136414
v 0.533790 0.522619 0.145969
v 0.616287 0.780301 0.114806
v 0.598317 0.372271 0.100945
v 0.414478 0.617693 0.181064
v 0.720839 0.427048 0.103917
v -0.000000 0.062500 -0.000000
v 0.122460 0.314399 0.039296
v 0.417841 0.260104 0.073051
v 0.062473 0.124994 0.011047
v 0.822648 0.485349 0.087772
v 0.478129 0.367537 0.103550
v 0.177585 0.629585 0.093211
v 0.407555 0.672251 0.164940
v -0.000000 0.875000 -0.000000
v 0.000000 0.812500 -0.000000
v 0.881021 0.689582 0.056350
v 1.000000 0.562500 0.000000
v 1.000000 0.125000 -0.000000
v -0.000000 0.562500 0.000000
v 0.320084 0.506332 0.135239
v 0.000000 0.187500 0.000000
vt 0.000000 0.000000
vt 1.000000 0.000000
vt 0.000000 1.000000
vt 1.000000 1.000000
vt 0.937500 0.125000
vt 0.000000 0.500000
vt 0.500000 1.000000
vt 1.000000 0.500000
vt 0.500000 0.000000
vt 0.250000 0.750000
vt 0.750000 0.750000
vt 0.250000 0.250000
vt 0.750000 0.250000
vt 0.750000 0.000000
vt 0.250000 0.000000
vt 1.000000 0.750000
vt 1.000000 0.250000
vt 0.250000 1.000000
vt 0.750000 1.000000
vt 0.000000 0.250000
vt 0.000000 0.750000
vt 0.365347 0.220303
vt 0.062500 0.875000
vt 0.245672 0.515386
vt 0.812500 0.250000
vt 0.875000 0.375000
vt 0.625000 0.125000
vt 0.875000 0.437500
vt 0.875000 0.125000
vt 0.375000 0.125000
vt 0.125000 0.125000
vt 0.492214 0.250470
vt 0.875000 0.625000
vt 0.125000 0.937500
vt 0.875000 0.875000
vt 0.375000 0.875000
vt 0.262101 0.599801
vt 0.125000 0.875000
vt 0.125000 0.625000
vt 0.625000 0.875000
vt 0.125000 0.375000
vt 0.250000 0.125000
vt 0.875000 0.750000
vt 0.875000 0.250000
vt 0.250000 0.875000
vt 0.750000 0.875000
vt 0.125000 0.250000
vt 0.125000 0.750000
vt 0.325445 0.593646
vt 0.581754 0.304126
vt 0.062500 1.000000
vt 0.875000 0.500000
vt 0.435664 0.771773
vt 0.248222 0.455442
vt 0.000000 0.375000
vt 0.500000 0.875000
vt 0.500000 0.625000
vt 0.250000 0.375000
vt 0.125000 0.500000
vt 0.519707 0.411902
vt 0.625000 0.250000
vt 0.500000 0.125000
vt 0.496516 0.608198
vt 0.000000 0.625000
vt 0.636517 0.523144
vt 0.447814 0.530275
vt 0.625000 1.000000
vt 0.875000 1.000000
vt 0.125000 1.000000
vt 0.375000 1.000000
vt 1.000000 0.375000
vt 0.564051 0.458319
vt 1.000000 0.875000
vt 1.000000 0.625000
vt 0.375000 0.000000
vt 0.125000 0.000000
vt 0.875000 0.000000
vt 0.625000 0.000000
vt 0.750000 0.125000
vt 0.473805 0.475426
vt 0.760524 0.515669
vt 0.062500 0.312500
vt 0.187500 0.437500
vt 0.187500 0.312500
vt 0.062500 0.437500
vt 0.687500 0.937500
vt 0.687500 0.812500
vt 0.562500 0.937500
vt 0.062500 0.687500
vt 0.187500 0.687500
vt 0.062500 0.562500
vt 0.187500 0.937500
vt 0.187500 0.812500
vt 0.062500 0.937500
vt 0.396781 0.484194
vt 0.671367 0.358455
vt 0.506884 0.725192
vt 0.312500 0.812500
vt 0.437500 0.937500
vt 0.937500 0.812500
vt 0.812500 0.812500
vt 0.937500 0.937500
vt 0.875000 0.187500
vt 0.575008 0.839595
vt 0.937500 0.500000
vt 0.819332 0.591237
vt 0.812500 0.687500
vt 0.937500 0.625000
vt 0.319123 0.700934
vt 0.812500 0.750000
vt 0.875000 0.562500
vt 0.187500 0.062500
vt 0.062500 0.062500
vt 0.187500 0.187500
vt 0.312500 0.062500
vt 0.312500 0.187500
vt 0.437500 0.062500
vt 0.812500 0.062500
vt 0.937500 0.062500
vt 0.000000 0.937500
vt 0.587160 0.675778
vt 0.525016 0.804189
vt 0.562500 0.187500
vt 0.687500 0.187500
vt 0.562500 0.062500
vt 0.937500 0.312500
vt 0.812500 0.312500
vt 0.937500 0.437500
vt 0.312500 0.937500
vt 0.704331 0.519879
vt 0.812500 0.187500
vt 0.800716 0.372483
vt 0.687500 0.062500
vt 0.400647 0.375957
vt 0.937500 0.187500
vt 0.437500 0.187500
vt 0.062500 0.187500
vt 0.380019 0.768564
vt 0.937500 0.687500
vt 0.326037 0.449751
vt 0.062500 0.812500
vt 0.812500 0.937500
vt 0.187500 0.562500
vt 0.765906 0.648544
vt 0.665088 0.466564
vt 0.693723 0.607627
vt 0.338233 0.608849
vt 0.718294 0.771897
vt 0.368720 0.538399
vt 0.607773 0.608668
vt 0.187500 0.375000
vt 0.296906 0.332149
vt 0.711873 0.607167
vt 0.713437 0.300753
vt 0.668274 0.669022
vt 0.331126 0.276226
vt 0.281585 0.657008
vt 0.530429 0.512451
vt 0.611736 0.771102
vt 0.595175 0.366343
vt 0.421829 0.608234
vt 0.713353 0.422290
vt 0.000000 0.062500
vt 0.125000 0.312500
vt 0.418341 0.256674
vt 0.062500 0.125000
vt 0.812755 0.481587
vt 0.477835 0.361491
vt 0.187500 0.625000
vt 0.414679 0.661630
vt 0.000000 0.875000
vt 0.000000 0.812500
vt 0.875000 0.687500
vt 1.000000 0.562500
vt 1.000000 0.125000
vt 0.000000 0.562500
vt 0.328786 0.500764
vt 0.000000 0.187500
vn -0.127509 -0.063755 0.989786
vn 0.042991 -0.042991 0.998150
vn 0.000000 0.000000 1.000000
vn 0.027611 0.027611 0.999237
vn 0.041820 0.002241 0.999123
vn -0.445732 0.001859 0.895165
vn 0.006743 0.538293 0.842731
vn 0.497584 -0.007893 0.867380
vn -0.018933 -0.241327 0.970259
vn -0.261693 0.273773 0.925508
vn 0.296888 0.313702 0.901914
vn -0.130460 -0.165926 0.977471
vn 0.218577 -0.240539 0.945709
vn 0.037336 -0.144839 0.988751
vn -0.007942 -0.249809 0.968262
vn 0.346294 0.021534 0.937879
vn 0.174026 -0.047355 0.983602
vn -0.031309 0.396249 0.917609
vn 0.021145 0.357516 0.933667
vn -0.259758 -0.017103 0.965522
vn -0.429900 0.025817 0.902507
vn -0.041932 -0.246725 0.968178
vn -0.300908 0.062776 0.951585
vn -0.336585 -0.243246 0.909693
vn 0.185730 -0.208377 0.960252
vn 0.306823 -0.168888 0.936662
vn 0.060620 -0.259079 0.963952
vn 0.362760 -0.126728 0.923225
vn 0.094378 -0.056204 0.993949
vn 0.010530 -0.263377 0.964636
vn -0.143614 -0.091275 0.985416
vn -0.011912 -0.276007 0.961082
vn 0.513169 0.098210 0.852650
vn -0.062802 0.306524 0.949789
vn 0.212413 0.205490 0.955330
vn -0.073688 0.472479 0.878256
vn -0.484582 0.026380 0.874348
vn -0.196251 0.202456 0.959425
vn -0.465018 0.012323 0.885216
vn 0.100489 0.455862 0.884360
vn -0.307182 -0.089454 0.947437
vn -0.050449 -0.220660 0.974045
vn 0.395130 0.167977 0.903137
vn 0.171036 -0.171482 0.970227
vn -0.114600 0.415159 0.902502
vn 0.131671 0.363530 0.922230
vn -0.227318 -0.098012 0.968876
vn -0.392716 0.113076 0.912682
vn -0.551146 -0.124200 0.825113
vn 0.055631 -0.262413 0.963351
vn -0.054865 0.164594 0.984834
vn 0.416316 -0.088007 0.904951
vn -0.034856 0.414098 0.909565
vn -0.264707 -0.284435 0.921427
vn -0.355070 -0.037584 0.934084
vn 0.020273 0.477816 0.878226
vn 0.001176 0.298544 0.954395
vn -0.233534 -0.188931 0.953817
vn -0.424443 -0.095127 0.900444
vn 0.011629 -0.257479 0.966214
vn 0.091801 -0.260588 0.961076
vn -0.024624 -0.284733 0.958291
vn -0.001038 0.178287 0.983978
vn -0.465466 -0.011186 0.884995
vn 0.037989 -0.343564 0.938361
vn -0.001730 -0.342792 0.939410
vn 0.038484 0.462807 0.885623
vn 0.067718 0.188925 0.979654
vn -0.034282 0.315521 0.948299
vn -0.029111 0.501998 0.864378
vn 0.368801 -0.056658 0.927780
vn -0.004753 -0.295374 0.955370
vn 0.182607 0.064497 0.981068
vn 0.461594 0.028356 0.886638
vn 0.015930 -0.244092 0.969621
vn -0.012068 -0.210031 0.977620
vn -0.003430 -0.078889 0.996878
vn 0.015713 -0.247360 0.968796
vn 0.117072 -0.187030 0.975353
vn -0.002786 -0.308274 0.951293
vn 0.397279 -0.271814 0.876519
vn -0.293864 -0.055694 0.954223
vn -0.282751 -0.209937 0.935937
vn -0.204803 -0.142514 0.968373
vn -0.396174 -0.071512 0.915386
vn 0.057210 0.416218 0.907463
vn 0.163884 0.386336 0.907682
vn 0.041758 0.492955 0.869052
vn -0.467069 0.015931 0.884077
vn -0.407854 0.091919 0.908409
vn -0.469261 -0.008582 0.883018
vn -0.023396 0.341984 0.939414
vn -0.227844 0.272574 0.934768
vn -0.183984 0.200252 0.962314
vn -0.040123 -0.333802 0.941789
vn 0.113723 -0.279143 0.953492
vn 0.030426 0.370521 0.928325
vn -0.147776 0.411705 0.899256
vn -0.017332 0.507919 0.861231
vn 0.297407 0.075494 0.951761
vn 0.273930 0.242761 0.930607
vn 0.107137 0.105505 0.988631
vn 0.132128 -0.137652 0.981628
vn 0.083704 0.460747 0.883575
vn 0.472547 -0.030088 0.880792
vn 0.533272 0.022605 0.845642
vn 0.437022 0.233519 0.868608
vn 0.485808 0.076364 0.870723
vn -0.236283 0.343580 0.908913
vn 0.349452 0.251159 0.902664
vn 0.498161 -0.029479 0.866584
vn -0.021442 -0.219237 0.975436
vn -0.139271 -0.058316 0.988536
vn -0.134486 -0.128811 0.982508
vn -0.002782 -0.254145 0.967162
vn -0.035255 -0.227281 0.973191
vn -0.002708 -0.254771 0.966998
vn 0.044593 -0.095253 0.994454
vn 0.032878 0.014817 0.999350
vn -0.192868 0.082311 0.977766
vn 0.068568 0.361022 0.930033
vn 0.052037 0.449561 0.891733
vn 0.032876 -0.274124 0.961132
vn 0.125845 -0.251020 0.959767
vn 0.004112 -0.261725 0.965134
vn 0.263382 -0.099747 0.959521
vn 0.231761 -0.252184 0.939516
vn 0.420819 -0.068184 0.904579
vn -0.061976 0.449530 0.891113
vn 0.227848 -0.346215 0.910066
vn 0.165445 -0.168155 0.971778
vn 0.272492 -0.240637 0.931580
vn 0.053945 -0.199984 0.978313
vn -0.071984 -0.257906 0.963485
vn 0.089573 -0.094112 0.991524
vn -0.024907 -0.285737 0.957984
vn -0.227187 -0.038579 0.973087
vn -0.109316 0.394844 0.912221
vn 0.440990 0.086954 0.893290
vn -0.171355 -0.327534 0.929171
vn -0.376675 0.069807 0.923712
vn 0.080175 0.302142 0.949885
vn -0.433942 -0.041721 0.899974
vn 0.471182 0.304819 0.827691
vn 0.089174 -0.331482 0.939238
vn 0.493458 0.223619 0.840531
vn -0.455293 -0.068880 0.887673
vn 0.233056 0.352273 0.906416
vn -0.035901 -0.363005 0.931095
vn 0.026423 0.097290 0.994905
vn -0.234543 -0.148544 0.960689
vn -0.166183 -0.201320 0.965326
vn 0.556701 0.201519 0.805900
vn 0.185741 -0.277057 0.942730
vn 0.181772 0.448301 0.875206
vn -0.079373 -0.222229 0.971758
vn -0.419570 0.215030 0.881886
vn -0.010423 -0.324680 0.945766
vn 0.117610 0.418070 0.900769
vn 0.035686 -0.259804 0.965002
vn 0.000049 0.003944 0.999992
vn 0.218914 -0.288983 0.931969
vn -0.187545 0.004606 0.982245
vn -0.261820 -0.118345 0.957834
vn -0.045671 -0.275787 0.960133
vn -0.222163 -0.016358 0.974872
vn 0.387464 -0.174162 0.905284
vn -0.001924 -0.246775 0.969071
vn -0.451663 0.043651 0.891120
vn -0.034399 0.323320 0.945664
vn -0.322240 -0.000000 0.946658
vn -0.361876 0.013755 0.932125
vn 0.477919 0.145469 0.866275
vn 0.493779 0.004852 0.869574
vn 0.018015 0.002080 0.999836
vn -0.442422 0.000000 0.896807
vn -0.148096 -0.368188 0.917881
vn -0.219324 -0.015469 0.975529
f 1/1/1 113/113/113 163/163/163
f 127/127/127 126/126/126 26/26/26
f 140/140/140 152/152/152 134/134/134
f 166/166/166 163/163/163 113/113/113
f 84/84/84 152/152/152 58/58/58
f 166/166/166 178/178/178 163/163/163
f 166/166/166 137/137/137 178/178/178
f 112/112/112 114/114/114 31/31/31
f 147/147/147 49/49/49 177/177/177
f 42/42/42 114/114/114 112/112/112
f 31/31/31 166/166/166 113/113/113
f 116/116/116 115/115/115 30/30/30
f 31/31/31 137/137/137 166/166/166
f 134/134/134 156/156/156 165/165/165
f 128/128/128 8/8/8 105/105/105
f 76/76/76 113/113/113 1/1/1
f 127/127/127 44/44/44 126/126/126
f 15/15/15 112/112/112 76/76/76
f 177/177/177 54/54/54 140/140/140
f 75/75/75 115/115/115 15/15/15
f 116/116/116 12/12/12 42/42/42
f 136/136/136 30/30/30 117/117/117
f 125/125/125 133/133/133 27/27/27
f 22/22/22 30/30/30 136/136/136
f 114/114/114 42/42/42 12/12/12
f 32/32/32 165/165/165 136/136/136
f 22/22/22 136/136/136 165/165/165
f 156/156/156 152/152/152 12/12/12
f 156/156/156 116/116/116 22/22/22
f 177/177/177 149/149/149 147/147/147
f 116/116/116 30/30/30 22/22/22
f 54/54/54 58/58/58 140/140/140
f 42/42/42 115/115/115 116/116/116
f 156/156/156 12/12/12 116/116/116
f 164/164/164 151/151/151 41/41/41
f 66/66/66 158/158/158 63/63/63
f 140/140/140 134/134/134 95/95/95
f 156/156/156 22/22/22 165/165/165
f 134/134/134 165/165/165 168/168/168
f 41/41/41 151/151/151 83/83/83
f 128/128/128 71/71/71 8/8/8
f 26/26/26 128/128/128 28/28/28
f 60/60/60 160/160/160 72/72/72
f 168/168/168 165/165/165 32/32/32
f 80/80/80 134/134/134 168/168/168
f 134/134/134 152/152/152 156/156/156
f 157/157/157 169/169/169 37/37/37
f 95/95/95 134/134/134 80/80/80
f 138/138/138 53/53/53 36/36/36
f 131/131/131 79/79/79 29/29/29
f 49/49/49 24/24/24 177/177/177
f 118/118/118 29/29/29 79/79/79
f 84/84/84 58/58/58 151/151/151
f 77/77/77 2/2/2 119/119/119
f 77/77/77 119/119/119 118/118/118
f 119/119/119 29/29/29 118/118/118
f 24/24/24 59/59/59 83/83/83
f 83/83/83 58/58/58 54/54/54
f 85/85/85 55/55/55 41/41/41
f 83/83/83 151/151/151 58/58/58
f 85/85/85 41/41/41 83/83/83
f 82/82/82 137/137/137 47/47/47
f 113/113/113 76/76/76 31/31/31
f 84/84/84 12/12/12 152/152/152
f 25/25/25 44/44/44 127/127/127
f 112/112/112 31/31/31 76/76/76
f 164/164/164 47/47/47 84/84/84
f 164/164/164 84/84/84 151/151/151
f 82/82/82 164/164/164 41/41/41
f 82/82/82 47/47/47 164/164/164
f 55/55/55 82/82/82 41/41/41
f 20/20/20 137/137/137 82/82/82
f 20/20/20 178/178/178 137/137/137
f 55/55/55 20/20/20 82/82/82
f 37/37/37 24/24/24 49/49/49
f 120/120/120 51/51/51 3/3/3
f 115/115/115 75/75/75 30/30/30
f 141/141/141 38/38/38 23/23/23
f 119/119/119 175/175/175 5/5/5
f 45/45/45 98/98/98 36/36/36
f 34/34/34 92/92/92 69/69/69
f 48/48/48 89/89/89 90/90/90
f 92/92/92 18/18/18 69/69/69
f 34/34/34 94/94/94 38/38/38
f 23/23/23 38/38/38 94/94/94
f 109/109/109 157/157/157 147/147/147
f 161/161/161 147/147/147 149/149/149
f 121/121/121 97/97/97 57/57/57
f 56/56/56 53/53/53 122/122/122
f 98/98/98 138/138/138 36/36/36
f 129/129/129 45/45/45 36/36/36
f 109/109/109 98/98/98 10/10/10
f 105/105/105 174/174/174 111/111/111
f 93/93/93 38/38/38 48/48/48
f 92/92/92 45/45/45 18/18/18
f 36/36/36 99/99/99 129/129/129
f 129/129/129 70/70/70 18/18/18
f 129/129/129 18/18/18 45/45/45
f 34/34/34 38/38/38 92/92/92
f 70/70/70 129/129/129 99/99/99
f 94/94/94 69/69/69 51/51/51
f 94/94/94 34/34/34 69/69/69
f 120/120/120 94/94/94 51/51/51
f 23/23/23 120/120/120 171/171/171
f 172/172/172 23/23/23 171/171/171
f 48/48/48 141/141/141 21/21/21
f 39/39/39 90/90/90 89/89/89
f 23/23/23 94/94/94 120/120/120
f 172/172/172 141/141/141 23/23/23
f 21/21/21 141/141/141 172/172/172
f 39/39/39 169/169/169 90/90/90
f 84/84/84 114/114/114 12/12/12
f 48/48/48 90/90/90 10/10/10
f 48/48/48 38/38/38 141/141/141
f 93/93/93 48/48/48 10/10/10
f 108/108/108 111/111/111 174/174/174
f 177/177/177 140/140/140 95/95/95
f 149/149/149 177/177/177 95/95/95
f 117/117/117 30/30/30 75/75/75
f 143/143/143 39/39/39 59/59/59
f 89/89/89 48/48/48 21/21/21
f 59/59/59 85/85/85 83/83/83
f 64/64/64 89/89/89 21/21/21
f 47/47/47 114/114/114 84/84/84
f 6/6/6 91/91/91 176/176/176
f 135/135/135 44/44/44 103/103/103
f 5/5/5 175/175/175 135/135/135
f 59/59/59 91/91/91 85/85/85
f 5/5/5 103/103/103 29/29/29
f 6/6/6 85/85/85 91/91/91
f 6/6/6 55/55/55 85/85/85
f 24/24/24 83/83/83 54/54/54
f 59/59/59 39/39/39 91/91/91
f 24/24/24 143/143/143 59/59/59
f 143/143/143 169/169/169 39/39/39
f 24/24/24 54/54/54 177/177/177
f 66/66/66 161/161/161 149/149/149
f 157/157/157 37/37/37 49/49/49
f 157/157/157 90/90/90 169/169/169
f 157/157/157 49/49/49 147/147/147
f 66/66/66 63/63/63 161/161/161
f 170/170/170 138/138/138 109/109/109
f 37/37/37 169/169/169 143/143/143
f 37/37/37 143/143/143 24/24/24
f 170/170/170 109/109/109 147/147/147
f 157/157/157 10/10/10 90/90/90
f 109/109/109 138/138/138 98/98/98
f 109/109/109 10/10/10 157/157/157
f 57/57/57 161/161/161 63/63/63
f 170/170/170 53/53/53 138/138/138
f 153/153/153 155/155/155 146/146/146
f 57/57/57 170/170/170 161/161/161
f 161/161/161 170/170/170 147/147/147
f 66/66/66 149/149/149 95/95/95
f 66/66/66 95/95/95 80/80/80
f 66/66/66 80/80/80 158/158/158
f 154/154/154 132/132/132 162/162/162
f 50/50/50 168/168/168 32/32/32
f 121/121/121 57/57/57 150/150/150
f 122/122/122 159/159/159 104/104/104
f 88/88/88 99/99/99 56/56/56
f 33/33/33 106/106/106 111/111/111
f 150/150/150 63/63/63 158/158/158
f 65/65/65 146/146/146 150/150/150
f 97/97/97 170/170/170 57/57/57
f 57/57/57 63/63/63 150/150/150
f 159/159/159 121/121/121 155/155/155
f 97/97/97 53/53/53 170/170/170
f 155/155/155 121/121/121 150/150/150
f 148/148/148 87/87/87 159/159/159
f 146/146/146 155/155/155 150/150/150
f 11/11/11 155/155/155 144/144/144
f 65/65/65 150/150/150 158/158/158
f 130/130/130 146/146/146 65/65/65
f 106/106/106 153/153/153 81/81/81
f 144/144/144 155/155/155 153/153/153
f 60/60/60 72/72/72 80/80/80
f 72/72/72 145/145/145 65/65/65
f 154/154/154 162/162/162 96/96/96
f 130/130/130 153/153/153 146/146/146
f 167/167/167 106/106/106 81/81/81
f 81/81/81 153/153/153 130/130/130
f 111/111/111 52/52/52 105/105/105
f 107/107/107 106/106/106 33/33/33
f 78/78/78 125/125/125 9/9/9
f 38/38/38 93/93/93 92/92/92
f 112/112/112 15/15/15 42/42/42
f 108/108/108 33/33/33 111/111/111
f 167/167/167 111/111/111 106/106/106
f 115/115/115 42/42/42 15/15/15
f 107/107/107 33/33/33 173/173/173
f 139/139/139 108/108/108 74/74/74
f 173/173/173 108/108/108 139/139/139
f 43/43/43 173/173/173 139/139/139
f 43/43/43 110/110/110 107/107/107
f 43/43/43 107/107/107 173/173/173
f 173/173/173 33/33/33 108/108/108
f 11/11/11 144/144/144 107/107/107
f 11/11/11 107/107/107 110/110/110
f 144/144/144 153/153/153 106/106/106
f 144/144/144 106/106/106 107/107/107
f 101/101/101 11/11/11 110/110/110
f 148/148/148 101/101/101 46/46/46
f 142/142/142 101/101/101 35/35/35
f 88/88/88 56/56/56 104/104/104
f 159/159/159 97/97/97 121/121/121
f 43/43/43 101/101/101 110/110/110
f 16/16/16 139/139/139 74/74/74
f 100/100/100 43/43/43 139/139/139
f 28/28/28 128/128/128 52/52/52
f 105/105/105 52/52/52 128/128/128
f 86/86/86 46/46/46 142/142/142
f 16/16/16 100/100/100 139/139/139
f 102/102/102 35/35/35 100/100/100
f 68/68/68 142/142/142 102/102/102
f 91/91/91 39/39/39 64/64/64
f 142/142/142 35/35/35 102/102/102
f 64/64/64 39/39/39 89/89/89
f 46/46/46 101/101/101 142/142/142
f 19/19/19 86/86/86 142/142/142
f 88/88/88 40/40/40 86/86/86
f 56/56/56 36/36/36 53/53/53
f 87/87/87 40/40/40 159/159/159
f 148/148/148 159/159/159 155/155/155
f 148/148/148 46/46/46 87/87/87
f 148/148/148 155/155/155 11/11/11
f 148/148/148 11/11/11 101/101/101
f 56/56/56 122/122/122 104/104/104
f 104/104/104 159/159/159 40/40/40
f 122/122/122 53/53/53 97/97/97
f 122/122/122 97/97/97 159/159/159
f 88/88/88 104/104/104 40/40/40
f 56/56/56 99/99/99 36/36/36
f 67/67/67 88/88/88 86/86/86
f 7/7/7 99/99/99 88/88/88
f 7/7/7 70/70/70 99/99/99
f 67/67/67 7/7/7 88/88/88
f 19/19/19 67/67/67 86/86/86
f 68/68/68 19/19/19 142/142/142
f 73/73/73 102/102/102 100/100/100
f 4/4/4 68/68/68 102/102/102
f 73/73/73 4/4/4 102/102/102
f 16/16/16 73/73/73 100/100/100
f 145/145/145 162/162/162 130/130/130
f 137/137/137 31/31/31 47/47/47
f 45/45/45 92/92/92 93/93/93
f 101/101/101 43/43/43 35/35/35
f 174/174/174 74/74/74 108/108/108
f 8/8/8 174/174/174 105/105/105
f 118/118/118 133/133/133 14/14/14
f 131/131/131 25/25/25 13/13/13
f 103/103/103 131/131/131 29/29/29
f 135/135/135 175/175/175 17/17/17
f 10/10/10 98/98/98 93/93/93
f 45/45/45 93/93/93 98/98/98
f 114/114/114 47/47/47 31/31/31
f 26/26/26 71/71/71 128/128/128
f 167/167/167 28/28/28 52/52/52
f 162/162/162 132/132/132 167/167/167
f 132/132/132 127/127/127 26/26/26
f 140/140/140 58/58/58 152/152/152
f 126/126/126 17/17/17 71/71/71
f 126/126/126 71/71/71 26/26/26
f 132/132/132 26/26/26 28/28/28
f 119/119/119 2/2/2 175/175/175
f 96/96/96 50/50/50 61/61/61
f 100/100/100 35/35/35 43/43/43
f 13/13/13 25/25/25 127/127/127
f 46/46/46 86/86/86 87/87/87
f 13/13/13 124/124/124 131/131/131
f 123/123/123 50/50/50 32/32/32
f 167/167/167 132/132/132 28/28/28
f 162/162/162 81/81/81 130/130/130
f 167/167/167 52/52/52 111/111/111
f 162/162/162 167/167/167 81/81/81
f 145/145/145 130/130/130 65/65/65
f 124/124/124 154/154/154 61/61/61
f 72/72/72 65/65/65 158/158/158
f 96/96/96 145/145/145 160/160/160
f 72/72/72 158/158/158 80/80/80
f 72/72/72 160/160/160 145/145/145
f 60/60/60 80/80/80 168/168/168
f 60/60/60 168/168/168 160/160/160
f 125/125/125 27/27/27 62/62/62
f 77/77/77 118/118/118 14/14/14
f 50/50/50 160/160/160 168/168/168
f 62/62/62 27/27/27 123/123/123
f 79/79/79 131/131/131 124/124/124
f 154/154/154 96/96/96 61/61/61
f 96/96/96 162/162/162 145/145/145
f 96/96/96 160/160/160 50/50/50
f 154/154/154 13/13/13 127/127/127
f 154/154/154 127/127/127 132/132/132
f 40/40/40 87/87/87 86/86/86
f 124/124/124 13/13/13 154/154/154
f 125/125/125 62/62/62 117/117/117
f 61/61/61 123/123/123 124/124/124
f 123/123/123 61/61/61 50/50/50
f 123/123/123 32/32/32 136/136/136
f 62/62/62 123/123/123 136/136/136
f 62/62/62 136/136/136 117/117/117
f 9/9/9 117/117/117 75/75/75
f 9/9/9 125/125/125 117/117/117
f 78/78/78 133/133/133 125/125/125
f 14/14/14 133/133/133 78/78/78
f 5/5/5 135/135/135 103/103/103
f 17/17/17 126/126/126 135/135/135
f 103/103/103 44/44/44 131/131/131
f 27/27/27 124/124/124 123/123/123
f 79/79/79 133/133/133 118/118/118
f 25/25/25 131/131/131 44/44/44
f 44/44/44 135/135/135 126/126/126
f 119/119/119 5/5/5 29/29/29
f 176/176/176 91/91/91 64/64/64
f 133/133/133 79/79/79 27/27/27
f 124/124/124 27/27/27 79/79/79
