# frame 001170 
# time 0.585500 
# name Box 
v 0.720534 0.383478 -0.332544
v 0.718937 0.763382 -0.207364
v 0.719463 0.638204 0.172544
v 0.720534 0.383478 -0.332544
v 0.719463 0.638204 0.172544
v 0.721060 0.258299 0.047364
v 0.320537 0.381796 -0.332544
v 0.321063 0.256618 0.047364
v 0.319466 0.636522 0.172544
v 0.320537 0.381796 -0.332544
v 0.319466 0.636522 0.172544
v 0.318940 0.761701 -0.207364
v 0.720534 0.383478 -0.332544
v 0.320537 0.381796 -0.332544
v 0.318940 0.761701 -0.207364
v 0.720534 0.383478 -0.332544
v 0.318940 0.761701 -0.207364
v 0.718937 0.763382 -0.207364
v 0.718937 0.763382 -0.207364
v 0.318940 0.761701 -0.207364
v 0.319466 0.636522 0.172544
v 0.718937 0.763382 -0.207364
v 0.319466 0.636522 0.172544
v 0.719463 0.638204 0.172544
v 0.719463 0.638204 0.172544
v 0.319466 0.636522 0.172544
v 0.321063 0.256618 0.047364
v 0.719463 0.638204 0.172544
v 0.321063 0.256618 0.047364
v 0.721060 0.258299 0.047364
v 0.320537 0.381796 -0.332544
v 0.720534 0.383478 -0.332544
v 0.721060 0.258299 0.047364
v 0.320537 0.381796 -0.332544
v 0.721060 0.258299 0.047364
v 0.321063 0.256618 0.047364
vn 0.199998 0.000841 0.000000
vn 0.199998 0.000841 0.000000
vn 0.199998 0.000841 0.000000
vn 0.199998 0.000841 0.000000
vn 0.199998 0.000841 0.000000
vn 0.199998 0.000841 0.000000
vn -0.199998 -0.000841 0.000000
vn -0.199998 -0.000841 0.000000
vn -0.199998 -0.000841 0.000000
vn -0.199998 -0.000841 0.000000
vn -0.199998 -0.000841 0.000000
vn -0.199998 -0.000841 0.000000
vn -0.000263 0.062589 -0.189954
vn -0.000263 0.062589 -0.189954
vn -0.000263 0.062589 -0.189954
vn -0.000263 0.062589 -0.189954
vn -0.000263 0.062589 -0.189954
vn -0.000263 0.062589 -0.189954
vn -0.000799 0.189952 0.062590
vn -0.000799 0.189952 0.062590
vn -0.000799 0.189952 0.062590
vn -0.000799 0.189952 0.062590
vn -0.000799 0.189952 0.062590
vn -0.000799 0.189952 0.062590
vn 0.000263 -0.062589 0.189954
vn 0.000263 -0.062589 0.189954
vn 0.000263 -0.062589 0.189954
vn 0.000263 -0.062589 0.189954
vn 0.000263 -0.062589 0.189954
vn 0.000263 -0.062589 0.189954
vn 0.000799 -0.189952 -0.062590
vn 0.000799 -0.189952 -0.062590
vn 0.000799 -0.189952 -0.062590
vn 0.000799 -0.189952 -0.062590
vn 0.000799 -0.189952 -0.062590
vn 0.000799 -0.189952 -0.062590
f 1/1/1 2/2/2 3/3/3
f 4/4/4 5/5/5 6/6/6
f 7/7/7 8/8/8 9/9/9
f 10/10/10 11/11/11 12/12/12
f 13/13/13 14/14/14 15/15/15
f 16/16/16 17/17/17 18/18/18
f 19/19/19 20/20/20 21/21/21
f 22/22/22 23/23/23 24/24/24
f 25/25/25 26/26/26 27/27/27
f 28/28/28 29/29/29 30/30/30
f 31/31/31 32/32/32 33/33/33
f 34/34/34 35/35/35 36/36/36
