# frame 001135 
# time 0.568000 
# name Box 
v 0.720439 0.406034 -0.342708
v 0.718894 0.773546 -0.184808
v 0.719558 0.615647 0.182708
v 0.720439 0.406034 -0.342708
v 0.719558 0.615647 0.182708
v 0.721103 0.248135 0.024808
v 0.320442 0.404353 -0.342708
v 0.321106 0.246454 0.024808
v 0.319561 0.613966 0.182708
v 0.320442 0.404353 -0.342708
v 0.319561 0.613966 0.182708
v 0.318897 0.771865 -0.184808
v 0.720439 0.406034 -0.342708
v 0.320442 0.404353 -0.342708
v 0.318897 0.771865 -0.184808
v 0.720439 0.406034 -0.342708
v 0.318897 0.771865 -0.184808
v 0.718894 0.773546 -0.184808
v 0.718894 0.773546 -0.184808
v 0.318897 0.771865 -0.184808
v 0.319561 0.613966 0.182708
v 0.718894 0.773546 -0.184808
v 0.319561 0.613966 0.182708
v 0.719558 0.615647 0.182708
v 0.719558 0.615647 0.182708
v 0.319561 0.613966 0.182708
v 0.321106 0.246454 0.024808
v 0.719558 0.615647 0.182708
v 0.321106 0.246454 0.024808
v 0.721103 0.248135 0.024808
v 0.320442 0.404353 -0.342708
v 0.720439 0.406034 -0.342708
v 0.721103 0.248135 0.024808
v 0.320442 0.404353 -0.342708
v 0.721103 0.248135 0.024808
v 0.321106 0.246454 0.024808
vn 0.199998 0.000841 0.000000
vn 0.199998 0.000841 0.000000
vn 0.199998 0.000841 0.000000
vn 0.199998 0.000841 0.000000
vn 0.199998 0.000841 0.000000
vn 0.199998 0.000841 0.000000
vn -0.199998 -0.000841 0.000000
vn -0.199998 -0.000841 0.000000
vn -0.199998 -0.000841 0.000000
vn -0.199998 -0.000841 0.000000
vn -0.199998 -0.000841 0.000000
vn -0.199998 -0.000841 0.000000
vn -0.000332 0.078949 -0.183758
vn -0.000332 0.078949 -0.183758
vn -0.000332 0.078949 -0.183758
vn -0.000332 0.078949 -0.183758
vn -0.000332 0.078949 -0.183758
vn -0.000332 0.078949 -0.183758
vn -0.000772 0.183756 0.078950
vn -0.000772 0.183756 0.078950
vn -0.000772 0.183756 0.078950
vn -0.000772 0.183756 0.078950
vn -0.000772 0.183756 0.078950
vn -0.000772 0.183756 0.078950
vn 0.000332 -0.078949 0.183758
vn 0.000332 -0.078949 0.183758
vn 0.000332 -0.078949 0.183758
vn 0.000332 -0.078949 0.183758
vn 0.000332 -0.078949 0.183758
vn 0.000332 -0.078949 0.183758
vn 0.000772 -0.183756 -0.078950
vn 0.000772 -0.183756 -0.078950
vn 0.000772 -0.183756 -0.078950
vn 0.000772 -0.183756 -0.078950
vn 0.000772 -0.183756 -0.078950
vn 0.000772 -0.183756 -0.078950
f 1/1/1 2/2/2 3/3/3
f 4/4/4 5/5/5 6/6/6
f 7/7/7 8/8/8 9/9/9
f 10/10/10 11/11/11 12/12/12
f 13/13/13 14/14/14 15/15/15
f 16/16/16 17/17/17 18/18/18
f 19/19/19 20/20/20 21/21/21
f 22/22/22 23/23/23 24/24/24
f 25/25/25 26/26/26 27/27/27
f 28/28/28 29/29/29 30/30/30
f 31/31/31 32/32/32 33/33/33
f 34/34/34 35/35/35 36/36/36
