# frame 001190 
# time 0.595500 
# name Box 
v 0.720586 0.371015 -0.325863
v 0.718965 0.756701 -0.219827
v 0.719410 0.650666 0.165863
v 0.720586 0.371015 -0.325863
v 0.719410 0.650666 0.165863
v 0.721032 0.264980 0.059827
v 0.320590 0.369334 -0.325863
v 0.321035 0.263299 0.059827
v 0.319414 0.648985 0.165863
v 0.320590 0.369334 -0.325863
v 0.319414 0.648985 0.165863
v 0.318968 0.755020 -0.219827
v 0.720586 0.371015 -0.325863
v 0.320590 0.369334 -0.325863
v 0.318968 0.755020 -0.219827
v 0.720586 0.371015 -0.325863
v 0.318968 0.755020 -0.219827
v 0.718965 0.756701 -0.219827
v 0.718965 0.756701 -0.219827
v 0.318968 0.755020 -0.219827
v 0.319414 0.648985 0.165863
v 0.718965 0.756701 -0.219827
v 0.319414 0.648985 0.165863
v 0.719410 0.650666 0.165863
v 0.719410 0.650666 0.165863
v 0.319414 0.648985 0.165863
v 0.321035 0.263299 0.059827
v 0.719410 0.650666 0.165863
v 0.321035 0.263299 0.059827
v 0.721032 0.264980 0.059827
v 0.320590 0.369334 -0.325863
v 0.720586 0.371015 -0.325863
v 0.721032 0.264980 0.059827
v 0.320590 0.369334 -0.325863
v 0.721032 0.264980 0.059827
v 0.321035 0.263299 0.059827
vn 0.199998 0.000841 0.000000
vn 0.199998 0.000841 0.000000
vn 0.199998 0.000841 0.000000
vn 0.199998 0.000841 0.000000
vn 0.199998 0.000841 0.000000
vn 0.199998 0.000841 0.000000
vn -0.199998 -0.000841 0.000000
vn -0.199998 -0.000841 0.000000
vn -0.199998 -0.000841 0.000000
vn -0.199998 -0.000841 0.000000
vn -0.199998 -0.000841 0.000000
vn -0.199998 -0.000841 0.000000
vn -0.000223 0.053017 -0.192845
vn -0.000223 0.053017 -0.192845
vn -0.000223 0.053017 -0.192845
vn -0.000223 0.053017 -0.192845
vn -0.000223 0.053017 -0.192845
vn -0.000223 0.053017 -0.192845
vn -0.000811 0.192843 0.053018
vn -0.000811 0.192843 0.053018
vn -0.000811 0.192843 0.053018
vn -0.000811 0.192843 0.053018
vn -0.000811 0.192843 0.053018
vn -0.000811 0.192843 0.053018
vn 0.000223 -0.053017 0.192845
vn 0.000223 -0.053017 0.192845
vn 0.000223 -0.053017 0.192845
vn 0.000223 -0.053017 0.192845
vn 0.000223 -0.053017 0.192845
vn 0.000223 -0.053017 0.192845
vn 0.000811 -0.192843 -0.053018
vn 0.000811 -0.192843 -0.053018
vn 0.000811 -0.192843 -0.053018
vn 0.000811 -0.192843 -0.053018
vn 0.000811 -0.192843 -0.053018
vn 0.000811 -0.192843 -0.053018
f 1/1/1 2/2/2 3/3/3
f 4/4/4 5/5/5 6/6/6
f 7/7/7 8/8/8 9/9/9
f 10/10/10 11/11/11 12/12/12
f 13/13/13 14/14/14 15/15/15
f 16/16/16 17/17/17 18/18/18
f 19/19/19 20/20/20 21/21/21
f 22/22/22 23/23/23 24/24/24
f 25/25/25 26/26/26 27/27/27
f 28/28/28 29/29/29 30/30/30
f 31/31/31 32/32/32 33/33/33
f 34/34/34 35/35/35 36/36/36
