# frame 001166 
# time 0.583500 
# name Cloth3D 
v -0.000000 0.000000 -0.000000
v 1.000000 0.000000 -0.000000
v -0.000000 1.000000 0.000000
v 1.000000 1.000000 0.000000
v 0.936868 0.125927 0.000308
v -0.000000 0.500000 0.000000
v 0.500000 1.000000 0.000000
v 1.000000 0.500000 0.000000
v 0.500000 -0.000000 0.000000
v 0.241453 0.759485 0.101332
v 0.755566 0.754869 0.087253
v 0.249502 0.251028 0.053724
v 0.751094 0.253805 0.044206
v 0.750000 0.000000 0.000000
v 0.250000 0.000000 0.000000
v 1.000000 0.750000 0.000000
v 1.000000 0.250000 0.000000
v 0.250000 1.000000 0.000000
v 0.750000 1.000000 0.000000
v 0.000000 0.250000 0.000000
v 0.000000 0.750000 -0.000000
v 0.365279 0.221123 0.061097
v 0.059604 0.876732 0.021189
v 0.237953 0.520025 0.105286
v 0.813073 0.253637 0.031377
v 0.878402 0.377959 0.041873
v 0.625171 0.126844 0.028814
v 0.881186 0.440341 0.052746
v 0.874033 0.126867 0.003048
v 0.375238 0.124804 0.036912
v 0.125596 0.125779 0.012446
v 0.493122 0.254070 0.066587
v 0.883386 0.626818 0.062871
v 0.123845 0.939313 0.017845
v 0.874954 0.874810 0.020660
v 0.372847 0.885766 0.071416
v 0.250968 0.606962 0.125938
v 0.121239 0.878834 0.036607
v 0.119860 0.628591 0.057957
v 0.626446 0.882664 0.064073
v 0.123372 0.377167 0.040358
v 0.249507 0.123296 0.036688
v 0.877808 0.750708 0.043795
v 0.874733 0.253259 0.017786
v 0.246482 0.883262 0.059814
v 0.751008 0.878091 0.044698
v 0.124467 0.251257 0.030033
v 0.117179 0.754380 0.059309
v 0.319866 0.566990 0.150829
v 0.584022 0.309095 0.079389
v 0.062500 1.000000 0.000000
v 0.883144 0.502818 0.059905
v 0.433410 0.784343 0.119330
v 0.242521 0.458980 0.094213
v 0.000000 0.375000 0.000000
v 0.500173 0.885707 0.072942
v 0.000000 0.687500 -0.000000
v 0.247330 0.377950 0.076020
v 0.120867 0.502918 0.053312
v 0.522148 0.419308 0.111923
v 0.626773 0.253140 0.063875
v 0.500289 0.127080 0.030817
v 0.497512 0.634773 0.173486
v 0.000000 0.625000 0.000000
v 0.647477 0.533237 0.139077
v 0.446048 0.539763 0.145871
v 0.625000 1.000000 0.000000
v 0.875000 1.000000 0.000000
v 0.125000 1.000000 0.000000
v 0.375000 1.000000 0.000000
v 1.000000 0.375000 0.000000
v 0.569010 0.466862 0.124689
v 1.000000 0.875000 0.000000
v 1.000000 0.625000 0.000000
v 0.375000 0.000000 0.000000
v 0.125000 0.000000 0.000000
v 0.875000 0.000000 0.000000
v 0.625000 0.000000 0.000000
v 0.749620 0.127260 0.018592
v 0.474319 0.483289 0.133208
v 0.774315 0.520387 0.115439
v 0.061549 0.313465 0.019514
v 0.183846 0.440870 0.068625
v 0.187201 0.315030 0.046262
v 0.061225 0.439002 0.023259
v 0.687806 0.941088 0.029534
v 0.691044 0.819330 0.080329
v 0.562686 0.942651 0.035524
v 0.058377 0.689345 0.031369
v 0.178868 0.693538 0.086871
v 0.059680 0.564201 0.029234
v 0.186041 0.941534 0.027314
v 0.181356 0.819263 0.066706
v 0.061556 0.938487 0.011093
v 0.393402 0.491510 0.130322
v 0.675655 0.364803 0.083357
v 0.508133 0.736720 0.135173
v 0.307601 0.823363 0.092283
v 0.437070 0.944203 0.038626
v 0.938290 0.812366 0.017114
v 0.813850 0.813646 0.047390
v 0.937999 0.938018 0.012754
v 1.000000 0.187500 -0.000000
v 0.000000 0.187500 0.000000
v 0.941091 0.501707 0.029021
v 0.835258 0.595616 0.100378
v 0.819845 0.690378 0.081536
v 0.942783 0.625933 0.033166
v 0.308489 0.712032 0.136726
v 0.815958 0.751773 0.063173
v 0.887445 0.564958 0.070381
v 0.187620 0.062007 0.014434
v 0.062699 0.062968 0.002947
v 0.187766 0.188138 0.031921
v 0.312613 0.061082 0.021788
v 0.312172 0.186721 0.053771
v 0.437708 0.062801 0.017692
v 0.811980 0.063732 0.004133
v 0.937183 0.063171 -0.007988
v -0.000000 0.937500 0.000000
v 0.595492 0.687963 0.154417
v 0.526258 0.816653 0.105621
v 0.563255 0.190301 0.047664
v 0.687699 0.191120 0.036111
v 0.562514 0.063715 0.014075
v 0.939309 0.313752 0.019824
v 0.814526 0.316647 0.044514
v 0.939942 0.439297 0.024914
v 0.311272 0.943534 0.035481
v 0.719867 0.525347 0.136082
v 0.811601 0.191093 0.017192
v 0.804552 0.377439 0.059777
v 0.687163 0.064157 0.008755
v 0.399850 0.381037 0.099930
v 0.936792 0.189000 0.001852
v 0.438007 0.188865 0.052745
v 0.062142 0.188075 0.013772
v 0.375315 0.780562 0.117065
v 0.940465 0.687946 0.027720
v 0.720969 0.296010 0.058138
v 0.057801 0.814512 0.028557
v 0.812200 0.937822 0.015564
v 0.181428 0.567366 0.083437
v 0.781701 0.655865 0.120434
v 0.674319 0.474357 0.118780
v 0.719414 0.635658 0.173663
v 0.319622 0.633978 0.173667
v 0.723791 0.778481 0.090507
v 0.361274 0.546361 0.144520
v 0.619683 0.635279 0.173532
v 0.186344 0.378375 0.054809
v 0.295261 0.334721 0.077388
v 0.733184 0.617787 0.159201
v 0.320303 0.454376 0.112545
v 0.683602 0.680897 0.154545
v 0.330178 0.277331 0.073523
v 0.267593 0.666667 0.137905
v 0.534445 0.521870 0.142679
v 0.616909 0.782665 0.114615
v 0.598684 0.373096 0.094627
v 0.415944 0.634430 0.173484
v 0.720289 0.424960 0.101946
v -0.000000 0.062500 -0.000000
v 0.125012 0.314619 0.030043
v 0.418637 0.259236 0.070112
v 0.062284 0.125232 0.012024
v 0.823628 0.485258 0.087203
v 0.478981 0.367262 0.098336
v 0.177915 0.630289 0.090967
v 0.408357 0.672611 0.159480
v -0.000000 0.875000 -0.000000
v 0.000000 0.812500 -0.000000
v 0.880593 0.689010 0.055049
v 1.000000 0.562500 0.000000
v 1.000000 0.062500 -0.000000
v -0.000000 0.562500 0.000000
v -0.000000 0.437500 0.000000
v 0.576283 0.572860 0.155477
v 0.058529 0.752132 0.029720
vt 0.000000 0.000000
vt 1.000000 0.000000
vt 0.000000 1.000000
vt 1.000000 1.000000
vt 0.937500 0.125000
vt 0.000000 0.500000
vt 0.500000 1.000000
vt 1.000000 0.500000
vt 0.500000 0.000000
vt 0.250000 0.750000
vt 0.750000 0.750000
vt 0.250000 0.250000
vt 0.750000 0.250000
vt 0.750000 0.000000
vt 0.250000 0.000000
vt 1.000000 0.750000
vt 1.000000 0.250000
vt 0.250000 1.000000
vt 0.750000 1.000000
vt 0.000000 0.250000
vt 0.000000 0.750000
vt 0.365347 0.220303
vt 0.062500 0.875000
vt 0.245672 0.515386
vt 0.812500 0.250000
vt 0.875000 0.375000
vt 0.625000 0.125000
vt 0.875000 0.437500
vt 0.875000 0.125000
vt 0.375000 0.125000
vt 0.125000 0.125000
vt 0.492214 0.250470
vt 0.875000 0.625000
vt 0.125000 0.937500
vt 0.875000 0.875000
vt 0.375000 0.875000
vt 0.262101 0.599801
vt 0.125000 0.875000
vt 0.125000 0.625000
vt 0.625000 0.875000
vt 0.125000 0.375000
vt 0.250000 0.125000
vt 0.875000 0.750000
vt 0.875000 0.250000
vt 0.250000 0.875000
vt 0.750000 0.875000
vt 0.125000 0.250000
vt 0.125000 0.750000
vt 0.331041 0.561059
vt 0.581754 0.304126
vt 0.062500 1.000000
vt 0.875000 0.500000
vt 0.435664 0.771773
vt 0.248222 0.455442
vt 0.000000 0.375000
vt 0.500000 0.875000
vt 0.000000 0.687500
vt 0.250000 0.375000
vt 0.125000 0.500000
vt 0.519707 0.411902
vt 0.625000 0.250000
vt 0.500000 0.125000
vt 0.496527 0.622823
vt 0.000000 0.625000
vt 0.636517 0.523144
vt 0.447814 0.530275
vt 0.625000 1.000000
vt 0.875000 1.000000
vt 0.125000 1.000000
vt 0.375000 1.000000
vt 1.000000 0.375000
vt 0.564051 0.458319
vt 1.000000 0.875000
vt 1.000000 0.625000
vt 0.375000 0.000000
vt 0.125000 0.000000
vt 0.875000 0.000000
vt 0.625000 0.000000
vt 0.750000 0.125000
vt 0.473805 0.475426
vt 0.760524 0.515669
vt 0.062500 0.312500
vt 0.187500 0.437500
vt 0.187500 0.312500
vt 0.062500 0.437500
vt 0.687500 0.937500
vt 0.687500 0.812500
vt 0.562500 0.937500
vt 0.062500 0.687500
vt 0.187500 0.687500
vt 0.062500 0.562500
vt 0.187500 0.937500
vt 0.187500 0.812500
vt 0.062500 0.937500
vt 0.396781 0.484194
vt 0.671367 0.358455
vt 0.506884 0.725192
vt 0.312500 0.812500
vt 0.437500 0.937500
vt 0.937500 0.812500
vt 0.812500 0.812500
vt 0.937500 0.937500
vt 1.000000 0.187500
vt 0.000000 0.187500
vt 0.937500 0.500000
vt 0.819332 0.591237
vt 0.812500 0.687500
vt 0.937500 0.625000
vt 0.319123 0.700934
vt 0.812500 0.750000
vt 0.875000 0.562500
vt 0.187500 0.062500
vt 0.062500 0.062500
vt 0.187500 0.187500
vt 0.312500 0.062500
vt 0.312500 0.187500
vt 0.437500 0.062500
vt 0.812500 0.062500
vt 0.937500 0.062500
vt 0.000000 0.937500
vt 0.587160 0.675778
vt 0.525016 0.804189
vt 0.562500 0.187500
vt 0.687500 0.187500
vt 0.562500 0.062500
vt 0.937500 0.312500
vt 0.812500 0.312500
vt 0.937500 0.437500
vt 0.312500 0.937500
vt 0.705338 0.520032
vt 0.812500 0.187500
vt 0.800716 0.372483
vt 0.687500 0.062500
vt 0.400647 0.375957
vt 0.937500 0.187500
vt 0.437500 0.187500
vt 0.062500 0.187500
vt 0.380019 0.768564
vt 0.937500 0.687500
vt 0.719579 0.291358
vt 0.062500 0.812500
vt 0.812500 0.937500
vt 0.187500 0.562500
vt 0.765906 0.648544
vt 0.665088 0.466564
vt 0.695359 0.622836
vt 0.335799 0.624131
vt 0.718294 0.771897
vt 0.368720 0.538399
vt 0.607853 0.623190
vt 0.187500 0.375000
vt 0.296906 0.332149
vt 0.711873 0.607167
vt 0.324887 0.449720
vt 0.668274 0.669022
vt 0.331126 0.276226
vt 0.281585 0.657008
vt 0.530429 0.512451
vt 0.611736 0.771102
vt 0.595175 0.366343
vt 0.421917 0.623279
vt 0.711986 0.420605
vt 0.000000 0.062500
vt 0.125000 0.312500
vt 0.418341 0.256674
vt 0.062500 0.125000
vt 0.812755 0.481587
vt 0.477835 0.361491
vt 0.187500 0.625000
vt 0.414679 0.661630
vt 0.000000 0.875000
vt 0.000000 0.812500
vt 0.875000 0.687500
vt 1.000000 0.562500
vt 1.000000 0.062500
vt 0.000000 0.562500
vt 0.000000 0.437500
vt 0.569109 0.562013
vt 0.062500 0.750000
vn -0.035836 -0.017918 0.999197
vn -0.080708 0.040354 0.995921
vn 0.000000 0.000000 1.000000
vn 0.101259 0.101259 0.989693
vn 0.011846 -0.062438 0.997979
vn -0.401620 -0.014819 0.915687
vn 0.013849 0.548354 0.836132
vn 0.431815 -0.018051 0.901782
vn 0.013333 -0.239850 0.970718
vn -0.289502 0.271684 0.917811
vn 0.365911 0.320798 0.873612
vn -0.192190 -0.149397 0.969919
vn 0.167526 -0.213152 0.962549
vn 0.018330 -0.121835 0.992381
vn -0.028519 -0.282504 0.958842
vn 0.349459 0.042743 0.935976
vn 0.125970 -0.057545 0.990364
vn -0.029277 0.467324 0.883601
vn 0.055039 0.347897 0.935916
vn -0.253335 -0.018537 0.967201
vn -0.458411 0.009762 0.888687
vn 0.001904 -0.228566 0.973527
vn -0.290966 0.143637 0.945890
vn -0.363223 -0.177153 0.914705
vn 0.203475 -0.215260 0.955124
vn 0.275938 -0.160425 0.947693
vn 0.067890 -0.240765 0.968206
vn 0.395134 -0.155422 0.905380
vn 0.083900 -0.087272 0.992645
vn 0.023851 -0.254527 0.966772
vn -0.083698 -0.105190 0.990924
vn 0.030403 -0.258164 0.965623
vn 0.471316 0.154557 0.868316
vn -0.147149 0.277351 0.949433
vn 0.136414 0.144500 0.980057
vn -0.062248 0.455710 0.887949
vn -0.472495 -0.112583 0.874113
vn -0.224263 0.252734 0.941186
vn -0.451592 -0.028800 0.891760
vn 0.110827 0.441064 0.890607
vn -0.244171 -0.137884 0.959880
vn -0.115162 -0.192562 0.974504
vn 0.327031 0.191727 0.925360
vn 0.171241 -0.177459 0.969115
vn -0.131725 0.380724 0.915258
vn 0.180036 0.331234 0.926213
vn -0.189256 -0.053432 0.980473
vn -0.390882 0.074203 0.917445
vn -0.192631 -0.300836 0.934019
vn 0.054224 -0.242958 0.968520
vn -0.045275 0.135826 0.989698
vn 0.455697 -0.145444 0.878172
vn -0.027797 0.369511 0.928810
vn -0.289527 -0.210457 0.933746
vn -0.329841 -0.010841 0.943974
vn 0.028901 0.477920 0.877928
vn -0.476750 0.000000 0.879039
vn -0.277387 -0.210568 0.937399
vn -0.385638 -0.083876 0.918830
vn 0.039027 -0.289920 0.956255
vn 0.088426 -0.247699 0.964793
vn 0.032845 -0.258816 0.965368
vn -0.001137 0.033538 0.999437
vn -0.451454 -0.006095 0.892274
vn 0.032958 -0.308673 0.950597
vn -0.032788 -0.258645 0.965416
vn 0.023326 0.486967 0.873109
vn 0.011413 0.222822 0.974792
vn -0.074161 0.277392 0.957890
vn -0.013496 0.549208 0.835577
vn 0.346939 -0.019905 0.937677
vn 0.049348 -0.287955 0.956372
vn 0.235292 0.017831 0.971761
vn 0.489815 0.024062 0.871494
vn 0.017861 -0.302765 0.952898
vn -0.044325 -0.141237 0.988983
vn 0.046503 0.028590 0.998509
vn 0.020566 -0.198322 0.979921
vn 0.094204 -0.164065 0.981941
vn -0.012920 -0.258700 0.965871
vn 0.355104 -0.249749 0.900848
vn -0.235744 -0.042316 0.970894
vn -0.320647 -0.190721 0.927799
vn -0.249612 -0.107799 0.962327
vn -0.355411 -0.042445 0.933746
vn 0.079029 0.414435 0.906641
vn 0.187407 0.396510 0.898698
vn 0.038243 0.511069 0.858688
vn -0.453236 -0.003639 0.891383
vn -0.435820 0.078289 0.896622
vn -0.426350 -0.013471 0.904458
vn -0.104491 0.356497 0.928435
vn -0.250259 0.258446 0.933047
vn -0.152156 0.167135 0.974122
vn -0.064315 -0.271539 0.960276
vn 0.089837 -0.285795 0.954070
vn 0.014407 0.348108 0.937344
vn -0.132819 0.378184 0.916153
vn -0.002146 0.537599 0.843198
vn 0.253024 0.076155 0.964458
vn 0.280543 0.245673 0.927869
vn 0.097783 0.101031 0.990066
vn 0.022250 -0.005971 0.999735
vn -0.214145 -0.007576 0.976773
vn 0.457202 -0.083676 0.885418
vn 0.507331 0.070976 0.858823
vn 0.429653 0.264817 0.863291
vn 0.477154 0.082120 0.874974
vn -0.221893 0.343991 0.912378
vn 0.331379 0.259590 0.907084
vn 0.492179 -0.023384 0.870180
vn -0.084158 -0.188944 0.978375
vn -0.042902 -0.096023 0.994454
vn -0.172721 -0.139906 0.974984
vn -0.004633 -0.288203 0.957558
vn -0.053088 -0.205854 0.977142
vn 0.030321 -0.264062 0.964029
vn 0.074640 -0.083205 0.993733
vn -0.038231 -0.046296 0.998196
vn -0.135793 0.045264 0.989703
vn 0.012129 0.357803 0.933718
vn 0.035103 0.396472 0.917375
vn 0.016036 -0.265099 0.964088
vn 0.118433 -0.232676 0.965316
vn 0.007747 -0.233291 0.972376
vn 0.232517 -0.102161 0.967212
vn 0.208155 -0.203933 0.956600
vn 0.405420 -0.068756 0.911541
vn -0.052045 0.489474 0.870463
vn 0.161551 -0.310039 0.936897
vn 0.171838 -0.170503 0.970258
vn 0.246682 -0.232027 0.940910
vn 0.039879 -0.178314 0.983165
vn -0.059199 -0.254182 0.965343
vn 0.065715 -0.048920 0.996639
vn 0.030719 -0.252328 0.967154
vn -0.173946 -0.044142 0.983765
vn -0.078374 0.370850 0.925380
vn 0.416118 0.088838 0.904961
vn 0.166035 -0.241329 0.956134
vn -0.402162 0.078867 0.912165
vn 0.081885 0.256622 0.963037
vn -0.445659 -0.099496 0.889656
vn 0.516923 0.292148 0.804636
vn 0.031536 -0.311719 0.949651
vn 0.478794 0.046291 0.876706
vn -0.286044 0.015078 0.958098
vn 0.283706 0.369821 0.884728
vn -0.030470 -0.304811 0.951925
vn 0.013335 0.092604 0.995614
vn -0.274900 -0.180284 0.944419
vn -0.189835 -0.194560 0.962346
vn 0.594453 -0.145478 0.790861
vn -0.169418 -0.262470 0.949951
vn 0.157148 0.436570 0.885840
vn -0.094742 -0.194071 0.976402
vn -0.440676 0.161108 0.883090
vn 0.026772 -0.271163 0.962161
vn 0.113075 0.413877 0.903283
vn 0.077388 -0.272285 0.959100
vn -0.003218 0.133782 0.991006
vn 0.132486 -0.311861 0.940845
vn -0.073439 -0.039828 0.996504
vn -0.199501 -0.078046 0.976785
vn 0.005900 -0.240021 0.970750
vn -0.072433 -0.071731 0.994790
vn 0.384633 -0.205538 0.899895
vn 0.012270 -0.271366 0.962398
vn -0.485461 -0.038872 0.873394
vn -0.012064 0.348402 0.937268
vn -0.302003 0.041224 0.952415
vn -0.417482 0.027014 0.908284
vn 0.404296 0.152551 0.901816
vn 0.489008 -0.011496 0.872204
vn -0.103279 -0.035558 0.994017
vn -0.442133 0.000000 0.896949
vn -0.359261 -0.000000 0.933237
vn 0.035013 -0.285401 0.957768
vn -0.456602 0.020393 0.889437
f 1/1/1 113/113/113 163/163/163
f 166/166/166 163/163/163 113/113/113
f 84/84/84 152/152/152 58/58/58
f 112/112/112 31/31/31 113/113/113
f 47/47/47 137/137/137 114/114/114
f 166/166/166 104/104/104 163/163/163
f 166/166/166 137/137/137 104/104/104
f 112/112/112 114/114/114 31/31/31
f 164/164/164 151/151/151 41/41/41
f 42/42/42 114/114/114 112/112/112
f 31/31/31 166/166/166 113/113/113
f 116/116/116 115/115/115 30/30/30
f 31/31/31 137/137/137 166/166/166
f 156/156/156 152/152/152 12/12/12
f 114/114/114 137/137/137 31/31/31
f 76/76/76 113/113/113 1/1/1
f 76/76/76 112/112/112 113/113/113
f 15/15/15 112/112/112 76/76/76
f 15/15/15 115/115/115 112/112/112
f 75/75/75 115/115/115 15/15/15
f 117/117/117 115/115/115 75/75/75
f 136/136/136 30/30/30 117/117/117
f 54/54/54 58/58/58 154/154/154
f 22/22/22 30/30/30 136/136/136
f 30/30/30 115/115/115 117/117/117
f 32/32/32 165/165/165 136/136/136
f 22/22/22 136/136/136 165/165/165
f 134/134/134 156/156/156 165/165/165
f 156/156/156 116/116/116 22/22/22
f 42/42/42 116/116/116 114/114/114
f 116/116/116 30/30/30 22/22/22
f 42/42/42 112/112/112 115/115/115
f 42/42/42 115/115/115 116/116/116
f 156/156/156 12/12/12 116/116/116
f 12/12/12 114/114/114 116/116/116
f 177/177/177 55/55/55 85/85/85
f 161/161/161 170/170/170 147/147/147
f 156/156/156 22/22/22 165/165/165
f 134/134/134 165/165/165 168/168/168
f 85/85/85 41/41/41 83/83/83
f 82/82/82 137/137/137 47/47/47
f 168/168/168 165/165/165 32/32/32
f 80/80/80 134/134/134 168/168/168
f 95/95/95 134/134/134 80/80/80
f 134/134/134 152/152/152 156/156/156
f 81/81/81 106/106/106 153/153/153
f 95/95/95 80/80/80 66/66/66
f 130/130/130 153/153/153 146/146/146
f 157/157/157 169/169/169 37/37/37
f 124/124/124 140/140/140 61/61/61
f 146/146/146 65/65/65 130/130/130
f 77/77/77 2/2/2 119/119/119
f 119/119/119 2/2/2 175/175/175
f 135/135/135 44/44/44 29/29/29
f 140/140/140 96/96/96 61/61/61
f 151/151/151 83/83/83 41/41/41
f 124/124/124 13/13/13 140/140/140
f 24/24/24 83/83/83 54/54/54
f 83/83/83 58/58/58 54/54/54
f 85/85/85 55/55/55 41/41/41
f 151/151/151 58/58/58 83/83/83
f 84/84/84 12/12/12 152/152/152
f 84/84/84 58/58/58 151/151/151
f 117/117/117 9/9/9 62/62/62
f 125/125/125 62/62/62 9/9/9
f 164/164/164 47/47/47 84/84/84
f 164/164/164 84/84/84 151/151/151
f 82/82/82 164/164/164 41/41/41
f 82/82/82 47/47/47 164/164/164
f 55/55/55 82/82/82 41/41/41
f 20/20/20 137/137/137 82/82/82
f 20/20/20 104/104/104 137/137/137
f 55/55/55 20/20/20 82/82/82
f 84/84/84 47/47/47 12/12/12
f 120/120/120 51/51/51 3/3/3
f 133/133/133 14/14/14 79/79/79
f 141/141/141 38/38/38 23/23/23
f 45/45/45 92/92/92 93/93/93
f 59/59/59 143/143/143 91/91/91
f 34/34/34 92/92/92 69/69/69
f 23/23/23 34/34/34 94/94/94
f 97/97/97 170/170/170 63/63/63
f 92/92/92 18/18/18 69/69/69
f 48/48/48 89/89/89 90/90/90
f 72/72/72 145/145/145 65/65/65
f 39/39/39 90/90/90 89/89/89
f 170/170/170 138/138/138 109/109/109
f 138/138/138 53/53/53 36/36/36
f 158/158/158 66/66/66 80/80/80
f 56/56/56 53/53/53 122/122/122
f 98/98/98 138/138/138 36/36/36
f 58/58/58 152/152/152 154/154/154
f 39/39/39 91/91/91 143/143/143
f 109/109/109 98/98/98 10/10/10
f 45/45/45 10/10/10 98/98/98
f 93/93/93 38/38/38 48/48/48
f 92/92/92 45/45/45 18/18/18
f 36/36/36 99/99/99 129/129/129
f 129/129/129 70/70/70 18/18/18
f 129/129/129 18/18/18 45/45/45
f 34/34/34 38/38/38 92/92/92
f 70/70/70 129/129/129 99/99/99
f 94/94/94 69/69/69 51/51/51
f 94/94/94 34/34/34 69/69/69
f 120/120/120 94/94/94 51/51/51
f 45/45/45 98/98/98 129/129/129
f 172/172/172 23/23/23 171/171/171
f 123/123/123 32/32/32 62/62/62
f 23/23/23 38/38/38 34/34/34
f 36/36/36 129/129/129 98/98/98
f 172/172/172 141/141/141 23/23/23
f 21/21/21 141/141/141 172/172/172
f 39/39/39 169/169/169 90/90/90
f 64/64/64 39/39/39 89/89/89
f 48/48/48 90/90/90 10/10/10
f 48/48/48 38/38/38 141/141/141
f 93/93/93 48/48/48 10/10/10
f 93/93/93 10/10/10 45/45/45
f 5/5/5 103/103/103 135/135/135
f 77/77/77 119/119/119 118/118/118
f 118/118/118 79/79/79 14/14/14
f 114/114/114 12/12/12 47/47/47
f 136/136/136 62/62/62 32/32/32
f 59/59/59 85/85/85 83/83/83
f 57/57/57 89/89/89 21/21/21
f 64/64/64 89/89/89 57/57/57
f 176/176/176 91/91/91 64/64/64
f 6/6/6 91/91/91 176/176/176
f 120/120/120 171/171/171 94/94/94
f 91/91/91 39/39/39 64/64/64
f 23/23/23 94/94/94 171/171/171
f 38/38/38 93/93/93 92/92/92
f 59/59/59 83/83/83 24/24/24
f 143/143/143 59/59/59 24/24/24
f 37/37/37 24/24/24 49/49/49
f 143/143/143 169/169/169 39/39/39
f 149/149/149 95/95/95 66/66/66
f 6/6/6 177/177/177 85/85/85
f 161/161/161 147/147/147 149/149/149
f 147/147/147 49/49/49 149/149/149
f 157/157/157 37/37/37 147/147/147
f 37/37/37 143/143/143 24/24/24
f 109/109/109 157/157/157 147/147/147
f 157/157/157 90/90/90 169/169/169
f 37/37/37 169/169/169 143/143/143
f 37/37/37 49/49/49 147/147/147
f 170/170/170 109/109/109 147/147/147
f 157/157/157 10/10/10 90/90/90
f 109/109/109 138/138/138 98/98/98
f 109/109/109 10/10/10 157/157/157
f 161/161/161 63/63/63 170/170/170
f 170/170/170 53/53/53 138/138/138
f 65/65/65 178/178/178 158/158/158
f 161/161/161 149/149/149 66/66/66
f 161/161/161 66/66/66 63/63/63
f 140/140/140 162/162/162 96/96/96
f 33/33/33 106/106/106 111/111/111
f 121/121/121 63/63/63 150/150/150
f 122/122/122 97/97/97 159/159/159
f 85/85/85 59/59/59 6/6/6
f 160/160/160 72/72/72 60/60/60
f 158/158/158 63/63/63 66/66/66
f 60/60/60 72/72/72 80/80/80
f 155/155/155 121/121/121 150/150/150
f 178/178/178 63/63/63 158/158/158
f 121/121/121 97/97/97 63/63/63
f 150/150/150 63/63/63 178/178/178
f 148/148/148 101/101/101 46/46/46
f 97/97/97 53/53/53 170/170/170
f 11/11/11 144/144/144 107/107/107
f 159/159/159 121/121/121 155/155/155
f 144/144/144 146/146/146 153/153/153
f 148/148/148 87/87/87 159/159/159
f 65/65/65 150/150/150 178/178/178
f 107/107/107 106/106/106 33/33/33
f 146/146/146 155/155/155 150/150/150
f 65/65/65 146/146/146 150/150/150
f 50/50/50 168/168/168 32/32/32
f 145/145/145 162/162/162 130/130/130
f 81/81/81 153/153/153 130/130/130
f 25/25/25 44/44/44 127/127/127
f 167/167/167 106/106/106 81/81/81
f 111/111/111 52/52/52 105/105/105
f 9/9/9 117/117/117 75/75/75
f 28/28/28 128/128/128 105/105/105
f 101/101/101 35/35/35 46/46/46
f 108/108/108 33/33/33 111/111/111
f 167/167/167 111/111/111 106/106/106
f 142/142/142 46/46/46 35/35/35
f 107/107/107 33/33/33 173/173/173
f 139/139/139 108/108/108 74/74/74
f 173/173/173 108/108/108 139/139/139
f 43/43/43 173/173/173 139/139/139
f 110/110/110 11/11/11 107/107/107
f 173/173/173 33/33/33 108/108/108
f 110/110/110 101/101/101 11/11/11
f 144/144/144 155/155/155 146/146/146
f 144/144/144 153/153/153 106/106/106
f 144/144/144 106/106/106 107/107/107
f 88/88/88 99/99/99 56/56/56
f 11/11/11 155/155/155 144/144/144
f 56/56/56 122/122/122 40/40/40
f 159/159/159 97/97/97 121/121/121
f 43/43/43 107/107/107 173/173/173
f 43/43/43 110/110/110 107/107/107
f 43/43/43 101/101/101 110/110/110
f 16/16/16 139/139/139 74/74/74
f 100/100/100 43/43/43 139/139/139
f 100/100/100 101/101/101 43/43/43
f 35/35/35 101/101/101 100/100/100
f 86/86/86 46/46/46 142/142/142
f 16/16/16 100/100/100 139/139/139
f 102/102/102 35/35/35 100/100/100
f 68/68/68 142/142/142 102/102/102
f 40/40/40 46/46/46 86/86/86
f 142/142/142 35/35/35 102/102/102
f 87/87/87 46/46/46 40/40/40
f 91/91/91 6/6/6 59/59/59
f 19/19/19 86/86/86 142/142/142
f 88/88/88 40/40/40 86/86/86
f 56/56/56 36/36/36 53/53/53
f 87/87/87 40/40/40 159/159/159
f 148/148/148 159/159/159 155/155/155
f 148/148/148 46/46/46 87/87/87
f 148/148/148 155/155/155 11/11/11
f 148/148/148 11/11/11 101/101/101
f 122/122/122 53/53/53 97/97/97
f 122/122/122 159/159/159 40/40/40
f 88/88/88 56/56/56 40/40/40
f 56/56/56 99/99/99 36/36/36
f 67/67/67 88/88/88 86/86/86
f 7/7/7 99/99/99 88/88/88
f 7/7/7 70/70/70 99/99/99
f 67/67/67 7/7/7 88/88/88
f 19/19/19 67/67/67 86/86/86
f 68/68/68 19/19/19 142/142/142
f 73/73/73 102/102/102 100/100/100
f 4/4/4 68/68/68 102/102/102
f 73/73/73 4/4/4 102/102/102
f 16/16/16 73/73/73 100/100/100
f 26/26/26 128/128/128 28/28/28
f 27/27/27 124/124/124 61/61/61
f 28/28/28 105/105/105 52/52/52
f 126/126/126 44/44/44 17/17/17
f 174/174/174 74/74/74 108/108/108
f 8/8/8 174/174/174 105/105/105
f 131/131/131 13/13/13 79/79/79
f 131/131/131 25/25/25 13/13/13
f 29/29/29 44/44/44 131/131/131
f 135/135/135 17/17/17 44/44/44
f 128/128/128 71/71/71 8/8/8
f 128/128/128 8/8/8 105/105/105
f 126/126/126 26/26/26 44/44/44
f 105/105/105 174/174/174 111/111/111
f 167/167/167 28/28/28 52/52/52
f 162/162/162 132/132/132 167/167/167
f 132/132/132 127/127/127 26/26/26
f 132/132/132 26/26/26 28/28/28
f 126/126/126 17/17/17 71/71/71
f 108/108/108 111/111/111 174/174/174
f 140/140/140 132/132/132 162/162/162
f 127/127/127 44/44/44 26/26/26
f 13/13/13 25/25/25 127/127/127
f 79/79/79 13/13/13 124/124/124
f 71/71/71 128/128/128 126/126/126
f 133/133/133 27/27/27 78/78/78
f 167/167/167 132/132/132 28/28/28
f 162/162/162 81/81/81 130/130/130
f 167/167/167 52/52/52 111/111/111
f 162/162/162 167/167/167 81/81/81
f 145/145/145 130/130/130 65/65/65
f 119/119/119 175/175/175 5/5/5
f 72/72/72 65/65/65 158/158/158
f 96/96/96 145/145/145 160/160/160
f 72/72/72 158/158/158 80/80/80
f 160/160/160 60/60/60 168/168/168
f 60/60/60 80/80/80 168/168/168
f 160/160/160 168/168/168 50/50/50
f 96/96/96 50/50/50 61/61/61
f 160/160/160 145/145/145 72/72/72
f 77/77/77 118/118/118 14/14/14
f 154/154/154 134/134/134 95/95/95
f 123/123/123 50/50/50 32/32/32
f 96/96/96 162/162/162 145/145/145
f 96/96/96 160/160/160 50/50/50
f 140/140/140 13/13/13 127/127/127
f 140/140/140 127/127/127 132/132/132
f 135/135/135 103/103/103 17/17/17
f 5/5/5 175/175/175 103/103/103
f 133/133/133 124/124/124 27/27/27
f 119/119/119 5/5/5 29/29/29
f 123/123/123 27/27/27 61/61/61
f 154/154/154 152/152/152 134/134/134
f 123/123/123 61/61/61 50/50/50
f 49/49/49 24/24/24 154/154/154
f 49/49/49 154/154/154 149/149/149
f 62/62/62 136/136/136 117/117/117
f 125/125/125 78/78/78 27/27/27
f 26/26/26 126/126/126 128/128/128
f 9/9/9 78/78/78 125/125/125
f 14/14/14 133/133/133 78/78/78
f 27/27/27 123/123/123 125/125/125
f 119/119/119 29/29/29 118/118/118
f 5/5/5 135/135/135 29/29/29
f 131/131/131 79/79/79 118/118/118
f 79/79/79 124/124/124 133/133/133
f 62/62/62 125/125/125 123/123/123
f 29/29/29 131/131/131 118/118/118
f 131/131/131 44/44/44 25/25/25
f 154/154/154 24/24/24 54/54/54
f 149/149/149 154/154/154 95/95/95
f 21/21/21 179/179/179 141/141/141
f 179/179/179 48/48/48 141/141/141
f 48/48/48 179/179/179 89/89/89
f 179/179/179 21/21/21 89/89/89
