# frame 001146 
# time 0.573500 
# name Box 
v 0.720469 0.398850 -0.339727
v 0.718906 0.770565 -0.191991
v 0.719527 0.622831 0.179727
v 0.720469 0.398850 -0.339727
v 0.719527 0.622831 0.179727
v 0.721090 0.251116 0.031991
v 0.320473 0.397169 -0.339727
v 0.321094 0.249435 0.031991
v 0.319531 0.621150 0.179727
v 0.320473 0.397169 -0.339727
v 0.319531 0.621150 0.179727
v 0.318910 0.768884 -0.191991
v 0.720469 0.398850 -0.339727
v 0.320473 0.397169 -0.339727
v 0.318910 0.768884 -0.191991
v 0.720469 0.398850 -0.339727
v 0.318910 0.768884 -0.191991
v 0.718906 0.770565 -0.191991
v 0.718906 0.770565 -0.191991
v 0.318910 0.768884 -0.191991
v 0.319531 0.621150 0.179727
v 0.718906 0.770565 -0.191991
v 0.319531 0.621150 0.179727
v 0.719527 0.622831 0.179727
v 0.719527 0.622831 0.179727
v 0.319531 0.621150 0.179727
v 0.321094 0.249435 0.031991
v 0.719527 0.622831 0.179727
v 0.321094 0.249435 0.031991
v 0.721090 0.251116 0.031991
v 0.320473 0.397169 -0.339727
v 0.720469 0.398850 -0.339727
v 0.721090 0.251116 0.031991
v 0.320473 0.397169 -0.339727
v 0.721090 0.251116 0.031991
v 0.321094 0.249435 0.031991
vn 0.199998 0.000841 0.000000
vn 0.199998 0.000841 0.000000
vn 0.199998 0.000841 0.000000
vn 0.199998 0.000841 0.000000
vn 0.199998 0.000841 0.000000
vn 0.199998 0.000841 0.000000
vn -0.199998 -0.000841 0.000000
vn -0.199998 -0.000841 0.000000
vn -0.199998 -0.000841 0.000000
vn -0.199998 -0.000841 0.000000
vn -0.199998 -0.000841 0.000000
vn -0.199998 -0.000841 0.000000
vn -0.000311 0.073867 -0.185859
vn -0.000311 0.073867 -0.185859
vn -0.000311 0.073867 -0.185859
vn -0.000311 0.073867 -0.185859
vn -0.000311 0.073867 -0.185859
vn -0.000311 0.073867 -0.185859
vn -0.000781 0.185857 0.073868
vn -0.000781 0.185857 0.073868
vn -0.000781 0.185857 0.073868
vn -0.000781 0.185857 0.073868
vn -0.000781 0.185857 0.073868
vn -0.000781 0.185857 0.073868
vn 0.000311 -0.073867 0.185859
vn 0.000311 -0.073867 0.185859
vn 0.000311 -0.073867 0.185859
vn 0.000311 -0.073867 0.185859
vn 0.000311 -0.073867 0.185859
vn 0.000311 -0.073867 0.185859
vn 0.000781 -0.185857 -0.073868
vn 0.000781 -0.185857 -0.073868
vn 0.000781 -0.185857 -0.073868
vn 0.000781 -0.185857 -0.073868
vn 0.000781 -0.185857 -0.073868
vn 0.000781 -0.185857 -0.073868
f 1/1/1 2/2/2 3/3/3
f 4/4/4 5/5/5 6/6/6
f 7/7/7 8/8/8 9/9/9
f 10/10/10 11/11/11 12/12/12
f 13/13/13 14/14/14 15/15/15
f 16/16/16 17/17/17 18/18/18
f 19/19/19 20/20/20 21/21/21
f 22/22/22 23/23/23 24/24/24
f 25/25/25 26/26/26 27/27/27
f 28/28/28 29/29/29 30/30/30
f 31/31/31 32/32/32 33/33/33
f 34/34/34 35/35/35 36/36/36
