# frame 001274 
# time 0.637500 
# name Box 
v 0.720789 0.322835 -0.291313
v 0.719110 0.722152 -0.268008
v 0.719208 0.698847 0.131313
v 0.720789 0.322835 -0.291313
v 0.719208 0.698847 0.131313
v 0.720887 0.299530 0.108008
v 0.320792 0.321153 -0.291313
v 0.320890 0.297848 0.108008
v 0.319211 0.697165 0.131313
v 0.320792 0.321153 -0.291313
v 0.319211 0.697165 0.131313
v 0.319113 0.720470 -0.268008
v 0.720789 0.322835 -0.291313
v 0.320792 0.321153 -0.291313
v 0.319113 0.720470 -0.268008
v 0.720789 0.322835 -0.291313
v 0.319113 0.720470 -0.268008
v 0.719110 0.722152 -0.268008
v 0.719110 0.722152 -0.268008
v 0.319113 0.720470 -0.268008
v 0.319211 0.697165 0.131313
v 0.719110 0.722152 -0.268008
v 0.319211 0.697165 0.131313
v 0.719208 0.698847 0.131313
v 0.719208 0.698847 0.131313
v 0.319211 0.697165 0.131313
v 0.320890 0.297848 0.108008
v 0.719208 0.698847 0.131313
v 0.320890 0.297848 0.108008
v 0.720887 0.299530 0.108008
v 0.320792 0.321153 -0.291313
v 0.720789 0.322835 -0.291313
v 0.720887 0.299530 0.108008
v 0.320792 0.321153 -0.291313
v 0.720887 0.299530 0.108008
v 0.320890 0.297848 0.108008
vn 0.199998 0.000841 0.000000
vn 0.199998 0.000841 0.000000
vn 0.199998 0.000841 0.000000
vn 0.199998 0.000841 0.000000
vn 0.199998 0.000841 0.000000
vn 0.199998 0.000841 0.000000
vn -0.199998 -0.000841 0.000000
vn -0.199998 -0.000841 0.000000
vn -0.199998 -0.000841 0.000000
vn -0.199998 -0.000841 0.000000
vn -0.199998 -0.000841 0.000000
vn -0.199998 -0.000841 0.000000
vn -0.000049 0.011653 -0.199660
vn -0.000049 0.011653 -0.199660
vn -0.000049 0.011653 -0.199660
vn -0.000049 0.011653 -0.199660
vn -0.000049 0.011653 -0.199660
vn -0.000049 0.011653 -0.199660
vn -0.000839 0.199658 0.011653
vn -0.000839 0.199658 0.011653
vn -0.000839 0.199658 0.011653
vn -0.000839 0.199658 0.011653
vn -0.000839 0.199658 0.011653
vn -0.000839 0.199658 0.011653
vn 0.000049 -0.011653 0.199660
vn 0.000049 -0.011653 0.199660
vn 0.000049 -0.011653 0.199660
vn 0.000049 -0.011653 0.199660
vn 0.000049 -0.011653 0.199660
vn 0.000049 -0.011653 0.199660
vn 0.000839 -0.199658 -0.011653
vn 0.000839 -0.199658 -0.011653
vn 0.000839 -0.199658 -0.011653
vn 0.000839 -0.199658 -0.011653
vn 0.000839 -0.199658 -0.011653
vn 0.000839 -0.199658 -0.011653
f 1/1/1 2/2/2 3/3/3
f 4/4/4 5/5/5 6/6/6
f 7/7/7 8/8/8 9/9/9
f 10/10/10 11/11/11 12/12/12
f 13/13/13 14/14/14 15/15/15
f 16/16/16 17/17/17 18/18/18
f 19/19/19 20/20/20 21/21/21
f 22/22/22 23/23/23 24/24/24
f 25/25/25 26/26/26 27/27/27
f 28/28/28 29/29/29 30/30/30
f 31/31/31 32/32/32 33/33/33
f 34/34/34 35/35/35 36/36/36
