# frame 001252 
# time 0.626500 
# name Box 
v 0.720739 0.334735 -0.301329
v 0.719068 0.732167 -0.256107
v 0.719258 0.686946 0.141329
v 0.720739 0.334735 -0.301329
v 0.719258 0.686946 0.141329
v 0.720929 0.289514 0.096107
v 0.320742 0.333054 -0.301329
v 0.320932 0.287833 0.096107
v 0.319261 0.685265 0.141329
v 0.320742 0.333054 -0.301329
v 0.319261 0.685265 0.141329
v 0.319071 0.730486 -0.256107
v 0.720739 0.334735 -0.301329
v 0.320742 0.333054 -0.301329
v 0.319071 0.730486 -0.256107
v 0.720739 0.334735 -0.301329
v 0.319071 0.730486 -0.256107
v 0.719068 0.732167 -0.256107
v 0.719068 0.732167 -0.256107
v 0.319071 0.730486 -0.256107
v 0.319261 0.685265 0.141329
v 0.719068 0.732167 -0.256107
v 0.319261 0.685265 0.141329
v 0.719258 0.686946 0.141329
v 0.719258 0.686946 0.141329
v 0.319261 0.685265 0.141329
v 0.320932 0.287833 0.096107
v 0.719258 0.686946 0.141329
v 0.320932 0.287833 0.096107
v 0.720929 0.289514 0.096107
v 0.320742 0.333054 -0.301329
v 0.720739 0.334735 -0.301329
v 0.720929 0.289514 0.096107
v 0.320742 0.333054 -0.301329
v 0.720929 0.289514 0.096107
v 0.320932 0.287833 0.096107
vn 0.199998 0.000841 0.000000
vn 0.199998 0.000841 0.000000
vn 0.199998 0.000841 0.000000
vn 0.199998 0.000841 0.000000
vn 0.199998 0.000841 0.000000
vn 0.199998 0.000841 0.000000
vn -0.199998 -0.000841 0.000000
vn -0.199998 -0.000841 0.000000
vn -0.199998 -0.000841 0.000000
vn -0.199998 -0.000841 0.000000
vn -0.199998 -0.000841 0.000000
vn -0.199998 -0.000841 0.000000
vn -0.000095 0.022611 -0.198718
vn -0.000095 0.022611 -0.198718
vn -0.000095 0.022611 -0.198718
vn -0.000095 0.022611 -0.198718
vn -0.000095 0.022611 -0.198718
vn -0.000095 0.022611 -0.198718
vn -0.000835 0.198716 0.022611
vn -0.000835 0.198716 0.022611
vn -0.000835 0.198716 0.022611
vn -0.000835 0.198716 0.022611
vn -0.000835 0.198716 0.022611
vn -0.000835 0.198716 0.022611
vn 0.000095 -0.022611 0.198718
vn 0.000095 -0.022611 0.198718
vn 0.000095 -0.022611 0.198718
vn 0.000095 -0.022611 0.198718
vn 0.000095 -0.022611 0.198718
vn 0.000095 -0.022611 0.198718
vn 0.000835 -0.198716 -0.022611
vn 0.000835 -0.198716 -0.022611
vn 0.000835 -0.198716 -0.022611
vn 0.000835 -0.198716 -0.022611
vn 0.000835 -0.198716 -0.022611
vn 0.000835 -0.198716 -0.022611
f 1/1/1 2/2/2 3/3/3
f 4/4/4 5/5/5 6/6/6
f 7/7/7 8/8/8 9/9/9
f 10/10/10 11/11/11 12/12/12
f 13/13/13 14/14/14 15/15/15
f 16/16/16 17/17/17 18/18/18
f 19/19/19 20/20/20 21/21/21
f 22/22/22 23/23/23 24/24/24
f 25/25/25 26/26/26 27/27/27
f 28/28/28 29/29/29 30/30/30
f 31/31/31 32/32/32 33/33/33
f 34/34/34 35/35/35 36/36/36
