# frame 001247 
# time 0.624000 
# name Box 
v 0.720727 0.337516 -0.303513
v 0.719059 0.734351 -0.253327
v 0.719270 0.684166 0.143513
v 0.720727 0.337516 -0.303513
v 0.719270 0.684166 0.143513
v 0.720938 0.287330 0.093327
v 0.320730 0.335834 -0.303513
v 0.320941 0.285649 0.093327
v 0.319273 0.682484 0.143513
v 0.320730 0.335834 -0.303513
v 0.319273 0.682484 0.143513
v 0.319062 0.732670 -0.253327
v 0.720727 0.337516 -0.303513
v 0.320730 0.335834 -0.303513
v 0.319062 0.732670 -0.253327
v 0.720727 0.337516 -0.303513
v 0.319062 0.732670 -0.253327
v 0.719059 0.734351 -0.253327
v 0.719059 0.734351 -0.253327
v 0.319062 0.732670 -0.253327
v 0.319273 0.682484 0.143513
v 0.719059 0.734351 -0.253327
v 0.319273 0.682484 0.143513
v 0.719270 0.684166 0.143513
v 0.719270 0.684166 0.143513
v 0.319273 0.682484 0.143513
v 0.320941 0.285649 0.093327
v 0.719270 0.684166 0.143513
v 0.320941 0.285649 0.093327
v 0.720938 0.287330 0.093327
v 0.320730 0.335834 -0.303513
v 0.720727 0.337516 -0.303513
v 0.720938 0.287330 0.093327
v 0.320730 0.335834 -0.303513
v 0.720938 0.287330 0.093327
v 0.320941 0.285649 0.093327
vn 0.199998 0.000841 0.000000
vn 0.199998 0.000841 0.000000
vn 0.199998 0.000841 0.000000
vn 0.199998 0.000841 0.000000
vn 0.199998 0.000841 0.000000
vn 0.199998 0.000841 0.000000
vn -0.199998 -0.000841 0.000000
vn -0.199998 -0.000841 0.000000
vn -0.199998 -0.000841 0.000000
vn -0.199998 -0.000841 0.000000
vn -0.199998 -0.000841 0.000000
vn -0.199998 -0.000841 0.000000
vn -0.000105 0.025093 -0.198420
vn -0.000105 0.025093 -0.198420
vn -0.000105 0.025093 -0.198420
vn -0.000105 0.025093 -0.198420
vn -0.000105 0.025093 -0.198420
vn -0.000105 0.025093 -0.198420
vn -0.000834 0.198418 0.025093
vn -0.000834 0.198418 0.025093
vn -0.000834 0.198418 0.025093
vn -0.000834 0.198418 0.025093
vn -0.000834 0.198418 0.025093
vn -0.000834 0.198418 0.025093
vn 0.000105 -0.025093 0.198420
vn 0.000105 -0.025093 0.198420
vn 0.000105 -0.025093 0.198420
vn 0.000105 -0.025093 0.198420
vn 0.000105 -0.025093 0.198420
vn 0.000105 -0.025093 0.198420
vn 0.000834 -0.198418 -0.025093
vn 0.000834 -0.198418 -0.025093
vn 0.000834 -0.198418 -0.025093
vn 0.000834 -0.198418 -0.025093
vn 0.000834 -0.198418 -0.025093
vn 0.000834 -0.198418 -0.025093
f 1/1/1 2/2/2 3/3/3
f 4/4/4 5/5/5 6/6/6
f 7/7/7 8/8/8 9/9/9
f 10/10/10 11/11/11 12/12/12
f 13/13/13 14/14/14 15/15/15
f 16/16/16 17/17/17 18/18/18
f 19/19/19 20/20/20 21/21/21
f 22/22/22 23/23/23 24/24/24
f 25/25/25 26/26/26 27/27/27
f 28/28/28 29/29/29 30/30/30
f 31/31/31 32/32/32 33/33/33
f 34/34/34 35/35/35 36/36/36
