# frame 001225 
# time 0.613000 
# name Box 
v 0.720674 0.350065 -0.312703
v 0.719020 0.743541 -0.240778
v 0.719322 0.671617 0.152703
v 0.720674 0.350065 -0.312703
v 0.719322 0.671617 0.152703
v 0.720976 0.278140 0.080778
v 0.320678 0.348383 -0.312703
v 0.320980 0.276459 0.080778
v 0.319326 0.669935 0.152703
v 0.320678 0.348383 -0.312703
v 0.319326 0.669935 0.152703
v 0.319024 0.741860 -0.240778
v 0.720674 0.350065 -0.312703
v 0.320678 0.348383 -0.312703
v 0.319024 0.741860 -0.240778
v 0.720674 0.350065 -0.312703
v 0.319024 0.741860 -0.240778
v 0.719020 0.743541 -0.240778
v 0.719020 0.743541 -0.240778
v 0.319024 0.741860 -0.240778
v 0.319326 0.669935 0.152703
v 0.719020 0.743541 -0.240778
v 0.319326 0.669935 0.152703
v 0.719322 0.671617 0.152703
v 0.719322 0.671617 0.152703
v 0.319326 0.669935 0.152703
v 0.320980 0.276459 0.080778
v 0.719322 0.671617 0.152703
v 0.320980 0.276459 0.080778
v 0.720976 0.278140 0.080778
v 0.320678 0.348383 -0.312703
v 0.720674 0.350065 -0.312703
v 0.720976 0.278140 0.080778
v 0.320678 0.348383 -0.312703
v 0.720976 0.278140 0.080778
v 0.320980 0.276459 0.080778
vn 0.199998 0.000841 0.000000
vn 0.199998 0.000841 0.000000
vn 0.199998 0.000841 0.000000
vn 0.199998 0.000841 0.000000
vn 0.199998 0.000841 0.000000
vn 0.199998 0.000841 0.000000
vn -0.199998 -0.000841 0.000000
vn -0.199998 -0.000841 0.000000
vn -0.199998 -0.000841 0.000000
vn -0.199998 -0.000841 0.000000
vn -0.199998 -0.000841 0.000000
vn -0.199998 -0.000841 0.000000
vn -0.000151 0.035962 -0.196740
vn -0.000151 0.035962 -0.196740
vn -0.000151 0.035962 -0.196740
vn -0.000151 0.035962 -0.196740
vn -0.000151 0.035962 -0.196740
vn -0.000151 0.035962 -0.196740
vn -0.000827 0.196738 0.035963
vn -0.000827 0.196738 0.035963
vn -0.000827 0.196738 0.035963
vn -0.000827 0.196738 0.035963
vn -0.000827 0.196738 0.035963
vn -0.000827 0.196738 0.035963
vn 0.000151 -0.035962 0.196740
vn 0.000151 -0.035962 0.196740
vn 0.000151 -0.035962 0.196740
vn 0.000151 -0.035962 0.196740
vn 0.000151 -0.035962 0.196740
vn 0.000151 -0.035962 0.196740
vn 0.000827 -0.196738 -0.035963
vn 0.000827 -0.196738 -0.035963
vn 0.000827 -0.196738 -0.035963
vn 0.000827 -0.196738 -0.035963
vn 0.000827 -0.196738 -0.035963
vn 0.000827 -0.196738 -0.035963
f 1/1/1 2/2/2 3/3/3
f 4/4/4 5/5/5 6/6/6
f 7/7/7 8/8/8 9/9/9
f 10/10/10 11/11/11 12/12/12
f 13/13/13 14/14/14 15/15/15
f 16/16/16 17/17/17 18/18/18
f 19/19/19 20/20/20 21/21/21
f 22/22/22 23/23/23 24/24/24
f 25/25/25 26/26/26 27/27/27
f 28/28/28 29/29/29 30/30/30
f 31/31/31 32/32/32 33/33/33
f 34/34/34 35/35/35 36/36/36
