# frame 001231 
# time 0.616000 
# name Box 
v 0.720689 0.346592 -0.310265
v 0.719030 0.741104 -0.244250
v 0.719308 0.675089 0.150265
v 0.720689 0.346592 -0.310265
v 0.719308 0.675089 0.150265
v 0.720966 0.280578 0.084250
v 0.320692 0.344911 -0.310265
v 0.320970 0.278896 0.084250
v 0.319311 0.673408 0.150265
v 0.320692 0.344911 -0.310265
v 0.319311 0.673408 0.150265
v 0.319034 0.739422 -0.244250
v 0.720689 0.346592 -0.310265
v 0.320692 0.344911 -0.310265
v 0.319034 0.739422 -0.244250
v 0.720689 0.346592 -0.310265
v 0.319034 0.739422 -0.244250
v 0.719030 0.741104 -0.244250
v 0.719030 0.741104 -0.244250
v 0.319034 0.739422 -0.244250
v 0.319311 0.673408 0.150265
v 0.719030 0.741104 -0.244250
v 0.319311 0.673408 0.150265
v 0.719308 0.675089 0.150265
v 0.719308 0.675089 0.150265
v 0.319311 0.673408 0.150265
v 0.320970 0.278896 0.084250
v 0.719308 0.675089 0.150265
v 0.320970 0.278896 0.084250
v 0.720966 0.280578 0.084250
v 0.320692 0.344911 -0.310265
v 0.720689 0.346592 -0.310265
v 0.720966 0.280578 0.084250
v 0.320692 0.344911 -0.310265
v 0.720966 0.280578 0.084250
v 0.320970 0.278896 0.084250
vn 0.199998 0.000841 0.000000
vn 0.199998 0.000841 0.000000
vn 0.199998 0.000841 0.000000
vn 0.199998 0.000841 0.000000
vn 0.199998 0.000841 0.000000
vn 0.199998 0.000841 0.000000
vn -0.199998 -0.000841 0.000000
vn -0.199998 -0.000841 0.000000
vn -0.199998 -0.000841 0.000000
vn -0.199998 -0.000841 0.000000
vn -0.199998 -0.000841 0.000000
vn -0.199998 -0.000841 0.000000
vn -0.000139 0.033007 -0.197257
vn -0.000139 0.033007 -0.197257
vn -0.000139 0.033007 -0.197257
vn -0.000139 0.033007 -0.197257
vn -0.000139 0.033007 -0.197257
vn -0.000139 0.033007 -0.197257
vn -0.000829 0.197256 0.033008
vn -0.000829 0.197256 0.033008
vn -0.000829 0.197256 0.033008
vn -0.000829 0.197256 0.033008
vn -0.000829 0.197256 0.033008
vn -0.000829 0.197256 0.033008
vn 0.000139 -0.033007 0.197257
vn 0.000139 -0.033007 0.197257
vn 0.000139 -0.033007 0.197257
vn 0.000139 -0.033007 0.197257
vn 0.000139 -0.033007 0.197257
vn 0.000139 -0.033007 0.197257
vn 0.000829 -0.197256 -0.033008
vn 0.000829 -0.197256 -0.033008
vn 0.000829 -0.197256 -0.033008
vn 0.000829 -0.197256 -0.033008
vn 0.000829 -0.197256 -0.033008
vn 0.000829 -0.197256 -0.033008
f 1/1/1 2/2/2 3/3/3
f 4/4/4 5/5/5 6/6/6
f 7/7/7 8/8/8 9/9/9
f 10/10/10 11/11/11 12/12/12
f 13/13/13 14/14/14 15/15/15
f 16/16/16 17/17/17 18/18/18
f 19/19/19 20/20/20 21/21/21
f 22/22/22 23/23/23 24/24/24
f 25/25/25 26/26/26 27/27/27
f 28/28/28 29/29/29 30/30/30
f 31/31/31 32/32/32 33/33/33
f 34/34/34 35/35/35 36/36/36
