# frame 001255 
# time 0.628000 
# name Box 
v 0.720745 0.333080 -0.300002
v 0.719073 0.730840 -0.257762
v 0.719251 0.688601 0.140002
v 0.720745 0.333080 -0.300002
v 0.719251 0.688601 0.140002
v 0.720923 0.290841 0.097762
v 0.320749 0.331399 -0.300002
v 0.320927 0.289160 0.097762
v 0.319255 0.686920 0.140002
v 0.320749 0.331399 -0.300002
v 0.319255 0.686920 0.140002
v 0.319077 0.729159 -0.257762
v 0.720745 0.333080 -0.300002
v 0.320749 0.331399 -0.300002
v 0.319077 0.729159 -0.257762
v 0.720745 0.333080 -0.300002
v 0.319077 0.729159 -0.257762
v 0.719073 0.730840 -0.257762
v 0.719073 0.730840 -0.257762
v 0.319077 0.729159 -0.257762
v 0.319255 0.686920 0.140002
v 0.719073 0.730840 -0.257762
v 0.319255 0.686920 0.140002
v 0.719251 0.688601 0.140002
v 0.719251 0.688601 0.140002
v 0.319255 0.686920 0.140002
v 0.320927 0.289160 0.097762
v 0.719251 0.688601 0.140002
v 0.320927 0.289160 0.097762
v 0.720923 0.290841 0.097762
v 0.320749 0.331399 -0.300002
v 0.720745 0.333080 -0.300002
v 0.720923 0.290841 0.097762
v 0.320749 0.331399 -0.300002
v 0.720923 0.290841 0.097762
v 0.320927 0.289160 0.097762
vn 0.199998 0.000841 0.000000
vn 0.199998 0.000841 0.000000
vn 0.199998 0.000841 0.000000
vn 0.199998 0.000841 0.000000
vn 0.199998 0.000841 0.000000
vn 0.199998 0.000841 0.000000
vn -0.199998 -0.000841 0.000000
vn -0.199998 -0.000841 0.000000
vn -0.199998 -0.000841 0.000000
vn -0.199998 -0.000841 0.000000
vn -0.199998 -0.000841 0.000000
vn -0.199998 -0.000841 0.000000
vn -0.000089 0.021120 -0.198882
vn -0.000089 0.021120 -0.198882
vn -0.000089 0.021120 -0.198882
vn -0.000089 0.021120 -0.198882
vn -0.000089 0.021120 -0.198882
vn -0.000089 0.021120 -0.198882
vn -0.000836 0.198880 0.021120
vn -0.000836 0.198880 0.021120
vn -0.000836 0.198880 0.021120
vn -0.000836 0.198880 0.021120
vn -0.000836 0.198880 0.021120
vn -0.000836 0.198880 0.021120
vn 0.000089 -0.021120 0.198882
vn 0.000089 -0.021120 0.198882
vn 0.000089 -0.021120 0.198882
vn 0.000089 -0.021120 0.198882
vn 0.000089 -0.021120 0.198882
vn 0.000089 -0.021120 0.198882
vn 0.000836 -0.198880 -0.021120
vn 0.000836 -0.198880 -0.021120
vn 0.000836 -0.198880 -0.021120
vn 0.000836 -0.198880 -0.021120
vn 0.000836 -0.198880 -0.021120
vn 0.000836 -0.198880 -0.021120
f 1/1/1 2/2/2 3/3/3
f 4/4/4 5/5/5 6/6/6
f 7/7/7 8/8/8 9/9/9
f 10/10/10 11/11/11 12/12/12
f 13/13/13 14/14/14 15/15/15
f 16/16/16 17/17/17 18/18/18
f 19/19/19 20/20/20 21/21/21
f 22/22/22 23/23/23 24/24/24
f 25/25/25 26/26/26 27/27/27
f 28/28/28 29/29/29 30/30/30
f 31/31/31 32/32/32 33/33/33
f 34/34/34 35/35/35 36/36/36
