# frame 001280 
# time 0.640500 
# name Box 
v 0.720802 0.319686 -0.288469
v 0.719122 0.719308 -0.271156
v 0.719195 0.701995 0.128469
v 0.720802 0.319686 -0.288469
v 0.719195 0.701995 0.128469
v 0.720875 0.302373 0.111156
v 0.320805 0.318005 -0.288469
v 0.320878 0.300692 0.111156
v 0.319198 0.700314 0.128469
v 0.320805 0.318005 -0.288469
v 0.319198 0.700314 0.128469
v 0.319125 0.717627 -0.271156
v 0.720802 0.319686 -0.288469
v 0.320805 0.318005 -0.288469
v 0.319125 0.717627 -0.271156
v 0.720802 0.319686 -0.288469
v 0.319125 0.717627 -0.271156
v 0.719122 0.719308 -0.271156
v 0.719122 0.719308 -0.271156
v 0.319125 0.717627 -0.271156
v 0.319198 0.700314 0.128469
v 0.719122 0.719308 -0.271156
v 0.319198 0.700314 0.128469
v 0.719195 0.701995 0.128469
v 0.719195 0.701995 0.128469
v 0.319198 0.700314 0.128469
v 0.320878 0.300692 0.111156
v 0.719195 0.701995 0.128469
v 0.320878 0.300692 0.111156
v 0.720875 0.302373 0.111156
v 0.320805 0.318005 -0.288469
v 0.720802 0.319686 -0.288469
v 0.720875 0.302373 0.111156
v 0.320805 0.318005 -0.288469
v 0.720875 0.302373 0.111156
v 0.320878 0.300692 0.111156
vn 0.199998 0.000841 0.000000
vn 0.199998 0.000841 0.000000
vn 0.199998 0.000841 0.000000
vn 0.199998 0.000841 0.000000
vn 0.199998 0.000841 0.000000
vn 0.199998 0.000841 0.000000
vn -0.199998 -0.000841 0.000000
vn -0.199998 -0.000841 0.000000
vn -0.199998 -0.000841 0.000000
vn -0.199998 -0.000841 0.000000
vn -0.199998 -0.000841 0.000000
vn -0.199998 -0.000841 0.000000
vn -0.000036 0.008656 -0.199813
vn -0.000036 0.008656 -0.199813
vn -0.000036 0.008656 -0.199813
vn -0.000036 0.008656 -0.199813
vn -0.000036 0.008656 -0.199813
vn -0.000036 0.008656 -0.199813
vn -0.000840 0.199811 0.008657
vn -0.000840 0.199811 0.008657
vn -0.000840 0.199811 0.008657
vn -0.000840 0.199811 0.008657
vn -0.000840 0.199811 0.008657
vn -0.000840 0.199811 0.008657
vn 0.000036 -0.008656 0.199813
vn 0.000036 -0.008656 0.199813
vn 0.000036 -0.008656 0.199813
vn 0.000036 -0.008656 0.199813
vn 0.000036 -0.008656 0.199813
vn 0.000036 -0.008656 0.199813
vn 0.000840 -0.199811 -0.008657
vn 0.000840 -0.199811 -0.008657
vn 0.000840 -0.199811 -0.008657
vn 0.000840 -0.199811 -0.008657
vn 0.000840 -0.199811 -0.008657
vn 0.000840 -0.199811 -0.008657
f 1/1/1 2/2/2 3/3/3
f 4/4/4 5/5/5 6/6/6
f 7/7/7 8/8/8 9/9/9
f 10/10/10 11/11/11 12/12/12
f 13/13/13 14/14/14 15/15/15
f 16/16/16 17/17/17 18/18/18
f 19/19/19 20/20/20 21/21/21
f 22/22/22 23/23/23 24/24/24
f 25/25/25 26/26/26 27/27/27
f 28/28/28 29/29/29 30/30/30
f 31/31/31 32/32/32 33/33/33
f 34/34/34 35/35/35 36/36/36
