# frame 001303 
# time 0.652000 
# name Box 
v 0.720851 0.308022 -0.277139
v 0.719170 0.707978 -0.282820
v 0.719146 0.713659 0.117139
v 0.720851 0.308022 -0.277139
v 0.719146 0.713659 0.117139
v 0.720827 0.313703 0.122820
v 0.320854 0.306341 -0.277139
v 0.320830 0.312022 0.122820
v 0.319149 0.711978 0.117139
v 0.320854 0.306341 -0.277139
v 0.319149 0.711978 0.117139
v 0.319173 0.706297 -0.282820
v 0.720851 0.308022 -0.277139
v 0.320854 0.306341 -0.277139
v 0.319173 0.706297 -0.282820
v 0.720851 0.308022 -0.277139
v 0.319173 0.706297 -0.282820
v 0.719170 0.707978 -0.282820
v 0.719170 0.707978 -0.282820
v 0.319173 0.706297 -0.282820
v 0.319149 0.711978 0.117139
v 0.719170 0.707978 -0.282820
v 0.319149 0.711978 0.117139
v 0.719146 0.713659 0.117139
v 0.719146 0.713659 0.117139
v 0.319149 0.711978 0.117139
v 0.320830 0.312022 0.122820
v 0.719146 0.713659 0.117139
v 0.320830 0.312022 0.122820
v 0.720827 0.313703 0.122820
v 0.320854 0.306341 -0.277139
v 0.720851 0.308022 -0.277139
v 0.720827 0.313703 0.122820
v 0.320854 0.306341 -0.277139
v 0.720827 0.313703 0.122820
v 0.320830 0.312022 0.122820
vn 0.199998 0.000841 -0.000000
vn 0.199998 0.000841 -0.000000
vn 0.199998 0.000841 -0.000000
vn 0.199998 0.000841 -0.000000
vn 0.199998 0.000841 -0.000000
vn 0.199998 0.000841 -0.000000
vn -0.199998 -0.000841 0.000000
vn -0.199998 -0.000841 0.000000
vn -0.199998 -0.000841 0.000000
vn -0.199998 -0.000841 0.000000
vn -0.199998 -0.000841 0.000000
vn -0.199998 -0.000841 0.000000
vn 0.000012 -0.002841 -0.199980
vn 0.000012 -0.002841 -0.199980
vn 0.000012 -0.002841 -0.199980
vn 0.000012 -0.002841 -0.199980
vn 0.000012 -0.002841 -0.199980
vn 0.000012 -0.002841 -0.199980
vn -0.000841 0.199978 -0.002841
vn -0.000841 0.199978 -0.002841
vn -0.000841 0.199978 -0.002841
vn -0.000841 0.199978 -0.002841
vn -0.000841 0.199978 -0.002841
vn -0.000841 0.199978 -0.002841
vn -0.000012 0.002841 0.199980
vn -0.000012 0.002841 0.199980
vn -0.000012 0.002841 0.199980
vn -0.000012 0.002841 0.199980
vn -0.000012 0.002841 0.199980
vn -0.000012 0.002841 0.199980
vn 0.000841 -0.199978 0.002841
vn 0.000841 -0.199978 0.002841
vn 0.000841 -0.199978 0.002841
vn 0.000841 -0.199978 0.002841
vn 0.000841 -0.199978 0.002841
vn 0.000841 -0.199978 0.002841
f 1/1/1 2/2/2 3/3/3
f 4/4/4 5/5/5 6/6/6
f 7/7/7 8/8/8 9/9/9
f 10/10/10 11/11/11 12/12/12
f 13/13/13 14/14/14 15/15/15
f 16/16/16 17/17/17 18/18/18
f 19/19/19 20/20/20 21/21/21
f 22/22/22 23/23/23 24/24/24
f 25/25/25 26/26/26 27/27/27
f 28/28/28 29/29/29 30/30/30
f 31/31/31 32/32/32 33/33/33
f 34/34/34 35/35/35 36/36/36
