# frame 001306 
# time 0.653500 
# name Box 
v 0.720857 0.306549 -0.275613
v 0.719176 0.706452 -0.284293
v 0.719139 0.715132 0.115613
v 0.720857 0.306549 -0.275613
v 0.719139 0.715132 0.115613
v 0.720821 0.315230 0.124293
v 0.320861 0.304868 -0.275613
v 0.320824 0.313548 0.124293
v 0.319143 0.713451 0.115613
v 0.320861 0.304868 -0.275613
v 0.319143 0.713451 0.115613
v 0.319179 0.704770 -0.284293
v 0.720857 0.306549 -0.275613
v 0.320861 0.304868 -0.275613
v 0.319179 0.704770 -0.284293
v 0.720857 0.306549 -0.275613
v 0.319179 0.704770 -0.284293
v 0.719176 0.706452 -0.284293
v 0.719176 0.706452 -0.284293
v 0.319179 0.704770 -0.284293
v 0.319143 0.713451 0.115613
v 0.719176 0.706452 -0.284293
v 0.319143 0.713451 0.115613
v 0.719139 0.715132 0.115613
v 0.719139 0.715132 0.115613
v 0.319143 0.713451 0.115613
v 0.320824 0.313548 0.124293
v 0.719139 0.715132 0.115613
v 0.320824 0.313548 0.124293
v 0.720821 0.315230 0.124293
v 0.320861 0.304868 -0.275613
v 0.720857 0.306549 -0.275613
v 0.720821 0.315230 0.124293
v 0.320861 0.304868 -0.275613
v 0.720821 0.315230 0.124293
v 0.320824 0.313548 0.124293
vn 0.199998 0.000841 -0.000000
vn 0.199998 0.000841 -0.000000
vn 0.199998 0.000841 -0.000000
vn 0.199998 0.000841 -0.000000
vn 0.199998 0.000841 -0.000000
vn 0.199998 0.000841 -0.000000
vn -0.199998 -0.000841 0.000000
vn -0.199998 -0.000841 0.000000
vn -0.199998 -0.000841 0.000000
vn -0.199998 -0.000841 0.000000
vn -0.199998 -0.000841 0.000000
vn -0.199998 -0.000841 0.000000
vn 0.000018 -0.004340 -0.199953
vn 0.000018 -0.004340 -0.199953
vn 0.000018 -0.004340 -0.199953
vn 0.000018 -0.004340 -0.199953
vn 0.000018 -0.004340 -0.199953
vn 0.000018 -0.004340 -0.199953
vn -0.000841 0.199951 -0.004340
vn -0.000841 0.199951 -0.004340
vn -0.000841 0.199951 -0.004340
vn -0.000841 0.199951 -0.004340
vn -0.000841 0.199951 -0.004340
vn -0.000841 0.199951 -0.004340
vn -0.000018 0.004340 0.199953
vn -0.000018 0.004340 0.199953
vn -0.000018 0.004340 0.199953
vn -0.000018 0.004340 0.199953
vn -0.000018 0.004340 0.199953
vn -0.000018 0.004340 0.199953
vn 0.000841 -0.199951 0.004340
vn 0.000841 -0.199951 0.004340
vn 0.000841 -0.199951 0.004340
vn 0.000841 -0.199951 0.004340
vn 0.000841 -0.199951 0.004340
vn 0.000841 -0.199951 0.004340
f 1/1/1 2/2/2 3/3/3
f 4/4/4 5/5/5 6/6/6
f 7/7/7 8/8/8 9/9/9
f 10/10/10 11/11/11 12/12/12
f 13/13/13 14/14/14 15/15/15
f 16/16/16 17/17/17 18/18/18
f 19/19/19 20/20/20 21/21/21
f 22/22/22 23/23/23 24/24/24
f 25/25/25 26/26/26 27/27/27
f 28/28/28 29/29/29 30/30/30
f 31/31/31 32/32/32 33/33/33
f 34/34/34 35/35/35 36/36/36
